<svg width="160" height="161" viewBox="0 0 160 161" fill="none" xmlns="http://www.w3.org/2000/svg">
<path d="M73.5174 0.571693C42.4675 -0.320845 5.35918 17.7643 0.529972 41.8271C-4.32083 65.9979 25.9175 83.645 18.5475 115.617C14.9244 131.335 5.92593 134.404 8.47278 142.272C14.5343 160.995 74.1564 170.326 116.896 145.203C123.978 141.04 155.77 122.352 159.618 89.209C164.599 46.3015 120.103 1.91079 73.5174 0.571693Z" fill="#F4F7FA"/>
<path d="M113.485 117.974C114.26 122.003 111.766 125.221 109.631 127.273C109.266 127.184 109.029 127.233 108.637 127.231C105.108 127.213 103.65 126.413 100.205 125.817C99.4639 125.688 97.4355 124.608 96.6367 124.109L95.1631 123.152C95.1631 123.152 94.4881 113.652 99.5863 112.342C104.685 111.031 105.138 101.856 105.948 96.9922C108.144 83.7945 121.838 88.4487 126.016 71.7147C127.127 67.2639 127.757 58.4046 132.392 55.792C137.673 52.8155 139.809 57.5544 143.399 54.8599C149.009 50.6485 156.453 50.4883 159.259 56.9555C162.028 63.3383 154.389 72.7743 139.863 78.2733C129.889 83.3987 129.228 85.5111 128.575 90.8933C128.117 94.6631 129.237 105.059 123.326 107.629C117.416 110.199 112.599 113.367 113.485 117.974Z" fill="url(#paint0_linear_17465_25996)"/>
<mask id="mask0_17465_25996" style="mask-type:luminance" maskUnits="userSpaceOnUse" x="95" y="51" width="65" height="79">
<path d="M106.737 129.694L95.3566 123.539C95.3566 123.539 94.4896 113.652 99.5878 112.342C104.686 111.031 105.14 101.856 105.949 96.9922C108.145 83.7944 121.84 88.4487 126.017 71.7146C127.128 67.2639 127.759 58.4045 132.394 55.7919C137.674 52.8154 139.811 57.5544 143.4 54.8599C149.01 50.6485 156.455 50.4883 159.26 56.9555C162.029 63.3383 154.39 72.7743 139.865 78.2733C129.891 83.3987 129.23 85.5111 128.576 90.8933C128.119 94.6631 129.238 105.059 123.328 107.629C117.417 110.199 112.601 113.367 113.486 117.974C114.834 124.983 106.737 129.694 106.737 129.694Z" fill="white"/>
</mask>
<g mask="url(#mask0_17465_25996)">
<g opacity="0.5">
<path d="M101.934 126.391L101.694 126.299C102.244 124.873 102.815 123.441 103.393 122.044C107.674 111.701 112.766 102.131 118.527 93.6003C123.409 86.3724 128.838 79.7881 134.664 74.0303C139.35 69.3999 144.316 65.2765 149.426 61.7745C153.018 59.3128 156.642 57.1812 160.2 55.4392C160.82 55.1356 161.471 54.8597 162.1 54.5929C162.939 54.2374 163.806 53.8699 164.607 53.4336L164.73 53.6588C163.918 54.1012 163.045 54.4712 162.201 54.8291C161.574 55.0946 160.926 55.3691 160.313 55.6697C156.766 57.4061 153.152 59.5313 149.57 61.9862C144.474 65.4794 139.519 69.5931 134.844 74.2128C129.03 79.9587 123.612 86.53 118.74 93.7439C112.988 102.26 107.905 111.814 103.631 122.142C103.053 123.538 102.482 124.967 101.934 126.391Z" fill="#FCFDFE"/>
<path d="M128.047 81.5102L127.847 81.3484C134.791 72.8043 135.249 53.9434 135.252 53.7539L135.509 53.759C135.505 53.9494 135.045 72.8976 128.047 81.5102Z" fill="#FCFDFE"/>
<path d="M110.719 107.114L110.503 106.977C114.542 100.618 128.855 98.4934 128.999 98.4727L129.035 98.7267C128.892 98.7471 114.695 100.855 110.719 107.114Z" fill="#FCFDFE"/>
<path d="M108.74 110.919L108.502 110.822C110.363 106.271 110.469 99.069 108.801 90.5443C108.717 90.1157 108.717 90.1157 108.735 90.0703L108.973 90.1645L108.854 90.1174L108.982 90.1164C108.984 90.1455 109.016 90.3074 109.053 90.495C110.731 99.0684 110.62 106.322 108.74 110.919Z" fill="#FCFDFE"/>
<path d="M102.974 123.803L102.774 123.642C106.173 119.425 114.206 119.424 114.287 119.425L114.285 119.681C114.206 119.681 106.294 119.682 102.974 123.803Z" fill="#FCFDFE"/>
<path d="M101.553 126.317C101.642 121.95 100.481 117.415 98.0029 112.453L98.2325 112.338C100.73 117.339 101.9 121.913 101.809 126.322L101.553 126.317Z" fill="#FCFDFE"/>
<path d="M146.596 64.0976L146.406 63.9251C150.531 59.3898 153.813 53.6689 154.892 51.789C155.153 51.334 155.246 51.1741 155.287 51.124L155.484 51.2885C155.453 51.3272 155.304 51.5874 155.115 51.9168C154.033 53.8027 150.74 59.5417 146.596 64.0976Z" fill="#FCFDFE"/>
<path d="M138.797 70.4801L138.667 70.2592C143.616 67.334 154.742 70.2333 155.213 70.3581L155.148 70.606C155.033 70.5758 143.654 67.6095 138.797 70.4801Z" fill="#FCFDFE"/>
</g>
</g>
<mask id="mask1_17465_25996" style="mask-type:luminance" maskUnits="userSpaceOnUse" x="100" y="78" width="60" height="60">
<path d="M100.748 131.008L110.883 137.186C110.883 137.186 115.961 133.15 115.714 127.966C115.209 117.391 124.507 117.687 128.42 117.229C134.321 116.538 139.219 113.355 134.539 107.816C129.859 102.278 141.311 96.7725 151.001 97.0295C160.485 97.2811 166.404 80.569 145.929 78.1399C133.701 76.6893 129.02 87.7375 125.33 92.7548C121.639 97.772 113.493 93.4071 112.244 101.523C111.177 108.456 113.097 115.155 107.44 116.92C101.783 118.684 98.8396 122.735 100.748 131.008Z" fill="white"/>
</mask>
<g mask="url(#mask1_17465_25996)">
<path d="M100.748 131.008L110.883 137.186C110.883 137.186 115.961 133.15 115.714 127.966C115.209 117.391 124.507 117.687 128.42 117.229C134.321 116.538 138.544 113.571 135.337 108.022C131.709 101.744 141.311 96.7724 151.001 97.0295C160.485 97.2811 166.404 80.569 145.929 78.1399C133.701 76.6893 129.02 87.7375 125.33 92.7548C121.639 97.772 113.493 93.4071 112.244 101.523C111.177 108.456 113.097 115.155 107.44 116.92C101.783 118.684 98.8396 122.735 100.748 131.008Z" fill="url(#paint1_linear_17465_25996)"/>
</g>
<mask id="mask2_17465_25996" style="mask-type:luminance" maskUnits="userSpaceOnUse" x="100" y="78" width="60" height="60">
<path d="M100.748 131.008L110.883 137.186C110.883 137.186 115.961 133.15 115.714 127.966C115.209 117.391 124.507 117.687 128.42 117.229C134.321 116.538 139.219 113.355 134.539 107.816C129.859 102.278 141.311 96.7725 151.001 97.0295C160.485 97.2811 166.404 80.569 145.929 78.1399C133.701 76.6893 129.02 87.7375 125.33 92.7548C121.639 97.772 113.493 93.4071 112.244 101.523C111.177 108.456 113.097 115.155 107.44 116.92C101.783 118.684 98.8396 122.735 100.748 131.008Z" fill="white"/>
</mask>
<g mask="url(#mask2_17465_25996)">
<g opacity="0.5">
<path d="M104.562 134.623L104.796 134.713C104.851 134.568 110.467 120.078 120.365 107.393C129.484 95.7068 144.209 83.2049 162.575 90.0113L162.662 89.7764C154.487 86.7464 146.34 87.2245 138.45 91.1971C132.148 94.3706 125.995 99.7693 120.164 107.243C110.244 119.958 104.617 134.478 104.562 134.623Z" fill="#BEB8F2"/>
<path d="M135.225 92.9989L135.453 93.1018C138.881 85.4984 147.693 77.1009 147.782 77.017L147.61 76.835C147.521 76.9193 138.673 85.3509 135.225 92.9989Z" fill="#BEB8F2"/>
<path d="M140.554 90.4959C150.493 90.3989 155.91 96.6545 155.963 96.7177L156.155 96.5558C156.1 96.4915 150.612 90.1472 140.552 90.2453L140.554 90.4959Z" fill="#BEB8F2"/>
<path d="M114.346 116.038C122.888 107.409 138.116 113.298 138.26 113.368L138.384 113.151C138.25 113.069 122.785 107.156 114.168 115.862L114.346 116.038Z" fill="#BEB8F2"/>
<path d="M116.886 111.723L117.122 111.808C119.723 104.509 115.414 95.7692 115.37 95.6816L115.146 95.7939C115.189 95.8805 119.451 104.527 116.886 111.723Z" fill="#BEB8F2"/>
<path d="M105.729 132.452C108.431 128.713 115.933 129.022 116.008 129.025L116.02 128.775C115.706 128.76 108.308 128.456 105.526 132.305L105.729 132.452Z" fill="#BEB8F2"/>
<path d="M107.013 129.002L107.246 129.095C108.593 125.706 106.038 119.457 105.198 117.404C105.079 117.114 104.977 116.864 104.967 116.815L104.721 116.86C104.733 116.928 104.801 117.095 104.966 117.499C105.796 119.529 108.323 125.707 107.013 129.002Z" fill="#BEB8F2"/>
</g>
</g>
<path d="M118.649 140.391C118.6 140.4 118.551 140.41 118.502 140.419C115.606 140.97 112.343 141.059 108.699 140.396C107.997 140.217 107.296 140.037 106.595 139.858C106.372 138.05 106.484 136.291 108.779 136.113C112.342 135.836 113.697 129.968 113.23 127.687C112.652 124.864 111.442 118.264 116.944 117.749C121.524 117.321 124.567 117.981 126.062 112.527C127.557 107.072 131.315 104.281 136.249 105.693C141.442 107.178 147.278 101.101 151.086 104.381C157.721 110.094 148.276 120.783 138.369 122.327C128.462 123.872 132.994 128.302 132.263 132.872C131.265 139.111 123.214 135.99 120.488 137.936C119.564 138.595 118.995 139.471 118.649 140.391Z" fill="#32AF96"/>
<mask id="mask3_17465_25996" style="mask-type:luminance" maskUnits="userSpaceOnUse" x="106" y="103" width="48" height="41">
<path d="M118.154 143.841L106.696 141.267C106.393 139.495 106.213 136.312 108.776 136.113C112.339 135.836 113.694 129.968 113.227 127.687C112.65 124.864 111.44 118.264 116.941 117.749C121.522 117.321 124.565 117.981 126.059 112.527C127.554 107.072 131.312 104.281 136.246 105.693C141.439 107.178 147.276 101.101 151.084 104.381C157.718 110.094 148.274 120.783 138.366 122.327C128.459 123.872 132.991 128.302 132.26 132.872C131.263 139.111 123.212 135.99 120.485 137.936C118.348 139.461 118.101 142.151 118.154 143.841Z" fill="white"/>
</mask>
<g mask="url(#mask3_17465_25996)">
<g opacity="0.5">
<path d="M113.165 140.827L112.932 140.725C120.44 123.702 136.172 110.407 153.989 106.027L154.05 106.274C136.308 110.636 120.641 123.876 113.165 140.827Z" fill="#FCFDFE"/>
<path d="M118.053 131.897L117.805 131.842C119.376 124.702 114.488 117.791 114.438 117.722L114.645 117.573C114.695 117.643 119.649 124.644 118.053 131.897Z" fill="#FCFDFE"/>
<path d="M114.631 137.733L114.438 137.567C119.278 131.952 132.63 133.945 132.764 133.966L132.725 134.217C132.592 134.197 119.378 132.225 114.631 137.733Z" fill="#FCFDFE"/>
<path d="M130.283 118.372L130.077 118.223C133.521 113.457 131.867 104.593 131.85 104.504L132.1 104.456C132.117 104.546 133.792 113.518 130.283 118.372Z" fill="#FCFDFE"/>
<path d="M140.056 111.731L139.973 111.49C146.302 109.291 154.52 113.084 154.602 113.123L154.494 113.353C154.413 113.315 146.287 109.565 140.056 111.731Z" fill="#FCFDFE"/>
</g>
</g>
<path d="M6.51294 8.5061V144.265C6.51294 146.853 8.34532 149.102 10.9408 149.7L22.3056 152.318C23.3868 152.567 24.495 152.687 25.6059 152.675C25.6931 152.674 25.7803 152.669 25.8671 152.661L27.6318 152.489L38.2985 38.4097L24.4095 1.3623L11.5379 2.96549C8.66482 3.32327 6.51294 5.69595 6.51294 8.5061Z" fill="url(#paint2_linear_17465_25996)"/>
<path d="M20.3513 6.22847V147.77C20.3513 150.596 22.8247 152.828 25.7303 152.623L103.359 144.701C105.981 144.517 108.012 142.399 108.012 139.848V9.5387C108.012 6.93432 105.898 4.79169 103.216 4.67727L25.5876 1.3671C22.7336 1.24542 20.3513 3.45711 20.3513 6.22847Z" fill="url(#paint3_linear_17465_25996)"/>
<path d="M14.465 146.592V7.27156C14.465 5.1832 16.0878 3.06473 18.1038 2.14746L15.7974 2.43475C13.7435 3.16533 12.3123 5.07157 12.3123 7.27156V146.592C12.3123 148.093 12.9809 149.467 14.0685 150.42L17.3431 151.174C15.6095 150.307 14.465 148.557 14.465 146.592Z" fill="url(#paint4_linear_17465_25996)"/>
<path d="M32.3013 18.5645V99.5989C32.3013 101.954 34.2694 103.863 36.6972 103.863L94.0262 101.794C96.454 101.794 98.4221 99.8847 98.4221 97.5294V20.56C98.4221 18.2817 96.5763 16.4058 94.2304 16.3L36.9014 14.3045C34.3962 14.1915 32.3013 16.1315 32.3013 18.5645Z" fill="url(#paint5_linear_17465_25996)"/>
<path d="M96.4344 97.5294V20.56C96.4344 18.2817 94.5886 16.4058 92.2427 16.3L36.0007 14.3535C33.9135 14.6758 32.301 16.43 32.301 18.5644V99.5988C32.301 101.954 34.2692 103.863 36.6969 103.863L92.0385 101.794C94.4663 101.794 96.4344 99.8846 96.4344 97.5294Z" fill="#08A081"/>
<path d="M67.9933 10.2501C67.9933 11.393 67.4043 12.3196 66.6777 12.3196C65.9511 12.3196 65.3621 11.393 65.3621 10.2501C65.3621 9.10719 65.9511 8.18066 66.6777 8.18066C67.4044 8.18066 67.9933 9.10719 67.9933 10.2501Z" fill="url(#paint6_linear_17465_25996)"/>
<path d="M84.4278 55.4391L49.2146 56.0246C46.5346 56.0691 44.354 58.1531 44.354 60.6793V82.8553C44.354 85.3814 46.5345 87.3417 49.2146 87.234L84.4278 85.82C86.9573 85.7184 89.0006 83.6573 89.0006 81.2159V59.7836C89.0006 57.3422 86.9573 55.3971 84.4278 55.4391Z" fill="white"/>
<path d="M83.9182 53.2296C82.8516 53.2455 81.9858 52.4224 81.9858 51.3911V46.5375C81.9858 41.6685 77.8671 37.719 72.7686 37.7338L61.2972 37.7669C56.0673 37.782 51.7817 41.8482 51.7817 46.8309V51.7978C51.7817 52.8532 50.8737 53.7222 49.7519 53.739C48.6282 53.7557 47.7158 52.9112 47.7158 51.8526V46.8705C47.7158 39.7586 53.843 33.9727 61.2972 33.9727H72.7686C80.0114 33.9727 85.8449 39.5925 85.8449 46.5001V51.3392C85.8448 52.3673 84.9829 53.2137 83.9182 53.2296Z" fill="white"/>
<path d="M72.5184 67.729C72.5184 65.2646 70.3671 63.3297 67.7516 63.5074C65.4388 63.6646 63.5262 65.5167 63.4014 67.7282C63.3045 69.4442 64.2475 70.9276 65.6811 71.6778C66.2909 71.9969 66.5937 72.6694 66.4753 73.3347L65.4698 78.9767C65.3418 79.6952 65.9194 80.3265 66.6792 80.2993L69.2631 80.2068C70.0191 80.1797 70.5926 79.5098 70.4655 78.803L69.4607 73.2133C69.3409 72.5465 69.6875 71.8842 70.2989 71.5187C71.6285 70.7238 72.5184 69.314 72.5184 67.729Z" fill="#08A081"/>
<path opacity="0.3" d="M63.1468 124.566C63.1468 132.443 56.5331 139.324 48.2756 139.942C39.9066 140.568 33.0388 134.538 33.0388 126.467C33.0388 118.396 39.9066 111.499 48.2756 111.068C56.5331 110.643 63.1468 116.688 63.1468 124.566Z" fill="url(#paint7_linear_17465_25996)"/>
<path d="M53.7839 122.422C53.4326 122.443 53.1477 122.186 53.1477 121.848V120.255C53.1477 118.656 51.796 117.433 50.1305 117.528L46.4144 117.739C44.7343 117.834 43.3641 119.222 43.3641 120.833V122.439C43.3641 122.78 43.0745 123.074 42.7172 123.096C42.3596 123.118 42.0696 122.859 42.0696 122.517V120.91C42.0696 118.615 44.0224 116.64 46.4144 116.506L50.1305 116.299C52.499 116.167 54.4193 117.908 54.4193 120.18V121.771C54.4193 122.109 54.1349 122.4 53.7839 122.422Z" fill="white"/>
<path d="M53.9518 123.141L42.5462 123.842C41.6945 123.895 41.0032 124.597 41.0032 125.41V132.553C41.0032 133.366 41.6945 133.978 42.5462 133.919L53.9518 133.125C54.7868 133.066 55.4629 132.368 55.4629 131.563V124.504C55.4629 123.7 54.7868 123.089 53.9518 123.141ZM49.0298 128.799C48.8313 128.925 48.7189 129.145 48.7578 129.361L49.0839 131.173C49.1251 131.402 48.9389 131.627 48.6936 131.643L47.8565 131.7C47.6108 131.717 47.4241 131.518 47.4655 131.283L47.7906 129.435C47.8289 129.218 47.731 129.002 47.5338 128.905C47.0708 128.678 46.7666 128.208 46.7978 127.649C46.8381 126.928 47.4555 126.301 48.2037 126.22C49.0519 126.127 49.7513 126.731 49.7513 127.535C49.7513 128.053 49.4618 128.524 49.0298 128.799Z" fill="white"/>
<path d="M98.9179 122.307C98.9179 129.955 92.6858 136.62 84.9076 137.202C77.0274 137.791 70.5632 131.927 70.5632 124.098C70.5632 116.268 77.0275 109.587 84.9076 109.181C92.6858 108.781 98.9179 114.659 98.9179 122.307Z" fill="url(#paint8_linear_17465_25996)"/>
<path d="M89.5604 120.224C89.2674 120.088 89.1551 119.735 89.3095 119.435L90.036 118.024C90.7639 116.61 90.2326 114.938 88.8497 114.292L85.7661 112.853C84.3728 112.203 82.6374 112.827 81.8996 114.248L81.1632 115.666C81.0067 115.968 80.6388 116.101 80.3415 115.964C80.044 115.826 79.9299 115.47 80.0868 115.168L80.8244 113.749C81.8758 111.727 84.3468 110.84 86.3284 111.767L89.4092 113.208C91.3742 114.128 92.1285 116.506 91.0949 118.516L90.3697 119.926C90.2154 120.225 89.8532 120.359 89.5604 120.224Z" fill="white"/>
<path d="M90.2552 120.907L79.5137 121.568C78.7119 121.617 78.061 122.297 78.061 123.087V130.017C78.061 130.806 78.7119 131.401 79.5137 131.345L90.2552 130.597C91.0419 130.542 91.6788 129.865 91.6788 129.085V122.233C91.6788 121.452 91.0418 120.859 90.2552 120.907ZM85.619 126.39C85.4321 126.512 85.3262 126.725 85.3628 126.935L85.67 128.693C85.7089 128.916 85.5335 129.133 85.3025 129.149L84.5141 129.203C84.2827 129.219 84.1069 129.025 84.1459 128.797L84.452 127.005C84.4881 126.793 84.3959 126.584 84.2102 126.49C83.7742 126.269 83.4877 125.811 83.5171 125.269C83.5551 124.57 84.1365 123.963 84.8411 123.885C85.64 123.797 86.2986 124.384 86.2986 125.165C86.2986 125.667 86.026 126.123 85.619 126.39Z" fill="white"/>
<path opacity="0.3" d="M103.216 4.67705L38.3074 1.90918C38.3253 2.66033 38.3775 3.42359 38.4735 4.19874C40.2182 18.2841 53.7621 20.534 58.9761 36.2215C63.7538 50.5963 53.3483 54.8584 58.9998 67.5C64.2956 79.3462 74.1854 79.5953 80.1174 94.5504C82.7203 101.112 82.2035 120.533 84.3993 127.447C86.2779 133.362 89.7961 137.886 96.633 145.174L103.359 144.701C105.981 144.516 108.012 142.398 108.012 139.848V9.53842C108.012 6.93405 105.898 4.79142 103.216 4.67705Z" fill="white"/>
<path d="M97.8939 99.4136L67.5488 37.8943C66.9748 36.7306 67.5197 35.3248 68.7281 34.8519L108.036 19.47C109.086 19.0592 110.277 19.5025 110.802 20.4997L142.023 79.7163C142.622 80.8528 142.132 82.259 140.956 82.7766L100.773 100.461C99.6873 100.939 98.4184 100.477 97.8939 99.4136Z" fill="url(#paint9_linear_17465_25996)"/>
<path d="M98.0697 98.7436L67.7246 37.2244C67.1506 36.0606 67.6954 34.6548 68.9039 34.1819L108.212 18.8001C109.262 18.3893 110.452 18.8326 110.978 19.8298L142.199 79.0464C142.798 80.183 142.308 81.5891 141.132 82.1067L100.948 99.7911C99.8631 100.269 98.5942 99.8069 98.0697 98.7436Z" fill="#FEBF45"/>
<path d="M97.4956 50.2258L103.064 61.5431L104.316 60.9272L105.307 62.9426L104.056 63.5584L104.552 64.5662L105.803 63.9503L106.375 65.1131L105.124 65.7289L105.925 67.3568L106.517 67.0651L107.547 69.1581L106.955 69.4497L107.412 70.3799L108.564 69.8134L109.792 72.31L108.641 72.8765L109.586 74.7983L110.838 74.1825L111.849 76.2367L110.597 76.8525L111.774 79.2437C111.913 79.5261 112.15 79.7478 112.441 79.8676L117.15 81.806C117.737 82.0475 118.413 81.8265 118.743 81.2848L120.152 78.9778C120.382 78.6006 120.403 78.1317 120.208 77.7352L106.028 48.916L97.4956 50.2258Z" fill="white"/>
<path d="M92.7981 31.3544C85.9269 34.7352 83.0975 43.0461 86.4784 49.9173C89.8593 56.7884 98.1701 59.6178 105.041 56.237C111.912 52.8561 114.742 44.5452 111.361 37.6741C107.98 30.8029 99.6692 27.9735 92.7981 31.3544ZM97.4132 40.7338C96.0218 41.4184 94.3389 40.8454 93.6543 39.454C92.9697 38.0627 93.5426 36.3797 94.934 35.6952C96.3253 35.0106 98.0083 35.5836 98.6928 36.9749C99.3774 38.3663 98.8045 40.0492 97.4132 40.7338Z" fill="white"/>
<path opacity="0.17" d="M111.361 37.6741C107.98 30.8029 99.6692 27.9735 92.7981 31.3544C85.9269 34.7352 83.0975 43.0461 86.4784 49.9173C89.2264 55.5021 95.2312 58.4166 101.073 57.4969L101.67 58.71C103.223 57.9067 104.219 57.9644 104.873 58.2453C106.713 59.0348 105.955 61.6006 108.19 65.1824C110.066 68.1877 111.57 67.935 112.944 70.931C113.906 73.0273 113.596 74.0788 114.071 75.9608C114.493 77.6316 115.472 79.7021 117.793 81.8916C118.175 81.8458 118.53 81.6325 118.743 81.2846L120.151 78.9776C120.381 78.6004 120.403 78.1316 120.208 77.735L108.461 53.8616C112.754 49.7947 114.109 43.2588 111.361 37.6741ZM94.934 35.6952C96.3253 35.0106 98.0083 35.5836 98.6928 36.9749C99.3774 38.3662 98.8045 40.0492 97.4132 40.7338C96.0218 41.4184 94.3389 40.8454 93.6543 39.454C92.9697 38.0627 93.5426 36.3798 94.934 35.6952Z" fill="url(#paint10_linear_17465_25996)"/>
<path opacity="0.17" d="M93.9997 33.7959C88.4772 36.5132 86.203 43.1929 88.9204 48.7156C91.6377 54.2383 98.3175 56.5123 103.84 53.795C109.363 51.0777 111.637 44.3979 108.919 38.8752C106.202 33.3526 99.5223 31.0785 93.9997 33.7959ZM97.4134 40.7336C96.022 41.4182 94.3391 40.8451 93.6545 39.4538C92.9699 38.0625 93.5428 36.3795 94.9341 35.695C96.3255 35.0104 98.0084 35.5834 98.693 36.9747C99.3776 38.366 98.8047 40.049 97.4134 40.7336Z" fill="url(#paint11_linear_17465_25996)"/>
<path opacity="0.3" d="M142.198 79.0464L110.978 19.8297C110.452 18.8325 109.261 18.3893 108.211 18.8002L92.9395 24.7763C92.8623 25.7994 92.8778 26.8758 93.0258 27.9905C94.539 39.3806 107.909 40.1238 111.202 51.969C113.592 60.5682 109.779 71.8138 106.418 78.0404C104.62 81.3721 102.797 83.5499 102.31 87.5957C101.834 91.5484 102.882 95.2052 104.385 98.2785L141.131 82.1066C142.307 81.5891 142.798 80.1829 142.198 79.0464Z" fill="white"/>
<path d="M78.8456 62.8765L77.5899 61.4209C77.5899 61.4209 76.67 60.0328 77.4852 58.2188C78.3004 56.4047 79.195 56.9818 79.195 56.9818L78.844 58.2763C78.844 58.2763 78.6122 59.111 79.3389 60.2294C79.9654 61.5534 80.0208 62.5371 80.0208 62.5371L78.8456 62.8765Z" fill="url(#paint12_linear_17465_25996)"/>
<path d="M134.884 72.3161L136.511 71.0446L137.374 68.5811C137.374 68.5811 139.184 69.4527 137.993 71.7501C137.285 72.493 135.602 73.5615 134.839 74.6696C134.076 75.7776 134.884 72.3161 134.884 72.3161Z" fill="url(#paint13_linear_17465_25996)"/>
<path d="M118.617 88.0698C118.617 88.0698 126.264 84.0901 128.162 82.6115C130.141 81.0695 135.498 74.9741 135.977 74.2428C136.457 73.5115 134.833 71.8584 134.833 71.8584C134.833 71.8584 125.549 81.851 115.105 77.9293C116.518 81.8669 118.617 88.0698 118.617 88.0698Z" fill="#BDF9EC"/>
<path d="M115.077 150.548C115.077 150.548 116.17 154.022 115.707 155.493C117.149 155.571 118.095 155.456 118.095 155.456C118.095 155.456 117.629 153.874 117.572 153.103C117.496 152.062 117.63 150.396 117.63 150.396L115.077 150.548Z" fill="url(#paint14_linear_17465_25996)"/>
<path d="M99.7077 157.352C99.7867 157.463 99.9245 157.693 99.9156 157.991C99.9108 158.152 99.8641 158.282 99.8089 158.4C99.5358 158.986 99.1706 159.038 98.7359 159.649C98.4703 160.021 98.5063 160.142 98.2763 160.303C97.9732 160.514 97.6262 160.501 97.326 160.483C96.8188 160.451 96.0904 160.379 95.1797 160.202C95.7069 159.617 96.2654 159.024 96.8567 158.428C97.1162 158.167 97.3747 157.912 97.632 157.663L99.0828 157.289C99.2912 157.31 99.4995 157.331 99.7077 157.352Z" fill="#26264F"/>
<path d="M99.0365 150.393C99.0365 150.393 97.9162 154.555 98.8588 155.813C99.6487 157.06 98.4102 156.121 98.4102 156.121L96.7569 157.362L95.7063 158.903C95.7063 158.903 96.8688 154.834 96.7608 153.177C96.6528 151.521 96.6199 150.406 96.6199 150.406L99.0365 150.393Z" fill="url(#paint15_linear_17465_25996)"/>
<path d="M108.442 77.4098C104.552 76.4553 98.765 78.0336 92.4999 74.1053C86.3353 70.2401 82.9149 64.9536 80.9429 61.583C79.9483 61.9869 78.9538 62.3908 77.9592 62.7946C79.3818 65.7287 82.7776 72.041 87.5566 76.6136C93.573 82.3699 99.817 83.1407 102.912 87.7074C104.635 86.2351 110.34 77.8756 108.442 77.4098Z" fill="#BDF9EC"/>
<path d="M99.3892 103.986C99.3892 103.986 97.0721 105.771 96.4819 113.779C95.8918 121.788 95.6399 139.254 95.6399 139.254L96.37 151.825C96.37 151.825 98.0739 152.012 99.2432 151.753C100.619 147.138 102.881 139.327 102.569 132.633C102.757 125.4 106.627 116.598 106.627 116.598C106.627 116.598 108.698 125.952 110.306 130.672C111.913 135.392 114.56 150.001 114.827 151.056C117.088 151.43 118.104 150.9 118.104 150.9C118.104 150.9 117.782 135.364 116.839 129.428C115.896 123.492 117.047 109.428 115.054 105.256C110.058 102.817 99.3892 103.986 99.3892 103.986Z" fill="url(#paint16_linear_17465_25996)"/>
<path d="M99.3892 103.986C99.3892 103.986 97.0721 105.771 96.4819 113.779C95.8918 121.788 95.6399 139.254 95.6399 139.254L96.3701 151.825C96.3701 151.825 98.0739 152.012 99.2432 151.753C100.619 147.138 102.881 139.327 102.569 132.633C102.757 125.4 106.627 116.598 106.627 116.598C106.627 116.598 108.698 125.952 110.306 130.672C111.913 135.392 114.56 150.001 114.827 151.056C117.088 151.43 118.104 150.9 118.104 150.9C118.104 150.9 117.782 135.364 116.839 129.428C115.896 123.492 117.047 109.428 115.054 105.256C110.058 102.817 99.3892 103.986 99.3892 103.986Z" fill="#2D2D2D"/>
<path opacity="0.25" d="M109.6 119.492C109.953 123.948 111.134 126.42 114.298 129.72C116.86 131.953 114.502 136.209 115.269 139.673C115.533 140.715 116.474 141.807 116.738 142.848C117.814 145.464 116.408 148.462 116.783 151.175C117.682 151.117 118.104 150.9 118.104 150.9C118.104 150.9 117.782 135.364 116.839 129.428C115.896 123.492 117.048 109.428 115.055 105.256C110.058 102.817 99.3895 103.986 99.3895 103.986C99.3895 103.986 97.0724 105.771 96.4822 113.779C96.4343 114.429 96.3887 115.142 96.3452 115.902C98.4547 118.065 103.037 118.849 106.047 116.845C106.228 116.729 106.417 116.663 106.609 116.639C106.62 116.614 106.627 116.598 106.627 116.598C106.627 116.598 106.631 116.614 106.636 116.638C107.949 116.497 109.393 118.295 109.6 119.492Z" fill="#3E5C56"/>
<path d="M115.26 156.747C115.26 156.747 114.925 156.723 114.921 157.157C114.917 157.591 114.629 159.063 116.324 159.258C118.018 159.453 118.294 159.282 118.35 159.286C118.406 159.29 118.009 157.832 118.009 157.832L117.517 157.096L116.066 156.835L115.26 156.747Z" fill="#26264F"/>
<path d="M118.918 158.517C118.908 158.155 118.749 157.576 118.581 157.107C118.331 156.409 118.595 156.175 118.354 155.539C118.27 155.319 118.189 155.11 117.994 154.895C117.949 154.845 117.512 154.378 116.828 154.349C116.693 154.344 116.485 154.337 116.253 154.44C115.979 154.561 115.831 154.762 115.705 154.939C115.506 155.217 115.54 155.31 115.206 156.124C115.179 156.189 115.12 156.331 115.069 156.529C115.029 156.681 115.008 156.809 114.997 156.897C115.442 156.93 117.151 157.125 117.493 157.417C117.836 157.708 117.984 158.167 117.952 158.613C117.919 159.059 118.126 159.284 118.35 159.287C118.55 159.289 118.973 158.949 118.918 158.517Z" fill="#444B8C"/>
<path d="M98.4651 155.188C98.8476 155.222 99.1059 155.548 99.2636 156.298C99.4213 157.048 100.39 157.772 99.2154 157.529C98.0407 157.287 97.0554 158.904 96.5861 159.494C96.1167 160.084 94.9388 160.552 95.0118 159.947C95.0847 159.342 95.6075 159.095 95.7944 158.484C95.9815 157.873 97.5929 155.11 98.4651 155.188Z" fill="#444B8C"/>
<path d="M112.301 77.4384C110.385 77.2404 105.537 76.3465 103.083 78.4627C100.573 80.6266 102.733 83.6056 102.028 87.4245C101.55 90.0133 101.54 91.5592 100.729 95.7904C100.564 96.6538 100.328 97.6167 99.9648 98.7752C99.1072 101.509 97.5687 106.895 96.8577 108.217C98.7399 109.366 103.649 111.536 109.721 111.085C112.494 110.879 114.757 110.128 116.361 109.427C115.151 104.593 115.918 98.1499 116.667 95.8651C118.144 91.3536 118.535 89.5682 122.241 83.1969C123.263 81.4402 121.08 82.3056 119.848 80.6069C117.959 78.0017 114.235 77.6382 112.301 77.4384Z" fill="#BDF9EC"/>
<path opacity="0.25" d="M105.71 89.0492C105.87 88.2078 106.144 86.6686 105.498 84.9872C105.391 84.7091 105.025 83.8157 104.28 83.0233C102.692 81.3336 100.486 81.2752 97.9905 80.9103C96.1642 80.6433 93.5584 80.1209 90.3835 78.9805C94.9801 82.358 99.3996 83.6222 102.13 86.7056C102.106 86.9418 102.073 87.1815 102.028 87.4246C101.55 90.0133 101.54 91.5593 100.729 95.7904C100.564 96.6538 100.328 97.6167 99.9647 98.7753C99.1072 101.509 97.5687 106.895 96.8577 108.217C98.7399 109.366 103.649 111.536 109.721 111.085C112.494 110.879 114.757 110.128 116.361 109.427C115.992 107.951 115.807 106.325 115.749 104.713C113.541 104.541 110.353 103.956 107.139 102.018C105.348 100.937 104.452 100.397 103.974 99.3139C103.056 97.2357 104.487 95.4691 105.71 89.0492Z" fill="#52BDA7"/>
<path d="M110.967 73.3848C111.265 71.9333 112.492 71.0798 112.76 70.8974C113.881 70.1341 114.102 70.0652 114.471 70.0229L114.973 69.9844C114.973 69.9844 114.999 69.9869 115.027 69.9906C115.316 70.0297 116.162 70.4338 116.312 70.5568C116.792 70.9498 116.234 73.442 114.469 76.4625C114.389 76.7235 114.31 76.9844 114.23 77.2453C115.549 77.5788 115.862 77.8443 115.859 78.0376C115.851 78.4563 114.348 78.8807 112.989 78.8154C111.285 78.7334 109.533 77.8684 109.607 77.3248C109.638 77.1046 109.979 76.8556 111.233 76.6789C111.446 76.4217 111.659 76.1645 111.872 75.9073C111.713 75.6821 110.747 74.4542 110.967 73.3848Z" fill="url(#paint17_linear_17465_25996)"/>
<path d="M114.547 68.9919C113.975 69.4738 113.777 70.3704 113.887 71.0352C113.952 71.4328 114.071 71.483 114.035 71.7374C113.933 72.4522 112.602 72.6687 112.648 73.0359C112.681 73.2983 113.369 73.2539 113.462 73.5871C113.565 73.9521 112.794 74.203 112.407 75.0738C112.346 75.2095 111.98 76.0334 112.334 76.5602C112.664 77.0518 113.487 77.0017 114.415 76.95C115.439 76.893 116.188 76.6471 116.408 76.5693C117.1 76.3242 117.845 76.0606 118.497 75.3771C118.651 75.2151 119.561 74.2315 119.599 72.766C119.648 70.8404 118.165 69.0837 116.533 68.7017C116.268 68.6397 115.248 68.401 114.547 68.9919Z" fill="url(#paint18_linear_17465_25996)"/>
<path d="M113.111 72.9886C113.514 72.7862 113.771 73.3042 113.557 73.7246C113.344 74.1449 112.713 74.3713 112.362 74.0854C112.01 73.7996 112.569 73.261 113.111 72.9886Z" fill="url(#paint19_linear_17465_25996)"/>
<path d="M108.89 77.1937L109.852 76.9736C109.852 76.9736 110.004 78.265 113.016 78.6471C114.695 78.7708 115.849 77.9103 115.849 77.9103L116.548 78.2963C116.548 78.2963 114.917 80.0834 112.678 79.8733C109.789 79.6021 108.89 77.1937 108.89 77.1937Z" fill="url(#paint20_linear_17465_25996)"/>
<defs>
<linearGradient id="paint0_linear_17465_25996" x1="95.1335" y1="89.5715" x2="159.82" y2="89.5715" gradientUnits="userSpaceOnUse">
<stop stop-color="#FFC444"/>
<stop offset="0.9964" stop-color="#F36F56"/>
</linearGradient>
<linearGradient id="paint1_linear_17465_25996" x1="142.425" y1="93.5863" x2="160.434" y2="79.3534" gradientUnits="userSpaceOnUse">
<stop stop-color="#FFC444"/>
<stop offset="0.9964" stop-color="#F36F56"/>
</linearGradient>
<linearGradient id="paint2_linear_17465_25996" x1="6.51295" y1="77.0191" x2="38.2985" y2="77.0191" gradientUnits="userSpaceOnUse">
<stop stop-color="#FFC444"/>
<stop offset="0.9964" stop-color="#F36F56"/>
</linearGradient>
<linearGradient id="paint3_linear_17465_25996" x1="20.3513" y1="76.9992" x2="108.012" y2="76.9992" gradientUnits="userSpaceOnUse">
<stop stop-color="#FFC444"/>
<stop offset="0.9964" stop-color="#F36F56"/>
</linearGradient>
<linearGradient id="paint4_linear_17465_25996" x1="12.3122" y1="76.6609" x2="18.1038" y2="76.6609" gradientUnits="userSpaceOnUse">
<stop stop-color="#311944"/>
<stop offset="1" stop-color="#893976"/>
</linearGradient>
<linearGradient id="paint5_linear_17465_25996" x1="93.5782" y1="54.398" x2="54.7879" y2="59.414" gradientUnits="userSpaceOnUse">
<stop stop-color="#311944"/>
<stop offset="1" stop-color="#893976"/>
</linearGradient>
<linearGradient id="paint6_linear_17465_25996" x1="68.7031" y1="6.813" x2="63.8074" y2="15.1209" gradientUnits="userSpaceOnUse">
<stop stop-color="#311944"/>
<stop offset="1" stop-color="#893976"/>
</linearGradient>
<linearGradient id="paint7_linear_17465_25996" x1="33.0388" y1="125.517" x2="63.1468" y2="125.517" gradientUnits="userSpaceOnUse">
<stop stop-color="#FFC444"/>
<stop offset="0.9964" stop-color="#F36F56"/>
</linearGradient>
<linearGradient id="paint8_linear_17465_25996" x1="70.5632" y1="123.202" x2="98.9179" y2="123.202" gradientUnits="userSpaceOnUse">
<stop stop-color="#FFC444"/>
<stop offset="0.9964" stop-color="#F36F56"/>
</linearGradient>
<linearGradient id="paint9_linear_17465_25996" x1="125.681" y1="35.3711" x2="100.193" y2="64.0071" gradientUnits="userSpaceOnUse">
<stop offset="0.0036" stop-color="#E38DDD"/>
<stop offset="1" stop-color="#9571F6"/>
</linearGradient>
<linearGradient id="paint10_linear_17465_25996" x1="85.0508" y1="55.9092" x2="120.34" y2="55.9092" gradientUnits="userSpaceOnUse">
<stop offset="0.0036" stop-color="#E38DDD"/>
<stop offset="1" stop-color="#9571F6"/>
</linearGradient>
<linearGradient id="paint11_linear_17465_25996" x1="87.7729" y1="43.7954" x2="110.067" y2="43.7954" gradientUnits="userSpaceOnUse">
<stop offset="0.0036" stop-color="#E38DDD"/>
<stop offset="1" stop-color="#9571F6"/>
</linearGradient>
<linearGradient id="paint12_linear_17465_25996" x1="78.8022" y1="60.1365" x2="74.7987" y2="63.8699" gradientUnits="userSpaceOnUse">
<stop stop-color="#AB316D"/>
<stop offset="1" stop-color="#792D3D"/>
</linearGradient>
<linearGradient id="paint13_linear_17465_25996" x1="135.699" y1="72.0254" x2="129.663" y2="77.6538" gradientUnits="userSpaceOnUse">
<stop stop-color="#AB316D"/>
<stop offset="1" stop-color="#792D3D"/>
</linearGradient>
<linearGradient id="paint14_linear_17465_25996" x1="116.34" y1="156.334" x2="116.793" y2="150.19" gradientUnits="userSpaceOnUse">
<stop stop-color="#AB316D"/>
<stop offset="1" stop-color="#792D3D"/>
</linearGradient>
<linearGradient id="paint15_linear_17465_25996" x1="97.4833" y1="156.705" x2="98.0291" y2="149.301" gradientUnits="userSpaceOnUse">
<stop stop-color="#AB316D"/>
<stop offset="1" stop-color="#792D3D"/>
</linearGradient>
<linearGradient id="paint16_linear_17465_25996" x1="95.4845" y1="127.313" x2="119.711" y2="129.099" gradientUnits="userSpaceOnUse">
<stop stop-color="#311944"/>
<stop offset="1" stop-color="#893976"/>
</linearGradient>
<linearGradient id="paint17_linear_17465_25996" x1="115.475" y1="72.6418" x2="110.139" y2="80.0032" gradientUnits="userSpaceOnUse">
<stop stop-color="#AB316D"/>
<stop offset="1" stop-color="#792D3D"/>
</linearGradient>
<linearGradient id="paint18_linear_17465_25996" x1="112.426" y1="72.6285" x2="119.574" y2="73.1553" gradientUnits="userSpaceOnUse">
<stop stop-color="#311944"/>
<stop offset="1" stop-color="#6B3976"/>
</linearGradient>
<linearGradient id="paint19_linear_17465_25996" x1="113.845" y1="71.4723" x2="110.508" y2="79.6133" gradientUnits="userSpaceOnUse">
<stop stop-color="#AB316D"/>
<stop offset="1" stop-color="#792D3D"/>
</linearGradient>
<linearGradient id="paint20_linear_17465_25996" x1="110.39" y1="73.3751" x2="114.023" y2="80.2181" gradientUnits="userSpaceOnUse">
<stop offset="0.0036" stop-color="#E38DDD"/>
<stop offset="1" stop-color="#9571F6"/>
</linearGradient>
</defs>
</svg>
