<svg width="200" height="142" viewBox="0 0 200 142" fill="none" xmlns="http://www.w3.org/2000/svg">
<path d="M199.965 59.1384C198.97 37.9327 177.146 21.1149 149.666 19.106C148.143 18.9947 146.726 18.4117 145.698 17.4759C133.686 6.54379 115.122 -0.145343 94.6066 0.5686C71.9965 1.35548 52.5898 10.9411 42.1323 24.6799C41.2806 25.7988 39.9445 26.6019 38.4 26.9281C21.5513 30.4865 9.37544 42.1895 9.68994 55.7141C3.57284 62.4532 0 70.581 0 79.331C0 100.554 21.019 118.117 48.3829 121.08C49.8987 121.244 51.2876 121.876 52.2712 122.847C63.7611 134.188 81.9967 141.517 102.528 141.517C125.157 141.517 144.997 132.614 156.09 119.25C156.993 118.161 158.366 117.405 159.924 117.133C177.144 114.125 189.967 102.603 189.967 88.8477C189.967 87.5608 189.852 86.2941 189.635 85.0515C196.535 77.717 200.414 68.7269 199.965 59.1384Z" fill="#EEFAF6"/>
<mask id="mask0_17465_26112" style="mask-type:alpha" maskUnits="userSpaceOnUse" x="0" y="0" width="200" height="142">
<path d="M199.965 59.1384C198.97 37.9327 177.146 21.1149 149.666 19.106C148.143 18.9947 146.726 18.4117 145.698 17.4759C133.686 6.54379 115.122 -0.145343 94.6066 0.5686C71.9965 1.35548 52.5898 10.9411 42.1323 24.6799C41.2806 25.7988 39.9445 26.6019 38.4 26.9281C21.5513 30.4865 9.37544 42.1895 9.68994 55.7141C3.57284 62.4532 0 70.581 0 79.331C0 100.554 21.019 118.117 48.3829 121.08C49.8987 121.244 51.2876 121.876 52.2712 122.847C63.7611 134.188 81.9967 141.517 102.528 141.517C125.157 141.517 144.997 132.614 156.09 119.25C156.993 118.161 158.366 117.405 159.924 117.133C177.144 114.125 189.967 102.603 189.967 88.8477C189.967 87.5608 189.852 86.2941 189.635 85.0515C196.535 77.717 200.414 68.7269 199.965 59.1384Z" fill="#EEFAF6"/>
</mask>
<g mask="url(#mask0_17465_26112)">
<path d="M123.768 52.1709C121.269 54.7992 121.934 53.9443 120.067 55.8808L118.345 57.52L118.058 57.7917L117.842 57.9971L116.838 58.9538L116.008 59.7433L111.495 64.0381C111.302 64.2392 102.655 71.2319 102.655 71.2319C101.255 72.1411 100.671 73.8975 101.248 75.4629L109.535 97.928L109.633 98.1921C109.702 98.378 109.753 98.5673 109.79 98.7583C109.85 99.0724 109.867 99.3916 109.843 99.7083C109.835 99.8067 109.823 99.9052 109.807 100.002C109.761 100.291 109.679 100.572 109.562 100.843C109.463 101.071 109.34 101.291 109.192 101.497C108.612 102.314 107.76 103.384 106.575 104.61C105.751 105.461 104.768 106.388 103.6 107.355C102.578 108.201 101.419 109.08 100.102 109.965C99.5782 110.319 99.0272 110.674 98.4533 111.03C98.4354 111.04 98.4177 111.052 98.3998 111.064C97.5458 111.612 96.9583 112.495 96.7954 113.499L96.7156 113.99L92.6806 138.786C92.6772 138.805 92.6738 138.828 92.6696 138.852L92.6679 138.861C92.5856 139.373 92.3708 140.935 92.2333 141.92H57.7906C57.7652 140.698 58.5555 138.401 59.2796 136.746L74.1341 102.778C74.5229 101.887 74.5339 100.878 74.1612 99.9815C73.1638 97.5859 71.4124 91.9133 72.3182 83.0871C72.4761 81.5548 72.5754 80.1278 72.6289 78.8034C72.6289 78.8025 72.6289 78.8025 72.6289 78.8025C72.6357 78.637 72.6417 78.474 72.6476 78.3118C72.7435 75.3924 72.6178 72.9933 72.4082 71.0934C72.3301 70.3777 72.1917 69.4728 72.0329 68.5475C72.0304 68.5314 72.0278 68.5153 72.0253 68.5C71.696 66.578 71.2783 64.5729 71.1067 63.9727C70.8674 63.1391 70.9938 62.2426 71.4514 61.5253C71.4633 61.5058 71.4752 61.4871 71.4879 61.4684C71.4998 61.4497 71.5117 61.4311 71.5253 61.4123C71.6059 61.2969 71.6976 61.1848 71.7987 61.0796C72.707 60.1271 74.1069 59.0778 77.4101 63.5729C77.8048 64.1094 78.2276 64.7266 78.6784 65.4312C78.8762 65.7393 79.0791 66.0644 79.2879 66.4074C79.3566 66.5195 79.4305 66.6273 79.5086 66.7274C84.6659 73.3847 110.025 54.3306 115.804 49.827C115.871 49.7735 115.939 49.72 116.008 49.6674C116.281 49.4535 116.557 49.2387 116.838 49.0298C117.164 48.7845 117.499 48.5477 117.842 48.3312C117.913 48.2853 117.985 48.2412 118.057 48.1987C118.153 48.1419 118.248 48.0875 118.344 48.034C118.667 47.8557 119.001 47.6987 119.346 47.5722C121.999 46.5994 123.196 47.2539 123.767 47.9262C124.33 48.5885 124.907 50.9714 123.768 52.1709Z" fill="#FAB36F"/>
<path d="M112.485 22.959H82.9829C79.9052 22.959 77.4102 25.454 77.4102 28.5318V94.4292C77.4102 97.507 79.9052 100.002 82.9829 100.002H112.485C115.563 100.002 118.058 97.507 118.058 94.4292V28.5318C118.058 25.454 115.563 22.959 112.485 22.959Z" fill="#0B785B"/>
<path d="M77.6256 31.7314H77.5131C77.298 31.7314 77.1235 31.9058 77.1235 32.121V35.8396C77.1235 36.0547 77.2979 36.2292 77.5131 36.2292H77.6256V31.7314Z" fill="#0B785B"/>
<path d="M77.6256 45.3994H77.5982C77.336 45.3994 77.1235 45.612 77.1235 45.8741V51.6058C77.1235 51.868 77.3361 52.0805 77.5982 52.0805H77.6256V45.3994Z" fill="#0B785B"/>
<path d="M77.6256 52.54H77.5982C77.336 52.54 77.1235 52.7526 77.1235 53.0147V58.7464C77.1235 59.0086 77.3361 59.2211 77.5982 59.2211H77.6256V52.54Z" fill="#0B785B"/>
<path d="M82.9585 99.1142C80.3752 99.1142 78.2734 97.0125 78.2734 94.4292V28.5317C78.2734 25.9484 80.3752 23.8467 82.9585 23.8467H112.46C115.044 23.8467 117.145 25.9483 117.145 28.5317V94.4292C117.145 97.0125 115.044 99.1142 112.46 99.1142H82.9585Z" fill="#0B785B"/>
<path d="M79.4595 94.4296V28.5321C79.4595 26.5997 81.026 25.0332 82.9584 25.0332H112.46C114.393 25.0332 115.959 26.5997 115.959 28.5321V94.4296C115.959 96.3619 114.393 97.9285 112.46 97.9285H82.9583C81.026 97.9284 79.4595 96.3619 79.4595 94.4296Z" fill="white"/>
<path d="M110.267 81.9937C110.262 82.1944 110.28 82.3943 110.326 82.5896C110.788 84.5695 111.903 84.7517 113.244 84.8003C113.372 84.8047 113.494 84.8039 113.609 84.7959C114.456 84.742 115.03 84.3662 115.985 83.6508L121.139 77.7624C122.106 76.5686 122.183 74.8584 121.267 73.6249C120.995 73.2588 120.671 72.9794 120.326 72.7662C118.905 71.8873 117.048 72.2145 115.967 73.4878L111.299 79.5831C110.738 80.2428 110.287 81.1279 110.267 81.9937Z" fill="#FAB36F"/>
<path d="M110.886 91.6246C111.311 93.9175 112.92 94.4569 114.189 94.5082C115.101 94.5445 115.98 94.1651 116.59 93.4878L120.068 89.6262C120.622 89.0107 120.909 88.1981 120.857 87.3713C120.748 85.6752 120.033 84.7971 119.211 84.355C118.016 83.7121 116.534 83.9765 115.587 84.9484L111.714 88.9258C111.019 89.6394 110.704 90.6457 110.886 91.6246Z" fill="#FAB36F"/>
<path d="M71.0181 63.973C71.1914 64.5779 71.6141 66.6109 71.9449 68.5474C72.6346 68.1715 73.51 66.8133 72.5674 63.7546C72.1465 62.3866 71.8334 61.9391 71.3993 61.4688C70.912 62.1948 70.7731 63.1171 71.0181 63.973Z" fill="#F5CEA6"/>
<path d="M110.885 91.625C111.311 93.9179 112.92 94.4573 114.189 94.5086C114.189 94.5086 117.325 91.1307 115.484 89.7123C113.643 88.293 110.885 91.625 110.885 91.625Z" fill="#F5CEA6"/>
<path d="M110.267 81.9932C110.262 82.1939 110.28 82.3938 110.326 82.5892C110.788 84.5691 111.903 84.7512 113.244 84.7999C113.372 84.8043 113.494 84.8034 113.609 84.7955L114.012 84.2508C114.012 84.2508 117.147 80.8728 115.306 79.4544C113.465 78.0352 110.708 81.3671 110.708 81.3671L110.267 81.9932Z" fill="#F5CEA6"/>
<g opacity="0.31">
<path d="M77.4305 104.96C77.3906 104.916 75.8302 103.203 75.1316 103.988C74.5629 104.629 61.6261 131.35 59.8671 141.92H57.7906C57.7652 140.697 58.5555 138.401 59.2796 136.745L74.1341 102.777C74.5229 101.887 74.5339 100.877 74.1612 99.9809C73.1638 97.5852 71.4124 91.9127 72.3182 83.0865C72.4761 81.5541 72.5754 80.1271 72.6289 78.8027C72.9625 81.4683 72.7902 85.7903 72.9209 89.1324C73.1688 95.4383 74.0389 97.6616 75.0432 98.7712L77.4305 104.96Z" fill="white"/>
</g>
<path d="M98.3963 111.063C97.5423 111.611 96.9549 112.495 96.791 113.499L96.7121 113.99L92.6771 138.786L92.6695 138.852L92.6678 138.861L92.2977 141.92H90.1626L95.7366 115.465C95.8496 114.722 95.7825 113.963 95.5397 113.253L93.1678 112.301L98.3963 111.063Z" fill="#E9E9E9"/>
<path d="M131.645 26.2115C131.649 29.9991 130.142 33.6319 127.458 36.305L120.258 43.4747C120.026 43.7058 119.721 43.8205 119.418 43.8183C119.121 43.816 118.824 43.7019 118.597 43.4761L111.389 36.3139C108.702 33.6442 107.191 30.0127 107.191 26.2251V15.8266H109.517C112.559 15.8266 115.486 14.6705 117.706 12.5921L119.39 11.0155V10.9805L119.409 10.998L119.418 10.9897L119.428 10.9805V11.0155L121.114 12.5903C123.336 14.6662 126.265 15.8192 129.306 15.8157L131.633 15.8131L131.645 26.2115Z" fill="#00BA88"/>
<path d="M127.939 19.3167L126.316 19.3185C124.195 19.3208 122.151 18.5165 120.601 17.0683L119.425 15.9698V15.9453L119.412 15.9576L119.399 15.9453V15.9698L118.224 17.0697C116.675 18.5196 114.633 19.3263 112.511 19.3263H110.888V26.5805C110.888 29.223 111.942 31.7563 113.817 33.6188L118.845 38.615C119.166 38.9337 119.684 38.9333 120.004 38.6144L125.027 33.6124C126.899 31.7478 127.951 29.2133 127.948 26.5709L127.939 19.3167Z" fill="#0B785B"/>
<path d="M125.593 24.8235L124.758 23.1697C124.6 22.8568 124.167 22.8215 123.96 23.1047C123.96 23.1047 119.425 29.2151 119.297 29.2276C119.169 29.2401 116.995 27.3146 116.995 27.3146C116.86 27.1903 116.666 27.1557 116.496 27.2261L115.366 27.696C115.045 27.8293 114.976 28.2528 115.237 28.4818L118.623 31.451L119.222 31.9923C119.418 32.1697 119.722 32.15 119.893 31.9489L125.531 25.3394C125.654 25.1956 125.678 24.9922 125.593 24.8235Z" fill="white"/>
<path d="M102.656 39.9273C102.656 38.0255 102.729 36.0721 100.91 34.9091C99.3296 33.899 96.3111 34.0036 94.8848 35.2233C93.4198 36.4761 93.5532 38.2257 93.5532 39.959C93.5532 41.6678 93.5532 43.3766 93.5532 45.0853C93.5532 45.9064 94.8293 45.9078 94.8293 45.0853C94.8293 42.8113 94.6954 40.4974 94.8293 38.2281C94.9673 35.8915 96.9117 35.45 98.8349 35.5921C101.429 35.7838 101.38 37.9893 101.38 39.9273C101.38 40.7484 102.656 40.7498 102.656 39.9273Z" fill="#0B785B"/>
<path d="M102.459 42.1006H93.7466C92.5817 42.1006 91.6372 43.045 91.6372 44.21V49.9576C91.6372 52.7601 93.909 55.032 96.7115 55.032H99.4942C102.297 55.032 104.569 52.7601 104.569 49.9577V44.2101C104.569 43.045 103.624 42.1006 102.459 42.1006Z" fill="#00BA88"/>
<path d="M98.1031 48.5661C98.8549 48.5661 99.4643 47.9567 99.4643 47.2049C99.4643 46.4532 98.8549 45.8438 98.1031 45.8438C97.3514 45.8438 96.7419 46.4532 96.7419 47.2049C96.7419 47.9567 97.3514 48.5661 98.1031 48.5661Z" fill="white"/>
<path d="M98.6138 47.8857H97.5929L96.9595 51.0526C96.935 51.1748 97.0285 51.2887 97.153 51.2887H99.0536C99.1781 51.2887 99.2716 51.1748 99.2471 51.0526L98.6138 47.8857Z" fill="white"/>
<path d="M105.233 77.7432H90.9732C89.4088 77.7432 88.1406 79.0113 88.1406 80.5757V81.4338C88.1406 82.9982 89.4088 84.2664 90.9732 84.2664H105.233C106.798 84.2664 108.066 82.9982 108.066 81.4338V80.5757C108.066 79.0114 106.798 77.7432 105.233 77.7432Z" fill="#00BA88"/>
<path d="M91.9619 79.2529H92.848L93.4654 81.2271L94.0749 79.2529H94.9352L93.9166 81.9961H92.9979L91.9619 79.2529Z" fill="white"/>
<path d="M97.1735 81.1914H95.6466C95.6602 81.3136 95.6934 81.4046 95.7457 81.4646C95.8193 81.5507 95.9154 81.5937 96.0339 81.5937C96.1088 81.5937 96.1799 81.575 96.2472 81.5376C96.2884 81.5139 96.3326 81.472 96.38 81.4122L97.1304 81.4815C97.0156 81.6811 96.8771 81.8242 96.715 81.9109C96.5528 81.9975 96.3201 82.041 96.017 82.041C95.7538 82.041 95.5467 82.0038 95.3958 81.9296C95.2448 81.8554 95.1198 81.7375 95.0206 81.5759C94.9215 81.4144 94.8718 81.2245 94.8718 81.0061C94.8718 80.6956 94.9713 80.4441 95.1703 80.252C95.3693 80.0599 95.644 79.9639 95.9946 79.9639C96.279 79.9639 96.5036 80.0069 96.6682 80.093C96.8329 80.179 96.9583 80.3038 97.0443 80.4673C97.1304 80.6307 97.1735 80.8433 97.1735 81.1054V81.1914ZM96.3987 80.8264C96.3838 80.6793 96.3441 80.5738 96.2799 80.5102C96.2156 80.4466 96.1311 80.4147 96.0263 80.4147C95.9053 80.4147 95.8087 80.4628 95.7363 80.5588C95.6901 80.6187 95.6608 80.7078 95.6484 80.8264L96.3987 80.8264Z" fill="white"/>
<path d="M97.5306 80.0088H98.2435V80.3344C98.3121 80.1933 98.383 80.0964 98.4559 80.0434C98.5288 79.9904 98.619 79.9639 98.7262 79.9639C98.8385 79.9639 98.9614 79.9988 99.0948 80.0686L98.8591 80.6113C98.7693 80.5738 98.6982 80.5551 98.6457 80.5551C98.5459 80.5551 98.4685 80.5963 98.4137 80.6786C98.3351 80.7947 98.2958 81.0116 98.2958 81.3298V81.9959H97.5305L97.5306 80.0088Z" fill="white"/>
<path d="M99.2522 79.2529H100.014V79.7713H99.2522V79.2529ZM99.2522 80.0089H100.014V81.9961H99.2522V80.0089Z" fill="white"/>
<path d="M101.348 80.0089H101.711V80.5665H101.348V81.9961H100.585V80.5665H100.3V80.0089H100.585V79.9191C100.585 79.838 100.593 79.7488 100.611 79.6514C100.628 79.5541 100.661 79.4746 100.709 79.4128C100.757 79.3511 100.824 79.3012 100.911 79.2632C100.998 79.2251 101.125 79.2061 101.292 79.2061C101.425 79.2061 101.619 79.2216 101.874 79.2529L101.79 79.7132C101.699 79.6982 101.625 79.6907 101.569 79.6907C101.5 79.6907 101.451 79.7022 101.421 79.7253C101.391 79.7484 101.37 79.7849 101.357 79.8347C101.351 79.8623 101.348 79.9203 101.348 80.0089Z" fill="white"/>
<path d="M101.773 80.0088H102.576L102.986 81.3318L103.367 80.0088H104.117L103.329 82.1321C103.239 82.3743 103.147 82.5379 103.054 82.6227C102.922 82.7426 102.72 82.8025 102.45 82.8025C102.34 82.8025 102.17 82.7876 101.941 82.7576L101.881 82.2262C101.991 82.2611 102.113 82.2786 102.248 82.2786C102.337 82.2786 102.41 82.258 102.465 82.2168C102.521 82.1755 102.568 82.1019 102.607 81.9957L101.773 80.0088Z" fill="white"/>
<path d="M108.795 65.2725H87.41C85.6086 65.2725 84.1484 66.7327 84.1484 68.534C84.1484 70.3354 85.6087 71.7956 87.41 71.7956H108.795C110.597 71.7956 112.057 70.3353 112.057 68.534C112.057 66.7327 110.597 65.2725 108.795 65.2725Z" fill="#00BA88"/>
<path d="M109.561 100.843C109.463 101.071 109.34 101.29 109.193 101.497C108.611 102.313 107.76 103.384 106.575 104.61C105.752 105.461 104.767 106.388 103.6 107.355C102.485 105.121 101.206 102.526 100.005 100.002C99.8062 99.5846 99.6098 99.1691 99.4163 98.7578H108.309C108.557 99.1802 108.805 99.5964 109.05 100.002C109.223 100.288 109.393 100.569 109.561 100.843Z" fill="#E9E9E9"/>
<path d="M110.768 68.7942C110.768 68.8534 110.769 68.9127 110.772 68.9702C110.881 71.6964 113.51 72.2429 113.51 72.2429C113.608 72.2429 113.701 72.2403 113.788 72.2359C114.644 72.189 115.039 71.9034 116.162 71.1819L121.576 66.0265C122.496 64.9345 122.711 63.394 122.074 62.1163C121.541 61.0481 120.729 60.5723 119.932 60.3911C118.725 60.1169 117.465 60.5246 116.6 61.4097L111.387 66.8489C110.768 67.733 110.768 68.7942 110.768 68.7942Z" fill="#FAB36F"/>
<path d="M155.483 141.92H122.192C117.066 138.104 109.619 133.058 109.146 132.834C108.805 132.671 107.011 130.913 106.797 130.602C106.405 130.03 103.034 121.223 101.655 114.649C101.437 113.608 101.268 112.622 101.169 111.733C101.063 110.776 101.873 110.332 102.812 110.148C102.859 110.138 102.907 110.129 102.956 110.121C102.957 110.12 102.959 110.12 102.96 110.12C102.989 110.115 103.019 110.111 103.049 110.109C103.071 110.106 103.094 110.104 103.117 110.102C103.117 110.102 103.119 110.102 103.119 110.102C103.142 110.1 103.165 110.098 103.189 110.098C103.204 110.097 103.219 110.097 103.234 110.097C103.249 110.097 103.265 110.097 103.28 110.097C103.294 110.097 103.306 110.097 103.32 110.098C103.322 110.097 103.324 110.097 103.325 110.097C103.326 110.098 103.327 110.098 103.327 110.098C103.342 110.1 103.357 110.1 103.372 110.1C103.424 110.103 103.477 110.109 103.529 110.118C103.546 110.12 103.563 110.123 103.58 110.126C103.589 110.126 103.599 110.129 103.608 110.131C103.616 110.132 103.623 110.133 103.631 110.136C103.634 110.136 103.638 110.137 103.641 110.138C103.666 110.142 103.69 110.148 103.714 110.153C103.737 110.16 103.761 110.167 103.786 110.173C103.809 110.18 103.833 110.187 103.857 110.194C103.867 110.197 103.875 110.2 103.884 110.204C103.893 110.207 103.902 110.209 103.911 110.213C103.93 110.219 103.95 110.226 103.969 110.234C104.003 110.247 104.037 110.26 104.071 110.275C104.118 110.295 104.163 110.316 104.209 110.339C104.21 110.339 104.21 110.34 104.21 110.34C104.234 110.352 104.258 110.364 104.28 110.377C104.303 110.389 104.326 110.402 104.349 110.414C104.396 110.441 104.44 110.468 104.485 110.497C104.507 110.511 104.53 110.525 104.552 110.541C104.598 110.571 104.644 110.604 104.689 110.637C104.709 110.653 104.729 110.668 104.75 110.683C104.772 110.7 104.794 110.716 104.815 110.734C104.843 110.756 104.87 110.779 104.898 110.802C104.922 110.823 104.946 110.843 104.97 110.865C104.987 110.879 105.004 110.894 105.021 110.909C105.035 110.921 105.047 110.933 105.059 110.944C105.103 110.984 105.147 111.025 105.189 111.068C105.209 111.088 105.229 111.108 105.249 111.128C105.27 111.148 105.289 111.167 105.308 111.189C105.328 111.209 105.348 111.229 105.367 111.25C105.444 111.332 105.521 111.418 105.594 111.505C105.612 111.527 105.632 111.549 105.649 111.572C105.653 111.575 105.657 111.581 105.66 111.584C105.693 111.624 105.724 111.664 105.756 111.704C105.794 111.749 105.83 111.796 105.864 111.842C105.886 111.871 105.908 111.9 105.931 111.929C105.973 111.987 106.015 112.045 106.056 112.103C106.058 112.104 106.058 112.105 106.059 112.106C106.075 112.128 106.09 112.151 106.105 112.174C106.157 112.247 106.206 112.318 106.253 112.391C106.264 112.407 106.275 112.425 106.287 112.441C106.287 112.441 106.287 112.441 106.287 112.442C106.328 112.506 106.368 112.568 106.407 112.63C106.422 112.654 106.437 112.677 106.451 112.701C106.477 112.741 106.5 112.783 106.525 112.822C106.533 112.836 106.541 112.849 106.549 112.862C106.612 112.968 106.67 113.07 106.725 113.167C106.733 113.182 106.741 113.196 106.748 113.209C106.76 113.231 106.773 113.252 106.783 113.273C106.796 113.296 106.808 113.319 106.82 113.341C106.831 113.36 106.841 113.38 106.851 113.398C106.857 113.411 106.863 113.422 106.87 113.434C106.872 113.437 106.872 113.439 106.874 113.442C106.875 113.443 106.875 113.444 106.876 113.445C106.897 113.487 106.919 113.527 106.938 113.564C106.944 113.577 106.95 113.589 106.957 113.601C106.982 113.65 107.004 113.694 107.024 113.735C107.03 113.748 107.036 113.761 107.043 113.773C107.056 113.803 107.07 113.829 107.08 113.852C107.085 113.863 107.09 113.872 107.094 113.881C107.109 113.912 107.12 113.937 107.127 113.953C107.128 113.954 107.129 113.955 107.129 113.956C107.13 113.957 107.13 113.957 107.131 113.959C107.128 113.953 107.125 113.944 107.121 113.935C107.119 113.926 107.115 113.917 107.112 113.907C107.096 113.867 107.074 113.811 107.047 113.741C107.042 113.729 107.038 113.718 107.033 113.706C107.019 113.671 107.004 113.632 106.988 113.592C106.532 112.429 105.166 108.964 104.698 108.03C104.516 107.665 104.327 107.288 104.135 106.903C103.075 104.775 101.886 102.358 100.766 100.002C100.567 99.5847 100.37 99.1692 100.177 98.7579C100.046 98.4792 99.916 98.2027 99.788 97.9282C98.4094 94.9657 97.2397 92.284 96.7011 90.6489C96.5753 90.2659 96.4841 89.941 96.4329 89.6831C96.4163 89.5987 96.4011 89.5144 96.3865 89.4307C96.2704 88.7311 96.2559 88.0618 96.3347 87.4589C96.6119 85.3309 98.0507 84.0429 100.27 85.2327C100.552 85.3841 100.854 85.5694 101.163 85.8017C101.473 86.034 101.792 86.312 102.108 86.65C102.66 87.2383 103.279 88.3957 103.349 88.5257C103.558 88.9128 104.035 89.8012 104.68 90.9806C104.881 91.3498 105.099 91.7481 105.331 92.1684C105.392 92.2797 105.453 92.3911 105.516 92.5051C106.417 94.1374 107.496 96.0621 108.583 97.9282C108.993 98.6327 109.404 99.3282 109.807 99.9967C109.808 99.9987 109.809 100 109.811 100.002C111.005 101.984 112.129 103.726 112.943 104.737C112.943 104.737 112.943 104.737 112.943 104.738C112.945 104.739 112.945 104.741 112.947 104.742C112.994 104.8 113.039 104.855 113.084 104.907C113.129 104.961 113.173 105.011 113.215 105.058C113.279 105.129 113.339 105.192 113.397 105.249C113.415 105.268 113.434 105.286 113.453 105.303C113.48 105.329 113.507 105.353 113.536 105.378C113.592 105.427 113.649 105.472 113.707 105.515C113.736 105.537 113.765 105.558 113.795 105.578C113.805 105.585 113.816 105.593 113.827 105.6C113.846 105.613 113.865 105.625 113.886 105.638C113.944 105.675 114.003 105.709 114.064 105.741C114.186 105.806 114.309 105.86 114.437 105.907C114.485 105.925 114.534 105.94 114.583 105.956C114.585 105.956 114.588 105.957 114.59 105.958C114.614 105.965 114.637 105.972 114.659 105.978C114.673 105.982 114.687 105.986 114.701 105.989C114.706 105.991 114.711 105.991 114.716 105.993C114.723 105.995 114.73 105.997 114.737 105.998C114.743 106 114.75 106.001 114.757 106.003C114.775 106.008 114.795 106.013 114.814 106.017C114.858 106.027 114.902 106.036 114.946 106.044C114.981 106.05 115.015 106.057 115.05 106.061C115.063 106.063 115.077 106.066 115.091 106.068C115.105 106.07 115.118 106.072 115.132 106.073C115.158 106.077 115.185 106.08 115.211 106.083C115.214 106.083 115.216 106.084 115.219 106.084L115.282 106.089C115.308 106.091 115.333 106.094 115.357 106.096C115.386 106.098 115.416 106.1 115.445 106.101C115.467 106.103 115.49 106.103 115.512 106.104C115.534 106.105 115.557 106.106 115.579 106.106C115.608 106.106 115.637 106.106 115.666 106.106C115.702 106.106 115.738 106.106 115.774 106.104C115.807 106.104 115.839 106.103 115.872 106.101C115.905 106.099 115.937 106.098 115.97 106.095C115.981 106.095 115.992 106.094 116.002 106.093C116.025 106.092 116.047 106.09 116.068 106.088C116.134 106.083 116.199 106.076 116.264 106.068C116.297 106.063 116.33 106.06 116.362 106.054C116.395 106.05 116.427 106.046 116.46 106.04C116.525 106.03 116.591 106.018 116.655 106.006C116.72 105.994 116.784 105.98 116.849 105.966C116.88 105.959 116.91 105.953 116.94 105.945C116.97 105.938 117 105.931 117.03 105.923C117.09 105.909 117.15 105.893 117.209 105.877C117.239 105.868 117.269 105.86 117.298 105.851C117.357 105.835 117.416 105.817 117.474 105.799C117.532 105.781 117.591 105.761 117.647 105.743C117.647 105.743 117.647 105.743 117.647 105.743C117.648 105.742 117.648 105.742 117.648 105.742C117.762 105.704 117.875 105.664 117.985 105.622C118.004 105.615 118.023 105.608 118.043 105.6C118.051 105.597 118.059 105.593 118.067 105.59C118.094 105.579 118.122 105.569 118.148 105.558C118.175 105.548 118.202 105.537 118.229 105.526C118.282 105.505 118.334 105.483 118.386 105.461C118.438 105.439 118.489 105.416 118.539 105.394C118.589 105.371 118.639 105.349 118.687 105.327C118.735 105.304 118.783 105.282 118.83 105.259C118.947 105.204 119.058 105.148 119.163 105.094C119.205 105.073 119.246 105.051 119.285 105.03C119.305 105.019 119.324 105.008 119.344 104.999C119.363 104.988 119.383 104.978 119.401 104.968C119.439 104.947 119.475 104.927 119.51 104.907C119.528 104.898 119.545 104.889 119.562 104.879C119.595 104.86 119.627 104.842 119.658 104.823C119.694 104.802 119.728 104.783 119.759 104.764C119.807 104.737 119.851 104.71 119.89 104.686C119.929 104.662 119.965 104.64 119.996 104.62C120.018 104.607 120.039 104.593 120.06 104.578C120.124 104.533 120.183 104.484 120.238 104.43C120.252 104.418 120.267 104.403 120.284 104.388C120.292 104.38 120.301 104.372 120.31 104.363C120.325 104.349 120.341 104.334 120.358 104.319C120.365 104.313 120.373 104.306 120.379 104.3C121.04 103.713 123.093 102.214 126.27 102.804C126.468 102.841 126.661 102.872 126.848 102.899H126.849C126.929 102.911 127.008 102.921 127.085 102.931C127.129 102.936 127.173 102.942 127.217 102.947C127.442 102.973 127.659 102.992 127.867 103.005C127.89 103.007 127.912 103.009 127.935 103.01C127.942 103.01 127.948 103.011 127.955 103.011C127.962 103.012 127.967 103.012 127.973 103.012C127.995 103.013 128.018 103.014 128.041 103.015C128.088 103.018 128.134 103.02 128.18 103.021C128.182 103.021 128.185 103.022 128.187 103.021C128.235 103.023 128.282 103.024 128.329 103.026C128.414 103.028 128.496 103.029 128.577 103.029C128.594 103.028 128.609 103.028 128.625 103.028C128.628 103.028 128.631 103.029 128.634 103.028C128.638 103.029 128.64 103.029 128.644 103.029C128.657 103.029 128.67 103.028 128.684 103.028C128.699 103.028 128.712 103.028 128.726 103.028C128.734 103.028 128.741 103.028 128.75 103.027H128.78C128.788 103.027 128.796 103.027 128.803 103.026C128.81 103.027 128.817 103.026 128.825 103.025C128.86 103.025 128.896 103.024 128.931 103.022C128.943 103.021 128.954 103.021 128.965 103.021C128.999 103.02 129.033 103.019 129.066 103.017C129.121 103.014 129.174 103.012 129.227 103.008C129.234 103.007 129.24 103.007 129.247 103.006C129.296 103.003 129.344 102.999 129.39 102.995C129.42 102.993 129.448 102.99 129.476 102.988C129.684 102.969 129.878 102.943 130.058 102.913C130.09 102.908 130.122 102.902 130.153 102.897C130.181 102.892 130.209 102.887 130.237 102.882C130.396 102.852 130.543 102.818 130.679 102.784C130.704 102.777 130.728 102.77 130.752 102.764C130.757 102.763 130.762 102.761 130.768 102.76C130.775 102.758 130.784 102.756 130.791 102.754C130.943 102.712 131.079 102.668 131.2 102.625C131.211 102.621 131.223 102.616 131.235 102.612C131.272 102.599 131.306 102.586 131.339 102.573C131.347 102.57 131.354 102.567 131.363 102.564C131.364 102.564 131.364 102.564 131.365 102.563C131.368 102.562 131.371 102.56 131.374 102.559C131.382 102.556 131.39 102.553 131.398 102.549C131.402 102.548 131.407 102.546 131.412 102.544C131.498 102.509 131.574 102.475 131.639 102.443C131.782 102.376 131.875 102.32 131.922 102.291C131.926 102.289 131.93 102.286 131.933 102.284C131.94 102.28 131.945 102.276 131.949 102.273C131.953 102.27 131.956 102.268 131.957 102.267C131.957 102.266 131.957 102.266 131.957 102.266C131.957 102.266 131.957 102.266 131.958 102.266C131.958 102.266 131.96 102.265 131.964 102.263C131.98 102.253 132.034 102.22 132.123 102.177C132.145 102.167 132.169 102.156 132.194 102.144C132.208 102.139 132.221 102.132 132.235 102.127C132.249 102.12 132.264 102.114 132.278 102.108C132.309 102.096 132.34 102.083 132.375 102.071C132.75 101.933 133.368 101.785 134.196 101.859C134.686 101.903 135.249 102.024 135.877 102.271C136.093 102.356 136.317 102.455 136.549 102.572C136.637 102.616 136.728 102.664 136.818 102.713C136.866 102.739 136.915 102.762 136.965 102.782C137.024 102.806 137.085 102.827 137.147 102.842C137.169 102.848 137.192 102.853 137.214 102.857C137.236 102.862 137.26 102.866 137.285 102.871C137.287 102.872 137.289 102.872 137.292 102.872C137.3 102.873 137.308 102.875 137.317 102.877C137.362 102.884 137.409 102.891 137.461 102.897C137.496 102.901 137.532 102.905 137.57 102.908C137.593 102.911 137.617 102.912 137.642 102.914C137.651 102.915 137.66 102.916 137.669 102.916C137.677 102.916 137.686 102.917 137.695 102.918C137.703 102.918 137.711 102.919 137.72 102.92C137.728 102.92 137.736 102.92 137.743 102.92C137.758 102.921 137.774 102.922 137.789 102.922C137.802 102.922 137.815 102.923 137.829 102.924H137.866C137.867 102.924 137.867 102.924 137.868 102.924L137.868 102.924H137.893C137.925 102.925 137.959 102.925 137.994 102.925C137.998 102.925 138.003 102.926 138.007 102.925C138.021 102.924 138.037 102.924 138.052 102.924C138.059 102.924 138.066 102.924 138.074 102.924C138.112 102.924 138.153 102.922 138.194 102.92C138.218 102.919 138.242 102.918 138.265 102.916C138.289 102.916 138.315 102.914 138.341 102.912C138.356 102.911 138.372 102.911 138.388 102.909C138.403 102.908 138.419 102.906 138.435 102.905C138.451 102.904 138.467 102.903 138.484 102.902C138.568 102.894 138.656 102.885 138.748 102.873C138.817 102.865 138.888 102.855 138.961 102.844L138.963 102.843C138.99 102.839 139.019 102.835 139.046 102.83C139.079 102.825 139.112 102.819 139.146 102.814C139.2 102.804 139.255 102.794 139.311 102.783C139.432 102.76 139.557 102.732 139.689 102.702H139.689C139.91 102.65 140.145 102.587 140.395 102.511C140.444 102.496 140.494 102.481 140.545 102.465C140.549 102.464 140.554 102.463 140.557 102.461H140.558C141.883 102.047 142.931 102.24 143.779 102.765C145.538 103.858 146.43 106.388 147.136 107.914C148.182 110.177 148.51 117.566 149.441 120.536C150.343 123.416 152.237 136.176 155.483 141.92Z" fill="#FAB36F"/>
<path d="M100.911 91.604C98.922 92.5826 98.1519 91.5257 97.9328 91.1558C97.7276 90.8106 97.5384 90.455 97.3631 90.0938C96.9507 89.2444 96.6043 88.3632 96.3342 87.4591C96.6118 85.3308 98.0507 84.0429 100.269 85.2328C100.445 85.4809 100.614 85.7326 100.781 85.9717C101.406 86.8651 102.097 87.9642 102.5 88.8698C102.665 89.2419 102.933 90.6095 100.911 91.604Z" fill="#F5CEA6"/>
<path d="M120.379 104.3C119.864 105.116 119.267 105.967 118.335 106.545H118.335C117.875 106.832 117.334 107.05 116.681 107.165C114.911 107.478 113.483 105.582 112.944 104.738C113.136 104.975 113.306 105.166 113.452 105.303C113.562 105.406 113.676 105.497 113.795 105.577C113.805 105.585 113.816 105.592 113.827 105.599C113.904 105.651 113.983 105.698 114.064 105.741C114.185 105.805 114.309 105.86 114.436 105.906C114.485 105.924 114.534 105.94 114.583 105.955C114.608 105.963 114.634 105.971 114.659 105.977C114.678 105.983 114.697 105.988 114.716 105.993C114.729 105.997 114.743 106 114.756 106.003C114.775 106.008 114.795 106.012 114.814 106.017C114.892 106.034 114.97 106.049 115.049 106.061C115.224 106.088 115.401 106.103 115.579 106.106C115.643 106.107 115.708 106.107 115.774 106.105C115.839 106.103 115.905 106.1 115.97 106.096C116.003 106.094 116.035 106.091 116.068 106.088C116.134 106.083 116.199 106.076 116.265 106.067C116.297 106.063 116.33 106.059 116.362 106.054C116.395 106.05 116.427 106.045 116.46 106.04C116.525 106.029 116.591 106.018 116.655 106.006C116.72 105.993 116.785 105.98 116.849 105.966C116.88 105.959 116.91 105.952 116.94 105.945C116.97 105.938 117 105.931 117.03 105.923C117.09 105.908 117.15 105.892 117.209 105.876C117.239 105.868 117.269 105.86 117.298 105.851C117.357 105.834 117.416 105.816 117.474 105.798C117.532 105.78 117.59 105.761 117.647 105.742C117.648 105.742 117.648 105.742 117.648 105.742C117.762 105.704 117.875 105.664 117.985 105.622C118.012 105.612 118.04 105.601 118.067 105.59C118.122 105.569 118.175 105.548 118.229 105.526C118.282 105.504 118.334 105.483 118.386 105.46C118.438 105.439 118.489 105.416 118.539 105.394C118.589 105.371 118.639 105.349 118.687 105.327C118.736 105.304 118.783 105.282 118.83 105.259C118.947 105.204 119.058 105.148 119.163 105.094C119.205 105.073 119.246 105.051 119.285 105.03C119.325 105.009 119.364 104.988 119.401 104.968C119.439 104.948 119.475 104.927 119.51 104.908C119.528 104.898 119.545 104.888 119.562 104.879C119.595 104.86 119.627 104.841 119.659 104.823C119.799 104.742 119.914 104.672 119.996 104.62C120.084 104.566 120.165 104.502 120.239 104.43C120.275 104.395 120.322 104.351 120.379 104.3Z" fill="#E9E9E9"/>
<path d="M132.375 102.071C132.077 102.541 131.423 103.157 129.992 103.678C128.348 104.276 127.368 103.563 126.848 102.899C130.361 103.406 131.958 102.266 131.958 102.266C131.958 102.266 132.102 102.171 132.375 102.071Z" fill="#E9E9E9"/>
<path d="M140.395 102.512C140.073 102.89 139.479 103.438 138.646 103.598C138.117 103.697 137.588 103.323 137.147 102.843C137.169 102.848 137.192 102.854 137.214 102.858C137.521 102.921 138.089 102.978 138.962 102.844L138.963 102.844C139.185 102.81 139.427 102.764 139.689 102.702C139.689 102.702 139.69 102.702 139.69 102.702C139.91 102.65 140.145 102.587 140.395 102.512Z" fill="#E9E9E9"/>
<path d="M111.214 126.11L108.901 120.5C107.515 116.284 106.281 113.779 105.3 112.293C105.084 111.964 104.88 111.686 104.689 111.45L104.688 111.45C104.058 110.668 103.575 110.346 103.275 110.213L103.275 110.212C103.187 110.174 103.115 110.15 103.061 110.138L103.061 110.137C103.016 110.126 102.982 110.122 102.96 110.12C102.99 110.116 103.019 110.111 103.049 110.108C103.071 110.106 103.094 110.103 103.117 110.102C103.117 110.101 103.119 110.101 103.119 110.102C103.142 110.099 103.165 110.098 103.188 110.098C103.204 110.097 103.219 110.097 103.234 110.097C103.25 110.097 103.266 110.097 103.28 110.097C103.294 110.097 103.306 110.097 103.32 110.098C103.322 110.097 103.324 110.098 103.326 110.098C103.327 110.098 103.327 110.098 103.327 110.098C103.342 110.099 103.357 110.1 103.372 110.1C103.425 110.103 103.477 110.109 103.529 110.117C103.546 110.12 103.563 110.123 103.58 110.126C103.59 110.127 103.6 110.128 103.608 110.13C103.616 110.132 103.623 110.133 103.632 110.135C103.635 110.136 103.638 110.137 103.642 110.138C103.666 110.142 103.69 110.148 103.714 110.154C103.738 110.16 103.761 110.166 103.786 110.173C103.809 110.18 103.834 110.187 103.857 110.194C103.867 110.197 103.876 110.2 103.884 110.204C103.893 110.206 103.903 110.209 103.911 110.213C103.931 110.219 103.95 110.226 103.969 110.234C104.003 110.247 104.037 110.26 104.071 110.275C104.118 110.295 104.164 110.316 104.209 110.339C104.209 110.339 104.21 110.34 104.211 110.34C104.234 110.352 104.258 110.364 104.28 110.377C104.303 110.389 104.327 110.402 104.349 110.414C104.395 110.441 104.44 110.468 104.486 110.497C104.507 110.511 104.53 110.525 104.552 110.541C104.598 110.571 104.644 110.604 104.689 110.637C104.709 110.652 104.729 110.667 104.75 110.683C104.771 110.7 104.794 110.716 104.815 110.734C104.843 110.756 104.87 110.779 104.898 110.802C104.922 110.823 104.946 110.843 104.97 110.865C104.987 110.879 105.004 110.894 105.021 110.909C105.034 110.921 105.047 110.933 105.059 110.944C105.103 110.984 105.147 111.025 105.189 111.067C105.21 111.088 105.229 111.108 105.249 111.127C105.27 111.147 105.289 111.167 105.308 111.188C105.329 111.209 105.348 111.229 105.367 111.25C105.445 111.332 105.52 111.418 105.595 111.505C105.613 111.527 105.632 111.549 105.649 111.571C105.654 111.575 105.657 111.58 105.66 111.584C105.693 111.624 105.725 111.663 105.757 111.704C105.794 111.749 105.83 111.795 105.864 111.842C105.886 111.871 105.909 111.9 105.93 111.929C105.973 111.987 106.015 112.045 106.056 112.103C106.058 112.104 106.058 112.105 106.059 112.106C106.075 112.128 106.09 112.15 106.106 112.173C106.157 112.247 106.206 112.318 106.253 112.391C106.264 112.408 106.276 112.424 106.287 112.441C106.287 112.441 106.287 112.441 106.286 112.442C106.328 112.505 106.368 112.568 106.407 112.63C106.422 112.654 106.436 112.677 106.451 112.7C106.476 112.742 106.501 112.783 106.525 112.822C106.533 112.836 106.541 112.849 106.549 112.862C106.612 112.968 106.671 113.07 106.725 113.167C106.733 113.181 106.741 113.195 106.749 113.209C106.76 113.231 106.772 113.252 106.783 113.273C106.796 113.296 106.808 113.319 106.82 113.341C106.831 113.36 106.841 113.38 106.851 113.398C106.857 113.41 106.864 113.422 106.87 113.434C106.871 113.437 106.873 113.439 106.874 113.442C106.875 113.443 106.875 113.444 106.875 113.445C106.897 113.487 106.919 113.526 106.938 113.564C106.944 113.577 106.95 113.589 106.957 113.601C106.981 113.65 107.004 113.694 107.024 113.735C107.03 113.748 107.036 113.761 107.043 113.773C107.056 113.802 107.07 113.828 107.08 113.852C107.085 113.862 107.09 113.872 107.094 113.881C107.109 113.912 107.12 113.936 107.127 113.952C107.13 113.957 107.131 113.962 107.133 113.965C107.133 113.963 107.132 113.961 107.131 113.959C107.128 113.952 107.125 113.944 107.121 113.934C107.119 113.926 107.115 113.917 107.111 113.907C107.095 113.867 107.074 113.811 107.046 113.741C107.042 113.729 107.037 113.718 107.033 113.706C107.019 113.671 107.005 113.632 106.988 113.591C109.286 118.369 111.185 125.991 111.214 126.11Z" fill="#E9E9E9"/>
<path d="M102.13 116.651L101.655 114.65C101.437 113.608 101.268 112.622 101.169 111.733C101.063 110.776 101.873 110.332 102.812 110.148C102.859 110.138 102.907 110.13 102.956 110.121C102.957 110.121 102.959 110.12 102.96 110.12C102.99 110.116 103.019 110.112 103.049 110.109C103.071 110.106 103.094 110.104 103.117 110.102C103.117 110.102 103.119 110.102 103.119 110.102C103.143 110.1 103.165 110.098 103.189 110.098C103.204 110.098 103.219 110.098 103.234 110.098C103.248 110.136 103.261 110.174 103.275 110.212L103.275 110.213C103.373 110.498 103.464 110.782 103.548 111.058C103.576 111.147 103.601 111.235 103.627 111.322L103.627 111.322C103.863 112.123 104.03 112.816 104.1 113.165C104.279 114.054 102.13 116.651 102.13 116.651Z" fill="#F5CEA6"/>
<path d="M110.772 68.9705C110.881 71.6968 113.51 72.2433 113.51 72.2433C113.608 72.2433 113.701 72.2406 113.788 72.2362L114.189 71.6942C114.189 71.6942 117.325 68.3162 115.484 66.8978C113.643 65.4785 110.885 68.8105 110.885 68.8105L110.772 68.9705Z" fill="#F5CEA6"/>
</g>
<path d="M171.654 19.1232C171.877 19.6678 172.146 20.0631 172.457 20.3029L172.628 19.9589C171.931 19.4222 171.597 17.7879 171.527 17.2036L171.163 17.2012C171.166 17.2245 171.234 17.7815 171.42 18.4363C171.491 18.6866 171.57 18.9158 171.654 19.1232Z" fill="#E0AF03"/>
<path d="M159.543 83.0905C160.579 83.1346 161.672 82.9949 162.791 82.6756L162.926 83.0899C161.776 83.418 160.652 83.5613 159.583 83.5159L159.543 83.0905ZM153.023 58.1245L153.383 58.2725C153.154 59.4638 153.212 60.7711 153.55 62.053L153.2 62.1214C152.842 60.7669 152.781 59.3848 153.023 58.1245ZM155.257 65.5689C156.025 66.5991 156.954 67.4584 158.018 68.1232L157.882 68.4915C156.77 67.7968 155.798 66.8977 154.994 65.8192L155.257 65.5689ZM157.265 52.7954L157.444 53.1931C156.399 53.6867 155.527 54.3447 154.852 55.1489L154.571 54.8305C155.274 53.992 156.181 53.3073 157.265 52.7954ZM168.534 79.5919L168.77 79.9536C167.879 80.6649 166.945 81.2894 165.994 81.8098L165.799 81.4199C166.736 80.9076 167.656 80.2926 168.534 79.5919ZM161.283 69.4106C162.351 69.6183 163.47 69.6478 164.607 69.4983L164.699 69.9213C163.529 70.0753 162.377 70.0446 161.274 69.8301L161.283 69.4106ZM160.465 51.8592C161.644 51.6857 162.793 51.6917 163.881 51.8769L163.88 52.2979C162.825 52.1183 161.709 52.1128 160.562 52.2816L160.465 51.8592ZM171.85 76.0894C172.184 75.5588 172.483 74.9727 172.741 74.3473L173.077 74.5733C172.812 75.2183 172.503 75.8232 172.157 76.3711C171.914 76.7571 171.602 77.1731 171.229 77.6073L170.95 77.2861C171.313 76.8639 171.615 76.4613 171.85 76.0894ZM167.768 68.6758C168.006 68.5894 168.244 68.4972 168.477 68.402C169.248 68.0869 170.008 67.7185 170.736 67.307L170.934 67.6951C170.196 68.1125 169.424 68.4863 168.642 68.806C168.406 68.9026 168.164 68.9961 167.923 69.0838L167.768 68.6758ZM173.878 66.9941L174.245 67.0334C174.305 68.3751 174.241 69.6909 174.053 70.9445L173.69 70.8143C173.874 69.5902 173.937 68.3049 173.878 66.9941ZM167.285 53.1415C168.361 53.7873 169.352 54.6521 170.231 55.7117L169.984 55.9824C169.139 54.9642 168.188 54.1336 167.155 53.5137L167.285 53.1415ZM175.911 63.1882L176.181 63.5192C175.398 64.359 174.563 65.1346 173.699 65.8241L173.463 65.4624C174.315 64.7821 175.139 64.017 175.911 63.1882ZM172.382 60.0671C172.382 60.0667 172.382 60.0664 172.382 60.066C172.28 59.8164 172.172 59.5677 172.061 59.3268L172.38 59.1706C172.494 59.4187 172.606 59.6748 172.711 59.9317C172.711 59.9321 172.711 59.9324 172.711 59.9328C173.113 60.917 173.444 61.9637 173.696 63.0438L173.341 63.0971C173.096 62.0444 172.774 61.025 172.382 60.0671ZM179.9 57.5836L180.219 57.8455C179.65 58.8934 179.024 59.9009 178.357 60.8401L178.06 60.5427C178.719 59.6148 179.338 58.6192 179.9 57.5836ZM182.226 52.0012L182.232 51.9825C182.363 51.6222 182.488 51.2575 182.605 50.8986L182.951 51.0963C182.835 51.4568 182.709 51.8231 182.577 52.185C182.548 52.2943 182.304 53.2013 181.753 54.5794L181.415 54.3567C181.98 52.9428 182.223 52.0105 182.226 52.0012ZM183.94 43.5482L184.307 43.6269C184.261 44.8923 184.117 46.183 183.879 47.4633L183.519 47.3179C183.753 46.0592 183.895 44.7909 183.94 43.5482ZM174.758 22.2295C175.715 23.1471 176.624 24.1163 177.459 25.1102L177.214 25.3834C176.39 24.4031 175.493 23.4468 174.549 22.5412L174.758 22.2295ZM182.957 35.7778L183.303 35.6943C183.688 36.9963 183.967 38.3307 184.134 39.6606L183.77 39.6609C183.607 38.3589 183.334 37.0524 182.957 35.7778ZM179.856 28.332C180.609 29.4869 181.279 30.6804 181.844 31.8792L181.527 32.0394C180.972 30.8625 180.315 29.6905 179.574 28.5557L179.856 28.332Z" fill="#E0AF03"/>
<path d="M169.475 27.3005L180.739 12.3574L154.733 15.7869L169.475 27.3005Z" fill="#F8D801"/>
<path d="M178.475 26.7684L176.806 17.5935L154.733 15.7871L178.475 26.7684Z" fill="#E0AF03"/>
<path d="M178.475 26.7677L174.805 20.2031L172.099 23.8186L178.475 26.7677Z" fill="#E5C605"/>
<path d="M154.733 15.7871L174.805 20.2038L169.475 27.3007L154.733 15.7871Z" fill="#F8D801"/>
<path d="M157.206 77.7471H134.671V91.8068H157.206V77.7471Z" fill="#3DCDA6"/>
<path d="M145.939 83.7314L134.671 91.8066H157.206L145.939 83.7314Z" fill="#00BA88"/>
<path opacity="0.43" d="M145.067 85.8661L134.671 77.7461L157.206 77.7474L146.8 85.8396C146.257 86.2026 145.62 86.2019 145.067 85.8661Z" fill="#C2C2C2"/>
<path d="M145.091 85.2072L134.671 77.7471H157.206L146.789 85.209C146.282 85.575 145.597 85.5742 145.091 85.2072Z" fill="#3EDAB0"/>
<path d="M55.2352 44.6039C59.1677 40.6713 59.1677 34.2955 55.2352 30.3629C51.3026 26.4304 44.9268 26.4304 40.9942 30.3629C37.0617 34.2955 37.0617 40.6713 40.9942 44.6039C44.9268 48.5364 51.3026 48.5364 55.2352 44.6039Z" fill="#F8D801"/>
<path d="M50.1383 39.3754L49.0594 39.5769C48.4358 39.6934 47.796 39.6934 47.1725 39.5769L46.0936 39.3754C45.1394 39.1972 44.161 39.5636 43.5704 40.334C43.2287 40.7796 43.0256 41.3372 43.0256 41.9422H53.2064C53.2064 41.3372 53.0033 40.7796 52.6616 40.334C52.0709 39.5636 51.0925 39.1972 50.1383 39.3754Z" fill="white"/>
<path d="M48.116 38.671C49.466 38.671 50.5604 37.4069 50.5604 35.8477C50.5604 34.2884 49.466 33.0244 48.116 33.0244C46.766 33.0244 45.6716 34.2884 45.6716 35.8477C45.6716 37.4069 46.766 38.671 48.116 38.671Z" fill="white"/>
<path d="M40.6554 73.4265L37.9854 73.4209C37.6559 73.4202 37.3594 73.621 37.2378 73.9271L36.1008 76.7873C35.8917 77.3134 36.278 77.8848 36.8441 77.8867L41.776 77.903C42.3428 77.9049 42.733 77.3349 42.5262 76.8073L41.4011 73.9363C41.2809 73.6294 40.9851 73.4272 40.6554 73.4265Z" fill="#F8D801"/>
<path d="M29.79 77.0787L27.8982 78.9627C27.6647 79.1952 27.597 79.5468 27.7275 79.8494L28.946 82.6758C29.1702 83.1956 29.8474 83.3265 30.2491 82.9275L33.7481 79.4517C34.1501 79.0523 34.023 78.3733 33.5037 78.1464L30.678 76.9119C30.3758 76.7799 30.0237 76.846 29.79 77.0787Z" fill="#F8D801"/>
<path d="M24.6892 87.3431L24.6836 90.013C24.6829 90.3425 24.8837 90.639 25.1898 90.7607L28.05 91.8976C28.5761 92.1067 29.1475 91.7204 29.1494 91.1542L29.1657 86.2223C29.1676 85.6556 28.5976 85.2653 28.07 85.4722L25.199 86.5973C24.8921 86.7176 24.6899 87.0134 24.6892 87.3431Z" fill="#F8D801"/>
<path d="M28.3407 98.2088L30.2247 100.101C30.4572 100.334 30.8088 100.402 31.1114 100.271L33.9377 99.0529C34.4576 98.8287 34.5884 98.1515 34.1895 97.7499L30.7136 94.2509C30.3142 93.8489 29.6352 93.976 29.4083 94.4952L28.1738 97.3209C28.0419 97.623 28.108 97.9751 28.3407 98.2088Z" fill="#F8D801"/>
<path d="M38.0593 103.308L41.8217 103.316L43.1603 99.9488C43.3694 99.4227 42.9831 98.8513 42.417 98.8494L37.485 98.833C36.9183 98.8311 36.528 99.4011 36.7349 99.9288L38.0593 103.308Z" fill="#F8D801"/>
<path d="M49.471 99.6584L51.3628 97.7745C51.5963 97.5419 51.664 97.1904 51.5335 96.8877L50.3151 94.0614C50.091 93.5415 49.4137 93.4107 49.0121 93.8096L45.5131 97.2855C45.1111 97.6849 45.2382 98.3639 45.7575 98.5908L48.5831 99.8253C48.8852 99.9572 49.2373 99.891 49.471 99.6584Z" fill="#F8D801"/>
<path d="M54.572 89.3925L54.5776 86.7226C54.5783 86.393 54.3775 86.0966 54.0714 85.9748L51.2112 84.8378C50.6851 84.6287 50.1137 85.0151 50.1118 85.5812L50.0955 90.5132C50.0936 91.0799 50.6636 91.4701 51.1912 91.2633L54.0622 90.1382C54.3691 90.018 54.5713 89.7223 54.572 89.3925Z" fill="#F8D801"/>
<path d="M50.9204 78.5276L49.0364 76.6358C48.8039 76.4023 48.4523 76.3346 48.1497 76.465L45.3233 77.6836C44.8035 77.9077 44.6726 78.585 45.0716 78.9866L48.5474 82.4856C48.9468 82.8876 49.6258 82.7605 49.8527 82.2412L51.0872 79.4156C51.2192 79.1133 51.153 78.7612 50.9204 78.5276Z" fill="#F8D801"/>
<path d="M51.8246 86.4546C51.7264 85.8216 51.5788 85.203 51.3872 84.6043C51.1501 83.8643 50.8444 83.153 50.4772 82.4786C50.3958 82.3285 50.3112 82.1808 50.2242 82.0348C49.3725 80.6131 48.2405 79.3718 46.9003 78.3932C46.3902 78.0204 45.8498 77.686 45.2822 77.3938C44.6029 77.0433 43.8853 76.7536 43.1366 76.5333C42.9737 76.4854 42.8092 76.4398 42.6432 76.3984C41.9352 76.2204 41.2016 76.1038 40.4472 76.0535C39.5164 75.9921 38.6024 76.036 37.718 76.1741C37.085 76.2731 36.4664 76.4199 35.8668 76.6123C35.1269 76.8486 34.4164 77.1535 33.7419 77.5207C33.5919 77.6021 33.4442 77.6867 33.2981 77.7746C31.8765 78.6255 30.6351 79.7575 29.6565 81.0985C29.2829 81.6086 28.9484 82.1499 28.6571 82.7174C28.3058 83.3967 28.0169 84.1135 27.7957 84.8615C27.7478 85.0243 27.7023 85.1896 27.6609 85.3556C27.4837 86.0636 27.3663 86.7972 27.3168 87.5516C27.2554 88.4824 27.2976 89.3956 27.4366 90.2808C27.5347 90.9138 27.6824 91.5325 27.874 92.1312C28.1111 92.8711 28.4168 93.5824 28.784 94.2569C28.8654 94.4061 28.95 94.5546 29.0371 94.6999C29.8888 96.1223 31.0199 97.3636 32.3618 98.3422C32.8719 98.715 33.4123 99.0495 33.979 99.3409H33.9798C34.6591 99.6921 35.3759 99.9819 36.1247 100.202C36.2876 100.25 36.452 100.296 36.6181 100.337C37.3261 100.514 38.0597 100.632 38.8141 100.682C39.7456 100.743 40.6588 100.7 41.5441 100.561C42.1771 100.463 42.7949 100.316 43.3944 100.124C44.1344 99.8877 44.8457 99.5819 45.5194 99.2147C45.6694 99.1333 45.8171 99.0487 45.9631 98.9617C47.3848 98.1099 48.6261 96.978 49.6047 95.6369C49.9783 95.1261 50.312 94.5856 50.6041 94.0189C50.9554 93.3404 51.2443 92.6228 51.4655 91.874C51.5134 91.7111 51.5589 91.5468 51.6003 91.3807C51.7776 90.6726 51.8949 89.939 51.9444 89.1839C52.0058 88.2531 51.9636 87.3399 51.8246 86.4546ZM47.2962 88.8813C47.0168 93.0482 43.2953 96.3075 39.1277 96.0345C34.8898 95.7559 31.6809 92.0927 31.965 87.854C32.2444 83.6871 35.9659 80.4278 40.1335 80.7009C44.3722 80.9795 47.5804 84.6426 47.2962 88.8813Z" fill="#F8D801"/>
<path d="M26.7757 57.5372L25.0255 57.4624C24.8094 57.4532 24.6098 57.5769 24.5218 57.7744L23.7002 59.6192C23.549 59.9586 23.7871 60.3435 24.1583 60.3598L27.3912 60.502C27.7627 60.5184 28.0337 60.155 27.9122 59.8037L27.2511 57.8915C27.1804 57.6868 26.9918 57.5464 26.7757 57.5372Z" fill="#00BA88"/>
<path d="M19.5548 59.6417L18.2643 60.8264C18.1051 60.9726 18.0513 61.2013 18.1287 61.4032L18.8523 63.2886C18.9853 63.6354 19.4259 63.7393 19.6998 63.4884L22.0865 61.3029C22.3607 61.0517 22.2954 60.6032 21.961 60.4406L20.1414 59.5559C19.9468 59.4614 19.7142 59.4954 19.5548 59.6417Z" fill="#00BA88"/>
<path d="M15.9371 66.2352L15.8623 67.9855C15.8531 68.2015 15.9768 68.4012 16.1743 68.4892L18.0191 69.3108C18.3584 69.462 18.7434 69.2238 18.7597 68.8528L18.9019 65.6198C18.9183 65.2482 18.5549 64.9772 18.2036 65.0987L16.2914 65.7598C16.0868 65.8305 15.9464 66.019 15.9371 66.2352Z" fill="#00BA88"/>
<path d="M18.0416 73.4556L19.2263 74.7462C19.3725 74.9054 19.6012 74.9592 19.8031 74.8818L21.6885 74.1582C22.0353 74.0251 22.1391 73.5846 21.8883 73.3107L19.7027 70.924C19.4516 70.6498 19.0031 70.7151 18.8404 71.0495L17.9558 72.8691C17.8613 73.0636 17.8953 73.2963 18.0416 73.4556Z" fill="#00BA88"/>
<path d="M24.277 77.0584L26.7434 77.1638L27.7107 74.9917C27.8619 74.6524 27.6237 74.2675 27.2527 74.2511L24.0197 74.1089C23.6481 74.0926 23.3771 74.4558 23.4986 74.8073L24.277 77.0584Z" fill="#00BA88"/>
<path d="M31.8561 74.9696L33.1466 73.7848C33.3058 73.6386 33.3596 73.4099 33.2821 73.2081L32.5586 71.3226C32.4255 70.9758 31.985 70.872 31.711 71.1229L29.3244 73.3084C29.0502 73.5595 29.1154 74.008 29.4498 74.1707L31.2695 75.0554C31.4641 75.1499 31.6967 75.1159 31.8561 74.9696Z" fill="#00BA88"/>
<path d="M35.4739 68.3756L35.5487 66.6253C35.5579 66.4093 35.4342 66.2096 35.2367 66.1216L33.3919 65.3C33.0526 65.1489 32.6676 65.387 32.6513 65.758L32.5091 68.9911C32.4927 69.3626 32.8561 69.6336 33.2074 69.5121L35.1196 68.851C35.3242 68.7803 35.4646 68.5918 35.4739 68.3756Z" fill="#00BA88"/>
<path d="M33.3694 61.1554L32.1847 59.8649C32.0385 59.7056 31.8098 59.6519 31.6079 59.7293L29.7225 60.4529C29.3758 60.5859 29.2719 61.0265 29.5228 61.3004L31.7083 63.6871C31.9594 63.9613 32.4079 63.896 32.5706 63.5616L33.4552 61.742C33.5497 61.5474 33.5157 61.3147 33.3694 61.1554Z" fill="#00BA88"/>
<path d="M33.7513 66.3769C33.7038 65.9593 33.6235 65.5497 33.5139 65.1522C33.3782 64.6607 33.1967 64.1862 32.9739 63.7343C32.9245 63.6337 32.873 63.5347 32.8199 63.4365C32.2994 62.4818 31.5903 61.6378 30.7377 60.9605C30.4132 60.7025 30.0679 60.4688 29.7036 60.2621C29.2675 60.0142 28.8048 59.8052 28.3198 59.6407C28.2143 59.605 28.1077 59.5708 27.9999 59.5391C27.5405 59.4035 27.0627 59.3076 26.5694 59.2545C25.9608 59.1894 25.3605 59.1938 24.7769 59.2608C24.3593 59.3088 23.9497 59.3886 23.5516 59.4988C23.0602 59.634 22.5863 59.8149 22.1343 60.0377C22.0337 60.0871 21.9347 60.1386 21.8365 60.1923C20.8818 60.7123 20.0378 61.4213 19.3605 62.2745C19.102 62.5989 18.8682 62.9448 18.6621 63.3091C18.4137 63.7451 18.2052 64.2074 18.0403 64.6919C18.0046 64.7973 17.9703 64.9044 17.9386 65.0122C17.8036 65.4716 17.7071 65.9495 17.6546 66.4427C17.5895 67.0513 17.5928 67.6511 17.6603 68.2352C17.7078 68.6528 17.7881 69.0623 17.8978 69.4599C18.0336 69.9514 18.215 70.4259 18.4378 70.8778C18.4872 70.9779 18.5387 71.0774 18.5919 71.175C19.1123 72.1303 19.8209 72.9743 20.6745 73.6516C20.999 73.9096 21.3444 74.1433 21.7081 74.3495H21.7087C22.1447 74.5978 22.6069 74.8069 23.0919 74.9713C23.1974 75.007 23.304 75.0413 23.4118 75.0729C23.8713 75.208 24.3491 75.3045 24.8423 75.3575C25.4515 75.4227 26.0513 75.4187 26.6354 75.3513C27.053 75.3038 27.462 75.2239 27.8601 75.1138C28.3516 74.9786 28.826 74.7971 29.2775 74.5744C29.378 74.525 29.4771 74.4735 29.5752 74.4203C30.53 73.8999 31.374 73.1908 32.0513 72.3377C32.3099 72.0128 32.543 71.6674 32.7496 71.3035C32.998 70.8681 33.2066 70.4053 33.3715 69.9203C33.4072 69.8148 33.4414 69.7082 33.4731 69.6004C33.6081 69.141 33.7046 68.6631 33.7572 68.1694C33.8222 67.5607 33.8188 66.9609 33.7513 66.3769ZM30.7178 67.8471C30.4236 70.5714 27.8968 72.6091 25.1718 72.319C22.4008 72.0234 20.3947 69.5362 20.6939 66.7649C20.9881 64.0405 23.5148 62.003 26.2399 62.293C29.0114 62.5886 31.017 65.0757 30.7178 67.8471Z" fill="#00BA88"/>
<path d="M88.8066 66.8936H89.8143L89.7321 67.5821C89.7139 67.7493 89.6759 67.9393 89.6182 68.152C89.7336 68.0943 89.8097 68.0548 89.8462 68.0335C89.9738 67.9636 90.0711 67.9134 90.138 67.8831L90.7718 67.5821L91.0864 68.5442L90.3842 68.69C90.2566 68.7144 90.0666 68.7311 89.8143 68.7402C89.9844 68.874 90.1198 68.9956 90.2201 69.105L90.6943 69.6203L89.8735 70.2358L89.5362 69.6203C89.4875 69.5321 89.4085 69.3603 89.2991 69.105C89.1805 69.3847 89.1014 69.5564 89.0619 69.6203L88.72 70.2358L87.8764 69.6203L88.3872 69.105C88.53 68.9622 88.6699 68.8405 88.8067 68.7402C88.6668 68.7281 88.4829 68.7007 88.2549 68.6582L87.5481 68.5442L87.8764 67.5821L88.5102 67.8694C88.5771 67.8998 88.7428 67.994 89.0073 68.1521C88.9495 67.8968 88.9131 67.7068 88.8979 67.5822L88.8066 66.8936Z" fill="white"/>
<path d="M94.3401 66.8936H95.3478L95.2657 67.5821C95.2474 67.7493 95.2094 67.9393 95.1517 68.152C95.2672 68.0943 95.3432 68.0548 95.3797 68.0335C95.5074 67.9636 95.6046 67.9134 95.6716 67.8831L96.3054 67.5821L96.62 68.5442L95.9178 68.69C95.7902 68.7144 95.6002 68.7311 95.3479 68.7402C95.5181 68.874 95.6534 68.9956 95.7537 69.105L96.2279 69.6203L95.4072 70.2358L95.0698 69.6203C95.0211 69.5321 94.9421 69.3603 94.8327 69.105C94.7141 69.3847 94.635 69.5564 94.5956 69.6203L94.2536 70.2358L93.4101 69.6203L93.9208 69.105C94.0637 68.9622 94.2035 68.8405 94.3403 68.7402C94.2004 68.7281 94.0165 68.7007 93.7886 68.6582L93.0818 68.5442L93.4101 67.5821L94.0439 67.8694C94.1107 67.8998 94.2764 67.994 94.5409 68.1521C94.4831 67.8968 94.4467 67.7068 94.4315 67.5822L94.3401 66.8936Z" fill="white"/>
<path d="M99.8724 66.8936H100.88L100.798 67.5821C100.78 67.7493 100.742 67.9393 100.684 68.152C100.799 68.0943 100.876 68.0548 100.912 68.0335C101.04 67.9636 101.137 67.9134 101.204 67.8831L101.838 67.5821L102.152 68.5442L101.45 68.69C101.322 68.7144 101.132 68.7311 100.88 68.7402C101.05 68.874 101.186 68.9956 101.286 69.105L101.76 69.6203L100.939 70.2358L100.602 69.6203C100.553 69.5321 100.474 69.3603 100.365 69.105C100.246 69.3847 100.167 69.5564 100.128 69.6203L99.7858 70.2358L98.9423 69.6203L99.453 69.105C99.5959 68.9622 99.7357 68.8405 99.8725 68.7402C99.7327 68.7281 99.5487 68.7007 99.3208 68.6582L98.614 68.5442L98.9423 67.5821L99.5761 67.8694C99.6429 67.8998 99.8086 67.994 100.073 68.1521C100.015 67.8968 99.9788 67.7068 99.9637 67.5822L99.8724 66.8936Z" fill="white"/>
<path d="M105.405 66.8936H106.412L106.33 67.5821C106.312 67.7493 106.274 67.9393 106.216 68.152C106.332 68.0943 106.408 68.0548 106.444 68.0335C106.572 67.9636 106.669 67.9134 106.736 67.8831L107.37 67.5821L107.685 68.5442L106.983 68.69C106.855 68.7144 106.665 68.7311 106.413 68.7402C106.583 68.874 106.718 68.9956 106.818 69.105L107.293 69.6203L106.472 70.2358L106.134 69.6203C106.086 69.5321 106.007 69.3603 105.897 69.105C105.779 69.3847 105.7 69.5564 105.66 69.6203L105.318 70.2358L104.475 69.6203L104.985 69.105C105.128 68.9622 105.268 68.8405 105.405 68.7402C105.265 68.7281 105.081 68.7007 104.853 68.6582L104.146 68.5442L104.475 67.5821L105.109 67.8694C105.175 67.8998 105.341 67.994 105.606 68.1521C105.548 67.8968 105.511 67.7068 105.496 67.5822L105.405 66.8936Z" fill="white"/>
</svg>
