<svg width="445" height="299" viewBox="0 0 445 299" fill="none" xmlns="http://www.w3.org/2000/svg">
<path fill-rule="evenodd" clip-rule="evenodd" d="M376.185 113.243C368.131 105.32 354.948 105.32 346.894 113.243L319.851 139.846C311.797 147.769 311.797 160.737 319.851 168.66C327.905 176.582 341.087 176.582 349.141 168.66L376.185 142.056C384.238 134.134 384.238 121.166 376.185 113.243Z" fill="#F3B700"/>
<path fill-rule="evenodd" clip-rule="evenodd" d="M370.464 109.269C362.768 105.673 353.24 106.994 346.893 113.237L319.85 139.84C316.334 143.3 314.349 147.72 313.904 152.256C321.601 155.851 331.128 154.524 337.475 148.28L364.518 121.684C368.035 118.225 370.012 113.804 370.464 109.269Z" fill="#D5A000"/>
<path fill-rule="evenodd" clip-rule="evenodd" d="M186.969 24.9727C194.549 24.9727 199.131 31.6755 198.248 38.7443C197.752 42.7559 195.541 46.581 192.346 49.0856V42.0167H181.855C183.395 40.28 184.423 38.0697 184.701 35.8163C185.007 33.3404 184.423 30.6923 182.665 28.8264C182.155 28.281 181.979 27.5705 182.184 26.8601C182.388 26.1496 182.913 25.6329 183.643 25.4319C184.73 25.1377 185.846 24.9798 186.969 24.9798V24.9727Z" fill="#FFCB97"/>
<path fill-rule="evenodd" clip-rule="evenodd" d="M184.05 55.5659C189.762 49.9468 199.114 49.9468 204.826 55.5659L277.538 127.094C283.25 132.713 283.25 141.913 277.538 147.532C271.826 153.151 262.473 153.151 256.761 147.532L184.05 76.0045C178.338 70.3853 178.338 61.1851 184.05 55.5659Z" fill="#FFD6AE"/>
<path fill-rule="evenodd" clip-rule="evenodd" d="M190.406 51.9076C195.366 50.5226 200.94 51.7426 204.835 55.5748L219.025 69.533C215.297 72.4538 210.664 74.2264 205.85 74.2264C195.432 74.2264 188.115 65.9161 189.516 55.6681C189.691 54.3835 189.997 53.1276 190.413 51.9148L190.406 51.9076Z" fill="#F9B776"/>
<path fill-rule="evenodd" clip-rule="evenodd" d="M239.4 110.016C247.454 102.094 260.636 102.094 268.69 110.016L295.733 136.619C303.787 144.542 303.787 157.51 295.733 165.433C287.679 173.356 274.497 173.356 266.443 165.433L239.4 138.83C231.346 130.907 231.346 117.939 239.4 110.016Z" fill="#F3B700"/>
<path fill-rule="evenodd" clip-rule="evenodd" d="M110.26 147.273C124.558 147.273 136.26 158.784 136.26 172.85V258.473C136.26 272.539 124.558 284.05 110.26 284.05C95.9613 284.05 84.2598 272.539 84.2598 258.473V172.85C84.2598 158.784 95.9613 147.273 110.26 147.273Z" fill="#39362E"/>
<path fill-rule="evenodd" clip-rule="evenodd" d="M127.842 111.875C142.14 111.875 153.842 123.386 153.842 137.452V223.074C153.842 237.14 142.14 248.651 127.842 248.651C113.543 248.651 101.842 237.14 101.842 223.074V137.452C101.842 123.386 113.543 111.875 127.842 111.875Z" fill="#39362E"/>
<path fill-rule="evenodd" clip-rule="evenodd" d="M142.65 82.0781C156.949 82.0781 168.651 93.5892 168.651 107.655V193.277C168.651 207.343 156.949 218.854 142.65 218.854C128.352 218.854 116.65 207.343 116.65 193.277V107.655C116.65 93.5892 128.352 82.0781 142.65 82.0781Z" fill="#39362E"/>
<path d="M169.956 86.1875C180.789 86.1875 189.587 94.8423 189.587 105.499V182.165C189.587 192.823 180.789 201.477 169.956 201.477C159.122 201.477 150.324 192.823 150.324 182.165V105.499C150.324 94.8423 159.122 86.1875 169.956 86.1875Z" fill="#39362E"/>
<path fill-rule="evenodd" clip-rule="evenodd" d="M168.191 81.6244C172.248 81.6244 176.026 82.8515 179.163 84.9471C181.578 87.8679 183.03 91.5853 183.03 95.6185V146.901C183.03 156.224 175.275 163.859 165.791 163.859C156.315 163.859 148.553 156.231 148.553 146.901V100.929C148.553 90.3079 157.387 81.6172 168.184 81.6172L168.191 81.6244Z" fill="#716F6B"/>
<path fill-rule="evenodd" clip-rule="evenodd" d="M144.991 98.2031C153.344 98.2031 160.18 104.927 160.18 113.145V186.524C160.18 194.748 153.344 201.472 144.991 201.472C136.638 201.472 129.803 194.748 129.803 186.524V113.145C129.803 104.92 136.638 98.2031 144.991 98.2031Z" fill="#39362E"/>
<path d="M160.182 150.527H138.807V178.451H160.182V150.527Z" fill="#F9B776"/>
<path fill-rule="evenodd" clip-rule="evenodd" d="M160.18 150.527H146.057C148.231 157.288 153.483 162.727 160.18 165.239V150.527Z" fill="#C64700"/>
<path d="M161.261 95.8047C174.254 95.8047 184.795 106.182 184.795 118.956V135.11C184.795 147.884 174.246 158.261 161.261 158.261C148.275 158.261 137.727 147.884 137.727 135.11V118.956C137.727 106.175 148.275 95.8047 161.261 95.8047Z" fill="#FFC489"/>
<path fill-rule="evenodd" clip-rule="evenodd" d="M154.827 157.379C144.985 154.609 137.727 145.652 137.727 135.11V118.956C137.727 108.414 144.985 99.4576 154.827 96.6875C164.675 99.4576 171.934 108.414 171.934 118.956V135.11C171.934 145.652 164.675 154.609 154.827 157.379Z" fill="#F9B776"/>
<path fill-rule="evenodd" clip-rule="evenodd" d="M126.084 169.801H154.426C170.016 169.801 182.768 182.345 182.768 197.681V291.004H126.084V169.801Z" fill="#413C58"/>
<path fill-rule="evenodd" clip-rule="evenodd" d="M69.8145 288.228C54.6186 261.934 45.7258 231.649 45.1641 199.369C53.2836 191.109 64.6495 185.949 77.1827 185.949H88.2203C116.81 185.949 140.206 208.957 140.206 237.089V288.228H69.8145Z" fill="#4B8574"/>
<path fill-rule="evenodd" clip-rule="evenodd" d="M68.4513 288.228C53.2554 261.934 44.3625 231.649 43.8008 199.369C51.9203 191.109 63.2863 185.949 75.8194 185.949H80.7583C95.3487 196.19 104.905 212.976 104.905 231.857V288.228H68.4513Z" fill="#8DCABE"/>
<path fill-rule="evenodd" clip-rule="evenodd" d="M54.43 191.368C60.7914 187.923 68.0793 185.957 75.8122 185.957H80.7511C84.654 188.698 88.1995 191.906 91.2926 195.502C88.5715 204.235 79.9267 210.888 70.6034 210.888C60.1859 210.888 52.8688 202.578 54.2695 192.33C54.3132 192.007 54.3643 191.691 54.4227 191.375L54.43 191.368Z" fill="#666633"/>
<path fill-rule="evenodd" clip-rule="evenodd" d="M80.3785 185.957H88.5273C98.1642 185.957 107.159 188.806 114.695 193.679C116.906 197.289 118.175 201.523 118.175 206.044C118.175 219.306 107.247 230.056 93.7652 230.056C80.2837 230.056 69.3555 219.306 69.3555 206.044C69.3555 197.64 73.7399 190.249 80.3858 185.957H80.3785Z" fill="#417465"/>
<path fill-rule="evenodd" clip-rule="evenodd" d="M80.378 185.957H88.5267C89.6137 185.957 90.6934 185.993 91.7585 186.065C92.2035 188.024 92.3057 190.127 92.0066 192.33C90.6059 202.578 81.0273 210.888 70.6097 210.888C70.3471 210.888 70.0918 210.888 69.8364 210.874C69.5155 209.316 69.3477 207.702 69.3477 206.051C69.3477 197.647 73.7321 190.256 80.378 185.964V185.957Z" fill="#666633"/>
<path fill-rule="evenodd" clip-rule="evenodd" d="M128.965 172.169C120.7 164.038 107.174 164.038 98.9089 172.169L80.5761 190.203C72.3106 198.334 72.3106 211.639 80.5761 219.77C88.8415 227.901 102.367 227.901 110.632 219.77L128.965 201.736C137.231 193.605 137.231 180.299 128.965 172.169Z" fill="#F9B776"/>
<path fill-rule="evenodd" clip-rule="evenodd" d="M116.65 166.243C110.34 165.454 103.723 167.427 98.9012 172.171L80.5683 190.206C73.864 196.801 72.5947 206.805 76.7748 214.684C83.0925 215.474 89.7019 213.5 94.524 208.757L112.85 190.722C119.554 184.127 120.823 174.123 116.643 166.243H116.65Z" fill="#F9B776"/>
<path fill-rule="evenodd" clip-rule="evenodd" d="M89.7445 181.176L80.5744 190.197C75.0447 195.636 73.2136 203.394 75.0885 210.37C83.6457 208.418 90.8169 201.076 92.0133 192.321C92.5823 188.137 91.6996 184.276 89.7518 181.176H89.7445Z" fill="#F9B776"/>
<path fill-rule="evenodd" clip-rule="evenodd" d="M125.645 139.08H93.5243C90.2342 139.08 87.338 136.798 85.7695 133.418V141.003C85.7695 147.304 89.8184 152.464 94.7718 152.464H134.647V150.548C134.647 144.24 130.599 139.087 125.645 139.087V139.08Z" fill="#333333"/>
<path fill-rule="evenodd" clip-rule="evenodd" d="M141.191 144.219H109.465C102.075 144.219 96.0195 150.168 96.0195 157.445V177.474C96.0195 192.437 108.465 204.68 123.676 204.68C138.886 204.68 151.332 192.437 151.332 177.474V154.201C151.332 148.711 146.765 144.226 141.191 144.226V144.219Z" fill="#FFC489"/>
<path fill-rule="evenodd" clip-rule="evenodd" d="M110.238 144.219H109.465C102.075 144.219 96.0195 150.168 96.0195 157.445V177.474C96.0195 191.648 107.181 203.374 121.283 204.573C122.822 201.193 123.676 197.461 123.676 193.535V157.445C123.676 150.175 117.628 144.219 110.231 144.219H110.238Z" fill="#F9B776"/>
<path fill-rule="evenodd" clip-rule="evenodd" d="M108.91 143.199H108.093C100.272 143.199 93.8672 149.5 93.8672 157.193V166.221C94.1736 166.236 94.48 166.243 94.7937 166.243C106.619 166.243 116.285 157.143 116.949 145.668C114.659 144.118 111.886 143.199 108.91 143.199Z" fill="#333333"/>
<path fill-rule="evenodd" clip-rule="evenodd" d="M132.772 133.467H100.651C97.3612 133.467 94.465 131.185 92.8965 127.805V135.39C92.8965 141.691 96.9453 146.851 101.899 146.851H141.774V144.935C141.774 138.634 137.726 133.474 132.772 133.474V133.467Z" fill="#333333"/>
<path d="M148.187 165.734C149.376 165.734 150.346 166.682 150.346 167.859V169.803C150.346 170.973 149.383 171.928 148.187 171.928C146.998 171.928 146.027 170.98 146.027 169.803V167.859C146.027 166.689 146.99 165.734 148.187 165.734Z" fill="#333333"/>
<path d="M123.923 165.734C125.112 165.734 126.082 166.682 126.082 167.859V169.803C126.082 170.973 125.119 171.928 123.923 171.928C122.734 171.928 121.764 170.98 121.764 169.803V167.859C121.764 166.689 122.727 165.734 123.923 165.734Z" fill="#333333"/>
<path fill-rule="evenodd" clip-rule="evenodd" d="M152.914 160.098H146.75C145.75 160.098 144.612 160.901 144.233 161.892C143.854 162.882 144.364 163.686 145.364 163.686H151.528C152.535 163.686 153.666 162.882 154.045 161.892C154.424 160.901 153.914 160.098 152.914 160.098Z" fill="#666666"/>
<path fill-rule="evenodd" clip-rule="evenodd" d="M130.3 160.098H122.231C121.224 160.098 120.094 160.901 119.714 161.892C119.335 162.882 119.838 163.686 120.845 163.686H128.913C129.92 163.686 131.051 162.882 131.43 161.892C131.81 160.901 131.306 160.098 130.3 160.098Z" fill="#666666"/>
<path fill-rule="evenodd" clip-rule="evenodd" d="M142.329 135.154H110.208C106.918 135.154 104.022 132.872 102.453 129.492V137.078C102.453 143.379 106.502 148.539 111.455 148.539H143.576C146.866 148.539 149.763 150.821 151.331 154.201V146.615C151.331 140.314 147.282 135.154 142.329 135.154Z" fill="#4D4D4D"/>
<path fill-rule="evenodd" clip-rule="evenodd" d="M145.825 142.544H126.172C124.158 142.544 122.385 141.152 121.43 139.078V143.714C121.43 147.568 123.91 150.726 126.938 150.726H146.591C148.604 150.726 150.377 152.125 151.333 154.192V149.556C151.333 145.702 148.852 142.544 145.825 142.544Z" fill="#666666"/>
<path fill-rule="evenodd" clip-rule="evenodd" d="M109.581 153.094H100.885V178.506C96.8066 178.958 93.6113 182.388 93.6113 186.515V198.334C93.6113 209.264 102.701 218.213 113.812 218.213H132.342C121.231 218.213 112.141 209.271 112.141 198.334V186.515C112.141 182.388 115.336 178.965 119.414 178.506V178.455H118.634C113.739 178.455 109.719 174.587 109.581 169.801V153.094Z" fill="#333333"/>
<path fill-rule="evenodd" clip-rule="evenodd" d="M130.175 218.208H133.312C144.423 218.208 153.52 209.266 153.52 198.336V180.625C153.52 179.434 152.528 178.465 151.324 178.465H117.248V178.515C113.17 178.967 109.975 182.398 109.975 186.524V198.344C109.975 209.273 119.064 218.215 130.175 218.215V218.208Z" fill="#666666"/>
<path fill-rule="evenodd" clip-rule="evenodd" d="M100.623 164.572C104.118 166.531 105.898 171.095 104.606 174.77C103.315 178.444 99.434 179.829 95.9469 177.877C92.4525 175.918 90.6724 171.354 91.9637 167.679C93.255 164.005 97.136 162.62 100.623 164.572Z" fill="#F9B776"/>
<path fill-rule="evenodd" clip-rule="evenodd" d="M99.383 168.087C101.032 169.013 101.871 171.166 101.258 172.895C100.652 174.625 98.8213 175.285 97.1726 174.359C95.5239 173.434 94.6849 171.281 95.2904 169.551C95.9032 167.822 97.727 167.161 99.3757 168.087H99.383Z" fill="#333333"/>
<path fill-rule="evenodd" clip-rule="evenodd" d="M120.844 185.391C121.019 190.379 124.871 194.182 129.905 194.347C134.939 194.513 139.688 190.989 141.081 186.051C141.183 185.693 141.132 185.348 140.921 185.061C140.716 184.774 140.417 184.616 140.045 184.602L122.209 184.021C121.836 184.006 121.508 184.143 121.231 184.415C120.954 184.688 120.822 185.018 120.837 185.384L120.844 185.391Z" fill="#4D4D4D"/>
<path fill-rule="evenodd" clip-rule="evenodd" d="M120.845 185.388C121.005 189.823 124.062 193.318 128.271 194.158C132.969 193.088 136.989 189.421 138.346 184.62L138.361 184.548L122.216 184.024C121.852 184.01 121.516 184.146 121.239 184.419C120.962 184.692 120.83 185.022 120.845 185.388Z" fill="#801F0C"/>
<path fill-rule="evenodd" clip-rule="evenodd" d="M136.574 185.31L123.457 184.887C124.953 186.609 127.156 187.707 129.687 187.786C132.219 187.865 134.67 186.925 136.574 185.31Z" fill="#FFF7CE"/>
<path fill-rule="evenodd" clip-rule="evenodd" d="M122.8 189.058C123.88 191.189 126.032 192.531 128.519 192.61C129.446 192.639 130.387 192.495 131.284 192.18C131.408 192.137 131.496 192.05 131.554 191.936C131.605 191.821 131.605 191.699 131.554 191.591C130.475 189.46 128.322 188.118 125.835 188.039C124.908 188.01 123.967 188.154 123.07 188.469C122.946 188.512 122.858 188.599 122.8 188.713C122.749 188.828 122.749 188.95 122.8 189.058Z" fill="#FF6137"/>
<path fill-rule="evenodd" clip-rule="evenodd" d="M131.955 201.781L125.266 209.309L129.869 208.19L126.141 214.591L134.465 205.061L129.402 206.188L131.955 201.781Z" fill="#4D4D4D"/>
<path fill-rule="evenodd" clip-rule="evenodd" d="M121.129 191.504L114.439 199.032L119.043 197.912L115.322 204.321L123.646 194.791L118.583 195.917L121.129 191.504Z" fill="#4D4D4D"/>
<path fill-rule="evenodd" clip-rule="evenodd" d="M149.573 184.945L142.883 192.473L147.479 191.354L143.758 197.755L152.082 188.225L147.019 189.352L149.573 184.945Z" fill="#4D4D4D"/>
<path fill-rule="evenodd" clip-rule="evenodd" d="M291.779 142.602C312.811 142.602 330.02 159.531 330.02 180.221V286.116H253.537V180.221C253.537 159.531 270.746 142.602 291.779 142.602Z" fill="#F3B700"/>
<path fill-rule="evenodd" clip-rule="evenodd" d="M303.881 144.543C319.033 149.552 330.02 163.683 330.02 180.217V285.575H279.26V179.686C279.26 163.711 289.524 149.976 303.881 144.55V144.543Z" fill="#D5A000"/>
<path d="M359.092 214.359H329.328C308.59 214.359 291.779 230.897 291.779 251.297C291.779 271.696 308.59 288.234 329.328 288.234H359.092C379.83 288.234 396.641 271.696 396.641 251.297C396.641 230.897 379.83 214.359 359.092 214.359Z" fill="#B33B3B"/>
<path fill-rule="evenodd" clip-rule="evenodd" d="M373.426 288.07C398.551 286.341 418.401 270.459 418.401 251.291C418.401 232.123 398.551 216.241 373.426 214.512C348.301 216.241 328.451 232.123 328.451 251.291C328.451 270.459 348.301 286.341 373.426 288.07Z" fill="#FF6161"/>
<path fill-rule="evenodd" clip-rule="evenodd" d="M311.579 117.853C320.523 120.207 325.877 129.336 323.477 138.134L318.166 157.64C315.774 166.438 306.494 171.705 297.55 169.344C288.606 166.991 283.252 157.862 285.652 149.064L290.963 129.558C293.355 120.76 302.635 115.492 311.572 117.853H311.579Z" fill="#F9B776"/>
<path fill-rule="evenodd" clip-rule="evenodd" d="M311.578 117.853C320.522 120.207 325.877 129.336 323.477 138.127L318.334 157.008C316.444 157.374 314.496 157.575 312.505 157.575C301.847 157.575 292.436 152.049 287.096 143.76L290.962 129.558C293.355 120.76 302.634 115.492 311.578 117.853Z" fill="#C64700"/>
<path fill-rule="evenodd" clip-rule="evenodd" d="M344.304 81.9708C344.647 82.8679 344.18 83.8726 343.268 84.2099L338.256 86.0542L338.045 87.2814C337.884 88.2287 336.972 88.8674 336.009 88.7095C335.258 88.5875 334.689 87.999 334.558 87.3029C333.828 87.3101 333.142 86.8795 332.872 86.1762C332.53 85.2792 332.996 84.2745 333.908 83.9372L335.097 83.4994L335.98 78.3036C336.141 77.3564 337.06 76.7176 338.015 76.8755C338.978 77.0334 339.628 77.9376 339.467 78.8778L338.92 82.0856L342.021 80.9446C342.932 80.6073 343.961 81.0666 344.297 81.9636L344.304 81.9708Z" fill="#AA6933"/>
<path fill-rule="evenodd" clip-rule="evenodd" d="M282.163 85.3633C287.401 85.3633 291.683 89.5759 291.683 94.7286V104.395C291.683 109.548 287.401 113.761 282.163 113.761C276.925 113.761 272.643 109.548 272.643 104.395V94.7286C272.643 89.5759 276.925 85.3633 282.163 85.3633Z" fill="#AA6933"/>
<path fill-rule="evenodd" clip-rule="evenodd" d="M248.795 119.301C256.557 117.938 264.75 121.382 268.908 128.466C274.204 137.494 271.031 149.134 261.861 154.344L261.401 154.602C258.082 156.49 254.412 157.286 250.83 157.1C252.953 156.726 255.047 155.994 257.024 154.868L257.484 154.609C266.654 149.399 269.827 137.752 264.531 128.731C261.153 122.976 255.113 119.617 248.795 119.301Z" fill="#73452D"/>
<path fill-rule="evenodd" clip-rule="evenodd" d="M204.215 145.971L204.47 145.827C209.562 142.935 216.135 144.665 219.075 149.681C222.015 154.69 220.257 161.156 215.158 164.055L214.903 164.199C209.81 167.091 203.238 165.361 200.298 160.352C197.358 155.336 199.116 148.877 204.215 145.978V145.971Z" fill="#A85A31"/>
<path fill-rule="evenodd" clip-rule="evenodd" d="M252.895 146.967L253.15 146.823C258.242 143.931 264.815 145.661 267.755 150.677C270.695 155.686 268.937 162.152 263.838 165.044L263.582 165.188C258.49 168.08 251.917 166.35 248.977 161.334C246.037 156.325 247.795 149.859 252.895 146.96V146.967Z" fill="#73452D"/>
<path fill-rule="evenodd" clip-rule="evenodd" d="M269.587 228.206C262.817 234.866 262.817 245.752 269.587 252.412L306.268 288.495C313.037 295.155 324.104 295.155 330.874 288.495C337.644 281.835 337.644 270.949 330.874 264.289L294.194 228.206C287.424 221.546 276.357 221.546 269.587 228.206Z" fill="white"/>
<path fill-rule="evenodd" clip-rule="evenodd" d="M268.981 228.835C262.831 235.531 263.035 245.958 269.586 252.41L306.266 288.493C307.492 289.699 308.856 290.682 310.315 291.45C316.465 284.754 316.261 274.327 309.71 267.875L273.029 231.792C271.804 230.586 270.44 229.596 268.981 228.828V228.835Z" fill="#548585"/>
<path fill-rule="evenodd" clip-rule="evenodd" d="M192.017 228.206C198.779 234.866 198.779 245.752 192.017 252.412L155.337 288.495C148.567 295.155 137.5 295.155 130.73 288.495C123.96 281.835 123.96 270.949 130.73 264.289L167.41 228.206C174.18 221.546 185.247 221.546 192.017 228.206Z" fill="white"/>
<path fill-rule="evenodd" clip-rule="evenodd" d="M192.63 228.835C198.779 235.531 198.575 245.958 192.024 252.41L155.344 288.493C154.118 289.699 152.754 290.682 151.295 291.45C145.145 284.754 145.349 274.327 151.901 267.875L188.581 231.792C189.806 230.586 191.178 229.596 192.63 228.828V228.835Z" fill="#C7E8E8"/>
<path fill-rule="evenodd" clip-rule="evenodd" d="M138.653 298.427C148.903 298.427 157.263 290.203 157.263 280.12C157.263 270.037 148.903 261.812 138.653 261.812C128.403 261.812 120.043 270.037 120.043 280.12C120.043 290.203 128.403 298.427 138.653 298.427Z" fill="#C7E8E8"/>
<path fill-rule="evenodd" clip-rule="evenodd" d="M219.543 213.355H244.361C262.22 213.355 276.832 227.73 276.832 245.298V288.227H187.064V245.298C187.064 227.73 201.677 213.355 219.535 213.355H219.543Z" fill="#C7E8E8"/>
<path fill-rule="evenodd" clip-rule="evenodd" d="M149.325 261.352C161.581 261.352 171.51 271.119 171.51 283.175C171.51 287.022 170.503 290.632 168.731 293.768H129.927C128.155 290.632 127.141 287.022 127.141 283.175C127.141 271.119 137.069 261.352 149.325 261.352Z" fill="#F9B776"/>
<path fill-rule="evenodd" clip-rule="evenodd" d="M149.325 261.352C153.126 261.352 156.708 262.292 159.838 263.949C158.722 274.98 149.267 283.591 137.762 283.591C133.962 283.591 130.38 282.651 127.25 280.994C128.366 269.963 137.821 261.352 149.325 261.352Z" fill="#FFC489"/>
<path fill-rule="evenodd" clip-rule="evenodd" d="M276.598 252.057C271.104 249.323 265.618 249.122 264.342 251.605C263.065 254.088 266.479 258.315 271.973 261.049C277.466 263.784 282.952 263.985 284.229 261.502C285.505 259.019 282.091 254.792 276.605 252.057H276.598Z" fill="#FFAD3B"/>
<path fill-rule="evenodd" clip-rule="evenodd" d="M146.138 277.793H160.188C163.953 277.793 167.031 280.821 167.031 284.524C167.031 288.228 163.953 291.256 160.188 291.256H146.138C142.374 291.256 139.295 288.228 139.295 284.524C139.295 280.821 142.374 277.793 146.138 277.793Z" fill="#666666"/>
<path fill-rule="evenodd" clip-rule="evenodd" d="M211.139 176.964H256.252C260.994 176.964 264.868 173.153 264.868 168.488V159.525C264.868 149.937 256.894 142.086 247.14 142.086H220.243C210.497 142.086 202.516 149.93 202.516 159.525V168.488C202.516 173.153 206.397 176.964 211.131 176.964H211.139Z" fill="#A85A31"/>
<path fill-rule="evenodd" clip-rule="evenodd" d="M247.008 176.966H256.776C261.781 176.966 265.88 172.94 265.88 168.01V158.544C265.88 152.975 263.334 147.966 259.337 144.586H247.015V176.966H247.008Z" fill="#73452D"/>
<path fill-rule="evenodd" clip-rule="evenodd" d="M239.954 125.696L240.414 125.438C249.591 120.227 261.424 123.349 266.72 132.37C272.017 141.398 268.843 153.038 259.673 158.248L259.214 158.507C250.043 163.717 238.203 160.595 232.907 151.574C227.611 142.546 230.784 130.906 239.954 125.696Z" fill="#73452D"/>
<path fill-rule="evenodd" clip-rule="evenodd" d="M220.257 134.184H247.264C254.289 134.184 260.03 139.839 260.03 146.75V165.774C260.03 179.991 248.205 191.617 233.76 191.617C219.308 191.617 207.49 179.984 207.49 165.774V146.75C207.49 139.839 213.239 134.184 220.264 134.184H220.257Z" fill="#73452D"/>
<path fill-rule="evenodd" clip-rule="evenodd" d="M220.256 134.184H231.257C238.283 134.184 244.031 139.839 244.031 146.75V165.774C244.031 177.25 236.328 187.038 225.757 190.382C215.186 187.031 207.482 177.242 207.482 165.774V146.75C207.482 139.839 213.231 134.184 220.256 134.184Z" fill="#A85A31"/>
<path fill-rule="evenodd" clip-rule="evenodd" d="M220.257 148.727H247.264C254.289 148.727 260.03 154.382 260.03 161.293V180.317C260.03 194.534 248.205 206.16 233.76 206.16C219.308 206.16 207.49 194.534 207.49 180.317V161.293C207.49 154.382 213.239 148.727 220.264 148.727H220.257Z" fill="#FFC489"/>
<path fill-rule="evenodd" clip-rule="evenodd" d="M245.616 148.727H247.257C254.282 148.727 260.024 154.382 260.024 161.293V180.317C260.024 190.02 254.516 198.51 246.433 202.93C238.35 198.51 232.842 190.02 232.842 180.317V161.293C232.842 154.382 238.59 148.727 245.608 148.727H245.616Z" fill="#F9B776"/>
<path fill-rule="evenodd" clip-rule="evenodd" d="M259.753 167.153C256.835 168.789 255.346 172.6 256.426 175.672C257.506 178.743 260.745 179.899 263.663 178.262C266.581 176.626 268.069 172.815 266.99 169.744C265.91 166.672 262.671 165.517 259.753 167.153Z" fill="#F9B776"/>
<path fill-rule="evenodd" clip-rule="evenodd" d="M260.782 170.091C259.403 170.866 258.703 172.66 259.214 174.11C259.724 175.559 261.249 176.105 262.628 175.33C264.007 174.555 264.707 172.76 264.196 171.311C263.686 169.861 262.161 169.316 260.782 170.091Z" fill="#333333"/>
<path fill-rule="evenodd" clip-rule="evenodd" d="M227.852 126.506L228.107 126.362C233.199 123.47 239.772 125.2 242.712 130.209C245.652 135.218 243.894 141.684 238.795 144.584L238.539 144.727C233.447 147.619 226.874 145.89 223.934 140.88C220.994 135.864 222.752 129.405 227.852 126.506Z" fill="#A85A31"/>
<path fill-rule="evenodd" clip-rule="evenodd" d="M240.304 124.828L242.288 123.917C246.067 122.18 251.166 123.536 253.632 126.931C256.09 130.325 255.018 134.524 251.239 136.26L249.255 137.172C245.476 138.908 240.377 137.552 237.911 134.158C235.452 130.763 236.525 126.565 240.304 124.828Z" fill="#A85A31"/>
<path fill-rule="evenodd" clip-rule="evenodd" d="M207.884 167.153C210.802 168.789 212.29 172.6 211.21 175.672C210.131 178.743 206.891 179.899 203.973 178.262C201.055 176.626 199.567 172.815 200.647 169.744C201.726 166.672 204.966 165.517 207.884 167.153Z" fill="#FFC489"/>
<path fill-rule="evenodd" clip-rule="evenodd" d="M206.854 170.091C208.233 170.866 208.934 172.66 208.423 174.11C207.912 175.559 206.388 176.105 205.009 175.33C203.63 174.555 202.93 172.76 203.44 171.311C203.951 169.861 205.476 169.316 206.854 170.091Z" fill="#333333"/>
<path fill-rule="evenodd" clip-rule="evenodd" d="M139.068 264.878C144.562 262.143 150.048 261.943 151.324 264.426C152.601 266.909 149.187 271.143 143.693 273.877C138.2 276.611 132.714 276.812 131.438 274.329C130.161 271.846 133.575 267.619 139.061 264.885L139.068 264.878Z" fill="#F9B776"/>
<path fill-rule="evenodd" clip-rule="evenodd" d="M251.612 263.877C249.897 273.141 256.193 282.098 265.604 283.784L316.634 292.941C326.045 294.628 335.156 288.442 336.871 279.177C338.585 269.912 332.289 260.956 322.878 259.269L271.848 250.105C262.438 248.419 253.326 254.612 251.612 263.869V263.877Z" fill="white"/>
<path fill-rule="evenodd" clip-rule="evenodd" d="M252.209 272.296C254.15 278.044 259.139 282.63 265.603 283.785L316.633 292.943C323.724 294.213 330.64 291.019 334.353 285.4C332.412 279.652 327.423 275.066 320.966 273.911L269.936 264.753C262.845 263.483 255.93 266.684 252.216 272.296H252.209Z" fill="#C7E8E8"/>
<path fill-rule="evenodd" clip-rule="evenodd" d="M266.341 248.535C254.085 248.535 244.156 258.302 244.156 270.359C244.156 274.198 245.17 277.815 246.943 280.951H285.746C287.519 277.815 288.533 274.205 288.533 270.359C288.533 258.302 278.604 248.535 266.348 248.535H266.341Z" fill="#FFC489"/>
<path fill-rule="evenodd" clip-rule="evenodd" d="M170.541 184.93H299.134C302.402 184.93 305.335 187.563 305.079 190.757L298.638 270.078C298.382 273.272 295.96 275.906 292.692 275.906H176.983C173.715 275.906 171.3 273.272 171.037 270.078L164.596 190.757C164.34 187.563 167.273 184.93 170.541 184.93Z" fill="#787878"/>
<path fill-rule="evenodd" clip-rule="evenodd" d="M170.751 188.434H298.928C302.189 188.434 305.107 191.067 304.852 194.261L298.432 273.582C298.177 276.776 295.762 279.41 292.508 279.41H177.164C173.903 279.41 171.495 276.776 171.24 273.582L164.82 194.261C164.565 191.067 167.483 188.434 170.744 188.434H170.751Z" fill="#666666"/>
<path fill-rule="evenodd" clip-rule="evenodd" d="M170.752 188.434H298.921C302.182 188.434 305.1 191.067 304.845 194.261L304.342 200.476C292.02 236.509 246.527 264.805 199.123 264.805C188.676 264.805 178.966 263.428 170.219 260.894L164.828 194.261C164.573 191.067 167.491 188.434 170.752 188.434Z" fill="#6E6E6E"/>
<path fill-rule="evenodd" clip-rule="evenodd" d="M296.681 281.101C296.367 284.976 293.369 288.227 289.298 288.227H180.366C176.296 288.227 173.297 284.976 172.984 281.101C172.94 280.591 173.1 280.139 173.451 279.766C173.801 279.393 174.246 279.199 174.764 279.199H294.894C295.412 279.199 295.857 279.393 296.207 279.766C296.557 280.139 296.718 280.591 296.674 281.101H296.681Z" fill="#4D4A4A"/>
<path fill-rule="evenodd" clip-rule="evenodd" d="M231.652 288.227H180.366C176.296 288.227 173.297 284.976 172.984 281.101C172.94 280.591 173.1 280.139 173.451 279.766C173.793 279.4 174.231 279.206 174.742 279.199H237.262C237.772 279.199 238.21 279.4 238.553 279.766C238.903 280.139 239.064 280.591 239.02 281.101C238.706 284.976 235.708 288.227 231.637 288.227H231.652Z" fill="#5C5757"/>
<path d="M186.05 280.887H191.127C191.653 280.887 192.083 281.31 192.083 281.827C192.083 282.344 191.653 282.767 191.127 282.767H186.05C185.525 282.767 185.102 282.351 185.102 281.834C185.102 281.317 185.532 280.894 186.057 280.894L186.05 280.887Z" fill="#4D4A4A"/>
<path d="M186.049 283.621H191.127C191.652 283.621 192.083 284.045 192.083 284.561C192.083 285.078 191.659 285.501 191.127 285.501H186.049C185.524 285.501 185.094 285.078 185.094 284.561C185.094 284.045 185.524 283.621 186.049 283.621Z" fill="#4D4A4A"/>
<path d="M194.811 280.887H199.889C200.414 280.887 200.844 281.31 200.844 281.827C200.844 282.344 200.414 282.767 199.889 282.767H194.811C194.286 282.767 193.855 282.351 193.855 281.827C193.855 281.31 194.286 280.887 194.811 280.887Z" fill="#4D4A4A"/>
<path d="M194.811 283.621H199.889C200.414 283.621 200.844 284.045 200.844 284.561C200.844 285.078 200.421 285.501 199.889 285.501H194.811C194.286 285.501 193.855 285.078 193.855 284.561C193.855 284.045 194.286 283.621 194.811 283.621Z" fill="#4D4A4A"/>
<path fill-rule="evenodd" clip-rule="evenodd" d="M204.966 137.581C205.79 137.301 206.702 137.739 206.987 138.55L208.555 143.028L209.671 143.243C210.532 143.408 211.094 144.233 210.933 145.08C210.802 145.748 210.255 146.228 209.613 146.329C209.606 146.968 209.19 147.57 208.54 147.793C207.716 148.073 206.804 147.635 206.52 146.824L206.148 145.769L201.42 144.865C200.56 144.7 199.99 143.874 200.158 143.028C200.326 142.181 201.165 141.621 202.026 141.786L204.944 142.346L203.974 139.576C203.689 138.765 204.134 137.868 204.959 137.588L204.966 137.581Z" fill="#A85A31"/>
<path fill-rule="evenodd" clip-rule="evenodd" d="M291.583 84.293H322.493C330.532 84.293 337.112 90.7661 337.112 98.6746V120.455C337.112 136.724 323.58 150.037 307.042 150.037C290.503 150.037 276.971 136.724 276.971 120.455V98.6746C276.971 90.7661 283.551 84.293 291.59 84.293H291.583Z" fill="#FFC489"/>
<path fill-rule="evenodd" clip-rule="evenodd" d="M292.494 146.319C283.251 141.26 276.963 131.543 276.963 120.455V98.6746C276.963 97.9068 277.029 97.1532 277.145 96.4141H281.34C289.379 96.4141 295.96 102.887 295.96 110.796V132.576C295.96 137.528 294.705 142.207 292.494 146.319Z" fill="#F9B776"/>
<path fill-rule="evenodd" clip-rule="evenodd" d="M337.112 120.348V120.455C337.112 136.724 323.58 150.037 307.042 150.037C290.503 150.037 276.971 136.724 276.971 120.455V120.348H337.112Z" fill="#FFC489"/>
<path fill-rule="evenodd" clip-rule="evenodd" d="M337.112 120.348V120.455C337.112 133.466 328.46 144.583 316.539 148.515C304.619 144.583 295.967 133.466 295.967 120.455V120.348H337.119H337.112Z" fill="#F9B776"/>
<path fill-rule="evenodd" clip-rule="evenodd" d="M318.932 128.536C319.398 135.038 314.926 140.499 308.419 141.389C301.905 142.279 295.251 138.346 292.749 132.124C292.567 131.672 292.589 131.22 292.815 130.818C293.041 130.416 293.406 130.172 293.88 130.107L316.955 126.95C317.429 126.885 317.888 127.014 318.275 127.33C318.669 127.646 318.895 128.062 318.924 128.536H318.932Z" fill="#91210A"/>
<path fill-rule="evenodd" clip-rule="evenodd" d="M318.931 128.539C319.347 134.316 315.86 139.275 310.505 140.926C304.26 140.172 298.519 135.945 296.09 129.903L296.061 129.809L316.954 126.946C317.428 126.881 317.888 127.01 318.274 127.326C318.668 127.642 318.887 128.058 318.924 128.532L318.931 128.539Z" fill="#801F0C"/>
<path fill-rule="evenodd" clip-rule="evenodd" d="M298.498 130.556L315.474 128.23C313.774 130.67 311.068 132.386 307.792 132.838C304.517 133.283 301.197 132.393 298.505 130.556H298.498Z" fill="#FFF7CE"/>
<path fill-rule="evenodd" clip-rule="evenodd" d="M316.905 133.559C315.796 136.473 313.192 138.511 309.974 138.949C308.778 139.114 307.538 139.049 306.319 138.762C306.152 138.719 306.02 138.626 305.94 138.482C305.853 138.339 305.838 138.181 305.896 138.037C307.005 135.124 309.61 133.086 312.827 132.648C314.023 132.483 315.263 132.547 316.482 132.834C316.649 132.878 316.781 132.971 316.861 133.122C316.949 133.265 316.963 133.423 316.905 133.566V133.559Z" fill="#FF6137"/>
<path d="M285.519 112.504H285.512C284.218 112.504 283.17 113.535 283.17 114.808V116.932C283.17 118.204 284.218 119.235 285.512 119.235H285.519C286.812 119.235 287.861 118.204 287.861 116.932V114.808C287.861 113.535 286.812 112.504 285.519 112.504Z" fill="#333333"/>
<path d="M311.753 112.504H311.746C310.453 112.504 309.404 113.535 309.404 114.808V116.932C309.404 118.204 310.453 119.235 311.746 119.235H311.753C313.047 119.235 314.095 118.204 314.095 116.932V114.808C314.095 113.535 313.047 112.504 311.753 112.504Z" fill="#333333"/>
<path fill-rule="evenodd" clip-rule="evenodd" d="M282.82 77.2617H326.226C332.216 77.2617 337.111 82.0771 337.111 87.969C337.111 93.8609 332.216 98.6763 326.226 98.6763H282.82C276.831 98.6763 271.936 93.8609 271.936 87.969C271.936 82.0771 276.831 77.2617 282.82 77.2617Z" fill="#945929"/>
<path fill-rule="evenodd" clip-rule="evenodd" d="M331.887 85.3633C337.125 85.3633 341.408 89.5759 341.408 94.7286V104.395C341.408 109.548 337.125 113.761 331.887 113.761C326.657 113.761 322.367 109.548 322.367 104.395V94.7286C322.367 89.5759 326.649 85.3633 331.887 85.3633Z" fill="#AA6933"/>
<path fill-rule="evenodd" clip-rule="evenodd" d="M337.251 85.3633C342.489 85.3633 346.771 89.5759 346.771 94.7286V104.395C346.771 109.548 342.489 113.761 337.251 113.761C332.013 113.761 327.73 109.548 327.73 104.395V94.7286C327.73 89.5759 332.013 85.3633 337.251 85.3633Z" fill="#945929"/>
<path fill-rule="evenodd" clip-rule="evenodd" d="M334.776 109.959C331.515 111.788 329.852 116.051 331.056 119.482C332.259 122.912 335.885 124.211 339.146 122.381C342.407 120.551 344.07 116.288 342.867 112.858C341.663 109.427 338.037 108.129 334.776 109.959Z" fill="#FFC489"/>
<path fill-rule="evenodd" clip-rule="evenodd" d="M336.01 113.466C334.587 114.263 333.865 116.114 334.39 117.607C334.915 119.1 336.491 119.667 337.906 118.87C339.322 118.074 340.051 116.222 339.526 114.729C339.001 113.237 337.425 112.67 336.01 113.466Z" fill="#333333"/>
<path d="M288.212 66.8359H286.169C276.531 66.8359 268.719 74.5215 268.719 84.002C268.719 93.4826 276.531 101.168 286.169 101.168H288.212C297.849 101.168 305.662 93.4826 305.662 84.002C305.662 74.5215 297.849 66.8359 288.212 66.8359Z" fill="#AA6933"/>
<path d="M283.324 68.8594H285.031C293.092 68.8594 299.636 75.2967 299.636 83.2267C299.636 91.1566 293.092 97.5939 285.031 97.5939H283.324C275.263 97.5939 268.719 91.1566 268.719 83.2267C268.719 75.2967 275.263 68.8594 283.324 68.8594Z" fill="#CC8A52"/>
<path fill-rule="evenodd" clip-rule="evenodd" d="M304.888 71.0195H306.135C312.001 71.0195 316.808 75.7416 316.808 81.5115C316.808 87.2814 312.008 92.0107 306.135 92.0107H304.888C299.022 92.0107 294.215 87.2886 294.215 81.5115C294.215 75.7416 299.015 71.0195 304.888 71.0195Z" fill="#AA6933"/>
<path d="M304.195 70.8672H303.144C298.213 70.8672 294.215 74.7999 294.215 79.6512C294.215 84.5024 298.213 88.4352 303.144 88.4352H304.195C309.126 88.4352 313.124 84.5024 313.124 79.6512C313.124 74.7999 309.126 70.8672 304.195 70.8672Z" fill="#CC8A52"/>
<path fill-rule="evenodd" clip-rule="evenodd" d="M281.289 69.0234H282.303C287.074 69.0234 289.679 72.8628 288.088 77.5562C286.498 82.2497 281.297 86.0891 276.518 86.0891H275.504C270.733 86.0891 268.129 82.2497 269.719 77.5562C271.309 72.8628 276.511 69.0234 281.289 69.0234Z" fill="#DB9A62"/>
<path fill-rule="evenodd" clip-rule="evenodd" d="M301.677 71.0742H302.225C304.807 71.0742 306.208 73.1482 305.347 75.6887C304.486 78.2291 301.677 80.3031 299.095 80.3031H298.548C295.965 80.3031 294.565 78.2291 295.418 75.6887C296.279 73.1482 299.088 71.0742 301.67 71.0742H301.677Z" fill="#DB9A62"/>
<path fill-rule="evenodd" clip-rule="evenodd" d="M341.671 172.378C353.642 175.536 362.061 182.806 360.478 188.626C360.295 189.3 359.982 189.918 359.566 190.492C361.791 192.96 362.805 195.565 362.156 197.926C360.573 203.739 349.579 205.9 337.607 202.742C325.636 199.584 317.217 192.315 318.8 186.494C318.983 185.82 319.296 185.203 319.712 184.629C317.487 182.16 316.48 179.555 317.122 177.187C318.705 171.374 329.692 169.213 341.671 172.371V172.378Z" fill="#39362E"/>
<path d="M287.124 107.523H280.42C279.324 107.523 278.436 108.397 278.436 109.475C278.436 110.553 279.324 111.427 280.42 111.427H287.124C288.22 111.427 289.108 110.553 289.108 109.475C289.108 108.397 288.22 107.523 287.124 107.523Z" fill="#666666"/>
<path d="M316.349 102.395H309.644C308.549 102.395 307.66 103.268 307.66 104.347C307.66 105.425 308.549 106.299 309.644 106.299H316.349C317.445 106.299 318.333 105.425 318.333 104.347C318.333 103.268 317.445 102.395 316.349 102.395Z" fill="#666666"/>
<path fill-rule="evenodd" clip-rule="evenodd" d="M341.568 176.562H366.131C374.17 176.562 380.743 183.036 380.743 190.944V223.525C380.743 233.852 372.149 242.306 361.652 242.306H350.672C334.134 242.306 320.602 228.994 320.602 212.725V197.195C320.602 185.849 330.034 176.57 341.568 176.57V176.562Z" fill="#FFC489"/>
<path fill-rule="evenodd" clip-rule="evenodd" d="M358.531 176.562H366.125C374.164 176.562 380.745 183.036 380.745 190.944V223.525C380.745 232.969 373.566 240.842 364.309 242.119C349.317 240.476 337.564 227.889 337.564 212.725V197.188C337.564 185.842 346.997 176.562 358.531 176.562Z" fill="#F9B776"/>
<path fill-rule="evenodd" clip-rule="evenodd" d="M359.369 220.166C359.172 225.592 354.991 229.725 349.52 229.905C344.049 230.084 338.884 226.252 337.366 220.884C337.257 220.489 337.315 220.123 337.534 219.807C337.76 219.492 338.081 219.327 338.482 219.312L357.873 218.681C358.274 218.666 358.639 218.817 358.938 219.111C359.237 219.405 359.383 219.771 359.369 220.166Z" fill="#91210A"/>
<path fill-rule="evenodd" clip-rule="evenodd" d="M359.368 220.167C359.193 224.989 355.866 228.793 351.292 229.704C346.186 228.542 341.809 224.552 340.335 219.334L340.32 219.255L357.88 218.688C358.281 218.674 358.646 218.825 358.945 219.119C359.244 219.413 359.39 219.779 359.375 220.174L359.368 220.167Z" fill="#801F0C"/>
<path fill-rule="evenodd" clip-rule="evenodd" d="M342.27 220.073L356.532 219.613C354.905 221.486 352.512 222.678 349.762 222.764C347.011 222.85 344.341 221.831 342.27 220.073Z" fill="#FFF7CE"/>
<path fill-rule="evenodd" clip-rule="evenodd" d="M357.246 224.148C356.071 226.466 353.729 227.93 351.023 228.017C350.016 228.052 348.995 227.895 348.017 227.543C347.886 227.5 347.784 227.407 347.725 227.277C347.667 227.148 347.667 227.019 347.725 226.904C348.9 224.586 351.242 223.122 353.941 223.036C354.948 223 355.969 223.165 356.947 223.51C357.078 223.553 357.18 223.646 357.238 223.775C357.297 223.904 357.297 224.034 357.238 224.148H357.246Z" fill="#FF6137"/>
<path d="M325.636 198.883H325.629C324.336 198.883 323.287 199.914 323.287 201.186V203.311C323.287 204.583 324.336 205.614 325.629 205.614H325.636C326.929 205.614 327.978 204.583 327.978 203.311V201.186C327.978 199.914 326.929 198.883 325.636 198.883Z" fill="#333333"/>
<path d="M352.016 198.883C353.307 198.883 354.357 199.916 354.357 201.186V203.304C354.357 204.574 353.307 205.607 352.016 205.607C350.724 205.607 349.674 204.574 349.674 203.304V201.186C349.674 199.916 350.724 198.883 352.016 198.883Z" fill="#333333"/>
<path d="M321.996 197.797H328.7C329.794 197.797 330.684 198.672 330.684 199.749C330.684 200.825 329.794 201.701 328.7 201.701H321.988C320.894 201.701 320.004 200.825 320.004 199.749C320.004 198.672 320.894 197.797 321.988 197.797H321.996Z" fill="#39362E"/>
<path d="M348.666 197.797H355.37C356.465 197.797 357.355 198.672 357.355 199.749C357.355 200.825 356.465 201.701 355.37 201.701H348.666C347.572 201.701 346.682 200.825 346.682 199.749C346.682 198.672 347.572 197.797 348.666 197.797Z" fill="#39362E"/>
<path fill-rule="evenodd" clip-rule="evenodd" d="M339.067 154.222C349.944 159.023 357.59 170.082 356.153 178.931C354.716 187.779 344.728 191.059 333.859 186.258C322.981 181.457 315.336 170.398 316.773 161.549C318.21 152.701 328.197 149.421 339.067 154.222Z" fill="#39362E"/>
<path fill-rule="evenodd" clip-rule="evenodd" d="M356.173 168.526C365.08 171.662 371.34 178.881 370.165 184.658C368.983 190.436 360.813 192.574 351.905 189.445C342.998 186.309 336.739 179.09 337.913 173.313C339.095 167.535 347.266 165.397 356.173 168.526Z" fill="#39362E"/>
<path fill-rule="evenodd" clip-rule="evenodd" d="M385.273 178.736C389.694 182.131 389.855 189.96 385.646 196.218C381.429 202.476 374.433 204.801 370.019 201.4C365.598 198.005 365.438 190.176 369.647 183.918C373.864 177.66 380.86 175.335 385.273 178.729V178.736Z" fill="#39362E"/>
<path fill-rule="evenodd" clip-rule="evenodd" d="M380.357 197.223C376.592 197.345 373.083 200.366 372.522 203.961C371.96 207.564 374.557 210.384 378.321 210.262C382.086 210.14 385.595 207.126 386.156 203.523C386.718 199.921 384.121 197.101 380.357 197.223Z" fill="#F9B776"/>
<path fill-rule="evenodd" clip-rule="evenodd" d="M379.824 200.67C378.044 200.727 376.395 202.148 376.125 203.849C375.863 205.55 377.088 206.877 378.861 206.82C380.641 206.763 382.29 205.342 382.56 203.641C382.822 201.94 381.597 200.612 379.824 200.67Z" fill="#39362E"/>
<path fill-rule="evenodd" clip-rule="evenodd" d="M370.4 168.972C379.307 171.318 385.566 176.729 384.392 181.057C383.21 185.384 375.039 186.992 366.132 184.638C357.224 182.291 350.965 176.88 352.14 172.553C353.314 168.225 361.492 166.625 370.4 168.972Z" fill="#39362E"/>
<path fill-rule="evenodd" clip-rule="evenodd" d="M355.283 155.902C363.403 159.483 369.108 167.743 368.035 174.339C366.963 180.941 359.515 183.388 351.395 179.807C343.283 176.226 337.571 167.966 338.643 161.371C339.715 154.768 347.164 152.321 355.283 155.902Z" fill="#39362E"/>
<path fill-rule="evenodd" clip-rule="evenodd" d="M371.844 176.656C371.822 176.972 371.786 177.28 371.72 177.589C370.538 183.366 362.367 185.505 353.46 182.376C344.553 179.24 338.293 172.02 339.468 166.243C339.636 165.403 339.957 164.643 340.409 163.961C340.03 169.559 346.092 176.19 354.525 179.154C362.134 181.83 369.21 180.653 371.844 176.649V176.656Z" fill="#39362E"/>
<path fill-rule="evenodd" clip-rule="evenodd" d="M349.324 186.788C345.1 189.335 339.016 189.307 332.618 186.12C321.741 180.716 314.096 168.251 315.533 158.29C316.511 151.494 321.464 147.619 327.964 147.547C325.009 149.327 322.967 152.362 322.376 156.467C320.939 166.435 328.584 178.894 339.461 184.298C342.919 186.02 346.29 186.816 349.324 186.781V186.788Z" fill="#716F6B"/>
<path fill-rule="evenodd" clip-rule="evenodd" d="M363.798 189.597C360.267 191.606 354.847 191.585 348.872 189.073C338.71 184.803 330.787 174.957 331.174 167.084C331.436 161.716 335.492 158.652 341.27 158.602C338.805 160.008 337.258 162.405 337.097 165.649C336.711 173.521 344.633 183.368 354.796 187.638C358.027 188.994 361.099 189.625 363.798 189.604V189.597Z" fill="#716F6B"/>
<path fill-rule="evenodd" clip-rule="evenodd" d="M385.675 178.893C388.717 181.232 388.833 186.629 385.93 190.935C383.026 195.248 378.204 196.848 375.162 194.509C372.12 192.169 372.003 186.78 374.907 182.467C377.81 178.154 382.632 176.553 385.675 178.893Z" fill="#716F6B"/>
<path fill-rule="evenodd" clip-rule="evenodd" d="M364.03 171.232C361.52 173.837 356.355 173.464 352.489 170.393C348.622 167.321 347.528 162.721 350.03 160.116C352.54 157.511 357.705 157.884 361.571 160.956C365.438 164.027 366.532 168.627 364.03 171.232Z" fill="#716F6B"/>
<path fill-rule="evenodd" clip-rule="evenodd" d="M374.25 280.335C379.744 277.601 385.23 277.4 386.506 279.883C387.783 282.366 384.369 286.6 378.883 289.334C373.39 292.068 367.904 292.269 366.627 289.786C365.35 287.303 368.764 283.076 374.258 280.342L374.25 280.335Z" fill="#FFAD3B"/>
<path d="M223.015 167.289H216.31C215.215 167.289 214.326 168.163 214.326 169.241C214.326 170.319 215.215 171.193 216.31 171.193H223.015C224.111 171.193 224.999 170.319 224.999 169.241C224.999 168.163 224.111 167.289 223.015 167.289Z" fill="#666666"/>
<path d="M250.116 164.039H243.412C242.316 164.039 241.428 164.913 241.428 165.991C241.428 167.069 242.316 167.943 243.412 167.943H250.116C251.212 167.943 252.101 167.069 252.101 165.991C252.101 164.913 251.212 164.039 250.116 164.039Z" fill="#666666"/>
<path fill-rule="evenodd" clip-rule="evenodd" d="M400.339 293.294C415.834 293.294 428.47 280.864 428.47 265.622C428.47 250.379 415.834 237.949 400.339 237.949C384.844 237.949 372.209 250.379 372.209 265.622C372.209 280.864 384.844 293.294 400.339 293.294Z" fill="#B33B3B"/>
<path fill-rule="evenodd" clip-rule="evenodd" d="M404.308 250.711C392.096 250.711 382.102 260.543 382.102 272.556V281.85C382.102 285.861 383.218 289.622 385.151 292.858H423.465C425.399 289.622 426.515 285.854 426.515 281.85V272.556C426.515 260.543 416.52 250.711 404.308 250.711Z" fill="#C64700"/>
<path fill-rule="evenodd" clip-rule="evenodd" d="M404.308 250.711C392.096 250.711 382.102 260.543 382.102 272.556V276.144H397.597C405.796 276.144 412.501 269.549 412.501 261.483C412.501 257.399 410.779 253.696 408.021 251.027C406.81 250.826 405.57 250.718 404.308 250.718V250.711Z" fill="#F9B776"/>
<path fill-rule="evenodd" clip-rule="evenodd" d="M398.005 251.613C388.835 254.304 382.102 262.694 382.102 272.554V273.394H384.983C393.183 273.394 399.887 266.799 399.887 258.732C399.887 256.156 399.202 253.723 397.998 251.613H398.005Z" fill="#FFC489"/>
<path fill-rule="evenodd" clip-rule="evenodd" d="M408.225 267.734H366.03C355.977 267.734 347.748 275.822 347.748 285.719C347.748 288.259 348.288 290.678 349.265 292.866H424.982C425.96 290.67 426.5 288.252 426.5 285.719C426.5 275.829 418.278 267.734 408.218 267.734H408.225Z" fill="#C64700"/>
<path fill-rule="evenodd" clip-rule="evenodd" d="M408.225 266.543H366.03C355.977 266.543 347.748 274.638 347.748 284.527C347.748 286.982 348.251 289.321 349.163 291.452C350.053 291.589 350.973 291.653 351.899 291.653H394.094C404.147 291.653 412.369 283.566 412.369 273.676C412.369 271.222 411.866 268.882 410.946 266.744C410.056 266.608 409.137 266.543 408.211 266.543H408.225Z" fill="#F9B776"/>
<path fill-rule="evenodd" clip-rule="evenodd" d="M349.448 273.116L334.165 288.15C332.727 289.564 331.582 291.157 330.729 292.865H379.191C381.999 286.313 380.701 278.433 375.302 273.123C368.189 266.126 356.561 266.126 349.455 273.123L349.448 273.116Z" fill="#F9B776"/>
<path fill-rule="evenodd" clip-rule="evenodd" d="M237.962 27H259.038C267.821 27 275 34.0688 275 42.7021V50.8689C275 57.2488 271.075 62.7747 265.487 65.2218V75.3622L255.164 66.571H237.962C229.178 66.571 222 59.5022 222 50.8689V42.7021C222 34.0616 229.186 27 237.962 27Z" fill="white"/>
<path d="M164.134 77.2422H170.985C182.088 77.2422 191.097 86.1051 191.097 97.0277C191.097 107.95 182.088 116.813 170.985 116.813H164.134C153.031 116.813 144.021 107.95 144.021 97.0277C144.021 86.1051 153.031 77.2422 164.134 77.2422Z" fill="#39362E"/>
<path d="M143.92 97.6133H147.896C154.338 97.6133 159.569 102.759 159.569 109.096C159.569 115.432 154.338 120.578 147.896 120.578H143.92C137.479 120.578 132.248 115.432 132.248 109.096C132.248 102.759 137.479 97.6133 143.92 97.6133Z" fill="#39362E"/>
<path fill-rule="evenodd" clip-rule="evenodd" d="M150.785 129.112L156.585 131.696V131.746V131.674L156.738 130.914C157.117 129.866 158.139 129.105 159.335 129.105C160.823 129.105 162.049 130.282 162.085 131.739V131.689V129.206C162.085 127.72 160.845 126.5 159.335 126.5C157.891 126.5 156.702 127.605 156.592 128.997L150.785 129.105V129.112Z" fill="#934109"/>
<path fill-rule="evenodd" clip-rule="evenodd" d="M190.215 129.112L184.423 131.696V131.746V131.674L184.27 130.914C183.89 129.866 182.869 129.105 181.68 129.105C180.192 129.105 178.966 130.282 178.93 131.739V131.689V129.206C178.93 127.72 180.17 126.5 181.68 126.5C183.117 126.5 184.314 127.605 184.423 128.997L190.23 129.105L190.215 129.112Z" fill="#934109"/>
<path fill-rule="evenodd" clip-rule="evenodd" d="M159.823 142.95C159.961 146.287 162.551 148.813 165.914 148.906C169.277 149 172.443 146.624 173.355 143.316C173.421 143.072 173.384 142.849 173.246 142.656C173.107 142.462 172.91 142.361 172.662 142.354L160.735 142.031C160.487 142.031 160.268 142.117 160.085 142.297C159.903 142.483 159.815 142.706 159.823 142.95Z" fill="#FF6137"/>
<path fill-rule="evenodd" clip-rule="evenodd" d="M159.823 142.95C159.947 145.913 162.004 148.239 164.82 148.784C167.957 148.052 170.634 145.583 171.524 142.368V142.318L160.735 142.024C160.487 142.017 160.268 142.11 160.085 142.289C159.903 142.476 159.815 142.698 159.823 142.942V142.95Z" fill="#801F0C"/>
<path fill-rule="evenodd" clip-rule="evenodd" d="M170.335 142.834L161.566 142.598C162.573 143.746 164.047 144.471 165.739 144.514C167.432 144.557 169.066 143.925 170.335 142.834Z" fill="#FFF7CE"/>
<path fill-rule="evenodd" clip-rule="evenodd" d="M161.145 145.389C161.874 146.81 163.319 147.7 164.982 147.743C165.602 147.757 166.229 147.657 166.828 147.441C166.908 147.413 166.973 147.355 167.003 147.276C167.039 147.197 167.039 147.118 167.003 147.047C166.273 145.626 164.829 144.736 163.165 144.693C162.545 144.678 161.918 144.779 161.32 144.994C161.239 145.023 161.174 145.08 161.145 145.159C161.108 145.238 161.108 145.317 161.145 145.389Z" fill="#FF6137"/>
<path fill-rule="evenodd" clip-rule="evenodd" d="M158.161 79.1211H162.465C169.417 79.1211 175.1 84.7116 175.1 91.5507C175.1 98.3899 169.417 103.98 162.465 103.98H158.161C151.208 103.98 145.525 98.3899 145.525 91.5507C145.525 84.7116 151.208 79.1211 158.161 79.1211Z" fill="#716F6B"/>
<path fill-rule="evenodd" clip-rule="evenodd" d="M148.968 104.082C151.258 105.266 152.827 107.627 152.827 110.333C152.827 114.215 149.602 117.387 145.656 117.387H143.212C140.585 117.387 138.28 115.981 137.025 113.892C138.018 114.402 139.141 114.696 140.337 114.696H142.781C146.728 114.696 149.952 111.524 149.952 107.642C149.952 106.343 149.595 105.13 148.968 104.082Z" fill="#716F6B"/>
<path fill-rule="evenodd" clip-rule="evenodd" d="M173.647 81.6172C181.358 82.6506 187.347 89.1883 187.347 97.0466C187.347 105.608 180.227 112.619 171.517 112.619H166.126C163.879 112.619 161.741 112.153 159.801 111.313C160.494 111.407 161.209 111.457 161.931 111.457H167.322C176.025 111.457 183.153 104.453 183.153 95.884C183.153 89.5328 179.228 84.0357 173.654 81.6244L173.647 81.6172Z" fill="#716F6B"/>
<path d="M137.055 92.2383H135.421C132.77 92.2383 130.621 94.3524 130.621 96.9604C130.621 99.5683 132.77 101.683 135.421 101.683H137.055C139.707 101.683 141.856 99.5683 141.856 96.9604C141.856 94.3524 139.707 92.2383 137.055 92.2383Z" fill="#716F6B"/>
<path fill-rule="evenodd" clip-rule="evenodd" d="M76.6293 169.32C87.0469 169.32 94.364 177.631 92.9633 187.879C91.5699 198.127 81.9913 206.437 71.5665 206.437C61.1416 206.437 53.8318 198.127 55.2325 187.879C56.6332 177.631 66.2118 169.32 76.6293 169.32Z" fill="#FFC489"/>
<path fill-rule="evenodd" clip-rule="evenodd" d="M71.2229 173.906C77.0883 173.906 81.2101 178.585 80.4222 184.355C79.6343 190.125 74.2432 194.804 68.3778 194.804C62.5125 194.804 58.3907 190.125 59.1786 184.355C59.9664 178.585 65.3576 173.906 71.2229 173.906Z" fill="#F9B776"/>
<path fill-rule="evenodd" clip-rule="evenodd" d="M196.643 34.4023C207.06 34.4023 214.377 43.5093 212.977 54.7404C211.576 65.9716 201.998 75.0785 191.58 75.0785C181.162 75.0785 173.845 65.9716 175.246 54.7404C176.639 43.5021 186.218 34.4023 196.643 34.4023Z" fill="#FFD6AE"/>
<path fill-rule="evenodd" clip-rule="evenodd" d="M191.237 39.4258C197.102 39.4258 201.224 44.557 200.436 50.8794C199.648 57.2019 194.257 62.333 188.391 62.333C182.526 62.333 178.404 57.209 179.192 50.8794C179.98 44.557 185.371 39.4258 191.237 39.4258Z" fill="#F9B776"/>
<path fill-rule="evenodd" clip-rule="evenodd" d="M69.3989 190.514C80.8742 197.03 84.8355 211.591 78.2115 222.88L47.0026 276.05C40.3786 287.331 25.5766 291.235 14.1085 284.719C2.63319 278.203 -1.3281 263.642 5.29594 252.361L36.5048 199.19C43.1289 187.902 57.9308 184.005 69.4062 190.521L69.3989 190.514Z" fill="#4B8574"/>
<path fill-rule="evenodd" clip-rule="evenodd" d="M4.34788 274.192C1.15988 267.417 1.24013 259.272 5.29626 252.354L36.5051 199.183C41.123 191.318 49.7094 187.041 58.3761 187.378C61.5641 194.152 61.4839 202.298 57.4278 209.216L26.2189 262.386C21.601 270.252 13.0146 274.529 4.34788 274.192Z" fill="#417465"/>
<path d="M77.8909 245.828H21.6886C9.71033 245.828 0 255.38 0 267.164C0 278.947 9.71033 288.499 21.6886 288.499H77.8909C89.8692 288.499 99.5795 278.947 99.5795 267.164C99.5795 255.38 89.8692 245.828 77.8909 245.828Z" fill="#F9B776"/>
<path fill-rule="evenodd" clip-rule="evenodd" d="M2.22461 257.784C5.77008 250.715 13.1747 245.828 21.6882 245.828H77.8904C87.2137 245.828 95.2093 251.691 98.2587 259.858C94.7132 266.927 87.3085 271.814 78.7951 271.814H22.5928C13.2695 271.814 5.274 265.951 2.22461 257.784Z" fill="#FFC489"/>
<path fill-rule="evenodd" clip-rule="evenodd" d="M90.3003 243.224C102.323 247.429 106.963 260.892 100.659 273.293C94.3637 285.694 79.5107 292.332 67.4882 288.127C55.4657 283.922 50.826 270.459 57.129 258.058C63.4248 245.657 78.2778 239.019 90.3003 243.224Z" fill="#336666"/>
<path fill-rule="evenodd" clip-rule="evenodd" d="M90.2997 243.223C96.1504 245.268 100.25 249.502 102.191 254.741V269.639H63.8254C63.7889 272.208 61.6587 274.29 59.0397 274.29C56.7344 274.29 54.8085 272.682 54.3489 270.543C54.1228 266.517 55.0055 262.219 57.1211 258.042C63.4241 245.641 78.2772 239.003 90.2997 243.208V243.223Z" fill="#669999"/>
<path fill-rule="evenodd" clip-rule="evenodd" d="M80.4209 45H103.415C112.994 45 120.836 52.7075 120.836 62.1374V71.0505C120.836 78.0117 116.554 84.0399 110.455 86.7168V97.7829L99.1915 88.1879H80.4209C70.8423 88.1879 63 80.4804 63 71.0505V62.1374C63 52.7147 70.835 45 80.4209 45Z" fill="white"/>
<path fill-rule="evenodd" clip-rule="evenodd" d="M428.615 28.2031C421.035 28.2031 416.454 34.9059 417.329 41.9748C417.825 45.9864 420.036 49.8114 423.231 52.3089V45.24H433.722C432.175 43.5033 431.154 41.293 430.876 39.0396C430.57 36.5637 431.154 33.9156 432.912 32.0497C433.422 31.5043 433.598 30.7938 433.393 30.0834C433.189 29.3729 432.664 28.8562 431.934 28.6552C430.847 28.361 429.731 28.2031 428.608 28.2031H428.615Z" fill="#FFCB97"/>
<path fill-rule="evenodd" clip-rule="evenodd" d="M431.534 58.7964C425.822 53.1772 416.477 53.1772 410.757 58.7964L354.132 114.507C348.42 120.126 348.42 129.327 354.132 134.946C359.844 140.565 369.189 140.565 374.908 134.946L431.541 79.235C437.253 73.6158 437.253 64.4156 431.541 58.7964H431.534Z" fill="#FFCB97"/>
<path fill-rule="evenodd" clip-rule="evenodd" d="M419.124 54.7188C416.06 55.135 413.098 56.4913 410.756 58.795L354.131 114.506C349.141 119.415 348.506 127.05 352.241 132.655C355.305 132.239 358.267 130.883 360.609 128.579L417.234 72.868C422.224 67.9593 422.859 60.3236 419.124 54.7188Z" fill="#FFD6AE"/>
<path fill-rule="evenodd" clip-rule="evenodd" d="M425.178 55.1381C420.217 53.7531 414.644 54.9731 410.756 58.8053L396.566 72.7635C400.294 75.6843 404.927 77.4569 409.742 77.4569C420.159 77.4569 427.476 69.1466 426.076 58.8986C425.9 57.614 425.594 56.3581 425.178 55.1453V55.1381Z" fill="#F9B776"/>
<path fill-rule="evenodd" clip-rule="evenodd" d="M418.935 37.6328C408.518 37.6328 401.201 46.7397 402.602 57.9709C403.995 69.2092 413.573 78.3162 423.998 78.3162C434.423 78.3162 441.733 69.2092 440.332 57.9709C438.932 46.7397 429.353 37.6328 418.935 37.6328Z" fill="#FFD6AE"/>
<path fill-rule="evenodd" clip-rule="evenodd" d="M424.347 42.6562C418.481 42.6562 414.359 47.7802 415.147 54.1099C415.935 60.4323 421.326 65.5635 427.192 65.5635C433.057 65.5635 437.179 60.4395 436.391 54.1099C435.603 47.7874 430.212 42.6562 424.347 42.6562Z" fill="#F9B776"/>
<path fill-rule="evenodd" clip-rule="evenodd" d="M426.78 126H403.005C393.098 126 385 133.973 385 143.712V152.926C385 160.124 389.428 166.353 395.731 169.123V180.563L407.374 170.645H426.78C436.686 170.645 444.784 162.672 444.784 152.933V143.719C444.784 133.973 436.679 126.007 426.78 126.007V126Z" fill="white"/>
<path fill-rule="evenodd" clip-rule="evenodd" d="M205.44 147.492L205.608 147.399C208.92 145.519 213.195 146.645 215.107 149.903C217.018 153.162 215.873 157.367 212.561 159.247L212.393 159.34C209.081 161.221 204.806 160.094 202.894 156.836C200.983 153.578 202.128 149.372 205.44 147.492Z" fill="#A85A31"/>
<path fill-rule="evenodd" clip-rule="evenodd" d="M216.412 139.954L216.638 139.825C221.103 137.284 226.866 138.806 229.449 143.198C232.024 147.597 230.485 153.266 226.013 155.799L225.787 155.929C221.322 158.462 215.559 156.948 212.976 152.556C210.401 148.157 211.94 142.487 216.412 139.954Z" fill="#A85A31"/>
<path fill-rule="evenodd" clip-rule="evenodd" d="M226.756 139.648L226.931 139.548C230.382 137.588 234.832 138.758 236.831 142.153C238.822 145.547 237.626 149.932 234.175 151.891L234 151.991C230.549 153.951 226.099 152.781 224.1 149.379C222.109 145.985 223.305 141.607 226.756 139.641V139.648Z" fill="#A85A31"/>
<path fill-rule="evenodd" clip-rule="evenodd" d="M223.073 140.133C226.13 141.87 226.983 146.054 224.97 149.477C222.964 152.9 218.857 154.264 215.793 152.527C212.736 150.79 211.882 146.606 213.896 143.183C215.902 139.76 220.009 138.397 223.073 140.133Z" fill="#C9784C"/>
<path fill-rule="evenodd" clip-rule="evenodd" d="M233.665 139.252C235.387 140.228 235.868 142.589 234.737 144.519C233.607 146.45 231.287 147.217 229.565 146.241C227.843 145.258 227.362 142.904 228.493 140.974C229.624 139.043 231.943 138.276 233.665 139.252Z" fill="#C9784C"/>
<path fill-rule="evenodd" clip-rule="evenodd" d="M114.498 228.045L131.985 237.977C133.896 239.061 134.553 241.487 133.451 243.367L112.528 279.019C111.427 280.9 108.961 281.546 107.05 280.462L89.5631 270.53C87.6518 269.446 86.9952 267.02 88.0968 265.14L109.019 229.488C110.121 227.607 112.587 226.961 114.498 228.045Z" fill="#5C5757"/>
<path fill-rule="evenodd" clip-rule="evenodd" d="M116.904 229.416L134.391 239.348C136.302 240.432 136.959 242.858 135.857 244.738L114.935 280.391C113.833 282.271 111.367 282.917 109.456 281.833L91.9694 271.901C90.058 270.817 89.4014 268.392 90.503 266.511L111.426 230.859C112.527 228.978 114.993 228.333 116.904 229.416Z" fill="#4D4A4A"/>
<path fill-rule="evenodd" clip-rule="evenodd" d="M124.267 238.287C125.631 239.062 126.098 240.777 125.31 242.119C124.522 243.461 122.779 243.92 121.414 243.145C120.05 242.37 119.583 240.655 120.371 239.313C121.159 237.971 122.903 237.512 124.26 238.287H124.267Z" fill="#333333"/>
<path fill-rule="evenodd" clip-rule="evenodd" d="M96.3852 244.934L101.536 240.879L105.424 242.68C105.424 242.68 125.996 254.356 127.178 262.703C128.36 271.049 110.895 286.256 106.518 287.332C102.141 288.409 86.8066 289.356 86.8066 289.356L96.3925 244.926L96.3852 244.934Z" fill="#F9B776"/>
<path fill-rule="evenodd" clip-rule="evenodd" d="M101.534 240.879C114.17 245.299 119.043 259.444 112.426 272.477C105.809 285.509 90.1975 292.485 77.5622 288.064C64.9269 283.643 60.0537 269.499 66.6705 256.466C73.2872 243.434 88.899 236.458 101.534 240.879Z" fill="#FFC489"/>
<path fill-rule="evenodd" clip-rule="evenodd" d="M92.7728 244.674C99.8856 247.164 102.629 255.13 98.9007 262.464C95.1729 269.798 86.3822 273.731 79.2693 271.241C72.1565 268.751 69.4135 260.785 73.1414 253.45C76.8692 246.116 85.6599 242.183 92.7728 244.674Z" fill="#F9B776"/>
<path d="M27.5027 288.227H439.521C442.541 288.227 444.992 290.638 444.992 293.609C444.992 296.58 442.541 298.998 439.521 298.998H27.5027C24.4824 298.998 22.0312 296.587 22.0312 293.616C22.0312 290.645 24.4824 288.234 27.5027 288.234V288.227Z" fill="#7B664B"/>
<path d="M95.2175 288.227H173.305C176.326 288.227 178.777 290.638 178.777 293.609C178.777 296.58 176.326 298.998 173.305 298.998H95.2175C92.1973 298.998 89.7461 296.587 89.7461 293.616C89.7461 290.645 92.1973 288.234 95.2175 288.234V288.227Z" fill="#948067"/>
<path d="M202.501 288.227H221.476C224.496 288.227 226.947 290.638 226.947 293.609C226.947 296.58 224.496 298.998 221.476 298.998H202.501C199.48 298.998 197.029 296.587 197.029 293.616C197.029 290.645 199.48 288.234 202.501 288.234V288.227Z" fill="#948067"/>
<path fill-rule="evenodd" clip-rule="evenodd" d="M340.533 89.4766C341.226 90.4454 341.634 91.6295 341.634 92.8997V99.0858C341.634 102.38 338.891 105.078 335.543 105.078C332.194 105.078 329.451 102.38 329.451 99.0858V98.9854C330.553 100.535 332.384 101.555 334.441 101.555C337.79 101.555 340.533 98.8562 340.533 95.5622V89.4766Z" fill="#AA6933"/>
<path fill-rule="evenodd" clip-rule="evenodd" d="M245.891 124.648C247.299 125.545 247.321 127.698 245.942 129.463C244.564 131.229 242.309 131.932 240.909 131.035C239.501 130.138 239.479 127.985 240.858 126.219C242.236 124.454 244.491 123.751 245.891 124.648Z" fill="#C9784C"/>
<path d="M246.548 170.082C247.737 170.082 248.707 171.029 248.707 172.206V174.151C248.707 175.321 247.744 176.275 246.548 176.275C245.359 176.275 244.389 175.328 244.389 174.151V172.206C244.389 171.036 245.352 170.082 246.548 170.082Z" fill="#333333"/>
<path d="M220.286 172.234C221.475 172.234 222.446 173.182 222.446 174.359V176.303C222.446 177.473 221.483 178.428 220.286 178.428C219.097 178.428 218.127 177.48 218.127 176.303V174.359C218.127 173.189 219.09 172.234 220.286 172.234Z" fill="#333333"/>
<path d="M105.13 77.1421C104.766 77.4995 104.233 77.7676 103.53 77.9463C102.854 78.1505 102.034 78.2527 101.072 78.2527C100.109 78.2527 99.1987 78.1123 98.3403 77.8314C97.4818 77.5506 96.7794 76.874 96.2331 75.8018L92.3699 68.066C91.9797 67.2746 91.6285 66.5342 91.3163 65.8449C91.0041 65.1301 90.6659 64.3131 90.3017 63.394L90.0676 63.4323C90.1717 64.8109 90.2237 66.2151 90.2237 67.6448C90.2497 69.0745 90.2627 70.4787 90.2627 71.8573V77.7931C89.9766 77.8697 89.5343 77.9463 88.936 78.0229C88.3636 78.0995 87.7913 78.1378 87.219 78.1378C86.6467 78.1378 86.1394 78.0995 85.6971 78.0229C85.2549 77.9463 84.8907 77.7931 84.6045 77.5633C84.3184 77.3336 84.0973 77.0272 83.9412 76.6443C83.7851 76.2358 83.707 75.7124 83.707 75.0741V55.9264C84.0712 55.4157 84.6306 55.0328 85.385 54.7775C86.1394 54.5222 86.9459 54.3945 87.8043 54.3945C88.7669 54.3945 89.6774 54.5477 90.5359 54.8541C91.4204 55.1349 92.1228 55.7987 92.6431 56.8454L96.5452 64.5812C96.9355 65.3726 97.2867 66.1257 97.5988 66.8406C97.911 67.5299 98.2492 68.3341 98.6134 69.2532L98.8085 69.2149C98.7045 67.8363 98.6394 66.4576 98.6134 65.079C98.5874 63.7004 98.5744 62.3217 98.5744 60.9431V54.7392C98.8605 54.6626 99.2898 54.586 99.8621 54.5094C100.46 54.4328 101.046 54.3945 101.618 54.3945C102.763 54.3945 103.634 54.5988 104.233 55.0073C104.831 55.3902 105.13 56.2072 105.13 57.4582V77.1421Z" fill="#4B8574"/>
<g clip-path="url(#clip0_9104_30404)">
<path d="M260.805 45.6813V47.0821C260.792 47.2226 260.781 47.3633 260.768 47.5039C260.675 48.5056 260.472 49.484 260.143 50.4356C259.469 52.3885 258.379 54.0742 256.875 55.4897C255.502 56.7831 253.913 57.7175 252.116 58.2939C251.275 58.5635 250.415 58.7402 249.535 58.8231C249.362 58.8394 249.188 58.8551 249.014 58.8711H247.596C247.566 58.8663 247.537 58.8588 247.506 58.8569C246.442 58.7924 245.402 58.597 244.392 58.2569C241.633 57.3278 239.441 55.6505 237.843 53.22C236.366 50.9746 235.708 48.4944 235.816 45.811C235.853 44.8977 235.991 43.9992 236.232 43.1175C236.844 40.8791 237.988 38.9561 239.659 37.3468C240.566 36.4733 241.585 35.7562 242.71 35.1925C244.325 34.3833 246.038 33.95 247.841 33.8806C248.856 33.8416 249.862 33.9221 250.856 34.1317C253.217 34.6299 255.269 35.7173 257.006 37.3907C258.294 38.6317 259.268 40.0876 259.932 41.7492C260.371 42.8489 260.648 43.9885 260.757 45.1681C260.773 45.3392 260.789 45.5103 260.805 45.6813ZM242.468 47.8657C242.489 48.1375 242.512 48.5785 242.56 49.0168C242.637 49.7123 242.804 50.3872 243.074 51.0345C243.412 51.8456 243.894 52.5544 244.593 53.0975C245.736 53.9861 247.053 54.2496 248.465 54.1235C249.171 54.0603 249.824 53.8104 250.438 53.4586C251.352 52.9346 252.096 52.2223 252.718 51.3789C253.038 50.9451 253.339 50.4984 253.54 49.9935C253.638 49.7469 253.711 49.494 253.7 49.2249C253.694 49.072 253.663 48.9255 253.543 48.8164C253.436 48.7189 253.312 48.7447 253.246 48.8631C253.045 49.2241 252.855 49.5924 252.632 49.9394C252.161 50.6715 251.592 51.3189 250.88 51.8286C250.112 52.3777 249.265 52.682 248.31 52.6419C247.628 52.6133 247.006 52.415 246.469 51.9818C245.975 51.5822 245.644 51.065 245.411 50.4804C245.148 49.8216 245.027 49.1329 244.975 48.4288C244.906 47.5111 244.962 46.602 245.168 45.7053C245.549 44.0382 246.304 42.5649 247.491 41.3246C247.998 40.795 248.57 40.3485 249.24 40.0394C249.769 39.7955 250.319 39.6592 250.905 39.7468C251.483 39.833 251.893 40.1406 252.098 40.6955C252.271 41.1645 252.267 41.648 252.19 42.1337C252.118 42.5839 251.93 42.9911 251.726 43.3939C251.636 43.5733 251.557 43.7619 251.5 43.9543C251.427 44.1992 251.62 44.3603 251.824 44.3618C251.964 44.363 252.108 44.3511 252.244 44.3176C252.684 44.2089 253.04 43.9555 253.337 43.621C253.931 42.9514 254.187 42.1619 254.133 41.2731C254.092 40.5885 253.817 40.0086 253.313 39.5415C252.881 39.1409 252.363 38.8989 251.797 38.7617C250.66 38.4863 249.536 38.5583 248.43 38.9208C247.008 39.387 245.828 40.2213 244.851 41.3413C243.265 43.1593 242.496 45.2897 242.468 47.8657H242.468Z" fill="#4B8574"/>
</g>
<path fill-rule="evenodd" clip-rule="evenodd" d="M31.8135 112H55.3261C65.1205 112 73.1395 119.862 73.1395 129.482V138.574C73.1395 145.675 68.7608 151.825 62.5246 154.555V165.844L51.007 156.056H31.8135C22.019 156.056 14 148.194 14 138.574V129.482C14 119.87 22.0116 112 31.8135 112Z" fill="white"/>
<rect x="399.801" y="137.539" width="33" height="24" rx="8.60379" fill="#4B8574"/>
<path d="M422.204 148.429C423 148.923 423 150.156 422.204 150.649L414.592 155.365C413.796 155.859 412.801 155.242 412.801 154.256L412.801 144.822C412.801 143.836 413.796 143.219 414.592 143.713L422.204 148.429Z" fill="white"/>
<g clip-path="url(#clip1_9104_30404)">
<path d="M54.1178 127.065C53.8958 127.273 53.7033 127.447 53.5173 127.629C53.2253 127.914 52.9333 128.199 52.6493 128.492C52.2967 128.856 52.0214 129.276 51.7976 129.724C51.6682 129.984 51.5555 130.253 51.4665 130.528C51.3641 130.845 51.2948 131.173 51.2142 131.497C51.2015 131.549 51.2008 131.604 51.2004 131.657C51.1975 131.996 51.1734 132.338 51.2004 132.675C51.2277 133.02 51.2883 133.365 51.3652 133.702C51.4374 134.019 51.5227 134.339 51.6528 134.636C51.8133 135.003 51.993 135.37 52.2241 135.697C52.5217 136.117 52.8498 136.525 53.218 136.886C53.4944 137.157 53.8466 137.358 54.1812 137.563C54.3825 137.687 54.6155 137.761 54.8627 137.87C54.8171 138.02 54.7799 138.178 54.7219 138.328C54.6158 138.603 54.5057 138.877 54.3821 139.145C54.2487 139.435 54.1018 139.719 53.9545 140.002C53.7638 140.368 53.5826 140.74 53.3686 141.092C53.1294 141.486 52.8753 141.873 52.5964 142.241C52.269 142.672 51.923 143.091 51.5577 143.492C51.2051 143.878 50.7921 144.196 50.3385 144.475C49.9302 144.727 49.493 144.872 49.0373 144.959C48.785 145.008 48.5097 144.961 48.2472 144.933C48.0398 144.912 47.8331 144.866 47.6318 144.81C47.2497 144.706 46.8717 144.587 46.4918 144.473C46.1625 144.375 45.8377 144.261 45.5034 144.183C45.079 144.085 44.6495 144.001 44.2178 143.94C44.0253 143.913 43.8223 143.954 43.6243 143.967C43.5579 143.971 43.4927 143.987 43.4263 143.994C43.0395 144.034 42.6643 144.113 42.299 144.251C41.8429 144.423 41.3726 144.56 40.918 144.735C40.3284 144.962 39.7207 145.043 39.0961 144.982C38.8756 144.961 38.6623 144.871 38.4442 144.818C38.0742 144.729 37.7603 144.531 37.4569 144.319C36.8889 143.924 36.4058 143.438 35.9771 142.902C35.6041 142.435 35.2479 141.956 34.953 141.435C34.7353 141.051 34.4706 140.692 34.261 140.304C33.9963 139.813 33.7513 139.311 33.5263 138.803C33.3433 138.388 33.1953 137.958 33.0458 137.53C32.9423 137.234 32.8562 136.932 32.7731 136.629C32.6747 136.271 32.574 135.911 32.5004 135.547C32.4202 135.149 32.371 134.745 32.3061 134.344C32.1562 133.42 32.2306 132.492 32.2543 131.566C32.2645 131.174 32.3455 130.78 32.4319 130.394C32.5274 129.968 32.6382 129.541 32.7939 129.133C32.9795 128.647 33.1705 128.158 33.4768 127.726C33.736 127.359 33.9624 126.965 34.2566 126.629C34.5534 126.289 34.8906 125.972 35.2563 125.706C35.6373 125.428 36.0628 125.203 36.4886 124.994C36.7168 124.882 36.991 124.863 37.2371 124.781C37.9127 124.555 38.6094 124.596 39.3018 124.623C39.5865 124.634 39.868 124.719 40.1512 124.771C40.3219 124.802 40.494 124.828 40.6628 124.866C41.0747 124.96 41.4874 125.052 41.8965 125.158C42.2925 125.26 42.6782 125.423 43.08 125.475C43.4059 125.516 43.734 125.644 44.0826 125.527C44.3002 125.455 44.5456 125.466 44.7716 125.412C45.0418 125.348 45.3043 125.254 45.5708 125.175C45.8093 125.104 46.0481 125.036 46.2869 124.966C46.4068 124.931 46.5253 124.89 46.6467 124.861C47.0233 124.773 47.3988 124.678 47.7784 124.606C48.1142 124.542 48.4543 124.499 48.7941 124.461C48.9232 124.447 49.0566 124.472 49.1879 124.481C49.3512 124.492 49.5145 124.502 49.6775 124.518C50.0807 124.557 50.4774 124.621 50.8562 124.775C51.192 124.912 51.5562 124.996 51.8683 125.17C52.2457 125.382 52.603 125.64 52.9304 125.921C53.3409 126.274 53.7124 126.67 54.1174 127.064L54.1178 127.065Z" fill="#4B8574"/>
<path d="M43.3171 124.936C43.3551 124.537 43.3802 124.203 43.4203 123.87C43.4491 123.631 43.494 123.393 43.5399 123.156C43.5691 123.008 43.6011 122.857 43.6544 122.716C43.7933 122.348 43.9245 121.975 44.0981 121.623C44.233 121.349 44.4309 121.105 44.5939 120.845C44.8378 120.453 45.1681 120.139 45.532 119.862C45.8218 119.642 46.1321 119.445 46.4464 119.259C46.6629 119.131 46.8981 119.03 47.1329 118.936C47.3564 118.847 47.5908 118.784 47.8201 118.709C47.9492 118.667 48.0761 118.617 48.2066 118.58C48.3324 118.545 48.4614 118.509 48.5905 118.504C48.6303 118.502 48.7072 118.597 48.7116 118.652C48.7462 119.09 48.787 119.529 48.662 119.962C48.6153 120.124 48.6095 120.298 48.5555 120.457C48.4195 120.857 48.2751 121.256 48.1184 121.648C47.8643 122.283 47.437 122.814 46.9758 123.309C46.5507 123.765 46.0636 124.159 45.4926 124.447C45.1058 124.642 44.7091 124.77 44.2745 124.803C43.9763 124.826 43.6806 124.884 43.3164 124.936L43.3171 124.936Z" fill="#4B8574"/>
</g>
<path d="M233.998 223C232.021 223 230.087 223.587 228.443 224.686C226.799 225.785 225.518 227.347 224.761 229.174C224.004 231.001 223.806 233.012 224.192 234.951C224.578 236.891 225.531 238.673 226.929 240.071C228.327 241.469 230.109 242.422 232.049 242.808C233.988 243.194 235.999 242.996 237.826 242.239C239.653 241.482 241.215 240.201 242.314 238.557C243.413 236.913 244 234.979 244 233.002C244 230.349 242.946 227.805 241.07 225.93C239.195 224.054 236.651 223 233.998 223ZM240.312 230.586C240.31 230.606 240.305 230.625 240.296 230.642C240.286 230.659 240.274 230.675 240.259 230.687C240.231 230.709 240.198 230.721 240.163 230.721C240.156 230.721 239.921 230.693 239.921 230.693C239.902 230.691 239.883 230.685 239.866 230.676C239.849 230.667 239.834 230.654 239.822 230.639C239.81 230.624 239.801 230.607 239.795 230.588C239.79 230.57 239.788 230.55 239.79 230.531C239.79 230.531 239.819 230.201 239.819 230.032C239.819 228.971 239.42 227.949 238.702 227.168C238.152 226.569 237.158 226.939 237.158 227.753L237.154 235.968C237.154 237.741 236.192 239.36 234.515 240.24C233.876 240.577 233.152 240.718 232.428 240.718H232.406C231.782 240.718 231.165 240.595 230.588 240.357C230.011 240.118 229.487 239.768 229.046 239.327C228.605 238.886 228.254 238.362 228.015 237.786C227.776 237.21 227.653 236.592 227.653 235.968C227.653 235.781 227.685 235.414 227.685 235.414C227.686 235.394 227.691 235.374 227.7 235.357C227.71 235.339 227.723 235.323 227.738 235.311C227.766 235.29 227.8 235.279 227.834 235.279C227.838 235.279 228.076 235.306 228.076 235.306C228.114 235.311 228.149 235.33 228.174 235.36C228.198 235.39 228.21 235.429 228.207 235.467C228.207 235.469 228.177 235.799 228.177 235.968C228.177 237.029 228.576 238.052 229.295 238.832C229.843 239.429 230.839 239.06 230.839 238.247V230.032C230.841 228.254 231.807 226.632 233.494 225.753C233.812 225.588 234.151 225.466 234.501 225.393C234.851 225.316 235.209 225.279 235.567 225.281C236.071 225.279 236.572 225.356 237.051 225.51C237.804 225.753 238.485 226.181 239.03 226.754C239.881 227.653 240.351 228.845 240.344 230.082C240.342 230.251 240.312 230.586 240.312 230.586Z" fill="#EFEFEF"/>
<defs>
<clipPath id="clip0_9104_30404">
<rect width="25" height="25" fill="white" transform="translate(235.805 33.8711)"/>
</clipPath>
<clipPath id="clip1_9104_30404">
<rect width="22.6474" height="26.5" fill="white" transform="translate(32.2148 118.504)"/>
</clipPath>
</defs>
</svg>
