<svg width="28" height="29" viewBox="0 0 28 29" fill="none" xmlns="http://www.w3.org/2000/svg">
<rect y="0.5" width="28" height="28" rx="14" fill="black" fill-opacity="0.35"/>
<path fill-rule="evenodd" clip-rule="evenodd" d="M10.0061 9.32739C9.68065 9.00195 9.15301 9.00195 8.82757 9.32739C8.50214 9.65283 8.50214 10.1805 8.82757 10.5059L12.8217 14.5L8.82757 18.4941C8.50214 18.8195 8.50214 19.3471 8.82757 19.6726C9.15301 19.998 9.68065 19.998 10.0061 19.6726L14.0002 15.6785L17.9942 19.6726C18.3197 19.998 18.8473 19.998 19.1728 19.6726C19.4982 19.3471 19.4982 18.8195 19.1728 18.4941L15.1787 14.5L19.1728 10.5059C19.4982 10.1805 19.4982 9.65283 19.1728 9.32739C18.8473 9.00195 18.3197 9.00195 17.9942 9.32739L14.0002 13.3215L10.0061 9.32739Z" fill="white"/>
</svg>
