<svg width="29" height="29" viewBox="0 0 29 29" fill="none" xmlns="http://www.w3.org/2000/svg">
<path d="M13.0052 1.68167L11.0967 3.82873C10.7172 4.2557 10.1731 4.5 9.60187 4.5H6.60555C6.2107 4.5 5.82469 4.61688 5.49615 4.8359L5.3906 4.90627C4.8342 5.2772 4.5 5.90166 4.5 6.57037V9.60187C4.5 10.1731 4.2557 10.7172 3.82873 11.0967L1.68167 13.0052C0.786641 13.8008 0.786641 15.1992 1.68167 15.9948L3.82873 17.9033C4.2557 18.2828 4.5 18.8269 4.5 19.3981V22.7929C4.5 23.2456 4.67986 23.6799 5 24C5.32014 24.3201 5.75435 24.5 6.20711 24.5H9.60187C10.1731 24.5 10.7172 24.7443 11.0967 25.1713L13.0052 27.3183C13.8008 28.2134 15.1992 28.2134 15.9948 27.3183L17.9033 25.1713C18.2828 24.7443 18.8269 24.5 19.3981 24.5H21.7013H22.3944C22.7893 24.5 23.1753 24.3831 23.5038 24.1641L23.6094 24.0937C24.1658 23.7228 24.5 23.0983 24.5 22.4296V19.3981C24.5 18.8269 24.7443 18.2828 25.1713 17.9033L27.4147 15.9092C28.2747 15.1447 28.3139 13.8139 27.5002 13.0002L26.6005 12.1005C26.5336 12.0336 26.462 11.9715 26.3863 11.9147L25.3 11.1C24.7964 10.7223 24.5 10.1295 24.5 9.5V8V6.20711C24.5 5.75435 24.3201 5.32014 24 5C23.6799 4.67986 23.2456 4.5 22.7929 4.5H19.3981C18.8269 4.5 18.2828 4.2557 17.9033 3.82873L15.9948 1.68167C15.1992 0.786641 13.8008 0.786641 13.0052 1.68167Z" fill="#08A081"/>
<path d="M10.785 12.3281C10.785 11.5293 10.9518 10.7696 11.2524 10.0817C11.3747 9.80185 11.0864 9.49541 10.8366 9.67116C9.29391 10.7567 8.28589 12.5507 8.28589 14.5804C8.28589 17.8933 10.9716 20.5792 14.2846 20.5792C16.449 20.5792 18.3455 19.4328 19.4005 17.7141C19.5603 17.4539 19.2366 17.1856 18.9651 17.3252C18.1964 17.7205 17.3247 17.9437 16.4007 17.9437C13.2993 17.9437 10.785 15.4294 10.785 12.3281Z" fill="white"/>
<path d="M15.8751 12.6031C15.7853 12.8795 16.1017 13.1094 16.3368 12.9385L17.27 12.2606C17.3752 12.1842 17.5175 12.1842 17.6227 12.2606L18.5556 12.9384C18.7907 13.1093 19.1071 12.8794 19.0173 12.603L18.6609 11.5062C18.6207 11.3826 18.6647 11.2472 18.7699 11.1708L19.7029 10.4929C19.938 10.322 19.8171 9.95016 19.5265 9.95016H18.3734C18.2434 9.95016 18.1282 9.86647 18.088 9.74286L17.7317 8.64603C17.6419 8.36963 17.2508 8.36963 17.161 8.64603L16.8047 9.74286C16.7645 9.86646 16.6493 9.95016 16.5194 9.95016H15.3659C15.0753 9.95016 14.9544 10.322 15.1896 10.4929L16.1226 11.1708C16.2277 11.2472 16.2717 11.3826 16.2315 11.5062L15.8751 12.6031Z" fill="white"/>
</svg>
