<svg width="102" height="90" viewBox="0 0 102 90" fill="none" xmlns="http://www.w3.org/2000/svg">
<path d="M50.2436 54.5819L44.6846 54.5626C44.6846 54.5626 43.649 51.737 45.016 49.7519C47.8086 45.6979 44.026 43.5605 42.5788 42.4308C40.395 40.7264 39.4375 38.5312 42.0762 37.1162C45.0615 35.517 42.4488 31.225 38.5211 28.9762C34.6757 26.7766 36.4088 18.7438 45.1742 22.7505C50.4083 25.143 49.5677 30.6398 49.8104 33.5168C50.053 36.3938 54.3729 36.6446 52.8824 40.1519C51.6085 43.1468 49.2016 45.327 51.0257 47.3958C52.8499 49.4646 53.0318 51.7778 50.2436 54.5819Z" fill="url(#paint0_linear)"/>
<path opacity="0.1" d="M81.1438 62.4657C81.0871 62.5072 81.0349 62.5476 80.9793 62.5868C80.7741 62.7322 80.5594 62.8634 80.3365 62.9796C79.169 63.5965 77.7297 63.8979 76.3279 64.1025C73.1839 64.5619 69.974 64.6512 66.7778 64.7387C58.1416 64.9764 49.4845 65.2135 40.8693 64.666C37.4655 64.4499 33.9867 64.0883 30.9023 62.9796C30.4601 62.8212 30.0267 62.6465 29.602 62.4554C28.7425 62.0683 27.9171 61.5969 27.2306 61.0341C26.5856 60.5065 26.0626 59.9004 25.75 59.2113C25.0981 57.7763 25.443 56.1645 26.1874 54.7579C26.4965 54.1888 26.8451 53.6423 27.2306 53.1222C27.8053 52.3302 28.439 51.5609 29.0171 50.7695C31.0742 47.9563 32.4164 44.3972 30.5176 41.5119C29.9719 40.6829 29.1833 39.9552 28.7385 39.0898C28.1712 37.9829 28.2149 36.7537 28.3953 35.5597C28.4188 35.4081 28.4435 35.258 28.4696 35.1094C28.7777 33.339 29.3575 31.4315 31.1451 30.3263C33.0019 29.1778 35.6387 29.2358 37.9432 29.644C41.5268 30.2853 44.8326 31.6203 48.1734 32.8256C51.5143 34.0309 55.0095 35.1322 58.6812 35.2504C61.9233 35.3551 65.705 34.5722 67.8568 32.5373C69.9468 30.5611 73.8754 30.4104 76.7069 31.6043C78.6505 32.4236 80.1005 33.8996 80.7121 35.5597C80.8359 35.893 80.9251 36.2383 80.9781 36.5899C81.0272 36.9113 81.0431 37.2369 81.0258 37.5616C81.0173 37.7219 81.0008 37.8805 80.9781 38.0375C80.505 41.3134 77.0994 43.8975 75.0293 46.8238C74.0178 48.2531 73.3036 49.9701 73.9991 51.5115C75.06 53.8601 78.7492 54.6953 80.977 56.4431C81.3962 56.7611 81.7653 57.1406 82.0719 57.5688C83.1526 59.1243 82.7538 61.2251 81.1438 62.4657Z" fill="#86D0C1"/>
<path d="M76.1766 33.2915L66.1903 35.8249C65.0866 32.8631 64.6072 30.1091 66.1903 28.0419C66.1903 27.5112 66.2958 26.9856 66.5007 26.4952C66.7056 26.0048 67.006 25.5592 67.3846 25.1839C67.7632 24.8085 68.2128 24.5108 68.7075 24.3077C69.2022 24.1045 69.7324 24 70.2678 24C70.9186 23.9995 71.56 24.1536 72.1383 24.4495C72.7166 24.7453 73.215 25.1741 73.5917 25.7002C74.2361 26.5973 74.3652 27.7538 73.9957 28.7924C73.3371 30.6434 75.5704 30.6359 76.1766 33.2915Z" fill="#532525"/>
<path d="M78.6523 65C78.4163 65 78.1865 64.925 77.9967 64.7861C77.8068 64.6471 77.667 64.4514 77.5976 64.2278L77.2616 63.1454C77.1838 62.895 77.1689 62.6295 77.218 62.372L77.4469 61.1731H79.0518L79.7178 63.6213C79.7619 63.7834 79.7678 63.9535 79.7349 64.1182C79.7021 64.283 79.6314 64.438 79.5284 64.5714C79.4253 64.7047 79.2927 64.8127 79.1408 64.887C78.9889 64.9614 78.8217 65 78.6523 65Z" fill="#532525"/>
<path d="M66.9585 65C67.1945 65 67.4243 64.925 67.6142 64.7861C67.804 64.6471 67.9439 64.4514 68.0133 64.2278L68.3493 63.1454C68.427 62.895 68.442 62.6295 68.3928 62.372L68.164 61.1731H66.559L65.893 63.6213C65.8489 63.7834 65.8431 63.9535 65.8759 64.1182C65.9088 64.283 65.9795 64.438 66.0825 64.5714C66.1855 64.7047 66.3181 64.8127 66.4701 64.887C66.622 64.9614 66.7891 65 66.9585 65Z" fill="#532525"/>
<path d="M79.1819 61.3022H77.4035L71.6652 46.7128L77.5646 61.5104L66.6892 61.3022C65.8844 52.15 63.9265 43.4322 66.6892 40.1465L73.1524 40.7485L79.1819 61.3022Z" fill="#532525"/>
<path d="M70.0509 30.3209C71.2488 30.3209 72.2198 29.3584 72.2198 28.171C72.2198 26.9836 71.2488 26.021 70.0509 26.021C68.8531 26.021 67.882 26.9836 67.882 28.171C67.882 29.3584 68.8531 30.3209 70.0509 30.3209Z" fill="#F7A46F"/>
<path d="M73.109 41.1782C70.3773 42.2064 68.1549 42.1743 66.6024 40.7482C67.303 38.458 67.3449 35.6377 67.0362 32.5353L67.9037 32.1483L68.2074 34.9003L72.5018 34.6853L73.4561 31.6753L74.4104 31.8903C74.4835 35.6222 74.258 38.9795 73.109 41.1782Z" fill="#E6E6E6"/>
<path d="M75.625 45.8224L76.135 47.4655C76.1764 47.5987 76.1856 47.7395 76.162 47.8768C76.1384 48.0141 76.0826 48.144 75.9991 48.2561C75.9156 48.3681 75.8068 48.4592 75.6814 48.5219C75.5559 48.5847 75.4174 48.6173 75.2769 48.6173C75.1511 48.6173 75.0267 48.5911 74.9118 48.5405C74.7969 48.4898 74.694 48.4157 74.6098 48.3231C74.5256 48.2304 74.462 48.1213 74.4231 48.0027C74.3841 47.8842 74.3708 47.7588 74.3839 47.6348L74.5839 45.7364L73.7598 39.2865L74.3671 36.4485H75.8853L75.625 45.8224Z" fill="#F7A46F"/>
<path d="M63.4759 45.4805L62.5796 46.9523C62.507 47.0716 62.4636 47.206 62.453 47.3449C62.4423 47.4838 62.4647 47.6232 62.5184 47.752C62.572 47.8807 62.6553 47.9952 62.7617 48.0862C62.8681 48.1772 62.9945 48.2421 63.1308 48.2759C63.2529 48.3061 63.3799 48.3105 63.5038 48.2889C63.6277 48.2673 63.7456 48.2202 63.8499 48.1505C63.9543 48.0808 64.0426 47.9902 64.1094 47.8845C64.1761 47.7789 64.2197 47.6604 64.2373 47.537L64.507 45.647L66.8825 39.587L67.3615 36.6849L65.5136 36.3232L63.4759 45.4805Z" fill="#F7A46F"/>
<path d="M63.3366 44.9919H67.1594L67.6002 32.3203L67.1594 32.384C66.6916 32.4517 66.2602 32.6733 65.9348 33.0133C65.6094 33.3533 65.4087 33.7919 65.3651 34.2585L63.3366 44.9919Z" fill="#E6E6E6"/>
<path d="M78.2587 44.992L72.7063 46.3685L74.1068 31.8044L74.5476 31.8682C75.0154 31.9358 75.4467 32.1574 75.7721 32.4974C76.0976 32.8374 76.2982 33.276 76.3418 33.7427L78.2587 44.992Z" fill="#E6E6E6"/>
<path d="M72.3593 27.0973C71.3476 27.6868 69.4034 27.6569 67.9773 27.2393L67.9773 25.1687L72.0122 25.3766L72.3593 27.0973Z" fill="#532525"/>
<path d="M37.9378 53.679H23.8112V64.9653H37.9378V53.679Z" fill="#E6E6E6"/>
<path d="M32.0694 61.6907H29.6798V64.8954H32.0694V61.6907Z" fill="#86D0C1"/>
<path d="M55.2992 54.0121L55.6752 53.0182L59.1845 51.0304L61.5657 50.5334L55.2992 54.0121Z" fill="#86D0C1"/>
<path d="M42.3903 54.0121L42.0143 53.0182L38.5051 51.0304L36.1238 50.5334L42.3903 54.0121Z" fill="#86D0C1"/>
<path d="M55.5499 54.2606H42.1396L41.0117 49.0427H56.6778L55.5499 54.2606Z" fill="#86D0C1"/>
<path opacity="0.1" d="M55.5499 54.2606H42.1396L41.0117 49.0427H56.6778L55.5499 54.2606Z" fill="black"/>
<path d="M55.6125 53.95H42.0769V64.9651H55.6125V53.95Z" fill="#86D0C1"/>
<path d="M50.0395 61.6892H47.65V64.894H50.0395V61.6892Z" fill="#395B54"/>
<path d="M81.9722 64.9784H21V64.8264H82L81.9722 64.9784Z" fill="#395B54"/>
<path d="M51.656 56.2043H46.0335V57.9461H51.656V56.2043Z" fill="white"/>
<path d="M33.6485 56.2043H28.026V57.9461H33.6485V56.2043Z" fill="white"/>
<path d="M76.8706 35.0123L64.7248 36.0447L65.0718 31.9152C65.0718 27.4414 70.0479 34.5199 69.2361 30.8828L72.0123 30.5386C72.1598 31.7087 73.8178 31.7253 75.4825 31.9152L75.8295 32.2593L76.8706 35.0123Z" fill="#532525"/>
<defs>
<linearGradient id="paint0_linear" x1="40.5175" y1="22.536" x2="51.2722" y2="53.7631" gradientUnits="userSpaceOnUse">
<stop stop-color="#86D0C1"/>
<stop offset="0.9964" stop-color="#F36F56"/>
</linearGradient>
</defs>
</svg>
