<svg width="22" height="24" viewBox="0 0 22 24" fill="none" xmlns="http://www.w3.org/2000/svg">
<rect x="1.5" y="2.5" width="19" height="19" rx="4.5" fill="#08A081" stroke="#08A081"/>
<path d="M9.33464 13.3333L14.2513 8.41667C14.4041 8.26389 14.5985 8.1875 14.8346 8.1875C15.0707 8.1875 15.2652 8.26389 15.418 8.41667C15.5707 8.56944 15.6471 8.76389 15.6471 9C15.6471 9.23611 15.5707 9.43056 15.418 9.58333L9.91797 15.0833C9.7513 15.25 9.55686 15.3333 9.33464 15.3333C9.11241 15.3333 8.91797 15.25 8.7513 15.0833L6.58464 12.9167C6.43186 12.7639 6.35547 12.5694 6.35547 12.3333C6.35547 12.0972 6.43186 11.9028 6.58464 11.75C6.73741 11.5972 6.93186 11.5208 7.16797 11.5208C7.40408 11.5208 7.59852 11.5972 7.7513 11.75L9.33464 13.3333Z" fill="white"/>
</svg>
