<svg width="18" height="18" viewBox="0 0 18 18" fill="none" xmlns="http://www.w3.org/2000/svg">
<path d="M12.75 6.75C12.75 6.35218 12.592 5.97064 12.3107 5.68934C12.0294 5.40804 11.6478 5.25 11.25 5.25M11.25 11.25C12.1965 11.2497 13.1189 10.951 13.8858 10.3963C14.6528 9.84162 15.2253 9.05922 15.522 8.16039C15.8186 7.26156 15.8243 6.29208 15.5382 5.38983C15.2521 4.48758 14.6888 3.69852 13.9284 3.13487C13.168 2.57123 12.2492 2.2617 11.3028 2.25033C10.3563 2.23895 9.43039 2.52629 8.65666 3.07149C7.88293 3.6167 7.30082 4.39199 6.99311 5.2871C6.68541 6.18221 6.66779 7.15155 6.94275 8.05725L6.75 8.25L2.46975 12.5303C2.32909 12.6709 2.25004 12.8616 2.25 13.0605V15C2.25 15.1989 2.32902 15.3897 2.46967 15.5303C2.61032 15.671 2.80109 15.75 3 15.75H4.5C4.69891 15.75 4.88968 15.671 5.03033 15.5303C5.17098 15.3897 5.25 15.1989 5.25 15C5.25 14.8011 5.32902 14.6103 5.46967 14.4697C5.61032 14.329 5.80109 14.25 6 14.25C6.19891 14.25 6.38968 14.171 6.53033 14.0303C6.67098 13.8897 6.75 13.6989 6.75 13.5C6.75 13.3011 6.82902 13.1103 6.96967 12.9697C7.11032 12.829 7.30109 12.75 7.5 12.75H7.9395C8.1384 12.75 8.32913 12.6709 8.46975 12.5303L9.75 11.25L9.94275 11.0573C10.3666 11.1855 10.8071 11.2504 11.25 11.25Z" stroke="#08A081" stroke-width="1.4" stroke-linecap="round" stroke-linejoin="round"/>
</svg>
