<svg width="72" height="28" viewBox="0 0 72 28" fill="none" xmlns="http://www.w3.org/2000/svg">
<path d="M68.1625 23.4277C68.4394 23.9073 68.709 24.3917 68.9713 24.8806C68.495 24.569 68.1767 24.0359 68.1625 23.4277Z" fill="#FFC801"/>
<path d="M58.3848 11.0993C59.2169 11.8802 60.0241 12.6874 60.805 13.5195C60.503 14.0775 59.9125 14.4566 59.2334 14.4566C58.2472 14.4566 57.4477 13.6571 57.4477 12.6709C57.4477 11.9918 57.8267 11.4013 58.3848 11.0993Z" fill="#FFC801"/>
<path d="M47.0237 2.93298C47.5126 3.19528 47.997 3.46495 48.4766 3.74183C47.8684 3.72763 47.3353 3.40929 47.0237 2.93298Z" fill="#FFC801"/>
<path d="M-5.00984 3.74183C-4.53018 3.46494 -4.04582 3.19528 -3.55692 2.93298C-3.86854 3.40929 -4.40158 3.72763 -5.00984 3.74183Z" fill="#FFC801"/>
<path d="M-17.3382 13.5195C-16.5573 12.6874 -15.7501 11.8802 -14.918 11.0993C-14.36 11.4013 -13.9809 11.9918 -13.9809 12.6709C-13.9809 13.6571 -14.7804 14.4566 -15.7666 14.4566C-16.4457 14.4566 -17.0362 14.0775 -17.3382 13.5195Z" fill="#FFC801"/>
<path d="M-25.5045 24.8806C-25.2422 24.3917 -24.9726 23.9073 -24.6957 23.4277C-24.7099 24.0359 -25.0282 24.569 -25.5045 24.8806Z" fill="#FFC801"/>
<path d="M68.9713 75.4612C68.709 75.9501 68.4394 76.4345 68.1625 76.9141C68.1767 76.3059 68.495 75.7728 68.9713 75.4612Z" fill="#FFC801"/>
<path d="M60.805 86.8223C60.503 86.2642 59.9125 85.8852 59.2334 85.8852C58.2472 85.8852 57.4477 86.6847 57.4477 87.6709C57.4477 88.35 57.8267 88.9405 58.3848 89.2425C59.2169 88.4616 60.0241 87.6544 60.805 86.8223Z" fill="#FFC801"/>
<path d="M48.4766 96.6C47.8684 96.6142 47.3353 96.9325 47.0237 97.4088C47.5126 97.1465 47.997 96.8769 48.4766 96.6Z" fill="#FFC801"/>
<path d="M-3.55692 97.4088C-3.86854 96.9325 -4.40158 96.6142 -5.00984 96.6C-4.53018 96.8769 -4.04582 97.1465 -3.55692 97.4088Z" fill="#FFC801"/>
<path d="M-14.918 89.2425C-14.36 88.9405 -13.9809 88.35 -13.9809 87.6709C-13.9809 86.6847 -14.7804 85.8852 -15.7666 85.8852C-16.4457 85.8852 -17.0362 86.2642 -17.3382 86.8223C-16.5573 87.6544 -15.7501 88.4616 -14.918 89.2425Z" fill="#FFC801"/>
<path d="M-24.6957 76.9141C-24.7099 76.3059 -25.0282 75.7728 -25.5045 75.4612C-25.2422 75.9501 -24.9726 76.4345 -24.6957 76.9141Z" fill="#FFC801"/>
<path d="M7.44769 1.95661C7.44769 2.94284 6.64819 3.74233 5.66197 3.74233C4.67575 3.74233 3.87626 2.94284 3.87626 1.95661C3.87626 0.97039 4.67575 0.170898 5.66197 0.170898C6.64819 0.170898 7.44769 0.97039 7.44769 1.95661Z" fill="#FFC801"/>
<path d="M18.162 1.95661C18.162 2.94284 17.3625 3.74233 16.3763 3.74233C15.39 3.74233 14.5905 2.94284 14.5905 1.95661C14.5905 0.97039 15.39 0.170898 16.3763 0.170898C17.3625 0.170898 18.162 0.97039 18.162 1.95661Z" fill="#FFC801"/>
<path d="M28.8763 1.95661C28.8763 2.94284 28.0768 3.74233 27.0905 3.74233C26.1043 3.74233 25.3048 2.94284 25.3048 1.95661C25.3048 0.97039 26.1043 0.170898 27.0905 0.170898C28.0768 0.170898 28.8763 0.97039 28.8763 1.95661Z" fill="#FFC801"/>
<path d="M39.5905 1.95661C39.5905 2.94284 38.791 3.74233 37.8048 3.74233C36.8186 3.74233 36.0191 2.94284 36.0191 1.95661C36.0191 0.97039 36.8186 0.170898 37.8048 0.170898C38.791 0.170898 39.5905 0.97039 39.5905 1.95661Z" fill="#FFC801"/>
<path d="M-3.2666 12.6709C-3.2666 13.6571 -4.06609 14.4566 -5.05232 14.4566C-6.03854 14.4566 -6.83803 13.6571 -6.83803 12.6709C-6.83803 11.6847 -6.03854 10.8852 -5.05232 10.8852C-4.06609 10.8852 -3.2666 11.6847 -3.2666 12.6709Z" fill="#FFC801"/>
<path d="M7.44769 12.6709C7.44769 13.6571 6.64819 14.4566 5.66197 14.4566C4.67575 14.4566 3.87626 13.6571 3.87626 12.6709C3.87626 11.6847 4.67575 10.8852 5.66197 10.8852C6.64819 10.8852 7.44769 11.6847 7.44769 12.6709Z" fill="#FFC801"/>
<path d="M18.162 12.6709C18.162 13.6571 17.3625 14.4566 16.3763 14.4566C15.39 14.4566 14.5905 13.6571 14.5905 12.6709C14.5905 11.6847 15.39 10.8852 16.3763 10.8852C17.3625 10.8852 18.162 11.6847 18.162 12.6709Z" fill="#FFC801"/>
<path d="M28.8763 12.6709C28.8763 13.6571 28.0768 14.4566 27.0905 14.4566C26.1043 14.4566 25.3048 13.6571 25.3048 12.6709C25.3048 11.6847 26.1043 10.8852 27.0905 10.8852C28.0768 10.8852 28.8763 11.6847 28.8763 12.6709Z" fill="#FFC801"/>
<path d="M39.5905 12.6709C39.5905 13.6571 38.791 14.4566 37.8048 14.4566C36.8186 14.4566 36.0191 13.6571 36.0191 12.6709C36.0191 11.6847 36.8186 10.8852 37.8048 10.8852C38.791 10.8852 39.5905 11.6847 39.5905 12.6709Z" fill="#FFC801"/>
<path d="M50.3048 12.6709C50.3048 13.6571 49.5053 14.4566 48.5191 14.4566C47.5329 14.4566 46.7334 13.6571 46.7334 12.6709C46.7334 11.6847 47.5329 10.8852 48.5191 10.8852C49.5053 10.8852 50.3048 11.6847 50.3048 12.6709Z" fill="#FFC801"/>
<path d="M-13.9809 23.3852C-13.9809 24.3714 -14.7804 25.1709 -15.7666 25.1709C-16.7528 25.1709 -17.5523 24.3714 -17.5523 23.3852C-17.5523 22.399 -16.7528 21.5995 -15.7666 21.5995C-14.7804 21.5995 -13.9809 22.399 -13.9809 23.3852Z" fill="#FFC801"/>
<path d="M-3.2666 23.3852C-3.2666 24.3714 -4.06609 25.1709 -5.05232 25.1709C-6.03854 25.1709 -6.83803 24.3714 -6.83803 23.3852C-6.83803 22.399 -6.03854 21.5995 -5.05232 21.5995C-4.06609 21.5995 -3.2666 22.399 -3.2666 23.3852Z" fill="#FFC801"/>
<path d="M7.44769 23.3852C7.44769 24.3714 6.64819 25.1709 5.66197 25.1709C4.67575 25.1709 3.87626 24.3714 3.87626 23.3852C3.87626 22.399 4.67575 21.5995 5.66197 21.5995C6.64819 21.5995 7.44769 22.399 7.44769 23.3852Z" fill="#FFC801"/>
<path d="M18.162 23.3852C18.162 24.3714 17.3625 25.1709 16.3763 25.1709C15.39 25.1709 14.5905 24.3714 14.5905 23.3852C14.5905 22.399 15.39 21.5995 16.3763 21.5995C17.3625 21.5995 18.162 22.399 18.162 23.3852Z" fill="#FFC801"/>
<path d="M28.8763 23.3852C28.8763 24.3714 28.0768 25.1709 27.0905 25.1709C26.1043 25.1709 25.3048 24.3714 25.3048 23.3852C25.3048 22.399 26.1043 21.5995 27.0905 21.5995C28.0768 21.5995 28.8763 22.399 28.8763 23.3852Z" fill="#FFC801"/>
<path d="M39.5905 23.3852C39.5905 24.3714 38.791 25.1709 37.8048 25.1709C36.8186 25.1709 36.0191 24.3714 36.0191 23.3852C36.0191 22.399 36.8186 21.5995 37.8048 21.5995C38.791 21.5995 39.5905 22.399 39.5905 23.3852Z" fill="#FFC801"/>
<path d="M50.3048 23.3852C50.3048 24.3714 49.5053 25.1709 48.5191 25.1709C47.5329 25.1709 46.7334 24.3714 46.7334 23.3852C46.7334 22.399 47.5329 21.5995 48.5191 21.5995C49.5053 21.5995 50.3048 22.399 50.3048 23.3852Z" fill="#FFC801"/>
<path d="M61.0191 23.3852C61.0191 24.3714 60.2196 25.1709 59.2334 25.1709C58.2472 25.1709 57.4477 24.3714 57.4477 23.3852C57.4477 22.399 58.2472 21.5995 59.2334 21.5995C60.2196 21.5995 61.0191 22.399 61.0191 23.3852Z" fill="#FFC801"/>
<path d="M-24.6952 34.0995C-24.6952 35.0857 -25.4947 35.8852 -26.4809 35.8852C-27.4671 35.8852 -28.2666 35.0857 -28.2666 34.0995C-28.2666 33.1132 -27.4671 32.3138 -26.4809 32.3138C-25.4947 32.3138 -24.6952 33.1132 -24.6952 34.0995Z" fill="#FFC801"/>
<path d="M-13.9809 34.0995C-13.9809 35.0857 -14.7804 35.8852 -15.7666 35.8852C-16.7528 35.8852 -17.5523 35.0857 -17.5523 34.0995C-17.5523 33.1132 -16.7528 32.3138 -15.7666 32.3138C-14.7804 32.3138 -13.9809 33.1132 -13.9809 34.0995Z" fill="#FFC801"/>
<path d="M-3.2666 34.0995C-3.2666 35.0857 -4.06609 35.8852 -5.05232 35.8852C-6.03854 35.8852 -6.83803 35.0857 -6.83803 34.0995C-6.83803 33.1132 -6.03854 32.3138 -5.05232 32.3138C-4.06609 32.3138 -3.2666 33.1132 -3.2666 34.0995Z" fill="#FFC801"/>
<path d="M7.44769 34.0995C7.44769 35.0857 6.64819 35.8852 5.66197 35.8852C4.67575 35.8852 3.87626 35.0857 3.87626 34.0995C3.87626 33.1132 4.67575 32.3138 5.66197 32.3138C6.64819 32.3138 7.44769 33.1132 7.44769 34.0995Z" fill="#FFC801"/>
<path d="M18.162 34.0995C18.162 35.0857 17.3625 35.8852 16.3763 35.8852C15.39 35.8852 14.5905 35.0857 14.5905 34.0995C14.5905 33.1132 15.39 32.3138 16.3763 32.3138C17.3625 32.3138 18.162 33.1132 18.162 34.0995Z" fill="#FFC801"/>
<path d="M28.8763 34.0995C28.8763 35.0857 28.0768 35.8852 27.0905 35.8852C26.1043 35.8852 25.3048 35.0857 25.3048 34.0995C25.3048 33.1132 26.1043 32.3138 27.0905 32.3138C28.0768 32.3138 28.8763 33.1132 28.8763 34.0995Z" fill="#FFC801"/>
<path d="M39.5905 34.0995C39.5905 35.0857 38.791 35.8852 37.8048 35.8852C36.8186 35.8852 36.0191 35.0857 36.0191 34.0995C36.0191 33.1132 36.8186 32.3138 37.8048 32.3138C38.791 32.3138 39.5905 33.1132 39.5905 34.0995Z" fill="#FFC801"/>
<path d="M50.3048 34.0995C50.3048 35.0857 49.5053 35.8852 48.5191 35.8852C47.5329 35.8852 46.7334 35.0857 46.7334 34.0995C46.7334 33.1132 47.5329 32.3138 48.5191 32.3138C49.5053 32.3138 50.3048 33.1132 50.3048 34.0995Z" fill="#FFC801"/>
<path d="M61.0191 34.0995C61.0191 35.0857 60.2196 35.8852 59.2334 35.8852C58.2472 35.8852 57.4477 35.0857 57.4477 34.0995C57.4477 33.1132 58.2472 32.3138 59.2334 32.3138C60.2196 32.3138 61.0191 33.1132 61.0191 34.0995Z" fill="#FFC801"/>
<path d="M71.7334 34.0995C71.7334 35.0857 70.9339 35.8852 69.9477 35.8852C68.9615 35.8852 68.162 35.0857 68.162 34.0995C68.162 33.1132 68.9615 32.3138 69.9477 32.3138C70.9339 32.3138 71.7334 33.1132 71.7334 34.0995Z" fill="#FFC801"/>
<path d="M-24.6952 44.8138C-24.6952 45.8 -25.4947 46.5995 -26.4809 46.5995C-27.4671 46.5995 -28.2666 45.8 -28.2666 44.8138C-28.2666 43.8275 -27.4671 43.028 -26.4809 43.028C-25.4947 43.028 -24.6952 43.8275 -24.6952 44.8138Z" fill="#FFC801"/>
<path d="M-13.9809 44.8138C-13.9809 45.8 -14.7804 46.5995 -15.7666 46.5995C-16.7528 46.5995 -17.5523 45.8 -17.5523 44.8138C-17.5523 43.8275 -16.7528 43.028 -15.7666 43.028C-14.7804 43.028 -13.9809 43.8275 -13.9809 44.8138Z" fill="#FFC801"/>
<path d="M-3.2666 44.8138C-3.2666 45.8 -4.06609 46.5995 -5.05232 46.5995C-6.03854 46.5995 -6.83803 45.8 -6.83803 44.8138C-6.83803 43.8275 -6.03854 43.028 -5.05232 43.028C-4.06609 43.028 -3.2666 43.8275 -3.2666 44.8138Z" fill="#FFC801"/>
<path d="M7.44769 44.8138C7.44769 45.8 6.64819 46.5995 5.66197 46.5995C4.67575 46.5995 3.87626 45.8 3.87626 44.8138C3.87626 43.8275 4.67575 43.028 5.66197 43.028C6.64819 43.028 7.44769 43.8275 7.44769 44.8138Z" fill="#FFC801"/>
<path d="M18.162 44.8138C18.162 45.8 17.3625 46.5995 16.3763 46.5995C15.39 46.5995 14.5905 45.8 14.5905 44.8138C14.5905 43.8275 15.39 43.028 16.3763 43.028C17.3625 43.028 18.162 43.8275 18.162 44.8138Z" fill="#FFC801"/>
<path d="M28.8763 44.8138C28.8763 45.8 28.0768 46.5995 27.0905 46.5995C26.1043 46.5995 25.3048 45.8 25.3048 44.8138C25.3048 43.8275 26.1043 43.028 27.0905 43.028C28.0768 43.028 28.8763 43.8275 28.8763 44.8138Z" fill="#FFC801"/>
<path d="M39.5905 44.8138C39.5905 45.8 38.791 46.5995 37.8048 46.5995C36.8186 46.5995 36.0191 45.8 36.0191 44.8138C36.0191 43.8275 36.8186 43.028 37.8048 43.028C38.791 43.028 39.5905 43.8275 39.5905 44.8138Z" fill="#FFC801"/>
<path d="M50.3048 44.8138C50.3048 45.8 49.5053 46.5995 48.5191 46.5995C47.5329 46.5995 46.7334 45.8 46.7334 44.8138C46.7334 43.8275 47.5329 43.028 48.5191 43.028C49.5053 43.028 50.3048 43.8275 50.3048 44.8138Z" fill="#FFC801"/>
<path d="M61.0191 44.8138C61.0191 45.8 60.2196 46.5995 59.2334 46.5995C58.2472 46.5995 57.4477 45.8 57.4477 44.8138C57.4477 43.8275 58.2472 43.028 59.2334 43.028C60.2196 43.028 61.0191 43.8275 61.0191 44.8138Z" fill="#FFC801"/>
<path d="M71.7334 44.8138C71.7334 45.8 70.9339 46.5995 69.9477 46.5995C68.9615 46.5995 68.162 45.8 68.162 44.8138C68.162 43.8275 68.9615 43.028 69.9477 43.028C70.9339 43.028 71.7334 43.8275 71.7334 44.8138Z" fill="#FFC801"/>
<path d="M-24.6952 55.528C-24.6952 56.5143 -25.4947 57.3138 -26.4809 57.3138C-27.4671 57.3138 -28.2666 56.5143 -28.2666 55.528C-28.2666 54.5418 -27.4671 53.7423 -26.4809 53.7423C-25.4947 53.7423 -24.6952 54.5418 -24.6952 55.528Z" fill="#FFC801"/>
<path d="M-13.9809 55.528C-13.9809 56.5143 -14.7804 57.3138 -15.7666 57.3138C-16.7528 57.3138 -17.5523 56.5143 -17.5523 55.528C-17.5523 54.5418 -16.7528 53.7423 -15.7666 53.7423C-14.7804 53.7423 -13.9809 54.5418 -13.9809 55.528Z" fill="#FFC801"/>
<path d="M-3.2666 55.528C-3.2666 56.5143 -4.06609 57.3138 -5.05232 57.3138C-6.03854 57.3138 -6.83803 56.5143 -6.83803 55.528C-6.83803 54.5418 -6.03854 53.7423 -5.05232 53.7423C-4.06609 53.7423 -3.2666 54.5418 -3.2666 55.528Z" fill="#FFC801"/>
<path d="M7.44769 55.528C7.44769 56.5143 6.64819 57.3138 5.66197 57.3138C4.67575 57.3138 3.87626 56.5143 3.87626 55.528C3.87626 54.5418 4.67575 53.7423 5.66197 53.7423C6.64819 53.7423 7.44769 54.5418 7.44769 55.528Z" fill="#FFC801"/>
<path d="M18.162 55.528C18.162 56.5143 17.3625 57.3138 16.3763 57.3138C15.39 57.3138 14.5905 56.5143 14.5905 55.528C14.5905 54.5418 15.39 53.7423 16.3763 53.7423C17.3625 53.7423 18.162 54.5418 18.162 55.528Z" fill="#FFC801"/>
<path d="M28.8763 55.528C28.8763 56.5143 28.0768 57.3138 27.0905 57.3138C26.1043 57.3138 25.3048 56.5143 25.3048 55.528C25.3048 54.5418 26.1043 53.7423 27.0905 53.7423C28.0768 53.7423 28.8763 54.5418 28.8763 55.528Z" fill="#FFC801"/>
<path d="M39.5905 55.528C39.5905 56.5143 38.791 57.3138 37.8048 57.3138C36.8186 57.3138 36.0191 56.5143 36.0191 55.528C36.0191 54.5418 36.8186 53.7423 37.8048 53.7423C38.791 53.7423 39.5905 54.5418 39.5905 55.528Z" fill="#FFC801"/>
<path d="M50.3048 55.528C50.3048 56.5143 49.5053 57.3138 48.5191 57.3138C47.5329 57.3138 46.7334 56.5143 46.7334 55.528C46.7334 54.5418 47.5329 53.7423 48.5191 53.7423C49.5053 53.7423 50.3048 54.5418 50.3048 55.528Z" fill="#FFC801"/>
<path d="M61.0191 55.528C61.0191 56.5143 60.2196 57.3138 59.2334 57.3138C58.2472 57.3138 57.4477 56.5143 57.4477 55.528C57.4477 54.5418 58.2472 53.7423 59.2334 53.7423C60.2196 53.7423 61.0191 54.5418 61.0191 55.528Z" fill="#FFC801"/>
<path d="M71.7334 55.528C71.7334 56.5143 70.9339 57.3138 69.9477 57.3138C68.9615 57.3138 68.162 56.5143 68.162 55.528C68.162 54.5418 68.9615 53.7423 69.9477 53.7423C70.9339 53.7423 71.7334 54.5418 71.7334 55.528Z" fill="#FFC801"/>
<path d="M-24.6952 66.2423C-24.6952 67.2285 -25.4947 68.028 -26.4809 68.028C-27.4671 68.028 -28.2666 67.2285 -28.2666 66.2423C-28.2666 65.2561 -27.4671 64.4566 -26.4809 64.4566C-25.4947 64.4566 -24.6952 65.2561 -24.6952 66.2423Z" fill="#FFC801"/>
<path d="M-13.9809 66.2423C-13.9809 67.2285 -14.7804 68.028 -15.7666 68.028C-16.7528 68.028 -17.5523 67.2285 -17.5523 66.2423C-17.5523 65.2561 -16.7528 64.4566 -15.7666 64.4566C-14.7804 64.4566 -13.9809 65.2561 -13.9809 66.2423Z" fill="#FFC801"/>
<path d="M-3.2666 66.2423C-3.2666 67.2285 -4.06609 68.028 -5.05232 68.028C-6.03854 68.028 -6.83803 67.2285 -6.83803 66.2423C-6.83803 65.2561 -6.03854 64.4566 -5.05232 64.4566C-4.06609 64.4566 -3.2666 65.2561 -3.2666 66.2423Z" fill="#FFC801"/>
<path d="M7.44769 66.2423C7.44769 67.2285 6.64819 68.028 5.66197 68.028C4.67575 68.028 3.87626 67.2285 3.87626 66.2423C3.87626 65.2561 4.67575 64.4566 5.66197 64.4566C6.64819 64.4566 7.44769 65.2561 7.44769 66.2423Z" fill="#FFC801"/>
<path d="M18.162 66.2423C18.162 67.2285 17.3625 68.028 16.3763 68.028C15.39 68.028 14.5905 67.2285 14.5905 66.2423C14.5905 65.2561 15.39 64.4566 16.3763 64.4566C17.3625 64.4566 18.162 65.2561 18.162 66.2423Z" fill="#FFC801"/>
<path d="M28.8763 66.2423C28.8763 67.2285 28.0768 68.028 27.0905 68.028C26.1043 68.028 25.3048 67.2285 25.3048 66.2423C25.3048 65.2561 26.1043 64.4566 27.0905 64.4566C28.0768 64.4566 28.8763 65.2561 28.8763 66.2423Z" fill="#FFC801"/>
<path d="M39.5905 66.2423C39.5905 67.2285 38.791 68.028 37.8048 68.028C36.8186 68.028 36.0191 67.2285 36.0191 66.2423C36.0191 65.2561 36.8186 64.4566 37.8048 64.4566C38.791 64.4566 39.5905 65.2561 39.5905 66.2423Z" fill="#FFC801"/>
<path d="M50.3048 66.2423C50.3048 67.2285 49.5053 68.028 48.5191 68.028C47.5329 68.028 46.7334 67.2285 46.7334 66.2423C46.7334 65.2561 47.5329 64.4566 48.5191 64.4566C49.5053 64.4566 50.3048 65.2561 50.3048 66.2423Z" fill="#FFC801"/>
<path d="M61.0191 66.2423C61.0191 67.2285 60.2196 68.028 59.2334 68.028C58.2472 68.028 57.4477 67.2285 57.4477 66.2423C57.4477 65.2561 58.2472 64.4566 59.2334 64.4566C60.2196 64.4566 61.0191 65.2561 61.0191 66.2423Z" fill="#FFC801"/>
<path d="M71.7334 66.2423C71.7334 67.2285 70.9339 68.028 69.9477 68.028C68.9615 68.028 68.162 67.2285 68.162 66.2423C68.162 65.2561 68.9615 64.4566 69.9477 64.4566C70.9339 64.4566 71.7334 65.2561 71.7334 66.2423Z" fill="#FFC801"/>
<path d="M-13.9809 76.9566C-13.9809 77.9428 -14.7804 78.7423 -15.7666 78.7423C-16.7528 78.7423 -17.5523 77.9428 -17.5523 76.9566C-17.5523 75.9704 -16.7528 75.1709 -15.7666 75.1709C-14.7804 75.1709 -13.9809 75.9704 -13.9809 76.9566Z" fill="#FFC801"/>
<path d="M-3.2666 76.9566C-3.2666 77.9428 -4.06609 78.7423 -5.05232 78.7423C-6.03854 78.7423 -6.83803 77.9428 -6.83803 76.9566C-6.83803 75.9704 -6.03854 75.1709 -5.05232 75.1709C-4.06609 75.1709 -3.2666 75.9704 -3.2666 76.9566Z" fill="#FFC801"/>
<path d="M7.44769 76.9566C7.44769 77.9428 6.64819 78.7423 5.66197 78.7423C4.67575 78.7423 3.87626 77.9428 3.87626 76.9566C3.87626 75.9704 4.67575 75.1709 5.66197 75.1709C6.64819 75.1709 7.44769 75.9704 7.44769 76.9566Z" fill="#FFC801"/>
<path d="M18.162 76.9566C18.162 77.9428 17.3625 78.7423 16.3763 78.7423C15.39 78.7423 14.5905 77.9428 14.5905 76.9566C14.5905 75.9704 15.39 75.1709 16.3763 75.1709C17.3625 75.1709 18.162 75.9704 18.162 76.9566Z" fill="#FFC801"/>
<path d="M28.8763 76.9566C28.8763 77.9428 28.0768 78.7423 27.0905 78.7423C26.1043 78.7423 25.3048 77.9428 25.3048 76.9566C25.3048 75.9704 26.1043 75.1709 27.0905 75.1709C28.0768 75.1709 28.8763 75.9704 28.8763 76.9566Z" fill="#FFC801"/>
<path d="M39.5905 76.9566C39.5905 77.9428 38.791 78.7423 37.8048 78.7423C36.8186 78.7423 36.0191 77.9428 36.0191 76.9566C36.0191 75.9704 36.8186 75.1709 37.8048 75.1709C38.791 75.1709 39.5905 75.9704 39.5905 76.9566Z" fill="#FFC801"/>
<path d="M50.3048 76.9566C50.3048 77.9428 49.5053 78.7423 48.5191 78.7423C47.5329 78.7423 46.7334 77.9428 46.7334 76.9566C46.7334 75.9704 47.5329 75.1709 48.5191 75.1709C49.5053 75.1709 50.3048 75.9704 50.3048 76.9566Z" fill="#FFC801"/>
<path d="M61.0191 76.9566C61.0191 77.9428 60.2196 78.7423 59.2334 78.7423C58.2472 78.7423 57.4477 77.9428 57.4477 76.9566C57.4477 75.9704 58.2472 75.1709 59.2334 75.1709C60.2196 75.1709 61.0191 75.9704 61.0191 76.9566Z" fill="#FFC801"/>
<path d="M-3.2666 87.6709C-3.2666 88.6571 -4.06609 89.4566 -5.05232 89.4566C-6.03854 89.4566 -6.83803 88.6571 -6.83803 87.6709C-6.83803 86.6847 -6.03854 85.8852 -5.05232 85.8852C-4.06609 85.8852 -3.2666 86.6847 -3.2666 87.6709Z" fill="#FFC801"/>
<path d="M7.44769 87.6709C7.44769 88.6571 6.64819 89.4566 5.66197 89.4566C4.67575 89.4566 3.87626 88.6571 3.87626 87.6709C3.87626 86.6847 4.67575 85.8852 5.66197 85.8852C6.64819 85.8852 7.44769 86.6847 7.44769 87.6709Z" fill="#FFC801"/>
<path d="M18.162 87.6709C18.162 88.6571 17.3625 89.4566 16.3763 89.4566C15.39 89.4566 14.5905 88.6571 14.5905 87.6709C14.5905 86.6847 15.39 85.8852 16.3763 85.8852C17.3625 85.8852 18.162 86.6847 18.162 87.6709Z" fill="#FFC801"/>
<path d="M28.8763 87.6709C28.8763 88.6571 28.0768 89.4566 27.0905 89.4566C26.1043 89.4566 25.3048 88.6571 25.3048 87.6709C25.3048 86.6847 26.1043 85.8852 27.0905 85.8852C28.0768 85.8852 28.8763 86.6847 28.8763 87.6709Z" fill="#FFC801"/>
<path d="M39.5905 87.6709C39.5905 88.6571 38.791 89.4566 37.8048 89.4566C36.8186 89.4566 36.0191 88.6571 36.0191 87.6709C36.0191 86.6847 36.8186 85.8852 37.8048 85.8852C38.791 85.8852 39.5905 86.6847 39.5905 87.6709Z" fill="#FFC801"/>
<path d="M50.3048 87.6709C50.3048 88.6571 49.5053 89.4566 48.5191 89.4566C47.5329 89.4566 46.7334 88.6571 46.7334 87.6709C46.7334 86.6847 47.5329 85.8852 48.5191 85.8852C49.5053 85.8852 50.3048 86.6847 50.3048 87.6709Z" fill="#FFC801"/>
<path d="M7.44769 98.3852C7.44769 99.3714 6.64819 100.171 5.66197 100.171C4.67575 100.171 3.87626 99.3714 3.87626 98.3852C3.87626 97.399 4.67575 96.5995 5.66197 96.5995C6.64819 96.5995 7.44769 97.399 7.44769 98.3852Z" fill="#FFC801"/>
<path d="M18.162 98.3852C18.162 99.3714 17.3625 100.171 16.3763 100.171C15.39 100.171 14.5905 99.3714 14.5905 98.3852C14.5905 97.399 15.39 96.5995 16.3763 96.5995C17.3625 96.5995 18.162 97.399 18.162 98.3852Z" fill="#FFC801"/>
<path d="M28.8763 98.3852C28.8763 99.3714 28.0768 100.171 27.0905 100.171C26.1043 100.171 25.3048 99.3714 25.3048 98.3852C25.3048 97.399 26.1043 96.5995 27.0905 96.5995C28.0768 96.5995 28.8763 97.399 28.8763 98.3852Z" fill="#FFC801"/>
<path d="M39.5905 98.3852C39.5905 99.3714 38.791 100.171 37.8048 100.171C36.8186 100.171 36.0191 99.3714 36.0191 98.3852C36.0191 97.399 36.8186 96.5995 37.8048 96.5995C38.791 96.5995 39.5905 97.399 39.5905 98.3852Z" fill="#FFC801"/>
</svg>
