<svg width="15" height="15" viewBox="0 0 15 15" fill="none" xmlns="http://www.w3.org/2000/svg">
<g clip-path="url(#clip0_26640_225091)">
<path d="M11.2441 13.625H5.11914C4.597 13.625 4.09624 13.4176 3.72702 13.0484C3.35781 12.6792 3.15039 12.1784 3.15039 11.6562V5.53125C3.15039 5.00911 3.35781 4.50835 3.72702 4.13913C4.09624 3.76992 4.597 3.5625 5.11914 3.5625H11.2441C11.7663 3.5625 12.267 3.76992 12.6363 4.13913C13.0055 4.50835 13.2129 5.00911 13.2129 5.53125V11.6562C13.2129 12.1784 13.0055 12.6792 12.6363 13.0484C12.267 13.4176 11.7663 13.625 11.2441 13.625Z" fill="#B5BCCC"/>
<path d="M4.46289 2.6875H10.9127C10.7766 2.30393 10.5252 1.97188 10.1928 1.73689C9.86053 1.5019 9.46364 1.37549 9.05664 1.375H2.93164C2.4095 1.375 1.90874 1.58242 1.53952 1.95163C1.17031 2.32085 0.962891 2.82161 0.962891 3.34375V9.46875C0.963382 9.87575 1.08979 10.2726 1.32478 10.6049C1.55977 10.9373 1.89182 11.1887 2.27539 11.3248V4.875C2.27539 4.29484 2.50586 3.73844 2.91609 3.3282C3.32633 2.91797 3.88273 2.6875 4.46289 2.6875Z" fill="#B5BCCC"/>
</g>
<defs>
<clipPath id="clip0_26640_225091">
<rect width="14" height="14" fill="white" transform="translate(0.0878906 0.5)"/>
</clipPath>
</defs>
</svg>
