<svg width="33" height="33" viewBox="0 0 33 33" fill="none" xmlns="http://www.w3.org/2000/svg">
<path fill-rule="evenodd" clip-rule="evenodd" d="M23.1662 6.30655C24.1835 6.30655 25.0248 6.88522 25.6409 7.49322C26.2822 8.12388 26.8702 8.97188 27.3928 9.90655C28.4422 11.7812 29.3555 14.2305 29.9595 16.6505C30.5595 19.0519 30.8915 21.5599 30.6795 23.5319C30.4662 25.5119 29.4462 27.6399 27.1662 27.6399C25.1982 27.6399 23.6302 26.6265 22.3475 25.5985L21.8795 25.2132L21.2235 24.6599L20.6315 24.1692C19.2728 23.0692 18.0662 22.3065 16.4995 22.3065C14.9328 22.3065 13.7262 23.0692 12.3675 24.1692L11.7755 24.6599L11.1195 25.2132L10.6528 25.5985C9.36751 26.6265 7.79951 27.6399 5.83285 27.6399C3.55151 27.6399 2.53151 25.5119 2.31951 23.5319C2.10885 21.5585 2.43951 19.0519 3.03951 16.6505C3.64351 14.2305 4.55685 11.7812 5.60618 9.90522C6.12885 8.97188 6.71685 8.12388 7.35818 7.49188C7.97418 6.88522 8.81551 6.30655 9.83285 6.30655C10.5195 6.30655 11.1902 6.47055 11.8502 6.66655L12.6395 6.90788C12.7711 6.94877 12.9022 6.98744 13.0328 7.02388C14.1862 7.35455 15.3662 7.63988 16.4995 7.63988C17.6328 7.63988 18.8128 7.35455 19.9662 7.02388L21.1462 6.66788C21.8102 6.47188 22.4862 6.30655 23.1662 6.30655ZM23.1662 8.97322C22.6555 8.97322 22.1222 9.12788 21.6048 9.29722L20.9942 9.49855L20.6995 9.58922C19.5195 9.92522 18.0328 10.3065 16.4995 10.3065C14.9662 10.3065 13.4795 9.92522 12.2995 9.58922L12.0062 9.49855L11.3942 9.29722C10.8768 9.12655 10.3435 8.97322 9.83285 8.97322C9.27551 9.07722 8.77551 9.75322 8.39818 10.3799L8.18751 10.7465L7.93418 11.2079C7.02485 12.8319 6.18751 15.0479 5.62751 17.2972C5.10085 19.3985 4.84485 21.4119 4.94218 22.9105L4.97685 23.3012L5.00351 23.5359L5.04351 23.8132C5.13551 24.3479 5.33418 24.9732 5.83285 24.9732C6.91551 24.9732 7.81951 24.4346 8.94351 23.5412L9.48085 23.1039L10.4942 22.2559L10.9528 21.8825C12.3715 20.7585 14.1462 19.6399 16.4995 19.6399C18.8528 19.6399 20.6275 20.7599 22.0462 21.8825L22.5062 22.2559L23.5195 23.1039L24.0555 23.5412C25.1795 24.4346 26.0822 24.9732 27.1662 24.9732C27.6195 24.9732 27.8248 24.4572 27.9275 23.9612L27.9782 23.6706L28.0275 23.2479C28.1915 21.7199 27.9382 19.5612 27.3728 17.2972C26.8582 15.2359 26.1115 13.2012 25.2902 11.6252L24.8115 10.7452L24.6008 10.3812C24.2235 9.75322 23.7235 9.07722 23.1662 8.97322ZM11.8328 11.6399C12.7169 11.6399 13.5647 11.9911 14.1899 12.6162C14.815 13.2413 15.1662 14.0892 15.1662 14.9732C15.1662 15.8573 14.815 16.7051 14.1899 17.3302C13.5647 17.9554 12.7169 18.3065 11.8328 18.3065C10.9488 18.3065 10.1009 17.9554 9.47583 17.3302C8.8507 16.7051 8.49951 15.8573 8.49951 14.9732C8.49951 14.0892 8.8507 13.2413 9.47583 12.6162C10.1009 11.9911 10.9488 11.6399 11.8328 11.6399ZM21.1662 11.6399C21.4928 11.6399 21.808 11.7598 22.052 11.9768C22.2961 12.1938 22.452 12.4929 22.4902 12.8172L22.4995 12.9732V13.6399H23.1662C23.506 13.6403 23.8329 13.7704 24.08 14.0037C24.3271 14.237 24.4758 14.5558 24.4957 14.8951C24.5157 15.2343 24.4053 15.5684 24.1872 15.829C23.969 16.0896 23.6596 16.2571 23.3222 16.2972L23.1662 16.3065H22.4995V16.9732C22.4991 17.3131 22.369 17.6399 22.1357 17.887C21.9024 18.1342 21.5836 18.2829 21.2443 18.3028C20.9051 18.3227 20.571 18.2123 20.3104 17.9942C20.0498 17.7761 19.8823 17.4667 19.8422 17.1292L19.8328 16.9732V16.3065H19.1662C18.8263 16.3062 18.4995 16.176 18.2524 15.9428C18.0052 15.7095 17.8565 15.3906 17.8366 15.0514C17.8167 14.7121 17.9271 14.378 18.1452 14.1174C18.3633 13.8568 18.6727 13.6894 19.0102 13.6492L19.1662 13.6399H19.8328V12.9732C19.8328 12.6196 19.9733 12.2805 20.2234 12.0304C20.4734 11.7804 20.8126 11.6399 21.1662 11.6399ZM11.8328 14.3065C11.656 14.3065 11.4865 14.3768 11.3614 14.5018C11.2364 14.6268 11.1662 14.7964 11.1662 14.9732C11.1662 15.15 11.2364 15.3196 11.3614 15.4446C11.4865 15.5696 11.656 15.6399 11.8328 15.6399C12.0097 15.6399 12.1792 15.5696 12.3043 15.4446C12.4293 15.3196 12.4995 15.15 12.4995 14.9732C12.4995 14.7964 12.4293 14.6268 12.3043 14.5018C12.1792 14.3768 12.0097 14.3065 11.8328 14.3065Z" fill="#0D8B71"/>
</svg>
