<svg width="50" height="54" viewBox="0 0 50 54" fill="none" xmlns="http://www.w3.org/2000/svg">
<path opacity="0.25" d="M25.001 53.7284C38.8076 53.7284 50.0001 42.3084 50.0001 28.2212C50.0001 14.134 38.8076 2.71411 25.001 2.71411C11.1944 2.71411 0.00195312 14.134 0.00195312 28.2212C0.00195312 42.3084 11.1944 53.7284 25.001 53.7284Z" fill="black"/>
<path d="M49.9982 25.5094C49.9982 39.5967 38.8056 51.0177 24.9991 51.0177C11.1926 51.0177 0 39.5967 0 25.5094C0 11.422 11.1926 0.00219727 24.9991 0.00219727C38.8056 0.00219727 49.9982 11.422 49.9982 25.5094Z" fill="#BF1E1E"/>
<path d="M48.6404 25.002C48.6404 38.0592 38.0552 48.6439 24.9979 48.6439C11.9407 48.6439 1.35547 38.0592 1.35547 25.002C1.35547 11.9447 11.9407 1.35889 24.9979 1.35889C38.0552 1.35889 48.6404 11.9441 48.6404 25.002Z" fill="#FF4B33"/>
<path d="M47.1183 25.0021C47.1183 37.2166 37.2157 47.1192 25.0005 47.1192C12.7854 47.1192 2.88281 37.2166 2.88281 25.0021C2.88281 12.7864 12.7854 2.88379 25.0005 2.88379C37.2157 2.88379 47.1183 12.7864 47.1183 25.0021Z" fill="url(#paint0_linear_26645_237227)"/>
<path d="M27.8061 6.81195C29.1726 9.94268 25.7954 14.4393 20.2622 16.8547C14.729 19.2694 9.13564 18.6901 7.76854 15.5588C6.40144 12.4269 9.7786 7.93027 15.3118 5.51493C20.845 3.10075 26.439 3.68006 27.8061 6.81195Z" fill="url(#paint1_linear_26645_237227)"/>
<path d="M17.6882 6.3788C18.3832 7.63027 17.1557 9.63857 14.947 10.8673C12.7378 12.096 10.3838 12.0773 9.68828 10.8276C8.99393 9.57725 10.2209 7.56893 12.4301 6.34023C14.6382 5.11153 16.9933 5.13024 17.6882 6.3788Z" fill="white"/>
<path d="M21.734 4.11756C21.8508 4.71381 21.0939 5.36439 20.0416 5.5717C18.9898 5.77902 18.0421 5.46539 17.9241 4.87031C17.8067 4.27465 18.5647 3.62352 19.6159 3.41621C20.6676 3.20889 21.6166 3.52248 21.734 4.11756Z" fill="white"/>
<path d="M16.3626 22.7562C13.6395 22.7562 11.4238 20.5411 11.4238 17.8186C11.4238 15.0955 13.6395 12.8799 16.3626 12.8799C19.0851 12.8799 21.3001 15.0955 21.3001 17.8186C21.3001 20.5411 19.0851 22.7562 16.3626 22.7562Z" fill="#A61919"/>
<path d="M22.668 22.1246C20.9365 22.1246 19.5156 20.7031 19.5156 18.9559V17.3009C19.5156 15.5764 20.9008 14.169 22.6172 14.1328L33.9067 13.4104H33.9628C37.3265 13.4104 37.8281 15.3947 37.8281 16.5779V19.0587C37.8281 21.1616 36.5276 22.2273 33.9628 22.2273L22.668 22.1246Z" fill="#A61919"/>
<path d="M16.3626 30.9581C13.6395 30.9581 11.4238 28.7431 11.4238 26.0205C11.4238 23.2974 13.6395 21.0818 16.3626 21.0818C19.0851 21.0818 21.3001 23.2974 21.3001 26.0205C21.3001 28.7431 19.0851 30.9581 16.3626 30.9581Z" fill="#A61919"/>
<path d="M22.6318 30.0983C20.9365 30.0983 19.5156 28.6769 19.5156 26.9302V25.2752C19.5156 23.5431 20.9125 22.1317 22.6388 22.1071L33.9628 21.6113C37.3265 21.6113 37.8281 23.5957 37.8281 24.7788V27.2596C37.8281 29.3625 36.5276 30.4283 33.9628 30.4283L22.6318 30.0983Z" fill="#A61919"/>
<path d="M16.3626 39.1456C13.6395 39.1456 11.4238 36.93 11.4238 34.2069C11.4238 31.4843 13.6395 29.2693 16.3626 29.2693C19.0851 29.2693 21.3001 31.4843 21.3001 34.2069C21.3001 36.93 19.0851 39.1456 16.3626 39.1456Z" fill="#A61919"/>
<path d="M33.8506 38.6118L22.6172 37.8917C20.9014 37.8555 19.5156 36.4487 19.5156 34.7248V33.0698C19.5156 31.3225 20.9371 29.9011 22.6843 29.9011L33.9464 29.7983C36.5276 29.7983 37.8276 30.8641 37.8276 32.967V35.4466C37.8276 36.3997 37.4509 38.6153 33.9622 38.6153L33.8506 38.6118Z" fill="#A61919"/>
<path d="M16.3587 14.0474C14.5974 14.0474 13.1719 15.474 13.1719 17.2341C13.1719 18.9931 14.5974 20.4198 16.3587 20.4198C18.1176 20.4198 19.5443 18.9931 19.5443 17.2341C19.5443 15.474 18.117 14.0474 16.3587 14.0474Z" fill="white"/>
<path d="M33.9589 14.5774L22.6804 15.2992C21.8979 15.2992 21.2637 15.9334 21.2637 16.7159V18.3709C21.2637 19.1535 21.8979 19.7877 22.6804 19.7877L33.9589 19.8904C35.1665 19.8904 36.0723 19.7789 36.0723 18.4737V15.9929C36.0723 14.8659 35.288 14.5774 33.9589 14.5774Z" fill="white"/>
<path d="M16.3587 22.2493C14.5974 22.2493 13.1719 23.6748 13.1719 25.4361C13.1719 27.195 14.5974 28.6217 16.3587 28.6217C18.1176 28.6217 19.5443 27.195 19.5443 25.4361C19.5443 23.6748 18.117 22.2493 16.3587 22.2493Z" fill="white"/>
<path d="M33.9589 22.7793L22.6804 23.2745C21.8979 23.2745 21.2637 23.9087 21.2637 24.6912V26.3462C21.2637 27.1288 21.8979 27.763 22.6804 27.763L33.9589 28.0924C35.1665 28.0924 36.0723 27.9808 36.0723 26.6756V24.1949C36.0723 23.0678 35.288 22.7793 33.9589 22.7793Z" fill="white"/>
<path d="M16.3587 30.4363C14.5974 30.4363 13.1719 31.8618 13.1719 33.6219C13.1719 35.382 14.5974 36.8087 16.3587 36.8087C18.1176 36.8087 19.5443 35.382 19.5443 33.6219C19.5443 31.8618 18.117 30.4363 16.3587 30.4363Z" fill="white"/>
<path d="M33.9589 30.9653L22.6804 31.0681C21.8979 31.0681 21.2637 31.7023 21.2637 32.4848V34.1398C21.2637 34.9212 21.8979 35.5554 22.6804 35.5554L33.9589 36.2784C35.2874 36.2784 36.0723 35.9887 36.0723 34.8617V32.3821C36.0723 31.0769 35.1671 30.9653 33.9589 30.9653Z" fill="white"/>
<path d="M16.3587 14.0474C14.5974 14.0474 13.1719 15.474 13.1719 17.2341C13.1719 18.9931 14.5974 20.4198 16.3587 20.4198C18.1176 20.4198 19.5443 18.9931 19.5443 17.2341C19.5443 15.474 18.117 14.0474 16.3587 14.0474Z" fill="white"/>
<path d="M33.9589 14.5774L22.6804 15.2992C21.8979 15.2992 21.2637 15.9334 21.2637 16.7159V18.3709C21.2637 19.1535 21.8979 19.7877 22.6804 19.7877L33.9589 19.8904C35.1665 19.8904 36.0723 19.7789 36.0723 18.4737V15.9929C36.0723 14.8659 35.288 14.5774 33.9589 14.5774Z" fill="white"/>
<path d="M16.3587 22.2493C14.5974 22.2493 13.1719 23.6748 13.1719 25.4361C13.1719 27.195 14.5974 28.6217 16.3587 28.6217C18.1176 28.6217 19.5443 27.195 19.5443 25.4361C19.5443 23.6748 18.117 22.2493 16.3587 22.2493Z" fill="white"/>
<path d="M33.9589 22.7793L22.6804 23.2745C21.8979 23.2745 21.2637 23.9087 21.2637 24.6912V26.3462C21.2637 27.1288 21.8979 27.763 22.6804 27.763L33.9589 28.0924C35.1665 28.0924 36.0723 27.9808 36.0723 26.6756V24.1949C36.0723 23.0678 35.288 22.7793 33.9589 22.7793Z" fill="white"/>
<path d="M16.3587 30.4363C14.5974 30.4363 13.1719 31.8618 13.1719 33.6219C13.1719 35.382 14.5974 36.8087 16.3587 36.8087C18.1176 36.8087 19.5443 35.382 19.5443 33.6219C19.5443 31.8618 18.117 30.4363 16.3587 30.4363Z" fill="white"/>
<path d="M33.9589 30.9653L22.6804 31.0681C21.8979 31.0681 21.2637 31.7023 21.2637 32.4848V34.1398C21.2637 34.9212 21.8979 35.5554 22.6804 35.5554L33.9589 36.2784C35.2874 36.2784 36.0723 35.9887 36.0723 34.8617V32.3821C36.0723 31.0769 35.1671 30.9653 33.9589 30.9653Z" fill="white"/>
<defs>
<linearGradient id="paint0_linear_26645_237227" x1="25.0002" y1="2.3752" x2="25.0002" y2="48.1811" gradientUnits="userSpaceOnUse">
<stop stop-color="#FF2626"/>
<stop offset="1" stop-color="#D92121"/>
</linearGradient>
<linearGradient id="paint1_linear_26645_237227" x1="16.4063" y1="2.77279" x2="19.2027" y2="19.8059" gradientUnits="userSpaceOnUse">
<stop stop-color="#FF8080"/>
<stop offset="0.5394" stop-color="#FF2626"/>
<stop offset="1" stop-color="#F72626"/>
</linearGradient>
</defs>
</svg>
