<svg width="14" height="14" viewBox="0 0 14 14" fill="none" xmlns="http://www.w3.org/2000/svg">
<path d="M12.9406 6.90431L7.30918 1.27697C7.26863 1.23634 7.22047 1.20411 7.16745 1.18212C7.11443 1.16012 7.05759 1.1488 7.0002 1.1488C6.9428 1.1488 6.88596 1.16012 6.83294 1.18212C6.77992 1.20411 6.73176 1.23634 6.69121 1.27697L1.05977 6.90431C0.895703 7.06837 0.802734 7.29122 0.802734 7.52365C0.802734 8.00626 1.19512 8.39865 1.67773 8.39865H2.27109V12.4141C2.27109 12.6561 2.4666 12.8516 2.70859 12.8516H6.1252V9.78908H7.65645V12.8516H11.2918C11.5338 12.8516 11.7293 12.6561 11.7293 12.4141V8.39865H12.3227C12.5551 8.39865 12.7779 8.30704 12.942 8.14161C13.2824 7.79982 13.2824 7.24611 12.9406 6.90431Z" fill="#6D7588"/>
</svg>
