<svg width="50" height="54" viewBox="0 0 50 54" fill="none" xmlns="http://www.w3.org/2000/svg">
<path opacity="0.25" d="M25.001 53.7283C38.8076 53.7283 50.0001 42.3084 50.0001 28.2212C50.0001 14.134 38.8076 2.71411 25.001 2.71411C11.1944 2.71411 0.00195312 14.134 0.00195312 28.2212C0.00195312 42.3084 11.1944 53.7283 25.001 53.7283Z" fill="black"/>
<path d="M49.9981 25.5093C49.9981 39.5967 38.8061 51.0176 24.999 51.0176C11.192 51.0176 0 39.5967 0 25.5093C0 11.422 11.192 0.00219727 24.999 0.00219727C38.8061 0.00219727 49.9981 11.422 49.9981 25.5093Z" fill="#BF1E1E"/>
<path d="M48.6404 25.0019C48.6404 38.0592 38.0551 48.6438 24.9979 48.6438C11.9407 48.6438 1.35547 38.0592 1.35547 25.0019C1.35547 11.9447 11.9407 1.35889 24.9979 1.35889C38.0551 1.35889 48.6404 11.9441 48.6404 25.0019Z" fill="#FF4B33"/>
<path d="M47.117 25.0021C47.117 37.2166 37.215 47.1191 24.9999 47.1191C12.7847 47.1191 2.88281 37.2166 2.88281 25.0021C2.88281 12.7863 12.7847 2.88379 24.9999 2.88379C37.215 2.88379 47.117 12.7863 47.117 25.0021Z" fill="url(#paint0_linear_26645_237195)"/>
<path d="M27.806 6.81293C29.1725 9.94365 25.7954 14.4403 20.2622 16.8556C14.7284 19.2704 9.13505 18.6911 7.76854 15.5598C6.40144 12.4279 9.77859 7.93124 15.3118 5.5159C20.8456 3.10172 26.4395 3.68104 27.806 6.81293Z" fill="url(#paint1_linear_26645_237195)"/>
<path d="M17.6884 6.37879C18.3834 7.63026 17.1565 9.63856 14.9473 10.8673C12.7381 12.0959 10.384 12.0773 9.68851 10.8275C8.99357 9.57724 10.2211 7.56892 12.4297 6.34023C14.6395 5.11153 16.9935 5.13024 17.6884 6.37879Z" fill="white"/>
<path d="M21.7334 4.11756C21.8508 4.7138 21.0933 5.36439 20.0422 5.5717C18.9898 5.77901 18.0415 5.46539 17.9241 4.87031C17.8067 4.27465 18.5641 3.62352 19.6164 3.41621C20.6682 3.20889 21.616 3.52248 21.7334 4.11756Z" fill="white"/>
<path d="M15.404 38.0561C14.9625 38.0561 14.5613 37.9528 14.2121 37.7495C12.5705 36.7953 12.5787 35.1847 12.5974 31.2913C12.6003 30.7505 12.6032 30.1519 12.6032 29.4891L12.6628 22.6624V22.2016C12.6611 17.8077 12.661 15.9887 13.8296 14.7687C14.1315 14.4551 14.6699 14.0814 15.5331 14.0814C17.3586 14.0814 20.525 16.1755 23.0618 18.1874C23.1652 16.5417 23.439 15.5291 24.1667 14.7693C24.4686 14.4545 25.0076 14.0808 25.8707 14.0808C28.178 14.0808 32.3377 17.2933 34.0196 18.6744C37.8814 21.8471 39.8401 24.3478 39.8401 26.1073C39.8401 29.9376 28.7935 38.0538 25.7422 38.055C25.3008 38.055 24.9001 37.9516 24.5509 37.749C23.3567 37.0552 23.0355 36.0139 22.9566 33.9992C20.393 35.9865 17.2039 38.0561 15.404 38.0561Z" fill="#A61919"/>
<path d="M14.3515 28.9048L14.4111 22.0933C14.4111 17.9745 14.3813 16.1373 15.0908 15.3968C15.9791 14.4706 21.2945 18.0679 24.7481 21.3744C24.747 17.7578 24.7616 16.0923 25.4279 15.3968C26.7623 14.0052 38.0839 22.8162 38.0839 25.5242C38.0839 28.2321 26.9801 36.555 25.4279 35.6516C24.5876 35.1634 24.6763 33.8395 24.6874 29.6681C21.2804 32.8379 16.1122 36.2472 15.0903 35.6516C14.2003 35.1336 14.3515 33.6853 14.3515 28.9048Z" fill="white"/>
<path d="M14.3515 28.9048L14.4111 22.0933C14.4111 17.9745 14.3813 16.1373 15.0908 15.3968C15.9791 14.4706 21.2945 18.0679 24.7481 21.3744C24.747 17.7578 24.7616 16.0923 25.4279 15.3968C26.7623 14.0052 38.0839 22.8162 38.0839 25.5242C38.0839 28.2321 26.9801 36.555 25.4279 35.6516C24.5876 35.1634 24.6763 33.8395 24.6874 29.6681C21.2804 32.8379 16.1122 36.2472 15.0903 35.6516C14.2003 35.1336 14.3515 33.6853 14.3515 28.9048Z" fill="white"/>
<defs>
<linearGradient id="paint0_linear_26645_237195" x1="24.9998" y1="2.3752" x2="24.9998" y2="48.181" gradientUnits="userSpaceOnUse">
<stop stop-color="#FF2626"/>
<stop offset="1" stop-color="#D92121"/>
</linearGradient>
<linearGradient id="paint1_linear_26645_237195" x1="16.4064" y1="2.77382" x2="19.2029" y2="19.8068" gradientUnits="userSpaceOnUse">
<stop stop-color="#FF8080"/>
<stop offset="0.5394" stop-color="#FF2626"/>
<stop offset="1" stop-color="#F72626"/>
</linearGradient>
</defs>
</svg>
