<svg width="51" height="55" viewBox="0 0 51 55" fill="none" xmlns="http://www.w3.org/2000/svg">
<path opacity="0.25" d="M50.2031 28.9341C50.2031 43.022 39.0101 54.4422 25.2026 54.4422C11.3956 54.4422 0.203125 43.022 0.203125 28.9341C0.203125 14.8462 11.3956 3.42603 25.2026 3.42603C39.0101 3.42661 50.2031 14.8462 50.2031 28.9341Z" fill="black"/>
<path d="M50.2031 26.222C50.2031 40.3099 39.0101 51.7312 25.2026 51.7312C11.3956 51.7312 0.203125 40.3099 0.203125 26.222C0.203125 12.1341 11.3956 0.713867 25.2026 0.713867C39.0101 0.713867 50.2031 12.1341 50.2031 26.222Z" fill="#BF1E1E"/>
<path d="M48.8473 25.7143C48.8473 38.772 38.2611 49.3571 25.2033 49.3571C12.1456 49.3571 1.56055 38.772 1.56055 25.7143C1.56055 12.6566 12.1456 2.07031 25.2033 2.07031C38.2611 2.07031 48.8473 12.656 48.8473 25.7143Z" fill="#FF4B33"/>
<path d="M47.3209 25.7146C47.3209 37.9296 37.4186 47.8325 25.2025 47.8325C12.9874 47.8325 3.08447 37.9296 3.08447 25.7146C3.08447 13.4984 12.9874 3.59546 25.2025 3.59546C37.4186 3.59546 47.3209 13.4984 47.3209 25.7146Z" fill="url(#paint0_linear_27384_19336)"/>
<path d="M28.0108 7.52446C29.3774 10.6553 26.0001 15.1521 20.4667 17.5675C14.9327 19.9824 9.33909 19.4031 7.97194 16.2716C6.60537 13.1396 9.98264 8.64282 15.5161 6.22738C21.0495 3.81311 26.6431 4.39245 28.0108 7.52446Z" fill="url(#paint1_linear_27384_19336)"/>
<path d="M17.8899 7.09123C18.5843 8.34275 17.3574 10.3511 15.1481 11.5799C12.9388 12.8086 10.5846 12.7899 9.88968 11.5402C9.19472 10.2898 10.4223 8.28141 12.631 7.05267C14.8397 5.82392 17.1938 5.84263 17.8899 7.09123Z" fill="white"/>
<path d="M21.9387 4.8295C22.0555 5.42577 21.2986 6.07638 20.2468 6.2837C19.195 6.49102 18.2467 6.17738 18.1287 5.58228C18.0113 4.9866 18.7693 4.33544 19.8211 4.12812C20.8729 3.9208 21.8213 4.2344 21.9387 4.8295Z" fill="white"/>
<path d="M23.4876 40.2174C16.8521 39.9132 11.4536 33.8821 11.4536 26.7725C11.4536 19.3048 17.529 13.2295 24.996 13.2295C32.4631 13.2295 38.5379 19.3043 38.5379 26.7725C38.5379 27.4774 38.4813 28.1852 38.3703 28.8872C40.037 29.9904 40.6958 30.843 40.725 31.844C40.7472 32.5938 40.4161 33.3116 39.7112 34.0375C37.7904 36.0167 31.7197 38.9612 29.5623 38.9612C29.1699 38.9612 28.8277 38.8883 28.5182 38.7387C27.464 38.2301 26.7276 36.2591 26.2371 34.2629C26.2832 34.7821 26.2832 35.3089 26.2832 35.8029C26.2832 37.347 26.2832 40.2215 23.6581 40.2215C23.602 40.2215 23.5454 40.2198 23.4876 40.2174ZM24.996 22.3399C22.552 22.3399 20.5635 24.3284 20.5635 26.7725C20.5635 28.9929 22.3926 30.5785 24.0926 31.1122C25.0714 31.4194 25.6127 32.032 25.9118 32.7761C25.5795 31.0568 25.4311 29.6078 25.4171 29.4688C25.1595 26.8712 25.4159 25.5887 26.3317 24.8961C26.7218 24.6029 27.2042 24.4558 27.7701 24.4558C27.9266 24.4558 28.2413 24.4558 28.8499 24.5878C28.0878 23.2457 26.6453 22.3399 24.996 22.3399Z" fill="#A61919"/>
<path d="M36.4074 29.147C36.6515 28.2004 36.7858 27.2105 36.7858 26.1885C36.7858 19.6768 31.507 14.3975 24.996 14.3975C18.4844 14.3975 13.2056 19.6762 13.2056 26.1885C13.2056 32.2154 17.8367 37.6209 23.5681 37.8831C24.1865 37.9117 24.5305 37.7027 24.5305 35.2183C24.5305 32.7556 24.2327 32.4075 23.5681 32.199C21.0247 31.4007 18.8114 29.1102 18.8114 26.1879C18.8114 22.7715 21.5807 20.0033 24.996 20.0033C28.4112 20.0033 31.1794 22.7715 31.1794 26.1879C31.1794 26.3257 31.1689 26.4618 31.1601 26.5973C29.3111 25.8591 27.7624 25.4281 27.3892 25.709C26.3375 26.5038 28.1741 36.0429 29.2802 36.5767C30.3869 37.1117 39.0249 33.0341 38.9735 31.3102C38.9601 30.836 37.8901 30.0172 36.4074 29.147Z" fill="white"/>
<path d="M36.4074 29.147C36.6515 28.2004 36.7858 27.2105 36.7858 26.1885C36.7858 19.6768 31.507 14.3975 24.996 14.3975C18.4844 14.3975 13.2056 19.6762 13.2056 26.1885C13.2056 32.2154 17.8367 37.6209 23.5681 37.8831C24.1865 37.9117 24.5305 37.7027 24.5305 35.2183C24.5305 32.7556 24.2327 32.4075 23.5681 32.199C21.0247 31.4007 18.8114 29.1102 18.8114 26.1879C18.8114 22.7715 21.5807 20.0033 24.996 20.0033C28.4112 20.0033 31.1794 22.7715 31.1794 26.1879C31.1794 26.3257 31.1689 26.4618 31.1601 26.5973C29.3111 25.8591 27.7624 25.4281 27.3892 25.709C26.3375 26.5038 28.1741 36.0429 29.2802 36.5767C30.3869 37.1117 39.0249 33.0341 38.9735 31.3102C38.9601 30.836 37.8901 30.0172 36.4074 29.147Z" fill="white"/>
<defs>
<linearGradient id="paint0_linear_27384_19336" x1="25.2028" y1="3.08685" x2="25.2028" y2="48.8944" gradientUnits="userSpaceOnUse">
<stop stop-color="#FF2626"/>
<stop offset="1" stop-color="#D92121"/>
</linearGradient>
<linearGradient id="paint1_linear_27384_19336" x1="16.6102" y1="3.48514" x2="19.4067" y2="20.5189" gradientUnits="userSpaceOnUse">
<stop stop-color="#FF8080"/>
<stop offset="0.5394" stop-color="#FF2626"/>
<stop offset="1" stop-color="#F72626"/>
</linearGradient>
</defs>
</svg>
