<svg width="60" height="61" viewBox="0 0 60 61" fill="none" xmlns="http://www.w3.org/2000/svg">
<path d="M60 30.5516C60 9.64762 49.1134 0.551575 30 0.551575C10.8866 0.551575 0 9.64708 0 30.5516C0 51.4561 10.8866 60.5516 30 60.5516C48.5131 61.0981 58.0748 53.208 60 30.5516Z" fill="#FBBE2B"/>
<path d="M30 0.551575C10.8866 0.551575 0 9.64708 0 30.5516C0 39.8486 2.15828 46.8043 6.23097 51.669C11.2956 55.8911 18.4116 57.8674 27.3158 57.8674C46.4293 57.8674 57.3158 48.7719 57.3158 27.8674C57.3158 18.5704 55.1575 11.6147 51.0849 6.74997C46.0202 2.52789 38.9037 0.551575 30 0.551575Z" fill="#FFCC3E"/>
<path d="M18.9312 32.5954C21.4184 32.5954 23.4347 30.0214 23.4347 26.8463C23.4347 23.6711 21.4184 21.0971 18.9312 21.0971C16.444 21.0971 14.4277 23.6711 14.4277 26.8463C14.4277 30.0214 16.444 32.5954 18.9312 32.5954Z" fill="#414141"/>
<path d="M41.0679 32.5954C43.5551 32.5954 45.5714 30.0214 45.5714 26.8463C45.5714 23.6711 43.5551 21.0971 41.0679 21.0971C38.5807 21.0971 36.5645 23.6711 36.5645 26.8463C36.5645 30.0214 38.5807 32.5954 41.0679 32.5954Z" fill="#414141"/>
<path d="M41.8806 47.2395C39.1726 42.6437 34.9212 39.6727 30.1298 39.6727C25.3384 39.6727 21.087 42.6437 18.3789 47.2395C21.0131 45.3572 25.2933 44.1316 30.1298 44.1316C34.9657 44.1316 39.2459 45.3577 41.8806 47.2395Z" fill="#414141"/>
</svg>
