<svg width="100" height="25" viewBox="0 0 100 25" fill="none" xmlns="http://www.w3.org/2000/svg">
<g clip-path="url(#clip0_24900_32411)">
<path d="M31.1642 10.5944C31.1642 10.0473 31.609 9.72468 32.4195 9.72468C33.3896 9.72468 33.9757 10.2302 34.0784 10.9999H37.278C37.0558 8.77442 35.4342 7.15723 32.5219 7.15723C29.6096 7.15723 27.9273 8.73516 27.9273 10.6555C27.9273 14.8033 34.0772 13.4888 34.0772 15.3112C34.0772 15.8167 33.613 16.2202 32.7215 16.2202C31.7692 16.2202 31.0626 15.6949 30.9821 14.9037H27.5635C27.725 17.0899 29.7497 18.7682 32.7639 18.7682C35.5972 18.7682 37.3367 17.2903 37.3367 15.3287C37.2756 11.1229 31.1642 12.395 31.1642 10.5944Z" fill="#08A081"/>
<path d="M49.4969 12.7806C49.4969 9.34102 47.1711 7.15723 43.871 7.15723C40.5711 7.15723 38.165 9.38269 38.165 12.9639C38.165 16.5452 40.5516 18.7706 43.8714 18.7706C46.6852 18.7706 48.6885 17.0705 49.2353 14.8668H45.5517C45.3999 15.2117 45.1457 15.5015 44.8235 15.6969C44.5014 15.8922 44.1273 15.9837 43.7511 15.9587C42.6402 15.9587 41.7306 15.2723 41.6086 13.7944H49.44C49.4793 13.458 49.4998 13.1196 49.501 12.781L49.4969 12.7806ZM41.6262 11.8716C41.6754 11.3276 41.9316 10.8231 42.3413 10.4619C42.7511 10.1007 43.2836 9.91015 43.8297 9.92943C44.9611 9.92943 45.9549 10.6377 45.9549 11.8716H41.6262Z" fill="#08A081"/>
<path d="M58.4808 7.32136V8.91755C57.8725 7.92562 56.6801 7.15869 54.9998 7.15869C52.2253 7.15869 50.0215 9.38415 50.0215 12.9435C50.0215 16.503 52.2253 18.7717 54.9814 18.7717C55.6666 18.8035 56.3485 18.6584 56.9617 18.3503C57.5745 18.0423 58.098 17.5817 58.4816 17.0128V18.6106H61.9404V7.32136H58.4808ZM56.0112 15.7587C54.7165 15.7587 53.5417 14.7453 53.5417 12.9447C53.5417 11.1442 54.7165 10.1721 56.0112 10.1721C57.306 10.1721 58.4808 11.1641 58.4808 12.9642C58.4808 14.7643 57.3277 15.7562 56.0112 15.7562V15.7587Z" fill="#08A081"/>
<path d="M70.2948 12.9859L74.9898 7.32123H70.7197L67.3001 11.9138V3.63525H63.8408V18.6093H67.3001V13.8751L70.7397 18.6093H75.0291L70.2948 12.9859Z" fill="#08A081"/>
<path d="M83.4271 7.3208V13.4501C83.4271 14.9887 82.5749 15.8366 81.2409 15.8366C79.9069 15.8366 79.0739 14.9887 79.0739 13.4501V7.3208H75.6367V13.9143C75.6367 16.9297 77.3956 18.7314 80.0047 18.7314C80.667 18.7505 81.3236 18.6095 81.9196 18.3203C82.5151 18.0312 83.0325 17.6024 83.4271 17.0706V18.6093H86.886V7.3208H83.4271Z" fill="#08A081"/>
<path d="M95.6485 7.1988C94.9911 7.17826 94.3378 7.31415 93.7426 7.59528C93.1478 7.87646 92.628 8.29483 92.2264 8.81604V7.32103H88.7676V18.6079H92.2264V12.4802C92.2264 10.9415 93.0787 10.0936 94.393 10.0936C95.707 10.0936 96.5572 10.9415 96.5572 12.4802V18.6079H99.9968V12.0116C99.9968 8.97752 98.2575 7.19684 95.6464 7.19684L95.6485 7.1988Z" fill="#08A081"/>
<path d="M12.2776 0.220215C9.84904 0.220686 7.47519 0.941234 5.45612 2.29076C3.43704 3.64028 1.86345 5.55816 0.934306 7.80196C0.00516038 10.0457 -0.237824 12.5146 0.236078 14.8965C0.709979 17.2783 1.87948 19.4662 3.59673 21.1835C5.31396 22.9007 7.50184 24.0702 9.88371 24.5441C12.2656 25.018 14.7345 24.775 16.9782 23.8459C19.222 22.9167 21.1399 21.3431 22.4894 19.3241C23.839 17.305 24.5595 14.9311 24.56 12.5026C24.56 10.8896 24.2423 9.2925 23.625 7.80233C23.0078 6.31215 22.1031 4.95816 20.9625 3.81764C19.822 2.67711 18.468 1.7724 16.9779 1.15516C15.4877 0.537908 13.8905 0.220215 12.2776 0.220215ZM20.0305 9.53593C20.0284 9.55996 20.0216 9.58337 20.0104 9.6047C19.9991 9.62603 19.9837 9.6449 19.965 9.66012C19.9308 9.68624 19.8889 9.7002 19.846 9.69979C19.8372 9.69979 19.5496 9.66487 19.5496 9.66487C19.5259 9.66266 19.5028 9.65574 19.4818 9.64453C19.4608 9.63331 19.4423 9.618 19.4273 9.59954C19.4122 9.58108 19.401 9.5598 19.3943 9.53696C19.3876 9.51412 19.3855 9.49017 19.3881 9.46651C19.3881 9.46651 19.423 9.06103 19.423 8.8539C19.4235 7.55087 18.9341 6.29529 18.0522 5.33614C17.906 5.172 17.7134 5.05611 17.4999 5.00384C17.2864 4.95153 17.0621 4.96524 16.8565 5.04322C16.651 5.1212 16.474 5.25972 16.3489 5.44048C16.2238 5.6212 16.1566 5.83569 16.156 6.0555L16.1517 16.1429C16.1505 17.2321 15.8468 18.2996 15.2745 19.2263C14.702 20.1529 13.8835 20.9024 12.9101 21.391C12.116 21.7917 11.2363 21.993 10.347 21.9774H10.3208C9.55444 21.978 8.79554 21.8275 8.08739 21.5347C7.37929 21.2418 6.73578 20.8123 6.19374 20.2706C5.65166 19.729 5.22165 19.0858 4.92828 18.3779C4.63488 17.67 4.48387 16.9112 4.48387 16.1449C4.48387 15.916 4.52358 15.4648 4.52358 15.4648C4.5246 15.4403 4.53099 15.4162 4.54233 15.3943C4.55362 15.3725 4.56955 15.3533 4.58903 15.3383C4.62296 15.3117 4.665 15.2977 4.70806 15.2986C4.71244 15.2986 5.00446 15.3311 5.00446 15.3311C5.0517 15.3371 5.09484 15.3611 5.12493 15.398C5.15497 15.4349 5.16967 15.482 5.16594 15.5295C5.16594 15.5315 5.12902 15.937 5.12902 16.1441C5.12882 17.4475 5.61903 18.7033 6.50225 19.6619C6.64863 19.8256 6.84122 19.9411 7.05456 19.9931C7.26791 20.0452 7.49206 20.0313 7.69738 19.9535C7.90274 19.8756 8.07961 19.7372 8.20479 19.5568C8.32992 19.3763 8.39742 19.1621 8.3984 18.9425V8.85787C8.3998 7.76524 8.70553 6.69467 9.28133 5.76606C9.8571 4.83749 10.6802 4.08768 11.6582 3.60068C12.0482 3.39778 12.464 3.24895 12.8942 3.15829C13.3243 3.06471 13.7634 3.01868 14.2035 3.021C14.822 3.01841 15.437 3.11334 16.0259 3.30231C16.9508 3.60074 17.7863 4.12603 18.4561 4.83028C19.5005 5.9336 20.0783 7.39774 20.0689 8.91698C20.0674 9.1241 20.0305 9.53593 20.0305 9.53593Z" fill="#08A081"/>
</g>
<defs>
<clipPath id="clip0_24900_32411">
<rect width="100" height="24.56" fill="white" transform="translate(0 0.220215)"/>
</clipPath>
</defs>
</svg>
