<svg width="174" height="41" viewBox="0 0 174 41" fill="none" xmlns="http://www.w3.org/2000/svg">
<g clip-path="url(#clip0_24188_28467)">
<path d="M50.7969 16.9044C50.7969 16.0125 51.5219 15.4867 52.8431 15.4867C54.4244 15.4867 55.3796 16.3107 55.5471 17.5653H60.7624C60.4002 13.9378 57.757 11.3018 53.0099 11.3018C48.2629 11.3018 45.5208 13.8738 45.5208 17.004C45.5208 23.7649 55.5452 21.6223 55.5452 24.5927C55.5452 25.4166 54.7885 26.0744 53.3353 26.0744C51.7831 26.0744 50.6313 25.2181 50.5 23.9286H44.9277C45.1909 27.492 48.4912 30.2277 53.4045 30.2277C58.0228 30.2277 60.858 27.8186 60.858 24.6212C60.7585 17.7658 50.7969 19.8393 50.7969 16.9044Z" fill="#08A081"/>
<path d="M80.6799 20.4679C80.6799 14.8613 76.8888 11.3018 71.5097 11.3018C66.1308 11.3018 62.209 14.9293 62.209 20.7666C62.209 26.6041 66.0991 30.2316 71.5104 30.2316C76.0968 30.2316 79.3622 27.4604 80.2536 23.8684H74.2493C74.0018 24.4306 73.5874 24.903 73.0623 25.2214C72.5372 25.5398 71.9274 25.6889 71.3142 25.6482C69.5034 25.6482 68.0209 24.5294 67.822 22.1203H80.5872C80.6512 21.572 80.6846 21.0205 80.6866 20.4685L80.6799 20.4679ZM67.8507 18.9862C67.9308 18.0994 68.3485 17.2771 69.0164 16.6884C69.6842 16.0996 70.5523 15.789 71.4423 15.8205C73.2865 15.8205 74.9065 16.9749 74.9065 18.9862H67.8507Z" fill="#08A081"/>
<path d="M95.3238 11.5689V14.1707C94.3323 12.5538 92.3887 11.3037 89.6498 11.3037C85.1274 11.3037 81.5352 14.9312 81.5352 20.733C81.5352 26.5349 85.1274 30.2329 89.6198 30.2329C90.7367 30.2848 91.8483 30.0482 92.8477 29.5461C93.8466 29.044 94.6999 28.2932 95.3251 27.3659V29.9703H100.963V11.5689H95.3238ZM91.2985 25.3216C89.1881 25.3216 87.2732 23.6699 87.2732 20.735C87.2732 17.8001 89.1881 16.2156 91.2985 16.2156C93.4089 16.2156 95.3238 17.8325 95.3238 20.7667C95.3238 23.7009 93.4442 25.3177 91.2985 25.3177V25.3216Z" fill="#08A081"/>
<path d="M114.58 20.8021L122.233 11.5687H115.273L109.699 19.0546V5.56055H104.061V29.9682H109.699V22.2514L115.306 29.9682H122.297L114.58 20.8021Z" fill="#08A081"/>
<path d="M135.985 11.5684V21.5591C135.985 24.0671 134.596 25.4492 132.422 25.4492C130.247 25.4492 128.89 24.0671 128.89 21.5591V11.5684H123.287V22.3158C123.287 27.2309 126.154 30.1677 130.407 30.1677C131.486 30.1988 132.557 29.9689 133.528 29.4976C134.499 29.0262 135.342 28.3274 135.985 27.4605V29.9685H141.623V11.5684H135.985Z" fill="#08A081"/>
<path d="M155.905 11.3695C154.834 11.336 153.769 11.5575 152.799 12.0158C151.829 12.4741 150.982 13.156 150.327 14.0056V11.5687H144.689V29.9663H150.327V19.9782C150.327 17.4702 151.717 16.0881 153.859 16.0881C156.001 16.0881 157.386 17.4702 157.386 19.9782V29.9663H162.993V19.2144C162.993 14.2688 160.158 11.3663 155.902 11.3663L155.905 11.3695Z" fill="#08A081"/>
<path d="M20.0125 -0.00585938C16.0539 -0.00509189 12.1846 1.1694 8.89347 3.36912C5.60238 5.56885 3.03743 8.69499 1.52292 12.3524C0.00841142 16.0097 -0.387652 20.034 0.384807 23.9164C1.15727 27.7989 3.06356 31.3651 5.86267 34.1642C8.66175 36.9633 12.228 38.8696 16.1104 39.6421C19.9929 40.4145 24.0172 40.0185 27.6745 38.504C31.3319 36.9895 34.4581 34.4245 36.6578 31.1334C38.8575 27.8423 40.032 23.973 40.0327 20.0144C40.0327 17.3853 39.5149 14.782 38.5088 12.353C37.5027 9.924 36.028 7.71699 34.1689 5.85794C32.3099 3.99888 30.1029 2.5242 27.6739 1.51809C25.2449 0.51198 22.6416 -0.00585938 20.0125 -0.00585938ZM32.6496 15.1788C32.6464 15.2179 32.6352 15.2561 32.6169 15.2909C32.5985 15.3256 32.5734 15.3564 32.543 15.3812C32.4872 15.4238 32.419 15.4465 32.3489 15.4458C32.3347 15.4458 31.8658 15.3889 31.8658 15.3889C31.8272 15.3853 31.7896 15.3741 31.7554 15.3558C31.7211 15.3375 31.6909 15.3125 31.6664 15.2824C31.6419 15.2524 31.6237 15.2177 31.6127 15.1804C31.6017 15.1432 31.5983 15.1042 31.6026 15.0656C31.6026 15.0656 31.6595 14.4047 31.6595 14.0671C31.6602 11.9431 30.8626 9.89651 29.4251 8.33309C29.1867 8.06554 28.8728 7.87665 28.5248 7.79145C28.1768 7.70618 27.8111 7.72853 27.4761 7.85564C27.1411 7.98274 26.8526 8.20853 26.6487 8.50317C26.4448 8.79774 26.3352 9.14736 26.3343 9.50565L26.3272 25.9482C26.3253 27.7236 25.8303 29.4635 24.8974 30.974C23.9643 32.4844 22.6301 33.706 21.0434 34.5025C19.7491 35.1557 18.3151 35.4838 16.8655 35.4583H16.8228C15.5737 35.4593 14.3367 35.2141 13.1825 34.7368C12.0282 34.2594 10.9793 33.5593 10.0958 32.6763C9.2122 31.7934 8.5113 30.7451 8.0331 29.5912C7.55485 28.4373 7.30871 27.2005 7.30871 25.9514C7.30871 25.5782 7.37343 24.8429 7.37343 24.8429C7.3751 24.8028 7.38551 24.7636 7.40399 24.728C7.42241 24.6923 7.44836 24.6611 7.48012 24.6366C7.53543 24.5933 7.60395 24.5704 7.67414 24.5719C7.68128 24.5719 8.15727 24.625 8.15727 24.625C8.23427 24.6347 8.30459 24.6737 8.35363 24.7339C8.40261 24.7942 8.42656 24.8709 8.42049 24.9483C8.42049 24.9516 8.36031 25.6125 8.36031 25.9501C8.35997 28.0746 9.15903 30.1216 10.5987 31.6841C10.8373 31.9509 11.1512 32.1392 11.4989 32.224C11.8467 32.3088 12.2121 32.2863 12.5467 32.1593C12.8815 32.0323 13.1698 31.8069 13.3738 31.5127C13.5778 31.2185 13.6878 30.8695 13.6894 30.5115V14.0735C13.6917 12.2925 14.19 10.5475 15.1286 9.03387C16.0671 7.5203 17.4087 6.29811 19.0029 5.5043C19.6386 5.17357 20.3164 4.93097 21.0175 4.7832C21.7186 4.63067 22.4343 4.55563 23.1517 4.55942C24.1598 4.55519 25.1623 4.70993 26.1222 5.01796C27.6298 5.50439 28.9916 6.36062 30.0834 7.50855C31.7858 9.30696 32.7276 11.6935 32.7124 14.1699C32.7098 14.5075 32.6496 15.1788 32.6496 15.1788Z" fill="#08A081"/>
</g>
<defs>
<clipPath id="clip0_24188_28467">
<rect width="163" height="40.0327" fill="white" transform="translate(0 -0.00585938)"/>
</clipPath>
</defs>
</svg>
