<svg width="18" height="19" viewBox="0 0 18 19" fill="none" xmlns="http://www.w3.org/2000/svg">
<path d="M16.6086 2.03773C17.3148 2.05398 17.9975 2.73712 17.9934 3.42336C17.9512 3.46454 17.9692 3.51732 17.9691 3.56492C17.9678 4.17973 17.9683 4.79456 17.9682 5.40937C17.9681 5.4708 17.9851 5.54185 17.8918 5.55454C17.7056 5.56563 17.5195 5.5706 17.3336 5.55063C17.2523 5.51891 17.1679 5.51429 17.0812 5.51429C11.4667 5.51518 5.8522 5.51507 0.237717 5.51505C0.0562839 5.51505 0.0562295 5.51497 0.0562295 5.3309C0.0561752 4.69701 0.0565558 4.06312 0.0553598 3.42923C0.0552782 3.3815 0.0730544 3.32872 0.03125 3.28724C0.0925432 2.64669 0.762718 2.04197 1.41593 2.03775C1.45687 2.08016 1.50962 2.06224 1.55708 2.06235C2.16607 2.0636 2.77509 2.0661 3.38405 2.06078C3.49957 2.05977 3.54241 2.08546 3.5382 2.20937C3.52993 2.45248 3.53953 2.69619 3.54176 2.93965L3.5395 2.93603C3.52955 2.94166 3.51963 2.94726 3.50969 2.95288C3.15804 3.21746 3.04032 3.52287 3.14758 3.89223C3.25481 4.26154 3.59226 4.50386 3.99728 4.50242C4.37959 4.50106 4.73223 4.24648 4.82054 3.8766C4.9169 3.47294 4.81353 3.14367 4.41044 2.91339C4.41052 2.61997 4.41057 2.32655 4.41065 2.03313C4.41856 2.03243 4.42607 2.03387 4.43313 2.03748C4.47844 2.08317 4.53598 2.0623 4.58771 2.06241C5.35147 2.06379 6.11526 2.06534 6.87899 2.0611C6.98597 2.0605 7.01954 2.09057 7.01663 2.19842C7.00995 2.44675 7.01606 2.69543 7.01699 2.94397C6.89674 3.01904 6.79011 3.10806 6.71669 3.23217C6.54491 3.5226 6.56586 3.89767 6.76945 4.16407C6.98578 4.44716 7.36528 4.57091 7.71874 4.46369C8.07376 4.35597 8.28571 4.11289 8.33108 3.74518C8.37718 3.37161 8.20414 3.10121 7.89091 2.91089C7.88613 2.61907 7.8724 2.3272 7.89645 2.03555C7.90273 2.03544 7.90855 2.03699 7.91393 2.0402C7.95609 2.08018 8.00849 2.06238 8.05617 2.06249C8.67946 2.06368 9.3028 2.06719 9.92601 2.06012C10.0597 2.0586 10.0941 2.10016 10.0886 2.22802C10.0786 2.46246 10.0856 2.69763 10.0855 2.93247C10.0779 2.94204 10.0703 2.95161 10.0627 2.9612C9.85226 3.08422 9.71397 3.26275 9.67676 3.50455C9.58391 4.10775 10.0829 4.57842 10.706 4.48114C11.0708 4.42416 11.3518 4.12626 11.4085 3.73638C11.4558 3.41178 11.2708 3.07773 10.9606 2.92731C10.9607 2.63 10.9608 2.3327 10.961 2.03542C10.9689 2.03395 10.9767 2.03474 10.9842 2.03773C11.0294 2.08345 11.0869 2.0623 11.1385 2.06238C11.8923 2.06377 12.646 2.06619 13.3997 2.06045C13.5259 2.0595 13.5768 2.08703 13.5678 2.22231C13.5562 2.39758 13.5634 2.5742 13.5659 2.75017C13.5666 2.80227 13.5467 2.85922 13.5891 2.90572C13.5925 2.91274 13.5933 2.92002 13.5913 2.92761C13.5746 2.93851 13.5578 2.94938 13.5411 2.96028C13.4402 3.01545 13.3583 3.09186 13.2917 3.18487C13.0412 3.53461 13.1153 4.03591 13.4569 4.3046C13.8205 4.59059 14.3822 4.54645 14.6772 4.20987C14.955 3.89294 15.0548 3.31589 14.489 2.93217C14.4891 2.68809 14.4939 2.44387 14.4871 2.19997C14.4842 2.09473 14.5134 2.06002 14.623 2.06094C15.2332 2.066 15.8434 2.06385 16.4537 2.0623C16.5055 2.06219 16.5629 2.08255 16.6086 2.03773Z" fill="#E8465B"/>
<path d="M17.3323 5.55078C17.5182 5.57079 17.7044 5.56581 17.8905 5.55472C17.9162 5.55926 17.9418 5.5638 17.9674 5.56831C17.9674 9.17246 17.9672 12.7766 17.9679 16.3807C17.9679 16.4285 17.9506 16.4812 17.9917 16.5229C18.004 17.2314 17.4313 17.9337 16.7435 18.0473C16.5992 18.0711 16.4535 18.088 16.3054 18.0879C11.6407 18.0854 6.97613 18.085 2.31152 18.0838C2.26191 18.0838 2.21231 18.0781 2.16267 18.075C1.85917 17.8948 1.57703 17.6853 1.31455 17.4498C1.13461 17.2883 0.981823 17.1034 0.888755 16.8785C0.828305 16.7323 0.761195 16.5843 0.786881 16.4177C1.01887 17.0093 1.45102 17.3089 2.08733 17.3144C2.42687 17.3174 2.76647 17.3139 3.10602 17.3139C7.33932 17.3138 11.5726 17.314 15.8059 17.3132C15.9279 17.3132 16.0512 17.3136 16.1715 17.2969C16.6559 17.2294 17.1699 16.845 17.2654 16.1699C17.3391 16.1519 17.3137 16.0914 17.3137 16.0471C17.3143 12.5534 17.3138 9.05977 17.3134 5.56614C17.3204 5.56179 17.3266 5.55668 17.3323 5.55078ZM15.9735 17.3627C15.9754 17.3583 15.9773 17.3539 15.9791 17.3495C11.3174 17.3495 6.65564 17.3495 1.99391 17.3495C1.99391 17.3539 1.99391 17.3583 1.99391 17.3627C6.65376 17.3627 11.3136 17.3627 15.9735 17.3627Z" fill="#30366B"/>
<path d="M0.787674 16.4177C0.761988 16.5844 0.829071 16.7324 0.889522 16.8785C0.982589 17.1035 1.13537 17.2883 1.31531 17.4498C1.5778 17.6853 1.85994 17.8948 2.16344 18.075C1.51164 18.1097 0.871528 18.1064 0.401541 17.5407C0.200891 17.2992 0.0608268 17.0309 0.0292969 16.7136C0.0768908 16.6635 0.0544396 16.6013 0.0544668 16.545C0.0556899 12.8861 0.0556081 9.22725 0.0556625 5.56836C0.281075 5.56888 0.506487 5.56937 0.731899 5.56988C0.732007 8.99363 0.732143 12.4174 0.732198 15.8411C0.732198 16.0351 0.722222 16.2301 0.787674 16.4177Z" fill="#84A9D9"/>
<path d="M10.9624 2.03577C10.9623 2.33308 10.9622 2.63038 10.962 2.92766C10.9596 3.15305 10.9595 3.37849 10.9543 3.60382C10.9486 3.84725 10.7909 3.99827 10.55 3.99653C10.3232 3.9949 10.213 3.90941 10.1187 3.66201C10.1165 3.41844 10.1143 3.17485 10.1121 2.93128C10.1119 2.62889 10.1116 2.32653 10.1113 2.02414C10.1147 1.68495 10.1174 1.34575 10.1219 1.00659C10.1227 0.948096 10.1259 0.888651 10.137 0.831408C10.181 0.604583 10.3608 0.465035 10.582 0.481833C10.785 0.497218 10.9517 0.675634 10.9551 0.895908C10.9601 1.21257 10.9562 1.52936 10.9568 1.8461C10.9569 1.9093 10.9604 1.97252 10.9624 2.03577Z" fill="#228FCB"/>
<path d="M4.41162 2.03338C4.41153 2.3268 4.41148 2.62022 4.4114 2.91361C4.40988 3.13919 4.41164 3.36487 4.40602 3.59037C4.39982 3.8394 4.22649 4.00355 3.98126 4.00056C3.73853 3.99759 3.58045 3.83633 3.57175 3.5736C3.56474 3.36169 3.56593 3.14952 3.56349 2.93745C3.56186 2.63362 3.56022 2.32979 3.55859 2.02596C3.56158 1.69672 3.56368 1.36748 3.56832 1.03826C3.56936 0.966421 3.57243 0.893223 3.58702 0.823259C3.63489 0.593824 3.8207 0.460093 4.05087 0.483007C4.24269 0.502115 4.40447 0.683114 4.40737 0.896185C4.41172 1.21657 4.40805 1.53709 4.40822 1.85752C4.40824 1.91618 4.41045 1.97478 4.41162 2.03338Z" fill="#208ECA"/>
<path d="M13.5921 2.92788C13.5941 2.92029 13.5933 2.91301 13.5898 2.906C13.6016 2.61171 13.6048 2.31742 13.5918 2.0231C13.5989 1.65687 13.6037 1.29055 13.6138 0.924366C13.6213 0.649159 13.7904 0.476505 14.0392 0.481044C14.2742 0.485312 14.438 0.668946 14.4409 0.935103C14.4449 1.30148 14.4468 1.66788 14.4496 2.03428C14.4324 2.33039 14.4362 2.62652 14.4472 2.92269C14.4443 3.14823 14.4432 3.37381 14.438 3.59928C14.4325 3.83496 14.2654 3.99606 14.0317 3.99582C13.7985 3.99557 13.6778 3.89487 13.5972 3.63312C13.5954 3.39808 13.5938 3.16299 13.5921 2.92788Z" fill="#228FCB"/>
<path d="M7.89632 2.03606C7.87224 2.32768 7.88597 2.61958 7.89075 2.91137C7.8892 3.13265 7.89401 3.35423 7.88369 3.57513C7.87779 3.70125 7.87681 3.82973 7.74316 3.91793C7.58276 4.0238 7.42405 4.02777 7.26415 3.94838C7.10606 3.8699 7.05763 3.72565 7.0588 3.55227C7.06021 3.34564 7.08247 3.13789 7.04501 2.93197C7.04303 2.62923 7.04105 2.32651 7.03906 2.02377C7.06276 1.74889 7.04254 1.47341 7.05051 1.19834C7.05377 1.08559 7.05545 0.972464 7.06611 0.860288C7.08712 0.639034 7.25469 0.484564 7.46947 0.481493C7.68445 0.478394 7.85871 0.626504 7.88735 0.845256C7.92155 1.10636 7.88314 1.36844 7.88994 1.63011C7.89347 1.76539 7.89429 1.90075 7.89632 2.03606Z" fill="#208ECA"/>
<path d="M0.732749 5.57001C0.507337 5.5695 0.281925 5.56901 0.056513 5.56849C0.0430855 5.56387 0.0296583 5.55928 0.0162308 5.55466C0.0144369 4.84363 0.0122352 4.1326 0.0117188 3.42157C0.0116916 3.37691 0.0246842 3.33226 0.0316425 3.2876C0.0734469 3.32905 0.0556703 3.38186 0.0557519 3.42959C0.0569479 4.06348 0.0565673 4.69737 0.0566216 5.33126C0.0566216 5.51533 0.056676 5.51541 0.238109 5.51541C5.85259 5.51543 11.4671 5.51554 17.0816 5.51465C17.1683 5.51462 17.2527 5.51924 17.334 5.55099C17.3283 5.55686 17.322 5.56194 17.3151 5.56629C17.3069 5.56102 17.2989 5.56126 17.291 5.567C17.2811 5.56776 17.2711 5.56852 17.2611 5.56925C17.2295 5.56819 17.1979 5.56621 17.1663 5.56621C12.3764 5.56447 7.58658 5.56248 2.79677 5.5617C2.10873 5.56159 1.42073 5.56711 0.732749 5.57001Z" fill="#E74253"/>
<path d="M0.0157349 5.55469C0.0291623 5.55931 0.04259 5.56393 0.0560174 5.56852C0.0559902 9.22741 0.0560446 12.8863 0.0548487 16.5452C0.0548215 16.6014 0.0772727 16.6636 0.0296788 16.7137C-0.0168823 16.6099 0.00527018 16.4997 0.00524299 16.3929C0.00434602 12.9972 0.00486271 9.60139 0.00668383 6.20564C0.00684692 5.98871 -0.00796693 5.77137 0.0157349 5.55469Z" fill="#86AAD9"/>
<path d="M17.9942 16.5228C17.9531 16.4811 17.9704 16.4284 17.9704 16.3806C17.9697 12.7764 17.9698 9.1723 17.9699 5.56816C17.9781 5.56411 17.9867 5.56182 17.9958 5.56128C17.9975 6.28109 18.0004 7.00092 18.0005 7.72073C18.0011 10.5915 18.0009 13.4623 18.0007 16.3331C18.0007 16.3964 17.9965 16.4596 17.9942 16.5228Z" fill="#26295F"/>
<path d="M14.4469 2.92275C14.4359 2.62658 14.4321 2.33044 14.4493 2.03433C15.1693 2.02852 15.8892 2.02047 16.6091 2.03803C16.5634 2.08285 16.506 2.06249 16.4541 2.06263C15.8439 2.06415 15.2336 2.0663 14.6234 2.06127C14.5138 2.06037 14.4846 2.09508 14.4875 2.2003C14.4943 2.4442 14.4895 2.68842 14.4894 2.9325C14.4752 2.92924 14.4611 2.92601 14.4469 2.92275Z" fill="#E74253"/>
<path d="M7.03963 2.02368C7.04161 2.32642 7.0436 2.62914 7.04555 2.93188C7.03618 2.93607 7.0268 2.94023 7.01745 2.94438C7.01652 2.69584 7.01041 2.44716 7.01709 2.19884C7.02 2.09098 6.98643 2.06092 6.87945 2.06152C6.11572 2.06576 5.35193 2.06421 4.58817 2.06282C4.53645 2.06274 4.4789 2.08359 4.43359 2.0379C4.81807 2.03488 5.20254 2.0311 5.58702 2.02906C6.07119 2.02651 6.55542 2.02539 7.03963 2.02368Z" fill="#E74253"/>
<path d="M13.5912 2.02344C13.6043 2.31775 13.6011 2.61204 13.5893 2.90633C13.5469 2.85982 13.5668 2.80288 13.5661 2.75077C13.5636 2.57478 13.5565 2.39815 13.568 2.22292C13.577 2.08764 13.5262 2.0601 13.3999 2.06106C12.6462 2.06679 11.8925 2.06437 11.1387 2.06299C11.0871 2.06288 11.0297 2.08405 10.9844 2.03833C11.1924 2.03553 11.4003 2.03113 11.6083 2.03021C12.2693 2.02724 12.9303 2.02558 13.5912 2.02344Z" fill="#E74253"/>
<path d="M10.11 2.02368C10.1102 2.32607 10.1105 2.62843 10.1108 2.93082C10.1025 2.93351 10.0942 2.93406 10.0857 2.93242C10.0857 2.69755 10.0787 2.46241 10.0887 2.22795C10.0942 2.10009 10.0598 2.05853 9.92614 2.06005C9.30293 2.06709 8.67959 2.06361 8.0563 2.06241C8.00865 2.06233 7.95622 2.08014 7.91406 2.04013C8.17139 2.03662 8.42871 2.03162 8.68603 2.02993C9.16066 2.02686 9.63533 2.02567 10.11 2.02368Z" fill="#E74253"/>
<path d="M3.55766 2.02637C3.55929 2.3302 3.56092 2.63403 3.56258 2.93785C3.55598 2.94123 3.54907 2.94207 3.54184 2.94033C3.53964 2.69687 3.53002 2.45316 3.53828 2.21006C3.54249 2.08614 3.49963 2.06045 3.38414 2.06146C2.77517 2.06679 2.16616 2.06428 1.55717 2.06303C1.50968 2.06293 1.45695 2.08084 1.41602 2.03844C1.98983 2.03591 2.56365 2.03352 3.13747 2.03069C3.27753 2.02998 3.4176 2.02783 3.55766 2.02637Z" fill="#E74253"/>
<path d="M17.9934 5.56175C17.9843 5.56227 17.9757 5.56458 17.9675 5.56863C17.9419 5.56409 17.9163 5.55958 17.8906 5.55504C17.9839 5.54234 17.967 5.47129 17.967 5.40984C17.9672 4.79503 17.9667 4.18019 17.9679 3.56539C17.968 3.51779 17.95 3.46498 17.9923 3.42383C17.9926 4.13646 17.993 4.84909 17.9934 5.56175Z" fill="#E74253"/>
<path d="M7.01567 2.94451C7.02505 2.94035 7.0344 2.93619 7.04378 2.93201C7.08126 3.13793 7.05897 3.34568 7.05759 3.55228C7.05642 3.72569 7.10485 3.86992 7.26294 3.94839C7.42287 4.02778 7.58155 4.02381 7.74195 3.91794C7.8756 3.82974 7.87658 3.70126 7.88247 3.57514C7.89283 3.35426 7.88802 3.13266 7.88954 2.91138C8.2028 3.10173 8.37584 3.37212 8.32974 3.7457C8.28437 4.11338 8.07242 4.35648 7.7174 4.4642C7.36394 4.57146 6.98444 4.4477 6.76811 4.16458C6.56452 3.89818 6.54357 3.52311 6.71535 3.23268C6.78879 3.10858 6.89542 3.01956 7.01567 2.94451Z" fill="#30366B"/>
<path d="M3.54178 2.94035C3.54901 2.94209 3.55592 2.94124 3.56252 2.93787C3.56497 3.14994 3.56377 3.36211 3.57079 3.57404C3.57948 3.83675 3.73757 3.99804 3.9803 4.001C4.22552 4.00399 4.39886 3.83985 4.40505 3.59081C4.41065 3.36532 4.40891 3.13961 4.41044 2.91406C4.81356 3.14439 4.91693 3.47366 4.82057 3.87733C4.73226 4.24721 4.37961 4.50179 3.99731 4.50314C3.59229 4.50459 3.25486 4.26227 3.1476 3.89296C3.04035 3.5236 3.15807 3.21819 3.50971 2.95361C3.51966 2.94798 3.52958 2.94238 3.53953 2.93676L3.54178 2.94035Z" fill="#30366B"/>
<path d="M14.4478 2.92285C14.462 2.92611 14.4761 2.92935 14.4903 2.93261C15.0562 3.31632 14.9563 3.89338 14.6785 4.21031C14.3835 4.54692 13.8218 4.59103 13.4582 4.30503C13.1166 4.03632 13.0425 3.53502 13.293 3.18531C13.3596 3.0923 13.4415 3.01589 13.5424 2.96071C13.5825 3.00279 13.5652 3.05528 13.5657 3.10322C13.5677 3.27974 13.564 3.45633 13.5677 3.63279C13.5691 3.69887 13.5869 3.65921 13.5977 3.63331C13.6784 3.89506 13.799 3.99574 14.0322 3.99601C14.266 3.99626 14.4331 3.83515 14.4386 3.59947C14.4438 3.37397 14.4449 3.1484 14.4478 2.92285Z" fill="#30366B"/>
<path d="M10.1158 3.66208C10.21 3.90946 10.3202 3.99497 10.5471 3.9966C10.7879 3.99834 10.9457 3.84735 10.9513 3.60389C10.9565 3.37856 10.9567 3.15312 10.9591 2.92773C11.2693 3.07818 11.4542 3.41221 11.407 3.7368C11.3503 4.12669 11.0693 4.42462 10.7044 4.48156C10.0814 4.57884 9.58237 4.10818 9.67522 3.50498C9.71243 3.26318 9.85073 3.08465 10.0612 2.96163C10.0977 2.99922 10.0833 3.0466 10.0837 3.09C10.0852 3.26076 10.0832 3.43156 10.086 3.60228C10.0864 3.62128 10.0549 3.66866 10.1158 3.66208Z" fill="#30366B"/>
<path d="M13.5963 3.633C13.5855 3.65888 13.5678 3.69853 13.5663 3.63248C13.5626 3.45602 13.5663 3.27943 13.5644 3.10292C13.5638 3.05497 13.5812 3.00246 13.541 2.96041C13.5578 2.94951 13.5745 2.93863 13.5913 2.92773C13.593 3.16282 13.5946 3.39791 13.5963 3.633Z" fill="#26295F"/>
<path d="M10.1171 3.66191C10.0561 3.66849 10.0877 3.62114 10.0873 3.60214C10.0845 3.43142 10.0865 3.26061 10.085 3.08986C10.0846 3.04645 10.099 2.99908 10.0625 2.96149C10.0701 2.95192 10.0777 2.94232 10.0853 2.93276C10.0938 2.93439 10.1022 2.93384 10.1104 2.93115C10.1126 3.17475 10.1149 3.41832 10.1171 3.66191Z" fill="#26295F"/>
<path d="M3.53958 2.93652C3.52963 2.94215 3.51969 2.94778 3.50977 2.95338C3.51969 2.94775 3.52963 2.94215 3.53958 2.93652Z" fill="#E74253"/>
<path d="M0.732613 5.5696C1.42062 5.56669 2.1086 5.56117 2.7966 5.56128C7.58644 5.5621 12.3763 5.56405 17.1661 5.56579C17.1977 5.56579 17.2294 5.56778 17.261 5.56884C17.265 5.60605 17.269 5.64326 17.273 5.68047C17.2725 5.86908 17.272 6.05766 17.2714 6.24627C17.2715 6.25717 17.2715 6.2681 17.2715 6.279C17.2718 6.33159 17.272 6.38421 17.2722 6.43681C17.2576 6.4837 17.2576 6.53058 17.2722 6.57744C17.2721 6.59397 17.2721 6.61052 17.2721 6.62705C17.2562 6.71919 17.2565 6.81136 17.2713 6.90359C17.2717 7.04697 17.272 7.19035 17.2723 7.33373C17.2568 7.40782 17.2567 7.48189 17.2724 7.55596C17.2722 8.14326 17.272 8.73059 17.2718 9.31789C17.2593 9.34664 17.2593 9.37543 17.2714 9.40429C17.2714 9.59293 17.2714 9.78157 17.2714 9.9702C17.2592 9.99901 17.2592 10.0278 17.2714 10.0566C17.2712 10.1093 17.271 10.162 17.2708 10.2146C17.2708 10.2255 17.2707 10.2364 17.2707 10.2473C17.2706 10.3633 17.2705 10.4792 17.2704 10.5952C17.2705 10.6061 17.2705 10.6169 17.2706 10.6278C17.2706 10.7439 17.2706 10.8599 17.2706 10.976C17.2559 11.05 17.2562 11.124 17.2701 11.1981C17.2705 11.6948 17.2709 12.1916 17.2714 12.6884C17.256 12.7805 17.2567 12.8727 17.2709 12.9648C17.271 13.072 17.2712 13.1792 17.2713 13.2864C17.2566 13.4963 17.2562 13.7063 17.2717 13.9162C17.2717 13.9328 17.2717 13.9493 17.2716 13.9659C17.2576 14.3117 17.2556 14.6576 17.2719 15.0035C17.2718 15.0381 17.2718 15.0727 17.2718 15.1074C17.2717 15.1272 17.2717 15.147 17.2716 15.1668C17.2701 15.501 17.2685 15.8353 17.267 16.1695C17.1714 16.8447 16.6575 17.229 16.1731 17.2965C16.0528 17.3133 15.9294 17.3128 15.8075 17.3129C11.5742 17.3136 7.34089 17.3135 3.10758 17.3136C2.76801 17.3136 2.42841 17.317 2.08889 17.3141C1.45258 17.3086 1.02043 17.0089 0.788443 16.4173C0.722991 16.2297 0.732966 16.0348 0.732966 15.8408C0.732858 12.4171 0.732722 8.99334 0.732613 5.5696ZM6.05726 10.9539C6.05726 10.9532 6.05726 10.9525 6.05726 10.9518C6.24729 10.9518 6.43736 10.9542 6.62736 10.9513C6.89033 10.9471 7.08307 10.7644 7.09047 10.501C7.09794 10.2343 7.09702 9.96702 7.09033 9.70024C7.0834 9.42362 6.88196 9.22123 6.60608 9.21658C6.24421 9.21049 5.88208 9.21057 5.52022 9.21685C5.23316 9.22183 5.02974 9.43688 5.02884 9.72223C5.02805 9.97107 5.02773 10.2199 5.02969 10.4688C5.032 10.7633 5.22142 10.9522 5.5143 10.9538C5.69529 10.9547 5.87629 10.9539 6.05726 10.9539ZM3.09929 11.7635C3.00878 11.7635 2.91829 11.7634 2.82778 11.7635C2.73727 11.7636 2.64675 11.7634 2.55627 11.7643C2.28109 11.767 2.07633 11.9656 2.07171 12.2414C2.06744 12.4948 2.06753 12.7483 2.07101 13.0017C2.07478 13.2764 2.28544 13.4961 2.55828 13.5007C2.92019 13.5066 3.28238 13.5061 3.6443 13.4996C3.94152 13.4943 4.12997 13.293 4.1307 12.9951C4.1313 12.7463 4.13122 12.4974 4.13051 12.2485C4.12972 11.9674 3.93391 11.7668 3.65593 11.764C3.47039 11.7621 3.28483 11.7636 3.09929 11.7635ZM3.10051 10.9543C3.10051 10.9538 3.10051 10.9532 3.10051 10.9526C3.29051 10.9526 3.48053 10.9548 3.67047 10.9521C3.92459 10.9485 4.12766 10.7493 4.13103 10.4962C4.13451 10.2339 4.13445 9.97137 4.12896 9.7091C4.12295 9.42278 3.9254 9.22175 3.63973 9.21718C3.27795 9.21142 2.9159 9.21098 2.55415 9.21808C2.28459 9.22335 2.08144 9.42414 2.07321 9.69184C2.065 9.95849 2.06557 10.2257 2.07258 10.4924C2.07954 10.7569 2.29218 10.9536 2.55771 10.9543C2.73865 10.9548 2.91957 10.9543 3.10051 10.9543ZM11.9045 13.5017C12.1188 13.5017 12.2954 13.5055 12.4717 13.5009C12.7671 13.4933 12.9626 13.293 12.9644 12.9999C12.9659 12.7465 12.9666 12.4931 12.9642 12.2398C12.9615 11.9537 12.7724 11.7647 12.4865 11.7631C12.1246 11.7611 11.7627 11.7613 11.4007 11.763C11.1176 11.7642 10.9109 11.9631 10.9056 12.2442C10.9009 12.4975 10.9016 12.751 10.9054 13.0043C10.9091 13.2429 11.0728 13.4378 11.3065 13.4841C11.5169 13.5257 11.7306 13.4889 11.9045 13.5017ZM9.0083 11.764C9.0083 11.7638 9.0083 11.7636 9.0083 11.7634C8.83187 11.7634 8.65547 11.7629 8.47904 11.7635C8.17056 11.7645 7.97214 11.9607 7.96937 12.2699C7.96735 12.4915 7.96866 12.7131 7.96858 12.9348C7.96841 13.3021 8.16844 13.5014 8.54003 13.5015C8.85158 13.5016 9.16313 13.5014 9.47465 13.4976C9.81895 13.4935 10.0207 13.3197 10.0273 13.0158C10.0331 12.7536 10.033 12.491 10.0261 12.2288C10.0186 11.9434 9.8327 11.766 9.55116 11.7642C9.37019 11.763 9.18925 11.764 9.0083 11.764ZM11.9305 10.9533C11.9305 10.9531 11.9305 10.9529 11.9305 10.9527C12.1114 10.9527 12.2923 10.9527 12.4732 10.9527C12.4823 10.9527 12.4913 10.9528 12.5004 10.9525C12.7587 10.9445 12.9621 10.7404 12.9643 10.4825C12.9666 10.2202 12.9675 9.95778 12.9644 9.69548C12.9613 9.43123 12.7547 9.21952 12.4917 9.21642C12.1254 9.2121 11.7589 9.2121 11.3926 9.21707C11.1538 9.2203 10.9595 9.39277 10.9254 9.62821C10.8844 9.91136 10.8958 10.1979 10.9123 10.4809C10.9307 10.7956 11.1264 10.9532 11.442 10.9533C11.6049 10.9533 11.7677 10.9533 11.9305 10.9533ZM6.07088 11.7624C5.97583 11.7624 5.88078 11.7623 5.78573 11.7624C5.69067 11.7625 5.59559 11.7614 5.5006 11.7634C5.23208 11.7691 5.02971 11.9701 5.02738 12.2368C5.02534 12.4676 5.0286 12.6985 5.02854 12.9293C5.02844 13.314 5.21626 13.5029 5.60649 13.5004C5.94101 13.4984 6.27547 13.4886 6.60999 13.4837C6.88824 13.4796 7.08375 13.299 7.09117 13.0218C7.09832 12.755 7.09906 12.4875 7.09044 12.2208C7.08204 11.9615 6.87147 11.7655 6.61404 11.7629C6.43299 11.761 6.25191 11.7625 6.07088 11.7624ZM9.01526 10.9533C9.01526 10.9531 9.01526 10.9529 9.01526 10.9527C9.19194 10.9527 9.36862 10.9537 9.54527 10.9524C9.82705 10.9505 10.0191 10.7722 10.0266 10.4926C10.0334 10.2346 10.0329 9.97602 10.0248 9.71807C10.0152 9.41536 9.80251 9.21664 9.4983 9.21577C9.16307 9.21481 8.82782 9.21405 8.49265 9.21791C8.18714 9.22142 7.97959 9.42302 7.97146 9.72794C7.96518 9.96333 7.96567 10.1991 7.97225 10.4345C7.9819 10.781 8.16567 10.9536 8.51244 10.9533C8.68004 10.9531 8.84764 10.9533 9.01526 10.9533ZM6.04136 8.42257C6.04136 8.42233 6.04136 8.42205 6.04136 8.42181C6.21796 8.42181 6.39458 8.42254 6.57117 8.42165C6.89814 8.42002 7.09158 8.22423 7.09245 7.89414C7.09302 7.68132 7.09226 7.46849 7.09226 7.25566C7.09229 6.87763 6.90373 6.68644 6.52576 6.68937C6.18262 6.69204 5.83957 6.70101 5.49646 6.70672C5.2234 6.71125 5.03042 6.90508 5.02914 7.1795C5.02797 7.42856 5.02819 7.67762 5.02947 7.92665C5.03096 8.21646 5.23602 8.4211 5.52511 8.42241C5.6972 8.42322 5.86928 8.42257 6.04136 8.42257ZM8.99341 8.42162C9.16536 8.42162 9.3373 8.42211 9.50928 8.42151C9.83012 8.42042 10.0249 8.22779 10.0273 7.90632C10.029 7.68009 10.0269 7.45381 10.0262 7.22756C10.0251 6.88758 9.82716 6.68951 9.48492 6.68891C9.1509 6.68834 8.81684 6.69022 8.48281 6.69098C8.1795 6.69166 7.97684 6.88456 7.97105 7.18681C7.96629 7.4356 7.96531 7.68466 7.97132 7.93339C7.97839 8.22597 8.18336 8.4195 8.47757 8.42116C8.64952 8.42211 8.82146 8.42132 8.99341 8.42162ZM6.05599 16.0118C6.25079 16.0118 6.4456 16.0138 6.64035 16.0113C6.89835 16.008 7.08628 15.8275 7.09221 15.5677C7.09819 15.3052 7.09802 15.0422 7.09052 14.7796C7.08193 14.4783 6.88593 14.2939 6.58789 14.2935C6.22549 14.293 5.86308 14.2919 5.50068 14.2929C5.24406 14.2935 5.03692 14.4851 5.03064 14.7392C5.02381 15.0153 5.02322 15.292 5.03167 15.5681C5.03982 15.8339 5.23161 16.0096 5.49878 16.0114C5.6845 16.0126 5.87026 16.0116 6.05599 16.0118ZM14.8969 13.4837C14.8969 13.4834 14.8969 13.4832 14.8969 13.4829C15.078 13.4829 15.2592 13.4839 15.4404 13.4826C15.7189 13.4807 15.9169 13.2979 15.9246 13.0216C15.932 12.7546 15.9314 12.487 15.9237 12.22C15.9154 11.9336 15.7335 11.7653 15.4431 11.764C15.0807 11.7623 14.7184 11.7622 14.356 11.7634C14.0797 11.7643 13.8735 11.9614 13.8674 12.2375C13.8618 12.4956 13.8611 12.754 13.8673 13.012C13.8742 13.2989 14.0666 13.4814 14.3533 13.4834C14.5345 13.4847 14.7157 13.4837 14.8969 13.4837ZM14.9213 9.23262C14.9213 9.23292 14.9213 9.23319 14.9213 9.23349C14.7404 9.23349 14.5596 9.23333 14.3787 9.23352C14.0923 9.23384 13.8914 9.41017 13.8788 9.69369C13.867 9.95998 13.8665 10.2274 13.8764 10.4938C13.8861 10.7565 14.0742 10.9482 14.3211 10.9518C14.7099 10.9576 15.0989 10.9566 15.4877 10.9508C15.7087 10.9474 15.8994 10.7863 15.9106 10.5676C15.9267 10.2523 15.9255 9.93465 15.9077 9.61932C15.8946 9.38788 15.7101 9.23765 15.4775 9.2333C15.2922 9.22985 15.1067 9.23262 14.9213 9.23262ZM9.01244 16.0111C9.01244 16.0113 9.01244 16.0115 9.01244 16.0116C9.19805 16.0116 9.3837 16.0128 9.56929 16.0114C9.83545 16.0093 10.0233 15.8296 10.0284 15.5625C10.0335 15.2955 10.0325 15.0282 10.0267 14.7612C10.0209 14.4902 9.8167 14.2942 9.54866 14.2935C9.19099 14.2926 8.83334 14.2928 8.47567 14.293C8.17754 14.2932 7.98116 14.4774 7.97197 14.7781C7.96423 15.0314 7.96442 15.2852 7.96985 15.5386C7.97597 15.8238 8.16969 16.0084 8.45552 16.0108C8.6412 16.0124 8.82682 16.0111 9.01244 16.0111ZM3.09271 14.2937C3.09271 14.2934 3.09271 14.293 3.09271 14.2927C2.93419 14.2927 2.77448 14.3052 2.61743 14.2901C2.26073 14.2558 2.06437 14.5363 2.07043 14.8325C2.07459 15.0352 2.09335 15.2368 2.07704 15.4417C2.0473 15.8152 2.27375 16.0449 2.65303 16.0261C2.99258 16.0093 3.33166 16.0173 3.67091 16.0116C3.93595 16.0072 4.12453 15.8286 4.12999 15.562C4.13546 15.2949 4.13516 15.0276 4.1297 14.7605C4.12412 14.4883 3.92304 14.2964 3.64973 14.294C3.46409 14.2924 3.27839 14.2937 3.09271 14.2937ZM14.9003 6.70639C14.9003 6.70623 14.9003 6.70604 14.9003 6.70587C14.8098 6.70587 14.7194 6.70593 14.6289 6.70585C14.5385 6.70576 14.448 6.70487 14.3576 6.70557C14.0835 6.70767 13.8878 6.88119 13.878 7.15376C13.8679 7.4337 13.8693 7.71472 13.8816 7.99455C13.8921 8.2341 14.0889 8.42023 14.3258 8.42309C14.7056 8.42768 15.0856 8.42687 15.4653 8.41969C15.7215 8.41485 15.9084 8.23828 15.9159 7.98708C15.9245 7.69801 15.9219 7.40807 15.9094 7.11913C15.8992 6.88345 15.7085 6.71223 15.47 6.70718C15.2802 6.70318 15.0902 6.70639 14.9003 6.70639ZM11.9536 6.70446C11.9536 6.70563 11.9536 6.70682 11.9536 6.70799C11.7726 6.70799 11.5915 6.70655 11.4105 6.70832C11.1271 6.71112 10.9268 6.89842 10.9185 7.17869C10.9108 7.4365 10.9102 7.69477 10.9156 7.95267C10.9213 8.22858 11.1172 8.42002 11.3927 8.42257C11.7593 8.42597 12.126 8.42572 12.4927 8.42268C12.7557 8.4205 12.9514 8.2338 12.9582 7.97253C12.9652 7.70111 12.9646 7.42929 12.9589 7.15784C12.9535 6.89761 12.7564 6.70821 12.4969 6.70492C12.3158 6.70261 12.1347 6.70446 11.9536 6.70446ZM11.9451 14.2946C11.9451 14.2943 11.9451 14.2941 11.9451 14.2938C11.7639 14.2938 11.5827 14.2949 11.4016 14.2936C11.1286 14.2916 10.9324 14.4684 10.9245 14.7419C10.9165 15.0179 10.9176 15.2946 10.924 15.5707C10.9298 15.8154 11.1254 16.0086 11.3694 16.0117C11.7498 16.0165 12.1304 16.0166 12.5109 16.0124C12.7434 16.0098 12.9358 15.8435 12.9475 15.611C12.9628 15.3085 12.9629 15.0039 12.9462 14.7015C12.9326 14.4546 12.7492 14.3003 12.5023 14.2953C12.3166 14.2916 12.1309 14.2946 11.9451 14.2946Z" fill="#FCFBFB"/>
<path d="M17.2691 10.5959C17.2692 10.48 17.2693 10.364 17.2694 10.248C17.2885 10.2372 17.2881 10.2263 17.2695 10.2154C17.2696 10.1627 17.2698 10.11 17.27 10.0574C17.2953 10.0286 17.295 9.99978 17.2701 9.97094C17.2701 9.7823 17.2701 9.59366 17.2701 9.405C17.2955 9.37633 17.2953 9.34751 17.2705 9.31859C17.2707 8.73129 17.2709 8.14397 17.2711 7.55664C17.2987 7.48254 17.2987 7.40847 17.271 7.33441C17.2707 7.19103 17.2703 7.04765 17.27 6.90427C17.2991 6.81215 17.2987 6.71998 17.2707 6.62773C17.2708 6.6112 17.2708 6.59465 17.2708 6.57812C17.2977 6.53123 17.2976 6.48437 17.2709 6.43749C17.2707 6.38489 17.2704 6.33227 17.2702 6.27967C17.2893 6.26869 17.2887 6.25779 17.2701 6.24695C17.2706 6.05834 17.2711 5.86976 17.2717 5.68115C17.3007 5.64679 17.2841 5.60529 17.2895 5.56723C17.2974 5.5615 17.3054 5.56125 17.3136 5.56653C17.314 9.06016 17.3145 12.5538 17.3139 16.0474C17.3139 16.0918 17.3393 16.1523 17.2656 16.1702C17.2672 15.836 17.2687 15.5018 17.2702 15.1675C17.2924 15.1478 17.2922 15.128 17.2704 15.1081C17.2705 15.0735 17.2705 15.0389 17.2705 15.0042C17.3092 14.8392 17.2861 14.6718 17.2863 14.5058C17.2864 14.3262 17.3091 14.1453 17.2703 13.9667C17.2703 13.9501 17.2703 13.9336 17.2704 13.917C17.2999 13.707 17.3001 13.4971 17.27 13.2872C17.2698 13.18 17.2697 13.0728 17.2695 12.9656C17.2991 12.8735 17.2985 12.7814 17.27 12.6892C17.2696 12.1924 17.2692 11.6956 17.2687 11.1988C17.2975 11.1249 17.2975 11.0509 17.2693 10.9768C17.2693 10.8607 17.2693 10.7446 17.2692 10.6286C17.2884 10.6176 17.2878 10.6067 17.2691 10.5959Z" fill="#26295F"/>
<path d="M15.9738 17.363C11.3139 17.363 6.654 17.363 1.99414 17.363C1.99414 17.3586 1.99414 17.3542 1.99414 17.3499C6.65587 17.3499 11.3176 17.3499 15.9794 17.3499C15.9775 17.3542 15.9756 17.3586 15.9738 17.363Z" fill="#26295F"/>
<path d="M17.2916 5.56714C17.2861 5.60519 17.3027 5.6467 17.2737 5.68105C17.2697 5.64384 17.2657 5.60663 17.2617 5.56942C17.2717 5.56866 17.2817 5.5679 17.2916 5.56714Z" fill="#666A8E"/>
<path d="M6.05635 10.9545C5.87538 10.9545 5.69438 10.9553 5.51341 10.9543C5.22054 10.9527 5.03111 10.7639 5.0288 10.4693C5.02685 10.2205 5.02717 9.97164 5.02796 9.7228C5.02886 9.43742 5.23225 9.2224 5.51934 9.21742C5.8812 9.21114 6.24333 9.21106 6.60519 9.21715C6.88105 9.2218 7.08252 9.42419 7.08945 9.70081C7.09614 9.96759 7.09706 10.2348 7.08959 10.5016C7.08219 10.765 6.88945 10.9477 6.62648 10.9518C6.43648 10.9548 6.24643 10.9524 6.05638 10.9524C6.05635 10.9531 6.05635 10.9538 6.05635 10.9545Z" fill="#86AAD9"/>
<path d="M3.09923 11.7642C3.28477 11.7643 3.47033 11.7627 3.65584 11.7646C3.93382 11.7675 4.12966 11.968 4.13042 12.2491C4.13113 12.498 4.13121 12.7469 4.13061 12.9958C4.12988 13.2936 3.94143 13.4949 3.64421 13.5002C3.28229 13.5067 2.9201 13.5073 2.55819 13.5013C2.28537 13.4968 2.07469 13.277 2.07092 13.0023C2.06744 12.7489 2.06736 12.4954 2.07162 12.2421C2.07627 11.9662 2.28102 11.7676 2.55618 11.7649C2.64666 11.764 2.73718 11.7643 2.82769 11.7641C2.9182 11.764 3.00874 11.7641 3.09923 11.7642Z" fill="#86AAD9"/>
<path d="M3.09976 10.9547C2.91882 10.9547 2.73787 10.9551 2.55693 10.9546C2.29142 10.9538 2.07879 10.7572 2.0718 10.4927C2.06479 10.226 2.06422 9.95881 2.07243 9.69216C2.08066 9.42448 2.28381 9.22367 2.55337 9.2184C2.91512 9.21133 3.27717 9.21174 3.63895 9.2175C3.92462 9.22204 4.12217 9.42307 4.12818 9.70942C4.13367 9.97169 4.13373 10.2342 4.13025 10.4965C4.1269 10.7496 3.92383 10.9488 3.66969 10.9524C3.47975 10.9551 3.28973 10.9529 3.09973 10.9529C3.09976 10.9535 3.09976 10.9541 3.09976 10.9547Z" fill="#86AAD9"/>
<path d="M11.9045 13.5018C11.7306 13.489 11.517 13.5258 11.3065 13.4841C11.0729 13.4379 10.9091 13.243 10.9055 13.0043C10.9016 12.751 10.9009 12.4976 10.9057 12.2443C10.911 11.9632 11.1177 11.7643 11.4008 11.763C11.7627 11.7614 12.1247 11.7612 12.4866 11.7632C12.7724 11.7648 12.9615 11.9537 12.9642 12.2399C12.9666 12.4932 12.966 12.7466 12.9644 12.9999C12.9627 13.2931 12.7672 13.4933 12.4718 13.5009C12.2954 13.5055 12.1189 13.5018 11.9045 13.5018Z" fill="#86AAD9"/>
<path d="M9.00883 11.7644C9.18977 11.7644 9.37071 11.7635 9.55166 11.7646C9.8332 11.7665 10.0191 11.9439 10.0266 12.2293C10.0335 12.4914 10.0336 12.7541 10.0278 13.0163C10.0212 13.3202 9.81945 13.4939 9.47514 13.4981C9.16365 13.5019 8.85207 13.5021 8.54052 13.5019C8.16893 13.5018 7.96891 13.3026 7.96907 12.9353C7.96918 12.7136 7.96788 12.492 7.96986 12.2703C7.97266 11.9612 8.17105 11.765 8.47953 11.764C8.65594 11.7634 8.83237 11.7639 9.0088 11.7639C9.00883 11.764 9.00883 11.7642 9.00883 11.7644Z" fill="#86AAD9"/>
<path d="M11.9297 10.9537C11.7669 10.9537 11.604 10.9537 11.4412 10.9537C11.1256 10.9536 10.9299 10.796 10.9115 10.4813C10.895 10.1983 10.8836 9.91172 10.9246 9.62858C10.9587 9.39314 11.153 9.22067 11.3918 9.21744C11.7581 9.21247 12.1246 9.21247 12.4909 9.21679C12.7539 9.21989 12.9605 9.4316 12.9636 9.69585C12.9667 9.95815 12.9658 10.2205 12.9635 10.4828C12.9613 10.7408 12.7579 10.9449 12.4996 10.9528C12.4905 10.9531 12.4815 10.9531 12.4724 10.9531C12.2915 10.9531 12.1106 10.9531 11.9297 10.9531C11.9297 10.9533 11.9297 10.9535 11.9297 10.9537Z" fill="#86AAD9"/>
<path d="M6.06959 11.7627C6.25065 11.7628 6.4317 11.7613 6.61273 11.7631C6.87016 11.7657 7.08073 11.9617 7.08913 12.221C7.09777 12.4878 7.09701 12.7552 7.08986 13.0221C7.08244 13.2992 6.88693 13.4798 6.60868 13.4839C6.27416 13.4888 5.9397 13.4986 5.60518 13.5007C5.21494 13.5031 5.02712 13.3143 5.02723 12.9295C5.02728 12.6987 5.02402 12.4678 5.02606 12.237C5.02843 11.9703 5.23076 11.7693 5.49928 11.7636C5.59431 11.7616 5.68939 11.7628 5.78441 11.7626C5.87949 11.7626 5.97454 11.7626 6.06959 11.7627Z" fill="#86AAD9"/>
<path d="M9.01503 10.9541C8.84743 10.9541 8.67981 10.954 8.51221 10.9542C8.16543 10.9545 7.98166 10.7818 7.97201 10.4354C7.96546 10.2 7.96495 9.96412 7.97123 9.72876C7.97935 9.42387 8.18691 9.22227 8.49242 9.21874C8.82759 9.21488 9.16284 9.21564 9.49806 9.21659C9.80227 9.21746 10.015 9.41618 10.0246 9.71889C10.0327 9.97687 10.0332 10.2354 10.0263 10.4934C10.0189 10.773 9.82682 10.9513 9.54503 10.9533C9.36838 10.9545 9.19168 10.9535 9.01503 10.9535C9.01503 10.9537 9.01503 10.9539 9.01503 10.9541Z" fill="#84A9D9"/>
<path d="M6.04224 8.4229C5.87016 8.4229 5.69808 8.42355 5.52602 8.42276C5.23693 8.42146 5.03185 8.21681 5.03038 7.92701C5.0291 7.67795 5.02891 7.42889 5.03005 7.17986C5.03133 6.90544 5.22431 6.71161 5.49737 6.70707C5.84048 6.70136 6.18353 6.69239 6.52666 6.68973C6.90462 6.6868 7.0932 6.87799 7.09317 7.25602C7.09317 7.46885 7.0939 7.68167 7.09336 7.8945C7.09249 8.22459 6.89904 8.4204 6.57208 8.422C6.39549 8.42287 6.21887 8.42217 6.04227 8.42217C6.04225 8.42241 6.04224 8.42265 6.04224 8.4229Z" fill="#86AAD9"/>
<path d="M8.99306 8.42164C8.82111 8.42151 8.64917 8.4223 8.47722 8.42132C8.18301 8.41966 7.97804 8.22613 7.97097 7.93355C7.96497 7.68482 7.96594 7.43576 7.9707 7.18697C7.97649 6.88472 8.17918 6.69182 8.48247 6.69114C8.81649 6.69038 9.15055 6.6885 9.48457 6.68907C9.82681 6.68967 10.0248 6.88774 10.0258 7.22772C10.0265 7.45397 10.0286 7.68023 10.0269 7.90648C10.0245 8.22798 9.82977 8.42058 9.50893 8.42167C9.33698 8.4223 9.16504 8.42181 8.99306 8.42164Z" fill="#86AAD9"/>
<path d="M6.05596 16.0122C5.87024 16.0121 5.68448 16.0131 5.49875 16.0119C5.23162 16.0101 5.0398 15.8344 5.03165 15.5686C5.02319 15.2925 5.02376 15.0158 5.03061 14.7397C5.03689 14.4856 5.24404 14.294 5.50066 14.2933C5.86306 14.2924 6.22546 14.2935 6.58787 14.294C6.88591 14.2944 7.08191 14.4788 7.0905 14.7801C7.09797 15.0426 7.09814 15.3056 7.09219 15.5682C7.08629 15.828 6.89833 16.0085 6.64033 16.0118C6.44558 16.0142 6.25077 16.0123 6.05596 16.0122Z" fill="#84A9D9"/>
<path d="M14.8972 13.4842C14.716 13.4842 14.5348 13.4852 14.3536 13.484C14.067 13.482 13.8745 13.2995 13.8677 13.0126C13.8615 12.7545 13.8621 12.4961 13.8678 12.2381C13.8738 11.962 14.08 11.7649 14.3563 11.764C14.7187 11.7628 15.0811 11.7629 15.4434 11.7646C15.7338 11.7659 15.9157 11.9342 15.924 12.2205C15.9317 12.4876 15.9323 12.7552 15.9249 13.0222C15.9173 13.2984 15.7193 13.4813 15.4408 13.4832C15.2596 13.4844 15.0784 13.4834 14.8972 13.4834C14.8972 13.4837 14.8972 13.4839 14.8972 13.4842Z" fill="#84A9D9"/>
<path d="M14.921 9.23298C15.1064 9.23298 15.2919 9.23021 15.4772 9.23369C15.7098 9.23804 15.8943 9.38827 15.9074 9.61971C15.9252 9.93501 15.9264 10.2526 15.9103 10.568C15.8991 10.7867 15.7084 10.9478 15.4874 10.9511C15.0986 10.957 14.7096 10.958 14.3208 10.9522C14.074 10.9486 13.8858 10.7569 13.8761 10.4942C13.8662 10.2278 13.8667 9.96037 13.8785 9.69408C13.8911 9.41055 14.092 9.23423 14.3784 9.2339C14.5593 9.23371 14.7401 9.23388 14.921 9.23388C14.921 9.23355 14.921 9.23328 14.921 9.23298Z" fill="#F4822A"/>
<path d="M9.01323 16.0112C8.82761 16.0112 8.64197 16.0125 8.45638 16.0109C8.17054 16.0085 7.97682 15.8239 7.97071 15.5387C7.96527 15.2853 7.96508 15.0315 7.97283 14.7782C7.98201 14.4775 8.1784 14.2933 8.47652 14.2931C8.83419 14.2929 9.19184 14.2928 9.54952 14.2936C9.81755 14.2943 10.0217 14.4903 10.0276 14.7613C10.0334 15.0283 10.0344 15.2956 10.0293 15.5626C10.0241 15.8297 9.83628 16.0094 9.57015 16.0115C9.38453 16.013 9.19891 16.0118 9.01329 16.0118C9.01323 16.0116 9.01323 16.0114 9.01323 16.0112Z" fill="#84A9D9"/>
<path d="M3.0927 14.2943C3.27837 14.2943 3.46407 14.293 3.64975 14.2946C3.92305 14.297 4.12414 14.4889 4.12971 14.7611C4.13517 15.0281 4.13547 15.2955 4.13001 15.5626C4.12454 15.8292 3.93596 16.0078 3.67092 16.0122C3.33167 16.0179 2.99259 16.0099 2.65305 16.0267C2.27379 16.0454 2.04732 15.8158 2.07705 15.4422C2.09336 15.2374 2.07461 15.0358 2.07045 14.8331C2.06439 14.5369 2.26074 14.2564 2.61744 14.2907C2.77449 14.3058 2.93421 14.2933 3.09273 14.2933C3.0927 14.2936 3.0927 14.294 3.0927 14.2943Z" fill="#84A9D9"/>
<path d="M14.902 6.70678C15.0919 6.70678 15.2819 6.70357 15.4718 6.70759C15.7103 6.71262 15.901 6.88386 15.9112 7.11955C15.9237 7.40848 15.9262 7.69845 15.9176 7.98749C15.9102 8.2387 15.7232 8.41527 15.4671 8.42011C15.0873 8.42728 14.7073 8.4281 14.3275 8.4235C14.0906 8.42065 13.8939 8.23451 13.8834 7.99497C13.8711 7.71511 13.8697 7.43409 13.8797 7.15418C13.8895 6.88161 14.0852 6.70805 14.3593 6.70599C14.4498 6.70531 14.5402 6.70621 14.6306 6.70626C14.7211 6.70634 14.8115 6.70629 14.902 6.70629C14.902 6.70642 14.902 6.70659 14.902 6.70678Z" fill="#F5832A"/>
<path d="M11.9537 6.70456C12.1348 6.70456 12.3159 6.70272 12.4969 6.705C12.7565 6.70829 12.9536 6.89769 12.959 7.15792C12.9647 7.42937 12.9653 7.70121 12.9582 7.97261C12.9515 8.23385 12.7558 8.42058 12.4928 8.42276C12.1261 8.4258 11.7594 8.42602 11.3928 8.42265C11.1173 8.42009 10.9214 8.22866 10.9156 7.95274C10.9103 7.69485 10.9109 7.43658 10.9185 7.17876C10.9268 6.89853 11.1272 6.7112 11.4105 6.7084C11.5916 6.7066 11.7727 6.70807 11.9537 6.70807C11.9537 6.70693 11.9537 6.70576 11.9537 6.70456Z" fill="#F4822A"/>
<path d="M11.9462 14.2951C12.1319 14.2951 12.3177 14.2921 12.5034 14.2958C12.7503 14.3007 12.9337 14.4551 12.9473 14.702C12.964 15.0044 12.9639 15.309 12.9486 15.6114C12.9369 15.844 12.7445 16.0103 12.512 16.0129C12.1315 16.0171 11.7509 16.017 11.3704 16.0121C11.1264 16.009 10.9308 15.8159 10.9251 15.5712C10.9186 15.295 10.9176 15.0184 10.9256 14.7423C10.9335 14.4689 11.1297 14.2921 11.4027 14.2941C11.5838 14.2954 11.765 14.2943 11.9462 14.2943C11.9462 14.2946 11.9462 14.2948 11.9462 14.2951Z" fill="#F4822A"/>
<path d="M17.271 13.9661C17.3098 14.1447 17.2872 14.3256 17.287 14.5052C17.2869 14.6712 17.31 14.8387 17.2712 15.0036C17.255 14.6578 17.257 14.3119 17.271 13.9661Z" fill="#666A8E"/>
<path d="M17.2709 13.2866C17.301 13.4966 17.3008 13.7065 17.2712 13.9165C17.2558 13.7065 17.2562 13.4966 17.2709 13.2866Z" fill="#666A8E"/>
<path d="M17.2716 6.62744C17.2996 6.71969 17.3 6.81186 17.2709 6.90398C17.2561 6.81176 17.2558 6.71959 17.2716 6.62744Z" fill="#666A8E"/>
<path d="M17.2711 12.689C17.2996 12.7812 17.3001 12.8733 17.2706 12.9654C17.2564 12.8733 17.2558 12.7811 17.2711 12.689Z" fill="#666A8E"/>
<path d="M17.2707 10.9766C17.2989 11.0507 17.299 11.1247 17.2702 11.1986C17.2563 11.1246 17.2561 11.0505 17.2707 10.9766Z" fill="#666A8E"/>
<path d="M17.2714 7.33447C17.2991 7.40854 17.2991 7.48261 17.2715 7.55671C17.2558 7.48264 17.2559 7.40854 17.2714 7.33447Z" fill="#666A8E"/>
<path d="M17.2726 6.43701C17.2993 6.4839 17.2995 6.53079 17.2726 6.57765C17.2581 6.53079 17.2581 6.4839 17.2726 6.43701Z" fill="#666A8E"/>
<path d="M17.2709 9.9707C17.2958 9.99954 17.2961 10.0283 17.2708 10.0571C17.2587 10.0283 17.2587 9.99951 17.2709 9.9707Z" fill="#666A8E"/>
<path d="M17.2712 9.3186C17.296 9.34752 17.2962 9.37634 17.2708 9.40501C17.2586 9.37617 17.2586 9.34736 17.2712 9.3186Z" fill="#666A8E"/>
<path d="M17.2717 15.1082C17.2934 15.1281 17.2937 15.1478 17.2715 15.1676C17.2715 15.1478 17.2716 15.128 17.2717 15.1082Z" fill="#666A8E"/>
<path d="M17.2696 10.2151C17.2883 10.226 17.2886 10.2369 17.2695 10.2477C17.2696 10.2368 17.2696 10.226 17.2696 10.2151Z" fill="#666A8E"/>
<path d="M17.2695 10.5955C17.2882 10.6062 17.2888 10.6171 17.2697 10.628C17.2696 10.6172 17.2696 10.6063 17.2695 10.5955Z" fill="#666A8E"/>
<path d="M17.2715 6.24683C17.29 6.25767 17.2907 6.2686 17.2716 6.27955C17.2715 6.26865 17.2715 6.25773 17.2715 6.24683Z" fill="#666A8E"/>
</svg>
