<svg width="20" height="21" viewBox="0 0 20 21" fill="none" xmlns="http://www.w3.org/2000/svg">
<path d="M15 15.7842C17.7614 13.0228 17.7614 8.5456 15 5.78418C12.2386 3.02275 7.76143 3.02275 5 5.78418C2.23858 8.5456 2.23858 13.0228 5 15.7842C7.76143 18.5456 12.2386 18.5456 15 15.7842Z" fill="url(#paint0_linear_29493_279346)"/>
<path d="M18.1878 8.63164C17.8087 7.18498 17.0476 5.8595 15.9866 4.79852C14.3882 3.20012 12.263 2.31988 10.0025 2.31988C7.74198 2.31988 5.61675 3.20012 4.01836 4.79852C2.95749 5.85939 2.19638 7.18481 1.81723 8.63147L1.5293 8.55604C1.92179 7.05832 2.70977 5.68626 3.80795 4.58811C5.46251 2.93347 7.66251 2.02222 10.0025 2.02222C12.3425 2.02222 14.5425 2.93347 16.197 4.58811C17.2953 5.68629 18.0833 7.05849 18.4758 8.55621L18.1878 8.63164Z" fill="url(#paint1_linear_29493_279346)"/>
<path d="M18.8639 8.43894C18.935 8.73961 18.7488 9.0411 18.4481 9.11217C18.1474 9.18327 17.846 8.99709 17.7749 8.69642C17.7038 8.39576 17.89 8.09427 18.1906 8.02319C18.4913 7.95209 18.7928 8.13825 18.8639 8.43894Z" fill="url(#paint2_linear_29493_279346)"/>
<path d="M1.13623 8.43894C1.06513 8.73961 1.25131 9.0411 1.55198 9.11217C1.85267 9.18327 2.15413 8.99709 2.22523 8.69642C2.29631 8.39576 2.11015 8.09427 1.80949 8.02319C1.50877 7.95209 1.2073 8.13825 1.13623 8.43894Z" fill="url(#paint3_linear_29493_279346)"/>
<path d="M9.99627 19.5437C7.65633 19.5437 5.45633 18.6325 3.80168 16.9778C2.72842 15.9046 1.94942 14.5665 1.54883 13.1081L1.8358 13.0293C2.22269 14.438 2.97534 15.7306 4.01207 16.7674C5.61054 18.3658 7.73578 19.2461 9.99624 19.2461C12.2566 19.2461 14.3819 18.3658 15.9803 16.7674C17.0172 15.7306 17.7697 14.438 18.1566 13.0295L18.4436 13.1083C18.0431 14.5665 17.2641 15.9046 16.1907 16.9778C14.5361 18.6325 12.3362 19.5437 9.99627 19.5437Z" fill="url(#paint4_linear_29493_279346)"/>
<path d="M1.16111 13.2292C1.08673 12.9293 1.26961 12.6259 1.56948 12.5515C1.86934 12.4771 2.17284 12.66 2.24722 12.9599C2.3216 13.2597 2.13875 13.5632 1.83886 13.6376C1.53894 13.712 1.23546 13.5291 1.16111 13.2292Z" fill="url(#paint5_linear_29493_279346)"/>
<path d="M18.8371 13.2295C18.9115 12.9296 18.7286 12.6261 18.4287 12.5517C18.1288 12.4774 17.8253 12.6602 17.7509 12.9601C17.6766 13.26 17.8594 13.5635 18.1593 13.6379C18.4592 13.7122 18.7627 13.5294 18.8371 13.2295Z" fill="url(#paint6_linear_29493_279346)"/>
<path d="M12.9742 7.4812L8.71321 11.7422L7.02624 10.0553L5.85352 11.228L8.71321 14.0877L14.147 8.65393L12.9742 7.4812Z" fill="white"/>
<defs>
<linearGradient id="paint0_linear_29493_279346" x1="5" y1="5.78418" x2="15" y2="15.7842" gradientUnits="userSpaceOnUse">
<stop stop-color="#5BD821"/>
<stop offset="1" stop-color="#318F05"/>
</linearGradient>
<linearGradient id="paint1_linear_29493_279346" x1="10.0025" y1="2.02222" x2="10.0025" y2="8.63164" gradientUnits="userSpaceOnUse">
<stop stop-color="#5BD821"/>
<stop offset="1" stop-color="#318F05"/>
</linearGradient>
<linearGradient id="paint2_linear_29493_279346" x1="18.3194" y1="8.00806" x2="18.3194" y2="9.12731" gradientUnits="userSpaceOnUse">
<stop stop-color="#5BD821"/>
<stop offset="1" stop-color="#318F05"/>
</linearGradient>
<linearGradient id="paint3_linear_29493_279346" x1="1.68073" y1="8.00806" x2="1.68073" y2="9.12731" gradientUnits="userSpaceOnUse">
<stop stop-color="#5BD821"/>
<stop offset="1" stop-color="#318F05"/>
</linearGradient>
<linearGradient id="paint4_linear_29493_279346" x1="9.9962" y1="13.0293" x2="9.9962" y2="19.5437" gradientUnits="userSpaceOnUse">
<stop stop-color="#5BD821"/>
<stop offset="1" stop-color="#318F05"/>
</linearGradient>
<linearGradient id="paint5_linear_29493_279346" x1="1.70417" y1="12.5349" x2="1.70417" y2="13.6542" gradientUnits="userSpaceOnUse">
<stop stop-color="#5BD821"/>
<stop offset="1" stop-color="#318F05"/>
</linearGradient>
<linearGradient id="paint6_linear_29493_279346" x1="18.294" y1="12.5352" x2="18.294" y2="13.6544" gradientUnits="userSpaceOnUse">
<stop stop-color="#5BD821"/>
<stop offset="1" stop-color="#318F05"/>
</linearGradient>
</defs>
</svg>
