<svg width="18" height="19" viewBox="0 0 18 19" fill="none" xmlns="http://www.w3.org/2000/svg">
<path d="M17.2467 9.86205C17.2467 5.30712 13.5543 1.6145 8.99914 1.6145C4.44427 1.6145 0.751953 5.30712 0.751953 9.86205C0.751953 12.2729 1.78683 14.4419 3.43603 15.9502L2.40637 16.9797C2.12654 17.2598 2.12654 17.7137 2.40637 17.9935C2.68657 18.2737 3.14055 18.2737 3.42041 17.9935L4.58596 16.8282C5.86237 17.6385 7.37534 18.1097 8.99917 18.1097C10.6232 18.1097 12.1362 17.6385 13.4124 16.8282L14.5778 17.9935C14.8576 18.2737 15.3119 18.2737 15.5918 17.9935C15.8718 17.7137 15.8718 17.2599 15.5918 16.9797L14.5621 15.9504C16.2116 14.4423 17.2467 12.2731 17.2467 9.86205ZM8.99912 16.2279C5.48308 16.2279 2.63296 13.3778 2.63296 9.86205C2.63296 6.34622 5.48308 3.49617 8.99912 3.49617C12.5148 3.49617 15.3649 6.34619 15.3649 9.86205C15.3649 13.3778 12.5148 16.2279 8.99912 16.2279Z" fill="#E8465B"/>
<path d="M3.62695 9.86245C3.62695 12.8254 6.03764 15.236 9.00048 15.236C11.9635 15.236 14.3736 12.8254 14.3736 9.86245C14.3736 6.89946 11.9635 4.48901 9.00048 4.48901C6.03767 4.48904 3.62695 6.89946 3.62695 9.86245ZM9.31105 6.63528V10.0349L11.9466 12.7708C12.0978 12.9275 12.0936 13.1781 11.936 13.3296C11.7785 13.4812 11.5287 13.4765 11.3767 13.3192L8.63132 10.4689C8.55996 10.3948 8.52058 10.297 8.52058 10.1944V6.63528C8.52058 6.41706 8.69725 6.23977 8.91599 6.23977C9.13439 6.23977 9.31105 6.41706 9.31105 6.63528Z" fill="white"/>
<path d="M2.63281 9.86222C2.63281 13.378 5.48293 16.2281 8.99897 16.2281C12.5146 16.2281 15.3647 13.378 15.3647 9.86222C15.3647 6.34639 12.5146 3.49634 8.99897 3.49634C5.48296 3.49637 2.63281 6.34639 2.63281 9.86222ZM14.3721 9.86222C14.3721 12.8251 11.962 15.2358 8.99897 15.2358C6.03612 15.2358 3.62544 12.8251 3.62544 9.86222C3.62544 6.89923 6.03612 4.48878 8.99897 4.48878C11.962 4.48881 14.3721 6.89923 14.3721 9.86222Z" fill="white"/>
<path d="M8.91495 6.23926C8.69623 6.23926 8.51953 6.41658 8.51953 6.63476V10.1939C8.51953 10.2965 8.55891 10.3943 8.63027 10.4683L11.3756 13.3186C11.5277 13.476 11.7775 13.4807 11.9349 13.3291C12.0925 13.1776 12.0967 12.9269 11.9455 12.7703L9.31001 10.0344V6.63476C9.30998 6.41655 9.13331 6.23926 8.91495 6.23926Z" fill="#E8465B"/>
<path d="M13.0493 0.642777C12.6789 1.01301 12.6789 1.61366 13.0493 1.98419L16.3802 5.31501C16.7506 5.68542 17.3513 5.68542 17.7215 5.31501C18.0921 4.94424 18.0921 4.34413 17.7215 3.9736L14.3908 0.642777C14.0204 0.272069 13.4197 0.272069 13.0493 0.642777Z" fill="#E8465B"/>
<path d="M3.6087 0.642781L0.277942 3.97357C-0.0926473 4.34407 -0.0926473 4.94422 0.277942 5.31498C0.648175 5.6854 1.24811 5.6854 1.61873 5.31498L4.94946 1.98417C5.31987 1.61367 5.31987 1.01298 4.94946 0.642751C4.57938 0.272073 3.97893 0.272073 3.6087 0.642781Z" fill="#E8465B"/>
</svg>
