<svg width="20" height="21" viewBox="0 0 20 21" fill="none" xmlns="http://www.w3.org/2000/svg">
<path d="M6.49935 1.71875H13.4993C16.166 1.71875 18.3327 3.88542 18.3327 6.55208V13.5521C18.3327 14.834 17.8235 16.0633 16.917 16.9698C16.0106 17.8762 14.7812 18.3854 13.4993 18.3854H6.49935C3.83268 18.3854 1.66602 16.2188 1.66602 13.5521V6.55208C1.66602 5.2702 2.17524 4.04083 3.08167 3.1344C3.98809 2.22797 5.21747 1.71875 6.49935 1.71875ZM6.33268 3.38542C5.53703 3.38542 4.77397 3.70149 4.21136 4.2641C3.64875 4.82671 3.33268 5.58977 3.33268 6.38542V13.7187C3.33268 15.3771 4.67435 16.7188 6.33268 16.7188H13.666C14.4617 16.7188 15.2247 16.4027 15.7873 15.8401C16.3499 15.2775 16.666 14.5144 16.666 13.7187V6.38542C16.666 4.72708 15.3243 3.38542 13.666 3.38542H6.33268ZM14.3743 4.63542C14.6506 4.63542 14.9156 4.74516 15.1109 4.94051C15.3063 5.13586 15.416 5.40082 15.416 5.67708C15.416 5.95335 15.3063 6.2183 15.1109 6.41365C14.9156 6.609 14.6506 6.71875 14.3743 6.71875C14.0981 6.71875 13.8331 6.609 13.6378 6.41365C13.4424 6.2183 13.3327 5.95335 13.3327 5.67708C13.3327 5.40082 13.4424 5.13586 13.6378 4.94051C13.8331 4.74516 14.0981 4.63542 14.3743 4.63542ZM9.99935 5.88542C11.1044 5.88542 12.1642 6.3244 12.9456 7.1058C13.727 7.88721 14.166 8.94701 14.166 10.0521C14.166 11.1572 13.727 12.217 12.9456 12.9984C12.1642 13.7798 11.1044 14.2188 9.99935 14.2188C8.89428 14.2188 7.83447 13.7798 7.05307 12.9984C6.27167 12.217 5.83268 11.1572 5.83268 10.0521C5.83268 8.94701 6.27167 7.88721 7.05307 7.1058C7.83447 6.3244 8.89428 5.88542 9.99935 5.88542ZM9.99935 7.55208C9.33631 7.55208 8.70042 7.81547 8.23158 8.28432C7.76274 8.75316 7.49935 9.38904 7.49935 10.0521C7.49935 10.7151 7.76274 11.351 8.23158 11.8198C8.70042 12.2887 9.33631 12.5521 9.99935 12.5521C10.6624 12.5521 11.2983 12.2887 11.7671 11.8198C12.236 11.351 12.4993 10.7151 12.4993 10.0521C12.4993 9.38904 12.236 8.75316 11.7671 8.28432C11.2983 7.81547 10.6624 7.55208 9.99935 7.55208Z" fill="#08A081"/>
</svg>
