<svg width="18" height="19" viewBox="0 0 18 19" fill="none" xmlns="http://www.w3.org/2000/svg">
<g clip-path="url(#clip0_29493_279263)">
<path d="M13.7812 0.78418H4.21875C1.8888 0.78418 0 2.67298 0 5.00293V14.5654C0 16.8954 1.8888 18.7842 4.21875 18.7842H13.7812C16.1112 18.7842 18 16.8954 18 14.5654V5.00293C18 2.67298 16.1112 0.78418 13.7812 0.78418Z" fill="url(#paint0_radial_29493_279263)"/>
<path d="M13.7812 0.78418H4.21875C1.8888 0.78418 0 2.67298 0 5.00293V14.5654C0 16.8954 1.8888 18.7842 4.21875 18.7842H13.7812C16.1112 18.7842 18 16.8954 18 14.5654V5.00293C18 2.67298 16.1112 0.78418 13.7812 0.78418Z" fill="url(#paint1_radial_29493_279263)"/>
<path d="M9.00063 2.75293C7.09109 2.75293 6.85139 2.7613 6.10144 2.7954C5.35289 2.82971 4.84193 2.94819 4.39488 3.12207C3.93237 3.30165 3.54009 3.54191 3.1493 3.93284C2.75815 4.32371 2.51789 4.71598 2.33775 5.17829C2.16338 5.62548 2.04476 6.13665 2.01108 6.88484C1.97754 7.63487 1.96875 7.87463 1.96875 9.78425C1.96875 11.6939 1.97719 11.9328 2.01122 12.6827C2.04567 13.4313 2.16415 13.9422 2.33789 14.3893C2.51761 14.8518 2.75787 15.2441 3.1488 15.6349C3.53953 16.026 3.9318 16.2669 4.39397 16.4464C4.84137 16.6203 5.3524 16.7388 6.1008 16.7731C6.85083 16.8072 7.09031 16.8156 8.99979 16.8156C10.9095 16.8156 11.1485 16.8072 11.8984 16.7731C12.647 16.7388 13.1585 16.6203 13.6059 16.4464C14.0682 16.2669 14.4599 16.026 14.8506 15.6349C15.2417 15.2441 15.4819 14.8518 15.6621 14.3895C15.8349 13.9423 15.9536 13.4311 15.9888 12.6829C16.0225 11.9329 16.0312 11.6939 16.0312 9.78425C16.0312 7.87463 16.0225 7.63501 15.9888 6.88498C15.9536 6.13644 15.8349 5.62555 15.6621 5.1785C15.4819 4.71598 15.2417 4.32371 14.8506 3.93284C14.4595 3.54177 14.0683 3.30151 13.6055 3.12214C13.1572 2.94819 12.646 2.82964 11.8974 2.7954C11.1474 2.7613 10.9086 2.75293 8.99845 2.75293H9.00063ZM8.36986 4.02003C8.5571 4.01975 8.766 4.02003 9.00063 4.02003C10.878 4.02003 11.1005 4.02678 11.8419 4.06046C12.5274 4.09182 12.8995 4.20636 13.1474 4.30262C13.4755 4.43002 13.7095 4.58239 13.9554 4.82855C14.2015 5.07465 14.3538 5.309 14.4816 5.63715C14.5778 5.88465 14.6925 6.25674 14.7237 6.94229C14.7574 7.68352 14.7647 7.90613 14.7647 9.78263C14.7647 11.6591 14.7574 11.8818 14.7237 12.623C14.6924 13.3085 14.5778 13.6806 14.4816 13.9282C14.3542 14.2563 14.2015 14.49 13.9554 14.7359C13.7093 14.982 13.4757 15.1343 13.1474 15.2618C12.8998 15.3585 12.5274 15.4727 11.8419 15.5041C11.1007 15.5378 10.878 15.5451 9.00063 15.5451C7.12315 15.5451 6.90061 15.5378 6.15945 15.5041C5.4739 15.4725 5.1018 15.3579 4.85374 15.2617C4.52566 15.1342 4.29124 14.9819 4.04515 14.7358C3.79905 14.4897 3.64676 14.2559 3.519 13.9276C3.42274 13.6801 3.30806 13.308 3.27684 12.6224C3.24316 11.8812 3.23641 11.6586 3.23641 9.78088C3.23641 7.90318 3.24316 7.68177 3.27684 6.94053C3.3082 6.25498 3.42274 5.88289 3.519 5.63504C3.64648 5.30689 3.79905 5.07254 4.04522 4.82645C4.29138 4.58035 4.52566 4.42798 4.85381 4.3003C5.10166 4.20362 5.4739 4.08936 6.15945 4.05786C6.80808 4.02854 7.05945 4.01975 8.36986 4.01827V4.02003ZM12.7539 5.1875C12.2881 5.1875 11.9102 5.56508 11.9102 6.03097C11.9102 6.49679 12.2881 6.87472 12.7539 6.87472C13.2197 6.87472 13.5977 6.49679 13.5977 6.03097C13.5977 5.56515 13.2197 5.18722 12.7539 5.18722V5.1875ZM9.00063 6.17335C7.00657 6.17335 5.3898 7.79012 5.3898 9.78425C5.3898 11.7784 7.00657 13.3944 9.00063 13.3944C10.9948 13.3944 12.611 11.7784 12.611 9.78425C12.611 7.79019 10.9946 6.17335 9.00049 6.17335H9.00063ZM9.00063 7.44045C10.295 7.44045 11.3444 8.48973 11.3444 9.78425C11.3444 11.0786 10.295 12.128 9.00063 12.128C7.70625 12.128 6.65691 11.0786 6.65691 9.78425C6.65691 8.48973 7.70618 7.44045 9.00063 7.44045Z" fill="white"/>
</g>
<defs>
<radialGradient id="paint0_radial_29493_279263" cx="0" cy="0" r="1" gradientUnits="userSpaceOnUse" gradientTransform="translate(4.78125 20.1705) rotate(-90) scale(17.8393 16.592)">
<stop stop-color="#FFDD55"/>
<stop offset="0.1" stop-color="#FFDD55"/>
<stop offset="0.5" stop-color="#FF543E"/>
<stop offset="1" stop-color="#C837AB"/>
</radialGradient>
<radialGradient id="paint1_radial_29493_279263" cx="0" cy="0" r="1" gradientUnits="userSpaceOnUse" gradientTransform="translate(-3.01507 2.08081) rotate(78.681) scale(7.97428 32.8702)">
<stop stop-color="#3771C8"/>
<stop offset="0.128" stop-color="#3771C8"/>
<stop offset="1" stop-color="#6600FF" stop-opacity="0"/>
</radialGradient>
<clipPath id="clip0_29493_279263">
<rect width="18" height="18" fill="white" transform="translate(0 0.78418)"/>
</clipPath>
</defs>
</svg>
