<svg width="20" height="21" viewBox="0 0 20 21" fill="none" xmlns="http://www.w3.org/2000/svg">
<path fill-rule="evenodd" clip-rule="evenodd" d="M14.8483 5.87617C14.5541 5.45284 13.7674 4.85784 12.4933 5.1145C11.7499 5.26367 11.3058 5.63117 11.0233 6.11617C10.7224 6.63284 10.5766 7.33534 10.5766 8.15284C10.5766 8.37385 10.4888 8.58581 10.3325 8.74209C10.1762 8.89837 9.96428 8.98617 9.74327 8.98617C7.7716 8.98617 5.89494 8.40034 4.31577 6.81617C4.19654 7.45892 4.14959 8.11298 4.17577 8.76617C4.21994 9.67117 4.43577 10.5787 4.94827 11.3562C5.45244 12.1203 6.2816 12.8203 7.66827 13.2603C7.80415 13.3034 7.92669 13.3807 8.0242 13.4847C8.1217 13.5886 8.1909 13.7159 8.22518 13.8543C8.25946 13.9926 8.25767 14.1375 8.21998 14.275C8.1823 14.4124 8.10998 14.538 8.00994 14.6395C7.56576 15.0951 7.06237 15.4889 6.51327 15.8103C7.3966 15.902 8.24827 15.9087 9.03827 15.837C10.6383 15.692 11.9124 15.2345 12.7091 14.587C14.3866 13.227 15.2841 11.1987 15.1174 7.80034C15.0891 7.242 15.6283 6.6395 15.8883 6.182C15.4958 6.25534 15.1024 6.242 14.8483 5.87617ZM3.8291 4.20534C3.97998 4.1878 4.13278 4.21184 4.27099 4.27485C4.4092 4.33786 4.52755 4.43744 4.61327 4.56284C5.84327 6.362 7.31994 7.11034 8.9591 7.28034C9.0391 6.5795 9.22827 5.887 9.5841 5.277C10.1058 4.382 10.9541 3.72367 12.1658 3.48034C13.8408 3.14367 15.1158 3.75034 15.8549 4.49284L17.3483 4.21367C17.5045 4.18439 17.6659 4.20042 17.8134 4.25988C17.9608 4.31933 18.0882 4.41972 18.1804 4.54921C18.2727 4.6787 18.326 4.83187 18.334 4.99065C18.342 5.14944 18.3045 5.3072 18.2258 5.44534L16.7924 7.96367C16.9233 11.5978 15.9133 14.1345 13.7599 15.882C12.6183 16.8087 10.9833 17.3345 9.1891 17.497C7.38077 17.6603 5.3366 17.4628 3.30494 16.8695C3.13135 16.8189 2.97894 16.7131 2.87071 16.5683C2.76248 16.4234 2.7043 16.2473 2.70496 16.0665C2.70562 15.8857 2.76508 15.7099 2.87436 15.5659C2.98364 15.4218 3.13681 15.3172 3.31077 15.2678C4.33244 14.977 5.11077 14.7262 5.81327 14.287C4.8141 13.757 4.07827 13.0637 3.55744 12.2737C2.8341 11.1753 2.56577 9.95034 2.51244 8.84617C2.4591 7.742 2.61827 6.71867 2.7866 5.98117C2.88244 5.56034 2.9941 5.13867 3.14827 4.73534C3.20265 4.59316 3.29493 4.4686 3.4151 4.37516C3.53528 4.28173 3.67791 4.223 3.8291 4.20534Z" fill="#08A081"/>
</svg>
