<svg width="20" height="21" viewBox="0 0 20 21" fill="none" xmlns="http://www.w3.org/2000/svg">
<path d="M10 15.877C10.2833 15.877 10.521 15.781 10.713 15.589C10.905 15.397 11.0007 15.1596 11 14.877V10.877C11 10.5936 10.904 10.356 10.712 10.164C10.52 9.97195 10.2827 9.87629 10 9.87695C9.71667 9.87695 9.479 9.97295 9.287 10.165C9.095 10.357 8.99933 10.5943 9 10.877V14.877C9 15.1603 9.096 15.398 9.288 15.59C9.48 15.782 9.71733 15.8776 10 15.877ZM10 7.87695C10.2833 7.87695 10.521 7.78095 10.713 7.58895C10.905 7.39695 11.0007 7.15962 11 6.87695C11 6.59362 10.904 6.35595 10.712 6.16395C10.52 5.97195 10.2827 5.87629 10 5.87695C9.71667 5.87695 9.479 5.97295 9.287 6.16495C9.095 6.35695 8.99933 6.59429 9 6.87695C9 7.16029 9.096 7.39795 9.288 7.58995C9.48 7.78195 9.71733 7.87762 10 7.87695ZM10 20.877C8.61667 20.877 7.31667 20.6143 6.1 20.089C4.88333 19.5636 3.825 18.8513 2.925 17.952C2.025 17.052 1.31267 15.9936 0.788 14.777C0.263333 13.5603 0.000666667 12.2603 0 10.877C0 9.49362 0.262667 8.19362 0.788 6.97695C1.31333 5.76029 2.02567 4.70195 2.925 3.80195C3.825 2.90195 4.88333 2.18962 6.1 1.66495C7.31667 1.14029 8.61667 0.87762 10 0.876953C11.3833 0.876953 12.6833 1.13962 13.9 1.66495C15.1167 2.19029 16.175 2.90262 17.075 3.80195C17.975 4.70195 18.6877 5.76029 19.213 6.97695C19.7383 8.19362 20.0007 9.49362 20 10.877C20 12.2603 19.7373 13.5603 19.212 14.777C18.6867 15.9936 17.9743 17.052 17.075 17.952C16.175 18.852 15.1167 19.5646 13.9 20.09C12.6833 20.6153 11.3833 20.8776 10 20.877ZM10 18.877C12.2333 18.877 14.125 18.102 15.675 16.552C17.225 15.002 18 13.1103 18 10.877C18 8.64362 17.225 6.75195 15.675 5.20195C14.125 3.65195 12.2333 2.87695 10 2.87695C7.76667 2.87695 5.875 3.65195 4.325 5.20195C2.775 6.75195 2 8.64362 2 10.877C2 13.1103 2.775 15.002 4.325 16.552C5.875 18.102 7.76667 18.877 10 18.877Z" fill="#00B5D4"/>
</svg>
