<svg width="192" height="62" viewBox="0 0 192 62" fill="none" xmlns="http://www.w3.org/2000/svg">
<circle cx="22.5" cy="24.3896" r="2.5" transform="rotate(-90 22.5 24.3896)" fill="#00BA88" fill-opacity="0.3"/>
<circle cx="31.5" cy="5.38965" r="1.5" transform="rotate(-90 31.5 5.38965)" fill="#00BA88" fill-opacity="0.3"/>
<circle cx="41.5" cy="16.3896" r="1.5" transform="rotate(-90 41.5 16.3896)" fill="#00BA88" fill-opacity="0.3"/>
<circle cx="1.5" cy="37.3896" r="1.5" transform="rotate(-90 1.5 37.3896)" fill="#00B5D4" fill-opacity="0.3"/>
<circle cx="11.5" cy="58.3896" r="1.5" transform="rotate(-90 11.5 58.3896)" fill="#474747" fill-opacity="0.3"/>
<circle cx="31.5" cy="39.3896" r="1.5" transform="rotate(-90 31.5 39.3896)" fill="#00BA88" fill-opacity="0.3"/>
<circle cx="71.5" cy="60.3896" r="1.5" transform="rotate(-90 71.5 60.3896)" fill="#00B5D4" fill-opacity="0.3"/>
<circle cx="11.5" cy="3.38965" r="1.5" transform="rotate(-90 11.5 3.38965)" fill="#00B5D4" fill-opacity="0.3"/>
<circle cx="101.5" cy="46.3896" r="1.5" transform="rotate(-90 101.5 46.3896)" fill="#474747" fill-opacity="0.3"/>
<circle cx="61.5" cy="41.3896" r="1.5" transform="rotate(-90 61.5 41.3896)" fill="#474747" fill-opacity="0.3"/>
<circle cx="71.5" cy="22.3896" r="1.5" transform="rotate(-90 71.5 22.3896)" fill="#00BA88" fill-opacity="0.3"/>
<circle cx="95.5" cy="22.3896" r="1.5" transform="rotate(-90 95.5 22.3896)" fill="#00BA88" fill-opacity="0.3"/>
<circle cx="83.5" cy="2.38965" r="1.5" transform="rotate(-90 83.5 2.38965)" fill="#00B5D4" fill-opacity="0.3"/>
<circle cx="115.5" cy="33.3896" r="1.5" transform="rotate(-90 115.5 33.3896)" fill="#00BA88" fill-opacity="0.3"/>
<circle cx="114.5" cy="20.3896" r="1.5" transform="rotate(-90 114.5 20.3896)" fill="#00BA88" fill-opacity="0.3"/>
<circle cx="125.5" cy="7.38965" r="1.5" transform="rotate(-90 125.5 7.38965)" fill="#00BA88" fill-opacity="0.3"/>
<circle cx="63.5" cy="3.38965" r="1.5" transform="rotate(-90 63.5 3.38965)" fill="#474747" fill-opacity="0.3"/>
<circle cx="183.5" cy="3.38965" r="1.5" transform="rotate(-90 183.5 3.38965)" fill="#474747" fill-opacity="0.3"/>
<circle cx="82.5" cy="35.3896" r="2.5" transform="rotate(-90 82.5 35.3896)" fill="#00BA88" fill-opacity="0.3"/>
<circle cx="189.5" cy="45.3896" r="2.5" transform="rotate(-90 189.5 45.3896)" fill="#00BA88" fill-opacity="0.3"/>
<circle cx="104.5" cy="50.3896" r="2.5" transform="rotate(-90 104.5 50.3896)" fill="#00BA88" fill-opacity="0.3"/>
</svg>
