<svg width="137" height="34" viewBox="0 0 137 34" fill="none" xmlns="http://www.w3.org/2000/svg">
<ellipse cx="10.6572" cy="12.7739" rx="1.28181" ry="1.126" transform="rotate(-90 10.6572 12.7739)" fill="#00BA88" fill-opacity="0.3"/>
<ellipse cx="14.7108" cy="3.03169" rx="0.769087" ry="0.675598" transform="rotate(-90 14.7108 3.03169)" fill="#00BA88" fill-opacity="0.3"/>
<ellipse cx="19.2147" cy="8.67134" rx="0.769087" ry="0.675598" transform="rotate(-90 19.2147 8.67134)" fill="#00BA88" fill-opacity="0.3"/>
<ellipse cx="1.19904" cy="19.4379" rx="0.769087" ry="0.675598" transform="rotate(-90 1.19904 19.4379)" fill="#00B5D4" fill-opacity="0.3"/>
<ellipse cx="5.70294" cy="30.2055" rx="0.769087" ry="0.675598" transform="rotate(-90 5.70294 30.2055)" fill="#474747" fill-opacity="0.3"/>
<ellipse cx="14.7108" cy="20.4633" rx="0.769087" ry="0.675598" transform="rotate(-90 14.7108 20.4633)" fill="#00BA88" fill-opacity="0.3"/>
<ellipse cx="32.7269" cy="31.2309" rx="0.769087" ry="0.675598" transform="rotate(-90 32.7269 31.2309)" fill="#00B5D4" fill-opacity="0.3"/>
<ellipse cx="5.70294" cy="2.00533" rx="0.769087" ry="0.675598" transform="rotate(-90 5.70294 2.00533)" fill="#00B5D4" fill-opacity="0.3"/>
<ellipse cx="46.2391" cy="24.0532" rx="0.769087" ry="0.675598" transform="rotate(-90 46.2391 24.0532)" fill="#474747" fill-opacity="0.3"/>
<ellipse cx="28.223" cy="21.4897" rx="0.769087" ry="0.675598" transform="rotate(-90 28.223 21.4897)" fill="#474747" fill-opacity="0.3"/>
<ellipse cx="32.7269" cy="11.7475" rx="0.769087" ry="0.675598" transform="rotate(-90 32.7269 11.7475)" fill="#00BA88" fill-opacity="0.3"/>
<ellipse cx="43.5364" cy="11.7475" rx="0.769087" ry="0.675598" transform="rotate(-90 43.5364 11.7475)" fill="#00BA88" fill-opacity="0.3"/>
<ellipse cx="38.1317" cy="1.49263" rx="0.769087" ry="0.675598" transform="rotate(-90 38.1317 1.49263)" fill="#00B5D4" fill-opacity="0.3"/>
<ellipse cx="52.5447" cy="17.3872" rx="0.769087" ry="0.675598" transform="rotate(-90 52.5447 17.3872)" fill="#00BA88" fill-opacity="0.3"/>
<ellipse cx="52.0941" cy="10.7221" rx="0.769087" ry="0.675598" transform="rotate(-90 52.0941 10.7221)" fill="#00BA88" fill-opacity="0.3"/>
<ellipse cx="57.0486" cy="4.05709" rx="0.769087" ry="0.675598" transform="rotate(-90 57.0486 4.05709)" fill="#00BA88" fill-opacity="0.3"/>
<ellipse cx="29.1238" cy="2.00533" rx="0.769087" ry="0.675598" transform="rotate(-90 29.1238 2.00533)" fill="#474747" fill-opacity="0.3"/>
<ellipse cx="83.1717" cy="2.00533" rx="0.769087" ry="0.675598" transform="rotate(-90 83.1717 2.00533)" fill="#474747" fill-opacity="0.3"/>
<ellipse cx="37.6817" cy="18.4125" rx="1.28181" ry="1.126" transform="rotate(-90 37.6817 18.4125)" fill="#00BA88" fill-opacity="0.3"/>
<ellipse cx="85.874" cy="23.5405" rx="1.28181" ry="1.126" transform="rotate(-90 85.874 23.5405)" fill="#00BA88" fill-opacity="0.3"/>
<ellipse cx="47.5899" cy="26.103" rx="1.28181" ry="1.126" transform="rotate(-90 47.5899 26.103)" fill="#00BA88" fill-opacity="0.3"/>
<ellipse cx="60.6572" cy="14.7739" rx="1.28181" ry="1.126" transform="rotate(-90 60.6572 14.7739)" fill="#00BA88" fill-opacity="0.3"/>
<ellipse cx="64.7108" cy="5.03169" rx="0.769087" ry="0.675598" transform="rotate(-90 64.7108 5.03169)" fill="#00BA88" fill-opacity="0.3"/>
<ellipse cx="69.2147" cy="10.6713" rx="0.769087" ry="0.675598" transform="rotate(-90 69.2147 10.6713)" fill="#00BA88" fill-opacity="0.3"/>
<ellipse cx="51.199" cy="21.4379" rx="0.769087" ry="0.675598" transform="rotate(-90 51.199 21.4379)" fill="#00B5D4" fill-opacity="0.3"/>
<ellipse cx="55.7029" cy="32.2055" rx="0.769087" ry="0.675598" transform="rotate(-90 55.7029 32.2055)" fill="#474747" fill-opacity="0.3"/>
<ellipse cx="64.7108" cy="22.4633" rx="0.769087" ry="0.675598" transform="rotate(-90 64.7108 22.4633)" fill="#00BA88" fill-opacity="0.3"/>
<ellipse cx="82.7269" cy="33.2309" rx="0.769087" ry="0.675598" transform="rotate(-90 82.7269 33.2309)" fill="#00B5D4" fill-opacity="0.3"/>
<ellipse cx="55.7029" cy="4.00533" rx="0.769087" ry="0.675598" transform="rotate(-90 55.7029 4.00533)" fill="#00B5D4" fill-opacity="0.3"/>
<ellipse cx="96.2391" cy="26.0532" rx="0.769087" ry="0.675598" transform="rotate(-90 96.2391 26.0532)" fill="#474747" fill-opacity="0.3"/>
<ellipse cx="78.223" cy="23.4897" rx="0.769087" ry="0.675598" transform="rotate(-90 78.223 23.4897)" fill="#474747" fill-opacity="0.3"/>
<ellipse cx="82.7269" cy="13.7475" rx="0.769087" ry="0.675598" transform="rotate(-90 82.7269 13.7475)" fill="#00BA88" fill-opacity="0.3"/>
<ellipse cx="93.5364" cy="13.7475" rx="0.769087" ry="0.675598" transform="rotate(-90 93.5364 13.7475)" fill="#00BA88" fill-opacity="0.3"/>
<ellipse cx="88.1317" cy="3.49263" rx="0.769087" ry="0.675598" transform="rotate(-90 88.1317 3.49263)" fill="#00B5D4" fill-opacity="0.3"/>
<ellipse cx="102.545" cy="19.3872" rx="0.769087" ry="0.675598" transform="rotate(-90 102.545 19.3872)" fill="#00BA88" fill-opacity="0.3"/>
<ellipse cx="102.094" cy="12.7221" rx="0.769087" ry="0.675598" transform="rotate(-90 102.094 12.7221)" fill="#00BA88" fill-opacity="0.3"/>
<ellipse cx="107.049" cy="6.05709" rx="0.769087" ry="0.675598" transform="rotate(-90 107.049 6.05709)" fill="#00BA88" fill-opacity="0.3"/>
<ellipse cx="79.1238" cy="4.00533" rx="0.769087" ry="0.675598" transform="rotate(-90 79.1238 4.00533)" fill="#474747" fill-opacity="0.3"/>
<ellipse cx="133.172" cy="4.00533" rx="0.769087" ry="0.675598" transform="rotate(-90 133.172 4.00533)" fill="#474747" fill-opacity="0.3"/>
<ellipse cx="87.6817" cy="20.4125" rx="1.28181" ry="1.126" transform="rotate(-90 87.6817 20.4125)" fill="#00BA88" fill-opacity="0.3"/>
<ellipse cx="135.874" cy="25.5405" rx="1.28181" ry="1.126" transform="rotate(-90 135.874 25.5405)" fill="#00BA88" fill-opacity="0.3"/>
<ellipse cx="97.5899" cy="28.103" rx="1.28181" ry="1.126" transform="rotate(-90 97.5899 28.103)" fill="#00BA88" fill-opacity="0.3"/>
</svg>
