<svg width="20" height="21" viewBox="0 0 20 21" fill="none" xmlns="http://www.w3.org/2000/svg">
<path d="M16.625 18.3496C16.875 18.3496 17.0833 18.2663 17.25 18.0996C17.4167 17.9329 17.5 17.7246 17.5 17.4746V14.0996C17.5 13.9052 17.4375 13.7349 17.3125 13.5888C17.1875 13.4427 17.0278 13.3491 16.8333 13.3079L13.9583 12.7246C13.7639 12.6968 13.5658 12.7143 13.3642 12.7771C13.1625 12.8399 12.9994 12.9335 12.875 13.0579L10.9167 15.0163C9.86111 14.3774 8.89222 13.6204 8.01 12.7454C7.12778 11.8704 6.39528 10.9329 5.8125 9.93294L7.83333 7.89128C7.95833 7.76628 8.03806 7.62378 8.0725 7.46378C8.10695 7.30378 8.11056 7.12683 8.08333 6.93294L7.54167 4.01628C7.51389 3.82183 7.42361 3.66211 7.27083 3.53711C7.11806 3.41211 6.94444 3.34961 6.75 3.34961H3.375C3.125 3.34961 2.91667 3.43294 2.75 3.59961C2.58333 3.76628 2.5 3.97461 2.5 4.22461C2.5 6.01628 2.89944 7.76294 3.69833 9.46461C4.49722 11.1663 5.55278 12.6732 6.865 13.9854C8.17722 15.2977 9.68417 16.3532 11.3858 17.1521C13.0875 17.951 14.8339 18.3502 16.625 18.3496ZM5.02083 8.34961C4.78472 7.80794 4.60417 7.25933 4.47917 6.70378C4.35417 6.14822 4.25694 5.58572 4.1875 5.01628H6.04167L6.39583 6.97461L5.02083 8.34961ZM12.4792 15.8079L13.875 14.4121L15.8333 14.8079V16.6413C15.2639 16.5996 14.6978 16.5093 14.135 16.3704C13.5722 16.2316 13.0203 16.0441 12.4792 15.8079Z" fill="#8DCABE"/>
</svg>
