<svg width="18" height="18" viewBox="0 0 18 18" fill="none" xmlns="http://www.w3.org/2000/svg">
<path d="M4.8327 3.806C4.66788 3.806 4.50676 3.85488 4.36972 3.94645C4.23268 4.03801 4.12587 4.16816 4.0628 4.32043C3.99972 4.47271 3.98322 4.64026 4.01537 4.80191C4.04753 4.96356 4.1269 5.11205 4.24344 5.22859C4.35998 5.34514 4.50847 5.4245 4.67012 5.45666C4.83177 5.48881 4.99933 5.47231 5.1516 5.40924C5.30387 5.34616 5.43402 5.23935 5.52559 5.10231C5.61716 4.96527 5.66603 4.80415 5.66603 4.63934C5.66603 4.41832 5.57823 4.20636 5.42195 4.05008C5.26567 3.8938 5.05371 3.806 4.8327 3.806ZM17.091 8.62267L9.19103 0.739337C9.11333 0.655556 9.01923 0.58865 8.91458 0.542775C8.80993 0.4969 8.69696 0.473038 8.5827 0.47267H3.5827C3.47302 0.472036 3.36431 0.493057 3.26277 0.534527C3.16124 0.575998 3.0689 0.637102 2.99103 0.714337L0.907696 2.78934C0.830462 2.8672 0.769357 2.95955 0.727887 3.06108C0.686416 3.16261 0.665395 3.27133 0.66603 3.381V8.381C0.669099 8.60164 0.755418 8.81297 0.907696 8.97267L8.81603 16.8893C8.97572 17.0416 9.18706 17.1279 9.4077 17.131C9.51737 17.1316 9.62609 17.1106 9.72762 17.0691C9.82915 17.0277 9.9215 16.9666 9.99936 16.8893L17.091 9.79767C17.1683 9.7198 17.2294 9.62746 17.2708 9.52593C17.3123 9.42439 17.3333 9.31568 17.3327 9.206C17.3276 8.98826 17.2414 8.78026 17.091 8.62267ZM9.4077 15.131L2.3327 8.04767V3.72267L3.91603 2.13934H8.2327L15.316 9.21434L9.4077 15.131Z" fill="#8DCABE"/>
</svg>
