<svg width="18" height="17" viewBox="0 0 18 17" fill="none" xmlns="http://www.w3.org/2000/svg">
<path d="M17.3327 0.305664H0.666016V5.30566H1.49935V14.4723C1.49935 14.9144 1.67494 15.3383 1.9875 15.6508C2.30006 15.9634 2.72399 16.139 3.16602 16.139H14.8327C15.2747 16.139 15.6986 15.9634 16.0112 15.6508C16.3238 15.3383 16.4993 14.9144 16.4993 14.4723V5.30566H17.3327V0.305664ZM2.33268 1.97233H15.666V3.639H2.33268V1.97233ZM14.8327 14.4723H3.16602V5.30566H14.8327V14.4723ZM6.49935 6.97233H11.4993C11.4993 7.41436 11.3238 7.83828 11.0112 8.15084C10.6986 8.4634 10.2747 8.639 9.83268 8.639H8.16602C7.72399 8.639 7.30007 8.4634 6.9875 8.15084C6.67494 7.83828 6.49935 7.41436 6.49935 6.97233Z" fill="#8DCABE"/>
</svg>
