<svg width="20" height="21" viewBox="0 0 20 21" fill="none" xmlns="http://www.w3.org/2000/svg">
<path fill-rule="evenodd" clip-rule="evenodd" d="M13.3327 8.35091C13.3327 9.23497 12.9815 10.0828 12.3564 10.7079C11.7313 11.3331 10.8834 11.6842 9.99935 11.6842C9.11529 11.6842 8.26745 11.3331 7.64233 10.7079C7.0172 10.0828 6.66602 9.23497 6.66602 8.35091C6.66602 7.46686 7.0172 6.61901 7.64233 5.99389C8.26745 5.36877 9.11529 5.01758 9.99935 5.01758C10.8834 5.01758 11.7313 5.36877 12.3564 5.99389C12.9815 6.61901 13.3327 7.46686 13.3327 8.35091ZM11.666 8.35091C11.666 8.79294 11.4904 9.21686 11.1779 9.52942C10.8653 9.84198 10.4414 10.0176 9.99935 10.0176C9.55732 10.0176 9.1334 9.84198 8.82084 9.52942C8.50828 9.21686 8.33268 8.79294 8.33268 8.35091C8.33268 7.90888 8.50828 7.48496 8.82084 7.1724C9.1334 6.85984 9.55732 6.68424 9.99935 6.68424C10.4414 6.68424 10.8653 6.85984 11.1779 7.1724C11.4904 7.48496 11.666 7.90888 11.666 8.35091Z" fill="#8DCABE"/>
<path fill-rule="evenodd" clip-rule="evenodd" d="M9.99967 1.68359C4.93717 1.68359 0.833008 5.78776 0.833008 10.8503C0.833008 15.9128 4.93717 20.0169 9.99967 20.0169C15.0622 20.0169 19.1663 15.9128 19.1663 10.8503C19.1663 5.78776 15.0622 1.68359 9.99967 1.68359ZM2.49967 10.8503C2.49967 12.5919 3.09384 14.1953 4.08967 15.4686C4.78903 14.5502 5.69126 13.8059 6.72587 13.2939C7.76048 12.7818 8.89946 12.5159 10.0538 12.5169C11.1933 12.5158 12.3179 12.7749 13.3421 13.2742C14.3663 13.7736 15.263 14.5002 15.9638 15.3986C16.6859 14.4516 17.172 13.3463 17.3821 12.1741C17.5921 11.0019 17.52 9.79654 17.1718 8.65775C16.8235 7.51896 16.209 6.47947 15.3792 5.62529C14.5495 4.77112 13.5282 4.12681 12.4 3.74568C11.2718 3.36456 10.069 3.25757 8.89122 3.43357C7.71344 3.60957 6.5945 4.0635 5.62698 4.75781C4.65946 5.45211 3.87118 6.36682 3.32737 7.42626C2.78355 8.48569 2.49983 9.6594 2.49967 10.8503ZM9.99967 18.3503C8.27797 18.3528 6.60823 17.7605 5.27301 16.6736C5.81045 15.9042 6.52579 15.276 7.35817 14.8425C8.19055 14.409 9.11533 14.1829 10.0538 14.1836C10.9806 14.1829 11.8942 14.4032 12.7188 14.8264C13.5433 15.2497 14.255 15.8635 14.7947 16.6169C13.4491 17.7392 11.7518 18.3527 9.99967 18.3503Z" fill="#8DCABE"/>
</svg>
