<svg width="16" height="15" viewBox="0 0 16 15" fill="none" xmlns="http://www.w3.org/2000/svg">
<path d="M7.99945 1.7974L14.2745 12.6391H1.72445L7.99945 1.7974ZM0.282783 11.8057C-0.358883 12.9141 0.441116 14.3057 1.72445 14.3057H14.2745C15.5578 14.3057 16.3578 12.9141 15.7161 11.8057L9.44112 0.964063C8.79945 -0.144271 7.19945 -0.144271 6.55778 0.964063L0.282783 11.8057ZM7.16612 5.9724V7.63906C7.16612 8.0974 7.54112 8.4724 7.99945 8.4724C8.45778 8.4724 8.83278 8.0974 8.83278 7.63906V5.9724C8.83278 5.51406 8.45778 5.13906 7.99945 5.13906C7.54112 5.13906 7.16612 5.51406 7.16612 5.9724ZM7.16612 10.1391H8.83278V11.8057H7.16612V10.1391Z" fill="#FE4752"/>
</svg>
