<svg width="200" height="157" viewBox="0 0 200 157" fill="none" xmlns="http://www.w3.org/2000/svg">
<path d="M67.5253 29.8886C69.2152 26.274 71.3585 22.7837 74.0492 19.4923C95.1943 -6.375 136.744 -4.19565 161.107 16.6553C188.127 39.7802 185.629 78.6994 185.077 85.3491C183.156 108.483 171.145 146.139 143.519 153.81C130.685 157.373 118.439 153.366 107.755 145.932C99.318 140.062 88.1925 140.609 80.1391 147.492C77.093 150.095 73.697 152.295 69.9247 153.854C61.3871 157.38 53.7869 156.435 50.4951 155.985C24.8331 152.47 -0.234671 123.253 0.00141033 95.9348C0.272369 64.5865 33.822 40.5415 67.5253 29.8886Z" fill="#ECF3FE"/>
<path d="M162.522 71.2532V132.885C162.522 132.96 162.518 133.035 162.515 133.114C162.515 133.15 162.511 133.185 162.507 133.221C162.507 133.253 162.504 133.289 162.5 133.325C162.5 133.339 162.497 133.353 162.497 133.367C162.493 133.392 162.49 133.414 162.486 133.435C162.482 133.489 162.472 133.542 162.465 133.596C162.457 133.646 162.447 133.7 162.436 133.75C162.432 133.774 162.425 133.799 162.418 133.825C162.418 133.842 162.415 133.864 162.407 133.882C162.404 133.907 162.397 133.932 162.39 133.957C162.379 134.003 162.365 134.049 162.354 134.092C162.354 134.099 162.35 134.11 162.347 134.117C162.322 134.196 162.3 134.274 162.272 134.349C162.272 134.353 162.272 134.356 162.268 134.36C162.254 134.399 162.24 134.439 162.225 134.474C162.211 134.51 162.197 134.542 162.186 134.574C162.183 134.585 162.175 134.596 162.175 134.603C162.133 134.699 162.09 134.799 162.04 134.892C162.025 134.921 162.008 134.956 161.99 134.988C161.972 135.021 161.954 135.049 161.936 135.081C161.918 135.11 161.904 135.142 161.883 135.17C161.847 135.231 161.808 135.292 161.768 135.349C161.743 135.388 161.718 135.42 161.697 135.456C161.636 135.535 161.579 135.613 161.515 135.688C161.469 135.745 161.422 135.799 161.376 135.849C161.329 135.902 161.279 135.953 161.229 136.002C161.208 136.027 161.183 136.049 161.158 136.074C161.137 136.095 161.115 136.117 161.09 136.135C161.065 136.16 161.037 136.185 161.008 136.21C161.001 136.217 160.99 136.224 160.983 136.231C160.915 136.292 160.844 136.349 160.772 136.402C160.765 136.406 160.758 136.413 160.751 136.42C160.694 136.459 160.637 136.502 160.576 136.542C160.555 136.556 160.537 136.57 160.519 136.581C160.487 136.602 160.455 136.624 160.423 136.642C160.398 136.659 160.372 136.674 160.344 136.688C160.315 136.706 160.287 136.724 160.258 136.738C160.058 136.852 159.848 136.949 159.63 137.027C159.616 137.031 159.605 137.038 159.591 137.041C159.576 137.045 159.558 137.052 159.544 137.056C159.494 137.074 159.444 137.091 159.391 137.106C159.301 137.134 159.212 137.156 159.123 137.177C159.076 137.188 159.03 137.199 158.984 137.209C158.955 137.216 158.923 137.22 158.894 137.224C158.859 137.231 158.819 137.238 158.784 137.245C158.777 137.245 158.773 137.245 158.77 137.249C158.741 137.252 158.712 137.256 158.68 137.259C158.666 137.259 158.652 137.263 158.637 137.263C158.612 137.266 158.584 137.27 158.559 137.274C158.544 137.274 158.53 137.277 158.512 137.277C158.459 137.281 158.402 137.284 158.348 137.288C158.27 137.291 158.191 137.295 158.113 137.295H49.2259C49.1474 137.295 49.0688 137.291 48.9903 137.288C48.9367 137.284 48.8796 137.281 48.826 137.277C48.7654 137.274 48.7046 137.266 48.6439 137.256C48.6082 137.252 48.5725 137.249 48.5404 137.242C48.4547 137.231 48.369 137.213 48.2869 137.195C48.2619 137.192 48.2404 137.184 48.2155 137.177C48.1261 137.156 48.0369 137.134 47.9477 137.106C47.8941 137.088 47.8441 137.074 47.7942 137.056C47.5549 136.974 47.3228 136.87 47.1015 136.752C47.048 136.72 46.9944 136.688 46.9408 136.656C46.8801 136.62 46.8194 136.581 46.7623 136.542C46.4089 136.303 46.0947 136.017 45.8232 135.688C45.7591 135.613 45.6983 135.535 45.6412 135.453C45.4448 135.181 45.2806 134.889 45.152 134.574C45.1234 134.503 45.0949 134.424 45.0664 134.349C45.0378 134.274 45.0164 134.196 44.9914 134.117C44.97 134.039 44.9485 133.96 44.9307 133.882C44.9129 133.807 44.8985 133.735 44.8843 133.66C44.8807 133.65 44.8807 133.635 44.8771 133.625C44.8664 133.553 44.8557 133.478 44.8486 133.407C44.845 133.403 44.845 133.396 44.845 133.389C44.8379 133.332 44.8342 133.278 44.8307 133.221C44.82 133.111 44.8164 133 44.8164 132.886V71.2532C44.8164 70.7248 44.9092 70.2178 45.0806 69.7465C45.3519 69.0003 45.8197 68.3469 46.4231 67.8506C46.4302 67.8434 46.4409 67.8364 46.4517 67.8292L46.6801 67.6543C47.3978 67.1437 48.2761 66.8438 49.2258 66.8438H158.112C158.219 66.8438 158.323 66.8473 158.426 66.8581C158.444 66.8545 158.466 66.8581 158.484 66.8617C158.584 66.8688 158.687 66.8796 158.783 66.8938C158.805 66.8974 158.83 66.9009 158.851 66.9045C158.937 66.9188 159.023 66.9366 159.105 66.9581C159.126 66.9617 159.148 66.9652 159.169 66.9724C159.273 66.9973 159.373 67.0259 159.473 67.058C159.565 67.0867 159.662 67.1223 159.751 67.158C159.88 67.2081 160.005 67.2687 160.126 67.333C160.194 67.3651 160.262 67.4008 160.326 67.4401C160.44 67.5044 160.551 67.5758 160.654 67.6543C160.658 67.6506 160.658 67.6543 160.658 67.6543L160.887 67.8292C160.897 67.8364 160.908 67.8435 160.915 67.8506C160.976 67.897 161.029 67.947 161.083 67.997C161.126 68.0327 161.165 68.072 161.204 68.1112C161.326 68.229 161.44 68.3541 161.547 68.4898C161.597 68.5504 161.643 68.611 161.686 68.6718C161.872 68.9253 162.029 69.2003 162.154 69.493C162.19 69.5716 162.222 69.6537 162.254 69.7358C162.254 69.7394 162.257 69.7429 162.257 69.7465C162.307 69.8786 162.347 70.0143 162.382 70.1499C162.4 70.2178 162.415 70.2821 162.429 70.3499C162.44 70.4035 162.45 70.4534 162.457 70.507C162.468 70.5606 162.475 70.6142 162.482 70.6677C162.493 70.7319 162.5 70.7962 162.504 70.8604C162.511 70.914 162.515 70.9711 162.515 71.0247C162.518 71.0997 162.522 71.1782 162.522 71.2532Z" fill="#DFE5EA"/>
<path d="M162.259 69.7431H45.082C45.3534 68.9969 45.8212 68.3435 46.4245 67.8471C46.4317 67.84 46.4424 67.8329 46.4531 67.8257L46.6815 67.6509L100.969 26.4413C102.565 25.2273 104.775 25.2273 106.371 26.4413L160.656 67.6509C160.659 67.6472 160.659 67.6509 160.659 67.6509L160.888 67.8257C160.899 67.8329 160.909 67.84 160.916 67.8471C160.977 67.8936 161.031 67.9436 161.084 67.9935C161.127 68.0293 161.166 68.0685 161.206 68.1078C161.327 68.2255 161.441 68.3506 161.548 68.4863C161.598 68.547 161.645 68.6076 161.688 68.6684C161.873 68.9218 162.03 69.1968 162.155 69.4895C162.191 69.5681 162.223 69.6502 162.255 69.7323C162.255 69.736 162.259 69.7395 162.259 69.7431Z" fill="#5B97EF"/>
<path d="M154.069 134.082H51.8125V41.2991C51.8125 36.9398 55.3464 33.4059 59.7057 33.4059H146.175C150.535 33.4059 154.069 36.9398 154.069 41.2991V134.082Z" fill="white"/>
<path d="M140.513 55.6805H65.3751C64.3225 55.6805 63.4612 54.8192 63.4612 53.7666V52.9527C63.4612 51.9001 64.3225 51.0389 65.3751 51.0389H140.513C141.565 51.0389 142.426 51.9001 142.426 52.9527V53.7666C142.426 54.8192 141.565 55.6805 140.513 55.6805Z" fill="#E4ECF9"/>
<path d="M140.513 65.6025H65.3751C64.3225 65.6025 63.4612 64.7413 63.4612 63.6887V62.8749C63.4612 61.8223 64.3225 60.9609 65.3751 60.9609H140.513C141.565 60.9609 142.426 61.8223 142.426 62.8749V63.6887C142.426 64.7413 141.565 65.6025 140.513 65.6025Z" fill="#E4ECF9"/>
<path d="M140.513 75.5166H65.3751C64.3225 75.5166 63.4612 74.6554 63.4612 73.6027V72.789C63.4612 71.7363 64.3225 70.8751 65.3751 70.8751H140.513C141.565 70.8751 142.426 71.7363 142.426 72.789V73.6027C142.426 74.6553 141.565 75.5166 140.513 75.5166Z" fill="#E4ECF9"/>
<path d="M140.513 85.4308H65.3751C64.3225 85.4308 63.4612 84.5695 63.4612 83.5169V82.7032C63.4612 81.6505 64.3225 80.7893 65.3751 80.7893H140.513C141.565 80.7893 142.426 81.6505 142.426 82.7032V83.5169C142.426 84.5696 141.565 85.4308 140.513 85.4308Z" fill="#E4ECF9"/>
<path d="M140.513 95.3451H65.3751C64.3225 95.3451 63.4612 94.4838 63.4612 93.4312V92.6174C63.4612 91.5647 64.3225 90.7035 65.3751 90.7035H140.513C141.565 90.7035 142.426 91.5647 142.426 92.6174V93.4312C142.426 94.4838 141.565 95.3451 140.513 95.3451Z" fill="#E4ECF9"/>
<path d="M103.671 103.722V103.726C103.499 103.912 103.296 104.083 103.064 104.226L49.4686 137.295H49.2259C48.7795 137.295 48.3511 137.231 47.9477 137.106C47.8905 137.088 47.8334 137.07 47.7799 137.052C47.0765 136.809 46.4517 136.392 45.9625 135.849C45.9161 135.799 45.8697 135.745 45.8232 135.688C45.6876 135.528 45.5662 135.352 45.4555 135.17C45.4163 135.11 45.3841 135.049 45.3484 134.988C45.3163 134.924 45.2806 134.86 45.252 134.795C44.9735 134.217 44.8164 133.571 44.8164 132.885V71.2532C44.8164 70.7248 44.9092 70.2178 45.0806 69.7465C45.3519 69.0003 45.8197 68.3469 46.4231 67.8506C46.4302 67.8434 46.4409 67.8364 46.4517 67.8292L46.6801 67.6543C47.3978 67.1437 48.2761 66.8438 49.2258 66.8438H50.2326L54.9385 69.7465L98.3188 96.5138L99.9505 97.5207L103.064 99.4415C103.296 99.5843 103.499 99.7558 103.671 99.9413V99.945C104.639 101.005 104.639 102.666 103.671 103.722Z" fill="#3B82F4"/>
<path d="M162.521 71.2533V132.886C162.521 132.96 162.518 133.035 162.514 133.114C162.514 133.15 162.511 133.185 162.507 133.221C162.507 133.253 162.504 133.289 162.5 133.325C162.5 133.339 162.496 133.353 162.496 133.367C162.493 133.392 162.489 133.414 162.486 133.435C162.482 133.489 162.471 133.543 162.464 133.596C162.457 133.646 162.446 133.7 162.436 133.75C162.436 133.757 162.432 133.767 162.432 133.775C162.429 133.789 162.425 133.807 162.418 133.825C162.418 133.842 162.414 133.864 162.407 133.882C162.404 133.907 162.396 133.932 162.389 133.957C162.379 134.003 162.368 134.046 162.354 134.092C162.354 134.1 162.35 134.11 162.346 134.117C162.325 134.196 162.3 134.274 162.271 134.349C162.271 134.353 162.271 134.356 162.268 134.36C162.254 134.399 162.243 134.435 162.225 134.474C162.214 134.506 162.2 134.539 162.186 134.574C162.182 134.581 162.179 134.592 162.175 134.603C162.132 134.699 162.089 134.799 162.039 134.892C162.025 134.921 162.007 134.956 161.989 134.989C161.972 135.021 161.954 135.049 161.936 135.081C161.918 135.11 161.904 135.142 161.882 135.171C161.847 135.231 161.807 135.292 161.768 135.349C161.743 135.388 161.718 135.421 161.697 135.456C161.636 135.538 161.575 135.613 161.515 135.688C161.468 135.745 161.422 135.799 161.375 135.849C161.329 135.903 161.279 135.953 161.229 136.002C161.208 136.028 161.183 136.049 161.158 136.074C161.136 136.095 161.115 136.117 161.09 136.135C161.065 136.16 161.036 136.185 161.008 136.21C161.001 136.217 160.99 136.224 160.983 136.231C160.915 136.292 160.843 136.349 160.772 136.402C160.765 136.406 160.758 136.413 160.751 136.42C160.693 136.46 160.636 136.502 160.576 136.542C160.554 136.556 160.536 136.57 160.519 136.581C160.486 136.602 160.454 136.624 160.422 136.642C160.397 136.66 160.372 136.674 160.344 136.688C160.315 136.706 160.286 136.724 160.258 136.738C160.058 136.852 159.847 136.949 159.629 137.027C159.615 137.031 159.601 137.038 159.59 137.042C159.576 137.045 159.558 137.052 159.544 137.056C159.494 137.074 159.444 137.091 159.39 137.106C159.301 137.134 159.212 137.156 159.123 137.177C159.076 137.188 159.03 137.199 158.983 137.209C158.955 137.216 158.923 137.22 158.894 137.224C158.858 137.231 158.819 137.238 158.783 137.245H158.773C158.74 137.249 158.708 137.256 158.68 137.259C158.666 137.259 158.651 137.263 158.637 137.263C158.612 137.266 158.587 137.27 158.558 137.274C158.544 137.274 158.53 137.277 158.512 137.277C158.459 137.281 158.401 137.284 158.348 137.288C158.269 137.292 158.191 137.295 158.112 137.295H157.869L104.274 104.226C104.042 104.083 103.838 103.912 103.67 103.726V103.722C102.699 102.662 102.699 101.009 103.67 99.945V99.9413C103.838 99.7558 104.042 99.5843 104.274 99.4415L107.384 97.5207L109.015 96.5138L152.399 69.7465L157.105 66.8438H158.112C158.219 66.8438 158.323 66.8473 158.426 66.8581C158.444 66.8545 158.465 66.8581 158.483 66.8617C158.583 66.8688 158.687 66.8796 158.783 66.8938C158.805 66.8974 158.83 66.9009 158.851 66.9045C158.937 66.9188 159.022 66.9366 159.104 66.9581C159.126 66.9617 159.147 66.9652 159.169 66.9724C159.272 66.9973 159.372 67.0259 159.472 67.058C159.565 67.0867 159.661 67.1223 159.751 67.158C159.879 67.2081 160.004 67.2687 160.126 67.333C160.194 67.3651 160.261 67.4008 160.326 67.4401C160.44 67.5043 160.551 67.5758 160.654 67.6543C160.658 67.6506 160.658 67.6543 160.658 67.6543L160.886 67.8292C160.897 67.8364 160.908 67.8435 160.915 67.8506C160.975 67.897 161.029 67.947 161.083 67.997C161.125 68.0327 161.165 68.072 161.204 68.1112C161.325 68.229 161.44 68.3541 161.547 68.4898C161.597 68.5504 161.643 68.611 161.686 68.6718C161.872 68.9253 162.029 69.2003 162.154 69.493C162.189 69.5716 162.221 69.6537 162.254 69.7358C162.254 69.7394 162.257 69.7429 162.257 69.7465C162.307 69.8786 162.346 70.0143 162.382 70.1499C162.4 70.2178 162.414 70.2821 162.429 70.3499C162.439 70.4035 162.45 70.4534 162.457 70.507C162.468 70.5606 162.475 70.6142 162.482 70.6677C162.493 70.7319 162.5 70.7962 162.503 70.8604C162.511 70.914 162.514 70.9711 162.514 71.0247C162.518 71.0997 162.521 71.1782 162.521 71.2533Z" fill="#3B82F4"/>
<path opacity="0.29" d="M162.522 132.05V132.691C162.522 135.233 160.547 137.294 158.112 137.294H49.2259C46.7909 137.294 44.8164 135.233 44.8164 132.691V132.05L100.822 95.2023C102.56 94.0581 104.774 94.0581 106.513 95.2023L162.522 132.05Z" fill="#474747"/>
<path d="M162.522 132.264V132.878C162.522 135.313 160.547 137.287 158.112 137.287H49.2259C46.7909 137.287 44.8164 135.313 44.8164 132.878V132.264L100.822 96.9631C102.56 95.867 104.774 95.867 106.513 96.9631L162.522 132.264Z" fill="#5B97EF"/>
<path d="M98.1439 45.7662H65.3751C64.3225 45.7662 63.4612 44.9049 63.4612 43.8523V43.0386C63.4612 41.9859 64.3225 41.1247 65.3751 41.1247H98.1439C99.1965 41.1247 100.058 41.9859 100.058 43.0386V43.8523C100.058 44.9049 99.1965 45.7662 98.1439 45.7662Z" fill="#3B82F4"/>
<path d="M60.0101 128.808C60.0003 128.808 59.9906 128.808 59.9808 128.808C58.6754 128.756 57.3613 128.643 56.0752 128.472C55.6795 128.42 55.4013 128.057 55.4538 127.661C55.5064 127.266 55.8698 126.985 56.2651 127.04C57.5074 127.204 58.7769 127.314 60.0383 127.364C60.4371 127.379 60.7476 127.715 60.7317 128.114C60.7161 128.503 60.3958 128.808 60.0101 128.808ZM63.8615 128.79C63.4786 128.79 63.1591 128.489 63.1404 128.102C63.1211 127.704 63.4284 127.365 63.827 127.346C65.0731 127.285 66.3437 127.169 67.6038 127.001C68.0005 126.947 68.3629 127.226 68.4157 127.621C68.4687 128.017 68.1908 128.381 67.7953 128.433C66.495 128.607 65.1836 128.727 63.8973 128.789C63.8854 128.79 63.8734 128.79 63.8615 128.79ZM52.3788 127.793C52.3251 127.793 52.2707 127.787 52.2162 127.775C50.949 127.483 49.6785 127.127 48.4401 126.717C48.0612 126.591 47.856 126.182 47.9815 125.803C48.107 125.424 48.5169 125.219 48.8949 125.345C50.0904 125.741 51.317 126.085 52.54 126.366C52.929 126.456 53.1718 126.843 53.0824 127.232C53.0056 127.567 52.7079 127.793 52.3788 127.793ZM71.4958 127.779C71.1624 127.779 70.8629 127.547 70.7899 127.207C70.706 126.818 70.9544 126.433 71.3446 126.35C72.5701 126.086 73.8094 125.771 75.0277 125.411C75.4106 125.299 75.8127 125.518 75.9251 125.9C76.0379 126.283 75.8191 126.685 75.4361 126.798C74.1833 127.167 72.9089 127.492 71.6482 127.762C71.5971 127.773 71.546 127.779 71.4958 127.779ZM78.8894 125.609C78.5962 125.609 78.3204 125.429 78.212 125.138C78.0727 124.764 78.2628 124.348 78.6367 124.209C79.8174 123.769 81.0012 123.28 82.1554 122.757C82.5184 122.592 82.9472 122.754 83.1117 123.117C83.2765 123.481 83.1152 123.909 82.7516 124.074C81.5675 124.61 80.3529 125.111 79.1416 125.563C79.0585 125.594 78.9732 125.609 78.8894 125.609ZM45.065 125.38C44.97 125.38 44.8735 125.361 44.7808 125.321C43.611 124.82 42.4222 124.258 41.2473 123.65C40.8927 123.467 40.7538 123.031 40.9371 122.676C41.1206 122.322 41.5569 122.183 41.9109 122.367C43.0553 122.958 44.2124 123.505 45.3502 123.993C45.7169 124.15 45.8868 124.575 45.7296 124.942C45.612 125.216 45.3454 125.38 45.065 125.38ZM85.9091 122.426C85.6523 122.426 85.4035 122.289 85.2729 122.047C85.083 121.696 85.2137 121.257 85.5649 121.067C86.581 120.518 87.5478 119.951 88.4387 119.381C88.7742 119.167 89.2215 119.264 89.4368 119.601C89.6517 119.937 89.5533 120.384 89.2169 120.599C88.2967 121.187 87.2993 121.773 86.2523 122.339C86.143 122.398 86.0252 122.426 85.9091 122.426ZM38.2155 121.844C38.0877 121.844 37.9585 121.811 37.8412 121.74C36.7219 121.06 35.6225 120.341 34.5732 119.601C34.2472 119.37 34.1693 118.92 34.3994 118.593C34.6298 118.268 35.0801 118.19 35.4066 118.42C36.4285 119.141 37.4999 119.842 38.591 120.504C38.9321 120.711 39.041 121.155 38.8338 121.496C38.6979 121.721 38.4596 121.844 38.2155 121.844ZM31.9205 117.394C31.7586 117.394 31.5959 117.339 31.4613 117.228C30.4817 116.421 29.543 115.584 28.6686 114.737C28.5971 114.687 28.5359 114.624 28.4874 114.553C28.2598 114.272 28.2737 113.859 28.5324 113.594C28.7718 113.348 29.1437 113.31 29.4243 113.481C30.5947 113.743 31.783 113.942 32.9595 114.072C33.3562 114.116 33.6422 114.473 33.5982 114.869C33.5542 115.266 33.2007 115.553 32.8005 115.508C32.3538 115.459 31.9055 115.4 31.457 115.332C31.76 115.595 32.068 115.856 32.3805 116.113C32.6885 116.367 32.7324 116.822 32.4785 117.131C32.3357 117.304 32.1288 117.394 31.9205 117.394ZM36.7262 115.709C36.33 115.709 36.0073 115.39 36.0038 114.993C36.0003 114.594 36.3208 114.267 36.72 114.264C37.7265 114.255 38.7431 114.197 39.742 114.091C39.9466 114.069 40.1882 114.043 40.4874 114.007C40.8808 113.955 41.2432 114.243 41.2907 114.639C41.338 115.035 41.055 115.395 40.6587 115.442C40.3524 115.479 40.105 115.506 39.9249 115.525C38.8495 115.639 37.7857 115.7 36.7328 115.709C36.7307 115.709 36.7284 115.709 36.7262 115.709ZM44.3833 114.816C44.0488 114.816 43.7487 114.583 43.6769 114.242C43.5948 113.852 43.8446 113.469 44.2352 113.386C45.494 113.121 46.7295 112.803 47.9075 112.439C48.2903 112.323 48.6936 112.536 48.8111 112.917C48.9289 113.298 48.715 113.703 48.3337 113.821C47.1135 114.197 45.8348 114.527 44.533 114.801C44.4827 114.811 44.4326 114.816 44.3833 114.816ZM25.3845 113.794C25.3051 113.794 25.2243 113.781 25.145 113.753C23.9195 113.322 22.6977 112.816 21.5135 112.248C21.1537 112.075 21.0019 111.643 21.1747 111.284C21.3474 110.924 21.7789 110.773 22.1389 110.945C23.2756 111.49 24.4481 111.976 25.6241 112.39C26.0006 112.522 26.1987 112.935 26.0662 113.311C25.9619 113.608 25.6826 113.794 25.3845 113.794ZM51.7433 112.529C51.4631 112.529 51.1966 112.365 51.0789 112.091C50.9213 111.724 51.0908 111.299 51.4575 111.142C52.6481 110.63 53.7768 110.059 54.8123 109.443C55.1549 109.24 55.5986 109.352 55.8027 109.695C56.0065 110.038 55.8937 110.481 55.5507 110.686C54.4614 111.333 53.2764 111.934 52.0283 112.47C51.9352 112.51 51.8384 112.529 51.7433 112.529ZM26.427 112.002C26.221 112.002 26.0161 111.914 25.8733 111.744C25.0049 110.71 24.2122 109.648 23.5179 108.588C23.2991 108.254 23.3923 107.806 23.7262 107.588C24.0602 107.369 24.508 107.463 24.7268 107.796C25.3902 108.809 26.1483 109.824 26.98 110.815C27.2368 111.12 27.1971 111.576 26.8914 111.833C26.7559 111.946 26.5909 112.002 26.427 112.002ZM18.4465 110.469C18.3167 110.469 18.1854 110.434 18.0668 110.361C16.958 109.675 15.8724 108.921 14.8402 108.12C14.5249 107.875 14.4676 107.421 14.7122 107.106C14.957 106.791 15.4112 106.734 15.7261 106.978C16.7185 107.748 17.7617 108.473 18.8274 109.132C19.1668 109.342 19.2716 109.787 19.0616 110.126C18.925 110.347 18.6885 110.469 18.4465 110.469ZM58.3278 108.567C58.1215 108.567 57.9168 108.48 57.7739 108.309C57.5173 108.004 57.5569 107.548 57.8626 107.291C58.8348 106.475 59.7092 105.586 60.4611 104.65C60.7114 104.34 61.1664 104.29 61.4771 104.54C61.7882 104.79 61.8378 105.245 61.5878 105.556C60.7769 106.565 59.8362 107.521 58.7921 108.398C58.6567 108.512 58.4917 108.567 58.3278 108.567ZM12.3691 105.752C12.1887 105.752 12.0084 105.685 11.868 105.55C10.9239 104.642 10.0218 103.675 9.18706 102.676C8.93106 102.37 8.97152 101.915 9.27787 101.659C9.58377 101.403 10.0397 101.443 10.2957 101.749C11.0973 102.708 11.9635 103.636 12.8702 104.509C13.1579 104.785 13.1667 105.242 12.8899 105.53C12.748 105.678 12.5587 105.752 12.3691 105.752ZM22.2422 105.555C21.9699 105.555 21.709 105.4 21.5866 105.137C21.0133 103.905 20.5536 102.651 20.2197 101.408C20.1162 101.022 20.3448 100.626 20.7302 100.522C21.1157 100.416 21.512 100.648 21.6155 101.033C21.9278 102.195 22.3588 103.371 22.8969 104.527C23.0654 104.889 22.9084 105.319 22.5467 105.487C22.448 105.533 22.3443 105.555 22.2422 105.555ZM63.0938 102.59C62.9863 102.59 62.8773 102.565 62.7743 102.515C62.4164 102.338 62.2697 101.905 62.4466 101.547C62.954 100.52 63.3617 99.4225 63.6577 98.2863L63.7099 98.0822C63.8065 97.6947 64.1995 97.4588 64.5862 97.5566C64.9734 97.6532 65.2089 98.0456 65.1119 98.4331L65.0564 98.6509C64.7355 99.8823 64.2934 101.072 63.7422 102.187C63.6162 102.442 63.36 102.59 63.0938 102.59ZM7.43831 99.849C7.20407 99.849 6.97444 99.7352 6.83533 99.5252C6.11212 98.4339 5.44503 97.2907 4.85275 96.1275C4.67158 95.772 4.8131 95.3369 5.16872 95.1557C5.52376 94.9741 5.95926 95.1159 6.1405 95.4717C6.70814 96.5861 7.34709 97.6815 8.04009 98.7272C8.26051 99.0596 8.16952 99.5083 7.83687 99.7286C7.71399 99.81 7.57535 99.849 7.43831 99.849ZM20.2861 98.1532C19.9085 98.1532 19.5905 97.8594 19.5658 97.4773C19.5391 97.066 19.5257 96.6477 19.5257 96.2344C19.5257 95.3201 19.5919 94.3952 19.7223 93.485C19.779 93.0897 20.1431 92.8157 20.5404 92.8723C20.9353 92.929 21.2098 93.2952 21.1531 93.6905C21.0323 94.5324 20.9709 95.3883 20.9709 96.2344C20.9709 96.6169 20.9834 97.0035 21.0081 97.3836C21.034 97.7822 20.7319 98.1257 20.3335 98.1516C20.3177 98.1528 20.3019 98.1532 20.2861 98.1532ZM64.9562 95.1709C64.9455 95.1709 64.935 95.1705 64.9244 95.1701C64.5256 95.1528 64.2164 94.8155 64.2336 94.4169C64.2457 94.1379 64.2517 93.8589 64.2515 93.5795C64.2515 92.6324 64.1823 91.6663 64.0456 90.7073C63.9893 90.3121 64.264 89.9464 64.6591 89.8901C65.054 89.8338 65.4201 90.1083 65.4764 90.5035C65.6227 91.5299 65.6967 92.5646 65.6967 93.5791C65.6969 93.8791 65.6905 94.179 65.6775 94.4794C65.6607 94.8672 65.3407 95.1709 64.9562 95.1709ZM3.94727 92.996C3.65433 92.996 3.3786 92.8165 3.27034 92.526C2.81631 91.3093 2.42345 90.0458 2.10276 88.7708C2.00539 88.3837 2.2402 87.9909 2.6273 87.8935C3.01434 87.7974 3.40697 88.0312 3.50435 88.4182C3.81214 89.6419 4.18888 90.854 4.62427 92.0206C4.76401 92.3945 4.57391 92.8107 4.20005 92.9505C4.11677 92.9812 4.03136 92.996 3.94727 92.996ZM21.3464 90.5701C21.2693 90.5701 21.1909 90.5578 21.1138 90.5315C20.736 90.4032 20.5339 89.9928 20.6623 89.6148C21.0752 88.3993 21.6012 87.1748 22.2249 85.975C22.4096 85.6212 22.8455 85.4836 23.1995 85.6677C23.5537 85.8517 23.6914 86.2881 23.5071 86.6423C22.9171 87.7768 22.4203 88.9335 22.0305 90.0799C21.9284 90.3807 21.6474 90.5701 21.3464 90.5701ZM63.892 87.5779C63.5867 87.5779 63.3031 87.3831 63.2043 87.0766C62.8255 85.901 62.3445 84.7403 61.775 83.6271C61.5934 83.2717 61.7341 82.8366 62.0894 82.6545C62.4446 82.4729 62.8799 82.6134 63.0619 82.9689C63.6666 84.1511 64.1773 85.3842 64.58 86.6333C64.7024 87.0134 64.4937 87.4206 64.1138 87.543C64.0401 87.5668 63.9655 87.5779 63.892 87.5779ZM2.06351 85.5366C1.70933 85.5366 1.39993 85.276 1.34877 84.9153C1.16753 83.6353 1.04903 82.3196 0.996429 81.0051C0.980602 80.6066 1.29081 80.2705 1.6896 80.2544C2.09885 80.2404 2.42472 80.549 2.44072 80.9476C2.49125 82.2136 2.60549 83.4804 2.77993 84.7122C2.83581 85.1075 2.56071 85.4732 2.16561 85.5291C2.13131 85.5341 2.09724 85.5366 2.06351 85.5366ZM24.8715 83.7422C24.7277 83.7422 24.5827 83.6994 24.4561 83.6103C24.1298 83.3806 24.0516 82.9298 24.2813 82.6036C25.0328 81.536 25.8642 80.5018 26.7526 79.5292C27.022 79.2346 27.4791 79.214 27.7735 79.4827C28.0683 79.7523 28.0889 80.2092 27.8197 80.5038C26.9724 81.4317 26.1794 82.4178 25.463 83.4352C25.3223 83.6354 25.0987 83.7422 24.8715 83.7422ZM60.3991 80.7422C60.1766 80.7422 59.957 80.6395 59.8154 80.4464C59.0743 79.4343 58.2525 78.4847 57.3728 77.6241C57.0876 77.3451 57.0825 76.8876 57.3617 76.6022C57.6411 76.317 58.098 76.3117 58.3836 76.5911C59.3196 77.5067 60.1938 78.5167 60.9815 79.5925C61.2174 79.9146 61.1473 80.3666 60.8254 80.6025C60.6968 80.6966 60.5472 80.7422 60.3991 80.7422ZM30.0601 78.064C29.8551 78.064 29.6513 77.9773 29.5085 77.8086C29.2504 77.5041 29.2881 77.0482 29.5925 76.7902C30.6097 75.9281 31.6786 75.1388 32.77 74.4442C33.1069 74.2297 33.5536 74.3291 33.7677 74.6656C33.9819 75.0024 33.8827 75.449 33.5462 75.6633C32.5099 76.3228 31.4942 77.0729 30.5269 77.8926C30.3911 78.0077 30.2251 78.064 30.0601 78.064ZM1.75307 77.8462C1.73909 77.8462 1.72516 77.8458 1.71095 77.845C1.31257 77.822 1.00811 77.4805 1.0309 77.0819C1.1071 75.7561 1.24805 74.4427 1.45023 73.178C1.51308 72.7841 1.88291 72.5154 2.27778 72.5784C2.67185 72.6413 2.94033 73.0117 2.87731 73.406C2.68295 74.6227 2.54736 75.8874 2.47398 77.1649C2.45182 77.5491 2.13315 77.8462 1.75307 77.8462ZM54.8996 75.3905C54.76 75.3905 54.619 75.35 54.4947 75.2657C53.4535 74.5598 52.359 73.9636 51.2414 73.4939C50.8735 73.3392 50.7006 72.9156 50.8552 72.5476C51.0101 72.1795 51.4345 72.0069 51.8014 72.1614C53.0068 72.6683 54.1859 73.3101 55.3058 74.0696C55.6361 74.2936 55.7222 74.7429 55.4983 75.0732C55.3586 75.2793 55.1312 75.3905 54.8996 75.3905ZM36.5511 73.9579C36.2731 73.9579 36.0081 73.7966 35.8891 73.5258C35.7285 73.1605 35.8947 72.734 36.2599 72.5735C37.4992 72.0289 38.7646 71.5978 40.0211 71.2921C40.4088 71.1974 40.7998 71.4355 40.8941 71.8236C40.9884 72.2113 40.7505 72.6023 40.3626 72.6966C39.1882 72.9822 38.0034 73.3861 36.8414 73.8966C36.7469 73.9383 36.6481 73.9579 36.5511 73.9579ZM47.8371 72.4499C47.7939 72.4499 47.7504 72.4459 47.7065 72.4379C46.7192 72.2577 45.7049 72.1663 44.6919 72.1663C44.4875 72.1627 44.2483 72.1704 44.0269 72.1791C43.6267 72.2008 43.2924 71.8834 43.2768 71.4849C43.2614 71.0861 43.5722 70.7502 43.971 70.7348C44.2112 70.7255 44.468 70.7301 44.6923 70.7212C45.7918 70.7212 46.8933 70.8204 47.9661 71.0162C48.3588 71.0879 48.6188 71.4643 48.5471 71.8569C48.4834 72.2055 48.1794 72.4499 47.8371 72.4499ZM2.99443 70.2526C2.92951 70.2526 2.86379 70.2439 2.79824 70.2254C2.41407 70.1174 2.19031 69.7184 2.29839 69.3342C2.65113 68.0805 3.07702 66.8298 3.56455 65.6164C3.71327 65.246 4.13403 65.0666 4.50467 65.2154C4.87491 65.3643 5.05448 65.7851 4.9057 66.1555C4.43751 67.3206 4.02819 68.5216 3.68967 69.7256C3.60012 70.0442 3.30999 70.2526 2.99443 70.2526ZM5.85837 63.1173C5.74413 63.1173 5.62828 63.0902 5.52042 63.0328C5.16785 62.8459 5.03353 62.4084 5.22069 62.0559C5.82879 60.9095 6.50739 59.776 7.23803 58.687C7.46076 58.356 7.90944 58.267 8.24083 58.4895C8.57222 58.7118 8.66056 59.1607 8.43829 59.4923C7.73546 60.5401 7.08235 61.6304 6.49738 62.733C6.36772 62.9778 6.11725 63.1173 5.85837 63.1173ZM10.1416 56.7233C9.9795 56.7233 9.81639 56.6691 9.6816 56.5577C9.37404 56.3035 9.33071 55.8481 9.58503 55.5403C10.4115 54.54 11.3007 53.5643 12.2277 52.6406C12.5104 52.3591 12.9682 52.3596 13.2497 52.6423C13.5315 52.925 13.5307 53.3825 13.248 53.6642C12.3538 54.5554 11.4963 55.4964 10.699 56.4612C10.5562 56.6339 10.3497 56.7233 10.1416 56.7233ZM15.593 51.2854C15.3849 51.2854 15.1782 51.1959 15.0355 51.0227C14.7813 50.7149 14.8249 50.2594 15.1326 50.0055C16.1321 49.1802 17.1865 48.3875 18.2663 47.6496C18.5956 47.4245 19.0456 47.5093 19.2708 47.8384C19.4959 48.168 19.4113 48.6177 19.0819 48.8429C18.0379 49.5564 17.0186 50.3224 16.0526 51.1199C15.918 51.2312 15.7549 51.2854 15.593 51.2854ZM21.9512 46.9377C21.6983 46.9377 21.4528 46.8048 21.3203 46.5684C21.1251 46.2203 21.249 45.7798 21.5972 45.5847C22.7276 44.9508 23.9046 44.3567 25.0952 43.8188C25.4591 43.6539 25.8872 43.816 26.0512 44.1798C26.2155 44.5434 26.0541 44.9716 25.6902 45.1358C24.5376 45.6568 23.3982 46.2319 22.304 46.8453C22.1923 46.9079 22.0711 46.9377 21.9512 46.9377ZM28.9711 43.7631C28.6733 43.7631 28.3946 43.5778 28.2896 43.2811C28.1566 42.9047 28.3541 42.492 28.7303 42.3588C29.952 41.9274 31.2107 41.5411 32.4711 41.2108C32.8563 41.1095 33.252 41.3406 33.3533 41.7268C33.4544 42.1129 33.2235 42.5078 32.8372 42.6091C31.6156 42.929 30.3959 43.3035 29.2119 43.7218C29.1322 43.7498 29.051 43.7631 28.9711 43.7631Z" fill="#F4B545"/>
<path opacity="0.1" d="M65.0122 23.8119L10.4883 31.0871L23.7072 41.1134L23.9141 59.5673L35.3053 49.8917L41.7063 54.718L65.0122 23.8119Z" fill="#232323"/>
<path d="M25.1075 58.4586L24.8052 31.5025L66.2056 22.7031L25.1075 58.4586Z" fill="#46C1AA"/>
<path d="M24.9883 40.0726C25.1978 39.9675 66.2039 22.7031 66.2039 22.7031L11.6799 29.9783L24.9883 40.0726Z" fill="#52D1BD"/>
<path d="M29.5081 43.5139L25.106 58.4594L43.9866 42.4221L29.5081 43.5139Z" fill="#08A081"/>
<path d="M29.5083 43.5131L42.8984 53.6093L66.2043 22.7031L29.5083 43.5131Z" fill="#52D1BD"/>
<path opacity="0.1" d="M172.806 73.4883C172.762 72.7945 172.158 72.263 171.464 72.3071L122.742 75.4042C122.048 75.4482 121.516 76.052 121.56 76.7458L122.819 96.5372C122.863 97.231 123.466 97.7626 124.16 97.7186L172.882 94.6214C173.576 94.5773 174.108 93.9736 174.064 93.2799L172.806 73.4883Z" fill="#232323"/>
<path d="M174.111 92.8098L125.388 95.9068C124.695 95.9509 124.091 95.4193 124.047 94.7256L122.789 74.9341C122.745 74.2403 123.276 73.6366 123.97 73.5925L172.692 70.4955C173.386 70.4514 173.99 70.9829 174.034 71.6767L175.292 91.4682C175.336 92.162 174.804 92.7656 174.111 92.8098Z" fill="white"/>
<path d="M168.954 76.4464L147.692 77.7979C147.144 77.8328 146.666 77.4124 146.631 76.8638L146.628 76.8138C146.593 76.2651 147.014 75.7876 147.562 75.7528L168.824 74.4013C169.372 74.3664 169.85 74.7867 169.885 75.3354L169.888 75.3854C169.923 75.9341 169.502 76.4115 168.954 76.4464Z" fill="#3B82F4"/>
<path d="M169.239 80.9074L147.977 82.2589C147.429 82.2938 146.951 81.8734 146.917 81.3248L146.913 81.2748C146.879 80.7261 147.299 80.2486 147.848 80.2138L169.109 78.8623C169.658 78.8274 170.135 79.2477 170.17 79.7964L170.173 79.8464C170.208 80.3951 169.787 80.8725 169.239 80.9074Z" fill="#ECF3FE"/>
<path d="M169.52 85.3684L148.259 86.7199C147.71 86.7548 147.233 86.3344 147.198 85.7858L147.195 85.7357C147.16 85.1871 147.58 84.7096 148.129 84.6748L169.39 83.3233C169.939 83.2884 170.416 83.7087 170.451 84.2574L170.454 84.3074C170.489 84.8562 170.069 85.3336 169.52 85.3684Z" fill="#ECF3FE"/>
<path d="M169.805 89.8293L148.544 91.1808C147.995 91.2157 147.518 90.7953 147.483 90.2467L147.48 90.1967C147.445 89.648 147.865 89.1706 148.414 89.1358L169.675 87.7842C170.224 87.7494 170.701 88.1697 170.736 88.7184L170.739 88.7684C170.774 89.317 170.354 89.7944 169.805 89.8293Z" fill="#ECF3FE"/>
<path d="M134.932 93.481C140.114 93.481 144.316 89.2796 144.316 84.0969C144.316 78.9141 140.114 74.7127 134.932 74.7127C129.749 74.7127 125.548 78.9141 125.548 84.0969C125.548 89.2796 129.749 93.481 134.932 93.481Z" fill="#ECF3FE"/>
<path d="M139.869 89.8726C139.386 90.2971 138.848 90.6599 138.263 90.9493C137.968 91.097 137.66 91.2254 137.343 91.3318C137.007 91.4466 136.66 91.5368 136.304 91.6021C136.014 91.6559 135.717 91.693 135.415 91.7121C135.113 91.7313 134.814 91.7322 134.518 91.7156C133.14 91.6398 131.852 91.1862 130.764 90.4513C131.246 89.4078 132.135 88.5798 133.238 88.1893L133.239 88.1893C133.24 88.1883 133.24 88.1882 133.241 88.1882C133.43 88.1208 133.626 88.0666 133.827 88.0275C133.835 88.0252 133.844 88.0237 133.852 88.0223C134.028 87.9875 134.209 87.9642 134.394 87.9524L135.952 87.8534C136.136 87.8416 136.319 87.8419 136.498 87.854C136.506 87.8535 136.515 87.8548 136.523 87.8561C136.728 87.8694 136.929 87.8984 137.126 87.9412L137.127 87.9411L137.127 87.942C138.27 88.189 139.259 88.8984 139.869 89.8726Z" fill="#727272"/>
<path d="M139.087 80.6057L139.406 85.6266C139.476 86.733 138.637 87.6866 137.531 87.7569L132.812 88.0569C131.706 88.1272 130.753 87.2875 130.682 86.1811L130.363 81.1602C130.08 76.701 134.454 76.625 134.454 76.625C134.454 76.625 135.586 76.501 136.733 76.9714C137.759 77.3914 138.798 78.2898 139.045 80.1812C139.063 80.3167 139.077 80.4586 139.087 80.6057Z" fill="#302F2F"/>
<path d="M136.473 87.0804L136.567 88.5569C136.607 89.1825 136.033 89.7337 135.292 89.7808C134.55 89.8279 133.911 89.3539 133.872 88.7282L133.778 87.2517C133.761 86.9935 133.849 86.7478 134.011 86.5451C134.049 86.4975 134.09 86.4526 134.136 86.4107C134.222 86.3298 134.321 86.259 134.431 86.2009C134.614 86.1037 134.826 86.0421 135.053 86.0277C135.281 86.0132 135.499 86.0475 135.692 86.1208C135.808 86.1644 135.916 86.2216 136.011 86.291C136.016 86.2941 136.021 86.298 136.026 86.3016C136.071 86.3348 136.113 86.3706 136.152 86.4091C136.338 86.5896 136.457 86.8221 136.473 87.0804Z" fill="#F4B698"/>
<path opacity="0.28" d="M138.454 81.7903L138.591 83.9404C138.687 85.4515 137.803 86.8083 136.49 87.3878L136.526 87.955C136.159 88.1173 135.758 88.2185 135.336 88.2453L135.048 88.2636C134.625 88.2905 134.215 88.2408 133.831 88.1263L133.795 87.5591C132.418 87.1505 131.37 85.916 131.274 84.4055L131.137 82.2553C131.078 81.246 131.455 80.3063 132.106 79.6237C132.697 79.0018 133.512 78.5924 134.429 78.5341L134.718 78.5158C135.542 78.4634 136.32 78.7026 136.951 79.1437C136.951 79.1437 136.951 79.1437 136.952 79.1436C137.797 79.7352 138.379 80.6879 138.454 81.7903Z" fill="black"/>
<path d="M138.419 81.2364L138.591 83.9373C138.638 84.6761 138.45 85.3778 138.094 85.9691C138.093 85.9703 138.092 85.9717 138.092 85.9717C138.009 86.1089 137.917 86.2393 137.817 86.3643C137.622 86.6066 137.396 86.823 137.144 87.0073C136.941 87.1545 136.723 87.2821 136.49 87.3852C136.123 87.5477 135.722 87.6482 135.3 87.6751L135.012 87.6933C134.59 87.7202 134.179 87.6713 133.795 87.5565C132.419 87.1479 131.37 85.9137 131.274 84.4024L131.103 81.716C131.101 81.6786 131.1 81.6411 131.098 81.6037C131.062 80.5775 131.474 79.6304 132.163 78.9586C132.271 78.8525 132.387 78.7532 132.51 78.6607C133.039 78.2628 133.686 78.0087 134.393 77.9638L134.681 77.9455C135.477 77.8949 136.23 78.1169 136.849 78.5301C137.179 78.7499 137.471 79.023 137.71 79.3393C137.809 79.4686 137.898 79.6045 137.978 79.747C138.229 80.1909 138.385 80.6953 138.419 81.2364Z" fill="#F4B698"/>
<path d="M139.918 82.5711C139.967 83.3488 139.376 84.019 138.599 84.0684L138.42 81.2529C138.616 81.2405 138.804 81.2684 138.978 81.3296C138.979 81.3301 138.98 81.3306 138.98 81.3306C139.496 81.513 139.881 81.9897 139.918 82.5711Z" fill="#F4B698"/>
<path d="M139.383 82.6071C139.413 83.0885 139.048 83.5036 138.566 83.5342L138.456 81.7909C138.937 81.7602 139.352 82.1257 139.383 82.6071Z" fill="#E29586"/>
<path d="M137.126 87.9463L137.126 87.9472L136.303 91.6072C136.013 91.661 135.716 91.6981 135.414 91.7173C135.112 91.7364 134.813 91.7374 134.517 91.7207L133.237 88.1945L133.237 88.1935L133.981 88.1462L134.009 88.1717L135.26 89.311L136.359 88.0223L136.383 87.9935L137.126 87.9463Z" fill="#565656"/>
<path d="M131.104 81.7109L131.283 84.5264C130.506 84.5758 129.836 83.9858 129.786 83.2081C129.744 82.5394 130.174 81.95 130.79 81.7667C130.812 81.7602 130.833 81.7543 130.855 81.7495C130.867 81.747 130.879 81.7447 130.89 81.7424C130.96 81.7268 131.031 81.7156 131.104 81.7109Z" fill="#F4B698"/>
<path d="M130.32 83.1771C130.351 83.6585 130.766 84.024 131.247 83.9934L131.137 82.25C130.655 82.2806 130.29 82.6957 130.32 83.1771Z" fill="#E29586"/>
<path d="M138.264 90.9542C137.968 91.1018 137.661 91.2303 137.343 91.3367L137.323 91.014L138.264 90.9542Z" fill="#565656"/>
<path opacity="0.2" d="M135.26 89.3114L136.353 89.9866L137.127 87.9463L135.26 89.3114Z" fill="#363636"/>
<path d="M137.127 87.9453L136.331 89.9174L135.26 89.3105L136.383 87.9926L136.53 87.8213L137.127 87.9453Z" fill="#EEEEEE"/>
<path opacity="0.2" d="M133.237 88.1885L134.252 90.115L135.26 89.3064L133.237 88.1885Z" fill="#363636"/>
<path d="M135.26 89.3097L134.276 90.0472L133.237 88.1918L133.813 87.9932L133.98 88.1446L135.26 89.3097Z" fill="#EEEEEE"/>
<path d="M139.081 80.5153C136.47 80.8712 136.569 78.4823 136.769 77.3055C137.795 77.7256 138.834 78.624 139.081 80.5153Z" fill="#302F2F"/>
<path d="M137.608 78.536C137.527 78.6863 136.726 80.3708 135.099 80.4742C133.472 80.5776 130.951 81.7191 130.975 83.3447C130.998 84.9702 128.622 78.5263 133.531 77.7C138.44 76.8736 137.608 78.536 137.608 78.536Z" fill="#302F2F"/>
<path opacity="0.1" d="M177.174 69.6906L172.498 50.4184C172.334 49.7429 171.647 49.3243 170.972 49.4882L123.528 60.9999C122.852 61.1638 122.433 61.8507 122.597 62.5263L127.274 81.7985C127.437 82.4742 128.124 82.8927 128.8 82.7288L176.244 71.2171C176.919 71.0531 177.338 70.3662 177.174 69.6906Z" fill="#232323"/>
<path d="M177.308 69.4755L129.864 80.9873C129.188 81.1512 128.502 80.7325 128.338 80.057L123.662 60.7847C123.498 60.1091 123.916 59.4223 124.592 59.2584L172.036 47.7466C172.711 47.5827 173.398 48.0013 173.562 48.6769L178.238 67.9491C178.402 68.6247 177.984 69.3116 177.308 69.4755Z" fill="#F4B545"/>
<path d="M137.126 77.018C142.261 77.018 146.424 72.8553 146.424 67.7205C146.424 62.5856 142.261 58.4229 137.126 58.4229C131.992 58.4229 127.829 62.5856 127.829 67.7205C127.829 72.8553 131.992 77.018 137.126 77.018Z" fill="#FFDCA4"/>
<path d="M138.995 75.9102C138.943 75.9228 138.893 75.9348 138.843 75.9414L138.84 75.942C137.273 76.2726 135.716 76.1123 134.319 75.5698C134.589 74.3929 135.347 73.3566 136.413 72.7517L136.416 72.751C136.592 72.65 136.777 72.5615 136.969 72.4888C137.145 72.42 137.328 72.3609 137.518 72.315L139.048 71.9436C139.235 71.8983 139.425 71.8667 139.612 71.8474L139.615 71.8467C139.819 71.8235 140.024 71.8173 140.227 71.8263C141.091 71.8611 141.918 72.1521 142.603 72.6492C142.863 72.8361 143.103 73.0572 143.319 73.2987C142.363 74.4208 141.09 75.2882 139.594 75.7503C139.526 75.7725 139.458 75.7919 139.387 75.8092C139.376 75.8146 139.365 75.8173 139.354 75.82L139.352 75.8207C139.339 75.8268 139.325 75.8301 139.308 75.8313C139.297 75.8367 139.284 75.8401 139.269 75.8406C139.218 75.8588 139.163 75.8721 139.109 75.8855L139.07 75.8948L139.023 75.9061L139.01 75.9095L138.995 75.9102Z" fill="#F4B545"/>
<path d="M132.815 67.1295C132.815 67.1295 131.079 62.069 133.884 61.2802C136.69 60.4915 137.672 59.4935 138.408 59.5683C139.143 59.6431 140.804 64.2203 140.846 65.1808C140.889 66.1412 132.815 67.1295 132.815 67.1295Z" fill="#E09F36"/>
<path d="M139.427 71.0851L139.779 72.5333C139.928 73.147 139.455 73.7941 138.728 73.9705C138.001 74.147 137.284 73.7885 137.135 73.1748L136.784 71.7266C136.722 71.4733 136.767 71.2142 136.892 70.9848C136.921 70.9311 136.954 70.8791 136.992 70.8298C137.063 70.7344 137.149 70.6467 137.248 70.57C137.412 70.4416 137.612 70.3434 137.835 70.2893C138.058 70.2351 138.28 70.231 138.485 70.2698C138.608 70.2928 138.724 70.3307 138.831 70.3829C138.836 70.3852 138.842 70.3881 138.848 70.3908C138.898 70.4159 138.946 70.444 138.992 70.4754C139.208 70.6219 139.366 70.8318 139.427 71.0851Z" fill="#F4CB95"/>
<path d="M140.47 65.4853L140.982 67.5944C141.342 69.0765 140.703 70.577 139.501 71.3816L139.636 71.9379C139.3 72.1632 138.92 72.3337 138.506 72.4341L138.224 72.5027C137.809 72.6032 137.394 72.6258 136.992 72.5794L136.857 72.023C135.421 71.8585 134.165 70.8172 133.806 69.3357L133.294 67.2267C133.058 66.2358 133.268 65.2376 133.794 64.4467C134.271 63.7265 135.008 63.1778 135.908 62.9593L136.191 62.8907C136.999 62.6946 137.813 62.7957 138.516 63.1229C138.516 63.1229 138.516 63.1229 138.517 63.1227C139.459 63.5618 140.203 64.405 140.47 65.4853Z" fill="#D8A471"/>
<path d="M140.337 64.9467L140.98 67.5965C141.141 68.2597 141.103 68.9271 140.903 69.533C140.872 69.6283 140.834 69.7219 140.795 69.8124C140.748 69.925 140.696 70.0321 140.637 70.1376C140.366 70.6323 139.977 71.0609 139.501 71.3823C139.164 71.606 138.783 71.7793 138.369 71.8798L138.088 71.9479C137.674 72.0485 137.257 72.0687 136.857 72.0237C135.42 71.8593 134.164 70.8168 133.805 69.3373L133.138 66.5886C132.924 65.5804 133.167 64.5658 133.733 63.7802C133.824 63.6536 133.92 63.5356 134.025 63.4257C134.481 62.937 135.078 62.5727 135.773 62.404L136.053 62.336C136.592 62.2052 137.136 62.205 137.648 62.3239C137.751 62.3461 137.851 62.3691 137.95 62.4024C138.071 62.4407 138.189 62.4829 138.306 62.5354C139.289 62.9657 140.066 63.8306 140.337 64.9467Z" fill="#F4CB95"/>
<path d="M142.058 66.0108C142.243 66.7735 141.775 67.5417 141.012 67.7267L140.342 64.965C140.534 64.9185 140.726 64.9132 140.908 64.9436C140.91 64.9438 140.911 64.9443 140.911 64.9443C141.455 65.0349 141.92 65.4405 142.058 66.0108Z" fill="#EDC28E"/>
<path d="M141.534 66.1362C141.648 66.6084 141.358 67.0841 140.886 67.1987L140.471 65.4887C140.943 65.3741 141.419 65.6641 141.534 66.1362Z" fill="#D8A471"/>
<path d="M133.166 66.7059L133.836 69.4676C133.074 69.6525 132.306 69.1844 132.121 68.4217C131.962 67.7658 132.286 67.1057 132.865 66.8162C132.885 66.8061 132.905 66.7963 132.926 66.7878C132.937 66.7833 132.948 66.7789 132.96 66.7745C133.026 66.7469 133.094 66.7234 133.166 66.7059Z" fill="#EDC28E"/>
<path d="M132.644 68.2918C132.759 68.764 133.235 69.0539 133.707 68.9394L133.292 67.2294C132.82 67.3439 132.53 67.8196 132.644 68.2918Z" fill="#D8A471"/>
<path d="M140.335 64.9523L140.978 67.6021C141.139 68.2653 141.102 68.9327 140.901 69.5386C140.87 69.6339 140.832 69.7275 140.793 69.8179C140.266 64.6549 139.252 64.1346 138.068 64.432C136.794 64.7478 136.124 63.2494 136.124 63.2494L137.949 62.4081C138.069 62.4464 138.188 62.4886 138.305 62.5411C139.287 62.9713 140.064 63.8362 140.335 64.9523Z" fill="#E5B67F"/>
<path d="M140.018 73.5111L140.492 74.0039L139.593 75.7524C139.526 75.7746 139.458 75.794 139.386 75.8113C139.376 75.8167 139.365 75.8194 139.354 75.8221L139.351 75.8228C139.338 75.8289 139.324 75.8322 139.307 75.8334L139.73 73.1504L139.731 73.1443L139.801 72.7025L139.803 72.6991L139.81 72.6539L139.637 71.9395L140.671 73.0034L140.052 73.4853L140.018 73.5111Z" fill="#CC8E2B"/>
<path d="M139.07 75.8955L139.108 75.8862C139.163 75.8728 139.218 75.8595 139.269 75.8413C139.283 75.8408 139.297 75.8374 139.308 75.832C139.325 75.8307 139.338 75.8274 139.351 75.8214L139.354 75.8207L139.458 75.5046L140.005 73.8037L139.898 73.3614L140.142 72.9764L139.837 72.4161C139.837 72.4161 139.824 72.4688 139.788 72.5618L139.784 72.5686L139.785 72.5741C139.692 72.8354 139.458 73.3721 139.031 73.7462C138.937 73.8245 138.839 73.9005 138.723 73.9608C138.544 73.9548 138.372 73.9206 138.214 73.8688C137.72 73.7125 137.326 73.3834 137.147 73.2086L137.142 73.2038C137.068 73.1374 137.032 73.0968 137.032 73.0968L137.018 73.7344L137.411 73.9648L137.519 74.4071L138.608 75.4926L139.02 75.9048L139.023 75.9069L139.07 75.8955Z" fill="white"/>
<path d="M140.052 73.4822L140.492 74.0009L139.386 75.8083C139.375 75.8137 139.364 75.8164 139.353 75.819L139.35 75.8197C139.337 75.8258 139.324 75.8292 139.307 75.8304C139.296 75.8358 139.282 75.8391 139.268 75.8397L139.676 73.265L139.675 73.2622L139.784 72.5724L139.783 72.567L139.787 72.5601L139.614 71.8458L140.671 73.0003L139.995 73.4173L140.052 73.4822Z" fill="#E09F36"/>
<path d="M138.993 75.9108C138.941 75.9235 138.892 75.9355 138.841 75.942L138.838 75.9427L137.175 74.8073L137.371 74.1517L137.328 74.1445L136.557 74L136.989 72.5801L137.141 73.2038L137.163 73.2945L137.167 73.2993L137.18 73.3193L137.184 73.3241L137.458 73.697L137.459 73.6998L139.068 75.8956L139.021 75.9069L139.008 75.9103L138.993 75.9108Z" fill="#CC8E2B"/>
<path d="M138.993 75.9155L137.175 74.812L137.328 74.1492L137.349 74.0657L136.557 74.0047L136.967 72.4942L136.989 72.5848L137.141 73.2085L137.145 73.2133L137.562 73.7813L137.563 73.784L139.107 75.891L139.068 75.9003L139.021 75.9116L139.008 75.915L138.993 75.9155Z" fill="#E09F36"/>
<path d="M138.075 61.8432C138.075 61.8432 136.225 61.7412 135.891 61.8221C135.557 61.9031 135.137 62.0474 134.514 62.3674C133.891 62.6874 133.068 63.6472 133.068 63.6472L132.967 64.0486C132.89 64.1817 132.813 64.3307 132.816 64.3673C132.819 64.4016 132.822 64.5154 132.824 64.6189L132.741 64.95C132.76 64.9368 132.808 64.9086 132.865 64.8696L133.022 65.1298C133.032 65.1237 133.239 64.548 133.762 64.0805C134.45 63.6282 135.447 63.3139 136.292 63.6662C137.829 64.3063 140.125 63.1583 140.125 63.1583L138.075 61.8432Z" fill="#E09F36"/>
<path d="M169.342 54.0588L148.639 59.0823C148.105 59.2119 147.561 58.8809 147.432 58.3466L147.42 58.2979C147.29 57.7636 147.621 57.2205 148.156 57.0909L168.859 52.0674C169.393 51.9377 169.937 52.2688 170.066 52.8031L170.078 52.8517C170.208 53.3859 169.877 53.9291 169.342 54.0588Z" fill="#E29D2D"/>
<path d="M170.393 58.4026L149.69 63.4261C149.155 63.5557 148.612 63.2247 148.483 62.6904L148.471 62.6417C148.341 62.1075 148.672 61.5643 149.206 61.4347L169.91 56.4112C170.444 56.2816 170.987 56.6126 171.117 57.1469L171.129 57.1956C171.258 57.7298 170.927 58.2729 170.393 58.4026Z" fill="#FFDCA4"/>
<path d="M171.448 62.7464L150.744 67.7699C150.21 67.8995 149.667 67.5685 149.537 67.0342L149.525 66.9855C149.396 66.4513 149.727 65.9081 150.261 65.7785L170.965 60.755C171.499 60.6254 172.042 60.9564 172.172 61.4907L172.183 61.5394C172.313 62.0736 171.982 62.6168 171.448 62.7464Z" fill="#FFDCA4"/>
<path d="M172.502 67.0902L151.799 72.1137C151.265 72.2433 150.722 71.9123 150.592 71.378L150.58 71.3293C150.451 70.7951 150.782 70.2519 151.316 70.1223L172.019 65.0988C172.554 64.9692 173.097 65.3002 173.226 65.8345L173.238 65.8832C173.368 66.4174 173.037 66.9606 172.502 67.0902Z" fill="#FFDCA4"/>
<path d="M139.162 130.663C138.819 130.663 138.476 130.655 138.133 130.641C137.734 130.625 137.423 130.289 137.44 129.89C137.456 129.491 137.799 129.183 138.191 129.198C139.429 129.248 140.676 129.202 141.926 129.058C142.321 129.011 142.681 129.297 142.726 129.694C142.772 130.09 142.487 130.449 142.09 130.494C141.113 130.606 140.128 130.663 139.162 130.663ZM134.343 130.166C134.293 130.166 134.243 130.161 134.193 130.15C132.903 129.878 131.625 129.493 130.393 129.006C130.022 128.859 129.84 128.44 129.987 128.068C130.134 127.697 130.553 127.517 130.925 127.662C132.081 128.119 133.281 128.48 134.491 128.736C134.881 128.818 135.131 129.202 135.049 129.592C134.977 129.932 134.677 130.166 134.343 130.166ZM145.792 129.786C145.471 129.786 145.178 129.571 145.093 129.246C144.992 128.86 145.223 128.465 145.609 128.364C146.799 128.053 147.998 127.652 149.174 127.174C149.544 127.023 149.965 127.202 150.115 127.571C150.266 127.941 150.088 128.362 149.718 128.513C148.485 129.014 147.225 129.435 145.976 129.762C145.914 129.778 145.852 129.786 145.792 129.786ZM127.206 127.356C127.08 127.356 126.953 127.323 126.838 127.254C125.731 126.596 124.64 125.833 123.596 124.988C123.286 124.737 123.238 124.282 123.489 123.972C123.741 123.661 124.195 123.613 124.506 123.865C125.496 124.667 126.529 125.389 127.576 126.013C127.919 126.216 128.032 126.66 127.828 127.003C127.693 127.23 127.453 127.356 127.206 127.356ZM152.921 126.901C152.667 126.901 152.421 126.766 152.289 126.528C152.095 126.179 152.221 125.739 152.57 125.546C153.66 124.941 154.732 124.263 155.757 123.531C156.081 123.299 156.532 123.374 156.765 123.699C156.997 124.023 156.922 124.475 156.597 124.707C155.528 125.471 154.409 126.179 153.271 126.81C153.16 126.871 153.04 126.901 152.921 126.901ZM121.218 122.538C121.028 122.538 120.838 122.463 120.697 122.315C119.81 121.392 118.949 120.387 118.135 119.329C117.892 119.012 117.951 118.558 118.268 118.315C118.585 118.072 119.037 118.131 119.281 118.448C120.063 119.464 120.889 120.429 121.74 121.314C122.016 121.603 122.007 122.06 121.719 122.336C121.578 122.471 121.398 122.538 121.218 122.538ZM159.18 122.43C158.982 122.43 158.785 122.35 158.643 122.191C158.375 121.895 158.399 121.438 158.695 121.171C159.636 120.322 160.528 119.42 161.344 118.49C161.608 118.19 162.064 118.16 162.364 118.423C162.664 118.686 162.694 119.143 162.431 119.443C161.577 120.416 160.646 121.358 159.663 122.244C159.525 122.368 159.352 122.43 159.18 122.43ZM161.663 118.137C161.296 118.137 160.981 117.858 160.945 117.484C160.906 117.087 161.196 116.733 161.594 116.695C162.286 116.627 162.981 116.516 163.675 116.363C163.486 116.123 163.464 115.78 163.644 115.513C164.36 114.451 164.987 113.359 165.511 112.266C165.683 111.906 166.114 111.752 166.474 111.926C166.834 112.098 166.986 112.53 166.814 112.89C166.313 113.937 165.722 114.982 165.054 116.003C165.108 115.987 165.163 115.97 165.218 115.953C165.601 115.835 166.004 116.047 166.123 116.427C166.242 116.808 166.03 117.213 165.649 117.332C164.357 117.736 163.04 118.005 161.734 118.133C161.711 118.135 161.687 118.137 161.663 118.137ZM157.82 118.081C157.789 118.081 157.758 118.079 157.727 118.075C156.462 117.912 155.154 117.606 153.841 117.167C153.462 117.04 153.258 116.631 153.384 116.252C153.511 115.874 153.92 115.669 154.299 115.796C155.524 116.206 156.739 116.491 157.911 116.642C158.307 116.693 158.587 117.055 158.536 117.45C158.489 117.815 158.178 118.081 157.82 118.081ZM116.512 116.44C116.271 116.44 116.035 116.32 115.899 116.1C115.198 114.977 114.552 113.823 113.979 112.672C113.802 112.314 113.947 111.881 114.305 111.703C114.661 111.525 115.096 111.671 115.274 112.028C115.826 113.138 116.448 114.251 117.125 115.335C117.336 115.674 117.233 116.119 116.894 116.331C116.775 116.405 116.643 116.44 116.512 116.44ZM168.983 115.876C168.724 115.876 168.473 115.736 168.344 115.492C168.156 115.14 168.29 114.702 168.642 114.515C169.722 113.941 170.775 113.26 171.773 112.491C172.089 112.248 172.543 112.306 172.787 112.622C173.03 112.938 172.972 113.392 172.656 113.635C171.593 114.454 170.472 115.179 169.321 115.791C169.213 115.849 169.097 115.876 168.983 115.876ZM150.537 115.67C150.42 115.67 150.302 115.642 150.193 115.582C148.994 114.932 147.878 114.186 146.879 113.365C146.57 113.112 146.525 112.656 146.779 112.348C147.033 112.039 147.488 111.995 147.796 112.248C148.725 113.011 149.763 113.705 150.882 114.312C151.233 114.502 151.363 114.94 151.173 115.291C151.042 115.533 150.793 115.67 150.537 115.67ZM175.071 111.205C174.892 111.205 174.713 111.138 174.573 111.006C174.284 110.731 174.272 110.273 174.547 109.984C175.396 109.09 176.194 108.115 176.92 107.087C177.15 106.761 177.6 106.683 177.927 106.913C178.253 107.143 178.331 107.594 178.101 107.92C177.335 109.005 176.492 110.035 175.594 110.979C175.453 111.129 175.262 111.205 175.071 111.205ZM144.659 110.77C144.441 110.77 144.225 110.672 144.083 110.485C143.241 109.375 142.577 108.187 142.11 106.952C141.969 106.578 142.157 106.161 142.531 106.02C142.904 105.88 143.321 106.067 143.462 106.441C143.88 107.545 144.476 108.612 145.234 109.61C145.475 109.928 145.413 110.382 145.096 110.623C144.965 110.722 144.811 110.77 144.659 110.77ZM167.519 109.7C167.456 109.7 167.392 109.692 167.328 109.674C166.943 109.568 166.717 109.171 166.822 108.786C167.161 107.553 167.36 106.329 167.415 105.149C167.433 104.751 167.758 104.445 168.17 104.461C168.569 104.479 168.877 104.817 168.859 105.216C168.799 106.503 168.582 107.833 168.216 109.168C168.128 109.489 167.837 109.7 167.519 109.7ZM179.507 104.934C179.396 104.934 179.282 104.908 179.176 104.853C178.822 104.67 178.683 104.234 178.866 103.879C179.435 102.778 179.939 101.619 180.366 100.435C180.501 100.06 180.915 99.8651 181.291 100C181.666 100.136 181.861 100.55 181.726 100.925C181.278 102.169 180.748 103.385 180.15 104.542C180.021 104.791 179.769 104.934 179.507 104.934ZM142.006 103.664C141.623 103.664 141.303 103.363 141.284 102.976C141.274 102.754 141.268 102.531 141.268 102.308C141.268 101.205 141.401 100.076 141.664 98.9533C141.755 98.5637 142.147 98.3225 142.532 98.4142C142.921 98.505 143.162 98.8937 143.071 99.282C142.834 100.297 142.713 101.316 142.713 102.308C142.713 102.508 142.718 102.707 142.728 102.907C142.748 103.305 142.44 103.644 142.041 103.663C142.029 103.664 142.017 103.664 142.006 103.664ZM167.83 102.072C167.493 102.072 167.192 101.835 167.122 101.491C166.887 100.312 166.523 99.1173 166.041 97.9396C165.889 97.5703 166.066 97.1482 166.436 96.997C166.805 96.8467 167.227 97.0229 167.378 97.3923C167.895 98.655 168.286 99.9386 168.54 101.208C168.618 101.599 168.364 101.98 167.973 102.058C167.925 102.068 167.877 102.072 167.83 102.072ZM143.694 96.2307C143.583 96.2307 143.472 96.2056 143.367 96.1522C143.011 95.971 142.869 95.5362 143.05 95.1804C143.661 93.9802 144.407 92.8543 145.268 91.8344C145.525 91.5292 145.98 91.4909 146.286 91.7486C146.591 92.0062 146.629 92.4623 146.372 92.7672C145.583 93.702 144.899 94.7342 144.339 95.8354C144.211 96.0864 143.957 96.2307 143.694 96.2307ZM164.939 94.9688C164.701 94.9688 164.467 94.8513 164.33 94.6356C163.638 93.5545 162.866 92.5795 162.036 91.7375C161.755 91.4532 161.759 90.9958 162.043 90.7156C162.327 90.4354 162.784 90.4383 163.064 90.7226C163.966 91.636 164.8 92.6904 165.547 93.8565C165.762 94.1926 165.664 94.6397 165.328 94.8546C165.207 94.9318 165.072 94.9688 164.939 94.9688ZM148.644 90.4144C148.417 90.4144 148.194 90.3076 148.053 90.1083C147.823 89.782 147.901 89.3312 148.226 89.1011C149.393 88.2781 150.621 87.6708 151.875 87.2968C152.257 87.1839 152.66 87.4 152.774 87.7825C152.888 88.1651 152.671 88.5678 152.288 88.6816C151.185 89.0111 150.098 89.5494 149.06 90.2821C148.933 90.3713 148.788 90.4144 148.644 90.4144ZM159.513 89.5987C159.394 89.5987 159.273 89.5692 159.161 89.5063C158.066 88.8933 156.935 88.5107 155.8 88.3693C155.404 88.32 155.123 87.9593 155.172 87.5632C155.221 87.167 155.579 86.886 155.978 86.9353C157.3 87.0997 158.609 87.5406 159.867 88.2457C160.216 88.4404 160.34 88.8809 160.145 89.229C160.012 89.4656 159.767 89.5987 159.513 89.5987Z" fill="#52D1BD"/>
<path opacity="0.1" d="M182.927 105.959C190.703 105.959 197.008 99.6552 197.008 91.8785C197.008 84.1019 190.703 77.7977 182.927 77.7977C175.15 77.7977 168.846 84.1019 168.846 91.8785C168.846 99.6552 175.15 105.959 182.927 105.959Z" fill="#232323"/>
<path d="M185.919 104.281C193.696 104.281 200 97.9764 200 90.1998C200 82.4232 193.696 76.119 185.919 76.119C178.143 76.119 171.838 82.4232 171.838 90.1998C171.838 97.9764 178.143 104.281 185.919 104.281Z" fill="#F4B545"/>
<path d="M188.427 86.1234L188.76 85.0177L191.432 85.2079L189.377 92.3573C189.25 92.8096 189.181 93.1099 189.17 93.2585C189.159 93.4136 189.19 93.5379 189.261 93.6311C189.332 93.7243 189.422 93.775 189.53 93.7826C189.895 93.8086 190.382 93.6042 190.993 93.1693C191.604 92.7346 192.153 92.1224 192.64 91.3329C193.127 90.5434 193.405 89.6626 193.474 88.6906C193.532 87.8807 193.432 87.107 193.176 86.3698C192.92 85.6325 192.52 84.98 191.977 84.4122C191.434 83.8445 190.746 83.3817 189.914 83.024C189.081 82.6664 188.125 82.4489 187.045 82.3721C185.945 82.2937 184.926 82.3654 183.987 82.5869C183.049 82.8086 182.213 83.1629 181.48 83.6501C180.746 84.1369 180.119 84.759 179.597 85.5154C179.136 86.1745 178.768 86.9149 178.493 87.7365C178.217 88.558 178.048 89.4042 177.986 90.2747C177.904 91.4357 178.059 92.5136 178.453 93.5081C178.847 94.5028 179.461 95.3571 180.296 96.0712C181.13 96.7853 182.162 97.3232 183.391 97.6856C184.62 98.0477 186.027 98.2037 187.611 98.1538C188.871 98.094 189.949 97.8858 190.846 97.5291C191.743 97.1723 192.519 96.6371 193.173 95.9242L195.329 96.0777C194.927 96.7748 194.424 97.3869 193.82 97.9136C193.216 98.4405 192.522 98.8709 191.739 99.2054C190.955 99.5396 190.087 99.7747 189.135 99.9104C188.182 100.046 187.152 100.075 186.045 99.9958C184.385 99.8777 182.906 99.5538 181.607 99.0238C180.308 98.4938 179.234 97.7865 178.385 96.9019C177.535 96.0173 176.918 94.9897 176.534 93.8193C176.149 92.6489 176.005 91.3753 176.103 89.9984C176.205 88.5608 176.541 87.2348 177.109 86.0199C177.677 84.8058 178.444 83.7696 179.411 82.9124C180.377 82.0553 181.528 81.4133 182.865 80.9857C184.201 80.5588 185.652 80.4007 187.218 80.5121C188.5 80.6033 189.663 80.8744 190.706 81.325C191.749 81.7756 192.627 82.3793 193.34 83.1354C194.053 83.8918 194.576 84.765 194.909 85.7554C195.242 86.7455 195.367 87.8213 195.285 88.9823C195.221 89.8866 194.995 90.761 194.61 91.6053C194.224 92.4493 193.704 93.196 193.051 93.8447C192.398 94.4937 191.649 94.9897 190.803 95.3331C189.958 95.6769 189.063 95.8147 188.118 95.7475C187.572 95.7086 187.153 95.5857 186.862 95.3783C186.572 95.1711 186.391 94.8613 186.318 94.4492C185.689 94.988 184.989 95.3061 184.215 95.4036C183.441 95.5013 182.707 95.3776 182.013 95.0332C181.318 94.6887 180.775 94.1531 180.382 93.4265C179.99 92.7 179.829 91.827 179.902 90.8079C179.977 89.7482 180.28 88.7216 180.808 87.7282C181.337 86.7348 182.044 85.9405 182.931 85.3455C183.818 84.7509 184.791 84.4908 185.851 84.5662C187.066 84.6529 187.925 85.172 188.427 86.1234ZM182.515 90.9737C182.458 91.7836 182.582 92.4165 182.889 92.8726C183.196 93.3286 183.623 93.5761 184.169 93.615C184.804 93.6601 185.38 93.4466 185.899 92.9748C186.417 92.503 186.829 91.8896 187.134 91.1344C187.438 90.3796 187.617 89.6408 187.668 88.9186C187.693 88.5611 187.674 88.2356 187.61 87.9428C187.546 87.6501 187.439 87.3898 187.289 87.1617C187.139 86.9343 186.952 86.7564 186.727 86.6285C186.502 86.5005 186.241 86.4259 185.944 86.4049C185.35 86.3626 184.799 86.5556 184.29 86.9843C183.781 87.4126 183.372 87.9871 183.064 88.708C182.754 89.4287 182.572 90.1839 182.515 90.9737Z" fill="white"/>
<path d="M144.539 12.1354L146.06 11.3353C146.405 11.154 146.808 11.4468 146.742 11.8308L146.452 13.5254C146.426 13.6779 146.476 13.8334 146.587 13.9414L147.818 15.1416C148.097 15.4135 147.943 15.8872 147.558 15.9432L145.856 16.1905C145.703 16.2127 145.571 16.3089 145.502 16.4476L144.741 17.9894C144.569 18.3387 144.071 18.3387 143.898 17.9894L143.138 16.4476C143.069 16.3089 142.937 16.2127 142.784 16.1905L141.082 15.9432C140.697 15.8872 140.543 15.4134 140.822 15.1416L142.053 13.9414C142.164 13.8334 142.214 13.6779 142.188 13.5254L141.897 11.8308C141.832 11.4468 142.235 11.1541 142.579 11.3353L144.101 12.1354C144.238 12.2074 144.402 12.2074 144.539 12.1354Z" fill="#4786D1"/>
<path d="M20.7529 134.533C18.5219 134.533 16.7073 132.719 16.7073 130.488C16.7073 128.257 18.5219 126.442 20.7529 126.442C22.9839 126.442 24.799 128.257 24.799 130.488C24.799 132.719 22.9839 134.533 20.7529 134.533ZM20.7529 127.555C19.1359 127.555 17.8204 128.871 17.8204 130.488C17.8204 132.105 19.1358 133.42 20.7529 133.42C22.37 133.42 23.6858 132.105 23.6858 130.488C23.6858 128.871 22.3699 127.555 20.7529 127.555Z" fill="#4786D1"/>
<path d="M20.7521 132.547C21.8901 132.547 22.8125 131.624 22.8125 130.486C22.8125 129.348 21.8901 128.426 20.7521 128.426C19.6141 128.426 18.6917 129.348 18.6917 130.486C18.6917 131.624 19.6141 132.547 20.7521 132.547Z" fill="#4786D1"/>
<path d="M104.4 154.658C105.427 154.658 106.259 153.825 106.259 152.798C106.259 151.771 105.427 150.938 104.4 150.938C103.373 150.938 102.54 151.771 102.54 152.798C102.54 153.825 103.373 154.658 104.4 154.658Z" fill="#4786D1"/>
<path d="M73.5323 6.94487C74.5594 6.94487 75.392 6.11225 75.392 5.08517C75.392 4.05808 74.5594 3.22546 73.5323 3.22546C72.5052 3.22546 71.6726 4.05808 71.6726 5.08517C71.6726 6.11225 72.5052 6.94487 73.5323 6.94487Z" fill="#4786D1"/>
</svg>
