<svg width="150" height="130" viewBox="0 0 150 130" fill="none" xmlns="http://www.w3.org/2000/svg">
<path d="M74.3134 119.454C102.299 119.454 124.986 96.767 124.986 68.7812C124.986 40.7954 102.299 18.1084 74.3134 18.1084C46.3276 18.1084 23.6406 40.7954 23.6406 68.7812C23.6406 96.767 46.3276 119.454 74.3134 119.454Z" fill="#E0F4F2"/>
<path opacity="0.73" d="M115.699 80.9617V97.9983C113.832 100.64 111.733 103.077 109.411 105.312V80.9617H109.401V80.9039C109.372 80.7777 106.315 78.2431 103.964 76.3182V75.2543L106.808 74.5193C107.978 74.2198 109.207 74.3167 110.3 74.7904C110.794 75.0028 111.306 75.2063 111.819 75.3707V77.596C114.17 79.521 115.66 80.7785 115.689 80.9047V80.9625L115.699 80.9617Z" fill="#7FD6CB"/>
<path d="M2.19434 3.76562L17.0642 38.6561L27.932 31.2207L34.2303 40.3727L35.3674 24.9338L48.5207 16.9189L2.19434 3.76562Z" fill="#FFB031"/>
<path d="M30.3411 29.5691L17.0641 38.656L27.9319 31.2206L34.2301 40.3726L35.3672 24.9337L14.4082 12.4519L30.3411 29.5691Z" fill="#FF9433"/>
<path d="M35.0889 28.7185L14.4082 12.4519L35.3672 24.9337L35.0889 28.7185Z" fill="#FF7733"/>
<path d="M34.4976 44.7245C34.3804 44.0448 34.2315 43.3668 34.0557 42.7084L35.0755 42.4349C35.2603 43.1243 35.4149 43.834 35.5379 44.5446L34.4976 44.7245Z" fill="#00C8B7"/>
<path d="M22.1842 68.4229C20.6515 68.3204 19.1856 67.832 17.9443 67.0083L18.528 66.1292C19.6162 66.8504 20.9047 67.2793 22.2542 67.3697L22.1842 68.4229ZM26.5689 67.5618L26.1033 66.6143C27.2013 66.0747 28.2635 65.238 29.2606 64.1277L30.046 64.8326C28.9586 66.0446 27.7882 66.9635 26.5689 67.5618ZM15.0077 63.6377C14.4118 62.4315 14.0977 61.1056 14.0977 59.8033C14.0977 59.6966 14.1001 59.5892 14.1042 59.4826L14.1164 59.2539L15.1688 59.3312L15.1582 59.5233C15.1542 59.6185 15.1525 59.7105 15.1525 59.8033C15.1517 60.9452 15.4285 62.1092 15.9526 63.1713L15.0077 63.6377ZM55.8472 63.3968L55.8423 62.3411C57.2171 62.3346 58.6325 62.2785 60.0471 62.1743L60.1245 63.2267C58.6854 63.3325 57.2464 63.3903 55.8472 63.3968ZM51.5659 63.2584L50.8919 63.2063C49.5945 63.0989 48.4192 62.9524 47.2976 62.7587L47.4766 61.7185C48.5673 61.9073 49.7125 62.0497 50.979 62.1547L51.6391 62.2044L51.5659 63.2584ZM64.3773 62.7782L64.2349 61.7315C65.5925 61.5467 66.9917 61.3156 68.3941 61.0453L68.5944 62.0815C67.1732 62.3558 65.7545 62.591 64.3773 62.7782ZM43.1033 61.7111C41.8629 61.2887 40.6997 60.7735 39.6465 60.1785C39.4813 60.0857 39.316 59.9888 39.1524 59.8904L39.6978 58.9861C39.8516 59.0797 40.0063 59.17 40.1633 59.2579C41.1612 59.8212 42.2641 60.3095 43.4427 60.7116L43.1033 61.7111ZM32.5693 61.2903L31.6536 60.7645C32.3373 59.5745 32.9233 58.308 33.3946 57.0009L34.3876 57.3582C33.8952 58.7248 33.2831 60.0474 32.5693 61.2903ZM72.7658 61.1739L72.5176 60.1484C73.8378 59.8285 75.2117 59.4647 76.6003 59.0666L76.8909 60.0816C75.4876 60.4829 74.1007 60.85 72.7658 61.1739ZM80.9679 58.8363L80.6423 57.8319C81.9837 57.3972 83.3194 56.9414 84.6469 56.4702L84.9994 57.4648C83.6637 57.9401 82.319 58.3984 80.9679 58.8363ZM35.6281 57.4453C34.657 56.7371 33.6144 55.9956 32.4854 55.377L32.1322 55.1898L32.6157 54.2522C32.7418 54.3165 32.8672 54.3832 32.9917 54.4516C34.176 55.0995 35.2943 55.8955 36.2499 56.5914L35.6281 57.4453ZM16.6486 55.8581L15.9103 55.1036C16.8398 54.1936 18.1104 53.5115 19.7953 53.0191L20.1501 54.0145C18.5988 54.4687 17.4405 55.0824 16.6486 55.8581ZM28.2765 53.7972C27.0768 53.5286 25.8461 53.3918 24.6179 53.3918L24.1897 53.3975L24.1637 52.3419C25.6166 52.306 27.0833 52.4477 28.5069 52.7667L28.2765 53.7972ZM35.5027 53.1753L34.4633 52.9906C34.7051 51.6264 34.8304 50.2354 34.8377 48.8574L35.8934 48.8622C35.8861 50.3005 35.755 51.7517 35.5027 53.1753Z" fill="#00C8B7"/>
<path d="M89.0403 55.9774L88.665 54.9909C89.3219 54.7402 89.9787 54.4862 90.6332 54.2307L91.0165 55.2139C90.3605 55.4703 89.7012 55.7259 89.0403 55.9774Z" fill="#00C8B7"/>
<path d="M122.271 81.7037C121.734 81.7037 121.274 81.2951 121.222 80.7497C121.165 80.1702 121.59 79.6542 122.17 79.598C128.549 78.9802 134.418 75.9344 138.695 71.0231C139.078 70.5819 139.746 70.5388 140.184 70.9206C140.624 71.3031 140.67 71.9697 140.287 72.4101C135.654 77.73 129.293 81.0297 122.374 81.6996C122.339 81.702 122.304 81.7037 122.271 81.7037Z" fill="#00C8B7"/>
<path d="M109.406 80.9606L72.6323 102.647L35.8584 80.9606C35.8584 80.9427 35.8584 80.9191 35.8641 80.9004C35.8942 80.7629 37.9234 79.0682 41.0188 76.554C41.0489 76.5304 41.0725 76.5059 41.1026 76.4823C51.2574 68.2379 72.6315 51.3543 72.6315 51.3543C72.6315 51.3543 94.0064 68.2379 104.16 76.4823C107.304 79.0332 109.37 80.7572 109.399 80.9012C109.406 80.9191 109.406 80.9427 109.406 80.9606Z" fill="#7A4C08"/>
<path d="M87.7568 33.3947H48.0803C44.6772 33.3947 41.918 36.1532 41.918 39.5571V99.5471C41.918 102.95 44.6764 105.709 48.0803 105.709H97.7967C101.2 105.709 103.959 102.951 103.959 99.5471V49.5962L87.7568 33.3947Z" fill="white"/>
<path d="M87.7568 43.4355C87.7568 46.8386 90.5153 49.5978 93.9192 49.5978H103.958L87.7568 33.3963V43.4355Z" fill="#E6E8E8"/>
<path d="M67.187 43.534H53.4989C52.287 43.534 51.3037 44.5164 51.3037 45.7292V59.4181C51.3037 60.63 52.2861 61.6133 53.4989 61.6133H67.187C68.3989 61.6133 69.3822 60.6309 69.3822 59.4181V45.7292C69.3822 44.5172 68.3989 43.534 67.187 43.534Z" fill="#C1EEEA"/>
<path d="M85.9389 66.6376H53.0939C52.1172 66.6376 51.3252 67.4295 51.3252 68.4063C51.3252 69.383 52.1172 70.175 53.0939 70.175H85.9389C86.9156 70.175 87.7076 69.383 87.7076 68.4063C87.7076 67.4295 86.9156 66.6376 85.9389 66.6376Z" fill="#D9DBDB"/>
<path d="M85.9389 75.4479H53.0939C52.1172 75.4479 51.3252 76.2398 51.3252 77.2166C51.3252 78.1933 52.1172 78.9853 53.0939 78.9853H85.9389C86.9156 78.9853 87.7076 78.1933 87.7076 77.2166C87.7076 76.2398 86.9156 75.4479 85.9389 75.4479Z" fill="#D9DBDB"/>
<path d="M71.0226 83.9943H53.0939C52.1172 83.9943 51.3252 84.7862 51.3252 85.763C51.3252 86.7397 52.1172 87.5317 53.0939 87.5317H71.0226C71.9993 87.5317 72.7913 86.7397 72.7913 85.763C72.7913 84.7862 71.9993 83.9943 71.0226 83.9943Z" fill="#D9DBDB"/>
<path d="M109.41 80.9599V116.239C109.41 118.705 107.395 120.72 104.93 120.72H40.3326C37.8672 120.72 35.8633 118.705 35.8633 116.239V80.9599L72.6364 102.643L109.41 80.9599Z" fill="#FFB031"/>
<path d="M108.167 119.315L84.4986 95.6466L72.6362 102.641L60.7689 95.6442L37.0986 119.314C37.9134 120.175 39.057 120.72 40.3316 120.72H104.929C106.203 120.719 107.349 120.176 108.167 119.315Z" fill="#FF9433"/>
<path d="M116.837 32.5297C106.251 33.5683 97.7931 42.2937 97.037 52.9043C96.6601 58.1843 98.157 63.0891 100.912 67.0571C101.95 68.5523 102.121 70.483 101.423 72.1638L99.6766 76.367L106.812 74.5169C107.976 74.2157 109.204 74.3093 110.306 74.7871C113.615 76.2221 117.339 76.8757 121.254 76.4972C131.644 75.4912 140.051 67.1002 141.055 56.7095C142.402 42.7699 130.781 31.1614 116.837 32.5297Z" fill="#00C8B7"/>
<path d="M119.617 65.6759L120.832 64.4615C120.832 64.4615 119.867 62.1889 123.91 58.3561C126.316 56.0746 126.855 53.8664 126.66 52.0602C126.348 49.1854 124 46.838 121.126 46.5263C119.32 46.3309 117.112 46.8689 114.831 49.2758C110.998 53.3186 108.725 52.3549 108.725 52.3549L107.511 53.5693L119.617 65.6759Z" fill="white"/>
<path d="M110.249 58.2599C109.289 59.5703 109.397 61.4196 110.581 62.6039C111.766 63.7882 113.615 63.8964 114.925 62.936L110.249 58.2599Z" fill="white"/>
<path d="M127.508 48.0004L126.752 48.7566C126.164 47.8205 125.364 47.0212 124.422 46.4385L125.185 45.6758C125.829 45.0312 126.87 45.0312 127.515 45.6758C128.152 46.3147 128.152 47.3558 127.508 48.0004Z" fill="white"/>
<path d="M118.476 32.4356C126.345 34.792 132.084 42.08 132.084 50.7152C132.084 61.2565 123.538 69.8029 112.996 69.8029C107.442 69.8029 102.458 67.4164 98.9707 63.6308C99.5201 64.833 100.165 65.9815 100.912 67.0575C101.95 68.5519 102.121 70.4834 101.422 72.1642L99.6764 76.3674L106.812 74.5173C107.975 74.2161 109.204 74.3097 110.306 74.7875C113.614 76.2225 117.339 76.8761 121.254 76.4976C131.644 75.4916 140.051 67.1006 141.055 56.7107C142.349 43.3205 131.677 32.0897 118.476 32.4356Z" fill="#08B29D"/>
<path d="M3.4544 14.1122L8.27782 25.1802C8.52282 25.7443 8.26317 26.4003 7.69829 26.6445L7.52655 26.7186C6.95923 26.9636 6.30076 26.699 6.06064 26.1293L1.40977 14.9872C1.16396 14.4028 1.45454 13.7321 2.04953 13.5124C2.60301 13.3081 3.21917 13.571 3.4544 14.1122Z" fill="#FFB031"/>
<path d="M22.3501 92.0064C20.3917 92.0064 18.8037 93.5944 18.8037 95.5528C18.8037 97.5111 20.3917 99.0991 22.3501 99.0991C24.3084 99.0991 25.8964 97.5111 25.8964 95.5528C25.8964 93.5944 24.3084 92.0064 22.3501 92.0064ZM22.3501 96.9877C21.5573 96.9877 20.9143 96.3447 20.9143 95.5519C20.9143 94.7592 21.5573 94.1161 22.3501 94.1161C23.1428 94.1161 23.7858 94.7592 23.7858 95.5519C23.785 96.3455 23.1428 96.9877 22.3501 96.9877Z" fill="#E0F4F2"/>
<path d="M117.375 106.357C115.417 106.357 113.829 107.945 113.829 109.903C113.829 111.862 115.417 113.45 117.375 113.45C119.334 113.45 120.922 111.862 120.922 109.903C120.922 107.944 119.334 106.357 117.375 106.357ZM117.375 111.338C116.583 111.338 115.94 110.695 115.94 109.902C115.94 109.11 116.583 108.467 117.375 108.467C118.168 108.467 118.81 109.11 118.81 109.902C118.81 110.695 118.168 111.338 117.375 111.338Z" fill="#E0F4F2"/>
<path d="M146.387 51.2791C144.888 51.2791 143.672 52.4943 143.672 53.9944C143.672 55.4936 144.887 56.7097 146.387 56.7097C147.886 56.7097 149.102 55.4945 149.102 53.9944C149.102 52.4951 147.887 51.2791 146.387 51.2791ZM146.387 55.0932C145.78 55.0932 145.288 54.6008 145.288 53.9944C145.288 53.3872 145.78 52.8955 146.387 52.8955C146.994 52.8955 147.486 53.3872 147.486 53.9944C147.486 54.6016 146.994 55.0932 146.387 55.0932Z" fill="#E0F4F2"/>
<path d="M98.5788 7.84607C96.9932 7.84607 95.708 9.13128 95.708 10.7168C95.708 12.3024 96.9932 13.5876 98.5788 13.5876C100.164 13.5876 101.45 12.3024 101.45 10.7168C101.45 9.1321 100.164 7.84607 98.5788 7.84607ZM98.5788 11.8792C97.9374 11.8792 97.4165 11.359 97.4165 10.7177C97.4165 10.0755 97.9366 9.55535 98.5788 9.55535C99.2202 9.55535 99.7411 10.0755 99.7411 10.7177C99.7403 11.359 99.2202 11.8792 98.5788 11.8792Z" fill="#E0F4F2"/>
<path d="M6.75053 80.7702C8.41738 80.7702 9.76862 79.419 9.76862 77.7521C9.76862 76.0853 8.41738 74.734 6.75053 74.734C5.08368 74.734 3.73242 76.0853 3.73242 77.7521C3.73242 79.419 5.08368 80.7702 6.75053 80.7702Z" fill="#E0F4F2"/>
<path d="M127.846 89.1159C129.058 89.1159 130.041 88.133 130.041 86.9207C130.041 85.7083 129.058 84.7255 127.846 84.7255C126.633 84.7255 125.65 85.7083 125.65 86.9207C125.65 88.133 126.633 89.1159 127.846 89.1159Z" fill="#E0F4F2"/>
<path d="M55.147 15.1646C56.9191 15.1646 58.3556 13.728 58.3556 11.956C58.3556 10.184 56.9191 8.74744 55.147 8.74744C53.375 8.74744 51.9385 10.184 51.9385 11.956C51.9385 13.728 53.375 15.1646 55.147 15.1646Z" fill="#E0F4F2"/>
<path d="M72.324 129.645C73.615 129.645 74.6616 128.598 74.6616 127.307C74.6616 126.016 73.615 124.969 72.324 124.969C71.0329 124.969 69.9863 126.016 69.9863 127.307C69.9863 128.598 71.0329 129.645 72.324 129.645Z" fill="#E0F4F2"/>
<path d="M117.58 26.6111C119.095 26.6111 120.324 25.3826 120.324 23.8673C120.324 22.3519 119.095 21.1235 117.58 21.1235C116.064 21.1235 114.836 22.3519 114.836 23.8673C114.836 25.3826 116.064 26.6111 117.58 26.6111Z" fill="#E0F4F2"/>
<path d="M20.3803 45.5816C21.243 45.5816 21.9423 44.8822 21.9423 44.0196C21.9423 43.157 21.243 42.4576 20.3803 42.4576C19.5177 42.4576 18.8184 43.157 18.8184 44.0196C18.8184 44.8822 19.5177 45.5816 20.3803 45.5816Z" fill="#E0F4F2"/>
<path d="M147.335 42.9244C148.807 42.9244 150 41.7313 150 40.2595C150 38.7878 148.807 37.5947 147.335 37.5947C145.863 37.5947 144.67 38.7878 144.67 40.2595C144.67 41.7313 145.863 42.9244 147.335 42.9244Z" fill="#E0F4F2"/>
<path d="M5.25306 55.0963C6.19213 55.0963 6.95339 54.335 6.95339 53.3959C6.95339 52.4569 6.19213 51.6956 5.25306 51.6956C4.314 51.6956 3.55273 52.4569 3.55273 53.3959C3.55273 54.335 4.314 55.0963 5.25306 55.0963Z" fill="#E0F4F2"/>
<path d="M76.7335 3.04714L77.8014 1.97924C78.1717 1.6089 78.1717 1.00333 77.8014 0.632982C77.431 0.262639 76.8255 0.262639 76.4551 0.632982L75.3872 1.70088L74.3193 0.632982C73.949 0.262639 73.3434 0.262639 72.9731 0.632982C72.6027 1.00333 72.6027 1.6089 72.9731 1.97924L74.041 3.04714L72.9731 4.11503C72.6027 4.48537 72.6027 5.09094 72.9731 5.46129C73.3434 5.83163 73.949 5.83163 74.3193 5.46129L75.3872 4.3934L76.4551 5.46129C76.8255 5.83163 77.431 5.83163 77.8014 5.46129C78.1717 5.09094 78.1717 4.48537 77.8014 4.11503L76.7335 3.04714Z" fill="#E0F4F2"/>
<path d="M4.03817 35.3203L5.10606 34.2524C5.4764 33.882 5.4764 33.2765 5.10606 32.9061C4.73571 32.5358 4.13015 32.5358 3.7598 32.9061L2.6919 33.974L1.62401 32.9061C1.25367 32.5358 0.648102 32.5358 0.277758 32.9061C-0.092586 33.2765 -0.092586 33.882 0.277758 34.2524L1.34565 35.3203L0.277758 36.3882C-0.092586 36.7585 -0.092586 37.3641 0.277758 37.7344C0.648102 38.1048 1.25367 38.1048 1.62401 37.7344L2.6919 36.6665L3.7598 37.7344C4.13015 38.1048 4.73571 38.1048 5.10606 37.7344C5.4764 37.3641 5.4764 36.7585 5.10606 36.3882L4.03817 35.3203Z" fill="#E0F4F2"/>
<path d="M129.993 100.53L130.898 99.6262C131.211 99.3128 131.211 98.7992 130.898 98.4859C130.584 98.1725 130.071 98.1725 129.757 98.4859L128.853 99.3902L127.949 98.4859C127.635 98.1725 127.122 98.1725 126.808 98.4859C126.495 98.7992 126.495 99.3128 126.808 99.6262L127.713 100.53L126.808 101.435C126.495 101.748 126.495 102.262 126.808 102.575C127.122 102.888 127.635 102.888 127.949 102.575L128.853 101.671L129.757 102.575C130.071 102.888 130.584 102.888 130.898 102.575C131.211 102.262 131.211 101.748 130.898 101.435L129.993 100.53Z" fill="#E0F4F2"/>
</svg>
