<svg width="201" height="200" viewBox="0 0 201 200" fill="none" xmlns="http://www.w3.org/2000/svg">
<path d="M177.814 171.991C173.795 176.222 169.992 178.95 166.988 181.106C131.672 206.445 89.8832 199.059 81.0019 197.255C67.8872 194.592 42.5366 189.443 24.2086 167.889C-3.52007 135.281 0.7977 83.9072 22.306 49.9948C26.2402 43.7916 47.0218 9.36264 89.2602 3.84127C114.823 0.499854 144.62 7.23915 166.198 25.3176C211.494 63.2659 208.269 139.928 177.814 171.991Z" fill="#C4FCEC"/>
<path d="M13.1823 1.41019C12.8589 0.412019 14.0227 -0.408255 14.8638 0.219143C23.4048 6.58895 44.4138 26.1831 44.104 64.6339C43.7152 112.876 55.6009 129.112 69.1428 138.301C69.1428 138.301 51.6325 135.246 38.9693 118.84C7.87819 78.5583 18.9325 19.158 13.1823 1.41019Z" fill="#F7CD6E"/>
<path d="M20.7446 15.6048C22.3122 20.7922 23.7766 26.0078 25.0483 31.2695C26.3474 36.5236 27.4866 41.8147 28.4593 47.1337C29.4114 52.4559 30.2636 57.7952 30.8877 63.1628C31.5359 68.5273 31.953 73.9136 32.3528 79.323C32.7826 84.7271 33.1848 90.1736 34.1458 95.5955C35.0999 101.007 36.7153 106.391 39.2666 111.321C39.9039 112.549 40.5662 113.771 41.2938 114.942C42 116.126 42.7588 117.279 43.538 118.419C45.108 120.69 46.8315 122.861 48.7082 124.895C52.4726 128.953 56.8521 132.434 61.5627 135.267C62.0584 135.565 62.702 135.404 63.0001 134.909C63.2928 134.422 63.1436 133.792 62.6686 133.487L62.6653 133.485C61.5391 132.764 60.4225 132.031 59.3425 131.25C58.7961 130.868 58.2678 130.463 57.7322 130.068C57.2121 129.653 56.6757 129.259 56.1691 128.828C54.1138 127.141 52.1794 125.311 50.3899 123.348C46.7955 119.443 43.7662 114.981 41.3207 110.276C40.124 107.908 39.1039 105.457 38.276 102.936C37.4499 100.414 36.8163 97.8247 36.33 95.1972C35.3565 89.9392 34.9138 84.5517 34.4452 79.151C33.9695 73.7497 33.4543 68.3253 32.7168 62.9305C32.3553 60.2324 31.9454 57.5412 31.4875 54.8587C31.2663 53.5162 31.0191 52.1782 30.7744 50.8399C30.5169 49.5041 30.2519 48.1698 29.9762 46.8379C28.8634 41.5122 27.5886 36.2232 26.1485 30.9818C24.6833 25.7473 23.0797 20.5534 21.2787 15.4302C21.2272 15.2837 21.0668 15.2068 20.9204 15.2582C20.7783 15.3084 20.7017 15.4619 20.7446 15.6048Z" fill="white"/>
<path d="M53.5065 170.501C53.1711 172.405 51.0002 173.348 49.3664 172.314C40.3511 166.612 16.3197 148.183 11.969 111.616C8.29511 80.7357 3.36848 64.3405 0.616175 57.0526C0.0341974 55.5115 1.75781 54.1233 3.14131 55.0175C18.4048 64.8834 65.6577 101.508 53.5065 170.501Z" fill="#E6BB53"/>
<path d="M50.9303 170.967C50.8955 171 50.8573 171.03 50.8152 171.057C50.4634 171.28 49.9969 171.176 49.7733 170.825C49.5198 170.426 24.3461 130.452 17.2982 87.7461C17.2305 87.3351 17.5087 86.9466 17.9201 86.8783C18.3315 86.8106 18.7198 87.0889 18.7879 87.5003C25.7844 129.895 50.7956 169.619 51.0474 170.015C51.2444 170.325 51.1873 170.724 50.9303 170.967Z" fill="white"/>
<path d="M49.0004 3.99027C44.1261 4.41417 40.389 8.49635 40.3751 13.3891C40.2902 43.31 40.1502 146.515 42.1004 183.044C42.307 186.914 45.4797 189.954 49.3549 189.996C68.5217 190.202 123.654 190.581 154.954 188.579C161.473 188.162 166.546 182.763 166.538 176.23C166.5 144.827 165.998 56.5112 161.696 16.1429C161.181 11.3062 157.293 7.53083 152.443 7.15299C131.539 5.52421 76.0273 1.63976 49.0004 3.99027Z" fill="#6E6E6E"/>
<path d="M48.0691 21.2304C47.6927 46.8251 46.621 131.968 48.4918 163.393C48.7653 167.986 52.3331 171.612 56.7386 171.766C74.8773 172.398 121.391 173.621 147.895 170.705C152.668 170.179 156.315 166.043 156.443 161.034C157.106 134.914 158.896 55.6136 157.078 24.5403C156.788 19.5832 153.001 15.6279 148.254 15.308C128.614 13.9846 78.1807 10.9327 55.6424 12.8096C51.4114 13.162 48.1342 16.7994 48.0691 21.2304Z" fill="white"/>
<path d="M91.8942 8.44045C91.9098 9.14756 92.4737 9.71863 93.1806 9.74017C96.6708 9.84619 106.503 10.1472 110.897 10.3055C111.764 10.3368 112.426 9.54394 112.243 8.69643C112.228 8.66969 112.115 7.58303 111.006 7.50588C108.033 7.29917 99.0646 6.74186 93.138 7.08383C91.921 7.15399 91.8548 8.53806 91.8942 8.44045Z" fill="#D9D9D9"/>
<path opacity="0.8" d="M80.6626 78.5254C93.8012 78.5254 104.452 67.8744 104.452 54.7358C104.452 41.5971 93.8012 30.9462 80.6626 30.9462C67.5239 30.9462 56.8729 41.5971 56.8729 54.7358C56.8729 67.8744 67.5239 78.5254 80.6626 78.5254Z" fill="#B5FBE8"/>
<mask id="mask0_17422_63182" style="mask-type:luminance" maskUnits="userSpaceOnUse" x="59" y="33" width="43" height="43">
<path d="M80.6626 75.9223C92.3636 75.9223 101.849 66.4368 101.849 54.7358C101.849 43.0347 92.3636 33.5492 80.6626 33.5492C68.9616 33.5492 59.4761 43.0347 59.4761 54.7358C59.4761 66.4368 68.9616 75.9223 80.6626 75.9223Z" fill="white"/>
</mask>
<g mask="url(#mask0_17422_63182)">
<path d="M80.7544 58.6093C85.8823 58.6093 90.0392 54.4524 90.0392 49.3246C90.0392 44.1967 85.8823 40.0398 80.7544 40.0398C75.6266 40.0398 71.4697 44.1967 71.4697 49.3246C71.4697 54.4524 75.6266 58.6093 80.7544 58.6093Z" fill="#00BA88"/>
</g>
<mask id="mask1_17422_63182" style="mask-type:luminance" maskUnits="userSpaceOnUse" x="59" y="33" width="43" height="43">
<path d="M80.6626 75.9223C92.3636 75.9223 101.849 66.4368 101.849 54.7358C101.849 43.0347 92.3636 33.5492 80.6626 33.5492C68.9616 33.5492 59.4761 43.0347 59.4761 54.7358C59.4761 66.4368 68.9616 75.9223 80.6626 75.9223Z" fill="white"/>
</mask>
<g mask="url(#mask1_17422_63182)">
<path d="M66.6516 77.2058H96.2317C98.0452 77.2058 99.1318 74.8624 98.1552 73.0741C95.6427 68.4732 90.3859 61.714 81.2817 62.0191C72.5072 62.313 67.3064 68.4184 64.692 72.7971C63.582 74.6559 64.714 77.2058 66.6516 77.2058Z" fill="#00BA88"/>
</g>
<path d="M115.646 160.058H86.055C85.0879 160.058 84.2968 159.267 84.2968 158.3V149.883C84.2968 148.916 85.0879 148.125 86.055 148.125H115.646C116.613 148.125 117.404 148.917 117.404 149.883V158.3C117.404 159.267 116.613 160.058 115.646 160.058Z" fill="#00BA88"/>
<g opacity="0.8">
<path d="M139.795 99.917H73.0389C72.5085 99.917 72.0745 99.4831 72.0745 98.9527V94.3112C72.0745 93.7809 72.5085 93.3469 73.0389 93.3469H139.795C140.325 93.3469 140.759 93.7808 140.759 94.3112V98.9527C140.759 99.4831 140.325 99.917 139.795 99.917Z" fill="#FFC43C"/>
<path d="M63.2643 100.595C65.4641 100.595 67.2474 98.8118 67.2474 96.6119C67.2474 94.4121 65.4641 92.6288 63.2643 92.6288C61.0644 92.6288 59.2811 94.4121 59.2811 96.6119C59.2811 98.8118 61.0644 100.595 63.2643 100.595Z" fill="#FFC43C"/>
</g>
<g opacity="0.8">
<path d="M139.795 112.246H73.0389C72.5085 112.246 72.0745 111.812 72.0745 111.281V106.64C72.0745 106.11 72.5085 105.676 73.0389 105.676H139.795C140.325 105.676 140.759 106.11 140.759 106.64V111.281C140.759 111.812 140.325 112.246 139.795 112.246Z" fill="#FFC43C"/>
<path d="M63.2643 112.924C65.4641 112.924 67.2474 111.141 67.2474 108.941C67.2474 106.741 65.4641 104.958 63.2643 104.958C61.0644 104.958 59.2811 106.741 59.2811 108.941C59.2811 111.141 61.0644 112.924 63.2643 112.924Z" fill="#FFC43C"/>
</g>
<g opacity="0.8">
<path d="M139.795 124.575H73.0389C72.5085 124.575 72.0745 124.141 72.0745 123.611V118.969C72.0745 118.439 72.5085 118.005 73.0389 118.005H139.795C140.325 118.005 140.759 118.439 140.759 118.969V123.611C140.759 124.141 140.325 124.575 139.795 124.575Z" fill="#FFC43C"/>
<path d="M63.2643 125.253C65.4641 125.253 67.2474 123.47 67.2474 121.27C67.2474 119.07 65.4641 117.287 63.2643 117.287C61.0644 117.287 59.2811 119.07 59.2811 121.27C59.2811 123.47 61.0644 125.253 63.2643 125.253Z" fill="#FFC43C"/>
</g>
<path opacity="0.8" d="M139.795 136.904H73.0389C72.5085 136.904 72.0745 136.47 72.0745 135.939V131.298C72.0745 130.767 72.5085 130.333 73.0389 130.333H139.795C140.325 130.333 140.759 130.767 140.759 131.298V135.939C140.759 136.47 140.325 136.904 139.795 136.904Z" fill="#FFC43C"/>
<path opacity="0.8" d="M63.2643 137.582C65.4641 137.582 67.2474 135.798 67.2474 133.598C67.2474 131.399 65.4641 129.615 63.2643 129.615C61.0644 129.615 59.2811 131.399 59.2811 133.598C59.2811 135.798 61.0644 137.582 63.2643 137.582Z" fill="#FFC43C"/>
<path opacity="0.8" d="M108.656 92.0759H56.2943C55.8237 92.0759 55.4387 91.6909 55.4387 91.2203V86.3614C55.4387 85.8908 55.8237 85.5057 56.2943 85.5057H108.656C109.126 85.5057 109.511 85.8908 109.511 86.3614V91.2203C109.511 91.6909 109.126 92.0759 108.656 92.0759Z" fill="white"/>
<path d="M193.825 36.4294C193.684 34.2557 192.371 32.3303 190.404 31.3958L164.913 19.289C163.28 18.5136 161.385 18.5136 159.753 19.289L134.261 31.3958C132.294 32.3303 130.981 34.2558 130.841 36.4294C128.449 73.3899 152.148 86.8567 159.917 90.2586C161.457 90.9333 163.208 90.9333 164.749 90.2586C172.517 86.8567 196.216 73.3898 193.825 36.4294Z" fill="#0B785B"/>
<path d="M154.622 24.3906C154.486 24.3906 154.356 24.3143 154.294 24.1834C154.208 24.0023 154.285 23.7856 154.466 23.6999L160.489 20.8392C160.67 20.753 160.887 20.83 160.973 21.0113C161.059 21.1923 160.982 21.409 160.801 21.4947L154.777 24.3554C154.727 24.3792 154.674 24.3906 154.622 24.3906Z" fill="#91B3FA"/>
<path d="M132.79 44.3399C132.595 44.3399 132.434 44.1854 132.427 43.9893C132.347 41.5851 132.389 39.079 132.553 36.5402C132.653 34.992 133.59 33.6148 134.998 32.9461L152.146 24.8018C152.327 24.7158 152.544 24.7926 152.629 24.9739C152.715 25.1549 152.638 25.3716 152.457 25.4573L135.309 33.6016C134.139 34.1573 133.361 35.3013 133.278 36.587C133.115 39.1021 133.073 41.5845 133.153 43.9647C133.16 44.1651 133.003 44.3331 132.802 44.3397C132.798 44.3399 132.794 44.3399 132.79 44.3399Z" fill="#91B3FA"/>
<path d="M187.661 37.8718C187.632 37.3208 187.304 36.8289 186.806 36.5922L162.976 25.2743C162.569 25.0811 162.097 25.0811 161.69 25.2743L137.86 36.5922C137.361 36.8289 137.033 37.3208 137.005 37.8718C136.3 51.6592 139.485 63.1629 146.477 72.0791C151.808 78.8768 158.044 82.5197 161.699 84.2193C162.101 84.4065 162.565 84.4065 162.967 84.2193C166.621 82.5198 172.858 78.8768 178.188 72.0791C185.181 63.163 188.365 51.6592 187.661 37.8718Z" fill="#00BA88"/>
<path d="M147.2 52.9838C149.17 51.7632 151.759 52.4007 152.936 54.3973L158.476 63.7871C159.03 64.7272 160.419 64.6334 160.842 63.6274L173.305 33.9902C173.926 32.5117 176.116 32.9538 176.131 34.5573C176.213 43.5291 174.244 60.6335 160.259 75.2486C160.259 75.2486 152.288 72.3695 145.592 58.5584C144.625 56.5633 145.315 54.1518 147.2 52.9838Z" fill="white"/>
</svg>
