<svg width="280" height="207" viewBox="0 0 280 207" fill="none" xmlns="http://www.w3.org/2000/svg">
<path d="M260.522 126.774C257.796 130.541 254.575 133.452 251.279 136.463C250.226 137.417 249.148 138.346 248.021 139.226C247.513 139.623 247.017 140.019 246.521 140.403C240.103 145.458 232.719 149.25 224.888 151.344C224.64 151.406 224.392 151.48 224.132 151.542C216.772 153.376 209.388 154.615 201.842 154.479C197.989 154.553 194.148 154.466 190.27 154.268C185.624 153.995 181.287 153.252 176.703 152.508C169.888 151.269 161.215 149.411 157.126 155.73C136.806 186.829 104.344 206.778 68.3873 206.208C65.7234 206.22 63.0595 206.133 60.3585 205.91C55.7741 205.539 51.3136 204.919 46.7292 203.68C41.897 202.317 37.3127 201.078 32.7283 199.096C29.6307 197.609 26.6571 196.246 23.7454 194.251C20.685 192.269 17.8229 190.014 15.0351 187.412C13.4863 186.061 12.2349 184.661 10.9835 183.125C7.86113 179.432 5.4946 175.926 3.56172 171.936C-0.601389 163.722 -0.626168 154.9 1.00934 145.929C1.55451 142.943 2.28553 139.932 3.10328 136.922C5.58133 128.1 10.0418 119.427 7.93547 110.01C2.60768 84.6101 8.18327 56.7321 32.084 44.8375C35.8134 42.7312 39.5305 41.3683 43.4954 40.2532C47.9559 39.0141 52.4163 38.6424 57.0007 38.3946C69.1431 37.899 81.0377 40.0053 93.0562 40.2532C103.464 40.3771 112.385 34.8015 120.686 29.1639C122.161 28.2594 123.623 27.3549 125.097 26.4381C126.559 25.5336 128.034 24.6167 129.496 23.7122C132.569 21.6431 135.728 19.673 138.962 17.8393C142.196 16.0055 145.504 14.2957 148.874 12.7345C169.231 3.39227 192.289 -2.82762 212.647 1.29832C290.866 17.1454 278.624 101.808 260.522 126.774Z" fill="#E2FAF3"/>
<path d="M118.32 18.7664C118.494 22.7189 116.623 26.3864 113.463 29.1246C110.304 31.8629 105.831 33.7338 100.8 34.1798C95.7576 34.6383 91.0865 33.771 87.6544 31.962C84.2099 30.153 81.9797 26.9811 81.7938 22.657C81.6947 20.5011 82.1283 18.308 83.008 16.276C83.8754 14.244 85.1887 12.4102 86.8118 10.8491C90.0457 7.73914 94.5557 5.70714 99.5738 5.39739C104.592 5.08763 109.189 6.47534 112.583 8.91621C115.966 11.3447 118.147 14.8263 118.32 18.7664Z" fill="#E2FAF3"/>
<path d="M159.939 191.09C159.121 195.067 155.367 197.793 151.637 197.198C147.908 196.604 145.801 192.961 146.879 189.058C147.957 185.155 151.588 182.392 155.057 182.925C158.551 183.445 160.769 187.113 159.939 191.09Z" fill="#E2FAF3"/>
<path d="M144.413 199.774C143.831 202.301 141.316 204.024 138.726 203.627C136.136 203.231 134.538 200.926 135.232 198.497C135.926 196.057 138.528 194.334 141.006 194.644C143.484 194.966 144.995 197.258 144.413 199.774Z" fill="#E2FAF3"/>
<path d="M159.493 192.033C226.047 192.033 280 188.017 280 183.063C280 178.108 226.047 174.092 159.493 174.092C92.9385 174.092 38.9856 178.108 38.9856 183.063C38.9856 188.017 92.9385 192.033 159.493 192.033Z" fill="#C4E2DA"/>
<path d="M244.443 179.618H78.2284C74.3751 179.618 71.2404 176.483 71.2404 172.63V60.4986C71.2404 56.6452 74.3751 53.5105 78.2284 53.5105H244.443C248.296 53.5105 251.431 56.6452 251.431 60.4986V172.63C251.431 176.483 248.309 179.618 244.443 179.618Z" fill="#424242"/>
<path d="M243.527 61.3417H79.146V164.874H243.527V61.3417Z" fill="#424242"/>
<path d="M161.341 59.1958C162.258 59.1958 163.001 58.4525 163.001 57.5355C163.001 56.6186 162.258 55.8752 161.341 55.8752C160.424 55.8752 159.681 56.6186 159.681 57.5355C159.681 58.4525 160.424 59.1958 161.341 59.1958Z" fill="#6B6B6B"/>
<path d="M274.488 180.509H48.193C47.4744 180.509 46.9044 179.927 46.9044 179.221V173.137C46.9044 172.418 47.4868 171.849 48.193 171.849H274.488C275.206 171.849 275.776 172.431 275.776 173.137V179.221C275.776 179.939 275.194 180.509 274.488 180.509Z" fill="#6E6E6E"/>
<path d="M177.82 175.466H145.32C143.486 175.466 141.999 173.98 141.999 172.146V171.849H181.152V172.146C181.14 173.967 179.653 175.466 177.82 175.466Z" fill="#999999"/>
<path opacity="0.19" d="M246.596 63.2181H88.8186V165.016H246.596V63.2181Z" fill="#0B6770"/>
<path d="M239.645 49.6644H82.7111V158.921H239.645V49.6644Z" fill="#F7F7F7"/>
<path d="M239.595 46.0222H82.6608V59.1063H239.595V46.0222Z" fill="#00BA88"/>
<g opacity="0.33">
<path d="M87.7171 54.2256C88.6751 54.2256 89.4517 53.449 89.4517 52.491C89.4517 51.533 88.6751 50.7563 87.7171 50.7563C86.759 50.7563 85.9824 51.533 85.9824 52.491C85.9824 53.449 86.759 54.2256 87.7171 54.2256Z" fill="white"/>
<path d="M93.0568 54.2124C94.0148 54.2124 94.7914 53.4358 94.7914 52.4778C94.7914 51.5198 94.0148 50.7432 93.0568 50.7432C92.0988 50.7432 91.3221 51.5198 91.3221 52.4778C91.3221 53.4358 92.0988 54.2124 93.0568 54.2124Z" fill="white"/>
<path d="M98.3986 54.2124C99.3566 54.2124 100.133 53.4358 100.133 52.4778C100.133 51.5198 99.3566 50.7432 98.3986 50.7432C97.4406 50.7432 96.6639 51.5198 96.6639 52.4778C96.6639 53.4358 97.4406 54.2124 98.3986 54.2124Z" fill="white"/>
</g>
<path opacity="0.33" d="M134.814 52.283L190.384 52.2334" stroke="white" stroke-width="2" stroke-miterlimit="10" stroke-linecap="square"/>
<path opacity="0.33" d="M177.174 70.0498L227.874 70.0126" stroke="#C1A8DB" stroke-width="2" stroke-miterlimit="10" stroke-linecap="square"/>
<path opacity="0.33" d="M203.874 76.3688L227.874 76.3564" stroke="#C1A8DB" stroke-width="2" stroke-miterlimit="10" stroke-linecap="square"/>
<path opacity="0.33" d="M92.587 70.1129L114.109 70.1005" stroke="#C1A8DB" stroke-width="2" stroke-miterlimit="10" stroke-linecap="square"/>
<path d="M129.05 148.404L94.3326 148.429C92.7095 148.429 91.4085 147.115 91.3961 145.505L91.3466 88.8069C91.3466 87.1838 92.6599 85.8828 94.2706 85.8704L128.988 85.8456C130.611 85.8456 131.912 87.159 131.924 88.7697L131.974 145.467C131.974 147.09 130.673 148.391 129.05 148.404Z" fill="#E7E1ED"/>
<path d="M177.534 148.353L142.816 148.378C141.193 148.378 139.892 147.065 139.88 145.454L139.83 88.7566C139.83 87.1334 141.144 85.8325 142.754 85.8201L177.472 85.7953C179.095 85.7953 180.396 87.1087 180.408 88.7194L180.458 145.417C180.458 147.053 179.157 148.353 177.534 148.353Z" fill="#E7E1ED"/>
<path d="M226.015 148.316L191.298 148.341C189.675 148.341 188.374 147.028 188.361 145.417L188.312 88.7194C188.312 87.0963 189.625 85.7953 191.236 85.7829L225.953 85.7581C227.576 85.7581 228.877 87.0715 228.89 88.6822L228.939 145.38C228.939 147.003 227.638 148.316 226.015 148.316Z" fill="#E7E1ED"/>
<path opacity="0.11" d="M218.397 148.59H117.491L117.652 46.1846L218.571 46.1102L218.397 148.59Z" fill="#363636"/>
<path opacity="0.14" d="M109.586 171.836L55.2916 171.848L55.4031 101.943L104.902 101.868C107.554 101.868 109.697 104.012 109.685 106.651L109.586 171.836Z" fill="#363636"/>
<path d="M211.527 23.6202L109.828 23.4551L109.637 141.1L211.336 141.265L211.527 23.6202Z" fill="#FCFCFC"/>
<path d="M193.915 99.788H128.123V121.805H193.915V99.788Z" fill="#EDEDED"/>
<path d="M129.435 123.168H192.601" stroke="#D4D4D4" stroke-width="2" stroke-miterlimit="10" stroke-linecap="square"/>
<path d="M140.378 107.902V115.225" stroke="#666666" stroke-width="2" stroke-miterlimit="10" stroke-linecap="square"/>
<path d="M143.511 109.661L137.254 113.465" stroke="#666666" stroke-width="2" stroke-miterlimit="10" stroke-linecap="square"/>
<path d="M137.254 109.661L143.511 113.465" stroke="#666666" stroke-width="2" stroke-miterlimit="10" stroke-linecap="square"/>
<path d="M153.971 107.902V115.225" stroke="#666666" stroke-width="2" stroke-miterlimit="10" stroke-linecap="square"/>
<path d="M157.096 109.661L150.839 113.465" stroke="#666666" stroke-width="2" stroke-miterlimit="10" stroke-linecap="square"/>
<path d="M150.839 109.661L157.096 113.465" stroke="#666666" stroke-width="2" stroke-miterlimit="10" stroke-linecap="square"/>
<path d="M167.551 107.902V115.225" stroke="#666666" stroke-width="2" stroke-miterlimit="10" stroke-linecap="square"/>
<path d="M170.671 109.661L164.427 113.465" stroke="#666666" stroke-width="2" stroke-miterlimit="10" stroke-linecap="square"/>
<path d="M164.427 109.661L170.671 113.465" stroke="#666666" stroke-width="2" stroke-miterlimit="10" stroke-linecap="square"/>
<path d="M181.13 107.902V115.225" stroke="#666666" stroke-width="2" stroke-miterlimit="10" stroke-linecap="square"/>
<path d="M184.264 109.661L178.007 113.465" stroke="#666666" stroke-width="2" stroke-miterlimit="10" stroke-linecap="square"/>
<path d="M178.007 109.661L184.264 113.465" stroke="#666666" stroke-width="2" stroke-miterlimit="10" stroke-linecap="square"/>
<path d="M172.389 49.865L168.573 51.0793L167.705 48.3658C166.925 45.9249 165.24 43.9177 162.96 42.7406C160.68 41.5636 158.078 41.3406 155.625 42.1211C153.184 42.9017 151.177 44.5868 150 46.8666C148.823 49.1464 148.6 51.7483 149.38 54.2016L152.912 65.2661L149.095 66.4803L145.564 55.4158C145.007 53.6688 144.808 51.8598 144.969 50.0385C145.131 48.2791 145.626 46.594 146.431 45.0328C147.237 43.4717 148.327 42.084 149.665 40.9441C151.053 39.7546 152.639 38.8749 154.386 38.3173C156.133 37.7598 157.942 37.5615 159.763 37.7226C161.523 37.8837 163.208 38.3793 164.769 39.1847C166.343 39.99 167.718 41.0804 168.858 42.4185C170.047 43.8062 170.927 45.3922 171.484 47.1392L172.389 49.865Z" fill="url(#paint0_linear_17134_81934)"/>
<path d="M176.989 89.2026H144.923C143.411 89.2026 142.197 87.976 142.197 86.4768V63.1956C142.197 61.684 143.424 60.4697 144.923 60.4697H176.989C178.5 60.4697 179.715 61.6964 179.715 63.1956V86.4644C179.715 87.976 178.488 89.2026 176.989 89.2026Z" fill="url(#paint1_linear_17134_81934)"/>
<path d="M160.952 75.7599C162.56 75.7599 163.864 74.4562 163.864 72.8482C163.864 71.2401 162.56 69.9365 160.952 69.9365C159.344 69.9365 158.04 71.2401 158.04 72.8482C158.04 74.4562 159.344 75.7599 160.952 75.7599Z" fill="#262626"/>
<path d="M194.014 117.196L203.901 127.071L241.01 88.0047" stroke="#37B34A" stroke-width="6" stroke-miterlimit="10"/>
<path d="M216.724 22.2853L222.72 22.3472" stroke="white" stroke-width="2" stroke-miterlimit="10"/>
<path d="M215.334 18.7649L221.703 12.5203" stroke="white" stroke-width="2" stroke-miterlimit="10"/>
<path d="M211.506 17.0931V11.0962" stroke="white" stroke-width="2" stroke-miterlimit="10"/>
<path opacity="0.14" d="M100.083 171.858H93.8502V180.506H100.083V171.858Z" fill="#363636"/>
<path d="M42.0866 184.185H90.7305C92.4528 184.185 93.8529 182.785 93.8529 181.063V88.3347C93.8529 86.6125 92.4528 85.2124 90.7305 85.2124H42.0866C40.3643 85.2124 38.9642 86.6125 38.9642 88.3347V181.075C38.9642 182.798 40.3643 184.185 42.0866 184.185Z" fill="#48404E"/>
<path d="M41.5782 180.593C41.5782 181.139 42.0243 181.585 42.5695 181.585H91.2382V88.8068C91.2382 88.2616 90.7922 87.8156 90.247 87.8156H42.5695C42.0243 87.8156 41.5782 88.2616 41.5782 88.8068V180.593Z" fill="#00BA88"/>
<g opacity="0.36">
<path d="M88.3621 91.0977H77.9419" stroke="white" stroke-width="2" stroke-miterlimit="10" stroke-linecap="round"/>
<path d="M77.9176 177.79H54.8966" stroke="white" stroke-width="2" stroke-miterlimit="10" stroke-linecap="round"/>
<path d="M49.7427 91.0977H44.5388" stroke="white" stroke-width="2" stroke-miterlimit="10" stroke-linecap="round"/>
<path d="M53.522 91.0977H51.4404" stroke="white" stroke-width="2" stroke-miterlimit="10" stroke-linecap="round"/>
</g>
<mask id="mask0_17134_81934" style="mask-type:luminance" maskUnits="userSpaceOnUse" x="38" y="108" width="56" height="49">
<path d="M93.8465 155.598L38.9702 156.279L39.218 109.06L93.8465 108.316V155.598Z" fill="white"/>
</mask>
<g mask="url(#mask0_17134_81934)">
<path opacity="0.19" d="M92.5071 110.843H16.5923V149.464H69.1144L73.3642 155.708L77.8123 149.464H92.5071V110.843Z" fill="#0B6770"/>
</g>
<path d="M87.0791 105.01H10.074V144.175H63.3519L67.6637 150.519L72.1737 144.175H87.0791V105.01Z" fill="#FCFCFC"/>
<path d="M80.7036 122.674H46.8907V133.999H80.7036V122.674Z" fill="#EDEDED"/>
<path d="M47.571 134.692H80.0334" stroke="#D4D4D4" stroke-width="2" stroke-miterlimit="10" stroke-linecap="square"/>
<path d="M53.197 126.846V130.6" stroke="#666666" stroke-width="2" stroke-miterlimit="10" stroke-linecap="square"/>
<path d="M54.7961 127.752L51.587 129.709" stroke="#666666" stroke-width="2" stroke-miterlimit="10" stroke-linecap="square"/>
<path d="M51.587 127.752L54.7961 129.709" stroke="#666666" stroke-width="2" stroke-miterlimit="10" stroke-linecap="square"/>
<path d="M60.1736 126.846V130.6" stroke="#666666" stroke-width="2" stroke-miterlimit="10" stroke-linecap="square"/>
<path d="M61.7835 127.752L58.5745 129.709" stroke="#666666" stroke-width="2" stroke-miterlimit="10" stroke-linecap="square"/>
<path d="M58.5745 127.752L61.7835 129.709" stroke="#666666" stroke-width="2" stroke-miterlimit="10" stroke-linecap="square"/>
<path d="M67.1573 126.846V130.6" stroke="#666666" stroke-width="2" stroke-miterlimit="10" stroke-linecap="square"/>
<path d="M68.7564 127.752L65.5474 129.709" stroke="#666666" stroke-width="2" stroke-miterlimit="10" stroke-linecap="square"/>
<path d="M65.5474 127.752L68.7564 129.709" stroke="#666666" stroke-width="2" stroke-miterlimit="10" stroke-linecap="square"/>
<path d="M74.1411 126.846V130.6" stroke="#666666" stroke-width="2" stroke-miterlimit="10" stroke-linecap="square"/>
<path d="M75.7511 127.752L72.542 129.709" stroke="#666666" stroke-width="2" stroke-miterlimit="10" stroke-linecap="square"/>
<path d="M72.542 127.752L75.7511 129.709" stroke="#666666" stroke-width="2" stroke-miterlimit="10" stroke-linecap="square"/>
<path d="M47.8779 117.522H70.267" stroke="#D4D4D4" stroke-width="2" stroke-miterlimit="10" stroke-linecap="square"/>
<path d="M47.8779 114.066H62.3621" stroke="#D4D4D4" stroke-width="2" stroke-miterlimit="10" stroke-linecap="square"/>
<path d="M59.0779 114.066H76.8578" stroke="#D4D4D4" stroke-width="2" stroke-miterlimit="10" stroke-linecap="square"/>
<path d="M28.0414 137.131C27.7192 137.131 27.3971 137.007 27.1617 136.784L18.5876 128.619C17.9681 128.024 17.5716 127.231 17.4725 126.376L16.122 114.358C16.0724 113.912 16.1963 113.465 16.4813 113.119C16.7663 112.772 17.1628 112.549 17.6212 112.511L22.0197 112.078C24.0145 111.88 26.0342 111.78 28.0414 111.78C30.0486 111.78 32.0682 111.88 34.063 112.078L38.4615 112.511C38.9076 112.561 39.3165 112.772 39.6014 113.119C39.8864 113.465 40.0103 113.912 39.9608 114.358L38.6102 126.376C38.5111 127.231 38.1146 128.024 37.4951 128.619L28.9211 136.784C28.6857 137.007 28.3635 137.131 28.0414 137.131Z" fill="url(#paint2_linear_17134_81934)"/>
<path d="M28.0426 112.525C30.025 112.525 32.0074 112.625 33.9899 112.823L38.3884 113.256C38.8964 113.306 39.2681 113.764 39.2062 114.272L37.8556 126.291C37.7813 126.972 37.4715 127.604 36.9759 128.075L28.4019 136.24C28.3028 136.339 28.1789 136.389 28.0426 136.389C27.9063 136.389 27.7824 136.339 27.6833 136.24L19.1092 128.075C18.6136 127.604 18.3039 126.972 18.2295 126.291L16.879 114.272C16.817 113.764 17.1887 113.306 17.6967 113.256L22.0953 112.823C24.0777 112.625 26.0601 112.525 28.0426 112.525ZM28.0426 110.63C25.961 110.63 23.8547 110.729 21.7731 110.94L17.2383 111.386C16.5692 111.448 15.9621 111.782 15.5408 112.302C15.1196 112.823 14.9213 113.48 14.9957 114.149L16.3834 126.514C16.5073 127.567 16.9905 128.558 17.7587 129.289L26.5805 137.69C26.9646 138.062 27.485 138.26 28.0178 138.26C28.5506 138.26 29.0586 138.062 29.4551 137.69L38.2769 129.289C39.0451 128.558 39.5407 127.567 39.6522 126.514L41.0399 114.149C41.1143 113.48 40.9284 112.823 40.4947 112.302C40.0735 111.782 39.4663 111.46 38.7973 111.386L34.2625 110.94C32.2305 110.741 30.1241 110.63 28.0426 110.63Z" fill="white"/>
<mask id="mask1_17134_81934" style="mask-type:luminance" maskUnits="userSpaceOnUse" x="16" y="112" width="24" height="25">
<path d="M27.6821 136.241L19.1205 128.088C18.6249 127.605 18.3027 126.973 18.2284 126.279L16.8778 114.273C16.8159 113.765 17.1876 113.307 17.6956 113.257L22.0941 112.824C26.0466 112.427 30.0239 112.427 33.9763 112.824L38.3749 113.257C38.8829 113.307 39.2546 113.765 39.1926 114.273L37.8421 126.279C37.7677 126.961 37.4456 127.605 36.95 128.088L28.3883 136.241C28.2025 136.427 27.8804 136.427 27.6821 136.241Z" fill="white"/>
</mask>
<g mask="url(#mask1_17134_81934)">
<g opacity="0.8">
<path d="M22.6144 134.495L15.8121 127.978L36.2312 106.667L43.0334 113.172L22.6144 134.495Z" fill="url(#paint3_linear_17134_81934)"/>
</g>
</g>
<path d="M24.3127 121.511L27.7944 125.005L40.8909 111.214" stroke="#37B34A" stroke-width="3" stroke-miterlimit="10"/>
<defs>
<linearGradient id="paint0_linear_17134_81934" x1="145.277" y1="54.481" x2="171.221" y2="46.2051" gradientUnits="userSpaceOnUse">
<stop stop-color="#999999"/>
<stop offset="0.6666" stop-color="#5D5D5D"/>
<stop offset="1" stop-color="#3D3D3D"/>
</linearGradient>
<linearGradient id="paint1_linear_17134_81934" x1="134.415" y1="48.3012" x2="169.684" y2="83.5699" gradientUnits="userSpaceOnUse">
<stop stop-color="#FFE887"/>
<stop offset="0.2173" stop-color="#FCDD7B"/>
<stop offset="0.6058" stop-color="#F5C15D"/>
<stop offset="1" stop-color="#ED9E37"/>
</linearGradient>
<linearGradient id="paint2_linear_17134_81934" x1="19.9829" y1="112.813" x2="34.1971" y2="125.674" gradientUnits="userSpaceOnUse">
<stop stop-color="#FFE887"/>
<stop offset="0.174" stop-color="#FDDF7B"/>
<stop offset="0.4853" stop-color="#F8C65D"/>
<stop offset="0.8953" stop-color="#EF9E2B"/>
<stop offset="1" stop-color="#ED931D"/>
</linearGradient>
<linearGradient id="paint3_linear_17134_81934" x1="16.3052" y1="134.692" x2="47.4206" y2="101.217" gradientUnits="userSpaceOnUse">
<stop stop-color="white"/>
<stop offset="1" stop-color="white"/>
</linearGradient>
</defs>
</svg>
