<svg width="251" height="266" viewBox="0 0 251 266" fill="none" xmlns="http://www.w3.org/2000/svg">
<path d="M134.776 197.376C121.94 198.087 97.4734 146.781 114.564 119.487C121.697 108.098 132.464 106.641 137.015 92.1388C141.081 79.1933 134.299 74.6322 136.431 60.2203C139.426 39.952 157.398 17.9743 173.949 19.6656C182.251 20.5113 191.543 27.4473 194.233 37.3071C196.382 45.2057 189.852 53.2303 192.164 54.8316C194.062 56.1451 197.903 50.7924 201.285 51.7909C206.277 53.2573 209.713 68.3799 205.207 81.0555C197.489 102.763 171.376 103.519 170.306 119.163C169.622 129.131 180.003 132.244 178.293 142.517C176.791 151.558 168.075 153.277 156.912 164.459C139.444 181.984 141.657 196.998 134.776 197.376Z" fill="url(#paint0_linear_5995_12230)"/>
<g opacity="0.5">
<path opacity="0.5" d="M137.854 208.55C137.594 208.612 137.308 208.534 137.146 208.332C137.003 208.153 137.003 207.927 137.111 207.756C137.111 207.422 136.86 206.332 136.564 205.087C134.907 198.069 130.509 179.434 134.88 149.773C140.38 112.471 157.515 71.7918 185.811 28.8487C185.99 28.5841 186.376 28.4907 186.68 28.6463C186.985 28.802 187.092 29.1365 186.913 29.4011C156.512 75.5344 123.316 143.423 137.809 204.862C138.463 207.64 138.58 208.145 138.033 208.472C137.979 208.503 137.917 208.534 137.854 208.55Z" fill="white"/>
<path opacity="0.5" d="M146.744 94.5442C146.449 94.6413 146.131 94.4647 146.032 94.1468C145.926 93.8201 146.09 93.4581 146.392 93.3433C171.444 83.8863 186.292 74.1909 194.346 67.7362C203.061 60.7428 205.899 55.9127 205.923 55.8686C206.095 55.5772 206.454 55.4801 206.724 55.6655C206.994 55.8509 207.084 56.2394 206.912 56.5308C206.798 56.7339 203.985 61.5463 195.13 68.6721C187.012 75.2064 172.033 84.9989 146.768 94.5354C146.76 94.5354 146.752 94.5354 146.744 94.5442Z" fill="white"/>
<path opacity="0.5" d="M156.524 63.5605C156.399 63.5753 156.255 63.5753 156.13 63.553C148.653 62.4179 143.498 58.5699 140.818 52.1204C138.836 47.3643 138.998 42.8761 139.007 42.8314C139.016 42.6863 139.302 42.5672 139.661 42.5709C140.011 42.5746 140.298 42.6937 140.289 42.8426C140.28 43.0175 139.742 60.4976 156.578 63.0543C156.91 63.1064 157.08 63.259 156.963 63.3967C156.874 63.4786 156.721 63.5381 156.524 63.5605Z" fill="white"/>
<path opacity="0.5" d="M135.001 149.068C134.821 149.122 134.623 149.095 134.452 148.978C124.072 141.79 119.061 129.222 116.678 119.947C114.105 109.943 113.97 101.496 113.97 101.415C113.961 101.064 114.249 100.767 114.6 100.767C114.951 100.758 115.247 101.046 115.247 101.397C115.247 101.478 115.382 109.79 117.919 119.659C120.249 128.709 125.133 140.962 135.171 147.925C135.459 148.123 135.531 148.528 135.333 148.816C135.261 148.942 135.135 149.023 135.001 149.068Z" fill="white"/>
</g>
<path d="M142.817 50.3662L166.303 245.637C166.654 248.561 164.639 251.188 161.815 251.466L63.9759 262.208C57.9852 262.577 54.702 259.518 54.3332 256.405L29.6689 48.8008C29.3001 45.7062 32.2415 42.8994 38.2591 42.8994L136.988 44.9775C139.849 45.0314 142.466 47.4514 142.817 50.3662Z" fill="url(#paint1_linear_5995_12230)"/>
<path d="M147.224 50.0249L170.845 246.276C171.196 249.218 169.172 251.854 166.339 252.142L64.902 262.236C61.7177 262.55 58.8033 260.247 58.4345 257.126L33.6353 48.4416C33.2665 45.3289 35.6052 42.828 38.8164 42.882L141.368 44.6092C144.238 44.6632 146.864 47.1012 147.224 50.0249Z" fill="url(#paint2_linear_5995_12230)"/>
<path d="M145.3 60.8466L167.193 242.803C167.526 245.556 165.628 248.012 162.975 248.273L67.5739 257.557C64.6145 257.845 61.907 255.695 61.5652 252.78L38.6459 60.01C38.3041 57.1132 40.4719 54.7652 43.4583 54.8012L139.831 55.8268C142.511 55.8538 144.967 58.1118 145.3 60.8466Z" fill="url(#paint3_linear_5995_12230)"/>
<path d="M94.1448 49.8853C94.2707 50.9288 93.5241 51.7655 92.4717 51.7565C91.4193 51.7475 90.4658 50.8839 90.3399 49.8403C90.214 48.7967 90.9695 47.9601 92.022 47.9691C93.0654 47.9871 94.0189 48.8417 94.1448 49.8853Z" fill="url(#paint4_linear_5995_12230)"/>
<g opacity="0.5">
<path opacity="0.5" d="M128.802 182.995C109.274 146.885 80.1035 136.071 71.3154 98.8541C66.566 78.7387 69.8042 59.4869 75.2552 43.5007L38.8164 42.8889C35.6052 42.835 33.2665 45.3359 33.6353 48.4486L58.4345 257.124C58.8033 260.254 61.7177 262.557 64.902 262.233L144.634 254.29C145.227 221.94 137.51 199.089 128.802 182.995Z" fill="white"/>
</g>
<g opacity="0.8">
<g opacity="0.8">
<path opacity="0.8" d="M145.197 161.834C145.051 160.82 143.924 159.973 142.676 159.999L69.1257 161.414C67.8048 161.441 66.8595 162.358 67.017 163.389L67.8654 169.172C68.0229 170.212 69.2106 171.024 70.5194 170.998L143.985 169.347C145.233 169.32 146.13 168.473 145.984 167.468L145.197 161.834Z" fill="white"/>
<path opacity="0.8" d="M147.197 179.834C147.051 178.82 145.924 177.973 144.676 177.999L71.1257 179.414C69.8048 179.441 68.8595 180.358 69.017 181.389L69.8654 187.172C70.0229 188.212 71.2106 189.024 72.5194 188.998L145.985 187.347C147.233 187.32 148.13 186.473 147.984 185.468L147.197 179.834Z" fill="white"/>
<path opacity="0.8" d="M150.197 197.834C150.051 196.82 148.924 195.973 147.676 195.999L74.1257 197.414C72.8048 197.441 71.8595 198.358 72.017 199.389L72.8654 205.172C73.0229 206.212 74.2106 207.024 75.5194 206.998L148.985 205.347C150.233 205.32 151.13 204.473 150.984 203.468L150.197 197.834Z" fill="white"/>
<g opacity="0.8">
<path opacity="0.8" d="M151.502 238.32C151.061 238.338 150.611 238.176 150.233 237.816L146.653 234.406C145.907 233.696 145.781 232.499 146.374 231.734C146.968 230.97 148.057 230.925 148.803 231.636L151.034 233.759L156.566 226.598C157.15 225.833 158.23 225.797 158.967 226.508C159.705 227.218 159.831 228.406 159.246 229.171L152.653 237.717C152.356 238.095 151.933 238.293 151.502 238.32Z" fill="white"/>
</g>
</g>
<path opacity="0.8" d="M132.581 99.2686H65.1001C60.5037 99.2686 56.9866 102.993 57.4903 107.725L59.4423 125.978C59.946 130.701 64.2636 134.561 68.842 134.489L136.035 133.409C140.316 133.337 143.465 129.568 143.006 125.025L141.234 107.419C140.766 102.867 136.88 99.2686 132.581 99.2686Z" fill="white"/>
</g>
<path d="M184.553 97.3397C172.116 98.0362 168.706 109.157 169.585 111.131C169.699 111.394 169.495 111.681 169.21 111.672C167.753 111.615 164.612 111.844 163.26 114.647C162.072 117.122 163.765 118.818 165.018 119.67C165.32 119.875 165.214 120.351 164.848 120.383C162.251 120.646 156.741 121.826 157.009 127.21C157.262 132.233 160.908 132.831 162.976 132.757C163.326 132.749 163.505 133.167 163.26 133.421C162.414 134.282 161.567 135.847 162.609 138.314C164.245 142.181 172.026 140.051 172.93 139.789C172.987 139.772 173.036 139.739 173.084 139.698L184.032 129.594C184.113 129.512 184.162 129.406 184.154 129.283L183.356 113.934C183.348 113.811 183.283 113.696 183.185 113.631L188.752 100.101C191.626 98.9705 184.699 97.3315 184.553 97.3397Z" fill="url(#paint5_linear_5995_12230)"/>
<path d="M207.448 139.494C207.448 139.494 199.887 148.614 192.269 141.206L189.33 148.074C189.33 148.074 200.449 156.744 208.881 143.099L207.448 139.494Z" fill="url(#paint6_linear_5995_12230)"/>
<path d="M188.777 122.564C186.677 121.933 180.564 120.761 174.753 126.161C173.768 127.079 173.361 128.472 173.719 129.775C175.282 135.561 179.4 152.663 175.787 160.063C175.787 160.063 182.152 167.127 189.094 161.432C189.094 161.432 192.212 147.763 196.289 141.756C199.105 137.61 191.796 126.194 189.949 123.441C189.664 123.023 189.257 122.712 188.777 122.564Z" fill="#980101"/>
<path d="M185.521 111.533C185.521 111.533 181.289 119.883 180.54 123.718C180.54 123.718 183.739 125.734 187.287 123.53C187.287 123.53 188.777 114.819 189.477 113.319L185.521 111.533Z" fill="url(#paint7_linear_5995_12230)"/>
<path d="M197.201 190.137C197.177 190.76 198.259 195.685 198.845 198.307C199.081 199.364 198.919 200.471 198.381 201.413L177.984 235.978C177.74 236.396 177.561 236.847 177.447 237.322C177.073 238.945 176.299 242.919 176.706 246.533L177.765 248.738L173.198 247.697L172.205 235.356L173.5 234.561C174.615 233.872 175.486 232.848 175.982 231.635C177.83 227.12 182.404 215.639 183.592 210.042C184.935 203.683 191.951 198.512 191.951 198.512L190.722 195.578L197.201 190.137Z" fill="url(#paint8_linear_5995_12230)"/>
<path d="M168.12 243.452C168.12 243.452 170.586 239.519 170.871 237.986C171.164 236.454 171.969 233.75 173.491 234.561C173.491 234.561 174.208 242.002 173.963 244.911C173.719 247.82 177.227 247.722 177.227 247.722C177.227 247.722 178.196 247.861 178.904 248.574C179.392 249.066 179.042 249.918 178.35 249.967C177.203 250.041 175.38 250.057 173.459 249.689C172.791 249.557 172.295 248.984 172.254 248.295L171.75 239.732L168.64 243.682L168.12 243.452Z" fill="url(#paint9_linear_5995_12230)"/>
<path d="M185.008 195.645C185.008 195.645 184.292 226.564 184.195 230.956C184.097 235.349 184.886 245.084 189.257 247.993L187.353 249.411C187.353 249.411 184.976 247.379 182.648 243.462C180.035 239.061 179.246 238.258 179.246 238.258L180.109 236.471C180.491 235.693 180.597 234.808 180.426 233.956C179.482 229.35 176.332 214.034 175.469 210.74C174.452 206.847 174.379 201.644 177.911 197.292C181.452 192.941 185.008 195.645 185.008 195.645Z" fill="url(#paint10_linear_5995_12230)"/>
<path d="M180.971 250.802C180.833 250.802 180.719 250.704 180.703 250.573C180.556 249.54 179.954 245.41 179.457 244.337C178.888 243.108 177.032 237.953 179.457 237.519C179.457 237.519 185.48 246.385 186.636 247.574C187.792 248.77 189.249 247.992 189.249 247.992C189.249 247.992 190.372 248.328 191.227 249.417C191.634 249.942 191.251 250.704 190.6 250.712L186.539 250.753C185.358 250.761 184.3 250.04 183.861 248.942C183.145 247.148 181.915 244.509 180.491 243.345L181.232 250.507C181.256 250.663 181.134 250.802 180.971 250.802Z" fill="url(#paint11_linear_5995_12230)"/>
<path d="M190.055 158.095C190.055 158.095 189.143 161.028 190.543 165.863L199.26 196.511C199.399 196.995 199.138 197.495 198.674 197.667C196.07 198.609 187.499 201.272 175.795 200.461C175.209 200.42 174.712 200.002 174.582 199.42C173.809 195.93 171.18 184.006 170.643 181.556C168.575 172.222 166.581 163.347 176.715 157.267C181.386 159.275 185.432 159.275 190.055 158.095Z" fill="#EBFCFF"/>
<path d="M179.539 130.348C179.539 130.348 177.781 155.587 193.986 142.91C193.986 142.91 196.379 140.632 198.105 140.362C199.032 140.214 200.082 140.116 200.856 140.05C201.206 140.026 201.368 140.476 201.083 140.681C200.53 141.074 199.797 141.501 199.163 141.566C197.942 141.697 199.244 142.599 197.909 144.951C196.582 147.311 194.678 146.417 194.678 146.417C194.678 146.417 176.12 165.552 172.409 132.175C172.287 125.972 178.22 126.299 179.539 130.348Z" fill="url(#paint12_linear_5995_12230)"/>
<path d="M212.421 133.218L206.911 132.489C206.252 132.382 205.576 132.767 205.169 133.48L201.547 141.552C200.864 142.757 201.352 144.355 202.451 144.543L206.879 145.117C207.302 145.19 207.733 144.92 207.977 144.437L212.877 134.586C213.162 134.013 212.926 133.3 212.421 133.218Z" fill="url(#paint13_linear_5995_12230)"/>
<path d="M208.661 144.099C208.661 144.099 212.364 138.666 211.933 138.002C211.501 137.33 208.254 136.38 207.489 136.15C206.732 135.921 205.299 140.846 208.661 144.099Z" fill="url(#paint14_linear_5995_12230)"/>
<path d="M193.009 103.986C193.009 103.986 194.841 107.583 193.327 113.328C191.821 119.073 188.793 119.761 186.775 118.499C184.748 117.237 182.086 114.91 181.443 109.837C180.809 104.756 190.519 99.4459 193.009 103.986Z" fill="url(#paint15_linear_5995_12230)"/>
<path d="M185.196 109.255C185.196 109.255 188.085 101.421 193.449 105.838L193.962 107.772C193.962 107.772 198.691 106.075 196.827 101.781C194.963 97.4874 190.12 95.6436 185.147 98.8313C180.174 102.019 177.52 104.723 178.057 108.706C178.595 112.689 181.484 111.132 181.484 111.132C181.484 111.132 181.867 108.149 183.234 107.534C184.601 106.919 184.715 109.148 184.715 109.148L185.196 109.255Z" fill="url(#paint16_linear_5995_12230)"/>
<path d="M183.657 110.582C183.657 110.582 185.163 106.566 182.697 106.583C180.223 106.599 181.476 110.442 182.062 111.836L183.657 110.582Z" fill="url(#paint17_linear_5995_12230)"/>
<path d="M64.8911 112.869L64.7147 105.871L68.9734 105.764L68.9908 106.453L65.5719 106.54L65.6338 108.999L68.5429 108.925L68.56 109.605L65.6509 109.679L65.7308 112.848L64.8911 112.869ZM71.9788 112.81C71.5123 112.822 71.0897 112.726 70.7111 112.522C70.3325 112.318 70.0284 112.026 69.7987 111.645C69.5756 111.257 69.4573 110.8 69.4441 110.273C69.4308 109.747 69.5293 109.287 69.7395 108.895C69.9495 108.497 70.2384 108.186 70.6063 107.963C70.9808 107.74 71.4013 107.623 71.8678 107.611C72.3343 107.6 72.7569 107.696 73.1355 107.899C73.514 108.103 73.8149 108.399 74.0381 108.787C74.2678 109.168 74.3892 109.622 74.4025 110.148C74.4158 110.675 74.3174 111.137 74.1074 111.536C73.8972 111.928 73.6048 112.236 73.2303 112.459C72.8625 112.681 72.4453 112.798 71.9788 112.81ZM71.9606 112.09C72.2472 112.083 72.512 112.006 72.7551 111.86C72.9982 111.714 73.1928 111.499 73.339 111.215C73.4853 110.932 73.5532 110.583 73.5428 110.17C73.5324 109.757 73.447 109.412 73.2867 109.136C73.133 108.86 72.9311 108.655 72.681 108.521C72.4309 108.387 72.1658 108.324 71.8859 108.331C71.5994 108.338 71.3345 108.415 71.0915 108.561C70.8484 108.707 70.6538 108.922 70.5075 109.206C70.3613 109.49 70.2934 109.838 70.3038 110.252C70.3142 110.665 70.3996 111.009 70.5599 111.285C70.7203 111.561 70.9222 111.766 71.1656 111.9C71.4157 112.034 71.6807 112.097 71.9606 112.09ZM75.3826 112.604L75.2577 107.646L76.0175 107.627L76.1114 108.575C76.2564 108.244 76.4831 107.978 76.7915 107.777C77.0999 107.576 77.484 107.47 77.9438 107.458L77.966 108.338L77.7361 108.344C77.4428 108.351 77.1743 108.411 76.9304 108.524C76.6863 108.63 76.4941 108.808 76.3536 109.059C76.2132 109.309 76.1485 109.651 76.1594 110.084L76.2224 112.583L75.3826 112.604ZM78.7644 112.519L78.6395 107.561L79.3992 107.542L79.4773 108.26C79.6306 107.989 79.8386 107.777 80.1015 107.624C80.3644 107.471 80.6625 107.39 80.9957 107.381C81.3889 107.371 81.7275 107.443 82.0114 107.596C82.302 107.749 82.5281 107.986 82.6896 108.309C82.8553 108.005 83.0859 107.762 83.3815 107.581C83.6837 107.4 84.0114 107.305 84.3646 107.296C84.9578 107.281 85.4355 107.45 85.7978 107.8C86.1599 108.145 86.3503 108.687 86.3689 109.427L86.4419 112.326L85.6122 112.347L85.5414 109.538C85.5285 109.024 85.4155 108.64 85.2023 108.386C84.9892 108.131 84.6893 108.008 84.3028 108.018C83.9029 108.028 83.5736 108.193 83.3149 108.513C83.0627 108.826 82.9439 109.27 82.9583 109.843L83.023 112.412L82.1833 112.433L82.1125 109.624C82.0996 109.111 81.9866 108.727 81.7734 108.472C81.5603 108.217 81.2604 108.095 80.8739 108.105C80.4807 108.115 80.1547 108.279 79.896 108.599C79.6438 108.913 79.5249 109.356 79.5394 109.929L79.6041 112.498L78.7644 112.519ZM65.1837 126.866L65.0074 119.868L67.5966 119.803C68.1564 119.789 68.6219 119.87 68.9932 120.048C69.3644 120.225 69.6441 120.475 69.8323 120.797C70.0205 121.119 70.1197 121.483 70.1299 121.89C70.1397 122.276 70.062 122.635 69.897 122.966C69.7317 123.29 69.4684 123.557 69.1069 123.766C68.7452 123.968 68.2778 124.077 67.7046 124.091L66.395 124.124L66.4633 126.834L65.1837 126.866ZM66.3688 123.085L67.5984 123.054C68.045 123.042 68.3624 122.938 68.5508 122.74C68.7457 122.535 68.8389 122.262 68.8303 121.922C68.8216 121.576 68.7148 121.308 68.51 121.12C68.3117 120.925 67.9893 120.833 67.5428 120.844L66.3132 120.875L66.3688 123.085ZM73.1345 126.785C72.6347 126.798 72.1888 126.703 71.7969 126.499C71.405 126.296 71.0942 126.003 70.8645 125.622C70.6348 125.241 70.5136 124.798 70.5008 124.291C70.4879 123.778 70.583 123.319 70.7862 122.913C70.9961 122.508 71.2882 122.191 71.6625 121.961C72.0434 121.725 72.4937 121.6 73.0135 121.587C73.5 121.575 73.9326 121.67 74.3112 121.874C74.6898 122.078 74.9871 122.364 75.2031 122.732C75.4256 123.093 75.5425 123.5 75.5539 123.954C75.5558 124.027 75.5544 124.104 75.5497 124.184C75.5518 124.264 75.5505 124.347 75.546 124.434L71.7772 124.529C71.8136 124.915 71.9546 125.215 72.2 125.429C72.4522 125.642 72.7515 125.745 73.0981 125.736C73.358 125.73 73.5732 125.667 73.7436 125.55C73.9205 125.425 74.0499 125.269 74.1319 125.08L75.4315 125.047C75.346 125.363 75.1966 125.653 74.9833 125.919C74.7764 126.177 74.5148 126.384 74.1986 126.539C73.8891 126.693 73.5344 126.775 73.1345 126.785ZM73.0397 122.627C72.7265 122.634 72.4522 122.731 72.2168 122.917C71.9812 123.097 71.8347 123.367 71.7771 123.729L74.2463 123.666C74.2181 123.34 74.0916 123.084 73.8668 122.896C73.642 122.708 73.3663 122.618 73.0397 122.627ZM76.447 126.582L76.3221 121.624L77.4517 121.595L77.5728 122.432C77.7187 122.135 77.9328 121.896 78.215 121.716C78.5039 121.535 78.8449 121.44 79.2381 121.43C79.8513 121.415 80.3326 121.596 80.6823 121.974C81.0319 122.352 81.2161 122.914 81.2349 123.66L81.3055 126.46L80.0259 126.492L79.9584 123.813C79.9476 123.386 79.8527 123.062 79.6738 122.84C79.4948 122.617 79.222 122.511 78.8554 122.52C78.4956 122.529 78.2022 122.663 77.9753 122.922C77.7551 123.181 77.6507 123.537 77.6621 123.991L77.7266 126.55L76.447 126.582ZM84.3412 124.903C84.1013 124.909 83.8773 124.888 83.6694 124.84L83.3088 125.219C83.4236 125.276 83.5782 125.322 83.7725 125.357C83.9667 125.392 84.281 125.424 84.7152 125.453C85.3765 125.497 85.8603 125.641 86.1666 125.887C86.4728 126.133 86.6316 126.479 86.6429 126.925C86.6502 127.219 86.5772 127.497 86.4238 127.761C86.2706 128.032 86.0294 128.251 85.7002 128.419C85.3712 128.595 84.9467 128.689 84.4269 128.702C83.7205 128.719 83.1473 128.601 82.7074 128.345C82.2676 128.096 82.0411 127.708 82.0279 127.182C82.0166 126.735 82.2235 126.343 82.6484 126.006C82.5136 125.949 82.3954 125.889 82.2938 125.824C82.1988 125.76 82.1137 125.692 82.0385 125.621L82.0328 125.391L82.8793 124.449C82.4842 124.119 82.2799 123.687 82.2665 123.154C82.2581 122.821 82.3304 122.516 82.4835 122.239C82.6432 121.961 82.871 121.739 83.1669 121.571C83.4628 121.404 83.824 121.315 84.2505 121.304C84.5304 121.297 84.7913 121.33 85.0333 121.404L86.9127 121.357L86.9323 122.136L86.0841 122.218C86.2238 122.468 86.2975 122.746 86.3052 123.053C86.3136 123.386 86.2413 123.691 86.0882 123.968C85.9351 124.246 85.7073 124.468 85.4048 124.636C85.1089 124.803 84.7544 124.892 84.3412 124.903ZM84.3165 123.923C84.5764 123.916 84.7879 123.841 84.951 123.697C85.1208 123.553 85.2024 123.35 85.1958 123.091C85.1893 122.831 85.0976 122.633 84.9208 122.497C84.7506 122.361 84.5356 122.297 84.2757 122.303C84.0025 122.31 83.7843 122.386 83.6212 122.53C83.4581 122.674 83.3798 122.876 83.3864 123.136C83.3929 123.396 83.4813 123.594 83.6514 123.73C83.8216 123.865 84.0433 123.93 84.3165 123.923ZM83.1942 127.022C83.2004 127.269 83.3183 127.449 83.548 127.563C83.7844 127.684 84.0692 127.74 84.4025 127.732C84.7224 127.724 84.9806 127.651 85.1772 127.512C85.3739 127.381 85.4695 127.205 85.464 126.985C85.4595 126.805 85.389 126.657 85.2527 126.54C85.1231 126.423 84.8646 126.357 84.4774 126.34C84.2037 126.327 83.9497 126.303 83.7154 126.269C83.5248 126.38 83.3878 126.5 83.3043 126.629C83.2276 126.758 83.1908 126.889 83.1942 127.022ZM89.4332 126.375C89.0067 126.386 88.6551 126.328 88.3785 126.201C88.1018 126.068 87.8939 125.89 87.7549 125.667C87.6159 125.444 87.5429 125.195 87.536 124.922C87.5245 124.462 87.695 124.085 88.0477 123.789C88.4003 123.493 88.9366 123.336 89.6563 123.318L90.9159 123.286L90.9129 123.167C90.9043 122.827 90.8014 122.579 90.6041 122.424C90.4068 122.269 90.1649 122.195 89.8783 122.202C89.6184 122.209 89.3934 122.278 89.2033 122.409C89.013 122.534 88.8976 122.717 88.857 122.958L87.6074 122.99C87.6317 122.629 87.7437 122.313 87.9436 122.041C88.1502 121.769 88.4183 121.559 88.748 121.411C89.0775 121.255 89.4489 121.173 89.8621 121.162C90.5685 121.145 91.1295 121.307 91.5449 121.65C91.9603 121.993 92.1762 122.488 92.1925 123.134L92.2693 126.183L91.1797 126.211L91.0396 125.414C90.8996 125.684 90.6986 125.909 90.4364 126.089C90.1808 126.269 89.8464 126.364 89.4332 126.375ZM89.698 125.368C90.0645 125.359 90.3447 125.232 90.5386 124.987C90.7392 124.741 90.8617 124.442 90.9061 124.087L89.8164 124.114C89.4765 124.123 89.2349 124.192 89.0914 124.323C88.9478 124.446 88.8783 124.598 88.8829 124.778C88.8877 124.971 88.9648 125.12 89.1141 125.222C89.2634 125.325 89.458 125.374 89.698 125.368ZM95.5228 126.221C95.0563 126.233 94.6369 126.13 94.2646 125.913C93.8924 125.696 93.5946 125.393 93.3715 125.005C93.1483 124.617 93.0304 124.174 93.0178 123.674C93.0052 123.174 93.1007 122.728 93.3042 122.336C93.5076 121.937 93.7898 121.624 94.1508 121.394C94.5116 121.159 94.9253 121.035 95.3918 121.023C95.765 121.014 96.0934 121.075 96.3768 121.208C96.6602 121.341 96.8918 121.532 97.0714 121.781L96.9979 118.862L98.2775 118.83L98.4588 126.027L97.3192 126.056L97.1614 125.35C97.007 125.574 96.7986 125.772 96.5362 125.946C96.2805 126.119 95.9427 126.211 95.5228 126.221ZM95.7645 125.095C96.1777 125.085 96.5108 124.939 96.7639 124.66C97.0234 124.373 97.1477 124.013 97.1368 123.58C97.1259 123.147 96.9837 122.797 96.7102 122.53C96.4432 122.257 96.1031 122.125 95.6899 122.136C95.2834 122.146 94.9503 122.291 94.6906 122.571C94.4309 122.851 94.3065 123.208 94.3174 123.641C94.3283 124.074 94.4706 124.427 94.7442 124.701C95.0179 124.974 95.358 125.105 95.7645 125.095ZM101.374 126.074C100.755 126.09 100.27 125.908 99.9202 125.53C99.5773 125.152 99.3964 124.59 99.3776 123.844L99.307 121.044L100.577 121.012L100.644 123.692C100.655 124.118 100.75 124.443 100.929 124.665C101.108 124.887 101.384 124.993 101.757 124.984C102.11 124.975 102.397 124.841 102.617 124.582C102.844 124.323 102.952 123.967 102.94 123.514L102.876 120.955L104.155 120.922L104.28 125.881L103.151 125.909L103.03 125.072C102.884 125.369 102.666 125.608 102.378 125.789C102.095 125.969 101.761 126.064 101.374 126.074ZM107.057 125.931C106.63 125.942 106.278 125.884 106.002 125.757C105.725 125.624 105.517 125.446 105.378 125.223C105.239 125 105.166 124.751 105.159 124.478C105.148 124.018 105.318 123.641 105.671 123.345C106.024 123.049 106.56 122.892 107.28 122.874L108.539 122.842L108.536 122.723C108.528 122.383 108.425 122.135 108.227 121.98C108.03 121.825 107.788 121.751 107.502 121.758C107.242 121.765 107.017 121.834 106.827 121.965C106.636 122.09 106.521 122.273 106.48 122.514L105.231 122.546C105.255 122.185 105.367 121.869 105.567 121.597C105.773 121.325 106.042 121.115 106.371 120.966C106.701 120.811 107.072 120.729 107.485 120.718C108.192 120.701 108.753 120.863 109.168 121.206C109.584 121.549 109.8 122.044 109.816 122.69L109.893 125.739L108.803 125.767L108.663 124.97C108.523 125.24 108.322 125.465 108.06 125.645C107.804 125.825 107.47 125.92 107.057 125.931ZM107.321 124.924C107.688 124.915 107.968 124.787 108.162 124.543C108.362 124.297 108.485 123.998 108.529 123.643L107.44 123.67C107.1 123.679 106.858 123.748 106.715 123.879C106.571 124.002 106.502 124.154 106.506 124.334C106.511 124.527 106.588 124.676 106.737 124.778C106.887 124.881 107.081 124.93 107.321 124.924ZM110.864 125.715L110.739 120.756L111.869 120.728L111.99 121.565C112.136 121.268 112.35 121.029 112.632 120.849C112.921 120.668 113.262 120.573 113.655 120.563C114.268 120.547 114.749 120.729 115.099 121.107C115.449 121.485 115.633 122.047 115.652 122.793L115.722 125.592L114.443 125.625L114.375 122.946C114.364 122.519 114.27 122.195 114.091 121.972C113.912 121.75 113.639 121.644 113.272 121.653C112.912 121.662 112.619 121.796 112.392 122.055C112.172 122.314 112.068 122.67 112.079 123.123L112.143 125.683L110.864 125.715Z" fill="#00966D"/>
<defs>
<linearGradient id="paint0_linear_5995_12230" x1="180.383" y1="44.2985" x2="121.808" y2="195.722" gradientUnits="userSpaceOnUse">
<stop stop-color="#417465"/>
<stop offset="1" stop-color="#2A5446"/>
</linearGradient>
<linearGradient id="paint1_linear_5995_12230" x1="96.7782" y1="147.52" x2="58.2203" y2="151.726" gradientUnits="userSpaceOnUse">
<stop stop-color="#66738F"/>
<stop offset="0.9964" stop-color="#363636"/>
</linearGradient>
<linearGradient id="paint2_linear_5995_12230" x1="130.751" y1="50.3152" x2="35.3858" y2="374.936" gradientUnits="userSpaceOnUse">
<stop stop-color="#66738F"/>
<stop offset="0.9964" stop-color="#363636"/>
</linearGradient>
<linearGradient id="paint3_linear_5995_12230" x1="32.2899" y1="141.757" x2="128.148" y2="161.903" gradientUnits="userSpaceOnUse">
<stop offset="0.00359712" stop-color="#86D0C1"/>
<stop offset="1" stop-color="#4BAC99"/>
</linearGradient>
<linearGradient id="paint4_linear_5995_12230" x1="95.0239" y1="42.3146" x2="-17.0546" y2="345.822" gradientUnits="userSpaceOnUse">
<stop stop-color="#2A5446"/>
<stop offset="1" stop-color="#417465"/>
</linearGradient>
<linearGradient id="paint5_linear_5995_12230" x1="163.734" y1="92.0901" x2="178.249" y2="125.08" gradientUnits="userSpaceOnUse">
<stop stop-color="#363636"/>
<stop offset="1" stop-color="#2D2D2D"/>
</linearGradient>
<linearGradient id="paint6_linear_5995_12230" x1="203.308" y1="129.947" x2="196.493" y2="154.992" gradientUnits="userSpaceOnUse">
<stop stop-color="#FEBBBA"/>
<stop offset="1" stop-color="#FF928E"/>
</linearGradient>
<linearGradient id="paint7_linear_5995_12230" x1="188.174" y1="129.162" x2="184.677" y2="117.556" gradientUnits="userSpaceOnUse">
<stop stop-color="#FEBBBA"/>
<stop offset="1" stop-color="#FF928E"/>
</linearGradient>
<linearGradient id="paint8_linear_5995_12230" x1="160.163" y1="265.91" x2="197.397" y2="199.159" gradientUnits="userSpaceOnUse">
<stop stop-color="#FEBBBA"/>
<stop offset="1" stop-color="#FF928E"/>
</linearGradient>
<linearGradient id="paint9_linear_5995_12230" x1="168.111" y1="242.283" x2="179.066" y2="242.179" gradientUnits="userSpaceOnUse">
<stop stop-color="#363636"/>
<stop offset="1" stop-color="#2D2D2D"/>
</linearGradient>
<linearGradient id="paint10_linear_5995_12230" x1="202.17" y1="216.231" x2="146.217" y2="234.586" gradientUnits="userSpaceOnUse">
<stop stop-color="#FEBBBA"/>
<stop offset="1" stop-color="#FF928E"/>
</linearGradient>
<linearGradient id="paint11_linear_5995_12230" x1="178.286" y1="244.177" x2="191.345" y2="244.054" gradientUnits="userSpaceOnUse">
<stop stop-color="#363636"/>
<stop offset="1" stop-color="#2D2D2D"/>
</linearGradient>
<linearGradient id="paint12_linear_5995_12230" x1="190.373" y1="139.641" x2="219.19" y2="139.641" gradientUnits="userSpaceOnUse">
<stop stop-color="#FEBBBA"/>
<stop offset="1" stop-color="#FF928E"/>
</linearGradient>
<linearGradient id="paint13_linear_5995_12230" x1="204.803" y1="134.013" x2="210.056" y2="140.021" gradientUnits="userSpaceOnUse">
<stop stop-color="#363636"/>
<stop offset="1" stop-color="#2D2D2D"/>
</linearGradient>
<linearGradient id="paint14_linear_5995_12230" x1="210.743" y1="132.598" x2="207.152" y2="145.796" gradientUnits="userSpaceOnUse">
<stop stop-color="#FEBBBA"/>
<stop offset="1" stop-color="#FF928E"/>
</linearGradient>
<linearGradient id="paint15_linear_5995_12230" x1="194.722" y1="111.208" x2="173.133" y2="109.024" gradientUnits="userSpaceOnUse">
<stop stop-color="#FEBBBA"/>
<stop offset="1" stop-color="#FF928E"/>
</linearGradient>
<linearGradient id="paint16_linear_5995_12230" x1="194.924" y1="92.2129" x2="177.245" y2="123.599" gradientUnits="userSpaceOnUse">
<stop stop-color="#363636"/>
<stop offset="1" stop-color="#2D2D2D"/>
</linearGradient>
<linearGradient id="paint17_linear_5995_12230" x1="194.532" y1="110.448" x2="172.944" y2="108.264" gradientUnits="userSpaceOnUse">
<stop stop-color="#FEBBBA"/>
<stop offset="1" stop-color="#FF928E"/>
</linearGradient>
</defs>
</svg>
