<svg width="251" height="266" viewBox="0 0 251 266" fill="none" xmlns="http://www.w3.org/2000/svg">
<path d="M134.776 197.376C121.94 198.087 97.4733 146.782 114.564 119.488C121.697 108.098 132.464 106.641 137.015 92.1392C141.081 79.1937 134.299 74.6326 136.431 60.2208C139.426 39.9524 157.398 17.9748 173.949 19.666C182.251 20.5117 191.543 27.4477 194.233 37.3075C196.382 45.2062 189.852 53.2308 192.164 54.8321C194.062 56.1455 197.903 50.7928 201.285 51.7914C206.277 53.2577 209.713 68.3803 205.207 81.0559C197.489 102.764 171.376 103.519 170.306 119.164C169.622 129.131 180.002 132.244 178.293 142.518C176.791 151.559 168.075 153.277 156.912 164.459C139.444 181.984 141.657 196.999 134.776 197.376Z" fill="url(#paint0_linear)"/>
<g opacity="0.5">
<path opacity="0.5" d="M137.854 208.549C137.594 208.612 137.308 208.534 137.146 208.332C137.003 208.153 137.003 207.927 137.111 207.756C137.111 207.421 136.86 206.332 136.564 205.087C134.907 198.068 130.509 179.433 134.88 149.772C140.38 112.47 157.515 71.7912 185.811 28.8481C185.99 28.5836 186.376 28.4902 186.68 28.6458C186.985 28.8014 187.092 29.136 186.913 29.4006C156.512 75.5339 123.316 143.423 137.809 204.861C138.463 207.639 138.58 208.145 138.033 208.472C137.979 208.503 137.917 208.534 137.854 208.549Z" fill="white"/>
<path opacity="0.5" d="M146.744 94.5437C146.449 94.6408 146.131 94.4642 146.032 94.1463C145.926 93.8196 146.09 93.4576 146.392 93.3428C171.444 83.8858 186.292 74.1904 194.346 67.7356C203.061 60.7422 205.899 55.9122 205.923 55.8681C206.095 55.5767 206.454 55.4795 206.724 55.665C206.994 55.8504 207.084 56.2389 206.912 56.5303C206.798 56.7334 203.985 61.5458 195.13 68.6716C187.012 75.2059 172.033 84.9984 146.768 94.5348C146.76 94.5348 146.752 94.5348 146.744 94.5437Z" fill="white"/>
<path opacity="0.5" d="M156.524 63.5599C156.399 63.5748 156.255 63.5748 156.13 63.5525C148.653 62.4174 143.498 58.5693 140.818 52.1199C138.836 47.3638 138.998 42.8756 139.007 42.8309C139.016 42.6858 139.302 42.5667 139.661 42.5704C140.011 42.5741 140.298 42.6932 140.289 42.8421C140.28 43.017 139.742 60.4971 156.578 63.0538C156.91 63.1059 157.08 63.2585 156.963 63.3962C156.874 63.4781 156.721 63.5376 156.524 63.5599Z" fill="white"/>
<path opacity="0.5" d="M135 149.066C134.821 149.12 134.623 149.093 134.452 148.976C124.072 141.788 119.061 129.221 116.678 119.946C114.105 109.942 113.97 101.495 113.97 101.414C113.961 101.063 114.249 100.766 114.6 100.766C114.951 100.757 115.247 101.045 115.247 101.396C115.247 101.477 115.382 109.789 117.919 119.658C120.249 128.708 125.133 140.961 135.171 147.924C135.459 148.122 135.531 148.526 135.333 148.814C135.261 148.94 135.135 149.021 135 149.066Z" fill="white"/>
</g>
<path d="M142.817 50.3653L166.303 245.636C166.654 248.56 164.639 251.187 161.815 251.466L63.9759 262.207C57.9852 262.576 54.7021 259.517 54.3333 256.404L29.669 48.7999C29.3002 45.7052 32.2415 42.8984 38.2592 42.8984L136.988 44.9766C139.849 45.0305 142.466 47.4505 142.817 50.3653Z" fill="url(#paint1_linear)"/>
<path d="M147.224 50.0247L170.845 246.276C171.196 249.218 169.172 251.854 166.339 252.142L64.902 262.235C61.7178 262.55 58.8034 260.247 58.4346 257.125L33.6354 48.4414C33.2666 45.3287 35.6053 42.8277 38.8165 42.8817L141.369 44.609C144.238 44.663 146.864 47.1009 147.224 50.0247Z" fill="url(#paint2_linear)"/>
<path d="M145.3 60.8466L167.194 242.803C167.526 245.556 165.628 248.012 162.975 248.273L67.5739 257.557C64.6145 257.845 61.9071 255.695 61.5652 252.78L38.646 60.01C38.3042 57.1132 40.472 54.7652 43.4583 54.8012L139.831 55.8267C142.511 55.8537 144.967 58.1118 145.3 60.8466Z" fill="url(#paint3_linear)"/>
<path d="M94.1449 49.885C94.2708 50.9286 93.5242 51.7652 92.4718 51.7562C91.4194 51.7472 90.4659 50.8836 90.34 49.84C90.214 48.7965 90.9696 47.9598 92.022 47.9688C93.0655 47.9868 94.0189 48.8415 94.1449 49.885Z" fill="url(#paint4_linear)"/>
<g opacity="0.5">
<path opacity="0.5" d="M128.802 182.996C109.274 146.885 80.1035 136.072 71.3154 98.8547C66.5661 78.7393 69.8043 59.4875 75.2552 43.5013L38.8165 42.8895C35.6053 42.8356 33.2666 45.3365 33.6354 48.4492L58.4346 257.124C58.8034 260.255 61.7178 262.558 64.902 262.234L144.634 254.29C145.227 221.94 137.51 199.09 128.802 182.996Z" fill="white"/>
</g>
<g opacity="0.8">
<g opacity="0.8">
<path opacity="0.8" d="M134.119 158.107C134.012 157.063 133.175 156.19 132.248 156.217L77.6578 157.675C76.6774 157.702 75.9758 158.646 76.0927 159.708L76.7223 165.663C76.8393 166.734 77.7208 167.571 78.6922 167.544L133.22 165.843C134.146 165.816 134.812 164.944 134.704 163.909L134.119 158.107Z" fill="white"/>
<path opacity="0.8" d="M130.063 170.872C129.955 169.828 129.118 169 128.183 169.036L84.8899 170.449C83.9184 170.485 83.2168 171.375 83.3338 172.437L86.3291 200.919C86.437 201.98 87.3185 202.799 88.281 202.754L131.412 200.703C132.339 200.658 133.004 199.776 132.905 198.742L130.063 170.872ZM117.434 192.516C117.569 193.857 116.705 194.9 115.491 194.954L103.276 195.494C102.052 195.548 100.946 194.585 100.811 193.236L99.3898 179.589C99.2459 178.239 100.127 177.034 101.351 176.989L113.593 176.548C114.807 176.503 115.896 177.628 116.04 178.968L117.434 192.516Z" fill="white"/>
<g opacity="0.8">
<path opacity="0.8" d="M106.99 192.817C106.549 192.835 106.1 192.673 105.722 192.314L102.142 188.904C101.395 188.193 101.269 186.997 101.863 186.232C102.457 185.467 103.545 185.422 104.292 186.133L106.522 188.256L112.054 181.095C112.639 180.331 113.718 180.295 114.456 181.005C115.194 181.716 115.319 182.904 114.735 183.668L108.141 192.215C107.845 192.592 107.422 192.79 106.99 192.817Z" fill="white"/>
</g>
</g>
<path opacity="0.8" d="M132.581 99.2676H65.1002C60.5037 99.2676 56.9867 102.992 57.4904 107.724L59.4423 125.977C59.946 130.7 64.2636 134.56 68.8421 134.488L136.035 133.408C140.316 133.336 143.465 129.567 143.006 125.024L141.234 107.418C140.766 102.866 136.88 99.2676 132.581 99.2676Z" fill="white"/>
</g>
<path d="M67.5742 54.212C67.5742 69.3706 55.359 82.469 40.2564 83.4856C25.0908 84.5021 12.7677 72.9601 12.7677 57.7116C12.7677 42.463 25.0998 29.3466 40.2564 28.429C55.359 27.5024 67.5742 39.0535 67.5742 54.212Z" fill="#417465"/>
<path d="M70.8122 55.1847C70.8122 70.3432 58.597 83.4417 43.4944 84.4582C28.3288 85.4748 16.0056 73.9327 16.0056 58.6842C16.0056 43.4357 28.3378 30.3193 43.4944 29.4017C58.606 28.4751 70.8122 40.0262 70.8122 55.1847Z" fill="url(#paint5_linear)"/>
<path d="M42.5231 71.8208C41.3357 71.9018 40.2293 71.344 39.6177 70.3544L29.2824 53.7655C28.311 52.2092 28.8327 50.0771 30.4428 49.0065C32.0529 47.936 34.1397 48.3228 35.1112 49.8791L42.2802 61.3942L51.734 42.1334C52.5795 40.4062 54.6214 39.6145 56.2854 40.3612C57.9495 41.1079 58.6151 43.114 57.7696 44.8413L45.5544 69.7607C44.9967 70.9032 43.8813 71.6859 42.649 71.8118C42.604 71.8118 42.5681 71.8208 42.5231 71.8208Z" fill="white"/>
<g clip-path="url(#clip0)">
<path d="M168.609 96.3579L170.058 96.9107C176.154 99.7886 182.757 100.757 189.199 100.115C209.447 98.0978 224.362 79.8812 222.344 59.634C221.381 49.9707 216.53 40.927 208.94 34.7123C201.349 28.4975 191.756 25.5034 181.863 26.4892C161.616 28.5067 146.7 46.7233 148.971 67.1778C149.659 74.0801 152.394 80.5464 156.418 85.9542L157.476 87.2432L155.148 101.185L168.609 96.3579Z" fill="#00E676"/>
<path d="M212.484 30.6395C203.859 23.3663 192.609 20.0721 181.565 21.1726C158.097 23.5111 141.133 44.4879 143.679 67.7031C144.412 75.0658 147.194 81.9923 151.287 88.0904L147.483 110.544L169.228 102.568C175.784 105.401 182.846 106.324 189.749 105.636C212.988 103.32 229.951 82.3432 227.636 59.1053C226.512 47.8311 221.086 37.6828 212.484 30.6395L212.484 30.6395ZM189.269 98.4805C183.056 99.0995 176.684 98.1082 171.071 95.4143L169.622 94.8615L156.621 99.6424L158.765 86.1841L157.707 84.8951C145.956 69.5682 148.632 47.4585 164.189 35.684C179.747 23.9098 201.626 26.6095 213.4 42.1666C225.174 57.7237 222.475 79.6028 206.918 91.3773C201.97 95.3557 195.711 97.8382 189.269 98.4801L189.269 98.4805ZM206.971 70.9241L204.325 70.0258C204.325 70.0258 200.484 68.782 198.068 67.8608C197.838 67.8837 197.585 67.6764 197.355 67.6994C196.665 67.7681 196.227 68.0442 195.79 68.3203C195.79 68.3203 195.583 68.5731 192.729 72.5754C192.545 73.0585 192.107 73.3346 191.647 73.3804L191.417 73.4034C191.187 73.4263 190.704 73.2419 190.451 73.0349L189.255 72.6894C186.609 71.7912 184.171 70.6397 182.147 68.9826C181.641 68.5683 180.904 68.177 180.398 67.7627C178.627 66.3126 176.833 64.6323 175.477 62.6761L175.201 62.239C174.948 62.0316 174.925 61.8017 174.649 61.3646C174.603 60.9044 174.557 60.4443 174.765 60.1911C174.765 60.1911 175.57 58.949 176.191 58.1902C176.606 57.6838 176.767 56.9709 177.181 56.4649C177.573 55.7287 177.711 54.7855 177.412 54.1181C177.068 52.9905 173.688 47.0535 172.86 45.7418C172.331 45.0974 171.848 44.9133 171.135 44.7519L168.604 45.004C168.143 45.0499 167.707 45.326 167.246 45.3719L167.039 45.6247C166.602 45.9008 166.187 46.4067 165.75 46.6825C165.336 47.1888 165.151 47.6715 164.737 48.1778C163.333 50.4091 162.665 53.0316 162.917 55.5625C163.1 57.403 163.744 59.198 164.595 60.7398L164.894 61.4072C167.4 65.5722 170.551 69.2087 174.576 72.293L175.588 73.1215C176.347 73.7431 177.083 74.1344 177.612 74.7786C182.857 78.4389 188.677 80.8797 195.049 81.8713C195.763 82.0324 196.683 81.9407 197.396 82.1021L199.697 81.8729C200.847 81.7583 202.182 81.1606 203.056 80.6087C203.701 80.0798 204.161 80.034 204.575 79.528L204.99 79.0217C205.404 78.5157 205.841 78.2399 206.255 77.734C206.67 77.228 207.084 76.722 207.268 76.2386C207.637 75.2725 207.752 74.0991 207.868 72.926L207.707 71.3154C207.707 71.3154 207.454 71.1081 206.971 70.9241Z" fill="white"/>
</g>
<path d="M184.553 97.3399C172.116 98.0364 168.706 109.157 169.585 111.132C169.699 111.394 169.495 111.681 169.21 111.673C167.753 111.615 164.612 111.845 163.26 114.647C162.072 117.122 163.765 118.818 165.018 119.671C165.32 119.876 165.214 120.351 164.848 120.384C162.251 120.646 156.741 121.826 157.009 127.21C157.262 132.233 160.908 132.831 162.976 132.758C163.326 132.749 163.505 133.167 163.26 133.421C162.414 134.282 161.567 135.847 162.609 138.314C164.245 142.182 172.026 140.051 172.93 139.789C172.987 139.772 173.036 139.74 173.084 139.699L184.032 129.595C184.113 129.513 184.162 129.406 184.154 129.283L183.356 113.934C183.348 113.811 183.283 113.697 183.185 113.631L188.752 100.102C191.626 98.9706 184.699 97.3317 184.553 97.3399Z" fill="url(#paint6_linear)"/>
<path d="M207.448 139.494C207.448 139.494 199.887 148.615 192.269 141.207L189.33 148.074C189.33 148.074 200.449 156.744 208.881 143.1L207.448 139.494Z" fill="url(#paint7_linear)"/>
<path d="M188.777 122.563C186.677 121.932 180.564 120.761 174.753 126.161C173.768 127.079 173.361 128.472 173.719 129.775C175.282 135.56 179.4 152.663 175.787 160.062C175.787 160.062 182.151 167.126 189.094 161.431C189.094 161.431 192.212 147.762 196.289 141.755C199.105 137.609 191.796 126.194 189.949 123.44C189.664 123.022 189.257 122.711 188.777 122.563Z" fill="url(#paint8_linear)"/>
<path d="M185.521 111.533C185.521 111.533 181.289 119.884 180.54 123.719C180.54 123.719 183.739 125.735 187.287 123.53C187.287 123.53 188.777 114.819 189.477 113.32L185.521 111.533Z" fill="url(#paint9_linear)"/>
<path d="M197.201 190.137C197.177 190.76 198.259 195.685 198.845 198.307C199.081 199.364 198.919 200.47 198.381 201.413L177.984 235.978C177.74 236.396 177.561 236.847 177.447 237.322C177.073 238.945 176.299 242.919 176.706 246.533L177.765 248.737L173.198 247.696L172.205 235.355L173.5 234.56C174.615 233.872 175.486 232.848 175.982 231.635C177.83 227.12 182.404 215.639 183.592 210.042C184.935 203.683 191.951 198.512 191.951 198.512L190.722 195.578L197.201 190.137Z" fill="url(#paint10_linear)"/>
<path d="M168.119 243.452C168.119 243.452 170.586 239.519 170.871 237.986C171.164 236.454 171.969 233.749 173.491 234.561C173.491 234.561 174.208 242.002 173.963 244.911C173.719 247.82 177.227 247.722 177.227 247.722C177.227 247.722 178.196 247.861 178.904 248.574C179.392 249.066 179.042 249.918 178.35 249.967C177.203 250.041 175.38 250.057 173.459 249.688C172.791 249.557 172.295 248.984 172.254 248.295L171.75 239.732L168.64 243.682L168.119 243.452Z" fill="url(#paint11_linear)"/>
<path d="M185.008 195.645C185.008 195.645 184.292 226.564 184.195 230.956C184.097 235.349 184.886 245.084 189.257 247.993L187.353 249.411C187.353 249.411 184.976 247.378 182.648 243.461C180.035 239.061 179.246 238.258 179.246 238.258L180.109 236.471C180.491 235.693 180.597 234.808 180.426 233.955C179.482 229.35 176.332 214.034 175.469 210.74C174.452 206.847 174.379 201.643 177.911 197.292C181.452 192.941 185.008 195.645 185.008 195.645Z" fill="url(#paint12_linear)"/>
<path d="M180.971 250.803C180.833 250.803 180.719 250.705 180.703 250.574C180.556 249.541 179.954 245.411 179.457 244.338C178.888 243.108 177.032 237.954 179.457 237.52C179.457 237.52 185.48 246.386 186.636 247.574C187.792 248.771 189.249 247.992 189.249 247.992C189.249 247.992 190.372 248.328 191.227 249.418C191.634 249.943 191.251 250.705 190.6 250.713L186.539 250.754C185.358 250.762 184.3 250.041 183.861 248.943C183.145 247.148 181.915 244.51 180.491 243.346L181.232 250.508C181.256 250.664 181.134 250.803 180.971 250.803Z" fill="url(#paint13_linear)"/>
<path d="M190.055 158.095C190.055 158.095 189.143 161.029 190.543 165.864L199.26 196.512C199.399 196.996 199.138 197.495 198.674 197.667C196.07 198.61 187.499 201.273 175.795 200.462C175.209 200.421 174.712 200.003 174.582 199.421C173.809 195.93 171.18 184.007 170.643 181.557C168.575 172.223 166.581 163.348 176.715 157.268C181.387 159.275 185.432 159.275 190.055 158.095Z" fill="url(#paint14_linear)"/>
<path d="M179.539 130.348C179.539 130.348 177.781 155.588 193.986 142.91C193.986 142.91 196.379 140.632 198.104 140.362C199.032 140.214 200.082 140.116 200.856 140.05C201.206 140.026 201.368 140.477 201.083 140.681C200.53 141.075 199.797 141.501 199.163 141.566C197.942 141.698 199.244 142.599 197.909 144.951C196.582 147.311 194.678 146.418 194.678 146.418C194.678 146.418 176.12 165.552 172.409 132.175C172.287 125.972 178.22 126.3 179.539 130.348Z" fill="url(#paint15_linear)"/>
<path d="M212.422 133.218L206.911 132.488C206.252 132.382 205.576 132.767 205.169 133.48L201.547 141.552C200.864 142.756 201.352 144.354 202.451 144.543L206.879 145.116C207.302 145.19 207.733 144.92 207.977 144.436L212.877 134.586C213.162 134.012 212.926 133.3 212.422 133.218Z" fill="url(#paint16_linear)"/>
<path d="M208.661 144.099C208.661 144.099 212.364 138.666 211.933 138.002C211.501 137.33 208.254 136.38 207.489 136.15C206.732 135.921 205.299 140.846 208.661 144.099Z" fill="url(#paint17_linear)"/>
<path d="M193.009 103.985C193.009 103.985 194.841 107.583 193.327 113.328C191.821 119.072 188.793 119.76 186.775 118.498C184.748 117.236 182.086 114.909 181.443 109.837C180.809 104.756 190.519 99.4454 193.009 103.985Z" fill="url(#paint18_linear)"/>
<path d="M185.196 109.255C185.196 109.255 188.085 101.421 193.449 105.838L193.962 107.772C193.962 107.772 198.691 106.076 196.827 101.782C194.963 97.4875 190.12 95.6437 185.147 98.8314C180.174 102.019 177.52 104.723 178.058 108.706C178.595 112.689 181.484 111.132 181.484 111.132C181.484 111.132 181.867 108.149 183.234 107.534C184.602 106.92 184.715 109.149 184.715 109.149L185.196 109.255Z" fill="url(#paint19_linear)"/>
<path d="M183.657 110.581C183.657 110.581 185.163 106.566 182.697 106.582C180.223 106.598 181.476 110.442 182.062 111.835L183.657 110.581Z" fill="url(#paint20_linear)"/>
<defs>
<linearGradient id="paint0_linear" x1="180.383" y1="44.2989" x2="121.808" y2="195.723" gradientUnits="userSpaceOnUse">
<stop stop-color="#417465"/>
<stop offset="1" stop-color="#2A5446"/>
</linearGradient>
<linearGradient id="paint1_linear" x1="96.7782" y1="147.519" x2="58.2203" y2="151.725" gradientUnits="userSpaceOnUse">
<stop stop-color="#66738F"/>
<stop offset="0.9964" stop-color="#363636"/>
</linearGradient>
<linearGradient id="paint2_linear" x1="130.751" y1="50.3149" x2="35.3859" y2="374.936" gradientUnits="userSpaceOnUse">
<stop stop-color="#66738F"/>
<stop offset="0.9964" stop-color="#363636"/>
</linearGradient>
<linearGradient id="paint3_linear" x1="32.2899" y1="141.757" x2="128.148" y2="161.903" gradientUnits="userSpaceOnUse">
<stop offset="0.00359712" stop-color="#86D0C1"/>
<stop offset="1" stop-color="#4BAC99"/>
</linearGradient>
<linearGradient id="paint4_linear" x1="95.024" y1="42.3143" x2="-17.0545" y2="345.822" gradientUnits="userSpaceOnUse">
<stop stop-color="#2A5446"/>
<stop offset="1" stop-color="#417465"/>
</linearGradient>
<linearGradient id="paint5_linear" x1="16.0019" y1="56.9285" x2="70.8137" y2="56.9285" gradientUnits="userSpaceOnUse">
<stop stop-color="#86D0C1"/>
<stop offset="0.9964" stop-color="#4BAC99"/>
</linearGradient>
<linearGradient id="paint6_linear" x1="163.734" y1="92.0903" x2="178.249" y2="125.08" gradientUnits="userSpaceOnUse">
<stop stop-color="#363636"/>
<stop offset="1" stop-color="#2D2D2D"/>
</linearGradient>
<linearGradient id="paint7_linear" x1="203.308" y1="129.947" x2="196.493" y2="154.992" gradientUnits="userSpaceOnUse">
<stop stop-color="#FEBBBA"/>
<stop offset="1" stop-color="#FF928E"/>
</linearGradient>
<linearGradient id="paint8_linear" x1="324.59" y1="32.3116" x2="276.57" y2="69.316" gradientUnits="userSpaceOnUse">
<stop stop-color="#4BAC99"/>
<stop offset="1" stop-color="#F08585"/>
</linearGradient>
<linearGradient id="paint9_linear" x1="188.174" y1="129.163" x2="184.677" y2="117.557" gradientUnits="userSpaceOnUse">
<stop stop-color="#FEBBBA"/>
<stop offset="1" stop-color="#FF928E"/>
</linearGradient>
<linearGradient id="paint10_linear" x1="160.163" y1="265.909" x2="197.396" y2="199.159" gradientUnits="userSpaceOnUse">
<stop stop-color="#FEBBBA"/>
<stop offset="1" stop-color="#FF928E"/>
</linearGradient>
<linearGradient id="paint11_linear" x1="168.111" y1="242.282" x2="179.066" y2="242.179" gradientUnits="userSpaceOnUse">
<stop stop-color="#363636"/>
<stop offset="1" stop-color="#2D2D2D"/>
</linearGradient>
<linearGradient id="paint12_linear" x1="202.17" y1="216.231" x2="146.217" y2="234.585" gradientUnits="userSpaceOnUse">
<stop stop-color="#FEBBBA"/>
<stop offset="1" stop-color="#FF928E"/>
</linearGradient>
<linearGradient id="paint13_linear" x1="178.286" y1="244.178" x2="191.345" y2="244.055" gradientUnits="userSpaceOnUse">
<stop stop-color="#363636"/>
<stop offset="1" stop-color="#2D2D2D"/>
</linearGradient>
<linearGradient id="paint14_linear" x1="326.689" y1="30.6967" x2="144.208" y2="220.179" gradientUnits="userSpaceOnUse">
<stop stop-color="#F4F9F8"/>
<stop offset="1" stop-color="#EFEFEF"/>
</linearGradient>
<linearGradient id="paint15_linear" x1="190.373" y1="139.641" x2="219.19" y2="139.641" gradientUnits="userSpaceOnUse">
<stop stop-color="#FEBBBA"/>
<stop offset="1" stop-color="#FF928E"/>
</linearGradient>
<linearGradient id="paint16_linear" x1="204.804" y1="134.013" x2="210.056" y2="140.021" gradientUnits="userSpaceOnUse">
<stop stop-color="#363636"/>
<stop offset="1" stop-color="#2D2D2D"/>
</linearGradient>
<linearGradient id="paint17_linear" x1="210.743" y1="132.598" x2="207.152" y2="145.796" gradientUnits="userSpaceOnUse">
<stop stop-color="#FEBBBA"/>
<stop offset="1" stop-color="#FF928E"/>
</linearGradient>
<linearGradient id="paint18_linear" x1="194.722" y1="111.208" x2="173.133" y2="109.024" gradientUnits="userSpaceOnUse">
<stop stop-color="#FEBBBA"/>
<stop offset="1" stop-color="#FF928E"/>
</linearGradient>
<linearGradient id="paint19_linear" x1="194.924" y1="92.213" x2="177.245" y2="123.599" gradientUnits="userSpaceOnUse">
<stop stop-color="#363636"/>
<stop offset="1" stop-color="#2D2D2D"/>
</linearGradient>
<linearGradient id="paint20_linear" x1="194.532" y1="110.448" x2="172.944" y2="108.263" gradientUnits="userSpaceOnUse">
<stop stop-color="#FEBBBA"/>
<stop offset="1" stop-color="#FF928E"/>
</linearGradient>
<clipPath id="clip0">
<rect width="84.8571" height="85.8516" fill="white" transform="translate(139 25.4141) rotate(-5.69048)"/>
</clipPath>
</defs>
</svg>
