<svg width="188" height="136" viewBox="0 0 188 136" fill="none" xmlns="http://www.w3.org/2000/svg">
<path d="M173.506 135.745H5.50738L5.37125 135.583C5.29413 135.491 -2.25807 126.288 5.34524 115.338C12.9262 104.423 14.4083 100.077 10.3937 90.3121C9.69443 88.6125 8.8061 86.7727 7.8662 84.8255C3.13649 75.0279 -2.74963 62.8343 8.04739 53.4404C8.90738 52.6919 9.74507 51.9662 10.5628 51.2586C21.5837 41.7132 28.8651 35.408 31.6523 24.1533C32.7938 19.5458 35.2832 12.9521 40.6633 7.70622C45.734 2.76233 52.0913 0.25531 59.5603 0.25531C65.374 0.25531 71.8148 1.81453 78.7045 4.89023C99.0483 13.9701 106.235 16.61 114.66 16.61C117.463 16.61 120.448 16.3331 124.359 15.9419C125.925 15.7853 127.531 15.7058 129.129 15.7058C139.372 15.7058 148.257 18.8489 153.507 24.3294C157.665 28.6693 159.623 34.378 159.326 41.2964C159.148 45.4593 158.865 48.9875 158.615 52.1004C157.601 64.7447 157.222 69.4758 166.661 77.6274C180.344 89.4461 189.363 110.864 173.641 135.535L173.506 135.745ZM5.94086 134.835H173.007C188.231 110.742 179.422 89.8521 166.066 78.3164C156.277 69.8633 156.695 64.6411 157.707 52.0275C157.956 48.9225 158.238 45.4036 158.416 41.2565C158.702 34.5968 156.828 29.113 152.849 24.959C147.769 19.6569 139.124 16.6165 129.129 16.6165C127.56 16.6165 125.986 16.6945 124.449 16.8483C120.511 17.2418 117.505 17.5206 114.66 17.5206C106.067 17.5206 98.8141 14.863 78.3333 5.72188C71.5607 2.69915 65.2448 1.16641 59.5603 1.16641C54.569 1.16641 37.8692 2.83992 32.5364 24.3722C29.6795 35.907 22.3118 42.2884 11.1593 51.9471C10.3426 52.6538 9.50487 53.38 8.64534 54.128C-1.62667 63.0652 4.09219 74.9117 8.68716 84.4301C9.63356 86.3899 10.5275 88.2413 11.2365 89.9669C15.6196 100.628 13.4401 105.28 6.09418 115.858C-0.574797 125.461 5.00607 133.597 5.94086 134.835Z" fill="#E0FEF8"/>
<path d="M9.00668 135.29C9.00668 135.29 1.80014 126.727 9.00668 116.349C16.2141 105.971 17.9439 101.677 13.9078 91.8609C9.87177 82.0437 -0.643231 67.4857 11.5327 56.8908C23.7092 46.2959 31.463 40.2532 34.3752 28.4954C38.1775 13.1433 51.9021 -1.84675 79.03 10.2609C106.158 22.3691 108.752 22.3686 123.166 20.9274C137.58 19.4862 157.184 24.6851 156.319 44.8598C155.454 65.0345 151.994 70.1976 163.526 80.1574C175.058 90.1163 186.012 110.411 170.156 135.29H9.00668Z" fill="#E0FEF8"/>
<path d="M122.552 64.6854L132.396 131.212H175.137L187.667 78.6092C188.473 75.2221 187.808 71.6104 185.686 68.8478C183.729 66.3006 180.803 64.6824 177.53 64.6824H122.552V64.6854Z" fill="#23668A"/>
<path d="M166.871 76.3941L161.253 131.369H175.137L187.67 78.606C188.473 75.222 187.809 71.6103 185.689 68.8508C183.733 66.3035 180.807 64.6853 177.534 64.6853C174.589 64.6853 171.925 65.9989 169.996 68.1155C168.068 70.2351 166.874 73.1608 166.874 76.3941H166.871Z" fill="#3280A0"/>
<path d="M113.867 78.5938L126.404 131.369H140.287L134.67 76.3941C134.67 69.9276 129.895 64.6854 124.007 64.6854C121.063 64.6854 118.399 65.999 116.47 68.1156C116.147 68.4693 115.846 68.8447 115.569 69.2415C113.664 71.9457 113.104 75.3758 113.871 78.5938H113.867Z" fill="#23668A"/>
<path d="M117.851 38.9393C117.928 38.9393 118.008 38.927 118.088 38.9023C118.491 38.7731 118.716 38.3394 118.583 37.9333C115.753 29.1379 115.513 22.5882 117.882 18.995C119.186 17.0169 121.346 15.8725 124.293 15.5987C124.715 15.5587 125.025 15.1834 124.988 14.7619C124.948 14.3374 124.573 14.0297 124.152 14.0666C120.715 14.3897 118.174 15.7617 116.599 18.149C113.926 22.2006 114.101 29.0179 117.119 38.404C117.224 38.7301 117.525 38.9362 117.851 38.9362V38.9393Z" fill="#08213C"/>
<path d="M117.977 53.0383C117.977 53.0383 117.989 53.0383 117.995 53.0383C118.42 53.0291 118.755 52.6753 118.746 52.2508C118.697 50.1188 122.265 47.9469 124.397 46.6517C124.933 46.3256 125.391 46.0457 125.766 45.7934C126.117 45.5535 126.209 45.0766 125.969 44.7259C125.73 44.3752 125.253 44.2829 124.902 44.5229C124.56 44.7567 124.114 45.0274 123.598 45.3412C121.026 46.9071 117.137 49.2728 117.208 52.2907C117.217 52.7091 117.559 53.0414 117.977 53.0414V53.0383Z" fill="#08213C"/>
<path d="M108.272 117.083C110.416 117.083 112.561 116.261 114.191 114.615C117.434 111.345 117.409 106.069 114.142 102.827L99.2336 88.0446C95.9634 84.8021 90.6874 84.8267 87.4448 88.0938C84.2023 91.364 84.2269 96.64 87.4941 99.8825L102.402 114.665C104.027 116.277 106.149 117.08 108.272 117.08V117.083Z" fill="#8DCABE"/>
<path d="M92.0351 99.8763C93.8963 99.8763 95.7544 99.1626 97.1696 97.7383C99.9814 94.9018 99.9599 90.3241 97.1265 87.5154L95.2284 85.6326C92.3919 82.8208 87.8143 82.8424 85.0055 85.6757C82.1937 88.5122 82.2152 93.0898 85.0486 95.8986L86.9467 97.7813C88.3557 99.178 90.1985 99.8763 92.0351 99.8763Z" fill="white"/>
<path d="M124.653 45.2273H127.21C132.04 45.2273 135.959 41.3111 135.959 36.4781C135.959 31.6451 132.043 27.7288 127.21 27.7288H124.653C119.823 27.7288 115.904 31.6451 115.904 36.4781C115.904 41.3111 119.82 45.2273 124.653 45.2273Z" fill="#2D2D2D"/>
<path d="M134.245 51.6631C134.245 55.5486 135.821 59.0649 138.365 61.6122C140.912 64.1564 144.428 65.7315 148.314 65.7315H164.259C164.557 65.7315 164.856 65.7222 165.148 65.7038C172.503 65.2454 178.327 59.1357 178.327 51.6631C178.327 47.7776 176.752 44.2613 174.205 41.7141C171.857 39.3668 168.68 37.844 165.148 37.6225C164.856 37.604 164.557 37.5948 164.259 37.5948H148.314C140.543 37.5948 134.245 43.8922 134.245 51.6631Z" fill="#23668A"/>
<path d="M151.969 51.6632C151.969 55.5487 153.544 59.065 156.088 61.6122C158.438 63.9595 161.616 65.4823 165.148 65.7038C172.503 65.2454 178.327 59.1357 178.327 51.6632C178.327 47.7777 176.752 44.2614 174.205 41.7141C171.857 39.3668 168.68 37.844 165.148 37.6225C157.792 38.0809 151.969 44.1906 151.969 51.6632Z" fill="#3280A0"/>
<path d="M108.265 117.086C111.163 117.086 113.981 115.572 115.516 112.874L132.646 82.7901C134.922 78.7908 133.529 73.6994 129.526 71.4228C125.527 69.1463 120.435 70.5399 118.159 74.5423L101.03 104.626C98.75 108.626 100.147 113.717 104.149 115.994C105.45 116.735 106.869 117.086 108.265 117.086Z" fill="#8DCABE"/>
<path d="M116.071 85.642L113.908 118.353C113.889 118.615 113.88 118.876 113.871 119.138C113.779 122.174 114.329 125.112 115.409 127.795C115.874 128.964 116.446 130.084 117.098 131.142L150.751 133.366C153.406 130.13 155.113 126.057 155.411 121.562L157.5 89.9643C157.894 84.0115 155.839 78.4617 152.194 74.3055C148.554 70.1462 143.321 67.3774 137.371 66.9837C126.336 66.2546 116.8 74.607 116.071 85.642Z" fill="#021027"/>
<path d="M124.399 127.542C125.343 127.542 126.303 127.379 127.241 127.041L154.086 117.295C157.086 116.206 159.202 113.499 159.531 110.324L160.888 97.2891C161.365 92.7114 158.039 88.6137 153.462 88.1368C148.884 87.6631 144.783 90.9856 144.306 95.5663L143.491 103.411L121.553 111.376C117.225 112.948 114.991 117.729 116.563 122.054C117.794 125.441 120.99 127.549 124.399 127.549V127.542Z" fill="#8DCABE"/>
<path d="M129.192 73.2441C129.81 73.2441 130.435 73.0841 131.004 72.7457L135.178 70.2815C136.877 69.2786 137.443 67.0882 136.437 65.39C135.434 63.6919 133.243 63.1258 131.545 64.1318L127.371 66.596C125.672 67.5989 125.106 69.7893 126.112 71.4875C126.78 72.6165 127.971 73.2441 129.192 73.2441Z" fill="white"/>
<path d="M152.608 104.762C156.826 104.762 160.444 101.575 160.89 97.2892L161.471 91.6932C161.948 87.1156 158.622 83.0147 154.042 82.541C149.461 82.0641 145.363 85.3897 144.886 89.9705L144.305 95.5664C143.828 100.144 147.154 104.245 151.731 104.719C152.024 104.749 152.316 104.765 152.605 104.765L152.608 104.762Z" fill="white"/>
<path d="M153.19 99.1658C157.408 99.1658 161.026 95.9787 161.472 91.6932L162.576 81.0674C163.053 76.4897 159.728 72.3889 155.15 71.912C150.566 71.4383 146.472 74.7608 145.995 79.3385L144.89 89.9643C144.413 94.542 147.739 98.6428 152.317 99.1197C152.609 99.1504 152.901 99.1658 153.19 99.1658Z" fill="#8DCABE"/>
<path d="M146.019 50.2357V64.6147C146.019 67.9311 144.084 70.7921 141.278 72.1396C140.183 72.6625 138.959 72.9579 137.667 72.9579C133.061 72.9579 129.32 69.2201 129.32 64.6116V50.2326C129.32 45.6211 133.058 41.8863 137.667 41.8863C138.959 41.8863 140.183 42.1817 141.278 42.7046C142.137 43.1138 142.909 43.6676 143.573 44.329C145.084 45.8395 146.016 47.9253 146.016 50.2295L146.019 50.2357Z" fill="#F4A9B2"/>
<path d="M146.019 50.6511V65.0302C146.019 68.3465 144.084 71.2076 141.278 72.555C138.473 71.2106 136.535 68.3434 136.535 65.0302V50.6511C136.535 47.3317 138.473 44.4676 141.278 43.1263C142.137 43.5354 142.909 44.0892 143.573 44.7506C145.084 46.2611 146.016 48.3469 146.016 50.6511H146.019Z" fill="#F4818A"/>
<path d="M138.461 76.0805C139.079 76.0805 139.704 75.9205 140.273 75.5821L147.358 71.3982C149.056 70.3953 149.622 68.2049 148.616 66.5068C147.613 64.8086 145.423 64.2426 143.725 65.2485L136.64 69.4324C134.942 70.4353 134.376 72.6257 135.382 74.3239C136.049 75.4529 137.24 76.0805 138.461 76.0805Z" fill="white"/>
<path d="M118.506 128.576C119.325 128.576 120.158 128.434 120.974 128.139L125.967 126.327C129.72 124.964 131.658 120.817 130.295 117.064C128.932 113.311 124.785 111.373 121.032 112.736L116.039 114.548C112.286 115.91 110.348 120.057 111.711 123.811C112.778 126.749 115.553 128.576 118.506 128.576Z" fill="white"/>
<path d="M153.735 40.5296V44.049C153.744 53.6228 145.992 61.3876 136.421 61.3937C134.997 61.3937 133.616 61.2245 132.29 60.9015C124.709 59.0526 119.08 52.223 119.073 44.0736V40.5543C119.064 32.408 124.685 25.5661 132.262 23.7079C133.585 23.3818 134.966 23.2096 136.39 23.2096C141.177 23.2065 145.509 25.1477 148.644 28.2794C151.785 31.4174 153.726 35.7459 153.729 40.5327L153.735 40.5296Z" fill="#F4818A"/>
<path d="M145.478 40.5358V44.0552C145.487 52.2046 139.866 59.0434 132.289 60.9015C124.709 59.0526 119.079 52.223 119.073 44.0737V40.5543C119.064 32.408 124.684 25.5661 132.262 23.708C135.39 24.474 138.19 26.086 140.389 28.2856C143.53 31.4236 145.472 35.752 145.475 40.5389L145.478 40.5358Z" fill="#F4A9B2"/>
<path d="M136.402 51.4232C136.402 53.832 134.449 55.7855 132.04 55.7855C129.631 55.7855 127.678 53.832 127.678 51.4232H136.405H136.402Z" fill="white"/>
<path d="M93.4677 90.6964C94.0246 90.0935 94.4952 89.392 94.8675 88.6045C94.9844 88.3584 95.0921 88.103 95.1905 87.8415C95.369 87.3493 95.5105 86.8479 95.6058 86.3341L85.5829 70.6568C85.5706 70.5984 85.5583 70.5399 85.546 70.4845C85.5183 70.4692 85.4845 70.4568 85.4507 70.4476C79.9901 68.5372 74.6248 70.4999 72.8159 75.4221C72.6344 75.9174 72.4898 76.4343 72.3944 76.9542C72.1053 78.4462 72.1545 80.0183 72.499 81.5749C73.3789 85.5988 76.2153 89.5336 80.2731 91.7855C84.2293 93.9851 88.3948 94.0497 91.4158 92.3361C92.1849 91.9055 92.8771 91.3579 93.4739 90.6995L93.4677 90.6964Z" fill="#F4818A"/>
<path d="M137.541 39.5207H138.494C143.62 39.5207 147.776 35.3645 147.776 30.2392C147.776 25.1139 143.62 20.9577 138.494 20.9577H137.541C132.415 20.9577 128.259 25.1139 128.259 30.2392C128.259 35.3645 132.415 39.5207 137.541 39.5207Z" fill="#2D2D2D"/>
<path d="M149.785 47.15H151.754C155.005 47.15 157.642 44.5136 157.642 41.2618C157.642 38.0101 155.005 35.3736 151.754 35.3736H149.785C146.533 35.3736 143.896 38.0101 143.896 41.2618C143.896 44.5136 146.533 47.15 149.785 47.15Z" fill="#2D2D2D"/>
<path d="M100.54 127.893H118.513C122.97 127.893 125.601 122.808 122.946 119.227C122.927 119.199 122.906 119.175 122.887 119.147C121.983 117.956 120.783 117.009 119.402 116.32C117.405 115.32 115.027 114.865 112.597 115.003C110.449 115.123 108.262 115.705 106.272 116.781C105.589 117.147 104.964 117.557 104.392 118.003C100.983 120.633 99.525 124.466 100.543 127.893H100.54Z" fill="#F4A9B2"/>
<path d="M143.93 42.3017H147.034C151.575 42.3017 155.258 38.6192 155.258 34.0785C155.258 29.5377 151.575 25.8553 147.034 25.8553H143.93C139.39 25.8553 135.707 29.5377 135.707 34.0785C135.707 38.6192 139.39 42.3017 143.93 42.3017Z" fill="#2D2D2D"/>
<path d="M147.587 37.69L147.966 38.6451L140.422 41.6378L140.043 40.6827L147.587 37.69Z" fill="white"/>
<path d="M149.548 49.4852C147.096 50.3373 144.416 49.0391 143.564 46.5841L142.103 42.3725C141.251 39.9207 142.549 37.2411 145.004 36.389C147.456 35.5368 150.135 36.835 150.987 39.29L152.449 43.5016C153.301 45.9535 152.003 48.633 149.548 49.4852Z" fill="#F4A9B2"/>
<path d="M125.308 39.1946H130.04C136.408 39.1946 141.57 34.0324 141.57 27.6643C141.57 21.2962 136.408 16.1371 130.043 16.1371H125.311C118.943 16.1371 113.781 21.2992 113.781 27.6674C113.781 34.0355 118.943 39.1977 125.311 39.1977L125.308 39.1946Z" fill="#2D2D2D"/>
<path d="M133.311 32.2573C133.311 34.5277 134.23 36.5827 135.719 38.0717C136.144 38.4962 136.612 38.8716 137.119 39.1946C136.452 38.0071 136.073 36.6412 136.073 35.183C136.073 30.6422 139.756 26.9598 144.296 26.9598H147.4C149.025 26.9598 150.541 27.4305 151.815 28.2457C151.446 27.5812 150.984 26.9752 150.452 26.4429C148.963 24.954 146.908 24.0341 144.638 24.0341H141.534C136.993 24.0341 133.311 27.7166 133.311 32.2573Z" fill="#2D2D2D"/>
<path d="M135.707 34.0785C135.707 36.3488 136.626 38.4039 138.115 39.8928C138.54 40.3174 139.008 40.6927 139.515 41.0157C138.848 39.8282 138.469 38.4623 138.469 37.0041C138.469 32.4634 142.152 28.7809 146.692 28.7809H149.796C151.421 28.7809 152.937 29.2516 154.211 30.0669C153.842 29.4023 153.38 28.7963 152.848 28.2641C151.359 26.7751 149.304 25.8553 147.034 25.8553H143.93C139.389 25.8553 135.707 29.5377 135.707 34.0785Z" fill="#474747"/>
<path d="M151.754 36.5396C152.151 36.5396 152.486 36.2351 152.52 35.8321C153.231 27.1105 147.801 18.9027 139.313 15.8694C134.769 14.2481 129.244 13.5898 124.152 14.0666C123.731 14.1066 123.42 14.4819 123.457 14.9034C123.497 15.3248 123.873 15.6356 124.294 15.5986C129.099 15.1495 134.52 15.7925 138.796 17.3183C146.629 20.1179 151.64 27.6766 150.985 35.7059C150.951 36.1305 151.265 36.4996 151.689 36.5335C151.711 36.5335 151.732 36.5335 151.754 36.5335V36.5396Z" fill="#08213C"/>
<path d="M128.632 57.333C128.681 57.333 128.733 57.333 128.785 57.3269C129.665 57.2561 130.333 57.2346 130.951 57.2592C131.976 57.293 132.831 56.5086 132.871 55.4903C132.914 54.472 132.12 53.6106 131.102 53.5706C130.324 53.5398 129.518 53.5614 128.481 53.6475C127.466 53.7306 126.709 54.6227 126.792 55.6379C126.872 56.6039 127.678 57.333 128.628 57.333H128.632Z" fill="#08213C"/>
<path d="M124.143 56.5947C125.235 56.5947 126.318 56.487 127.367 56.3793C127.81 56.3363 128.253 56.2901 128.699 56.2532C129.124 56.2194 129.437 55.8471 129.404 55.4226C129.37 54.998 128.997 54.6843 128.573 54.7181C128.121 54.755 127.665 54.8012 127.213 54.8473C126.118 54.9581 125.084 55.0626 124.032 55.0534C122.765 55.0442 119.731 54.8288 118.935 53.0507C118.815 52.78 118.753 52.5185 118.747 52.2508C118.738 51.8263 118.384 51.4787 117.959 51.5002C117.535 51.5094 117.199 51.8632 117.209 52.2877C117.221 52.7584 117.329 53.226 117.532 53.6813C118.648 56.1825 122.079 56.5793 124.02 56.5947C124.06 56.5947 124.1 56.5947 124.143 56.5947Z" fill="#08213C"/>
<path d="M131.302 44.7073C131.302 44.9288 131.339 45.1411 131.41 45.3411C131.671 44.5751 132.397 44.0275 133.25 44.0275C134.102 44.0275 134.828 44.5751 135.089 45.3411C135.16 45.1442 135.197 44.9319 135.197 44.7073C135.197 43.6306 134.323 42.76 133.25 42.76C132.176 42.76 131.302 43.6337 131.302 44.7073Z" fill="#08213C"/>
<path d="M119.888 44.7075C119.888 44.929 119.925 45.1412 119.996 45.3412C120.257 44.5752 120.983 44.0276 121.835 44.0276C122.688 44.0276 123.414 44.5752 123.675 45.3412C123.746 45.1443 123.783 44.932 123.783 44.7075C123.783 43.6307 122.909 42.7601 121.835 42.7601C120.762 42.7601 119.888 43.6338 119.888 44.7075Z" fill="#08213C"/>
<path d="M150.987 51.0571C154.581 51.0571 157.497 48.1438 157.497 44.5475V42.2033C157.497 38.61 154.584 35.6936 150.987 35.6936C147.391 35.6936 144.478 38.607 144.478 42.2033V44.5475C144.478 48.1407 147.391 51.0571 150.987 51.0571Z" fill="#08213C"/>
<path d="M152.516 49.0022C155.552 49.0022 158.017 46.538 158.017 43.5016V41.5204C158.017 38.484 155.552 36.0198 152.516 36.0198C149.48 36.0198 147.015 38.484 147.015 41.5204V43.5016C147.015 46.538 149.48 49.0022 152.516 49.0022Z" fill="#021027"/>
<path d="M153.421 45.695C155.239 45.695 156.713 44.2214 156.713 42.4002V41.2127C156.713 39.3945 155.239 37.9209 153.421 37.9209C151.603 37.9209 150.129 39.3945 150.129 41.2127V42.4002C150.129 44.2183 151.603 45.695 153.421 45.695Z" fill="#08213C"/>
<path d="M116.907 27.6642C116.907 30.0545 117.876 32.2203 119.442 33.7862C121.011 35.3521 123.174 36.3211 125.564 36.3211H129.117C129.597 36.3211 130.068 36.2811 130.526 36.2073C128.699 35.9089 127.065 35.0383 125.81 33.7862C124.244 32.2203 123.275 30.0545 123.275 27.6642C123.275 23.3634 126.413 19.7948 130.526 19.121C130.068 19.0472 129.597 19.0072 129.117 19.0072H125.564C120.783 19.0072 116.907 22.8835 116.907 27.6642Z" fill="#474747"/>
<path d="M134.246 47.6608C137.83 47.6608 140.746 44.7444 140.746 41.1604V40.6467H127.745V41.1604C127.745 44.7444 130.662 47.6608 134.246 47.6608ZM139.697 41.6742C139.439 44.4522 137.092 46.6333 134.246 46.6333C131.4 46.6333 129.056 44.4522 128.795 41.6742H139.694H139.697Z" fill="white"/>
<path d="M121.254 47.6608C124.838 47.6608 127.755 44.7444 127.755 41.1604V40.6467H114.754V41.1604C114.754 44.7444 117.67 47.6608 121.254 47.6608ZM126.706 41.6742C126.447 44.4522 124.1 46.6333 121.254 46.6333C118.409 46.6333 116.064 44.4522 115.803 41.6742H126.702H126.706Z" fill="white"/>
<path d="M136.716 100.812C139.636 101.47 142.002 99.6394 142.002 96.7199V90.8286C137.215 91.93 133.692 90.3303 131.431 87.6384V94.3357C131.431 97.2552 133.797 100.156 136.716 100.815V100.812Z" fill="#08213C"/>
<path d="M171.184 134.938H180.884C181.988 134.938 182.883 134.043 182.883 132.938C182.883 131.834 181.988 130.939 180.884 130.939H171.184C170.079 130.939 169.184 131.834 169.184 132.938C169.184 134.043 170.079 134.938 171.184 134.938Z" fill="#112C45"/>
<path d="M3.34831 134.938H171.184C172.288 134.938 173.184 134.043 173.184 132.938C173.184 131.834 172.288 130.939 171.184 130.939H3.34831C2.24388 130.939 1.34865 131.834 1.34865 132.938C1.34865 134.043 2.24388 134.938 3.34831 134.938Z" fill="#112C45"/>
<path d="M95.8247 127.149C96.6646 127.149 97.5014 126.807 98.1074 126.136L102.737 121.017L108.001 121.436C109.696 121.571 111.176 120.307 111.311 118.612C111.447 116.917 110.182 115.437 108.487 115.301L101.716 114.763C100.762 114.689 99.8302 115.058 99.1903 115.766L93.5451 122.008C92.4069 123.269 92.5022 125.214 93.7636 126.352C94.3511 126.884 95.0895 127.146 95.8278 127.146L95.8247 127.149Z" fill="#F4A9B2"/>
<path d="M102.685 126.746C103.472 126.746 104.263 126.444 104.863 125.841L108.308 122.383L113.661 122.808C115.353 122.943 116.836 121.679 116.971 119.984C117.107 118.289 115.842 116.809 114.147 116.673L107.376 116.135C106.475 116.067 105.592 116.39 104.955 117.03L100.506 121.494C99.3067 122.697 99.3098 124.644 100.513 125.844C101.113 126.444 101.9 126.742 102.685 126.742V126.746Z" fill="#F4A9B2"/>
<path d="M84.1718 64.6148H99.8983C101.013 64.6148 101.916 65.5183 101.916 66.6329V86.9002C101.916 88.0147 101.013 88.9183 99.8983 88.9183H84.1718C83.0572 88.9183 82.1536 88.0147 82.1536 86.9002V66.6329C82.1536 65.5183 83.0572 64.6148 84.1718 64.6148Z" fill="#F7D45C"/>
<path d="M84.3621 64.6147H89.8258C91.0457 64.6147 92.0346 65.6037 92.0346 66.8236V86.7094C92.0346 87.9293 91.0457 88.9182 89.8258 88.9182H84.3621C83.1422 88.9182 82.1533 87.9293 82.1533 86.7094V66.8236C82.1533 65.6037 83.1422 64.6147 84.3621 64.6147Z" fill="#F6B95E"/>
<path d="M85.39 85.6511C86.2391 85.6511 86.9282 84.9619 86.9282 84.1129C86.9282 83.2638 86.2391 82.5747 85.39 82.5747C82.1875 82.5747 79.5849 79.969 79.5849 76.7695C79.5849 73.5701 82.1906 70.9644 85.39 70.9644C86.2391 70.9644 86.9282 70.2753 86.9282 69.4262C86.9282 68.5771 86.2391 67.888 85.39 67.888C80.4924 67.888 76.5085 71.8719 76.5085 76.7695C76.5085 81.6671 80.4924 85.6511 85.39 85.6511Z" fill="#F7D45C"/>
<path d="M89.4653 82.3182C86.4026 80.8978 85.0713 77.2636 86.4916 74.2009C87.912 71.1383 91.5462 69.8069 94.6089 71.2272C97.6715 72.6476 99.0029 76.2818 97.5826 79.3445C96.1622 82.4071 92.528 83.7385 89.4653 82.3182Z" fill="#FFE890"/>
<path d="M73.2227 82.6577C74.3395 82.6577 75.4162 82.0486 75.9638 80.9842L79.3509 74.3792C80.1262 72.8687 79.5293 71.0136 78.0188 70.2384C76.5083 69.4631 74.6533 70.0599 73.878 71.5704L70.4909 78.1754C69.7157 79.686 70.3125 81.541 71.823 82.3163C72.2721 82.547 72.7521 82.6547 73.2258 82.6547L73.2227 82.6577Z" fill="#F4818A"/>
<path d="M84.8053 75.6837C86.3927 75.6837 87.7401 74.4623 87.8693 72.8503C88.0047 71.1583 86.7403 69.6755 85.0452 69.5401L78.2741 69.0017C76.5851 68.8664 75.0992 70.1308 74.9639 71.8259C74.8285 73.5179 76.0929 75.0007 77.788 75.1361L84.5592 75.6744C84.6422 75.6806 84.7253 75.6837 84.8053 75.6837Z" fill="#F4A9B2"/>
<path d="M73.5703 87.4293C74.6871 87.4293 75.7638 86.8202 76.3114 85.7558L79.6985 79.1507C80.4738 77.6402 79.8769 75.7852 78.3664 75.0099C76.8559 74.2347 75.0009 74.8315 74.2256 76.342L70.8385 82.947C70.0632 84.4575 70.6601 86.3126 72.1706 87.0878C72.6197 87.3186 73.0996 87.4262 73.5734 87.4262L73.5703 87.4293Z" fill="#F4818A"/>
<path d="M83.9094 80.3814C85.4968 80.3814 86.8443 79.16 86.9735 77.548C87.1088 75.8529 85.8444 74.3732 84.1493 74.2378L77.3782 73.6994C75.6831 73.5641 74.2034 74.8285 74.068 76.5236C73.9326 78.2187 75.197 79.6984 76.8921 79.8338L83.6633 80.3721C83.7463 80.3783 83.8294 80.3814 83.9094 80.3814Z" fill="#F4A9B2"/>
<path d="M74.169 89.9396C75.0089 89.9396 75.8457 89.5981 76.4517 88.9275L81.4293 83.4208C82.5676 82.1594 82.4722 80.2152 81.2109 79.0769C79.9496 77.9386 78.0053 78.034 76.867 79.2953L71.8894 84.8021C70.7512 86.0634 70.8465 88.0077 72.1079 89.1459C72.6955 89.6781 73.4338 89.9396 74.169 89.9396Z" fill="#F4818A"/>
<path d="M85.9246 84.9746C87.512 84.9746 88.8595 83.7532 88.9887 82.1412C89.124 80.4461 87.8597 78.9664 86.1646 78.831L79.3934 78.2926C77.6983 78.1573 76.2186 79.4217 76.0832 81.1168C75.9479 82.8119 77.2123 84.2916 78.9074 84.427L85.6785 84.9653C85.7615 84.9715 85.8446 84.9746 85.9246 84.9746Z" fill="#F4A9B2"/>
<path d="M27.5659 122.168H86.9065C88.6631 122.168 89.8567 120.384 89.183 118.759L71.103 75.1576C70.2386 73.0718 68.2051 71.7151 65.947 71.7151H6.18191C4.62833 71.7151 3.57313 73.2933 4.16687 74.73L22.4068 118.725C23.2713 120.811 25.3048 122.168 27.5628 122.168H27.5659Z" fill="white"/>
<path d="M23.5668 126.167H82.9073C84.6639 126.167 85.8576 124.383 85.1838 122.759L67.1039 79.1569C66.2394 77.0711 64.2059 75.7144 61.9478 75.7144H2.18276C0.629181 75.7144 -0.426018 77.2926 0.167725 78.7292L18.4076 122.725C19.2721 124.811 21.3056 126.167 23.5637 126.167H23.5668Z" fill="#3280A0"/>
<path d="M39.5131 107.118C36.24 104.691 34.8933 100.962 36.5052 98.7873C38.117 96.6131 42.077 96.8174 45.35 99.2437C48.6231 101.67 49.9698 105.4 48.3579 107.574C46.7461 109.748 42.7861 109.544 39.5131 107.118Z" fill="#4EA8C3"/>
<path d="M83.8275 131.089H117.36C118.714 131.089 119.821 129.982 119.821 128.628C119.821 127.275 118.714 126.167 117.36 126.167H83.8275C82.4739 126.167 81.3663 127.275 81.3663 128.628C81.3663 129.982 82.4739 131.089 83.8275 131.089Z" fill="#3280A0"/>
<path d="M23.5299 131.089H84.1348C85.4884 131.089 86.5959 129.982 86.5959 128.628C86.5959 127.275 85.4884 126.167 84.1348 126.167H23.5299C22.1762 126.167 21.0687 127.275 21.0687 128.628C21.0687 129.982 22.1762 131.089 23.5299 131.089Z" fill="#23668A"/>
<path d="M107.976 129.551H115.667C116.091 129.551 116.436 129.207 116.436 128.782C116.436 128.358 116.091 128.013 115.667 128.013H107.976C107.551 128.013 107.207 128.358 107.207 128.782C107.207 129.207 107.551 129.551 107.976 129.551Z" fill="#4EA8C3"/>
<path d="M92.5944 129.551H94.1326C94.5571 129.551 94.9017 129.207 94.9017 128.782C94.9017 128.358 94.5571 128.013 94.1326 128.013H92.5944C92.1698 128.013 91.8253 128.358 91.8253 128.782C91.8253 129.207 92.1698 129.551 92.5944 129.551Z" fill="#4EA8C3"/>
<path d="M89.8255 129.551H90.1332C90.5577 129.551 90.9023 129.207 90.9023 128.782C90.9023 128.358 90.5577 128.013 90.1332 128.013H89.8255C89.401 128.013 89.0564 128.358 89.0564 128.782C89.0564 129.207 89.401 129.551 89.8255 129.551Z" fill="#4EA8C3"/>
<path d="M28.2978 129.551H28.9131C29.3377 129.551 29.6822 129.207 29.6822 128.782C29.6822 128.358 29.3377 128.013 28.9131 128.013H28.2978C27.8733 128.013 27.5287 128.358 27.5287 128.782C27.5287 129.207 27.8733 129.551 28.2978 129.551Z" fill="#3280A0"/>
<path d="M24.9137 129.551H25.529C25.9535 129.551 26.2981 129.207 26.2981 128.782C26.2981 128.358 25.9535 128.013 25.529 128.013H24.9137C24.4892 128.013 24.1446 128.358 24.1446 128.782C24.1446 129.207 24.4892 129.551 24.9137 129.551Z" fill="#3280A0"/>
<path d="M80.7193 128.515C80.3795 128.515 80.104 128.239 80.104 127.899C80.104 127.559 80.3795 127.284 80.7193 127.284C81.0591 127.284 81.3346 127.559 81.3346 127.899C81.3346 128.239 81.0591 128.515 80.7193 128.515Z" fill="#3280A0"/>
<path d="M79.4882 130.207C79.1483 130.207 78.8729 129.931 78.8729 129.591C78.8729 129.251 79.1483 128.976 79.4882 128.976C79.828 128.976 80.1034 129.251 80.1034 129.591C80.1034 129.931 79.828 130.207 79.4882 130.207Z" fill="#3280A0"/>
<path d="M76.8493 130.207C76.5095 130.207 76.2341 129.931 76.2341 129.591C76.2341 129.251 76.5095 128.976 76.8493 128.976C77.1891 128.976 77.4646 129.251 77.4646 129.591C77.4646 129.931 77.1891 130.207 76.8493 130.207Z" fill="#3280A0"/>
<path d="M74.2067 130.207C73.8669 130.207 73.5914 129.931 73.5914 129.591C73.5914 129.251 73.8669 128.976 74.2067 128.976C74.5465 128.976 74.8219 129.251 74.8219 129.591C74.8219 129.931 74.5465 130.207 74.2067 130.207Z" fill="#3280A0"/>
<path d="M78.169 128.514C77.8292 128.514 77.5537 128.239 77.5537 127.899C77.5537 127.559 77.8292 127.284 78.169 127.284C78.5088 127.284 78.7843 127.559 78.7843 127.899C78.7843 128.239 78.5088 128.514 78.169 128.514Z" fill="#3280A0"/>
<path d="M75.6189 128.514C75.2791 128.514 75.0036 128.239 75.0036 127.899C75.0036 127.559 75.2791 127.284 75.6189 127.284C75.9587 127.284 76.2341 127.559 76.2341 127.899C76.2341 128.239 75.9587 128.514 75.6189 128.514Z" fill="#3280A0"/>
<path d="M73.0654 128.514C72.7256 128.514 72.4501 128.239 72.4501 127.899C72.4501 127.559 72.7256 127.284 73.0654 127.284C73.4052 127.284 73.6807 127.559 73.6807 127.899C73.6807 128.239 73.4052 128.514 73.0654 128.514Z" fill="#3280A0"/>
<path d="M108.816 127.533C109.739 127.533 110.653 127.118 111.259 126.327L113.372 123.571L118.476 123.977C120.171 124.112 121.651 122.848 121.786 121.153C121.922 119.458 120.657 117.978 118.962 117.843L112.191 117.304C111.151 117.224 110.139 117.67 109.505 118.498L106.374 122.58C105.34 123.928 105.595 125.86 106.943 126.893C107.5 127.321 108.161 127.53 108.813 127.53L108.816 127.533Z" fill="#F4A9B2"/>
<path d="M24.045 48.3342V47.9365L25.2755 46.6616C25.4069 46.5231 25.5152 46.4018 25.6004 46.2977C25.6868 46.1923 25.7514 46.0923 25.794 45.9976C25.8366 45.9029 25.8579 45.8023 25.8579 45.6957C25.8579 45.575 25.8295 45.4708 25.7727 45.3832C25.7158 45.2945 25.6383 45.2264 25.5401 45.179C25.4418 45.1305 25.3311 45.1062 25.208 45.1062C25.0778 45.1062 24.9642 45.1329 24.8671 45.1861C24.7701 45.2394 24.6955 45.3146 24.6434 45.4116C24.5913 45.5087 24.5653 45.6223 24.5653 45.7526H24.0415C24.0415 45.5312 24.0924 45.3377 24.1942 45.1719C24.296 45.0062 24.4357 44.8778 24.6132 44.7866C24.7908 44.6943 24.9926 44.6481 25.2187 44.6481C25.4471 44.6481 25.6484 44.6937 25.8224 44.7849C25.9976 44.8748 26.1343 44.9979 26.2325 45.1542C26.3308 45.3093 26.3799 45.4844 26.3799 45.6798C26.3799 45.8147 26.3545 45.9467 26.3036 46.0757C26.2538 46.2047 26.1668 46.3486 26.0426 46.5072C25.9183 46.6646 25.7454 46.8558 25.5241 47.0807L24.8014 47.8371V47.8637H26.4385V48.3342H24.045ZM26.957 47.624V47.1801L28.5283 44.6979H28.8781V45.3513H28.6562L27.5323 47.1304V47.1588H29.686V47.624H26.957ZM28.681 48.3342V47.4891L28.6846 47.2866V44.6979H29.2048V48.3342H28.681ZM31.6968 44.5274L30.525 48.8811H30.0509L31.2228 44.5274H31.6968ZM32.2633 48.3342L33.8506 45.195V45.1684H32.0147V44.6979H34.4188V45.1844L32.8368 48.3342H32.2633Z" fill="#8DCABE"/>
<path d="M37.6571 46.3025C37.5776 49.9561 35.3164 53.0617 31.8496 54.2312C28.3825 55.4021 24.5658 53.9158 22.4896 51.007C20.3632 48.0288 20.663 43.9209 22.8648 41.0927C25.265 38.0097 29.5765 37.2341 33.0351 38.8545C32.1212 39.1803 31.2081 39.5065 30.295 39.8323C29.8729 39.9831 30.055 40.6599 30.4814 40.5076C31.6015 40.1079 32.7208 39.7074 33.8412 39.3081C34.024 39.2427 34.1339 39.0733 34.0856 38.8779C33.797 37.7159 33.508 36.5539 33.2201 35.3918C33.1112 34.9539 32.4362 35.14 32.5454 35.5783C32.7587 36.4383 32.9719 37.2983 33.1859 38.1583C29.3926 36.4818 25.0744 37.4068 22.3703 40.5986C19.7974 43.6356 19.7525 48.0953 21.8848 51.361C24.0595 54.6911 28.2989 55.9924 32.0361 54.9065C35.8253 53.8058 38.2734 50.1496 38.3574 46.3032C38.367 45.8504 37.6672 45.8519 37.6571 46.3025Z" fill="#8DCABE"/>
<path d="M82.2517 14.8554H61.4018C58.8749 14.8554 56.827 16.9038 56.827 19.4307V34.1953C56.827 36.7217 58.8749 38.7701 61.4018 38.7701H71.5796L77.4079 43.0384V38.7701H82.2517C84.7781 38.7701 86.827 36.7217 86.827 34.1953V19.4307C86.8265 16.9038 84.7781 14.8554 82.2517 14.8554Z" fill="#78CEBD"/>
<path d="M72.5783 20.6856C72.5783 21.0719 72.2657 21.3845 71.8794 21.3845H61.2045C60.8182 21.3845 60.506 21.0719 60.506 20.6856C60.506 20.2993 60.8187 19.9866 61.2045 19.9866H71.8799C72.2657 19.9866 72.5783 20.2993 72.5783 20.6856Z" fill="#C1F1E8"/>
<path d="M84.0159 24.4977C84.0159 24.884 83.7033 25.1966 83.317 25.1966H61.2046C60.8183 25.1966 60.5061 24.884 60.5061 24.4977C60.5061 24.1114 60.8188 23.7987 61.2046 23.7987H83.3175C83.7033 23.7987 84.0159 24.1119 84.0159 24.4977Z" fill="#C1F1E8"/>
<path d="M84.0159 28.3104C84.0159 28.6967 83.7033 29.0089 83.317 29.0089H61.2046C60.8183 29.0089 60.5061 28.6962 60.5061 28.3104C60.5061 27.9241 60.8188 27.6115 61.2046 27.6115H83.3175C83.7033 27.6115 84.0159 27.9241 84.0159 28.3104Z" fill="#C1F1E8"/>
<path d="M80.2037 32.1231C80.2037 32.5094 79.8906 32.8221 79.5048 32.8221H61.2046C60.8183 32.8221 60.5061 32.5094 60.5061 32.1231C60.5061 31.7368 60.8188 31.4242 61.2046 31.4242H79.5048C79.8906 31.4242 80.2037 31.7368 80.2037 32.1231Z" fill="#C1F1E8"/>
<path opacity="0.1" d="M82.2517 14.8554H81.8773C82.0688 27.1967 72.425 34.783 65.0463 38.7701H71.5792L77.4075 42.5727V38.7701H82.2512C84.7776 38.7701 86.8265 36.7217 86.8265 34.1953V19.4307C86.8265 16.9038 84.7781 14.8554 82.2517 14.8554Z" fill="#114068"/>
</svg>
