<svg width="312" height="312" viewBox="0 0 312 312" fill="none" xmlns="http://www.w3.org/2000/svg">
<path opacity="0.1" d="M296.779 210.69C266.895 281.268 187.287 320.802 118.254 310.138C107.023 308.4 76.2279 303.23 48.9548 278.85C-3.52513 231.894 -14.7454 138.931 27.5918 73.4117C58.4087 25.7321 113.655 -1.30012 166.135 0.0481431C177.444 0.337853 220.77 2.13183 258.852 33.6322C264.44 38.2565 276.783 49.2543 287.903 66.6926C314.009 107.642 316.254 164.693 296.779 210.69Z" fill="url(#paint0_linear_2505_5969)"/>
<path d="M9.82816 33.8877C9.37268 32.4837 11.0057 31.3249 12.1944 32.2052C24.1924 41.1862 53.7096 68.7867 53.2763 122.974C52.732 190.955 69.4291 213.831 88.4481 226.779C88.4481 226.779 63.8523 222.478 46.0553 199.357C2.37387 142.596 17.9046 58.8919 9.82816 33.8877Z" fill="url(#paint1_linear_2505_5969)"/>
<path d="M20.4507 53.8884C22.6503 61.198 24.7055 68.5522 26.4941 75.9621C28.316 83.3609 29.9157 90.8265 31.2822 98.3144C32.6153 105.813 33.8151 113.335 34.6927 120.901C35.6036 128.455 36.1924 136.055 36.7479 143.676C37.3478 151.287 37.9144 158.964 39.2697 166.608C40.6139 174.23 42.8802 181.818 46.4685 188.771C47.3683 190.498 48.2904 192.225 49.3124 193.874C50.3011 195.546 51.3676 197.173 52.4674 198.777C54.6782 201.975 57.1 205.039 59.7329 207.903C65.0208 213.619 71.1753 218.522 77.7964 222.522C78.4963 222.946 79.3962 222.712 79.8183 222.021C80.2293 221.33 80.0183 220.45 79.3517 220.015C77.7742 219.001 76.1967 217.965 74.6858 216.862C73.9193 216.327 73.175 215.747 72.4196 215.201C71.6864 214.622 70.9309 214.065 70.2199 213.452C67.3316 211.079 64.6098 208.494 62.0991 205.73C57.0444 200.226 52.7896 193.941 49.3568 187.311C47.6794 183.98 46.2463 180.525 45.0798 176.971C43.9244 173.416 43.0246 169.773 42.3469 166.062C40.9805 158.652 40.3584 151.064 39.7029 143.454C39.0364 135.843 38.3143 128.199 37.27 120.6C36.759 116.8 36.1813 113.001 35.5481 109.223C35.237 107.329 34.8927 105.446 34.5483 103.563C34.1817 101.68 33.8151 99.7964 33.4262 97.9244C31.8598 90.4254 30.0713 82.9709 28.0494 75.5833C25.9942 68.2068 23.739 60.886 21.2061 53.6656C21.1283 53.4539 20.9062 53.3536 20.7062 53.4204C20.4951 53.465 20.3951 53.6879 20.4507 53.8884Z" fill="white"/>
<path d="M51.4327 256.609C50.5884 259.205 47.389 260.085 45.3227 258.325C33.8913 248.597 4.07416 218.167 5.17397 166.286C6.10715 122.473 2.46332 98.6276 0.0637352 87.9195C-0.447288 85.6575 2.23003 84.053 3.97418 85.5795C23.2709 102.338 81.8386 162.72 51.4327 256.609Z" fill="url(#paint2_linear_2505_5969)"/>
<path d="M47.7547 256.753C47.6992 256.798 47.6437 256.831 47.577 256.854C47.0438 257.099 46.4105 256.865 46.1772 256.33C45.8995 255.728 18.7042 195.001 17.26 134.028C17.2489 133.437 17.7043 132.958 18.2931 132.936C18.8819 132.925 19.3596 133.381 19.3818 133.972C20.8149 194.499 47.8325 254.837 48.1102 255.45C48.3213 255.918 48.1658 256.464 47.7547 256.753Z" fill="white"/>
<path d="M290.869 264.865C290.869 267.517 288.703 269.69 286.059 269.69H25.6699C23.026 269.69 20.8597 267.517 20.8597 264.865L18.6934 114.773C18.6934 112.121 21.815 106.94 27.5252 107.33L282.004 100.722C285.326 100.633 288.536 101.914 290.891 104.277C293.246 106.628 294.535 109.848 294.457 113.18L290.869 264.865Z" fill="url(#paint3_linear_2505_5969)"/>
<path d="M286.116 260.23C286.116 262.748 284.061 264.799 281.561 264.799H31.9485C29.4378 264.799 27.3937 262.737 27.3937 260.23L25.3496 123.977C25.594 115.776 32.7595 112.834 37.1032 113.002L280.995 106.439C283.328 106.372 285.583 107.274 287.238 108.934C288.893 110.584 289.804 112.857 289.738 115.197L286.116 260.23Z" fill="url(#paint4_linear_2505_5969)"/>
<path d="M30.0899 195.203C29.8899 195.203 29.7233 195.036 29.7233 194.835L29.5566 183.781C29.5566 183.581 29.7122 183.414 29.9232 183.402C30.1121 183.391 30.2898 183.558 30.301 183.77L30.4676 194.824C30.4676 195.036 30.301 195.203 30.0899 195.203C30.101 195.203 30.0899 195.203 30.0899 195.203Z" fill="white"/>
<path d="M29.7026 168.125C29.5026 168.125 29.336 167.958 29.336 167.757L28.7139 125.437C28.725 122.607 29.5915 120.356 31.2912 118.718C34.3796 115.743 39.2232 115.899 39.4231 115.899L117.31 113.804C117.51 113.804 117.688 113.96 117.688 114.161C117.688 114.361 117.532 114.528 117.332 114.54L39.4231 116.634C39.201 116.623 34.6684 116.49 31.8022 119.242C30.2469 120.735 29.4582 122.807 29.4471 125.426L30.0692 167.735C30.0692 167.958 29.9026 168.125 29.7026 168.125Z" fill="white"/>
<path opacity="0.37" d="M38.3887 252.675C38.6553 241.41 38.5553 141.694 37.911 133.081C37.2666 124.467 50.6421 122.852 71.1719 121.882C91.7018 120.913 264.939 117.08 269.394 116.712C279.414 115.899 281.492 130.93 280.492 163.556C279.736 188.07 278.492 228.451 277.914 247.026C277.748 252.553 273.237 256.943 267.716 256.954C226.034 257.065 66.2617 257.533 55.6191 257.845C43.3878 258.224 38.2887 257.143 38.3887 252.675Z" fill="white"/>
<path d="M311.166 277.346H5.85175C5.39627 277.346 5.01855 276.967 5.01855 276.51V265C5.01855 264.543 5.39627 264.164 5.85175 264.164H311.166C311.622 264.164 311.999 264.543 311.999 265V276.51C311.999 276.978 311.622 277.346 311.166 277.346Z" fill="url(#paint5_linear_2505_5969)"/>
<path d="M231.133 20.2051L66.3394 19.1911C60.9181 19.1577 56.5966 23.6928 56.8633 29.1192L68.2058 263.963H251.597L261.784 54.1458L231.133 20.2051Z" fill="url(#paint6_linear_2505_5969)"/>
<path d="M237.988 53.1321C232.622 52.9427 228.489 48.3072 228.912 42.9363L230.678 20.5056L261.795 54.0013L237.988 53.1321Z" fill="url(#paint7_linear_2505_5969)"/>
<path opacity="0.82" d="M167.642 141.638H88.656C88.0672 141.638 87.6006 141.159 87.6006 140.58V130.261C87.6006 129.671 88.0783 129.203 88.656 129.203H167.642C168.231 129.203 168.698 129.682 168.698 130.261V140.58C168.698 141.17 168.231 141.638 167.642 141.638Z" fill="#8DCABE"/>
<path opacity="0.43" d="M227.554 142.062H200.281C199.692 142.062 199.226 141.583 199.226 141.003V130.685C199.226 130.094 199.703 129.626 200.281 129.626H227.554C228.143 129.626 228.61 130.105 228.61 130.685V141.003C228.61 141.583 228.132 142.062 227.554 142.062Z" fill="#8DCABE"/>
<path opacity="0.43" d="M227.121 167.078H199.848C199.26 167.078 198.793 166.598 198.793 166.019V155.701C198.793 155.11 199.271 154.642 199.848 154.642H227.121C227.71 154.642 228.177 155.121 228.177 155.701V166.019C228.177 166.598 227.699 167.078 227.121 167.078Z" fill="#8DCABE"/>
<path opacity="0.43" d="M227.021 190.777H199.748C199.159 190.777 198.692 190.298 198.692 189.718V179.4C198.692 178.81 199.17 178.342 199.748 178.342H227.021C227.61 178.342 228.076 178.821 228.076 179.4V189.718C228.076 190.298 227.61 190.777 227.021 190.777Z" fill="#8DCABE"/>
<path opacity="0.43" d="M226.588 215.781H199.315C198.726 215.781 198.26 215.302 198.26 214.723V204.404C198.26 203.814 198.737 203.346 199.315 203.346H226.588C227.177 203.346 227.644 203.825 227.644 204.404V214.723C227.644 215.313 227.177 215.781 226.588 215.781Z" fill="#8DCABE"/>
<path opacity="0.82" d="M157.845 167.478H89.6016C89.0573 167.478 88.624 167.043 88.624 166.497V156.023C88.624 155.477 89.0573 155.042 89.6016 155.042H157.845C158.39 155.042 158.823 155.477 158.823 156.023V166.497C158.823 167.043 158.379 167.478 157.845 167.478Z" fill="#8DCABE"/>
<path opacity="0.82" d="M171.963 191.446H90.1771C89.6994 191.446 89.3105 191.056 89.3105 190.577V179.868C89.3105 179.389 89.6994 178.999 90.1771 178.999H171.963C172.441 178.999 172.83 179.389 172.83 179.868V190.577C172.818 191.067 172.441 191.446 171.963 191.446Z" fill="#8DCABE"/>
<path opacity="0.82" d="M182.04 215.391H92.1334C91.7223 215.391 91.3779 215.057 91.3779 214.633V203.713C91.3779 203.301 91.7112 202.955 92.1334 202.955H182.04C182.451 202.955 182.795 203.29 182.795 203.713V214.633C182.795 215.045 182.451 215.391 182.04 215.391Z" fill="#8DCABE"/>
<path opacity="0.7" d="M224.287 94.6825H93.5311C92.6424 94.6825 91.9092 93.9582 91.9092 93.0557V80.765C91.9092 79.8736 92.6313 79.1382 93.5311 79.1382H224.287C225.175 79.1382 225.908 79.8625 225.908 80.765V93.0668C225.908 93.9582 225.186 94.6825 224.287 94.6825Z" fill="#8DCABE"/>
<path opacity="0.43" d="M80.8474 124.311H236.787L237.098 115.976C237.254 111.82 233.799 108.477 229.489 108.477H88.0018C83.6358 108.477 80.1698 111.898 80.392 116.11L80.8474 124.311Z" fill="#8DCABE"/>
<path opacity="0.77" d="M225.511 232.183H93.8663C89.3115 232.183 85.5566 228.729 85.3233 224.328L79.4576 116.232C79.3354 113.993 80.1242 111.853 81.6906 110.193C83.3125 108.477 85.6122 107.497 88.0006 107.497H229.488C231.854 107.497 234.142 108.455 235.753 110.137C237.309 111.753 238.119 113.87 238.042 116.088L234.065 224.183C233.898 228.662 230.132 232.183 225.511 232.183ZM88.0006 109.38C86.1232 109.38 84.3124 110.149 83.057 111.486C81.8572 112.756 81.2462 114.405 81.3351 116.121L87.2008 224.216C87.3896 227.626 90.3114 230.289 93.8663 230.289H225.511C229.121 230.289 232.054 227.57 232.187 224.105L236.164 116.01C236.231 114.316 235.598 112.689 234.398 111.441C233.131 110.126 231.343 109.38 229.488 109.38H88.0006Z" fill="#8DCABE"/>
<path d="M139.66 63.4942H80.8701C80.1036 63.4942 79.4814 62.8702 79.4814 62.1013V40.1275C79.4814 39.3586 80.1036 38.7346 80.8701 38.7346H139.66C140.427 38.7346 141.049 39.3586 141.049 40.1275V62.1013C141.049 62.8702 140.427 63.4942 139.66 63.4942Z" fill="white"/>
<path d="M190.029 126.751C190.063 155.577 190.307 255.014 192.318 290.192C192.529 293.925 195.584 296.833 199.317 296.866C217.725 296.989 270.682 297.156 300.744 295.106C307.009 294.682 311.853 289.456 311.82 283.161C311.664 252.908 310.864 167.823 306.576 128.946C306.065 124.288 302.31 120.667 297.655 120.321C277.57 118.828 224.235 115.296 198.283 117.658C193.595 118.093 190.018 122.037 190.029 126.751Z" fill="url(#paint8_linear_2505_5969)"/>
<path d="M197.729 135.509C197.329 159.131 196.185 237.698 197.929 266.703C198.185 270.937 201.607 274.28 205.839 274.425C223.258 274.993 267.94 276.096 293.402 273.377C297.99 272.887 301.5 269.065 301.623 264.452C302.3 240.35 304.133 167.165 302.423 138.495C302.156 133.915 298.523 130.272 293.957 129.982C275.094 128.779 226.658 125.993 205.006 127.742C200.951 128.065 197.807 131.419 197.729 135.509Z" fill="url(#paint9_linear_2505_5969)"/>
<path opacity="0.2" d="M200.803 138.283C200.448 160.68 199.404 235.169 201.048 262.658C201.292 266.681 204.481 269.845 208.413 269.979C224.644 270.525 266.248 271.584 289.966 269.032C294.232 268.575 297.498 264.954 297.62 260.564C298.242 237.71 299.909 168.335 298.32 141.147C298.064 136.813 294.676 133.347 290.432 133.069C272.869 131.921 227.743 129.258 207.58 130.907C203.803 131.23 200.87 134.406 200.803 138.283Z" fill="white"/>
<path opacity="0.47" d="M235.387 121.748C235.409 122.628 236.12 123.341 236.998 123.364C241.353 123.475 253.606 123.809 259.083 123.988C260.161 124.021 260.983 123.029 260.75 121.971L260.705 121.793C260.55 121.068 259.928 120.545 259.194 120.489C255.484 120.244 244.308 119.586 236.92 120.043C236.043 120.099 235.365 120.857 235.387 121.748Z" fill="url(#paint10_linear_2505_5969)"/>
<path d="M284.771 159.935C284.771 167.813 279.095 174.198 272.073 174.198L229.803 174.22C222.782 174.22 217.094 167.846 217.083 159.968V159.79C217.083 151.912 222.76 145.527 229.781 145.527L272.051 145.505C279.072 145.505 284.76 151.878 284.771 159.756V159.935Z" fill="url(#paint11_linear_2505_5969)"/>
<path d="M245.256 156.556C245.256 157.949 244.911 159.008 244.211 159.754C243.512 160.501 242.501 160.869 241.179 160.869H240.568V165.615H238.146L238.135 152.534H241.445C243.989 152.534 245.256 153.871 245.256 156.556ZM240.579 158.763H241.045C241.645 158.763 242.079 158.595 242.378 158.272C242.667 157.949 242.812 157.403 242.812 156.657C242.812 155.966 242.678 155.464 242.412 155.13C242.145 154.796 241.734 154.629 241.168 154.64H240.579V158.763Z" fill="white"/>
<path d="M252.712 165.618L251.956 162.319H248.557L247.812 165.618H245.391L248.612 152.48H251.901L255.144 165.618H252.712ZM251.501 160.157L250.801 157.115C250.756 156.926 250.668 156.469 250.523 155.723C250.379 154.976 250.29 154.486 250.256 154.229C250.179 154.742 250.079 155.31 249.968 155.923C249.845 156.536 249.545 157.951 249.046 160.157H251.501Z" fill="white"/>
<path d="M259.121 157.683L260.854 152.524H263.398L260.31 160.369V165.617H257.921V160.469L254.833 152.535H257.388L259.121 157.683Z" fill="white"/>
<path d="M104.469 104.845C115.869 104.845 125.11 95.576 125.11 84.1418C125.11 72.7075 115.869 63.4382 104.469 63.4382C93.0694 63.4382 83.8281 72.7075 83.8281 84.1418C83.8281 95.576 93.0694 104.845 104.469 104.845Z" fill="url(#paint12_linear_2505_5969)"/>
<path d="M104.47 104.154C115.489 104.154 124.422 95.1943 124.422 84.1416C124.422 73.0889 115.489 64.1289 104.47 64.1289C93.4505 64.1289 84.5176 73.0889 84.5176 84.1416C84.5176 95.1943 93.4505 104.154 104.47 104.154Z" fill="url(#paint13_linear_2505_5969)"/>
<path d="M88.017 76.252C87.9504 76.252 87.8837 76.2409 87.817 76.2075C87.606 76.096 87.5171 75.8398 87.6282 75.628C90.861 69.2097 97.3043 65.2317 104.47 65.2317C105.614 65.2317 106.758 65.332 107.869 65.5437C108.102 65.5883 108.258 65.8111 108.213 66.0451C108.169 66.2791 107.947 66.4351 107.714 66.3905C106.647 66.2011 105.558 66.1008 104.47 66.1008C97.6376 66.1008 91.4831 69.9006 88.4058 76.018C88.3281 76.174 88.1725 76.252 88.017 76.252Z" fill="white"/>
<path opacity="0.78" d="M116.843 96.5514C123.437 89.9371 123.437 79.2133 116.843 72.599C110.249 65.9847 99.5571 65.9847 92.9627 72.599C86.3683 79.2133 86.3683 89.9371 92.9627 96.5514C99.5571 103.166 110.249 103.166 116.843 96.5514Z" fill="white"/>
<path d="M103.248 97.1672V95.3287C101.338 95.2507 99.4379 94.7938 98.0937 94.2032C97.616 93.9915 97.3716 93.4566 97.5049 92.9441L97.9715 91.2281C98.1381 90.5929 98.8269 90.2698 99.4268 90.5261C100.76 91.0832 102.415 91.5289 104.182 91.5289C106.026 91.5289 107.403 90.9049 107.403 89.6123C107.403 88.4535 106.337 87.7626 103.782 87.0717C100.127 86.0689 97.4938 84.4643 97.4938 81.2329C97.4938 78.3134 99.6156 76.0848 103.315 75.4942V73.6557C103.315 73.0651 103.793 72.5859 104.382 72.5859H105.459C106.048 72.5859 106.526 73.0651 106.526 73.6557V75.316C108.303 75.3828 109.592 75.6948 110.614 76.0514C111.136 76.2408 111.425 76.798 111.28 77.344L110.847 78.9263C110.68 79.5391 110.025 79.8734 109.436 79.6506C108.492 79.294 107.159 78.9151 105.426 78.9151C103.237 78.9151 102.615 79.8288 102.615 80.6423C102.615 81.6451 103.926 82.336 106.77 83.2163C110.836 84.442 112.525 86.1357 112.525 89.1778C112.525 91.9746 110.458 94.4818 106.459 95.1058V97.1672C106.459 97.7578 105.981 98.237 105.392 98.237H104.315C103.726 98.237 103.248 97.7578 103.248 97.1672Z" fill="url(#paint14_linear_2505_5969)"/>
<path d="M139.247 192.444C182.153 192.444 216.935 157.556 216.935 114.521C216.935 71.4847 182.153 36.5972 139.247 36.5972C96.3415 36.5972 61.5596 71.4847 61.5596 114.521C61.5596 157.556 96.3415 192.444 139.247 192.444Z" fill="url(#paint15_linear_2505_5969)"/>
<path d="M139.25 189.843C180.724 189.843 214.345 156.119 214.345 114.519C214.345 72.9196 180.724 39.1963 139.25 39.1963C97.7757 39.1963 64.1543 72.9196 64.1543 114.519C64.1543 156.119 97.7757 189.843 139.25 189.843Z" fill="url(#paint16_linear_2505_5969)"/>
<path d="M77.3261 84.825C77.0753 84.825 76.8244 84.7831 76.5735 84.6572C75.7791 84.2378 75.4446 83.2732 75.8627 82.4764C88.0301 58.3193 112.281 43.3469 139.25 43.3469C143.557 43.3469 147.864 43.7244 152.045 44.5212C152.923 44.689 153.508 45.5278 153.341 46.4085C153.174 47.2892 152.338 47.8764 151.459 47.7086C147.445 46.9956 143.348 46.6182 139.25 46.6182C113.536 46.6182 90.3716 60.9195 78.7896 83.9443C78.4969 84.5314 77.9115 84.825 77.3261 84.825Z" fill="white"/>
<path opacity="0.78" d="M185.821 161.227C210.64 136.332 210.64 95.9703 185.821 71.0756C161.001 46.181 120.76 46.181 95.9402 71.0757C71.1204 95.9703 71.1204 136.332 95.9402 161.227C120.76 186.122 161.001 186.122 185.821 161.227Z" fill="white"/>
<path d="M169.766 87.4014L112.401 144.766" stroke="#E50914" stroke-width="7" stroke-linecap="round" stroke-linejoin="round"/>
<path d="M169.766 144.766L112.401 87.4014" stroke="#E50914" stroke-width="7" stroke-linecap="round" stroke-linejoin="round"/>
<path d="M273.762 244.452L271.751 292.098L271.44 299.475C271.417 300.433 270.618 301.213 269.662 301.191L175.167 299.43C174.212 299.408 173.434 298.605 173.457 297.647L173.49 290.26L173.679 243.159C173.701 242.201 174.867 240.34 176.934 240.519L269.329 239.839C270.54 239.828 271.695 240.318 272.528 241.187C273.373 242.067 273.817 243.248 273.762 244.452Z" fill="url(#paint17_linear_2505_5969)"/>
<path opacity="0.12" d="M269.163 297.937C269.152 298.84 268.385 299.553 267.463 299.542L177.445 297.87C176.534 297.848 175.79 297.101 175.812 296.21L176.001 245.366C176.012 244.463 177.123 242.736 179.1 242.903L267.119 242.301C268.263 242.29 269.374 242.747 270.174 243.561C270.973 244.374 271.396 245.466 271.351 246.603L269.163 297.937Z" fill="white"/>
<path d="M267.451 300.122C267.44 300.122 267.418 300.122 267.407 300.122L257.331 299.932C257.142 299.932 256.986 299.765 256.986 299.576C256.986 299.386 257.142 299.242 257.342 299.23L267.418 299.42C267.984 299.442 268.573 299.175 269.051 298.718C269.529 298.261 269.806 297.67 269.806 297.102L270.384 266.192C270.384 266.002 270.54 265.857 270.74 265.846C270.928 265.846 271.084 266.013 271.084 266.203L270.506 297.113C270.495 297.86 270.14 298.629 269.54 299.219C268.94 299.799 268.184 300.122 267.451 300.122Z" fill="white"/>
<path d="M175.736 264.777C175.736 264.777 175.724 264.777 175.736 264.777C175.536 264.777 175.38 264.61 175.391 264.42L175.736 245.89C175.769 243.806 177.413 242.068 179.324 242.112L187.334 242.257C187.522 242.257 187.678 242.424 187.678 242.614C187.678 242.803 187.5 242.959 187.322 242.959L179.313 242.814C179.302 242.814 179.279 242.814 179.268 242.814C177.78 242.814 176.458 244.24 176.424 245.901L176.08 264.432C176.08 264.621 175.924 264.777 175.736 264.777Z" fill="white"/>
<path d="M198.507 263.394C198.529 262.424 197.752 261.622 196.796 261.611L185.12 261.388C184.154 261.366 183.354 262.146 183.343 263.104L183.176 272.007C183.154 272.977 183.932 273.779 184.887 273.79L196.563 274.013C197.529 274.035 198.329 273.255 198.34 272.297L198.507 263.394Z" fill="url(#paint18_linear_2505_5969)"/>
<path opacity="0.8" d="M191.874 270.279C191.863 270.279 191.863 270.279 191.852 270.279L188.519 270.213C188.03 270.201 187.652 269.8 187.652 269.31L187.708 266.368C187.708 266.134 187.808 265.911 187.975 265.755C188.141 265.588 188.363 265.51 188.597 265.51L191.929 265.577C192.418 265.588 192.796 265.989 192.796 266.48L192.74 269.421C192.74 269.655 192.64 269.878 192.474 270.034C192.318 270.19 192.107 270.279 191.874 270.279ZM188.597 266.212C188.552 266.212 188.508 266.235 188.474 266.268C188.441 266.301 188.419 266.346 188.419 266.402L188.363 269.343C188.363 269.444 188.441 269.533 188.541 269.533L191.874 269.6C191.929 269.6 191.974 269.577 192.007 269.544C192.041 269.511 192.063 269.466 192.063 269.41L192.118 266.469C192.118 266.368 192.041 266.279 191.941 266.279L188.597 266.212C188.608 266.212 188.608 266.212 188.597 266.212Z" fill="white"/>
<path d="M188.065 267.405C188.053 267.405 188.053 267.405 188.065 267.405L183.265 267.316C183.076 267.316 182.921 267.149 182.921 266.959C182.921 266.77 183.076 266.614 183.276 266.614L188.065 266.703C188.253 266.703 188.409 266.87 188.409 267.059C188.409 267.249 188.253 267.405 188.065 267.405Z" fill="white"/>
<path d="M188.042 268.609C188.031 268.609 188.031 268.609 188.042 268.609L183.243 268.519C183.054 268.519 182.898 268.352 182.898 268.163C182.898 267.974 183.065 267.795 183.254 267.818L188.042 267.907C188.231 267.907 188.386 268.074 188.386 268.263C188.386 268.453 188.231 268.609 188.042 268.609Z" fill="white"/>
<path d="M198.44 267.595C198.44 267.595 198.429 267.595 198.44 267.595L193.241 267.495C193.052 267.495 192.896 267.328 192.896 267.138C192.896 266.949 193.052 266.804 193.252 266.793L198.44 266.893C198.629 266.893 198.784 267.06 198.784 267.25C198.784 267.45 198.629 267.595 198.44 267.595Z" fill="white"/>
<path d="M198.419 268.798C198.419 268.798 198.407 268.798 198.419 268.798L193.219 268.698C193.031 268.698 192.875 268.531 192.875 268.341C192.875 268.152 193.042 267.985 193.231 267.996L198.419 268.096C198.607 268.096 198.763 268.263 198.763 268.453C198.763 268.653 198.607 268.798 198.419 268.798Z" fill="white"/>
<path d="M189.174 266.246C189.018 266.246 188.874 266.135 188.829 265.968L187.885 261.588C187.841 261.399 187.963 261.21 188.152 261.176C188.341 261.132 188.529 261.254 188.563 261.444L189.507 265.823C189.552 266.012 189.429 266.202 189.241 266.235C189.218 266.246 189.196 266.246 189.174 266.246Z" fill="white"/>
<path d="M191.951 266.29C191.918 266.29 191.896 266.29 191.862 266.279C191.673 266.235 191.562 266.034 191.618 265.856L192.762 261.521C192.806 261.332 193.006 261.22 193.184 261.276C193.373 261.32 193.484 261.521 193.429 261.699L192.284 266.034C192.251 266.19 192.107 266.29 191.951 266.29Z" fill="white"/>
<path d="M187.997 274.369C187.963 274.369 187.941 274.369 187.908 274.358C187.719 274.313 187.608 274.124 187.652 273.934L188.763 269.6C188.808 269.41 188.997 269.299 189.185 269.344C189.374 269.388 189.485 269.578 189.441 269.767L188.33 274.102C188.286 274.258 188.141 274.369 187.997 274.369Z" fill="white"/>
<path d="M192.863 274.458C192.707 274.458 192.563 274.347 192.529 274.191L191.54 269.812C191.496 269.623 191.618 269.433 191.807 269.4C191.996 269.366 192.185 269.478 192.218 269.667L193.207 274.046C193.251 274.236 193.129 274.425 192.94 274.458C192.918 274.458 192.896 274.458 192.863 274.458Z" fill="white"/>
<path d="M198.754 250.357C198.731 251.505 197.787 252.419 196.643 252.397L183.634 252.151C182.49 252.129 181.579 251.182 181.601 250.034V249.8C181.623 248.653 182.567 247.739 183.712 247.761L196.721 248.006C197.865 248.029 198.776 248.976 198.754 250.123V250.357Z" fill="url(#paint19_linear_2505_5969)"/>
<path d="M199.376 281.702C199.353 282.794 198.454 283.674 197.354 283.652L182.956 283.384C181.868 283.362 180.99 282.459 181.012 281.356V281.323C181.034 280.231 181.934 279.35 183.034 279.373L197.432 279.64C198.52 279.662 199.398 280.565 199.376 281.668V281.702Z" fill="url(#paint20_linear_2505_5969)"/>
<path d="M220.128 282.092C220.105 283.184 219.206 284.064 218.106 284.042L203.708 283.775C202.619 283.752 201.742 282.85 201.764 281.747V281.713C201.786 280.621 202.686 279.741 203.786 279.763L218.184 280.031C219.272 280.053 220.15 280.955 220.128 282.059V282.092Z" fill="url(#paint21_linear_2505_5969)"/>
<path d="M240.878 282.47C240.855 283.562 239.956 284.443 238.856 284.421L224.458 284.153C223.369 284.131 222.492 283.228 222.514 282.125V282.092C222.536 281 223.436 280.119 224.536 280.142L238.934 280.409C240.022 280.431 240.9 281.334 240.878 282.437V282.47Z" fill="url(#paint22_linear_2505_5969)"/>
<path d="M262.044 282.872C262.021 283.964 261.121 284.844 260.022 284.822L245.624 284.555C244.536 284.532 243.658 283.63 243.68 282.527V282.493C243.702 281.401 244.602 280.521 245.702 280.543L260.099 280.811C261.188 280.833 262.066 281.735 262.044 282.839V282.872Z" fill="url(#paint23_linear_2505_5969)"/>
<path d="M212.773 290.772C212.761 291.642 212.039 292.344 211.173 292.321L184.388 291.82C183.522 291.809 182.822 291.084 182.844 290.215V290.171C182.855 289.302 183.577 288.6 184.444 288.622L211.228 289.123C212.095 289.134 212.795 289.859 212.773 290.728V290.772Z" fill="url(#paint24_linear_2505_5969)"/>
<path d="M259.498 290.839C259.487 291.708 258.765 292.41 257.898 292.388L246.278 292.176C245.412 292.165 244.712 291.441 244.734 290.572V290.527C244.745 289.658 245.467 288.956 246.334 288.978L257.954 289.19C258.82 289.201 259.52 289.925 259.498 290.795V290.839Z" fill="url(#paint25_linear_2505_5969)"/>
<path d="M222.592 166.52C222.725 166.933 221.236 167.545 220.37 165.885C220.337 165.083 219.859 161.662 220.325 161.005C222.858 157.528 227.791 153.182 227.791 153.182C228.624 154.007 227.935 154.809 227.935 154.809L225.547 157.305C226.047 158.208 226.658 158.976 226.935 160.068C227.146 160.893 227.024 161.785 226.602 162.542C226.18 163.3 225.613 164.281 225.069 165.049C224.047 166.509 222.592 166.52 222.592 166.52Z" fill="url(#paint26_linear_2505_5969)"/>
<path d="M224.503 158.921L222.326 160.771L221.648 162.609L223.593 164.771C223.593 164.771 224.248 161.116 224.726 160.325C225.203 159.534 224.948 159.155 224.503 158.921Z" fill="url(#paint27_linear_2505_5969)"/>
<path d="M179.854 302.761C179.854 302.761 179.31 305.881 179.032 308.968C178.932 310.171 179.854 311.218 181.065 311.274C185.164 311.441 193.94 311.776 197.084 311.642C197.562 311.62 197.862 311.129 197.695 310.695C197.551 310.327 197.262 310.026 196.907 309.859L182.409 303.173L179.854 302.761Z" fill="url(#paint28_linear_2505_5969)"/>
<path d="M179.397 300.923L179.842 304.656C179.842 304.656 182.386 305.838 184.119 304.511L183.064 300.355L179.397 300.923Z" fill="url(#paint29_linear_2505_5969)"/>
<path d="M179.729 230.735C179.541 231.705 178.707 279.384 183.784 300.745C183.862 301.09 183.695 301.458 183.362 301.592C182.585 301.915 181.051 302.372 179.23 302.439C178.663 302.461 178.152 302.093 177.996 301.547C176.541 296.589 169.587 271.752 168.676 248.029C167.665 221.52 168.676 247.126 168.676 247.126L169.276 230.735H179.729Z" fill="url(#paint30_linear_2505_5969)"/>
<path d="M163.177 304.388C163.177 304.388 162.299 305.959 161.455 310.149C161.299 310.907 161.832 311.631 162.599 311.709C163.954 311.843 166.043 312.01 167.709 311.999C168.476 311.999 169.076 311.319 168.987 310.55C168.798 309.024 168.22 306.517 166.443 304.555L163.177 304.388Z" fill="url(#paint31_linear_2505_5969)"/>
<path d="M162.41 299.586L163.443 305.236C163.443 305.236 164.465 305.993 166.487 305.447L165.998 299.375L162.41 299.586Z" fill="url(#paint32_linear_2505_5969)"/>
<path d="M159.623 232.206C155.468 257.355 160.523 294.371 162.234 301.625C162.334 302.071 162.7 302.405 163.145 302.483C163.911 302.606 165.155 302.717 166.4 302.349C166.822 302.227 167.122 301.837 167.144 301.391C167.377 295.53 166.966 259.572 170.832 245.366C171.032 244.641 171.465 244.017 172.076 243.583L179.586 238.223L180.164 229.565L159.623 232.206Z" fill="url(#paint33_linear_2505_5969)"/>
<path d="M186.104 184.538C173.651 184.326 159.909 187.814 159.909 187.814C156.198 209.543 159.264 234.592 159.264 234.592C168.907 237.133 179.783 233.043 179.783 233.043C181.383 223.962 188.859 198.411 188.859 198.411C194.947 197.653 199.957 195.893 204.079 193.564C200.935 189.898 199.446 185.24 198.802 182.488C194.392 183.87 189.937 184.605 186.104 184.538Z" fill="url(#paint34_linear_2505_5969)"/>
<path d="M222.887 166.142C221.665 164.66 220.12 165.362 220.12 165.362C218.287 173.128 208.678 179.424 198.802 182.499C199.446 185.252 200.935 189.91 204.079 193.576C220.454 184.338 222.887 166.142 222.887 166.142Z" fill="url(#paint35_linear_2505_5969)"/>
<path d="M164.688 199.915L159.911 187.825C159.911 187.825 148.28 195.748 146.369 205.799C148.569 205.966 152.568 206.534 156.479 208.518C157.334 203.771 164.688 199.915 164.688 199.915Z" fill="url(#paint36_linear_2505_5969)"/>
<path d="M173.489 174.398L169.523 185.886C169.456 186.076 169.534 186.288 169.712 186.388C170.789 186.99 174.688 188.717 179.376 185.73C179.865 185.418 180.199 184.917 180.276 184.338L181.565 174.387H173.489V174.398Z" fill="url(#paint37_linear_2505_5969)"/>
<path d="M182.109 163.756C182.109 163.756 186.464 171.968 185.897 175.289C185.342 178.609 179.943 178.364 175.243 175.679L171.955 166.809L182.109 163.756Z" fill="url(#paint38_linear_2505_5969)"/>
<path d="M175.454 171.322C175.643 171.233 175.721 170.999 175.599 170.832C175.254 170.297 174.599 169.205 174.388 168.258C174.388 168.258 173.61 167.757 176.377 167.088C179.154 166.42 183.286 165.394 184.153 163.021C184.997 160.714 182.775 154.909 179.22 159.533C179.087 159.712 178.821 159.712 178.687 159.533C178.11 158.776 176.576 157.193 174.444 158.152C172.455 159.043 172.233 160.514 172.255 161.249C172.266 161.461 172.066 161.639 171.855 161.595C170.844 161.405 168.433 161.238 167.311 163.723C166.378 165.773 166.989 166.921 167.534 167.489C167.711 167.668 167.634 167.98 167.389 168.046C166.734 168.247 165.878 168.815 165.956 170.364C166.078 172.515 168.467 172.325 169.144 172.225C169.256 172.214 169.367 172.247 169.444 172.336C170.033 172.983 172.666 175.735 175.51 176.069C175.754 176.103 175.943 175.858 175.865 175.624L174.632 172.024C174.577 171.857 174.655 171.679 174.821 171.601L175.454 171.322Z" fill="url(#paint39_linear_2505_5969)"/>
<path d="M175.946 171.835C175.946 171.835 172.846 169.707 172.624 171.501C172.402 173.295 175.412 174.097 176.912 173.428L175.946 171.835Z" fill="url(#paint40_linear_2505_5969)"/>
<path d="M156.479 208.516C156.479 208.516 152.413 226.913 156.101 237.254C151.591 239.349 152.424 238.959 152.424 238.959C152.424 238.959 143.492 212.784 146.381 205.797C152.046 205.196 154.868 206.722 156.479 208.516Z" fill="url(#paint41_linear_2505_5969)"/>
<path d="M156.089 237.254C156.089 237.254 158.411 240.274 158.233 241.478C158.044 242.681 158 243.171 158 243.171C158 243.171 156.833 242.369 156.9 241.344C157.067 244.598 158.144 248.297 157.156 248.119C156.167 247.94 151.057 243.216 152.212 238.179C154.845 236.352 155.578 236.552 156.089 237.254Z" fill="url(#paint42_linear_2505_5969)"/>
<defs>
<linearGradient id="paint0_linear_2505_5969" x1="336.078" y1="316.083" x2="-42.4885" y2="1.11288" gradientUnits="userSpaceOnUse">
<stop stop-color="#CCCCCC"/>
<stop offset="1" stop-color="#66738F"/>
</linearGradient>
<linearGradient id="paint1_linear_2505_5969" x1="-12.6025" y1="111.429" x2="111.29" y2="146.829" gradientUnits="userSpaceOnUse">
<stop stop-color="#417465"/>
<stop offset="1" stop-color="#2A5446"/>
</linearGradient>
<linearGradient id="paint2_linear_2505_5969" x1="6.98166" y1="249.281" x2="44.9515" y2="95.4027" gradientUnits="userSpaceOnUse">
<stop stop-color="#4BAC99"/>
<stop offset="1" stop-color="#8DCABE"/>
</linearGradient>
<linearGradient id="paint3_linear_2505_5969" x1="132.081" y1="258.151" x2="193.912" y2="73.2145" gradientUnits="userSpaceOnUse">
<stop stop-color="#A0A3BD"/>
<stop offset="1" stop-color="#66738F"/>
</linearGradient>
<linearGradient id="paint4_linear_2505_5969" x1="151.512" y1="305.951" x2="163.207" y2="-7.20729" gradientUnits="userSpaceOnUse">
<stop offset="0.1571" stop-color="#8DCABE"/>
<stop offset="1" stop-color="#F4F9F8"/>
</linearGradient>
<linearGradient id="paint5_linear_2505_5969" x1="157.52" y1="286.117" x2="164.382" y2="179.703" gradientUnits="userSpaceOnUse">
<stop stop-color="#66738F"/>
<stop offset="1" stop-color="#A0A3BD"/>
</linearGradient>
<linearGradient id="paint6_linear_2505_5969" x1="141.194" y1="-23.511" x2="126.784" y2="327.009" gradientUnits="userSpaceOnUse">
<stop stop-color="white"/>
<stop offset="0.395833" stop-color="#F4F9F8"/>
<stop offset="1" stop-color="white"/>
</linearGradient>
<linearGradient id="paint7_linear_2505_5969" x1="249.639" y1="33.4146" x2="208.891" y2="79.2332" gradientUnits="userSpaceOnUse">
<stop stop-color="#F4F9F8"/>
<stop offset="0.2057" stop-color="#F4F9F8"/>
<stop offset="1" stop-color="#8DCABE"/>
</linearGradient>
<linearGradient id="paint8_linear_2505_5969" x1="359.225" y1="95.5714" x2="117.064" y2="340.013" gradientUnits="userSpaceOnUse">
<stop stop-color="#A0A3BD"/>
<stop offset="1" stop-color="#66738F"/>
</linearGradient>
<linearGradient id="paint9_linear_2505_5969" x1="216.634" y1="149.916" x2="361.075" y2="374.908" gradientUnits="userSpaceOnUse">
<stop offset="0.1571" stop-color="#F4F9F8"/>
<stop offset="1" stop-color="#8DCABE"/>
</linearGradient>
<linearGradient id="paint10_linear_2505_5969" x1="265.395" y1="92.1773" x2="216.947" y2="175.204" gradientUnits="userSpaceOnUse">
<stop stop-color="#8DCABE"/>
<stop offset="1" stop-color="#4BAC99"/>
</linearGradient>
<linearGradient id="paint11_linear_2505_5969" x1="261.046" y1="144.423" x2="313.315" y2="212.206" gradientUnits="userSpaceOnUse">
<stop stop-color="#FFC801"/>
<stop offset="1" stop-color="#FF7B01"/>
</linearGradient>
<linearGradient id="paint12_linear_2505_5969" x1="76.2239" y1="117.02" x2="104.004" y2="84.872" gradientUnits="userSpaceOnUse">
<stop stop-color="#FFC801"/>
<stop offset="1" stop-color="#FF7B01"/>
</linearGradient>
<linearGradient id="paint13_linear_2505_5969" x1="119.552" y1="61.2804" x2="37.3439" y2="185.098" gradientUnits="userSpaceOnUse">
<stop stop-color="#FFC801"/>
<stop offset="1" stop-color="#FF7B01"/>
</linearGradient>
<linearGradient id="paint14_linear_2505_5969" x1="117.111" y1="64.8343" x2="73.3252" y2="138.121" gradientUnits="userSpaceOnUse">
<stop stop-color="#FFC801"/>
<stop offset="1" stop-color="#FF7B01"/>
</linearGradient>
<linearGradient id="paint15_linear_2505_5969" x1="32.9389" y1="238.266" x2="137.499" y2="117.269" gradientUnits="userSpaceOnUse">
<stop stop-color="#F47960"/>
<stop offset="1" stop-color="#CD201F"/>
</linearGradient>
<linearGradient id="paint16_linear_2505_5969" x1="196.017" y1="28.4752" x2="-113.397" y2="494.497" gradientUnits="userSpaceOnUse">
<stop stop-color="#F47960"/>
<stop offset="0.150501" stop-color="#E66752"/>
<stop offset="1" stop-color="#980101"/>
</linearGradient>
<linearGradient id="paint17_linear_2505_5969" x1="182.507" y1="244.558" x2="276.861" y2="303.141" gradientUnits="userSpaceOnUse">
<stop stop-color="#F4F9F8"/>
<stop offset="1" stop-color="#8DCABE"/>
</linearGradient>
<linearGradient id="paint18_linear_2505_5969" x1="213.785" y1="234.201" x2="181.502" y2="281.068" gradientUnits="userSpaceOnUse">
<stop stop-color="#E92556"/>
<stop offset="1" stop-color="#F9C342"/>
</linearGradient>
<linearGradient id="paint19_linear_2505_5969" x1="215.954" y1="203.966" x2="155.408" y2="311.605" gradientUnits="userSpaceOnUse">
<stop stop-color="#8DCABE"/>
<stop offset="1" stop-color="#4BAC99"/>
</linearGradient>
<linearGradient id="paint20_linear_2505_5969" x1="229.339" y1="211.497" x2="168.793" y2="319.134" gradientUnits="userSpaceOnUse">
<stop stop-color="#8DCABE"/>
<stop offset="1" stop-color="#4BAC99"/>
</linearGradient>
<linearGradient id="paint21_linear_2505_5969" x1="245.293" y1="220.469" x2="184.743" y2="328.109" gradientUnits="userSpaceOnUse">
<stop stop-color="#8DCABE"/>
<stop offset="1" stop-color="#4BAC99"/>
</linearGradient>
<linearGradient id="paint22_linear_2505_5969" x1="261.246" y1="229.444" x2="200.696" y2="337.083" gradientUnits="userSpaceOnUse">
<stop stop-color="#8DCABE"/>
<stop offset="1" stop-color="#4BAC99"/>
</linearGradient>
<linearGradient id="paint23_linear_2505_5969" x1="264.844" y1="255.663" x2="239.394" y2="312.688" gradientUnits="userSpaceOnUse">
<stop stop-color="#66738F"/>
<stop offset="1" stop-color="#A0A3BD"/>
</linearGradient>
<linearGradient id="paint24_linear_2505_5969" x1="238.943" y1="216.9" x2="178.395" y2="324.538" gradientUnits="userSpaceOnUse">
<stop stop-color="#66738F"/>
<stop offset="1" stop-color="#A0A3BD"/>
</linearGradient>
<linearGradient id="paint25_linear_2505_5969" x1="280.341" y1="240.186" x2="219.793" y2="347.825" gradientUnits="userSpaceOnUse">
<stop stop-color="#8DCABE"/>
<stop offset="1" stop-color="#4BAC99"/>
</linearGradient>
<linearGradient id="paint26_linear_2505_5969" x1="226.283" y1="153.734" x2="217.92" y2="177.556" gradientUnits="userSpaceOnUse">
<stop stop-color="#F9B776"/>
<stop offset="1" stop-color="#F47960"/>
</linearGradient>
<linearGradient id="paint27_linear_2505_5969" x1="219.894" y1="168.964" x2="226.19" y2="156.302" gradientUnits="userSpaceOnUse">
<stop stop-color="#F9B776"/>
<stop offset="1" stop-color="#F47960"/>
</linearGradient>
<linearGradient id="paint28_linear_2505_5969" x1="196.63" y1="298.444" x2="143.381" y2="356.189" gradientUnits="userSpaceOnUse">
<stop stop-color="#2B3582"/>
<stop offset="1" stop-color="#150E42"/>
</linearGradient>
<linearGradient id="paint29_linear_2505_5969" x1="179.402" y1="302.746" x2="184.116" y2="302.746" gradientUnits="userSpaceOnUse">
<stop stop-color="#F9B776"/>
<stop offset="1" stop-color="#F47960"/>
</linearGradient>
<linearGradient id="paint30_linear_2505_5969" x1="200.807" y1="232.962" x2="155.469" y2="294.226" gradientUnits="userSpaceOnUse">
<stop stop-color="#2D2D2D"/>
<stop offset="1" stop-color="#363636"/>
</linearGradient>
<linearGradient id="paint31_linear_2505_5969" x1="184.721" y1="287.465" x2="131.472" y2="345.21" gradientUnits="userSpaceOnUse">
<stop stop-color="#2B3582"/>
<stop offset="1" stop-color="#150E42"/>
</linearGradient>
<linearGradient id="paint32_linear_2505_5969" x1="162.41" y1="302.504" x2="166.48" y2="302.504" gradientUnits="userSpaceOnUse">
<stop stop-color="#F9B776"/>
<stop offset="1" stop-color="#F47960"/>
</linearGradient>
<linearGradient id="paint33_linear_2505_5969" x1="192.759" y1="227.005" x2="147.421" y2="288.269" gradientUnits="userSpaceOnUse">
<stop stop-color="#2D2D2D"/>
<stop offset="1" stop-color="#363636"/>
</linearGradient>
<linearGradient id="paint34_linear_2505_5969" x1="243.17" y1="307.357" x2="211.448" y2="258.789" gradientUnits="userSpaceOnUse">
<stop stop-color="#980101"/>
<stop offset="1" stop-color="#BA0000"/>
</linearGradient>
<linearGradient id="paint35_linear_2505_5969" x1="219.168" y1="151.239" x2="210.806" y2="175.06" gradientUnits="userSpaceOnUse">
<stop stop-color="#F9B776"/>
<stop offset="1" stop-color="#F47960"/>
</linearGradient>
<linearGradient id="paint36_linear_2505_5969" x1="230.342" y1="315.737" x2="198.621" y2="267.169" gradientUnits="userSpaceOnUse">
<stop stop-color="#980101"/>
<stop offset="1" stop-color="#BA0000"/>
</linearGradient>
<linearGradient id="paint37_linear_2505_5969" x1="172.428" y1="189.584" x2="181.105" y2="169.995" gradientUnits="userSpaceOnUse">
<stop stop-color="#F9B776"/>
<stop offset="1" stop-color="#F47960"/>
</linearGradient>
<linearGradient id="paint38_linear_2505_5969" x1="183.674" y1="178.109" x2="173.09" y2="160.438" gradientUnits="userSpaceOnUse">
<stop stop-color="#F9B776"/>
<stop offset="1" stop-color="#F47960"/>
</linearGradient>
<linearGradient id="paint39_linear_2505_5969" x1="164.157" y1="156.58" x2="181.314" y2="170.09" gradientUnits="userSpaceOnUse">
<stop stop-color="#2B3582"/>
<stop offset="1" stop-color="#150E42"/>
</linearGradient>
<linearGradient id="paint40_linear_2505_5969" x1="179.459" y1="180.635" x2="168.876" y2="162.965" gradientUnits="userSpaceOnUse">
<stop stop-color="#F9B776"/>
<stop offset="1" stop-color="#F47960"/>
</linearGradient>
<linearGradient id="paint41_linear_2505_5969" x1="170.831" y1="194.32" x2="127.538" y2="254.043" gradientUnits="userSpaceOnUse">
<stop stop-color="#F9B776"/>
<stop offset="1" stop-color="#F47960"/>
</linearGradient>
<linearGradient id="paint42_linear_2505_5969" x1="183.409" y1="203.44" x2="140.117" y2="263.162" gradientUnits="userSpaceOnUse">
<stop stop-color="#F9B776"/>
<stop offset="1" stop-color="#F47960"/>
</linearGradient>
</defs>
</svg>
