<svg width="288" height="167" viewBox="0 0 288 167" fill="none" xmlns="http://www.w3.org/2000/svg">
<g clip-path="url(#clip0_9011_26248)">
<path d="M147.569 270.028C73.6917 267.487 15.862 205.536 18.4031 131.657C20.9442 57.7782 82.8939 -0.0525551 156.772 2.48863C230.649 5.02981 288.479 66.9806 285.938 140.86C283.397 214.739 221.447 272.569 147.569 270.028Z" fill="#E9FAF5"/>
<path d="M189.944 69.8402L203.484 161.345H262.27L279.505 88.9917C280.613 84.3329 279.699 79.3652 276.78 75.5653C274.089 72.0617 270.065 69.8359 265.562 69.8359H189.944V69.8402Z" fill="#23668A"/>
<path d="M250.899 85.9486L243.173 161.565H262.269L279.507 88.9911C280.612 84.3365 279.698 79.3687 276.782 75.5731C274.091 72.0695 270.067 69.8438 265.565 69.8438C261.516 69.8438 257.851 71.6506 255.198 74.5618C252.545 77.4773 250.903 81.5014 250.903 85.9486H250.899Z" fill="#3280A0"/>
<path d="M177.997 88.9741L195.24 161.565H214.336L206.609 85.9486C206.609 77.0541 200.042 69.8438 191.944 69.8438C187.894 69.8438 184.23 71.6506 181.577 74.5618C181.132 75.0484 180.718 75.5647 180.337 76.1105C177.718 79.83 176.948 84.548 178.001 88.9741H177.997Z" fill="#23668A"/>
<path d="M183.476 34.4224C183.582 34.4224 183.692 34.4055 183.802 34.3716C184.356 34.1939 184.665 33.5973 184.483 33.0387C180.59 20.941 180.26 11.9323 183.518 6.98994C185.312 4.26912 188.283 2.69502 192.336 2.31842C192.916 2.26341 193.344 1.74718 193.293 1.16747C193.238 0.583528 192.722 0.160384 192.142 0.211161C187.415 0.655463 183.92 2.54269 181.754 5.82629C178.077 11.3991 178.318 20.776 182.469 33.6861C182.613 34.1347 183.027 34.4182 183.476 34.4182V34.4224Z" fill="#08213C"/>
<path d="M183.651 53.8145C183.651 53.8145 183.668 53.8145 183.677 53.8145C184.26 53.8018 184.722 53.3152 184.709 52.7312C184.641 49.7988 189.55 46.8114 192.482 45.03C193.218 44.5815 193.849 44.1964 194.365 43.8494C194.847 43.5194 194.974 42.8635 194.644 42.3811C194.314 41.8987 193.658 41.7718 193.176 42.1018C192.706 42.4234 192.093 42.7958 191.382 43.2274C187.844 45.3812 182.496 48.6352 182.593 52.7862C182.606 53.3617 183.076 53.8187 183.651 53.8187V53.8145Z" fill="#08213C"/>
<path d="M170.301 141.905C173.25 141.905 176.199 140.775 178.442 138.512C182.902 134.014 182.868 126.757 178.374 122.297L157.869 101.965C153.371 97.5046 146.114 97.5384 141.654 102.032C137.194 106.53 137.228 113.787 141.722 118.247L162.227 138.579C164.461 140.797 167.381 141.901 170.301 141.901V141.905Z" fill="#8DCABE"/>
<path d="M147.97 118.239C150.53 118.239 153.085 117.258 155.032 115.299C158.899 111.397 158.87 105.101 154.973 101.238L152.362 98.6479C148.461 94.7803 142.164 94.8099 138.301 98.7071C134.434 102.609 134.463 108.905 138.36 112.768L140.971 115.358C142.909 117.279 145.444 118.239 147.97 118.239Z" fill="white"/>
<path d="M192.833 43.0724H196.349C202.992 43.0724 208.383 37.6857 208.383 31.0381C208.383 24.3905 202.996 19.0039 196.349 19.0039H192.833C186.189 19.0039 180.798 24.3905 180.798 31.0381C180.798 37.6857 186.185 43.0724 192.833 43.0724Z" fill="#2D2D2D"/>
<path d="M206.025 51.9246C206.025 57.2689 208.191 62.1055 211.691 65.6091C215.194 69.1085 220.031 71.275 225.375 71.275H247.306C247.717 71.275 248.127 71.2623 248.529 71.237C258.646 70.6065 266.656 62.2028 266.656 51.9246C266.656 46.5803 264.49 41.7438 260.986 38.2401C257.758 35.0115 253.387 32.917 248.529 32.6123C248.127 32.5869 247.717 32.5742 247.306 32.5742H225.375C214.687 32.5742 206.025 41.236 206.025 51.9246Z" fill="#23668A"/>
<path d="M230.402 51.9256C230.402 57.2699 232.568 62.1065 236.068 65.6101C239.3 68.8387 243.671 70.9333 248.529 71.2379C258.646 70.6075 266.656 62.2038 266.656 51.9256C266.656 46.5813 264.49 41.7447 260.986 38.2411C257.758 35.0125 253.387 32.9179 248.529 32.6133C238.412 33.2438 230.402 41.6474 230.402 51.9256Z" fill="#3280A0"/>
<path d="M170.291 141.909C174.277 141.909 178.153 139.827 180.264 136.116L203.825 94.7363C206.956 89.2355 205.039 82.2324 199.534 79.1011C194.033 75.9699 187.03 77.8867 183.899 83.3918L160.339 124.771C157.203 130.272 159.124 137.275 164.629 140.406C166.419 141.426 168.37 141.909 170.291 141.909Z" fill="#8DCABE"/>
<path d="M181.028 98.6583L178.054 143.651C178.028 144.011 178.016 144.371 178.003 144.73C177.876 148.907 178.633 152.948 180.119 156.638C180.757 158.246 181.544 159.786 182.442 161.241L228.729 164.301C232.38 159.849 234.729 154.247 235.139 148.065L238.012 104.603C238.554 96.4156 235.727 88.7821 230.713 83.0654C225.707 77.3445 218.51 73.5362 210.326 72.9946C195.148 71.9917 182.031 83.4801 181.028 98.6583Z" fill="#021027"/>
<path d="M192.483 156.294C193.783 156.294 195.103 156.069 196.393 155.604L233.316 142.199C237.442 140.701 240.353 136.977 240.806 132.61L242.672 114.682C243.328 108.385 238.754 102.749 232.457 102.093C226.161 101.441 220.521 106.011 219.865 112.312L218.743 123.102L188.569 134.057C182.616 136.22 179.544 142.795 181.706 148.745C183.399 153.404 187.795 156.302 192.483 156.302V156.294Z" fill="#8DCABE"/>
<path d="M199.076 81.6056C199.927 81.6056 200.786 81.3856 201.569 80.9201L207.311 77.5308C209.646 76.1513 210.425 73.1385 209.041 70.8028C207.662 68.467 204.649 67.6884 202.313 69.0721L196.571 72.4615C194.236 73.8409 193.457 76.8537 194.841 79.1895C195.759 80.7424 197.396 81.6056 199.076 81.6056Z" fill="white"/>
<path d="M231.286 124.962C237.087 124.962 242.063 120.578 242.677 114.684L243.476 106.987C244.132 100.691 239.558 95.0502 233.258 94.3985C226.957 93.7426 221.321 98.3168 220.665 104.617L219.865 112.314C219.21 118.611 223.784 124.251 230.08 124.903C230.482 124.945 230.884 124.966 231.282 124.966L231.286 124.962Z" fill="white"/>
<path d="M232.082 117.263C237.883 117.263 242.859 112.879 243.473 106.985L244.992 92.3695C245.648 86.0731 241.074 80.4326 234.778 79.7767C228.473 79.1251 222.841 83.695 222.185 89.9914L220.666 104.607C220.01 110.903 224.584 116.544 230.88 117.2C231.282 117.242 231.684 117.263 232.082 117.263Z" fill="#8DCABE"/>
<path d="M222.219 49.9568V69.7346C222.219 74.2961 219.557 78.2313 215.698 80.0847C214.192 80.8041 212.508 81.2103 210.731 81.2103C204.396 81.2103 199.251 76.0691 199.251 69.7304V49.9526C199.251 43.6096 204.392 38.4727 210.731 38.4727C212.508 38.4727 214.192 38.8789 215.698 39.5982C216.879 40.161 217.941 40.9227 218.855 41.8324C220.932 43.9101 222.215 46.779 222.215 49.9483L222.219 49.9568Z" fill="#F4A9B2"/>
<path d="M222.219 50.5337V70.3115C222.219 74.873 219.557 78.8083 215.698 80.6616C211.839 78.8125 209.173 74.8688 209.173 70.3115V50.5337C209.173 45.968 211.839 42.0285 215.698 40.1836C216.879 40.7464 217.941 41.508 218.855 42.4178C220.932 44.4954 222.215 47.3644 222.215 50.5337H222.219Z" fill="#F4818A"/>
<path d="M211.823 85.5101C212.674 85.5101 213.533 85.29 214.316 84.8246L224.061 79.0698C226.396 77.6904 227.175 74.6776 225.791 72.3418C224.412 70.0061 221.399 69.2275 219.063 70.6112L209.318 76.3659C206.983 77.7454 206.204 80.7582 207.588 83.0939C208.506 84.6469 210.144 85.5101 211.823 85.5101Z" fill="white"/>
<path d="M184.381 157.716C185.506 157.716 186.653 157.521 187.774 157.115L194.642 154.622C199.804 152.748 202.47 147.044 200.596 141.882C198.721 136.719 193.017 134.053 187.855 135.928L180.987 138.42C175.825 140.295 173.159 145.999 175.034 151.161C176.502 155.202 180.319 157.716 184.381 157.716Z" fill="white"/>
<path d="M232.828 36.6082V41.449C232.841 54.6173 222.178 65.2974 209.014 65.3059C207.055 65.3059 205.155 65.0732 203.331 64.6289C192.905 62.0858 185.162 52.692 185.153 41.4828V36.6421C185.141 25.4372 192.871 16.0265 203.293 13.4707C205.113 13.0221 207.013 12.7852 208.972 12.7852C215.556 12.7809 221.513 15.451 225.825 19.7586C230.145 24.0747 232.815 30.0283 232.82 36.6124L232.828 36.6082Z" fill="#F4818A"/>
<path d="M221.477 36.6187V41.4595C221.489 52.6686 213.759 62.0751 203.337 64.6309C192.911 62.0878 185.167 52.6939 185.159 41.4848V36.6441C185.146 25.4392 192.877 16.0285 203.299 13.4727C207.602 14.5263 211.452 16.7436 214.478 19.7691C218.798 24.0851 221.468 30.0388 221.472 36.6229L221.477 36.6187Z" fill="#F4A9B2"/>
<path d="M208.988 51.5898C208.988 54.9031 206.301 57.59 202.988 57.59C199.675 57.59 196.988 54.9031 196.988 51.5898H208.992H208.988Z" fill="white"/>
<path d="M149.942 105.613C150.708 104.783 151.355 103.819 151.867 102.735C152.028 102.397 152.176 102.046 152.312 101.686C152.557 101.009 152.752 100.319 152.883 99.6125L139.097 78.0491C139.08 77.9687 139.063 77.8883 139.046 77.8121C139.008 77.791 138.962 77.774 138.915 77.7613C131.404 75.1336 124.025 77.8333 121.537 84.6036C121.287 85.2849 121.088 85.9958 120.957 86.7109C120.559 88.7631 120.627 90.9254 121.101 93.0665C122.311 98.6012 126.212 104.013 131.794 107.111C137.235 110.136 142.964 110.225 147.12 107.868C148.178 107.276 149.13 106.523 149.95 105.617L149.942 105.613Z" fill="#F4818A"/>
<path d="M210.555 35.224H211.867C218.916 35.224 224.633 29.5073 224.633 22.4577C224.633 15.4081 218.916 9.69141 211.867 9.69141H210.555C203.506 9.69141 197.789 15.4081 197.789 22.4577C197.789 29.5073 203.506 35.224 210.555 35.224Z" fill="#2D2D2D"/>
<path d="M227.396 45.7175H230.104C234.577 45.7175 238.203 42.0912 238.203 37.6185C238.203 33.1459 234.577 29.5195 230.104 29.5195H227.396C222.924 29.5195 219.297 33.1459 219.297 37.6185C219.297 42.0912 222.924 45.7175 227.396 45.7175Z" fill="#2D2D2D"/>
<path d="M159.666 156.779H184.386C190.517 156.779 194.135 149.784 190.483 144.859C190.458 144.821 190.428 144.787 190.403 144.749C189.159 143.111 187.508 141.808 185.608 140.86C182.862 139.485 179.591 138.859 176.249 139.049C173.295 139.214 170.287 140.014 167.549 141.495C166.61 141.998 165.751 142.561 164.964 143.175C160.275 146.793 158.27 152.065 159.67 156.779H159.666Z" fill="#F4A9B2"/>
<path d="M219.35 39.0471H223.619C229.865 39.0471 234.93 33.9821 234.93 27.7364C234.93 21.4908 229.865 16.4258 223.619 16.4258H219.35C213.104 16.4258 208.039 21.4908 208.039 27.7364C208.039 33.9821 213.104 39.0471 219.35 39.0471Z" fill="#2D2D2D"/>
<path d="M224.377 32.7058L224.898 34.0195L214.523 38.136L214.002 36.8223L224.377 32.7058Z" fill="white"/>
<path d="M227.072 48.9239C223.699 50.096 220.014 48.3103 218.842 44.9336L216.832 39.1407C215.66 35.7683 217.446 32.0827 220.822 30.9106C224.195 29.7385 227.88 31.5241 229.052 34.9008L231.062 40.6937C232.234 44.0662 230.449 47.7517 227.072 48.9239Z" fill="#F4A9B2"/>
<path d="M193.735 34.7733H200.242C209.001 34.7733 216.102 27.6729 216.102 18.9138C216.102 10.1547 209.001 3.05859 200.247 3.05859H193.739C184.98 3.05859 177.88 10.159 177.88 18.9181C177.88 27.6772 184.98 34.7775 193.739 34.7775L193.735 34.7733Z" fill="#2D2D2D"/>
<path d="M204.736 25.2286C204.736 28.3514 206.001 31.178 208.049 33.2261C208.633 33.81 209.276 34.3262 209.974 34.7705C209.056 33.1372 208.536 31.2584 208.536 29.2527C208.536 23.0071 213.601 17.9421 219.846 17.9421H224.115C226.35 17.9421 228.436 18.5895 230.188 19.7108C229.68 18.7968 229.045 17.9632 228.313 17.2312C226.265 15.1832 223.438 13.918 220.316 13.918H216.046C209.801 13.918 204.736 18.983 204.736 25.2286Z" fill="#2D2D2D"/>
<path d="M208.033 27.7364C208.033 30.8593 209.298 33.6859 211.346 35.7339C211.93 36.3178 212.573 36.8341 213.271 37.2784C212.353 35.645 211.832 33.7663 211.832 31.7605C211.832 25.5149 216.897 20.4499 223.143 20.4499H227.412C229.647 20.4499 231.733 21.0973 233.484 22.2186C232.977 21.3046 232.342 20.471 231.61 19.739C229.562 17.691 226.735 16.4258 223.613 16.4258H219.343C213.098 16.4258 208.033 21.4908 208.033 27.7364Z" fill="#474747"/>
<path d="M230.103 31.1235C230.649 31.1235 231.11 30.7046 231.157 30.1503C232.134 18.1541 224.666 6.86462 212.991 2.69241C206.741 0.462438 199.142 -0.443092 192.139 0.212783C191.559 0.267792 191.132 0.784028 191.183 1.36374C191.238 1.94345 191.754 2.37082 192.334 2.32004C198.943 1.70225 206.399 2.58663 212.28 4.68542C223.053 8.53604 229.946 18.9327 229.045 29.9768C228.999 30.5607 229.43 31.0685 230.014 31.115C230.044 31.115 230.073 31.115 230.103 31.115V31.1235Z" fill="#08213C"/>
<path d="M198.3 59.7207C198.367 59.7207 198.439 59.7207 198.511 59.7122C199.721 59.6149 200.64 59.5853 201.49 59.6191C202.899 59.6657 204.076 58.5866 204.131 57.186C204.19 55.7854 203.098 54.6006 201.697 54.5456C200.627 54.5033 199.518 54.5329 198.092 54.6514C196.696 54.7656 195.655 55.9928 195.769 57.3891C195.879 58.7178 196.988 59.7207 198.295 59.7207H198.3Z" fill="#08213C"/>
<path d="M192.128 58.7078C193.63 58.7078 195.12 58.5597 196.563 58.4116C197.172 58.3524 197.781 58.2889 198.395 58.2381C198.979 58.1916 199.41 57.6796 199.364 57.0956C199.317 56.5117 198.805 56.0801 198.221 56.1266C197.599 56.1774 196.973 56.2409 196.351 56.3043C194.845 56.4567 193.423 56.6005 191.976 56.5878C190.232 56.5752 186.06 56.279 184.964 53.8332C184.799 53.4608 184.715 53.1011 184.706 52.733C184.694 52.1491 184.207 51.6709 183.623 51.7005C183.039 51.7132 182.578 52.1998 182.591 52.7838C182.608 53.4312 182.756 54.0744 183.035 54.7006C184.571 58.1408 189.289 58.6866 191.959 58.7078C192.014 58.7078 192.069 58.7078 192.128 58.7078Z" fill="#08213C"/>
<path d="M201.979 42.3543C201.979 42.6589 202.03 42.9509 202.127 43.226C202.487 42.1723 203.485 41.4191 204.657 41.4191C205.83 41.4191 206.828 42.1723 207.188 43.226C207.285 42.9552 207.336 42.6632 207.336 42.3543C207.336 40.8733 206.134 39.6758 204.657 39.6758C203.181 39.6758 201.979 40.8775 201.979 42.3543Z" fill="#08213C"/>
<path d="M186.276 42.3543C186.276 42.6589 186.327 42.9509 186.424 43.226C186.784 42.1723 187.782 41.4191 188.954 41.4191C190.126 41.4191 191.125 42.1723 191.485 43.226C191.582 42.9552 191.633 42.6632 191.633 42.3543C191.633 40.8733 190.431 39.6758 188.954 39.6758C187.478 39.6758 186.276 40.8775 186.276 42.3543Z" fill="#08213C"/>
<path d="M229.054 51.0889C233.996 51.0889 238.008 47.0817 238.008 42.1351V38.9108C238.008 33.9684 234.001 29.957 229.054 29.957C224.108 29.957 220.101 33.9642 220.101 38.9108V42.1351C220.101 47.0775 224.108 51.0889 229.054 51.0889Z" fill="#08213C"/>
<path d="M231.153 48.2669C235.329 48.2669 238.719 44.8775 238.719 40.701V37.976C238.719 33.7995 235.329 30.4102 231.153 30.4102C226.977 30.4102 223.587 33.7995 223.587 37.976V40.701C223.587 44.8775 226.977 48.2669 231.153 48.2669Z" fill="#021027"/>
<path d="M232.402 43.7124C234.903 43.7124 236.93 41.6855 236.93 39.1805V37.5472C236.93 35.0464 234.903 33.0195 232.402 33.0195C229.901 33.0195 227.875 35.0464 227.875 37.5472V39.1805C227.875 41.6813 229.901 43.7124 232.402 43.7124Z" fill="#08213C"/>
<path d="M182.174 18.9112C182.174 22.199 183.507 25.178 185.661 27.3318C187.819 29.4856 190.793 30.8185 194.081 30.8185H198.968C199.628 30.8185 200.276 30.7635 200.906 30.6619C198.393 30.2515 196.146 29.054 194.42 27.3318C192.266 25.178 190.933 22.199 190.933 18.9112C190.933 12.9956 195.249 8.08716 200.906 7.16047C200.276 7.05892 199.628 7.00391 198.968 7.00391H194.081C187.505 7.00391 182.174 12.3355 182.174 18.9112Z" fill="#474747"/>
<path d="M206.028 46.4172C210.957 46.4172 214.969 42.4058 214.969 37.4762V36.7695H197.087V37.4762C197.087 42.4058 201.098 46.4172 206.028 46.4172ZM213.526 38.1828C213.17 42.0038 209.942 45.0039 206.028 45.0039C202.114 45.0039 198.89 42.0038 198.53 38.1828H213.522H213.526Z" fill="white"/>
<path d="M188.153 46.4172C193.082 46.4172 197.094 42.4058 197.094 37.4762V36.7695H179.212V37.4762C179.212 42.4058 183.223 46.4172 188.153 46.4172ZM195.651 38.1828C195.295 42.0038 192.067 45.0039 188.153 45.0039C184.239 45.0039 181.015 42.0038 180.655 38.1828H195.647H195.651Z" fill="white"/>
<path d="M209.426 119.525C213.441 120.431 216.695 117.913 216.695 113.897V105.794C210.111 107.309 205.266 105.109 202.156 101.406V110.618C202.156 114.634 205.41 118.624 209.426 119.53V119.525Z" fill="#08213C"/>
<path d="M256.83 166.47H270.171C271.691 166.47 272.922 165.238 272.922 163.719C272.922 162.2 271.691 160.969 270.171 160.969H256.83C255.311 160.969 254.08 162.2 254.08 163.719C254.08 165.238 255.311 166.47 256.83 166.47Z" fill="#112C45"/>
<path d="M25.9809 166.47H256.828C258.347 166.47 259.578 165.238 259.578 163.719C259.578 162.2 258.347 160.969 256.828 160.969H25.9809C24.4619 160.969 23.2305 162.2 23.2305 163.719C23.2305 165.238 24.4619 166.47 25.9809 166.47Z" fill="#112C45"/>
<path d="M153.178 155.752C154.333 155.752 155.484 155.282 156.317 154.36L162.686 147.318L169.926 147.894C172.257 148.08 174.292 146.341 174.479 144.009C174.665 141.678 172.926 139.643 170.594 139.456L161.281 138.716C159.969 138.614 158.687 139.122 157.807 140.095L150.042 148.681C148.477 150.416 148.608 153.09 150.343 154.656C151.151 155.388 152.167 155.747 153.182 155.747L153.178 155.752Z" fill="#F4A9B2"/>
<path d="M162.617 155.2C163.7 155.2 164.788 154.786 165.613 153.956L170.352 149.2L177.715 149.784C180.042 149.97 182.081 148.231 182.268 145.899C182.454 143.568 180.715 141.533 178.383 141.346L169.07 140.606C167.83 140.513 166.616 140.957 165.74 141.837L159.621 147.977C157.971 149.632 157.975 152.31 159.63 153.96C160.455 154.785 161.538 155.196 162.617 155.196V155.2Z" fill="#F4A9B2"/>
<path d="M137.148 69.7422H158.779C160.312 69.7422 161.555 70.985 161.555 72.518V100.395C161.555 101.928 160.312 103.171 158.779 103.171H137.148C135.615 103.171 134.372 101.928 134.372 100.395V72.518C134.372 70.985 135.615 69.7422 137.148 69.7422Z" fill="#F7D45C"/>
<path d="M137.408 69.7422H144.923C146.601 69.7422 147.961 71.1024 147.961 72.7804V100.132C147.961 101.81 146.601 103.171 144.923 103.171H137.408C135.73 103.171 134.37 101.81 134.37 100.132V72.7804C134.37 71.1024 135.73 69.7422 137.408 69.7422Z" fill="#F6B95E"/>
<path d="M138.822 98.6746C139.99 98.6746 140.938 97.7267 140.938 96.5588C140.938 95.391 139.99 94.4431 138.822 94.4431C134.417 94.4431 130.837 90.8591 130.837 86.4584C130.837 82.0577 134.421 78.4736 138.822 78.4736C139.99 78.4736 140.938 77.5258 140.938 76.3579C140.938 75.19 139.99 74.2422 138.822 74.2422C132.085 74.2422 126.606 79.7219 126.606 86.4584C126.606 93.1948 132.085 98.6746 138.822 98.6746Z" fill="#F7D45C"/>
<path d="M144.431 94.0928C140.218 92.1391 138.387 87.1404 140.341 82.9278C142.294 78.7153 147.293 76.884 151.505 78.8376C155.718 80.7913 157.549 85.79 155.596 90.0026C153.642 94.2151 148.643 96.0464 144.431 94.0928Z" fill="#FFE890"/>
<path d="M122.096 94.5535C123.632 94.5535 125.113 93.7156 125.866 92.2516L130.525 83.1666C131.591 81.089 130.77 78.5374 128.693 77.4711C126.615 76.4048 124.064 77.2257 122.997 79.3033L118.339 88.3882C117.272 90.4659 118.093 93.0174 120.171 94.0838C120.789 94.4011 121.449 94.5492 122.1 94.5492L122.096 94.5535Z" fill="#F4818A"/>
<path d="M138.022 84.9583C140.205 84.9583 142.059 83.2784 142.236 81.0611C142.423 78.7338 140.683 76.6943 138.352 76.5081L129.039 75.7676C126.716 75.5814 124.672 77.3205 124.486 79.652C124.3 81.9793 126.039 84.0189 128.37 84.2051L137.683 84.9456C137.798 84.954 137.912 84.9583 138.022 84.9583Z" fill="#F4A9B2"/>
<path d="M122.573 101.12C124.109 101.12 125.59 100.282 126.343 98.818L131.002 89.733C132.068 87.6554 131.247 85.1038 129.169 84.0375C127.092 82.9712 124.54 83.7921 123.474 85.8697L118.815 94.9547C117.749 97.0323 118.57 99.5839 120.647 100.65C121.265 100.968 121.925 101.116 122.577 101.116L122.573 101.12Z" fill="#F4818A"/>
<path d="M136.795 91.4192C138.979 91.4192 140.832 89.7393 141.01 87.522C141.196 85.1905 139.457 83.1552 137.125 82.969L127.812 82.2285C125.481 82.0423 123.445 83.7814 123.259 86.113C123.073 88.4445 124.812 90.4798 127.144 90.666L136.457 91.4065C136.571 91.415 136.685 91.4192 136.795 91.4192Z" fill="#F4A9B2"/>
<path d="M123.39 104.569C124.545 104.569 125.696 104.099 126.53 103.177L133.376 95.6027C134.942 93.8678 134.81 91.1936 133.076 89.6279C131.341 88.0623 128.666 88.1935 127.101 89.9284L120.255 97.5027C118.689 99.2375 118.82 101.912 120.555 103.477C121.363 104.209 122.379 104.569 123.39 104.569Z" fill="#F4818A"/>
<path d="M139.561 97.7395C141.744 97.7395 143.598 96.0596 143.775 93.8424C143.962 91.5108 142.222 89.4755 139.891 89.2893L130.578 88.5488C128.246 88.3626 126.211 90.1018 126.025 92.4333C125.839 94.7648 127.578 96.8001 129.909 96.9863L139.222 97.7268C139.337 97.7353 139.451 97.7395 139.561 97.7395Z" fill="#F4A9B2"/>
<path d="M59.2921 148.9H140.911C143.327 148.9 144.969 146.445 144.042 144.211L119.174 84.2389C117.985 81.37 115.189 79.5039 112.083 79.5039H29.8798C27.7429 79.5039 26.2916 81.6746 27.1082 83.6507L52.196 144.165C53.3851 147.034 56.182 148.9 59.2878 148.9H59.2921Z" fill="white"/>
<path d="M53.7921 154.404H135.411C137.827 154.404 139.469 151.949 138.542 149.715L113.674 89.7428C112.485 86.8739 109.689 85.0078 106.583 85.0078H24.3798C22.2429 85.0078 20.7916 87.1785 21.6082 89.1546L46.696 149.669C47.8851 152.537 50.682 154.404 53.7878 154.404H53.7921Z" fill="#3280A0"/>
<path d="M75.7266 128.201C71.2247 124.864 69.3724 119.734 71.5894 116.744C73.8064 113.753 79.2531 114.034 83.7549 117.371C88.2568 120.709 90.109 125.838 87.8921 128.829C85.6751 131.82 80.2284 131.539 75.7266 128.201Z" fill="#4EA8C3"/>
<path d="M136.68 161.169H182.802C184.664 161.169 186.188 159.645 186.188 157.784C186.188 155.922 184.664 154.398 182.802 154.398H136.68C134.819 154.398 133.295 155.922 133.295 157.784C133.295 159.645 134.819 161.169 136.68 161.169Z" fill="#3280A0"/>
<path d="M53.7412 161.169H137.099C138.961 161.169 140.484 159.645 140.484 157.784C140.484 155.922 138.961 154.398 137.099 154.398H53.7412C51.8794 154.398 50.3561 155.922 50.3561 157.784C50.3561 159.645 51.8794 161.169 53.7412 161.169Z" fill="#23668A"/>
<path d="M169.895 159.053H180.473C181.057 159.053 181.531 158.579 181.531 157.995C181.531 157.411 181.057 156.938 180.473 156.938H169.895C169.311 156.938 168.837 157.411 168.837 157.995C168.837 158.579 169.311 159.053 169.895 159.053Z" fill="#4EA8C3"/>
<path d="M148.741 159.053H150.856C151.44 159.053 151.914 158.579 151.914 157.995C151.914 157.411 151.44 156.938 150.856 156.938H148.741C148.157 156.938 147.683 157.411 147.683 157.995C147.683 158.579 148.157 159.053 148.741 159.053Z" fill="#4EA8C3"/>
<path d="M144.933 159.053H145.356C145.94 159.053 146.414 158.579 146.414 157.995C146.414 157.411 145.94 156.938 145.356 156.938H144.933C144.349 156.938 143.875 157.411 143.875 157.995C143.875 158.579 144.349 159.053 144.933 159.053Z" fill="#4EA8C3"/>
<path d="M60.299 159.053H61.1453C61.7292 159.053 62.2031 158.579 62.2031 157.995C62.2031 157.411 61.7292 156.938 61.1453 156.938H60.299C59.7151 156.938 59.2412 157.411 59.2412 157.995C59.2412 158.579 59.7151 159.053 60.299 159.053Z" fill="#3280A0"/>
<path d="M55.6428 159.053H56.489C57.073 159.053 57.5469 158.579 57.5469 157.995C57.5469 157.411 57.073 156.938 56.489 156.938H55.6428C55.0588 156.938 54.5849 157.411 54.5849 157.995C54.5849 158.579 55.0588 159.053 55.6428 159.053Z" fill="#3280A0"/>
<path d="M132.404 157.63C131.936 157.63 131.557 157.251 131.557 156.784C131.557 156.316 131.936 155.938 132.404 155.938C132.871 155.938 133.25 156.316 133.25 156.784C133.25 157.251 132.871 157.63 132.404 157.63Z" fill="#3280A0"/>
<path d="M130.708 159.958C130.241 159.958 129.862 159.579 129.862 159.112C129.862 158.645 130.241 158.266 130.708 158.266C131.176 158.266 131.555 158.645 131.555 159.112C131.555 159.579 131.176 159.958 130.708 159.958Z" fill="#3280A0"/>
<path d="M127.083 159.958C126.616 159.958 126.237 159.579 126.237 159.112C126.237 158.645 126.616 158.266 127.083 158.266C127.551 158.266 127.93 158.645 127.93 159.112C127.93 159.579 127.551 159.958 127.083 159.958Z" fill="#3280A0"/>
<path d="M123.443 159.958C122.975 159.958 122.597 159.579 122.597 159.112C122.597 158.645 122.975 158.266 123.443 158.266C123.91 158.266 124.289 158.645 124.289 159.112C124.289 159.579 123.91 159.958 123.443 159.958Z" fill="#3280A0"/>
<path d="M128.896 157.63C128.429 157.63 128.05 157.251 128.05 156.784C128.05 156.316 128.429 155.938 128.896 155.938C129.363 155.938 129.742 156.316 129.742 156.784C129.742 157.251 129.363 157.63 128.896 157.63Z" fill="#3280A0"/>
<path d="M125.388 157.63C124.921 157.63 124.542 157.251 124.542 156.784C124.542 156.316 124.921 155.938 125.388 155.938C125.855 155.938 126.234 156.316 126.234 156.784C126.234 157.251 125.855 157.63 125.388 157.63Z" fill="#3280A0"/>
<path d="M121.872 157.63C121.405 157.63 121.026 157.251 121.026 156.784C121.026 156.316 121.405 155.938 121.872 155.938C122.34 155.938 122.719 156.316 122.719 156.784C122.719 157.251 122.34 157.63 121.872 157.63Z" fill="#3280A0"/>
<path d="M171.053 156.278C172.323 156.278 173.579 155.706 174.413 154.619L177.32 150.827L184.34 151.386C186.671 151.572 188.706 149.833 188.893 147.501C189.079 145.17 187.34 143.135 185.008 142.948L175.695 142.208C174.265 142.098 172.873 142.711 172.001 143.85L167.693 149.465C166.272 151.318 166.623 153.976 168.476 155.397C169.242 155.986 170.152 156.273 171.049 156.273L171.053 156.278Z" fill="#F4A9B2"/>
<path fill-rule="evenodd" clip-rule="evenodd" d="M34.1349 5.08203H156.862C165.684 5.08203 172.903 12.2966 172.903 21.1235V46.3937C172.903 52.9143 168.963 58.5548 163.344 61.0556V71.4142L152.973 62.4308H34.1349C25.3125 62.4308 18.0938 55.212 18.0938 46.3894V21.1192C18.0938 12.2967 25.3125 5.08203 34.1349 5.08203Z" fill="#417465"/>
<path d="M36.7099 27.3659C36.1114 27.3659 35.6547 27.2005 35.3397 26.8698C35.0247 26.539 34.8672 26.0744 34.8672 25.4759V12.3641C34.8672 11.7499 35.0247 11.2853 35.3397 10.9703C35.6704 10.6553 36.135 10.4978 36.7335 10.4978H42.4743C44.3327 10.4978 45.7659 10.9703 46.7739 11.9153C47.7819 12.8445 48.2859 14.1439 48.2859 15.8134C48.2859 17.4829 47.7819 18.7901 46.7739 19.7351C45.7659 20.6801 44.3327 21.1526 42.4743 21.1526H38.529V25.4759C38.529 26.0744 38.3715 26.539 38.0565 26.8698C37.7572 27.2005 37.3084 27.3659 36.7099 27.3659ZM38.529 18.3176H41.86C42.805 18.3176 43.5216 18.105 44.0098 17.6797C44.5138 17.2545 44.7658 16.6324 44.7658 15.8134C44.7658 14.9944 44.5138 14.3801 44.0098 13.9706C43.5216 13.5611 42.805 13.3564 41.86 13.3564H38.529V18.3176Z" fill="white"/>
<path d="M55.6495 27.4132C54.2793 27.4132 53.098 27.169 52.1058 26.6808C51.1293 26.1768 50.3734 25.4759 49.8379 24.5782C49.3181 23.6647 49.0583 22.5937 49.0583 21.3652C49.0583 20.1682 49.3103 19.1208 49.8143 18.2231C50.3182 17.3096 51.0191 16.6009 51.9168 16.0969C52.8303 15.5771 53.8619 15.3172 55.0116 15.3172C55.8464 15.3172 56.6023 15.459 57.2796 15.7425C57.9568 16.0102 58.5395 16.404 59.0278 16.9237C59.516 17.4277 59.8861 18.0499 60.1381 18.7901C60.3901 19.5146 60.5161 20.3257 60.5161 21.2235C60.5161 21.5227 60.4216 21.7511 60.2326 21.9086C60.0436 22.0503 59.768 22.1212 59.4058 22.1212H51.9877V20.2785H57.9411L57.5631 20.6092C57.5631 19.9635 57.4686 19.428 57.2796 19.0027C57.0906 18.5617 56.815 18.231 56.4527 18.0105C56.1062 17.79 55.6731 17.6797 55.1534 17.6797C54.5706 17.6797 54.0745 17.8136 53.665 18.0814C53.2555 18.3491 52.9406 18.735 52.7201 19.239C52.4996 19.743 52.3893 20.3493 52.3893 21.0581V21.2471C52.3893 22.4441 52.6649 23.3261 53.2162 23.8931C53.7832 24.4601 54.6179 24.7436 55.7204 24.7436C56.0983 24.7436 56.5315 24.6963 57.0197 24.6018C57.5079 24.5073 57.9647 24.3577 58.3899 24.1529C58.7522 23.9797 59.075 23.9246 59.3585 23.9876C59.642 24.0348 59.8625 24.1608 60.02 24.3656C60.1775 24.5703 60.2641 24.8066 60.2799 25.0743C60.3114 25.3421 60.2562 25.6098 60.1145 25.8776C59.9728 26.1296 59.7365 26.3422 59.4058 26.5154C58.8703 26.8147 58.2639 27.0352 57.5867 27.1769C56.9252 27.3344 56.2795 27.4132 55.6495 27.4132Z" fill="white"/>
<path d="M64.3865 27.3659C63.8037 27.3659 63.3549 27.2084 63.0399 26.8934C62.7406 26.5784 62.591 26.1296 62.591 25.5468V17.16C62.591 16.5772 62.7406 16.1362 63.0399 15.837C63.3549 15.522 63.788 15.3645 64.3392 15.3645C64.9062 15.3645 65.3393 15.522 65.6386 15.837C65.9378 16.1362 66.0874 16.5772 66.0874 17.16V18.5066L65.8276 17.727C66.1898 16.9552 66.7253 16.3646 67.434 15.9551C68.1585 15.5299 68.9775 15.3172 69.891 15.3172C70.8202 15.3172 71.584 15.4984 72.1825 15.8606C72.781 16.2071 73.2299 16.7426 73.5291 17.4671C73.8284 18.1759 73.978 19.0815 73.978 20.184V25.5468C73.978 26.1296 73.8205 26.5784 73.5055 26.8934C73.2062 27.2084 72.7653 27.3659 72.1825 27.3659C71.6155 27.3659 71.1745 27.2084 70.8596 26.8934C70.5603 26.5784 70.4107 26.1296 70.4107 25.5468V20.3493C70.4107 19.5461 70.2611 18.9712 69.9618 18.6247C69.6783 18.2625 69.2373 18.0814 68.6389 18.0814C67.8829 18.0814 67.2765 18.3176 66.8198 18.7901C66.3788 19.2626 66.1583 19.8926 66.1583 20.6801V25.5468C66.1583 26.7595 65.5677 27.3659 64.3865 27.3659Z" fill="white"/>
<path d="M82.2164 31.6656C81.366 31.6656 80.547 31.5948 79.7595 31.453C78.9878 31.3113 78.3027 31.0986 77.7042 30.8151C77.3419 30.6576 77.0821 30.4529 76.9246 30.2009C76.7828 29.9489 76.7198 29.6812 76.7356 29.3977C76.7671 29.1142 76.8616 28.8622 77.0191 28.6417C77.1923 28.4212 77.4049 28.2637 77.6569 28.1692C77.9089 28.0904 78.1767 28.114 78.4602 28.24C79.1531 28.555 79.791 28.7598 80.3737 28.8543C80.9722 28.9488 81.4841 28.996 81.9093 28.996C82.9173 28.996 83.6733 28.7677 84.1773 28.3109C84.6813 27.8542 84.9333 27.1533 84.9333 26.2083V24.4128H85.1459C84.9096 25.1373 84.4214 25.7279 83.6812 26.1847C82.9409 26.6414 82.1219 26.8698 81.2242 26.8698C80.1847 26.8698 79.2791 26.6335 78.5074 26.1611C77.7357 25.6728 77.1372 24.9956 76.712 24.1293C76.2867 23.2473 76.0741 22.2315 76.0741 21.0817C76.0741 20.2155 76.1922 19.428 76.4285 18.7192C76.6805 18.0105 77.0269 17.4041 77.4679 16.9001C77.9247 16.3961 78.468 16.0102 79.098 15.7425C79.7438 15.459 80.4525 15.3172 81.2242 15.3172C82.1534 15.3172 82.9724 15.5456 83.6812 16.0024C84.4056 16.4434 84.886 17.0261 85.1222 17.7506L84.886 18.5066V17.16C84.886 16.5772 85.0356 16.1362 85.3349 15.837C85.6499 15.522 86.0909 15.3645 86.6578 15.3645C87.2248 15.3645 87.6579 15.522 87.9572 15.837C88.2564 16.1362 88.406 16.5772 88.406 17.16V25.8067C88.406 27.7439 87.8706 29.2008 86.7996 30.1773C85.7444 31.1695 84.2166 31.6656 82.2164 31.6656ZM82.2873 24.2002C82.8228 24.2002 83.2795 24.0742 83.6575 23.8222C84.0513 23.5702 84.3584 23.2158 84.5789 22.7591C84.7994 22.2866 84.9096 21.7275 84.9096 21.0817C84.9096 20.1052 84.6655 19.3492 84.1773 18.8137C83.7048 18.2625 83.0748 17.9869 82.2873 17.9869C81.7518 17.9869 81.2872 18.1129 80.8935 18.3649C80.4997 18.6011 80.1926 18.9555 79.9721 19.428C79.7674 19.8847 79.665 20.436 79.665 21.0817C79.665 22.0582 79.9013 22.8221 80.3737 23.3733C80.8462 23.9246 81.4841 24.2002 82.2873 24.2002Z" fill="white"/>
<path d="M95.0973 27.4132C94.2468 27.4132 93.483 27.2478 92.8057 26.917C92.1285 26.5863 91.6009 26.1374 91.2229 25.5704C90.8449 25.0034 90.6559 24.3656 90.6559 23.6568C90.6559 22.8063 90.8764 22.137 91.3174 21.6487C91.7584 21.1447 92.475 20.7903 93.4672 20.5856C94.4594 20.3651 95.7745 20.2548 97.4125 20.2548H98.6646V22.0976H97.4361C96.6329 22.0976 95.9793 22.1448 95.4753 22.2393C94.987 22.3181 94.6327 22.4598 94.4122 22.6646C94.2074 22.8693 94.1051 23.1528 94.1051 23.5151C94.1051 23.9561 94.2547 24.3183 94.5539 24.6018C94.8689 24.8853 95.3178 25.0271 95.9005 25.0271C96.3573 25.0271 96.7589 24.9247 97.1054 24.7199C97.4676 24.4994 97.7511 24.2081 97.9559 23.8458C98.1606 23.4678 98.263 23.0426 98.263 22.5701V19.8532C98.263 19.1602 98.1055 18.672 97.7905 18.3885C97.4755 18.0892 96.94 17.9396 96.184 17.9396C95.7588 17.9396 95.2942 17.9947 94.7902 18.105C94.3019 18.1995 93.7586 18.3649 93.1601 18.6011C92.8136 18.7586 92.5065 18.798 92.2387 18.7192C91.971 18.6247 91.7663 18.4672 91.6245 18.2467C91.4828 18.0105 91.4119 17.7585 91.4119 17.4907C91.4119 17.2072 91.4906 16.9395 91.6481 16.6875C91.8056 16.4197 92.0655 16.2229 92.4277 16.0969C93.168 15.7976 93.861 15.5929 94.5067 15.4826C95.1682 15.3724 95.7745 15.3172 96.3258 15.3172C97.5385 15.3172 98.5307 15.4984 99.3024 15.8606C100.09 16.2071 100.681 16.7505 101.074 17.4907C101.468 18.2152 101.665 19.1523 101.665 20.3021V25.5468C101.665 26.1296 101.523 26.5784 101.24 26.8934C100.956 27.2084 100.547 27.3659 100.011 27.3659C99.4757 27.3659 99.0583 27.2084 98.7591 26.8934C98.4756 26.5784 98.3338 26.1296 98.3338 25.5468V24.6727L98.4992 24.8144C98.4047 25.3499 98.2 25.8146 97.885 26.2083C97.5857 26.5863 97.1999 26.8855 96.7274 27.106C96.2549 27.3108 95.7115 27.4132 95.0973 27.4132Z" fill="white"/>
<path d="M108.838 27.4132C107.83 27.4132 106.94 27.169 106.169 26.6808C105.413 26.1926 104.822 25.4917 104.397 24.5782C103.972 23.6647 103.759 22.5858 103.759 21.3416C103.759 20.0973 103.972 19.0263 104.397 18.1286C104.822 17.2309 105.413 16.5379 106.169 16.0496C106.94 15.5614 107.83 15.3172 108.838 15.3172C109.752 15.3172 110.555 15.5377 111.248 15.9787C111.957 16.4197 112.437 16.9946 112.689 17.7034H112.429V12.1043C112.429 11.5058 112.579 11.0569 112.878 10.7577C113.177 10.4427 113.618 10.2852 114.201 10.2852C114.768 10.2852 115.209 10.4427 115.524 10.7577C115.839 11.0569 115.996 11.5058 115.996 12.1043V25.5468C115.996 26.1296 115.839 26.5784 115.524 26.8934C115.225 27.2084 114.792 27.3659 114.225 27.3659C113.658 27.3659 113.217 27.2084 112.902 26.8934C112.602 26.5784 112.453 26.1296 112.453 25.5468V23.9403L112.713 24.8617C112.492 25.6334 112.02 26.2556 111.295 26.728C110.586 27.1848 109.767 27.4132 108.838 27.4132ZM109.901 24.7436C110.421 24.7436 110.87 24.6176 111.248 24.3656C111.626 24.1136 111.925 23.7434 112.146 23.2552C112.366 22.7512 112.476 22.1133 112.476 21.3416C112.476 20.1918 112.24 19.3492 111.768 18.8137C111.295 18.2625 110.673 17.9869 109.901 17.9869C109.397 17.9869 108.948 18.105 108.555 18.3412C108.177 18.5775 107.877 18.9476 107.657 19.4516C107.452 19.9398 107.35 20.5698 107.35 21.3416C107.35 22.4913 107.586 23.3497 108.059 23.9167C108.531 24.4679 109.145 24.7436 109.901 24.7436Z" fill="white"/>
<path d="M123.021 27.4132C122.045 27.4132 121.234 27.232 120.588 26.8698C119.942 26.5075 119.462 25.9642 119.147 25.2397C118.848 24.4994 118.698 23.5859 118.698 22.4992V17.16C118.698 16.5615 118.848 16.1126 119.147 15.8134C119.462 15.5141 119.903 15.3645 120.47 15.3645C121.037 15.3645 121.478 15.5141 121.793 15.8134C122.108 16.1126 122.265 16.5615 122.265 17.16V22.5937C122.265 23.2867 122.407 23.8064 122.69 24.1529C122.974 24.4837 123.423 24.6491 124.037 24.6491C124.714 24.6491 125.266 24.4128 125.691 23.9403C126.132 23.4521 126.352 22.8142 126.352 22.0267V17.16C126.352 16.5615 126.502 16.1126 126.801 15.8134C127.116 15.5141 127.557 15.3645 128.124 15.3645C128.707 15.3645 129.148 15.5141 129.447 15.8134C129.762 16.1126 129.92 16.5615 129.92 17.16V25.5468C129.92 26.7595 129.345 27.3659 128.195 27.3659C127.628 27.3659 127.195 27.2084 126.896 26.8934C126.596 26.5784 126.447 26.1296 126.447 25.5468V23.9639L126.801 24.8853C126.455 25.6886 125.958 26.3107 125.313 26.7517C124.667 27.1927 123.903 27.4132 123.021 27.4132Z" fill="white"/>
<path d="M136.602 27.4132C135.751 27.4132 134.987 27.2478 134.31 26.917C133.633 26.5863 133.105 26.1374 132.727 25.5704C132.349 25.0034 132.16 24.3656 132.16 23.6568C132.16 22.8063 132.381 22.137 132.822 21.6487C133.263 21.1447 133.979 20.7903 134.971 20.5856C135.964 20.3651 137.279 20.2548 138.917 20.2548H140.169V22.0976H138.94C138.137 22.0976 137.484 22.1448 136.98 22.2393C136.491 22.3181 136.137 22.4598 135.916 22.6646C135.712 22.8693 135.609 23.1528 135.609 23.5151C135.609 23.9561 135.759 24.3183 136.058 24.6018C136.373 24.8853 136.822 25.0271 137.405 25.0271C137.862 25.0271 138.263 24.9247 138.61 24.7199C138.972 24.4994 139.255 24.2081 139.46 23.8458C139.665 23.4678 139.767 23.0426 139.767 22.5701V19.8532C139.767 19.1602 139.61 18.672 139.295 18.3885C138.98 18.0892 138.444 17.9396 137.688 17.9396C137.263 17.9396 136.798 17.9947 136.294 18.105C135.806 18.1995 135.263 18.3649 134.664 18.6011C134.318 18.7586 134.011 18.798 133.743 18.7192C133.475 18.6247 133.27 18.4672 133.129 18.2467C132.987 18.0105 132.916 17.7585 132.916 17.4907C132.916 17.2072 132.995 16.9395 133.152 16.6875C133.31 16.4197 133.57 16.2229 133.932 16.0969C134.672 15.7976 135.365 15.5929 136.011 15.4826C136.672 15.3724 137.279 15.3172 137.83 15.3172C139.043 15.3172 140.035 15.4984 140.807 15.8606C141.594 16.2071 142.185 16.7505 142.579 17.4907C142.972 18.2152 143.169 19.1523 143.169 20.3021V25.5468C143.169 26.1296 143.027 26.5784 142.744 26.8934C142.46 27.2084 142.051 27.3659 141.515 27.3659C140.98 27.3659 140.563 27.2084 140.263 26.8934C139.98 26.5784 139.838 26.1296 139.838 25.5468V24.6727L140.003 24.8144C139.909 25.3499 139.704 25.8146 139.389 26.2083C139.09 26.5863 138.704 26.8855 138.232 27.106C137.759 27.3108 137.216 27.4132 136.602 27.4132Z" fill="white"/>
<path d="M147.626 27.3659C147.043 27.3659 146.594 27.2084 146.279 26.8934C145.98 26.5784 145.83 26.1296 145.83 25.5468V17.16C145.83 16.5772 145.98 16.1362 146.279 15.837C146.594 15.522 147.027 15.3645 147.578 15.3645C148.145 15.3645 148.578 15.522 148.878 15.837C149.177 16.1362 149.327 16.5772 149.327 17.16V18.5066L149.067 17.727C149.429 16.9552 149.964 16.3646 150.673 15.9551C151.398 15.5299 152.217 15.3172 153.13 15.3172C154.059 15.3172 154.823 15.4984 155.422 15.8606C156.02 16.2071 156.469 16.7426 156.768 17.4671C157.068 18.1759 157.217 19.0815 157.217 20.184V25.5468C157.217 26.1296 157.06 26.5784 156.745 26.8934C156.445 27.2084 156.004 27.3659 155.422 27.3659C154.855 27.3659 154.414 27.2084 154.099 26.8934C153.799 26.5784 153.65 26.1296 153.65 25.5468V20.3493C153.65 19.5461 153.5 18.9712 153.201 18.6247C152.918 18.2625 152.477 18.0814 151.878 18.0814C151.122 18.0814 150.516 18.3176 150.059 18.7901C149.618 19.2626 149.397 19.8926 149.397 20.6801V25.5468C149.397 26.7595 148.807 27.3659 147.626 27.3659Z" fill="white"/>
<path d="M56.0206 50.8494C55.4222 50.8494 54.9575 50.684 54.6268 50.3533C54.3118 50.0225 54.1543 49.5658 54.1543 48.983V36.013C54.1543 35.3988 54.3118 34.9341 54.6268 34.6191C54.9418 34.3041 55.3985 34.1466 55.997 34.1466C56.5798 34.1466 57.0286 34.3041 57.3436 34.6191C57.6586 34.9341 57.8161 35.3988 57.8161 36.013V47.7546H64.1475C64.6514 47.7546 65.0373 47.8884 65.305 48.1562C65.5885 48.4239 65.7303 48.8019 65.7303 49.2902C65.7303 49.7942 65.5885 50.18 65.305 50.4478C65.0373 50.7155 64.6514 50.8494 64.1475 50.8494H56.0206Z" fill="white"/>
<path d="M71.3114 51.1093C70.4609 51.1093 69.697 50.9439 69.0198 50.6132C68.3426 50.2824 67.815 49.8335 67.437 49.2665C67.059 48.6995 66.87 48.0617 66.87 47.3529C66.87 46.5024 67.0905 45.8331 67.5315 45.3448C67.9725 44.8408 68.6891 44.4864 69.6813 44.2817C70.6735 44.0612 71.9886 43.951 73.6266 43.951H74.8787V45.7937H73.6502C72.847 45.7937 72.1934 45.8409 71.6894 45.9354C71.2011 46.0142 70.8468 46.1559 70.6263 46.3607C70.4215 46.5654 70.3191 46.8489 70.3191 47.2112C70.3191 47.6522 70.4688 48.0144 70.768 48.2979C71.083 48.5814 71.5319 48.7232 72.1146 48.7232C72.5713 48.7232 72.973 48.6208 73.3195 48.416C73.6817 48.1955 73.9652 47.9042 74.1699 47.5419C74.3747 47.1639 74.4771 46.7387 74.4771 46.2662V43.5493C74.4771 42.8563 74.3196 42.3681 74.0046 42.0846C73.6896 41.7853 73.1541 41.6357 72.3981 41.6357C71.9729 41.6357 71.5082 41.6908 71.0043 41.8011C70.516 41.8956 69.9727 42.061 69.3742 42.2972C69.0277 42.4547 68.7206 42.4941 68.4528 42.4153C68.1851 42.3208 67.9803 42.1633 67.8386 41.9428C67.6968 41.7066 67.626 41.4546 67.626 41.1868C67.626 40.9033 67.7047 40.6356 67.8622 40.3836C68.0197 40.1159 68.2796 39.919 68.6418 39.793C69.382 39.4937 70.075 39.289 70.7208 39.1787C71.3822 39.0685 71.9886 39.0134 72.5398 39.0134C73.7526 39.0134 74.7448 39.1945 75.5165 39.5567C76.304 39.9032 76.8946 40.4466 77.2884 41.1868C77.6821 41.9113 77.879 42.8485 77.879 43.9982V49.2429C77.879 49.8257 77.7372 50.2745 77.4537 50.5895C77.1702 50.9045 76.7607 51.062 76.2253 51.062C75.6898 51.062 75.2724 50.9045 74.9732 50.5895C74.6897 50.2745 74.5479 49.8257 74.5479 49.2429V48.3688L74.7133 48.5105C74.6188 49.046 74.4141 49.5107 74.0991 49.9044C73.7998 50.2824 73.4139 50.5817 72.9415 50.8022C72.469 51.0069 71.9256 51.1093 71.3114 51.1093Z" fill="white"/>
<path d="M83.5904 55.3145C83.1809 55.3145 82.8422 55.2043 82.5745 54.9837C82.3068 54.7633 82.1493 54.4719 82.102 54.1096C82.0548 53.7631 82.1178 53.393 82.291 52.9993L83.8738 49.5028V50.9675L79.6923 41.3758C79.5348 40.9663 79.4797 40.5883 79.527 40.2418C79.59 39.8796 79.7632 39.5961 80.0467 39.3914C80.3459 39.1709 80.7554 39.0606 81.2752 39.0606C81.7004 39.0606 82.039 39.163 82.291 39.3677C82.5588 39.5567 82.8029 39.9269 83.0234 40.4781L85.8111 47.5656H85.0551L87.9372 40.4545C88.1577 39.919 88.4019 39.5567 88.6696 39.3677C88.9531 39.163 89.3311 39.0606 89.8036 39.0606C90.2131 39.0606 90.5359 39.1709 90.7722 39.3914C91.0242 39.5961 91.1738 39.8717 91.221 40.2182C91.284 40.5647 91.2211 40.9427 91.0321 41.3522L85.4803 53.9443C85.2441 54.4798 84.9763 54.842 84.6771 55.031C84.3936 55.22 84.0313 55.3145 83.5904 55.3145Z" fill="white"/>
<path d="M96.7122 51.1093C95.8618 51.1093 95.0979 50.9439 94.4207 50.6132C93.7434 50.2824 93.2158 49.8335 92.8378 49.2665C92.4599 48.6995 92.2709 48.0617 92.2709 47.3529C92.2709 46.5024 92.4914 45.8331 92.9323 45.3448C93.3733 44.8408 94.0899 44.4864 95.0822 44.2817C96.0744 44.0612 97.3895 43.951 99.0274 43.951H100.28V45.7937H99.0511C98.2478 45.7937 97.5942 45.8409 97.0902 45.9354C96.602 46.0142 96.2476 46.1559 96.0271 46.3607C95.8224 46.5654 95.72 46.8489 95.72 47.2112C95.72 47.6522 95.8696 48.0144 96.1689 48.2979C96.4839 48.5814 96.9327 48.7232 97.5155 48.7232C97.9722 48.7232 98.3738 48.6208 98.7203 48.416C99.0826 48.1955 99.3661 47.9042 99.5708 47.5419C99.7756 47.1639 99.8779 46.7387 99.8779 46.2662V43.5493C99.8779 42.8563 99.7204 42.3681 99.4054 42.0846C99.0904 41.7853 98.555 41.6357 97.799 41.6357C97.3737 41.6357 96.9091 41.6908 96.4051 41.8011C95.9169 41.8956 95.3735 42.061 94.775 42.2972C94.4286 42.4547 94.1214 42.4941 93.8537 42.4153C93.586 42.3208 93.3812 42.1633 93.2395 41.9428C93.0977 41.7066 93.0268 41.4546 93.0268 41.1868C93.0268 40.9033 93.1056 40.6356 93.2631 40.3836C93.4206 40.1159 93.6805 39.919 94.0427 39.793C94.7829 39.4937 95.4759 39.289 96.1216 39.1787C96.7831 39.0685 97.3895 39.0134 97.9407 39.0134C99.1534 39.0134 100.146 39.1945 100.917 39.5567C101.705 39.9032 102.295 40.4466 102.689 41.1868C103.083 41.9113 103.28 42.8485 103.28 43.9982V49.2429C103.28 49.8257 103.138 50.2745 102.855 50.5895C102.571 50.9045 102.162 51.062 101.626 51.062C101.091 51.062 100.673 50.9045 100.374 50.5895C100.091 50.2745 99.9488 49.8257 99.9488 49.2429V48.3688L100.114 48.5105C100.02 49.046 99.8149 49.5107 99.4999 49.9044C99.2007 50.2824 98.8148 50.5817 98.3423 50.8022C97.8699 51.0069 97.3265 51.1093 96.7122 51.1093Z" fill="white"/>
<path d="M107.736 51.062C107.154 51.062 106.705 50.9045 106.39 50.5895C106.091 50.2745 105.941 49.8257 105.941 49.2429V40.8561C105.941 40.2733 106.091 39.8324 106.39 39.5331C106.705 39.2181 107.138 39.0606 107.689 39.0606C108.256 39.0606 108.689 39.2181 108.988 39.5331C109.288 39.8324 109.437 40.2733 109.437 40.8561V42.2027L109.177 41.4231C109.54 40.6513 110.075 40.0607 110.784 39.6512C111.508 39.226 112.327 39.0134 113.241 39.0134C114.17 39.0134 114.934 39.1945 115.532 39.5567C116.131 39.9032 116.58 40.4387 116.879 41.1632C117.178 41.872 117.328 42.7776 117.328 43.8801V49.2429C117.328 49.8257 117.17 50.2745 116.855 50.5895C116.556 50.9045 116.115 51.062 115.532 51.062C114.965 51.062 114.524 50.9045 114.209 50.5895C113.91 50.2745 113.761 49.8257 113.761 49.2429V44.0454C113.761 43.2422 113.611 42.6673 113.312 42.3208C113.028 41.9586 112.587 41.7775 111.989 41.7775C111.233 41.7775 110.626 42.0137 110.17 42.4862C109.729 42.9587 109.508 43.5887 109.508 44.3762V49.2429C109.508 50.4557 108.918 51.062 107.736 51.062Z" fill="white"/>
<path d="M123.913 51.1093C123.062 51.1093 122.298 50.9439 121.621 50.6132C120.944 50.2824 120.416 49.8335 120.038 49.2665C119.66 48.6995 119.471 48.0617 119.471 47.3529C119.471 46.5024 119.692 45.8331 120.133 45.3448C120.574 44.8408 121.29 44.4864 122.283 44.2817C123.275 44.0612 124.59 43.951 126.228 43.951H127.48V45.7937H126.251C125.448 45.7937 124.795 45.8409 124.291 45.9354C123.802 46.0142 123.448 46.1559 123.228 46.3607C123.023 46.5654 122.92 46.8489 122.92 47.2112C122.92 47.6522 123.07 48.0144 123.369 48.2979C123.684 48.5814 124.133 48.7232 124.716 48.7232C125.173 48.7232 125.574 48.6208 125.921 48.416C126.283 48.1955 126.566 47.9042 126.771 47.5419C126.976 47.1639 127.078 46.7387 127.078 46.2662V43.5493C127.078 42.8563 126.921 42.3681 126.606 42.0846C126.291 41.7853 125.755 41.6357 124.999 41.6357C124.574 41.6357 124.11 41.6908 123.606 41.8011C123.117 41.8956 122.574 42.061 121.975 42.2972C121.629 42.4547 121.322 42.4941 121.054 42.4153C120.786 42.3208 120.582 42.1633 120.44 41.9428C120.298 41.7066 120.227 41.4546 120.227 41.1868C120.227 40.9033 120.306 40.6356 120.463 40.3836C120.621 40.1159 120.881 39.919 121.243 39.793C121.983 39.4937 122.676 39.289 123.322 39.1787C123.984 39.0685 124.59 39.0134 125.141 39.0134C126.354 39.0134 127.346 39.1945 128.118 39.5567C128.905 39.9032 129.496 40.4466 129.89 41.1868C130.283 41.9113 130.48 42.8485 130.48 43.9982V49.2429C130.48 49.8257 130.338 50.2745 130.055 50.5895C129.771 50.9045 129.362 51.062 128.827 51.062C128.291 51.062 127.874 50.9045 127.574 50.5895C127.291 50.2745 127.149 49.8257 127.149 49.2429V48.3688L127.315 48.5105C127.22 49.046 127.015 49.5107 126.7 49.9044C126.401 50.2824 126.015 50.5817 125.543 50.8022C125.07 51.0069 124.527 51.1093 123.913 51.1093Z" fill="white"/>
<path d="M134.937 51.062C134.354 51.062 133.905 50.9045 133.59 50.5895C133.291 50.2745 133.141 49.8257 133.141 49.2429V40.8561C133.141 40.2733 133.291 39.8324 133.59 39.5331C133.905 39.2181 134.338 39.0606 134.89 39.0606C135.456 39.0606 135.89 39.2181 136.189 39.5331C136.488 39.8324 136.638 40.2733 136.638 40.8561V42.2027L136.378 41.4231C136.74 40.6513 137.276 40.0607 137.984 39.6512C138.709 39.226 139.528 39.0134 140.441 39.0134C141.37 39.0134 142.134 39.1945 142.733 39.5567C143.331 39.9032 143.78 40.4387 144.079 41.1632C144.379 41.872 144.528 42.7776 144.528 43.8801V49.2429C144.528 49.8257 144.371 50.2745 144.056 50.5895C143.757 50.9045 143.316 51.062 142.733 51.062C142.166 51.062 141.725 50.9045 141.41 50.5895C141.111 50.2745 140.961 49.8257 140.961 49.2429V44.0454C140.961 43.2422 140.811 42.6673 140.512 42.3208C140.229 41.9586 139.788 41.7775 139.189 41.7775C138.433 41.7775 137.827 42.0137 137.37 42.4862C136.929 42.9587 136.709 43.5887 136.709 44.3762V49.2429C136.709 50.4557 136.118 51.062 134.937 51.062Z" fill="white"/>
</g>
<defs>
<clipPath id="clip0_9011_26248">
<rect width="288" height="166.461" fill="white" transform="matrix(-1 0 0 1 288 0)"/>
</clipPath>
</defs>
</svg>
