<svg width="81" height="64" viewBox="0 0 81 64" fill="none" xmlns="http://www.w3.org/2000/svg">
<path d="M15.9407 54.1968C16.1281 49.971 12.9851 46.4424 12.4631 42.2531C12.0207 38.7036 13.7245 34.9379 16.5236 33.2784C18.3952 32.1687 20.666 31.929 22.3013 30.4126C24.1843 28.6664 24.7367 25.6942 24.9814 22.948C25.2262 20.2019 25.3253 17.2895 26.6537 14.9777C28.6052 11.5817 33.1967 10.6399 36.0716 13.0461C38.5097 15.0865 39.4888 18.8142 41.9095 20.8811C44.1718 22.8127 47.2916 22.9191 50.0498 22.196C52.808 21.4729 55.3749 20.025 58.0811 19.0823C60.2331 18.3328 62.5456 17.9076 64.7333 18.5095C66.921 19.1116 68.9535 20.9125 69.5128 23.3879C70.6363 28.3604 65.7172 32.9186 66.2133 38.0211C66.6094 42.0951 70.1781 44.6216 72.3341 47.9093C75.1574 52.2143 73.1177 63.0926 73.1177 63.0926C73.1177 63.0926 67.7455 63.0218 67 63C64.7582 62.9345 58.7421 63.0492 56.5 63C51.8977 62.8988 50.1031 63.0329 45.5 63C36.2939 62.9342 29 63 29 63C27.5659 63.0327 13.5 63 13.5 63C13.5674 62.0954 14.638 58.5295 15.0144 57.7235C15.5278 56.6242 15.8852 55.448 15.9407 54.1968Z" fill="#EBFAF7"/>
<path d="M21.8127 25.36C22.3788 23.9334 22.6555 22.2383 22.0707 20.8216C21.4858 19.4048 19.7987 18.5419 18.6468 19.4012C17.7853 20.044 17.5245 21.3094 17.168 22.4077C16.6559 23.9851 15.8106 25.4216 14.723 26.5626C13.8348 27.4944 12.488 28.6474 13.0735 30.2204C13.5378 31.4676 14.8448 32.0274 15.9226 31.6981C18.3265 30.9634 20.829 27.8391 21.8127 25.36Z" fill="#EBFAF7"/>
<path d="M68.8872 36.466C68.4379 37.2575 68.3658 38.2733 68.5579 39.1894C68.7499 40.1055 69.1838 40.9345 69.6844 41.6854C70.258 42.5457 70.9268 43.3242 71.6702 43.9965C71.9928 44.2883 72.3874 44.5751 72.7893 44.4695C73.2498 44.3485 73.4898 43.7762 73.6097 43.2572C74.0603 41.3077 73.656 39.1624 72.6432 37.523C71.717 36.024 70.1646 34.2161 68.8872 36.466Z" fill="#EBFAF7"/>
<path d="M19.2108 28.8416C19.797 29.7224 20.3857 30.6153 20.7783 31.6253C21.1709 32.6352 21.3555 33.787 21.1004 34.8522C20.7219 36.4324 19.3982 37.5776 17.9805 37.8796C16.5629 38.1815 15.0847 37.7438 13.8096 36.9782C12.5344 36.2126 11.429 35.1355 10.3355 34.0675" stroke="#DFFDF5" stroke-miterlimit="10"/>
<path d="M17.02 29.0345C17.7867 30.753 17.3567 33.0478 16.0403 34.2632C14.7239 35.4786 12.6572 35.4888 11.3315 34.2865" stroke="#DFFDF5" stroke-miterlimit="10"/>
<path d="M73.1712 56.6978C73.1712 56.6978 72.5804 55.8637 71.3013 56.0476C70.2458 56.1992 69.7488 57.166 68.853 56.7622C68.853 56.7622 71.607 59.4118 73.1712 56.6978Z" fill="#A7DCD2"/>
<path d="M74.6888 59.3098C74.6888 59.3098 74.1353 58.4105 72.8561 58.5943C71.8006 58.7459 70.9748 59.2711 70.0789 58.8673C70.0789 58.8673 73.1245 62.0239 74.6888 59.3098Z" fill="#A7DCD2"/>
<path d="M71.5344 54.7456C71.5344 54.7456 71.0274 54.0005 69.8924 54.1991C68.9557 54.363 68.4978 55.2555 67.7129 54.9096C67.7129 54.9096 70.0991 57.2553 71.5344 54.7456Z" fill="#A7DCD2"/>
<path d="M69.9418 53.0898C69.9418 53.0898 69.4922 52.444 68.5047 52.5994C67.6898 52.7275 67.2998 53.4871 66.6118 53.1801C66.6118 53.1801 68.7162 55.2236 69.9418 53.0898Z" fill="#A7DCD2"/>
<path d="M70.428 52.159C70.428 52.159 69.8811 52.1405 69.6281 51.4177C69.4194 50.8213 69.583 50.1994 69.3456 49.8556C69.3456 49.8556 71.1406 50.6628 70.428 52.159Z" fill="#A7DCD2"/>
<path d="M72.3372 53.4108C72.3372 53.4108 71.7715 53.3503 71.6069 52.5578C71.4711 51.9037 71.7257 51.2502 71.5257 50.8646C71.5257 50.8646 73.2811 51.8623 72.3372 53.4108Z" fill="#A7DCD2"/>
<path d="M73.9173 55.738C73.9173 55.738 73.1962 55.2764 73.341 54.1193C73.4449 53.2891 73.8106 52.7689 73.6886 52.1757C73.6886 52.1757 75.4008 54.3248 73.9173 55.738Z" fill="#A7DCD2"/>
<path d="M75.6054 58.6522C75.6054 58.6522 75.0698 57.9864 75.1211 56.8191C75.167 55.7735 75.5642 54.8596 75.4423 54.2664C75.4423 54.2664 77.0889 57.239 75.6054 58.6522Z" fill="#A7DCD2"/>
<path d="M68.7384 51.5706C68.7384 51.5706 68.0051 52.1943 67.0375 51.9221C66.2389 51.6974 65.2742 50.5289 64.5617 50.7522C64.5617 50.7522 67.7171 49.3025 68.7384 51.5706Z" fill="#A7DCD2"/>
<path d="M76.5132 61.7419C76.5132 61.7419 73.6799 53.4495 67.8989 51.1912" stroke="#92BFB6" stroke-width="1.2227" stroke-miterlimit="10" stroke-linecap="round"/>
<path d="M70.756 52.9314L69.9419 53.0898" stroke="#92BFB6" stroke-width="1.2227" stroke-miterlimit="10" stroke-linecap="round"/>
<path d="M70.4279 52.159L70.6213 52.8195" stroke="#92BFB6" stroke-width="1.2227" stroke-miterlimit="10" stroke-linecap="round"/>
<path d="M72.453 54.6625L71.5344 54.7457" stroke="#92BFB6" stroke-width="1.2227" stroke-miterlimit="10" stroke-linecap="round"/>
<path d="M72.3374 53.4109L72.3643 54.5293" stroke="#92BFB6" stroke-width="1.2227" stroke-miterlimit="10" stroke-linecap="round"/>
<path d="M73.8575 56.5013L73.1711 56.6977" stroke="#92BFB6" stroke-width="1.2227" stroke-miterlimit="10" stroke-linecap="round"/>
<path d="M73.9172 55.738L73.8059 56.4241" stroke="#92BFB6" stroke-width="1.2227" stroke-miterlimit="10" stroke-linecap="round"/>
<path d="M74.6888 59.3097L75.4361 59.2458" stroke="#92BFB6" stroke-width="1.2227" stroke-miterlimit="10" stroke-linecap="round"/>
<path d="M75.6053 58.6522L75.4792 59.3336" stroke="#92BFB6" stroke-width="1.2227" stroke-miterlimit="10" stroke-linecap="round"/>
<path d="M76.7624 49.5688C76.7624 49.5688 80.3997 48.3263 79.5019 46.9034C78.579 45.4408 76.7624 49.5688 76.7624 49.5688Z" fill="#8DCABE"/>
<path d="M76.7622 49.5688C76.7622 49.5688 73.2891 51.315 73.1543 49.5715C73.0156 47.7791 76.7622 49.5688 76.7622 49.5688Z" fill="#8DCABE"/>
<path d="M77.5246 52.5612C77.5246 52.5612 81.2798 51.2784 80.3529 49.8095C79.4 48.2993 77.5246 52.5612 77.5246 52.5612Z" fill="#8DCABE"/>
<path d="M77.5246 52.5612C77.5246 52.5612 73.9102 54.2883 73.8003 52.4857C73.6873 50.6326 77.5246 52.5612 77.5246 52.5612Z" fill="#8DCABE"/>
<path d="M75.9505 47.1123C75.9505 47.1123 79.3559 45.486 78.4581 44.0632C77.5352 42.6004 75.9505 47.1123 75.9505 47.1123Z" fill="#8DCABE"/>
<path d="M75.9504 47.1124C75.9504 47.1124 72.4449 48.436 72.2945 46.6941C72.1399 44.9034 75.9504 47.1124 75.9504 47.1124Z" fill="#8DCABE"/>
<path d="M74.9275 44.526C74.9275 44.526 77.9212 42.204 76.8721 40.9319C75.7889 39.6184 74.9275 44.526 74.9275 44.526Z" fill="#8DCABE"/>
<path d="M74.9277 44.526C74.9277 44.526 71.4954 45.8523 71.2281 44.1364C70.9521 42.3646 74.9277 44.526 74.9277 44.526Z" fill="#8DCABE"/>
<path d="M73.813 42.1049C73.813 42.1049 75.9107 39.3875 74.7403 38.7402C73.4635 38.0341 73.813 42.1049 73.813 42.1049Z" fill="#8DCABE"/>
<path d="M73.8131 42.1081C73.8131 42.1081 70.6514 42.5236 70.8472 41.0625C71.061 39.4685 73.8131 42.1081 73.8131 42.1081Z" fill="#8DCABE"/>
<path d="M72.8665 40.2717C72.8665 40.2717 72.7754 36.6269 71.5254 37.0395C70.1616 37.4898 72.8665 40.2717 72.8665 40.2717Z" fill="#8DCABE"/>
<path d="M77.929 60.7316C77.929 60.7316 79.6978 52.6602 72.6088 39.7985" stroke="#92BFB6" stroke-width="1.4021" stroke-miterlimit="10" stroke-linecap="round"/>
<path d="M6.37618 50.9487C6.37618 50.9487 3.61676 48.8899 4.28431 47.5621C4.97061 46.197 6.37618 50.9487 6.37618 50.9487Z" fill="#A7DCD2"/>
<path d="M6.37617 50.9487C6.37617 50.9487 9.60946 52.7134 9.96123 51.1067C10.3228 49.4551 6.37617 50.9487 6.37617 50.9487Z" fill="#A7DCD2"/>
<path d="M5.44319 53.6398C5.44319 53.6398 2.54197 51.5086 3.24912 50.1248C3.97615 48.7022 5.44319 53.6398 5.44319 53.6398Z" fill="#A7DCD2"/>
<path d="M4.70409 56.9339C4.70409 56.9339 0.958874 54.7061 1.9549 53.1137C2.97876 51.4768 4.70409 56.9339 4.70409 56.9339Z" fill="#A7DCD2"/>
<path d="M4.7039 56.9339C4.7039 56.9339 8.84436 57.9071 8.96361 55.9589C9.08617 53.9561 4.7039 56.9339 4.7039 56.9339Z" fill="#A7DCD2"/>
<path d="M4.49959 60.0426C4.49959 60.0426 -0.0417998 59.0646 0.553862 57.0395C1.16619 54.9576 4.49959 60.0426 4.49959 60.0426Z" fill="#A7DCD2"/>
<path d="M4.49947 60.0426C4.49947 60.0426 8.80464 61.9531 9.24771 59.8783C9.70329 57.7453 4.49947 60.0426 4.49947 60.0426Z" fill="#A7DCD2"/>
<path d="M5.44313 53.6399C5.44313 53.6399 8.82028 55.2832 9.18986 53.6393C9.56976 51.9493 5.44313 53.6399 5.44313 53.6399Z" fill="#A7DCD2"/>
<path d="M7.314 48.7576C7.314 48.7576 4.65848 46.3192 5.35084 44.9709C6.06262 43.5847 7.314 48.7576 7.314 48.7576Z" fill="#A7DCD2"/>
<path d="M7.314 48.7577C7.314 48.7577 10.6081 50.12 10.9716 48.5321C11.3453 46.8995 7.314 48.7577 7.314 48.7577Z" fill="#A7DCD2"/>
<path d="M8.47935 46.4614C8.47935 46.4614 6.353 43.9437 7.14169 42.956C7.95614 41.9361 8.47935 46.4614 8.47935 46.4614Z" fill="#A7DCD2"/>
<path d="M8.4519 46.4429C8.4519 46.4429 11.515 47.4881 11.9784 46.2264C12.4568 44.9237 8.4519 46.4429 8.4519 46.4429Z" fill="#A7DCD2"/>
<path d="M9.67213 44.3388C9.67213 44.3388 7.94017 41.6205 9.07145 41.1372C10.3058 40.61 9.67213 44.3388 9.67213 44.3388Z" fill="#A7DCD2"/>
<path d="M9.66547 44.3278C9.66547 44.3278 12.5155 44.7353 12.5257 43.5098C12.5367 42.1727 9.66547 44.3278 9.66547 44.3278Z" fill="#A7DCD2"/>
<path d="M10.6865 42.7372C10.6865 42.7372 11.0488 39.3768 12.1728 39.8812C13.3993 40.4314 10.6865 42.7372 10.6865 42.7372Z" fill="#A7DCD2"/>
<path d="M4.4462 61.153C4.4462 61.153 3.42679 53.5178 10.9612 42.325" stroke="#92BFB6" stroke-width="1.3018" stroke-miterlimit="10" stroke-linecap="round"/>
<path d="M10.7058 56.932C10.7058 56.932 8.94008 55.2046 9.75624 54.6614C10.5954 54.1031 10.7058 56.932 10.7058 56.932Z" fill="#8DCABE"/>
<path d="M10.706 56.9319C10.706 56.9319 12.2689 58.8951 12.7279 57.956C13.1999 56.9905 10.706 56.9319 10.706 56.9319Z" fill="#8DCABE"/>
<path d="M9.62061 58.3933C9.62061 58.3933 7.79764 56.61 8.64031 56.0492C9.50648 55.4727 9.62061 58.3933 9.62061 58.3933Z" fill="#8DCABE"/>
<path d="M9.62059 58.3933C9.62059 58.3933 11.2669 60.3858 11.7249 59.4065C12.1957 58.3997 9.62059 58.3933 9.62059 58.3933Z" fill="#8DCABE"/>
<path d="M8.70832 59.9789C8.70832 59.9789 6.64392 58.5752 7.3897 57.8594C8.15651 57.1234 8.70832 59.9789 8.70832 59.9789Z" fill="#8DCABE"/>
<path d="M8.70836 59.9789C8.70836 59.9789 10.6302 61.623 10.9342 60.5692C11.2466 59.4859 8.70836 59.9789 8.70836 59.9789Z" fill="#8DCABE"/>
<path d="M7.99146 61.5323C7.99146 61.5323 5.86057 60.2631 6.5697 59.5006C7.29862 58.7167 7.99146 61.5323 7.99146 61.5323Z" fill="#8DCABE"/>
<path d="M7.99144 61.5323C7.99144 61.5323 9.99191 63.0507 10.243 61.9792C10.5012 60.8775 7.99144 61.5323 7.99144 61.5323Z" fill="#8DCABE"/>
<path d="M11.7012 55.785C11.7012 55.785 10.1499 53.9083 10.9661 53.3651C11.8051 52.8067 11.7012 55.785 11.7012 55.785Z" fill="#8DCABE"/>
<path d="M11.7011 55.785C11.7011 55.785 13.3752 57.5205 13.8425 56.5867C14.3229 55.6267 11.7011 55.785 11.7011 55.785Z" fill="#8DCABE"/>
<path d="M12.8434 54.6251C12.8434 54.6251 11.6759 52.4751 12.5437 52.0593C13.4397 51.63 12.8434 54.6251 12.8434 54.6251Z" fill="#8DCABE"/>
<path d="M12.8433 54.6252C12.8433 54.6252 14.4756 56.3413 15.0028 55.4552C15.5471 54.5402 12.8433 54.6252 12.8433 54.6252Z" fill="#8DCABE"/>
<path d="M14.0007 53.5839C14.0007 53.5839 13.4224 51.4661 14.2207 51.4349C15.0919 51.4009 14.0007 53.5839 14.0007 53.5839Z" fill="#8DCABE"/>
<path d="M13.9996 53.5855C13.9996 53.5855 15.6806 54.7144 15.8921 53.8399C16.123 52.8857 13.9996 53.5855 13.9996 53.5855Z" fill="#8DCABE"/>
<path d="M14.9341 52.8245C14.9341 52.8245 15.7868 50.8071 16.3967 51.3927C17.0623 52.0316 14.9341 52.8245 14.9341 52.8245Z" fill="#8DCABE"/>
<path d="M7.59711 62.8587C7.59711 62.8587 8.38049 57.833 15.1828 52.6322" stroke="#92BFB6" stroke-width="0.8604" stroke-miterlimit="10" stroke-linecap="round"/>
<mask id="mask0_14523_39127" style="mask-type:luminance" maskUnits="userSpaceOnUse" x="5" y="0" width="72" height="57">
<path d="M76.3388 0.9074H5.30266V56.88H76.3388V0.9074Z" fill="white"/>
</mask>
<g mask="url(#mask0_14523_39127)">
<path d="M46.7929 7.52959C46.7929 7.584 46.754 7.62819 46.706 7.62819C46.6581 7.62819 46.6192 7.5841 46.6192 7.52959C46.6192 7.47518 46.658 7.43099 46.706 7.43099C46.7539 7.4311 46.7929 7.47518 46.7929 7.52959Z" fill="#B2F1E5"/>
<path d="M48.2846 7.52962C48.2846 7.58403 48.2458 7.62822 48.1978 7.62822C48.1498 7.62822 48.1109 7.58414 48.1109 7.52962C48.1109 7.47522 48.1497 7.43102 48.1978 7.43102C48.2457 7.43113 48.2846 7.47522 48.2846 7.52962Z" fill="#B2F1E5"/>
<path d="M49.7765 7.52962C49.7765 7.58403 49.7376 7.62822 49.6896 7.62822C49.6417 7.62822 49.6028 7.58414 49.6028 7.52962C49.6028 7.47522 49.6416 7.43102 49.6896 7.43102C49.7375 7.43113 49.7765 7.47522 49.7765 7.52962Z" fill="#B2F1E5"/>
<path d="M51.268 7.52962C51.268 7.58403 51.2291 7.62822 51.1811 7.62822C51.1332 7.62822 51.0943 7.58414 51.0943 7.52962C51.0943 7.47522 51.1331 7.43102 51.1811 7.43102C51.229 7.43113 51.268 7.47522 51.268 7.52962Z" fill="#B2F1E5"/>
<path d="M52.76 7.52962C52.76 7.58403 52.7211 7.62822 52.6731 7.62822C52.6252 7.62822 52.5863 7.58414 52.5863 7.52962C52.5863 7.47522 52.6251 7.43102 52.6731 7.43102C52.721 7.43113 52.76 7.47522 52.76 7.52962Z" fill="#B2F1E5"/>
<path d="M46.7929 9.2231C46.7929 9.27751 46.754 9.3217 46.706 9.3217C46.6581 9.3217 46.6192 9.27762 46.6192 9.2231C46.6192 9.16869 46.658 9.1245 46.706 9.1245C46.7539 9.1245 46.7929 9.16869 46.7929 9.2231Z" fill="#B2F1E5"/>
<path d="M48.2846 9.22311C48.2846 9.27752 48.2458 9.32171 48.1978 9.32171C48.1498 9.32171 48.1109 9.27763 48.1109 9.22311C48.1109 9.16871 48.1497 9.12451 48.1978 9.12451C48.2457 9.12451 48.2846 9.16871 48.2846 9.22311Z" fill="#B2F1E5"/>
<path d="M49.7765 9.22311C49.7765 9.27752 49.7376 9.32171 49.6896 9.32171C49.6417 9.32171 49.6028 9.27763 49.6028 9.22311C49.6028 9.16871 49.6416 9.12451 49.6896 9.12451C49.7375 9.12451 49.7765 9.16871 49.7765 9.22311Z" fill="#B2F1E5"/>
<path d="M51.268 9.22311C51.268 9.27752 51.2291 9.32171 51.1811 9.32171C51.1332 9.32171 51.0943 9.27763 51.0943 9.22311C51.0943 9.16871 51.1331 9.12451 51.1811 9.12451C51.229 9.12451 51.268 9.16871 51.268 9.22311Z" fill="#B2F1E5"/>
<path d="M52.76 9.22311C52.76 9.27752 52.7211 9.32171 52.6731 9.32171C52.6252 9.32171 52.5863 9.27763 52.5863 9.22311C52.5863 9.16871 52.6251 9.12451 52.6731 9.12451C52.721 9.12451 52.76 9.16871 52.76 9.22311Z" fill="#B2F1E5"/>
<path d="M46.7929 10.9166C46.7929 10.971 46.754 11.0152 46.706 11.0152C46.6581 11.0152 46.6192 10.9711 46.6192 10.9166C46.6192 10.8622 46.658 10.818 46.706 10.818C46.7539 10.818 46.7929 10.8622 46.7929 10.9166Z" fill="#B2F1E5"/>
<path d="M48.2846 10.9166C48.2846 10.971 48.2458 11.0152 48.1978 11.0152C48.1498 11.0152 48.1109 10.9711 48.1109 10.9166C48.1109 10.8622 48.1497 10.818 48.1978 10.818C48.2457 10.818 48.2846 10.8622 48.2846 10.9166Z" fill="#B2F1E5"/>
<path d="M49.7765 10.9166C49.7765 10.971 49.7376 11.0152 49.6896 11.0152C49.6417 11.0152 49.6028 10.9711 49.6028 10.9166C49.6028 10.8622 49.6416 10.818 49.6896 10.818C49.7375 10.818 49.7765 10.8622 49.7765 10.9166Z" fill="#B2F1E5"/>
<path d="M51.268 10.9166C51.268 10.971 51.2291 11.0152 51.1811 11.0152C51.1332 11.0152 51.0943 10.9711 51.0943 10.9166C51.0943 10.8622 51.1331 10.818 51.1811 10.818C51.229 10.818 51.268 10.8622 51.268 10.9166Z" fill="#B2F1E5"/>
<path d="M52.76 10.9166C52.76 10.971 52.7211 11.0152 52.6731 11.0152C52.6252 11.0152 52.5863 10.9711 52.5863 10.9166C52.5863 10.8622 52.6251 10.818 52.6731 10.818C52.721 10.818 52.76 10.8622 52.76 10.9166Z" fill="#B2F1E5"/>
<path d="M70.2605 25.7206C70.2605 25.775 70.2216 25.8192 70.1736 25.8192C70.1257 25.8192 70.0867 25.7751 70.0867 25.7206C70.0867 25.6662 70.1256 25.622 70.1736 25.622C70.2216 25.6221 70.2605 25.6662 70.2605 25.7206Z" fill="#B2F1E5"/>
<path d="M71.7522 25.7206C71.7522 25.775 71.7133 25.8192 71.6653 25.8192C71.6174 25.8192 71.5785 25.7751 71.5785 25.7206C71.5785 25.6662 71.6173 25.622 71.6653 25.622C71.7133 25.6221 71.7522 25.6662 71.7522 25.7206Z" fill="#B2F1E5"/>
<path d="M73.2438 25.7206C73.2438 25.775 73.205 25.8192 73.157 25.8192C73.109 25.8192 73.0701 25.7751 73.0701 25.7206C73.0701 25.6662 73.109 25.622 73.157 25.622C73.205 25.6221 73.2438 25.6662 73.2438 25.7206Z" fill="#B2F1E5"/>
<path d="M70.2605 27.4141C70.2605 27.4685 70.2216 27.5127 70.1736 27.5127C70.1257 27.5127 70.0867 27.4686 70.0867 27.4141C70.0867 27.3597 70.1256 27.3155 70.1736 27.3155C70.2216 27.3156 70.2605 27.3597 70.2605 27.4141Z" fill="#B2F1E5"/>
<path d="M71.7522 27.4141C71.7522 27.4685 71.7133 27.5127 71.6653 27.5127C71.6174 27.5127 71.5785 27.4686 71.5785 27.4141C71.5785 27.3597 71.6173 27.3155 71.6653 27.3155C71.7133 27.3156 71.7522 27.3597 71.7522 27.4141Z" fill="#B2F1E5"/>
<path d="M73.2438 27.4141C73.2438 27.4685 73.205 27.5127 73.157 27.5127C73.109 27.5127 73.0701 27.4686 73.0701 27.4141C73.0701 27.3597 73.109 27.3155 73.157 27.3155C73.205 27.3156 73.2438 27.3597 73.2438 27.4141Z" fill="#B2F1E5"/>
<path d="M10.1056 18.1056C10.1056 18.16 10.0668 18.2042 10.0187 18.2042C9.97081 18.2042 9.93188 18.1601 9.93188 18.1056C9.93188 18.0512 9.97072 18.007 10.0187 18.007C10.0668 18.007 10.1056 18.0511 10.1056 18.1056Z" fill="#B2F1E5"/>
<path d="M11.5972 18.1056C11.5972 18.16 11.5584 18.2042 11.5104 18.2042C11.4624 18.2042 11.4235 18.1601 11.4235 18.1056C11.4235 18.0512 11.4623 18.007 11.5104 18.007C11.5584 18.007 11.5972 18.0511 11.5972 18.1056Z" fill="#B2F1E5"/>
<path d="M10.1056 19.799C10.1056 19.8534 10.0668 19.8976 10.0187 19.8976C9.97081 19.8976 9.93188 19.8535 9.93188 19.799C9.93188 19.7446 9.97072 19.7004 10.0187 19.7004C10.0668 19.7004 10.1056 19.7445 10.1056 19.799Z" fill="#B2F1E5"/>
<path d="M11.5972 19.799C11.5972 19.8534 11.5584 19.8976 11.5104 19.8976C11.4624 19.8976 11.4235 19.8535 11.4235 19.799C11.4235 19.7446 11.4623 19.7004 11.5104 19.7004C11.5584 19.7004 11.5972 19.7445 11.5972 19.799Z" fill="#B2F1E5"/>
<path d="M10.1056 21.4926C10.1056 21.547 10.0668 21.5911 10.0187 21.5911C9.97081 21.5911 9.93188 21.5471 9.93188 21.4926C9.93188 21.4381 9.97072 21.394 10.0187 21.394C10.0668 21.394 10.1056 21.438 10.1056 21.4926Z" fill="#B2F1E5"/>
<path d="M11.5972 21.4925C11.5972 21.547 11.5584 21.5911 11.5104 21.5911C11.4624 21.5911 11.4235 21.5471 11.4235 21.4925C11.4235 21.4381 11.4623 21.3939 11.5104 21.3939C11.5584 21.3939 11.5972 21.438 11.5972 21.4925Z" fill="#B2F1E5"/>
<path d="M55.6024 46.7533C55.5545 46.7533 55.5156 46.7092 55.5156 46.6547C55.5156 46.6003 55.5544 46.5561 55.6024 46.5561C55.6504 46.5561 55.6893 46.6002 55.6893 46.6547C55.6892 46.7093 55.6504 46.7533 55.6024 46.7533Z" fill="#B2F1E5"/>
<path d="M55.6024 48.4469C55.5545 48.4469 55.5156 48.4027 55.5156 48.3483C55.5156 48.2939 55.5544 48.2497 55.6024 48.2497C55.6504 48.2497 55.6893 48.2938 55.6893 48.3483C55.6892 48.4028 55.6504 48.4469 55.6024 48.4469Z" fill="#B2F1E5"/>
<path d="M54.1104 46.7533C54.0625 46.7533 54.0236 46.7092 54.0236 46.6547C54.0236 46.6003 54.0624 46.5561 54.1104 46.5561C54.1584 46.5561 54.1973 46.6002 54.1973 46.6547C54.1972 46.7093 54.1584 46.7533 54.1104 46.7533Z" fill="#B2F1E5"/>
<path d="M54.1104 48.4469C54.0625 48.4469 54.0236 48.4027 54.0236 48.3483C54.0236 48.2939 54.0624 48.2497 54.1104 48.2497C54.1584 48.2497 54.1973 48.2938 54.1973 48.3483C54.1972 48.4028 54.1584 48.4469 54.1104 48.4469Z" fill="#B2F1E5"/>
<path d="M52.6188 46.7533C52.5709 46.7533 52.5319 46.7091 52.5319 46.6547C52.5319 46.6003 52.5708 46.5561 52.6188 46.5561C52.6667 46.5561 52.7056 46.6002 52.7056 46.6547C52.7055 46.7093 52.6667 46.7533 52.6188 46.7533Z" fill="#B2F1E5"/>
<path d="M52.6188 48.4469C52.5708 48.4469 52.5319 48.4027 52.5319 48.3483C52.5319 48.2939 52.5707 48.2497 52.6188 48.2497C52.6667 48.2497 52.7056 48.2938 52.7056 48.3483C52.7055 48.4028 52.6667 48.4469 52.6188 48.4469Z" fill="#B2F1E5"/>
<path d="M19.4999 33.1714C19.452 33.1714 19.4131 33.1273 19.4131 33.0728C19.4131 33.0184 19.4519 32.9742 19.4999 32.9742C19.5478 32.9742 19.5868 33.0183 19.5868 33.0728C19.5867 33.1273 19.5478 33.1714 19.4999 33.1714Z" fill="#B2F1E5"/>
<path d="M19.4999 34.8648C19.452 34.8648 19.4131 34.8208 19.4131 34.7662C19.4131 34.7118 19.4519 34.6676 19.4999 34.6676C19.5478 34.6676 19.5868 34.7117 19.5868 34.7662C19.5867 34.8208 19.5478 34.8648 19.4999 34.8648Z" fill="#B2F1E5"/>
<path d="M18.0081 33.1714C17.9602 33.1714 17.9213 33.1273 17.9213 33.0728C17.9213 33.0184 17.9601 32.9742 18.0081 32.9742C18.0561 32.9742 18.095 33.0183 18.095 33.0728C18.0949 33.1273 18.0561 33.1714 18.0081 33.1714Z" fill="#B2F1E5"/>
<path d="M18.0081 34.8648C17.9602 34.8648 17.9213 34.8208 17.9213 34.7662C17.9213 34.7118 17.9601 34.6677 18.0081 34.6677C18.0561 34.6677 18.095 34.7117 18.095 34.7662C18.0949 34.8208 18.0561 34.8648 18.0081 34.8648Z" fill="#B2F1E5"/>
<path d="M67.7192 11.7499C67.7672 11.7499 67.8061 11.7058 67.8061 11.6513C67.8061 11.5969 67.7672 11.5527 67.7192 11.5527C67.6713 11.5527 67.6324 11.5969 67.6324 11.6513C67.6324 11.7058 67.6713 11.7499 67.7192 11.7499Z" fill="#B2F1E5"/>
<path d="M67.7192 13.4434C67.7672 13.4434 67.8061 13.3992 67.8061 13.3448C67.8061 13.2903 67.7672 13.2462 67.7192 13.2462C67.6713 13.2462 67.6324 13.2903 67.6324 13.3448C67.6324 13.3992 67.6713 13.4434 67.7192 13.4434Z" fill="#B2F1E5"/>
<path d="M66.2275 11.7499C66.2754 11.7499 66.3143 11.7057 66.3143 11.6513C66.3143 11.5968 66.2754 11.5527 66.2275 11.5527C66.1795 11.5527 66.1406 11.5968 66.1406 11.6513C66.1406 11.7057 66.1795 11.7499 66.2275 11.7499Z" fill="#B2F1E5"/>
<path d="M66.2275 13.4433C66.2754 13.4433 66.3143 13.3992 66.3143 13.3447C66.3143 13.2903 66.2754 13.2461 66.2275 13.2461C66.1795 13.2461 66.1406 13.2903 66.1406 13.3447C66.1406 13.3992 66.1795 13.4433 66.2275 13.4433Z" fill="#B2F1E5"/>
<path d="M15.0594 50.5077C15.0115 50.5077 14.9726 50.4636 14.9726 50.4091C14.9726 50.3547 15.0114 50.3105 15.0594 50.3105C15.1074 50.3105 15.1463 50.3546 15.1463 50.4091C15.1462 50.4635 15.1074 50.5077 15.0594 50.5077Z" fill="#B2F1E5"/>
<path d="M15.0594 52.2012C15.0115 52.2012 14.9726 52.1571 14.9726 52.1026C14.9726 52.0482 15.0114 52.004 15.0594 52.004C15.1074 52.004 15.1463 52.0481 15.1463 52.1026C15.1462 52.157 15.1074 52.2012 15.0594 52.2012Z" fill="#B2F1E5"/>
<path d="M13.5675 50.5077C13.5196 50.5077 13.4807 50.4637 13.4807 50.4091C13.4807 50.3547 13.5195 50.3105 13.5675 50.3105C13.6154 50.3105 13.6544 50.3546 13.6544 50.4091C13.6543 50.4635 13.6154 50.5077 13.5675 50.5077Z" fill="#B2F1E5"/>
<path d="M13.5675 52.2012C13.5196 52.2012 13.4807 52.1571 13.4807 52.1026C13.4807 52.0482 13.5195 52.004 13.5675 52.004C13.6154 52.004 13.6544 52.0481 13.6544 52.1026C13.6543 52.157 13.6154 52.2012 13.5675 52.2012Z" fill="#B2F1E5"/>
<path opacity="0.37" d="M36.8757 18.1596C37.1833 18.1596 37.4328 17.8765 37.4328 17.5272C37.4328 17.1779 37.1833 16.8947 36.8757 16.8947C36.568 16.8947 36.3185 17.1779 36.3185 17.5272C36.3185 17.8765 36.568 18.1596 36.8757 18.1596Z" stroke="#8DCABE" stroke-width="3" stroke-miterlimit="10" stroke-linecap="round" stroke-linejoin="round"/>
<path opacity="0.37" d="M73.0883 16.1284C73.0883 16.4777 72.8388 16.7609 72.5312 16.7609C72.2235 16.7609 71.9741 16.4776 71.9741 16.1284C71.9741 15.7791 72.2236 15.496 72.5312 15.496C72.8388 15.4958 73.0883 15.7791 73.0883 16.1284Z" stroke="#8DCABE" stroke-width="3" stroke-miterlimit="10" stroke-linecap="round" stroke-linejoin="round"/>
<path opacity="0.37" d="M29.806 24.5251C29.9109 24.5251 29.996 24.4285 29.996 24.3094C29.996 24.1903 29.9109 24.0937 29.806 24.0937C29.701 24.0937 29.616 24.1903 29.616 24.3094C29.616 24.4285 29.701 24.5251 29.806 24.5251Z" stroke="#8DCABE" stroke-width="1.0229" stroke-miterlimit="10" stroke-linecap="round" stroke-linejoin="round"/>
<path opacity="0.37" d="M55.9439 21.9009C55.9439 22.0201 55.8588 22.1166 55.7539 22.1166C55.6489 22.1166 55.5639 22.0201 55.5639 21.9009C55.5639 21.7818 55.6489 21.6852 55.7539 21.6852C55.8588 21.6852 55.9439 21.7818 55.9439 21.9009Z" stroke="#8DCABE" stroke-width="1.0229" stroke-miterlimit="10" stroke-linecap="round" stroke-linejoin="round"/>
<path opacity="0.37" d="M44.2049 27.9556C44.2049 28.0747 44.1199 28.1713 44.0149 28.1713C43.91 28.1713 43.825 28.0747 43.825 27.9556C43.825 27.8364 43.91 27.7399 44.0149 27.7399C44.1199 27.7399 44.2049 27.8364 44.2049 27.9556Z" stroke="#8DCABE" stroke-width="1.0229" stroke-miterlimit="10" stroke-linecap="round" stroke-linejoin="round"/>
<path opacity="0.37" d="M43.1018 46.495C43.2068 46.495 43.2918 46.3984 43.2918 46.2793C43.2918 46.1602 43.2068 46.0636 43.1018 46.0636C42.9969 46.0636 42.9118 46.1602 42.9118 46.2793C42.9118 46.3984 42.9969 46.495 43.1018 46.495Z" stroke="#8DCABE" stroke-width="1.0229" stroke-miterlimit="10" stroke-linecap="round" stroke-linejoin="round"/>
<path opacity="0.37" d="M21.4348 16.3441C21.5398 16.3441 21.6248 16.2475 21.6248 16.1284C21.6248 16.0093 21.5398 15.9127 21.4348 15.9127C21.3299 15.9127 21.2448 16.0093 21.2448 16.1284C21.2448 16.2475 21.3299 16.3441 21.4348 16.3441Z" stroke="#8DCABE" stroke-width="1.0229" stroke-miterlimit="10" stroke-linecap="round" stroke-linejoin="round"/>
<path opacity="0.37" d="M66.5044 7.39733C66.5044 7.51646 66.4193 7.61302 66.3144 7.61302C66.2094 7.61302 66.1244 7.51646 66.1244 7.39733C66.1244 7.27819 66.2094 7.18163 66.3144 7.18163C66.4193 7.18174 66.5044 7.27819 66.5044 7.39733Z" stroke="#8DCABE" stroke-width="1.0229" stroke-miterlimit="10" stroke-linecap="round" stroke-linejoin="round"/>
<path opacity="0.37" d="M9.15459 27.0878C9.3644 27.0878 9.53449 26.8947 9.53449 26.6566C9.53449 26.4184 9.3644 26.2253 9.15459 26.2253C8.94478 26.2253 8.77469 26.4184 8.77469 26.6566C8.77469 26.8947 8.94478 27.0878 9.15459 27.0878Z" stroke="#8DCABE" stroke-width="2.0457" stroke-miterlimit="10" stroke-linecap="round" stroke-linejoin="round"/>
<path opacity="0.37" d="M56.3241 13.5598C56.3241 13.798 56.154 13.9911 55.9442 13.9911C55.7344 13.9911 55.5643 13.798 55.5643 13.5598C55.5643 13.3216 55.7344 13.1285 55.9442 13.1285C56.154 13.1285 56.3241 13.3216 56.3241 13.5598Z" stroke="#8DCABE" stroke-width="2.0457" stroke-miterlimit="10" stroke-linecap="round" stroke-linejoin="round"/>
</g>
<path d="M42.2903 26.3047L19.6609 28.902L19.4595 27.147C19.3965 26.598 19.7906 26.1017 20.3396 26.0387L40.9805 23.6697C41.5297 23.6067 42.0259 24.0008 42.0889 24.5498L42.2903 26.3047Z" fill="#71C3B3"/>
<path d="M43.114 42.2576L22.4731 44.6266C21.9239 44.6896 21.4277 44.2955 21.3647 43.7465L19.6611 28.9021L42.2904 26.3049L43.9941 41.1493C44.0571 41.6983 43.663 42.1945 43.114 42.2576Z" fill="url(#paint0_linear_14523_39127)"/>
<path d="M22.3509 31.1287L21.9555 31.1741L21.901 31.3653L21.6991 31.3885L21.9808 30.4935L22.1754 30.4712L22.6538 31.2789L22.447 31.3027L22.3509 31.1287ZM22.2717 30.9863L22.0993 30.6758L22.0016 31.0172L22.2717 30.9863Z" fill="url(#paint1_linear_14523_39127)"/>
<path d="M23.3015 30.5416L23.3765 31.1959L23.1965 31.2167L23.1876 31.1388C23.1656 31.17 23.1381 31.1952 23.105 31.2142C23.072 31.2332 23.0349 31.2451 22.9945 31.2497C22.9085 31.2596 22.8376 31.2428 22.7815 31.199C22.7257 31.1553 22.6921 31.0847 22.681 30.9874L22.6386 30.6176L22.8283 30.5958L22.8675 30.9376C22.8796 31.0431 22.93 31.0906 23.0181 31.0805C23.0635 31.0754 23.0982 31.0564 23.1225 31.0236C23.1467 30.9908 23.1553 30.9454 23.1486 30.8868L23.1115 30.5634L23.3015 30.5416Z" fill="url(#paint2_linear_14523_39127)"/>
<path d="M24.1531 30.4439L24.2157 30.9888C24.2295 31.1089 24.2084 31.2016 24.1528 31.2672C24.0971 31.3329 24.0091 31.3724 23.8892 31.3862C23.8259 31.3935 23.7649 31.3926 23.7064 31.3839C23.6479 31.3749 23.5984 31.358 23.5576 31.3332L23.6176 31.1883C23.6477 31.2078 23.6846 31.222 23.7284 31.2304C23.772 31.2389 23.8149 31.2408 23.8571 31.236C23.9229 31.2284 23.9696 31.2082 23.9974 31.175C24.0251 31.1417 24.0357 31.0952 24.0288 31.0353L24.0256 31.0073C23.9823 31.0674 23.9165 31.1023 23.8282 31.1124C23.7681 31.1193 23.7117 31.1124 23.6589 31.0919C23.606 31.0713 23.562 31.0387 23.5275 30.9941C23.4927 30.9496 23.4718 30.8963 23.4647 30.8337C23.4576 30.7712 23.4658 30.7143 23.4895 30.6632C23.5131 30.6122 23.5484 30.5705 23.5952 30.5384C23.642 30.5063 23.6954 30.487 23.7555 30.48C23.8504 30.4692 23.9261 30.4921 23.9827 30.5489L23.9731 30.465L24.1531 30.4439ZM23.9662 30.8934C23.9947 30.8601 24.0063 30.8196 24.0008 30.7718C23.9953 30.7239 23.9749 30.687 23.9394 30.6611C23.9038 30.6352 23.861 30.6251 23.8108 30.631C23.7607 30.6368 23.7208 30.6563 23.6919 30.6897C23.6628 30.723 23.6511 30.7636 23.6566 30.8113C23.6621 30.8592 23.6826 30.8961 23.7186 30.9218C23.7545 30.9477 23.7975 30.9578 23.8477 30.9521C23.8979 30.9464 23.9375 30.9269 23.9662 30.8934Z" fill="url(#paint3_linear_14523_39127)"/>
<path d="M24.9885 30.3479L25.0635 31.0023L24.8835 31.0231L24.8747 30.9452C24.8527 30.9764 24.8252 31.0016 24.792 31.0207C24.759 31.0397 24.722 31.0516 24.6815 31.0562C24.5955 31.0661 24.5246 31.0491 24.4686 31.0055C24.4125 30.9619 24.379 30.8913 24.3678 30.7939L24.3255 30.4242L24.5152 30.4024L24.5544 30.7441C24.5665 30.8496 24.6168 30.8971 24.7049 30.887C24.7503 30.8819 24.7851 30.8629 24.8094 30.8301C24.8335 30.7973 24.8422 30.7519 24.8355 30.6934L24.7984 30.3699L24.9885 30.3479Z" fill="url(#paint4_linear_14523_39127)"/>
<path d="M25.2996 30.9647C25.246 30.9573 25.2028 30.9452 25.1696 30.9285L25.2173 30.7851C25.2487 30.8003 25.2858 30.8115 25.3283 30.8186C25.3709 30.8255 25.4122 30.8269 25.4519 30.8223C25.5323 30.8131 25.57 30.7886 25.5656 30.7489C25.5635 30.7303 25.5509 30.7182 25.5282 30.7125C25.5053 30.7071 25.4709 30.704 25.4248 30.7035C25.3704 30.7016 25.3251 30.6973 25.2891 30.6907C25.253 30.6842 25.2205 30.6689 25.192 30.6452C25.1634 30.6214 25.1462 30.5847 25.1405 30.5352C25.1357 30.4939 25.1435 30.4558 25.1639 30.421C25.1842 30.3863 25.2162 30.3573 25.2601 30.3343C25.3039 30.3112 25.3569 30.2962 25.4195 30.2889C25.4656 30.2836 25.5122 30.2834 25.5592 30.2882C25.6062 30.2932 25.6458 30.3027 25.6777 30.3171L25.6298 30.4595C25.5686 30.4336 25.5039 30.4246 25.4358 30.4324C25.3952 30.437 25.3654 30.4462 25.3464 30.4598C25.3276 30.4735 25.3191 30.4893 25.3212 30.507C25.3235 30.5274 25.3359 30.5404 25.359 30.5459C25.3817 30.5514 25.4173 30.5553 25.4663 30.557C25.5207 30.5599 25.5656 30.5643 25.6009 30.5705C25.6362 30.5767 25.6679 30.5918 25.6959 30.6157C25.7241 30.6397 25.741 30.6755 25.7465 30.7234C25.7511 30.764 25.7433 30.8014 25.7225 30.8358C25.702 30.8702 25.6693 30.8988 25.6247 30.9216C25.58 30.9445 25.5257 30.9596 25.4617 30.9668C25.4067 30.9727 25.3528 30.9722 25.2996 30.9647Z" fill="url(#paint5_linear_14523_39127)"/>
<path d="M26.3042 30.8278C26.2872 30.8438 26.2655 30.8567 26.2391 30.8668C26.2127 30.8767 26.1845 30.8835 26.1545 30.887C26.0767 30.8959 26.0143 30.883 25.9673 30.8482C25.9201 30.8134 25.8921 30.7574 25.8832 30.6804L25.8523 30.4116L25.7516 30.4231L25.7348 30.2772L25.8357 30.2656L25.8174 30.1062L26.0072 30.0844L26.0254 30.2438L26.1886 30.2252L26.2052 30.3712L26.0421 30.39L26.0728 30.6563C26.076 30.6838 26.0854 30.7044 26.1015 30.7177C26.1173 30.7312 26.1384 30.7363 26.1643 30.7333C26.1942 30.7299 26.2189 30.7187 26.2381 30.7001L26.3042 30.8278Z" fill="url(#paint6_linear_14523_39127)"/>
<path d="M40.5785 28.8692L28.1764 30.2926L28.1594 30.1454L40.5617 28.722L40.5785 28.8692Z" fill="url(#paint7_linear_14523_39127)"/>
<path d="M23.7883 34.4245L22.1272 34.6152C21.9393 34.6368 21.7696 34.5019 21.7479 34.3139L21.5834 32.8803C21.5617 32.6923 21.6967 32.5226 21.8845 32.501L23.5456 32.3104C23.7336 32.2887 23.9033 32.4237 23.9249 32.6116L24.0895 34.0452C24.1111 34.233 23.9763 34.4029 23.7883 34.4245Z" fill="url(#paint8_linear_14523_39127)"/>
<path d="M26.6873 34.0917L25.0262 34.2823C24.8383 34.3039 24.6686 34.169 24.6469 33.981L24.4823 32.5474C24.4607 32.3595 24.5957 32.1898 24.7836 32.1681L26.4447 31.9775C26.6327 31.9559 26.8024 32.0908 26.8241 32.2786L26.9886 33.7122C27.0101 33.9003 26.8751 34.0702 26.6873 34.0917Z" fill="url(#paint9_linear_14523_39127)"/>
<path d="M29.5863 33.759L27.9252 33.9496C27.7372 33.9713 27.5675 33.8363 27.5459 33.6483L27.3813 32.2148C27.3597 32.0268 27.4947 31.8571 27.6826 31.8354L29.3437 31.6448C29.5317 31.6232 29.7014 31.7581 29.723 31.9461L29.8876 33.3797C29.9092 33.5677 29.7743 33.7375 29.5863 33.759Z" fill="url(#paint10_linear_14523_39127)"/>
<path d="M32.4853 33.4263L30.8242 33.6169C30.6362 33.6386 30.4665 33.5036 30.4449 33.3158L30.2803 31.8822C30.2587 31.6943 30.3936 31.5246 30.5814 31.5029L32.2425 31.3123C32.4305 31.2907 32.6002 31.4256 32.6219 31.6136L32.7864 33.0472C32.8081 33.235 32.6733 33.4047 32.4853 33.4263Z" fill="url(#paint11_linear_14523_39127)"/>
<path d="M35.3845 33.0936L33.7234 33.2843C33.5354 33.3059 33.3657 33.171 33.3441 32.983L33.1795 31.5494C33.1579 31.3614 33.2928 31.1917 33.4808 31.1701L35.1419 30.9795C35.3299 30.9578 35.4996 31.0928 35.5212 31.2806L35.6858 32.7141C35.7072 32.9021 35.5725 33.072 35.3845 33.0936Z" fill="url(#paint12_linear_14523_39127)"/>
<path d="M38.2835 32.7608L36.6224 32.9514C36.4344 32.973 36.2647 32.8381 36.243 32.6501L36.0785 31.2165C36.0568 31.0286 36.1918 30.8589 36.3796 30.8372L38.0407 30.6466C38.2287 30.625 38.3984 30.7599 38.42 30.9479L38.5846 32.3815C38.6062 32.5694 38.4713 32.7393 38.2835 32.7608Z" fill="url(#paint13_linear_14523_39127)"/>
<path d="M41.1824 32.4281L39.5214 32.6187C39.3334 32.6403 39.1637 32.5054 39.142 32.3176L38.9775 30.884C38.9558 30.696 39.0908 30.5263 39.2786 30.5047L40.9397 30.3141C41.1277 30.2924 41.2974 30.4274 41.319 30.6154L41.4836 32.0489C41.5052 32.2367 41.3702 32.4064 41.1824 32.4281Z" fill="url(#paint14_linear_14523_39127)"/>
<path d="M24.0747 36.9217L22.4136 37.1124C22.2256 37.134 22.0559 36.999 22.0342 36.8111L21.8697 35.3775C21.848 35.1895 21.983 35.0198 22.1708 34.9982L23.8319 34.8075C24.0199 34.7859 24.1896 34.9209 24.2112 35.1088L24.3758 36.5424C24.3974 36.7304 24.2626 36.9001 24.0747 36.9217Z" fill="url(#paint15_linear_14523_39127)"/>
<path d="M26.974 36.5891L25.3129 36.7797C25.1249 36.8013 24.9552 36.6664 24.9336 36.4784L24.769 35.0448C24.7474 34.8569 24.8823 34.6872 25.0703 34.6655L26.7314 34.4749C26.9194 34.4532 27.0891 34.5882 27.1107 34.7762L27.2753 36.2098C27.2968 36.3977 27.162 36.5674 26.974 36.5891Z" fill="url(#paint16_linear_14523_39127)"/>
<path d="M29.873 36.2564L28.2119 36.447C28.0239 36.4687 27.8542 36.3337 27.8326 36.1457L27.668 34.7122C27.6464 34.5242 27.7813 34.3545 27.9691 34.3328L29.6302 34.1422C29.8182 34.1206 29.9879 34.2555 30.0095 34.4435L30.1741 35.8771C30.1958 36.0649 30.0608 36.2348 29.873 36.2564Z" fill="url(#paint17_linear_14523_39127)"/>
<path d="M32.772 35.9235L31.1109 36.1142C30.9229 36.1358 30.7532 36.0008 30.7316 35.8129L30.567 34.3793C30.5454 34.1913 30.6803 34.0216 30.8683 34L32.5294 33.8093C32.7174 33.7877 32.8871 33.9227 32.9087 34.1106L33.0733 35.5442C33.0947 35.7322 32.9598 35.9021 32.772 35.9235Z" fill="url(#paint18_linear_14523_39127)"/>
<path d="M35.671 35.5908L34.0099 35.7815C33.8219 35.8031 33.6522 35.6682 33.6305 35.4802L33.466 34.0466C33.4443 33.8586 33.5793 33.6889 33.7671 33.6673L35.4282 33.4767C35.6162 33.455 35.7859 33.59 35.8075 33.778L35.9721 35.2115C35.9937 35.3995 35.8589 35.5692 35.671 35.5908Z" fill="url(#paint19_linear_14523_39127)"/>
<path d="M38.5701 35.2582L36.909 35.4488C36.7211 35.4704 36.5514 35.3355 36.5297 35.1475L36.3652 33.7139C36.3435 33.526 36.4785 33.3563 36.6663 33.3346L38.3274 33.144C38.5153 33.1223 38.6851 33.2573 38.7067 33.4453L38.8713 34.8788C38.8929 35.0668 38.7581 35.2365 38.5701 35.2582Z" fill="url(#paint20_linear_14523_39127)"/>
<path d="M41.4691 34.9253L39.808 35.1159C39.6201 35.1376 39.4504 35.0026 39.4287 34.8147L39.2641 33.3811C39.2425 33.1931 39.3775 33.0234 39.5654 33.0018L41.2265 32.8111C41.4145 32.7895 41.5842 32.9244 41.6059 33.1124L41.7704 34.546C41.7919 34.734 41.6569 34.9039 41.4691 34.9253Z" fill="url(#paint21_linear_14523_39127)"/>
<path d="M24.3616 39.4192L22.7005 39.6098C22.5126 39.6314 22.3429 39.4965 22.3212 39.3087L22.1567 37.8751C22.135 37.6871 22.27 37.5174 22.4579 37.4958L24.119 37.3052C24.307 37.2835 24.4767 37.4185 24.4984 37.6064L24.6629 39.04C24.6844 39.2276 24.5494 39.3975 24.3616 39.4192Z" fill="url(#paint22_linear_14523_39127)"/>
<path d="M27.2606 39.0863L25.5995 39.277C25.4116 39.2986 25.2418 39.1636 25.2202 38.9757L25.0556 37.5421C25.034 37.3541 25.169 37.1844 25.3568 37.1628L27.0179 36.9721C27.2058 36.9505 27.3755 37.0855 27.3972 37.2734L27.5617 38.707C27.5834 38.895 27.4486 39.0649 27.2606 39.0863Z" fill="url(#paint23_linear_14523_39127)"/>
<path d="M30.1598 38.7536L28.4987 38.9443C28.3107 38.9659 28.141 38.831 28.1194 38.643L27.9548 37.2094C27.9332 37.0214 28.0681 36.8517 28.2561 36.8301L29.9172 36.6395C30.1052 36.6178 30.2749 36.7528 30.2965 36.9407L30.4611 38.3743C30.4825 38.5623 30.3478 38.732 30.1598 38.7536Z" fill="#97BEE4"/>
<path d="M33.0586 38.4209L31.3975 38.6116C31.2095 38.6332 31.0398 38.4983 31.0182 38.3103L30.8536 36.8767C30.832 36.6887 30.9669 36.519 31.1549 36.4974L32.816 36.3068C33.004 36.2851 33.1737 36.4201 33.1953 36.608L33.3599 38.0416C33.3813 38.2294 33.2466 38.3993 33.0586 38.4209Z" fill="url(#paint24_linear_14523_39127)"/>
<path d="M35.9578 38.0883L34.2967 38.2789C34.1087 38.3006 33.939 38.1656 33.9173 37.9776L33.7528 36.544C33.7311 36.3561 33.8661 36.1864 34.0539 36.1647L35.715 35.9741C35.903 35.9525 36.0727 36.0874 36.0943 36.2754L36.2589 37.709C36.2805 37.8968 36.1456 38.0666 35.9578 38.0883Z" fill="url(#paint25_linear_14523_39127)"/>
<path d="M38.8568 37.7554L37.1957 37.9461C37.0077 37.9677 36.838 37.8327 36.8163 37.6448L36.6518 36.2112C36.6301 36.0232 36.7651 35.8535 36.9531 35.8319L38.6142 35.6412C38.8021 35.6196 38.9718 35.7545 38.9935 35.9425L39.158 37.3761C39.1795 37.5641 39.0447 37.734 38.8568 37.7554Z" fill="url(#paint26_linear_14523_39127)"/>
<path d="M41.7557 37.4227L40.0946 37.6134C39.9066 37.635 39.7369 37.5001 39.7153 37.3121L39.5507 35.8785C39.5291 35.6905 39.6641 35.5208 39.852 35.4992L41.5131 35.3086C41.7011 35.2869 41.8708 35.4219 41.8924 35.6098L42.057 37.0434C42.0785 37.2314 41.9437 37.4011 41.7557 37.4227Z" fill="url(#paint27_linear_14523_39127)"/>
<path d="M24.6483 41.9164L22.9872 42.107C22.7992 42.1286 22.6295 41.9937 22.6078 41.8057L22.4433 40.3721C22.4216 40.1842 22.5566 40.0145 22.7446 39.9928L24.4057 39.8022C24.5936 39.7805 24.7633 39.9155 24.785 40.1035L24.9495 41.537C24.971 41.725 24.8362 41.8947 24.6483 41.9164Z" fill="url(#paint28_linear_14523_39127)"/>
<path d="M27.547 41.5837L25.8859 41.7743C25.698 41.796 25.5283 41.661 25.5066 41.473L25.3421 40.0395C25.3204 39.8515 25.4554 39.6818 25.6432 39.6601L27.3043 39.4695C27.4922 39.4479 27.662 39.5828 27.6836 39.7708L27.8482 41.2044C27.8698 41.3923 27.7348 41.5621 27.547 41.5837Z" fill="url(#paint29_linear_14523_39127)"/>
<path d="M30.4462 41.251L28.7851 41.4417C28.5971 41.4633 28.4274 41.3284 28.4058 41.1404L28.2412 39.7068C28.2196 39.5188 28.3545 39.3491 28.5425 39.3275L30.2036 39.1368C30.3916 39.1152 30.5613 39.2502 30.5829 39.4381L30.7475 40.8717C30.769 41.0595 30.6342 41.2294 30.4462 41.251Z" fill="url(#paint30_linear_14523_39127)"/>
<path d="M33.3452 40.9182L31.6841 41.1088C31.4961 41.1304 31.3264 40.9955 31.3048 40.8075L31.1402 39.3739C31.1186 39.186 31.2535 39.0163 31.4415 38.9946L33.1026 38.804C33.2906 38.7823 33.4603 38.9173 33.4819 39.1053L33.6465 40.5389C33.668 40.7268 33.5332 40.8967 33.3452 40.9182Z" fill="url(#paint31_linear_14523_39127)"/>
<path d="M36.2442 40.5855L34.5831 40.7761C34.3951 40.7977 34.2254 40.6628 34.2038 40.4748L34.0392 39.0412C34.0176 38.8533 34.1525 38.6836 34.3405 38.6619L36.0016 38.4713C36.1896 38.4496 36.3593 38.5846 36.3809 38.7726L36.5455 40.2061C36.5669 40.3941 36.4322 40.5638 36.2442 40.5855Z" fill="url(#paint32_linear_14523_39127)"/>
<path d="M39.1432 40.2528L37.4821 40.4434C37.2941 40.4651 37.1244 40.3301 37.1028 40.1422L36.9382 38.7086C36.9166 38.5206 37.0515 38.3509 37.2393 38.3293L38.9004 38.1386C39.0884 38.117 39.2581 38.2519 39.2797 38.4399L39.4443 39.8735C39.4659 40.0613 39.331 40.2312 39.1432 40.2528Z" fill="url(#paint33_linear_14523_39127)"/>
<path d="M42.0423 39.9199L40.3812 40.1106C40.1933 40.1322 40.0236 39.9973 40.0019 39.8093L39.8374 38.3757C39.8157 38.1877 39.9507 38.018 40.1385 37.9964L41.7996 37.8058C41.9875 37.7841 42.1573 37.9191 42.1789 38.1071L42.3435 39.5406C42.3651 39.7286 42.2303 39.8985 42.0423 39.9199Z" fill="url(#paint34_linear_14523_39127)"/>
<path d="M23.4094 27.0791C23.2264 27.1 23.061 26.9688 23.0399 26.7856L22.8487 25.1196C22.8278 24.9366 22.959 24.7711 23.1422 24.75C23.3252 24.7291 23.4907 24.8603 23.5118 25.0435L23.7029 26.7096C23.7239 26.8927 23.5925 27.058 23.4094 27.0791Z" fill="#269680"/>
<path d="M27.1137 26.6541C26.9307 26.675 26.7652 26.5438 26.7441 26.3606L26.553 24.6945C26.532 24.5115 26.6633 24.346 26.8465 24.3249C27.0295 24.304 27.1949 24.4352 27.216 24.6184L27.4072 26.2845C27.4281 26.4675 27.2967 26.633 27.1137 26.6541Z" fill="#269680"/>
<path d="M30.8178 26.2288C30.6348 26.2497 30.4693 26.1185 30.4482 25.9353L30.257 24.2693C30.2361 24.0863 30.3673 23.9208 30.5505 23.8997C30.7335 23.8788 30.899 24.01 30.9201 24.1932L31.1113 25.8592C31.1322 26.0424 31.0008 26.2079 30.8178 26.2288Z" fill="#269680"/>
<path d="M34.522 25.8037C34.339 25.8246 34.1736 25.6934 34.1525 25.5104L33.9613 23.8443C33.9404 23.6613 34.0716 23.4959 34.2548 23.4748C34.4378 23.4538 34.6033 23.5851 34.6244 23.7681L34.8155 25.4341C34.8365 25.6173 34.705 25.7826 34.522 25.8037Z" fill="#269680"/>
<path d="M38.2261 25.3787C38.0431 25.3996 37.8777 25.2684 37.8566 25.0852L37.6654 23.4191C37.6445 23.2361 37.7757 23.0707 37.9589 23.0495C38.1419 23.0286 38.3073 23.1599 38.3284 23.343L38.5196 25.0091C38.5405 25.1921 38.4091 25.3576 38.2261 25.3787Z" fill="#269680"/>
<path d="M55.7401 57.7002C55.7401 57.7002 55.7401 57.7037 55.7383 57.7126L55.7401 62.9096H50.6692L50.0066 62.247C49.8844 62.1248 49.6845 62.1309 49.5699 62.2602L48.9946 62.9096H43.7735V57.4058L47.4816 56.3099L48.9925 56.5653L55.7401 57.7002Z" fill="url(#paint35_linear_14523_39127)"/>
<path d="M59.5386 47.7375C58.7565 48.3848 57.5808 49.0959 56.0699 49.2573L55.7401 47.6293V57.7002C55.7401 57.7002 55.7401 58.1648 54.0962 58.5017C53.1279 58.7004 50.6754 58.9575 48.2565 58.7376C46.5772 58.5851 44.9138 58.2003 43.7735 57.4058C43.7735 55.6502 44.1282 45.9854 44.1494 45.3843L44.1512 45.3541C44.1512 45.3541 43.5075 46.7622 42.6261 48.2766C42.4169 48.0815 42.1597 47.8404 41.8707 47.5602C41.3068 47.0193 40.6152 46.3401 39.9023 45.5988C39.7994 45.4924 39.6983 45.386 39.5955 45.2779C40.5708 43.008 42.0551 39.8461 42.9507 39.3283C43.9029 38.7785 46.2757 38.1437 47.744 37.7837C48.4711 37.6046 48.9747 37.4946 48.9747 37.4946L51.0212 37.3137C51.0212 37.3137 51.5283 37.4538 52.2661 37.6915C53.9525 38.2359 56.8449 39.2964 57.6358 40.3816C58.1696 41.1123 58.9055 44.4231 59.5386 47.7375Z" fill="#8DCABE"/>
<path d="M42.6261 48.2766C41.594 50.05 40.2356 51.9705 39.2 51.9492C36.4283 51.8871 31.1313 43.3414 31.1313 43.3414C31.1313 43.3414 29.9094 42.9406 29.803 42.742C29.6984 42.5416 29.8775 42.0043 29.8775 42.0043C29.8775 42.0043 28.4659 39.8337 28.8028 39.6333C29.1398 39.4329 30.0353 41.1194 30.0353 41.1194C30.0353 41.1194 30.8369 40.614 31.1525 40.614C31.4682 40.614 32.1846 41.5396 32.3105 42.1089C32.4364 42.6781 38.6219 47.64 38.6219 47.64C38.6219 47.64 38.8826 46.9696 39.2869 46.0067C39.3827 45.778 39.4855 45.5332 39.5955 45.2779C40.7836 46.5334 41.954 47.6488 42.6261 48.2766Z" fill="#FFD9D9"/>
<path d="M60.5921 53.7208C59.8011 54.8486 59.214 54.9103 58.1358 55.9016L56.07 49.2573C57.5809 49.0959 58.7566 48.3848 59.5387 47.7375C59.9714 50.0074 60.3562 52.2773 60.5921 53.7208Z" fill="#FFD9D9"/>
<path d="M55.7402 47.6293V57.7002C55.7402 57.7002 55.7402 58.1648 54.0963 58.5017C53.1281 58.7003 50.6755 58.9575 48.2567 58.7376C47.6094 55.8878 52.4897 55.3593 51.947 53.1072C51.4008 50.832 53.9704 51.5484 54.0963 48.0673C54.224 44.588 54.9404 44.6802 54.9404 44.6802L55.7402 47.6293Z" fill="#43B59F"/>
<mask id="mask1_14523_39127" style="mask-type:luminance" maskUnits="userSpaceOnUse" x="39" y="37" width="21" height="22">
<path d="M59.5386 47.7375C58.7565 48.3848 57.5808 49.0959 56.0699 49.2573L55.7401 47.6293V57.7002C55.7401 57.7002 55.7401 58.1648 54.0962 58.5017C53.1279 58.7004 50.6754 58.9575 48.2565 58.7376C46.5772 58.5851 44.9138 58.2003 43.7735 57.4058C43.7735 55.6502 44.1282 45.9854 44.1494 45.3843L44.1512 45.3541C44.1512 45.3541 43.5075 46.7622 42.6261 48.2766C42.4169 48.0815 42.1597 47.8404 41.8707 47.5602C41.2252 46.943 40.4148 46.1433 39.5955 45.2779C40.5708 43.008 42.0551 39.8461 42.9507 39.3283C44.3729 38.5054 48.9747 37.4946 48.9747 37.4946L51.0212 37.3137C51.0212 37.3137 56.4991 38.8229 57.6358 40.3816C58.1696 41.1123 58.9055 44.4231 59.5386 47.7375Z" fill="white"/>
</mask>
<g mask="url(#mask1_14523_39127)">
<path opacity="0.25" d="M45.632 36.9067C45.6868 37.111 45.5656 37.321 45.3614 37.376C45.1571 37.4307 44.9469 37.3096 44.8921 37.1053C44.8373 36.901 44.9585 36.6909 45.1627 36.6361C45.367 36.5813 45.5772 36.7024 45.632 36.9067Z" fill="white"/>
<path opacity="0.25" d="M46.1483 38.8297C46.2031 39.034 46.082 39.2442 45.8777 39.299C45.6734 39.3538 45.4633 39.2327 45.4085 39.0284C45.3537 38.8241 45.4748 38.6139 45.6791 38.5591C45.8835 38.5043 46.0935 38.6255 46.1483 38.8297Z" fill="white"/>
<path opacity="0.25" d="M48.3046 38.2506C48.3594 38.4549 48.2382 38.665 48.0339 38.7198C47.8297 38.7746 47.6195 38.6535 47.5647 38.4492C47.5099 38.2449 47.631 38.0348 47.8353 37.98C48.0396 37.9252 48.2496 38.0463 48.3046 38.2506Z" fill="white"/>
<path opacity="0.25" d="M50.461 37.6716C50.5158 37.8759 50.3947 38.0858 50.1904 38.1408C49.9861 38.1956 49.776 38.0745 49.7212 37.8702C49.6664 37.6659 49.7875 37.4558 49.9918 37.401C50.1961 37.3462 50.4062 37.4673 50.461 37.6716Z" fill="white"/>
<path opacity="0.25" d="M52.6169 37.0924C52.6717 37.2967 52.5506 37.5068 52.3463 37.5616C52.142 37.6164 51.932 37.4953 51.8771 37.291C51.8223 37.0867 51.9434 36.8766 52.1477 36.8218C52.352 36.767 52.5621 36.8881 52.6169 37.0924Z" fill="white"/>
<path opacity="0.25" d="M46.6647 40.7526C46.7194 40.9569 46.5983 41.167 46.394 41.2218C46.1897 41.2766 45.9796 41.1555 45.9248 40.9512C45.87 40.7469 45.9911 40.5368 46.1954 40.482C46.3997 40.4272 46.6097 40.5483 46.6647 40.7526Z" fill="white"/>
<path opacity="0.25" d="M48.8209 40.1736C48.8757 40.3779 48.7546 40.588 48.5503 40.6428C48.346 40.6976 48.1359 40.5765 48.0811 40.3722C48.0263 40.1679 48.1474 39.9578 48.3517 39.903C48.556 39.8482 48.7659 39.9693 48.8209 40.1736Z" fill="white"/>
<path opacity="0.25" d="M50.9772 39.5944C51.032 39.7987 50.9108 40.0089 50.7066 40.0637C50.5023 40.1185 50.2921 39.9973 50.2373 39.793C50.1825 39.5888 50.3037 39.3786 50.5079 39.3238C50.7122 39.269 50.9224 39.3901 50.9772 39.5944Z" fill="white"/>
<path opacity="0.25" d="M53.1334 39.0154C53.1882 39.2197 53.0671 39.4299 52.8628 39.4847C52.6585 39.5394 52.4484 39.4183 52.3936 39.214C52.3388 39.0097 52.4599 38.7996 52.6642 38.7448C52.8685 38.69 53.0786 38.8111 53.1334 39.0154Z" fill="white"/>
<path opacity="0.25" d="M55.2899 38.4363C55.3447 38.6405 55.2236 38.8505 55.0193 38.9055C54.815 38.9603 54.6048 38.8392 54.55 38.6349C54.4952 38.4306 54.6164 38.2204 54.8207 38.1656C55.0249 38.1108 55.2349 38.232 55.2899 38.4363Z" fill="white"/>
<path opacity="0.25" d="M57.446 37.8572C57.5008 38.0615 57.3796 38.2717 57.1754 38.3265C56.9711 38.3813 56.7611 38.2601 56.7061 38.0558C56.6513 37.8516 56.7724 37.6414 56.9767 37.5866C57.181 37.5318 57.3912 37.6529 57.446 37.8572Z" fill="white"/>
<path opacity="0.25" d="M59.6022 37.2781C59.657 37.4823 59.5359 37.6925 59.3316 37.7473C59.1273 37.8021 58.9174 37.681 58.8624 37.4767C58.8076 37.2724 58.9287 37.0622 59.133 37.0074C59.3373 36.9526 59.5474 37.0738 59.6022 37.2781Z" fill="white"/>
<path opacity="0.25" d="M47.1812 42.6756C47.236 42.8799 47.1148 43.0901 46.9105 43.1449C46.7063 43.1997 46.4961 43.0785 46.4413 42.8742C46.3865 42.67 46.5076 42.4598 46.7119 42.405C46.9162 42.3502 47.1262 42.4713 47.1812 42.6756Z" fill="white"/>
<path opacity="0.25" d="M49.3374 42.0965C49.3922 42.3007 49.2711 42.5107 49.0668 42.5657C48.8625 42.6205 48.6524 42.4994 48.5976 42.2951C48.5428 42.0908 48.6639 41.8806 48.8682 41.8258C49.0725 41.771 49.2826 41.8922 49.3374 42.0965Z" fill="white"/>
<path opacity="0.25" d="M51.4935 41.5175C51.5483 41.7217 51.4272 41.9319 51.2229 41.9867C51.0186 42.0415 50.8085 41.9204 50.7537 41.7161C50.6989 41.5118 50.82 41.3016 51.0243 41.2468C51.2286 41.192 51.4387 41.3132 51.4935 41.5175Z" fill="white"/>
<path opacity="0.25" d="M53.6498 40.9383C53.7046 41.1426 53.5834 41.3527 53.3791 41.4075C53.1749 41.4623 52.9647 41.3412 52.9099 41.1369C52.8551 40.9326 52.9762 40.7224 53.1805 40.6676C53.3848 40.6129 53.5948 40.734 53.6498 40.9383Z" fill="white"/>
<path opacity="0.25" d="M55.8062 40.3593C55.861 40.5636 55.7399 40.7737 55.5356 40.8285C55.3313 40.8833 55.1212 40.7622 55.0664 40.5579C55.0116 40.3536 55.1327 40.1435 55.337 40.0887C55.5413 40.0339 55.7514 40.155 55.8062 40.3593Z" fill="white"/>
<path opacity="0.25" d="M57.9625 39.7801C58.0173 39.9844 57.8962 40.1945 57.6919 40.2493C57.4876 40.3041 57.2774 40.183 57.2226 39.9787C57.1678 39.7744 57.289 39.5643 57.4932 39.5095C57.6975 39.4547 57.9077 39.5758 57.9625 39.7801Z" fill="white"/>
<path opacity="0.25" d="M60.1187 39.2011C60.1735 39.4054 60.0524 39.6154 59.8481 39.6703C59.6438 39.7251 59.4337 39.604 59.3789 39.3997C59.3241 39.1954 59.4452 38.9853 59.6495 38.9305C59.8538 38.8757 60.0639 38.9968 60.1187 39.2011Z" fill="white"/>
</g>
<mask id="mask2_14523_39127" style="mask-type:luminance" maskUnits="userSpaceOnUse" x="39" y="37" width="21" height="22">
<path d="M59.5386 47.7375C58.7565 48.3848 57.5808 49.0959 56.0699 49.2573L55.7401 47.6293V57.7002C55.7401 57.7002 55.7401 58.1648 54.0962 58.5017C53.1279 58.7004 50.6754 58.9575 48.2565 58.7376C46.5772 58.5851 44.9138 58.2003 43.7735 57.4058C43.7735 55.6502 44.1282 45.9854 44.1494 45.3843L44.1512 45.3541C44.1512 45.3541 43.5075 46.7622 42.6261 48.2766C42.4169 48.0815 42.1597 47.8404 41.8707 47.5602C41.2252 46.943 40.4148 46.1433 39.5955 45.2779C40.5708 43.008 42.0551 39.8461 42.9507 39.3283C44.3729 38.5054 48.9747 37.4946 48.9747 37.4946L51.0212 37.3137C51.0212 37.3137 56.4991 38.8229 57.6358 40.3816C58.1696 41.1123 58.9055 44.4231 59.5386 47.7375Z" fill="white"/>
</mask>
<g mask="url(#mask2_14523_39127)">
<path opacity="0.25" d="M41.3755 54.8552C41.4303 55.0595 41.3092 55.2696 41.1049 55.3244C40.9006 55.3792 40.6906 55.2581 40.6357 55.0538C40.5809 54.8495 40.702 54.6396 40.9063 54.5846C41.1106 54.5298 41.3207 54.6509 41.3755 54.8552Z" fill="white"/>
<path opacity="0.25" d="M43.5318 54.276C43.5866 54.4803 43.4655 54.6905 43.2612 54.7453C43.0569 54.8 42.8467 54.6789 42.7919 54.4746C42.7371 54.2703 42.8583 54.0602 43.0626 54.0054C43.2668 53.9506 43.477 54.0717 43.5318 54.276Z" fill="white"/>
<path opacity="0.25" d="M45.6882 53.697C45.743 53.9013 45.6219 54.1113 45.4176 54.1662C45.2133 54.221 45.0032 54.0999 44.9484 53.8956C44.8936 53.6913 45.0147 53.4812 45.219 53.4264C45.4233 53.3716 45.6333 53.4927 45.6882 53.697Z" fill="white"/>
<path opacity="0.25" d="M47.8445 53.1178C47.8993 53.3221 47.7782 53.5321 47.5739 53.5871C47.3696 53.6419 47.1594 53.5207 47.1047 53.3165C47.0499 53.1122 47.171 52.902 47.3753 52.8472C47.5796 52.7924 47.7897 52.9136 47.8445 53.1178Z" fill="white"/>
<path opacity="0.25" d="M50.0007 52.5388C50.0555 52.7431 49.9344 52.9533 49.7301 53.0081C49.5258 53.0629 49.3157 52.9417 49.2609 52.7375C49.2061 52.5332 49.3272 52.323 49.5315 52.2682C49.7358 52.2134 49.9459 52.3345 50.0007 52.5388Z" fill="white"/>
<path opacity="0.25" d="M39.7359 57.3572C39.7906 57.5615 39.6695 57.7717 39.4652 57.8265C39.2609 57.8813 39.051 57.7601 38.996 57.5558C38.9412 57.3516 39.0623 57.1416 39.2666 57.0866C39.4709 57.0318 39.6811 57.1529 39.7359 57.3572Z" fill="white"/>
<path opacity="0.25" d="M41.8921 56.7781C41.9469 56.9824 41.8258 57.1925 41.6215 57.2473C41.4172 57.3021 41.2072 57.181 41.1523 56.9767C41.0975 56.7724 41.2186 56.5624 41.4229 56.5075C41.6272 56.4527 41.8373 56.5738 41.8921 56.7781Z" fill="white"/>
<path opacity="0.25" d="M44.0484 56.1991C44.1032 56.4033 43.9821 56.6135 43.7778 56.6683C43.5735 56.7231 43.3633 56.602 43.3085 56.3977C43.2537 56.1934 43.3749 55.9834 43.5792 55.9284C43.7834 55.8736 43.9936 55.9948 44.0484 56.1991Z" fill="white"/>
<path opacity="0.25" d="M46.2047 55.6199C46.2595 55.8242 46.1383 56.0343 45.934 56.0891C45.7298 56.1439 45.5196 56.0228 45.4648 55.8185C45.41 55.6142 45.5311 55.4042 45.7354 55.3493C45.9397 55.2945 46.1497 55.4156 46.2047 55.6199Z" fill="white"/>
<path opacity="0.25" d="M48.3607 55.0409C48.4155 55.2452 48.2944 55.4553 48.0901 55.5101C47.8858 55.5649 47.6757 55.4438 47.6209 55.2395C47.5661 55.0352 47.6872 54.8251 47.8915 54.7703C48.0958 54.7155 48.3059 54.8366 48.3607 55.0409Z" fill="white"/>
<path opacity="0.25" d="M50.517 54.4617C50.5718 54.666 50.4507 54.876 50.2464 54.9309C50.0421 54.9857 49.8319 54.8646 49.7772 54.6603C49.7224 54.456 49.8435 54.2459 50.0478 54.1911C50.2521 54.1363 50.4622 54.2574 50.517 54.4617Z" fill="white"/>
<path opacity="0.25" d="M42.4083 58.7011C42.4631 58.9053 42.342 59.1155 42.1377 59.1703C41.9334 59.2251 41.7232 59.104 41.6684 58.8997C41.6136 58.6954 41.7348 58.4854 41.939 58.4304C42.1433 58.3756 42.3535 58.4968 42.4083 58.7011Z" fill="white"/>
<path opacity="0.25" d="M44.5649 58.1219C44.6197 58.3262 44.4986 58.5363 44.2943 58.5911C44.09 58.6459 43.8798 58.5248 43.825 58.3205C43.7703 58.1162 43.8914 57.9062 44.0957 57.8513C44.3 57.7965 44.5099 57.9176 44.5649 58.1219Z" fill="white"/>
<path opacity="0.25" d="M46.721 57.5429C46.7758 57.7472 46.6547 57.9573 46.4504 58.0121C46.2461 58.0669 46.0361 57.9458 45.9811 57.7415C45.9264 57.5372 46.0475 57.3272 46.2518 57.2723C46.4561 57.2175 46.6662 57.3386 46.721 57.5429Z" fill="white"/>
<path opacity="0.25" d="M48.8772 56.9637C48.932 57.168 48.8109 57.3781 48.6066 57.4329C48.4023 57.4877 48.1924 57.3666 48.1374 57.1623C48.0826 56.958 48.2037 56.7481 48.408 56.6931C48.6123 56.6383 48.8224 56.7594 48.8772 56.9637Z" fill="white"/>
<path opacity="0.25" d="M51.0333 56.3847C51.0881 56.589 50.967 56.7991 50.7627 56.8539C50.5584 56.9087 50.3485 56.7876 50.2935 56.5833C50.2387 56.379 50.3598 56.169 50.5641 56.1141C50.7684 56.0593 50.9785 56.1804 51.0333 56.3847Z" fill="white"/>
<path opacity="0.25" d="M49.3936 58.8867C49.4484 59.091 49.3272 59.3012 49.123 59.356C48.9187 59.4108 48.7087 59.2896 48.6537 59.0854C48.5989 58.8811 48.72 58.6711 48.9243 58.6161C49.1286 58.5613 49.3388 58.6824 49.3936 58.8867Z" fill="white"/>
<path opacity="0.25" d="M51.55 58.3076C51.6048 58.5119 51.4837 58.722 51.2794 58.7768C51.0751 58.8316 50.8651 58.7105 50.8102 58.5062C50.7554 58.3019 50.8765 58.0919 51.0808 58.037C51.2851 57.9822 51.495 58.1033 51.55 58.3076Z" fill="white"/>
</g>
<mask id="mask3_14523_39127" style="mask-type:luminance" maskUnits="userSpaceOnUse" x="39" y="37" width="21" height="22">
<path d="M59.5386 47.7375C58.7565 48.3848 57.5808 49.0959 56.0699 49.2573L55.7401 47.6293V57.7002C55.7401 57.7002 55.7401 58.1648 54.0962 58.5017C53.1279 58.7004 50.6754 58.9575 48.2565 58.7376C46.5772 58.5851 44.9138 58.2003 43.7735 57.4058C43.7735 55.6502 44.1282 45.9854 44.1494 45.3843L44.1512 45.3541C44.1512 45.3541 43.5075 46.7622 42.6261 48.2766C42.4169 48.0815 42.1597 47.8404 41.8707 47.5602C41.2252 46.943 40.4148 46.1433 39.5955 45.2779C40.5708 43.008 42.0551 39.8461 42.9507 39.3283C44.3729 38.5054 48.9747 37.4946 48.9747 37.4946L51.0212 37.3137C51.0212 37.3137 56.4991 38.8229 57.6358 40.3816C58.1696 41.1123 58.9055 44.4231 59.5386 47.7375Z" fill="white"/>
</mask>
<g mask="url(#mask3_14523_39127)">
<path opacity="0.25" d="M51.3289 47.1271C51.3837 47.3314 51.2626 47.5415 51.0583 47.5963C50.854 47.6511 50.644 47.53 50.5891 47.3257C50.5343 47.1214 50.6554 46.9115 50.8597 46.8565C51.064 46.8017 51.2741 46.9228 51.3289 47.1271Z" fill="white"/>
<path opacity="0.25" d="M53.4852 46.5481C53.54 46.7524 53.4188 46.9624 53.2146 47.0173C53.0103 47.0721 52.8003 46.951 52.7453 46.7467C52.6905 46.5424 52.8116 46.3323 53.0159 46.2775C53.22 46.2227 53.4302 46.3438 53.4852 46.5481Z" fill="white"/>
<path opacity="0.25" d="M55.6414 45.9689C55.6962 46.1732 55.5751 46.3832 55.3708 46.4381C55.1665 46.4929 54.9564 46.3718 54.9016 46.1675C54.8468 45.9632 54.9679 45.7531 55.1722 45.6983C55.3765 45.6435 55.5865 45.7646 55.6414 45.9689Z" fill="white"/>
<path opacity="0.25" d="M57.7975 45.39C57.8523 45.5942 57.7312 45.8042 57.5269 45.8592C57.3226 45.914 57.1125 45.7929 57.0577 45.5886C57.0029 45.3843 57.124 45.1741 57.3283 45.1193C57.5326 45.0645 57.7427 45.1857 57.7975 45.39Z" fill="white"/>
<path opacity="0.25" d="M59.954 44.8108C60.0087 45.015 59.8876 45.225 59.6833 45.28C59.479 45.3348 59.2689 45.2137 59.2141 45.0094C59.1593 44.8051 59.2804 44.5949 59.4847 44.5401C59.689 44.4853 59.8992 44.6065 59.954 44.8108Z" fill="white"/>
<path opacity="0.25" d="M51.8451 49.0501C51.8999 49.2544 51.7788 49.4646 51.5745 49.5194C51.3702 49.5742 51.1602 49.453 51.1053 49.2488C51.0505 49.0445 51.1716 48.8343 51.3759 48.7795C51.5802 48.7247 51.7903 48.8458 51.8451 49.0501Z" fill="white"/>
<path opacity="0.25" d="M54.0018 48.471C54.0565 48.6753 53.9354 48.8854 53.7311 48.9402C53.5268 48.995 53.3169 48.8739 53.2619 48.6696C53.2071 48.4653 53.3282 48.2553 53.5325 48.2004C53.7368 48.1456 53.9468 48.2667 54.0018 48.471Z" fill="white"/>
<path opacity="0.25" d="M56.1578 47.892C56.2126 48.0962 56.0915 48.3064 55.8872 48.3612C55.6829 48.416 55.4729 48.2949 55.418 48.0906C55.3632 47.8863 55.4843 47.6761 55.6886 47.6213C55.8929 47.5665 56.103 47.6877 56.1578 47.892Z" fill="white"/>
<path opacity="0.25" d="M58.3141 47.3128C58.3689 47.5171 58.2478 47.727 58.0435 47.782C57.8392 47.8368 57.6292 47.7157 57.5742 47.5114C57.5194 47.3071 57.6406 47.0969 57.8449 47.0422C58.0491 46.9874 58.2593 47.1085 58.3141 47.3128Z" fill="white"/>
<path opacity="0.25" d="M52.3616 50.973C52.4164 51.1773 52.2953 51.3874 52.091 51.4422C51.8867 51.497 51.6766 51.3759 51.6218 51.1716C51.567 50.9673 51.6881 50.7572 51.8924 50.7024C52.0967 50.6476 52.3068 50.7687 52.3616 50.973Z" fill="white"/>
<path opacity="0.25" d="M54.5179 50.394C54.5727 50.5983 54.4516 50.8084 54.2473 50.8632C54.043 50.918 53.8328 50.7969 53.7781 50.5926C53.7233 50.3883 53.8444 50.1782 54.0487 50.1234C54.253 50.0686 54.4629 50.1897 54.5179 50.394Z" fill="white"/>
<path opacity="0.25" d="M56.6742 49.8148C56.729 50.0191 56.6078 50.2292 56.4035 50.284C56.1993 50.3388 55.9893 50.2177 55.9343 50.0134C55.8795 49.8091 56.0006 49.599 56.2049 49.5442C56.4092 49.4894 56.6194 49.6105 56.6742 49.8148Z" fill="white"/>
<path opacity="0.25" d="M58.8304 49.2358C58.8852 49.4401 58.7641 49.6503 58.5598 49.7051C58.3555 49.7598 58.1455 49.6387 58.0906 49.4344C58.0358 49.2301 58.1569 49.0202 58.3612 48.9652C58.5655 48.9104 58.7756 49.0315 58.8304 49.2358Z" fill="white"/>
<path opacity="0.25" d="M52.8781 52.896C52.9329 53.1003 52.8118 53.3105 52.6075 53.3653C52.4032 53.42 52.1931 53.2989 52.1383 53.0946C52.0835 52.8903 52.2046 52.6802 52.4089 52.6254C52.6132 52.5706 52.8231 52.6917 52.8781 52.896Z" fill="white"/>
<path opacity="0.25" d="M55.0344 52.3168C55.0892 52.5211 54.9681 52.7313 54.7638 52.7861C54.5595 52.8409 54.3493 52.7198 54.2945 52.5155C54.2397 52.3112 54.3609 52.101 54.5651 52.0462C54.7694 51.9914 54.9796 52.1126 55.0344 52.3168Z" fill="white"/>
<path opacity="0.25" d="M57.1905 51.7379C57.2453 51.9421 57.1241 52.1523 56.9199 52.2071C56.7156 52.2619 56.5054 52.1408 56.4506 51.9365C56.3958 51.7322 56.517 51.522 56.7212 51.4672C56.9255 51.4124 57.1357 51.5336 57.1905 51.7379Z" fill="white"/>
<path opacity="0.25" d="M59.3469 51.1587C59.4017 51.363 59.2806 51.5731 59.0763 51.6279C58.872 51.6827 58.6619 51.5616 58.6071 51.3573C58.5523 51.153 58.6734 50.9428 58.8777 50.8881C59.0818 50.8333 59.2919 50.9544 59.3469 51.1587Z" fill="white"/>
<path opacity="0.25" d="M53.3945 54.8189C53.4493 55.0231 53.3282 55.2333 53.1239 55.2881C52.9196 55.3429 52.7096 55.2218 52.6546 55.0175C52.5998 54.8132 52.721 54.6032 52.9253 54.5482C53.1295 54.4934 53.3395 54.6146 53.3945 54.8189Z" fill="white"/>
<path opacity="0.25" d="M55.5507 54.2399C55.6055 54.4441 55.4844 54.6543 55.2801 54.7091C55.0758 54.7639 54.8659 54.6428 54.8109 54.4385C54.7561 54.2342 54.8772 54.0242 55.0815 53.9692C55.2858 53.9144 55.4959 54.0356 55.5507 54.2399Z" fill="white"/>
<path opacity="0.25" d="M57.7068 53.6607C57.7616 53.8649 57.6405 54.0751 57.4362 54.1299C57.2319 54.1847 57.0218 54.0636 56.967 53.8593C56.9122 53.655 57.0333 53.4448 57.2376 53.39C57.4419 53.3352 57.652 53.4564 57.7068 53.6607Z" fill="white"/>
<path opacity="0.25" d="M59.8634 53.0817C59.9182 53.286 59.7971 53.4961 59.5928 53.5509C59.3885 53.6057 59.1784 53.4846 59.1236 53.2803C59.0688 53.076 59.1899 52.8659 59.3942 52.8111C59.5985 52.7563 59.8085 52.8774 59.8634 53.0817Z" fill="white"/>
</g>
<mask id="mask4_14523_39127" style="mask-type:luminance" maskUnits="userSpaceOnUse" x="39" y="37" width="21" height="22">
<path d="M59.5386 47.7375C58.7565 48.3848 57.5808 49.0959 56.0699 49.2573L55.7401 47.6293V57.7002C55.7401 57.7002 55.7401 58.1648 54.0962 58.5017C53.1279 58.7004 50.6754 58.9575 48.2565 58.7376C46.5772 58.5851 44.9138 58.2003 43.7735 57.4058C43.7735 55.6502 44.1282 45.9854 44.1494 45.3843L44.1512 45.3541C44.1512 45.3541 43.5075 46.7622 42.6261 48.2766C42.4169 48.0815 42.1597 47.8404 41.8707 47.5602C41.2252 46.943 40.4148 46.1433 39.5955 45.2779C40.5708 43.008 42.0551 39.8461 42.9507 39.3283C44.3729 38.5054 48.9747 37.4946 48.9747 37.4946L51.0212 37.3137C51.0212 37.3137 56.4991 38.8229 57.6358 40.3816C58.1696 41.1123 58.9055 44.4231 59.5386 47.7375Z" fill="white"/>
</mask>
<g mask="url(#mask4_14523_39127)">
<path opacity="0.25" d="M40.2854 44.5321C40.3402 44.7364 40.2191 44.9466 40.0148 45.0014C39.8105 45.0562 39.6004 44.935 39.5456 44.7307C39.4908 44.5265 39.6119 44.3163 39.8162 44.2615C40.0205 44.2067 40.2304 44.3278 40.2854 44.5321Z" fill="white"/>
<path opacity="0.25" d="M42.4415 43.9531C42.4963 44.1574 42.3751 44.3676 42.1708 44.4224C41.9666 44.4771 41.7564 44.356 41.7016 44.1517C41.6468 43.9474 41.7679 43.7373 41.9722 43.6825C42.1765 43.6277 42.3865 43.7488 42.4415 43.9531Z" fill="white"/>
<path opacity="0.25" d="M44.5977 43.374C44.6525 43.5782 44.5314 43.7884 44.3271 43.8432C44.1228 43.898 43.9127 43.7769 43.8579 43.5726C43.8031 43.3683 43.9242 43.1581 44.1285 43.1033C44.3328 43.0485 44.5429 43.1697 44.5977 43.374Z" fill="white"/>
<path opacity="0.25" d="M40.8017 46.4552C40.8565 46.6595 40.7353 46.8696 40.531 46.9244C40.3268 46.9792 40.1168 46.8581 40.0618 46.6538C40.007 46.4495 40.1281 46.2393 40.3324 46.1845C40.5367 46.1298 40.7467 46.2509 40.8017 46.4552Z" fill="white"/>
<path opacity="0.25" d="M42.9578 45.876C43.0126 46.0803 42.8914 46.2904 42.6871 46.3452C42.4829 46.4 42.2729 46.2789 42.2179 46.0746C42.1631 45.8703 42.2842 45.6602 42.4885 45.6054C42.6928 45.5506 42.903 45.6717 42.9578 45.876Z" fill="white"/>
<path opacity="0.25" d="M45.1142 45.297C45.169 45.5013 45.0479 45.7114 44.8436 45.7662C44.6393 45.821 44.4293 45.6999 44.3744 45.4956C44.3196 45.2913 44.4407 45.0812 44.645 45.0264C44.8493 44.9716 45.0594 45.0927 45.1142 45.297Z" fill="white"/>
<path opacity="0.25" d="M41.3182 48.378C41.373 48.5823 41.2519 48.7925 41.0476 48.8473C40.8433 48.9021 40.6332 48.7809 40.5784 48.5766C40.5236 48.3724 40.6447 48.1622 40.849 48.1074C41.0533 48.0526 41.2632 48.1737 41.3182 48.378Z" fill="white"/>
<path opacity="0.25" d="M43.4745 47.799C43.5293 48.0033 43.4081 48.2135 43.2039 48.2683C42.9996 48.323 42.7896 48.2019 42.7346 47.9976C42.6798 47.7933 42.8009 47.5832 43.0052 47.5284C43.2095 47.4736 43.4197 47.5947 43.4745 47.799Z" fill="white"/>
<path opacity="0.25" d="M45.6307 47.2199C45.6855 47.4241 45.5644 47.6343 45.3601 47.6891C45.1558 47.7439 44.9459 47.6228 44.8909 47.4185C44.8361 47.2142 44.9572 47.004 45.1615 46.9492C45.3658 46.8944 45.5759 47.0156 45.6307 47.2199Z" fill="white"/>
<path opacity="0.25" d="M39.6783 50.88C39.7331 51.0843 39.612 51.2945 39.4077 51.3493C39.2034 51.4041 38.9933 51.2829 38.9385 51.0786C38.8837 50.8744 39.0048 50.6644 39.2091 50.6094C39.4134 50.5546 39.6233 50.6757 39.6783 50.88Z" fill="white"/>
<path opacity="0.25" d="M41.8346 50.301C41.8894 50.5053 41.7683 50.7155 41.564 50.7703C41.3597 50.825 41.1495 50.7039 41.0947 50.4996C41.0399 50.2953 41.1611 50.0854 41.3653 50.0304C41.5696 49.9756 41.7798 50.0967 41.8346 50.301Z" fill="white"/>
<path opacity="0.25" d="M43.991 49.7219C44.0458 49.9262 43.9247 50.1363 43.7204 50.1911C43.5161 50.2459 43.306 50.1248 43.2512 49.9205C43.1964 49.7162 43.3175 49.5062 43.5218 49.4512C43.7261 49.3965 43.9362 49.5176 43.991 49.7219Z" fill="white"/>
<path opacity="0.25" d="M46.1473 49.1428C46.2021 49.3471 46.081 49.5573 45.8767 49.6121C45.6724 49.6669 45.4622 49.5457 45.4074 49.3414C45.3527 49.1372 45.4738 48.927 45.6781 48.8722C45.8824 48.8174 46.0923 48.9385 46.1473 49.1428Z" fill="white"/>
<path opacity="0.25" d="M40.1948 52.8031C40.2496 53.0074 40.1285 53.2175 39.9242 53.2723C39.7199 53.3271 39.5099 53.206 39.4549 53.0017C39.4002 52.7974 39.5213 52.5874 39.7256 52.5324C39.9299 52.4777 40.1398 52.5988 40.1948 52.8031Z" fill="white"/>
<path opacity="0.25" d="M42.3509 52.2239C42.4057 52.4282 42.2845 52.6383 42.0803 52.6931C41.876 52.7479 41.6658 52.6268 41.611 52.4225C41.5562 52.2182 41.6774 52.0082 41.8816 51.9533C42.0859 51.8985 42.2961 52.0196 42.3509 52.2239Z" fill="white"/>
<path opacity="0.25" d="M44.5071 51.6449C44.5619 51.8492 44.4408 52.0593 44.2365 52.1141C44.0322 52.1689 43.8221 52.0478 43.7673 51.8435C43.7125 51.6392 43.8336 51.4292 44.0379 51.3743C44.2422 51.3195 44.4523 51.4406 44.5071 51.6449Z" fill="white"/>
<path opacity="0.25" d="M46.6636 51.0657C46.7184 51.27 46.5973 51.4801 46.393 51.5349C46.1887 51.5897 45.9785 51.4686 45.9237 51.2643C45.8689 51.06 45.9901 50.8501 46.1944 50.7951C46.3986 50.7403 46.6086 50.8614 46.6636 51.0657Z" fill="white"/>
</g>
<path d="M44.301 43.5354L44.1513 45.3541C44.1513 45.3541 43.5076 46.7622 42.6262 48.2766C42.417 48.0815 42.1598 47.8404 41.8708 47.5602C42.8878 46.4566 43.7137 44.5245 44.1091 43.4903C44.1504 43.3827 44.3106 43.4205 44.301 43.5354Z" fill="#43B59F"/>
<path d="M52.266 37.6915C51.7641 38.8991 50.8668 40.2132 49.3559 40.0021C47.657 39.7645 47.5701 38.6136 47.7439 37.7837C48.471 37.6046 48.9746 37.4946 48.9746 37.4946L51.0211 37.3137C51.0211 37.3137 51.5283 37.4538 52.266 37.6915Z" fill="white"/>
<path d="M40.2019 48.7146L38.6218 47.64C38.6218 47.64 38.8825 46.9696 39.2868 46.0067L40.2019 48.7146Z" fill="url(#paint36_linear_14523_39127)"/>
<path d="M46.5963 32.3759C45.4692 30.447 46.5332 28.4561 46.5332 28.4561C46.5332 28.4561 45.8589 27.508 46.7227 26.7916C47.5865 26.0752 48.461 26.8654 48.461 26.8654C48.461 26.8654 48.0712 25.8751 49.0194 25.6433C49.9674 25.4116 50.6628 26.7811 51.9165 27.3289C53.1703 27.8767 54.3184 28.9618 54.3395 29.7414C54.3606 30.5209 54.1708 30.6896 54.1708 30.6896C54.1708 30.6896 54.9504 31.0162 54.4446 32.0485C53.9389 33.081 53.5386 33.5234 52.4746 34.3872C51.4106 35.251 50.1464 34.3661 50.1359 34.2608L46.5963 32.3759Z" fill="#2D2D2D"/>
<path d="M51.2944 35.4535C51.2927 36.4288 51.3583 37.5904 51.3583 37.5904C51.3583 37.5904 50.6791 39.4701 49.3987 39.4701C48.1184 39.4701 48.434 37.6844 48.434 37.6844C48.434 37.6844 48.434 37.5478 48.4216 37.312C48.4056 36.9928 48.3666 36.4962 48.2762 35.9146L51.3583 34.3345C51.3122 34.5686 51.2962 34.9889 51.2944 35.4535Z" fill="#FFD9D9"/>
<path d="M51.3583 34.3345C51.3122 34.5686 51.2962 34.9889 51.2944 35.4535C50.7394 36.4448 49.6027 37.3687 48.4216 37.312C48.4056 36.9928 48.3666 36.4962 48.2762 35.9146L51.3583 34.3345Z" fill="url(#paint37_linear_14523_39127)"/>
<path d="M46.9173 28.9774C46.5064 30.1783 46.4986 30.6683 46.4669 31.561C46.4353 32.4539 45.9322 35.8408 48.2815 36.1673C50.6309 36.4939 52.0847 33.8813 52.0847 33.8813C52.0847 33.8813 52.622 34.5133 53.3173 33.8813C54.0127 33.2492 53.4438 32.2799 52.8538 32.301C52.2638 32.3221 52.0531 33.0701 52.0531 33.0701L51.9793 31.4794C51.9793 31.4794 51.1682 30.721 50.2516 30.6367C49.3351 30.5523 47.6706 30.4681 46.9173 28.9774Z" fill="#FFD9D9"/>
<path d="M53.0697 32.9596C52.6852 32.7174 52.385 33.3283 52.6537 33.6285" stroke="#BBC4C2" stroke-width="0.4466" stroke-miterlimit="10" stroke-linecap="round" stroke-linejoin="round"/>
<path d="M48.5768 31.9535L48.0627 33.4605C48.0108 33.613 48.1009 33.777 48.2575 33.8149L48.5768 33.8921" stroke="#BBC4C2" stroke-width="0.4466" stroke-miterlimit="10" stroke-linecap="round" stroke-linejoin="round"/>
<path d="M49.9568 32.4697C49.9568 32.586 49.8625 32.6803 49.7461 32.6803C49.6298 32.6803 49.5355 32.586 49.5355 32.4697C49.5355 32.3533 49.6298 32.259 49.7461 32.259C49.8625 32.259 49.9568 32.3533 49.9568 32.4697Z" fill="#2D2D2D"/>
<path d="M47.5969 32.3758C47.5969 32.4922 47.5026 32.5865 47.3863 32.5865C47.2699 32.5865 47.1756 32.4922 47.1756 32.3758C47.1756 32.2595 47.2699 32.1652 47.3863 32.1652C47.5026 32.1652 47.5969 32.2595 47.5969 32.3758Z" fill="#2D2D2D"/>
<path d="M49.3562 31.6901C49.3562 31.6901 49.8725 31.2581 50.3676 31.8587" stroke="#2D2D2D" stroke-width="0.4727" stroke-miterlimit="10" stroke-linecap="round"/>
<path d="M46.9413 31.5848C46.9413 31.5848 47.4153 31.0286 47.9211 31.5397" stroke="#2D2D2D" stroke-width="0.4727" stroke-miterlimit="10" stroke-linecap="round"/>
<path d="M49.6218 34.3397C49.6591 34.6981 49.3987 35.0187 49.0405 35.0559C48.6821 35.0932 48.3615 34.8328 48.3242 34.4746L49.6218 34.3397Z" fill="white"/>
<path d="M19.8484 40.807C21.2614 40.807 22.4068 39.6616 22.4068 38.2486C22.4068 36.8356 21.2614 35.6902 19.8484 35.6902C18.4354 35.6902 17.29 36.8356 17.29 38.2486C17.29 39.6616 18.4354 40.807 19.8484 40.807Z" fill="#8DCABE"/>
<path d="M18.7995 37.9821L19.6764 38.8592L20.8974 37.6382" stroke="white" stroke-width="0.5" stroke-miterlimit="10" stroke-linecap="round" stroke-linejoin="round"/>
<path d="M32.5585 57.1536C28.6763 53.3357 29.3497 47.4567 29.3497 47.4567C29.3497 47.4567 34.2285 51.7915 32.5585 57.1536Z" fill="#43B59F"/>
<path d="M29.9492 48.7738C31.7598 53.2694 32.5584 57.1536 32.5584 57.1536" stroke="#16816C" stroke-width="0.5" stroke-miterlimit="10" stroke-linecap="round" stroke-linejoin="round"/>
<path d="M32.9392 58.4371C37.5336 55.5148 38.1038 49.625 38.1038 49.625C38.1038 49.625 32.4269 52.8443 32.9392 58.4371Z" fill="#43B59F"/>
<path d="M37.2423 50.7876C34.5323 54.8056 32.9395 58.4371 32.9395 58.4371L37.2423 50.7876Z" fill="#43B59F"/>
<path d="M37.2423 50.7876C34.5323 54.8056 32.9395 58.4371 32.9395 58.4371" stroke="#16816C" stroke-width="0.5" stroke-miterlimit="10" stroke-linecap="round" stroke-linejoin="round"/>
<path d="M33.2979 55.9823C36.295 51.4364 34.4064 45.8286 34.4064 45.8286C34.4064 45.8286 30.5428 51.0883 33.2979 55.9823Z" fill="#43B59F"/>
<path d="M34.0953 47.242C33.2658 52.0171 33.2977 55.9823 33.2977 55.9823L34.0953 47.242Z" fill="#43B59F"/>
<path d="M34.0953 47.242C33.2658 52.0171 33.2977 55.9823 33.2977 55.9823" stroke="#16816C" stroke-width="0.5" stroke-miterlimit="10" stroke-linecap="round" stroke-linejoin="round"/>
<path d="M37.3278 56.2615H29.6152C29.1382 56.2615 28.7514 55.8748 28.7514 55.3978C28.7514 54.9207 29.1382 54.534 29.6152 54.534H37.3278C37.8049 54.534 38.1916 54.9207 38.1916 55.3978C38.1916 55.8748 37.8049 56.2615 37.3278 56.2615Z" fill="url(#paint38_linear_14523_39127)"/>
<path d="M37.0313 56.2612L36.7529 58.4371V62.7736L34.6862 62.9096H29.9823V56.8109L29.9113 56.2612H37.0313Z" fill="url(#paint39_linear_14523_39127)"/>
<path d="M37.0313 56.2612L36.7529 58.4371L29.9823 56.8109L29.9113 56.2612H37.0313Z" fill="url(#paint40_linear_14523_39127)"/>
<path d="M28.4869 42.9077H22.6021V49.6761H28.4869V42.9077Z" fill="#71C1E2"/>
<path d="M27.4794 45.5395H23.6094C23.5417 45.5395 23.4869 45.4847 23.4869 45.417C23.4869 45.3493 23.5417 45.2945 23.6094 45.2945H27.4794C27.5472 45.2945 27.602 45.3493 27.602 45.417C27.602 45.4846 27.547 45.5395 27.4794 45.5395Z" fill="white"/>
<path d="M27.4793 46.4313H23.6094C23.5416 46.4313 23.4868 46.3764 23.4868 46.3088C23.4868 46.2411 23.5416 46.1863 23.6094 46.1863H27.4793C27.5471 46.1863 27.6019 46.2411 27.6019 46.3088C27.6019 46.3766 27.5469 46.4313 27.4793 46.4313Z" fill="white"/>
<path d="M27.4793 47.3232H23.6094C23.5416 47.3232 23.4868 47.2684 23.4868 47.2006C23.4868 47.1329 23.5416 47.0781 23.6094 47.0781H27.4793C27.5471 47.0781 27.6019 47.1329 27.6019 47.2006C27.6019 47.2684 27.5469 47.3232 27.4793 47.3232Z" fill="white"/>
<path d="M25.7911 48.2152H23.5803C23.5287 48.2152 23.4868 48.1733 23.4868 48.1217V48.0637C23.4868 48.0121 23.5287 47.9703 23.5803 47.9703H25.7911C25.8427 47.9703 25.8846 48.0121 25.8846 48.0637V48.1217C25.8847 48.1733 25.8427 48.2152 25.7911 48.2152Z" fill="white"/>
<path d="M59.4787 56.0188C60.9054 56.0188 62.0621 54.8622 62.0621 53.4355C62.0621 52.0087 60.9054 50.8521 59.4787 50.8521C58.0519 50.8521 56.8953 52.0087 56.8953 53.4355C56.8953 54.8622 58.0519 56.0188 59.4787 56.0188Z" fill="#43B59F"/>
<path opacity="0.25" d="M61.6277 53.9506C61.9124 52.7642 61.1815 51.5715 59.9951 51.2868C58.8086 51.002 57.616 51.7329 57.3312 52.9194C57.0464 54.1058 57.7774 55.2984 58.9638 55.5832C60.1502 55.868 61.3429 55.137 61.6277 53.9506Z" stroke="white" stroke-miterlimit="10" stroke-linecap="round" stroke-linejoin="round"/>
<path d="M59.4786 55.1735C60.4385 55.1735 61.2167 54.3954 61.2167 53.4355C61.2167 52.4755 60.4385 51.6974 59.4786 51.6974C58.5187 51.6974 57.7405 52.4755 57.7405 53.4355C57.7405 54.3954 58.5187 55.1735 59.4786 55.1735Z" fill="#8DCABE"/>
<path d="M59.3467 53.2135C59.4693 53.1406 59.6277 53.181 59.7005 53.3035C59.7734 53.426 59.7331 53.5845 59.6106 53.6573C59.4881 53.7302 59.3296 53.6899 59.2568 53.5674C59.184 53.4448 59.2242 53.2864 59.3467 53.2135Z" fill="white"/>
<path d="M59.0524 53.6481L59.0883 53.7085C59.1059 53.7381 59.0962 53.7764 59.0666 53.794L57.8846 54.4969C57.855 54.5145 57.8167 54.5048 57.7991 54.4751L57.7631 54.4148C57.7455 54.3851 57.7552 54.3468 57.7849 54.3292L58.9668 53.6263C58.9965 53.6088 59.0348 53.6184 59.0524 53.6481Z" fill="white"/>
<path d="M59.6362 52.9849L59.5484 52.9634C59.5202 52.9564 59.5031 52.928 59.51 52.9L59.7138 52.0721C59.7207 52.044 59.7491 52.0269 59.7772 52.0338L59.865 52.0554C59.8931 52.0623 59.9102 52.0907 59.9033 52.1188L59.6995 52.9466C59.6926 52.9746 59.6642 52.9918 59.6362 52.9849Z" fill="white"/>
<defs>
<linearGradient id="paint0_linear_14523_39127" x1="17.7818" y1="13.0182" x2="34.9662" y2="40.0581" gradientUnits="userSpaceOnUse">
<stop offset="5.3e-07" stop-color="#E0F0FF"/>
<stop offset="1" stop-color="white"/>
</linearGradient>
<linearGradient id="paint1_linear_14523_39127" x1="19.3172" y1="25.1637" x2="23.4607" y2="34.1046" gradientUnits="userSpaceOnUse">
<stop offset="5.3e-07" stop-color="#E0F0FF"/>
<stop offset="1" stop-color="#9CB1EC"/>
</linearGradient>
<linearGradient id="paint2_linear_14523_39127" x1="20.1949" y1="24.7572" x2="24.3383" y2="33.6977" gradientUnits="userSpaceOnUse">
<stop offset="5.3e-07" stop-color="#E0F0FF"/>
<stop offset="1" stop-color="#9CB1EC"/>
</linearGradient>
<linearGradient id="paint3_linear_14523_39127" x1="20.869" y1="24.4446" x2="25.0125" y2="33.3854" gradientUnits="userSpaceOnUse">
<stop offset="5.3e-07" stop-color="#E0F0FF"/>
<stop offset="1" stop-color="#9CB1EC"/>
</linearGradient>
<linearGradient id="paint4_linear_14523_39127" x1="21.6575" y1="24.0793" x2="25.8009" y2="33.02" gradientUnits="userSpaceOnUse">
<stop offset="5.3e-07" stop-color="#E0F0FF"/>
<stop offset="1" stop-color="#9CB1EC"/>
</linearGradient>
<linearGradient id="paint5_linear_14523_39127" x1="22.2612" y1="23.7993" x2="26.4046" y2="32.7401" gradientUnits="userSpaceOnUse">
<stop offset="5.3e-07" stop-color="#E0F0FF"/>
<stop offset="1" stop-color="#9CB1EC"/>
</linearGradient>
<linearGradient id="paint6_linear_14523_39127" x1="22.8225" y1="23.5393" x2="26.966" y2="32.4801" gradientUnits="userSpaceOnUse">
<stop offset="5.3e-07" stop-color="#E0F0FF"/>
<stop offset="1" stop-color="#9CB1EC"/>
</linearGradient>
<linearGradient id="paint7_linear_14523_39127" x1="32.7836" y1="22.8601" x2="37.2582" y2="41.6211" gradientUnits="userSpaceOnUse">
<stop offset="5.3e-07" stop-color="#E0F0FF"/>
<stop offset="1" stop-color="#9CB1EC"/>
</linearGradient>
<linearGradient id="paint8_linear_14523_39127" x1="28.211" y1="40.7762" x2="62.5913" y2="87.5599" gradientUnits="userSpaceOnUse">
<stop offset="5.3e-07" stop-color="#E0F0FF"/>
<stop offset="1" stop-color="#9CB1EC"/>
</linearGradient>
<linearGradient id="paint9_linear_14523_39127" x1="30.2521" y1="39.2761" x2="64.6323" y2="86.0598" gradientUnits="userSpaceOnUse">
<stop offset="5.3e-07" stop-color="#E0F0FF"/>
<stop offset="1" stop-color="#9CB1EC"/>
</linearGradient>
<linearGradient id="paint10_linear_14523_39127" x1="32.2933" y1="37.776" x2="66.6735" y2="84.5595" gradientUnits="userSpaceOnUse">
<stop offset="5.3e-07" stop-color="#E0F0FF"/>
<stop offset="1" stop-color="#9CB1EC"/>
</linearGradient>
<linearGradient id="paint11_linear_14523_39127" x1="34.3344" y1="36.2759" x2="68.7147" y2="83.0597" gradientUnits="userSpaceOnUse">
<stop offset="5.3e-07" stop-color="#E0F0FF"/>
<stop offset="1" stop-color="#9CB1EC"/>
</linearGradient>
<linearGradient id="paint12_linear_14523_39127" x1="36.3757" y1="34.7759" x2="70.7559" y2="81.5594" gradientUnits="userSpaceOnUse">
<stop offset="5.3e-07" stop-color="#E0F0FF"/>
<stop offset="1" stop-color="#9CB1EC"/>
</linearGradient>
<linearGradient id="paint13_linear_14523_39127" x1="38.4168" y1="33.2758" x2="72.797" y2="80.0594" gradientUnits="userSpaceOnUse">
<stop offset="5.3e-07" stop-color="#E0F0FF"/>
<stop offset="1" stop-color="#9CB1EC"/>
</linearGradient>
<linearGradient id="paint14_linear_14523_39127" x1="40.4578" y1="31.7757" x2="74.8381" y2="78.5594" gradientUnits="userSpaceOnUse">
<stop offset="5.3e-07" stop-color="#E0F0FF"/>
<stop offset="1" stop-color="#9CB1EC"/>
</linearGradient>
<linearGradient id="paint15_linear_14523_39127" x1="27.2052" y1="41.5151" x2="61.5855" y2="88.2989" gradientUnits="userSpaceOnUse">
<stop offset="5.3e-07" stop-color="#E0F0FF"/>
<stop offset="1" stop-color="#9CB1EC"/>
</linearGradient>
<linearGradient id="paint16_linear_14523_39127" x1="29.2466" y1="40.0151" x2="63.6269" y2="86.7987" gradientUnits="userSpaceOnUse">
<stop offset="5.3e-07" stop-color="#E0F0FF"/>
<stop offset="1" stop-color="#9CB1EC"/>
</linearGradient>
<linearGradient id="paint17_linear_14523_39127" x1="31.2877" y1="38.515" x2="65.668" y2="85.2987" gradientUnits="userSpaceOnUse">
<stop offset="5.3e-07" stop-color="#E0F0FF"/>
<stop offset="1" stop-color="#9CB1EC"/>
</linearGradient>
<linearGradient id="paint18_linear_14523_39127" x1="33.3288" y1="37.0149" x2="67.709" y2="83.7985" gradientUnits="userSpaceOnUse">
<stop offset="5.3e-07" stop-color="#E0F0FF"/>
<stop offset="1" stop-color="#9CB1EC"/>
</linearGradient>
<linearGradient id="paint19_linear_14523_39127" x1="35.3701" y1="35.5148" x2="69.7502" y2="82.2985" gradientUnits="userSpaceOnUse">
<stop offset="5.3e-07" stop-color="#E0F0FF"/>
<stop offset="1" stop-color="#9CB1EC"/>
</linearGradient>
<linearGradient id="paint20_linear_14523_39127" x1="37.4113" y1="34.0147" x2="71.7916" y2="80.7985" gradientUnits="userSpaceOnUse">
<stop offset="5.3e-07" stop-color="#E0F0FF"/>
<stop offset="1" stop-color="#9CB1EC"/>
</linearGradient>
<linearGradient id="paint21_linear_14523_39127" x1="39.4524" y1="32.5147" x2="73.8326" y2="79.2981" gradientUnits="userSpaceOnUse">
<stop offset="5.3e-07" stop-color="#E0F0FF"/>
<stop offset="1" stop-color="#9CB1EC"/>
</linearGradient>
<linearGradient id="paint22_linear_14523_39127" x1="26.1999" y1="42.2542" x2="60.5802" y2="89.0378" gradientUnits="userSpaceOnUse">
<stop offset="5.3e-07" stop-color="#E0F0FF"/>
<stop offset="1" stop-color="#9CB1EC"/>
</linearGradient>
<linearGradient id="paint23_linear_14523_39127" x1="28.2412" y1="40.7541" x2="62.6215" y2="87.5379" gradientUnits="userSpaceOnUse">
<stop offset="5.3e-07" stop-color="#E0F0FF"/>
<stop offset="1" stop-color="#9CB1EC"/>
</linearGradient>
<linearGradient id="paint24_linear_14523_39127" x1="32.3233" y1="37.7539" x2="66.7035" y2="84.5375" gradientUnits="userSpaceOnUse">
<stop offset="5.3e-07" stop-color="#E0F0FF"/>
<stop offset="1" stop-color="#9CB1EC"/>
</linearGradient>
<linearGradient id="paint25_linear_14523_39127" x1="34.3646" y1="36.2538" x2="68.7449" y2="83.0376" gradientUnits="userSpaceOnUse">
<stop offset="5.3e-07" stop-color="#E0F0FF"/>
<stop offset="1" stop-color="#9CB1EC"/>
</linearGradient>
<linearGradient id="paint26_linear_14523_39127" x1="36.4059" y1="34.7538" x2="70.7861" y2="81.5374" gradientUnits="userSpaceOnUse">
<stop offset="5.3e-07" stop-color="#E0F0FF"/>
<stop offset="1" stop-color="#9CB1EC"/>
</linearGradient>
<linearGradient id="paint27_linear_14523_39127" x1="38.4469" y1="33.2537" x2="72.8272" y2="80.0374" gradientUnits="userSpaceOnUse">
<stop offset="5.3e-07" stop-color="#E0F0FF"/>
<stop offset="1" stop-color="#9CB1EC"/>
</linearGradient>
<linearGradient id="paint28_linear_14523_39127" x1="25.1944" y1="42.9931" x2="59.5748" y2="89.7769" gradientUnits="userSpaceOnUse">
<stop offset="5.3e-07" stop-color="#E0F0FF"/>
<stop offset="1" stop-color="#9CB1EC"/>
</linearGradient>
<linearGradient id="paint29_linear_14523_39127" x1="27.2353" y1="41.493" x2="61.6155" y2="88.2768" gradientUnits="userSpaceOnUse">
<stop offset="5.3e-07" stop-color="#E0F0FF"/>
<stop offset="1" stop-color="#9CB1EC"/>
</linearGradient>
<linearGradient id="paint30_linear_14523_39127" x1="29.2767" y1="39.993" x2="63.6568" y2="86.7765" gradientUnits="userSpaceOnUse">
<stop offset="5.3e-07" stop-color="#E0F0FF"/>
<stop offset="1" stop-color="#9CB1EC"/>
</linearGradient>
<linearGradient id="paint31_linear_14523_39127" x1="31.3178" y1="38.4929" x2="65.6981" y2="85.2766" gradientUnits="userSpaceOnUse">
<stop offset="5.3e-07" stop-color="#E0F0FF"/>
<stop offset="1" stop-color="#9CB1EC"/>
</linearGradient>
<linearGradient id="paint32_linear_14523_39127" x1="33.3589" y1="36.9928" x2="67.7392" y2="83.7764" gradientUnits="userSpaceOnUse">
<stop offset="5.3e-07" stop-color="#E0F0FF"/>
<stop offset="1" stop-color="#9CB1EC"/>
</linearGradient>
<linearGradient id="paint33_linear_14523_39127" x1="35.4" y1="35.4927" x2="69.7803" y2="82.2764" gradientUnits="userSpaceOnUse">
<stop offset="5.3e-07" stop-color="#E0F0FF"/>
<stop offset="1" stop-color="#9CB1EC"/>
</linearGradient>
<linearGradient id="paint34_linear_14523_39127" x1="37.4414" y1="33.9927" x2="71.8216" y2="80.7763" gradientUnits="userSpaceOnUse">
<stop offset="5.3e-07" stop-color="#E0F0FF"/>
<stop offset="1" stop-color="#9CB1EC"/>
</linearGradient>
<linearGradient id="paint35_linear_14523_39127" x1="51.9353" y1="39.3481" x2="48.751" y2="66.1638" gradientUnits="userSpaceOnUse">
<stop stop-color="#25283C"/>
<stop offset="1" stop-color="#4F61A5"/>
</linearGradient>
<linearGradient id="paint36_linear_14523_39127" x1="39.6911" y1="47.4088" x2="51.9852" y2="36.2841" gradientUnits="userSpaceOnUse">
<stop stop-color="#FFBFCD"/>
<stop offset="1" stop-color="#E16D90"/>
</linearGradient>
<linearGradient id="paint37_linear_14523_39127" x1="50.1316" y1="37.4646" x2="49.2151" y2="31.2386" gradientUnits="userSpaceOnUse">
<stop stop-color="#FFBFCD"/>
<stop offset="1" stop-color="#E16D90"/>
</linearGradient>
<linearGradient id="paint38_linear_14523_39127" x1="30.7067" y1="60.2502" x2="38.9659" y2="45.7544" gradientUnits="userSpaceOnUse">
<stop offset="5.3e-07" stop-color="#E0F0FF"/>
<stop offset="1" stop-color="#9CB1EC"/>
</linearGradient>
<linearGradient id="paint39_linear_14523_39127" x1="29.6166" y1="66.9267" x2="39.8564" y2="42.7178" gradientUnits="userSpaceOnUse">
<stop offset="5.3e-07" stop-color="#E0F0FF"/>
<stop offset="1" stop-color="#9CB1EC"/>
</linearGradient>
<linearGradient id="paint40_linear_14523_39127" x1="32.4573" y1="62.5648" x2="33.5529" y2="56.0333" gradientUnits="userSpaceOnUse">
<stop offset="5.3e-07" stop-color="#E0F0FF"/>
<stop offset="1" stop-color="#9CB1EC"/>
</linearGradient>
</defs>
</svg>
