<svg width="81" height="64" viewBox="0 0 81 64" fill="none" xmlns="http://www.w3.org/2000/svg">
<mask id="mask0_14523_38773" style="mask-type:luminance" maskUnits="userSpaceOnUse" x="0" y="0" width="81" height="64">
<path d="M80.5 0.183022H0.5V63.8164H80.5V0.183022Z" fill="white"/>
</mask>
<g mask="url(#mask0_14523_38773)">
<path d="M11.3847 59.3013C11.5957 54.2995 8.05619 50.123 7.46824 45.1644C6.97011 40.9631 8.88883 36.506 12.0411 34.5417C14.149 33.2283 16.7063 32.9445 18.5479 31.1497C20.6686 29.0829 21.2906 25.565 21.5663 22.3145C21.8419 19.0641 21.9535 15.6169 23.4496 12.8807C25.6473 8.86107 30.8182 7.74634 34.0559 10.5943C36.8016 13.0095 37.9043 17.4216 40.6305 19.868C43.1782 22.1544 46.6917 22.2802 49.798 21.4243C52.9042 20.5685 55.795 18.8547 58.8426 17.739C61.2662 16.8518 63.8706 16.3486 66.3343 17.061C68.7981 17.7736 71.087 19.9052 71.7169 22.8351C72.9822 28.7207 67.4423 34.1159 68.001 40.1554C68.4471 44.9774 72.4661 47.9679 74.8943 51.8592C78.0738 56.9547 78.4358 64.3268 75.7767 69.8306C75.4818 70.4408 69.0428 69.5951 68.2032 69.5693C65.6785 69.4918 63.1535 69.4238 60.6285 69.3655C55.4454 69.2458 50.2616 69.1665 45.0777 69.1275C34.71 69.0496 24.341 69.1308 13.975 69.3789C12.36 69.4176 8.38472 69.9484 8.61075 66.7641C8.6867 65.6934 9.91763 64.4296 10.3415 63.4756C10.9197 62.1744 11.3222 60.7823 11.3847 59.3013Z" fill="#EBFAF7"/>
<path d="M17.9976 25.1694C18.6352 23.4808 18.9469 21.4744 18.2882 19.7976C17.6295 18.1206 15.7295 17.0993 14.4323 18.1164C13.4621 18.8772 13.1683 20.375 12.7668 21.6749C12.1902 23.542 11.2382 25.2423 10.0133 26.5927C9.01312 27.6956 7.49632 29.0604 8.15573 30.9222C8.67861 32.3984 10.1505 33.0611 11.3644 32.6712C14.0716 31.8016 16.8898 28.1036 17.9976 25.1694Z" fill="#EBFAF7"/>
<path d="M71.0124 38.3147C70.5064 39.2515 70.4252 40.4538 70.6415 41.5381C70.8577 42.6224 71.3464 43.6037 71.9101 44.4925C72.5561 45.5108 73.3094 46.4322 74.1465 47.228C74.5098 47.5734 74.9543 47.9128 75.4069 47.7878C75.9255 47.6447 76.1958 46.9672 76.3308 46.3529C76.8382 44.0454 76.383 41.5062 75.2423 39.5658C74.1993 37.7915 72.4509 35.6517 71.0124 38.3147Z" fill="#EBFAF7"/>
</g>
<mask id="mask1_14523_38773" style="mask-type:luminance" maskUnits="userSpaceOnUse" x="0" y="0" width="81" height="64">
<path d="M80.5 0.183022H0.5V63.8164H80.5V0.183022Z" fill="white"/>
</mask>
<g mask="url(#mask1_14523_38773)">
<path d="M19.4059 27.8678C21.4195 27.9197 23.4736 26.9427 24.7701 25.1037C26.0665 23.2648 26.5112 20.5629 25.7307 18.3477C24.9501 16.1325 22.9027 14.5917 20.9053 14.9002" stroke="#DFFDF5" stroke-miterlimit="10"/>
<path d="M19.1964 25.2256C20.0623 24.9432 20.9361 24.6572 21.7312 24.1601C22.5264 23.663 23.2476 22.931 23.6306 21.9622C24.0365 20.9357 24.024 19.7068 23.6724 18.6521C23.3208 17.5975 22.6494 16.716 21.8453 16.1095" stroke="#DFFDF5" stroke-miterlimit="10"/>
<path d="M64.8591 66.0769C62.8066 65.2713 61.1701 63.1084 60.7076 60.5901C60.5654 59.8161 60.5261 59.0123 60.3078 58.2638C60.0896 57.5154 59.6395 56.7978 58.9944 56.6087C58.1982 56.3752 57.4268 56.9913 56.6738 57.3786C55.5016 57.9813 54.1411 58.0442 52.9334 57.5514C52.3309 57.3055 51.7109 56.921 51.0915 57.0978C50.5301 57.258 50.1147 57.8731 49.974 58.541C49.8333 59.2089 49.9287 59.9183 50.1054 60.5739C50.7403 62.9305 52.4802 64.8141 54.5076 65.3395" stroke="#DFFDF5" stroke-miterlimit="10"/>
<path d="M56.3352 64.2914C55.3428 64.2022 54.2005 63.7461 53.9112 62.6098C53.6561 61.6077 54.27 60.4897 55.0987 60.1443C55.9273 59.7989 56.8696 60.1008 57.5951 60.6903C58.3205 61.2799 58.8681 62.1257 59.3883 62.9692C59.9086 63.8128 60.4231 64.6801 61.106 65.338" stroke="#DFFDF5" stroke-miterlimit="10"/>
<path d="M16.1632 32.0126C16.8233 33.0552 17.4864 34.112 17.9285 35.3074C18.3706 36.5028 18.5785 37.8661 18.2912 39.1269C17.8649 40.9972 16.3743 42.3528 14.7777 42.7101C13.1811 43.0675 11.5164 42.5494 10.0804 41.6432C8.64434 40.7371 7.39944 39.4621 6.16797 38.1981" stroke="#DFFDF5" stroke-miterlimit="10"/>
<path d="M13.6959 32.2409C14.5594 34.2749 14.0751 36.9912 12.5926 38.4297C11.11 39.8683 8.78256 39.8804 7.28955 38.4573" stroke="#DFFDF5" stroke-miterlimit="10"/>
</g>
<mask id="mask2_14523_38773" style="mask-type:luminance" maskUnits="userSpaceOnUse" x="0" y="0" width="81" height="64">
<path d="M80.5 0.183022H0.5V63.8165H80.5V0.183022Z" fill="white"/>
</mask>
<g mask="url(#mask2_14523_38773)">
<path d="M76.9327 61.4329C76.9327 61.4329 76.2673 60.4457 74.8268 60.6633C73.6381 60.8428 73.0784 61.9871 72.0695 61.5091C72.0695 61.5091 75.1711 64.6452 76.9327 61.4329Z" fill="#A7DCD2"/>
<path d="M78.6417 64.5246C78.6417 64.5246 78.0184 63.4601 76.5778 63.6776C75.3891 63.8571 74.4591 64.4788 73.4501 64.0008C73.4501 64.0008 76.8801 67.7371 78.6417 64.5246Z" fill="#A7DCD2"/>
<path d="M75.0893 59.1223C75.0893 59.1223 74.5184 58.2404 73.2401 58.4754C72.1853 58.6694 71.6695 59.7258 70.7856 59.3164C70.7856 59.3164 73.4729 62.0929 75.0893 59.1223Z" fill="#A7DCD2"/>
<path d="M73.2958 57.1624C73.2958 57.1624 72.7894 56.3981 71.6773 56.582C70.7596 56.7337 70.3203 57.6327 69.5456 57.2693C69.5456 57.2693 71.9155 59.688 73.2958 57.1624Z" fill="#A7DCD2"/>
<path d="M73.8433 56.0607C73.8433 56.0607 73.2274 56.0388 72.9425 55.1833C72.7074 54.4774 72.8917 53.7413 72.6243 53.3344C72.6243 53.3344 74.6458 54.2898 73.8433 56.0607Z" fill="#A7DCD2"/>
<path d="M75.9935 57.5424C75.9935 57.5424 75.3563 57.4708 75.1709 56.5327C75.018 55.7585 75.3047 54.985 75.0795 54.5286C75.0795 54.5286 77.0564 55.7095 75.9935 57.5424Z" fill="#A7DCD2"/>
<path d="M77.7729 60.2969C77.7729 60.2969 76.9608 59.7505 77.1239 58.381C77.2409 57.3984 77.6527 56.7827 77.5154 56.0805C77.5154 56.0805 79.4436 58.6242 77.7729 60.2969Z" fill="#A7DCD2"/>
<path d="M79.674 63.7462C79.674 63.7462 79.0708 62.9582 79.1286 61.5766C79.1803 60.3389 79.6276 59.2573 79.4903 58.5551C79.4903 58.5551 81.3447 62.0735 79.674 63.7462Z" fill="#A7DCD2"/>
<path d="M71.9406 55.3643C71.9406 55.3643 71.1146 56.1025 70.0249 55.7803C69.1256 55.5143 68.0391 54.1313 67.2368 54.3956C67.2368 54.3956 70.7904 52.6797 71.9406 55.3643Z" fill="#A7DCD2"/>
<path d="M80.6964 67.4032C80.6964 67.4032 77.5056 57.5882 70.9951 54.9152" stroke="#92BFB6" stroke-width="1.2227" stroke-miterlimit="10" stroke-linecap="round"/>
<path d="M74.2126 56.975L73.2958 57.1624" stroke="#92BFB6" stroke-width="1.2227" stroke-miterlimit="10" stroke-linecap="round"/>
<path d="M73.8432 56.0607L74.061 56.8425" stroke="#92BFB6" stroke-width="1.2227" stroke-miterlimit="10" stroke-linecap="round"/>
<path d="M76.1239 59.024L75.0893 59.1223" stroke="#92BFB6" stroke-width="1.2227" stroke-miterlimit="10" stroke-linecap="round"/>
<path d="M75.9936 57.5425L76.024 58.8663" stroke="#92BFB6" stroke-width="1.2227" stroke-miterlimit="10" stroke-linecap="round"/>
<path d="M77.7056 61.2003L76.9326 61.4329" stroke="#92BFB6" stroke-width="1.2227" stroke-miterlimit="10" stroke-linecap="round"/>
<path d="M77.7727 60.2969L77.6474 61.109" stroke="#92BFB6" stroke-width="1.2227" stroke-miterlimit="10" stroke-linecap="round"/>
<path d="M78.6418 64.5245L79.4834 64.4488" stroke="#92BFB6" stroke-width="1.2227" stroke-miterlimit="10" stroke-linecap="round"/>
<path d="M79.6739 63.7462L79.5319 64.5527" stroke="#92BFB6" stroke-width="1.2227" stroke-miterlimit="10" stroke-linecap="round"/>
<path d="M80.9768 52.995C80.9768 52.995 77.0655 55.0618 76.9136 52.9981C76.7574 50.8766 80.9768 52.995 80.9768 52.995Z" fill="#8DCABE"/>
<path d="M81.8354 56.5368C81.8354 56.5368 77.7649 58.5811 77.6411 56.4474C77.5139 54.254 81.8354 56.5368 81.8354 56.5368Z" fill="#8DCABE"/>
<path d="M80.0627 50.0874C80.0627 50.0874 83.8978 48.1625 82.8867 46.4784C81.8473 44.747 80.0627 50.0874 80.0627 50.0874Z" fill="#8DCABE"/>
<path d="M80.0626 50.0874C80.0626 50.0874 76.1147 51.6541 75.9453 49.5923C75.7712 47.4728 80.0626 50.0874 80.0626 50.0874Z" fill="#8DCABE"/>
<path d="M78.9106 47.0261C78.9106 47.0261 82.282 44.2778 81.1006 42.7721C79.8807 41.2174 78.9106 47.0261 78.9106 47.0261Z" fill="#8DCABE"/>
<path d="M78.9108 47.0262C78.9108 47.0262 75.0454 48.596 74.7444 46.5649C74.4336 44.4678 78.9108 47.0262 78.9108 47.0262Z" fill="#8DCABE"/>
<path d="M77.6554 44.1605C77.6554 44.1605 80.0179 40.9441 78.6998 40.1779C77.2618 39.3421 77.6554 44.1605 77.6554 44.1605Z" fill="#8DCABE"/>
<path d="M77.6556 44.1643C77.6556 44.1643 74.0949 44.6561 74.3154 42.9266C74.5562 41.0399 77.6556 44.1643 77.6556 44.1643Z" fill="#8DCABE"/>
<path d="M76.5895 41.9907C76.5895 41.9907 76.4869 37.6766 75.0791 38.1649C73.5433 38.6979 76.5895 41.9907 76.5895 41.9907Z" fill="#8DCABE"/>
<path d="M82.2908 66.2074C82.2908 66.2074 84.2828 56.654 76.2993 41.4306" stroke="#92BFB6" stroke-width="1.4021" stroke-miterlimit="10" stroke-linecap="round"/>
<path d="M1.70899 54.6282C1.70899 54.6282 -1.39864 52.1914 -0.646853 50.6198C0.126053 49.004 1.70899 54.6282 1.70899 54.6282Z" fill="#A7DCD2"/>
<path d="M1.70898 54.6282C1.70898 54.6282 5.35026 56.717 5.74642 54.8152C6.15368 52.8603 1.70898 54.6282 1.70898 54.6282Z" fill="#A7DCD2"/>
<path d="M0.658257 57.8134C0.658257 57.8134 -2.60905 55.2909 -1.81268 53.653C-0.993903 51.9692 0.658257 57.8134 0.658257 57.8134Z" fill="#A7DCD2"/>
<path d="M-0.174316 61.7124C-0.174316 61.7124 4.48862 62.8643 4.62291 60.5584C4.76094 58.1878 -0.174316 61.7124 -0.174316 61.7124Z" fill="#A7DCD2"/>
<path d="M-0.404541 65.392C-0.404541 65.392 4.44389 67.6532 4.94287 65.1975C5.45594 62.6728 -0.404541 65.392 -0.404541 65.392Z" fill="#A7DCD2"/>
<path d="M0.658203 57.8135C0.658203 57.8135 4.46151 59.7586 4.87772 57.8129C5.30556 55.8125 0.658203 57.8135 0.658203 57.8135Z" fill="#A7DCD2"/>
<path d="M2.76514 52.0348C2.76514 52.0348 -0.22547 49.1486 0.554264 47.5527C1.35586 45.912 2.76514 52.0348 2.76514 52.0348Z" fill="#A7DCD2"/>
<path d="M2.76514 52.0348C2.76514 52.0348 6.4749 53.6473 6.88428 51.7678C7.30519 49.8355 2.76514 52.0348 2.76514 52.0348Z" fill="#A7DCD2"/>
<path d="M4.07755 49.3169C4.07755 49.3169 1.68288 46.3369 2.5711 45.1678C3.48832 43.9607 4.07755 49.3169 4.07755 49.3169Z" fill="#A7DCD2"/>
<path d="M4.04663 49.295C4.04663 49.295 7.49623 50.5322 8.01815 49.0388C8.55692 47.4968 4.04663 49.295 4.04663 49.295Z" fill="#A7DCD2"/>
<path d="M5.42085 46.8045C5.42085 46.8045 3.47034 43.5871 4.74436 43.015C6.13444 42.3911 5.42085 46.8045 5.42085 46.8045Z" fill="#A7DCD2"/>
<path d="M5.41333 46.7915C5.41333 46.7915 8.62304 47.2739 8.63445 45.8234C8.64682 44.2407 5.41333 46.7915 5.41333 46.7915Z" fill="#A7DCD2"/>
<path d="M6.56319 44.9089C6.56319 44.9089 6.97119 40.9314 8.23711 41.5284C9.61833 42.1797 6.56319 44.9089 6.56319 44.9089Z" fill="#A7DCD2"/>
<path d="M-0.464529 66.7063C-0.464529 66.7063 -1.61258 57.6691 6.87254 44.421" stroke="#92BFB6" stroke-width="1.3018" stroke-miterlimit="10" stroke-linecap="round"/>
<path d="M6.58501 61.7101C6.58501 61.7101 4.59642 59.6656 5.51557 59.0226C6.46064 58.3619 6.58501 61.7101 6.58501 61.7101Z" fill="#8DCABE"/>
<path d="M6.58521 61.7101C6.58521 61.7101 8.34531 64.0338 8.86222 62.9222C9.39374 61.7795 6.58521 61.7101 6.58521 61.7101Z" fill="#8DCABE"/>
<path d="M5.36282 63.4398C5.36282 63.4398 3.30981 61.3291 4.25882 60.6652C5.23429 59.983 5.36282 63.4398 5.36282 63.4398Z" fill="#8DCABE"/>
<path d="M5.36279 63.4398C5.36279 63.4398 7.21687 65.7982 7.73261 64.6391C8.26285 63.4473 5.36279 63.4398 5.36279 63.4398Z" fill="#8DCABE"/>
<path d="M4.33541 65.3166C4.33541 65.3166 2.01051 63.6551 2.8504 62.8079C3.71397 61.9368 4.33541 65.3166 4.33541 65.3166Z" fill="#8DCABE"/>
<path d="M7.70599 60.3526C7.70599 60.3526 5.9589 58.1312 6.87805 57.4883C7.82301 56.8274 7.70599 60.3526 7.70599 60.3526Z" fill="#8DCABE"/>
<path d="M7.70581 60.3526C7.70581 60.3526 9.59114 62.4068 10.1174 61.3015C10.6585 60.1652 7.70581 60.3526 7.70581 60.3526Z" fill="#8DCABE"/>
<path d="M8.99232 58.9797C8.99232 58.9797 7.67744 56.4349 8.65482 55.9428C9.66389 55.4346 8.99232 58.9797 8.99232 58.9797Z" fill="#8DCABE"/>
<path d="M8.99219 58.9797C8.99219 58.9797 10.8305 61.011 11.4242 59.9622C12.0372 58.8792 8.99219 58.9797 8.99219 58.9797Z" fill="#8DCABE"/>
<path d="M10.2956 57.7473C10.2956 57.7473 9.6443 55.2406 10.5434 55.2037C11.5245 55.1634 10.2956 57.7473 10.2956 57.7473Z" fill="#8DCABE"/>
<path d="M10.2944 57.7492C10.2944 57.7492 12.1876 59.0854 12.4257 58.0503C12.6857 56.9209 10.2944 57.7492 10.2944 57.7492Z" fill="#8DCABE"/>
<path d="M11.3468 56.8484C11.3468 56.8484 12.307 54.4606 12.994 55.1537C13.7435 55.9099 11.3468 56.8484 11.3468 56.8484Z" fill="#8DCABE"/>
<path d="M3.08398 68.7252C3.08398 68.7252 3.96622 62.7766 11.6269 56.6208" stroke="#92BFB6" stroke-width="0.8604" stroke-miterlimit="10" stroke-linecap="round"/>
</g>
<path d="M47.2257 6.7872C47.2257 6.8516 47.182 6.90391 47.1279 6.90391C47.074 6.90391 47.0301 6.85173 47.0301 6.7872C47.0301 6.7228 47.0739 6.6705 47.1279 6.6705C47.1819 6.67063 47.2257 6.7228 47.2257 6.7872Z" fill="#B2F1E5"/>
<path d="M48.9057 6.78724C48.9057 6.85164 48.862 6.90394 48.8079 6.90394C48.7539 6.90394 48.7101 6.85176 48.7101 6.78724C48.7101 6.72284 48.7538 6.67054 48.8079 6.67054C48.8619 6.67066 48.9057 6.72284 48.9057 6.78724Z" fill="#B2F1E5"/>
<path d="M50.5858 6.78724C50.5858 6.85164 50.5421 6.90394 50.488 6.90394C50.434 6.90394 50.3902 6.85176 50.3902 6.78724C50.3902 6.72284 50.4339 6.67054 50.488 6.67054C50.542 6.67066 50.5858 6.72284 50.5858 6.78724Z" fill="#B2F1E5"/>
<path d="M52.2655 6.78724C52.2655 6.85164 52.2218 6.90394 52.1677 6.90394C52.1137 6.90394 52.0699 6.85176 52.0699 6.78724C52.0699 6.72284 52.1136 6.67054 52.1677 6.67054C52.2217 6.67066 52.2655 6.72284 52.2655 6.78724Z" fill="#B2F1E5"/>
<path d="M53.9458 6.78724C53.9458 6.85164 53.9021 6.90394 53.848 6.90394C53.794 6.90394 53.7502 6.85176 53.7502 6.78724C53.7502 6.72284 53.7939 6.67054 53.848 6.67054C53.902 6.67066 53.9458 6.72284 53.9458 6.78724Z" fill="#B2F1E5"/>
<path d="M47.2257 8.79168C47.2257 8.85608 47.182 8.90839 47.1279 8.90839C47.074 8.90839 47.0301 8.85621 47.0301 8.79168C47.0301 8.72729 47.0739 8.67498 47.1279 8.67498C47.1819 8.67498 47.2257 8.72729 47.2257 8.79168Z" fill="#B2F1E5"/>
<path d="M48.9057 8.7917C48.9057 8.85609 48.862 8.9084 48.8079 8.9084C48.7539 8.9084 48.7101 8.85622 48.7101 8.7917C48.7101 8.7273 48.7538 8.67499 48.8079 8.67499C48.8619 8.67499 48.9057 8.7273 48.9057 8.7917Z" fill="#B2F1E5"/>
<path d="M50.5858 8.7917C50.5858 8.85609 50.5421 8.9084 50.488 8.9084C50.434 8.9084 50.3902 8.85622 50.3902 8.7917C50.3902 8.7273 50.4339 8.67499 50.488 8.67499C50.542 8.67499 50.5858 8.7273 50.5858 8.7917Z" fill="#B2F1E5"/>
<path d="M52.2655 8.7917C52.2655 8.85609 52.2218 8.9084 52.1677 8.9084C52.1137 8.9084 52.0699 8.85622 52.0699 8.7917C52.0699 8.7273 52.1136 8.67499 52.1677 8.67499C52.2217 8.67499 52.2655 8.7273 52.2655 8.7917Z" fill="#B2F1E5"/>
<path d="M53.9458 8.7917C53.9458 8.85609 53.9021 8.9084 53.848 8.9084C53.794 8.9084 53.7502 8.85622 53.7502 8.7917C53.7502 8.7273 53.7939 8.67499 53.848 8.67499C53.902 8.67499 53.9458 8.7273 53.9458 8.7917Z" fill="#B2F1E5"/>
<path d="M47.2257 10.7962C47.2257 10.8606 47.182 10.9129 47.1279 10.9129C47.074 10.9129 47.0301 10.8607 47.0301 10.7962C47.0301 10.7318 47.0739 10.6795 47.1279 10.6795C47.1819 10.6795 47.2257 10.7318 47.2257 10.7962Z" fill="#B2F1E5"/>
<path d="M48.9057 10.7962C48.9057 10.8606 48.862 10.9129 48.8079 10.9129C48.7539 10.9129 48.7101 10.8607 48.7101 10.7962C48.7101 10.7318 48.7538 10.6795 48.8079 10.6795C48.8619 10.6795 48.9057 10.7318 48.9057 10.7962Z" fill="#B2F1E5"/>
<path d="M50.5858 10.7962C50.5858 10.8606 50.5421 10.9129 50.488 10.9129C50.434 10.9129 50.3902 10.8607 50.3902 10.7962C50.3902 10.7318 50.4339 10.6795 50.488 10.6795C50.542 10.6795 50.5858 10.7318 50.5858 10.7962Z" fill="#B2F1E5"/>
<path d="M52.2655 10.7962C52.2655 10.8606 52.2218 10.9129 52.1677 10.9129C52.1137 10.9129 52.0699 10.8607 52.0699 10.7962C52.0699 10.7318 52.1136 10.6795 52.1677 10.6795C52.2217 10.6795 52.2655 10.7318 52.2655 10.7962Z" fill="#B2F1E5"/>
<path d="M53.9458 10.7962C53.9458 10.8606 53.9021 10.9129 53.848 10.9129C53.794 10.9129 53.7502 10.8607 53.7502 10.7962C53.7502 10.7318 53.7939 10.6795 53.848 10.6795C53.902 10.6795 53.9458 10.7318 53.9458 10.7962Z" fill="#B2F1E5"/>
<path d="M73.6546 28.3185C73.6546 28.3829 73.6109 28.4352 73.5568 28.4352C73.5028 28.4352 73.459 28.383 73.459 28.3185C73.459 28.2541 73.5027 28.2018 73.5568 28.2018C73.6109 28.2019 73.6546 28.2541 73.6546 28.3185Z" fill="#B2F1E5"/>
<path d="M75.3346 28.3185C75.3346 28.3829 75.2908 28.4352 75.2367 28.4352C75.1828 28.4352 75.1389 28.383 75.1389 28.3185C75.1389 28.2541 75.1827 28.2018 75.2367 28.2018C75.2908 28.2019 75.3346 28.2541 75.3346 28.3185Z" fill="#B2F1E5"/>
<path d="M77.0144 28.3185C77.0144 28.3829 76.9707 28.4352 76.9166 28.4352C76.8627 28.4352 76.8188 28.383 76.8188 28.3185C76.8188 28.2541 76.8626 28.2018 76.9166 28.2018C76.9707 28.2019 77.0144 28.2541 77.0144 28.3185Z" fill="#B2F1E5"/>
<path d="M73.6546 30.323C73.6546 30.3874 73.6109 30.4397 73.5568 30.4397C73.5028 30.4397 73.459 30.3875 73.459 30.323C73.459 30.2586 73.5027 30.2062 73.5568 30.2062C73.6109 30.2064 73.6546 30.2586 73.6546 30.323Z" fill="#B2F1E5"/>
<path d="M75.3346 30.323C75.3346 30.3874 75.2908 30.4397 75.2367 30.4397C75.1828 30.4397 75.1389 30.3875 75.1389 30.323C75.1389 30.2586 75.1827 30.2063 75.2367 30.2063C75.2908 30.2064 75.3346 30.2586 75.3346 30.323Z" fill="#B2F1E5"/>
<path d="M77.0144 30.323C77.0144 30.3874 76.9707 30.4397 76.9166 30.4397C76.8627 30.4397 76.8188 30.3875 76.8188 30.323C76.8188 30.2586 76.8626 30.2063 76.9166 30.2063C76.9707 30.2064 77.0144 30.2586 77.0144 30.323Z" fill="#B2F1E5"/>
<path d="M5.90901 19.3052C5.90901 19.3696 5.86527 19.4219 5.81119 19.4219C5.75722 19.4219 5.71338 19.3697 5.71338 19.3052C5.71338 19.2408 5.75711 19.1885 5.81119 19.1885C5.86527 19.1885 5.90901 19.2407 5.90901 19.3052Z" fill="#B2F1E5"/>
<path d="M7.58885 19.3052C7.58885 19.3696 7.54511 19.4219 7.49103 19.4219C7.43706 19.4219 7.39322 19.3697 7.39322 19.3052C7.39322 19.2408 7.43695 19.1885 7.49103 19.1885C7.54511 19.1885 7.58885 19.2407 7.58885 19.3052Z" fill="#B2F1E5"/>
<path d="M5.90901 21.3096C5.90901 21.374 5.86527 21.4263 5.81119 21.4263C5.75722 21.4263 5.71338 21.3741 5.71338 21.3096C5.71338 21.2452 5.75711 21.1929 5.81119 21.1929C5.86527 21.1929 5.90901 21.2451 5.90901 21.3096Z" fill="#B2F1E5"/>
<path d="M7.58885 21.3096C7.58885 21.374 7.54511 21.4263 7.49103 21.4263C7.43706 21.4263 7.39322 21.3741 7.39322 21.3096C7.39322 21.2452 7.43695 21.1929 7.49103 21.1929C7.54511 21.1929 7.58885 21.2451 7.58885 21.3096Z" fill="#B2F1E5"/>
<path d="M5.90901 23.3141C5.90901 23.3785 5.86527 23.4308 5.81119 23.4308C5.75722 23.4308 5.71338 23.3786 5.71338 23.3141C5.71338 23.2497 5.75711 23.1974 5.81119 23.1974C5.86527 23.1974 5.90901 23.2496 5.90901 23.3141Z" fill="#B2F1E5"/>
<path d="M7.58885 23.3141C7.58885 23.3785 7.54511 23.4308 7.49103 23.4308C7.43706 23.4308 7.39322 23.3786 7.39322 23.3141C7.39322 23.2497 7.43695 23.1974 7.49103 23.1974C7.54511 23.1974 7.58885 23.2496 7.58885 23.3141Z" fill="#B2F1E5"/>
<path d="M57.147 53.2134C57.093 53.2134 57.0491 53.1611 57.0491 53.0967C57.0491 53.0323 57.0929 52.98 57.147 52.98C57.2009 52.98 57.2448 53.0321 57.2448 53.0967C57.2447 53.1612 57.2009 53.2134 57.147 53.2134Z" fill="#B2F1E5"/>
<path d="M57.147 55.2179C57.093 55.2179 57.0491 55.1656 57.0491 55.1012C57.0491 55.0368 57.0929 54.9845 57.147 54.9845C57.2009 54.9845 57.2448 55.0366 57.2448 55.1012C57.2447 55.1657 57.2009 55.2179 57.147 55.2179Z" fill="#B2F1E5"/>
<path d="M55.4667 53.2134C55.4127 53.2134 55.3689 53.1611 55.3689 53.0967C55.3689 53.0323 55.4126 52.98 55.4667 52.98C55.5206 52.98 55.5645 53.0321 55.5645 53.0967C55.5644 53.1612 55.5206 53.2134 55.4667 53.2134Z" fill="#B2F1E5"/>
<path d="M55.4667 55.2179C55.4127 55.2179 55.3689 55.1656 55.3689 55.1012C55.3689 55.0368 55.4126 54.9845 55.4667 54.9845C55.5206 54.9845 55.5645 55.0366 55.5645 55.1012C55.5644 55.1657 55.5206 55.2179 55.4667 55.2179Z" fill="#B2F1E5"/>
<path d="M53.7868 53.2134C53.7328 53.2134 53.689 53.1611 53.689 53.0967C53.689 53.0323 53.7327 52.98 53.7868 52.98C53.8408 52.98 53.8846 53.0321 53.8846 53.0967C53.8845 53.1612 53.8408 53.2134 53.7868 53.2134Z" fill="#B2F1E5"/>
<path d="M53.7868 55.2179C53.7328 55.2179 53.689 55.1656 53.689 55.1012C53.689 55.0368 53.7327 54.9845 53.7868 54.9845C53.8408 54.9845 53.8846 55.0366 53.8846 55.1012C53.8845 55.1657 53.8408 55.2179 53.7868 55.2179Z" fill="#B2F1E5"/>
<path d="M16.4888 37.1374C16.4348 37.1374 16.3909 37.0852 16.3909 37.0207C16.3909 36.9563 16.4347 36.904 16.4888 36.904C16.5427 36.904 16.5866 36.9562 16.5866 37.0207C16.5865 37.0852 16.5427 37.1374 16.4888 37.1374Z" fill="#B2F1E5"/>
<path d="M16.4888 39.1418C16.4348 39.1418 16.3909 39.0897 16.3909 39.0251C16.3909 38.9607 16.4347 38.9084 16.4888 38.9084C16.5427 38.9084 16.5866 38.9606 16.5866 39.0251C16.5865 39.0897 16.5427 39.1418 16.4888 39.1418Z" fill="#B2F1E5"/>
<path d="M14.8088 37.1374C14.7548 37.1374 14.7109 37.0853 14.7109 37.0207C14.7109 36.9563 14.7547 36.904 14.8088 36.904C14.8627 36.904 14.9066 36.9562 14.9066 37.0207C14.9065 37.0853 14.8627 37.1374 14.8088 37.1374Z" fill="#B2F1E5"/>
<path d="M14.8088 39.1418C14.7548 39.1418 14.7109 39.0897 14.7109 39.0251C14.7109 38.9607 14.7547 38.9084 14.8088 38.9084C14.8627 38.9084 14.9066 38.9606 14.9066 39.0251C14.9065 39.0897 14.8627 39.1418 14.8088 39.1418Z" fill="#B2F1E5"/>
<path d="M70.7927 11.7825C70.8467 11.7825 70.8905 11.7302 70.8905 11.6658C70.8905 11.6013 70.8467 11.5491 70.7927 11.5491C70.7387 11.5491 70.6949 11.6013 70.6949 11.6658C70.6949 11.7302 70.7387 11.7825 70.7927 11.7825Z" fill="#B2F1E5"/>
<path d="M70.7927 13.7869C70.8467 13.7869 70.8905 13.7347 70.8905 13.6702C70.8905 13.6057 70.8467 13.5535 70.7927 13.5535C70.7387 13.5535 70.6949 13.6057 70.6949 13.6702C70.6949 13.7347 70.7387 13.7869 70.7927 13.7869Z" fill="#B2F1E5"/>
<path d="M69.1127 11.7824C69.1667 11.7824 69.2105 11.7302 69.2105 11.6657C69.2105 11.6013 69.1667 11.549 69.1127 11.549C69.0587 11.549 69.0149 11.6013 69.0149 11.6657C69.0149 11.7302 69.0587 11.7824 69.1127 11.7824Z" fill="#B2F1E5"/>
<path d="M69.1127 13.7869C69.1667 13.7869 69.2105 13.7346 69.2105 13.6702C69.2105 13.6057 69.1667 13.5535 69.1127 13.5535C69.0587 13.5535 69.0149 13.6057 69.0149 13.6702C69.0149 13.7346 69.0587 13.7869 69.1127 13.7869Z" fill="#B2F1E5"/>
<path d="M11.488 57.6572C11.434 57.6572 11.3901 57.605 11.3901 57.5405C11.3901 57.4761 11.4339 57.4238 11.488 57.4238C11.5419 57.4238 11.5858 57.476 11.5858 57.5405C11.5857 57.6049 11.5419 57.6572 11.488 57.6572Z" fill="#B2F1E5"/>
<path d="M11.488 59.6616C11.434 59.6616 11.3901 59.6094 11.3901 59.5449C11.3901 59.4805 11.4339 59.4282 11.488 59.4282C11.5419 59.4282 11.5858 59.4804 11.5858 59.5449C11.5857 59.6093 11.5419 59.6616 11.488 59.6616Z" fill="#B2F1E5"/>
<path d="M9.80777 57.6572C9.7538 57.6572 9.70996 57.605 9.70996 57.5405C9.70996 57.4761 9.75369 57.4238 9.80777 57.4238C9.86175 57.4238 9.90559 57.476 9.90559 57.5405C9.90548 57.6049 9.86175 57.6572 9.80777 57.6572Z" fill="#B2F1E5"/>
<path d="M9.80777 59.6616C9.7538 59.6616 9.70996 59.6094 9.70996 59.5449C9.70996 59.4805 9.75369 59.4282 9.80777 59.4282C9.86175 59.4282 9.90559 59.4804 9.90559 59.5449C9.90548 59.6093 9.86175 59.6616 9.80777 59.6616Z" fill="#B2F1E5"/>
<g opacity="0.14">
<path d="M24.6908 30.4137L24.646 29.9333C24.6366 29.8326 24.5606 29.7601 24.4762 29.7713L24.229 29.804C24.1653 29.8124 24.1027 29.7733 24.0748 29.7044C24.031 29.5961 23.9773 29.4942 23.915 29.4003C23.8751 29.3401 23.8728 29.256 23.907 29.1911L24.0398 28.9399C24.085 28.8542 24.0636 28.741 23.9917 28.6869L23.649 28.429C23.5772 28.3749 23.4823 28.4006 23.4369 28.4864L23.3041 28.7378C23.2698 28.8027 23.205 28.8364 23.1423 28.8193C23.094 28.8062 23.0446 28.7961 22.9943 28.7892C22.9439 28.7823 22.8939 28.7789 22.8443 28.7788C22.78 28.7785 22.7232 28.7282 22.702 28.6558L22.6201 28.3753C22.5921 28.2796 22.5046 28.2291 22.4243 28.2624L22.0417 28.4214C21.9615 28.4547 21.9192 28.5593 21.9471 28.6549L22.0289 28.9354C22.0501 29.0078 22.0318 29.0893 21.9816 29.1371C21.9032 29.2118 21.8317 29.2966 21.7685 29.3903C21.7282 29.45 21.66 29.4713 21.5994 29.4459L21.3648 29.3475C21.2847 29.3139 21.1969 29.3642 21.1688 29.4598L21.0344 29.9158C21.0062 30.0113 21.0483 30.1161 21.1285 30.1497L21.3633 30.2482C21.4239 30.2736 21.4661 30.3413 21.4661 30.4179C21.4659 30.5397 21.4773 30.6591 21.4988 30.7743C21.5128 30.8491 21.4844 30.9263 21.4299 30.967L21.2191 31.1244C21.1471 31.1782 21.1254 31.2914 21.1704 31.3773L21.3854 31.787C21.4305 31.8729 21.5254 31.8988 21.5974 31.8451L21.808 31.6877C21.8625 31.647 21.9331 31.6501 21.9835 31.698C22.0615 31.7722 22.1467 31.8365 22.2379 31.8893C22.2957 31.9228 22.3283 31.9975 22.321 32.0737L22.2928 32.3683C22.2832 32.469 22.3438 32.5599 22.4282 32.5714L22.8307 32.6263C22.9151 32.6377 22.9913 32.5654 23.001 32.4648L23.0291 32.1702C23.0364 32.0941 23.0824 32.03 23.145 32.0129C23.2438 31.9859 23.3389 31.9462 23.4289 31.8949C23.487 31.8618 23.5564 31.8777 23.6018 31.932L23.7774 32.142C23.8374 32.2138 23.9347 32.2139 23.9949 32.1424L24.2818 31.8011C24.342 31.7296 24.3421 31.6134 24.2822 31.5417L24.1066 31.3316C24.0611 31.2773 24.0481 31.1945 24.0759 31.1253C24.1186 31.0189 24.1521 30.9056 24.1752 30.7869C24.1896 30.7122 24.2434 30.6576 24.3073 30.6492L24.5548 30.6164C24.6394 30.6052 24.7002 30.5144 24.6908 30.4137ZM22.7517 31.3236C22.3313 31.2663 22.03 30.8141 22.078 30.3126C22.126 29.811 22.505 29.4515 22.9254 29.5088C23.3457 29.566 23.6471 30.0182 23.5991 30.5198C23.5511 31.0213 23.1721 31.3808 22.7517 31.3236Z" fill="#95A1FF"/>
<path d="M45.2014 17.8383L45.2335 17.6645C45.2402 17.6281 45.2209 17.5921 45.1904 17.5841L45.1012 17.5606C45.0781 17.5545 45.0602 17.5321 45.0573 17.5041C45.0528 17.4601 45.0442 17.417 45.0318 17.3756C45.0239 17.349 45.0314 17.3194 45.0498 17.3016L45.121 17.2328C45.1453 17.2094 45.149 17.1669 45.1294 17.1379L45.0357 16.9997C45.016 16.9707 44.9804 16.9662 44.9561 16.9896L44.8848 17.0584C44.8664 17.0762 44.8406 17.0787 44.8204 17.0638C44.8048 17.0524 44.7887 17.0419 44.7719 17.0324C44.755 17.0229 44.738 17.0146 44.7207 17.0076C44.6983 16.9984 44.6834 16.9728 44.6833 16.9446L44.6827 16.8353C44.6825 16.798 44.657 16.7679 44.6257 16.7682L44.4767 16.7695C44.4455 16.7697 44.4203 16.8001 44.4206 16.8374L44.4213 16.9468C44.4215 16.975 44.407 17.0007 44.3848 17.0103C44.3501 17.0252 44.3167 17.0446 44.2855 17.0683C44.2655 17.0833 44.2396 17.0811 44.221 17.0637L44.1492 16.9963C44.1246 16.9732 44.089 16.9783 44.0697 17.0076L43.9776 17.1475C43.9583 17.1767 43.9626 17.2192 43.9871 17.2423L44.0591 17.3098C44.0777 17.3273 44.0857 17.3568 44.078 17.3835C44.0658 17.4259 44.058 17.4692 44.054 17.5123C44.0514 17.5405 44.034 17.5632 44.0109 17.5697L43.9218 17.5948C43.8914 17.6033 43.8726 17.6397 43.8797 17.676L43.914 17.8491C43.9211 17.8853 43.9516 17.9079 43.982 17.8993L44.0711 17.8743C44.0941 17.8678 44.1184 17.8789 44.1311 17.9027C44.151 17.9394 44.1742 17.9739 44.2007 18.0052C44.2175 18.0251 44.2214 18.0558 44.2113 18.0812L44.1722 18.1798C44.1589 18.2136 44.1709 18.2538 44.1992 18.2697L44.3339 18.3457C44.3622 18.3616 44.3959 18.3472 44.4092 18.3135L44.4482 18.2148C44.4584 18.1894 44.4807 18.1736 44.5042 18.1764C44.5414 18.181 44.5784 18.1806 44.6149 18.1755C44.6383 18.1722 44.6609 18.1876 44.6714 18.2129L44.7116 18.3109C44.7254 18.3444 44.7593 18.3583 44.7873 18.3419L44.9212 18.2636C44.9493 18.2472 44.9609 18.2067 44.9471 18.1732L44.9068 18.0752C44.8964 18.0499 44.9001 18.0192 44.9166 17.999C44.9421 17.9679 44.965 17.9333 44.9848 17.8951C44.9973 17.8712 45.0214 17.8598 45.0445 17.8659L45.134 17.8894C45.1645 17.8977 45.1946 17.8747 45.2014 17.8383ZM44.4357 17.881C44.295 17.8016 44.2349 17.6015 44.3015 17.4337C44.368 17.2658 44.5357 17.1942 44.6764 17.2736C44.8171 17.353 44.8772 17.5531 44.8106 17.7209C44.744 17.8888 44.5764 17.9604 44.4357 17.881Z" fill="#95A1FF"/>
<path d="M69.4446 25.7713L69.6407 24.7113C69.6818 24.4891 69.5643 24.2693 69.378 24.2203L68.8327 24.0768C68.6919 24.0397 68.5829 23.9026 68.5653 23.7319C68.5377 23.464 68.4853 23.2009 68.41 22.9478C68.3617 22.7855 68.4077 22.6044 68.5199 22.496L68.9543 22.0765C69.1026 21.9335 69.1255 21.674 69.0055 21.4972L68.4332 20.6533C68.3132 20.4764 68.0958 20.4492 67.9476 20.5922L67.513 21.0118C67.4006 21.1202 67.2425 21.1359 67.1195 21.0455C67.0247 20.9759 66.926 20.9117 66.8229 20.8536C66.72 20.7956 66.6157 20.7452 66.5104 20.702C66.3738 20.6459 66.2835 20.4901 66.2826 20.3178L66.2786 19.6508C66.2772 19.4233 66.1216 19.2403 65.9309 19.2418L65.021 19.2495C64.8303 19.2512 64.6769 19.4369 64.6782 19.6644L64.6821 20.3313C64.6832 20.5035 64.595 20.6609 64.4592 20.7194C64.2474 20.8105 64.0438 20.9291 63.8527 21.0737C63.731 21.1658 63.5729 21.1523 63.4596 21.046L63.0206 20.6345C62.8706 20.4938 62.6537 20.5249 62.5358 20.7038L61.9737 21.5573C61.8558 21.7362 61.8818 21.9951 62.0318 22.1357L62.4714 22.5479C62.5847 22.6543 62.6334 22.8345 62.5869 22.9974C62.5129 23.2564 62.4645 23.5199 62.4405 23.7833C62.425 23.9546 62.3179 24.0941 62.1773 24.1337L61.6338 24.2865C61.4482 24.3387 61.3332 24.5605 61.377 24.782L61.5857 25.8385C61.6294 26.06 61.8154 26.1972 62.001 26.145L62.5443 25.9921C62.6849 25.9526 62.8331 26.0203 62.911 26.1654C63.0319 26.3902 63.1741 26.6006 63.3359 26.7915C63.4384 26.9125 63.4625 27.0996 63.4009 27.2551L63.1622 27.8572C63.0807 28.0629 63.1543 28.3085 63.3268 28.4058L64.1493 28.8698C64.3217 28.967 64.5276 28.8792 64.6091 28.6734L64.8477 28.0713C64.9093 27.9158 65.0458 27.8193 65.1892 27.837C65.4157 27.865 65.642 27.8626 65.8644 27.8314C66.0079 27.8113 66.1458 27.905 66.2094 28.0597L66.4551 28.6577C66.5391 28.862 66.7459 28.9464 66.9171 28.8462L67.7341 28.3682C67.9053 28.2681 67.976 28.0213 67.892 27.817L67.6462 27.2189C67.5826 27.0641 67.605 26.8769 67.7061 26.7538C67.8617 26.5645 68.0015 26.3527 68.1223 26.1202C68.1983 25.9738 68.3459 25.9043 68.4868 25.9414L69.0329 26.0852C69.2192 26.1339 69.4034 25.9935 69.4446 25.7713ZM64.7708 26.0321C63.9119 25.5476 63.5454 24.3262 63.9516 23.3013C64.3576 22.2765 65.3813 21.8393 66.2403 22.3239C67.0992 22.8084 67.4656 24.0298 67.0595 25.0547C66.6534 26.0795 65.6298 26.5167 64.7708 26.0321Z" fill="#95A1FF"/>
</g>
<path opacity="0.37" d="M36.0571 19.3692C36.4036 19.3692 36.6845 19.034 36.6845 18.6206C36.6845 18.2071 36.4036 17.872 36.0571 17.872C35.7106 17.872 35.4297 18.2071 35.4297 18.6206C35.4297 19.034 35.7106 19.3692 36.0571 19.3692Z" stroke="#8DCABE" stroke-width="3" stroke-miterlimit="10" stroke-linecap="round" stroke-linejoin="round"/>
<path opacity="0.37" d="M76.8393 16.9649C76.8393 17.3784 76.5583 17.7135 76.2119 17.7135C75.8653 17.7135 75.5845 17.3783 75.5845 16.9649C75.5845 16.5515 75.8654 16.2164 76.2119 16.2164C76.5583 16.2162 76.8393 16.5515 76.8393 16.9649Z" stroke="#8DCABE" stroke-width="3" stroke-miterlimit="10" stroke-linecap="round" stroke-linejoin="round"/>
<path opacity="0.37" d="M65.3325 57.1342C65.3325 57.5477 65.0515 57.8828 64.705 57.8828C64.3585 57.8828 64.0776 57.5476 64.0776 57.1342C64.0776 56.7207 64.3586 56.3856 64.705 56.3856C65.0515 56.3855 65.3325 56.7207 65.3325 57.1342Z" stroke="#8DCABE" stroke-width="3" stroke-miterlimit="10" stroke-linecap="round" stroke-linejoin="round"/>
<path opacity="0.37" d="M28.0953 26.9035C28.2135 26.9035 28.3093 26.7892 28.3093 26.6482C28.3093 26.5072 28.2135 26.3929 28.0953 26.3929C27.9771 26.3929 27.8813 26.5072 27.8813 26.6482C27.8813 26.7892 27.9771 26.9035 28.0953 26.9035Z" stroke="#8DCABE" stroke-width="1.0229" stroke-miterlimit="10" stroke-linecap="round" stroke-linejoin="round"/>
<path opacity="0.37" d="M57.5315 23.7974C57.5315 23.9384 57.4357 24.0527 57.3175 24.0527C57.1993 24.0527 57.1035 23.9384 57.1035 23.7974C57.1035 23.6564 57.1993 23.5421 57.3175 23.5421C57.4357 23.5421 57.5315 23.6564 57.5315 23.7974Z" stroke="#8DCABE" stroke-width="1.0229" stroke-miterlimit="10" stroke-linecap="round" stroke-linejoin="round"/>
<path opacity="0.37" d="M44.3112 30.9639C44.3112 31.1049 44.2155 31.2192 44.0973 31.2192C43.9791 31.2192 43.8833 31.1049 43.8833 30.9639C43.8833 30.8229 43.9791 30.7086 44.0973 30.7086C44.2155 30.7086 44.3112 30.8229 44.3112 30.9639Z" stroke="#8DCABE" stroke-width="1.0229" stroke-miterlimit="10" stroke-linecap="round" stroke-linejoin="round"/>
<path opacity="0.37" d="M43.069 52.9075C43.1871 52.9075 43.2829 52.7932 43.2829 52.6522C43.2829 52.5113 43.1871 52.3969 43.069 52.3969C42.9508 52.3969 42.855 52.5113 42.855 52.6522C42.855 52.7932 42.9508 52.9075 43.069 52.9075Z" stroke="#8DCABE" stroke-width="1.0229" stroke-miterlimit="10" stroke-linecap="round" stroke-linejoin="round"/>
<path opacity="0.37" d="M18.6678 17.2202C18.786 17.2202 18.8818 17.1059 18.8818 16.9649C18.8818 16.824 18.786 16.7097 18.6678 16.7097C18.5497 16.7097 18.4539 16.824 18.4539 16.9649C18.4539 17.1059 18.5497 17.2202 18.6678 17.2202Z" stroke="#8DCABE" stroke-width="1.0229" stroke-miterlimit="10" stroke-linecap="round" stroke-linejoin="round"/>
<path opacity="0.37" d="M69.4245 6.63063C69.4245 6.77164 69.3288 6.88593 69.2106 6.88593C69.0924 6.88593 68.9966 6.77164 68.9966 6.63063C68.9966 6.48962 69.0924 6.37534 69.2106 6.37534C69.3288 6.37546 69.4245 6.48962 69.4245 6.63063Z" stroke="#8DCABE" stroke-width="1.0229" stroke-miterlimit="10" stroke-linecap="round" stroke-linejoin="round"/>
<path opacity="0.37" d="M4.838 29.9368C5.07429 29.9368 5.26584 29.7083 5.26584 29.4263C5.26584 29.1444 5.07429 28.9159 4.838 28.9159C4.60171 28.9159 4.41016 29.1444 4.41016 29.4263C4.41016 29.7083 4.60171 29.9368 4.838 29.9368Z" stroke="#8DCABE" stroke-width="2.0457" stroke-miterlimit="10" stroke-linecap="round" stroke-linejoin="round"/>
<path opacity="0.37" d="M57.9597 13.9247C57.9597 14.2066 57.7681 14.4352 57.5318 14.4352C57.2956 14.4352 57.104 14.2066 57.104 13.9247C57.104 13.6428 57.2956 13.4142 57.5318 13.4142C57.7681 13.4142 57.9597 13.6428 57.9597 13.9247Z" stroke="#8DCABE" stroke-width="2.0457" stroke-miterlimit="10" stroke-linecap="round" stroke-linejoin="round"/>
<path d="M64.5977 48.9701C65.5069 48.9701 66.244 48.9145 66.244 48.846C66.244 48.7775 65.5069 48.7219 64.5977 48.7219C63.6885 48.7219 62.9514 48.7775 62.9514 48.846C62.9514 48.9145 63.6885 48.9701 64.5977 48.9701Z" fill="#23668A"/>
<path d="M63.7075 49.6422C63.7075 49.6422 63.3003 44.4582 68.6627 44.3417C68.6627 44.3417 69.5007 47.8089 63.7075 49.6422Z" fill="#43B59F"/>
<path d="M68.6627 44.3417C68.6627 44.3417 66.593 45.6581 63.7075 49.6422" stroke="#F0F5FF" stroke-width="0.4409" stroke-miterlimit="10"/>
<path d="M63.7077 49.6422C63.7077 49.6422 61.8994 44.7791 65.6258 42.1476C65.6258 42.1476 67.8023 45.7622 63.7077 49.6422Z" fill="#8DCABE"/>
<path d="M63.7076 49.6422C63.7076 49.6422 64.3266 45.463 65.6257 42.1476" stroke="#F0F5FF" stroke-width="0.4409" stroke-miterlimit="10"/>
<path d="M66.2515 48.846H66.2441C66.2441 48.9145 65.507 48.97 64.5977 48.97C63.6884 48.97 62.9513 48.9145 62.9513 48.846H62.9438C62.9438 48.846 61.9604 49.4976 61.9604 50.3354C61.9604 51.1731 62.9289 51.6076 62.9289 51.6076H64.5976H66.2663C66.2663 51.6076 67.2347 51.1732 67.2347 50.3354C67.2347 49.4975 66.2515 48.846 66.2515 48.846Z" fill="#71C3B3"/>
<path d="M67.0483 50.9461C66.767 51.383 66.2664 51.6077 66.2664 51.6077H62.929C62.929 51.6077 61.96 51.1732 61.96 50.3354C61.96 49.9084 62.2162 49.5299 62.4665 49.2617C62.4713 49.3697 62.4987 49.4752 62.5536 49.5757C62.7145 49.8736 63.0196 50.0524 63.32 50.1901C64.4856 50.7264 65.767 50.8766 67.0483 50.9461Z" fill="#F6E2E0"/>
<path d="M67.0483 50.9461C66.767 51.383 66.2664 51.6077 66.2664 51.6077H62.929C62.929 51.6077 61.96 51.1732 61.96 50.3354C61.96 49.9084 62.2162 49.5299 62.4665 49.2617C62.4713 49.3697 62.4987 49.4752 62.5536 49.5757C62.7145 49.8736 63.0196 50.0524 63.32 50.1901C64.4856 50.7264 65.767 50.8766 67.0483 50.9461Z" fill="#8DCABE"/>
<path d="M68.7537 52.1521H12.247C12.1026 52.1521 11.9856 52.0303 11.9856 51.8799C11.9856 51.7295 12.1026 51.6076 12.247 51.6076H68.7537C68.8981 51.6076 69.0151 51.7295 69.0151 51.8799C69.0151 52.0303 68.8981 52.1521 68.7537 52.1521Z" fill="#000067"/>
<path d="M54.045 41.0283C54.0212 40.6768 53.7404 40.4045 53.4022 40.4045H49.6792C49.5978 40.4045 49.5318 40.4732 49.5318 40.558C49.5318 40.6427 49.5978 40.7115 49.6792 40.7115H49.8883C49.9565 40.7115 50.0132 40.7665 50.018 40.8373L50.6566 50.2651C50.6882 50.7309 50.3338 51.1269 49.8854 51.1269H47.7485C47.6183 51.1269 47.5127 51.2368 47.5127 51.3725C47.5127 51.5081 47.6183 51.618 47.7485 51.618H50.7481H53.8151H54.0708C54.4445 51.618 54.7399 51.288 54.7135 50.8998L54.045 41.0283Z" fill="#3280A0"/>
<path opacity="0.33" d="M54.4371 46.8175H50.4231L50.4908 47.8172H54.5048L54.4371 46.8175Z" fill="#145679"/>
<path d="M59.2735 47.0343H41.4723C40.6997 47.0343 40.1279 46.2859 40.3018 45.5019L43.1643 32.5903C43.2902 32.0229 43.7755 31.6208 44.3348 31.6208H62.1359C62.9085 31.6208 63.4803 32.3692 63.3065 33.1532L60.444 46.0648C60.3181 46.6323 59.8328 47.0343 59.2735 47.0343Z" fill="#3280A0"/>
<path d="M58.5834 47.0343H40.7821C40.0095 47.0343 39.4378 46.2859 39.6117 45.5019L42.4742 32.5903C42.6 32.0228 43.0854 31.6208 43.6446 31.6208H61.4458C62.2184 31.6208 62.7901 32.3692 62.6162 33.1532L59.7537 46.0647C59.628 46.6323 59.1426 47.0343 58.5834 47.0343Z" fill="#145679"/>
<path d="M40.782 46.4007C40.6002 46.4007 40.4312 46.3157 40.318 46.1676C40.2049 46.0196 40.1635 45.829 40.2043 45.6446L43.0669 32.7329C43.1294 32.4512 43.3668 32.2544 43.6445 32.2544H61.4457C61.6274 32.2544 61.7965 32.3393 61.9096 32.4874C62.0227 32.6355 62.0641 32.8263 62.0233 33.0107L59.1608 45.9222C59.0984 46.2038 58.8608 46.4007 58.5832 46.4007H40.782Z" fill="#E8EDFE"/>
<path d="M40.782 46.4007C40.6002 46.4007 40.4312 46.3157 40.318 46.1676C40.2049 46.0196 40.1635 45.829 40.2043 45.6446L43.0669 32.7329C43.1294 32.4512 43.3668 32.2544 43.6445 32.2544H61.4457C61.6274 32.2544 61.7965 32.3393 61.9096 32.4874C62.0227 32.6355 62.0641 32.8263 62.0233 33.0107L59.1608 45.9222C59.0984 46.2038 58.8608 46.4007 58.5832 46.4007H40.782Z" fill="#E8EDFE"/>
<path d="M40.3019 50.6646H52.7895C52.9533 50.6646 53.0863 50.7591 53.0863 50.8757V51.3967C53.0863 51.5133 52.9533 51.6078 52.7895 51.6078H40.3019C40.138 51.6078 40.0052 51.5133 40.0052 51.3967V50.8757C40.0052 50.7591 40.138 50.6646 40.3019 50.6646Z" fill="#572A44"/>
<path d="M48.0074 50.6643H52.9684C53.0335 50.6643 53.0863 50.7589 53.0863 50.8755V51.3964C53.0863 51.5131 53.0335 51.6076 52.9684 51.6076H48.0074C47.9423 51.6076 47.8895 51.5131 47.8895 51.3964V50.8755C47.8894 50.759 47.9422 50.6643 48.0074 50.6643Z" fill="#000067"/>
<path d="M24.4722 38.2296C24.4722 38.2296 21.1482 38.9211 20.5971 42.1617C20.0018 45.6624 22.3038 51.88 22.3038 51.88H26.5829L24.4722 38.2296Z" fill="#71C3B3"/>
<path d="M43.7929 63.8166H30.2772C26.9855 62.5781 26.9033 57.2198 26.9033 57.2198C26.9033 57.2198 30.6548 57.2198 36.0468 57.2198C41.4377 57.2198 45.1049 57.8885 45.2063 59.7357C45.2884 61.2319 44.2079 63.1435 43.7929 63.8166Z" fill="#2D2D2D"/>
<path d="M41.4505 62.9513L40.93 63.8166H30.2772C26.9855 62.5781 26.9033 57.2198 26.9033 57.2198C26.9033 57.2198 28.3743 57.2198 30.7977 57.2198C30.7977 57.2198 30.8372 62.3404 34.8905 62.6736C38.9439 63.0069 41.4505 62.9513 41.4505 62.9513Z" fill="#222020"/>
<path d="M27.2815 29.1085C27.2815 29.1085 26.9688 27.8941 27.5773 27.111C27.5773 27.111 27.2224 27.8766 27.5773 28.7302L27.2815 29.1085Z" fill="#000067"/>
<path d="M27.4899 28.7439C27.4899 28.7439 27.241 28.3405 26.583 28.5938C26.583 28.5938 27.1063 28.5281 27.2505 28.858L27.4899 28.7439Z" fill="#000067"/>
<path d="M27.0362 33.9395C27.0362 33.9395 26.6539 36.4474 25.6652 38.0313C25.6652 38.0313 29.0876 38.3481 29.696 39.0081L29.7975 35.3387L27.0362 33.9395Z" fill="#FFBBA5"/>
<path d="M32.4847 29.399C32.6622 29.9269 33.2453 31.7484 33.0932 32.0917C32.9411 32.4349 33.1438 33.0948 33.2453 33.702C33.3467 34.3092 32.9157 34.1508 32.865 34.4413C32.8143 34.7316 32.9917 36.4739 31.927 36.9491C30.8622 37.4243 29.4172 36.8435 28.4032 35.8139C27.3892 34.7844 26.071 31.8805 28.099 29.8214C30.1272 27.7621 32.4847 29.399 32.4847 29.399Z" fill="#FFBBA5"/>
<path d="M29.6769 32.6592C29.6769 32.6592 29.9473 33.8087 30.7121 33.8015L29.9065 32.1156L29.6769 32.6592Z" fill="#FF9E7C"/>
<path d="M29.8977 32.6857C29.8977 32.6857 29.582 34.8961 27.7313 34.8961C26.8963 34.8961 26.4952 34.4675 26.115 33.1476C25.8001 32.0545 25.0543 31.0986 25.1517 30.2437C25.3292 28.6862 27.0722 28.5278 27.2877 28.6995C27.2877 28.6995 27.275 27.2211 29.0749 26.7855C30.8748 26.3499 31.648 28.1714 32.9536 27.6039C34.2592 27.0363 34.2805 29.5461 32.6348 29.8619C30.9889 30.1778 32.3072 31.9861 31.0016 32.3161C29.696 32.6459 29.8977 32.6857 29.8977 32.6857Z" fill="#2D2D2D"/>
<path d="M31.2142 32.5289C31.2783 33.1962 31.0536 33.7661 30.7122 33.8016C30.3709 33.8371 29.9504 33.2607 29.8864 32.5933C29.8223 31.926 30.1389 31.4206 30.4802 31.385C30.8214 31.3494 31.1501 31.8615 31.2142 32.5289Z" fill="#FFBBA5"/>
<path d="M25.3969 37.8482L25.9762 36.9131C26.1214 36.6789 26.3746 36.5436 26.6421 36.5545C26.9805 36.5682 27.5046 36.6171 28.1903 36.7641C29.2487 36.9909 29.8383 37.237 30.1243 37.3839C30.2641 37.4556 30.3603 37.5954 30.3842 37.7556L30.6339 39.4303C30.6339 39.4303 29.8548 38.7292 28.6174 38.358C27.3799 37.987 25.3969 37.8482 25.3969 37.8482Z" fill="#43B59F"/>
<path d="M25.5277 37.6468C25.5277 37.6468 26.9532 37.5045 28.3358 37.8554C29.7184 38.2063 32.4192 39.2457 33.0952 39.8089C33.7713 40.372 33.0731 42.9412 33.3721 45.7398C33.6769 48.5918 35.4061 57.3829 34.2385 57.2446C34.2385 57.2446 32.5271 57.6368 28.64 57.6368C24.7528 57.6368 22.8937 58.024 23.029 55.7008C23.1643 53.3777 20.6556 43.9201 21.0949 41.421C21.5344 38.922 23.7362 38.2979 25.5277 37.6468Z" fill="#8DCABE"/>
<path d="M34.2386 57.2446C35.4062 57.3828 33.677 48.5917 33.3723 45.7397C33.2606 44.6953 33.288 43.6828 33.3309 42.7947H30.9766C30.9766 42.7947 31.6947 48.9002 32.5282 52.7509C32.9519 54.7082 32.9447 56.3273 32.8353 57.4472C33.7906 57.347 34.2386 57.2446 34.2386 57.2446Z" fill="#43B59F"/>
<path d="M44.8179 49.5653L46.5817 50.0457L48.7798 49.198L50.8964 49.6218L52.1447 51.2891C52.1447 51.2891 52.0361 51.6989 51.602 51.4304C51.602 51.4304 51.3985 51.7541 51.005 51.5216C50.6115 51.2891 50.6929 50.7522 50.2858 50.6957C49.8788 50.6392 49.9466 51.6057 48.9697 51.6057C47.9927 51.6057 45.2113 51.6057 45.2113 51.6057L44.8179 49.5653Z" fill="#FFBBA5"/>
<path d="M46.0173 51.6057C46.917 51.6057 48.3301 51.6057 48.9697 51.6057C49.9465 51.6057 49.8787 50.6392 50.2858 50.6958C50.6929 50.7523 50.6115 51.2891 51.005 51.5216C51.3985 51.7541 51.602 51.4304 51.602 51.4304C51.602 51.4304 51.2283 50.9551 50.8727 50.6035C50.5172 50.2517 50.2149 50.1406 49.5572 50.7145C48.8994 51.2885 47.7972 51.3255 47.4417 51.3596C47.0861 51.3937 46.1687 51.3596 46.1687 51.3596L46.0173 51.6057Z" fill="#FFA17C"/>
<path d="M29.7976 36.1504L29.7673 36.7913C29.7673 36.7913 30.9128 37.3977 31.8281 36.9895C31.8281 36.9895 30.4693 37.2459 29.7976 36.1504Z" fill="#FF9E7C"/>
<path d="M32.8898 39.6616C33.9216 40.2851 35.5019 42.4648 36.6508 43.9447C37.9353 45.599 39.7943 48.0629 39.8957 48.1685C39.9972 48.2741 45.8109 49.6468 45.8109 49.6468C45.8109 49.6468 46.2841 50.4211 46.149 51.6179H37.9127C37.9127 51.6179 33.822 48.546 32.5281 47.16C30.7534 45.2594 30.0504 40.9287 32.8898 39.6616Z" fill="#71C4B3"/>
<path d="M30.9069 32.4175C31.0393 31.9784 31.1117 31.5024 31.1117 31.0055C31.1117 28.966 29.8921 27.2826 28.3149 27.033" stroke="#E7EDFD" stroke-width="1.7106" stroke-miterlimit="10" stroke-linecap="round" stroke-linejoin="round"/>
<path d="M30.7642 33.8197C30.7642 33.8197 31.0541 35.5727 33.0919 35.8026" stroke="#1A937B" stroke-width="1.4818" stroke-miterlimit="10"/>
<path d="M33.3226 35.8253C33.3111 36.0163 33.1016 36.1581 32.8545 36.1421C32.6075 36.1261 32.4164 35.9584 32.4277 35.7673C32.4391 35.5764 32.6486 35.4346 32.8958 35.4506C33.1428 35.4667 33.334 35.6344 33.3226 35.8253Z" fill="#1A937B"/>
<path d="M31.0643 34.3556C31.7549 34.3556 32.3147 33.5611 32.3147 32.5811C32.3147 31.6011 31.7549 30.8067 31.0643 30.8067C30.3738 30.8067 29.814 31.6011 29.814 32.5811C29.814 33.5611 30.3738 34.3556 31.0643 34.3556Z" fill="#43B59F"/>
<path d="M31.3451 33.8504C31.839 33.8504 32.2395 33.2821 32.2395 32.5811C32.2395 31.8801 31.839 31.3118 31.3451 31.3118C30.8511 31.3118 30.4507 31.8801 30.4507 32.5811C30.4507 33.2821 30.8511 33.8504 31.3451 33.8504Z" fill="#E7EDFD"/>
<path d="M31.3966 33.7773C31.8621 33.7773 32.2395 33.2417 32.2395 32.5811C32.2395 31.9205 31.8621 31.3849 31.3966 31.3849C30.9311 31.3849 30.5537 31.9205 30.5537 32.5811C30.5537 33.2417 30.9311 33.7773 31.3966 33.7773Z" fill="#8DCABE"/>
<path opacity="0.56" d="M38.5748 50.6644C37.6371 50.3118 32.6326 48.0117 31.2393 44.7819C31.5072 45.7027 31.9629 46.5548 32.528 47.16C33.822 48.5461 37.9126 51.618 37.9126 51.618H46.1489C46.1589 51.5292 46.1647 51.4436 46.1684 51.3596C44.1328 51.3016 39.2517 50.9189 38.5748 50.6644Z" fill="#1EAA8F"/>
<path d="M40.6613 46.4006C40.3044 46.2918 40.1347 45.9592 40.2043 45.6445L43.0669 32.7329C43.1295 32.4512 43.3669 32.2543 43.6445 32.2543H61.5645C61.9228 32.3619 62.0933 32.6955 62.0234 33.0107L59.1609 45.9221C59.0985 46.2038 58.861 46.4006 58.5833 46.4006H40.6613Z" fill="#E8EDFE"/>
<path d="M45.3445 37.9622H44.4379C44.0917 37.9622 43.8759 37.6701 43.9558 37.3096L44.1651 36.3655C44.245 36.005 44.5904 35.7129 44.9364 35.7129H45.8431C46.1892 35.7129 46.405 36.005 46.3251 36.3655L46.1158 37.3096C46.036 37.6701 45.6907 37.9622 45.3445 37.9622Z" fill="#43B59F"/>
<path d="M51.3394 36.5738H47.5326C47.3853 36.5738 47.2934 36.4495 47.3274 36.2961C47.3615 36.1427 47.5083 36.0184 47.6557 36.0184H51.4625C51.6098 36.0184 51.7016 36.1427 51.6676 36.2961C51.6337 36.4495 51.4867 36.5738 51.3394 36.5738Z" fill="#B9DDD6"/>
<path d="M58.0924 37.6567H47.0791C47.0496 37.6567 47.0313 37.6319 47.038 37.6012C47.0448 37.5705 47.0742 37.5457 47.1036 37.5457H58.1169C58.1464 37.5457 58.1647 37.5705 58.1579 37.6012C58.1513 37.6319 58.1219 37.6567 58.0924 37.6567Z" fill="#B9DDD6"/>
<path d="M44.6304 41.1834H43.7237C43.3776 41.1834 43.1618 40.8912 43.2417 40.5308L43.451 39.5867C43.5309 39.2262 43.8763 38.9341 44.2223 38.9341H45.129C45.4751 38.9341 45.6909 39.2262 45.611 39.5867L45.4017 40.5308C45.3218 40.8912 44.9765 41.1834 44.6304 41.1834Z" fill="#8DCABE"/>
<path d="M54.3367 39.7949H46.8181C46.6708 39.7949 46.579 39.6706 46.613 39.5172C46.647 39.3638 46.7939 39.2395 46.9412 39.2395H54.4598C54.6071 39.2395 54.699 39.3638 54.6649 39.5172C54.631 39.6706 54.484 39.7949 54.3367 39.7949Z" fill="#B9DDD6"/>
<path d="M57.3782 40.8779H46.3649C46.3355 40.8779 46.3171 40.8531 46.3239 40.8224C46.3308 40.7917 46.3601 40.7669 46.3895 40.7669H57.4029C57.4323 40.7669 57.4507 40.7917 57.4439 40.8224C57.4371 40.8531 57.4077 40.8779 57.3782 40.8779Z" fill="#B9DDD6"/>
<path d="M43.9163 44.4046H43.0096C42.6635 44.4046 42.4477 44.1125 42.5276 43.752L42.7369 42.8079C42.8168 42.4474 43.1622 42.1553 43.5082 42.1553H44.4149C44.761 42.1553 44.9768 42.4474 44.8969 42.8079L44.6876 43.752C44.6077 44.1125 44.2624 44.4046 43.9163 44.4046Z" fill="#43B59F"/>
<path d="M49.3849 43.0162H46.104C45.9567 43.0162 45.8649 42.8919 45.8989 42.7385C45.933 42.5851 46.0798 42.4608 46.2271 42.4608H49.508C49.6553 42.4608 49.7471 42.5851 49.7131 42.7385C49.6792 42.8919 49.5322 43.0162 49.3849 43.0162Z" fill="#B9DDD6"/>
<path d="M56.5636 43.0162H54.8846C54.7373 43.0162 54.6455 42.8919 54.6795 42.7385C54.7135 42.5851 54.8605 42.4608 55.0077 42.4608H56.6867C56.834 42.4608 56.9259 42.5851 56.8919 42.7385C56.8578 42.8919 56.7109 43.0162 56.5636 43.0162Z" fill="#B9DDD6"/>
<path d="M56.6639 44.0991H45.6506C45.6212 44.0991 45.6028 44.0742 45.6095 44.0436C45.6164 44.0129 45.6457 43.988 45.6751 43.988H56.6885C56.7179 43.988 56.7363 44.0129 56.7295 44.0436C56.7227 44.0742 56.6934 44.0991 56.6639 44.0991Z" fill="#B9DDD6"/>
<path d="M52.548 34.8798H44.7969C44.6299 34.8798 44.5259 34.7389 44.5644 34.5651C44.6029 34.3913 44.7696 34.2505 44.9364 34.2505H52.6875C52.8545 34.2505 52.9585 34.3913 52.92 34.5651C52.8815 34.7389 52.7149 34.8798 52.548 34.8798Z" fill="#B9DDD6"/>
<path d="M45.4427 36.4749C45.4144 36.6024 45.2923 36.7057 45.1699 36.7057C45.0474 36.7057 44.971 36.6024 44.9993 36.4749C45.0276 36.3474 45.1497 36.2441 45.2721 36.2441C45.3946 36.2439 45.471 36.3474 45.4427 36.4749Z" fill="#E8EDFE"/>
<path d="M45.1364 36.8562C44.9377 36.8562 44.7392 36.9656 44.6056 37.1297C44.4985 37.2612 44.5536 37.4311 44.702 37.4311H45.316C45.4644 37.4311 45.5948 37.2612 45.546 37.1297C45.4851 36.9656 45.3351 36.8562 45.1364 36.8562Z" fill="#E8EDFE"/>
<path d="M44.7286 39.6961C44.7004 39.8236 44.5782 39.9269 44.4558 39.9269C44.3333 39.9269 44.257 39.8235 44.2852 39.6961C44.3135 39.5685 44.4356 39.4651 44.5581 39.4651C44.6805 39.4651 44.7569 39.5685 44.7286 39.6961Z" fill="#E8EDFE"/>
<path d="M44.4223 40.0774C44.2236 40.0774 44.0251 40.1868 43.8915 40.3508C43.7844 40.4823 43.8395 40.6523 43.9878 40.6523H44.6019C44.7503 40.6523 44.8806 40.4823 44.8319 40.3508C44.771 40.1868 44.621 40.0774 44.4223 40.0774Z" fill="#E8EDFE"/>
<path d="M44.0142 42.9173C43.9859 43.0448 43.8638 43.1481 43.7413 43.1481C43.6189 43.1481 43.5425 43.0447 43.5708 42.9173C43.599 42.7898 43.7212 42.6864 43.8436 42.6864C43.9661 42.6864 44.0425 42.7898 44.0142 42.9173Z" fill="#E8EDFE"/>
<path d="M43.7082 43.2986C43.5095 43.2986 43.311 43.408 43.1774 43.5721C43.0703 43.7036 43.1254 43.8736 43.2737 43.8736H43.8878C44.0362 43.8736 44.1665 43.7036 44.1178 43.5721C44.0569 43.408 43.9069 43.2986 43.7082 43.2986Z" fill="#E8EDFE"/>
<mask id="mask3_14523_38773" style="mask-type:luminance" maskUnits="userSpaceOnUse" x="11" y="46" width="22" height="18">
<path d="M32.024 46.0112H11.9856V63.817H32.024V46.0112Z" fill="white"/>
</mask>
<g mask="url(#mask3_14523_38773)">
<path d="M21.4382 69.278C21.4382 69.278 17.4605 68.0495 17.1519 63.4432C16.8434 58.8368 17.8605 58.398 15.7145 53.4518C13.5685 48.5056 15.0214 46.8208 18.5764 46.4975C22.1315 46.1743 27.9204 46.45 29.3038 50.6719C30.6874 54.8938 29.0831 65.1128 34.787 66.0014C40.491 66.89 43.3526 65.9164 43.5286 66.5496C43.7047 67.1829 44.4718 68.8893 40.2533 69.2781C36.0347 69.6669 21.4382 69.278 21.4382 69.278Z" fill="#23668A"/>
<path d="M20.4251 69.278C20.4251 69.278 16.4474 68.0495 16.1388 63.4431C15.8303 58.8368 16.8474 58.398 14.7014 53.4517C12.5554 48.5055 14.0083 46.8207 17.5633 46.4975C21.1184 46.1743 26.9073 46.45 28.2907 50.6718C29.6743 54.8937 28.07 65.1127 33.7739 66.0013C39.4779 66.8899 42.3395 65.9164 42.5155 66.5496C42.6916 67.1828 43.4587 68.8893 39.2402 69.2781C35.0216 69.6668 20.4251 69.278 20.4251 69.278Z" fill="#3280A0"/>
<path d="M30.2722 69.4427C30.1674 69.3743 30.0616 69.3079 29.9544 69.2455C28.8132 68.5819 27.5432 68.2054 26.3183 67.7302C25.0935 67.2551 23.8713 66.6516 22.9902 65.646C21.7478 64.228 21.3522 62.2167 20.3205 60.6259C19.4847 59.3373 18.2699 58.3799 17.1645 57.3346C16.601 56.8018 16.0587 56.2333 15.611 55.5901C15.5532 55.507 15.4986 55.4216 15.4451 55.3354C16.5812 58.6108 15.8745 59.5009 16.1385 63.4433C16.4471 68.0496 20.4248 69.2781 20.4248 69.2781C20.4248 69.2781 25.3281 69.4086 30.2722 69.4427Z" fill="#23668A"/>
</g>
<path d="M53.0418 45.7818H49.9656C49.679 45.7818 49.5003 45.5399 49.5665 45.2415L50.3006 41.9306C50.3667 41.6321 50.6527 41.3903 50.9392 41.3903H54.0155C54.302 41.3903 54.4807 41.6322 54.4145 41.9306L53.6804 45.2415C53.6143 45.5399 53.3283 45.7818 53.0418 45.7818Z" fill="#71C1E2"/>
<path d="M50.7496 42.871L50.8685 43.0244L51.3183 42.644" stroke="#E8EDFE" stroke-width="0.2" stroke-miterlimit="10" stroke-linecap="round" stroke-linejoin="round"/>
<path d="M51.7891 42.4253H53.5511" stroke="#E8EDFE" stroke-width="0.2" stroke-miterlimit="10" stroke-linecap="round" stroke-linejoin="round"/>
<path d="M51.6985 42.8342H52.656" stroke="#E8EDFE" stroke-width="0.2" stroke-miterlimit="10" stroke-linecap="round" stroke-linejoin="round"/>
<path d="M53.0025 42.8342H53.4604" stroke="#E8EDFE" stroke-width="0.2" stroke-miterlimit="10" stroke-linecap="round" stroke-linejoin="round"/>
<path d="M51.6172 43.1999H52.0762" stroke="#E8EDFE" stroke-width="0.2" stroke-miterlimit="10" stroke-linecap="round" stroke-linejoin="round"/>
<path d="M52.5908 44.4179L52.7098 44.5713L53.1596 44.1907" stroke="#E8EDFE" stroke-width="0.2" stroke-miterlimit="10" stroke-linecap="round" stroke-linejoin="round"/>
<path d="M52.2674 43.972H50.5055" stroke="#E8EDFE" stroke-width="0.2" stroke-miterlimit="10" stroke-linecap="round" stroke-linejoin="round"/>
<path d="M52.1767 44.381H51.2192" stroke="#E8EDFE" stroke-width="0.2" stroke-miterlimit="10" stroke-linecap="round" stroke-linejoin="round"/>
<path d="M50.8727 44.381H50.4148" stroke="#E8EDFE" stroke-width="0.2" stroke-miterlimit="10" stroke-linecap="round" stroke-linejoin="round"/>
<path d="M52.0958 44.7468H51.637" stroke="#E8EDFE" stroke-width="0.2" stroke-miterlimit="10" stroke-linecap="round" stroke-linejoin="round"/>
<path d="M41.782 29.7491H45.616C45.9879 29.7491 46.3589 29.4352 46.4447 29.0479L46.7767 27.5508C46.8625 27.1635 46.6306 26.8496 46.2589 26.8496H42.4249C42.053 26.8496 41.6821 27.1635 41.5962 27.5508L41.2642 29.0479C41.1783 29.4352 41.4102 29.7491 41.782 29.7491Z" fill="#43B59F"/>
<path d="M44.2808 29.7491L45.1778 30.5184L45.2072 29.7491H44.2808Z" fill="#43B59F"/>
<path d="M44.5817 28.8486C44.334 28.7854 44.4158 28.6388 44.4831 28.4276C44.5504 28.2165 44.0332 28.2194 44.0332 28.2194C44.0332 28.2194 43.516 28.2223 43.492 28.4331C43.4679 28.6439 43.4863 28.79 43.2106 28.8562C42.9508 28.9186 42.7924 28.9156 42.7583 28.8587C42.7243 28.8018 42.7604 28.6601 42.7836 28.5578C42.8069 28.4555 43.0205 27.8233 44.1204 27.817C45.2202 27.8109 45.1602 28.4424 45.1391 28.5446C45.118 28.6468 45.0927 28.7885 45.034 28.8459C44.9752 28.9035 44.8151 28.9081 44.5817 28.8486Z" fill="#E8EDFE"/>
<path d="M37.4417 35.5998H44.0551C44.4674 35.5998 44.879 35.2517 44.9741 34.8222L45.3353 33.1931C45.4304 32.7637 45.1734 32.4156 44.761 32.4156H38.1477C37.7353 32.4156 37.3238 32.7637 37.2286 33.1931L36.8674 34.8222C36.7723 35.2517 37.0294 35.5998 37.4417 35.5998Z" fill="#71C1E2"/>
<path d="M42.1587 35.5299L43.3979 36.5488L43.3467 35.5009L42.1587 35.5299Z" fill="#71C1E2"/>
<path d="M44.0307 34.5075H41.364" stroke="#E8EDFE" stroke-width="0.5" stroke-miterlimit="10" stroke-linecap="round"/>
<path d="M40.7151 34.5075H39.9773" stroke="#E8EDFE" stroke-width="0.5" stroke-miterlimit="10" stroke-linecap="round"/>
<path d="M44.2523 33.5077H39.6123" stroke="#E8EDFE" stroke-width="0.5" stroke-miterlimit="10" stroke-linecap="round"/>
<path d="M38.9102 33.5077H38.1724" stroke="#E8EDFE" stroke-width="0.5" stroke-miterlimit="10" stroke-linecap="round"/>
<path d="M58.5953 27.4049H49.5346C49.0414 27.4049 48.7338 26.9885 48.8477 26.4749L49.1902 24.93C49.3041 24.4164 49.7963 24 50.2895 24H59.3501C59.8433 24 60.1509 24.4164 60.037 24.93L59.6945 26.4749C59.5807 26.9885 59.0885 27.4049 58.5953 27.4049Z" fill="#3280A0"/>
<path d="M52.2151 27.3302L50.0132 28.4198L50.6409 27.2993L52.2151 27.3302Z" fill="#3280A0"/>
<path d="M49.9839 26.2369H53.8093" stroke="#E8EDFE" stroke-width="0.5" stroke-miterlimit="10" stroke-linecap="round"/>
<path d="M54.74 26.2369H55.7984" stroke="#E8EDFE" stroke-width="0.5" stroke-miterlimit="10" stroke-linecap="round"/>
<path d="M50.2209 25.1679H56.8769" stroke="#E8EDFE" stroke-width="0.5" stroke-miterlimit="10" stroke-linecap="round"/>
<path d="M57.8842 25.1679H58.9425" stroke="#E8EDFE" stroke-width="0.5" stroke-miterlimit="10" stroke-linecap="round"/>
<path d="M63.9434 42.7504H58.3933C57.8837 42.7504 57.566 42.3202 57.6837 41.7895L58.8336 36.6024C58.9513 36.0718 59.4598 35.6416 59.9694 35.6416H65.5195C66.0292 35.6416 66.3468 36.0718 66.2292 36.6024L65.0792 41.7895C64.9614 42.3202 64.4529 42.7504 63.9434 42.7504Z" fill="#43B59F"/>
<path d="M60.0233 37.5996L60.0358 37.3087C60.2147 37.2592 60.3876 37.2345 60.5542 37.2345C60.6209 37.2345 60.6758 37.2364 60.7189 37.2403C60.7634 37.2442 60.8079 37.254 60.8524 37.2696C60.897 37.2852 60.9302 37.3067 60.9522 37.334C61.0023 37.3965 61.0131 37.4922 60.9845 37.6211C60.956 37.7499 60.8976 37.845 60.8093 37.9062C60.7211 37.9673 60.5482 38.0376 60.2906 38.117L60.2785 38.1717H60.8425L60.7732 38.4841H59.7472L59.8013 38.2401C59.8175 38.1672 59.8469 38.0975 59.8896 38.0311C59.9153 37.9934 59.9674 37.9478 60.0459 37.8944C60.0886 37.8645 60.1429 37.8359 60.209 37.8085C60.2764 37.7812 60.3393 37.7558 60.3979 37.7324C60.458 37.7076 60.5065 37.6875 60.5433 37.6718L60.5667 37.5664C60.5081 37.5599 60.4535 37.5566 60.4028 37.5566C60.2802 37.5566 60.1536 37.571 60.0233 37.5996ZM61.5245 38.4841L61.5677 38.2889H60.9517L61.0058 38.0448L61.487 37.2637H62.195L62.0422 37.953H62.1722L62.0977 38.2889H61.9677L61.9245 38.4841H61.5245ZM61.71 37.5566L61.4442 37.953H61.6422L61.73 37.5566H61.71Z" fill="white"/>
<path d="M63.1656 38.4772L62.0933 39.805C62.0838 39.818 62.0758 39.8271 62.0693 39.8323C62.0514 39.8467 62.0272 39.8538 61.9965 39.8538H61.8545L62.9268 38.5261C62.9364 38.513 62.9444 38.5039 62.9509 38.4987C62.9687 38.4844 62.993 38.4772 63.0236 38.4772H63.1656Z" fill="white"/>
<path d="M63.8591 39.6063L63.2567 40.5826H62.8047L63.3579 39.702L62.8766 39.7079L62.9232 39.3623H63.9132L63.8591 39.6063Z" fill="white"/>
<path d="M63.1581 33.5539H56.0114C55.1867 33.5539 54.6725 32.8577 54.8629 31.9988L55.1256 30.814C55.316 29.9551 56.1389 29.2589 56.9637 29.2589H64.1103C64.9351 29.2589 65.4493 29.9551 65.2589 30.814L64.9962 31.9988C64.8058 32.8577 63.9828 33.5539 63.1581 33.5539Z" fill="#8DCABE"/>
<path d="M63.7831 30.908L63.5994 31.1722C63.5873 31.1895 63.5688 31.2015 63.5499 31.2043L63.2606 31.2466C63.2129 31.2536 63.1813 31.3127 63.2073 31.3466L63.3643 31.5522C63.3745 31.5656 63.3763 31.5851 63.369 31.6041L63.2567 31.8944C63.2383 31.9423 63.2784 31.9788 63.3247 31.9562L63.6054 31.8191C63.6238 31.8101 63.6434 31.8101 63.6578 31.8191L63.8778 31.9562C63.914 31.9788 63.9703 31.9423 63.9731 31.8944L63.9896 31.6041C63.9907 31.5851 64.0011 31.5656 64.0173 31.5522L64.2654 31.3466C64.3063 31.3127 64.301 31.2536 64.2563 31.2466L63.9858 31.2043C63.9681 31.2015 63.9549 31.1895 63.9505 31.1722L63.8838 30.908C63.8731 30.8645 63.8134 30.8645 63.7831 30.908Z" fill="#E8EDFE"/>
<path d="M61.9519 30.908L61.7681 31.1722C61.756 31.1895 61.7376 31.2015 61.7186 31.2043L61.4293 31.2466C61.3816 31.2536 61.35 31.3127 61.376 31.3466L61.533 31.5522C61.5432 31.5656 61.545 31.5851 61.5377 31.6041L61.4255 31.8944C61.407 31.9423 61.4471 31.9788 61.4934 31.9562L61.7742 31.8191C61.7925 31.8101 61.8121 31.8101 61.8265 31.8191L62.0465 31.9562C62.0827 31.9788 62.1391 31.9423 62.1418 31.8944L62.1584 31.6041C62.1594 31.5851 62.1698 31.5656 62.1861 31.5522L62.4342 31.3466C62.4752 31.3127 62.4698 31.2536 62.4251 31.2466L62.1546 31.2043C62.1369 31.2015 62.1237 31.1895 62.1193 31.1722L62.0527 30.908C62.0419 30.8645 61.9823 30.8645 61.9519 30.908Z" fill="#E8EDFE"/>
<path d="M60.1208 30.908L59.937 31.1722C59.9249 31.1895 59.9065 31.2015 59.8875 31.2043L59.5982 31.2466C59.5505 31.2536 59.519 31.3127 59.5449 31.3466L59.7018 31.5522C59.712 31.5656 59.7139 31.5851 59.7065 31.6041L59.5943 31.8944C59.5757 31.9423 59.6159 31.9788 59.6622 31.9562L59.943 31.8191C59.9613 31.8101 59.9809 31.8101 59.9953 31.8191L60.2153 31.9562C60.2516 31.9788 60.3079 31.9423 60.3107 31.8944L60.3272 31.6041C60.3282 31.5851 60.3386 31.5656 60.3549 31.5522L60.603 31.3466C60.644 31.3127 60.6387 31.2536 60.594 31.2466L60.3235 31.2043C60.3057 31.2015 60.2925 31.1895 60.2881 31.1722L60.2215 30.908C60.2107 30.8645 60.1511 30.8645 60.1208 30.908Z" fill="#E8EDFE"/>
<path d="M58.2897 30.908L58.1059 31.1722C58.0939 31.1895 58.0754 31.2015 58.0564 31.2043L57.7671 31.2466C57.7195 31.2536 57.6879 31.3127 57.7138 31.3466L57.8708 31.5522C57.8811 31.5656 57.8829 31.5851 57.8755 31.6041L57.7633 31.8944C57.7448 31.9423 57.785 31.9788 57.8312 31.9562L58.112 31.8191C58.1303 31.8101 58.15 31.8101 58.1644 31.8191L58.3843 31.9562C58.4206 31.9788 58.4769 31.9423 58.4797 31.8944L58.4962 31.6041C58.4973 31.5851 58.5076 31.5656 58.5238 31.5522L58.7719 31.3466C58.8129 31.3127 58.8076 31.2536 58.7629 31.2466L58.4924 31.2043C58.4747 31.2015 58.4614 31.1895 58.4571 31.1722L58.3904 30.908C58.3796 30.8645 58.32 30.8645 58.2897 30.908Z" fill="#E8EDFE"/>
<path d="M56.4587 30.908L56.2749 31.1722C56.2629 31.1895 56.2444 31.2015 56.2255 31.2043L55.9362 31.2466C55.8885 31.2536 55.8569 31.3127 55.8828 31.3466L56.0399 31.5522C56.0501 31.5656 56.0519 31.585 56.0445 31.604L55.9323 31.8944C55.9139 31.9423 55.954 31.9788 56.0003 31.9562L56.281 31.8191C56.2994 31.8101 56.319 31.8101 56.3334 31.8191L56.5533 31.9562C56.5896 31.9788 56.6459 31.9423 56.6487 31.8944L56.6652 31.604C56.6663 31.585 56.6767 31.5656 56.693 31.5522L56.9411 31.3466C56.982 31.3127 56.9767 31.2536 56.932 31.2466L56.6615 31.2043C56.6438 31.2015 56.6306 31.1895 56.6262 31.1722L56.5595 30.908C56.5488 30.8645 56.4891 30.8645 56.4587 30.908Z" fill="#E8EDFE"/>
<path d="M56.0837 33.348L55.189 34.4526L58.2596 33.3602L56.0837 33.348Z" fill="#8DCABE"/>
</svg>
