<svg width="231" height="231" viewBox="0 0 231 231" fill="none" xmlns="http://www.w3.org/2000/svg">
<mask id="mask0_17347_54950" style="mask-type:alpha" maskUnits="userSpaceOnUse" x="0" y="0" width="231" height="231">
<rect width="231" height="231" rx="8" fill="#D9D9D9"/>
</mask>
<g mask="url(#mask0_17347_54950)">
<path d="M359.276 0H-39V231H359.276V0Z" fill="#E4F4F1"/>
<path d="M359.276 111.927H-39V230.613H359.276V111.927Z" fill="#A38F00"/>
<path d="M359.276 78.1531H-38.2832V111.927H359.276V78.1531Z" fill="#A5D1EF"/>
<path d="M49.0188 23.1113C47.9833 22.8724 46.1512 24.8637 46.1512 24.8637C46.1512 24.8637 46.3106 22.7131 45.6733 23.1113C45.3547 23.3503 45.3547 25.5806 45.0361 26.1382C44.7174 26.7755 43.204 28.4482 41.6109 30.2803C40.894 31.0768 38.0264 35.0596 36.9909 35.9358C35.8757 36.812 32.9285 39.5203 32.9285 39.5203C32.3709 39.6 31.9726 39.7593 31.893 39.7593C31.4947 39.5203 31.0168 39.122 31.0168 38.6441C31.0168 38.2458 31.0168 37.6882 31.0168 37.2103C31.3354 36.812 31.654 36.3341 31.893 35.8562C31.893 35.8562 31.893 35.8562 31.9726 35.8562C32.2912 35.8562 32.6099 35.7765 32.7692 35.6172C32.9285 35.9358 33.4861 35.8562 33.8843 35.6172C34.3623 35.2986 34.2826 34.9003 34.1233 34.4224C34.3623 34.4224 34.6012 34.1834 34.6012 33.8648C34.6012 33.3868 34.203 33.0682 33.725 32.9886C34.0437 32.8293 34.2826 32.67 34.2826 32.67L33.8047 31.8734C33.8047 31.8734 33.4064 32.0327 32.7692 32.2717C32.6099 31.3955 32.3709 29.6431 32.3709 28.3686C32.3709 28.2889 32.3709 28.2093 32.3709 28.05C32.3709 26.2975 33.0878 23.9079 32.2116 23.43C31.3354 22.952 30.5388 23.3503 29.6626 23.7486C29.5033 23.8282 29.344 23.8282 29.1847 23.9079C28.5474 23.9875 28.0695 23.7486 26.9543 23.5096C25.6002 23.191 25.2019 24.7841 25.6799 27.0144C25.7595 27.4127 25.8392 27.8906 25.9188 28.2889C26.0781 29.9617 25.9188 31.4751 25.8392 32.3513C25.1223 32.1124 24.6443 31.9531 24.6443 31.9531L24.2461 32.9089C24.2461 32.9089 24.4054 32.9886 24.6443 33.0682C24.2461 33.2275 24.0071 33.4665 24.0071 33.8648C24.0071 34.1834 24.2461 34.3427 24.485 34.4224C24.3257 34.9003 24.2461 35.2986 24.724 35.6172C25.0426 35.8562 25.6002 35.9358 25.8392 35.6172C25.9985 35.8562 26.3171 35.9358 26.6357 35.8562C26.7154 35.8562 26.795 35.7765 26.9543 35.7765C27.1933 36.3341 27.5916 36.8917 27.9102 37.29C27.9102 37.7679 27.9102 38.3255 27.9102 38.7237C27.9102 39.2017 27.4323 39.6 27.034 39.8389C27.034 39.8389 26.1578 39.6796 25.4409 39.5203C25.4409 39.5203 25.4409 39.5203 25.4409 39.4406C24.8037 38.3255 23.2105 36.8917 22.0954 36.0155C20.9802 35.1393 18.5906 32.0327 17.8737 31.2362C16.2009 29.4041 14.6874 27.4924 14.3688 26.8551C14.0502 26.2179 13.7316 23.43 13.3333 23.191C12.6961 22.7927 12.8554 24.9434 12.8554 24.9434C12.8554 24.9434 11.0233 22.952 9.98779 23.191C8.95227 23.43 7.67779 24.6248 9.82848 26.2179C11.5809 27.4924 12.2978 27.811 13.0943 29.4041C14.2892 31.9531 16.9178 34.6613 17.9533 36.0951C20.0243 39.122 23.6885 43.2641 23.9274 43.5827C24.0071 44.1403 24.1664 44.6979 24.2461 45.2555C24.3257 46.53 24.8833 48.4417 25.2019 50.2737C25.2816 50.8313 25.2816 51.3889 25.2019 51.8668C25.2019 51.8668 25.2019 51.8668 25.2019 51.9465C25.2019 52.1855 25.1223 52.3448 25.1223 52.5837C25.0426 52.9024 24.963 53.3006 24.8833 53.7786C24.724 54.5751 24.485 55.4513 24.4054 56.4072C21.9361 56.5665 21.5378 61.4255 21.4581 63.7355C21.4581 63.8948 21.4581 64.2134 21.4581 64.532C21.2192 64.9303 20.9006 65.3286 20.5819 65.8862C19.2278 68.1165 18.5906 68.9927 17.8737 70.9841C17.1568 72.9755 17.555 74.4093 18.5109 74.9669C19.4668 75.5244 20.5023 74.5686 21.2988 73.772C21.3785 73.6924 21.3785 73.6924 21.4581 73.6127C21.4581 74.5686 21.4581 75.2058 21.4581 75.2058H21.6174C21.2988 75.6837 20.9802 76.2413 20.9802 76.56C20.9802 76.6396 20.9802 76.7193 20.9802 76.7989C20.9802 77.5955 21.6174 77.7548 22.4936 77.8344L22.175 81.0206L21.4581 88.3489C21.4581 88.3489 22.0157 88.5879 23.1309 88.8269C22.653 91.8538 22.2547 95.5975 22.0157 99.421C22.2547 99.5803 22.4937 99.7396 22.7326 99.8193C22.7326 100.138 22.7326 100.536 22.8123 101.014H27.7509C27.7509 100.855 27.8305 100.695 27.8305 100.457C27.8305 100.297 27.9102 100.218 27.9102 100.058C28.1492 99.9786 28.4678 99.8989 28.7068 99.8193C29.1847 96.3941 29.583 91.6945 29.583 91.6945C29.583 91.6945 29.9812 96.3941 30.6981 99.7396C30.9371 99.8989 31.2557 100.058 31.654 100.218C31.654 100.297 31.7337 100.377 31.7337 100.457C31.8133 100.616 31.8133 100.775 31.8133 101.014H36.7519C36.8316 100.377 36.8316 99.8989 36.8316 99.5006C37.0705 99.3413 37.2299 99.2617 37.3095 99.1024C36.9112 96.0755 36.3537 92.252 35.7164 89.0658C36.9112 88.9065 37.6281 88.7472 37.6281 88.7472L36.3537 81.1003L35.7961 77.8344C35.8757 77.8344 36.035 77.8344 36.1147 77.8344C36.9909 77.8344 37.5485 77.6751 37.6281 76.7989C37.6281 76.7193 37.6281 76.6396 37.6281 76.56C37.6281 76.2413 37.3095 75.6837 36.9909 75.2058H37.2299C37.2299 75.2058 37.2299 74.5686 37.2299 73.6127C37.3095 73.6924 37.3095 73.772 37.3892 73.772C38.1857 74.5686 39.3009 75.5244 40.1771 74.9669C41.133 74.4093 41.5312 72.9755 40.8143 70.9841C40.0974 68.9927 39.3806 68.0368 38.1061 65.8862C37.7874 65.3286 37.4688 64.9303 37.2299 64.532C37.2299 64.2134 37.2299 63.8948 37.2299 63.7355C37.1502 61.9034 36.9112 58.5579 35.5571 57.1241C35.4774 56.1682 35.3181 55.292 35.0792 54.4158C35.0792 54.4158 34.2826 51.15 34.4419 49.6365C34.6012 48.362 34.7605 47.2468 34.8402 46.3706C34.9199 45.9724 34.9995 45.4944 35.0792 45.0962C35.1588 44.6182 35.2385 44.1403 35.2385 43.6624C37.4688 41.432 39.1416 37.8475 40.3364 36.5731C45.1157 31.8734 44.1599 31.9531 45.514 29.8024C47.1071 27.4127 47.6647 27.2534 49.2578 25.74C51.1695 23.7486 50.0543 23.2706 49.0188 23.1113Z" fill="#A5D1EF"/>
<path d="M155.677 52.2651C154.642 52.0262 152.809 54.0176 152.809 54.0176C152.809 54.0176 152.969 51.8669 152.332 52.2651C152.013 52.5041 152.013 54.7344 151.694 55.292C151.376 55.9293 149.862 57.602 148.269 59.4341C147.552 60.2307 144.685 64.2134 143.649 65.0896C142.534 65.9658 139.587 68.6741 139.587 68.6741C139.029 68.7538 138.631 68.9131 138.551 68.9131C138.153 68.6741 137.675 68.2758 137.675 67.7979C137.675 67.3996 137.675 66.842 137.675 66.3641C137.994 65.9658 138.312 65.4879 138.551 65.01C138.551 65.01 138.551 65.01 138.631 65.01C138.949 65.01 139.268 64.9303 139.427 64.771C139.587 65.0896 140.144 65.01 140.543 64.771C141.02 64.4524 140.941 64.0541 140.782 63.5762C141.02 63.5762 141.259 63.3372 141.259 63.0186C141.259 62.5407 140.861 62.222 140.383 62.1424C140.702 61.9831 140.941 61.8238 140.941 61.8238L140.463 61.0272C140.463 61.0272 140.065 61.1865 139.427 61.4255C139.268 60.5493 139.029 58.7969 139.029 57.5224C139.029 57.4427 139.029 57.3631 139.029 57.2038C139.029 55.4514 139.746 53.0617 138.87 52.5838C137.994 52.1058 137.197 52.5041 136.321 52.9024C136.162 52.982 136.002 52.982 135.843 53.0617C135.206 53.1413 134.728 52.9024 133.613 52.6634C132.258 52.3448 131.86 53.9379 132.338 56.1682C132.418 56.5665 132.497 57.0445 132.577 57.4427C132.736 59.1155 132.577 60.6289 132.497 61.5051C131.78 61.2662 131.303 61.1069 131.303 61.1069L130.904 62.0627C130.904 62.0627 131.064 62.1424 131.303 62.222C130.904 62.3814 130.665 62.6203 130.665 63.0186C130.665 63.3372 130.904 63.4965 131.143 63.5762C130.984 64.0541 130.904 64.4524 131.382 64.771C131.701 65.01 132.258 65.0896 132.497 64.771C132.657 65.01 132.975 65.0896 133.294 65.01C133.374 65.01 133.453 64.9303 133.613 64.9303C133.852 65.4879 134.25 66.0455 134.568 66.4438C134.568 66.9217 134.568 67.4793 134.568 67.8776C134.568 68.3555 134.09 68.7538 133.692 68.9927C133.692 68.9927 132.816 68.8334 132.099 68.6741C132.099 68.6741 132.099 68.6741 132.099 68.5945C131.462 67.4793 129.869 66.0455 128.754 65.1693C127.638 64.2931 125.249 61.1865 124.532 60.39C122.859 58.5579 121.346 56.6462 121.027 56.0089C120.708 55.3717 120.39 52.5838 119.992 52.3448C119.354 51.9465 119.514 54.0972 119.514 54.0972C119.514 54.0972 117.682 52.1058 116.646 52.3448C115.61 52.5838 114.336 53.7786 116.487 55.3717C118.239 56.6462 118.956 56.9648 119.753 58.5579C120.947 61.1069 123.576 63.8151 124.612 65.2489C126.683 68.2758 130.347 72.4179 130.586 72.7365C130.665 73.2941 130.825 73.8517 130.904 74.4093C130.984 75.6838 131.542 77.5955 131.86 79.4276C131.94 79.9851 131.94 80.5427 131.86 81.0207C131.86 81.0207 131.86 81.0207 131.86 81.1003C131.86 81.3393 131.78 81.4986 131.78 81.7376C131.701 82.0562 131.621 82.4545 131.542 82.9324C131.382 83.7289 131.143 84.6051 131.064 85.561C130.904 85.561 130.745 85.6407 130.586 85.6407H142.215C142.136 84.9238 141.976 84.2069 141.817 83.49C141.817 83.49 141.02 80.2241 141.18 78.7107C141.339 77.4362 141.498 76.321 141.578 75.4448C141.658 75.0465 141.737 74.5686 141.817 74.1703C141.897 73.6924 141.976 73.2145 141.976 72.7365C144.207 70.5062 145.879 66.9217 147.074 65.6472C151.854 60.9476 150.898 61.0272 152.252 58.8765C153.845 56.4869 154.403 56.3276 155.996 54.8141C157.748 52.982 156.713 52.5041 155.677 52.2651Z" fill="#A5D1EF"/>
<path d="M11.979 41.7506H-20.8389C-20.8389 41.7506 -21.7948 41.7506 -21.7948 46.2113C-21.7948 49.3975 -21.9541 58.2393 -21.9541 58.2393H-18.6086V52.6634C-18.3696 53.221 -18.2103 53.6989 -18.1307 54.0175C-17.5731 55.3717 -14.5462 61.1865 -13.431 62.9389C-13.7496 63.1779 -13.9886 63.3372 -14.1479 63.4168C-13.0327 65.01 -10.0855 68.1165 -10.0058 69.6299C-10.0058 69.7893 -10.0058 69.9486 -10.0058 70.0282L-10.5634 76.2413L-12.7141 80.4631C-12.7141 80.4631 -12.3158 80.6224 -11.7582 80.941C-13.0327 82.6934 -14.3869 84.6051 -15.741 86.5965C-15.6613 86.7558 -15.5817 86.8355 -15.502 86.9948C-15.6613 87.2337 -15.8207 87.4727 -15.9003 87.7117H7.27935C7.12004 87.4727 6.96073 87.2337 6.88107 86.9948C6.96073 86.8355 7.04038 86.7558 7.12004 86.5965C5.84555 84.7644 4.57107 82.9324 3.37625 81.2596C4.09314 81.0206 4.57108 80.8613 4.57108 80.8613L2.10176 76.321L1.06624 69.8689C1.06624 69.7893 1.1459 69.2317 1.22556 68.913C1.78314 67.2403 4.17279 64.771 5.20831 63.3372C5.049 63.2575 4.88969 63.1779 4.73038 63.0186C5.68624 61.4255 8.95211 55.3717 9.50969 53.9379C9.58935 53.6989 9.74866 53.3006 9.90797 52.9024V58.1596H13.2535C13.2535 58.1596 13.0942 49.3179 13.0942 46.1317C12.9349 41.5117 11.979 41.7506 11.979 41.7506ZM8.0759 49.7162C6.32348 51.6279 5.68625 55.053 5.36763 55.9293C4.09314 56.7258 2.739 58.3986 2.18142 59.1155C1.94245 59.4341 1.70349 59.7527 1.54418 59.9917C1.38487 59.7527 1.22556 59.5934 1.1459 59.4341C0.508659 59.9917 0.269693 60.7086 -0.765825 61.5051C-1.1641 61.5051 -1.64203 61.5848 -2.04031 61.7441L-2.67755 61.8237C-2.67755 61.4255 -2.67755 61.1068 -2.67755 60.7882C-1.96065 60.3103 -1.40307 59.4341 -1.1641 58.3986C-0.765825 58.3986 -0.287891 57.6817 -0.447203 57.2037C-0.526857 56.8055 -0.765825 56.8055 -0.925135 56.8055L0.110382 52.8227C0.110382 52.8227 2.42038 53.5396 1.30521 51.7075C1.78314 51.5482 2.42038 50.7517 1.06624 50.1941C1.30521 48.5213 0.110384 48.7603 -0.447203 49.0789C-0.447203 47.4858 -1.80134 48.2824 -1.80134 48.2824C-1.80134 48.2824 -2.04031 47.1672 -3.23513 47.8044C-3.95203 46.4503 -4.74858 47.7248 -4.74858 47.7248C-4.74858 47.7248 -5.70445 46.5299 -6.26203 47.8841C-8.01445 46.8486 -7.77548 49.0789 -7.77548 49.0789C-7.77548 49.0789 -8.33307 48.5213 -8.89065 48.9196C-10.0058 49.7162 -9.12962 50.5924 -9.12962 50.5924C-9.12962 50.5924 -10.1651 50.8313 -9.76686 51.7872C-9.28893 52.9024 -8.17375 52.5041 -8.17375 52.5041L-7.05858 56.8851C-7.21789 56.8851 -7.29755 56.9648 -7.45686 57.2037C-7.69583 57.6817 -7.29755 58.3986 -6.81962 58.4782C-6.66031 59.3544 -6.26203 60.0713 -5.70445 60.5493C-5.70445 60.6289 -5.70445 61.4255 -5.70445 61.8237C-5.94341 61.9034 -6.42134 61.8237 -6.42134 61.8237C-6.97893 61.7441 -7.77548 61.5848 -8.17375 61.5848C-9.28893 60.7882 -9.44824 60.151 -10.0855 59.5137C-10.1651 59.5934 -10.2448 59.7527 -10.3244 59.912C-10.4838 59.673 -10.6431 59.4341 -10.8024 59.1951C-11.36 58.4782 -12.6344 56.8055 -13.9886 56.0089C-14.3072 55.1327 -14.9444 51.7075 -16.6969 49.7958C-18.051 48.2824 -18.2103 47.7248 -18.1307 47.3265C-18.1307 47.0079 -17.8917 46.7689 -17.7324 46.291H9.27073C9.43003 46.7689 9.58935 47.0079 9.669 47.3265C9.58935 47.6451 9.50969 48.2027 8.0759 49.7162Z" fill="#A5D1EF"/>
<path d="M124.213 52.2651C123.974 51.3889 123.098 50.1941 122.302 50.1144C121.266 50.1144 120.948 51.2296 120.31 51.8668C119.354 52.8227 120.31 53.221 121.027 53.7785C121.744 54.3361 122.302 53.8582 122.541 54.0972C122.78 54.3361 122.7 54.8141 122.939 56.7258C123.098 58.6375 124.134 61.2661 124.134 61.2661C124.134 61.2661 122.541 63.5761 121.664 64.771C121.425 65.0896 121.187 65.4082 121.027 65.7268C120.868 65.4878 120.709 65.3285 120.549 65.0896C119.912 65.6472 119.753 66.2844 118.717 67.0013C118.399 67.0013 117.921 67.081 117.522 67.1606L116.965 67.2403C116.965 66.9216 116.885 66.2844 116.885 65.9658C117.124 65.8065 118 64.8506 118.319 63.2575C118.797 61.1068 118.956 58.4782 117.443 58.0003C115.85 57.4427 113.699 57.2037 112.663 58.5578C112.026 59.4341 112.026 61.9034 112.504 63.4965C113.062 65.3285 113.858 65.7268 114.097 65.8861C114.097 65.9658 114.097 66.6827 114.097 67.1606C113.858 67.2403 113.38 67.1606 113.38 67.1606C112.823 67.081 112.106 66.9216 111.708 66.9216C110.672 66.2047 110.513 65.5675 109.875 65.0099C109.796 65.0896 109.716 65.2489 109.637 65.3285C109.477 65.0896 109.318 64.8506 109.159 64.6116C108.282 63.4168 106.689 61.1068 106.689 61.1068C106.689 61.1068 107.645 58.5578 107.884 56.5665C108.043 54.6547 108.043 54.1768 108.282 53.9378C108.521 53.6989 109.079 54.0972 109.796 53.6192C110.513 53.0616 111.469 52.6634 110.513 51.7075C109.875 51.0703 109.477 49.8754 108.521 49.9551C107.725 49.9551 106.849 51.1499 106.61 52.1058C106.371 52.982 104.857 57.841 104.459 59.0358C103.981 60.7085 103.344 61.1068 103.981 62.5406C104.3 63.4168 105.813 66.603 106.849 68.2758C106.61 68.5147 106.371 68.6741 106.211 68.7537C107.327 70.2672 110.035 73.1347 110.114 74.5685C110.114 74.7279 110.114 74.8075 110.114 74.9668L109.557 80.7816L108.999 86.9151C108.999 86.9151 109.477 87.1541 110.353 87.3134C110.114 89.1454 109.875 91.2961 109.637 93.5265H115.292C115.531 91.4554 115.69 89.703 115.69 89.703C115.69 89.703 115.85 91.5351 116.089 93.5265H121.744C121.425 91.5351 121.107 89.3844 120.709 87.5523C121.744 87.393 122.302 87.2337 122.302 87.2337L121.266 80.8613L120.231 74.7278C120.231 74.6482 120.31 74.1703 120.39 73.8516C120.948 72.2585 123.178 69.9485 124.134 68.5944C124.054 68.5147 123.895 68.4351 123.735 68.3554C124.771 66.7623 126.364 63.3372 126.762 62.3813C127.32 60.9475 126.762 60.5492 126.284 58.8765C125.966 57.9206 124.452 53.1413 124.213 52.2651Z" fill="#A5D1EF"/>
<path d="M199.329 44.6979C199.09 43.8217 198.213 42.6269 197.417 42.5473C196.381 42.5473 196.063 43.6624 195.426 44.2997C194.47 45.2555 195.426 45.6538 196.142 46.2114C196.859 46.769 197.417 46.2911 197.656 46.53C197.895 46.769 197.815 47.2469 198.054 49.1586C198.213 51.0704 199.249 53.699 199.249 53.699C199.249 53.699 197.656 56.009 196.78 57.2038C196.541 57.5224 196.302 57.8411 196.142 58.1597C195.983 57.9207 195.824 57.7614 195.665 57.5224C195.027 58.08 194.868 58.7173 193.832 59.4342C193.514 59.4342 193.036 59.5138 192.638 59.5935L192.08 59.6731C192.08 59.3545 192 58.7173 192 58.3986C192.239 58.2393 193.116 57.2835 193.434 55.6904C193.912 53.5397 194.071 50.9111 192.558 50.4331C190.965 49.8755 188.814 49.6366 187.779 50.9907C187.141 51.8669 187.141 54.3362 187.619 55.9293C188.177 57.7614 188.973 58.1597 189.212 58.319C189.212 58.3986 189.212 59.1155 189.212 59.5935C188.973 59.6731 188.496 59.5935 188.496 59.5935C187.938 59.5138 187.221 59.3545 186.823 59.3545C185.787 58.6376 185.628 58.0004 184.991 57.4428C184.911 57.5224 184.831 57.6817 184.752 57.7614C184.592 57.5224 184.433 57.2835 184.274 57.0445C183.398 55.8497 181.805 53.5397 181.805 53.5397C181.805 53.5397 182.76 50.9907 182.999 48.9993C183.159 47.0876 183.159 46.6097 183.398 46.3707C183.637 46.1317 184.194 46.53 184.911 46.0521C185.628 45.4945 186.584 45.0962 185.628 44.1404C184.991 43.5031 184.592 42.3083 183.637 42.3879C182.84 42.3879 181.964 43.5828 181.725 44.5386C181.486 45.4148 179.972 50.2738 179.574 51.4686C179.096 53.1414 178.459 53.5397 179.096 54.9735C179.415 55.8497 180.928 59.0359 181.964 60.7086C181.725 60.9476 181.486 61.1069 181.327 61.1866C182.442 62.7 185.15 65.5676 185.23 67.0014C185.23 67.1607 185.23 67.2404 185.23 67.3997L184.672 73.2145L184.115 79.348C184.115 79.348 184.592 79.5869 185.469 79.7462C185.23 81.5783 184.991 83.729 184.752 85.9593H190.487C190.726 83.8883 190.885 82.1359 190.885 82.1359C190.885 82.1359 191.045 83.9679 191.283 85.9593H196.939C196.62 83.9679 196.302 81.8173 195.903 79.9852C196.939 79.8259 197.497 79.6666 197.497 79.6666L196.461 73.2942L195.426 67.1607C195.426 67.0811 195.505 66.6031 195.585 66.2845C196.142 64.6914 198.373 62.3814 199.329 61.0273C199.249 60.9476 199.09 60.868 198.93 60.7883C199.966 59.1952 201.559 55.77 201.957 54.8142C202.515 53.3804 201.957 52.9821 201.479 51.3093C201.081 50.3535 199.568 45.5742 199.329 44.6979Z" fill="#A5D1EF"/>
<path d="M26.0781 59.5137C25.8391 58.6375 24.9629 57.4426 24.1664 57.363C23.1309 57.363 22.8122 58.4782 22.175 59.1154C21.2191 60.0713 22.175 60.4695 22.8919 61.0271C23.6088 61.5847 24.1664 61.1068 24.4053 61.3458C24.6443 61.5847 24.5647 62.0626 24.8036 63.9744C24.9629 65.8861 25.9984 68.5147 25.9984 68.5147C25.9984 68.5147 24.4053 70.8247 23.5291 72.0195C23.2902 72.3382 23.0512 72.6568 22.8919 72.9754C22.7326 72.7364 22.5733 72.5771 22.414 72.3382C21.7767 72.8958 21.6174 73.533 20.5819 74.2499C20.2633 74.2499 19.7853 74.3295 19.3871 74.4092L18.8295 74.4889C18.8295 74.1702 18.8295 73.772 18.8295 73.533C19.3074 73.2144 19.7853 72.6568 20.0243 72.0195C20.5819 72.0195 21.0598 71.7806 21.2191 71.3026C22.175 71.5416 22.7326 70.5858 22.3343 69.7892C22.6529 69.7095 22.9716 69.6299 23.1309 69.2316C23.2902 68.674 22.8122 68.4351 22.5733 68.3554C23.1309 67.8775 22.9716 67.0013 22.3343 66.6826C22.9716 66.0454 22.4936 64.8506 21.4581 65.0099C21.4581 64.054 20.5819 63.5761 19.7853 63.9744C19.626 62.9389 18.1922 62.6999 17.7143 63.6557C17.3957 63.2575 16.9974 62.8592 16.3602 62.9389C15.8822 63.0185 15.5636 63.3371 15.5636 63.8151C15.245 63.6558 14.8467 63.7354 14.5281 63.9744C14.0502 64.3726 14.0502 65.0099 14.1298 65.5675C13.7316 65.4082 13.3333 65.4878 13.0943 65.9658C12.7757 66.5233 13.0147 67.1606 13.4129 67.6385C13.0147 67.6385 12.5367 67.9571 12.4571 68.4351C12.4571 68.913 12.8553 69.152 13.2536 69.4706C13.174 69.7892 12.935 69.9485 13.0147 70.3468C13.174 70.8247 13.5722 70.984 13.8909 71.0637C13.8112 71.7806 14.6078 72.0195 15.0857 71.462C15.245 72.1789 15.6433 72.8161 16.0416 73.2144C16.0416 73.294 16.0416 74.0109 16.0416 74.4889C15.8026 74.5685 15.3247 74.4889 15.3247 74.4889C14.7671 74.4092 14.0502 74.2499 13.6519 74.2499C12.6164 73.533 12.4571 72.8958 11.8198 72.3382C11.7402 72.4178 11.6605 72.5771 11.5809 72.6568C11.4216 72.4178 11.2622 72.1789 11.1029 71.9399C10.2267 70.7451 8.63362 68.4351 8.63362 68.4351C8.63362 68.4351 9.58948 65.8861 9.82845 63.8947C9.98776 61.983 9.98776 61.5051 10.2267 61.2661C10.4657 61.0271 11.0233 61.4254 11.7402 60.9475C12.4571 60.3899 13.4129 59.9916 12.4571 59.0358C11.8198 58.3985 11.4216 57.2037 10.4657 57.2833C9.66914 57.2833 8.79293 58.4782 8.55397 59.434C8.315 60.3102 6.80155 65.1692 6.40328 66.364C5.92535 68.0368 5.28811 68.4351 5.92535 69.8689C6.24397 70.7451 7.75742 73.9313 8.79293 75.604C8.55397 75.843 8.315 76.0023 8.15569 76.082C9.27086 77.5954 11.9791 80.463 12.0588 81.8968C12.0588 82.0561 12.0588 82.1358 12.0588 82.2951L11.5012 88.1099L10.9436 94.2433C10.9436 94.2433 11.4216 94.4823 12.2978 94.6416C12.0588 96.4737 11.8198 98.6244 11.5809 100.855H17.316C17.555 98.7837 17.7143 97.0313 17.7143 97.0313C17.7143 97.0313 17.8736 98.8633 18.1126 100.855H23.7681C23.4495 98.8633 23.1309 96.7127 22.7326 94.8806C23.7681 94.7213 24.3257 94.562 24.3257 94.562L23.2902 88.1895L22.2547 82.0561C22.2547 81.9764 22.3343 81.4985 22.414 81.1799C22.9716 79.5868 25.2019 77.2768 26.1578 75.9227C26.0781 75.843 25.9188 75.7633 25.7595 75.6837C26.795 74.0906 28.3881 70.6654 28.7864 69.7095C29.344 68.2758 28.7864 67.8775 28.3085 66.2047C27.8305 65.2489 26.3171 60.3899 26.0781 59.5137Z" fill="#A5D1EF"/>
<path d="M67.8967 45.0962C67.5781 45.8131 68.056 46.8487 68.056 46.9283C68.295 47.8842 68.6136 48.2028 68.6136 48.6011L67.3391 49.8756C67.3391 49.8756 67.3391 49.8756 67.4188 49.9552C66.9409 50.2738 66.3036 50.6721 65.746 51.389C64.7105 52.7431 65.0291 53.2211 63.3564 55.1328C62.4802 56.1683 62.4802 57.3631 61.2853 58.7969C60.4091 59.8325 59.5329 61.5849 59.1346 62.3814C58.6567 62.8594 58.2584 63.2576 57.4619 63.8152L57.3822 63.7356C56.4264 62.939 55.5502 63.2576 55.5502 63.2576C56.2671 62.7 56.9043 61.8238 57.0636 60.7087C57.5415 60.7087 58.0195 59.9918 57.8602 59.4342C57.7009 59.0359 57.4619 59.0359 57.3026 59.0359C57.3026 59.0359 57.3026 56.248 56.984 55.6904C55.9484 53.938 52.2046 53.8583 51.1691 55.5311C50.6115 56.4073 50.6912 59.0359 50.6912 59.0359C50.5319 59.0359 50.3726 59.1156 50.2929 59.3545C50.054 59.9121 50.5319 60.7087 50.9302 60.7883C51.0895 61.6645 51.5674 62.4611 52.125 63.0187C51.9657 63.0187 51.0098 63.0983 50.2133 63.8152C50.1336 63.8949 49.9743 63.9745 49.8947 64.0542C49.576 63.9745 49.2574 63.9745 49.0981 63.9745C47.9033 63.0983 47.9033 62.3018 47.4253 61.5052C46.9474 60.629 46.3898 59.5138 45.7526 58.7969C44.5578 57.3631 44.5578 56.248 43.6816 55.1328C42.0088 53.2211 42.4071 52.7431 41.2919 51.389C40.7343 50.6721 40.0971 50.1942 39.6191 49.9552C39.6191 49.8756 39.6988 49.8756 39.6988 49.8756L38.4243 48.6011C38.504 48.2028 38.7429 47.8842 38.9819 46.9283C38.9819 46.8487 39.5395 45.8131 39.1412 45.0962C38.265 43.2642 37.2295 43.0252 35.7957 44.2997C35.0788 44.9369 35.0788 47.0876 35.5567 48.0435C35.6364 48.2825 35.8753 48.7604 36.1143 49.3976L36.4329 51.3094C36.4329 51.7873 36.5126 52.5042 36.7515 53.3804C37.2295 55.2125 37.6278 56.8056 38.6633 58.9563C39.4598 60.5494 39.6191 61.7442 40.575 63.178C41.0529 63.8949 42.1681 65.3287 43.0443 66.4438C44.2391 68.1962 45.3543 71.6214 45.3543 74.5687C45.3543 77.2769 44.7171 84.2069 44.7171 84.2069V85.0035C44.7171 85.0035 44.956 85.1628 45.3543 85.4018C45.0357 86.1983 44.7171 87.0745 44.3984 87.9507L44.1595 88.588C43.5222 90.2607 42.8053 92.0131 42.1681 93.5266C41.7698 94.4028 41.4512 95.1994 41.2122 95.9959H49.4167C49.4964 95.8366 49.6557 95.6773 49.815 95.518C51.4878 93.2876 53.1605 91.1369 53.6384 90.7387C54.1164 91.1369 55.7891 93.2876 57.4619 95.518C57.6212 95.6773 57.7009 95.8366 57.8602 95.9959H66.0646C65.8257 95.279 65.5071 94.4824 65.1088 93.5266C64.4715 92.0928 63.7547 90.2607 63.1174 88.588L62.8784 87.9507C62.5598 87.0745 62.2412 86.278 62.0022 85.5611C62.3209 85.4018 62.4802 85.3221 62.4802 85.3221V84.6052C62.4802 84.6052 62.3209 76.4007 62.4802 73.6128C62.5598 72.0993 62.7988 69.4707 63.436 67.7183C63.436 67.7183 65.3478 64.5321 66.3833 63.0187C67.3391 61.5849 67.4984 60.39 68.295 58.7969C69.3305 56.7259 69.7288 55.0531 70.2067 53.2211C70.4457 52.3449 70.5253 51.7076 70.5253 51.15L70.844 49.2383C71.0829 48.6011 71.3219 48.1231 71.4016 47.8842C71.7998 46.8487 71.7998 44.7776 71.1626 44.1404C69.8084 43.1049 68.7729 43.3438 67.8967 45.0962Z" fill="#A5D1EF"/>
<path d="M172.644 45.7335C172.325 46.4504 172.803 47.4062 172.803 47.4859C173.042 48.4417 173.361 48.6807 173.361 49.079L172.166 50.2738C172.166 50.2738 172.166 50.2738 172.246 50.3535C171.768 50.5924 171.21 51.0704 170.652 51.7872C169.617 53.0617 169.936 53.5397 168.422 55.3717C167.546 56.4072 167.546 57.4428 166.431 58.8766C165.634 59.9121 164.758 61.5848 164.439 62.3017C164.041 62.7 163.643 63.0983 162.846 63.7355L162.767 63.6559C161.89 62.8593 161.014 63.1779 161.014 63.1779C161.731 62.7 162.289 61.8238 162.528 60.7086C162.926 60.7086 163.484 59.9917 163.324 59.5138C163.165 59.1155 162.926 59.1155 162.846 59.1155C162.846 59.1155 162.846 56.4869 162.528 55.8497C161.492 54.1769 157.987 54.0972 156.952 55.6903C156.394 56.5666 156.474 59.0359 156.474 59.0359C156.315 59.0359 156.235 59.1155 156.076 59.3545C155.837 59.8324 156.235 60.629 156.713 60.7086C156.872 61.5848 157.27 62.3017 157.828 62.8593C157.669 62.8593 156.792 62.939 155.996 63.6559C155.916 63.7355 155.757 63.8152 155.677 63.8948C155.359 63.8152 155.12 63.8152 154.881 63.8152C153.766 63.0186 153.766 62.2221 153.288 61.5052C152.889 60.7086 152.252 59.5935 151.695 58.8766C150.579 57.5224 150.579 56.4072 149.703 55.3717C148.11 53.5397 148.508 53.1414 147.473 51.7872C146.915 51.0704 146.358 50.6721 145.88 50.3535L145.959 50.2738L144.765 49.079C144.844 48.6807 145.083 48.4417 145.322 47.4859C145.322 47.4062 145.8 46.3707 145.481 45.7335C144.605 43.981 143.649 43.7421 142.295 45.0166C141.658 45.6538 141.658 47.6452 142.056 48.601C142.136 48.84 142.375 49.3179 142.534 49.9552L142.773 51.7872C142.773 52.2652 142.853 52.9024 143.092 53.699C143.57 55.4514 143.968 57.0445 144.924 59.0359C145.641 60.5493 145.8 61.6645 146.756 63.0983C147.234 63.8152 148.269 65.0897 149.146 66.2048C150.34 67.8776 151.376 71.1435 151.376 73.9314C151.376 76.4804 150.818 83.1714 150.818 83.1714V83.9679C150.818 83.9679 151.057 84.1272 151.456 84.3662C151.217 85.0831 150.898 85.9593 150.5 86.8355L150.261 87.4728C149.624 89.0659 148.986 90.7386 148.349 92.1724C147.951 93.0486 147.712 93.7655 147.393 94.4824H155.279C155.359 94.3231 155.518 94.1638 155.598 94.0045C157.191 91.8538 158.864 89.7828 159.262 89.4641C159.66 89.8624 161.333 91.9335 162.926 94.0045C163.085 94.1638 163.165 94.3231 163.245 94.4824H171.13C170.891 93.7655 170.573 93.0486 170.175 92.1724C169.537 90.7386 168.9 89.0659 168.263 87.4728L168.024 86.8355C167.705 86.039 167.387 85.2424 167.148 84.5255C167.466 84.3662 167.626 84.2866 167.626 84.2866V83.6493C167.626 83.6493 167.466 75.7635 167.626 73.1348C167.705 71.701 167.865 69.1521 168.581 67.4793C168.581 67.4793 170.414 64.4524 171.369 63.0186C172.325 61.5848 172.485 60.5493 173.201 58.9562C174.157 56.9648 174.556 55.3717 175.034 53.6193C175.272 52.8228 175.352 52.1855 175.352 51.7076L175.591 49.8755C175.83 49.2383 175.989 48.7604 176.069 48.5214C176.467 47.5655 176.467 45.4945 175.83 44.9369C174.556 43.7421 173.52 43.981 172.644 45.7335Z" fill="#A5D1EF"/>
<path d="M241.467 77.0376C241.068 75.6835 239.396 69.789 239.316 69.3111C238.201 66.2842 236.528 63.8945 235.97 62.5404C235.492 61.2659 234.776 60.549 234.298 60.2304C234.298 60.0711 234.298 59.9914 234.298 59.9914L234.059 59.9118C233.979 58.478 233.899 56.8849 233.74 55.6104C234.696 56.4866 235.731 55.5307 235.731 55.5307C235.731 55.5307 234.776 55.69 234.616 54.3359C234.537 53.6987 233.979 53.4597 233.581 53.3004C233.581 53.2207 233.581 53.0614 233.501 52.9818C233.501 52.8225 233.421 52.7428 233.421 52.5835C233.342 52.3445 233.262 52.1056 233.182 51.7869V51.7073C232.466 50.2735 229.917 49.238 228.164 51.3887C228.085 51.4683 228.085 51.548 228.005 51.6276C227.846 51.8666 227.766 52.1056 227.686 52.3445C227.607 52.5038 227.527 52.7428 227.527 52.9021C227.447 53.1411 227.447 53.38 227.368 53.5394C227.288 53.9376 227.288 54.1766 227.288 54.1766C227.288 54.1766 227.288 54.1766 227.368 54.1766C227.049 55.4511 226.89 57.7611 226.81 59.8321C226.81 59.8321 226.73 59.8321 226.571 59.9118L226.412 59.9914C225.854 60.2304 224.978 60.8676 224.58 62.4607C224.341 62.1421 224.102 61.8235 223.863 61.5845C223.704 61.3456 223.385 61.1863 223.146 60.9473C222.509 60.549 221.792 60.2304 221.075 59.9914C220.995 59.6728 220.836 59.3542 220.677 58.9559C220.438 58.3187 221.314 58.239 221.075 57.6018C220.677 56.4866 220.358 55.7697 220.199 55.2918C220.517 55.0528 220.756 54.5749 220.677 54.2563C220.597 54.0173 220.438 53.9376 220.199 53.858C220.199 53.7783 220.199 53.6987 220.199 53.6987C220.199 53.6987 220.199 53.3801 220.199 52.9818C220.199 52.9818 220.199 52.9818 220.199 52.9021C220.199 52.2649 220.119 51.3887 219.88 50.9107C219.482 50.1142 218.048 49.3176 216.933 50.2735C215.499 49.3973 214.225 50.4328 213.906 51.548C213.826 51.7073 213.826 51.8666 213.826 52.0259C213.826 52.0259 213.747 52.4242 213.747 52.7428C213.747 52.7428 213.747 53.1411 213.667 53.6987C213.508 53.7783 213.269 53.858 213.269 54.0969C213.189 54.3359 213.269 54.7342 213.508 54.9732C213.348 55.7697 213.03 56.6459 212.552 57.5221C212.233 58.1594 213.508 58.0797 212.87 58.9559C212.631 59.2745 212.631 59.6728 212.711 59.9914C211.915 60.3101 211.038 60.7083 210.401 61.1863C210.321 61.2659 210.162 61.3456 210.082 61.5049C209.844 61.8235 209.525 62.2218 209.127 62.6997C208.649 63.3369 208.091 64.1335 207.613 64.8504L207.454 65.0894C207.374 65.169 207.374 65.2487 207.295 65.3283L207.215 65.408C207.056 65.647 206.896 65.8859 206.737 66.1249C206.817 66.2045 206.896 66.2842 206.976 66.3638C206.817 66.5232 205.94 67.957 205.383 68.9925C205.064 69.5501 205.462 70.1076 206.02 71.6211C206.259 72.2583 208.33 73.7718 210.003 74.8073C209.844 77.4359 209.684 80.5425 209.525 82.7728V82.8525C209.525 83.2507 209.525 83.5694 209.445 83.9676C209.923 84.5252 210.879 85.0032 211.994 85.3218C211.915 87.3928 211.835 89.4638 211.755 90.4994C211.596 93.4466 209.844 102.209 209.844 102.209C209.844 102.209 210.481 102.926 211.437 103.483C211.437 103.483 211.437 103.483 211.357 103.483L210.481 103.881C209.923 104.041 209.206 104.28 208.489 104.519C208.41 104.519 208.33 104.598 208.25 104.598C207.374 104.917 207.056 105.634 208.011 105.634H207.215V105.952H214.225V105.634H213.667C214.225 105.634 214.225 104.837 214.225 104.12C214.702 104.12 215.26 104.041 215.818 103.802C215.977 99.5801 216.296 91.5349 216.535 86.0387C216.614 86.0387 216.694 86.0387 216.853 86.0387C217.012 86.0387 217.092 86.0387 217.251 86.0387L218.606 103.961C218.606 103.961 219.482 104.28 220.677 104.28C220.677 104.997 220.677 105.713 221.234 105.713H220.677V106.032H221.075H227.607H227.846V105.713H227.607H227.368C228.005 105.634 227.766 104.2 227.846 103.404C227.846 103.085 228.005 101.253 228.085 98.8632C228.722 98.5445 229.359 98.2259 231.191 98.4649C231.43 98.4649 231.669 98.5445 231.908 98.6242C232.067 101.173 232.147 103.165 232.147 103.483C232.227 104.359 231.988 105.793 232.705 105.793H232.147V106.112H238.918V105.793H238.201C239.157 105.793 238.838 105.156 237.962 104.758C237.882 104.758 237.802 104.678 237.723 104.678C237.006 104.439 236.289 104.2 235.731 104.041L234.935 103.642C234.696 103.483 234.537 103.244 234.537 103.005C234.377 102.129 234.457 100.775 234.537 99.5004C234.935 99.58 235.333 99.6597 235.811 99.6597C238.201 99.6597 240.112 98.1463 240.112 98.1463C240.112 98.1463 240.033 97.748 239.953 97.1107C239.874 96.8718 239.874 96.5532 239.794 96.1549C239.555 94.96 239.157 93.3669 238.679 91.5349C238.997 91.3756 239.157 91.2959 239.157 91.2959C239.157 91.2959 239.157 91.0569 239.077 90.6587C238.997 90.4197 238.997 90.1011 238.918 89.7825C238.679 88.6673 238.36 86.9945 237.882 85.1625C238.041 85.0828 238.121 85.0032 238.28 85.0032C238.28 84.6049 238.201 84.2863 238.121 83.888C238.041 83.4897 237.962 83.1711 237.882 82.7728C237.564 81.2594 237.086 79.9052 236.926 78.79C236.289 75.1259 235.731 72.9752 235.254 71.6211C235.333 71.5414 235.333 71.4618 235.333 71.3025C235.413 70.4263 235.254 69.0721 234.537 68.9128C234.457 68.9128 234.457 68.9128 234.457 68.9128C234.457 68.7535 234.457 68.6738 234.457 68.5145V67.3197C234.457 67.1604 234.457 67.0011 234.457 66.9214C235.094 67.7976 235.731 68.8332 236.448 69.9483C236.926 70.7449 239.316 75.6835 239.794 78.5511C239.953 79.268 239.794 80.1442 239.635 80.6221C239.475 81.1 239.953 80.9407 240.112 80.6221C240.272 80.3035 240.511 79.268 240.75 79.3476C241.068 79.4273 242.024 80.7814 242.661 81.1001C243.378 81.4187 244.414 81.4187 244.095 80.6221C243.856 79.7459 241.865 77.5156 241.467 77.0376ZM210.162 71.9397C209.366 71.1432 208.649 70.3466 208.649 70.3466L209.366 69.3907C209.684 69.7094 210.003 70.028 210.242 70.1873C210.321 70.1873 210.242 70.9042 210.162 71.9397ZM223.385 92.1721C223.305 92.65 223.226 93.128 223.066 93.5263C222.827 92.1721 222.668 90.818 222.588 89.5435C222.509 87.8707 222.509 86.3573 222.509 85.0828C222.827 84.9235 223.146 84.7642 223.465 84.6049C223.465 84.7642 223.385 85.0032 223.385 85.1625C223.544 85.2421 223.704 85.3218 223.863 85.4014C223.704 86.198 223.544 87.0742 223.385 87.8707C223.305 88.3487 223.146 89.1452 223.066 89.8621C222.987 90.1807 222.987 90.4994 222.987 90.818C222.907 91.2959 222.907 91.6145 222.907 91.6145C222.907 91.6145 222.987 91.8535 223.385 92.1721ZM225.615 103.085C225.615 103.324 225.456 103.563 225.217 103.722L224.5 104.041L223.863 103.722C224.261 103.483 224.58 103.244 224.898 102.846C224.819 101.81 224.58 100.616 224.341 99.3411C224.739 99.58 225.217 99.7394 225.695 99.7394C225.775 101.014 225.775 102.209 225.615 103.085ZM224.261 78.6307C224.102 79.4273 224.022 80.3035 223.863 81.1001C223.704 78.7901 223.385 76.1614 223.066 74.0107C223.863 73.2938 224.58 72.0194 225.137 70.5856C225.297 70.7449 225.536 70.9042 225.695 71.0635C225.376 73.3735 224.739 75.6835 224.261 78.6307Z" fill="#A5D1EF"/>
<path d="M109.079 83.3304C108.681 82.7728 108.362 82.2948 108.124 81.8169C108.92 81.0204 109.398 80.0645 109.398 80.0645C109.398 80.0645 107.247 75.9224 106.929 74.9666C106.769 74.409 104.22 66.6028 103.424 65.6469C103.026 65.2486 102.468 64.8504 101.751 64.5317C101.91 64.1335 101.99 63.6555 101.99 63.0979C101.99 62.1421 101.194 61.8235 101.432 61.3455C101.99 60.1507 101.114 59.0355 100.477 58C100.238 57.0442 100.078 56.5662 99.8394 56.2476V55.6104H99.7597C99.6004 54.8138 98.8835 53.4597 96.4939 53.3004C93.9449 53.2207 93.228 54.8138 92.989 55.6104H92.9094V56.8052C92.9094 56.8052 92.7501 58.3983 91.8739 59.9914C91.0773 61.5048 91.4756 61.5048 91.9535 62.3811C92.5111 63.3369 90.8384 62.9386 91.2366 64.6114C90.5994 64.93 89.9621 65.3283 89.4842 65.7266C88.9266 66.3638 85.8997 74.0107 85.5811 75.0462C85.2625 76.0021 83.1118 80.1442 83.1118 80.1442C83.1118 80.1442 83.5897 81.1 84.3066 81.8966C83.988 82.3745 83.6694 82.8524 83.2711 83.41C82.6339 84.3659 80.5628 85.6404 81.2797 86.1979C81.917 86.7555 83.4304 85.6404 84.0677 85.1624C84.7049 84.6845 85.1032 84.6845 85.1032 85.4811C85.0235 86.2776 86.059 87.1538 86.059 87.1538C86.059 87.1538 86.298 84.6845 86.4573 83.0117C87.5725 83.0914 88.1301 82.5338 88.1301 82.5338C88.1301 82.5338 89.3249 76.4004 89.8825 74.409C90.1215 73.6124 90.9977 71.1431 90.9977 71.1431L90.1215 85.8793C90.1215 85.8793 90.3604 86.1183 90.8384 86.4369C90.5197 91.1366 89.8028 102.607 89.0063 107.147C89.3249 107.466 89.8825 107.944 90.679 108.262L90.2011 108.501C89.6435 108.661 88.9266 108.9 88.2097 109.139C88.1301 109.139 88.0504 109.218 87.9708 109.218C87.0946 109.537 86.7759 110.254 87.7318 110.254H86.9353V110.572H93.9449V110.333H93.3873C94.0246 110.333 93.9449 109.378 93.9449 108.501C94.1839 108.422 94.4228 108.422 94.6618 108.262C95.1397 102.527 95.777 93.3669 96.0956 88.1097C96.2549 88.1097 96.4142 88.1097 96.4939 88.1097C96.5735 88.1097 96.7328 88.1097 96.8125 88.1097C97.5294 94.0042 98.7242 104.598 98.9632 108.262C99.4411 108.422 99.8394 108.581 100.317 108.661C100.317 109.457 100.317 110.254 100.875 110.254H100.317V110.572H107.327V110.333H106.53C107.486 110.333 107.168 109.617 106.291 109.298C106.212 109.298 106.132 109.218 106.052 109.218C105.256 108.9 104.619 108.74 104.061 108.581L103.742 108.422C104.38 108.103 104.778 107.705 105.017 107.227C104.061 101.97 102.787 91.1366 102.229 86.5962C102.707 86.2776 102.946 86.1183 102.946 86.1183L101.353 70.7449C101.353 70.7449 102.468 74.17 102.787 75.3649C103.265 77.1969 104.3 82.6135 104.3 82.6135C104.3 82.6135 104.858 83.1711 105.893 83.0914C106.052 84.7642 106.291 87.1538 106.291 87.1538C106.291 87.1538 107.327 86.2776 107.247 85.4811C107.168 84.6845 107.566 84.7642 108.283 85.1624C108.92 85.6404 110.434 86.7555 111.071 86.1979C111.788 85.5607 109.796 84.3659 109.079 83.3304Z" fill="#A5D1EF"/>
<path d="M92.033 77.5155C91.7941 77.1969 91.6347 76.958 91.5551 76.6393C91.7144 76.5597 91.7941 76.48 91.7941 76.48C91.7941 76.48 90.5992 73.3735 89.6434 71.1431C89.4841 70.8245 89.3248 70.3466 89.0858 69.6297C88.8468 68.9128 88.5282 68.0366 88.2096 67.0011C88.0503 66.6028 87.9706 66.2045 87.8113 65.8062C87.2537 63.8945 86.2182 60.7083 85.581 60.31C85.1827 60.0711 84.6251 59.9118 84.3861 59.8321L83.6692 59.6728C83.5099 57.7611 83.271 55.1324 82.793 54.1766V53.7783V53.38V53.1411C82.793 52.3445 82.4744 51.4683 81.5982 50.7514C80.8016 50.1938 78.8103 49.8752 77.6951 51.1497C77.3765 51.5479 76.8189 52.3445 76.7392 53.3004V53.38L76.6596 53.7783L76.5799 54.1766C76.341 55.4511 76.1816 57.6017 76.102 59.5135L75.2258 59.7524C75.2258 59.7524 74.4292 59.8321 73.792 60.2304C73.1548 60.6286 72.1192 63.8148 71.5616 65.7266C71.4023 66.1248 71.3227 66.5231 71.1634 66.9214C70.8448 67.9569 70.5261 68.8331 70.2872 69.55C70.0482 70.2669 69.8092 70.7448 69.7296 71.0635C68.7737 73.2938 67.5789 76.4004 67.5789 76.4004C67.5789 76.4004 67.6585 76.4004 67.7382 76.48C67.5789 76.7986 67.4196 77.1173 67.1806 77.4359C66.623 78.2324 66.0654 79.268 65.5079 79.9848C64.9503 80.7017 64.4723 81.4983 64.8706 81.6576C65.6672 81.8966 66.5434 81.2593 67.101 80.0645C67.4196 79.3476 67.8975 79.029 68.0568 79.5069C68.2161 79.9849 68.2958 80.4628 68.933 80.7017C69.5703 80.9407 68.933 80.0645 68.933 79.3476C68.933 78.5511 69.0923 77.8342 69.2516 77.2766C69.411 77.3562 69.4906 77.3562 69.6499 77.4359C70.1278 77.5952 70.6058 77.7545 71.0041 77.7545C72.3582 77.7545 72.7565 77.7545 72.7565 77.7545C72.7565 77.7545 74.3496 69.55 74.5089 68.1162C74.6682 67.0807 74.9868 66.0452 75.2258 65.2486C75.3851 66.8417 75.3851 68.6738 75.3054 70.9838C75.2258 74.17 73.3937 81.1 72.6768 85.1624C72.7565 85.4014 72.9954 85.6404 73.2344 85.7997C72.3582 91.7738 72.1989 96.1549 72.1989 96.1549C72.1989 96.1549 73.1547 96.8717 75.0665 97.3497C75.2258 99.2614 75.3851 101.492 75.1461 102.846C75.1461 103.085 74.9868 103.324 74.7479 103.483L73.9513 103.881C73.3937 104.041 72.7565 104.28 71.9599 104.519C71.8803 104.519 71.8006 104.598 71.721 104.598C70.8447 104.917 70.5261 105.634 71.482 105.634H70.7651V105.952H77.5358V105.634H76.9782C77.6951 105.634 77.4561 104.2 77.5358 103.324C77.5358 103.005 77.6951 100.616 77.8544 97.748C78.4916 97.748 79.1289 97.8276 79.9254 97.748C80.483 97.748 81.0406 97.6683 81.5185 97.6683C81.6779 100.536 81.7575 103.005 81.8372 103.324C81.9168 104.2 81.6778 105.634 82.3947 105.634H81.8372V105.952H88.6079V105.634H87.652C88.6079 105.634 88.2892 104.997 87.413 104.598C87.3334 104.598 87.2537 104.519 87.1741 104.519C86.4572 104.28 85.7403 104.041 85.1827 103.881L84.3861 103.483C84.1472 103.324 83.9878 103.085 83.9878 102.846C83.8285 101.492 83.9082 99.2614 84.0675 97.3497C86.2979 97.0311 87.413 96.6328 87.413 96.6328C87.413 96.6328 86.6961 90.7383 85.9792 85.72C86.2182 85.5607 86.3775 85.3218 86.4572 85.0828C85.7403 81.1 83.9082 74.0904 83.8285 70.9042C83.7489 68.2755 83.7489 66.2842 83.9878 64.5317C84.3065 65.3283 84.7844 66.7621 84.9437 68.1959C85.103 69.6297 86.6961 77.8342 86.6961 77.8342C86.6961 77.8342 87.0944 77.8342 88.4485 77.8342C88.8468 77.8342 89.3247 77.6749 89.8027 77.5155C89.8823 77.5155 89.962 77.4359 90.0416 77.4359C90.201 77.9935 90.2806 78.7104 90.2806 79.5069C90.2806 80.3035 89.6434 81.1 90.2806 80.8611C90.9179 80.6221 90.9975 80.1442 91.1568 79.6662C91.3161 79.1883 91.7144 79.5866 92.1127 80.2238C92.6703 81.4186 93.5465 82.0559 94.343 81.8169C94.7413 81.6576 94.2634 80.8611 93.7058 80.1442C93.2279 79.3476 92.5906 78.2324 92.033 77.5155Z" fill="#A5D1EF"/>
<path d="M72.1994 28.6075C71.1638 27.8109 69.8097 27.9702 68.5352 27.7313C66.6235 27.333 64.8711 26.4568 63.5966 24.8637C62.8 23.7485 62.0831 21.9961 63.7559 20.8809C65.0304 21.5978 66.7031 22.2351 67.659 21.9961C68.2166 21.8368 68.2963 21.5182 68.2166 20.9606C67.8183 19.1285 65.588 19.2878 63.8356 20.0844C63.5169 19.8454 63.039 19.4471 62.8797 19.2878C61.9238 17.2964 65.1897 18.4116 65.9863 18.4116C66.8625 18.4116 66.8625 18.1727 66.2252 17.6947C65.1897 16.9778 62.2425 16.6592 62.0831 18.6506C62.0035 19.4471 62.4018 20.0844 63.039 20.5623C62.4814 20.9606 62.0831 21.5182 62.0035 22.1554C61.8442 23.9078 63.7559 25.8992 65.0304 26.8551C67.1014 28.3685 69.3318 28.6871 71.7214 29.4837C72.518 29.643 73.1552 29.3244 72.1994 28.6075ZM67.0218 20.0844C67.8183 20.3233 67.898 21.5182 66.7828 21.5182C65.9863 21.5182 64.8711 20.7216 64.2338 20.403C64.5525 20.3233 66.4642 19.8454 67.0218 20.0844Z" fill="#71B3D8"/>
<path d="M165.634 28.6076C164.36 28.2093 163.165 28.7669 161.891 28.8466C159.899 29.0059 157.987 28.6873 156.394 27.5721C155.279 26.7755 154.084 25.3417 155.359 23.7486C156.793 24.0673 158.545 24.2266 159.421 23.669C159.899 23.3504 159.899 23.0317 159.66 22.5538C158.704 20.9607 156.633 21.7573 155.279 22.9521C154.881 22.7928 154.323 22.6335 154.164 22.3945C152.73 20.8014 156.076 20.8811 156.872 20.5624C157.669 20.3235 157.669 20.0845 156.872 19.8455C155.677 19.5269 152.73 20.0048 153.208 21.9166C153.367 22.7131 153.925 23.1911 154.642 23.5097C154.244 24.0673 154.005 24.7045 154.084 25.3417C154.483 27.0942 156.793 28.4483 158.306 28.9262C160.775 29.8024 163.006 29.4042 165.475 29.4838C166.192 29.4838 166.829 29.0059 165.634 28.6076ZM158.226 21.9166C159.103 21.9166 159.501 23.0317 158.465 23.3504C157.749 23.5893 156.394 23.1114 155.677 23.0317C155.916 22.8724 157.589 21.9166 158.226 21.9166Z" fill="#71B3D8"/>
<path d="M208.728 25.5011C206.657 25.3418 205.622 28.289 205.383 29.8025C205.383 29.8821 205.463 29.8821 205.463 29.8025C205.702 29.1652 206.817 26.7756 207.693 26.1383C208.728 25.4214 210.162 26.9349 209.844 28.528C209.684 29.4042 209.286 31.3159 204.666 33.3073C201.719 34.1038 201.48 32.4311 201.321 31.9531C202.436 31.3956 203.631 30.36 204.268 29.2449C204.825 28.2094 205.542 25.979 203.71 25.8197C201.639 25.74 200.604 29.4042 200.604 30.9973C200.604 31.1566 200.604 31.3159 200.604 31.3956C198.533 31.7938 196.382 30.599 196.223 27.9704C196.223 27.8111 196.063 27.8111 195.984 27.9704C195.506 30.1211 197.099 31.9531 199.25 32.1921C199.727 32.2718 200.205 32.1921 200.683 32.1125C201.639 36.4935 209.047 32.3514 210.481 29.2449C211.357 27.3331 210.64 25.5807 208.728 25.5011ZM201.161 31.3159C200.922 30.838 201.082 29.4042 202.037 27.8111C203.232 25.8197 204.666 26.3773 204.108 28.2094C203.87 28.6873 203.471 29.6431 203.153 29.9618C202.595 30.599 201.878 30.9973 201.161 31.3159Z" fill="#71B3D8"/>
<path d="M105.577 35.3794C105.39 35.1927 104.936 35.344 104.563 35.7172C104.189 36.0904 104.038 36.5443 104.225 36.731C104.411 36.9177 104.865 36.7664 105.238 36.3932C105.612 36.0199 105.763 35.5661 105.577 35.3794Z" fill="#71B3D8"/>
<path d="M222.045 30.8845C221.858 30.6978 221.405 30.8491 221.031 31.2224C220.658 31.5957 220.507 32.0496 220.693 32.2363C220.88 32.4229 221.334 32.2716 221.707 31.8983C222.08 31.525 222.232 31.0711 222.045 30.8845Z" fill="#71B3D8"/>
<path d="M101.916 58.6753C101.73 58.4886 101.276 58.6399 100.902 59.0132C100.529 59.3865 100.378 59.8404 100.564 60.027C100.751 60.2137 101.205 60.0624 101.578 59.6891C101.952 59.3158 102.103 58.8619 101.916 58.6753Z" fill="#71B3D8"/>
<path d="M138.06 49.6268C137.873 49.4402 137.419 49.5915 137.046 49.9647C136.673 50.338 136.521 50.7919 136.708 50.9786C136.895 51.1652 137.349 51.0139 137.722 50.6406C138.095 50.2674 138.246 49.8134 138.06 49.6268Z" fill="#71B3D8"/>
<path d="M58.6963 45.7128C58.323 45.3395 57.8691 45.1882 57.6825 45.3749C57.4958 45.5615 57.6471 46.0154 58.0204 46.3887C58.3937 46.762 58.8476 46.9133 59.0342 46.7266C59.2209 46.54 59.0696 46.0861 58.6963 45.7128Z" fill="#71B3D8"/>
<path d="M77.1992 45.5476C76.6393 44.9877 75.9584 44.7608 75.6785 45.0407C75.3985 45.3207 75.6255 46.0016 76.1854 46.5615C76.7453 47.1214 77.4262 47.3484 77.7061 47.0684C77.9861 46.7884 77.7591 46.1076 77.1992 45.5476Z" fill="#71B3D8"/>
<path d="M46.6348 61.8734C46.0748 61.3135 45.394 61.0866 45.114 61.3665C44.8341 61.6465 45.061 62.3274 45.6209 62.8873C46.1809 63.4472 46.8617 63.6742 47.1417 63.3942C47.4217 63.1142 47.1947 62.4334 46.6348 61.8734Z" fill="#71B3D8"/>
<path d="M19.1699 19.2947C18.61 18.7348 17.9291 18.5078 17.6492 18.7878C17.3692 19.0678 17.5962 19.7486 18.1561 20.3086C18.716 20.8685 19.3969 21.0954 19.6768 20.8155C19.9568 20.5355 19.7298 19.8546 19.1699 19.2947Z" fill="#71B3D8"/>
<path d="M17.7813 45.5496C17.2213 44.9897 16.5405 44.7627 16.2605 45.0427C15.9805 45.3226 16.2075 46.0035 16.7674 46.5634C17.3273 47.1234 18.0082 47.3503 18.2882 47.0704C18.5681 46.7904 18.3412 46.1095 17.7813 45.5496Z" fill="#71B3D8"/>
<path d="M79.4905 33.2402C79.2105 32.9602 78.5297 33.1872 77.9697 33.7471C77.4098 34.307 77.1828 34.9879 77.4628 35.2679C77.7428 35.5478 78.4236 35.3209 78.9836 34.7609C79.5435 34.201 79.7704 33.5202 79.4905 33.2402Z" fill="#71B3D8"/>
<path d="M103.478 22.9529C102.918 22.393 102.237 22.166 101.957 22.446C101.677 22.726 101.904 23.4068 102.464 23.9668C103.024 24.5267 103.704 24.7536 103.984 24.4737C104.264 24.1937 104.037 23.5128 103.478 22.9529Z" fill="#71B3D8"/>
<path d="M158.023 47.1413C157.464 46.5814 156.783 46.3544 156.503 46.6344C156.223 46.9143 156.45 47.5952 157.01 48.1551C157.57 48.715 158.25 48.942 158.53 48.662C158.81 48.3821 158.583 47.7012 158.023 47.1413Z" fill="#71B3D8"/>
<path d="M33.0168 28.2794C32.8301 28.0927 32.3762 28.2441 32.0029 28.6173C31.6297 28.9906 31.4783 29.4445 31.665 29.6312C31.8516 29.8178 32.3055 29.6665 32.6788 29.2932C33.0521 28.9199 33.2034 28.466 33.0168 28.2794Z" fill="#71B3D8"/>
<path d="M6.22575 45.3741C6.03911 45.1875 5.5852 45.3388 5.21191 45.7121C4.83863 46.0853 4.68733 46.5393 4.87397 46.7259C5.06061 46.9125 5.51452 46.7612 5.8878 46.388C6.26109 46.0147 6.41239 45.5608 6.22575 45.3741Z" fill="#71B3D8"/>
<path d="M144.761 28.4478C144.201 27.8879 143.52 27.6609 143.24 27.9409C142.96 28.2208 143.187 28.9017 143.747 29.4616C144.307 30.0216 144.988 30.2485 145.268 29.9685C145.548 29.6886 145.321 29.0077 144.761 28.4478Z" fill="#71B3D8"/>
<path d="M224.216 19.3017C223.656 18.7417 222.975 18.5148 222.695 18.7948C222.415 19.0747 222.642 19.7556 223.202 20.3155C223.762 20.8754 224.443 21.1024 224.723 20.8224C225.003 20.5425 224.776 19.8616 224.216 19.3017Z" fill="#71B3D8"/>
<path d="M190.283 32.5988C189.723 32.0389 189.042 31.8119 188.762 32.0919C188.482 32.3718 188.709 33.0527 189.269 33.6126C189.829 34.1725 190.51 34.3995 190.79 34.1195C191.07 33.8396 190.843 33.1587 190.283 32.5988Z" fill="#71B3D8"/>
<path d="M112.882 49.8296C112.322 49.2697 111.641 49.0427 111.361 49.3227C111.081 49.6027 111.308 50.2835 111.868 50.8435C112.428 51.4034 113.109 51.6303 113.389 51.3504C113.669 51.0704 113.442 50.3896 112.882 49.8296Z" fill="#71B3D8"/>
<path d="M200.683 90.8979H90.3604V114.954H200.683V90.8979Z" fill="#519CBC"/>
<path d="M3.21724 90.8979H-39V114.954H3.21724V90.8979Z" fill="#519CBC"/>
<path d="M90.4392 90.8979H3.2168V114.954H90.4392V90.8979Z" fill="white"/>
<path d="M287.905 90.8979H200.683V114.954H287.905V90.8979Z" fill="white"/>
<path d="M359.276 111.927H-39V119.016H359.276V111.927Z" fill="#B79F0D"/>
<path d="M359.276 209.743H-39V230.613H359.276V209.743Z" fill="#8E7900"/>
<path d="M115.531 161.552V134.31H113.699V163.384H359.276V161.552H115.531Z" fill="white"/>
<path d="M359.276 111.847H-39V113.44H359.276V111.847Z" fill="white"/>
<path d="M359.276 133.912H-39V135.505H359.276V133.912Z" fill="white"/>
<path d="M161.173 200.344C113.221 200.344 68.0562 208.23 34.1231 222.488C28.0693 225.037 22.4934 227.745 17.3955 230.613H20.741C53.3996 213.168 104.22 201.937 161.253 201.937C218.206 201.937 269.026 213.168 301.764 230.613H305.11C300.012 227.745 294.436 225.037 288.382 222.488C254.29 208.23 209.126 200.344 161.173 200.344Z" fill="white"/>
<path d="M348.761 28.5278H165.475V29.4837H348.761V28.5278Z" fill="#FFF0B3"/>
<path d="M348.761 33.8647H165.475V34.8206H348.761V33.8647Z" fill="#FFF0B3"/>
<path d="M348.761 39.1221H165.475V40.0779H348.761V39.1221Z" fill="#FFF0B3"/>
<path d="M348.761 44.4589H165.475V45.4147H348.761V44.4589Z" fill="#FFF0B3"/>
<path d="M348.761 49.7162H165.475V50.672H348.761V49.7162Z" fill="#FFF0B3"/>
<path d="M348.761 55.0531H165.475V56.009H348.761V55.0531Z" fill="#FFF0B3"/>
<path d="M348.761 60.3102H165.475V61.266H348.761V60.3102Z" fill="#FFF0B3"/>
<path d="M348.761 65.6472H165.475V66.6031H348.761V65.6472Z" fill="#FFF0B3"/>
<path d="M348.761 70.9044H165.475V71.8603H348.761V70.9044Z" fill="#FFF0B3"/>
<path d="M348.761 76.2412H165.475V77.1971H348.761V76.2412Z" fill="#FFF0B3"/>
<path d="M348.761 81.5782H165.475V82.5341H348.761V81.5782Z" fill="#FFF0B3"/>
<path d="M348.761 86.8354H165.475V87.7913H348.761V86.8354Z" fill="#FFF0B3"/>
<path d="M348.761 92.1722H165.475V93.1281H348.761V92.1722Z" fill="#FFF0B3"/>
<path d="M348.761 97.4296H165.475V98.3854H348.761V97.4296Z" fill="#FFF0B3"/>
<path d="M348.761 102.766H165.475V103.722H348.761V102.766Z" fill="#FFF0B3"/>
<path d="M348.761 108.024H165.475V108.98H348.761V108.024Z" fill="#FFF0B3"/>
<path d="M348.761 113.361H165.475V114.316H348.761V113.361Z" fill="#FFF0B3"/>
<path d="M348.761 118.618H165.475V119.574H348.761V118.618Z" fill="#FFF0B3"/>
<path d="M348.761 123.955H165.475V124.911H348.761V123.955Z" fill="#FFF0B3"/>
<path d="M230.155 23.7485H229.199V124.751H230.155V23.7485Z" fill="#FFF0B3"/>
<path d="M224.818 23.7485H223.862V124.751H224.818V23.7485Z" fill="#FFF0B3"/>
<path d="M219.56 23.7485H218.604V124.751H219.56V23.7485Z" fill="#FFF0B3"/>
<path d="M214.224 23.7485H213.269V124.751H214.224V23.7485Z" fill="#FFF0B3"/>
<path d="M208.967 23.7485H208.011V124.751H208.967V23.7485Z" fill="#FFF0B3"/>
<path d="M203.63 23.7485H202.674V124.751H203.63V23.7485Z" fill="#FFF0B3"/>
<path d="M198.372 23.7485H197.416V124.751H198.372V23.7485Z" fill="#FFF0B3"/>
<path d="M193.036 23.7485H192.08V124.751H193.036V23.7485Z" fill="#FFF0B3"/>
<path d="M187.778 23.7485H186.822V124.751H187.778V23.7485Z" fill="#FFF0B3"/>
<path d="M182.441 23.7485H181.485V124.751H182.441V23.7485Z" fill="#FFF0B3"/>
<path d="M177.184 23.7485H176.229V124.751H177.184V23.7485Z" fill="#FFF0B3"/>
<path d="M171.847 23.7485H170.892V124.751H171.847V23.7485Z" fill="#FFF0B3"/>
<path d="M182.919 21.9165H179.812V125.07H182.919V21.9165Z" fill="#FFE05F"/>
<path d="M336.016 123.078H179.812V124.99H336.016V123.078Z" fill="#FFE05F"/>
<path d="M165.554 131.761L182.601 124.751V122.68L164.758 130.009L165.554 131.761Z" fill="#FFE05F"/>
<path d="M165.475 21.9165H162.368V131.761H165.475V21.9165Z" fill="#F4C914"/>
<path d="M351.39 21.9165H162.368V25.0231H351.39V21.9165Z" fill="#F4C914"/>
<path d="M351.947 21.9165H162.368V22.952H351.947V21.9165Z" fill="#FFE05F"/>
<path d="M163.563 21.9165H162.368V131.761H163.563V21.9165Z" fill="#FFE05F"/>
<path d="M64.3924 194.211H52.8424H34.442H25.0427H22.892H13.4927H-4.90764H-16.4576C-18.2897 194.211 -19.8828 195.724 -19.8828 197.636C-19.8828 199.468 -18.3694 201.061 -16.4576 201.061H-4.90764H13.4927H22.892H25.0427H34.442H52.8424H64.3924C66.2244 201.061 67.8175 199.548 67.8175 197.636C67.7379 195.724 66.2244 194.211 64.3924 194.211Z" fill="#8E7900"/>
<path d="M124.134 147.851H112.584H94.1832H84.7839H82.6332H73.2339H54.8336H43.2836C41.4515 147.851 39.8584 149.365 39.8584 151.276C39.8584 153.188 41.3718 154.702 43.2836 154.702H54.8336H73.2339H82.6332H84.7839H94.1832H112.584H124.134C125.966 154.702 127.559 153.188 127.559 151.276C127.559 149.365 125.966 147.851 124.134 147.851Z" fill="#8E7900"/>
<path d="M293.083 135.823H281.533H263.132H253.733H251.582H242.183H223.783H212.233C210.401 135.823 208.808 137.337 208.808 139.249C208.808 141.16 210.321 142.674 212.233 142.674H223.783H242.183H251.582H253.733H263.132H281.533H293.083C294.915 142.674 296.508 141.16 296.508 139.249C296.508 137.337 294.915 135.823 293.083 135.823Z" fill="#8E7900"/>
<path d="M213.507 180.59H198.85H189.292H170.254C168.422 180.59 166.829 182.103 166.829 184.015C166.829 185.847 168.343 187.44 170.254 187.44H189.292H198.85H213.507C215.339 187.44 216.932 185.927 216.932 184.015C216.932 182.103 215.419 180.59 213.507 180.59Z" fill="#8E7900"/>
<path d="M224.419 51.867C220.038 51.4687 219.64 52.4246 219.64 52.4246C219.64 52.4246 221.711 54.7346 224.817 55.2125C227.526 55.6108 228.959 53.6194 228.959 53.6194C228.959 53.6194 228.8 52.1856 224.419 51.867Z" fill="#EAAC0F"/>
<path d="M203.151 70.6656C203.151 70.6656 203.151 75.6839 205.302 75.8432C207.453 76.0025 205.939 70.6656 205.939 70.6656H203.151Z" fill="#EAAC0F"/>
<path d="M199.965 66.9218C199.169 66.0456 193.991 61.107 192 58.9563C190.088 56.8056 187.38 61.1867 187.38 61.1867C187.38 61.1867 188.734 62.3815 190.566 64.8508C192.398 67.3201 195.027 70.5063 196.301 72.1791C197.576 73.8518 200.603 73.9315 203.152 74.0111C207.294 74.0908 208.966 74.0111 208.966 74.0111L206.019 67.0015C206.099 66.9218 200.762 67.8777 199.965 66.9218Z" fill="#F49F60"/>
<path d="M224.738 39.0425C222.667 38.4849 208.17 38.6442 208.17 38.6442L207.055 42.866C207.055 42.866 212.471 43.8218 215.259 44.1404C218.047 44.3794 220.755 44.937 220.755 44.937V53.6194C220.755 53.6194 222.428 54.0973 224.738 54.177C227.048 54.2566 227.765 54.177 227.765 54.177C227.765 54.177 228.004 45.0167 227.765 42.866C227.526 40.7153 226.809 39.6001 224.738 39.0425Z" fill="#F49F60"/>
<path d="M228.402 61.0273C228.72 58.3987 228.959 56.009 228.959 53.5397C226.012 54.0973 222.746 53.4601 220.516 52.7432C220.197 53.938 219.879 55.2921 219.64 56.3276C219.162 58.558 218.206 61.3459 218.206 61.3459L216.931 60.868C216.294 61.5849 214.621 63.417 213.188 64.7711L214.143 65.488C214.143 65.488 212.232 67.3997 209.922 67.559C208.01 67.7183 204.744 67.7183 203.629 67.7183C204.186 68.5945 205.142 70.2673 205.381 71.9401C205.7 74.2501 205.381 75.8432 205.381 75.8432C205.381 75.8432 211.276 76.3211 212.869 76.4804C218.126 77.1973 220.436 77.9939 226.092 80.7021C231.747 83.4104 241.067 85.3221 241.067 85.3221C241.067 85.3221 246.165 79.2683 246.404 75.4449C246.643 71.5418 245.368 66.6032 245.368 66.6032C245.368 66.6032 231.269 62.1425 228.402 61.0273Z" fill="#F4C914"/>
<path d="M211.436 65.9659C210.081 66.6828 207.612 66.6031 205.382 66.8421C203.151 67.0811 203.151 67.0811 203.151 67.0811C203.151 67.0811 203.311 67.32 203.55 67.6386C204.665 67.6386 207.931 67.6386 209.842 67.4793C212.152 67.32 214.064 65.4083 214.064 65.4083L213.108 64.6914C212.471 65.249 211.913 65.7269 211.436 65.9659Z" fill="#3A1716"/>
<path d="M217.171 60.4697C217.171 60.4697 217.092 60.629 216.853 60.7883L218.127 61.2662C218.127 61.2662 219.083 58.4783 219.561 56.248C219.8 55.2124 220.118 53.8583 220.437 52.6635C220.118 52.5838 219.8 52.4245 219.561 52.3448C218.605 55.5311 218.207 59.4342 217.171 60.4697Z" fill="#3A1716"/>
<path d="M224.738 69.3911C223.703 71.7807 222.349 74.3297 222.349 74.3297L224.738 75.1263C224.738 75.1263 226.65 72.3383 227.845 68.9131C229.04 65.488 229.04 65.488 229.04 65.488L226.57 64.3728C226.65 64.3728 225.774 67.0014 224.738 69.3911Z" fill="#3A1716"/>
<path d="M214.144 57.2039L211.595 61.4256C211.595 61.4256 211.197 63.9745 214.064 65.4083C216.693 66.7625 215.976 67.1607 217.171 67.4794C219.083 67.9573 223.464 65.6473 218.605 60.629C215.976 60.1511 214.144 57.2039 214.144 57.2039Z" fill="#DD7F37"/>
<path d="M206.258 55.7701C205.382 56.965 204.426 58.5581 206.816 62.2222C208.568 64.9305 211.515 66.0457 214.064 65.4881C215.976 65.0898 217.489 61.4257 216.135 58.3191C214.701 55.1329 209.922 50.9112 206.258 55.7701Z" fill="#F49F60"/>
<path d="M210.241 51.867C207.771 51.628 204.824 53.1415 203.709 55.5311C202.673 57.6818 205.541 59.7529 205.541 59.7529C205.541 59.7529 206.736 56.8056 208.01 56.0887C209.285 55.3718 211.356 54.8143 212.551 55.8498C214.94 57.9208 216.294 59.5139 217.171 59.9918C217.171 59.9918 216.932 57.9208 216.613 56.487C216.294 54.8142 212.79 52.106 210.241 51.867Z" fill="#3A1716"/>
<path d="M214.223 55.6905C213.108 55.1329 213.427 57.2836 213.427 57.2836L215.339 58.9563C215.259 58.8767 215.339 56.248 214.223 55.6905Z" fill="#F49F60"/>
<path d="M188.336 50.3536C186.982 49.6367 186.504 51.867 186.504 52.8229C186.504 53.7788 183.477 50.2739 182.123 50.4332C180.769 50.5926 179.813 51.7874 179.892 54.4956C179.972 57.2836 181.565 59.275 184.034 60.3901C186.344 61.346 188.575 62.3815 188.575 62.3815L192.558 59.5936C192.558 59.5936 191.681 58.4784 190.885 57.2836C190.088 56.0091 189.69 51.0705 188.336 50.3536Z" fill="#512421"/>
<path d="M188.018 62.1426L189.212 63.0985C189.212 63.0985 190.009 61.6647 190.965 61.0274C192.239 60.1512 193.116 60.1512 193.116 60.1512L191.761 58.4785C191.682 58.3988 188.734 59.5936 188.018 62.1426Z" fill="#3A1716"/>
<path d="M194.708 37.2105C193.433 38.6443 193.354 40.556 195.266 41.9898C197.177 43.4236 199.248 43.7422 201.24 43.7422C203.151 43.6626 208.488 43.1846 208.488 43.1846L209.444 38.724C209.444 38.724 203.231 36.2546 201.16 35.5377C199.169 34.7412 196.062 35.7767 194.708 37.2105Z" fill="#512421"/>
<path d="M207.453 40.4763C207.293 41.5915 207.453 43.1846 207.453 43.1846H208.966C208.966 43.1846 208.807 41.8305 209.125 40.7153C209.444 39.6798 209.763 38.5646 209.763 38.5646L208.17 38.0867C208.249 38.0867 207.612 39.3612 207.453 40.4763Z" fill="#3A1716"/>
<path d="M151.217 103.723C151.456 105.634 152.253 106.033 151.137 108.82C150.022 111.529 149.863 113.998 151.137 117.264C152.412 120.609 156.395 117.742 156.474 113.201C156.474 108.661 156.474 106.909 156.474 106.909L157.43 102.687H158.625V96.1553C158.625 96.1553 155.04 97.3501 153.129 98.067C151.217 98.7839 150.978 101.89 151.217 103.723Z" fill="#F49F60"/>
<path d="M180.45 147.533C180.211 147.772 179.893 148.09 179.654 148.329C179.495 148.489 179.256 148.489 179.017 148.409C179.096 150.161 179.654 153.427 181.884 156.295C182.681 157.33 184.115 158.844 185.867 160.517C189.053 159.162 191.124 157.251 192.319 155.976C189.77 152.631 186.345 148.329 186.345 148.329L180.45 147.533Z" fill="#DD7F37"/>
<path d="M192.239 156.056C191.044 157.41 188.973 159.242 185.787 160.596C188.734 163.544 192.558 167.208 195.186 170.235C197.417 172.704 198.851 175.173 199.169 175.094C200.045 174.775 202.833 171.748 202.833 171.748C202.833 171.748 196.222 161.632 194.071 158.605C193.673 157.888 193.036 157.012 192.239 156.056Z" fill="#3A1716"/>
<path d="M210.002 124.114C210.002 124.114 205.064 112.644 196.222 103.882C192 99.66 190.009 106.51 190.009 106.51C190.566 108.741 193.832 109.458 195.186 110.891C196.541 112.325 197.974 114.954 199.806 118.299C201.559 121.565 204.984 123.955 206.019 126.982C207.055 130.088 205.781 131.044 207.772 133.832C209.843 136.54 212.392 133.832 213.188 131.841C215.1 127.221 210.002 124.114 210.002 124.114Z" fill="#F49F60"/>
<path d="M171.131 124.513C171.131 124.513 172.246 131.761 174.875 138.612C177.503 145.542 179.813 149.365 179.813 149.365L187.858 143.471L182.92 126.823L171.131 124.513Z" fill="#3A1716"/>
<path d="M175.592 144.187C174.875 148.728 174.875 150.958 177.583 152.233C180.53 153.666 182.283 152.631 183.876 150.878C187.938 146.338 190.169 138.213 190.169 138.213L177.902 132.478C177.822 132.478 176.309 139.647 175.592 144.187Z" fill="#F49F60"/>
<path d="M188.735 122.043L181.088 125.707C177.424 129.849 176.149 137.018 176.149 137.018C176.149 137.018 179.973 135.346 183.956 138.93C187.301 141.877 189.85 143.231 189.85 143.231C192.24 133.673 194.47 132.478 192.877 126.902C191.045 120.131 188.735 122.043 188.735 122.043Z" fill="#512421"/>
<path d="M173.919 94.2435C173.441 94.3232 169.857 93.6063 168.184 93.5266C166.511 93.5266 164.36 94.2435 162.289 94.8808C160.218 95.5977 157.191 96.0756 157.191 96.0756L158.307 103.484C158.307 103.484 164.36 103.404 165.794 104.599C168.025 106.431 167.786 111.768 168.821 115.989C170.096 120.848 169.458 123.477 169.936 124.831C171.768 130.088 176.707 127.858 182.92 126.743C186.982 126.026 191.284 127.778 193.833 126.663C193.753 125.229 191.045 122.202 188.496 113.759C187.699 111.13 186.982 106.909 186.982 106.909C186.982 106.909 189.133 108.9 192.24 110.493C197.099 109.856 197.895 104.439 197.895 104.439C197.895 104.439 190.089 97.7483 186.823 95.9959C181.805 93.6063 178.778 93.0487 173.919 94.2435Z" fill="#DA482D"/>
<path d="M165.316 94.9604C161.652 96.1552 157.271 96.7924 157.271 96.7924L157.43 97.9873C157.589 97.9873 160.855 97.35 164.201 96.6331C167.546 95.9162 170.254 95.5976 170.254 95.5976L170.015 94.3231C170.015 94.4028 167.705 94.2435 165.316 94.9604Z" fill="white"/>
<path d="M172.883 92.969L169.936 95.7569C169.936 95.7569 170.254 97.9873 171.13 100.218C172.007 102.448 172.723 104.997 172.723 104.997C172.723 104.997 177.981 102.448 179.415 99.0228C180.848 95.518 179.415 93.7655 179.415 93.7655L172.883 92.969Z" fill="white"/>
<path d="M175.592 88.9065L170.573 92.013C170.573 92.013 168.821 94.4823 171.051 97.5092C173.122 100.377 173.521 102.607 173.521 102.607C173.521 102.607 179.813 99.8192 178.38 94.801C175.99 92.9689 175.592 88.9065 175.592 88.9065Z" fill="#DD7F37"/>
<path d="M168.024 83.0917C166.431 83.8086 165.077 86.039 166.112 89.7828C167.148 93.4469 168.821 96.9517 171.051 97.5093C173.281 98.0669 176.866 95.1197 177.025 91.0573C177.264 86.9948 174.556 79.9055 168.024 83.0917Z" fill="#F49F60"/>
<path d="M183.716 146.418L177.503 152.232C177.503 152.232 178.22 152.392 185.468 154.304C186.424 153.427 187.46 152.232 187.778 150.799C188.256 148.967 187.699 147.453 187.301 146.577C185.15 146.179 183.716 146.418 183.716 146.418Z" fill="#F49F60"/>
<path d="M192.558 148.807C190.566 147.612 188.814 146.975 187.38 146.657C187.778 147.453 188.336 149.046 187.858 150.878C187.46 152.312 186.424 153.507 185.548 154.383C186.265 154.542 187.061 154.781 187.858 155.02C191.044 155.897 195.266 156.375 195.266 156.375C195.266 156.375 199.249 158.446 201.081 157.33C202.992 156.295 199.647 152.153 199.647 152.153C199.647 152.153 197.496 151.755 192.558 148.807Z" fill="#512421"/>
<path d="M202.515 171.031C201.957 172.306 200.523 173.58 199.647 173.819C198.134 174.297 197.895 174.855 197.337 176.05C196.461 177.882 194.629 178.837 193.514 180.112C193.195 180.51 192.637 180.908 192.398 181.546C192.637 181.546 192.876 181.546 193.115 181.546C194.629 181.785 195.824 182.9 197.178 182.82C198.532 182.741 199.806 180.749 201.161 179.076C202.435 177.483 203.869 176.05 204.108 175.094C204.267 174.456 204.665 173.74 204.984 173.341C204.506 172.545 203.869 171.509 202.515 171.031Z" fill="#DA482D"/>
<path d="M204.984 173.341C204.745 173.739 204.267 174.456 204.108 175.094C203.869 176.049 202.435 177.483 201.161 179.076C199.886 180.669 198.532 182.74 197.178 182.82C195.824 182.9 194.629 181.785 193.115 181.546C192.877 181.546 192.638 181.546 192.399 181.546C192.319 181.785 192.239 181.944 192.239 182.263C192.239 184.095 195.585 184.095 196.859 184.015C198.93 183.935 199.568 182.342 202.117 179.634C204.028 177.563 206.418 175.412 205.143 173.66C205.143 173.5 205.064 173.421 204.984 173.341Z" fill="#3A1716"/>
<path d="M201.639 154.065C200.842 153.188 200.444 151.994 200.444 151.994C199.01 151.516 197.816 151.516 197.816 151.516C197.816 151.516 198.612 152.71 198.453 154.065C198.293 155.737 197.099 157.569 195.267 156.375C195.267 156.375 196.302 158.844 196.939 161.95C197.258 163.703 197.736 165.694 198.293 166.809C198.453 166.73 199.17 166.57 200.046 166.809C201.081 167.048 202.037 164.738 202.117 162.986C202.197 161.234 202.595 158.605 202.515 157.569C202.436 156.693 202.436 154.941 201.639 154.065Z" fill="#DA482D"/>
<path d="M200.445 151.994C200.445 151.994 200.923 153.109 201.639 154.065C202.436 154.941 202.436 156.693 202.516 157.649C202.595 158.685 202.277 161.313 202.117 163.066C202.038 164.818 201.082 167.128 200.046 166.889C199.091 166.65 198.453 166.809 198.294 166.889C198.533 167.447 198.852 167.845 199.17 167.845C200.126 167.925 203.472 167.447 203.472 161.313C203.472 155.259 202.914 152.87 200.445 151.994Z" fill="#512421"/>
<path d="M194.311 156.295C193.514 157.49 195.665 158.047 196.222 158.207C197.019 157.888 197.895 157.729 198.771 157.808C198.612 157.569 198.373 157.091 197.895 156.375C196.78 154.383 195.267 154.861 194.311 156.295Z" fill="#512421"/>
<path d="M196.303 159.401L196.621 160.676L199.489 160.278C199.489 160.278 199.569 159.72 199.489 159.162C198.055 158.685 196.303 159.401 196.303 159.401Z" fill="#512421"/>
<path d="M196.859 161.711L197.098 163.066L199.488 162.747C199.488 162.747 199.568 162.189 199.488 161.632C198.054 161.233 196.859 161.711 196.859 161.711Z" fill="#512421"/>
<path d="M178.938 151.436C178.938 151.436 179.734 152.232 180.212 152.232C180.77 152.232 181.486 151.755 181.486 151.755C181.486 151.755 181.247 151.755 180.77 151.436C180.292 151.197 178.938 151.436 178.938 151.436Z" fill="#DD7F37"/>
<path d="M175.591 108.104C173.679 108.104 170.414 107.944 169.219 107.865C169.378 108.422 169.458 109.059 169.537 109.617C170.892 109.697 173.52 109.856 176.706 109.936C179.016 110.015 181.565 109.776 182.68 109.776C182.442 109.139 182.282 108.502 182.203 107.865C180.689 107.785 177.105 108.024 175.591 108.104Z" fill="white"/>
<path d="M179.494 95.1197V96.2348C179.494 96.2348 181.406 96.1552 184.034 97.589C186.663 99.0228 196.859 107.466 196.859 107.466L197.417 106.431C197.417 106.431 190.646 100.218 186.344 97.589C181.724 94.7214 179.494 95.1197 179.494 95.1197Z" fill="white"/>
<path d="M184.911 137.815L188.257 140.284C188.416 139.806 188.575 139.328 188.814 138.85L185.309 136.54C185.23 136.939 185.07 137.337 184.911 137.815Z" fill="white"/>
<path d="M196.859 172.863C197.337 174.217 197.417 176.049 197.417 176.049H199.249C199.249 176.049 200.284 173.899 199.249 171.987C198.134 170.075 196.381 171.509 196.859 172.863Z" fill="#3A1716"/>
<path d="M195.983 177.881L198.214 179.076L199.17 178.041L196.86 176.926L195.983 177.881Z" fill="#3A1716"/>
<path d="M194.151 179.475L196.621 180.829L197.577 179.714L195.267 178.678L194.151 179.475Z" fill="#3A1716"/>
<path d="M109.637 95.2789L101.751 98.7837C101.751 98.7837 96.3344 105.475 94.4227 107.705C92.511 109.935 92.1923 110.174 92.511 112.245C92.8296 114.237 96.9716 115.432 96.7327 117.184C96.4937 118.937 98.7241 117.662 98.8834 116.865C99.6799 113.918 96.7327 110.732 96.7327 110.732C96.7327 110.732 102.149 105.714 104.858 103.165C109.079 99.0227 110.991 95.04 109.637 95.2789Z" fill="#DD7F37"/>
<path d="M128.595 81.4986C127.559 81.3393 126.763 81.4189 125.727 81.9765C125.249 82.2155 123.497 80.941 122.621 80.8614C122.143 80.7817 122.222 82.0562 121.824 82.2155C121.665 82.2952 121.506 81.8969 121.187 82.1359C121.028 82.2155 121.028 82.6138 120.868 82.6934C120.629 82.6138 120.39 82.2952 120.231 82.7731C120.072 83.49 118.638 83.4103 118.957 84.4459C119.196 85.2424 119.514 86.3576 118.957 86.9948C118.558 87.4727 117.443 88.11 115.372 88.1896C115.372 90.9776 116.408 91.7741 120.231 92.6503C120.709 92.3317 121.426 91.9334 122.302 91.9334C124.134 92.0131 124.134 92.0131 125.488 92.2521C126.683 92.491 130.108 92.969 131.701 90.659C133.294 88.349 132.02 84.0476 131.144 83.0121C130.268 81.8969 129.71 81.6579 128.595 81.4986Z" fill="#F49F60"/>
<path d="M131.94 79.9054C130.905 79.7461 129.949 80.1444 128.913 81.5782C128.913 81.5782 129.63 82.0561 129.391 85.1627C126.763 86.4371 124.771 89.7827 124.771 89.7827C124.771 89.7827 122.939 90.0216 121.426 92.0927C123.736 91.6944 126.205 92.9689 128.595 92.3316C132.498 91.3758 133.533 90.1013 133.135 86.1982C132.896 84.6847 131.303 81.8171 131.94 79.9054Z" fill="#3A1716"/>
<path d="M125.886 87.1541C125.886 87.1541 123.019 87.632 124.293 88.8268C125.568 90.0217 127.32 89.5437 127.241 88.2693C127.241 86.9151 125.886 87.1541 125.886 87.1541Z" fill="#F49F60"/>
<path d="M121.426 120.291C121.426 120.291 123.417 108.98 123.338 105.953C123.258 102.926 122.143 98.7837 122.143 98.7837H114.098C114.098 98.7837 116.169 104.837 116.806 107.705C117.523 110.652 116.089 117.981 116.806 121.087C117.523 124.194 119.992 127.619 121.346 127.619C122.78 127.619 125.329 126.105 125.568 125.229C125.887 124.353 121.426 120.291 121.426 120.291Z" fill="#F49F60"/>
<path d="M109 83.5696C105.495 82.6934 98.5654 86.2779 98.5654 86.2779C94.503 87.871 86.6171 86.2779 86.6171 86.2779C86.6171 86.2779 89.3254 90.1013 90.2016 92.8096C91.0778 95.5179 85.502 102.766 85.502 102.766C85.502 102.766 94.503 102.766 100.875 101.651C109 100.297 113.063 98.3855 113.063 98.3855L114.098 103.005C114.815 103.404 116.329 104.041 118.32 103.643C120.072 103.324 122.462 102.448 123.975 101.811C123.577 99.2617 122.542 96.0754 121.586 93.5265C120.232 89.5437 115.373 85.1627 109 83.5696Z" fill="#DA482D"/>
<path d="M118.319 103.643C116.328 104.041 114.815 103.404 114.098 103.005L114.416 104.519C116.965 106.192 121.506 104.598 124.134 103.165C124.134 102.766 124.055 102.288 123.975 101.89C122.461 102.448 120.072 103.324 118.319 103.643Z" fill="white"/>
<path d="M67.3405 67.8774C65.9864 67.8774 62.4815 69.3112 59.6936 71.6212C56.9057 73.9312 43.9219 83.8881 43.9219 83.8881L48.9402 86.1185C48.9402 86.1185 54.5957 83.5695 57.5429 82.3747C61.7646 80.6223 65.3491 77.5157 65.3491 77.5157C65.3491 77.5157 72.1995 84.5254 74.0315 87.3133C75.8636 90.1012 80.8022 82.6933 80.8022 82.6933C80.8022 82.6933 79.5277 80.0647 76.7398 76.8785C73.9519 73.6126 68.6946 67.8774 67.3405 67.8774Z" fill="#DD7F37"/>
<path d="M66.4639 78.7105C66.4639 78.7105 73.2346 92.7298 79.607 97.9871C84.3066 101.89 86.6963 98.9429 86.6963 98.9429L88.1301 85.9591L73.9515 72.6567L66.4639 78.7105Z" fill="#3A1716"/>
<path d="M91.317 36.8916C91.317 36.8916 85.1039 35.2188 86.2191 38.2457C87.4139 41.2726 84.8649 50.9109 86.2191 57.5223C87.5732 64.1337 89.4849 65.0895 88.2104 66.9216C86.936 68.8333 80.8822 76.4802 82.1566 77.3564L91.7153 82.295C91.7153 82.295 96.8132 72.3382 96.6539 69.5502C96.5742 66.7623 95.2201 58.9561 93.866 52.5837C92.5915 46.2909 91.317 36.8916 91.317 36.8916Z" fill="#F49F60"/>
<path d="M84.2277 70.0282C81.599 74.4092 79.8466 79.5868 77.0587 90.1809C74.2708 101.014 86.7766 100.855 86.7766 100.855C92.9101 97.0313 92.1135 88.3489 92.2728 85.0034C92.5118 80.8613 94.4235 76.4006 95.0608 75.0465C91.4763 72.0196 88.9273 69.7096 84.2277 70.0282Z" fill="#512421"/>
<path d="M96.6533 29.9617C94.5026 30.4396 92.8299 30.121 90.9182 31.6344C89.564 32.6699 88.2895 34.263 86.6964 34.741C84.8644 35.2985 84.1475 36.4137 84.1475 36.4137C84.1475 36.4137 84.3068 39.5999 85.6609 41.1134C86.6964 42.3082 86.6168 40.9541 86.9354 40.2372C87.254 39.5203 88.2895 38.7237 89.0064 39.2017C90.4402 40.0779 91.635 40.1575 91.635 40.1575C91.635 40.1575 92.9095 37.2103 94.3433 35.6172C95.7771 34.0241 96.8126 32.8292 98.0075 32.1123C99.043 31.5548 98.804 30.4396 98.7243 30.121C98.6447 29.4837 98.0075 29.643 96.6533 29.9617Z" fill="#DA482D"/>
<path d="M92.7506 29.8024C89.883 31.4751 88.8475 32.5903 87.4137 32.9089C85.263 33.3869 83.6699 34.8207 83.6699 34.8207L84.2275 36.4138C84.2275 36.4138 87.4934 35.3782 90.122 33.3869C92.2727 31.7141 92.9099 31.2362 94.8216 30.5989C96.7334 29.9617 98.8841 30.0413 98.8841 30.0413L98.6451 28.7669C98.5654 28.7669 95.6182 28.1296 92.7506 29.8024Z" fill="#3A1716"/>
<path d="M85.4229 36.6526C85.4229 36.6526 86.9363 37.1306 88.6091 36.334C90.2818 35.5375 91.4767 33.4664 92.5122 32.4309C90.7598 33.4664 89.6446 34.8206 88.3701 35.6171C87.0956 36.334 85.4229 36.6526 85.4229 36.6526Z" fill="#3A1716"/>
<path d="M92.0342 35.9358L93.6273 36.573L94.4238 35.5375L92.8307 34.9003L92.0342 35.9358Z" fill="white"/>
<path d="M91.0781 37.6086L92.5916 38.3255L93.2288 37.2104L91.6357 36.5731L91.0781 37.6086Z" fill="white"/>
<path d="M49.6568 85.3221C48.8602 85.4814 47.6654 85.0831 47.5857 84.2866C47.4264 82.6138 46.7095 81.658 46.7095 81.658C46.7095 81.658 43.603 82.4545 41.4523 82.2952C39.3016 82.1359 37.7085 82.0562 36.434 81.4987C35.3188 81.0207 34.6019 81.8173 34.4426 82.1359C34.0444 82.6138 34.6019 83.0121 35.6375 83.8883C37.3102 85.3221 38.1068 86.7559 40.4168 87.3931C42.0895 87.7914 44.0809 87.8711 45.4351 88.8269C47.0282 89.9421 48.3026 89.8624 48.3026 89.8624C48.3026 89.8624 50.6923 87.7914 51.1702 85.8C51.4888 84.2069 50.4533 85.1628 49.6568 85.3221Z" fill="#DA482D"/>
<path d="M37.3102 85.0034C35.6374 83.8883 34.4426 82.1359 34.4426 82.1359L33.5664 83.0917C33.5664 83.0917 34.8409 85.8 37.9474 87.0745C41.054 88.349 42.4878 88.5083 43.603 89.4641C45.2757 90.8183 47.4264 91.2962 47.4264 91.2962L48.3026 89.8624C48.3026 89.8624 45.5147 87.871 42.3285 86.9948C39.6999 86.2779 38.983 86.1186 37.3102 85.0034Z" fill="#3A1716"/>
<path d="M45.5148 86.3576C43.842 85.5611 41.532 85.8797 40.0186 85.6407C41.9303 86.4373 43.6827 86.4373 45.0368 86.9949C46.391 87.5525 47.6655 88.6676 47.6655 88.6676C47.6655 88.6676 47.1875 87.2338 45.5148 86.3576Z" fill="#3A1716"/>
<path d="M41.4521 82.2156L41.9301 83.8883H43.2046L42.7266 82.2156H41.4521Z" fill="white"/>
<path d="M43.4434 82.2156L44.0009 83.8087L45.1161 83.6494L44.7178 82.0563L43.4434 82.2156Z" fill="white"/>
<path d="M109.159 84.0475C108.522 83.4102 107.646 83.1713 106.77 83.4102L104.38 83.9678C104.38 83.9678 106.849 85.1627 109.319 87.8709C110.195 88.8268 111.151 90.6589 111.629 91.2164C112.584 91.1368 113.54 91.0571 114.576 90.9775C114.098 89.8623 113.222 88.3489 111.867 86.7557C110.752 85.4813 109.717 84.6051 109.159 84.0475Z" fill="white"/>
<path d="M88.7676 73.4533L93.3079 76.7988C93.3079 76.7988 93.6265 76.0819 93.9452 75.5243C92.2724 73.8515 89.4048 72.2584 89.4048 72.2584L88.7676 73.4533Z" fill="white"/>
<path d="M139.507 28.6871C141.259 29.882 142.454 31.953 142.454 34.263C142.454 38.0068 139.427 40.954 135.763 40.954C132.338 40.954 129.47 38.4051 129.072 35.0595C129.072 35.3782 128.992 35.6171 128.992 35.9358C128.992 40.2371 132.497 43.6623 136.719 43.6623C141.02 43.6623 144.445 40.1575 144.445 35.9358C144.525 32.5902 142.454 29.8023 139.507 28.6871Z" fill="#C93A27"/>
<path d="M139.507 28.6872C138.63 28.3686 137.754 28.1296 136.719 28.1296C132.736 28.1296 129.47 31.1565 128.992 34.98C129.39 38.3255 132.258 40.8745 135.683 40.8745C139.427 40.8745 142.374 37.8476 142.374 34.1834C142.454 31.9531 141.259 29.8821 139.507 28.6872Z" fill="#DA482D"/>
<path d="M143.33 31.7938L142.454 30.6787H140.542L135.046 28.3687L131.143 32.0328C131.143 32.0328 130.187 32.5107 129.709 32.8293C129.391 33.5462 129.231 34.1835 129.231 34.1835L130.904 33.3869L134.09 37.9273L132.975 42.6269L134.09 43.1049L135.365 38.4849L140.542 37.3697L142.852 40.7949C142.852 40.7949 143.091 40.5559 143.41 40.078C143.729 39.6 141.419 36.1749 141.419 36.1749V31.7142L143.33 31.7938Z" fill="white"/>
<path d="M132.258 32.9088L135.205 37.1305L140.064 36.1747V32.0326L135.205 29.6429L132.258 32.9088Z" fill="#DA482D"/>
<path d="M8.15587 163.623C7.51863 164.499 6.40346 164.738 3.85449 166.57C4.41208 167.765 5.28829 169.597 6.56277 170.951C7.35932 171.828 7.99656 172.545 8.55415 173.102C9.3507 172.624 10.1473 172.067 10.9438 171.429C14.7673 168.641 22.0159 161.233 22.0159 161.233L12.7759 156.215C12.7759 156.215 9.03208 162.349 8.15587 163.623Z" fill="#DD7F37"/>
<path d="M3.85444 166.57C2.65962 167.367 1.22583 168.562 -0.606243 170.234C-6.42107 175.571 -14.5459 181.864 -14.5459 181.864L-12.1562 186.723C-12.1562 186.723 -7.77521 182.581 -1.64176 178.997C3.13755 176.209 5.76617 174.854 8.47444 173.102C7.91686 172.544 7.27962 171.828 6.48306 170.951C5.28824 169.597 4.41203 167.765 3.85444 166.57Z" fill="#3A1716"/>
<path d="M9.9082 157.729C9.9082 157.729 10.3861 159.242 12.5368 161.154C15.4044 163.703 18.9092 164.579 18.9092 164.579C18.9092 164.579 18.9092 164.579 21.9361 161.313C24.963 158.047 31.6541 150.639 31.6541 150.639L15.4841 146.975L9.9082 157.729Z" fill="#3A1716"/>
<path d="M73.6329 122.043C71.9602 122.521 68.3757 123.477 63.3574 123.238C58.3392 122.919 56.1088 122.84 52.7633 123.238C49.4178 123.636 46.0723 123.238 46.0723 123.238V129.292C46.0723 129.292 49.2585 128.097 53.7192 128.416C58.1799 128.734 64.9505 126.106 69.013 126.504C70.1281 126.583 71.4026 126.822 73.7923 126.106C76.6599 125.229 77.3767 125.389 77.5361 123.716C77.6954 121.963 75.3057 121.565 73.6329 122.043Z" fill="#F49F60"/>
<path d="M10.5457 123.079C6.80192 124.512 9.90847 127.858 12.0592 128.814C13.8912 129.61 20.184 127.858 20.184 127.858L20.7416 122.202C20.8212 122.202 14.2895 121.565 10.5457 123.079Z" fill="#F49F60"/>
<path d="M43.8417 121.406C41.93 121.087 33.0883 121.326 32.4511 121.087C29.2648 119.892 27.8311 119.813 24.5652 120.53C22.3349 121.008 20.2638 121.087 18.2724 121.565C18.9097 124.751 17.9538 127.221 16.52 130.088C20.2638 129.61 23.2907 130.327 23.2907 130.327C23.2907 130.327 22.8128 132.797 22.0162 134.549C20.7417 137.337 15.3252 145.701 15.3252 145.701C15.3252 145.701 16.9183 146.975 18.9893 148.25C21.0604 149.524 30.7783 152.471 30.7783 152.471C30.7783 152.471 35.9559 146.418 38.5049 142.594C40.2573 139.965 42.0097 133.832 42.5673 130.964C44.0807 130.566 47.7449 130.725 49.6566 130.805C50.2938 129.292 50.8514 127.699 51.0107 126.026C51.0904 124.831 50.6921 122.76 50.0549 121.565C48.3821 121.485 45.3552 121.645 43.8417 121.406Z" fill="#F4C914"/>
<path d="M30.2203 120.53C30.2203 120.53 29.2645 123.317 32.132 126.902C34.9996 130.407 38.3451 128.256 39.301 126.902C40.2569 125.548 38.2655 122.123 38.2655 122.123C37.6283 120.689 30.2203 120.53 30.2203 120.53Z" fill="#3A1716"/>
<path d="M38.2657 115.83L32.8491 114.157C32.8491 114.157 33.4864 118.459 31.6543 120.769C31.6543 122.76 33.0881 125.309 34.2829 126.185C36.4336 127.778 38.5046 126.106 38.1064 125.15C37.5488 123.796 37.5488 123.795 38.8233 120.609C40.1774 117.184 38.2657 115.83 38.2657 115.83Z" fill="#DD7F37"/>
<path d="M36.2738 107.387C29.3438 108.422 31.0962 115.591 33.4859 118.698C35.8755 121.804 40.3362 122.202 41.8497 120.53C43.3631 118.857 43.4428 114.794 42.1683 111.29C40.9735 107.785 37.9466 107.148 36.2738 107.387Z" fill="#F49F60"/>
<path d="M45.2757 148.329C41.8506 147.453 29.4244 147.214 29.4244 147.214C29.4244 147.214 15.4847 149.365 19.3878 154.064C21.2995 156.374 24.0875 157.33 28.3092 157.729C34.6019 158.286 44.7181 157.808 45.0368 157.251C45.674 156.295 48.7009 149.205 45.2757 148.329Z" fill="#F49F60"/>
<path d="M37.6289 154.622C39.3017 159.8 42.5675 163.543 42.5675 163.543L51.3296 162.03L46.6299 149.683C46.7096 149.843 38.4255 152.153 37.6289 154.622Z" fill="#F49F60"/>
<path d="M13.8916 147.851C13.0154 151.276 18.9098 157.729 18.9098 157.729C18.9098 157.729 22.8926 157.171 26.5567 154.702C29.1854 152.949 32.1326 149.285 33.2478 147.294C26.4771 147.055 17.5557 141.957 17.5557 141.957C17.5557 141.957 14.7678 144.267 13.8916 147.851Z" fill="#512421"/>
<path d="M44.9566 159.322C42.6466 160.277 41.3721 161.871 41.3721 161.871C41.3721 161.871 43.7617 166.809 47.7445 171.987C51.2493 176.607 55.5507 181.227 55.5507 181.227L59.7724 178.837L49.8155 157.729C49.8155 157.729 45.9921 158.923 44.9566 159.322Z" fill="#512421"/>
<path d="M68.6146 176.368C67.2605 176.846 65.747 176.766 63.5167 176.766C61.366 176.766 58.2594 175.731 58.2594 175.731C58.2594 175.731 57.4629 176.687 57.2239 178.359C57.0646 179.156 55.8698 179.475 55.0732 179.236C54.2767 178.997 53.3208 178.041 53.5598 179.634C53.7988 181.625 56.1088 183.935 56.1088 183.935C56.1088 183.935 57.3832 184.174 59.056 183.139C60.4101 182.262 62.4812 182.342 64.1539 182.103C66.5436 181.705 67.4198 180.271 69.2519 178.997C70.367 178.2 70.9246 177.802 70.606 177.324C70.367 176.846 69.8095 175.97 68.6146 176.368Z" fill="#F4C914"/>
<path d="M67.5001 179.873C65.7476 180.908 65.0308 180.988 62.3225 181.546C59.0566 182.103 56.1094 183.935 56.1094 183.935L56.9059 185.449C56.9059 185.449 59.0566 185.13 60.8887 183.935C62.0835 183.059 63.597 183.059 66.7832 182.023C69.9694 180.988 71.4828 178.359 71.4828 178.359L70.6863 177.324C70.6066 177.165 69.2525 178.837 67.5001 179.873Z" fill="#3A1716"/>
<path d="M59.1357 180.59C57.3833 181.307 56.7461 182.74 56.7461 182.74C56.7461 182.74 58.1002 181.705 59.534 181.227C60.9678 180.829 62.7202 180.908 64.7116 180.271C63.1982 180.43 60.8882 179.873 59.1357 180.59Z" fill="#3A1716"/>
<path d="M61.6846 178.359L62.8794 178.439L63.5166 176.766L62.2422 176.687L61.6846 178.359Z" fill="white"/>
<path d="M59.6934 177.881L60.8882 178.2L61.5254 176.607L60.2509 176.288L59.6934 177.881Z" fill="white"/>
<path d="M40.4957 107.705C41.5312 106.749 41.4516 104.838 41.4516 104.838C41.4516 104.838 39.3009 106.67 38.5043 106.431C39.6195 105.236 39.1416 103.802 39.1416 103.802C39.1416 103.802 37.9467 104.917 36.7519 105.395C34.9198 106.112 31.2557 106.829 31.0167 109.696C30.0609 110.573 29.9016 111.608 30.7778 114.476C31.654 117.343 32.2912 119.335 32.2912 119.335C32.2912 119.335 33.486 118.698 33.8047 118.06C34.1233 117.423 34.2826 114.476 35.1588 112.723C36.035 110.891 41.6905 110.174 41.6905 110.174C42.8854 109.298 43.7616 107.386 43.7616 107.386C43.7616 107.386 41.4516 108.183 40.4957 107.705Z" fill="#3A1716"/>
<path d="M32.9286 115.352C32.5304 117.184 34.5217 117.901 34.5217 117.901L34.92 115.113C34.9997 115.033 33.3269 113.52 32.9286 115.352Z" fill="#F49F60"/>
<path d="M27.5922 131.363L27.1143 133.195C27.1143 133.195 28.7074 133.673 32.9291 133.912C35.2391 134.071 39.3015 133.673 39.3015 133.673L39.6201 131.761C39.6201 131.761 38.1067 131.761 35.7967 131.761C33.4867 131.841 27.5922 131.363 27.5922 131.363Z" fill="#3A1716"/>
<path d="M16.2013 125.15C16.2013 125.15 8.07642 124.114 9.43056 126.583C12.1388 131.602 19.2281 132.717 19.6264 133.036C20.3433 133.593 20.0247 134.788 20.5026 135.903C20.9806 137.178 22.0957 138.293 22.0957 138.293C22.0957 138.293 20.9009 138.213 20.3433 138.691C19.7061 139.169 20.5026 139.806 21.4585 139.886C22.4144 139.886 24.3261 140.045 24.9633 138.133C25.9192 135.346 25.8395 133.912 22.9719 131.044C20.0247 128.256 16.2013 125.15 16.2013 125.15Z" fill="#F49F60"/>
<path d="M26.3966 121.167C24.0866 121.326 18.5107 122.68 18.5107 122.68V123.875C18.5107 123.875 20.9801 123.318 25.7594 122.84C29.9014 122.441 31.4149 122.601 31.4149 122.601L30.8573 121.167C30.8573 121.167 28.7066 121.008 26.3966 121.167Z" fill="#3A1716"/>
<path d="M43.5233 122.202C41.6912 122.282 38.3457 122.043 38.3457 122.043L38.4254 123.397C38.4254 123.397 41.5319 123.716 44.5588 123.636C47.5857 123.556 50.7719 123.317 50.7719 123.317L50.3736 122.043C50.294 122.043 45.0367 122.202 43.5233 122.202Z" fill="#3A1716"/>
<path d="M27.9902 130.168L31.3358 130.407V129.212L28.2292 129.053C28.2292 129.451 28.1495 129.77 27.9902 130.168Z" fill="white"/>
<path d="M18.7497 148.728C17.8735 147.294 19.387 142.913 19.387 142.913L18.5108 142.435C18.5108 142.435 16.6787 145.063 16.6787 147.851C16.6787 151.356 25.4408 155.498 25.4408 155.498L26.6356 154.781C26.6356 154.702 19.5463 150.161 18.7497 148.728Z" fill="white"/>
</g>
</svg>
