<svg width="231" height="231" viewBox="0 0 231 231" fill="none" xmlns="http://www.w3.org/2000/svg">
<mask id="mask0_17347_55275" style="mask-type:alpha" maskUnits="userSpaceOnUse" x="0" y="0" width="231" height="231">
<rect width="231" height="231" rx="8" fill="#D9D9D9"/>
</mask>
<g mask="url(#mask0_17347_55275)">
<path d="M295.397 0H-39V231H295.397V0Z" fill="#E4F4F1"/>
<g opacity="0.81">
<g opacity="0.47">
<path d="M256.284 99.9935C255.01 84.9291 248.883 69.8397 238.269 59.0561C221.731 42.2532 196.714 38.018 174.788 41.9025C165.605 43.5297 156.497 46.4117 147.094 45.5043C133.379 44.1816 121.299 35.1116 108.812 28.463C91.8147 19.4133 72.3304 14.5424 54.26 18.4801C33.7717 22.9448 16.9729 39.8111 14.9688 62.189C14.0606 72.3289 23.2895 90.1922 20.3771 99.8018C17.4228 109.548 -4.14626 139.402 -3.61435 162.109C-3.08466 184.732 1.88315 191.768 8.90282 203.266H14.514H225.967H238.137C242.508 191.616 256.419 181.358 251.302 166.059C247.213 153.836 247.835 144.71 252.133 133.331C255.958 123.205 257.217 111.027 256.284 99.9935Z" fill="#A5D1EF"/>
</g>
</g>
<g opacity="0.41">
<path d="M-13.4179 107.164C-15.4613 102.53 -13.8736 96.8556 -9.87065 94.4897C-5.86813 92.1238 1.81454 92.3184 3.85793 96.9527C5.90177 101.587 -0.259169 105.543 -2.77651 109.854C-6.28769 115.865 -11.3745 111.799 -13.4179 107.164Z" fill="#A5D1EF"/>
</g>
<g opacity="0.41">
<path d="M142.153 23.5143C144.815 18.8186 150.172 17.4561 154.119 20.4711C158.065 23.4862 161.847 31.8317 159.185 36.5279C156.523 41.2237 150.197 36.7529 145.456 36.3815C138.843 35.8631 139.491 28.2101 142.153 23.5143Z" fill="#A5D1EF"/>
</g>
<g opacity="0.43">
<path d="M230.995 189.938C233.229 176.725 229.648 165.455 228.755 152.5C227.91 140.234 231.571 129.919 233.603 118.236C235.411 107.84 234.809 96.0637 232.539 85.8452C229.441 71.8941 222.304 58.9762 212.024 51.1009C196.004 38.8302 174.639 40.2749 156.943 48.7156C149.531 52.2508 142.352 56.9554 134.415 58.145C122.837 59.8803 111.569 53.9436 100.291 50.3816C84.9388 45.5334 68.0861 45.1735 53.6013 52.826C37.178 61.5024 25.5008 81.0884 26.8651 102.661C27.4831 112.435 30.6456 122.081 29.5265 131.792C28.3909 141.64 23.4735 149.879 20.8701 159.154C17.317 171.814 16.9933 190.42 22.7061 203.266H227.15C228.913 199.066 230.213 194.568 230.995 189.938Z" fill="#A5D1EF"/>
</g>
<g opacity="0.47">
<path d="M192.98 150.015C192.327 142.247 189.188 134.467 183.75 128.906C175.277 120.242 162.461 118.058 151.228 120.061C146.523 120.9 141.857 122.386 137.04 121.918C130.013 121.236 123.824 116.559 117.427 113.131C108.719 108.465 98.7369 105.953 89.479 107.984C78.9825 110.286 70.376 118.983 69.3491 130.522C68.8837 135.75 73.612 144.961 72.1197 149.916C70.606 154.942 59.5562 170.336 59.8282 182.045C60.0997 193.71 62.6447 197.338 66.241 203.267H69.116H177.448H183.683C185.922 197.26 187.677 192.455 185.055 184.566C182.96 178.264 188.651 173.073 190.853 167.206C192.813 161.984 193.458 155.704 192.98 150.015Z" fill="#A5D1EF"/>
</g>
<g opacity="0.7">
<path d="M183.394 110.098H73.0039V55.3623H183.394V110.098ZM73.3383 109.751H183.06V55.7088H73.3383V109.751Z" fill="white"/>
<g opacity="0.39">
<path d="M178.187 106.191H78.0137V59.2692H178.187V106.191ZM78.8301 105.896H177.371V59.5639H78.8301V105.896Z" fill="white"/>
</g>
<path d="M77.0699 67.1792L77.0654 66.7865L179.028 66.6281L179.032 67.0207L77.0699 67.1792Z" fill="white"/>
<path d="M77.0884 68.775L77.084 68.3818L179.045 68.2234L179.049 68.6165L77.0884 68.775Z" fill="white"/>
<path d="M77.107 70.3173L77.1025 69.9241L179.064 69.7656L179.069 70.1588L77.107 70.3173Z" fill="white"/>
<path d="M77.1265 71.8594L77.1221 71.4662L179.083 71.3077L179.087 71.7009L77.1265 71.8594Z" fill="white"/>
<path d="M77.1476 73.6677L77.1436 73.2746L179.104 73.1161L179.108 73.5092L77.1476 73.6677Z" fill="white"/>
<path d="M77.1627 74.9435L77.1582 74.5503L179.12 74.3923L179.124 74.785L77.1627 74.9435Z" fill="white"/>
<g opacity="0.29">
<path d="M178.05 92.282L177.823 92.1924L94.9131 59.4287L122.248 59.5567L178.05 83V92.282ZM96.7478 59.7831L177.716 91.7789V83.2328L122.152 59.8903L96.7478 59.7831Z" fill="white"/>
<path d="M178.593 92.7883L178.366 92.6987L93.665 59.2268L122.499 59.3608L178.593 82.9265V92.7883ZM95.5002 59.5812L178.259 92.2857V83.1603L122.404 59.6948L95.5002 59.5812ZM177.505 91.7756L177.278 91.686L96.161 59.6306L121.996 59.7521L177.505 83.0729V91.7756ZM97.9957 59.985L177.171 91.273V83.3062L121.9 60.0857L97.9957 59.985Z" fill="white"/>
</g>
<g opacity="0.29">
<path d="M179.063 101.147C179.043 101.147 179.022 101.143 179.002 101.135L77.056 59.5562C76.9704 59.5211 76.928 59.4204 76.9619 59.3317C76.9953 59.2425 77.0916 59.1991 77.1786 59.2337L179.124 100.812C179.21 100.847 179.252 100.948 179.218 101.037C179.193 101.105 179.13 101.147 179.063 101.147Z" fill="white"/>
<path d="M178.65 101.287L178.595 101.265L76.2061 59.5048L77.5321 59.0807L77.5869 59.1029L179.976 100.863L178.65 101.287ZM77.2159 59.545L178.663 100.92L178.966 100.823L77.5187 59.448L77.2159 59.545Z" fill="white"/>
</g>
</g>
<path d="M4.83032 203.267H11.2606H253.565H267.511C272.416 192.165 276.148 183.337 270.8 168.991L-9.21973 168.891C-7.84379 186.518 -2.47783 193.102 4.83032 203.267Z" fill="#7E88E6"/>
<path d="M-9.05457 170.72H271.404C271.11 169.827 270.78 168.912 270.411 167.975C270.29 167.669 270.184 167.364 270.086 167.06H-9.34082C-9.26458 168.334 -9.16916 169.553 -9.05457 170.72Z" fill="#5574D8"/>
<path opacity="0.32" d="M271.341 170.526H-9.07812C-8.74105 174.037 -8.23366 177.089 -7.5778 179.822H273.321C273.099 176.955 272.475 173.892 271.341 170.526Z" fill="#5574D8"/>
<path d="M-8.13537 27.5606L1.64598 45.9279L-1.47595 46.0484L2.55287 36.6426L3.52485 34.3732L4.57887 36.4786L13.8412 54.9789C13.9358 55.1674 13.8644 55.3998 13.6825 55.4977C13.5091 55.591 13.2968 55.5273 13.1956 55.3582L2.62688 37.6257L4.65288 37.4617L1.69458 47.2857L0.271387 52.0119L-1.42735 47.4063L-8.6548 27.8105C-8.71142 27.6571 -8.63741 27.4853 -8.48938 27.4266C-8.35384 27.3726 -8.20358 27.4326 -8.13537 27.5606Z" fill="#FF8383"/>
<path d="M24.1032 47.7952L22.0308 37.2283L20.8818 31.3701L24.8273 35.785L28.2881 39.6579L26.4337 40.5196L27.3535 29.901C27.3718 29.6889 27.5528 29.5323 27.7575 29.5512C27.9439 29.5688 28.0856 29.7254 28.0959 29.9134L28.6778 40.5575L28.8013 42.8176L26.8234 41.4191L22.6158 38.4443L25.4123 37.001L24.6748 47.7568C24.6637 47.9217 24.5254 48.046 24.3663 48.034C24.2338 48.0243 24.1286 47.9236 24.1032 47.7952Z" fill="#FF8383"/>
<path d="M233.801 47.6104L233.661 36.8283L236.372 38.4356L232.006 41.1549L229.954 42.4333L230.202 40.1842L231.373 29.5924C231.396 29.3808 231.581 29.2288 231.785 29.2533C231.971 29.2755 232.109 29.4358 232.115 29.6238L232.445 40.2794L230.641 39.3088L234.311 35.6483L238.495 31.4755L237.023 37.2556L234.368 47.6816C234.328 47.8414 234.169 47.9366 234.015 47.8946C233.888 47.8608 233.802 47.7416 233.801 47.6104Z" fill="#FF8383"/>
<path d="M71.3404 117.402L51.0781 137.398H205.319L185.884 117.402H71.3404Z" fill="#00C097"/>
<path d="M205.319 137.398H51.0781V140.925H205.319V137.398Z" fill="#353148"/>
<path d="M193.164 125.703H63.2339C62.9874 125.703 62.7881 125.496 62.7881 125.241C62.7881 124.985 62.9874 124.779 63.2339 124.779H193.164C193.41 124.779 193.61 124.985 193.61 125.241C193.61 125.496 193.41 125.703 193.164 125.703Z" fill="white"/>
<path d="M121.643 117.402H119.7V101.728C119.7 101.307 120.029 100.967 120.435 100.967H120.909C121.315 100.967 121.643 101.308 121.643 101.728V117.402Z" fill="#353148"/>
<path d="M121.644 102.749L136.364 120.469V131.656L121.644 112.153V102.749Z" fill="white"/>
<path d="M136.697 137.398H134.754V119.666C134.754 119.352 135 119.097 135.303 119.097H136.148C136.451 119.097 136.697 119.351 136.697 119.666V137.398Z" fill="#353148"/>
<path opacity="0.28" d="M142.718 85.7449C140.775 83.2381 137.062 82.4643 134.031 82.3982C124.681 82.1954 114.662 85.0358 106.992 90.6541C104.764 92.2864 102.202 94.2753 100.852 96.7798C107.432 93.3416 114.6 90.8468 121.967 90.6486C120.369 91.3273 117.485 93.5883 116.117 94.6805C119.428 93.4705 120.915 92.8422 127.455 94.4587C131.078 95.3541 135.009 95.7962 138.699 95.1189C139.924 94.8939 141.162 94.5197 142.136 93.7177C143.631 92.4869 144.285 90.322 143.901 88.3843C143.695 87.3421 143.28 86.4707 142.718 85.7449Z" fill="#FF8400"/>
<path opacity="0.82" d="M136.5 86.2689C135.152 84.5304 132.577 83.9936 130.475 83.9479C123.99 83.8069 117.041 85.7769 111.722 89.6739C110.176 90.8058 108.399 92.1853 107.463 93.9224C112.027 91.5381 116.998 89.8074 122.108 89.6702C120.999 90.141 118.999 91.709 118.05 92.4662C120.346 91.6272 121.377 91.1916 125.914 92.3124C128.426 92.9333 131.153 93.2401 133.712 92.7702C134.562 92.614 135.42 92.3549 136.096 91.7982C137.132 90.9444 137.586 89.4429 137.32 88.0989C137.177 87.3768 136.89 86.7725 136.5 86.2689Z" fill="#FF8400"/>
<path d="M134.001 88.2445C134.228 89.4406 133.476 90.6011 132.322 90.8363C131.168 91.0714 130.048 90.293 129.821 89.0969C129.594 87.9007 130.345 86.7407 131.499 86.505C132.654 86.2694 133.774 87.0484 134.001 88.2445Z" fill="white"/>
<path opacity="0.64" d="M134 88.2443C133.937 87.914 133.801 87.6197 133.62 87.3656C133.648 87.4511 133.679 87.5347 133.697 87.6252C133.924 88.8214 133.172 89.9814 132.018 90.2171C131.183 90.3875 130.37 90.0221 129.896 89.3564C130.227 90.4 131.255 91.0538 132.322 90.8361C133.476 90.601 134.228 89.4404 134 88.2443Z" fill="#353148"/>
<path d="M62.8022 139.161H60.1992V188.013H62.8022V139.161Z" fill="#353148"/>
<path d="M81.4569 139.161H78.8535V183.531H81.4569V139.161Z" fill="#353148"/>
<path d="M193.594 188.013H196.197V139.161H193.594V188.013Z" fill="#353148"/>
<path d="M174.94 183.532H177.543V139.161H174.94V183.532Z" fill="#353148"/>
<path d="M194.414 151.256H62.1979C61.4591 151.256 60.8604 150.635 60.8604 149.87C60.8604 149.104 61.4591 148.484 62.1979 148.484H194.414C195.153 148.484 195.751 149.104 195.751 149.87C195.751 150.635 195.153 151.256 194.414 151.256Z" fill="#353148"/>
<path d="M194.414 166.277H62.198C61.692 166.277 61.2296 165.981 61.0027 165.513C60.7757 165.044 60.823 164.484 61.1244 164.063L79.082 139.059C79.5225 138.445 80.3612 138.318 80.9533 138.775C81.5458 139.231 81.6689 140.1 81.2275 140.714L64.8598 163.505H191.736L175.171 140.642C174.728 140.03 174.847 139.161 175.438 138.702C176.028 138.243 176.867 138.366 177.311 138.978L195.483 164.059C195.787 164.478 195.836 165.041 195.61 165.511C195.384 165.98 194.921 166.277 194.414 166.277Z" fill="#353148"/>
<path opacity="0.51" d="M235.714 191.815C255.424 191.815 271.403 189.431 271.403 186.489C271.403 183.547 255.424 181.162 235.714 181.162C216.003 181.162 200.024 183.547 200.024 186.489C200.024 189.431 216.003 191.815 235.714 191.815Z" fill="#5574D8"/>
<path d="M218.277 170.333L218.917 175.037L218.003 176.615C216.201 178.204 213.634 178.461 211.571 177.262L212.678 176.132L211.397 172.114L218.277 170.333Z" fill="#F98178"/>
<path d="M211.772 176.267L209.979 179.677C209.927 179.727 208.978 181.021 208.915 181.053C208.168 181.824 207.317 182.478 206.386 182.992C204.76 183.89 202.741 185.223 202.919 186.516C202.978 186.943 205.48 187.479 205.879 187.367L221.073 182.249C221.172 182.222 221.381 182.113 221.525 181.871C222.238 180.677 221.605 179.254 220.902 178.054L219.571 175.231C219.401 174.87 218.926 174.815 218.684 175.128C218.682 175.13 218.68 175.133 218.678 175.135C217.236 177.001 215.179 177.224 213.15 176.085C213.099 176.099 212.882 176.014 212.652 175.926C212.318 175.797 211.943 175.943 211.772 176.267Z" fill="#FF8200"/>
<path d="M206.653 182.838C207.48 182.35 208.241 181.75 208.915 181.054C208.978 181.021 209.927 179.728 209.979 179.678L210.827 178.064L211.772 176.268C211.803 176.208 211.841 176.155 211.885 176.108C211.872 176.122 211.859 176.137 211.847 176.152C211.927 176.02 212.057 175.796 212.176 175.548C212.381 175.12 212.982 175.108 213.178 175.539C213.185 175.554 213.191 175.569 213.197 175.585C213.261 175.759 213.321 175.966 213.361 176.199C213.627 177.764 212.975 180.557 206.524 183.04C206.524 183.04 206.57 182.967 206.653 182.838Z" fill="#FA9E00"/>
<path d="M212.758 179.12C212.733 179.12 212.708 179.114 212.684 179.102L210.761 178.112C210.678 178.069 210.644 177.965 210.685 177.879C210.726 177.793 210.828 177.76 210.91 177.801L212.833 178.791C212.916 178.834 212.95 178.938 212.908 179.024C212.879 179.085 212.82 179.12 212.758 179.12Z" fill="#EAEAEA"/>
<path d="M211.97 180.385C211.945 180.385 211.92 180.379 211.896 180.367L209.973 179.377C209.89 179.334 209.856 179.23 209.897 179.144C209.939 179.058 210.04 179.024 210.122 179.066L212.045 180.057C212.127 180.1 212.161 180.203 212.12 180.289C212.091 180.35 212.031 180.385 211.97 180.385Z" fill="#EAEAEA"/>
<path d="M211.072 181.681C211.046 181.681 211.021 181.675 210.997 181.663L209.074 180.673C208.992 180.63 208.958 180.526 208.999 180.44C209.04 180.354 209.141 180.32 209.223 180.362L211.147 181.353C211.229 181.396 211.263 181.499 211.222 181.585C211.193 181.646 211.133 181.681 211.072 181.681Z" fill="#EAEAEA"/>
<path d="M218.213 181.647C217.942 181.647 217.676 181.573 217.436 181.429C217.077 181.213 216.821 180.866 216.715 180.451C216.608 180.035 216.664 179.602 216.872 179.23C217.08 178.859 217.416 178.593 217.816 178.483C218.217 178.372 218.635 178.43 218.994 178.647C219.353 178.862 219.609 179.21 219.715 179.625C219.822 180.04 219.765 180.473 219.558 180.845C219.349 181.217 219.014 181.482 218.614 181.592C218.48 181.629 218.346 181.647 218.213 181.647ZM218.217 178.775C218.112 178.775 218.006 178.789 217.902 178.818C217.588 178.905 217.325 179.113 217.162 179.405C216.998 179.696 216.954 180.036 217.038 180.362C217.122 180.688 217.323 180.96 217.604 181.129C217.885 181.299 218.213 181.343 218.527 181.257C218.842 181.171 219.105 180.963 219.268 180.671C219.431 180.379 219.475 180.039 219.391 179.714C219.308 179.388 219.107 179.115 218.825 178.946C218.637 178.833 218.428 178.775 218.217 178.775Z" fill="#EAEAEA"/>
<path d="M221.718 181.302C221.718 181.302 224.655 183.428 220.715 184.583C216.774 185.738 206.418 188.519 206.418 188.519C206.418 188.519 203.583 188.622 202.874 186.394C202.874 186.394 204.807 188.369 210.439 185.281C216.07 182.193 215.057 183.171 218.557 182.697C222.057 182.222 221.718 181.302 221.718 181.302Z" fill="white"/>
<path d="M221.415 118.239L202.727 138.608C200.949 141.046 202.376 144.758 203.206 147.69L210.565 173.866C210.731 174.456 211.297 174.822 211.881 174.718L218.628 173.513C219.237 173.359 219.626 172.742 219.519 172.103L216.671 147.699L240.854 133.722C244.5 131.615 246.322 127.228 245.292 123.035L243.809 117.048L221.415 118.239Z" fill="#30293A"/>
<path d="M263.598 163.606L246.63 146.791L245.523 126.413L239.714 124.443L245.518 126.411C245.633 125.303 245.569 124.163 245.292 123.035L243.809 117.048L221.415 118.239L229.877 146.921C231.167 151.066 235.283 154.218 238.64 156.839C245.94 162.541 257.615 171.568 257.615 171.568L263.632 164.346C263.812 164.128 263.797 163.804 263.598 163.606Z" fill="#353148"/>
<path d="M244.118 89.2096L249.216 77.9248C249.602 77.0617 249.169 76.043 248.293 75.7575C240.874 73.3417 238.297 70.3165 225.866 70.7966C219.393 71.0465 211.817 72.6501 207.408 76.8723C205.624 78.5803 203.581 79.9733 201.668 81.5233C201.209 81.8947 201.106 82.5711 201.432 83.071L208.167 93.393C208.684 94.1798 209.75 94.3161 210.436 93.6831L214.788 89.6656L216.672 118.35C216.819 119.955 218.221 121.127 219.792 120.96L242.822 118.5C244.926 118.276 246.24 116.061 245.459 114.055L241.058 89.1306L242.715 89.7935C243.259 90.0116 243.871 89.7561 244.118 89.2096Z" fill="#FA9E00"/>
<path opacity="0.32" d="M239.806 105.975C237.291 107.333 234.778 108.697 232.256 110.04C232.075 110.137 231.89 110.236 231.75 110.387C231.541 110.611 231.448 110.944 231.508 111.248C231.568 111.553 231.78 111.821 232.056 111.942C232.38 112.083 232.753 112.024 233.087 111.912C233.527 111.763 233.962 111.606 234.404 111.462C234.838 111.319 235.154 111.889 234.817 112.207C233.59 113.361 232.361 114.514 231.131 115.666C230.888 115.893 230.63 116.149 230.586 116.484C230.527 116.943 230.988 117.386 231.425 117.29C231.602 117.25 231.756 117.143 231.906 117.037C232.841 116.376 233.805 115.755 234.712 115.054C235.418 114.508 235.947 114.269 236.425 113.827C236.268 113.973 236.018 114.166 235.861 114.311C234.911 115.189 233.973 116.078 232.99 116.914C232.837 117.043 232.712 117.253 232.648 117.447C232.605 117.574 232.602 117.716 232.641 117.845C232.681 117.973 232.768 118.089 232.884 118.149C233.021 118.22 233.187 118.211 233.332 118.159C233.581 118.07 233.818 117.942 234.029 117.781C234.634 117.319 235.235 116.852 235.842 116.392C236.46 115.923 237.057 115.39 237.704 114.966C237.525 115.084 237.372 115.267 237.221 115.419C236.906 115.739 236.597 116.067 236.292 116.398C235.986 116.73 235.582 117.085 235.552 117.576C235.539 117.783 235.62 118.016 235.803 118.099C235.888 118.137 235.985 118.139 236.075 118.122C236.376 118.065 236.61 117.827 236.83 117.626C237.045 117.429 237.26 117.232 237.475 117.036C237.91 116.639 238.345 116.241 238.775 115.837C239.023 115.609 239.272 115.382 239.52 115.154L238.821 116.244C238.547 116.658 238.27 117.525 238.708 117.742C238.96 117.866 239.261 117.781 239.418 117.542L244.315 111.122L243.908 111.137C243.984 111.067 244.061 110.996 244.138 110.926L244.315 111.122L244.804 110.344L242.784 98.9003L239.806 105.975Z" fill="#FF8400"/>
<path opacity="0.63" d="M214.788 89.6663L217.686 86.9918L215.311 97.6284L214.788 89.6663Z" fill="#FF8400"/>
<path opacity="0.63" d="M224.27 80.3509L225.165 80.2086C228.554 79.6695 230.901 76.3555 230.382 72.8439L230.075 70.7732C228.805 70.7325 227.412 70.7376 225.866 70.7972C222.918 70.9113 219.744 71.3105 216.742 72.1051L217.163 74.9464C217.683 78.4576 220.881 80.8901 224.27 80.3509Z" fill="#FF8400"/>
<path d="M223.114 111.958C222.769 111.387 222.283 110.684 221.688 110.069C221.512 109.302 220.971 107.247 220.035 106.287C218.871 105.094 216.729 105.132 216.729 105.132L214.537 104.134L206.178 95.6894L208.377 93.6492L201.629 83.3739L196.101 87.7999C193.258 90.3718 193.103 94.8976 195.764 97.6714L210.642 110.698L210.674 110.651L215.057 115.383C215.464 116.008 216.283 116.173 216.886 115.751C217.062 115.628 217.108 115.381 216.99 115.199L216.787 114.887L217.317 115.702C217.691 116.277 218.443 116.428 218.997 116.041L219.113 115.961C219.521 115.675 219.629 115.101 219.353 114.677L218.622 113.554L219.628 115.1C219.957 115.605 220.618 115.738 221.106 115.397L221.258 115.291C221.754 114.944 221.885 114.246 221.551 113.732L220.834 112.631L221.37 113.454C221.676 113.925 222.293 114.049 222.748 113.731C223.311 113.338 223.475 112.554 223.114 111.958Z" fill="#F98178"/>
<path opacity="0.57" d="M220.384 112.402C220.317 112.29 220.348 112.144 220.453 112.07C220.562 111.995 220.708 112.025 220.78 112.138L221.73 113.61C221.81 113.709 221.774 113.874 221.666 113.949C221.557 114.024 221.411 113.994 221.339 113.882L220.389 112.41C220.387 112.407 220.385 112.404 220.384 112.402Z" fill="#E05757"/>
<path opacity="0.57" d="M219.384 115.236C219.383 115.234 219.383 115.234 219.383 115.232L218.274 113.313C218.207 113.197 218.243 113.048 218.355 112.978C218.466 112.909 218.601 112.958 218.678 113.062L219.787 114.981C219.854 115.097 219.817 115.247 219.706 115.316C219.595 115.385 219.452 115.349 219.384 115.236Z" fill="#E05757"/>
<path opacity="0.57" d="M207.307 94.6431L204.325 92.8755L206.179 95.6895L207.307 94.6431Z" fill="#E05757"/>
<path opacity="0.57" d="M216.094 114.136C216.027 114.024 216.058 113.877 216.163 113.804C216.272 113.729 216.418 113.759 216.49 113.871L217.383 115.256C217.461 115.36 217.425 115.518 217.318 115.594C217.209 115.669 217.063 115.639 216.991 115.527L216.098 114.143C216.097 114.14 216.096 114.138 216.094 114.136Z" fill="#E05757"/>
<path opacity="0.57" d="M218.217 106.823L221.698 110.112C221.698 110.112 219.079 106.582 218.217 106.823Z" fill="#E05757"/>
<path d="M220.805 106.163L221.768 106.795C224.792 108.778 228.794 107.847 230.709 104.714L233.095 100.81C235.01 97.677 234.111 93.5296 231.087 91.5458L230.124 90.9138C227.1 88.9299 223.098 89.8613 221.183 92.9941L218.797 96.8985C216.883 100.031 217.781 104.179 220.805 106.163Z" fill="#6AC3D3"/>
<path opacity="0.46" d="M224.889 106.816C223.801 106.816 222.733 106.497 221.791 105.879L221.586 105.745C218.878 103.968 218.07 100.239 219.785 97.4329L221.784 94.1611C223.499 91.3553 227.097 90.5173 229.806 92.2946L230.01 92.4286C231.322 93.2893 232.232 94.6281 232.572 96.198C232.913 97.7679 232.642 99.3812 231.811 100.741L229.812 104.013C228.982 105.372 227.69 106.315 226.175 106.668C225.748 106.766 225.317 106.816 224.889 106.816ZM221.765 105.452L221.969 105.586C223.205 106.397 224.674 106.661 226.101 106.329C227.529 105.997 228.747 105.108 229.53 103.827L231.529 100.555C232.312 99.2736 232.567 97.7531 232.246 96.2733C231.925 94.7935 231.067 93.5318 229.831 92.7205L229.627 92.5866C227.074 90.9114 223.682 91.7 222.066 94.3459L220.067 97.6177C218.452 100.263 219.213 103.777 221.765 105.452Z" fill="white"/>
<path d="M221.286 106.479C219.348 105.207 218.213 103.117 218.033 100.917L227.156 107.279C225.25 107.894 223.105 107.672 221.286 106.479Z" fill="#121936"/>
<path d="M225.053 107.842C223.691 107.842 222.344 107.446 221.167 106.674C219.229 105.402 218.006 103.311 217.812 100.937L217.772 100.457L227.667 107.357L227.223 107.5C226.511 107.729 225.78 107.842 225.053 107.842ZM221.406 106.284C222.965 107.306 224.843 107.627 226.629 107.19L218.312 101.391C218.612 103.414 219.721 105.179 221.406 106.284Z" fill="#121936"/>
<path d="M220.944 109.398L222.877 105.818C223.167 105.277 222.999 104.596 222.494 104.265L222.485 104.259C221.994 103.936 221.346 104.054 220.99 104.531L218.868 107.438L220.944 109.398Z" fill="#121936"/>
<path d="M222.778 43.9548C222.012 43.3029 220.961 43.0373 219.936 43.3399C219.424 43.491 218.98 43.7659 218.623 44.1235C217.828 42.7351 216.208 42.0153 214.639 42.4783C213.163 42.9139 212.181 44.2653 212.095 45.7682C211.738 45.7409 211.372 45.758 211.004 45.8352C208.764 46.3046 207.312 48.6303 207.761 51.0304C208.085 52.7582 209.307 54.0481 210.801 54.4635L211.126 57.734C211.306 59.5482 212.871 60.8682 214.623 60.6825L228.22 59.2415L228.003 57.0673C228.347 57.1043 228.745 57.1431 229.202 57.1523C229.202 57.1523 231.305 44.5785 222.778 43.9548Z" fill="#121936"/>
<path d="M227.081 60.5104C227.065 60.4097 227.041 60.3127 227.021 60.2143C227.154 60.193 227.284 60.1639 227.409 60.1223C228.55 59.7453 229.317 58.5543 229.199 57.238C229.198 57.221 229.198 57.2043 229.196 57.1872C229.034 55.6723 227.756 54.5792 226.342 54.7456L226.29 54.7516L226.088 54.7751C222.989 56.0087 223.261 57.4335 223.32 57.6252C223.321 57.6284 223.324 57.6321 223.325 57.6358C223.332 57.6552 223.328 57.6502 223.32 57.6252C223.124 57.1096 222.574 56.5326 222.489 55.9569C222.306 54.6998 222.884 53.2732 222.399 52.0928C222.235 51.694 222.005 51.3346 221.736 51.0131C221.113 51.6894 220.236 52.1126 219.261 52.1126C218.664 52.1126 218.103 51.9537 217.614 51.6751C217.033 52.144 216.305 52.4263 215.512 52.4263C215.073 52.4263 214.655 52.3376 214.269 52.1819C213.679 53.0768 212.703 53.6714 211.59 53.7218L211.796 55.6469L212.003 57.5869L212.733 64.4083C212.733 64.4087 212.733 64.4087 212.733 64.4092L212.767 64.7285C213.067 67.5314 215.164 69.6538 217.686 69.9241L218.278 73.8109C218.754 76.9331 221.503 79.0639 224.418 78.5695C227.333 78.0752 229.31 75.1438 228.835 72.0211L227.081 60.5104Z" fill="#F98178"/>
<path d="M217.687 69.9239C217.687 69.9239 221.482 69.9812 224.182 66.6201C224.182 66.6201 223.361 71.1412 218.289 73.2498L217.687 69.9239Z" fill="#E05757"/>
<path d="M227.064 58.4197C227.047 58.4197 227.028 58.4169 227.01 58.4105L226.109 58.0926C226.023 58.0621 225.976 57.9646 226.005 57.8746L226.491 56.3421C226.52 56.2511 226.614 56.2017 226.702 56.2317C226.79 56.2617 226.838 56.3597 226.809 56.4507L226.374 57.8205L227.118 58.0829C227.205 58.1139 227.253 58.2123 227.223 58.3024C227.199 58.3744 227.134 58.4197 227.064 58.4197Z" fill="#E05757"/>
<path d="M217.978 66.2166C218.005 66.2074 218.029 66.1889 218.046 66.1625C218.087 66.0988 218.07 66.0129 218.009 65.9699C217.746 65.786 217.101 65.5564 216.536 66.0013C216.477 66.048 216.466 66.1353 216.511 66.1958C216.555 66.2568 216.639 66.2693 216.699 66.2221C217.248 65.7879 217.835 66.1829 217.86 66.2C217.896 66.2258 217.939 66.23 217.978 66.2166Z" fill="#E05757"/>
<path d="M216.973 56.0043C217.121 55.8135 217.381 55.7017 217.626 55.5793C217.876 55.461 218.124 55.3358 218.336 55.2189C218.548 55.102 218.788 54.9593 219.022 54.811C219.258 54.6691 219.494 54.5074 219.727 54.4894C219.949 54.4691 220.141 54.6566 220.069 55.0567C220.007 55.4416 219.63 56.0306 218.928 56.4192C218.226 56.8031 217.552 56.7925 217.218 56.6262C216.866 56.4584 216.83 56.1854 216.973 56.0043Z" fill="#121936"/>
<path d="M214.376 56.3127C214.207 56.2106 213.973 56.205 213.748 56.1861C213.521 56.1718 213.293 56.1519 213.095 56.1274C212.897 56.1029 212.671 56.0664 212.447 56.0244C212.224 55.9874 211.994 55.9361 211.809 55.9939C211.631 56.047 211.537 56.2517 211.708 56.5386C211.867 56.8172 212.329 57.1558 212.983 57.2385C213.637 57.318 214.155 57.1013 214.366 56.8685C214.589 56.631 214.539 56.4088 214.376 56.3127Z" fill="#121936"/>
<path d="M213.945 58.4801C214.112 58.6885 214.084 58.998 213.883 59.1713C213.682 59.3445 213.383 59.3154 213.216 59.1071C213.048 58.8987 213.077 58.5892 213.278 58.4159C213.479 58.2431 213.778 58.2718 213.945 58.4801Z" fill="#121936"/>
<path d="M219.091 57.847C219.278 58.0817 219.247 58.4296 219.021 58.6241C218.795 58.8186 218.459 58.7863 218.271 58.5516C218.083 58.3169 218.115 57.969 218.341 57.7745C218.567 57.5804 218.903 57.6123 219.091 57.847Z" fill="#121936"/>
<path d="M216.913 61.1477C216.956 61.1325 216.985 61.0886 216.981 61.0396C216.976 60.9823 216.927 60.9403 216.871 60.9454L215.952 61.0308C215.345 61.0872 214.8 60.5513 214.739 59.837L214.73 59.7382C214.704 59.4411 214.885 59.1801 215.136 59.157C215.417 59.1306 215.671 58.9791 215.85 58.7296C216.026 58.4838 216.107 58.172 216.08 57.8518L215.947 56.3942C215.941 56.3369 215.892 56.2949 215.837 56.3004C215.783 56.3069 215.741 56.3568 215.746 56.4141L215.879 57.8717C215.903 58.1406 215.835 58.4021 215.689 58.6063C215.545 58.8072 215.343 58.9292 215.118 58.95C214.758 58.9833 214.495 59.3455 214.531 59.7571L214.539 59.856C214.611 60.6853 215.253 61.3053 215.971 61.2387L216.89 61.1533C216.898 61.1519 216.906 61.15 216.913 61.1477Z" fill="#E05757"/>
<path d="M215.864 61.4162C215.512 61.4162 215.173 61.2739 214.898 61.0092C214.597 60.7186 214.411 60.3144 214.373 59.8704L214.364 59.7724C214.321 59.2647 214.652 58.8184 215.103 58.7768C215.279 58.7607 215.44 58.6632 215.554 58.5024C215.676 58.3319 215.732 58.1134 215.713 57.8861L215.58 56.4294C215.566 56.2797 215.673 56.1444 215.818 56.1277C215.894 56.1199 215.962 56.143 216.017 56.1896C216.072 56.2368 216.106 56.3038 216.113 56.3777L216.246 57.8353C216.277 58.1984 216.184 58.5523 215.984 58.8327C215.777 59.1224 215.481 59.2984 215.151 59.3294C215.068 59.3372 215.013 59.3867 214.98 59.4273C214.918 59.504 214.888 59.6117 214.897 59.7221L214.906 59.8219C214.959 60.4405 215.42 60.9071 215.938 60.8582L216.857 60.7727C216.928 60.7667 216.997 60.7884 217.052 60.8364C217.107 60.884 217.141 60.9505 217.147 61.0249C217.158 61.1515 217.085 61.2693 216.968 61.3114L216.903 61.3257L215.985 61.4107C215.945 61.4144 215.905 61.4162 215.864 61.4162Z" fill="#E05757"/>
<path d="M218.075 62.4963C217.999 62.4963 217.93 62.4413 217.912 62.3605C217.892 62.2671 217.949 62.1747 218.039 62.1535L219.885 61.7266C220.059 61.6864 220.204 61.5764 220.293 61.4171C220.382 61.2577 220.402 61.0724 220.35 60.8964C220.323 60.8049 220.373 60.7079 220.461 60.6797C220.55 60.6506 220.643 60.7028 220.67 60.7943C220.749 61.0599 220.717 61.3505 220.583 61.5908C220.447 61.831 220.22 62.0038 219.959 62.0648L218.112 62.4917C218.099 62.4949 218.087 62.4963 218.075 62.4963Z" fill="#E05757"/>
<path opacity="0.51" d="M32.6842 192.71C52.3948 192.71 68.3734 190.325 68.3734 187.383C68.3734 184.441 52.3948 182.056 32.6842 182.056C12.9737 182.056 -3.00488 184.441 -3.00488 187.383C-3.00488 190.325 12.9737 192.71 32.6842 192.71Z" fill="#5574D8"/>
<path d="M48.609 60.4137L48.9701 60.3042L49.0553 58.3781C49.181 55.5294 46.6057 53.0827 43.3032 52.9131L42.9862 52.897C42.4324 52.2904 41.6914 51.9013 40.8599 51.8625L37.725 51.7156C35.3147 51.6024 33.0894 52.665 31.4606 54.4502C26.7389 54.106 22.5318 57.3663 21.8928 62.0187L20.751 70.3338C24.0334 70.8175 27.051 68.6119 27.4911 65.4065L27.9789 61.8551C28.0845 61.085 28.4292 60.4082 28.9277 59.8819C28.8733 60.2455 28.8318 60.6142 28.8135 60.9907C28.7373 62.5518 29.493 63.93 30.6384 64.5703L30.1346 67.7821C29.7677 70.1212 31.3005 72.3259 33.558 72.7057L35.2117 72.9843C37.4691 73.3645 39.5967 71.7761 39.9632 69.437L40.5045 65.9863C40.645 65.0891 40.5045 64.2132 40.1527 63.4509C41.0021 62.8032 41.7489 61.9914 42.3522 61.0462C43.3897 61.3257 44.4856 61.3922 45.5717 61.2347L46.0395 68.2206C49.9737 64.3536 49.7736 61.899 48.609 60.4137Z" fill="#121936"/>
<path d="M39.4685 59.5768C39.1011 62.0878 36.9521 63.9538 34.4508 63.829L32.0177 63.708C30.7987 63.9616 29.8397 65.0385 29.7585 66.3816L29.7545 66.4481C29.6582 68.0485 30.8429 69.4391 32.3869 69.5389L33.5136 69.6119L32.3757 78.7909C32.1466 81.4169 34.5074 83.1471 37.0823 83.3887L37.1893 83.3989C39.7646 83.6405 42.059 81.689 42.2882 79.063L42.495 76.6939C45.522 76.1912 47.8289 73.471 47.8102 70.1945L47.7576 60.8745C47.7571 60.8071 47.7491 60.7419 47.7469 60.675L46.7508 60.9766C44.2156 61.744 41.4803 61.2136 39.4685 59.5768Z" fill="#FFA698"/>
<path d="M42.4891 76.7063C42.4891 76.7063 36.9711 76.4577 36.2278 74.345C36.2278 74.345 35.7075 77.4136 42.1912 79.6474L42.4891 76.7063Z" fill="#FF6969"/>
<path d="M32.1984 67.5964C32.1182 67.5964 32.0406 67.5511 32.0009 67.4721C31.9438 67.3589 31.9866 67.2194 32.0954 67.1602L32.8364 66.7597L32.1204 65.7521C32.0473 65.6495 32.0687 65.5049 32.1672 65.4291C32.2666 65.3538 32.4062 65.3751 32.4789 65.4781L33.3496 66.7024C33.3884 66.7565 33.4022 66.8258 33.3875 66.8914C33.3728 66.957 33.3309 67.0129 33.2734 67.0443L32.3014 67.5696C32.2689 67.5881 32.2336 67.5964 32.1984 67.5964Z" fill="#FC6969"/>
<path d="M46.7344 66.7987C46.7166 67.1101 46.458 67.3471 46.1579 67.3286C45.8574 67.3101 45.6286 67.0422 45.6465 66.7312C45.6648 66.4198 45.9225 66.1828 46.223 66.2013C46.5235 66.2198 46.7527 66.4873 46.7344 66.7987Z" fill="#121936"/>
<path d="M41.7363 66.4756C41.7185 66.787 41.4604 67.024 41.1598 67.0055C40.8593 66.987 40.6306 66.7191 40.6484 66.4081C40.6663 66.0967 40.9249 65.8597 41.2249 65.8782C41.5254 65.8972 41.7546 66.1646 41.7363 66.4756Z" fill="#121936"/>
<path d="M42.8187 73.0238C42.7572 73.0238 42.6965 72.9974 42.6519 72.9461C42.5703 72.851 42.5784 72.705 42.6707 72.62C43.3524 71.9903 44.1478 72.4472 44.1821 72.4666C44.2891 72.5294 44.3266 72.6703 44.266 72.7817C44.2049 72.8925 44.0689 72.9304 43.9623 72.8685C43.9351 72.8524 43.4063 72.5594 42.9672 72.9646C42.9244 73.0048 42.8713 73.0238 42.8187 73.0238Z" fill="#FC6969"/>
<path d="M42.5723 63.9871C42.4604 63.8152 42.2473 63.7029 42.048 63.5814C41.8446 63.4641 41.6431 63.3407 41.4719 63.2271C41.3003 63.1134 41.1072 62.9757 40.9186 62.8344C40.7287 62.6976 40.5392 62.5447 40.3439 62.5128C40.1566 62.48 39.9827 62.6251 40.0171 62.9684C40.0443 63.2982 40.3247 63.8226 40.8927 64.2005C41.4612 64.5747 42.0315 64.6131 42.3257 64.4957C42.6329 64.3788 42.682 64.1506 42.5723 63.9871Z" fill="#121936"/>
<path d="M45.1462 64.0458C45.2831 63.9299 45.49 63.8906 45.6884 63.8407C45.889 63.7945 46.0892 63.7432 46.2617 63.6919C46.4347 63.6407 46.6314 63.5751 46.8253 63.5048C47.0193 63.4392 47.2168 63.3593 47.3893 63.3838C47.5556 63.405 47.6671 63.5732 47.5543 63.8546C47.4504 64.1262 47.0857 64.4963 46.5137 64.6668C45.9416 64.834 45.4503 64.7171 45.2305 64.5406C44.9995 64.3609 45.0138 64.1553 45.1462 64.0458Z" fill="#121936"/>
<path d="M43.939 68.9797C43.9265 68.9797 43.9141 68.9792 43.9016 68.9792L42.8917 68.9459C42.7686 68.9418 42.6719 68.8355 42.6759 68.7076C42.6799 68.5805 42.7798 68.477 42.906 68.4844L43.9158 68.5177C44.1138 68.5269 44.289 68.4511 44.4264 68.3125C44.5641 68.1744 44.639 67.9887 44.6386 67.7905L44.6377 67.5276C44.6373 67.3114 44.487 67.1308 44.281 67.0984L44.0701 67.0651C43.923 67.0416 43.8133 66.9127 43.8084 66.7593L43.7544 65.0287C43.7504 64.9011 43.8472 64.7944 43.9698 64.7903C43.9725 64.7898 43.9751 64.7898 43.9774 64.7898C44.0973 64.7898 44.1963 64.8882 44.2003 65.0134L44.2502 66.6262L44.3479 66.6415C44.7728 66.7085 45.0822 67.0804 45.0836 67.5258L45.0845 67.7886C45.0853 68.1139 44.9623 68.4174 44.7376 68.6438C44.5209 68.8609 44.2386 68.9797 43.939 68.9797Z" fill="#FC6969"/>
<path d="M41.7259 70.8905C41.7054 70.8905 41.6844 70.8877 41.6635 70.8813L39.4925 70.2257C39.0155 70.0815 38.7395 69.5331 38.8773 69.0032L38.9539 68.708C38.9856 68.5846 39.1069 68.513 39.2268 68.5449C39.3459 68.5782 39.4163 68.7048 39.3842 68.8281L39.3075 69.1233C39.2339 69.4075 39.3757 69.7092 39.6169 69.7822L41.7878 70.4377C41.9064 70.4733 41.9742 70.6017 41.9399 70.7242C41.9114 70.8249 41.8222 70.8905 41.7259 70.8905Z" fill="#FC6969"/>
<path d="M66.9186 103.857H66.9195C66.6689 103.094 66.2966 102.348 65.7821 101.664L52.2854 82.7262C51.4592 81.592 49.3418 80.1145 48.0818 79.8997C47.9814 79.8826 47.8802 79.8743 47.7795 79.8632C47.7634 79.8604 47.7492 79.8558 47.7331 79.853C46.2528 79.5962 40.8521 79.4164 39.9555 79.3439C36.3658 79.0533 31.3993 78.68 30.2548 78.5881C30.2321 78.5862 30.2089 78.5844 30.1862 78.5825C28.1967 78.2869 26.1159 79.0584 24.583 80.5058C23.7189 81.3217 23.0015 82.2836 22.3171 83.2607C21.6234 84.2513 20.8025 85.1688 20.0508 86.1224C18.3949 88.2231 16.7389 90.3238 15.083 92.4245C15.083 92.5932 14.589 93.0515 14.4788 93.191C14.2572 93.4719 14.0356 93.7532 13.8141 94.0341C13.3718 94.595 12.9268 95.154 12.4876 95.7177C11.7564 96.656 11.0332 97.5564 10.6373 98.7151C10.2645 99.8073 10.1861 101.024 10.5254 102.127C10.9877 103.632 12.1496 104.735 13.444 105.491L21.2858 99.9219C21.28 99.9177 21.2729 99.9145 21.2671 99.9103L19.6477 98.7932L20.0503 98.4388L25.6638 94.5835C24.6815 101.519 23.3537 111.235 22.7313 115.804C22.623 116.598 23.2953 117.054 24.0899 117.263C24.3881 117.341 42.4389 120.16 47.6921 120.979C48.4532 121.098 49.1434 120.51 49.1795 119.713C49.3467 116.037 49.7863 106.32 50.0797 99.3933L56.6722 105.845L57.0735 106.335L55.4229 107.52C55.4167 107.524 55.41 107.528 55.4037 107.532L62.7917 113.271C66.4509 111.683 68.1033 107.501 66.9186 103.857Z" fill="#4C30A8"/>
<path d="M42.0124 80.1815L32.4486 79.501C31.8503 79.4585 31.3942 78.9161 31.4352 78.2961C31.4762 77.6761 31.9996 77.2034 32.598 77.2459L42.1618 77.9265C42.7601 77.969 43.2162 78.5114 43.1752 79.1314C43.1342 79.7518 42.6107 80.2245 42.0124 80.1815Z" fill="#3C2291"/>
<path d="M50.0794 99.3937L46.6182 95.3835L49.7976 105.913L50.0794 99.3937Z" fill="#3C2291"/>
<path d="M39.222 87.7773C39.4597 87.6147 39.6741 87.4068 39.848 87.1698C39.9399 87.0446 40.0001 86.8861 39.9782 86.7304C39.9595 86.5978 39.8819 86.4782 39.7776 86.3992C39.6737 86.3202 39.5435 86.2795 39.4146 86.2814C39.2189 86.2837 38.9897 86.3405 38.8243 86.4491C37.7601 87.1462 36.6619 87.7838 35.5695 88.4352C35.389 88.5429 35.1353 88.7267 34.9547 88.8344C35.504 88.5059 35.8856 88.0651 36.6004 87.5477C37.5193 86.882 38.3825 86.1372 39.2733 85.4317C39.416 85.319 39.5618 85.2021 39.6527 85.0418C39.8761 84.6468 39.6171 84.0591 39.1828 83.9746C38.8645 83.9127 38.5524 84.0846 38.271 84.2499C36.8429 85.0899 35.4139 85.9284 33.984 86.7646C33.5921 86.9938 33.1743 86.5068 33.4378 86.1289C33.7063 85.7441 33.9845 85.3689 34.256 84.9864C34.462 84.6962 34.6314 84.3511 34.6038 83.9922C34.5802 83.6854 34.4031 83.3952 34.1454 83.2419C33.8877 83.0885 33.5569 83.0755 33.2894 83.2091C33.1079 83.2996 32.9608 83.4484 32.8172 83.5944C30.7613 85.6854 29.1304 88.1853 27.0638 90.2652L14.2657 97.7325C12.0551 99.0224 11.3966 102.012 12.8608 104.159C12.8893 104.201 12.9179 104.243 12.9469 104.285C14.6831 106.804 18.1523 107.198 20.4088 105.168L30.4867 96.1039L37.394 92.9064C37.6597 92.8284 37.8305 92.5613 37.7957 92.2777C37.7355 91.7842 36.863 91.7833 36.4015 91.9219L35.195 92.2629C35.479 92.0919 35.7626 91.9201 36.0466 91.7491C36.5469 91.4567 37.0431 91.1573 37.5393 90.857C37.7846 90.7087 38.0298 90.5599 38.275 90.4121C38.5265 90.2606 38.8154 90.1063 38.9599 89.8314C39.0036 89.7482 39.0317 89.6535 39.0236 89.5593C39.0058 89.3546 38.8194 89.203 38.6273 89.1513C38.1047 89.0099 37.592 89.404 37.1546 89.5851C36.8304 89.7191 36.5246 89.8924 36.2196 90.0684C36.0207 90.1829 35.7724 90.28 35.5896 90.4357C36.1763 89.9376 36.8456 89.5214 37.4631 89.0654C38.0481 88.6325 38.6232 88.1871 39.222 87.7773Z" fill="#3C2291"/>
<path d="M39.222 88.3697C39.4597 88.207 39.6741 87.9991 39.848 87.7621C39.9399 87.6369 40.0001 87.4785 39.9782 87.3228C39.9595 87.1902 39.8819 87.0705 39.7776 86.9915C39.6737 86.9125 39.5435 86.8719 39.4146 86.8737C39.2189 86.876 38.9897 86.9328 38.8243 87.0414C37.7601 87.7386 36.6619 88.3761 35.5695 89.0276C35.389 89.1352 35.1353 89.3186 34.9547 89.4267C35.504 89.0987 35.8856 88.6575 36.6004 88.14C37.5193 87.4743 38.3825 86.7296 39.2733 86.0241C39.416 85.9114 39.5618 85.7945 39.6527 85.6342C39.8761 85.2392 39.6171 84.6515 39.1828 84.5669C38.8645 84.5055 38.5524 84.6769 38.271 84.8423C36.8429 85.6822 35.4139 86.5207 33.984 87.357C33.5921 87.5861 33.1743 87.0992 33.4378 86.7212C33.7063 86.3364 33.9845 85.9613 34.256 85.5787C34.462 85.2886 34.6314 84.9435 34.6038 84.5845C34.5802 84.2777 34.4031 83.988 34.1454 83.8342C33.8877 83.6808 33.5569 83.6683 33.2894 83.8014C33.1079 83.8915 32.9608 84.0407 32.8172 84.1867C30.7613 86.2777 29.1304 88.7776 27.0638 90.8575L14.2657 98.3244C12.0551 99.6143 11.3966 102.604 12.8608 104.751C12.8893 104.793 12.9179 104.835 12.9469 104.876C14.6831 107.396 18.1523 107.79 20.4088 105.76L30.4867 96.6958L37.394 93.4983C37.6597 93.4202 37.8305 93.1532 37.7957 92.8695C37.7355 92.3761 36.863 92.3752 36.4015 92.5138L35.195 92.8548C35.479 92.6838 35.7626 92.512 36.0466 92.341C36.5469 92.0486 37.0431 91.7492 37.5393 91.4489C37.7846 91.3006 38.0298 91.1518 38.275 91.004C38.5265 90.8525 38.8154 90.6986 38.9599 90.4233C39.0036 90.3401 39.0317 90.2454 39.0236 90.1511C39.0058 89.9465 38.8194 89.7949 38.6273 89.7432C38.1047 89.6018 37.592 89.9959 37.1546 90.177C36.8304 90.311 36.5246 90.4842 36.2196 90.6603C36.0207 90.7748 35.7724 90.8719 35.5896 91.0275C36.1763 90.5295 36.8456 90.1132 37.4631 89.6573C38.0481 89.2244 38.6232 88.7795 39.222 88.3697Z" fill="#FFA698"/>
<path d="M63.62 109.328C62.9583 107.217 61.6145 105.582 59.9657 104.217C59.8662 104.135 59.7637 104.051 59.642 104.012C59.2683 103.89 58.5336 104.241 58.1559 104.334C56.5646 104.723 54.9733 105.113 53.3825 105.502C51.3195 106.007 49.2565 106.512 47.193 107.017C45.3249 107.474 43.4571 107.931 41.589 108.389C40.5831 108.635 39.5772 108.881 38.5714 109.127C38.5321 109.137 38.4925 109.147 38.4532 109.157L36.6207 108.492C36.6207 108.492 35.1017 106.973 33.4894 107.022C32.192 107.062 30.47 108.165 29.8454 108.596C29.0187 108.625 28.2122 108.793 27.5933 108.963C26.9468 109.142 26.5567 109.821 26.7069 110.496C26.8282 111.041 27.3535 111.381 27.8796 111.255L28.7998 111.035L27.5692 111.329C26.9945 111.467 26.6361 112.061 26.7689 112.657L26.8095 112.839C26.9397 113.424 27.5028 113.788 28.0668 113.653L29.795 113.24L28.5394 113.54C28.0664 113.653 27.7717 114.142 27.8805 114.632L27.9112 114.771C28.0593 115.436 28.6995 115.85 29.3411 115.697L29.9029 115.562C29.6991 115.611 29.5725 115.821 29.6193 116.033C29.7807 116.756 30.4776 117.208 31.1763 117.041L39.2339 116.58L39.2411 116.439C39.2411 116.439 62.7737 113.275 62.7907 113.273C64.1653 113.088 64.0614 111.306 63.8567 110.26C63.7956 109.946 63.7163 109.634 63.62 109.328Z" fill="#FFA698"/>
<path opacity="0.57" d="M29.2723 111.184C29.3927 111.15 29.4663 111.023 29.4377 110.896C29.4083 110.767 29.2835 110.687 29.1586 110.717L27.5192 111.116C27.3975 111.132 27.3168 111.276 27.3458 111.405C27.3752 111.534 27.5 111.614 27.6249 111.584L29.2643 111.185C29.2674 111.186 29.2697 111.185 29.2723 111.184Z" fill="#FC6969"/>
<path opacity="0.57" d="M28.1564 113.922C28.1577 113.921 28.1586 113.921 28.1599 113.921L30.2033 113.31C30.3268 113.273 30.3973 113.14 30.362 113.012C30.3268 112.884 30.1971 112.826 30.0745 112.848L28.0311 113.458C27.9076 113.495 27.8371 113.628 27.8723 113.756C27.9071 113.883 28.0342 113.956 28.1564 113.922Z" fill="#FC6969"/>
<path opacity="0.57" d="M31.2392 115.421C31.3596 115.387 31.4332 115.26 31.4047 115.134C31.3752 115.004 31.2504 114.924 31.1251 114.955L29.5842 115.33C29.4598 115.352 29.3827 115.49 29.4112 115.62C29.4406 115.749 29.5655 115.829 29.6908 115.798L31.2317 115.423C31.2343 115.422 31.2366 115.421 31.2392 115.421Z" fill="#FC6969"/>
<path opacity="0.57" d="M34.453 108.673L29.8115 108.618C29.8115 108.618 33.987 107.899 34.453 108.673Z" fill="#FC6969"/>
<path opacity="0.32" d="M32.8126 106.906L31.9013 106.703C28.403 105.923 26.1768 102.352 26.9295 98.7271L27.8132 94.4698C28.5658 90.845 32.0119 88.5382 35.5101 89.3181L36.4214 89.5213C39.9197 90.3012 42.1459 93.872 41.3933 97.4968L40.5096 101.754C39.7574 105.379 36.3113 107.686 32.8126 106.906Z" fill="#3C2291"/>
<path d="M33.1036 107.331L32.1923 107.128C28.6941 106.348 26.4679 102.777 27.2205 99.1523L28.1042 94.895C28.8568 91.2701 32.3029 88.9634 35.8011 89.7432L36.7125 89.9465C40.2107 90.7264 42.4369 94.2972 41.6843 97.922L40.8006 102.179C40.048 105.805 36.6019 108.111 33.1036 107.331Z" fill="#6AC3D3"/>
<path opacity="0.46" d="M34.3174 106.491C33.9268 106.491 33.5313 106.449 33.1345 106.36L32.5277 106.225C31.0604 105.898 29.8039 104.998 28.9889 103.692C28.1743 102.385 27.8996 100.828 28.2157 99.3075L29.0763 95.1643C29.3915 93.6438 30.2596 92.3414 31.5209 91.4974C32.7814 90.6533 34.2839 90.3687 35.7517 90.6958L36.3585 90.8312C37.8259 91.1583 39.0828 92.0582 39.8974 93.3648C40.712 94.6713 40.9866 96.2282 40.6705 97.7492L39.8104 101.892C39.2442 104.62 36.9078 106.491 34.3174 106.491ZM34.559 90.9106C33.5532 90.9106 32.5669 91.2095 31.702 91.7884C30.516 92.5821 29.6996 93.8069 29.4026 95.2368L28.5421 99.38C28.2452 100.81 28.5038 102.274 29.2698 103.503C30.0358 104.732 31.2177 105.578 32.5981 105.886L33.205 106.021C36.0513 106.657 38.8705 104.771 39.4841 101.818L40.3441 97.6757C40.6411 96.2453 40.3829 94.7808 39.6165 93.5523C38.8505 92.3234 37.6685 91.4775 36.2881 91.1698L35.6813 91.0344C35.3081 90.9517 34.9322 90.9106 34.559 90.9106Z" fill="white"/>
<path d="M32.648 107.229C34.8581 107.722 37.0478 107.065 38.6395 105.648L27.9883 103.593C28.9184 105.389 30.5738 106.767 32.648 107.229Z" fill="#121936"/>
<path d="M34.1282 107.625C33.6213 107.625 33.1103 107.569 32.6007 107.455C30.5422 106.997 28.7895 105.629 27.7921 103.702L27.5723 103.277L39.138 105.508L38.7853 105.823C37.4615 107.001 35.8212 107.624 34.1282 107.625ZM28.4261 103.912C29.3887 105.493 30.9207 106.608 32.6948 107.003C34.6129 107.431 36.5635 106.986 38.1209 105.782L28.4261 103.912Z" fill="#121936"/>
<path d="M31.1582 108.673L31.9697 105.628C32.1266 105.04 32.6982 104.681 33.2738 104.809L33.2845 104.812C33.845 104.936 34.2213 105.483 34.1535 106.073L33.8557 108.673H31.1582Z" fill="#121936"/>
<path d="M51.5099 170.528L54.347 173.555L54.4888 175.184C53.9988 177.302 52.288 178.881 50.2004 179.14L50.4229 177.728L47.4727 175.54L51.5099 170.528Z" fill="#FFA698"/>
<path d="M49.8435 178.317L50.2809 181.738C50.2693 181.801 50.2421 183.245 50.2135 183.302C50.0677 184.261 49.7869 185.192 49.3793 186.066C48.6664 187.594 47.8919 189.646 48.674 190.478C48.9321 190.752 50.9983 189.778 51.2283 189.482L59.5432 177.56C59.5999 177.487 59.6953 177.295 59.6765 177.043C59.5838 175.8 58.4107 175.122 57.2997 174.643L54.9174 173.339C54.6129 173.173 54.2442 173.392 54.2285 173.748C54.2285 173.751 54.2281 173.753 54.2281 173.756C54.1362 175.878 52.7728 177.154 50.7414 177.439C50.7116 177.477 50.5132 177.534 50.3041 177.595C49.9977 177.683 49.802 177.991 49.8435 178.317Z" fill="#3C2291"/>
<path d="M49.4932 185.81C49.8392 185.011 50.0822 184.168 50.2141 183.302C50.2427 183.245 50.2699 181.801 50.2815 181.737L50.0746 180.118L49.8441 178.316C49.8365 178.257 49.8369 178.198 49.8445 178.14C49.8423 178.157 49.8405 178.175 49.8396 178.192C49.8302 178.054 49.8097 177.822 49.7696 177.58C49.7005 177.162 50.1258 176.827 50.4848 177.03C50.4972 177.037 50.5093 177.044 50.5213 177.053C50.6555 177.142 50.8031 177.258 50.9498 177.404C51.9316 178.382 52.8759 180.74 49.5025 186.025C49.5025 186.025 49.499 185.949 49.4932 185.81Z" fill="#481EF3"/>
<path d="M50.0257 180.211C49.9454 180.211 49.875 180.151 49.8607 180.067C49.8455 179.973 49.9066 179.883 49.9976 179.867L51.8782 179.533C51.9723 179.517 52.0557 179.581 52.0713 179.675C52.0869 179.769 52.0258 179.859 51.9349 179.875L50.0542 180.209C50.0444 180.21 50.0346 180.211 50.0257 180.211Z" fill="#EAEAEA"/>
<path d="M50.0999 181.547C50.0196 181.547 49.9492 181.487 49.9349 181.403C49.9198 181.309 49.9809 181.219 50.0718 181.203L51.9525 180.869C52.047 180.856 52.1299 180.917 52.1455 181.011C52.1611 181.105 52.1 181.195 52.0091 181.211L50.1284 181.545C50.1186 181.546 50.1088 181.547 50.0999 181.547Z" fill="#EAEAEA"/>
<path d="M50.1106 182.964C50.0304 182.964 49.9599 182.904 49.9457 182.82C49.9305 182.726 49.9912 182.636 50.0826 182.62L51.9632 182.286C52.0577 182.269 52.1407 182.334 52.1563 182.428C52.1719 182.522 52.1108 182.612 52.0198 182.628L50.1392 182.962C50.1294 182.963 50.12 182.964 50.1106 182.964Z" fill="#EAEAEA"/>
<path d="M56.3691 178.974C56.0503 178.974 55.744 178.862 55.4925 178.651C55.2027 178.408 55.0208 178.062 54.9815 177.677C54.9423 177.293 55.0502 176.915 55.2856 176.614C55.5201 176.314 55.8541 176.125 56.225 176.085C56.5991 176.044 56.9603 176.155 57.2514 176.399C57.8502 176.902 57.9434 177.815 57.4587 178.437C57.2238 178.737 56.8898 178.925 56.5184 178.966C56.4689 178.971 56.419 178.974 56.3691 178.974ZM56.374 176.423C56.3365 176.423 56.2986 176.425 56.2607 176.429C55.978 176.46 55.7243 176.603 55.5455 176.832C55.3668 177.061 55.2847 177.348 55.3141 177.641C55.3436 177.934 55.4818 178.196 55.7025 178.382L55.7029 178.382C55.9236 178.567 56.2041 178.651 56.4832 178.621C56.7659 178.591 57.0196 178.447 57.1984 178.219C57.5666 177.747 57.4962 177.052 57.0405 176.669C56.8501 176.508 56.6165 176.423 56.374 176.423Z" fill="#EAEAEA"/>
<path d="M59.5264 176.529C59.5264 176.529 62.709 176.461 60.4654 179.428C58.2218 182.396 52.1968 190.015 52.1968 190.015C52.1968 190.015 50.2141 191.628 48.5791 190.413C48.5791 190.413 50.9654 190.781 53.4448 185.508C55.9243 180.235 55.6915 181.487 57.9632 179.246C60.2344 177.006 59.5264 176.529 59.5264 176.529Z" fill="white"/>
<path d="M25.7852 117.576L47.0854 122.385L40.9851 148.236L52.5851 169.58C52.7389 169.863 52.7082 170.216 52.5075 170.466L47.8478 176.271C47.4171 176.808 46.6261 176.817 46.1852 176.29C43.2006 172.716 32.9025 160.541 28.3944 155.055C27.0117 153.372 26.2408 151.245 26.2123 149.034L25.7852 117.576Z" fill="#30293A"/>
<path d="M24.6457 117.402L5.34247 132.472C5.05265 132.721 4.77978 132.995 4.57246 133.32C3.19251 135.483 4.02315 138.821 4.44806 141.474L8.41134 171.837C8.50542 172.558 9.17332 173.042 9.85906 172.886L17.8351 171.076C18.1227 171.011 18.3354 170.76 18.3554 170.456C18.6073 166.622 17.2813 143.097 17.2813 143.097L41.3687 132.895C44.0657 131.753 46.5795 129.25 47.1747 126.32C47.2014 126.187 48.0366 120.971 48.0366 120.971C48.0401 120.889 24.6457 117.402 24.6457 117.402Z" fill="#353148"/>
<path d="M16.4657 171.386L16.9931 175.234L16.1826 176.637C14.5828 178.05 12.3027 178.282 10.4684 177.218L11.4511 176.212L10.3516 172.775L16.4657 171.386Z" fill="#FFA698"/>
<path d="M10.6463 176.334L9.05594 179.365C9.01002 179.41 8.16823 180.56 8.1125 180.589C7.4495 181.274 6.69376 181.856 5.86757 182.313C4.42342 183.113 2.6306 184.3 2.79022 185.449C2.84284 185.827 5.06636 186.301 5.42082 186.202L18.9158 181.64C19.0032 181.616 19.1895 181.519 19.3175 181.304C19.9493 180.242 19.3866 178.979 18.7606 177.913L17.5755 175.407C17.4239 175.086 17.0017 175.038 16.7863 175.316C16.785 175.318 16.7832 175.321 16.7819 175.322C15.5018 176.981 13.6742 177.182 11.8711 176.172C11.8256 176.185 11.6326 176.109 11.4288 176.031C11.1314 175.915 10.7979 176.045 10.6463 176.334Z" fill="#3C2291"/>
<path d="M6.10448 182.176C6.83837 181.742 7.51385 181.209 8.11264 180.589C8.16838 180.56 9.01061 179.41 9.05609 179.366L9.80915 177.931L10.6465 176.334C10.6741 176.281 10.7085 176.234 10.7472 176.192C10.7357 176.204 10.7245 176.217 10.7138 176.231C10.7847 176.113 10.8997 175.914 11.0054 175.694C11.1869 175.314 11.7215 175.302 11.8958 175.685C11.9016 175.699 11.9074 175.712 11.9127 175.726C11.9703 175.88 12.0238 176.064 12.0594 176.272C12.2971 177.661 11.7201 180.143 5.99123 182.356C5.99033 182.356 6.03091 182.292 6.10448 182.176Z" fill="#481EF3"/>
<path d="M11.5251 178.887C11.4997 178.887 11.4747 178.881 11.4507 178.869L9.74122 177.991C9.65873 177.948 9.62485 177.844 9.66587 177.758C9.70689 177.672 9.80765 177.639 9.89014 177.68L11.5996 178.558C11.6825 178.601 11.7159 178.705 11.6749 178.791C11.6459 178.852 11.5866 178.887 11.5251 178.887Z" fill="#EAEAEA"/>
<path d="M10.826 180.012C10.8006 180.012 10.7756 180.006 10.7515 179.994L9.04208 179.116C8.95915 179.074 8.92571 178.97 8.96673 178.884C9.00775 178.798 9.10896 178.764 9.191 178.806L10.9004 179.683C10.9834 179.726 11.0168 179.83 10.9758 179.916C10.9464 179.977 10.8875 180.012 10.826 180.012Z" fill="#EAEAEA"/>
<path d="M10.0291 181.164C10.0037 181.164 9.97872 181.158 9.95464 181.146L8.2452 180.268C8.16227 180.226 8.12883 180.122 8.16985 180.036C8.21087 179.95 8.31164 179.916 8.39412 179.958L10.1036 180.835C10.1865 180.878 10.2199 180.982 10.1789 181.068C10.1495 181.129 10.0902 181.164 10.0291 181.164Z" fill="#EAEAEA"/>
<path d="M16.3743 181.126C15.7563 181.126 15.1896 180.698 15.0229 180.051C14.8244 179.279 15.269 178.484 16.0136 178.278C16.7586 178.074 17.5255 178.533 17.7243 179.304C17.9227 180.076 17.4787 180.871 16.7341 181.077C16.6137 181.11 16.4933 181.126 16.3743 181.126ZM15.3461 179.961C15.4977 180.549 16.0813 180.897 16.648 180.742C17.2147 180.585 17.5522 179.98 17.4011 179.393C17.2499 178.806 16.6663 178.456 16.0996 178.612C15.5334 178.769 15.195 179.375 15.3461 179.961Z" fill="#EAEAEA"/>
<path d="M19.4882 180.797C19.4882 180.797 22.0996 182.684 18.5995 183.713C15.0995 184.743 5.90047 187.225 5.90047 187.225C5.90047 187.225 3.38134 187.318 2.75 185.339C2.75 185.339 4.46969 187.092 9.47005 184.344C14.4709 181.595 13.5711 182.465 16.6806 182.04C19.7896 181.615 19.4882 180.797 19.4882 180.797Z" fill="white"/>
</g>
</svg>
