<svg width="25" height="25" viewBox="0 0 25 25" fill="none" xmlns="http://www.w3.org/2000/svg">
<path d="M2.41577 9.03381C2.41577 7.14781 2.41577 6.20581 3.00177 5.61981C3.58777 5.03381 4.52977 5.03381 6.41577 5.03381H18.4158C20.3018 5.03381 21.2438 5.03381 21.8298 5.61981C22.4158 6.20581 22.4158 7.14781 22.4158 9.03381C22.4158 9.50481 22.4158 9.74081 22.2698 9.88781C22.1228 10.0338 21.8858 10.0338 21.4158 10.0338H3.41577C2.94477 10.0338 2.70877 10.0338 2.56177 9.88781C2.41577 9.74081 2.41577 9.50381 2.41577 9.03381ZM2.41577 18.0338C2.41577 19.9198 2.41577 20.8618 3.00177 21.4478C3.58777 22.0338 4.52977 22.0338 6.41577 22.0338H18.4158C20.3018 22.0338 21.2438 22.0338 21.8298 21.4478C22.4158 20.8618 22.4158 19.9198 22.4158 18.0338V13.0338C22.4158 12.5628 22.4158 12.3268 22.2698 12.1798C22.1228 12.0338 21.8858 12.0338 21.4158 12.0338H3.41577C2.94477 12.0338 2.70877 12.0338 2.56177 12.1798C2.41577 12.3268 2.41577 12.5638 2.41577 13.0338V18.0338Z" fill="#08A081"/>
<path d="M7.41577 3.03381V6.03381M17.4158 3.03381V6.03381" stroke="#08A081" stroke-width="2" stroke-linecap="round"/>
</svg>
