<svg width="25" height="23" viewBox="0 0 25 23" fill="none" xmlns="http://www.w3.org/2000/svg">
<path fill-rule="evenodd" clip-rule="evenodd" d="M19.0269 11.6885L18.365 11.2217L17.3261 7.54158L16.3782 11.2217L15.7232 11.6885H13.2627L11.7576 17.3553H10.4258L7.78401 7.54158L6.84354 11.2217L6.08324 11.6885H1.4552C4.38247 18.0098 12.4126 22.0737 12.4126 22.0737C12.4126 22.0737 20.4427 18.0098 23.37 11.6885H19.0269ZM5.61588 10.3716L7.12099 4.71216H8.44532L11.0952 14.5259L12.0362 10.8458L12.6981 10.3716H15.1511L16.6642 4.71216H18.079L19.5915 10.3716H23.9421C24.2201 9.3327 24.4158 8.29441 24.4158 7.25611C24.4158 3.20018 21.2922 -0.00622559 17.5074 -0.00622559C15.5275 -0.00622559 13.737 0.941704 12.412 2.34951C11.185 0.94228 9.38637 -0.00622559 7.30977 -0.00622559C3.53932 -0.00622559 0.415771 3.19961 0.415771 7.25611C0.415771 8.29498 0.603963 9.33328 0.890013 10.3716H5.61588Z" fill="#08A081"/>
</svg>
