<svg width="32" height="33" viewBox="0 0 32 33" fill="none" xmlns="http://www.w3.org/2000/svg">
<path d="M32 16.5398C32 17.9606 31.8147 19.3403 31.4646 20.6513C30.6478 23.7298 28.9387 26.4446 26.6255 28.4969C26.4745 28.6342 26.3166 28.768 26.1587 28.8984C25.5822 29.3789 24.9678 29.8148 24.3226 30.206C24.0412 30.3776 23.7563 30.5424 23.4646 30.6968C23.3822 30.7414 23.2999 30.7826 23.2141 30.8238C21.0485 31.922 18.5946 32.5398 16 32.5398C15.1145 32.5398 14.2462 32.4677 13.3985 32.327C12.7911 32.2309 12.1973 32.0971 11.6139 31.9323C9.68168 31.3832 7.90047 30.4806 6.34234 29.3C5.96825 29.0151 5.60789 28.7131 5.25783 28.3974C4.67096 27.8688 4.12184 27.2923 3.62076 26.6814C3.44916 26.472 3.281 26.2558 3.12312 26.0361C1.16002 23.3798 0 20.0954 0 16.5398C0 7.70239 7.16259 0.539795 16 0.539795C24.8374 0.539795 32 7.70239 32 16.5398Z" fill="#E3F9FA"/>
<path d="M26.1584 28.8987C25.5818 29.3792 24.9675 29.815 24.3223 30.2063C24.0409 30.3779 23.756 30.5426 23.4643 30.6971C23.3819 30.7417 23.2996 30.7829 23.2138 30.824C21.0482 31.9223 18.5943 32.54 15.9997 32.54C15.1142 32.54 14.2459 32.468 13.3982 32.3273C12.7908 32.2312 12.197 32.0973 11.6136 31.9326C9.68136 31.3835 7.90015 30.4808 6.34202 29.3002C5.96793 29.0154 5.60757 28.7134 5.25751 28.3976C4.67064 27.8691 4.12152 27.2925 3.62044 26.6816C3.44884 26.4723 3.28067 26.2561 3.1228 26.0364C4.18672 24.4062 5.98166 22.3264 8.66549 21.2488C9.41023 20.9536 10.2099 20.734 11.0816 20.6207C11.1331 20.6138 11.1811 20.607 11.2326 20.6035C11.3116 20.5932 11.3905 20.5864 11.466 20.5795C11.4729 20.5761 11.4763 20.5761 11.4832 20.5761C11.5518 20.5692 11.617 20.5658 11.6822 20.5624C11.7852 20.5555 11.8847 20.5486 11.9739 20.5452C12.1902 20.528 12.4098 20.5109 12.6192 20.504C18.5771 20.2741 21.7483 22.6387 21.9336 22.7794C21.9508 22.7897 21.9611 22.8035 21.9714 22.8172C22.0297 22.8824 22.1739 23.0368 22.3832 23.2805C23.1623 24.1797 24.8199 26.2423 26.1584 28.8987Z" fill="#3C9ACF"/>
<path d="M13.7195 12.4466C13.7195 12.4466 15.069 12.113 15.7015 11.3363C16.334 10.5596 16.4383 8.63806 16.4383 8.63806C16.4383 8.63806 18.8823 9.90928 19.5244 9.76822C20.1669 9.62682 21.4257 6.74943 20.5777 5.5067C19.7296 4.26363 18.0136 5.80254 18.0136 5.80254C18.0136 5.80254 17.6615 4.02682 15.7852 4.44106C13.5829 4.92738 13.0132 7.16367 13.0132 7.16367C13.0132 7.16367 12.8653 4.7369 11.3332 5.8022C9.80085 6.86749 10.3527 9.64947 10.3527 9.64947C10.3527 9.64947 9.12681 10.1811 9.37219 11.336C9.61724 12.4905 11.2722 13.6021 11.2722 13.6021L13.7195 12.4466Z" fill="#E56445"/>
<path d="M13.4986 15.9297L13.1774 19.5889C13.1774 19.5889 13.7684 20.6967 15.9696 21.0523C17.6095 21.3169 18.2214 21.0039 18.2214 21.0039L18.1538 19.1317L18.0855 17.3059L14.1575 16.1281L13.4986 15.9297Z" fill="#F9BB91"/>
<path d="M14.1602 16.1284C14.1608 16.229 14.19 16.3501 14.2394 16.4905C14.9269 18.3877 17.2102 18.9715 18.1567 19.1321L18.0884 17.3063L14.1602 16.1284Z" fill="black"/>
<path d="M19.6635 9.035C19.6635 9.035 21.2494 13.7856 20.2418 16.2707C19.2342 18.7555 16.864 18.1192 15.472 17.4849C14.0803 16.8507 13.4993 15.9309 13.4993 15.9309C13.4993 15.9309 12.1052 16.2415 11.3296 14.9435C10.5536 13.6456 11.2534 12.3088 12.0561 12.0651C12.8589 11.8211 13.7186 12.4468 13.7186 12.4468L13.1386 11.0547C13.1386 11.0547 16.8558 4.62556 19.6635 9.035Z" fill="#F9BB91"/>
<path d="M13.4171 14.4372C13.3787 14.4372 13.3399 14.4242 13.308 14.3977L11.7049 13.0726C11.6318 13.0122 11.6215 12.9041 11.6819 12.831C11.742 12.7579 11.8501 12.7473 11.9235 12.808L13.5266 14.1331C13.5997 14.1935 13.61 14.3016 13.5496 14.3747C13.5156 14.4159 13.4666 14.4372 13.4171 14.4372Z" fill="black"/>
<path d="M16.3317 10.7315C16.2892 10.7315 16.2466 10.7161 16.2137 10.6845C16.145 10.6193 16.1423 10.5105 16.2071 10.4419C16.7847 9.83304 17.4694 10.0088 17.7512 10.1872C17.8312 10.2377 17.8552 10.3437 17.8044 10.424C17.7539 10.504 17.6482 10.5277 17.5683 10.4776C17.5449 10.4632 16.9811 10.1248 16.4563 10.678C16.4227 10.7137 16.3774 10.7315 16.3317 10.7315Z" fill="black"/>
<path d="M20.0232 10.8598C19.9806 10.8598 19.9384 10.8444 19.9051 10.8128C19.543 10.4703 19.113 10.658 19.0948 10.6662C19.0087 10.7054 18.9071 10.6673 18.868 10.5811C18.8285 10.4953 18.8655 10.3944 18.9513 10.3543C18.9774 10.3419 19.6069 10.0581 20.1412 10.5629C20.2102 10.6281 20.213 10.7366 20.1481 10.8056C20.1141 10.842 20.0685 10.8598 20.0232 10.8598Z" fill="black"/>
<path d="M19.0796 14.2889C19.0579 14.2889 19.0363 14.2848 19.015 14.2762C18.9275 14.2405 18.885 14.1403 18.9207 14.0524C19.4128 12.8423 18.5689 12.4009 18.5325 12.3827C18.4481 12.3405 18.4134 12.2376 18.4553 12.1531C18.4971 12.0687 18.5991 12.0337 18.6838 12.0749C18.6955 12.0807 19.8535 12.6683 19.2385 14.1818C19.2117 14.2484 19.1475 14.2889 19.0796 14.2889Z" fill="black"/>
<path d="M19.8508 12.6165C19.7702 12.6165 19.6981 12.5592 19.6823 12.4772L19.5186 11.6185C19.5007 11.5255 19.5622 11.4355 19.6552 11.4177C19.7496 11.4005 19.8381 11.4613 19.856 11.5539L20.0197 12.4126C20.0375 12.5056 19.9761 12.5956 19.8831 12.6134C19.8724 12.6155 19.8614 12.6165 19.8508 12.6165Z" fill="black"/>
<path d="M17.1074 12.4654C17.0267 12.4654 16.9547 12.4081 16.9389 12.326L16.7752 11.4673C16.7573 11.374 16.8188 11.2844 16.9114 11.2666C17.0068 11.2494 17.0944 11.3102 17.1122 11.4032L17.2759 12.2619C17.2938 12.3549 17.2327 12.4448 17.1397 12.4626C17.1287 12.4643 17.118 12.4654 17.1074 12.4654Z" fill="black"/>
<path d="M18.0101 15.6692C17.9311 15.6692 16.998 15.6503 16.6644 14.7776C16.6304 14.689 16.6747 14.5899 16.7632 14.5559C16.8511 14.5219 16.951 14.5662 16.9849 14.6547C17.2396 15.3209 17.9813 15.3216 18.0111 15.3257C18.1062 15.3257 18.1831 15.4019 18.1837 15.4959C18.1844 15.5906 18.1089 15.6678 18.0142 15.6689C18.0132 15.6692 18.0118 15.6692 18.0101 15.6692Z" fill="black"/>
<path d="M13.7193 12.4467C13.7193 12.4467 15.1666 12.1952 15.7013 11.0111C16.236 9.82743 16.1574 8.76179 16.1574 8.76179C16.1574 8.76179 16.888 9.56248 18.1555 9.42863C19.4229 9.29444 19.7709 7.99233 19.7709 7.99233L18.6095 6.63086C18.6095 6.63086 13.8377 7.63781 13.7193 7.48955C13.6009 7.34128 11.8646 10.4366 11.8646 10.4366L13.7193 12.4467Z" fill="#E56445"/>
<path d="M23.2144 30.8238C21.0488 31.922 18.5949 32.5398 16.0003 32.5398C15.1149 32.5398 14.2466 32.4677 13.3989 32.327C12.7914 32.2309 12.1976 32.097 11.6142 31.9323C9.68199 31.3832 7.90078 30.4806 6.34265 29.3C7.01189 25.2262 7.71889 21.8525 8.26801 21.4784C8.39156 21.396 8.5254 21.3171 8.66612 21.2485C9.40057 20.8881 10.3169 20.7096 11.0822 20.6204C11.1337 20.6136 11.1818 20.6067 11.2333 20.6033C11.3122 20.593 11.3911 20.5861 11.4666 20.5792C11.5387 20.5724 11.6142 20.5689 11.6828 20.5621C11.7858 20.5552 11.8853 20.5483 11.9746 20.5449C12.3658 20.5243 12.6164 20.5277 12.6164 20.5277C12.6164 20.5277 12.6164 20.5209 12.6198 20.5037C12.6369 20.2772 12.7914 18.5063 13.2719 18.5441C13.7832 18.5887 15.0222 19.4398 16.3332 19.5462C17.6442 19.6526 18.3478 19.5359 18.6086 19.5359C18.8729 19.5359 18.9278 20.9396 18.9278 20.9396C18.9278 20.9396 20.685 21.5368 21.9342 22.7791C21.9514 22.7894 21.9617 22.8032 21.972 22.8169C22.0303 22.8821 22.1745 23.0365 22.3838 23.2802C22.5417 23.4793 22.679 23.6886 22.7957 23.9151C23.1629 24.629 23.2521 27.4638 23.2144 30.8238Z" fill="#3C9ACF"/>
<path d="M15.3954 21.2815C14.1822 21.2815 12.634 20.7166 12.5571 20.6885C12.4682 20.6555 12.4226 20.557 12.4555 20.4681C12.4885 20.3792 12.587 20.3339 12.6759 20.3665C12.6971 20.3741 14.8123 21.1453 15.9322 20.8854C16.0245 20.8635 16.1165 20.9211 16.1381 21.0138C16.1597 21.1061 16.1024 21.1984 16.0101 21.2197C15.823 21.263 15.6147 21.2815 15.3954 21.2815Z" fill="#196894"/>
<path d="M11.862 14.4034C11.8006 14.4034 11.7412 14.3705 11.7107 14.3128C11.6661 14.2291 11.6976 14.1251 11.781 14.0805L12.7012 13.5887C12.7846 13.5441 12.8889 13.5753 12.9335 13.659C12.9781 13.7428 12.9465 13.8468 12.8631 13.8914L11.943 14.3832C11.9173 14.3969 11.8895 14.4034 11.862 14.4034Z" fill="black"/>
<path d="M17.3049 13.4438H16.4881C16.0251 13.4438 15.65 13.0686 15.65 12.6057V11.7586C15.65 11.5874 15.7887 11.4487 15.9599 11.4487H17.8331C18.0044 11.4487 18.143 11.5874 18.143 11.7586V12.6057C18.143 13.0683 17.7676 13.4438 17.3049 13.4438Z" fill="black"/>
<path d="M20.8068 13.4848H19.9903C19.5273 13.4848 19.1522 13.1097 19.1522 12.6467V11.7997C19.1522 11.6284 19.2909 11.4897 19.4621 11.4897H21.335C21.5062 11.4897 21.6449 11.6284 21.6449 11.7997V12.6467C21.6449 13.1097 21.2698 13.4848 20.8068 13.4848Z" fill="black"/>
<path d="M18.1444 12.776C18.1001 12.776 18.0558 12.7589 18.0222 12.7249C17.956 12.6576 17.9563 12.5499 18.0232 12.4833C18.0466 12.4599 18.607 11.9156 19.5615 12.127C19.6541 12.1476 19.7125 12.2393 19.6919 12.3316C19.6713 12.4239 19.579 12.4819 19.4873 12.462C18.7213 12.2928 18.2827 12.7095 18.2645 12.727C18.2312 12.7599 18.188 12.776 18.1444 12.776Z" fill="black"/>
<path d="M12.6162 12.0512C12.5376 12.0512 12.4669 11.997 12.4491 11.9174C12.4281 11.8247 12.4865 11.7331 12.5788 11.7122C14.6881 11.2382 15.9751 11.6854 16.029 11.7043C16.1179 11.7362 16.1642 11.834 16.1327 11.9232C16.1007 12.0121 16.0026 12.0588 15.9133 12.0276C15.901 12.0231 14.6576 11.5962 12.6543 12.0468C12.6416 12.0499 12.6286 12.0512 12.6162 12.0512Z" fill="black"/>
</svg>
