<svg width="32" height="33" viewBox="0 0 32 33" fill="none" xmlns="http://www.w3.org/2000/svg">
<path d="M32 16.5398C32 17.9606 31.8147 19.3403 31.4646 20.6513C30.6478 23.7298 28.9387 26.4446 26.6255 28.4969C26.4745 28.6342 26.3166 28.768 26.1587 28.8984C25.5822 29.3789 24.9678 29.8148 24.3226 30.206C24.0412 30.3776 23.7563 30.5424 23.4646 30.6968C23.3822 30.7414 23.2999 30.7826 23.2141 30.8238C21.0485 31.922 18.5946 32.5398 16 32.5398C15.1145 32.5398 14.2462 32.4677 13.3985 32.327C12.7911 32.2309 12.1973 32.0971 11.6139 31.9323C9.68168 31.3832 7.90047 30.4806 6.34234 29.3C5.96825 29.0151 5.60789 28.7131 5.25783 28.3974C4.67096 27.8688 4.12184 27.2923 3.62076 26.6814C3.44916 26.472 3.28099 26.2558 3.12312 26.0362C1.16002 23.3798 0 20.0954 0 16.5398C0 7.70239 7.16259 0.539795 16 0.539795C24.8374 0.539795 32 7.70239 32 16.5398Z" fill="#E8FCF7"/>
<mask id="mask0_23663_37435" style="mask-type:alpha" maskUnits="userSpaceOnUse" x="0" y="0" width="32" height="33">
<path d="M32 16.5398C32 17.9606 31.8147 19.3403 31.4646 20.6513C30.6478 23.7298 28.9387 26.4446 26.6255 28.4969C26.4745 28.6342 26.3166 28.768 26.1587 28.8984C25.5822 29.3789 24.9678 29.8148 24.3226 30.206C24.0412 30.3776 23.7563 30.5424 23.4646 30.6968C23.3822 30.7414 23.2999 30.7826 23.2141 30.8238C21.0485 31.922 18.5946 32.5398 16 32.5398C15.1145 32.5398 14.2462 32.4677 13.3985 32.327C12.7911 32.2309 12.1973 32.0971 11.6139 31.9323C9.68168 31.3832 7.90047 30.4806 6.34234 29.3C5.96825 29.0151 5.60789 28.7131 5.25783 28.3974C4.67096 27.8688 4.12184 27.2923 3.62076 26.6814C3.44916 26.472 3.28099 26.2558 3.12312 26.0362C1.16002 23.3798 0 20.0954 0 16.5398C0 7.70239 7.16259 0.539795 16 0.539795C24.8374 0.539795 32 7.70239 32 16.5398Z" fill="#EDDDD6"/>
<path d="M30.9815 20.5224L30.9813 20.5231C30.1902 23.5047 28.5348 26.1345 26.2936 28.1229L26.2936 28.1229L26.2891 28.1269C26.1464 28.2567 25.9952 28.385 25.8403 28.513L25.8386 28.5143C25.282 28.9782 24.6881 29.3997 24.0634 29.7785L24.0623 29.7791C23.7874 29.9468 23.5115 30.1063 23.2307 30.2549L23.2307 30.2549L23.2265 30.2572C23.1535 30.2967 23.0789 30.3341 22.9977 30.373L22.9976 30.3729L22.9879 30.3779C20.8911 31.4412 18.5145 32.0398 16 32.0398C15.1418 32.0398 14.3008 31.9699 13.4804 31.8338L13.4767 31.8332C12.8904 31.7404 12.316 31.611 11.7498 31.4512C9.87897 30.9194 8.1539 30.0453 6.64442 28.9016C6.283 28.6263 5.93357 28.3335 5.59271 28.0261L5.59243 28.0258C5.02456 27.5144 4.49277 26.9561 4.00735 26.3643C3.84112 26.1615 3.67966 25.9538 3.52913 25.7443L3.52917 25.7443L3.52523 25.739C1.62354 23.1657 0.5 19.9848 0.5 16.5398C0.5 7.97853 7.43873 1.03979 16 1.03979C24.5613 1.03979 31.5 7.97853 31.5 16.5398C31.5 17.9171 31.3204 19.2534 30.9815 20.5224Z" stroke="#A0A3BD" stroke-opacity="0.4"/>
</mask>
<g mask="url(#mask0_23663_37435)">
<path d="M32 16.5415C32 19.2903 31.3068 21.8777 30.0817 24.1357C29.7969 24.6711 29.4743 25.1892 29.1277 25.6868C28.1291 27.1247 26.8937 28.3909 25.4833 29.4239C25.4765 29.4342 25.4662 29.4376 25.4593 29.4445C25.3666 29.5131 25.274 29.5817 25.1779 29.6435C23.4415 30.8652 21.4512 31.7471 19.3029 32.1966C18.2391 32.4231 17.1342 32.5398 16.0017 32.5398C13.404 32.5398 10.9538 31.9221 8.78499 30.8206C7.53244 30.1891 6.37598 29.3964 5.33962 28.4699C4.7837 27.9689 4.25866 27.4335 3.7748 26.8604C3.55517 26.6031 3.34584 26.3388 3.14681 26.0677C2.61491 25.354 2.14134 24.5956 1.73298 23.796C0.624559 21.6169 0 19.153 0 16.5415C0 7.70505 7.16526 0.539795 16.0017 0.539795C24.8347 0.539795 32 7.70505 32 16.5415Z" fill="#E3F9FA"/>
<path d="M20.8473 12.7453C20.5971 11.6265 19.7526 10.8633 18.9613 11.0404L18.5491 11.1022C18.4994 11.106 18.4492 11.1135 18.3998 11.1245C17.6085 11.3016 17.1699 12.352 17.4204 13.4704C17.6706 14.5891 18.5151 15.3523 19.3065 15.1752L19.7186 15.1138C19.7684 15.11 19.8185 15.1024 19.8682 15.0915C20.6592 14.9141 21.0978 13.8636 20.8473 12.7453Z" fill="#BF891A"/>
<path d="M30.0827 24.136C29.7979 24.6714 29.4753 25.1896 29.1287 25.6871C28.1301 27.125 26.8947 28.3913 25.4843 29.4242C25.4775 29.4345 25.4672 29.4379 25.4603 29.4448C25.3677 29.5134 25.275 29.5821 25.1789 29.6438C23.4425 30.8655 21.4522 31.7474 19.304 32.197C18.2402 32.4234 17.1352 32.5401 16.0027 32.5401C13.405 32.5401 10.9548 31.9224 8.786 30.8209C7.53346 30.1895 6.377 29.3967 5.34064 28.4702C4.78472 27.9692 4.25968 27.4338 3.77582 26.8608C3.55619 26.6034 3.34686 26.3392 3.14783 26.0681C5.69067 23.007 7.92809 22.3893 7.92809 22.3893C7.85603 22.3104 7.07018 21.3839 7.92809 19.7161C9.0571 17.513 12.5642 16.1506 12.5642 16.1506L18.7549 15.7834C18.7549 15.7834 21.3595 15.9722 23.2881 18.189C24.8838 20.0147 24.599 21.1745 24.448 21.528C24.4205 21.6035 24.3931 21.6413 24.3931 21.6413C24.3931 21.6413 27.0663 22.5197 30.0827 24.136Z" fill="#ECB950"/>
<path d="M24.4472 21.5275C23.1627 22.3398 21.1054 23.3569 18.2026 23.9942C12.7738 25.1928 7.92624 22.3892 7.92624 22.3892C7.85349 22.3099 7.06764 21.3854 7.92624 19.7142C9.05559 17.5118 12.5624 16.1512 12.5624 16.1512L18.7541 15.7847C18.7541 15.7847 21.3563 15.9727 23.288 18.1885C24.883 20.0152 24.5992 21.1741 24.4472 21.5275Z" fill="#F7D99D"/>
<path d="M13.4627 20.2189C13.4627 20.2189 11.0098 18.9386 11.1563 18.1898C11.3032 17.441 13.6837 16.939 15.2084 17.2269C16.7334 17.5148 20.339 17.5594 20.339 18.8717C20.339 20.0315 18.6843 21.1475 18.6843 21.1475L15.2084 20.1448L13.4627 20.2189Z" fill="#ECB950"/>
<path d="M13.3784 16.3813L13.4635 20.2203C13.4635 20.2203 14.1804 21.3085 16.4302 21.4413C18.1062 21.5401 18.6854 21.1489 18.6854 21.1489L18.4092 19.2097L18.1371 17.3189L14.062 16.5169L13.3784 16.3813Z" fill="#F9BB91"/>
<path d="M14.0625 16.5149C14.0745 16.6196 14.1171 16.7424 14.1823 16.8828C15.0838 18.7812 17.4413 19.1425 18.4094 19.2077L18.1372 17.3169L14.0625 16.5149Z" fill="black"/>
<path d="M18.7947 8.54657C18.7947 8.54657 20.9162 13.3148 20.1815 16.0066C19.4468 18.6984 16.9959 18.2921 15.5278 17.7825C14.0598 17.2729 13.3738 16.3793 13.3738 16.3793C13.3738 16.3793 12.0087 16.8521 11.0852 15.5862C10.1618 14.3203 10.7153 12.8553 11.4943 12.5153C12.2733 12.1752 13.206 12.7332 13.206 12.7332L12.4685 11.3482C12.4685 11.3482 15.4842 4.26457 18.7947 8.54657Z" fill="#F9BB91"/>
<path d="M18.6183 14.644C18.6015 14.644 18.5843 14.6416 18.5675 14.6365C18.4769 14.6087 18.4265 14.5126 18.4543 14.422C18.723 13.5531 18.0703 12.607 18.0634 12.5974C18.0092 12.5198 18.0277 12.4131 18.1053 12.3586C18.1825 12.3043 18.2896 12.3225 18.3441 12.4001C18.3753 12.4444 19.1011 13.492 18.782 14.5236C18.7593 14.5967 18.6917 14.644 18.6183 14.644Z" fill="black"/>
<path d="M13.0039 14.9905C12.96 14.9905 12.9164 14.973 12.8838 14.9387L11.5846 13.562C11.5221 13.4957 11.5252 13.3911 11.5914 13.3286C11.6577 13.2658 11.7623 13.2689 11.8248 13.3355L13.124 14.7122C13.1865 14.7785 13.1834 14.8831 13.1171 14.9456C13.0856 14.9754 13.0447 14.9905 13.0039 14.9905Z" fill="black"/>
<path d="M11.6304 14.6212C11.5501 14.6212 11.4797 14.5625 11.4674 14.4808C11.4536 14.3906 11.5157 14.3065 11.6056 14.2928L12.5044 14.1565C12.596 14.1435 12.6787 14.2049 12.6924 14.2948C12.7062 14.3851 12.6441 14.4691 12.5542 14.4829L11.6554 14.6188C11.6472 14.6205 11.6386 14.6212 11.6304 14.6212Z" fill="black"/>
<path d="M13.2094 12.7341C13.2094 12.7341 13.7028 13.058 14.0614 12.497C14.42 11.9359 13.6352 10.277 13.6352 10.277C13.6352 10.277 15.116 10.6133 16.0312 10.1236C16.9464 9.63394 17.3956 8.28634 17.3956 8.28634C17.3956 8.28634 18.0692 9.68988 20.0905 9.07219C22.1117 8.45449 22.4971 5.70369 20.3393 5.14193C18.1815 4.58052 17.0024 5.53485 17.0024 5.53485C17.0024 5.53485 16.7289 3.53833 14.0611 4.52424C11.6305 5.42264 11.2194 8.46753 11.2194 8.46753C11.2194 8.46753 9.75955 8.53548 9.47884 10.123C9.19813 11.7104 11.0557 12.8593 11.0557 12.8593C11.0557 12.8593 12.1106 12.2413 13.2094 12.7341Z" fill="black"/>
<path d="M16.4499 12.8603C16.3648 12.8603 16.291 12.7968 16.2797 12.7107L16.1661 11.8195C16.1541 11.7255 16.2206 11.6397 16.3147 11.6273C16.4101 11.6143 16.4948 11.6819 16.5068 11.7759L16.6204 12.6671C16.6324 12.7612 16.5659 12.8469 16.4718 12.8593C16.4643 12.86 16.4571 12.8603 16.4499 12.8603Z" fill="black"/>
<path d="M19.0947 12.6478C19.011 12.6478 18.9379 12.5864 18.9252 12.5013L18.7944 11.6125C18.7807 11.5188 18.8452 11.4317 18.9393 11.4176C19.0323 11.4063 19.1201 11.4687 19.1338 11.5624L19.2646 12.4512C19.2783 12.5449 19.2138 12.632 19.1198 12.6461C19.1115 12.6471 19.1029 12.6478 19.0947 12.6478Z" fill="black"/>
<path d="M15.6193 11.1532C15.5928 11.1532 15.5661 11.147 15.541 11.134C15.4566 11.0908 15.4237 10.9871 15.4669 10.9031C15.798 10.2596 16.6107 10.4271 16.6446 10.435C16.7373 10.4549 16.7956 10.5455 16.7761 10.6381C16.7565 10.7311 16.6662 10.7895 16.5729 10.7706C16.5482 10.7644 15.982 10.6519 15.7723 11.0602C15.7418 11.1193 15.6817 11.1532 15.6193 11.1532Z" fill="black"/>
<path d="M18.2038 10.6026C18.1705 10.6026 18.1365 10.593 18.107 10.5724C18.0288 10.5192 18.0089 10.4122 18.0624 10.3343C18.1983 10.1356 18.374 10.0213 18.584 9.99556C19.0075 9.94099 19.4021 10.2883 19.4186 10.3027C19.4896 10.3655 19.4961 10.4732 19.4337 10.5443C19.3709 10.6153 19.2628 10.6218 19.1914 10.5597C19.1094 10.488 18.8472 10.3092 18.6252 10.3363C18.5161 10.35 18.4244 10.4128 18.3458 10.5281C18.3122 10.5765 18.2583 10.6026 18.2038 10.6026Z" fill="black"/>
<path d="M16.1146 24.593C11.0259 24.3085 9.04958 23.1418 8.96791 23.092C8.88692 23.043 8.86118 22.9376 8.91026 22.8566C8.95933 22.7756 9.06399 22.7492 9.14601 22.7986C9.16557 22.8103 11.1463 23.9716 16.1242 24.2502C16.219 24.2557 16.2914 24.3363 16.2859 24.431C16.2807 24.5223 16.2052 24.593 16.1146 24.593Z" fill="#BF891A"/>
<path d="M16.2541 30.38C16.1532 30.3765 16.0791 30.2973 16.0825 30.2026L16.2225 26.0815C16.2256 25.9868 16.3056 25.9182 16.3999 25.9158C16.4947 25.9192 16.5688 25.9985 16.5653 26.0932L16.4253 30.2142C16.4222 30.3069 16.3461 30.38 16.2541 30.38Z" fill="#BF891A"/>
<path d="M22.9691 29.1339C22.9104 29.1339 22.8535 29.1037 22.8212 29.0498L20.7667 25.5753C20.7183 25.4936 20.7454 25.3883 20.8271 25.3399C20.9084 25.2925 21.0141 25.3189 21.0621 25.4003L23.1167 28.8748C23.165 28.9565 23.1379 29.0618 23.0563 29.1102C23.0288 29.1263 22.9986 29.1339 22.9691 29.1339Z" fill="#BF891A"/>
<path d="M22.9719 22.559C22.9102 22.559 22.8504 22.5257 22.8199 22.4674C22.7756 22.3833 22.8079 22.2797 22.892 22.2354L24.3133 21.487C24.3974 21.4431 24.5011 21.475 24.545 21.5587C24.5893 21.6428 24.557 21.7464 24.4729 21.7907L23.0515 22.5391C23.0261 22.5529 22.9987 22.559 22.9719 22.559Z" fill="#BF891A"/>
<path d="M13.0683 16.3914C13.8726 16.2883 14.4064 15.2831 14.2607 14.1462C14.115 13.0092 13.345 12.1711 12.5408 12.2741C11.7365 12.3772 11.2027 13.3824 11.3484 14.5193C11.4941 15.6563 12.2641 16.4944 13.0683 16.3914Z" fill="#BF891A"/>
<path d="M12.5408 12.2722L11.9845 12.3848L12.5119 16.5017L13.0685 16.3895L13.676 15.7361L13.8527 13.4534L12.5408 12.2722Z" fill="#BF891A"/>
<path d="M12.5088 16.5049C13.313 16.4019 13.8468 15.3966 13.7011 14.2597C13.5555 13.1227 12.7854 12.2846 11.9812 12.3876C11.177 12.4907 10.6431 13.4959 10.7888 14.6329C10.9345 15.7698 11.7046 16.608 12.5088 16.5049Z" fill="white"/>
<path d="M11.5844 7.17114C11.5844 7.17114 10.9705 7.90653 10.7979 8.55443C10.6253 9.20232 11.6314 13.2935 11.6314 13.2935L12.9015 13.0056L11.5844 7.17114Z" fill="white"/>
<path d="M17.479 15.9912C16.8871 15.9912 16.4612 15.5554 16.302 15.2863C16.2536 15.205 16.2807 15.1 16.362 15.0516C16.443 15.0029 16.548 15.03 16.5971 15.111C16.6139 15.1395 17.0188 15.7976 17.7131 15.6171C17.8033 15.5921 17.8984 15.6484 17.9224 15.7397C17.9461 15.8316 17.8912 15.925 17.7995 15.9486C17.6883 15.9781 17.5813 15.9912 17.479 15.9912Z" fill="black"/>
</g>
</svg>
