<svg width="32" height="33" viewBox="0 0 32 33" fill="none" xmlns="http://www.w3.org/2000/svg">
<g clip-path="url(#clip0_23614_8114)">
<path d="M16 16.5338C18.4973 16.5338 20.76 17.3605 22.42 18.5165C23.9973 19.6165 25.3333 21.2511 25.3333 23.0098C25.3333 23.9751 24.9213 24.7751 24.272 25.3698C23.6613 25.9311 22.864 26.2951 22.0426 26.5431C20.4013 27.0405 18.24 27.2005 16 27.2005C13.76 27.2005 11.5986 27.0405 9.95732 26.5431C9.13598 26.2951 8.33865 25.9311 7.72665 25.3698C7.07998 24.7765 6.66665 23.9765 6.66665 23.0111C6.66665 21.2525 8.00265 19.6178 9.57998 18.5178C11.24 17.3605 13.5026 16.5338 16 16.5338ZM25.3333 17.8671C26.7253 17.8671 27.9893 18.3271 28.924 18.9778C29.7773 19.5738 30.6666 20.5645 30.6666 21.7725C30.6666 22.4618 30.3666 23.0338 29.92 23.4431C29.512 23.8178 29.008 24.0378 28.548 24.1765C27.9213 24.3658 27.1813 24.4631 26.4133 24.5058C26.576 24.0458 26.6666 23.5458 26.6666 23.0098C26.6666 20.9631 25.388 19.2245 23.9573 18.0178C24.4092 17.9178 24.8705 17.8673 25.3333 17.8671ZM6.66665 17.8671C7.14265 17.8671 7.60398 17.9205 8.04265 18.0178C6.61332 19.2245 5.33331 20.9631 5.33331 23.0098C5.33331 23.5458 5.42398 24.0458 5.58665 24.5058C4.81865 24.4631 4.07998 24.3658 3.45198 24.1765C2.99198 24.0378 2.48798 23.8178 2.07865 23.4431C1.84382 23.2331 1.65603 22.9758 1.52758 22.6881C1.39913 22.4004 1.33293 22.0889 1.33331 21.7738C1.33331 20.5671 2.22131 19.5751 3.07598 18.9791C4.13298 18.2541 5.38488 17.8664 6.66665 17.8671ZM24.6666 9.86715C25.5507 9.86715 26.3986 10.2183 27.0237 10.8435C27.6488 11.4686 28 12.3164 28 13.2005C28 14.0845 27.6488 14.9324 27.0237 15.5575C26.3986 16.1826 25.5507 16.5338 24.6666 16.5338C23.7826 16.5338 22.9347 16.1826 22.3096 15.5575C21.6845 14.9324 21.3333 14.0845 21.3333 13.2005C21.3333 12.3164 21.6845 11.4686 22.3096 10.8435C22.9347 10.2183 23.7826 9.86715 24.6666 9.86715ZM7.33331 9.86715C8.21737 9.86715 9.06522 10.2183 9.69034 10.8435C10.3155 11.4686 10.6666 12.3164 10.6666 13.2005C10.6666 14.0845 10.3155 14.9324 9.69034 15.5575C9.06522 16.1826 8.21737 16.5338 7.33331 16.5338C6.44926 16.5338 5.60141 16.1826 4.97629 15.5575C4.35117 14.9324 3.99998 14.0845 3.99998 13.2005C3.99998 12.3164 4.35117 11.4686 4.97629 10.8435C5.60141 10.2183 6.44926 9.86715 7.33331 9.86715ZM16 4.53381C17.4145 4.53381 18.771 5.09572 19.7712 6.09591C20.7714 7.0961 21.3333 8.45266 21.3333 9.86715C21.3333 11.2816 20.7714 12.6382 19.7712 13.6384C18.771 14.6386 17.4145 15.2005 16 15.2005C14.5855 15.2005 13.2289 14.6386 12.2287 13.6384C11.2286 12.6382 10.6666 11.2816 10.6666 9.86715C10.6666 8.45266 11.2286 7.0961 12.2287 6.09591C13.2289 5.09572 14.5855 4.53381 16 4.53381Z" fill="white"/>
</g>
<defs>
<clipPath id="clip0_23614_8114">
<rect width="32" height="32" fill="white" transform="translate(0 0.533813)"/>
</clipPath>
</defs>
</svg>
