<svg width="32" height="33" viewBox="0 0 32 33" fill="none" xmlns="http://www.w3.org/2000/svg">
<path fill-rule="evenodd" clip-rule="evenodd" d="M27.0533 11.9565C27.2307 12.3871 27.4987 12.7738 27.84 13.0898V13.0925C28.3118 13.5335 28.6879 14.0668 28.945 14.6593C29.2022 15.2517 29.3349 15.8906 29.3349 16.5365C29.3349 17.1823 29.2022 17.8213 28.945 18.4137C28.6879 19.0061 28.3118 19.5394 27.84 19.9805C27.4996 20.2976 27.2311 20.684 27.0527 21.1136C26.8742 21.5433 26.7898 22.0062 26.8053 22.4711C26.8274 23.1165 26.7167 23.7595 26.4799 24.3603C26.2431 24.9611 25.8854 25.5067 25.4289 25.9635C24.9724 26.4202 24.4269 26.7782 23.8263 27.0153C23.2257 27.2524 22.5827 27.3636 21.9373 27.3418C21.4724 27.3295 21.01 27.4152 20.5804 27.5935C20.1508 27.7717 19.7636 28.0385 19.444 28.3765C19.0029 28.8477 18.4697 29.2233 17.8775 29.4801C17.2854 29.7368 16.6468 29.8693 16.0013 29.8693C15.3559 29.8693 14.7173 29.7368 14.1251 29.4801C13.533 29.2233 12.9998 28.8477 12.5587 28.3765C12.2413 28.0356 11.8545 27.7668 11.4244 27.5883C10.9942 27.4098 10.5308 27.3258 10.0653 27.3418C9.41957 27.3642 8.77612 27.2534 8.17498 27.0164C7.57385 26.7795 7.0279 26.4214 6.57107 25.9645C6.11423 25.5075 5.7563 24.9614 5.51951 24.3602C5.28272 23.7591 5.17214 23.1156 5.19466 22.4698C5.21049 22.0049 5.12644 21.542 4.94819 21.1124C4.76993 20.6827 4.50161 20.2963 4.16133 19.9791C3.68973 19.538 3.31376 19.0047 3.05672 18.4122C2.79968 17.8198 2.66705 17.1809 2.66705 16.5351C2.66705 15.8894 2.79968 15.2505 3.05672 14.658C3.31376 14.0656 3.68973 13.5323 4.16133 13.0911C4.50196 12.7737 4.77048 12.3868 4.94875 11.9567C5.12702 11.5265 5.21088 11.0632 5.19466 10.5978C5.1738 9.95237 5.28523 9.30949 5.52209 8.70872C5.75896 8.10795 6.11626 7.56201 6.57199 7.10448C7.03166 6.65177 7.57801 6.29655 8.17829 6.06011C8.77856 5.82366 9.4204 5.71087 10.0653 5.72848C10.5311 5.74817 10.9955 5.6659 11.4262 5.48741C11.8569 5.30893 12.2434 5.03854 12.5587 4.69515C12.9996 4.22341 13.5328 3.8473 14.1251 3.59017C14.7174 3.33303 15.3563 3.20035 16.002 3.20035C16.6477 3.20035 17.2866 3.33303 17.8789 3.59017C18.4712 3.8473 19.0044 4.22341 19.4453 4.69515C19.7628 5.03533 20.1495 5.30356 20.5794 5.4818C21.0092 5.66004 21.4723 5.74415 21.9373 5.72848C22.5828 5.70615 23.226 5.81683 23.8268 6.05363C24.4277 6.29044 24.9735 6.64831 25.4301 7.105C25.8868 7.56168 26.2447 8.10743 26.4815 8.70831C26.7183 9.30918 26.829 9.95234 26.8067 10.5978C26.7907 11.0645 26.8747 11.5271 27.052 11.9578L27.0533 11.9565ZM13.236 10.3618C12.8824 10.3618 12.5432 10.5023 12.2932 10.7523C12.0431 11.0024 11.9027 11.3415 11.9027 11.6951C11.9027 12.0488 12.0431 12.3879 12.2932 12.638C12.5432 12.888 12.8824 13.0285 13.236 13.0285H13.2493C13.603 13.0285 13.9421 12.888 14.1921 12.638C14.4422 12.3879 14.5827 12.0488 14.5827 11.6951C14.5827 11.3415 14.4422 11.0024 14.1921 10.7523C13.9421 10.5023 13.603 10.3618 13.2493 10.3618H13.236ZM21.088 13.3298C21.3382 13.0798 21.4788 12.7406 21.4789 12.387C21.4791 12.0333 21.3387 11.694 21.0887 11.4438C20.8386 11.1936 20.4995 11.053 20.1458 11.0529C19.7921 11.0528 19.4528 11.1931 19.2027 11.4431L10.912 19.7338C10.6691 19.9853 10.5347 20.3221 10.5378 20.6717C10.5408 21.0213 10.681 21.3557 10.9282 21.6029C11.1754 21.8501 11.5099 21.9903 11.8595 21.9934C12.2091 21.9964 12.5459 21.862 12.7973 21.6191L21.088 13.3298ZM17.368 20.0338C17.0144 20.0338 16.6752 20.1743 16.4252 20.4243C16.1751 20.6744 16.0347 21.0135 16.0347 21.3671C16.0347 21.7208 16.1751 22.0599 16.4252 22.31C16.6752 22.56 17.0144 22.7005 17.368 22.7005H17.3813C17.735 22.7005 18.0741 22.56 18.3241 22.31C18.5742 22.0599 18.7147 21.7208 18.7147 21.3671C18.7147 21.0135 18.5742 20.6744 18.3241 20.4243C18.0741 20.1743 17.735 20.0338 17.3813 20.0338H17.368Z" fill="white"/>
</svg>
