<svg width="21" height="21" viewBox="0 0 21 21" fill="none" xmlns="http://www.w3.org/2000/svg">
<path d="M14.875 10.0338C15.3723 10.0338 15.8492 10.2314 16.2008 10.583C16.5525 10.9346 16.75 11.4115 16.75 11.9088V12.5338C16.75 14.9976 14.425 17.5338 10.5 17.5338C6.575 17.5338 4.25 14.9976 4.25 12.5338V11.9088C4.25 11.4115 4.44754 10.9346 4.79917 10.583C5.15081 10.2314 5.62772 10.0338 6.125 10.0338H14.875ZM10.5 1.90881C11.4117 1.90881 12.286 2.27098 12.9307 2.91563C13.5753 3.56029 13.9375 4.43463 13.9375 5.34631C13.9375 6.258 13.5753 7.13234 12.9307 7.77699C12.286 8.42165 11.4117 8.78381 10.5 8.78381C9.58832 8.78381 8.71398 8.42165 8.06932 7.77699C7.42466 7.13234 7.0625 6.258 7.0625 5.34631C7.0625 4.43463 7.42466 3.56029 8.06932 2.91563C8.71398 2.27098 9.58832 1.90881 10.5 1.90881Z" fill="#08A081"/>
</svg>
