<svg width="32" height="33" viewBox="0 0 32 33" fill="none" xmlns="http://www.w3.org/2000/svg">
<g clip-path="url(#clip0_23614_8090)">
<path fill-rule="evenodd" clip-rule="evenodd" d="M17.7143 2.2481C17.7143 1.79344 17.5337 1.35741 17.2122 1.03592C16.8907 0.714425 16.4547 0.533813 16 0.533813C15.5453 0.533813 15.1093 0.714425 14.7878 1.03592C14.4663 1.35741 14.2857 1.79344 14.2857 2.2481V4.53381C14.2857 4.98847 14.4663 5.42451 14.7878 5.746C15.1093 6.06749 15.5453 6.2481 16 6.2481C16.4547 6.2481 16.8907 6.06749 17.2122 5.746C17.5337 5.42451 17.7143 4.98847 17.7143 4.53381V2.2481ZM1.14286 32.5338H6.44571C8.73874 32.5337 10.948 31.6721 12.6356 30.1196C14.3231 28.5671 15.3657 26.4372 15.5566 24.1521L15.808 21.0984C15.8529 20.5628 15.6911 20.0303 15.3557 19.6103C15.0203 19.1904 14.5368 18.9147 14.0046 18.8401H14C13.3681 18.7751 12.7355 18.957 12.2346 19.3476C11.7336 19.7382 11.403 20.3074 11.312 20.9361L10.944 23.4618C10.9007 23.7619 10.7399 24.0324 10.4971 24.214C10.2542 24.3955 9.94922 24.4732 9.64914 24.4298C9.34907 24.3865 9.0785 24.2257 8.89697 23.9829C8.71544 23.74 8.6378 23.435 8.68114 23.135L9.04686 20.607C9.21024 19.4831 9.77088 18.455 10.6272 17.709C11.4834 16.963 12.5787 16.5485 13.7143 16.5407V12.5224C13.7153 11.747 13.4231 10.9999 12.8963 10.431C12.3694 9.86214 11.6469 9.5135 10.8738 9.45507C10.1006 9.39664 9.33395 9.63275 8.72761 10.116C8.12126 10.5993 7.72009 11.294 7.60457 12.0607L6.00914 22.591C5.9271 23.1317 5.6539 23.6251 5.23912 23.9816C4.82434 24.338 4.29549 24.534 3.74857 24.5338H1.14286C0.839753 24.5338 0.549062 24.6542 0.334735 24.8685C0.120408 25.0829 0 25.3736 0 25.6767L0 31.391C0 31.6941 0.120408 31.9848 0.334735 32.1991C0.549062 32.4134 0.839753 32.5338 1.14286 32.5338ZM30.8571 32.5338H25.5543C23.2613 32.5337 21.052 31.6721 19.3644 30.1196C17.6769 28.5671 16.6343 26.4372 16.4434 24.1521L16.192 21.0984C16.1467 20.5607 16.3098 20.0262 16.6476 19.6054C16.9855 19.1846 17.4721 18.9098 18.0069 18.8378C18.638 18.7748 19.2691 18.9578 19.7687 19.3487C20.2682 19.7397 20.5975 20.3083 20.688 20.9361L21.056 23.4618C21.0993 23.7619 21.2601 24.0324 21.503 24.214C21.7458 24.3955 22.0508 24.4732 22.3509 24.4298C22.6509 24.3865 22.9215 24.2257 23.103 23.9829C23.2846 23.74 23.3622 23.435 23.3189 23.135L22.9531 20.607C22.7903 19.4827 22.2298 18.4541 21.3735 17.7076C20.5172 16.9611 19.4217 16.5463 18.2857 16.5384V12.5247C18.2847 11.7493 18.5769 11.0022 19.1037 10.4333C19.6306 9.86442 20.3531 9.51579 21.1262 9.45736C21.8994 9.39893 22.666 9.63503 23.2724 10.1183C23.8787 10.6016 24.2799 11.2962 24.3954 12.063L25.9909 22.5932C26.0729 23.134 26.3461 23.6274 26.7609 23.9838C27.1757 24.3403 27.7045 24.5363 28.2514 24.5361H30.8571C31.1602 24.5361 31.4509 24.6565 31.6653 24.8708C31.8796 25.0852 32 25.3759 32 25.679V31.3932C32 31.6963 31.8796 31.987 31.6653 32.2014C31.4509 32.4157 31.1602 32.5361 30.8571 32.5361V32.5338ZM26.3543 2.17953C26.6753 2.50096 26.8556 2.93667 26.8556 3.39096C26.8556 3.84524 26.6753 4.28096 26.3543 4.60238L24.0686 6.8881C23.9116 7.05653 23.7224 7.19162 23.5121 7.28531C23.3018 7.37901 23.0748 7.42939 22.8446 7.43345C22.6144 7.43751 22.3858 7.39517 22.1723 7.30895C21.9589 7.22273 21.765 7.0944 21.6022 6.93162C21.4394 6.76883 21.3111 6.57492 21.2249 6.36146C21.1386 6.14801 21.0963 5.91937 21.1004 5.68919C21.1044 5.45901 21.1548 5.23201 21.2485 5.02173C21.3422 4.81144 21.4773 4.62218 21.6457 4.46524L23.9314 2.17953C24.2529 1.8585 24.6886 1.67818 25.1429 1.67818C25.5971 1.67818 26.0329 1.8585 26.3543 2.17953ZM8.06857 2.17953C7.7436 1.87672 7.31378 1.71186 6.86966 1.7197C6.42555 1.72754 6.00181 1.90745 5.68772 2.22154C5.37364 2.53562 5.19372 2.95936 5.18589 3.40348C5.17805 3.84759 5.3429 4.27741 5.64571 4.60238L7.93143 6.8881C8.2564 7.19091 8.68622 7.35576 9.13034 7.34793C9.57445 7.34009 9.99819 7.16018 10.3123 6.84609C10.6264 6.532 10.8063 6.10827 10.8141 5.66415C10.822 5.22003 10.6571 4.79021 10.3543 4.46524L8.06857 2.17953Z" fill="white"/>
</g>
<defs>
<clipPath id="clip0_23614_8090">
<rect width="32" height="32" fill="white" transform="translate(0 0.533813)"/>
</clipPath>
</defs>
</svg>
