<svg width="17" height="17" viewBox="0 0 17 17" fill="none" xmlns="http://www.w3.org/2000/svg">
<g clip-path="url(#clip0_23614_8043)">
<path d="M15.75 0.0338135H9.75C9.338 0.0338135 8.761 0.272813 8.47 0.563813L1.031 8.00281C0.890732 8.14374 0.811985 8.33448 0.811985 8.53331C0.811985 8.73215 0.890732 8.92289 1.031 9.06381L7.47 15.5028C7.61092 15.6431 7.80167 15.7218 8.0005 15.7218C8.19933 15.7218 8.39007 15.6431 8.531 15.5028L15.97 8.06381C16.262 7.77181 16.5 7.19581 16.5 6.78381V0.783813C16.4992 0.585144 16.4199 0.394838 16.2795 0.254356C16.139 0.113875 15.9487 0.0346034 15.75 0.0338135ZM12 6.03381C11.803 6.03375 11.6078 5.99487 11.4258 5.9194C11.2438 5.84394 11.0784 5.73335 10.9391 5.59397C10.7998 5.45459 10.6894 5.28914 10.614 5.10707C10.5387 4.92499 10.4999 4.72986 10.5 4.53281C10.5001 4.33576 10.5389 4.14066 10.6144 3.95864C10.6899 3.77661 10.8005 3.61123 10.9398 3.47195C11.0792 3.33266 11.2447 3.22219 11.4267 3.14684C11.6088 3.07149 11.804 3.03275 12.001 3.03281C12.399 3.03295 12.7806 3.19116 13.0619 3.47265C13.3432 3.75415 13.5011 4.13586 13.501 4.53381C13.5009 4.93177 13.3427 5.31338 13.0612 5.59468C12.7797 5.87599 12.398 6.03395 12 6.03381Z" fill="#08A081"/>
</g>
<defs>
<clipPath id="clip0_23614_8043">
<rect width="16" height="16" fill="white" transform="translate(0.5 0.0338135)"/>
</clipPath>
</defs>
</svg>
