<svg width="32" height="33" viewBox="0 0 32 33" fill="none" xmlns="http://www.w3.org/2000/svg">
<g clip-path="url(#clip0_23614_8105)">
<path fill-rule="evenodd" clip-rule="evenodd" d="M15.064 3.46047C15.5902 3.26361 16.1651 3.23795 16.7067 3.38714L16.936 3.46047L26.2693 6.96047C26.7426 7.13793 27.1556 7.44621 27.4604 7.84941C27.7652 8.25261 27.9491 8.73411 27.9907 9.23781L28 9.45781V16.6085C27.9999 18.769 27.4166 20.8895 26.3115 22.7461C25.2064 24.6026 23.6205 26.1264 21.7213 27.1565L21.3667 27.3418L16.8947 29.5778C16.6484 29.7008 16.3795 29.7715 16.1046 29.7858C15.8298 29.8 15.5549 29.7573 15.2973 29.6605L15.1053 29.5778L10.6333 27.3418C8.70081 26.3755 7.06503 24.9054 5.89867 23.0866C4.73231 21.2679 4.07864 19.1679 4.00667 17.0085L4 16.6085V9.45781C4.00001 8.95265 4.1435 8.45788 4.41378 8.0311C4.68405 7.60433 5.06999 7.2631 5.52667 7.04714L5.73067 6.96047L15.064 3.46047ZM20.5773 12.0391L14.4467 18.1698L12.0893 15.8125C11.8391 15.5625 11.4999 15.4221 11.1462 15.4222C10.7925 15.4223 10.4533 15.563 10.2033 15.8131C9.95332 16.0633 9.81294 16.4026 9.81306 16.7563C9.81319 17.11 9.95381 17.4491 10.204 17.6991L13.4093 20.9045C13.5455 21.0407 13.7072 21.1488 13.8852 21.2226C14.0632 21.2963 14.254 21.3343 14.4467 21.3343C14.6393 21.3343 14.8301 21.2963 15.0081 21.2226C15.1861 21.1488 15.3478 21.0407 15.484 20.9045L22.4627 13.9245C22.59 13.8015 22.6916 13.6544 22.7615 13.4917C22.8313 13.329 22.8681 13.154 22.8697 12.977C22.8712 12.8 22.8375 12.6244 22.7704 12.4605C22.7034 12.2967 22.6044 12.1478 22.4792 12.0226C22.354 11.8974 22.2051 11.7984 22.0413 11.7314C21.8774 11.6643 21.7018 11.6306 21.5248 11.6321C21.3478 11.6337 21.1728 11.6705 21.0101 11.7403C20.8475 11.8102 20.7003 11.9118 20.5773 12.0391Z" fill="white"/>
</g>
<defs>
<clipPath id="clip0_23614_8105">
<rect width="32" height="32" fill="white" transform="translate(0 0.533813)"/>
</clipPath>
</defs>
</svg>
