<svg width="21" height="21" viewBox="0 0 21 21" fill="none" xmlns="http://www.w3.org/2000/svg">
<path fill-rule="evenodd" clip-rule="evenodd" d="M17.5083 8.25047C17.4598 8.24813 17.4111 8.24729 17.3625 8.24797H15.3333C13.6733 8.24797 12.2517 9.56547 12.2517 11.2838C12.2517 13.0021 13.6733 14.3196 15.3342 14.3196H17.3617C17.4125 14.3196 17.4617 14.3196 17.5075 14.3163C17.8501 14.2944 18.1731 14.1487 18.4163 13.9063C18.6595 13.6639 18.8062 13.3414 18.8292 12.9988C18.8325 12.9496 18.8325 12.8971 18.8325 12.8488V9.7188C18.8325 9.67047 18.8325 9.61797 18.8292 9.5688C18.8062 9.22636 18.6596 8.90393 18.4166 8.66155C18.1736 8.41917 17.8508 8.27337 17.5083 8.2513M15.1558 12.0938C15.5833 12.0938 15.9308 11.7321 15.9308 11.2846C15.9308 10.8371 15.5833 10.4755 15.1558 10.4755C14.7283 10.4755 14.3817 10.8371 14.3817 11.2846C14.3817 11.7321 14.7275 12.0938 15.1558 12.0938Z" fill="#08A081"/>
<path fill-rule="evenodd" clip-rule="evenodd" d="M17.3617 15.5338C17.3896 15.5329 17.4173 15.5385 17.4427 15.5502C17.4681 15.5619 17.4903 15.5794 17.5077 15.6013C17.525 15.6232 17.537 15.6488 17.5426 15.6762C17.5482 15.7036 17.5473 15.7319 17.54 15.7588C17.3783 16.3355 17.1225 16.8272 16.7117 17.2405C16.1108 17.8463 15.3483 18.1155 14.4067 18.243C13.4917 18.3672 12.3233 18.3672 10.8467 18.3672H9.14916C7.67333 18.3672 6.50416 18.3672 5.58916 18.243C4.6475 18.1155 3.885 17.8463 3.28416 17.2405C2.68333 16.6363 2.41666 15.8672 2.29 14.9188C2.16666 13.9955 2.16666 12.8172 2.16666 11.3297V11.238C2.16666 9.7505 2.16666 8.57133 2.29 7.64967C2.41666 6.7005 2.68333 5.93383 3.28333 5.32633C3.88416 4.72133 4.64666 4.45133 5.58833 4.32467C6.50416 4.2005 7.67333 4.2005 9.14916 4.2005H10.8467C12.3225 4.2005 13.4917 4.2005 14.4067 4.32467C15.3483 4.45217 16.1108 4.72133 16.7117 5.32633C17.1225 5.7405 17.3783 6.23217 17.54 6.80967C17.5472 6.83657 17.5479 6.86478 17.5423 6.89204C17.5366 6.91929 17.5246 6.94484 17.5072 6.96663C17.4899 6.98842 17.4677 7.00584 17.4424 7.01751C17.4172 7.02918 17.3895 7.03477 17.3617 7.03383H15.3342C13.0558 7.03383 11.0483 8.848 11.0483 11.2838C11.0483 13.7197 13.0567 15.5338 15.335 15.5338H17.3617ZM5.17833 7.43883C5.09899 7.43916 5.02049 7.45511 4.94732 7.48578C4.87414 7.51644 4.80772 7.56122 4.75185 7.61756C4.69598 7.67389 4.65175 7.74068 4.6217 7.81411C4.59164 7.88753 4.57634 7.96616 4.57666 8.0455C4.57666 8.38133 4.84583 8.653 5.17833 8.653H8.39166C8.725 8.653 8.99416 8.38133 8.99416 8.0455C8.99461 7.88519 8.9314 7.73125 8.81844 7.61751C8.70547 7.50376 8.55198 7.4395 8.39166 7.43883H5.17833Z" fill="#08A081"/>
<path d="M6.98083 3.38717L8.6125 2.18467C9.03829 1.86989 9.55383 1.70001 10.0833 1.70001C10.6128 1.70001 11.1284 1.86989 11.5542 2.18467L13.195 3.39384C12.5083 3.36717 11.7417 3.36717 10.9025 3.36717H9.09417C8.32583 3.36717 7.62 3.36717 6.98083 3.38717Z" fill="#08A081"/>
</svg>
