<svg width="45" height="46" viewBox="0 0 45 46" fill="none" xmlns="http://www.w3.org/2000/svg">
<path d="M45 23.0335C45 26.4547 44.2366 29.6972 42.8705 32.5982C42.499 33.3857 42.0871 34.147 41.6311 34.8804C40.9561 35.9712 40.1906 36.9998 39.3408 37.9541C39.1802 38.1369 39.0153 38.3177 38.8446 38.4945C38.8065 38.5367 38.7663 38.5789 38.7261 38.6211C38.6417 38.7095 38.5573 38.7979 38.4709 38.8843C38.0832 39.274 37.6814 39.6516 37.2656 40.0133C37.1591 40.1056 37.0506 40.1981 36.9422 40.2885C36.8579 40.3609 36.7715 40.4311 36.6831 40.5035C36.3898 40.7426 36.0885 40.9736 35.7791 41.1986C35.757 41.2167 35.7349 41.2327 35.7128 41.2489C35.5461 41.3694 35.3772 41.49 35.2065 41.6065C35.07 41.6989 34.9313 41.7934 34.7926 41.8837C34.7605 41.9058 34.7263 41.9259 34.6922 41.9459C34.3205 42.189 33.9389 42.4181 33.5512 42.6351C33.515 42.6572 33.4788 42.6773 33.4407 42.6974C33.3884 42.7276 33.3342 42.7576 33.2799 42.7858H33.2779C33.2578 42.7978 33.2377 42.8079 33.2177 42.8199C33.0751 42.8983 32.9304 42.9746 32.7858 43.049C32.7777 43.0529 32.7697 43.0569 32.7617 43.061C32.6674 43.1092 32.5729 43.1575 32.4784 43.2017C32.2113 43.3363 31.9421 43.4648 31.6688 43.5874C31.486 43.6697 31.3012 43.7481 31.1143 43.8244V43.8264C31.0561 43.8505 30.9979 43.8745 30.9376 43.8966H30.9356C30.7889 43.959 30.6402 44.0172 30.4916 44.0714C29.3123 44.5215 28.0849 44.873 26.8193 45.1181C26.7348 45.1362 26.6505 45.1522 26.5661 45.1663C26.2708 45.2205 25.9715 45.2687 25.6722 45.3089V45.3109C25.6119 45.319 25.5516 45.327 25.4914 45.335C25.4291 45.3431 25.3689 45.3511 25.3065 45.3591C25.2804 45.3631 25.2543 45.365 25.2282 45.3691C24.3342 45.4776 23.4241 45.5339 22.5001 45.5339H22.462C22.3395 45.5339 22.2189 45.5319 22.0984 45.5299C21.9477 45.5279 21.7971 45.5218 21.6484 45.5159C21.568 45.5159 21.4876 45.5119 21.4073 45.5078C20.9935 45.4877 20.5836 45.4575 20.1757 45.4134C19.999 45.3973 19.8222 45.3772 19.6474 45.3531C19.5791 45.3472 19.5148 45.3371 19.4485 45.329H19.4465C19.4384 45.327 19.4284 45.327 19.4203 45.3251C17.9558 45.1242 16.5375 44.7827 15.1794 44.3145C14.6189 44.1217 14.0685 43.9067 13.528 43.6717C13.2869 43.5672 13.0479 43.4588 12.8108 43.3463C12.7546 43.3181 12.6964 43.2901 12.64 43.2639C12.4914 43.1896 12.3447 43.1173 12.2 43.0409C12.0955 42.9886 11.9911 42.9344 11.8887 42.8782C11.8686 42.8681 11.8506 42.858 11.8305 42.848C11.7521 42.8058 11.6718 42.7616 11.5954 42.7174C11.5513 42.6933 11.5071 42.6671 11.4629 42.643C11.2399 42.5185 11.0189 42.3899 10.8019 42.2573C10.7115 42.2031 10.6211 42.1468 10.5327 42.0885C10.3961 42.0042 10.2594 41.9158 10.1248 41.8233C10.0867 41.8012 10.0485 41.7751 10.0104 41.7489H10.0084C9.96617 41.7209 9.92397 41.6947 9.88386 41.6645C9.72718 41.5601 9.5725 41.4516 9.41981 41.339C9.38567 41.3169 9.35349 41.2928 9.31935 41.2688C9.31736 41.2668 9.31538 41.2668 9.31339 41.2648C9.3114 41.2628 9.31141 41.2628 9.30943 41.2608C9.26324 41.2267 9.21297 41.1925 9.16678 41.1563C9.08248 41.096 9.00004 41.0337 8.91761 40.9694C8.32903 40.5255 7.76244 40.0514 7.22005 39.5491C7.00912 39.3563 6.80418 39.1574 6.60132 38.9544C6.56718 38.9203 6.53504 38.8881 6.5009 38.854C6.42256 38.7757 6.34619 38.6973 6.27393 38.617C5.73153 38.0565 5.2212 37.4638 4.74113 36.8492C1.76984 33.0362 0 28.2428 0 23.0337C0 10.6063 10.0729 0.533447 22.5002 0.533447C34.9271 0.533337 45 10.6062 45 23.0335Z" fill="#E3F9FA"/>
<path d="M15.2794 37.2709L13.5275 43.6714C13.0775 43.4765 12.6336 43.2656 12.1997 43.0407C12.0951 42.9884 11.9908 42.9341 11.8883 42.8779C11.7899 42.8256 11.6914 42.7734 11.595 42.7172C11.5508 42.6931 11.5066 42.6669 11.4624 42.6428C11.2394 42.5183 11.0184 42.3897 10.8014 42.2571C10.711 42.2028 10.6206 42.1466 10.5322 42.0882C10.3956 42.0039 10.2589 41.9155 10.1244 41.8231C10.0862 41.801 10.048 41.7749 10.0099 41.7487H10.0079C9.96569 41.7206 9.92349 41.6945 9.88338 41.6643C9.72671 41.5599 9.572 41.4514 9.4193 41.3388C9.38516 41.3167 9.35302 41.2926 9.31888 41.2685C9.31689 41.2665 9.3149 41.2665 9.31292 41.2645C9.31093 41.2626 9.31094 41.2626 9.30895 41.2606C9.26277 41.2264 9.21249 41.1923 9.16631 41.156C9.082 41.0957 8.99956 41.0335 8.91714 40.9692C8.32856 40.5253 7.76197 40.0511 7.21957 39.5489C7.67766 37.7207 8.27221 36.1196 8.87096 34.8902C11.4765 29.5463 12.8105 28.6283 12.8105 28.6283L15.2794 37.2709Z" fill="#00BA88"/>
<path d="M32.7864 43.049C32.7784 43.053 32.7703 43.057 32.7624 43.0611C32.668 43.1092 32.5735 43.1575 32.4791 43.2017C32.2119 43.3364 31.9428 43.4649 31.6694 43.5874C31.4867 43.6698 31.3018 43.7482 31.115 43.8244V43.8264C31.0567 43.8505 30.9985 43.8746 30.9382 43.8967H30.9362C30.7896 43.959 30.6409 44.0172 30.4922 44.0715C29.313 44.5215 28.0855 44.8731 26.8199 45.1182C26.7355 45.1363 26.6512 45.1523 26.5668 45.1663C26.1509 45.2427 25.731 45.307 25.3072 45.3593C24.387 45.4737 23.4508 45.5341 22.5006 45.5341H22.4625C22.34 45.5341 22.2194 45.5321 22.0989 45.5301C21.9482 45.5281 21.7976 45.522 21.6489 45.516C21.5685 45.516 21.4881 45.5121 21.4078 45.508C20.7368 45.4758 20.0758 45.4136 19.421 45.3252C17.9564 45.1244 16.5382 44.7828 15.18 44.3147C15.1761 44.2906 15.172 44.2665 15.168 44.2424C14.7039 41.4641 12.7693 28.8359 12.7693 28.8359L18.778 26.5598C18.778 26.5598 20.5378 28.5969 22.7597 28.5969C24.9817 28.5969 28.6841 26.4674 28.6841 26.4674L32.6658 28.5025C32.6659 28.5022 32.7201 37.7936 32.7864 43.049Z" fill="white"/>
<path d="M20.1753 45.4144C19.9221 45.3903 19.671 45.3601 19.4198 45.326C17.9553 45.1251 16.5371 44.7836 15.1789 44.3154C14.6184 44.1226 14.068 43.9076 13.5275 43.6726C13.0775 43.4777 12.6336 43.2668 12.1997 43.0418C12.0951 42.9896 11.9907 42.9353 11.8883 42.8791C11.8682 42.869 11.8502 42.859 11.8301 42.8489L12.7381 28.6497L18.777 26.5604C18.777 26.5604 19.6972 38.0074 20.1753 45.4144Z" fill="#00BA88"/>
<path d="M33.5501 42.6349C33.4396 42.6992 33.3291 42.7594 33.2166 42.8198C33.074 42.8981 32.9293 42.9744 32.7847 43.0488C32.7766 43.0528 32.7686 43.0568 32.7606 43.0608C32.6663 43.109 32.5718 43.1573 32.4773 43.2015C32.2102 43.3362 31.941 43.4647 31.6677 43.5872C31.4849 43.6695 31.3001 43.748 31.1132 43.8242V43.8262C31.055 43.8503 30.9968 43.8744 30.9364 43.8965H30.9345C30.7878 43.9588 30.6391 44.017 30.4905 44.0713C29.3112 44.5213 28.0838 44.8729 26.8182 45.1179C26.7337 45.1361 26.6494 45.1521 26.565 45.1661C26.1491 45.2425 25.7293 45.3068 25.3054 45.359C25.2793 45.363 25.2532 45.365 25.2271 45.3691C25.7032 37.9642 26.6293 26.4348 26.6293 26.4348L32.6361 28.711L33.5501 42.6349Z" fill="#00BA88"/>
<path d="M38.8452 38.4946C38.807 38.5368 38.7668 38.579 38.7266 38.6212C38.6422 38.7096 38.5579 38.798 38.4715 38.8844C38.0838 39.2741 37.6819 39.6518 37.2661 40.0134C37.1596 40.1058 37.0511 40.1982 36.9427 40.2886C36.8584 40.361 36.772 40.4313 36.6836 40.5036C36.3903 40.7427 36.089 40.9738 35.7796 41.1987C35.7575 41.2168 35.7354 41.2329 35.7133 41.249C35.5466 41.3695 35.3778 41.4901 35.2071 41.6067C35.0705 41.699 34.9318 41.7935 34.7932 41.8839C34.761 41.906 34.7269 41.9261 34.6927 41.9461C34.2146 42.2574 33.7224 42.5488 33.2181 42.8199L31.9043 39.5755L32.5512 28.7112C32.5512 28.7112 35.7072 32.0481 38.3128 37.3918C38.4815 37.7393 38.6623 38.1069 38.8452 38.4946Z" fill="#00BA88"/>
<path d="M23.2589 7.37053C21.6957 6.91731 18.0097 7.85789 16.36 11.3825C14.7106 14.9061 15.9095 19.9663 15.9475 20.9804C15.9839 21.9497 15.0843 23.085 14.7855 24.0047C14.3748 25.2687 14.1643 26.6466 14.6716 27.917C15.1569 29.1325 16.2052 30.0222 17.2486 30.8122C18.2664 31.5829 19.3379 32.3194 20.5523 32.7138C23.7959 33.7671 28.1288 33.293 30.5705 30.7671C31.6578 29.6424 32.8576 28.8174 32.8576 27.9925C32.8576 27.1676 31.5453 27.5052 31.2453 26.3803C30.9453 25.2555 28.8832 19.7063 28.8457 17.9439C28.8083 16.1816 29.5581 12.5448 28.3208 10.7074C27.0834 8.87031 24.7147 7.7926 23.2589 7.37053Z" fill="#63534C"/>
<path d="M21.3789 10.4299C20.7486 10.5034 20.1291 10.6528 19.5606 10.9166C18.0399 11.6224 17.4032 13.0585 17.0942 14.5534C16.7408 16.2623 16.3104 18.1262 16.7648 19.8529C17.0122 20.7932 17.5252 21.6595 18.1712 22.4121C19.2039 23.6151 20.4399 24.1609 22.1172 24.1572C23.7609 24.1535 25.8356 23.242 26.6507 21.918C27.4494 20.6211 27.266 19.0068 27.1378 17.5764C26.9778 15.7922 26.707 13.8323 25.7731 12.2474C25.3875 11.5931 24.8353 11.0037 24.1174 10.6857C23.4794 10.4031 22.7533 10.3513 22.0491 10.3787C21.8254 10.3875 21.6015 10.404 21.3789 10.4299Z" fill="#F9BB91"/>
<path d="M20.2613 15.2403C19.9246 15.1143 19.6558 15.0579 18.9602 15.0962C18.0661 15.1453 17.8181 15.5732 17.7743 15.6669C17.773 15.6696 17.7761 15.6718 17.7784 15.6699C17.8604 15.6005 18.303 15.5726 18.3728 15.5654C18.7199 15.5297 19.0337 15.522 19.4632 15.5605C19.7272 15.5843 20.3976 15.7799 20.4444 15.5752C20.4899 15.3755 20.3433 15.2711 20.2613 15.2403Z" fill="#181E23"/>
<path d="M23.4174 15.3568C23.7583 15.2429 24.2316 15.2103 24.7368 15.2603C25.213 15.3075 25.8321 15.7466 25.8949 15.874C25.8991 15.8824 25.8899 15.8912 25.8817 15.8867C25.7269 15.8022 25.0498 15.7286 24.9634 15.7184C24.6311 15.6793 24.294 15.6813 23.9623 15.7247C23.8569 15.7385 23.2757 15.8953 23.2401 15.7088C23.2016 15.5076 23.3343 15.3845 23.4174 15.3568Z" fill="#181E23"/>
<path d="M22.032 17.266C22.1521 17.5886 22.1502 17.926 21.9959 18.2391C21.9232 18.3867 21.8221 18.5172 21.6937 18.6206C21.5588 18.7293 21.3988 18.7564 21.5434 19.0189C21.5977 19.1175 21.7578 19.2124 21.8419 19.2871C21.9764 19.4066 21.7669 19.5922 21.6336 19.4739C21.3884 19.2564 20.9687 18.9447 21.2746 18.5957C21.4153 18.4353 21.6032 18.3659 21.7166 18.1712C21.8541 17.9351 21.8782 17.6494 21.7831 17.3938C21.7209 17.2268 21.9692 17.0975 22.032 17.266Z" fill="#E5A87F"/>
<path d="M20.3449 16.8413C20.1667 16.4909 19.7468 16.3327 19.3755 16.3137C18.9163 16.2901 18.5248 16.4724 18.213 16.8063C18.0574 16.9731 18.3538 17.2052 18.5036 17.0222C18.8887 16.5521 19.8002 16.3189 20.2012 16.9303C20.2542 17.0115 20.3889 16.9278 20.3449 16.8413Z" fill="#262223"/>
<path d="M17.7266 16.5389C17.8481 16.7799 18.125 17.0677 18.4148 17.0679C18.4625 17.0679 18.4839 17.0047 18.4358 16.9832C18.3122 16.9279 18.1891 16.9024 18.0742 16.8229C17.9568 16.7416 17.8616 16.6345 17.7913 16.5098C17.7692 16.4703 17.7055 16.4971 17.7266 16.5389Z" fill="#262223"/>
<path d="M18.0207 16.4276C18.0696 16.5631 18.1573 16.6815 18.2725 16.7675C18.3644 16.8363 18.5316 16.9176 18.6437 16.858C18.6646 16.847 18.671 16.8164 18.6496 16.8013C18.5651 16.7419 18.4451 16.7312 18.352 16.6817C18.2331 16.6184 18.1429 16.5205 18.0853 16.3984C18.0656 16.3564 18.0051 16.3845 18.0207 16.4276Z" fill="#262223"/>
<path d="M18.3743 16.2337C18.4015 16.4381 18.5068 16.6966 18.7321 16.7436C18.7816 16.7539 18.7972 16.6866 18.765 16.6589C18.6949 16.5986 18.6178 16.5641 18.5582 16.4891C18.4965 16.4117 18.4619 16.3193 18.4385 16.2239C18.4284 16.1836 18.3685 16.1912 18.3743 16.2337Z" fill="#262223"/>
<path d="M18.6617 16.1739C18.6013 16.3625 18.9127 16.5857 19.0743 16.5902C19.0973 16.5909 19.1098 16.5633 19.0907 16.5479C19.0269 16.4962 18.9468 16.4676 18.8815 16.4159C18.7986 16.3503 18.7377 16.2831 18.7083 16.1793C18.7026 16.1584 18.6701 16.148 18.6617 16.1739Z" fill="#262223"/>
<path d="M23.012 17.018C23.196 16.6702 23.6221 16.518 23.9972 16.5046C24.4614 16.4879 24.8546 16.6758 25.1659 17.0144C25.3212 17.1834 25.0191 17.4112 24.8699 17.2261C24.4863 16.7502 23.5682 16.5035 23.1562 17.1092C23.1016 17.1896 22.9665 17.1039 23.012 17.018Z" fill="#262223"/>
<path d="M25.662 16.7532C25.5365 16.9924 25.2535 17.2762 24.9607 17.2721C24.9127 17.2715 24.8917 17.2079 24.9404 17.1872C25.0659 17.1336 25.1907 17.1099 25.3075 17.0321C25.4272 16.9525 25.5245 16.8468 25.5969 16.7231C25.6198 16.6839 25.6838 16.7116 25.662 16.7532Z" fill="#262223"/>
<path d="M25.3641 16.6382C25.3131 16.7732 25.2231 16.8903 25.1059 16.9746C25.0122 17.042 24.8424 17.1207 24.7299 17.0596C24.7089 17.0483 24.7028 17.0175 24.7246 17.0029C24.8106 16.9446 24.9321 16.9357 25.0266 16.8875C25.1473 16.826 25.2396 16.7293 25.2992 16.6081C25.3196 16.5663 25.3804 16.5953 25.3641 16.6382Z" fill="#262223"/>
<path d="M25.009 16.4386C24.9792 16.6427 24.8698 16.8997 24.6418 16.9433C24.5918 16.9529 24.5767 16.8853 24.6095 16.8581C24.681 16.7989 24.7593 16.7654 24.8204 16.6913C24.8835 16.6148 24.9195 16.523 24.9444 16.4279C24.9549 16.3877 25.0152 16.3962 25.009 16.4386Z" fill="#262223"/>
<path d="M24.7198 16.3764C24.7787 16.5659 24.4615 16.7846 24.2983 16.7868C24.2752 16.7871 24.2627 16.7594 24.2822 16.7441C24.3473 16.6934 24.4285 16.6659 24.4951 16.6152C24.5795 16.5508 24.6418 16.4845 24.6726 16.3812C24.6788 16.3604 24.7118 16.3504 24.7198 16.3764Z" fill="#262223"/>
<path d="M17.5589 18.6507C17.4116 18.8764 17.3639 19.1842 17.5022 19.4155C17.5622 19.5158 17.6521 19.595 17.7485 19.6611C18.0533 19.8699 18.4456 19.9573 18.8041 19.8682C19.1628 19.7792 19.4769 19.5056 19.5874 19.1531C19.6116 19.0759 19.6262 18.9948 19.6188 18.9144C19.6093 18.8114 19.5639 18.715 19.5095 18.627C19.3832 18.4232 19.201 18.2514 18.9823 18.153C18.4389 17.9085 17.8717 18.1712 17.5589 18.6507Z" fill="#FF9B87"/>
<path d="M26.2705 19.0989C26.3553 19.3547 26.323 19.6645 26.1302 19.8528C26.0465 19.9344 25.9394 19.9881 25.8294 20.0274C25.4814 20.1514 25.0799 20.1359 24.7558 19.9583C24.4317 19.7807 24.1978 19.436 24.1809 19.067C24.1772 18.9863 24.1837 18.9041 24.2113 18.8282C24.2468 18.731 24.3152 18.6493 24.3904 18.5782C24.5645 18.4133 24.7845 18.2936 25.0211 18.2543C25.609 18.1569 26.0904 18.5555 26.2705 19.0989Z" fill="#FF9B87"/>
<path d="M16.6577 22.8609C17.637 25.2358 19.7411 27.0454 22.2474 27.6294C22.4739 27.6822 22.5706 27.3334 22.3436 27.2805C19.97 26.7275 17.9375 25.0222 17.0066 22.7647C16.919 22.5524 16.5689 22.6454 16.6577 22.8609Z" fill="#44322C"/>
<path d="M27.8713 15.1064C27.8826 16.7678 27.7291 18.4213 27.4083 20.0516C27.3635 20.279 27.7121 20.3764 27.7572 20.1477C28.0841 18.4863 28.2447 16.7996 28.2332 15.1063C28.2316 14.8737 27.8698 14.8731 27.8713 15.1064Z" fill="#44322C"/>
<path d="M28.3088 21.4023C28.299 23.7091 27.4078 25.9618 25.7905 27.6148C25.0434 28.3784 24.1622 29.0046 23.1961 29.4604C22.0699 29.9916 20.779 30.3388 19.5433 30.024C19.3176 29.9665 19.2212 30.3153 19.4471 30.3729C21.7715 30.965 24.3582 29.5535 25.9646 27.9531C27.6979 26.2263 28.6601 23.8432 28.6705 21.4024C28.6716 21.1694 28.3098 21.1691 28.3088 21.4023Z" fill="#44322C"/>
<path d="M17.1955 27.4074C17.9121 28.2912 19.0633 28.693 20.1762 28.4847C20.4048 28.4419 20.3079 28.0931 20.0799 28.1358C19.0875 28.3216 18.0836 27.9314 17.4513 27.1517C17.3047 26.9707 17.05 27.2281 17.1955 27.4074Z" fill="#44322C"/>
<path d="M15.11 28.0715C16.6391 30.5497 19.1207 32.3626 21.9489 33.0592C22.175 33.1149 22.2714 32.7661 22.0452 32.7103C19.3068 32.0358 16.904 30.2897 15.4225 27.8888C15.3004 27.6911 14.9873 27.8726 15.11 28.0715Z" fill="#44322C"/>
<path d="M20.9789 32.153C21.8354 32.3833 22.7786 31.8574 23.5586 31.5506C24.4085 31.2163 25.2492 30.8567 26.0678 30.4513C27.713 29.6364 29.2639 28.6226 30.5546 27.3083C30.7179 27.142 30.4622 26.886 30.2988 27.0524C29.086 28.2874 27.6415 29.247 26.1035 30.0293C25.3356 30.42 24.5463 30.7676 23.7469 31.0886C23.3499 31.248 22.9504 31.4013 22.5493 31.5501C22.0775 31.7254 21.5841 31.9408 21.0751 31.8039C20.85 31.7436 20.7539 32.0924 20.9789 32.153Z" fill="#44322C"/>
<path d="M12.7866 29.0764C13.0796 30.3864 13.3091 31.709 13.4727 33.0415C13.487 33.1583 13.6723 33.1597 13.6578 33.0415C13.4922 31.6925 13.2618 30.3535 12.9652 29.0272C12.9392 28.911 12.7607 28.9601 12.7866 29.0764Z" fill="#178769"/>
<path d="M33.4032 31.1876C33.4032 32.1134 33.4032 33.0391 33.4032 33.9649C33.4032 34.084 33.5884 34.0843 33.5884 33.9649C33.5884 33.0391 33.5884 32.1134 33.5884 31.1876C33.5884 31.0685 33.4032 31.0682 33.4032 31.1876Z" fill="#178769"/>
<path d="M13.7653 38.7343C13.4459 40.2691 13.0983 41.802 12.8131 43.3449C12.7569 43.3168 12.6987 43.2887 12.6423 43.2625C12.9256 41.7317 13.2691 40.2089 13.5865 38.6842C13.6106 38.5676 13.7894 38.6179 13.7653 38.7343Z" fill="#178769"/>
<path d="M16.1756 30.4455C16.2655 33.0677 17.8626 35.345 19.3973 37.3562C19.4686 37.4497 19.6295 37.3575 19.5571 37.2627C18.0445 35.2807 16.4494 33.0311 16.3608 30.4455C16.3567 30.3267 16.1715 30.3262 16.1756 30.4455Z" fill="#178769"/>
<path d="M19.6485 45.3526C19.5803 45.3467 19.516 45.3366 19.4497 45.3285H19.4477C19.1764 44.2839 18.8771 43.2433 18.5517 42.2126C18.2122 41.1298 17.8426 40.0571 17.4468 38.9943C17.0692 37.9798 16.5308 36.9412 16.5649 35.8322C16.5649 35.79 16.5931 35.7579 16.6332 35.7438C17.055 35.5871 17.4668 35.3962 17.8888 35.2375C17.9168 35.2255 17.943 35.2154 17.9711 35.2054C18.0836 35.1632 18.1319 35.3419 18.0214 35.3842C18.0113 35.3881 18.0013 35.3922 17.9913 35.3962C17.5715 35.5509 17.1656 35.7397 16.7477 35.8964C16.7377 36.9973 17.2921 38.046 17.6658 39.0565C18.0595 40.1192 18.4272 41.1919 18.7667 42.2748C19.0859 43.2934 19.3793 44.3201 19.6485 45.3526Z" fill="#178769"/>
<path d="M28.1747 32.4752C27.533 34.0829 26.6219 35.568 25.4809 36.8698C25.4026 36.9591 25.533 37.0906 25.6118 37.0007C26.775 35.6735 27.6991 34.1635 28.3533 32.5245C28.3975 32.4138 28.2184 32.3657 28.1747 32.4752Z" fill="#178769"/>
<path d="M28.8971 37.1515C28.3648 38.0997 27.7239 38.9876 27.2558 39.9721C26.9504 40.6129 26.7736 41.308 26.5708 41.9851C26.3537 42.7163 26.1448 43.4497 25.956 44.1869C25.8616 44.5526 25.7631 44.9282 25.6727 45.308V45.31C25.6125 45.318 25.5521 45.3261 25.4919 45.334C25.7571 44.0926 26.1127 42.869 26.4763 41.6556C26.6892 40.9485 26.894 40.2554 27.2357 39.5964C27.6736 38.7506 28.22 37.9671 28.6902 37.1395C27.9489 36.7377 27.1855 36.37 26.4401 35.9703C26.3859 35.9421 26.3297 35.912 26.2754 35.8819C26.2653 35.8758 26.2553 35.8718 26.2452 35.8659C26.1408 35.8076 26.2352 35.6489 26.3397 35.7051C26.3558 35.7131 26.3699 35.7211 26.3859 35.7292C26.4401 35.7594 26.4944 35.7895 26.5487 35.8176C27.314 36.2315 28.1016 36.6071 28.8649 37.025C28.9091 37.049 28.9213 37.1093 28.8971 37.1515Z" fill="#178769"/>
<path d="M20.4453 21.1579C21.1801 21.8031 22.446 21.8999 23.1522 21.0976C23.2536 20.9823 23.1068 20.7881 23.006 20.9026C22.6756 21.278 22.1827 21.3474 21.7657 21.3636C21.2996 21.3817 20.9394 21.262 20.5496 20.9198C20.4382 20.8219 20.3345 21.0605 20.4453 21.1579Z" fill="#F98073"/>
</svg>
