<svg width="55" height="56" viewBox="0 0 55 56" fill="none" xmlns="http://www.w3.org/2000/svg">
<path d="M55 28.1047C55 29.2792 54.9268 30.4361 54.7839 31.5724C54.4532 34.1635 53.7572 36.644 52.751 38.9549C52.751 38.9549 52.751 38.9585 52.7473 38.9617C48.5282 48.6755 38.8094 55.4725 27.4998 55.4725C14.6968 55.4725 3.94393 46.7668 0.877028 34.9813V34.9777C0.302495 32.7815 0 30.4774 0 28.1047C0 25.6797 0.31659 23.3274 0.915232 21.0898C4.02399 9.37348 14.7486 0.737305 27.4998 0.737305C42.6878 0.73685 55 12.9899 55 28.1047Z" fill="#9FADB7"/>
<path d="M53.5469 26.7823C53.5469 27.1153 53.5415 27.4487 53.5283 27.779C53.4992 28.5564 53.4382 29.3234 53.3431 30.0821C53.0284 32.549 52.3701 34.9076 51.418 37.1079C51.418 37.1079 51.418 37.1107 51.4126 37.1157C47.4172 46.36 38.2124 52.8278 27.501 52.8278C15.3749 52.8278 5.19158 44.5432 2.28571 33.3264V33.3237C1.85447 31.6711 1.58516 29.9524 1.49237 28.1911C1.46826 27.723 1.45508 27.2549 1.45508 26.7819C1.45508 24.4733 1.75394 22.2365 2.32256 20.1054C5.26573 8.95451 15.4244 0.736328 27.5005 0.736328C41.8857 0.736783 53.5469 12.3981 53.5469 26.7823Z" fill="#E7E6E2"/>
<path d="M53.5465 26.7823C53.5465 27.1153 53.541 27.4488 53.5279 27.779C52.5416 25.9385 50.8599 22.9162 48.0068 18.0088C41.6765 7.12222 27.501 5.89307 16.004 9.33844C4.50425 12.7865 1.98685 32.0313 1.98685 32.0313L1.49239 28.1921C1.46828 27.724 1.45508 27.2559 1.45508 26.7828C1.45508 24.4742 1.75396 22.2375 2.32258 20.1063C5.26575 8.95543 15.4245 0.737305 27.5006 0.737305C41.8853 0.73685 53.5465 12.3981 53.5465 26.7823Z" fill="white"/>
<path d="M50.3702 27.6649C50.3702 28.6597 50.3092 29.6396 50.1905 30.6022C49.9157 32.797 49.3366 34.8977 48.4996 36.8551C48.4996 36.8551 48.4996 36.8583 48.4969 36.861C44.9879 45.0887 36.9044 50.8459 27.4976 50.8459C16.8489 50.8459 7.90571 43.472 5.35465 33.4893V33.4866C4.87701 31.6261 4.625 29.6751 4.625 27.6649C4.625 25.611 4.88839 23.6186 5.3865 21.723C7.97212 11.799 16.8922 4.48389 27.4976 4.48389C40.1296 4.48389 50.3702 14.8623 50.3702 27.6649Z" fill="url(#paint0_radial_26645_234089)"/>
<path d="M49.8029 26.7818C49.8029 27.7389 49.7437 28.6814 49.6277 29.6071C49.3598 31.7183 48.7953 33.7394 47.9792 35.6222C47.9792 35.6222 47.9792 35.6249 47.9765 35.6277C44.5552 43.5424 36.6742 49.0808 27.503 49.0808C17.1209 49.0808 8.4015 41.9871 5.91459 32.3843V32.3815C5.44878 30.592 5.20312 28.7147 5.20312 26.7814C5.20312 24.8053 5.46015 22.8888 5.94552 21.0651C8.4661 11.5187 17.1632 4.48145 27.5025 4.48145C39.8188 4.48236 49.8029 14.4664 49.8029 26.7818Z" fill="#586686"/>
<path d="M48.3903 26.7828C48.3903 27.6794 48.3348 28.5623 48.226 29.4298C47.9749 31.4077 47.4459 33.301 46.6821 35.0646C46.6821 35.0646 46.6821 35.0674 46.6794 35.0701C43.4747 42.4844 36.0922 47.6725 27.5006 47.6725C17.7749 47.6725 9.60725 41.0274 7.27773 32.0318V32.0291C6.84149 30.3528 6.61133 28.5942 6.61133 26.7828C6.61133 24.9318 6.85196 23.1364 7.30686 21.4282C9.66822 12.4855 17.8149 5.89355 27.5006 5.89355C39.0376 5.89355 48.3903 15.2462 48.3903 26.7828Z" fill="#A9C1D3"/>
<path d="M48.392 26.7824C48.392 27.679 48.3365 28.5619 48.2278 29.4294C45.6126 15.0106 36.5406 9.97305 22.7427 11.1817C15.413 11.824 10.4155 16.7979 7.30859 21.4282C9.66995 12.4855 17.8167 5.89355 27.5023 5.89355C39.0394 5.8931 48.392 15.2458 48.392 26.7824Z" fill="#C4D8E6"/>
<path opacity="0.43" d="M46.679 35.0705C43.4743 42.4848 36.0918 47.6729 27.5002 47.6729C17.7745 47.6729 9.60686 41.0278 7.27734 32.0322C10.2414 36.4056 17.1695 44.5369 27.5002 44.1479C41.3827 43.6271 46.5202 35.3293 46.679 35.0705Z" fill="#C4D8E6"/>
<mask id="path-9-outside-1_26645_234089" maskUnits="userSpaceOnUse" x="13" y="16.7363" width="30" height="22" fill="black">
<rect fill="white" x="13" y="16.7363" width="30" height="22"/>
<path d="M15.9922 36.7363C15.4375 36.7363 15.0128 36.589 14.7182 36.2943C14.4235 35.9997 14.2762 35.5923 14.2762 35.0723C14.2762 34.535 14.4235 34.1277 14.7182 33.8503C15.0128 33.573 15.4375 33.4343 15.9922 33.4343H18.6182V21.7083H20.5162L16.7202 24.0223C16.3215 24.265 15.9488 24.3603 15.6022 24.3083C15.2728 24.2563 14.9868 24.109 14.7442 23.8663C14.5015 23.6237 14.3368 23.3377 14.2502 23.0083C14.1808 22.6617 14.2155 22.3237 14.3542 21.9943C14.4928 21.6477 14.7528 21.353 15.1342 21.1103L18.7482 18.9263C19.1122 18.701 19.4762 18.519 19.8402 18.3803C20.2215 18.2417 20.5942 18.1723 20.9582 18.1723C21.4782 18.1723 21.8855 18.311 22.1802 18.5883C22.4922 18.8483 22.6482 19.2557 22.6482 19.8103V33.4343H25.0142C25.5515 33.4343 25.9675 33.573 26.2622 33.8503C26.5568 34.1277 26.7042 34.535 26.7042 35.0723C26.7042 35.6097 26.5568 36.0257 26.2622 36.3203C25.9675 36.5977 25.5515 36.7363 25.0142 36.7363H15.9922ZM34.3 37.0223C32.0813 37.0223 30.3827 36.199 29.204 34.5523C28.0427 32.8883 27.462 30.5397 27.462 27.5063C27.462 25.4783 27.722 23.771 28.242 22.3843C28.7793 20.9803 29.5507 19.923 30.556 19.2123C31.5787 18.4843 32.8267 18.1203 34.3 18.1203C36.536 18.1203 38.2347 18.9263 39.396 20.5383C40.5573 22.133 41.138 24.4557 41.138 27.5063C41.138 29.5343 40.8693 31.259 40.332 32.6803C39.812 34.0843 39.0493 35.159 38.044 35.9043C37.0387 36.6497 35.7907 37.0223 34.3 37.0223ZM34.3 33.7463C35.3053 33.7463 36.0507 33.2523 36.536 32.2643C37.0213 31.259 37.264 29.673 37.264 27.5063C37.264 25.3397 37.0213 23.7797 36.536 22.8263C36.0507 21.873 35.3053 21.3963 34.3 21.3963C33.2947 21.3963 32.5493 21.873 32.064 22.8263C31.5787 23.7797 31.336 25.3397 31.336 27.5063C31.336 29.673 31.5787 31.259 32.064 32.2643C32.5493 33.2523 33.2947 33.7463 34.3 33.7463Z"/>
</mask>
<path d="M15.9922 36.7363C15.4375 36.7363 15.0128 36.589 14.7182 36.2943C14.4235 35.9997 14.2762 35.5923 14.2762 35.0723C14.2762 34.535 14.4235 34.1277 14.7182 33.8503C15.0128 33.573 15.4375 33.4343 15.9922 33.4343H18.6182V21.7083H20.5162L16.7202 24.0223C16.3215 24.265 15.9488 24.3603 15.6022 24.3083C15.2728 24.2563 14.9868 24.109 14.7442 23.8663C14.5015 23.6237 14.3368 23.3377 14.2502 23.0083C14.1808 22.6617 14.2155 22.3237 14.3542 21.9943C14.4928 21.6477 14.7528 21.353 15.1342 21.1103L18.7482 18.9263C19.1122 18.701 19.4762 18.519 19.8402 18.3803C20.2215 18.2417 20.5942 18.1723 20.9582 18.1723C21.4782 18.1723 21.8855 18.311 22.1802 18.5883C22.4922 18.8483 22.6482 19.2557 22.6482 19.8103V33.4343H25.0142C25.5515 33.4343 25.9675 33.573 26.2622 33.8503C26.5568 34.1277 26.7042 34.535 26.7042 35.0723C26.7042 35.6097 26.5568 36.0257 26.2622 36.3203C25.9675 36.5977 25.5515 36.7363 25.0142 36.7363H15.9922ZM34.3 37.0223C32.0813 37.0223 30.3827 36.199 29.204 34.5523C28.0427 32.8883 27.462 30.5397 27.462 27.5063C27.462 25.4783 27.722 23.771 28.242 22.3843C28.7793 20.9803 29.5507 19.923 30.556 19.2123C31.5787 18.4843 32.8267 18.1203 34.3 18.1203C36.536 18.1203 38.2347 18.9263 39.396 20.5383C40.5573 22.133 41.138 24.4557 41.138 27.5063C41.138 29.5343 40.8693 31.259 40.332 32.6803C39.812 34.0843 39.0493 35.159 38.044 35.9043C37.0387 36.6497 35.7907 37.0223 34.3 37.0223ZM34.3 33.7463C35.3053 33.7463 36.0507 33.2523 36.536 32.2643C37.0213 31.259 37.264 29.673 37.264 27.5063C37.264 25.3397 37.0213 23.7797 36.536 22.8263C36.0507 21.873 35.3053 21.3963 34.3 21.3963C33.2947 21.3963 32.5493 21.873 32.064 22.8263C31.5787 23.7797 31.336 25.3397 31.336 27.5063C31.336 29.673 31.5787 31.259 32.064 32.2643C32.5493 33.2523 33.2947 33.7463 34.3 33.7463Z" fill="white"/>
<path d="M14.7182 33.8503L14.0328 33.1221H14.0328L14.7182 33.8503ZM18.6182 33.4343V34.4343H19.6182V33.4343H18.6182ZM18.6182 21.7083V20.7083H17.6182V21.7083H18.6182ZM20.5162 21.7083L21.0367 22.5622L24.0778 20.7083H20.5162V21.7083ZM16.7202 24.0223L17.2401 24.8765L17.2407 24.8762L16.7202 24.0223ZM15.6022 24.3083L15.4462 25.2961L15.4538 25.2973L15.6022 24.3083ZM14.7442 23.8663L15.4513 23.1592L15.4513 23.1592L14.7442 23.8663ZM14.2502 23.0083L13.2696 23.2044L13.2755 23.2338L13.2831 23.2628L14.2502 23.0083ZM14.3542 21.9943L15.2758 22.3824L15.2793 22.3741L15.2826 22.3657L14.3542 21.9943ZM15.1342 21.1103L14.6169 20.2545L14.607 20.2605L14.5973 20.2667L15.1342 21.1103ZM18.7482 18.9263L19.2654 19.7822L19.2745 19.7766L18.7482 18.9263ZM19.8402 18.3803L19.4984 17.4405L19.4913 17.4431L19.4842 17.4458L19.8402 18.3803ZM22.1802 18.5883L21.4948 19.3165L21.5168 19.3372L21.54 19.3565L22.1802 18.5883ZM22.6482 33.4343H21.6482V34.4343H22.6482V33.4343ZM26.2622 33.8503L26.9475 33.1221L26.9475 33.1221L26.2622 33.8503ZM26.2622 36.3203L26.9475 37.0485L26.9586 37.0381L26.9693 37.0274L26.2622 36.3203ZM15.9922 35.7363C15.6119 35.7363 15.4767 35.6387 15.4253 35.5872L14.011 37.0014C14.5489 37.5393 15.263 37.7363 15.9922 37.7363V35.7363ZM15.4253 35.5872C15.3621 35.5241 15.2762 35.3966 15.2762 35.0723H13.2762C13.2762 35.7881 13.4849 36.4752 14.011 37.0014L15.4253 35.5872ZM15.2762 35.0723C15.2762 34.7163 15.3694 34.6107 15.4035 34.5785L14.0328 33.1221C13.4776 33.6447 13.2762 34.3537 13.2762 35.0723H15.2762ZM15.4035 34.5785C15.4531 34.5319 15.5965 34.4343 15.9922 34.4343V32.4343C15.2785 32.4343 14.5726 32.6141 14.0328 33.1221L15.4035 34.5785ZM15.9922 34.4343H18.6182V32.4343H15.9922V34.4343ZM19.6182 33.4343V21.7083H17.6182V33.4343H19.6182ZM18.6182 22.7083H20.5162V20.7083H18.6182V22.7083ZM19.9957 20.8545L16.1997 23.1685L17.2407 24.8762L21.0367 22.5622L19.9957 20.8545ZM16.2002 23.1681C15.9349 23.3296 15.7984 23.3266 15.7505 23.3194L15.4538 25.2973C16.0992 25.3941 16.7081 25.2003 17.2401 24.8765L16.2002 23.1681ZM15.7581 23.3206C15.644 23.3025 15.5492 23.2571 15.4513 23.1592L14.037 24.5734C14.4245 24.9609 14.9016 25.2101 15.4462 25.2961L15.7581 23.3206ZM15.4513 23.1592C15.3328 23.0407 15.2585 22.9106 15.2172 22.7538L13.2831 23.2628C13.4152 23.7648 13.6702 24.2066 14.0371 24.5734L15.4513 23.1592ZM15.2307 22.8122C15.2011 22.664 15.2139 22.5294 15.2758 22.3824L13.4325 21.6063C13.2171 22.1179 13.1605 22.6593 13.2696 23.2044L15.2307 22.8122ZM15.2826 22.3657C15.3283 22.2516 15.4285 22.1083 15.671 21.954L14.5973 20.2667C14.0772 20.5977 13.6574 21.0437 13.4257 21.6229L15.2826 22.3657ZM15.6514 21.9662L19.2654 19.7822L18.2309 18.0705L14.6169 20.2545L15.6514 21.9662ZM19.2745 19.7766C19.5898 19.5814 19.897 19.4288 20.1962 19.3148L19.4842 17.4458C19.0553 17.6092 18.6345 17.8206 18.2218 18.0761L19.2745 19.7766ZM20.1819 19.3201C20.4662 19.2167 20.7233 19.1723 20.9582 19.1723V17.1723C20.465 17.1723 19.9768 17.2666 19.4984 17.4405L20.1819 19.3201ZM20.9582 19.1723C21.2987 19.1723 21.434 19.2593 21.4948 19.3165L22.8655 17.8601C22.337 17.3627 21.6576 17.1723 20.9582 17.1723V19.1723ZM21.54 19.3565C21.5486 19.3637 21.6482 19.4379 21.6482 19.8103H23.6482C23.6482 19.0734 23.4357 18.3329 22.8203 17.8201L21.54 19.3565ZM21.6482 19.8103V33.4343H23.6482V19.8103H21.6482ZM22.6482 34.4343H25.0142V32.4343H22.6482V34.4343ZM25.0142 34.4343C25.3824 34.4343 25.5218 34.5268 25.5768 34.5785L26.9475 33.1221C26.4132 32.6192 25.7206 32.4343 25.0142 32.4343V34.4343ZM25.5768 34.5785C25.6109 34.6107 25.7042 34.7163 25.7042 35.0723H27.7042C27.7042 34.3537 27.5027 33.6447 26.9475 33.1221L25.5768 34.5785ZM25.7042 35.0723C25.7042 35.4247 25.6122 35.5561 25.555 35.6132L26.9693 37.0274C27.5015 36.4952 27.7042 35.7946 27.7042 35.0723H25.7042ZM25.5768 35.5921C25.5218 35.6439 25.3824 35.7363 25.0142 35.7363V37.7363C25.7206 37.7363 26.4132 37.5514 26.9475 37.0485L25.5768 35.5921ZM25.0142 35.7363H15.9922V37.7363H25.0142V35.7363ZM29.204 34.5523L28.3839 35.1247L28.3908 35.1344L29.204 34.5523ZM28.242 22.3843L27.308 22.0269L27.3057 22.0332L28.242 22.3843ZM30.556 19.2123L31.1332 20.0289L31.1359 20.027L30.556 19.2123ZM39.396 20.5383L38.5846 21.1229L38.5876 21.127L39.396 20.5383ZM40.332 32.6803L39.3966 32.3267L39.3943 32.333L40.332 32.6803ZM38.044 35.9043L38.6396 36.7076L38.044 35.9043ZM36.536 32.2643L37.4336 32.7052L37.4366 32.6991L36.536 32.2643ZM36.536 22.8263L35.6448 23.28V23.28L36.536 22.8263ZM32.064 22.8263L32.9552 23.28L32.064 22.8263ZM32.064 32.2643L31.1634 32.6991L31.1664 32.7052L32.064 32.2643ZM34.3 36.0223C32.368 36.0223 30.9881 35.3267 30.0172 33.9703L28.3908 35.1344C29.7773 37.0713 31.7947 38.0223 34.3 38.0223V36.0223ZM30.024 33.98C29.0247 32.5481 28.462 30.4306 28.462 27.5063H26.462C26.462 30.6487 27.0606 33.2285 28.384 35.1246L30.024 33.98ZM28.462 27.5063C28.462 25.557 28.7128 23.9768 29.1783 22.7355L27.3057 22.0332C26.7312 23.5652 26.462 25.3997 26.462 27.5063H28.462ZM29.1759 22.7418C29.6583 21.4815 30.3223 20.6021 31.1332 20.0289L29.9788 18.3958C28.779 19.2439 27.9004 20.4792 27.3081 22.0269L29.1759 22.7418ZM31.1359 20.027C31.9613 19.4394 32.9974 19.1203 34.3 19.1203V17.1203C32.6559 17.1203 31.196 17.5292 29.9761 18.3977L31.1359 20.027ZM34.3 19.1203C36.2611 19.1203 37.6369 19.8074 38.5846 21.1229L40.2074 19.9538C38.8324 18.0453 36.8109 17.1203 34.3 17.1203V19.1203ZM38.5876 21.127C39.5731 22.4801 40.138 24.559 40.138 27.5063H42.138C42.138 24.3523 41.5416 21.7858 40.2044 19.9496L38.5876 21.127ZM40.138 27.5063C40.138 29.4515 39.8796 31.0492 39.3966 32.3267L41.2674 33.034C41.8591 31.4688 42.138 29.6171 42.138 27.5063H40.138ZM39.3943 32.333C38.9282 33.5912 38.2695 34.4923 37.4484 35.101L38.6396 36.7076C39.8292 35.8257 40.6958 34.5774 41.2697 33.0276L39.3943 32.333ZM37.4484 35.101C36.6465 35.6956 35.6184 36.0223 34.3 36.0223V38.0223C35.9629 38.0223 37.4309 37.6037 38.6396 36.7076L37.4484 35.101ZM34.3 34.7463C34.9739 34.7463 35.6091 34.5781 36.1655 34.2094C36.7165 33.8441 37.1307 33.3218 37.4336 32.7052L35.6384 31.8234C35.456 32.1948 35.2548 32.4135 35.0605 32.5423C34.8715 32.6676 34.6314 32.7463 34.3 32.7463V34.7463ZM37.4366 32.6991C38.0238 31.4826 38.264 29.7078 38.264 27.5063H36.264C36.264 29.6382 36.0189 31.0354 35.6354 31.8296L37.4366 32.6991ZM38.264 27.5063C38.264 25.3119 38.0259 23.5488 37.4272 22.3726L35.6448 23.28C36.0167 24.0105 36.264 25.3674 36.264 27.5063H38.264ZM37.4272 22.3726C37.1206 21.7705 36.7029 21.2639 36.1518 20.9114C35.5971 20.5566 34.9669 20.3963 34.3 20.3963V22.3963C34.6385 22.3963 34.8836 22.4743 35.0742 22.5963C35.2684 22.7204 35.466 22.9288 35.6448 23.28L37.4272 22.3726ZM34.3 20.3963C33.6331 20.3963 33.0029 20.5566 32.4482 20.9114C31.8971 21.2639 31.4794 21.7705 31.1728 22.3726L32.9552 23.28C33.134 22.9288 33.3316 22.7204 33.5258 22.5963C33.7164 22.4743 33.9615 22.3963 34.3 22.3963V20.3963ZM31.1728 22.3726C30.5741 23.5488 30.336 25.3119 30.336 27.5063H32.336C32.336 25.3674 32.5833 24.0105 32.9552 23.28L31.1728 22.3726ZM30.336 27.5063C30.336 29.7078 30.5762 31.4826 31.1634 32.6991L32.9646 31.8296C32.5811 31.0354 32.336 29.6382 32.336 27.5063H30.336ZM31.1664 32.7052C31.4693 33.3218 31.8835 33.8441 32.4345 34.2094C32.9909 34.5781 33.6261 34.7463 34.3 34.7463V32.7463C33.9686 32.7463 33.7285 32.6676 33.5395 32.5423C33.3452 32.4135 33.144 32.1948 32.9616 31.8234L31.1664 32.7052Z" fill="#4F5E7F" mask="url(#path-9-outside-1_26645_234089)"/>
<defs>
<radialGradient id="paint0_radial_26645_234089" cx="0" cy="0" r="1" gradientUnits="userSpaceOnUse" gradientTransform="translate(27.4975 27.6648) scale(23.0273 23.0272)">
<stop stop-color="#C4D8E6"/>
<stop offset="1" stop-color="#B7CEDE"/>
</radialGradient>
</defs>
</svg>
