<svg width="55" height="56" viewBox="0 0 55 56" fill="none" xmlns="http://www.w3.org/2000/svg">
<path d="M55 28.1047C55 29.2792 54.9268 30.4361 54.7839 31.5724C54.4532 34.1635 53.7572 36.644 52.751 38.9549C52.751 38.9549 52.751 38.9585 52.7473 38.9617C48.5282 48.6755 38.8094 55.4725 27.4998 55.4725C14.6968 55.4725 3.94393 46.7668 0.877028 34.9813V34.9777C0.302495 32.7815 0 30.4774 0 28.1047C0 25.6797 0.31659 23.3274 0.915232 21.0898C4.02399 9.37348 14.7486 0.737305 27.4998 0.737305C42.6878 0.73685 55 12.9899 55 28.1047Z" fill="#9FADB7"/>
<path d="M53.5469 26.7823C53.5469 27.1153 53.5415 27.4487 53.5283 27.779C53.4992 28.5564 53.4382 29.3234 53.3431 30.0821C53.0284 32.549 52.3701 34.9076 51.418 37.1079C51.418 37.1079 51.418 37.1107 51.4126 37.1157C47.4172 46.36 38.2124 52.8278 27.501 52.8278C15.3749 52.8278 5.19158 44.5432 2.28571 33.3264V33.3237C1.85447 31.6711 1.58516 29.9524 1.49237 28.1911C1.46826 27.723 1.45508 27.2549 1.45508 26.7819C1.45508 24.4733 1.75394 22.2365 2.32256 20.1054C5.26573 8.95451 15.4244 0.736328 27.5005 0.736328C41.8857 0.736783 53.5469 12.3981 53.5469 26.7823Z" fill="#E7E6E2"/>
<path d="M53.5465 26.7823C53.5465 27.1153 53.541 27.4488 53.5279 27.779C52.5416 25.9385 50.8599 22.9162 48.0068 18.0088C41.6765 7.12222 27.501 5.89307 16.004 9.33844C4.50425 12.7865 1.98685 32.0313 1.98685 32.0313L1.49239 28.1921C1.46828 27.724 1.45508 27.2559 1.45508 26.7828C1.45508 24.4742 1.75396 22.2375 2.32258 20.1063C5.26575 8.95543 15.4245 0.737305 27.5006 0.737305C41.8853 0.73685 53.5465 12.3981 53.5465 26.7823Z" fill="white"/>
<path d="M50.3702 27.6649C50.3702 28.6597 50.3092 29.6396 50.1905 30.6022C49.9157 32.797 49.3366 34.8977 48.4996 36.8551C48.4996 36.8551 48.4996 36.8583 48.4969 36.861C44.9879 45.0887 36.9044 50.8459 27.4976 50.8459C16.8489 50.8459 7.90571 43.472 5.35465 33.4893V33.4866C4.87701 31.6261 4.625 29.6751 4.625 27.6649C4.625 25.611 4.88839 23.6186 5.3865 21.723C7.97212 11.799 16.8922 4.48389 27.4976 4.48389C40.1296 4.48389 50.3702 14.8623 50.3702 27.6649Z" fill="url(#paint0_radial_26645_234106)"/>
<path d="M49.8029 26.7818C49.8029 27.7389 49.7437 28.6814 49.6277 29.6071C49.3598 31.7183 48.7953 33.7394 47.9792 35.6222C47.9792 35.6222 47.9792 35.6249 47.9765 35.6277C44.5552 43.5424 36.6742 49.0808 27.503 49.0808C17.1209 49.0808 8.4015 41.9871 5.91459 32.3843V32.3815C5.44878 30.592 5.20312 28.7147 5.20312 26.7814C5.20312 24.8053 5.46015 22.8888 5.94552 21.0651C8.4661 11.5187 17.1632 4.48145 27.5025 4.48145C39.8188 4.48236 49.8029 14.4664 49.8029 26.7818Z" fill="#586686"/>
<path d="M48.3903 26.7828C48.3903 27.6794 48.3348 28.5623 48.226 29.4298C47.9749 31.4077 47.4459 33.301 46.6821 35.0646C46.6821 35.0646 46.6821 35.0674 46.6794 35.0701C43.4747 42.4844 36.0922 47.6725 27.5006 47.6725C17.7749 47.6725 9.60725 41.0274 7.27773 32.0318V32.0291C6.84149 30.3528 6.61133 28.5942 6.61133 26.7828C6.61133 24.9318 6.85196 23.1364 7.30686 21.4282C9.66822 12.4855 17.8149 5.89355 27.5006 5.89355C39.0376 5.89355 48.3903 15.2462 48.3903 26.7828Z" fill="#A9C1D3"/>
<path d="M48.392 26.7824C48.392 27.679 48.3365 28.5619 48.2278 29.4294C45.6126 15.0106 36.5406 9.97305 22.7427 11.1817C15.413 11.824 10.4155 16.7979 7.30859 21.4282C9.66995 12.4855 17.8167 5.89355 27.5023 5.89355C39.0394 5.8931 48.392 15.2458 48.392 26.7824Z" fill="#C4D8E6"/>
<path opacity="0.43" d="M46.679 35.0705C43.4743 42.4848 36.0918 47.6729 27.5002 47.6729C17.7745 47.6729 9.60686 41.0278 7.27734 32.0322C10.2414 36.4056 17.1695 44.5369 27.5002 44.1479C41.3827 43.6271 46.5202 35.3293 46.679 35.0705Z" fill="#C4D8E6"/>
<mask id="path-9-outside-1_26645_234106" maskUnits="userSpaceOnUse" x="13" y="16.7363" width="30" height="21" fill="black">
<rect fill="white" x="13" y="16.7363" width="30" height="21"/>
<path d="M15.9922 36.7363C15.4375 36.7363 15.0128 36.589 14.7182 36.2943C14.4235 35.9997 14.2762 35.5923 14.2762 35.0723C14.2762 34.535 14.4235 34.1277 14.7182 33.8503C15.0128 33.573 15.4375 33.4343 15.9922 33.4343H18.6182V21.7083H20.5162L16.7202 24.0223C16.3215 24.265 15.9488 24.3603 15.6022 24.3083C15.2728 24.2563 14.9868 24.109 14.7442 23.8663C14.5015 23.6237 14.3368 23.3377 14.2502 23.0083C14.1808 22.6617 14.2155 22.3237 14.3542 21.9943C14.4928 21.6477 14.7528 21.353 15.1342 21.1103L18.7482 18.9263C19.1122 18.701 19.4762 18.519 19.8402 18.3803C20.2215 18.2417 20.5942 18.1723 20.9582 18.1723C21.4782 18.1723 21.8855 18.311 22.1802 18.5883C22.4922 18.8483 22.6482 19.2557 22.6482 19.8103V33.4343H25.0142C25.5515 33.4343 25.9675 33.573 26.2622 33.8503C26.5568 34.1277 26.7042 34.535 26.7042 35.0723C26.7042 35.6097 26.5568 36.0257 26.2622 36.3203C25.9675 36.5977 25.5515 36.7363 25.0142 36.7363H15.9922ZM30.582 36.7363C30.0273 36.7363 29.6027 36.589 29.308 36.2943C29.0133 35.9997 28.866 35.5923 28.866 35.0723C28.866 34.535 29.0133 34.1277 29.308 33.8503C29.6027 33.573 30.0273 33.4343 30.582 33.4343H33.208V21.7083H35.106L31.31 24.0223C30.9113 24.265 30.5387 24.3603 30.192 24.3083C29.8627 24.2563 29.5767 24.109 29.334 23.8663C29.0913 23.6237 28.9267 23.3377 28.84 23.0083C28.7707 22.6617 28.8053 22.3237 28.944 21.9943C29.0827 21.6477 29.3427 21.353 29.724 21.1103L33.338 18.9263C33.702 18.701 34.066 18.519 34.43 18.3803C34.8113 18.2417 35.184 18.1723 35.548 18.1723C36.068 18.1723 36.4753 18.311 36.77 18.5883C37.082 18.8483 37.238 19.2557 37.238 19.8103V33.4343H39.604C40.1413 33.4343 40.5573 33.573 40.852 33.8503C41.1467 34.1277 41.294 34.535 41.294 35.0723C41.294 35.6097 41.1467 36.0257 40.852 36.3203C40.5573 36.5977 40.1413 36.7363 39.604 36.7363H30.582Z"/>
</mask>
<path d="M15.9922 36.7363C15.4375 36.7363 15.0128 36.589 14.7182 36.2943C14.4235 35.9997 14.2762 35.5923 14.2762 35.0723C14.2762 34.535 14.4235 34.1277 14.7182 33.8503C15.0128 33.573 15.4375 33.4343 15.9922 33.4343H18.6182V21.7083H20.5162L16.7202 24.0223C16.3215 24.265 15.9488 24.3603 15.6022 24.3083C15.2728 24.2563 14.9868 24.109 14.7442 23.8663C14.5015 23.6237 14.3368 23.3377 14.2502 23.0083C14.1808 22.6617 14.2155 22.3237 14.3542 21.9943C14.4928 21.6477 14.7528 21.353 15.1342 21.1103L18.7482 18.9263C19.1122 18.701 19.4762 18.519 19.8402 18.3803C20.2215 18.2417 20.5942 18.1723 20.9582 18.1723C21.4782 18.1723 21.8855 18.311 22.1802 18.5883C22.4922 18.8483 22.6482 19.2557 22.6482 19.8103V33.4343H25.0142C25.5515 33.4343 25.9675 33.573 26.2622 33.8503C26.5568 34.1277 26.7042 34.535 26.7042 35.0723C26.7042 35.6097 26.5568 36.0257 26.2622 36.3203C25.9675 36.5977 25.5515 36.7363 25.0142 36.7363H15.9922ZM30.582 36.7363C30.0273 36.7363 29.6027 36.589 29.308 36.2943C29.0133 35.9997 28.866 35.5923 28.866 35.0723C28.866 34.535 29.0133 34.1277 29.308 33.8503C29.6027 33.573 30.0273 33.4343 30.582 33.4343H33.208V21.7083H35.106L31.31 24.0223C30.9113 24.265 30.5387 24.3603 30.192 24.3083C29.8627 24.2563 29.5767 24.109 29.334 23.8663C29.0913 23.6237 28.9267 23.3377 28.84 23.0083C28.7707 22.6617 28.8053 22.3237 28.944 21.9943C29.0827 21.6477 29.3427 21.353 29.724 21.1103L33.338 18.9263C33.702 18.701 34.066 18.519 34.43 18.3803C34.8113 18.2417 35.184 18.1723 35.548 18.1723C36.068 18.1723 36.4753 18.311 36.77 18.5883C37.082 18.8483 37.238 19.2557 37.238 19.8103V33.4343H39.604C40.1413 33.4343 40.5573 33.573 40.852 33.8503C41.1467 34.1277 41.294 34.535 41.294 35.0723C41.294 35.6097 41.1467 36.0257 40.852 36.3203C40.5573 36.5977 40.1413 36.7363 39.604 36.7363H30.582Z" fill="white"/>
<path d="M14.7182 33.8503L14.0328 33.1221H14.0328L14.7182 33.8503ZM18.6182 33.4343V34.4343H19.6182V33.4343H18.6182ZM18.6182 21.7083V20.7083H17.6182V21.7083H18.6182ZM20.5162 21.7083L21.0367 22.5622L24.0778 20.7083H20.5162V21.7083ZM16.7202 24.0223L17.2401 24.8765L17.2407 24.8762L16.7202 24.0223ZM15.6022 24.3083L15.4462 25.2961L15.4538 25.2973L15.6022 24.3083ZM14.7442 23.8663L15.4513 23.1592L15.4513 23.1592L14.7442 23.8663ZM14.2502 23.0083L13.2696 23.2044L13.2755 23.2338L13.2831 23.2628L14.2502 23.0083ZM14.3542 21.9943L15.2758 22.3824L15.2793 22.3741L15.2826 22.3657L14.3542 21.9943ZM15.1342 21.1103L14.6169 20.2545L14.607 20.2605L14.5973 20.2667L15.1342 21.1103ZM18.7482 18.9263L19.2654 19.7822L19.2745 19.7766L18.7482 18.9263ZM19.8402 18.3803L19.4984 17.4405L19.4913 17.4431L19.4842 17.4458L19.8402 18.3803ZM22.1802 18.5883L21.4948 19.3165L21.5168 19.3372L21.54 19.3565L22.1802 18.5883ZM22.6482 33.4343H21.6482V34.4343H22.6482V33.4343ZM26.2622 33.8503L26.9475 33.1221L26.9475 33.1221L26.2622 33.8503ZM26.2622 36.3203L26.9475 37.0485L26.9586 37.0381L26.9693 37.0274L26.2622 36.3203ZM15.9922 35.7363C15.6119 35.7363 15.4767 35.6387 15.4253 35.5872L14.011 37.0014C14.5489 37.5393 15.263 37.7363 15.9922 37.7363V35.7363ZM15.4253 35.5872C15.3621 35.5241 15.2762 35.3966 15.2762 35.0723H13.2762C13.2762 35.7881 13.4849 36.4752 14.011 37.0014L15.4253 35.5872ZM15.2762 35.0723C15.2762 34.7163 15.3694 34.6107 15.4035 34.5785L14.0328 33.1221C13.4776 33.6447 13.2762 34.3537 13.2762 35.0723H15.2762ZM15.4035 34.5785C15.4531 34.5319 15.5965 34.4343 15.9922 34.4343V32.4343C15.2785 32.4343 14.5726 32.6141 14.0328 33.1221L15.4035 34.5785ZM15.9922 34.4343H18.6182V32.4343H15.9922V34.4343ZM19.6182 33.4343V21.7083H17.6182V33.4343H19.6182ZM18.6182 22.7083H20.5162V20.7083H18.6182V22.7083ZM19.9957 20.8545L16.1997 23.1685L17.2407 24.8762L21.0367 22.5622L19.9957 20.8545ZM16.2002 23.1681C15.9349 23.3296 15.7984 23.3266 15.7505 23.3194L15.4538 25.2973C16.0992 25.3941 16.7081 25.2003 17.2401 24.8765L16.2002 23.1681ZM15.7581 23.3206C15.644 23.3025 15.5492 23.2571 15.4513 23.1592L14.037 24.5734C14.4245 24.9609 14.9016 25.2101 15.4462 25.2961L15.7581 23.3206ZM15.4513 23.1592C15.3328 23.0407 15.2585 22.9106 15.2172 22.7538L13.2831 23.2628C13.4152 23.7648 13.6702 24.2066 14.0371 24.5734L15.4513 23.1592ZM15.2307 22.8122C15.2011 22.664 15.2139 22.5294 15.2758 22.3824L13.4325 21.6063C13.2171 22.1179 13.1605 22.6593 13.2696 23.2044L15.2307 22.8122ZM15.2826 22.3657C15.3283 22.2516 15.4285 22.1083 15.671 21.954L14.5973 20.2667C14.0772 20.5977 13.6574 21.0437 13.4257 21.6229L15.2826 22.3657ZM15.6514 21.9662L19.2654 19.7822L18.2309 18.0705L14.6169 20.2545L15.6514 21.9662ZM19.2745 19.7766C19.5898 19.5814 19.897 19.4288 20.1962 19.3148L19.4842 17.4458C19.0553 17.6092 18.6345 17.8206 18.2218 18.0761L19.2745 19.7766ZM20.1819 19.3201C20.4662 19.2167 20.7233 19.1723 20.9582 19.1723V17.1723C20.465 17.1723 19.9768 17.2666 19.4984 17.4405L20.1819 19.3201ZM20.9582 19.1723C21.2987 19.1723 21.434 19.2593 21.4948 19.3165L22.8655 17.8601C22.337 17.3627 21.6576 17.1723 20.9582 17.1723V19.1723ZM21.54 19.3565C21.5486 19.3637 21.6482 19.4379 21.6482 19.8103H23.6482C23.6482 19.0734 23.4357 18.3329 22.8203 17.8201L21.54 19.3565ZM21.6482 19.8103V33.4343H23.6482V19.8103H21.6482ZM22.6482 34.4343H25.0142V32.4343H22.6482V34.4343ZM25.0142 34.4343C25.3824 34.4343 25.5218 34.5268 25.5768 34.5785L26.9475 33.1221C26.4132 32.6192 25.7206 32.4343 25.0142 32.4343V34.4343ZM25.5768 34.5785C25.6109 34.6107 25.7042 34.7163 25.7042 35.0723H27.7042C27.7042 34.3537 27.5027 33.6447 26.9475 33.1221L25.5768 34.5785ZM25.7042 35.0723C25.7042 35.4247 25.6122 35.5561 25.555 35.6132L26.9693 37.0274C27.5015 36.4952 27.7042 35.7946 27.7042 35.0723H25.7042ZM25.5768 35.5921C25.5218 35.6439 25.3824 35.7363 25.0142 35.7363V37.7363C25.7206 37.7363 26.4132 37.5514 26.9475 37.0485L25.5768 35.5921ZM25.0142 35.7363H15.9922V37.7363H25.0142V35.7363ZM29.308 33.8503L28.6226 33.1221L29.308 33.8503ZM33.208 33.4343V34.4343H34.208V33.4343H33.208ZM33.208 21.7083V20.7083H32.208V21.7083H33.208ZM35.106 21.7083L35.6265 22.5622L38.6677 20.7083H35.106V21.7083ZM31.31 24.0223L31.8299 24.8765L31.8305 24.8762L31.31 24.0223ZM30.192 24.3083L30.036 25.2961L30.0437 25.2973L30.192 24.3083ZM29.334 23.8663L30.0411 23.1592L30.0411 23.1592L29.334 23.8663ZM28.84 23.0083L27.8594 23.2044L27.8653 23.2338L27.8729 23.2628L28.84 23.0083ZM28.944 21.9943L29.8656 22.3824L29.8691 22.3741L29.8725 22.3657L28.944 21.9943ZM29.724 21.1103L29.2068 20.2545L29.1969 20.2605L29.1871 20.2667L29.724 21.1103ZM33.338 18.9263L33.8552 19.7822L33.8644 19.7766L33.338 18.9263ZM34.43 18.3803L34.0883 17.4405L34.0811 17.4431L34.074 17.4458L34.43 18.3803ZM36.77 18.5883L36.0846 19.3165L36.1066 19.3372L36.1298 19.3565L36.77 18.5883ZM37.238 33.4343H36.238V34.4343H37.238V33.4343ZM40.852 33.8503L41.5374 33.1221V33.1221L40.852 33.8503ZM40.852 36.3203L41.5374 37.0485L41.5484 37.0381L41.5591 37.0274L40.852 36.3203ZM30.582 35.7363C30.2018 35.7363 30.0666 35.6387 30.0151 35.5872L28.6009 37.0014C29.1388 37.5393 29.8529 37.7363 30.582 37.7363V35.7363ZM30.0151 35.5872C29.952 35.5241 29.866 35.3966 29.866 35.0723H27.866C27.866 35.7881 28.0747 36.4752 28.6009 37.0014L30.0151 35.5872ZM29.866 35.0723C29.866 34.7163 29.9592 34.6107 29.9934 34.5785L28.6226 33.1221C28.0675 33.6447 27.866 34.3537 27.866 35.0723H29.866ZM29.9934 34.5785C30.0429 34.5319 30.1863 34.4343 30.582 34.4343V32.4343C29.8683 32.4343 29.1624 32.6141 28.6226 33.1221L29.9934 34.5785ZM30.582 34.4343H33.208V32.4343H30.582V34.4343ZM34.208 33.4343V21.7083H32.208V33.4343H34.208ZM33.208 22.7083H35.106V20.7083H33.208V22.7083ZM34.5855 20.8545L30.7895 23.1685L31.8305 24.8762L35.6265 22.5622L34.5855 20.8545ZM30.7901 23.1681C30.5247 23.3296 30.3883 23.3266 30.3403 23.3194L30.0437 25.2973C30.6891 25.3941 31.298 25.2003 31.8299 24.8765L30.7901 23.1681ZM30.348 23.3206C30.2338 23.3025 30.139 23.2571 30.0411 23.1592L28.6269 24.5734C29.0143 24.9609 29.4915 25.2101 30.036 25.2961L30.348 23.3206ZM30.0411 23.1592C29.9226 23.0407 29.8483 22.9106 29.8071 22.7538L27.8729 23.2628C28.005 23.7648 28.26 24.2066 28.6269 24.5734L30.0411 23.1592ZM29.8206 22.8122C29.7909 22.664 29.8037 22.5294 29.8656 22.3824L28.0224 21.6063C27.8069 22.1179 27.7504 22.6593 27.8594 23.2044L29.8206 22.8122ZM29.8725 22.3657C29.9181 22.2516 30.0183 22.1083 30.2609 21.954L29.1871 20.2667C28.667 20.5977 28.2472 21.0437 28.0155 21.6229L29.8725 22.3657ZM30.2412 21.9662L33.8552 19.7822L32.8208 18.0705L29.2068 20.2545L30.2412 21.9662ZM33.8644 19.7766C34.1796 19.5814 34.4868 19.4288 34.786 19.3148L34.074 17.4458C33.6452 17.6092 33.2244 17.8206 32.8116 18.0761L33.8644 19.7766ZM34.7717 19.3201C35.056 19.2167 35.3131 19.1723 35.548 19.1723V17.1723C35.0549 17.1723 34.5666 17.2666 34.0883 17.4405L34.7717 19.3201ZM35.548 19.1723C35.8886 19.1723 36.0239 19.2593 36.0846 19.3165L37.4554 17.8601C36.9268 17.3627 36.2474 17.1723 35.548 17.1723V19.1723ZM36.1298 19.3565C36.1384 19.3637 36.238 19.4379 36.238 19.8103H38.238C38.238 19.0734 38.0256 18.3329 37.4102 17.8201L36.1298 19.3565ZM36.238 19.8103V33.4343H38.238V19.8103H36.238ZM37.238 34.4343H39.604V32.4343H37.238V34.4343ZM39.604 34.4343C39.9722 34.4343 40.1116 34.5268 40.1666 34.5785L41.5374 33.1221C41.003 32.6192 40.3104 32.4343 39.604 32.4343V34.4343ZM40.1666 34.5785C40.2008 34.6107 40.294 34.7163 40.294 35.0723H42.294C42.294 34.3537 42.0925 33.6447 41.5374 33.1221L40.1666 34.5785ZM40.294 35.0723C40.294 35.4247 40.202 35.5561 40.1449 35.6132L41.5591 37.0274C42.0913 36.4952 42.294 35.7946 42.294 35.0723H40.294ZM40.1666 35.5921C40.1116 35.6439 39.9722 35.7363 39.604 35.7363V37.7363C40.3104 37.7363 41.003 37.5514 41.5374 37.0485L40.1666 35.5921ZM39.604 35.7363H30.582V37.7363H39.604V35.7363Z" fill="#4F5E7F" mask="url(#path-9-outside-1_26645_234106)"/>
<defs>
<radialGradient id="paint0_radial_26645_234106" cx="0" cy="0" r="1" gradientUnits="userSpaceOnUse" gradientTransform="translate(27.4975 27.6648) scale(23.0273 23.0272)">
<stop stop-color="#C4D8E6"/>
<stop offset="1" stop-color="#B7CEDE"/>
</radialGradient>
</defs>
</svg>
