<svg width="55" height="56" viewBox="0 0 55 56" fill="none" xmlns="http://www.w3.org/2000/svg">
<path d="M55 28.1047C55 29.2792 54.9268 30.4361 54.7839 31.5724C54.4532 34.1635 53.7572 36.644 52.751 38.9549C52.751 38.9549 52.751 38.9585 52.7473 38.9617C48.5282 48.6755 38.8094 55.4725 27.4998 55.4725C14.6968 55.4725 3.94393 46.7668 0.877028 34.9813V34.9777C0.302495 32.7815 0 30.4774 0 28.1047C0 25.6797 0.31659 23.3274 0.915232 21.0898C4.02399 9.37348 14.7486 0.737305 27.4998 0.737305C42.6878 0.73685 55 12.9899 55 28.1047Z" fill="#9FADB7"/>
<path d="M53.5469 26.7823C53.5469 27.1153 53.5415 27.4487 53.5283 27.779C53.4992 28.5564 53.4382 29.3234 53.3431 30.0821C53.0284 32.549 52.3701 34.9076 51.418 37.1079C51.418 37.1079 51.418 37.1107 51.4126 37.1157C47.4172 46.36 38.2124 52.8278 27.501 52.8278C15.3749 52.8278 5.19158 44.5432 2.28571 33.3264V33.3237C1.85447 31.6711 1.58516 29.9524 1.49237 28.1911C1.46826 27.723 1.45508 27.2549 1.45508 26.7819C1.45508 24.4733 1.75394 22.2365 2.32256 20.1054C5.26573 8.95451 15.4244 0.736328 27.5005 0.736328C41.8857 0.736783 53.5469 12.3981 53.5469 26.7823Z" fill="#E7E6E2"/>
<path d="M53.5465 26.7823C53.5465 27.1153 53.541 27.4488 53.5279 27.779C52.5416 25.9385 50.8599 22.9162 48.0068 18.0088C41.6765 7.12222 27.501 5.89307 16.004 9.33844C4.50425 12.7865 1.98685 32.0313 1.98685 32.0313L1.49239 28.1921C1.46828 27.724 1.45508 27.2559 1.45508 26.7828C1.45508 24.4742 1.75396 22.2375 2.32258 20.1063C5.26575 8.95543 15.4245 0.737305 27.5006 0.737305C41.8853 0.73685 53.5465 12.3981 53.5465 26.7823Z" fill="white"/>
<path d="M50.3702 27.6649C50.3702 28.6597 50.3092 29.6396 50.1905 30.6022C49.9157 32.797 49.3366 34.8977 48.4996 36.8551C48.4996 36.8551 48.4996 36.8583 48.4969 36.861C44.9879 45.0887 36.9044 50.8459 27.4976 50.8459C16.8489 50.8459 7.90571 43.472 5.35465 33.4893V33.4866C4.87701 31.6261 4.625 29.6751 4.625 27.6649C4.625 25.611 4.88839 23.6186 5.3865 21.723C7.97212 11.799 16.8922 4.48389 27.4976 4.48389C40.1296 4.48389 50.3702 14.8623 50.3702 27.6649Z" fill="url(#paint0_radial_26645_234123)"/>
<path d="M49.8029 26.7818C49.8029 27.7389 49.7437 28.6814 49.6277 29.6071C49.3598 31.7183 48.7953 33.7394 47.9792 35.6222C47.9792 35.6222 47.9792 35.6249 47.9765 35.6277C44.5552 43.5424 36.6742 49.0808 27.503 49.0808C17.1209 49.0808 8.4015 41.9871 5.91459 32.3843V32.3815C5.44878 30.592 5.20312 28.7147 5.20312 26.7814C5.20312 24.8053 5.46015 22.8888 5.94552 21.0651C8.4661 11.5187 17.1632 4.48145 27.5025 4.48145C39.8188 4.48236 49.8029 14.4664 49.8029 26.7818Z" fill="#586686"/>
<path d="M48.3903 26.7828C48.3903 27.6794 48.3348 28.5623 48.226 29.4298C47.9749 31.4077 47.4459 33.301 46.6821 35.0646C46.6821 35.0646 46.6821 35.0674 46.6794 35.0701C43.4747 42.4844 36.0922 47.6725 27.5006 47.6725C17.7749 47.6725 9.60725 41.0274 7.27773 32.0318V32.0291C6.84149 30.3528 6.61133 28.5942 6.61133 26.7828C6.61133 24.9318 6.85196 23.1364 7.30686 21.4282C9.66822 12.4855 17.8149 5.89355 27.5006 5.89355C39.0376 5.89355 48.3903 15.2462 48.3903 26.7828Z" fill="#A9C1D3"/>
<path d="M48.392 26.7824C48.392 27.679 48.3365 28.5619 48.2278 29.4294C45.6126 15.0106 36.5406 9.97305 22.7427 11.1817C15.413 11.824 10.4155 16.7979 7.30859 21.4282C9.66995 12.4855 17.8167 5.89355 27.5023 5.89355C39.0394 5.8931 48.392 15.2458 48.392 26.7824Z" fill="#C4D8E6"/>
<path opacity="0.43" d="M46.679 35.0705C43.4743 42.4848 36.0918 47.6729 27.5002 47.6729C17.7745 47.6729 9.60686 41.0278 7.27734 32.0322C10.2414 36.4056 17.1695 44.5369 27.5002 44.1479C41.3827 43.6271 46.5202 35.3293 46.679 35.0705Z" fill="#C4D8E6"/>
<mask id="path-9-outside-1_26645_234123" maskUnits="userSpaceOnUse" x="13" y="16.7363" width="30" height="21" fill="black">
<rect fill="white" x="13" y="16.7363" width="30" height="21"/>
<path d="M15.9922 36.7363C15.4375 36.7363 15.0128 36.589 14.7182 36.2943C14.4235 35.9997 14.2762 35.5923 14.2762 35.0723C14.2762 34.535 14.4235 34.1277 14.7182 33.8503C15.0128 33.573 15.4375 33.4343 15.9922 33.4343H18.6182V21.7083H20.5162L16.7202 24.0223C16.3215 24.265 15.9488 24.3603 15.6022 24.3083C15.2728 24.2563 14.9868 24.109 14.7442 23.8663C14.5015 23.6237 14.3368 23.3377 14.2502 23.0083C14.1808 22.6617 14.2155 22.3237 14.3542 21.9943C14.4928 21.6477 14.7528 21.353 15.1342 21.1103L18.7482 18.9263C19.1122 18.701 19.4762 18.519 19.8402 18.3803C20.2215 18.2417 20.5942 18.1723 20.9582 18.1723C21.4782 18.1723 21.8855 18.311 22.1802 18.5883C22.4922 18.8483 22.6482 19.2557 22.6482 19.8103V33.4343H25.0142C25.5515 33.4343 25.9675 33.573 26.2622 33.8503C26.5568 34.1277 26.7042 34.535 26.7042 35.0723C26.7042 35.6097 26.5568 36.0257 26.2622 36.3203C25.9675 36.5977 25.5515 36.7363 25.0142 36.7363H15.9922ZM30.088 36.7363C29.4467 36.7363 28.97 36.589 28.658 36.2943C28.3633 35.9823 28.216 35.5317 28.216 34.9423C28.216 34.561 28.3113 34.2057 28.502 33.8763C28.6927 33.547 28.9527 33.209 29.282 32.8623L34.17 27.7143C34.898 26.9343 35.418 26.241 35.73 25.6343C36.0593 25.0277 36.224 24.421 36.224 23.8143C36.224 23.0517 35.9727 22.471 35.47 22.0723C34.9847 21.6737 34.274 21.4743 33.338 21.4743C32.8353 21.4743 32.3153 21.5523 31.778 21.7083C31.258 21.847 30.712 22.081 30.14 22.4103C29.7587 22.6183 29.4033 22.6963 29.074 22.6443C28.762 22.575 28.4933 22.4277 28.268 22.2023C28.0427 21.9597 27.8953 21.6737 27.826 21.3443C27.7567 21.015 27.7913 20.6857 27.93 20.3563C28.0687 20.027 28.3287 19.7497 28.71 19.5243C29.4727 19.0563 30.3047 18.7097 31.206 18.4843C32.1073 18.2417 33 18.1203 33.884 18.1203C35.2533 18.1203 36.406 18.3283 37.342 18.7443C38.278 19.143 38.9887 19.7323 39.474 20.5123C39.9593 21.2923 40.202 22.2457 40.202 23.3723C40.202 24.1003 40.0893 24.811 39.864 25.5043C39.6387 26.1977 39.2833 26.8997 38.798 27.6103C38.33 28.3037 37.706 29.049 36.926 29.8463L32.376 34.4743V33.4343H39.422C39.9767 33.4343 40.3927 33.573 40.67 33.8503C40.9647 34.1277 41.112 34.535 41.112 35.0723C41.112 35.6097 40.9647 36.0257 40.67 36.3203C40.3927 36.5977 39.9767 36.7363 39.422 36.7363H30.088Z"/>
</mask>
<path d="M15.9922 36.7363C15.4375 36.7363 15.0128 36.589 14.7182 36.2943C14.4235 35.9997 14.2762 35.5923 14.2762 35.0723C14.2762 34.535 14.4235 34.1277 14.7182 33.8503C15.0128 33.573 15.4375 33.4343 15.9922 33.4343H18.6182V21.7083H20.5162L16.7202 24.0223C16.3215 24.265 15.9488 24.3603 15.6022 24.3083C15.2728 24.2563 14.9868 24.109 14.7442 23.8663C14.5015 23.6237 14.3368 23.3377 14.2502 23.0083C14.1808 22.6617 14.2155 22.3237 14.3542 21.9943C14.4928 21.6477 14.7528 21.353 15.1342 21.1103L18.7482 18.9263C19.1122 18.701 19.4762 18.519 19.8402 18.3803C20.2215 18.2417 20.5942 18.1723 20.9582 18.1723C21.4782 18.1723 21.8855 18.311 22.1802 18.5883C22.4922 18.8483 22.6482 19.2557 22.6482 19.8103V33.4343H25.0142C25.5515 33.4343 25.9675 33.573 26.2622 33.8503C26.5568 34.1277 26.7042 34.535 26.7042 35.0723C26.7042 35.6097 26.5568 36.0257 26.2622 36.3203C25.9675 36.5977 25.5515 36.7363 25.0142 36.7363H15.9922ZM30.088 36.7363C29.4467 36.7363 28.97 36.589 28.658 36.2943C28.3633 35.9823 28.216 35.5317 28.216 34.9423C28.216 34.561 28.3113 34.2057 28.502 33.8763C28.6927 33.547 28.9527 33.209 29.282 32.8623L34.17 27.7143C34.898 26.9343 35.418 26.241 35.73 25.6343C36.0593 25.0277 36.224 24.421 36.224 23.8143C36.224 23.0517 35.9727 22.471 35.47 22.0723C34.9847 21.6737 34.274 21.4743 33.338 21.4743C32.8353 21.4743 32.3153 21.5523 31.778 21.7083C31.258 21.847 30.712 22.081 30.14 22.4103C29.7587 22.6183 29.4033 22.6963 29.074 22.6443C28.762 22.575 28.4933 22.4277 28.268 22.2023C28.0427 21.9597 27.8953 21.6737 27.826 21.3443C27.7567 21.015 27.7913 20.6857 27.93 20.3563C28.0687 20.027 28.3287 19.7497 28.71 19.5243C29.4727 19.0563 30.3047 18.7097 31.206 18.4843C32.1073 18.2417 33 18.1203 33.884 18.1203C35.2533 18.1203 36.406 18.3283 37.342 18.7443C38.278 19.143 38.9887 19.7323 39.474 20.5123C39.9593 21.2923 40.202 22.2457 40.202 23.3723C40.202 24.1003 40.0893 24.811 39.864 25.5043C39.6387 26.1977 39.2833 26.8997 38.798 27.6103C38.33 28.3037 37.706 29.049 36.926 29.8463L32.376 34.4743V33.4343H39.422C39.9767 33.4343 40.3927 33.573 40.67 33.8503C40.9647 34.1277 41.112 34.535 41.112 35.0723C41.112 35.6097 40.9647 36.0257 40.67 36.3203C40.3927 36.5977 39.9767 36.7363 39.422 36.7363H30.088Z" fill="white"/>
<path d="M14.7182 33.8503L14.0328 33.1221H14.0328L14.7182 33.8503ZM18.6182 33.4343V34.4343H19.6182V33.4343H18.6182ZM18.6182 21.7083V20.7083H17.6182V21.7083H18.6182ZM20.5162 21.7083L21.0367 22.5622L24.0778 20.7083H20.5162V21.7083ZM16.7202 24.0223L17.2401 24.8765L17.2407 24.8762L16.7202 24.0223ZM15.6022 24.3083L15.4462 25.2961L15.4538 25.2973L15.6022 24.3083ZM14.7442 23.8663L15.4513 23.1592L15.4513 23.1592L14.7442 23.8663ZM14.2502 23.0083L13.2696 23.2044L13.2755 23.2338L13.2831 23.2628L14.2502 23.0083ZM14.3542 21.9943L15.2758 22.3824L15.2793 22.3741L15.2826 22.3657L14.3542 21.9943ZM15.1342 21.1103L14.6169 20.2545L14.607 20.2605L14.5973 20.2667L15.1342 21.1103ZM18.7482 18.9263L19.2654 19.7822L19.2745 19.7766L18.7482 18.9263ZM19.8402 18.3803L19.4984 17.4405L19.4913 17.4431L19.4842 17.4458L19.8402 18.3803ZM22.1802 18.5883L21.4948 19.3165L21.5168 19.3372L21.54 19.3565L22.1802 18.5883ZM22.6482 33.4343H21.6482V34.4343H22.6482V33.4343ZM26.2622 33.8503L26.9475 33.1221L26.9475 33.1221L26.2622 33.8503ZM26.2622 36.3203L26.9475 37.0485L26.9586 37.0381L26.9693 37.0274L26.2622 36.3203ZM15.9922 35.7363C15.6119 35.7363 15.4767 35.6387 15.4253 35.5872L14.011 37.0014C14.5489 37.5393 15.263 37.7363 15.9922 37.7363V35.7363ZM15.4253 35.5872C15.3621 35.5241 15.2762 35.3966 15.2762 35.0723H13.2762C13.2762 35.7881 13.4849 36.4752 14.011 37.0014L15.4253 35.5872ZM15.2762 35.0723C15.2762 34.7163 15.3694 34.6107 15.4035 34.5785L14.0328 33.1221C13.4776 33.6447 13.2762 34.3537 13.2762 35.0723H15.2762ZM15.4035 34.5785C15.4531 34.5319 15.5965 34.4343 15.9922 34.4343V32.4343C15.2785 32.4343 14.5726 32.6141 14.0328 33.1221L15.4035 34.5785ZM15.9922 34.4343H18.6182V32.4343H15.9922V34.4343ZM19.6182 33.4343V21.7083H17.6182V33.4343H19.6182ZM18.6182 22.7083H20.5162V20.7083H18.6182V22.7083ZM19.9957 20.8545L16.1997 23.1685L17.2407 24.8762L21.0367 22.5622L19.9957 20.8545ZM16.2002 23.1681C15.9349 23.3296 15.7984 23.3266 15.7505 23.3194L15.4538 25.2973C16.0992 25.3941 16.7081 25.2003 17.2401 24.8765L16.2002 23.1681ZM15.7581 23.3206C15.644 23.3025 15.5492 23.2571 15.4513 23.1592L14.037 24.5734C14.4245 24.9609 14.9016 25.2101 15.4462 25.2961L15.7581 23.3206ZM15.4513 23.1592C15.3328 23.0407 15.2585 22.9106 15.2172 22.7538L13.2831 23.2628C13.4152 23.7648 13.6702 24.2066 14.0371 24.5734L15.4513 23.1592ZM15.2307 22.8122C15.2011 22.664 15.2139 22.5294 15.2758 22.3824L13.4325 21.6063C13.2171 22.1179 13.1605 22.6593 13.2696 23.2044L15.2307 22.8122ZM15.2826 22.3657C15.3283 22.2516 15.4285 22.1083 15.671 21.954L14.5973 20.2667C14.0772 20.5977 13.6574 21.0437 13.4257 21.6229L15.2826 22.3657ZM15.6514 21.9662L19.2654 19.7822L18.2309 18.0705L14.6169 20.2545L15.6514 21.9662ZM19.2745 19.7766C19.5898 19.5814 19.897 19.4288 20.1962 19.3148L19.4842 17.4458C19.0553 17.6092 18.6345 17.8206 18.2218 18.0761L19.2745 19.7766ZM20.1819 19.3201C20.4662 19.2167 20.7233 19.1723 20.9582 19.1723V17.1723C20.465 17.1723 19.9768 17.2666 19.4984 17.4405L20.1819 19.3201ZM20.9582 19.1723C21.2987 19.1723 21.434 19.2593 21.4948 19.3165L22.8655 17.8601C22.337 17.3627 21.6576 17.1723 20.9582 17.1723V19.1723ZM21.54 19.3565C21.5486 19.3637 21.6482 19.4379 21.6482 19.8103H23.6482C23.6482 19.0734 23.4357 18.3329 22.8203 17.8201L21.54 19.3565ZM21.6482 19.8103V33.4343H23.6482V19.8103H21.6482ZM22.6482 34.4343H25.0142V32.4343H22.6482V34.4343ZM25.0142 34.4343C25.3824 34.4343 25.5218 34.5268 25.5768 34.5785L26.9475 33.1221C26.4132 32.6192 25.7206 32.4343 25.0142 32.4343V34.4343ZM25.5768 34.5785C25.6109 34.6107 25.7042 34.7163 25.7042 35.0723H27.7042C27.7042 34.3537 27.5027 33.6447 26.9475 33.1221L25.5768 34.5785ZM25.7042 35.0723C25.7042 35.4247 25.6122 35.5561 25.555 35.6132L26.9693 37.0274C27.5015 36.4952 27.7042 35.7946 27.7042 35.0723H25.7042ZM25.5768 35.5921C25.5218 35.6439 25.3824 35.7363 25.0142 35.7363V37.7363C25.7206 37.7363 26.4132 37.5514 26.9475 37.0485L25.5768 35.5921ZM25.0142 35.7363H15.9922V37.7363H25.0142V35.7363ZM28.658 36.2943L27.931 36.981L27.9506 37.0017L27.9714 37.0213L28.658 36.2943ZM28.502 33.8763L29.3674 34.3774L28.502 33.8763ZM29.282 32.8623L30.007 33.5511L30.0072 33.5509L29.282 32.8623ZM34.17 27.7143L34.8952 28.4029L34.9011 28.3966L34.17 27.7143ZM35.73 25.6343L34.8511 25.1572L34.8458 25.167L34.8407 25.177L35.73 25.6343ZM35.47 22.0723L34.8353 22.8451L34.8419 22.8505L34.8486 22.8558L35.47 22.0723ZM31.778 21.7083L32.0357 22.6746L32.0463 22.6717L32.0568 22.6687L31.778 21.7083ZM30.14 22.4103L30.6189 23.2882L30.629 23.2827L30.639 23.2769L30.14 22.4103ZM29.074 22.6443L28.8571 23.6205L28.8874 23.6272L28.918 23.6321L29.074 22.6443ZM28.268 22.2023L27.5352 22.8828L27.5478 22.8963L27.5609 22.9094L28.268 22.2023ZM27.93 20.3563L27.0084 19.9683L27.0084 19.9683L27.93 20.3563ZM28.71 19.5243L29.2187 20.3853L29.2259 20.381L29.233 20.3766L28.71 19.5243ZM31.206 18.4843L31.4485 19.4545L31.4573 19.4523L31.466 19.4499L31.206 18.4843ZM37.342 18.7443L36.9359 19.6581L36.943 19.6613L36.9501 19.6644L37.342 18.7443ZM39.474 20.5123L38.6249 21.0406V21.0406L39.474 20.5123ZM39.864 25.5043L38.913 25.1952L38.913 25.1952L39.864 25.5043ZM38.798 27.6103L37.9722 27.0464L37.9692 27.0509L38.798 27.6103ZM36.926 29.8463L37.6391 30.5474L37.6408 30.5456L36.926 29.8463ZM32.376 34.4743H31.376V36.9179L33.0891 35.1754L32.376 34.4743ZM32.376 33.4343V32.4343H31.376V33.4343H32.376ZM40.67 33.8503L39.9629 34.5574L39.9736 34.5681L39.9846 34.5785L40.67 33.8503ZM40.67 36.3203L39.9629 35.6132V35.6132L40.67 36.3203ZM30.088 35.7363C29.5781 35.7363 29.3972 35.6169 29.3446 35.5673L27.9714 37.0213C28.5428 37.5611 29.3152 37.7363 30.088 37.7363V35.7363ZM29.385 35.6077C29.3223 35.5413 29.216 35.3729 29.216 34.9423H27.216C27.216 35.6904 27.4044 36.4233 27.931 36.981L29.385 35.6077ZM29.216 34.9423C29.216 34.7366 29.2651 34.5541 29.3674 34.3774L27.6366 33.3753C27.3576 33.8572 27.216 34.3854 27.216 34.9423H29.216ZM29.3674 34.3774C29.5103 34.1306 29.7186 33.8547 30.007 33.5511L28.557 32.1736C28.1868 32.5633 27.875 32.9634 27.6366 33.3753L29.3674 34.3774ZM30.0072 33.5509L34.8952 28.4029L33.4448 27.0258L28.5568 32.1738L30.0072 33.5509ZM34.9011 28.3966C35.6608 27.5826 36.2484 26.8128 36.6193 26.0917L34.8407 25.177C34.5876 25.6692 34.1352 26.286 33.4389 27.032L34.9011 28.3966ZM36.6089 26.1114C37.0066 25.3787 37.224 24.6094 37.224 23.8143H35.224C35.224 24.2326 35.1121 24.6766 34.8511 25.1572L36.6089 26.1114ZM37.224 23.8143C37.224 22.8107 36.8795 21.9138 36.0914 21.2888L34.8486 22.8558C35.0659 23.0281 35.224 23.2926 35.224 23.8143H37.224ZM36.1047 21.2996C35.3711 20.697 34.3961 20.4743 33.338 20.4743V22.4743C34.1519 22.4743 34.5982 22.6503 34.8353 22.8451L36.1047 21.2996ZM33.338 20.4743C32.731 20.4743 32.117 20.5686 31.4992 20.748L32.0568 22.6687C32.5137 22.536 32.9397 22.4743 33.338 22.4743V20.4743ZM31.5203 20.7421C30.8994 20.9077 30.2724 21.1802 29.641 21.5437L30.639 23.2769C31.1516 22.9818 31.6166 22.7863 32.0357 22.6746L31.5203 20.7421ZM29.6611 21.5324C29.4146 21.6669 29.2833 21.665 29.23 21.6566L28.918 23.6321C29.5234 23.7277 30.1027 23.5697 30.6189 23.2882L29.6611 21.5324ZM29.2909 21.6681C29.164 21.6399 29.0655 21.5857 28.9751 21.4952L27.5609 22.9094C27.9211 23.2697 28.36 23.5101 28.8571 23.6205L29.2909 21.6681ZM29.0008 21.5219C28.901 21.4144 28.8372 21.2932 28.8046 21.1383L26.8475 21.5503C26.9535 22.0541 27.1843 22.5049 27.5352 22.8828L29.0008 21.5219ZM28.8046 21.1383C28.7798 21.0208 28.7868 20.8983 28.8516 20.7444L27.0084 19.9683C26.7959 20.473 26.7335 21.0092 26.8475 21.5503L28.8046 21.1383ZM28.8516 20.7444C28.8888 20.6562 28.9772 20.528 29.2187 20.3853L28.2013 18.6634C27.6801 18.9714 27.2486 19.3978 27.0084 19.9683L28.8516 20.7444ZM29.233 20.3766C29.9055 19.964 30.6423 19.656 31.4485 19.4545L30.9635 17.5142C29.967 17.7633 29.0399 18.1486 28.187 18.672L29.233 20.3766ZM31.466 19.4499C32.2873 19.2288 33.0926 19.1203 33.884 19.1203V17.1203C32.9074 17.1203 31.9274 17.2545 30.946 17.5187L31.466 19.4499ZM33.884 19.1203C35.1581 19.1203 36.1631 19.3147 36.9359 19.6581L37.7481 17.8305C36.6489 17.342 35.3486 17.1203 33.884 17.1203V19.1203ZM36.9501 19.6644C37.7183 19.9916 38.2597 20.4537 38.6249 21.0406L40.3231 19.984C39.7176 19.011 38.8377 18.2944 37.7339 17.8243L36.9501 19.6644ZM38.6249 21.0406C38.9914 21.6296 39.202 22.3901 39.202 23.3723H41.202C41.202 22.1012 40.9272 20.955 40.3231 19.984L38.6249 21.0406ZM39.202 23.3723C39.202 23.9952 39.1059 24.6016 38.913 25.1952L40.815 25.8134C41.0728 25.0204 41.202 24.2054 41.202 23.3723H39.202ZM38.913 25.1952C38.7218 25.7835 38.4133 26.4005 37.9722 27.0464L39.6238 28.1743C40.1534 27.3988 40.5556 26.6118 40.815 25.8134L38.913 25.1952ZM37.9692 27.0509C37.5439 27.6809 36.962 28.3795 36.2112 29.147L37.6408 30.5456C38.45 29.7185 39.1161 28.9264 39.6269 28.1698L37.9692 27.0509ZM36.2129 29.1453L31.6629 33.7733L33.0891 35.1754L37.6391 30.5474L36.2129 29.1453ZM33.376 34.4743V33.4343H31.376V34.4743H33.376ZM32.376 34.4343H39.422V32.4343H32.376V34.4343ZM39.422 34.4343C39.8225 34.4343 39.9392 34.5338 39.9629 34.5574L41.3771 33.1432C40.8461 32.6122 40.1308 32.4343 39.422 32.4343V34.4343ZM39.9846 34.5785C40.0188 34.6107 40.112 34.7163 40.112 35.0723H42.112C42.112 34.3537 41.9105 33.6447 41.3554 33.1221L39.9846 34.5785ZM40.112 35.0723C40.112 35.4247 40.02 35.5561 39.9629 35.6132L41.3771 37.0274C41.9093 36.4952 42.112 35.7946 42.112 35.0723H40.112ZM39.9629 35.6132C39.9392 35.6369 39.8225 35.7363 39.422 35.7363V37.7363C40.1308 37.7363 40.8461 37.5584 41.3771 37.0274L39.9629 35.6132ZM39.422 35.7363H30.088V37.7363H39.422V35.7363Z" fill="#4F5E7F" mask="url(#path-9-outside-1_26645_234123)"/>
<defs>
<radialGradient id="paint0_radial_26645_234123" cx="0" cy="0" r="1" gradientUnits="userSpaceOnUse" gradientTransform="translate(27.4975 27.6648) scale(23.0273 23.0272)">
<stop stop-color="#C4D8E6"/>
<stop offset="1" stop-color="#B7CEDE"/>
</radialGradient>
</defs>
</svg>
