<svg width="55" height="56" viewBox="0 0 55 56" fill="none" xmlns="http://www.w3.org/2000/svg">
<path d="M55 28.1047C55 29.2792 54.9268 30.4361 54.7839 31.5724C54.4532 34.1635 53.7572 36.644 52.751 38.9549C52.751 38.9549 52.751 38.9585 52.7473 38.9617C48.5282 48.6755 38.8094 55.4725 27.4998 55.4725C14.6968 55.4725 3.94393 46.7668 0.877028 34.9813V34.9777C0.302495 32.7815 0 30.4774 0 28.1047C0 25.6797 0.31659 23.3274 0.915232 21.0898C4.02399 9.37348 14.7486 0.737305 27.4998 0.737305C42.6878 0.73685 55 12.9899 55 28.1047Z" fill="#9FADB7"/>
<path d="M53.5469 26.7823C53.5469 27.1153 53.5415 27.4487 53.5283 27.779C53.4992 28.5564 53.4382 29.3234 53.3431 30.0821C53.0284 32.549 52.3701 34.9076 51.418 37.1079C51.418 37.1079 51.418 37.1107 51.4126 37.1157C47.4172 46.36 38.2124 52.8278 27.501 52.8278C15.3749 52.8278 5.19158 44.5432 2.28571 33.3264V33.3237C1.85447 31.6711 1.58516 29.9524 1.49237 28.1911C1.46826 27.723 1.45508 27.2549 1.45508 26.7819C1.45508 24.4733 1.75394 22.2365 2.32256 20.1054C5.26573 8.95451 15.4244 0.736328 27.5005 0.736328C41.8857 0.736783 53.5469 12.3981 53.5469 26.7823Z" fill="#E7E6E2"/>
<path d="M53.5465 26.7823C53.5465 27.1153 53.541 27.4488 53.5279 27.779C52.5416 25.9385 50.8599 22.9162 48.0068 18.0088C41.6765 7.12222 27.501 5.89307 16.004 9.33844C4.50425 12.7865 1.98685 32.0313 1.98685 32.0313L1.49239 28.1921C1.46828 27.724 1.45508 27.2559 1.45508 26.7828C1.45508 24.4742 1.75396 22.2375 2.32258 20.1063C5.26575 8.95543 15.4245 0.737305 27.5006 0.737305C41.8853 0.73685 53.5465 12.3981 53.5465 26.7823Z" fill="white"/>
<path d="M50.3702 27.6649C50.3702 28.6597 50.3092 29.6396 50.1905 30.6022C49.9157 32.797 49.3366 34.8977 48.4996 36.8551C48.4996 36.8551 48.4996 36.8583 48.4969 36.861C44.9879 45.0887 36.9044 50.8459 27.4976 50.8459C16.8489 50.8459 7.90571 43.472 5.35465 33.4893V33.4866C4.87701 31.6261 4.625 29.6751 4.625 27.6649C4.625 25.611 4.88839 23.6186 5.3865 21.723C7.97212 11.799 16.8922 4.48389 27.4976 4.48389C40.1296 4.48389 50.3702 14.8623 50.3702 27.6649Z" fill="url(#paint0_radial_26645_234140)"/>
<path d="M49.8029 26.7818C49.8029 27.7389 49.7437 28.6814 49.6277 29.6071C49.3598 31.7183 48.7953 33.7394 47.9792 35.6222C47.9792 35.6222 47.9792 35.6249 47.9765 35.6277C44.5552 43.5424 36.6742 49.0808 27.503 49.0808C17.1209 49.0808 8.4015 41.9871 5.91459 32.3843V32.3815C5.44878 30.592 5.20312 28.7147 5.20312 26.7814C5.20312 24.8053 5.46015 22.8888 5.94552 21.0651C8.4661 11.5187 17.1632 4.48145 27.5025 4.48145C39.8188 4.48236 49.8029 14.4664 49.8029 26.7818Z" fill="#586686"/>
<path d="M48.3903 26.7828C48.3903 27.6794 48.3348 28.5623 48.226 29.4298C47.9749 31.4077 47.4459 33.301 46.6821 35.0646C46.6821 35.0646 46.6821 35.0674 46.6794 35.0701C43.4747 42.4844 36.0922 47.6725 27.5006 47.6725C17.7749 47.6725 9.60725 41.0274 7.27773 32.0318V32.0291C6.84149 30.3528 6.61133 28.5942 6.61133 26.7828C6.61133 24.9318 6.85196 23.1364 7.30686 21.4282C9.66822 12.4855 17.8149 5.89355 27.5006 5.89355C39.0376 5.89355 48.3903 15.2462 48.3903 26.7828Z" fill="#A9C1D3"/>
<path d="M48.392 26.7824C48.392 27.679 48.3365 28.5619 48.2278 29.4294C45.6126 15.0106 36.5406 9.97305 22.7427 11.1817C15.413 11.824 10.4155 16.7979 7.30859 21.4282C9.66995 12.4855 17.8167 5.89355 27.5023 5.89355C39.0394 5.8931 48.392 15.2458 48.392 26.7824Z" fill="#C4D8E6"/>
<path opacity="0.43" d="M46.679 35.0705C43.4743 42.4848 36.0918 47.6729 27.5002 47.6729C17.7745 47.6729 9.60686 41.0278 7.27734 32.0322C10.2414 36.4056 17.1695 44.5369 27.5002 44.1479C41.3827 43.6271 46.5202 35.3293 46.679 35.0705Z" fill="#C4D8E6"/>
<mask id="path-9-outside-1_26645_234140" maskUnits="userSpaceOnUse" x="13" y="16.7363" width="29" height="22" fill="black">
<rect fill="white" x="13" y="16.7363" width="29" height="22"/>
<path d="M15.9922 36.7363C15.4375 36.7363 15.0128 36.589 14.7182 36.2943C14.4235 35.9997 14.2762 35.5923 14.2762 35.0723C14.2762 34.535 14.4235 34.1277 14.7182 33.8503C15.0128 33.573 15.4375 33.4343 15.9922 33.4343H18.6182V21.7083H20.5162L16.7202 24.0223C16.3215 24.265 15.9488 24.3603 15.6022 24.3083C15.2728 24.2563 14.9868 24.109 14.7442 23.8663C14.5015 23.6237 14.3368 23.3377 14.2502 23.0083C14.1808 22.6617 14.2155 22.3237 14.3542 21.9943C14.4928 21.6477 14.7528 21.353 15.1342 21.1103L18.7482 18.9263C19.1122 18.701 19.4762 18.519 19.8402 18.3803C20.2215 18.2417 20.5942 18.1723 20.9582 18.1723C21.4782 18.1723 21.8855 18.311 22.1802 18.5883C22.4922 18.8483 22.6482 19.2557 22.6482 19.8103V33.4343H25.0142C25.5515 33.4343 25.9675 33.573 26.2622 33.8503C26.5568 34.1277 26.7042 34.535 26.7042 35.0723C26.7042 35.6097 26.5568 36.0257 26.2622 36.3203C25.9675 36.5977 25.5515 36.7363 25.0142 36.7363H15.9922ZM33.858 37.0223C32.9393 37.0223 32.0033 36.9183 31.05 36.7103C30.114 36.485 29.2993 36.173 28.606 35.7743C28.1553 35.5317 27.8433 35.2457 27.67 34.9163C27.514 34.5697 27.4533 34.2317 27.488 33.9023C27.54 33.573 27.6787 33.287 27.904 33.0443C28.1293 32.7843 28.4153 32.6197 28.762 32.5503C29.126 32.481 29.5247 32.5503 29.958 32.7583C30.634 33.0877 31.2753 33.3217 31.882 33.4603C32.4887 33.599 33.0953 33.6683 33.702 33.6683C34.3953 33.6683 34.976 33.5817 35.444 33.4083C35.912 33.2177 36.2673 32.949 36.51 32.6023C36.7527 32.2557 36.874 31.8223 36.874 31.3023C36.874 30.5743 36.6227 30.0283 36.12 29.6643C35.6173 29.3003 34.8807 29.1183 33.91 29.1183H32.376C31.804 29.1183 31.362 28.9797 31.05 28.7023C30.7553 28.4077 30.608 28.009 30.608 27.5063C30.608 26.9863 30.7553 26.5877 31.05 26.3103C31.362 26.0157 31.804 25.8683 32.376 25.8683H33.52C34.1093 25.8683 34.6033 25.7817 35.002 25.6083C35.418 25.4177 35.7387 25.1577 35.964 24.8283C36.2067 24.499 36.328 24.0917 36.328 23.6063C36.328 22.913 36.0853 22.3843 35.6 22.0203C35.132 21.6563 34.4473 21.4743 33.546 21.4743C32.9913 21.4743 32.4453 21.5437 31.908 21.6823C31.3707 21.8037 30.79 22.029 30.166 22.3583C29.7847 22.549 29.4293 22.6097 29.1 22.5403C28.7707 22.471 28.4933 22.315 28.268 22.0723C28.06 21.8297 27.9213 21.5523 27.852 21.2403C27.8 20.911 27.8433 20.5817 27.982 20.2523C28.138 19.923 28.4153 19.6543 28.814 19.4463C29.5593 19.013 30.3653 18.6837 31.232 18.4583C32.116 18.233 33.0087 18.1203 33.91 18.1203C35.2273 18.1203 36.354 18.3197 37.29 18.7183C38.226 19.117 38.9453 19.689 39.448 20.4343C39.9507 21.1623 40.202 22.0463 40.202 23.0863C40.202 23.797 40.0633 24.447 39.786 25.0363C39.5087 25.6257 39.1187 26.1283 38.616 26.5443C38.1307 26.943 37.5327 27.229 36.822 27.4023V27.0643C38.0527 27.2723 39.0147 27.7837 39.708 28.5983C40.4013 29.413 40.748 30.4357 40.748 31.6663C40.748 32.7583 40.4707 33.7117 39.916 34.5263C39.3613 35.3237 38.564 35.939 37.524 36.3723C36.5013 36.8057 35.2793 37.0223 33.858 37.0223Z"/>
</mask>
<path d="M15.9922 36.7363C15.4375 36.7363 15.0128 36.589 14.7182 36.2943C14.4235 35.9997 14.2762 35.5923 14.2762 35.0723C14.2762 34.535 14.4235 34.1277 14.7182 33.8503C15.0128 33.573 15.4375 33.4343 15.9922 33.4343H18.6182V21.7083H20.5162L16.7202 24.0223C16.3215 24.265 15.9488 24.3603 15.6022 24.3083C15.2728 24.2563 14.9868 24.109 14.7442 23.8663C14.5015 23.6237 14.3368 23.3377 14.2502 23.0083C14.1808 22.6617 14.2155 22.3237 14.3542 21.9943C14.4928 21.6477 14.7528 21.353 15.1342 21.1103L18.7482 18.9263C19.1122 18.701 19.4762 18.519 19.8402 18.3803C20.2215 18.2417 20.5942 18.1723 20.9582 18.1723C21.4782 18.1723 21.8855 18.311 22.1802 18.5883C22.4922 18.8483 22.6482 19.2557 22.6482 19.8103V33.4343H25.0142C25.5515 33.4343 25.9675 33.573 26.2622 33.8503C26.5568 34.1277 26.7042 34.535 26.7042 35.0723C26.7042 35.6097 26.5568 36.0257 26.2622 36.3203C25.9675 36.5977 25.5515 36.7363 25.0142 36.7363H15.9922ZM33.858 37.0223C32.9393 37.0223 32.0033 36.9183 31.05 36.7103C30.114 36.485 29.2993 36.173 28.606 35.7743C28.1553 35.5317 27.8433 35.2457 27.67 34.9163C27.514 34.5697 27.4533 34.2317 27.488 33.9023C27.54 33.573 27.6787 33.287 27.904 33.0443C28.1293 32.7843 28.4153 32.6197 28.762 32.5503C29.126 32.481 29.5247 32.5503 29.958 32.7583C30.634 33.0877 31.2753 33.3217 31.882 33.4603C32.4887 33.599 33.0953 33.6683 33.702 33.6683C34.3953 33.6683 34.976 33.5817 35.444 33.4083C35.912 33.2177 36.2673 32.949 36.51 32.6023C36.7527 32.2557 36.874 31.8223 36.874 31.3023C36.874 30.5743 36.6227 30.0283 36.12 29.6643C35.6173 29.3003 34.8807 29.1183 33.91 29.1183H32.376C31.804 29.1183 31.362 28.9797 31.05 28.7023C30.7553 28.4077 30.608 28.009 30.608 27.5063C30.608 26.9863 30.7553 26.5877 31.05 26.3103C31.362 26.0157 31.804 25.8683 32.376 25.8683H33.52C34.1093 25.8683 34.6033 25.7817 35.002 25.6083C35.418 25.4177 35.7387 25.1577 35.964 24.8283C36.2067 24.499 36.328 24.0917 36.328 23.6063C36.328 22.913 36.0853 22.3843 35.6 22.0203C35.132 21.6563 34.4473 21.4743 33.546 21.4743C32.9913 21.4743 32.4453 21.5437 31.908 21.6823C31.3707 21.8037 30.79 22.029 30.166 22.3583C29.7847 22.549 29.4293 22.6097 29.1 22.5403C28.7707 22.471 28.4933 22.315 28.268 22.0723C28.06 21.8297 27.9213 21.5523 27.852 21.2403C27.8 20.911 27.8433 20.5817 27.982 20.2523C28.138 19.923 28.4153 19.6543 28.814 19.4463C29.5593 19.013 30.3653 18.6837 31.232 18.4583C32.116 18.233 33.0087 18.1203 33.91 18.1203C35.2273 18.1203 36.354 18.3197 37.29 18.7183C38.226 19.117 38.9453 19.689 39.448 20.4343C39.9507 21.1623 40.202 22.0463 40.202 23.0863C40.202 23.797 40.0633 24.447 39.786 25.0363C39.5087 25.6257 39.1187 26.1283 38.616 26.5443C38.1307 26.943 37.5327 27.229 36.822 27.4023V27.0643C38.0527 27.2723 39.0147 27.7837 39.708 28.5983C40.4013 29.413 40.748 30.4357 40.748 31.6663C40.748 32.7583 40.4707 33.7117 39.916 34.5263C39.3613 35.3237 38.564 35.939 37.524 36.3723C36.5013 36.8057 35.2793 37.0223 33.858 37.0223Z" fill="white"/>
<path d="M14.7182 33.8503L14.0328 33.1221H14.0328L14.7182 33.8503ZM18.6182 33.4343V34.4343H19.6182V33.4343H18.6182ZM18.6182 21.7083V20.7083H17.6182V21.7083H18.6182ZM20.5162 21.7083L21.0367 22.5622L24.0778 20.7083H20.5162V21.7083ZM16.7202 24.0223L17.2401 24.8765L17.2407 24.8762L16.7202 24.0223ZM15.6022 24.3083L15.4462 25.2961L15.4538 25.2973L15.6022 24.3083ZM14.7442 23.8663L15.4513 23.1592L15.4513 23.1592L14.7442 23.8663ZM14.2502 23.0083L13.2696 23.2044L13.2755 23.2338L13.2831 23.2628L14.2502 23.0083ZM14.3542 21.9943L15.2758 22.3824L15.2793 22.3741L15.2826 22.3657L14.3542 21.9943ZM15.1342 21.1103L14.6169 20.2545L14.607 20.2605L14.5973 20.2667L15.1342 21.1103ZM18.7482 18.9263L19.2654 19.7822L19.2745 19.7766L18.7482 18.9263ZM19.8402 18.3803L19.4984 17.4405L19.4913 17.4431L19.4842 17.4458L19.8402 18.3803ZM22.1802 18.5883L21.4948 19.3165L21.5168 19.3372L21.54 19.3565L22.1802 18.5883ZM22.6482 33.4343H21.6482V34.4343H22.6482V33.4343ZM26.2622 33.8503L26.9475 33.1221L26.9475 33.1221L26.2622 33.8503ZM26.2622 36.3203L26.9475 37.0485L26.9586 37.0381L26.9693 37.0274L26.2622 36.3203ZM15.9922 35.7363C15.6119 35.7363 15.4767 35.6387 15.4253 35.5872L14.011 37.0014C14.5489 37.5393 15.263 37.7363 15.9922 37.7363V35.7363ZM15.4253 35.5872C15.3621 35.5241 15.2762 35.3966 15.2762 35.0723H13.2762C13.2762 35.7881 13.4849 36.4752 14.011 37.0014L15.4253 35.5872ZM15.2762 35.0723C15.2762 34.7163 15.3694 34.6107 15.4035 34.5785L14.0328 33.1221C13.4776 33.6447 13.2762 34.3537 13.2762 35.0723H15.2762ZM15.4035 34.5785C15.4531 34.5319 15.5965 34.4343 15.9922 34.4343V32.4343C15.2785 32.4343 14.5726 32.6141 14.0328 33.1221L15.4035 34.5785ZM15.9922 34.4343H18.6182V32.4343H15.9922V34.4343ZM19.6182 33.4343V21.7083H17.6182V33.4343H19.6182ZM18.6182 22.7083H20.5162V20.7083H18.6182V22.7083ZM19.9957 20.8545L16.1997 23.1685L17.2407 24.8762L21.0367 22.5622L19.9957 20.8545ZM16.2002 23.1681C15.9349 23.3296 15.7984 23.3266 15.7505 23.3194L15.4538 25.2973C16.0992 25.3941 16.7081 25.2003 17.2401 24.8765L16.2002 23.1681ZM15.7581 23.3206C15.644 23.3025 15.5492 23.2571 15.4513 23.1592L14.037 24.5734C14.4245 24.9609 14.9016 25.2101 15.4462 25.2961L15.7581 23.3206ZM15.4513 23.1592C15.3328 23.0407 15.2585 22.9106 15.2172 22.7538L13.2831 23.2628C13.4152 23.7648 13.6702 24.2066 14.0371 24.5734L15.4513 23.1592ZM15.2307 22.8122C15.2011 22.664 15.2139 22.5294 15.2758 22.3824L13.4325 21.6063C13.2171 22.1179 13.1605 22.6593 13.2696 23.2044L15.2307 22.8122ZM15.2826 22.3657C15.3283 22.2516 15.4285 22.1083 15.671 21.954L14.5973 20.2667C14.0772 20.5977 13.6574 21.0437 13.4257 21.6229L15.2826 22.3657ZM15.6514 21.9662L19.2654 19.7822L18.2309 18.0705L14.6169 20.2545L15.6514 21.9662ZM19.2745 19.7766C19.5898 19.5814 19.897 19.4288 20.1962 19.3148L19.4842 17.4458C19.0553 17.6092 18.6345 17.8206 18.2218 18.0761L19.2745 19.7766ZM20.1819 19.3201C20.4662 19.2167 20.7233 19.1723 20.9582 19.1723V17.1723C20.465 17.1723 19.9768 17.2666 19.4984 17.4405L20.1819 19.3201ZM20.9582 19.1723C21.2987 19.1723 21.434 19.2593 21.4948 19.3165L22.8655 17.8601C22.337 17.3627 21.6576 17.1723 20.9582 17.1723V19.1723ZM21.54 19.3565C21.5486 19.3637 21.6482 19.4379 21.6482 19.8103H23.6482C23.6482 19.0734 23.4357 18.3329 22.8203 17.8201L21.54 19.3565ZM21.6482 19.8103V33.4343H23.6482V19.8103H21.6482ZM22.6482 34.4343H25.0142V32.4343H22.6482V34.4343ZM25.0142 34.4343C25.3824 34.4343 25.5218 34.5268 25.5768 34.5785L26.9475 33.1221C26.4132 32.6192 25.7206 32.4343 25.0142 32.4343V34.4343ZM25.5768 34.5785C25.6109 34.6107 25.7042 34.7163 25.7042 35.0723H27.7042C27.7042 34.3537 27.5027 33.6447 26.9475 33.1221L25.5768 34.5785ZM25.7042 35.0723C25.7042 35.4247 25.6122 35.5561 25.555 35.6132L26.9693 37.0274C27.5015 36.4952 27.7042 35.7946 27.7042 35.0723H25.7042ZM25.5768 35.5921C25.5218 35.6439 25.3824 35.7363 25.0142 35.7363V37.7363C25.7206 37.7363 26.4132 37.5514 26.9475 37.0485L25.5768 35.5921ZM25.0142 35.7363H15.9922V37.7363H25.0142V35.7363ZM31.05 36.7103L30.8159 37.6826L30.8264 37.6851L30.8368 37.6873L31.05 36.7103ZM28.606 35.7743L29.1045 34.9074L29.0924 34.9005L29.0801 34.8939L28.606 35.7743ZM27.67 34.9163L26.7581 35.3267L26.7707 35.3548L26.7851 35.3821L27.67 34.9163ZM27.488 33.9023L26.5002 33.7464L26.4962 33.7719L26.4935 33.7976L27.488 33.9023ZM27.904 33.0443L28.6368 33.7248L28.6485 33.7122L28.6597 33.6993L27.904 33.0443ZM28.762 32.5503L28.5749 31.5679L28.5659 31.5697L28.762 32.5503ZM29.958 32.7583L30.396 31.8593L30.3907 31.8568L29.958 32.7583ZM31.882 33.4603L31.6592 34.4352L31.882 33.4603ZM35.444 33.4083L35.7913 34.3461L35.8064 34.3405L35.8213 34.3344L35.444 33.4083ZM36.12 29.6643L35.5335 30.4743H35.5335L36.12 29.6643ZM31.05 28.7023L30.3429 29.4094L30.3637 29.4302L30.3856 29.4497L31.05 28.7023ZM31.05 26.3103L31.7354 27.0385L31.7366 27.0373L31.05 26.3103ZM35.002 25.6083L35.4007 26.5254L35.4097 26.5215L35.4187 26.5174L35.002 25.6083ZM35.964 24.8283L35.1589 24.2351L35.1486 24.2492L35.1387 24.2636L35.964 24.8283ZM35.6 22.0203L34.9861 22.8097L34.993 22.8151L35 22.8203L35.6 22.0203ZM31.908 21.6823L32.1283 22.6578L32.1431 22.6544L32.1579 22.6506L31.908 21.6823ZM30.166 22.3583L30.6132 23.2528L30.623 23.2478L30.6328 23.2427L30.166 22.3583ZM29.1 22.5403L28.894 23.5189H28.894L29.1 22.5403ZM28.268 22.0723L27.5087 22.7231L27.5217 22.7382L27.5352 22.7528L28.268 22.0723ZM27.852 21.2403L26.8642 21.3963L26.8691 21.427L26.8758 21.4573L27.852 21.2403ZM27.982 20.2523L27.0783 19.8242L27.0689 19.8441L27.0604 19.8643L27.982 20.2523ZM28.814 19.4463L29.2766 20.3329L29.2968 20.3223L29.3166 20.3108L28.814 19.4463ZM31.232 18.4583L30.985 17.4893L30.9804 17.4905L31.232 18.4583ZM39.448 20.4343L38.6189 20.9935L38.6251 21.0025L39.448 20.4343ZM39.786 25.0363L40.6908 25.4621V25.4621L39.786 25.0363ZM38.616 26.5443L39.2507 27.3171L39.2536 27.3147L38.616 26.5443ZM36.822 27.4023H35.822V28.6755L37.059 28.3738L36.822 27.4023ZM36.822 27.0643L36.9887 26.0783L35.822 25.8811V27.0643H36.822ZM39.708 28.5983L38.9465 29.2464L39.708 28.5983ZM39.916 34.5263L40.7369 35.0974L40.7426 35.0891L39.916 34.5263ZM37.524 36.3723L37.1394 35.4492L37.1339 35.4516L37.524 36.3723ZM33.858 36.0223C33.0153 36.0223 32.1508 35.927 31.2632 35.7333L30.8368 37.6873C31.8559 37.9097 32.8634 38.0223 33.858 38.0223V36.0223ZM31.2841 35.7381C30.4226 35.5307 29.7003 35.25 29.1045 34.9074L28.1075 36.6412C28.8983 37.0959 29.8054 37.4393 30.8159 37.6826L31.2841 35.7381ZM29.0801 34.8939C28.7408 34.7112 28.6068 34.5492 28.5549 34.4506L26.7851 35.3821C27.0799 35.9422 27.5699 36.3522 28.1319 36.6548L29.0801 34.8939ZM28.5819 34.506C28.4876 34.2964 28.469 34.1357 28.4825 34.007L26.4935 33.7976C26.4377 34.3276 26.5404 34.8429 26.7581 35.3267L28.5819 34.506ZM28.4758 34.0583C28.497 33.9238 28.5477 33.8208 28.6368 33.7248L27.1712 32.3639C26.8097 32.7532 26.583 33.2222 26.5002 33.7464L28.4758 34.0583ZM28.6597 33.6993C28.7355 33.6118 28.8225 33.558 28.9581 33.5309L28.5659 31.5697C28.0082 31.6813 27.5232 31.9569 27.1483 32.3894L28.6597 33.6993ZM28.9491 33.5327C29.0483 33.5138 29.2273 33.5168 29.5253 33.6599L30.3907 31.8568C29.822 31.5838 29.2037 31.4482 28.5749 31.568L28.9491 33.5327ZM29.52 33.6573C30.2509 34.0134 30.9646 34.2764 31.6592 34.4352L32.1048 32.4855C31.586 32.3669 31.0171 32.1619 30.396 31.8593L29.52 33.6573ZM31.6592 34.4352C32.337 34.5901 33.0184 34.6683 33.702 34.6683V32.6683C33.1722 32.6683 32.6403 32.6079 32.1048 32.4855L31.6592 34.4352ZM33.702 34.6683C34.4711 34.6683 35.1781 34.5732 35.7913 34.3461L35.0967 32.4706C34.7739 32.5901 34.3195 32.6683 33.702 32.6683V34.6683ZM35.8213 34.3344C36.4324 34.0854 36.9564 33.7084 37.3292 33.1758L35.6908 32.0289C35.5783 32.1895 35.3916 32.3499 35.0667 32.4822L35.8213 34.3344ZM37.3292 33.1758C37.7142 32.6259 37.874 31.98 37.874 31.3023H35.874C35.874 31.6647 35.7912 31.8854 35.6908 32.0289L37.3292 33.1758ZM37.874 31.3023C37.874 30.3169 37.5162 29.4407 36.7065 28.8544L35.5335 30.4743C35.7292 30.616 35.874 30.8318 35.874 31.3023H37.874ZM36.7065 28.8544C35.9614 28.3148 34.9807 28.1183 33.91 28.1183V30.1183C34.7806 30.1183 35.2733 30.2858 35.5335 30.4743L36.7065 28.8544ZM33.91 28.1183H32.376V30.1183H33.91V28.1183ZM32.376 28.1183C31.9577 28.1183 31.785 28.0177 31.7144 27.9549L30.3856 29.4497C30.939 29.9416 31.6503 30.1183 32.376 30.1183V28.1183ZM31.7571 27.9952C31.6876 27.9257 31.608 27.8022 31.608 27.5063H29.608C29.608 28.2158 29.823 28.8896 30.3429 29.4094L31.7571 27.9952ZM31.608 27.5063C31.608 27.179 31.6949 27.0766 31.7354 27.0385L30.3646 25.5821C29.8158 26.0987 29.608 26.7936 29.608 27.5063H31.608ZM31.7366 27.0373C31.8081 26.9698 31.9723 26.8683 32.376 26.8683V24.8683C31.6357 24.8683 30.9159 25.0615 30.3634 25.5833L31.7366 27.0373ZM32.376 26.8683H33.52V24.8683H32.376V26.8683ZM33.52 26.8683C34.2006 26.8683 34.84 26.7692 35.4007 26.5254L34.6033 24.6913C34.3667 24.7941 34.0181 24.8683 33.52 24.8683V26.8683ZM35.4187 26.5174C35.9749 26.2624 36.4472 25.893 36.7893 25.393L35.1387 24.2636C35.0301 24.4223 34.8611 24.5729 34.5853 24.6993L35.4187 26.5174ZM36.7691 25.4215C37.1607 24.89 37.328 24.2642 37.328 23.6063H35.328C35.328 23.9192 35.2527 24.1079 35.1589 24.2351L36.7691 25.4215ZM37.328 23.6063C37.328 22.6496 36.9755 21.802 36.2 21.2203L35 22.8203C35.1951 22.9667 35.328 23.1764 35.328 23.6063H37.328ZM36.2139 21.231C35.4999 20.6756 34.5599 20.4743 33.546 20.4743V22.4743C34.3348 22.4743 34.7641 22.637 34.9861 22.8097L36.2139 21.231ZM33.546 20.4743C32.907 20.4743 32.277 20.5543 31.6581 20.714L32.1579 22.6506C32.6136 22.533 33.0757 22.4743 33.546 22.4743V20.4743ZM31.6877 20.7069C31.0445 20.8521 30.3804 21.1144 29.6992 21.4739L30.6328 23.2427C31.1996 22.9436 31.6968 22.7552 32.1283 22.6578L31.6877 20.7069ZM29.7188 21.4639C29.4846 21.581 29.361 21.5734 29.306 21.5618L28.894 23.5189C29.4977 23.646 30.0847 23.517 30.6132 23.2528L29.7188 21.4639ZM29.306 21.5618C29.1753 21.5343 29.0831 21.4805 29.0008 21.3919L27.5352 22.7528C27.9036 23.1495 28.366 23.4077 28.894 23.5189L29.306 21.5618ZM29.0273 21.4215C28.9261 21.3035 28.8619 21.1752 28.8282 21.0234L26.8758 21.4573C26.9808 21.9295 27.1939 22.3558 27.5087 22.7231L29.0273 21.4215ZM28.8398 21.0844C28.8189 20.9523 28.8318 20.8109 28.9036 20.6404L27.0604 19.8643C26.8548 20.3524 26.7811 20.8697 26.8642 21.3963L28.8398 21.0844ZM28.8857 20.6804C28.9285 20.5902 29.0249 20.4642 29.2766 20.3329L28.3514 18.5597C27.8058 18.8444 27.3475 19.2558 27.0783 19.8242L28.8857 20.6804ZM29.3166 20.3108C29.9804 19.9249 30.7015 19.6295 31.4836 19.4262L30.9804 17.4905C30.0291 17.7378 29.1383 18.1011 28.3114 18.5818L29.3166 20.3108ZM31.479 19.4273C32.2833 19.2223 33.093 19.1203 33.91 19.1203V17.1203C32.9244 17.1203 31.9487 17.2437 30.985 17.4893L31.479 19.4273ZM33.91 19.1203C35.1306 19.1203 36.1168 19.3055 36.8981 19.6384L37.6819 17.7983C36.5912 17.3338 35.324 17.1203 33.91 17.1203V19.1203ZM36.8981 19.6384C37.6807 19.9717 38.2379 20.4285 38.6189 20.9935L40.2771 19.8752C39.6528 18.9495 38.7713 18.2623 37.6819 17.7983L36.8981 19.6384ZM38.6251 21.0025C38.9933 21.5358 39.202 22.2128 39.202 23.0863H41.202C41.202 21.8799 40.908 20.7889 40.2709 19.8661L38.6251 21.0025ZM39.202 23.0863C39.202 23.6634 39.0903 24.1662 38.8812 24.6105L40.6908 25.4621C41.0364 24.7278 41.202 23.9306 41.202 23.0863H39.202ZM38.8812 24.6105C38.6666 25.0665 38.368 25.4516 37.9784 25.7739L39.2536 27.3147C39.8694 26.8051 40.3507 26.1848 40.6908 25.4621L38.8812 24.6105ZM37.9813 25.7716C37.6296 26.0605 37.1738 26.2872 36.585 26.4308L37.059 28.3738C37.8915 28.1708 38.6318 27.8255 39.2507 27.3171L37.9813 25.7716ZM37.822 27.4023V27.0643H35.822V27.4023H37.822ZM36.6553 28.0503C37.6948 28.226 38.4303 28.6399 38.9465 29.2464L40.4695 27.9502C39.599 26.9274 38.4105 26.3186 36.9887 26.0783L36.6553 28.0503ZM38.9465 29.2464C39.463 29.8534 39.748 30.6353 39.748 31.6663H41.748C41.748 30.236 41.3397 28.9726 40.4695 27.9502L38.9465 29.2464ZM39.748 31.6663C39.748 32.5802 39.519 33.3325 39.0894 33.9635L40.7426 35.0891C41.4223 34.0908 41.748 32.9365 41.748 31.6663H39.748ZM39.0951 33.9553C38.6658 34.5723 38.0321 35.0773 37.1394 35.4493L37.9086 37.2954C39.0959 36.8007 40.0568 36.075 40.7369 35.0974L39.0951 33.9553ZM37.1339 35.4516C36.2639 35.8202 35.1813 36.0223 33.858 36.0223V38.0223C35.3774 38.0223 36.7388 37.7911 37.9142 37.2931L37.1339 35.4516Z" fill="#4F5E7F" mask="url(#path-9-outside-1_26645_234140)"/>
<defs>
<radialGradient id="paint0_radial_26645_234140" cx="0" cy="0" r="1" gradientUnits="userSpaceOnUse" gradientTransform="translate(27.4975 27.6648) scale(23.0273 23.0272)">
<stop stop-color="#C4D8E6"/>
<stop offset="1" stop-color="#B7CEDE"/>
</radialGradient>
</defs>
</svg>
