<svg width="55" height="56" viewBox="0 0 55 56" fill="none" xmlns="http://www.w3.org/2000/svg">
<path d="M55 28.1047C55 29.2792 54.9268 30.4361 54.7839 31.5724C54.4532 34.1635 53.7572 36.644 52.751 38.9549C52.751 38.9549 52.751 38.9585 52.7473 38.9617C48.5282 48.6755 38.8094 55.4725 27.4998 55.4725C14.6968 55.4725 3.94393 46.7668 0.877028 34.9813V34.9777C0.302495 32.7815 0 30.4774 0 28.1047C0 25.6797 0.31659 23.3274 0.915232 21.0898C4.02399 9.37348 14.7486 0.737305 27.4998 0.737305C42.6878 0.73685 55 12.9899 55 28.1047Z" fill="#9FADB7"/>
<path d="M53.5469 26.7823C53.5469 27.1153 53.5415 27.4487 53.5283 27.779C53.4992 28.5564 53.4382 29.3234 53.3431 30.0821C53.0284 32.549 52.3701 34.9076 51.418 37.1079C51.418 37.1079 51.418 37.1107 51.4126 37.1157C47.4172 46.36 38.2124 52.8278 27.501 52.8278C15.3749 52.8278 5.19158 44.5432 2.28571 33.3264V33.3237C1.85447 31.6711 1.58516 29.9524 1.49237 28.1911C1.46826 27.723 1.45508 27.2549 1.45508 26.7819C1.45508 24.4733 1.75394 22.2365 2.32256 20.1054C5.26573 8.95451 15.4244 0.736328 27.5005 0.736328C41.8857 0.736783 53.5469 12.3981 53.5469 26.7823Z" fill="#E7E6E2"/>
<path d="M53.5465 26.7823C53.5465 27.1153 53.541 27.4488 53.5279 27.779C52.5416 25.9385 50.8599 22.9162 48.0068 18.0088C41.6765 7.12222 27.501 5.89307 16.004 9.33844C4.50425 12.7865 1.98685 32.0313 1.98685 32.0313L1.49239 28.1921C1.46828 27.724 1.45508 27.2559 1.45508 26.7828C1.45508 24.4742 1.75396 22.2375 2.32258 20.1063C5.26575 8.95543 15.4245 0.737305 27.5006 0.737305C41.8853 0.73685 53.5465 12.3981 53.5465 26.7823Z" fill="white"/>
<path d="M50.3702 27.6649C50.3702 28.6597 50.3092 29.6396 50.1905 30.6022C49.9157 32.797 49.3366 34.8977 48.4996 36.8551C48.4996 36.8551 48.4996 36.8583 48.4969 36.861C44.9879 45.0887 36.9044 50.8459 27.4976 50.8459C16.8489 50.8459 7.90571 43.472 5.35465 33.4893V33.4866C4.87701 31.6261 4.625 29.6751 4.625 27.6649C4.625 25.611 4.88839 23.6186 5.3865 21.723C7.97212 11.799 16.8922 4.48389 27.4976 4.48389C40.1296 4.48389 50.3702 14.8623 50.3702 27.6649Z" fill="url(#paint0_radial_26645_234157)"/>
<path d="M49.8029 26.7818C49.8029 27.7389 49.7437 28.6814 49.6277 29.6071C49.3598 31.7183 48.7953 33.7394 47.9792 35.6222C47.9792 35.6222 47.9792 35.6249 47.9765 35.6277C44.5552 43.5424 36.6742 49.0808 27.503 49.0808C17.1209 49.0808 8.4015 41.9871 5.91459 32.3843V32.3815C5.44878 30.592 5.20312 28.7147 5.20312 26.7814C5.20312 24.8053 5.46015 22.8888 5.94552 21.0651C8.4661 11.5187 17.1632 4.48145 27.5025 4.48145C39.8188 4.48236 49.8029 14.4664 49.8029 26.7818Z" fill="#586686"/>
<path d="M48.3903 26.7828C48.3903 27.6794 48.3348 28.5623 48.226 29.4298C47.9749 31.4077 47.4459 33.301 46.6821 35.0646C46.6821 35.0646 46.6821 35.0674 46.6794 35.0701C43.4747 42.4844 36.0922 47.6725 27.5006 47.6725C17.7749 47.6725 9.60725 41.0274 7.27773 32.0318V32.0291C6.84149 30.3528 6.61133 28.5942 6.61133 26.7828C6.61133 24.9318 6.85196 23.1364 7.30686 21.4282C9.66822 12.4855 17.8149 5.89355 27.5006 5.89355C39.0376 5.89355 48.3903 15.2462 48.3903 26.7828Z" fill="#A9C1D3"/>
<path d="M48.392 26.7824C48.392 27.679 48.3365 28.5619 48.2278 29.4294C45.6126 15.0106 36.5406 9.97305 22.7427 11.1817C15.413 11.824 10.4155 16.7979 7.30859 21.4282C9.66995 12.4855 17.8167 5.89355 27.5023 5.89355C39.0394 5.8931 48.392 15.2458 48.392 26.7824Z" fill="#C4D8E6"/>
<path opacity="0.43" d="M46.679 35.0705C43.4743 42.4848 36.0918 47.6729 27.5002 47.6729C17.7745 47.6729 9.60686 41.0278 7.27734 32.0322C10.2414 36.4056 17.1695 44.5369 27.5002 44.1479C41.3827 43.6271 46.5202 35.3293 46.679 35.0705Z" fill="#C4D8E6"/>
<mask id="path-9-outside-1_26645_234157" maskUnits="userSpaceOnUse" x="13" y="16.7363" width="30" height="22" fill="black">
<rect fill="white" x="13" y="16.7363" width="30" height="22"/>
<path d="M15.9922 36.7363C15.4375 36.7363 15.0128 36.589 14.7182 36.2943C14.4235 35.9997 14.2762 35.5923 14.2762 35.0723C14.2762 34.535 14.4235 34.1277 14.7182 33.8503C15.0128 33.573 15.4375 33.4343 15.9922 33.4343H18.6182V21.7083H20.5162L16.7202 24.0223C16.3215 24.265 15.9488 24.3603 15.6022 24.3083C15.2728 24.2563 14.9868 24.109 14.7442 23.8663C14.5015 23.6237 14.3368 23.3377 14.2502 23.0083C14.1808 22.6617 14.2155 22.3237 14.3542 21.9943C14.4928 21.6477 14.7528 21.353 15.1342 21.1103L18.7482 18.9263C19.1122 18.701 19.4762 18.519 19.8402 18.3803C20.2215 18.2417 20.5942 18.1723 20.9582 18.1723C21.4782 18.1723 21.8855 18.311 22.1802 18.5883C22.4922 18.8483 22.6482 19.2557 22.6482 19.8103V33.4343H25.0142C25.5515 33.4343 25.9675 33.573 26.2622 33.8503C26.5568 34.1277 26.7042 34.535 26.7042 35.0723C26.7042 35.6097 26.5568 36.0257 26.2622 36.3203C25.9675 36.5977 25.5515 36.7363 25.0142 36.7363H15.9922ZM37.16 36.9703C36.536 36.9703 36.042 36.797 35.678 36.4503C35.3313 36.1037 35.158 35.601 35.158 34.9423V33.4603H29.334C28.6927 33.4603 28.1813 33.3217 27.8 33.0443C27.4187 32.7497 27.228 32.3077 27.228 31.7183C27.228 31.3717 27.306 31.0163 27.462 30.6523C27.618 30.2883 27.8953 29.8377 28.294 29.3003L35.028 19.4983C35.3227 19.065 35.652 18.7357 36.016 18.5103C36.38 18.285 36.796 18.1723 37.264 18.1723C37.8187 18.1723 38.2607 18.3457 38.59 18.6923C38.9367 19.0217 39.11 19.5243 39.11 20.2003V30.2883H40.072C40.644 30.2883 41.0773 30.427 41.372 30.7043C41.6667 30.9643 41.814 31.3543 41.814 31.8743C41.814 32.377 41.6667 32.767 41.372 33.0443C41.0947 33.3217 40.6613 33.4603 40.072 33.4603H39.11V34.9423C39.11 35.601 38.9367 36.1037 38.59 36.4503C38.2607 36.797 37.784 36.9703 37.16 36.9703ZM35.158 30.2883V23.1383H35.912L30.374 31.2763V30.2883H35.158Z"/>
</mask>
<path d="M15.9922 36.7363C15.4375 36.7363 15.0128 36.589 14.7182 36.2943C14.4235 35.9997 14.2762 35.5923 14.2762 35.0723C14.2762 34.535 14.4235 34.1277 14.7182 33.8503C15.0128 33.573 15.4375 33.4343 15.9922 33.4343H18.6182V21.7083H20.5162L16.7202 24.0223C16.3215 24.265 15.9488 24.3603 15.6022 24.3083C15.2728 24.2563 14.9868 24.109 14.7442 23.8663C14.5015 23.6237 14.3368 23.3377 14.2502 23.0083C14.1808 22.6617 14.2155 22.3237 14.3542 21.9943C14.4928 21.6477 14.7528 21.353 15.1342 21.1103L18.7482 18.9263C19.1122 18.701 19.4762 18.519 19.8402 18.3803C20.2215 18.2417 20.5942 18.1723 20.9582 18.1723C21.4782 18.1723 21.8855 18.311 22.1802 18.5883C22.4922 18.8483 22.6482 19.2557 22.6482 19.8103V33.4343H25.0142C25.5515 33.4343 25.9675 33.573 26.2622 33.8503C26.5568 34.1277 26.7042 34.535 26.7042 35.0723C26.7042 35.6097 26.5568 36.0257 26.2622 36.3203C25.9675 36.5977 25.5515 36.7363 25.0142 36.7363H15.9922ZM37.16 36.9703C36.536 36.9703 36.042 36.797 35.678 36.4503C35.3313 36.1037 35.158 35.601 35.158 34.9423V33.4603H29.334C28.6927 33.4603 28.1813 33.3217 27.8 33.0443C27.4187 32.7497 27.228 32.3077 27.228 31.7183C27.228 31.3717 27.306 31.0163 27.462 30.6523C27.618 30.2883 27.8953 29.8377 28.294 29.3003L35.028 19.4983C35.3227 19.065 35.652 18.7357 36.016 18.5103C36.38 18.285 36.796 18.1723 37.264 18.1723C37.8187 18.1723 38.2607 18.3457 38.59 18.6923C38.9367 19.0217 39.11 19.5243 39.11 20.2003V30.2883H40.072C40.644 30.2883 41.0773 30.427 41.372 30.7043C41.6667 30.9643 41.814 31.3543 41.814 31.8743C41.814 32.377 41.6667 32.767 41.372 33.0443C41.0947 33.3217 40.6613 33.4603 40.072 33.4603H39.11V34.9423C39.11 35.601 38.9367 36.1037 38.59 36.4503C38.2607 36.797 37.784 36.9703 37.16 36.9703ZM35.158 30.2883V23.1383H35.912L30.374 31.2763V30.2883H35.158Z" fill="white"/>
<path d="M14.7182 33.8503L14.0328 33.1221H14.0328L14.7182 33.8503ZM18.6182 33.4343V34.4343H19.6182V33.4343H18.6182ZM18.6182 21.7083V20.7083H17.6182V21.7083H18.6182ZM20.5162 21.7083L21.0367 22.5622L24.0778 20.7083H20.5162V21.7083ZM16.7202 24.0223L17.2401 24.8765L17.2407 24.8762L16.7202 24.0223ZM15.6022 24.3083L15.4462 25.2961L15.4538 25.2973L15.6022 24.3083ZM14.7442 23.8663L15.4513 23.1592L15.4513 23.1592L14.7442 23.8663ZM14.2502 23.0083L13.2696 23.2044L13.2755 23.2338L13.2831 23.2628L14.2502 23.0083ZM14.3542 21.9943L15.2758 22.3824L15.2793 22.3741L15.2826 22.3657L14.3542 21.9943ZM15.1342 21.1103L14.6169 20.2545L14.607 20.2605L14.5973 20.2667L15.1342 21.1103ZM18.7482 18.9263L19.2654 19.7822L19.2745 19.7766L18.7482 18.9263ZM19.8402 18.3803L19.4984 17.4405L19.4913 17.4431L19.4842 17.4458L19.8402 18.3803ZM22.1802 18.5883L21.4948 19.3165L21.5168 19.3372L21.54 19.3565L22.1802 18.5883ZM22.6482 33.4343H21.6482V34.4343H22.6482V33.4343ZM26.2622 33.8503L26.9475 33.1221L26.9475 33.1221L26.2622 33.8503ZM26.2622 36.3203L26.9475 37.0485L26.9586 37.0381L26.9693 37.0274L26.2622 36.3203ZM15.9922 35.7363C15.6119 35.7363 15.4767 35.6387 15.4253 35.5872L14.011 37.0014C14.5489 37.5393 15.263 37.7363 15.9922 37.7363V35.7363ZM15.4253 35.5872C15.3621 35.5241 15.2762 35.3966 15.2762 35.0723H13.2762C13.2762 35.7881 13.4849 36.4752 14.011 37.0014L15.4253 35.5872ZM15.2762 35.0723C15.2762 34.7163 15.3694 34.6107 15.4035 34.5785L14.0328 33.1221C13.4776 33.6447 13.2762 34.3537 13.2762 35.0723H15.2762ZM15.4035 34.5785C15.4531 34.5319 15.5965 34.4343 15.9922 34.4343V32.4343C15.2785 32.4343 14.5726 32.6141 14.0328 33.1221L15.4035 34.5785ZM15.9922 34.4343H18.6182V32.4343H15.9922V34.4343ZM19.6182 33.4343V21.7083H17.6182V33.4343H19.6182ZM18.6182 22.7083H20.5162V20.7083H18.6182V22.7083ZM19.9957 20.8545L16.1997 23.1685L17.2407 24.8762L21.0367 22.5622L19.9957 20.8545ZM16.2002 23.1681C15.9349 23.3296 15.7984 23.3266 15.7505 23.3194L15.4538 25.2973C16.0992 25.3941 16.7081 25.2003 17.2401 24.8765L16.2002 23.1681ZM15.7581 23.3206C15.644 23.3025 15.5492 23.2571 15.4513 23.1592L14.037 24.5734C14.4245 24.9609 14.9016 25.2101 15.4462 25.2961L15.7581 23.3206ZM15.4513 23.1592C15.3328 23.0407 15.2585 22.9106 15.2172 22.7538L13.2831 23.2628C13.4152 23.7648 13.6702 24.2066 14.0371 24.5734L15.4513 23.1592ZM15.2307 22.8122C15.2011 22.664 15.2139 22.5294 15.2758 22.3824L13.4325 21.6063C13.2171 22.1179 13.1605 22.6593 13.2696 23.2044L15.2307 22.8122ZM15.2826 22.3657C15.3283 22.2516 15.4285 22.1083 15.671 21.954L14.5973 20.2667C14.0772 20.5977 13.6574 21.0437 13.4257 21.6229L15.2826 22.3657ZM15.6514 21.9662L19.2654 19.7822L18.2309 18.0705L14.6169 20.2545L15.6514 21.9662ZM19.2745 19.7766C19.5898 19.5814 19.897 19.4288 20.1962 19.3148L19.4842 17.4458C19.0553 17.6092 18.6345 17.8206 18.2218 18.0761L19.2745 19.7766ZM20.1819 19.3201C20.4662 19.2167 20.7233 19.1723 20.9582 19.1723V17.1723C20.465 17.1723 19.9768 17.2666 19.4984 17.4405L20.1819 19.3201ZM20.9582 19.1723C21.2987 19.1723 21.434 19.2593 21.4948 19.3165L22.8655 17.8601C22.337 17.3627 21.6576 17.1723 20.9582 17.1723V19.1723ZM21.54 19.3565C21.5486 19.3637 21.6482 19.4379 21.6482 19.8103H23.6482C23.6482 19.0734 23.4357 18.3329 22.8203 17.8201L21.54 19.3565ZM21.6482 19.8103V33.4343H23.6482V19.8103H21.6482ZM22.6482 34.4343H25.0142V32.4343H22.6482V34.4343ZM25.0142 34.4343C25.3824 34.4343 25.5218 34.5268 25.5768 34.5785L26.9475 33.1221C26.4132 32.6192 25.7206 32.4343 25.0142 32.4343V34.4343ZM25.5768 34.5785C25.6109 34.6107 25.7042 34.7163 25.7042 35.0723H27.7042C27.7042 34.3537 27.5027 33.6447 26.9475 33.1221L25.5768 34.5785ZM25.7042 35.0723C25.7042 35.4247 25.6122 35.5561 25.555 35.6132L26.9693 37.0274C27.5015 36.4952 27.7042 35.7946 27.7042 35.0723H25.7042ZM25.5768 35.5921C25.5218 35.6439 25.3824 35.7363 25.0142 35.7363V37.7363C25.7206 37.7363 26.4132 37.5514 26.9475 37.0485L25.5768 35.5921ZM25.0142 35.7363H15.9922V37.7363H25.0142V35.7363ZM35.678 36.4503L34.9709 37.1574L34.9795 37.1661L34.9883 37.1745L35.678 36.4503ZM35.158 33.4603H36.158V32.4603H35.158V33.4603ZM27.8 33.0443L27.1886 33.8356L27.2001 33.8445L27.2118 33.8531L27.8 33.0443ZM27.462 30.6523L28.3811 31.0462L27.462 30.6523ZM28.294 29.3003L29.0971 29.8962L29.1079 29.8816L29.1182 29.8666L28.294 29.3003ZM35.028 19.4983L35.8522 20.0646L35.8549 20.0606L35.028 19.4983ZM38.59 18.6923L37.865 19.3811L37.8827 19.3997L37.9013 19.4173L38.59 18.6923ZM39.11 30.2883H38.11V31.2883H39.11V30.2883ZM41.372 30.7043L40.6866 31.4325L40.6983 31.4435L40.7104 31.4542L41.372 30.7043ZM41.372 33.0443L40.6866 32.3161L40.6756 32.3265L40.6649 32.3372L41.372 33.0443ZM39.11 33.4603V32.4603H38.11V33.4603H39.11ZM38.59 36.4503L37.8829 35.7432L37.8738 35.7523L37.865 35.7616L38.59 36.4503ZM35.158 30.2883V31.2883H36.158V30.2883H35.158ZM35.158 23.1383V22.1383H34.158V23.1383H35.158ZM35.912 23.1383L36.7387 23.7009L37.8021 22.1383H35.912V23.1383ZM30.374 31.2763H29.374V34.5233L31.2007 31.8389L30.374 31.2763ZM30.374 30.2883V29.2883H29.374V30.2883H30.374ZM37.16 35.9703C36.7276 35.9703 36.5034 35.8554 36.3677 35.7262L34.9883 37.1745C35.5806 37.7385 36.3444 37.9703 37.16 37.9703V35.9703ZM36.3851 35.7432C36.2833 35.6414 36.158 35.4296 36.158 34.9423H34.158C34.158 35.7723 34.3794 36.5659 34.9709 37.1574L36.3851 35.7432ZM36.158 34.9423V33.4603H34.158V34.9423H36.158ZM35.158 32.4603H29.334V34.4603H35.158V32.4603ZM29.334 32.4603C28.8292 32.4603 28.5467 32.3509 28.3882 32.2356L27.2118 33.8531C27.816 34.2925 28.5561 34.4603 29.334 34.4603V32.4603ZM28.4114 32.253C28.3301 32.1902 28.228 32.0747 28.228 31.7183H26.228C26.228 32.5406 26.5073 33.3092 27.1886 33.8356L28.4114 32.253ZM28.228 31.7183C28.228 31.525 28.2709 31.3034 28.3811 31.0462L26.5429 30.2584C26.3411 30.7293 26.228 31.2183 26.228 31.7183H28.228ZM28.3811 31.0462C28.4926 30.7862 28.7177 30.4075 29.0971 29.8962L27.4909 28.7045C27.0729 29.2678 26.7434 29.7905 26.5429 30.2584L28.3811 31.0462ZM29.1182 29.8666L35.8522 20.0646L34.2038 18.9321L27.4698 28.7341L29.1182 29.8666ZM35.8549 20.0606C36.088 19.7179 36.3212 19.4975 36.5424 19.3606L35.4896 17.6601C34.9828 17.9738 34.5574 18.4121 34.2011 18.936L35.8549 20.0606ZM36.5424 19.3606C36.7336 19.2422 36.964 19.1723 37.264 19.1723V17.1723C36.628 17.1723 36.0264 17.3278 35.4896 17.6601L36.5424 19.3606ZM37.264 19.1723C37.5924 19.1723 37.7551 19.2653 37.865 19.3811L39.315 18.0036C38.7663 17.426 38.045 17.1723 37.264 17.1723V19.1723ZM37.9013 19.4173C37.9786 19.4908 38.11 19.6828 38.11 20.2003H40.11C40.11 19.3658 39.8947 18.5525 39.2788 17.9673L37.9013 19.4173ZM38.11 20.2003V30.2883H40.11V20.2003H38.11ZM39.11 31.2883H40.072V29.2883H39.11V31.2883ZM40.072 31.2883C40.4948 31.2883 40.6422 31.3907 40.6866 31.4325L42.0574 29.9761C41.5124 29.4633 40.7932 29.2883 40.072 29.2883V31.2883ZM40.7104 31.4542C40.7259 31.4679 40.814 31.5432 40.814 31.8743H42.814C42.814 31.1654 42.6074 30.4608 42.0336 29.9545L40.7104 31.4542ZM40.814 31.8743C40.814 32.1726 40.7339 32.2717 40.6866 32.3161L42.0574 33.7725C42.5995 33.2623 42.814 32.5813 42.814 31.8743H40.814ZM40.6649 32.3372C40.6512 32.3509 40.5278 32.4603 40.072 32.4603V34.4603C40.7949 34.4603 41.5381 34.2924 42.0791 33.7514L40.6649 32.3372ZM40.072 32.4603H39.11V34.4603H40.072V32.4603ZM38.11 33.4603V34.9423H40.11V33.4603H38.11ZM38.11 34.9423C38.11 35.4296 37.9847 35.6414 37.8829 35.7432L39.2971 37.1574C39.8886 36.5659 40.11 35.7723 40.11 34.9423H38.11ZM37.865 35.7616C37.7774 35.8538 37.5976 35.9703 37.16 35.9703V37.9703C37.9704 37.9703 38.7439 37.7402 39.315 37.1391L37.865 35.7616ZM36.158 30.2883V23.1383H34.158V30.2883H36.158ZM35.158 24.1383H35.912V22.1383H35.158V24.1383ZM35.0853 22.5757L29.5473 30.7137L31.2007 31.8389L36.7387 23.7009L35.0853 22.5757ZM31.374 31.2763V30.2883H29.374V31.2763H31.374ZM30.374 31.2883H35.158V29.2883H30.374V31.2883Z" fill="#4F5E7F" mask="url(#path-9-outside-1_26645_234157)"/>
<defs>
<radialGradient id="paint0_radial_26645_234157" cx="0" cy="0" r="1" gradientUnits="userSpaceOnUse" gradientTransform="translate(27.4975 27.6648) scale(23.0273 23.0272)">
<stop stop-color="#C4D8E6"/>
<stop offset="1" stop-color="#B7CEDE"/>
</radialGradient>
</defs>
</svg>
