<svg width="55" height="56" viewBox="0 0 55 56" fill="none" xmlns="http://www.w3.org/2000/svg">
<path d="M55 28.1047C55 29.2792 54.9268 30.4361 54.7839 31.5724C54.4532 34.1635 53.7572 36.644 52.751 38.9549C52.751 38.9549 52.751 38.9585 52.7473 38.9617C48.5282 48.6755 38.8094 55.4725 27.4998 55.4725C14.6968 55.4725 3.94393 46.7668 0.877028 34.9813V34.9777C0.302495 32.7815 0 30.4774 0 28.1047C0 25.6797 0.31659 23.3274 0.915232 21.0898C4.02399 9.37348 14.7486 0.737305 27.4998 0.737305C42.6878 0.73685 55 12.9899 55 28.1047Z" fill="#9FADB7"/>
<path d="M53.5469 26.7823C53.5469 27.1153 53.5415 27.4487 53.5283 27.779C53.4992 28.5564 53.4382 29.3234 53.3431 30.0821C53.0284 32.549 52.3701 34.9076 51.418 37.1079C51.418 37.1079 51.418 37.1107 51.4126 37.1157C47.4172 46.36 38.2124 52.8278 27.501 52.8278C15.3749 52.8278 5.19158 44.5432 2.28571 33.3264V33.3237C1.85447 31.6711 1.58516 29.9524 1.49237 28.1911C1.46826 27.723 1.45508 27.2549 1.45508 26.7819C1.45508 24.4733 1.75394 22.2365 2.32256 20.1054C5.26573 8.95451 15.4244 0.736328 27.5005 0.736328C41.8857 0.736783 53.5469 12.3981 53.5469 26.7823Z" fill="#E7E6E2"/>
<path d="M53.5465 26.7823C53.5465 27.1153 53.541 27.4488 53.5279 27.779C52.5416 25.9385 50.8599 22.9162 48.0068 18.0088C41.6765 7.12222 27.501 5.89307 16.004 9.33844C4.50425 12.7865 1.98685 32.0313 1.98685 32.0313L1.49239 28.1921C1.46828 27.724 1.45508 27.2559 1.45508 26.7828C1.45508 24.4742 1.75396 22.2375 2.32258 20.1063C5.26575 8.95543 15.4245 0.737305 27.5006 0.737305C41.8853 0.73685 53.5465 12.3981 53.5465 26.7823Z" fill="white"/>
<path d="M50.3702 27.6649C50.3702 28.6597 50.3092 29.6396 50.1905 30.6022C49.9157 32.797 49.3366 34.8977 48.4996 36.8551C48.4996 36.8551 48.4996 36.8583 48.4969 36.861C44.9879 45.0887 36.9044 50.8459 27.4976 50.8459C16.8489 50.8459 7.90571 43.472 5.35465 33.4893V33.4866C4.87701 31.6261 4.625 29.6751 4.625 27.6649C4.625 25.611 4.88839 23.6186 5.3865 21.723C7.97212 11.799 16.8922 4.48389 27.4976 4.48389C40.1296 4.48389 50.3702 14.8623 50.3702 27.6649Z" fill="url(#paint0_radial_26645_234174)"/>
<path d="M49.8029 26.7818C49.8029 27.7389 49.7437 28.6814 49.6277 29.6071C49.3598 31.7183 48.7953 33.7394 47.9792 35.6222C47.9792 35.6222 47.9792 35.6249 47.9765 35.6277C44.5552 43.5424 36.6742 49.0808 27.503 49.0808C17.1209 49.0808 8.4015 41.9871 5.91459 32.3843V32.3815C5.44878 30.592 5.20312 28.7147 5.20312 26.7814C5.20312 24.8053 5.46015 22.8888 5.94552 21.0651C8.4661 11.5187 17.1632 4.48145 27.5025 4.48145C39.8188 4.48236 49.8029 14.4664 49.8029 26.7818Z" fill="#586686"/>
<path d="M48.3903 26.7828C48.3903 27.6794 48.3348 28.5623 48.226 29.4298C47.9749 31.4077 47.4459 33.301 46.6821 35.0646C46.6821 35.0646 46.6821 35.0674 46.6794 35.0701C43.4747 42.4844 36.0922 47.6725 27.5006 47.6725C17.7749 47.6725 9.60725 41.0274 7.27773 32.0318V32.0291C6.84149 30.3528 6.61133 28.5942 6.61133 26.7828C6.61133 24.9318 6.85196 23.1364 7.30686 21.4282C9.66822 12.4855 17.8149 5.89355 27.5006 5.89355C39.0376 5.89355 48.3903 15.2462 48.3903 26.7828Z" fill="#A9C1D3"/>
<path d="M48.392 26.7824C48.392 27.679 48.3365 28.5619 48.2278 29.4294C45.6126 15.0106 36.5406 9.97305 22.7427 11.1817C15.413 11.824 10.4155 16.7979 7.30859 21.4282C9.66995 12.4855 17.8167 5.89355 27.5023 5.89355C39.0394 5.8931 48.392 15.2458 48.392 26.7824Z" fill="#C4D8E6"/>
<path opacity="0.43" d="M46.679 35.0705C43.4743 42.4848 36.0918 47.6729 27.5002 47.6729C17.7745 47.6729 9.60686 41.0278 7.27734 32.0322C10.2414 36.4056 17.1695 44.5369 27.5002 44.1479C41.3827 43.6271 46.5202 35.3293 46.679 35.0705Z" fill="#C4D8E6"/>
<mask id="path-9-outside-1_26645_234174" maskUnits="userSpaceOnUse" x="13" y="16.7363" width="30" height="22" fill="black">
<rect fill="white" x="13" y="16.7363" width="30" height="22"/>
<path d="M15.9922 36.7363C15.4375 36.7363 15.0128 36.589 14.7182 36.2943C14.4235 35.9997 14.2762 35.5923 14.2762 35.0723C14.2762 34.535 14.4235 34.1277 14.7182 33.8503C15.0128 33.573 15.4375 33.4343 15.9922 33.4343H18.6182V21.7083H20.5162L16.7202 24.0223C16.3215 24.265 15.9488 24.3603 15.6022 24.3083C15.2728 24.2563 14.9868 24.109 14.7442 23.8663C14.5015 23.6237 14.3368 23.3377 14.2502 23.0083C14.1808 22.6617 14.2155 22.3237 14.3542 21.9943C14.4928 21.6477 14.7528 21.353 15.1342 21.1103L18.7482 18.9263C19.1122 18.701 19.4762 18.519 19.8402 18.3803C20.2215 18.2417 20.5942 18.1723 20.9582 18.1723C21.4782 18.1723 21.8855 18.311 22.1802 18.5883C22.4922 18.8483 22.6482 19.2557 22.6482 19.8103V33.4343H25.0142C25.5515 33.4343 25.9675 33.573 26.2622 33.8503C26.5568 34.1277 26.7042 34.535 26.7042 35.0723C26.7042 35.6097 26.5568 36.0257 26.2622 36.3203C25.9675 36.5977 25.5515 36.7363 25.0142 36.7363H15.9922ZM34.326 37.0223C33.442 37.0223 32.532 36.9097 31.596 36.6843C30.66 36.459 29.802 36.121 29.022 35.6703C28.6233 35.445 28.346 35.1677 28.19 34.8383C28.0513 34.509 28.008 34.171 28.06 33.8243C28.1293 33.4777 28.268 33.183 28.476 32.9403C28.7013 32.6803 28.9787 32.5157 29.308 32.4463C29.6547 32.377 30.036 32.455 30.452 32.6803C31.0587 32.9923 31.674 33.235 32.298 33.4083C32.9393 33.5817 33.5893 33.6683 34.248 33.6683C34.9067 33.6683 35.47 33.5557 35.938 33.3303C36.406 33.105 36.7613 32.793 37.004 32.3943C37.2467 31.9957 37.368 31.5277 37.368 30.9903C37.368 30.1583 37.0993 29.491 36.562 28.9883C36.042 28.4857 35.3313 28.2343 34.43 28.2343C33.9793 28.2343 33.52 28.3123 33.052 28.4683C32.6013 28.607 32.1333 28.8583 31.648 29.2223C31.4747 29.361 31.2493 29.491 30.972 29.6123C30.6947 29.7337 30.4 29.7943 30.088 29.7943C29.5507 29.7943 29.152 29.673 28.892 29.4303C28.632 29.1703 28.502 28.7977 28.502 28.3123V20.1483C28.502 19.5763 28.6493 19.143 28.944 18.8483C29.256 18.5537 29.6893 18.4063 30.244 18.4063H38.59C39.162 18.4063 39.5953 18.5537 39.89 18.8483C40.1847 19.1257 40.332 19.533 40.332 20.0703C40.332 20.5903 40.1847 20.9977 39.89 21.2923C39.5953 21.5697 39.162 21.7083 38.59 21.7083H32.376V26.6743H31.388C31.8213 26.137 32.3933 25.721 33.104 25.4263C33.8147 25.1317 34.5947 24.9843 35.444 24.9843C36.6053 24.9843 37.6193 25.2357 38.486 25.7383C39.3527 26.2237 40.0287 26.9083 40.514 27.7923C40.9993 28.6763 41.242 29.699 41.242 30.8603C41.242 32.0737 40.9647 33.1483 40.41 34.0843C39.8553 35.003 39.058 35.7223 38.018 36.2423C36.978 36.7623 35.7473 37.0223 34.326 37.0223Z"/>
</mask>
<path d="M15.9922 36.7363C15.4375 36.7363 15.0128 36.589 14.7182 36.2943C14.4235 35.9997 14.2762 35.5923 14.2762 35.0723C14.2762 34.535 14.4235 34.1277 14.7182 33.8503C15.0128 33.573 15.4375 33.4343 15.9922 33.4343H18.6182V21.7083H20.5162L16.7202 24.0223C16.3215 24.265 15.9488 24.3603 15.6022 24.3083C15.2728 24.2563 14.9868 24.109 14.7442 23.8663C14.5015 23.6237 14.3368 23.3377 14.2502 23.0083C14.1808 22.6617 14.2155 22.3237 14.3542 21.9943C14.4928 21.6477 14.7528 21.353 15.1342 21.1103L18.7482 18.9263C19.1122 18.701 19.4762 18.519 19.8402 18.3803C20.2215 18.2417 20.5942 18.1723 20.9582 18.1723C21.4782 18.1723 21.8855 18.311 22.1802 18.5883C22.4922 18.8483 22.6482 19.2557 22.6482 19.8103V33.4343H25.0142C25.5515 33.4343 25.9675 33.573 26.2622 33.8503C26.5568 34.1277 26.7042 34.535 26.7042 35.0723C26.7042 35.6097 26.5568 36.0257 26.2622 36.3203C25.9675 36.5977 25.5515 36.7363 25.0142 36.7363H15.9922ZM34.326 37.0223C33.442 37.0223 32.532 36.9097 31.596 36.6843C30.66 36.459 29.802 36.121 29.022 35.6703C28.6233 35.445 28.346 35.1677 28.19 34.8383C28.0513 34.509 28.008 34.171 28.06 33.8243C28.1293 33.4777 28.268 33.183 28.476 32.9403C28.7013 32.6803 28.9787 32.5157 29.308 32.4463C29.6547 32.377 30.036 32.455 30.452 32.6803C31.0587 32.9923 31.674 33.235 32.298 33.4083C32.9393 33.5817 33.5893 33.6683 34.248 33.6683C34.9067 33.6683 35.47 33.5557 35.938 33.3303C36.406 33.105 36.7613 32.793 37.004 32.3943C37.2467 31.9957 37.368 31.5277 37.368 30.9903C37.368 30.1583 37.0993 29.491 36.562 28.9883C36.042 28.4857 35.3313 28.2343 34.43 28.2343C33.9793 28.2343 33.52 28.3123 33.052 28.4683C32.6013 28.607 32.1333 28.8583 31.648 29.2223C31.4747 29.361 31.2493 29.491 30.972 29.6123C30.6947 29.7337 30.4 29.7943 30.088 29.7943C29.5507 29.7943 29.152 29.673 28.892 29.4303C28.632 29.1703 28.502 28.7977 28.502 28.3123V20.1483C28.502 19.5763 28.6493 19.143 28.944 18.8483C29.256 18.5537 29.6893 18.4063 30.244 18.4063H38.59C39.162 18.4063 39.5953 18.5537 39.89 18.8483C40.1847 19.1257 40.332 19.533 40.332 20.0703C40.332 20.5903 40.1847 20.9977 39.89 21.2923C39.5953 21.5697 39.162 21.7083 38.59 21.7083H32.376V26.6743H31.388C31.8213 26.137 32.3933 25.721 33.104 25.4263C33.8147 25.1317 34.5947 24.9843 35.444 24.9843C36.6053 24.9843 37.6193 25.2357 38.486 25.7383C39.3527 26.2237 40.0287 26.9083 40.514 27.7923C40.9993 28.6763 41.242 29.699 41.242 30.8603C41.242 32.0737 40.9647 33.1483 40.41 34.0843C39.8553 35.003 39.058 35.7223 38.018 36.2423C36.978 36.7623 35.7473 37.0223 34.326 37.0223Z" fill="white"/>
<path d="M14.7182 33.8503L14.0328 33.1221H14.0328L14.7182 33.8503ZM18.6182 33.4343V34.4343H19.6182V33.4343H18.6182ZM18.6182 21.7083V20.7083H17.6182V21.7083H18.6182ZM20.5162 21.7083L21.0367 22.5622L24.0778 20.7083H20.5162V21.7083ZM16.7202 24.0223L17.2401 24.8765L17.2407 24.8762L16.7202 24.0223ZM15.6022 24.3083L15.4462 25.2961L15.4538 25.2973L15.6022 24.3083ZM14.7442 23.8663L15.4513 23.1592L15.4513 23.1592L14.7442 23.8663ZM14.2502 23.0083L13.2696 23.2044L13.2755 23.2338L13.2831 23.2628L14.2502 23.0083ZM14.3542 21.9943L15.2758 22.3824L15.2793 22.3741L15.2826 22.3657L14.3542 21.9943ZM15.1342 21.1103L14.6169 20.2545L14.607 20.2605L14.5973 20.2667L15.1342 21.1103ZM18.7482 18.9263L19.2654 19.7822L19.2745 19.7766L18.7482 18.9263ZM19.8402 18.3803L19.4984 17.4405L19.4913 17.4431L19.4842 17.4458L19.8402 18.3803ZM22.1802 18.5883L21.4948 19.3165L21.5168 19.3372L21.54 19.3565L22.1802 18.5883ZM22.6482 33.4343H21.6482V34.4343H22.6482V33.4343ZM26.2622 33.8503L26.9475 33.1221L26.9475 33.1221L26.2622 33.8503ZM26.2622 36.3203L26.9475 37.0485L26.9586 37.0381L26.9693 37.0274L26.2622 36.3203ZM15.9922 35.7363C15.6119 35.7363 15.4767 35.6387 15.4253 35.5872L14.011 37.0014C14.5489 37.5393 15.263 37.7363 15.9922 37.7363V35.7363ZM15.4253 35.5872C15.3621 35.5241 15.2762 35.3966 15.2762 35.0723H13.2762C13.2762 35.7881 13.4849 36.4752 14.011 37.0014L15.4253 35.5872ZM15.2762 35.0723C15.2762 34.7163 15.3694 34.6107 15.4035 34.5785L14.0328 33.1221C13.4776 33.6447 13.2762 34.3537 13.2762 35.0723H15.2762ZM15.4035 34.5785C15.4531 34.5319 15.5965 34.4343 15.9922 34.4343V32.4343C15.2785 32.4343 14.5726 32.6141 14.0328 33.1221L15.4035 34.5785ZM15.9922 34.4343H18.6182V32.4343H15.9922V34.4343ZM19.6182 33.4343V21.7083H17.6182V33.4343H19.6182ZM18.6182 22.7083H20.5162V20.7083H18.6182V22.7083ZM19.9957 20.8545L16.1997 23.1685L17.2407 24.8762L21.0367 22.5622L19.9957 20.8545ZM16.2002 23.1681C15.9349 23.3296 15.7984 23.3266 15.7505 23.3194L15.4538 25.2973C16.0992 25.3941 16.7081 25.2003 17.2401 24.8765L16.2002 23.1681ZM15.7581 23.3206C15.644 23.3025 15.5492 23.2571 15.4513 23.1592L14.037 24.5734C14.4245 24.9609 14.9016 25.2101 15.4462 25.2961L15.7581 23.3206ZM15.4513 23.1592C15.3328 23.0407 15.2585 22.9106 15.2172 22.7538L13.2831 23.2628C13.4152 23.7648 13.6702 24.2066 14.0371 24.5734L15.4513 23.1592ZM15.2307 22.8122C15.2011 22.664 15.2139 22.5294 15.2758 22.3824L13.4325 21.6063C13.2171 22.1179 13.1605 22.6593 13.2696 23.2044L15.2307 22.8122ZM15.2826 22.3657C15.3283 22.2516 15.4285 22.1083 15.671 21.954L14.5973 20.2667C14.0772 20.5977 13.6574 21.0437 13.4257 21.6229L15.2826 22.3657ZM15.6514 21.9662L19.2654 19.7822L18.2309 18.0705L14.6169 20.2545L15.6514 21.9662ZM19.2745 19.7766C19.5898 19.5814 19.897 19.4288 20.1962 19.3148L19.4842 17.4458C19.0553 17.6092 18.6345 17.8206 18.2218 18.0761L19.2745 19.7766ZM20.1819 19.3201C20.4662 19.2167 20.7233 19.1723 20.9582 19.1723V17.1723C20.465 17.1723 19.9768 17.2666 19.4984 17.4405L20.1819 19.3201ZM20.9582 19.1723C21.2987 19.1723 21.434 19.2593 21.4948 19.3165L22.8655 17.8601C22.337 17.3627 21.6576 17.1723 20.9582 17.1723V19.1723ZM21.54 19.3565C21.5486 19.3637 21.6482 19.4379 21.6482 19.8103H23.6482C23.6482 19.0734 23.4357 18.3329 22.8203 17.8201L21.54 19.3565ZM21.6482 19.8103V33.4343H23.6482V19.8103H21.6482ZM22.6482 34.4343H25.0142V32.4343H22.6482V34.4343ZM25.0142 34.4343C25.3824 34.4343 25.5218 34.5268 25.5768 34.5785L26.9475 33.1221C26.4132 32.6192 25.7206 32.4343 25.0142 32.4343V34.4343ZM25.5768 34.5785C25.6109 34.6107 25.7042 34.7163 25.7042 35.0723H27.7042C27.7042 34.3537 27.5027 33.6447 26.9475 33.1221L25.5768 34.5785ZM25.7042 35.0723C25.7042 35.4247 25.6122 35.5561 25.555 35.6132L26.9693 37.0274C27.5015 36.4952 27.7042 35.7946 27.7042 35.0723H25.7042ZM25.5768 35.5921C25.5218 35.6439 25.3824 35.7363 25.0142 35.7363V37.7363C25.7206 37.7363 26.4132 37.5514 26.9475 37.0485L25.5768 35.5921ZM25.0142 35.7363H15.9922V37.7363H25.0142V35.7363ZM31.596 36.6843L31.8301 35.7121L31.596 36.6843ZM29.022 35.6703L29.5223 34.8044L29.5141 34.7998L29.022 35.6703ZM28.19 34.8383L27.2684 35.2264L27.2769 35.2466L27.2863 35.2664L28.19 34.8383ZM28.06 33.8243L27.0794 33.6282L27.0747 33.652L27.0711 33.676L28.06 33.8243ZM28.476 32.9403L27.7203 32.2854L27.7167 32.2895L28.476 32.9403ZM29.308 32.4463L29.1119 31.4657L29.102 31.4678L29.308 32.4463ZM30.452 32.6803L29.9757 33.5596L29.9851 33.5647L29.9947 33.5696L30.452 32.6803ZM32.298 33.4083L32.0303 34.3719L32.0371 34.3737L32.298 33.4083ZM35.938 33.3303L35.5042 32.4293V32.4293L35.938 33.3303ZM36.562 28.9883L35.867 29.7073L35.8729 29.713L35.8788 29.7186L36.562 28.9883ZM33.052 28.4683L33.3461 29.4241L33.3572 29.4207L33.3682 29.417L33.052 28.4683ZM31.648 29.2223L31.048 28.4223L31.0355 28.4317L31.0233 28.4415L31.648 29.2223ZM28.892 29.4303L28.1849 30.1374L28.1971 30.1496L28.2097 30.1614L28.892 29.4303ZM28.944 18.8483L28.2574 18.1213L28.247 18.1311L28.2369 18.1412L28.944 18.8483ZM39.89 18.8483L39.1829 19.5554L39.1936 19.5661L39.2046 19.5765L39.89 18.8483ZM39.89 21.2923L40.5754 22.0205L40.5864 22.0101L40.5971 21.9994L39.89 21.2923ZM32.376 21.7083V20.7083H31.376V21.7083H32.376ZM32.376 26.6743V27.6743H33.376V26.6743H32.376ZM31.388 26.6743L30.6096 26.0466L29.2969 27.6743H31.388V26.6743ZM33.104 25.4263L32.721 24.5026L33.104 25.4263ZM38.486 25.7383L37.9843 26.6034L37.9908 26.6071L37.9974 26.6108L38.486 25.7383ZM40.41 34.0843L41.2661 34.6012L41.2703 34.5941L40.41 34.0843ZM38.018 36.2423L37.5708 35.3479L38.018 36.2423ZM34.326 36.0223C33.5275 36.0223 32.6961 35.9206 31.8301 35.7121L31.3619 37.6566C32.3679 37.8987 33.3565 38.0223 34.326 38.0223V36.0223ZM31.8301 35.7121C30.981 35.5077 30.2136 35.2039 29.5223 34.8045L28.5217 36.5362C29.3904 37.0381 30.339 37.4103 31.3619 37.6566L31.8301 35.7121ZM29.5141 34.7998C29.2486 34.6497 29.1411 34.5102 29.0937 34.4102L27.2863 35.2664C27.5509 35.8251 27.9981 36.2403 28.5299 36.5409L29.5141 34.7998ZM29.1116 34.4503C29.0428 34.2867 29.0247 34.1341 29.0489 33.9727L27.0711 33.676C26.9913 34.2079 27.0599 34.7313 27.2684 35.2264L29.1116 34.4503ZM29.0406 34.0204C29.08 33.8236 29.1503 33.6903 29.2353 33.5911L27.7167 32.2895C27.3857 32.6757 27.1787 33.1318 27.0794 33.6282L29.0406 34.0204ZM29.2317 33.5953C29.3175 33.4963 29.4034 33.4482 29.514 33.4249L29.102 31.4678C28.5539 31.5832 28.0852 31.8644 27.7203 32.2854L29.2317 33.5953ZM29.5041 33.4269C29.5543 33.4169 29.6953 33.4077 29.9757 33.5596L30.9283 31.801C30.3767 31.5022 29.755 31.3371 29.1119 31.4657L29.5041 33.4269ZM29.9947 33.5696C30.6586 33.9111 31.3374 34.1793 32.0304 34.3718L32.5656 32.4448C32.0106 32.2906 31.4587 32.0736 30.9093 31.791L29.9947 33.5696ZM32.0371 34.3737C32.7627 34.5698 33.5005 34.6683 34.248 34.6683V32.6683C33.6782 32.6683 33.1159 32.5935 32.5589 32.443L32.0371 34.3737ZM34.248 34.6683C35.0178 34.6683 35.7372 34.5369 36.3718 34.2313L35.5042 32.4293C35.2028 32.5744 34.7955 32.6683 34.248 32.6683V34.6683ZM36.3718 34.2313C36.9935 33.932 37.504 33.4962 37.8582 32.9143L36.1498 31.8744C36.0187 32.0898 35.8185 32.278 35.5042 32.4293L36.3718 34.2313ZM37.8582 32.9143C38.2099 32.3364 38.368 31.6828 38.368 30.9903H36.368C36.368 31.3725 36.2834 31.6549 36.1498 31.8744L37.8582 32.9143ZM38.368 30.9903C38.368 29.9214 38.012 28.9754 37.2452 28.2581L35.8788 29.7186C36.1867 30.0066 36.368 30.3952 36.368 30.9903H38.368ZM37.257 28.2693C36.5073 27.5446 35.5235 27.2343 34.43 27.2343V29.2343C35.1392 29.2343 35.5767 29.4267 35.867 29.7073L37.257 28.2693ZM34.43 27.2343C33.8622 27.2343 33.2961 27.3329 32.7358 27.5196L33.3682 29.417C33.7439 29.2918 34.0965 29.2343 34.43 29.2343V27.2343ZM32.7579 27.5125C32.1706 27.6933 31.6004 28.008 31.048 28.4223L32.248 30.0223C32.6662 29.7087 33.0321 29.5207 33.3461 29.4241L32.7579 27.5125ZM31.0233 28.4415C30.938 28.5097 30.7952 28.5982 30.5712 28.6962L31.3728 30.5285C31.7034 30.3838 32.0113 30.2123 32.2727 30.0032L31.0233 28.4415ZM30.5712 28.6962C30.4242 28.7605 30.2664 28.7943 30.088 28.7943V30.7943C30.5336 30.7943 30.9652 30.7068 31.3728 30.5285L30.5712 28.6962ZM30.088 28.7943C29.891 28.7943 29.7594 28.7717 29.6772 28.7467C29.5988 28.7228 29.5752 28.7001 29.5743 28.6993L28.2097 30.1614C28.7301 30.6471 29.4236 30.7943 30.088 30.7943V28.7943ZM29.5991 28.7232C29.5808 28.7049 29.502 28.6204 29.502 28.3123H27.502C27.502 28.9749 27.6832 29.6357 28.1849 30.1374L29.5991 28.7232ZM29.502 28.3123V20.1483H27.502V28.3123H29.502ZM29.502 20.1483C29.502 19.7405 29.605 19.6015 29.6511 19.5554L28.2369 18.1412C27.6936 18.6845 27.502 19.4121 27.502 20.1483H29.502ZM29.6306 19.5753C29.7075 19.5027 29.8673 19.4063 30.244 19.4063V17.4063C29.5113 17.4063 28.8045 17.6046 28.2574 18.1213L29.6306 19.5753ZM30.244 19.4063H38.59V17.4063H30.244V19.4063ZM38.59 19.4063C38.9978 19.4063 39.1368 19.5094 39.1829 19.5554L40.5971 18.1412C40.0539 17.598 39.3262 17.4063 38.59 17.4063V19.4063ZM39.2046 19.5765C39.2388 19.6087 39.332 19.7143 39.332 20.0703H41.332C41.332 19.3517 41.1306 18.6427 40.5754 18.1201L39.2046 19.5765ZM39.332 20.0703C39.332 20.3946 39.246 20.5221 39.1829 20.5852L40.5971 21.9994C41.1233 21.4732 41.332 20.7861 41.332 20.0703H39.332ZM39.2046 20.5641C39.1602 20.6059 39.0128 20.7083 38.59 20.7083V22.7083C39.3112 22.7083 40.0304 22.5334 40.5754 22.0205L39.2046 20.5641ZM38.59 20.7083H32.376V22.7083H38.59V20.7083ZM31.376 21.7083V26.6743H33.376V21.7083H31.376ZM32.376 25.6743H31.388V27.6743H32.376V25.6743ZM32.1664 27.3021C32.4832 26.9093 32.9128 26.5882 33.487 26.3501L32.721 24.5026C31.8739 24.8538 31.1595 25.3647 30.6096 26.0466L32.1664 27.3021ZM33.487 26.3501C34.0642 26.1107 34.7124 25.9843 35.444 25.9843V23.9843C34.4769 23.9843 33.5651 24.1526 32.721 24.5026L33.487 26.3501ZM35.444 25.9843C36.4575 25.9843 37.2928 26.2023 37.9843 26.6034L38.9877 24.8733C37.9458 24.269 36.7532 23.9843 35.444 23.9843V25.9843ZM37.9974 26.6108C38.698 27.0032 39.2408 27.5511 39.6374 28.2736L41.3906 27.3111C40.8166 26.2655 40.0073 25.4441 38.9746 24.8658L37.9974 26.6108ZM39.6374 28.2736C40.0302 28.9891 40.242 29.8415 40.242 30.8603H42.242C42.242 29.5565 41.9684 28.3636 41.3906 27.3111L39.6374 28.2736ZM40.242 30.8603C40.242 31.9155 40.0027 32.8101 39.5497 33.5745L41.2703 34.5941C41.9266 33.4865 42.242 32.2319 42.242 30.8603H40.242ZM39.5539 33.5675C39.1052 34.3106 38.4562 34.9052 37.5708 35.3479L38.4652 37.1368C39.6598 36.5395 40.6054 35.6954 41.2661 34.6012L39.5539 33.5675ZM37.5708 35.3479C36.6971 35.7847 35.6261 36.0223 34.326 36.0223V38.0223C35.8686 38.0223 37.2589 37.7399 38.4652 37.1368L37.5708 35.3479Z" fill="#4F5E7F" mask="url(#path-9-outside-1_26645_234174)"/>
<defs>
<radialGradient id="paint0_radial_26645_234174" cx="0" cy="0" r="1" gradientUnits="userSpaceOnUse" gradientTransform="translate(27.4975 27.6648) scale(23.0273 23.0272)">
<stop stop-color="#C4D8E6"/>
<stop offset="1" stop-color="#B7CEDE"/>
</radialGradient>
</defs>
</svg>
