<svg width="55" height="55" viewBox="0 0 55 55" fill="none" xmlns="http://www.w3.org/2000/svg">
<path d="M55 27.3684C55 28.5429 54.9268 29.6997 54.7839 30.8361C54.4532 33.4271 53.7572 35.9077 52.751 38.2186C52.751 38.2186 52.751 38.2222 52.7473 38.2253C48.5282 47.9392 38.8094 54.7362 27.4998 54.7362C14.6968 54.7362 3.94393 46.0304 0.877028 34.245V34.2414C0.302495 32.0452 0 29.7411 0 27.3684C0 24.9433 0.31659 22.5911 0.915232 20.3534C4.02399 8.63715 14.7486 0.000976575 27.4998 0.000976575C42.6878 0.00052168 55 12.2536 55 27.3684Z" fill="#9FADB7"/>
<path d="M53.5469 26.046C53.5469 26.379 53.5415 26.7124 53.5283 27.0427C53.4992 27.8201 53.4382 28.587 53.3431 29.3458C53.0284 31.8127 52.3701 34.1713 51.418 36.3716C51.418 36.3716 51.418 36.3743 51.4126 36.3793C47.4172 45.6237 38.2124 52.0914 27.501 52.0914C15.3749 52.0914 5.19158 43.8069 2.28571 32.5901V32.5874C1.85447 30.9347 1.58516 29.2161 1.49237 27.4547C1.46826 26.9867 1.45508 26.5186 1.45508 26.0455C1.45508 23.7369 1.75394 21.5002 2.32256 19.369C5.26573 8.21818 15.4244 0 27.5005 0C41.8857 0.000454895 53.5469 11.6617 53.5469 26.046Z" fill="#E7E6E2"/>
<path d="M53.5465 26.046C53.5465 26.379 53.541 26.7124 53.5279 27.0427C52.5416 25.2022 50.8599 22.1799 48.0068 17.2724C41.6765 6.38589 27.501 5.15674 16.004 8.60212C4.50425 12.0502 1.98685 31.295 1.98685 31.295L1.49239 27.4557C1.46828 26.9876 1.45508 26.5195 1.45508 26.0464C1.45508 23.7379 1.75396 21.5011 2.32258 19.3699C5.26575 8.2191 15.4245 0.000976576 27.5006 0.000976576C41.8853 0.000521681 53.5465 11.6618 53.5465 26.046Z" fill="white"/>
<path d="M50.3702 26.9286C50.3702 27.9234 50.3092 28.9033 50.1905 29.8658C49.9157 32.0607 49.3366 34.1614 48.4996 36.1188C48.4996 36.1188 48.4996 36.122 48.4969 36.1247C44.9879 44.3524 36.9044 50.1095 27.4976 50.1095C16.8489 50.1095 7.90571 42.7357 5.35465 32.753V32.7503C4.87701 30.8898 4.625 28.9387 4.625 26.9286C4.625 24.8747 4.88839 22.8823 5.3865 20.9867C7.97212 11.0627 16.8922 3.74756 27.4976 3.74756C40.1296 3.74756 50.3702 14.126 50.3702 26.9286Z" fill="url(#paint0_radial_26645_233970)"/>
<path d="M49.8029 26.0455C49.8029 27.0026 49.7437 27.9451 49.6277 28.8708C49.3598 30.982 48.7953 33.0031 47.9792 34.8859C47.9792 34.8859 47.9792 34.8886 47.9765 34.8913C44.5552 42.806 36.6742 48.3444 27.503 48.3444C17.1209 48.3444 8.4015 41.2508 5.91459 31.648V31.6452C5.44878 29.8556 5.20312 27.9783 5.20312 26.045C5.20312 24.069 5.46015 22.1525 5.94552 20.3288C8.4661 10.7824 17.1632 3.74512 27.5025 3.74512C39.8188 3.74603 49.8029 13.7301 49.8029 26.0455Z" fill="#586686"/>
<path d="M48.3903 26.0465C48.3903 26.9431 48.3348 27.826 48.226 28.6935C47.9749 30.6714 47.4459 32.5646 46.6821 34.3283C46.6821 34.3283 46.6821 34.331 46.6794 34.3338C43.4747 41.7481 36.0922 46.9362 27.5006 46.9362C17.7749 46.9362 9.60725 40.291 7.27773 31.2955V31.2928C6.84149 29.6165 6.61133 27.8579 6.61133 26.0465C6.61133 24.1955 6.85196 22.4 7.30686 20.6919C9.66822 11.7491 17.8149 5.15723 27.5006 5.15723C39.0376 5.15723 48.3903 14.5099 48.3903 26.0465Z" fill="#A9C1D3"/>
<path d="M48.392 26.046C48.392 26.9426 48.3365 27.8256 48.2278 28.6931C45.6126 14.2742 36.5406 9.23673 22.7427 10.4454C15.413 11.0877 10.4155 16.0615 7.30859 20.6919C9.66995 11.7491 17.8167 5.15723 27.5023 5.15723C39.0394 5.15677 48.392 14.5094 48.392 26.046Z" fill="#C4D8E6"/>
<path opacity="0.43" d="M46.679 34.3342C43.4743 41.7485 36.0918 46.9366 27.5002 46.9366C17.7745 46.9366 9.60686 40.2915 7.27734 31.2959C10.2414 35.6693 17.1695 43.8005 27.5002 43.4116C41.3827 42.8907 46.5202 34.593 46.679 34.3342Z" fill="#C4D8E6"/>
<mask id="path-9-outside-1_26645_233970" maskUnits="userSpaceOnUse" x="19" y="16" width="16" height="22" fill="black">
<rect fill="white" x="19" y="16" width="16" height="22"/>
<path d="M26.5631 36.286C25.6444 36.286 24.7084 36.182 23.7551 35.974C22.8191 35.7487 22.0044 35.4367 21.3111 35.038C20.8604 34.7953 20.5484 34.5093 20.3751 34.18C20.2191 33.8333 20.1584 33.4953 20.1931 33.166C20.2451 32.8367 20.3837 32.5507 20.6091 32.308C20.8344 32.048 21.1204 31.8833 21.4671 31.814C21.8311 31.7447 22.2297 31.814 22.6631 32.022C23.3391 32.3513 23.9804 32.5853 24.5871 32.724C25.1937 32.8627 25.8004 32.932 26.4071 32.932C27.1004 32.932 27.6811 32.8453 28.1491 32.672C28.6171 32.4813 28.9724 32.2127 29.2151 31.866C29.4577 31.5193 29.5791 31.086 29.5791 30.566C29.5791 29.838 29.3277 29.292 28.8251 28.928C28.3224 28.564 27.5857 28.382 26.6151 28.382H25.0811C24.5091 28.382 24.0671 28.2433 23.7551 27.966C23.4604 27.6713 23.3131 27.2727 23.3131 26.77C23.3131 26.25 23.4604 25.8513 23.7551 25.574C24.0671 25.2793 24.5091 25.132 25.0811 25.132H26.2251C26.8144 25.132 27.3084 25.0453 27.7071 24.872C28.1231 24.6813 28.4437 24.4213 28.6691 24.092C28.9117 23.7627 29.0331 23.3553 29.0331 22.87C29.0331 22.1767 28.7904 21.648 28.3051 21.284C27.8371 20.92 27.1524 20.738 26.2511 20.738C25.6964 20.738 25.1504 20.8073 24.6131 20.946C24.0757 21.0673 23.4951 21.2927 22.8711 21.622C22.4897 21.8127 22.1344 21.8733 21.8051 21.804C21.4757 21.7347 21.1984 21.5787 20.9731 21.336C20.7651 21.0933 20.6264 20.816 20.5571 20.504C20.5051 20.1747 20.5484 19.8453 20.6871 19.516C20.8431 19.1867 21.1204 18.918 21.5191 18.71C22.2644 18.2767 23.0704 17.9473 23.9371 17.722C24.8211 17.4967 25.7137 17.384 26.6151 17.384C27.9324 17.384 29.0591 17.5833 29.9951 17.982C30.9311 18.3807 31.6504 18.9527 32.1531 19.698C32.6557 20.426 32.9071 21.31 32.9071 22.35C32.9071 23.0607 32.7684 23.7107 32.4911 24.3C32.2137 24.8893 31.8237 25.392 31.3211 25.808C30.8357 26.2067 30.2377 26.4927 29.5271 26.666V26.328C30.7577 26.536 31.7197 27.0473 32.4131 27.862C33.1064 28.6767 33.4531 29.6993 33.4531 30.93C33.4531 32.022 33.1757 32.9753 32.6211 33.79C32.0664 34.5873 31.2691 35.2027 30.2291 35.636C29.2064 36.0693 27.9844 36.286 26.5631 36.286Z"/>
</mask>
<path d="M26.5631 36.286C25.6444 36.286 24.7084 36.182 23.7551 35.974C22.8191 35.7487 22.0044 35.4367 21.3111 35.038C20.8604 34.7953 20.5484 34.5093 20.3751 34.18C20.2191 33.8333 20.1584 33.4953 20.1931 33.166C20.2451 32.8367 20.3837 32.5507 20.6091 32.308C20.8344 32.048 21.1204 31.8833 21.4671 31.814C21.8311 31.7447 22.2297 31.814 22.6631 32.022C23.3391 32.3513 23.9804 32.5853 24.5871 32.724C25.1937 32.8627 25.8004 32.932 26.4071 32.932C27.1004 32.932 27.6811 32.8453 28.1491 32.672C28.6171 32.4813 28.9724 32.2127 29.2151 31.866C29.4577 31.5193 29.5791 31.086 29.5791 30.566C29.5791 29.838 29.3277 29.292 28.8251 28.928C28.3224 28.564 27.5857 28.382 26.6151 28.382H25.0811C24.5091 28.382 24.0671 28.2433 23.7551 27.966C23.4604 27.6713 23.3131 27.2727 23.3131 26.77C23.3131 26.25 23.4604 25.8513 23.7551 25.574C24.0671 25.2793 24.5091 25.132 25.0811 25.132H26.2251C26.8144 25.132 27.3084 25.0453 27.7071 24.872C28.1231 24.6813 28.4437 24.4213 28.6691 24.092C28.9117 23.7627 29.0331 23.3553 29.0331 22.87C29.0331 22.1767 28.7904 21.648 28.3051 21.284C27.8371 20.92 27.1524 20.738 26.2511 20.738C25.6964 20.738 25.1504 20.8073 24.6131 20.946C24.0757 21.0673 23.4951 21.2927 22.8711 21.622C22.4897 21.8127 22.1344 21.8733 21.8051 21.804C21.4757 21.7347 21.1984 21.5787 20.9731 21.336C20.7651 21.0933 20.6264 20.816 20.5571 20.504C20.5051 20.1747 20.5484 19.8453 20.6871 19.516C20.8431 19.1867 21.1204 18.918 21.5191 18.71C22.2644 18.2767 23.0704 17.9473 23.9371 17.722C24.8211 17.4967 25.7137 17.384 26.6151 17.384C27.9324 17.384 29.0591 17.5833 29.9951 17.982C30.9311 18.3807 31.6504 18.9527 32.1531 19.698C32.6557 20.426 32.9071 21.31 32.9071 22.35C32.9071 23.0607 32.7684 23.7107 32.4911 24.3C32.2137 24.8893 31.8237 25.392 31.3211 25.808C30.8357 26.2067 30.2377 26.4927 29.5271 26.666V26.328C30.7577 26.536 31.7197 27.0473 32.4131 27.862C33.1064 28.6767 33.4531 29.6993 33.4531 30.93C33.4531 32.022 33.1757 32.9753 32.6211 33.79C32.0664 34.5873 31.2691 35.2027 30.2291 35.636C29.2064 36.0693 27.9844 36.286 26.5631 36.286Z" fill="white"/>
<path d="M23.7551 35.974L23.521 36.9462L23.5314 36.9487L23.5419 36.951L23.7551 35.974ZM21.3111 35.038L21.8095 34.1711L21.7975 34.1641L21.7852 34.1575L21.3111 35.038ZM20.3751 34.18L19.4632 34.5904L19.4758 34.6185L19.4902 34.6457L20.3751 34.18ZM20.1931 33.166L19.2053 33.01L19.2013 33.0356L19.1986 33.0613L20.1931 33.166ZM20.6091 32.308L21.3419 32.9885L21.3535 32.9759L21.3648 32.9629L20.6091 32.308ZM21.4671 31.814L21.28 30.8316L21.271 30.8334L21.4671 31.814ZM22.6631 32.022L23.1011 31.123L23.0958 31.1205L22.6631 32.022ZM24.5871 32.724L24.3643 33.6989L24.5871 32.724ZM28.1491 32.672L28.4964 33.6097L28.5115 33.6042L28.5264 33.5981L28.1491 32.672ZM28.8251 28.928L28.2386 29.7379H28.2386L28.8251 28.928ZM23.7551 27.966L23.048 28.6731L23.0688 28.6939L23.0907 28.7134L23.7551 27.966ZM23.7551 25.574L24.4404 26.3022L24.4417 26.301L23.7551 25.574ZM27.7071 24.872L28.1058 25.7891L28.1148 25.7852L28.1237 25.7811L27.7071 24.872ZM28.6691 24.092L27.864 23.4988L27.8536 23.5129L27.8438 23.5273L28.6691 24.092ZM28.3051 21.284L27.6911 22.0734L27.6981 22.0787L27.7051 22.084L28.3051 21.284ZM24.6131 20.946L24.8333 21.9214L24.8482 21.9181L24.863 21.9143L24.6131 20.946ZM22.8711 21.622L23.3183 22.5164L23.3281 22.5115L23.3378 22.5064L22.8711 21.622ZM21.8051 21.804L21.5991 22.7825H21.5991L21.8051 21.804ZM20.9731 21.336L20.2138 21.9868L20.2268 22.0019L20.2403 22.0165L20.9731 21.336ZM20.5571 20.504L19.5693 20.66L19.5742 20.6906L19.5809 20.7209L20.5571 20.504ZM20.6871 19.516L19.7833 19.0879L19.774 19.1077L19.7654 19.1279L20.6871 19.516ZM21.5191 18.71L21.9816 19.5966L22.0019 19.586L22.0217 19.5745L21.5191 18.71ZM23.9371 17.722L23.6901 16.753L23.6854 16.7542L23.9371 17.722ZM32.1531 19.698L31.324 20.2572L31.3302 20.2662L32.1531 19.698ZM32.4911 24.3L33.3959 24.7258L33.3959 24.7258L32.4911 24.3ZM31.3211 25.808L31.9558 26.5807L31.9586 26.5784L31.3211 25.808ZM29.5271 26.666H28.5271V27.9392L29.764 27.6375L29.5271 26.666ZM29.5271 26.328L29.6937 25.342L28.5271 25.1448V26.328H29.5271ZM32.4131 27.862L31.6515 28.5101L32.4131 27.862ZM32.6211 33.79L33.442 34.3611L33.4477 34.3528L32.6211 33.79ZM30.2291 35.636L29.8445 34.7129L29.8389 34.7152L30.2291 35.636ZM26.5631 35.286C25.7204 35.286 24.8559 35.1906 23.9682 34.997L23.5419 36.951C24.5609 37.1734 25.5684 37.286 26.5631 37.286V35.286ZM23.9891 35.0018C23.1276 34.7944 22.4054 34.5137 21.8095 34.1711L20.8126 35.9049C21.6034 36.3596 22.5105 36.703 23.521 36.9462L23.9891 35.0018ZM21.7852 34.1575C21.4459 33.9748 21.3119 33.8128 21.26 33.7143L19.4902 34.6457C19.7849 35.2058 20.275 35.6158 20.837 35.9185L21.7852 34.1575ZM21.287 33.7696C21.1927 33.5601 21.174 33.3994 21.1876 33.2707L19.1986 33.0613C19.1428 33.5913 19.2455 34.1066 19.4632 34.5904L21.287 33.7696ZM21.1808 33.322C21.2021 33.1875 21.2527 33.0844 21.3419 32.9885L19.8763 31.6275C19.5148 32.0169 19.2881 32.4859 19.2053 33.01L21.1808 33.322ZM21.3648 32.9629C21.4406 32.8754 21.5275 32.8217 21.6632 32.7946L21.271 30.8334C20.7133 30.945 20.2282 31.2206 19.8534 31.6531L21.3648 32.9629ZM21.6542 32.7963C21.7534 32.7774 21.9324 32.7805 22.2303 32.9235L23.0958 31.1205C22.5271 30.8475 21.9088 30.7119 21.28 30.8317L21.6542 32.7963ZM22.2251 32.921C22.956 33.2771 23.6697 33.5401 24.3643 33.6989L24.8099 31.7491C24.2911 31.6306 23.7221 31.4256 23.101 31.123L22.2251 32.921ZM24.3643 33.6989C25.0421 33.8538 25.7235 33.932 26.4071 33.932V31.932C25.8773 31.932 25.3454 31.8715 24.8099 31.7491L24.3643 33.6989ZM26.4071 33.932C27.1762 33.932 27.8832 33.8369 28.4964 33.6097L27.8018 31.7343C27.479 31.8538 27.0246 31.932 26.4071 31.932V33.932ZM28.5264 33.5981C29.1375 33.3491 29.6615 32.9721 30.0343 32.4395L28.3958 31.2925C28.2834 31.4532 28.0967 31.6135 27.7718 31.7459L28.5264 33.5981ZM30.0343 32.4395C30.4192 31.8896 30.5791 31.2436 30.5791 30.566H28.5791C28.5791 30.9284 28.4963 31.1491 28.3958 31.2925L30.0343 32.4395ZM30.5791 30.566C30.5791 29.5806 30.2213 28.7044 29.4116 28.1181L28.2386 29.7379C28.4342 29.8796 28.5791 30.0954 28.5791 30.566H30.5791ZM29.4116 28.1181C28.6665 27.5785 27.6858 27.382 26.6151 27.382V29.382C27.4857 29.382 27.9784 29.5495 28.2386 29.7379L29.4116 28.1181ZM26.6151 27.382H25.0811V29.382H26.6151V27.382ZM25.0811 27.382C24.6628 27.382 24.4901 27.2814 24.4194 27.2186L23.0907 28.7134C23.644 29.2053 24.3553 29.382 25.0811 29.382V27.382ZM24.4622 27.2589C24.3927 27.1894 24.3131 27.0659 24.3131 26.77H22.3131C22.3131 27.4794 22.5281 28.1533 23.048 28.6731L24.4622 27.2589ZM24.3131 26.77C24.3131 26.4427 24.3999 26.3403 24.4404 26.3022L23.0697 24.8458C22.5209 25.3623 22.3131 26.0573 22.3131 26.77H24.3131ZM24.4417 26.301C24.5132 26.2335 24.6774 26.132 25.0811 26.132V24.132C24.3408 24.132 23.621 24.3252 23.0685 24.847L24.4417 26.301ZM25.0811 26.132H26.2251V24.132H25.0811V26.132ZM26.2251 26.132C26.9056 26.132 27.5451 26.0329 28.1058 25.7891L27.3084 23.9549C27.0717 24.0578 26.7232 24.132 26.2251 24.132V26.132ZM28.1237 25.7811C28.68 25.5261 29.1523 25.1567 29.4944 24.6567L27.8438 23.5273C27.7352 23.686 27.5661 23.8366 27.2904 23.9629L28.1237 25.7811ZM29.4741 24.6852C29.8658 24.1537 30.0331 23.5278 30.0331 22.87H28.0331C28.0331 23.1828 27.9577 23.3716 27.864 23.4988L29.4741 24.6852ZM30.0331 22.87C30.0331 21.9132 29.6806 21.0657 28.9051 20.484L27.7051 22.084C27.9002 22.2303 28.0331 22.4401 28.0331 22.87H30.0331ZM28.919 20.4946C28.205 19.9393 27.2649 19.738 26.2511 19.738V21.738C27.0399 21.738 27.4692 21.9007 27.6911 22.0734L28.919 20.4946ZM26.2511 19.738C25.6121 19.738 24.9821 19.818 24.3632 19.9777L24.863 21.9143C25.3187 21.7967 25.7808 21.738 26.2511 21.738V19.738ZM24.3928 19.9706C23.7496 20.1158 23.0855 20.3781 22.4043 20.7376L23.3378 22.5064C23.9046 22.2072 24.4019 22.0189 24.8333 21.9214L24.3928 19.9706ZM22.4239 20.7276C22.1897 20.8447 22.0661 20.837 22.0111 20.8254L21.5991 22.7825C22.2027 22.9096 22.7898 22.7807 23.3183 22.5164L22.4239 20.7276ZM22.0111 20.8254C21.8804 20.7979 21.7882 20.7442 21.7059 20.6555L20.2403 22.0165C20.6086 22.4131 21.0711 22.6714 21.5991 22.7825L22.0111 20.8254ZM21.7323 20.6852C21.6312 20.5672 21.567 20.4388 21.5333 20.2871L19.5809 20.7209C19.6858 21.1932 19.899 21.6195 20.2138 21.9868L21.7323 20.6852ZM21.5448 20.348C21.524 20.2159 21.5369 20.0746 21.6087 19.9041L19.7654 19.1279C19.5599 19.6161 19.4862 20.1334 19.5693 20.66L21.5448 20.348ZM21.5908 19.9441C21.6336 19.8538 21.7299 19.7279 21.9816 19.5966L21.0565 17.8234C20.5109 18.1081 20.0526 18.5195 19.7833 19.0879L21.5908 19.9441ZM22.0217 19.5745C22.6855 19.1886 23.4066 18.8932 24.1887 18.6898L23.6854 16.7542C22.7342 17.0015 21.8434 17.3647 21.0165 17.8455L22.0217 19.5745ZM24.1841 18.691C24.9883 18.486 25.7981 18.384 26.6151 18.384V16.384C25.6294 16.384 24.6538 16.5073 23.6901 16.753L24.1841 18.691ZM26.6151 18.384C27.8357 18.384 28.8218 18.5692 29.6032 18.902L30.3869 17.062C29.2963 16.5975 28.0291 16.384 26.6151 16.384V18.384ZM29.6032 18.902C30.3858 19.2353 30.943 19.6922 31.324 20.2571L32.9822 19.1389C32.3579 18.2132 31.4764 17.526 30.3869 17.062L29.6032 18.902ZM31.3302 20.2662C31.6984 20.7994 31.9071 21.4764 31.9071 22.35H33.9071C33.9071 21.1436 33.6131 20.0526 32.976 19.1298L31.3302 20.2662ZM31.9071 22.35C31.9071 22.9271 31.7954 23.4298 31.5863 23.8742L33.3959 24.7258C33.7415 23.9915 33.9071 23.1943 33.9071 22.35H31.9071ZM31.5863 23.8742C31.3717 24.3302 31.073 24.7152 30.6835 25.0376L31.9586 26.5784C32.5745 26.0688 33.0558 25.4485 33.3959 24.7258L31.5863 23.8742ZM30.6863 25.0353C30.3346 25.3242 29.8789 25.5509 29.2901 25.6945L29.764 27.6375C30.5966 27.4345 31.3369 27.0892 31.9558 26.5807L30.6863 25.0353ZM30.5271 26.666V26.328H28.5271V26.666H30.5271ZM29.3604 27.314C30.3999 27.4897 31.1354 27.9036 31.6515 28.5101L33.1746 27.2139C32.3041 26.191 31.1156 25.5823 29.6937 25.342L29.3604 27.314ZM31.6515 28.5101C32.1681 29.1171 32.4531 29.899 32.4531 30.93H34.4531C34.4531 29.4997 34.0447 28.2363 33.1746 27.2139L31.6515 28.5101ZM32.4531 30.93C32.4531 31.8438 32.2241 32.5962 31.7945 33.2272L33.4477 34.3528C34.1274 33.3545 34.4531 32.2002 34.4531 30.93H32.4531ZM31.8002 33.2189C31.3709 33.836 30.7372 34.341 29.8445 34.7129L30.6137 36.5591C31.801 36.0644 32.7619 35.3387 33.442 34.3611L31.8002 33.2189ZM29.8389 34.7152C28.969 35.0839 27.8863 35.286 26.5631 35.286V37.286C28.0825 37.286 29.4438 37.0548 30.6192 36.5568L29.8389 34.7152Z" fill="#4F5E7F" mask="url(#path-9-outside-1_26645_233970)"/>
<defs>
<radialGradient id="paint0_radial_26645_233970" cx="0" cy="0" r="1" gradientUnits="userSpaceOnUse" gradientTransform="translate(27.4975 26.9285) scale(23.0273 23.0272)">
<stop stop-color="#C4D8E6"/>
<stop offset="1" stop-color="#B7CEDE"/>
</radialGradient>
</defs>
</svg>
