<svg width="55" height="55" viewBox="0 0 55 55" fill="none" xmlns="http://www.w3.org/2000/svg">
<path d="M55 27.3684C55 28.5429 54.9268 29.6997 54.7839 30.8361C54.4532 33.4271 53.7572 35.9077 52.751 38.2186C52.751 38.2186 52.751 38.2222 52.7473 38.2253C48.5282 47.9392 38.8094 54.7362 27.4998 54.7362C14.6968 54.7362 3.94393 46.0304 0.877028 34.245V34.2414C0.302495 32.0452 0 29.7411 0 27.3684C0 24.9433 0.31659 22.5911 0.915232 20.3534C4.02399 8.63715 14.7486 0.000976575 27.4998 0.000976575C42.6878 0.00052168 55 12.2536 55 27.3684Z" fill="#9FADB7"/>
<path d="M53.5469 26.046C53.5469 26.379 53.5415 26.7124 53.5283 27.0427C53.4992 27.8201 53.4382 28.587 53.3431 29.3458C53.0284 31.8127 52.3701 34.1713 51.418 36.3716C51.418 36.3716 51.418 36.3743 51.4126 36.3793C47.4172 45.6237 38.2124 52.0914 27.501 52.0914C15.3749 52.0914 5.19158 43.8069 2.28571 32.5901V32.5874C1.85447 30.9347 1.58516 29.2161 1.49237 27.4547C1.46826 26.9867 1.45508 26.5186 1.45508 26.0455C1.45508 23.7369 1.75394 21.5002 2.32256 19.369C5.26573 8.21818 15.4244 0 27.5005 0C41.8857 0.000454895 53.5469 11.6617 53.5469 26.046Z" fill="#E7E6E2"/>
<path d="M53.5465 26.046C53.5465 26.379 53.541 26.7124 53.5279 27.0427C52.5416 25.2022 50.8599 22.1799 48.0068 17.2724C41.6765 6.38589 27.501 5.15674 16.004 8.60212C4.50425 12.0502 1.98685 31.295 1.98685 31.295L1.49239 27.4557C1.46828 26.9876 1.45508 26.5195 1.45508 26.0464C1.45508 23.7379 1.75396 21.5011 2.32258 19.3699C5.26575 8.2191 15.4245 0.000976576 27.5006 0.000976576C41.8853 0.000521681 53.5465 11.6618 53.5465 26.046Z" fill="white"/>
<path d="M50.3702 26.9286C50.3702 27.9234 50.3092 28.9033 50.1905 29.8658C49.9157 32.0607 49.3366 34.1614 48.4996 36.1188C48.4996 36.1188 48.4996 36.122 48.4969 36.1247C44.9879 44.3524 36.9044 50.1095 27.4976 50.1095C16.8489 50.1095 7.90571 42.7357 5.35465 32.753V32.7503C4.87701 30.8898 4.625 28.9387 4.625 26.9286C4.625 24.8747 4.88839 22.8823 5.3865 20.9867C7.97212 11.0627 16.8922 3.74756 27.4976 3.74756C40.1296 3.74756 50.3702 14.126 50.3702 26.9286Z" fill="url(#paint0_radial_26645_233987)"/>
<path d="M49.8029 26.0455C49.8029 27.0026 49.7437 27.9451 49.6277 28.8708C49.3598 30.982 48.7953 33.0031 47.9792 34.8859C47.9792 34.8859 47.9792 34.8886 47.9765 34.8913C44.5552 42.806 36.6742 48.3444 27.503 48.3444C17.1209 48.3444 8.4015 41.2508 5.91459 31.648V31.6452C5.44878 29.8556 5.20312 27.9783 5.20312 26.045C5.20312 24.069 5.46015 22.1525 5.94552 20.3288C8.4661 10.7824 17.1632 3.74512 27.5025 3.74512C39.8188 3.74603 49.8029 13.7301 49.8029 26.0455Z" fill="#586686"/>
<path d="M48.3903 26.0465C48.3903 26.9431 48.3348 27.826 48.226 28.6935C47.9749 30.6714 47.4459 32.5646 46.6821 34.3283C46.6821 34.3283 46.6821 34.331 46.6794 34.3338C43.4747 41.7481 36.0922 46.9362 27.5006 46.9362C17.7749 46.9362 9.60725 40.291 7.27773 31.2955V31.2928C6.84149 29.6165 6.61133 27.8579 6.61133 26.0465C6.61133 24.1955 6.85196 22.4 7.30686 20.6919C9.66822 11.7491 17.8149 5.15723 27.5006 5.15723C39.0376 5.15723 48.3903 14.5099 48.3903 26.0465Z" fill="#A9C1D3"/>
<path d="M48.392 26.046C48.392 26.9426 48.3365 27.8256 48.2278 28.6931C45.6126 14.2742 36.5406 9.23673 22.7427 10.4454C15.413 11.0877 10.4155 16.0615 7.30859 20.6919C9.66995 11.7491 17.8167 5.15723 27.5023 5.15723C39.0394 5.15677 48.392 14.5094 48.392 26.046Z" fill="#C4D8E6"/>
<path opacity="0.43" d="M46.679 34.3342C43.4743 41.7485 36.0918 46.9366 27.5002 46.9366C17.7745 46.9366 9.60686 40.2915 7.27734 31.2959C10.2414 35.6693 17.1695 43.8005 27.5002 43.4116C41.3827 42.8907 46.5202 34.593 46.679 34.3342Z" fill="#C4D8E6"/>
<mask id="path-9-outside-1_26645_233987" maskUnits="userSpaceOnUse" x="18" y="16" width="18" height="22" fill="black">
<rect fill="white" x="18" y="16" width="18" height="22"/>
<path d="M29.8651 36.234C29.2411 36.234 28.7471 36.0607 28.3831 35.714C28.0364 35.3673 27.8631 34.8647 27.8631 34.206V32.724H22.0391C21.3977 32.724 20.8864 32.5853 20.5051 32.308C20.1237 32.0133 19.9331 31.5713 19.9331 30.982C19.9331 30.6353 20.0111 30.28 20.1671 29.916C20.3231 29.552 20.6004 29.1013 20.9991 28.564L27.7331 18.762C28.0277 18.3287 28.3571 17.9993 28.7211 17.774C29.0851 17.5487 29.5011 17.436 29.9691 17.436C30.5237 17.436 30.9657 17.6093 31.2951 17.956C31.6417 18.2853 31.8151 18.788 31.8151 19.464V29.552H32.7771C33.3491 29.552 33.7824 29.6907 34.0771 29.968C34.3717 30.228 34.5191 30.618 34.5191 31.138C34.5191 31.6407 34.3717 32.0307 34.0771 32.308C33.7997 32.5853 33.3664 32.724 32.7771 32.724H31.8151V34.206C31.8151 34.8647 31.6417 35.3673 31.2951 35.714C30.9657 36.0607 30.4891 36.234 29.8651 36.234ZM27.8631 29.552V22.402H28.6171L23.0791 30.54V29.552H27.8631Z"/>
</mask>
<path d="M29.8651 36.234C29.2411 36.234 28.7471 36.0607 28.3831 35.714C28.0364 35.3673 27.8631 34.8647 27.8631 34.206V32.724H22.0391C21.3977 32.724 20.8864 32.5853 20.5051 32.308C20.1237 32.0133 19.9331 31.5713 19.9331 30.982C19.9331 30.6353 20.0111 30.28 20.1671 29.916C20.3231 29.552 20.6004 29.1013 20.9991 28.564L27.7331 18.762C28.0277 18.3287 28.3571 17.9993 28.7211 17.774C29.0851 17.5487 29.5011 17.436 29.9691 17.436C30.5237 17.436 30.9657 17.6093 31.2951 17.956C31.6417 18.2853 31.8151 18.788 31.8151 19.464V29.552H32.7771C33.3491 29.552 33.7824 29.6907 34.0771 29.968C34.3717 30.228 34.5191 30.618 34.5191 31.138C34.5191 31.6407 34.3717 32.0307 34.0771 32.308C33.7997 32.5853 33.3664 32.724 32.7771 32.724H31.8151V34.206C31.8151 34.8647 31.6417 35.3673 31.2951 35.714C30.9657 36.0607 30.4891 36.234 29.8651 36.234ZM27.8631 29.552V22.402H28.6171L23.0791 30.54V29.552H27.8631Z" fill="white"/>
<path d="M28.3831 35.714L27.676 36.4211L27.6846 36.4297L27.6934 36.4381L28.3831 35.714ZM27.8631 32.724H28.8631V31.724H27.8631V32.724ZM20.5051 32.308L19.8936 33.0993L19.9051 33.1082L19.9169 33.1167L20.5051 32.308ZM20.1671 29.916L21.0862 30.3099L20.1671 29.916ZM20.9991 28.564L21.8022 29.1598L21.813 29.1452L21.8233 29.1303L20.9991 28.564ZM27.7331 18.762L28.5573 19.3283L28.56 19.3243L27.7331 18.762ZM31.2951 17.956L30.5701 18.6447L30.5877 18.6633L30.6063 18.681L31.2951 17.956ZM31.8151 29.552H30.8151V30.552H31.8151V29.552ZM34.0771 29.968L33.3917 30.6962L33.4034 30.7072L33.4155 30.7178L34.0771 29.968ZM34.0771 32.308L33.3917 31.5798L33.3807 31.5902L33.37 31.6009L34.0771 32.308ZM31.8151 32.724V31.724H30.8151V32.724H31.8151ZM31.2951 35.714L30.588 35.0069L30.5789 35.016L30.5701 35.0252L31.2951 35.714ZM27.8631 29.552V30.552H28.8631V29.552H27.8631ZM27.8631 22.402V21.402H26.8631V22.402H27.8631ZM28.6171 22.402L29.4438 22.9646L30.5072 21.402H28.6171V22.402ZM23.0791 30.54H22.0791V33.7869L23.9058 31.1026L23.0791 30.54ZM23.0791 29.552V28.552H22.0791V29.552H23.0791ZM29.8651 35.234C29.4327 35.234 29.2084 35.1191 29.0727 34.9899L27.6934 36.4381C28.2857 37.0022 29.0494 37.234 29.8651 37.234V35.234ZM29.0902 35.0069C28.9884 34.9051 28.8631 34.6933 28.8631 34.206H26.8631C26.8631 35.036 27.0845 35.8296 27.676 36.4211L29.0902 35.0069ZM28.8631 34.206V32.724H26.8631V34.206H28.8631ZM27.8631 31.724H22.0391V33.724H27.8631V31.724ZM22.0391 31.724C21.5343 31.724 21.2518 31.6145 21.0933 31.4993L19.9169 33.1167C20.5211 33.5561 21.2612 33.724 22.0391 33.724V31.724ZM21.1165 31.5167C21.0352 31.4538 20.9331 31.3383 20.9331 30.982H18.9331C18.9331 31.8043 19.2123 32.5728 19.8936 33.0993L21.1165 31.5167ZM20.9331 30.982C20.9331 30.7887 20.976 30.5671 21.0862 30.3099L19.2479 29.5221C19.0461 29.9929 18.9331 30.482 18.9331 30.982H20.9331ZM21.0862 30.3099C21.1977 30.0498 21.4228 29.6712 21.8022 29.1598L20.196 27.9682C19.778 28.5315 19.4485 29.0542 19.2479 29.5221L21.0862 30.3099ZM21.8233 29.1303L28.5573 19.3282L26.9088 18.1957L20.1748 27.9977L21.8233 29.1303ZM28.56 19.3243C28.793 18.9816 29.0263 18.7612 29.2474 18.6243L28.1947 16.9237C27.6879 17.2375 27.2624 17.6757 26.9062 18.1997L28.56 19.3243ZM29.2474 18.6243C29.4387 18.5058 29.6691 18.436 29.9691 18.436V16.436C29.3331 16.436 28.7314 16.5915 28.1947 16.9237L29.2474 18.6243ZM29.9691 18.436C30.2975 18.436 30.4601 18.529 30.5701 18.6447L32.0201 17.2673C31.4714 16.6897 30.75 16.436 29.9691 16.436V18.436ZM30.6063 18.681C30.6837 18.7545 30.8151 18.9465 30.8151 19.464H32.8151C32.8151 18.6295 32.5998 17.8162 31.9838 17.231L30.6063 18.681ZM30.8151 19.464V29.552H32.8151V19.464H30.8151ZM31.8151 30.552H32.7771V28.552H31.8151V30.552ZM32.7771 30.552C33.1999 30.552 33.3473 30.6544 33.3917 30.6962L34.7624 29.2398C34.2175 28.7269 33.4982 28.552 32.7771 28.552V30.552ZM33.4155 30.7178C33.431 30.7316 33.5191 30.8069 33.5191 31.138H35.5191C35.5191 30.4291 35.3125 29.7244 34.7387 29.2182L33.4155 30.7178ZM33.5191 31.138C33.5191 31.4363 33.4389 31.5354 33.3917 31.5798L34.7624 33.0362C35.3046 32.526 35.5191 31.845 35.5191 31.138H33.5191ZM33.37 31.6009C33.3563 31.6146 33.2328 31.724 32.7771 31.724V33.724C33.5 33.724 34.2432 33.5561 34.7842 33.0151L33.37 31.6009ZM32.7771 31.724H31.8151V33.724H32.7771V31.724ZM30.8151 32.724V34.206H32.8151V32.724H30.8151ZM30.8151 34.206C30.8151 34.6933 30.6898 34.9051 30.588 35.0069L32.0022 36.4211C32.5937 35.8296 32.8151 35.036 32.8151 34.206H30.8151ZM30.5701 35.0252C30.4825 35.1175 30.3027 35.234 29.8651 35.234V37.234C30.6755 37.234 31.449 37.0039 32.0201 36.4028L30.5701 35.0252ZM28.8631 29.552V22.402H26.8631V29.552H28.8631ZM27.8631 23.402H28.6171V21.402H27.8631V23.402ZM27.7903 21.8394L22.2523 29.9774L23.9058 31.1026L29.4438 22.9646L27.7903 21.8394ZM24.0791 30.54V29.552H22.0791V30.54H24.0791ZM23.0791 30.552H27.8631V28.552H23.0791V30.552Z" fill="#4F5E7F" mask="url(#path-9-outside-1_26645_233987)"/>
<defs>
<radialGradient id="paint0_radial_26645_233987" cx="0" cy="0" r="1" gradientUnits="userSpaceOnUse" gradientTransform="translate(27.4975 26.9285) scale(23.0273 23.0272)">
<stop stop-color="#C4D8E6"/>
<stop offset="1" stop-color="#B7CEDE"/>
</radialGradient>
</defs>
</svg>
