<svg width="55" height="55" viewBox="0 0 55 55" fill="none" xmlns="http://www.w3.org/2000/svg">
<path d="M55 27.3684C55 28.5429 54.9268 29.6997 54.7839 30.8361C54.4532 33.4271 53.7572 35.9077 52.751 38.2186C52.751 38.2186 52.751 38.2222 52.7473 38.2253C48.5282 47.9392 38.8094 54.7362 27.4998 54.7362C14.6968 54.7362 3.94393 46.0304 0.877028 34.245V34.2414C0.302495 32.0452 0 29.7411 0 27.3684C0 24.9433 0.31659 22.5911 0.915232 20.3534C4.02399 8.63715 14.7486 0.000976575 27.4998 0.000976575C42.6878 0.00052168 55 12.2536 55 27.3684Z" fill="#9FADB7"/>
<path d="M53.5469 26.046C53.5469 26.379 53.5415 26.7124 53.5283 27.0427C53.4992 27.8201 53.4382 28.587 53.3431 29.3458C53.0284 31.8127 52.3701 34.1713 51.418 36.3716C51.418 36.3716 51.418 36.3743 51.4126 36.3793C47.4172 45.6237 38.2124 52.0914 27.501 52.0914C15.3749 52.0914 5.19158 43.8069 2.28571 32.5901V32.5874C1.85447 30.9347 1.58516 29.2161 1.49237 27.4547C1.46826 26.9867 1.45508 26.5186 1.45508 26.0455C1.45508 23.7369 1.75394 21.5002 2.32256 19.369C5.26573 8.21818 15.4244 0 27.5005 0C41.8857 0.000454895 53.5469 11.6617 53.5469 26.046Z" fill="#E7E6E2"/>
<path d="M53.5465 26.046C53.5465 26.379 53.541 26.7124 53.5279 27.0427C52.5416 25.2022 50.8599 22.1799 48.0068 17.2724C41.6765 6.38589 27.501 5.15674 16.004 8.60212C4.50425 12.0502 1.98685 31.295 1.98685 31.295L1.49239 27.4557C1.46828 26.9876 1.45508 26.5195 1.45508 26.0464C1.45508 23.7379 1.75396 21.5011 2.32258 19.3699C5.26575 8.2191 15.4245 0.000976576 27.5006 0.000976576C41.8853 0.000521681 53.5465 11.6618 53.5465 26.046Z" fill="white"/>
<path d="M50.3702 26.9286C50.3702 27.9234 50.3092 28.9033 50.1905 29.8658C49.9157 32.0607 49.3366 34.1614 48.4996 36.1188C48.4996 36.1188 48.4996 36.122 48.4969 36.1247C44.9879 44.3524 36.9044 50.1095 27.4976 50.1095C16.8489 50.1095 7.90571 42.7357 5.35465 32.753V32.7503C4.87701 30.8898 4.625 28.9387 4.625 26.9286C4.625 24.8747 4.88839 22.8823 5.3865 20.9867C7.97212 11.0627 16.8922 3.74756 27.4976 3.74756C40.1296 3.74756 50.3702 14.126 50.3702 26.9286Z" fill="url(#paint0_radial_26645_234004)"/>
<path d="M49.8029 26.0455C49.8029 27.0026 49.7437 27.9451 49.6277 28.8708C49.3598 30.982 48.7953 33.0031 47.9792 34.8859C47.9792 34.8859 47.9792 34.8886 47.9765 34.8913C44.5552 42.806 36.6742 48.3444 27.503 48.3444C17.1209 48.3444 8.4015 41.2508 5.91459 31.648V31.6452C5.44878 29.8556 5.20312 27.9783 5.20312 26.045C5.20312 24.069 5.46015 22.1525 5.94552 20.3288C8.4661 10.7824 17.1632 3.74512 27.5025 3.74512C39.8188 3.74603 49.8029 13.7301 49.8029 26.0455Z" fill="#586686"/>
<path d="M48.3903 26.0465C48.3903 26.9431 48.3348 27.826 48.226 28.6935C47.9749 30.6714 47.4459 32.5646 46.6821 34.3283C46.6821 34.3283 46.6821 34.331 46.6794 34.3338C43.4747 41.7481 36.0922 46.9362 27.5006 46.9362C17.7749 46.9362 9.60725 40.291 7.27773 31.2955V31.2928C6.84149 29.6165 6.61133 27.8579 6.61133 26.0465C6.61133 24.1955 6.85196 22.4 7.30686 20.6919C9.66822 11.7491 17.8149 5.15723 27.5006 5.15723C39.0376 5.15723 48.3903 14.5099 48.3903 26.0465Z" fill="#A9C1D3"/>
<path d="M48.392 26.046C48.392 26.9426 48.3365 27.8256 48.2278 28.6931C45.6126 14.2742 36.5406 9.23673 22.7427 10.4454C15.413 11.0877 10.4155 16.0615 7.30859 20.6919C9.66995 11.7491 17.8167 5.15723 27.5023 5.15723C39.0394 5.15677 48.392 14.5094 48.392 26.046Z" fill="#C4D8E6"/>
<path opacity="0.43" d="M46.679 34.3342C43.4743 41.7485 36.0918 46.9366 27.5002 46.9366C17.7745 46.9366 9.60686 40.2915 7.27734 31.2959C10.2414 35.6693 17.1695 43.8005 27.5002 43.4116C41.3827 42.8907 46.5202 34.593 46.679 34.3342Z" fill="#C4D8E6"/>
<mask id="path-9-outside-1_26645_234004" maskUnits="userSpaceOnUse" x="19" y="16" width="16" height="22" fill="black">
<rect fill="white" x="19" y="16" width="16" height="22"/>
<path d="M27.0311 36.286C26.1471 36.286 25.2371 36.1733 24.3011 35.948C23.3651 35.7227 22.5071 35.3847 21.7271 34.934C21.3284 34.7087 21.0511 34.4313 20.8951 34.102C20.7564 33.7727 20.7131 33.4347 20.7651 33.088C20.8344 32.7413 20.9731 32.4467 21.1811 32.204C21.4064 31.944 21.6837 31.7793 22.0131 31.71C22.3597 31.6407 22.7411 31.7187 23.1571 31.944C23.7637 32.256 24.3791 32.4987 25.0031 32.672C25.6444 32.8453 26.2944 32.932 26.9531 32.932C27.6117 32.932 28.1751 32.8193 28.6431 32.594C29.1111 32.3687 29.4664 32.0567 29.7091 31.658C29.9517 31.2593 30.0731 30.7913 30.0731 30.254C30.0731 29.422 29.8044 28.7547 29.2671 28.252C28.7471 27.7493 28.0364 27.498 27.1351 27.498C26.6844 27.498 26.2251 27.576 25.7571 27.732C25.3064 27.8707 24.8384 28.122 24.3531 28.486C24.1797 28.6247 23.9544 28.7547 23.6771 28.876C23.3997 28.9973 23.1051 29.058 22.7931 29.058C22.2557 29.058 21.8571 28.9367 21.5971 28.694C21.3371 28.434 21.2071 28.0613 21.2071 27.576V19.412C21.2071 18.84 21.3544 18.4067 21.6491 18.112C21.9611 17.8173 22.3944 17.67 22.9491 17.67H31.2951C31.8671 17.67 32.3004 17.8173 32.5951 18.112C32.8897 18.3893 33.0371 18.7967 33.0371 19.334C33.0371 19.854 32.8897 20.2613 32.5951 20.556C32.3004 20.8333 31.8671 20.972 31.2951 20.972H25.0811V25.938H24.0931C24.5264 25.4007 25.0984 24.9847 25.8091 24.69C26.5197 24.3953 27.2997 24.248 28.1491 24.248C29.3104 24.248 30.3244 24.4993 31.1911 25.002C32.0577 25.4873 32.7337 26.172 33.2191 27.056C33.7044 27.94 33.9471 28.9627 33.9471 30.124C33.9471 31.3373 33.6697 32.412 33.1151 33.348C32.5604 34.2667 31.7631 34.986 30.7231 35.506C29.6831 36.026 28.4524 36.286 27.0311 36.286Z"/>
</mask>
<path d="M27.0311 36.286C26.1471 36.286 25.2371 36.1733 24.3011 35.948C23.3651 35.7227 22.5071 35.3847 21.7271 34.934C21.3284 34.7087 21.0511 34.4313 20.8951 34.102C20.7564 33.7727 20.7131 33.4347 20.7651 33.088C20.8344 32.7413 20.9731 32.4467 21.1811 32.204C21.4064 31.944 21.6837 31.7793 22.0131 31.71C22.3597 31.6407 22.7411 31.7187 23.1571 31.944C23.7637 32.256 24.3791 32.4987 25.0031 32.672C25.6444 32.8453 26.2944 32.932 26.9531 32.932C27.6117 32.932 28.1751 32.8193 28.6431 32.594C29.1111 32.3687 29.4664 32.0567 29.7091 31.658C29.9517 31.2593 30.0731 30.7913 30.0731 30.254C30.0731 29.422 29.8044 28.7547 29.2671 28.252C28.7471 27.7493 28.0364 27.498 27.1351 27.498C26.6844 27.498 26.2251 27.576 25.7571 27.732C25.3064 27.8707 24.8384 28.122 24.3531 28.486C24.1797 28.6247 23.9544 28.7547 23.6771 28.876C23.3997 28.9973 23.1051 29.058 22.7931 29.058C22.2557 29.058 21.8571 28.9367 21.5971 28.694C21.3371 28.434 21.2071 28.0613 21.2071 27.576V19.412C21.2071 18.84 21.3544 18.4067 21.6491 18.112C21.9611 17.8173 22.3944 17.67 22.9491 17.67H31.2951C31.8671 17.67 32.3004 17.8173 32.5951 18.112C32.8897 18.3893 33.0371 18.7967 33.0371 19.334C33.0371 19.854 32.8897 20.2613 32.5951 20.556C32.3004 20.8333 31.8671 20.972 31.2951 20.972H25.0811V25.938H24.0931C24.5264 25.4007 25.0984 24.9847 25.8091 24.69C26.5197 24.3953 27.2997 24.248 28.1491 24.248C29.3104 24.248 30.3244 24.4993 31.1911 25.002C32.0577 25.4873 32.7337 26.172 33.2191 27.056C33.7044 27.94 33.9471 28.9627 33.9471 30.124C33.9471 31.3373 33.6697 32.412 33.1151 33.348C32.5604 34.2667 31.7631 34.986 30.7231 35.506C29.6831 36.026 28.4524 36.286 27.0311 36.286Z" fill="white"/>
<path d="M24.3011 35.948L24.5351 34.9758L24.3011 35.948ZM21.7271 34.934L22.2274 34.0681L22.2191 34.0634L21.7271 34.934ZM20.8951 34.102L19.9734 34.4901L19.982 34.5103L19.9913 34.5301L20.8951 34.102ZM20.7651 33.088L19.7845 32.8919L19.7797 32.9157L19.7761 32.9397L20.7651 33.088ZM21.1811 32.204L20.4254 31.5491L20.4218 31.5532L21.1811 32.204ZM22.0131 31.71L21.817 30.7294L21.8071 30.7314L22.0131 31.71ZM23.1571 31.944L22.6808 32.8233L22.6902 32.8284L22.6997 32.8333L23.1571 31.944ZM25.0031 32.672L24.7354 33.6355L24.7422 33.6374L25.0031 32.672ZM28.6431 32.594L28.2093 31.693V31.693L28.6431 32.594ZM29.2671 28.252L28.5721 28.971L28.5779 28.9767L28.5839 28.9823L29.2671 28.252ZM25.7571 27.732L26.0512 28.6878L26.0623 28.6844L26.0733 28.6807L25.7571 27.732ZM24.3531 28.486L23.7531 27.686L23.7406 27.6954L23.7284 27.7051L24.3531 28.486ZM21.5971 28.694L20.89 29.4011L20.9022 29.4133L20.9148 29.4251L21.5971 28.694ZM21.6491 18.112L20.9625 17.385L20.9521 17.3948L20.942 17.4049L21.6491 18.112ZM32.5951 18.112L31.888 18.8191L31.8987 18.8298L31.9097 18.8402L32.5951 18.112ZM32.5951 20.556L33.2804 21.2842L33.2915 21.2738L33.3022 21.2631L32.5951 20.556ZM25.0811 20.972V19.972H24.0811V20.972H25.0811ZM25.0811 25.938V26.938H26.0811V25.938H25.0811ZM24.0931 25.938L23.3147 25.3102L22.002 26.938H24.0931V25.938ZM25.8091 24.69L25.4261 23.7663L25.8091 24.69ZM31.1911 25.002L30.6894 25.867L30.6959 25.8708L30.7025 25.8745L31.1911 25.002ZM33.1151 33.348L33.9712 33.8649L33.9754 33.8578L33.1151 33.348ZM30.7231 35.506L30.2759 34.6116L30.7231 35.506ZM27.0311 35.286C26.2326 35.286 25.4012 35.1843 24.5351 34.9758L24.067 36.9202C25.0729 37.1624 26.0616 37.286 27.0311 37.286V35.286ZM24.5351 34.9758C23.6861 34.7714 22.9187 34.4676 22.2274 34.0681L21.2268 35.7999C22.0955 36.3018 23.044 36.674 24.067 36.9202L24.5351 34.9758ZM22.2191 34.0634C21.9537 33.9134 21.8462 33.7739 21.7988 33.6739L19.9913 34.5301C20.256 35.0888 20.7031 35.5039 21.235 35.8046L22.2191 34.0634ZM21.8167 33.7139C21.7478 33.5504 21.7298 33.3977 21.754 33.2363L19.7761 32.9397C19.6964 33.4716 19.765 33.9949 19.9734 34.4901L21.8167 33.7139ZM21.7457 33.2841C21.785 33.0872 21.8554 32.9539 21.9403 32.8548L20.4218 31.5532C20.0908 31.9394 19.8838 32.3954 19.7845 32.8919L21.7457 33.2841ZM21.9368 32.8589C22.0226 32.7599 22.1085 32.7118 22.2191 32.6885L21.8071 30.7314C21.259 30.8468 20.7903 31.128 20.4254 31.5491L21.9368 32.8589ZM22.2092 32.6906C22.2594 32.6805 22.4004 32.6714 22.6808 32.8233L23.6334 31.0647C23.0818 30.7659 22.4601 30.6008 21.817 30.7294L22.2092 32.6906ZM22.6997 32.8333C23.3637 33.1748 24.0424 33.443 24.7354 33.6355L25.2707 31.7085C24.7157 31.5543 24.1638 31.3372 23.6144 31.0547L22.6997 32.8333ZM24.7422 33.6374C25.4678 33.8335 26.2055 33.932 26.9531 33.932V31.932C26.3833 31.932 25.821 31.8572 25.264 31.7066L24.7422 33.6374ZM26.9531 33.932C27.7229 33.932 28.4423 33.8005 29.0769 33.495L28.2093 31.693C27.9079 31.8381 27.5006 31.932 26.9531 31.932V33.932ZM29.0769 33.495C29.6985 33.1957 30.2091 32.7598 30.5633 32.1779L28.8549 31.1381C28.7237 31.3535 28.5236 31.5416 28.2093 31.693L29.0769 33.495ZM30.5633 32.1779C30.915 31.6001 31.0731 30.9465 31.0731 30.254H29.0731C29.0731 30.6362 28.9885 30.9186 28.8549 31.1381L30.5633 32.1779ZM31.0731 30.254C31.0731 29.1851 30.7171 28.2391 29.9502 27.5217L28.5839 28.9823C28.8917 29.2702 29.0731 29.6589 29.0731 30.254H31.0731ZM29.9621 27.533C29.2124 26.8083 28.2286 26.498 27.1351 26.498V28.498C27.8442 28.498 28.2818 28.6904 28.5721 28.971L29.9621 27.533ZM27.1351 26.498C26.5672 26.498 26.0012 26.5965 25.4409 26.7833L26.0733 28.6807C26.4489 28.5555 26.8016 28.498 27.1351 28.498V26.498ZM25.463 26.7762C24.8757 26.9569 24.3055 27.2717 23.7531 27.686L24.9531 29.286C25.3713 28.9723 25.7372 28.7844 26.0512 28.6878L25.463 26.7762ZM23.7284 27.7051C23.6431 27.7734 23.5003 27.8618 23.2763 27.9598L24.0779 29.7922C24.4085 29.6475 24.7164 29.476 24.9778 29.2669L23.7284 27.7051ZM23.2763 27.9598C23.1292 28.0242 22.9715 28.058 22.7931 28.058V30.058C23.2387 30.058 23.6703 29.9705 24.0779 29.7922L23.2763 27.9598ZM22.7931 28.058C22.5961 28.058 22.4645 28.0354 22.3822 28.0103C22.3039 27.9865 22.2803 27.9638 22.2794 27.9629L20.9148 29.4251C21.4352 29.9108 22.1287 30.058 22.7931 30.058V28.058ZM22.3042 27.9869C22.2859 27.9686 22.2071 27.8841 22.2071 27.576H20.2071C20.2071 28.2386 20.3882 28.8994 20.89 29.4011L22.3042 27.9869ZM22.2071 27.576V19.412H20.2071V27.576H22.2071ZM22.2071 19.412C22.2071 19.0042 22.3101 18.8652 22.3562 18.8191L20.942 17.4049C20.3987 17.9481 20.2071 18.6758 20.2071 19.412H22.2071ZM22.3357 18.839C22.4126 18.7664 22.5724 18.67 22.9491 18.67V16.67C22.2164 16.67 21.5096 16.8683 20.9625 17.385L22.3357 18.839ZM22.9491 18.67H31.2951V16.67H22.9491V18.67ZM31.2951 18.67C31.7029 18.67 31.8419 18.773 31.888 18.8191L33.3022 17.4049C32.7589 16.8616 32.0313 16.67 31.2951 16.67V18.67ZM31.9097 18.8402C31.9439 18.8723 32.0371 18.978 32.0371 19.334H34.0371C34.0371 18.6154 33.8356 17.9063 33.2804 17.3838L31.9097 18.8402ZM32.0371 19.334C32.0371 19.6583 31.9511 19.7858 31.888 19.8489L33.3022 21.2631C33.8284 20.7369 34.0371 20.0497 34.0371 19.334H32.0371ZM31.9097 19.8278C31.8653 19.8696 31.7179 19.972 31.2951 19.972V21.972C32.0162 21.972 32.7355 21.7971 33.2804 21.2842L31.9097 19.8278ZM31.2951 19.972H25.0811V21.972H31.2951V19.972ZM24.0811 20.972V25.938H26.0811V20.972H24.0811ZM25.0811 24.938H24.0931V26.938H25.0811V24.938ZM24.8715 26.5658C25.1883 26.173 25.6179 25.8518 26.1921 25.6137L25.4261 23.7663C24.5789 24.1175 23.8646 24.6284 23.3147 25.3102L24.8715 26.5658ZM26.1921 25.6137C26.7693 25.3744 27.4175 25.248 28.1491 25.248V23.248C27.182 23.248 26.2702 23.4162 25.4261 23.7663L26.1921 25.6137ZM28.1491 25.248C29.1626 25.248 29.9979 25.466 30.6894 25.867L31.6928 24.137C30.6509 23.5327 29.4582 23.248 28.1491 23.248V25.248ZM30.7025 25.8745C31.4031 26.2669 31.9458 26.8148 32.3425 27.5373L34.0957 26.5747C33.5216 25.5292 32.7124 24.7078 31.6797 24.1295L30.7025 25.8745ZM32.3425 27.5373C32.7353 28.2527 32.9471 29.1052 32.9471 30.124H34.9471C34.9471 28.8202 34.6735 27.6273 34.0957 26.5747L32.3425 27.5373ZM32.9471 30.124C32.9471 31.1791 32.7078 32.0738 32.2548 32.8382L33.9754 33.8578C34.6317 32.7502 34.9471 31.4955 34.9471 30.124H32.9471ZM32.259 32.8311C31.8103 33.5743 31.1613 34.1689 30.2759 34.6116L31.1703 36.4004C32.3648 35.8031 33.3105 34.9591 33.9711 33.8649L32.259 32.8311ZM30.2759 34.6116C29.4022 35.0484 28.3311 35.286 27.0311 35.286V37.286C28.5737 37.286 29.9639 37.0036 31.1703 36.4004L30.2759 34.6116Z" fill="#4F5E7F" mask="url(#path-9-outside-1_26645_234004)"/>
<defs>
<radialGradient id="paint0_radial_26645_234004" cx="0" cy="0" r="1" gradientUnits="userSpaceOnUse" gradientTransform="translate(27.4975 26.9285) scale(23.0273 23.0272)">
<stop stop-color="#C4D8E6"/>
<stop offset="1" stop-color="#B7CEDE"/>
</radialGradient>
</defs>
</svg>
