<svg width="55" height="55" viewBox="0 0 55 55" fill="none" xmlns="http://www.w3.org/2000/svg">
<path d="M55 27.3684C55 28.5429 54.9268 29.6997 54.7839 30.8361C54.4532 33.4271 53.7572 35.9077 52.751 38.2186C52.751 38.2186 52.751 38.2222 52.7473 38.2253C48.5282 47.9392 38.8094 54.7362 27.4998 54.7362C14.6968 54.7362 3.94393 46.0304 0.877028 34.245V34.2414C0.302495 32.0452 0 29.7411 0 27.3684C0 24.9433 0.31659 22.5911 0.915232 20.3534C4.02399 8.63715 14.7486 0.000976575 27.4998 0.000976575C42.6878 0.00052168 55 12.2536 55 27.3684Z" fill="#9FADB7"/>
<path d="M53.5469 26.046C53.5469 26.379 53.5415 26.7124 53.5283 27.0427C53.4992 27.8201 53.4382 28.587 53.3431 29.3458C53.0284 31.8127 52.3701 34.1713 51.418 36.3716C51.418 36.3716 51.418 36.3743 51.4126 36.3793C47.4172 45.6237 38.2124 52.0914 27.501 52.0914C15.3749 52.0914 5.19158 43.8069 2.28571 32.5901V32.5874C1.85447 30.9347 1.58516 29.2161 1.49237 27.4547C1.46826 26.9867 1.45508 26.5186 1.45508 26.0455C1.45508 23.7369 1.75394 21.5002 2.32256 19.369C5.26573 8.21818 15.4244 0 27.5005 0C41.8857 0.000454895 53.5469 11.6617 53.5469 26.046Z" fill="#E7E6E2"/>
<path d="M53.5465 26.046C53.5465 26.379 53.541 26.7124 53.5279 27.0427C52.5416 25.2022 50.8599 22.1799 48.0068 17.2724C41.6765 6.38589 27.501 5.15674 16.004 8.60212C4.50425 12.0502 1.98685 31.295 1.98685 31.295L1.49239 27.4557C1.46828 26.9876 1.45508 26.5195 1.45508 26.0464C1.45508 23.7379 1.75396 21.5011 2.32258 19.3699C5.26575 8.2191 15.4245 0.000976576 27.5006 0.000976576C41.8853 0.000521681 53.5465 11.6618 53.5465 26.046Z" fill="white"/>
<path d="M50.3702 26.9286C50.3702 27.9234 50.3092 28.9033 50.1905 29.8658C49.9157 32.0607 49.3366 34.1614 48.4996 36.1188C48.4996 36.1188 48.4996 36.122 48.4969 36.1247C44.9879 44.3524 36.9044 50.1095 27.4976 50.1095C16.8489 50.1095 7.90571 42.7357 5.35465 32.753V32.7503C4.87701 30.8898 4.625 28.9387 4.625 26.9286C4.625 24.8747 4.88839 22.8823 5.3865 20.9867C7.97212 11.0627 16.8922 3.74756 27.4976 3.74756C40.1296 3.74756 50.3702 14.126 50.3702 26.9286Z" fill="url(#paint0_radial_26645_234038)"/>
<path d="M49.8029 26.0455C49.8029 27.0026 49.7437 27.9451 49.6277 28.8708C49.3598 30.982 48.7953 33.0031 47.9792 34.8859C47.9792 34.8859 47.9792 34.8886 47.9765 34.8913C44.5552 42.806 36.6742 48.3444 27.503 48.3444C17.1209 48.3444 8.4015 41.2508 5.91459 31.648V31.6452C5.44878 29.8556 5.20312 27.9783 5.20312 26.045C5.20312 24.069 5.46015 22.1525 5.94552 20.3288C8.4661 10.7824 17.1632 3.74512 27.5025 3.74512C39.8188 3.74603 49.8029 13.7301 49.8029 26.0455Z" fill="#586686"/>
<path d="M48.3903 26.0465C48.3903 26.9431 48.3348 27.826 48.226 28.6935C47.9749 30.6714 47.4459 32.5646 46.6821 34.3283C46.6821 34.3283 46.6821 34.331 46.6794 34.3338C43.4747 41.7481 36.0922 46.9362 27.5006 46.9362C17.7749 46.9362 9.60725 40.291 7.27773 31.2955V31.2928C6.84149 29.6165 6.61133 27.8579 6.61133 26.0465C6.61133 24.1955 6.85196 22.4 7.30686 20.6919C9.66822 11.7491 17.8149 5.15723 27.5006 5.15723C39.0376 5.15723 48.3903 14.5099 48.3903 26.0465Z" fill="#A9C1D3"/>
<path d="M48.392 26.046C48.392 26.9426 48.3365 27.8256 48.2278 28.6931C45.6126 14.2742 36.5406 9.23673 22.7427 10.4454C15.413 11.0877 10.4155 16.0615 7.30859 20.6919C9.66995 11.7491 17.8167 5.15723 27.5023 5.15723C39.0394 5.15677 48.392 14.5094 48.392 26.046Z" fill="#C4D8E6"/>
<path opacity="0.43" d="M46.679 34.3342C43.4743 41.7485 36.0918 46.9366 27.5002 46.9366C17.7745 46.9366 9.60686 40.2915 7.27734 31.2959C10.2414 35.6693 17.1695 43.8005 27.5002 43.4116C41.3827 42.8907 46.5202 34.593 46.679 34.3342Z" fill="#C4D8E6"/>
<mask id="path-9-outside-1_26645_234038" maskUnits="userSpaceOnUse" x="19" y="16" width="16" height="22" fill="black">
<rect fill="white" x="19" y="16" width="16" height="22"/>
<path d="M23.7551 36.234C23.2524 36.234 22.8451 36.1213 22.5331 35.896C22.2211 35.6533 22.0391 35.3413 21.9871 34.96C21.9351 34.5787 22.0391 34.154 22.2991 33.686L29.8131 19.75V20.998H21.9611C21.3891 20.998 20.9557 20.8593 20.6611 20.582C20.3664 20.2873 20.2191 19.8713 20.2191 19.334C20.2191 18.7967 20.3664 18.3893 20.6611 18.112C20.9557 17.8173 21.3891 17.67 21.9611 17.67H31.8671C32.4217 17.67 32.8724 17.8173 33.2191 18.112C33.5831 18.4067 33.7651 18.8227 33.7651 19.36C33.7651 19.828 33.6957 20.2353 33.5571 20.582C33.4357 20.9287 33.2711 21.3013 33.0631 21.7L26.0431 34.934C25.8004 35.3847 25.4971 35.714 25.1331 35.922C24.7691 36.13 24.3097 36.234 23.7551 36.234Z"/>
</mask>
<path d="M23.7551 36.234C23.2524 36.234 22.8451 36.1213 22.5331 35.896C22.2211 35.6533 22.0391 35.3413 21.9871 34.96C21.9351 34.5787 22.0391 34.154 22.2991 33.686L29.8131 19.75V20.998H21.9611C21.3891 20.998 20.9557 20.8593 20.6611 20.582C20.3664 20.2873 20.2191 19.8713 20.2191 19.334C20.2191 18.7967 20.3664 18.3893 20.6611 18.112C20.9557 17.8173 21.3891 17.67 21.9611 17.67H31.8671C32.4217 17.67 32.8724 17.8173 33.2191 18.112C33.5831 18.4067 33.7651 18.8227 33.7651 19.36C33.7651 19.828 33.6957 20.2353 33.5571 20.582C33.4357 20.9287 33.2711 21.3013 33.0631 21.7L26.0431 34.934C25.8004 35.3847 25.4971 35.714 25.1331 35.922C24.7691 36.13 24.3097 36.234 23.7551 36.234Z" fill="white"/>
<path d="M22.5331 35.896L21.9191 36.6854L21.9332 36.6963L21.9476 36.7067L22.5331 35.896ZM21.9871 34.96L22.9779 34.8249L21.9871 34.96ZM22.2991 33.686L23.1733 34.1717L23.1793 34.1606L22.2991 33.686ZM29.8131 19.75H30.8131L28.9329 19.2754L29.8131 19.75ZM29.8131 20.998V21.998H30.8131V20.998H29.8131ZM20.6611 20.582L19.954 21.2891L19.9647 21.2998L19.9757 21.3102L20.6611 20.582ZM20.6611 18.112L21.3464 18.8402L21.3575 18.8298L21.3682 18.8191L20.6611 18.112ZM33.2191 18.112L32.5714 18.8739L32.5806 18.8817L32.5899 18.8892L33.2191 18.112ZM33.5571 20.582L32.6286 20.2106L32.6205 20.231L32.6132 20.2516L33.5571 20.582ZM33.0631 21.7L33.9465 22.1686L33.9497 22.1626L33.0631 21.7ZM26.0431 34.934L26.9236 35.4081L26.9265 35.4026L26.0431 34.934ZM23.7551 35.234C23.3985 35.234 23.2147 35.1547 23.1186 35.0853L21.9476 36.7067C22.4755 37.0879 23.1063 37.234 23.7551 37.234V35.234ZM23.147 35.1066C23.0351 35.0196 22.9935 34.9396 22.9779 34.8249L20.9962 35.0951C21.0846 35.7431 21.4071 36.2871 21.9191 36.6854L23.147 35.1066ZM22.9779 34.8249C22.9646 34.7271 22.978 34.523 23.1732 34.1716L21.4249 33.2004C21.1001 33.785 20.9056 34.4302 20.9962 35.0951L22.9779 34.8249ZM23.1793 34.1606L30.6933 20.2246L28.9329 19.2754L21.4189 33.2114L23.1793 34.1606ZM28.8131 19.75V20.998H30.8131V19.75H28.8131ZM29.8131 19.998H21.9611V21.998H29.8131V19.998ZM21.9611 19.998C21.5382 19.998 21.3909 19.8956 21.3464 19.8538L19.9757 21.3102C20.5206 21.8231 21.2399 21.998 21.9611 21.998V19.998ZM21.3682 19.8749C21.311 19.8178 21.2191 19.6864 21.2191 19.334H19.2191C19.2191 20.0563 19.4218 20.7569 19.954 21.2891L21.3682 19.8749ZM21.2191 19.334C21.2191 18.978 21.3123 18.8723 21.3464 18.8402L19.9757 17.3838C19.4205 17.9063 19.2191 18.6154 19.2191 19.334H21.2191ZM21.3682 18.8191C21.4143 18.773 21.5533 18.67 21.9611 18.67V16.67C21.2249 16.67 20.4972 16.8616 19.954 17.4049L21.3682 18.8191ZM21.9611 18.67H31.8671V16.67H21.9611V18.67ZM31.8671 18.67C32.2385 18.67 32.4429 18.7647 32.5714 18.8739L33.8667 17.3501C33.3019 16.87 32.605 16.67 31.8671 16.67V18.67ZM32.5899 18.8892C32.6831 18.9647 32.7651 19.0744 32.7651 19.36H34.7651C34.7651 18.5709 34.4831 17.8487 33.8483 17.3348L32.5899 18.8892ZM32.7651 19.36C32.7651 19.7318 32.7097 20.0078 32.6286 20.2106L34.4856 20.9534C34.6818 20.4628 34.7651 19.9242 34.7651 19.36H32.7651ZM32.6132 20.2516C32.5108 20.5442 32.367 20.8723 32.1765 21.2374L33.9497 22.1626C34.1752 21.7303 34.3607 21.3131 34.5009 20.9123L32.6132 20.2516ZM32.1797 21.2314L25.1597 34.4654L26.9265 35.4026L33.9465 22.1686L32.1797 21.2314ZM25.1626 34.4599C24.989 34.7823 24.8059 34.9572 24.6369 35.0538L25.6292 36.7902C26.1883 36.4708 26.6118 35.987 26.9235 35.4081L25.1626 34.4599ZM24.6369 35.0538C24.4652 35.1519 24.1902 35.234 23.7551 35.234V37.234C24.4293 37.234 25.073 37.1081 25.6292 36.7902L24.6369 35.0538Z" fill="#4F5E7F" mask="url(#path-9-outside-1_26645_234038)"/>
<defs>
<radialGradient id="paint0_radial_26645_234038" cx="0" cy="0" r="1" gradientUnits="userSpaceOnUse" gradientTransform="translate(27.4975 26.9285) scale(23.0273 23.0272)">
<stop stop-color="#C4D8E6"/>
<stop offset="1" stop-color="#B7CEDE"/>
</radialGradient>
</defs>
</svg>
