<svg width="55" height="56" viewBox="0 0 55 56" fill="none" xmlns="http://www.w3.org/2000/svg">
<path d="M55 28.1047C55 29.2792 54.9268 30.4361 54.7839 31.5724C54.4532 34.1635 53.7572 36.644 52.751 38.9549C52.751 38.9549 52.751 38.9585 52.7473 38.9617C48.5282 48.6755 38.8094 55.4725 27.4998 55.4725C14.6968 55.4725 3.94393 46.7668 0.877028 34.9813V34.9777C0.302495 32.7815 0 30.4774 0 28.1047C0 25.6797 0.31659 23.3274 0.915232 21.0898C4.02399 9.37348 14.7486 0.737305 27.4998 0.737305C42.6878 0.73685 55 12.9899 55 28.1047Z" fill="#9FADB7"/>
<path d="M53.5469 26.7823C53.5469 27.1153 53.5415 27.4487 53.5283 27.779C53.4992 28.5564 53.4382 29.3234 53.3431 30.0821C53.0284 32.549 52.3701 34.9076 51.418 37.1079C51.418 37.1079 51.418 37.1107 51.4126 37.1157C47.4172 46.36 38.2124 52.8278 27.501 52.8278C15.3749 52.8278 5.19158 44.5432 2.28571 33.3264V33.3237C1.85447 31.6711 1.58516 29.9524 1.49237 28.1911C1.46826 27.723 1.45508 27.2549 1.45508 26.7819C1.45508 24.4733 1.75394 22.2365 2.32256 20.1054C5.26573 8.95451 15.4244 0.736328 27.5005 0.736328C41.8857 0.736783 53.5469 12.3981 53.5469 26.7823Z" fill="#E7E6E2"/>
<path d="M53.5465 26.7823C53.5465 27.1153 53.541 27.4488 53.5279 27.779C52.5416 25.9385 50.8599 22.9162 48.0068 18.0088C41.6765 7.12222 27.501 5.89307 16.004 9.33844C4.50425 12.7865 1.98685 32.0313 1.98685 32.0313L1.49239 28.1921C1.46828 27.724 1.45508 27.2559 1.45508 26.7828C1.45508 24.4742 1.75396 22.2375 2.32258 20.1063C5.26575 8.95543 15.4245 0.737305 27.5006 0.737305C41.8853 0.73685 53.5465 12.3981 53.5465 26.7823Z" fill="white"/>
<path d="M50.3702 27.6649C50.3702 28.6597 50.3092 29.6396 50.1905 30.6022C49.9157 32.797 49.3366 34.8977 48.4996 36.8551C48.4996 36.8551 48.4996 36.8583 48.4969 36.861C44.9879 45.0887 36.9044 50.8459 27.4976 50.8459C16.8489 50.8459 7.90571 43.472 5.35465 33.4893V33.4866C4.87701 31.6261 4.625 29.6751 4.625 27.6649C4.625 25.611 4.88839 23.6186 5.3865 21.723C7.97212 11.799 16.8922 4.48389 27.4976 4.48389C40.1296 4.48389 50.3702 14.8623 50.3702 27.6649Z" fill="url(#paint0_radial_26645_234072)"/>
<path d="M49.8029 26.7818C49.8029 27.7389 49.7437 28.6814 49.6277 29.6071C49.3598 31.7183 48.7953 33.7394 47.9792 35.6222C47.9792 35.6222 47.9792 35.6249 47.9765 35.6277C44.5552 43.5424 36.6742 49.0808 27.503 49.0808C17.1209 49.0808 8.4015 41.9871 5.91459 32.3843V32.3815C5.44878 30.592 5.20312 28.7147 5.20312 26.7814C5.20312 24.8053 5.46015 22.8888 5.94552 21.0651C8.4661 11.5187 17.1632 4.48145 27.5025 4.48145C39.8188 4.48236 49.8029 14.4664 49.8029 26.7818Z" fill="#586686"/>
<path d="M48.3903 26.7828C48.3903 27.6794 48.3348 28.5623 48.226 29.4298C47.9749 31.4077 47.4459 33.301 46.6821 35.0646C46.6821 35.0646 46.6821 35.0674 46.6794 35.0701C43.4747 42.4844 36.0922 47.6725 27.5006 47.6725C17.7749 47.6725 9.60725 41.0274 7.27773 32.0318V32.0291C6.84149 30.3528 6.61133 28.5942 6.61133 26.7828C6.61133 24.9318 6.85196 23.1364 7.30686 21.4282C9.66822 12.4855 17.8149 5.89355 27.5006 5.89355C39.0376 5.89355 48.3903 15.2462 48.3903 26.7828Z" fill="#A9C1D3"/>
<path d="M48.392 26.7824C48.392 27.679 48.3365 28.5619 48.2278 29.4294C45.6126 15.0106 36.5406 9.97305 22.7427 11.1817C15.413 11.824 10.4155 16.7979 7.30859 21.4282C9.66995 12.4855 17.8167 5.89355 27.5023 5.89355C39.0394 5.8931 48.392 15.2458 48.392 26.7824Z" fill="#C4D8E6"/>
<path opacity="0.43" d="M46.679 35.0705C43.4743 42.4848 36.0918 47.6729 27.5002 47.6729C17.7745 47.6729 9.60686 41.0278 7.27734 32.0322C10.2414 36.4056 17.1695 44.5369 27.5002 44.1479C41.3827 43.6271 46.5202 35.3293 46.679 35.0705Z" fill="#C4D8E6"/>
<mask id="path-9-outside-1_26645_234072" maskUnits="userSpaceOnUse" x="19" y="16.7363" width="16" height="22" fill="black">
<rect fill="white" x="19" y="16.7363" width="16" height="22"/>
<path d="M25.4971 37.0223C24.7517 37.0223 23.9977 36.9183 23.2351 36.7103C22.4724 36.5023 21.7617 36.1903 21.1031 35.7743C20.7564 35.601 20.5137 35.3583 20.3751 35.0463C20.2537 34.717 20.2191 34.3877 20.2711 34.0583C20.3231 33.729 20.4531 33.443 20.6611 33.2003C20.8691 32.9403 21.1291 32.7757 21.4411 32.7063C21.7704 32.6197 22.1431 32.6717 22.5591 32.8623C23.0964 33.157 23.6077 33.365 24.0931 33.4863C24.5957 33.6077 25.0811 33.6683 25.5491 33.6683C26.4677 33.6683 27.2477 33.4603 27.8891 33.0443C28.5304 32.6283 29.0071 32.0043 29.3191 31.1723C29.6484 30.323 29.8131 29.2917 29.8131 28.0783V26.3883H30.1771C30.0384 27.203 29.7524 27.905 29.3191 28.4943C28.8857 29.0837 28.3397 29.5343 27.6811 29.8463C27.0224 30.1583 26.2944 30.3143 25.4971 30.3143C24.4744 30.3143 23.5557 30.063 22.7411 29.5603C21.9264 29.0403 21.2851 28.3297 20.8171 27.4283C20.3491 26.527 20.1151 25.513 20.1151 24.3863C20.1151 23.173 20.3751 22.0983 20.8951 21.1623C21.4151 20.209 22.1431 19.4637 23.0791 18.9263C24.0151 18.389 25.0897 18.1203 26.3031 18.1203C27.8804 18.1203 29.2064 18.4843 30.2811 19.2123C31.3731 19.923 32.2051 20.9717 32.7771 22.3583C33.3491 23.7277 33.6351 25.383 33.6351 27.3243C33.6351 28.867 33.4444 30.2363 33.0631 31.4323C32.6991 32.6283 32.1704 33.6423 31.4771 34.4743C30.7837 35.3063 29.9257 35.939 28.9031 36.3723C27.8977 36.8057 26.7624 37.0223 25.4971 37.0223ZM26.5371 27.1683C27.0744 27.1683 27.5424 27.047 27.9411 26.8043C28.3571 26.5443 28.6777 26.189 28.9031 25.7383C29.1284 25.2877 29.2411 24.7763 29.2411 24.2043C29.2411 23.615 29.1284 23.095 28.9031 22.6443C28.6777 22.1937 28.3571 21.847 27.9411 21.6043C27.5424 21.3617 27.0744 21.2403 26.5371 21.2403C25.9997 21.2403 25.5317 21.3617 25.1331 21.6043C24.7344 21.847 24.4137 22.1937 24.1711 22.6443C23.9457 23.095 23.8331 23.615 23.8331 24.2043C23.8331 24.7763 23.9457 25.2877 24.1711 25.7383C24.4137 26.189 24.7344 26.5443 25.1331 26.8043C25.5317 27.047 25.9997 27.1683 26.5371 27.1683Z"/>
</mask>
<path d="M25.4971 37.0223C24.7517 37.0223 23.9977 36.9183 23.2351 36.7103C22.4724 36.5023 21.7617 36.1903 21.1031 35.7743C20.7564 35.601 20.5137 35.3583 20.3751 35.0463C20.2537 34.717 20.2191 34.3877 20.2711 34.0583C20.3231 33.729 20.4531 33.443 20.6611 33.2003C20.8691 32.9403 21.1291 32.7757 21.4411 32.7063C21.7704 32.6197 22.1431 32.6717 22.5591 32.8623C23.0964 33.157 23.6077 33.365 24.0931 33.4863C24.5957 33.6077 25.0811 33.6683 25.5491 33.6683C26.4677 33.6683 27.2477 33.4603 27.8891 33.0443C28.5304 32.6283 29.0071 32.0043 29.3191 31.1723C29.6484 30.323 29.8131 29.2917 29.8131 28.0783V26.3883H30.1771C30.0384 27.203 29.7524 27.905 29.3191 28.4943C28.8857 29.0837 28.3397 29.5343 27.6811 29.8463C27.0224 30.1583 26.2944 30.3143 25.4971 30.3143C24.4744 30.3143 23.5557 30.063 22.7411 29.5603C21.9264 29.0403 21.2851 28.3297 20.8171 27.4283C20.3491 26.527 20.1151 25.513 20.1151 24.3863C20.1151 23.173 20.3751 22.0983 20.8951 21.1623C21.4151 20.209 22.1431 19.4637 23.0791 18.9263C24.0151 18.389 25.0897 18.1203 26.3031 18.1203C27.8804 18.1203 29.2064 18.4843 30.2811 19.2123C31.3731 19.923 32.2051 20.9717 32.7771 22.3583C33.3491 23.7277 33.6351 25.383 33.6351 27.3243C33.6351 28.867 33.4444 30.2363 33.0631 31.4323C32.6991 32.6283 32.1704 33.6423 31.4771 34.4743C30.7837 35.3063 29.9257 35.939 28.9031 36.3723C27.8977 36.8057 26.7624 37.0223 25.4971 37.0223ZM26.5371 27.1683C27.0744 27.1683 27.5424 27.047 27.9411 26.8043C28.3571 26.5443 28.6777 26.189 28.9031 25.7383C29.1284 25.2877 29.2411 24.7763 29.2411 24.2043C29.2411 23.615 29.1284 23.095 28.9031 22.6443C28.6777 22.1937 28.3571 21.847 27.9411 21.6043C27.5424 21.3617 27.0744 21.2403 26.5371 21.2403C25.9997 21.2403 25.5317 21.3617 25.1331 21.6043C24.7344 21.847 24.4137 22.1937 24.1711 22.6443C23.9457 23.095 23.8331 23.615 23.8331 24.2043C23.8331 24.7763 23.9457 25.2877 24.1711 25.7383C24.4137 26.189 24.7344 26.5443 25.1331 26.8043C25.5317 27.047 25.9997 27.1683 26.5371 27.1683Z" fill="white"/>
<path d="M23.2351 36.7103L22.972 37.6751L23.2351 36.7103ZM21.1031 35.7743L21.6371 34.9288L21.5949 34.9022L21.5503 34.8799L21.1031 35.7743ZM20.3751 35.0463L19.4367 35.392L19.448 35.4226L19.4613 35.4525L20.3751 35.0463ZM20.2711 34.0583L19.2833 33.9024H19.2833L20.2711 34.0583ZM20.6611 33.2003L21.4203 33.8511L21.4314 33.8383L21.4419 33.825L20.6611 33.2003ZM21.4411 32.7063L21.658 33.6825L21.6769 33.6783L21.6956 33.6734L21.4411 32.7063ZM22.5591 32.8623L23.0399 31.9855L23.0084 31.9682L22.9757 31.9533L22.5591 32.8623ZM24.0931 33.4863L23.8505 34.4565L23.8584 34.4584L24.0931 33.4863ZM27.8891 33.0443L28.4333 33.8833L27.8891 33.0443ZM29.3191 31.1723L28.3867 30.8108L28.3827 30.8212L29.3191 31.1723ZM29.8131 26.3883V25.3883H28.8131V26.3883H29.8131ZM30.1771 26.3883L31.1629 26.5561L31.3617 25.3883H30.1771V26.3883ZM29.3191 28.4943L30.1247 29.0867V29.0867L29.3191 28.4943ZM27.6811 29.8463L27.253 28.9426H27.253L27.6811 29.8463ZM22.7411 29.5603L22.203 30.4032L22.2095 30.4074L22.216 30.4114L22.7411 29.5603ZM20.8171 27.4283L19.9296 27.8891H19.9296L20.8171 27.4283ZM20.8951 21.1623L21.7693 21.648L21.773 21.6412L20.8951 21.1623ZM23.0791 18.9263L22.5812 18.0591V18.0591L23.0791 18.9263ZM30.2811 19.2123L29.7202 20.0402L29.7279 20.0454L29.7356 20.0505L30.2811 19.2123ZM32.7771 22.3583L31.8526 22.7397L31.8543 22.7438L32.7771 22.3583ZM33.0631 31.4323L32.1103 31.1285L32.1064 31.1412L33.0631 31.4323ZM31.4771 34.4743L32.2453 35.1145V35.1145L31.4771 34.4743ZM28.9031 36.3723L28.5129 35.4516L28.5072 35.454L28.9031 36.3723ZM27.9411 26.8043L28.4611 27.6586L28.4711 27.6523L27.9411 26.8043ZM28.9031 25.7383L29.7975 26.1855V26.1855L28.9031 25.7383ZM28.9031 22.6443L29.7975 22.1971V22.1971L28.9031 22.6443ZM27.9411 21.6043L27.4211 22.4585L27.4291 22.4634L27.4372 22.4681L27.9411 21.6043ZM24.1711 22.6443L23.2906 22.1702L23.2834 22.1836L23.2767 22.1971L24.1711 22.6443ZM24.1711 25.7383L23.2767 26.1855L23.2834 26.1991L23.2906 26.2124L24.1711 25.7383ZM25.1331 26.8043L24.5868 27.6419L24.5998 27.6504L24.6131 27.6585L25.1331 26.8043ZM25.4971 36.0223C24.8458 36.0223 24.1803 35.9316 23.4982 35.7456L22.972 37.6751C23.8152 37.9051 24.6576 38.0223 25.4971 38.0223V36.0223ZM23.4982 35.7456C22.8298 35.5633 22.2106 35.2911 21.6371 34.9288L20.5691 36.6198C21.3129 37.0896 22.115 37.4414 22.972 37.6751L23.4982 35.7456ZM21.5503 34.8799C21.3814 34.7955 21.3207 34.7118 21.2889 34.6402L19.4613 35.4525C19.7068 36.0049 20.1314 36.4065 20.6559 36.6688L21.5503 34.8799ZM21.3134 34.7006C21.2479 34.5228 21.2349 34.3659 21.2588 34.2143L19.2833 33.9024C19.2033 34.4094 19.2596 34.9112 19.4367 35.392L21.3134 34.7006ZM21.2588 34.2143C21.2833 34.0596 21.3382 33.947 21.4203 33.8511L19.9018 32.5495C19.568 32.939 19.3629 33.3984 19.2833 33.9024L21.2588 34.2143ZM21.4419 33.825C21.514 33.735 21.5784 33.7002 21.658 33.6825L21.2241 31.7301C20.6798 31.8511 20.2242 32.1456 19.8802 32.5756L21.4419 33.825ZM21.6956 33.6734C21.7347 33.6631 21.8643 33.6439 22.1424 33.7714L22.9757 31.9533C22.4219 31.6994 21.8061 31.5762 21.1866 31.7393L21.6956 33.6734ZM22.0782 33.7391C22.6745 34.0661 23.266 34.3103 23.8505 34.4565L24.3356 32.5162C23.9495 32.4197 23.5183 32.2479 23.0399 31.9855L22.0782 33.7391ZM23.8584 34.4584C24.43 34.5964 24.9943 34.6683 25.5491 34.6683V32.6683C25.1679 32.6683 24.7615 32.6189 24.3277 32.5142L23.8584 34.4584ZM25.5491 34.6683C26.6215 34.6683 27.5997 34.424 28.4333 33.8833L27.3449 32.2054C26.8958 32.4967 26.314 32.6683 25.5491 32.6683V34.6683ZM28.4333 33.8833C29.2822 33.3326 29.8809 32.5221 30.2554 31.5235L28.3827 30.8212C28.1332 31.4866 27.7786 31.924 27.3449 32.2054L28.4333 33.8833ZM30.2514 31.5339C30.6376 30.538 30.8131 29.3766 30.8131 28.0783H28.8131C28.8131 29.2067 28.6592 30.108 28.3867 30.8108L30.2514 31.5339ZM30.8131 28.0783V26.3883H28.8131V28.0783H30.8131ZM29.8131 27.3883H30.1771V25.3883H29.8131V27.3883ZM29.1913 26.2205C29.0753 26.9016 28.8431 27.4536 28.5134 27.9019L30.1247 29.0867C30.6617 28.3564 31.0015 27.5043 31.1629 26.5561L29.1913 26.2205ZM28.5134 27.9019C28.1778 28.3583 27.7614 28.7018 27.253 28.9426L28.1092 30.7501C28.9181 30.3669 29.5936 29.809 30.1247 29.0867L28.5134 27.9019ZM27.253 28.9426C26.7403 29.1854 26.1605 29.3143 25.4971 29.3143V31.3143C26.4284 31.3143 27.3045 31.1312 28.1092 30.7501L27.253 28.9426ZM25.4971 29.3143C24.6467 29.3143 23.9121 29.1079 23.2662 28.7093L22.216 30.4114C23.1993 31.0181 24.3022 31.3143 25.4971 31.3143V29.3143ZM23.2791 28.7174C22.6201 28.2968 22.0959 27.7212 21.7046 26.9675L19.9296 27.8891C20.4742 28.9381 21.2327 29.7839 22.203 30.4032L23.2791 28.7174ZM21.7046 26.9675C21.3183 26.2236 21.1151 25.3704 21.1151 24.3863H19.1151C19.1151 25.6556 19.3799 26.8304 19.9296 27.8891L21.7046 26.9675ZM21.1151 24.3863C21.1151 23.32 21.3422 22.4165 21.7692 21.648L20.0209 20.6767C19.4079 21.7801 19.1151 23.026 19.1151 24.3863H21.1151ZM21.773 21.6412C22.2052 20.8489 22.8021 20.2384 23.5769 19.7936L22.5812 18.0591C21.4841 18.6889 20.625 19.5691 20.0172 20.6835L21.773 21.6412ZM23.5769 19.7936C24.3433 19.3536 25.2423 19.1203 26.3031 19.1203V17.1203C24.9372 17.1203 23.6868 17.4244 22.5812 18.0591L23.5769 19.7936ZM26.3031 19.1203C27.724 19.1203 28.8438 19.4466 29.7202 20.0402L30.8419 18.3844C29.569 17.5221 28.0368 17.1203 26.3031 17.1203V19.1203ZM29.7356 20.0505C30.6333 20.6347 31.3458 21.5109 31.8526 22.7397L33.7015 21.977C33.0644 20.4324 32.1129 19.2113 30.8265 18.3742L29.7356 20.0505ZM31.8543 22.7438C32.3623 23.9597 32.6351 25.4765 32.6351 27.3243H34.6351C34.6351 25.2895 34.3359 23.4957 33.6998 21.9729L31.8543 22.7438ZM32.6351 27.3243C32.6351 28.7866 32.4541 30.0503 32.1103 31.1286L34.0158 31.7361C34.4347 30.4224 34.6351 28.9474 34.6351 27.3243H32.6351ZM32.1064 31.1412C31.7753 32.2289 31.3045 33.1193 30.7089 33.8341L32.2453 35.1145C33.0363 34.1653 33.6228 33.0277 34.0198 31.7235L32.1064 31.1412ZM30.7089 33.8341C30.1201 34.5407 29.3929 35.0787 28.5129 35.4516L29.2932 37.2931C30.4586 36.7993 31.4474 36.072 32.2453 35.1145L30.7089 33.8341ZM28.5072 35.454C27.6449 35.8257 26.6473 36.0223 25.4971 36.0223V38.0223C26.8775 38.0223 28.1506 37.7856 29.2989 37.2907L28.5072 35.454ZM26.5371 28.1683C27.2296 28.1683 27.8832 28.0103 28.461 27.6585L27.4211 25.9501C27.2016 26.0837 26.9193 26.1683 26.5371 26.1683V28.1683ZM28.4711 27.6523C29.0475 27.2921 29.4922 26.7961 29.7975 26.1855L28.0087 25.2911C27.8633 25.5819 27.6667 25.7966 27.4111 25.9563L28.4711 27.6523ZM29.7975 26.1855C30.1011 25.5783 30.2411 24.9104 30.2411 24.2043H28.2411C28.2411 24.6422 28.1557 24.997 28.0087 25.2911L29.7975 26.1855ZM30.2411 24.2043C30.2411 23.486 30.1031 22.8084 29.7975 22.1971L28.0087 23.0915C28.1537 23.3816 28.2411 23.744 28.2411 24.2043H30.2411ZM29.7975 22.1971C29.4895 21.581 29.0368 21.0858 28.445 20.7405L27.4372 22.4681C27.6773 22.6082 27.866 22.8063 28.0087 23.0915L29.7975 22.1971ZM28.461 20.7501C27.8832 20.3984 27.2296 20.2403 26.5371 20.2403V22.2403C26.9193 22.2403 27.2016 22.3249 27.4211 22.4585L28.461 20.7501ZM26.5371 20.2403C25.8446 20.2403 25.191 20.3984 24.6131 20.7501L25.653 22.4585C25.8725 22.3249 26.1549 22.2403 26.5371 22.2403V20.2403ZM24.6131 20.7501C24.0482 21.094 23.6091 21.5787 23.2906 22.1702L25.0515 23.1184C25.2183 22.8087 25.4206 22.6 25.653 22.4585L24.6131 20.7501ZM23.2767 22.1971C22.971 22.8084 22.8331 23.486 22.8331 24.2043H24.8331C24.8331 23.744 24.9205 23.3816 25.0655 23.0915L23.2767 22.1971ZM22.8331 24.2043C22.8331 24.9104 22.973 25.5783 23.2767 26.1855L25.0655 25.2911C24.9185 24.997 24.8331 24.6422 24.8331 24.2043H22.8331ZM23.2906 26.2124C23.6064 26.7989 24.0376 27.2838 24.5868 27.6419L25.6793 25.9667C25.4312 25.8049 25.2211 25.5791 25.0515 25.2642L23.2906 26.2124ZM24.6131 27.6585C25.191 28.0103 25.8446 28.1683 26.5371 28.1683V26.1683C26.1549 26.1683 25.8725 26.0837 25.653 25.9501L24.6131 27.6585Z" fill="#4F5E7F" mask="url(#path-9-outside-1_26645_234072)"/>
<defs>
<radialGradient id="paint0_radial_26645_234072" cx="0" cy="0" r="1" gradientUnits="userSpaceOnUse" gradientTransform="translate(27.4975 27.6648) scale(23.0273 23.0272)">
<stop stop-color="#C4D8E6"/>
<stop offset="1" stop-color="#B7CEDE"/>
</radialGradient>
</defs>
</svg>
