<svg width="64" height="64" viewBox="0 0 64 64" fill="none" xmlns="http://www.w3.org/2000/svg">
<rect width="64" height="64" rx="4" fill="#FFDCB3"/>
<path d="M34.0401 47.8601V51.9001C38.0601 51.5001 41.7201 49.9001 44.6801 47.4801L41.8401 44.6201C39.5802 46.3843 36.8848 47.5039 34.0401 47.8601ZM16.0601 32.0001C16.0601 23.9001 22.1201 17.1801 29.9601 16.1401V12.1001C19.9001 13.1601 12.0601 21.6801 12.0601 32.0001C12.0601 42.3201 19.9001 50.8401 29.9601 51.9001V47.8601C22.1201 46.8201 16.0601 40.1001 16.0601 32.0001ZM47.9001 30.0001H51.9401C51.5401 25.9801 49.9401 22.3201 47.5201 19.3601L44.6601 22.2201C46.3801 24.4201 47.5401 27.0801 47.9001 30.0001ZM44.6801 16.5201C41.6449 14.033 37.9441 12.4956 34.0401 12.1001V16.1401C36.9601 16.5001 39.6201 17.6601 41.8401 19.3801L44.6801 16.5201ZM44.6601 41.8001L47.5201 44.6401C50.0104 41.6069 51.5482 37.905 51.9401 34.0001H47.9001C47.5439 36.8449 46.4243 39.5402 44.6601 41.8001Z" fill="#DC8C2F"/>
<path d="M40 30.2C40 25.22 36.2 22 32 22C27.8 22 24 25.22 24 30.2C24 33.52 26.66 37.46 32 42C37.34 37.46 40 33.52 40 30.2ZM32 32C31.4484 31.9761 30.9274 31.7403 30.5455 31.3415C30.1637 30.9428 29.9505 30.4121 29.9505 29.86C29.9505 29.3079 30.1637 28.7772 30.5455 28.3785C30.9274 27.9797 31.4484 27.7439 32 27.72C32.5516 27.7439 33.0726 27.9797 33.4545 28.3785C33.8363 28.7772 34.0495 29.3079 34.0495 29.86C34.0495 30.4121 33.8363 30.9428 33.4545 31.3415C33.0726 31.7403 32.5516 31.9761 32 32Z" fill="#DC8C2F"/>
</svg>
