<svg width="64" height="64" viewBox="0 0 64 64" fill="none" xmlns="http://www.w3.org/2000/svg">
<rect width="64" height="64" rx="4" fill="#E9FAF5"/>
<path d="M32 32C30.8133 32 29.6533 32.3519 28.6666 33.0112C27.6799 33.6705 26.9108 34.6075 26.4567 35.7039C26.0026 36.8003 25.8838 38.0067 26.1153 39.1705C26.3468 40.3344 26.9182 41.4035 27.7574 42.2426C28.5965 43.0818 29.6656 43.6532 30.8295 43.8847C31.9933 44.1162 33.1997 43.9974 34.2961 43.5433C35.3925 43.0892 36.3295 42.3201 36.9888 41.3334C37.6481 40.3467 38 39.1867 38 38C38 36.4087 37.3679 34.8826 36.2426 33.7574C35.1174 32.6321 33.5913 32 32 32ZM32 40C31.6044 40 31.2178 39.8827 30.8889 39.6629C30.56 39.4432 30.3036 39.1308 30.1522 38.7654C30.0009 38.3999 29.9613 37.9978 30.0384 37.6098C30.1156 37.2219 30.3061 36.8655 30.5858 36.5858C30.8655 36.3061 31.2219 36.1156 31.6098 36.0384C31.9978 35.9613 32.3999 36.0009 32.7654 36.1522C33.1308 36.3036 33.4432 36.56 33.6629 36.8889C33.8827 37.2178 34 37.6044 34 38C34 38.5304 33.7893 39.0391 33.4142 39.4142C33.0391 39.7893 32.5304 40 32 40ZM30.58 27.42C30.7702 27.6021 30.9945 27.7448 31.24 27.84C31.4794 27.9458 31.7383 28.0005 32 28.0005C32.2617 28.0005 32.5206 27.9458 32.76 27.84C33.0055 27.7448 33.2298 27.6021 33.42 27.42L38 22.92C38.3872 22.5328 38.6048 22.0076 38.6048 21.46C38.6048 20.9124 38.3872 20.3872 38 20C37.6128 19.6128 37.0876 19.3952 36.54 19.3952C35.9924 19.3952 35.4672 19.6128 35.08 20L34 21.18V14C34 13.4696 33.7893 12.9609 33.4142 12.5858C33.0391 12.2107 32.5304 12 32 12C31.4696 12 30.9609 12.2107 30.5858 12.5858C30.2107 12.9609 30 13.4696 30 14V21.18L28.92 20C28.5328 19.6128 28.0076 19.3952 27.46 19.3952C26.9124 19.3952 26.3872 19.6128 26 20C25.6128 20.3872 25.3952 20.9124 25.3952 21.46C25.3952 22.0076 25.6128 22.5328 26 22.92L30.58 27.42ZM46 38C46 37.6044 45.8827 37.2178 45.6629 36.8889C45.4432 36.56 45.1308 36.3036 44.7654 36.1522C44.3999 36.0009 43.9978 35.9613 43.6098 36.0384C43.2219 36.1156 42.8655 36.3061 42.5858 36.5858C42.3061 36.8655 42.1156 37.2219 42.0384 37.6098C41.9613 37.9978 42.0009 38.3999 42.1522 38.7654C42.3036 39.1308 42.56 39.4432 42.8889 39.6629C43.2178 39.8827 43.6044 40 44 40C44.5304 40 45.0391 39.7893 45.4142 39.4142C45.7893 39.0391 46 38.5304 46 38ZM48 24H42C41.4696 24 40.9609 24.2107 40.5858 24.5858C40.2107 24.9609 40 25.4696 40 26C40 26.5304 40.2107 27.0391 40.5858 27.4142C40.9609 27.7893 41.4696 28 42 28H48C48.5304 28 49.0391 28.2107 49.4142 28.5858C49.7893 28.9609 50 29.4696 50 30V46C50 46.5304 49.7893 47.0391 49.4142 47.4142C49.0391 47.7893 48.5304 48 48 48H16C15.4696 48 14.9609 47.7893 14.5858 47.4142C14.2107 47.0391 14 46.5304 14 46V30C14 29.4696 14.2107 28.9609 14.5858 28.5858C14.9609 28.2107 15.4696 28 16 28H22C22.5304 28 23.0391 27.7893 23.4142 27.4142C23.7893 27.0391 24 26.5304 24 26C24 25.4696 23.7893 24.9609 23.4142 24.5858C23.0391 24.2107 22.5304 24 22 24H16C14.4087 24 12.8826 24.6321 11.7574 25.7574C10.6321 26.8826 10 28.4087 10 30V46C10 47.5913 10.6321 49.1174 11.7574 50.2426C12.8826 51.3679 14.4087 52 16 52H48C49.5913 52 51.1174 51.3679 52.2426 50.2426C53.3679 49.1174 54 47.5913 54 46V30C54 28.4087 53.3679 26.8826 52.2426 25.7574C51.1174 24.6321 49.5913 24 48 24ZM18 38C18 38.3956 18.1173 38.7822 18.3371 39.1111C18.5568 39.44 18.8692 39.6964 19.2346 39.8478C19.6001 39.9991 20.0022 40.0387 20.3902 39.9616C20.7781 39.8844 21.1345 39.6939 21.4142 39.4142C21.6939 39.1345 21.8844 38.7781 21.9616 38.3902C22.0387 38.0022 21.9991 37.6001 21.8478 37.2346C21.6964 36.8692 21.44 36.5568 21.1111 36.3371C20.7822 36.1173 20.3956 36 20 36C19.4696 36 18.9609 36.2107 18.5858 36.5858C18.2107 36.9609 18 37.4696 18 38Z" fill="#8DCABE"/>
</svg>
