<svg width="64" height="64" viewBox="0 0 64 64" fill="none" xmlns="http://www.w3.org/2000/svg">
<rect width="64" height="64" rx="4" fill="#A4EAF9"/>
<path d="M32.0001 29.6002C33.9097 29.6002 35.741 28.8416 37.0913 27.4914C38.4416 26.1411 39.2001 24.3098 39.2001 22.4002C39.2001 20.4906 38.4416 18.6593 37.0913 17.309C35.741 15.9588 33.9097 15.2002 32.0001 15.2002C30.0906 15.2002 28.2592 15.9588 26.909 17.309C25.5587 18.6593 24.8001 20.4906 24.8001 22.4002C24.8001 24.3098 25.5587 26.1411 26.909 27.4914C28.2592 28.8416 30.0906 29.6002 32.0001 29.6002V29.6002ZM22.4001 27.2002C22.4001 28.4732 21.8944 29.6941 20.9942 30.5943C20.0941 31.4945 18.8732 32.0002 17.6001 32.0002C16.3271 32.0002 15.1062 31.4945 14.206 30.5943C13.3058 29.6941 12.8001 28.4732 12.8001 27.2002C12.8001 25.9272 13.3058 24.7063 14.206 23.8061C15.1062 22.9059 16.3271 22.4002 17.6001 22.4002C18.8732 22.4002 20.0941 22.9059 20.9942 23.8061C21.8944 24.7063 22.4001 25.9272 22.4001 27.2002V27.2002ZM11.5761 44.7826C11.1664 44.5497 10.8596 44.1709 10.7169 43.7218C10.2941 42.3522 10.2896 40.8875 10.7042 39.5154C11.1188 38.1432 11.9334 36.926 13.0439 36.0197C14.1544 35.1134 15.5102 34.5591 16.9376 34.4279C18.365 34.2968 19.799 34.5946 21.0561 35.2834C18.4728 37.822 16.856 41.1822 16.4841 44.785C16.4289 45.3178 16.4505 45.8458 16.5441 46.3546C14.7925 46.2031 13.096 45.6663 11.5761 44.7826V44.7826ZM47.4561 46.3522C49.2076 46.2015 50.904 45.6655 52.4241 44.7826C52.8329 44.5493 53.1388 44.1705 53.2809 43.7218C53.7045 42.352 53.7094 40.887 53.2951 39.5144C52.8809 38.1418 52.0662 36.9242 50.9556 36.0175C49.8449 35.1107 48.4889 34.5563 47.0611 34.4251C45.6334 34.2939 44.199 34.5919 42.9417 35.281C45.5273 37.8195 47.1459 41.1808 47.5185 44.785C47.572 45.3085 47.551 45.837 47.4561 46.3546V46.3522ZM51.2001 27.2002C51.2001 28.4732 50.6944 29.6941 49.7942 30.5943C48.8941 31.4945 47.6732 32.0002 46.4001 32.0002C45.1271 32.0002 43.9062 31.4945 43.006 30.5943C42.1058 29.6941 41.6001 28.4732 41.6001 27.2002C41.6001 25.9272 42.1058 24.7063 43.006 23.8061C43.9062 22.9059 45.1271 22.4002 46.4001 22.4002C47.6732 22.4002 48.8941 22.9059 49.7942 23.8061C50.6944 24.7063 51.2001 25.9272 51.2001 27.2002V27.2002ZM20.7297 46.8562C20.493 46.6442 20.3095 46.3795 20.194 46.0835C20.0786 45.7875 20.0343 45.4685 20.0649 45.1522C20.3702 42.1989 21.7594 39.4637 23.9641 37.4752C26.1688 35.4867 29.0323 34.386 32.0013 34.386C34.9703 34.386 37.8339 35.4867 40.0385 37.4752C42.2432 39.4637 43.6325 42.1989 43.9377 45.1522C43.9685 45.4685 43.9244 45.7876 43.8089 46.0836C43.6934 46.3797 43.5098 46.6443 43.2729 46.8562C40.187 49.6569 36.1674 51.2058 32.0001 51.2002C27.8336 51.2055 23.8149 49.6565 20.7297 46.8562V46.8562Z" fill="#2799B1"/>
</svg>
