<svg width="94" height="74" viewBox="0 0 94 74" fill="none" xmlns="http://www.w3.org/2000/svg">
<g clip-path="url(#clip0)">
<path opacity="0.1" d="M18.6643 60.7549C20.4792 60.7549 21.9505 60.2316 21.9505 59.5862C21.9505 58.9407 20.4792 58.4175 18.6643 58.4175C16.8493 58.4175 15.3781 58.9407 15.3781 59.5862C15.3781 60.2316 16.8493 60.7549 18.6643 60.7549Z" fill="black"/>
<path opacity="0.1" d="M71.7537 65.5867C73.5686 65.5867 75.0399 65.0634 75.0399 64.418C75.0399 63.7725 73.5686 63.2493 71.7537 63.2493C69.9387 63.2493 68.4674 63.7725 68.4674 64.418C68.4674 65.0634 69.9387 65.5867 71.7537 65.5867Z" fill="black"/>
<path opacity="0.1" d="M52.9156 23.3462C47.9147 25.2782 42.4939 25.368 37.4586 23.5493C30.3224 20.9723 21.0026 20.3127 17.5492 32.1217C11.6551 52.2971 23.7134 59.4985 23.7134 59.4985C23.7134 59.4985 32.132 61.3859 36.7934 64.7964C43.4148 69.6406 51.5237 71.26 59.1624 68.9883C64.0472 67.5355 68.2339 65.1521 69.4308 61.2523C72.7784 50.3454 70.6533 43.7897 76.7116 40.914C82.77 38.0382 79.399 27.3848 75.0904 27.143C70.7818 26.9012 60.631 29.3723 57.4908 24.4572C56.3713 22.7122 54.6588 22.672 52.9156 23.3462Z" fill="black"/>
<path d="M71.6208 64.5837C71.6208 64.5837 72.4971 61.6006 71.4558 59.4049C71.0123 58.4868 70.8785 57.4495 71.0746 56.4489C71.1714 55.9744 71.3114 55.5099 71.493 55.061" stroke="#535461" stroke-width="0.214656" stroke-miterlimit="10"/>
<path d="M70.8445 53.6739C70.8445 54.0391 71.5062 55.0997 71.5062 55.0997C71.5062 55.0997 72.1678 54.0398 72.1678 53.6739C72.1678 53.4982 72.0981 53.3298 71.9739 53.2057C71.8498 53.0815 71.6814 53.0117 71.5058 53.0117C71.3302 53.0117 71.1619 53.0815 71.0377 53.2057C70.9136 53.3298 70.8438 53.4982 70.8438 53.6739H70.8445Z" fill="#4BAC99"/>
<path d="M69.7507 55.6995C69.9493 56.0063 71.0813 56.5366 71.0813 56.5366C71.0813 56.5366 71.0608 55.2868 70.8622 54.98C70.8149 54.9071 70.7538 54.8442 70.6823 54.7949C70.6107 54.7455 70.5302 54.7108 70.4452 54.6926C70.3602 54.6744 70.2725 54.6732 70.187 54.6889C70.1016 54.7046 70.0201 54.737 69.9471 54.7843C69.8742 54.8315 69.8113 54.8927 69.762 54.9642C69.7127 55.0358 69.678 55.1164 69.6598 55.2014C69.6416 55.2864 69.6403 55.3741 69.6561 55.4596C69.6718 55.545 69.7042 55.6266 69.7514 55.6995H69.7507Z" fill="#4BAC99"/>
<path d="M69.7982 59.1597C70.1246 59.3241 71.369 59.2109 71.369 59.2109C71.369 59.2109 70.7205 58.1422 70.3941 57.9779C70.2374 57.8988 70.0557 57.8853 69.8891 57.9402C69.7224 57.9952 69.5844 58.1141 69.5053 58.2708C69.4263 58.4275 69.4128 58.6092 69.4677 58.7759C69.5226 58.9426 69.6415 59.0807 69.7982 59.1597Z" fill="#4BAC99"/>
<path d="M70.424 61.7702C70.7161 61.9894 71.9634 62.0858 71.9634 62.0858C71.9634 62.0858 71.5048 60.9229 71.2112 60.706C71.0701 60.6016 70.8933 60.5575 70.7197 60.5835C70.5461 60.6094 70.39 60.7033 70.2856 60.8444C70.1812 60.9855 70.1371 61.1624 70.1631 61.336C70.189 61.5096 70.2829 61.6658 70.424 61.7702Z" fill="#4BAC99"/>
<path d="M72.4701 56.6074C72.2079 56.8624 70.9862 57.1261 70.9862 57.1261C70.9862 57.1261 71.2856 55.9128 71.5478 55.6579C71.6737 55.5355 71.843 55.4682 72.0185 55.4708C72.194 55.4733 72.3613 55.5455 72.4836 55.6714C72.6059 55.7973 72.6732 55.9667 72.6707 56.1422C72.6682 56.3178 72.596 56.4851 72.4701 56.6074Z" fill="#4BAC99"/>
<path d="M73.1633 59.6688C72.8368 59.8331 71.5924 59.7199 71.5924 59.7199C71.5924 59.7199 72.2409 58.6513 72.5674 58.4906C72.724 58.4115 72.9057 58.398 73.0724 58.4529C73.239 58.5079 73.3771 58.6268 73.4561 58.7835C73.5351 58.9402 73.5487 59.1219 73.4937 59.2886C73.4388 59.4553 73.3199 59.5934 73.1633 59.6724V59.6688Z" fill="#4BAC99"/>
<path d="M73.4282 62.7373C73.1361 62.9564 71.8888 63.0528 71.8888 63.0528C71.8888 63.0528 72.3474 61.89 72.6409 61.673C72.782 61.5686 72.9588 61.5245 73.1324 61.5505C73.306 61.5765 73.4622 61.6703 73.5666 61.8115C73.671 61.9526 73.715 62.1294 73.6891 62.303C73.6631 62.4767 73.5693 62.6329 73.4282 62.7373Z" fill="#4BAC99"/>
<path d="M18.6657 59.5949C18.6657 59.5949 20.5418 53.2314 18.3152 48.542C17.3804 46.5749 17.0737 44.3675 17.5024 42.2332C17.709 41.2209 18.008 40.2297 18.3955 39.272" stroke="#535461" stroke-width="0.214656" stroke-miterlimit="10"/>
<path d="M17.0102 36.3099C17.0102 37.09 18.4225 39.3529 18.4225 39.3529C18.4225 39.3529 19.8341 37.0885 19.8341 36.3099C19.8341 35.9352 19.6853 35.5759 19.4205 35.311C19.1556 35.0461 18.7964 34.8972 18.4218 34.8972C18.0472 34.8972 17.688 35.0461 17.4231 35.311C17.1582 35.5759 17.0094 35.9352 17.0094 36.3099H17.0102Z" fill="#4BAC99"/>
<path d="M14.6756 40.632C15.0999 41.2894 17.5149 42.4186 17.5149 42.4186C17.5149 42.4186 17.4711 39.7511 17.0468 39.0966C16.8392 38.7917 16.5207 38.5801 16.1592 38.507C15.7977 38.4339 15.422 38.5052 15.1124 38.7055C14.8027 38.9058 14.5837 39.2193 14.502 39.579C14.4204 39.9387 14.4827 40.3161 14.6756 40.6305V40.632Z" fill="#4BAC99"/>
<path d="M14.777 48.0183C15.4737 48.3696 18.1297 48.1271 18.1297 48.1271C18.1297 48.1271 16.7422 45.8467 16.0492 45.4975C15.8836 45.414 15.7031 45.3639 15.5181 45.3501C15.3332 45.3363 15.1473 45.3591 14.9711 45.4172C14.7949 45.4752 14.6319 45.5674 14.4913 45.6885C14.3508 45.8096 14.2355 45.9571 14.1519 46.1228C14.0684 46.2885 14.0183 46.469 14.0045 46.654C13.9907 46.839 14.0135 47.0249 14.0716 47.2011C14.1888 47.557 14.4426 47.8517 14.777 48.0205V48.0183Z" fill="#4BAC99"/>
<path d="M16.1098 53.5893C16.7371 54.0531 19.396 54.2628 19.396 54.2628C19.396 54.2628 18.4175 51.7793 17.7894 51.3176C17.4883 51.0949 17.1109 51.0009 16.7405 51.0564C16.37 51.1118 16.0368 51.3122 15.814 51.6135C15.5913 51.9147 15.4973 52.2921 15.5528 52.6627C15.6083 53.0332 15.8086 53.3665 16.1098 53.5893Z" fill="#4BAC99"/>
<path d="M20.4805 42.5669C19.9211 43.1104 17.3141 43.6735 17.3141 43.6735C17.3141 43.6735 17.9523 41.0834 18.5117 40.54C18.7804 40.2784 19.142 40.1344 19.5169 40.1395C19.8918 40.1447 20.2494 40.2986 20.5108 40.5674C20.7723 40.8362 20.9163 41.1978 20.9112 41.5728C20.906 41.9478 20.7522 42.3054 20.4834 42.5669H20.4805Z" fill="#4BAC99"/>
<path d="M21.9593 49.105C21.2627 49.4563 18.6067 49.2138 18.6067 49.2138C18.6067 49.2138 19.9942 46.9334 20.6872 46.5842C20.8528 46.5007 21.0333 46.4506 21.2183 46.4368C21.4032 46.423 21.5891 46.4458 21.7653 46.5038C21.9415 46.5619 22.1045 46.6541 22.245 46.7752C22.3856 46.8962 22.5009 47.0438 22.5845 47.2095C22.668 47.3751 22.7181 47.5556 22.7319 47.7406C22.7457 47.9257 22.7229 48.1116 22.6648 48.2878C22.6068 48.464 22.5146 48.6271 22.3936 48.7677C22.2725 48.9082 22.125 49.0236 21.9593 49.1072V49.105Z" fill="#4BAC99"/>
<path d="M22.5252 55.654C21.8979 56.1178 19.2389 56.3275 19.2389 56.3275C19.2389 56.3275 20.2175 53.844 20.8455 53.3823C21.1467 53.1596 21.524 53.0656 21.8945 53.121C22.2649 53.1765 22.5982 53.3769 22.8209 53.6782C23.0436 53.9794 23.1376 54.3568 23.0822 54.7274C23.0267 55.0979 22.8263 55.4312 22.5252 55.654Z" fill="#4BAC99"/>
<path d="M41.6883 43.8978L37.6185 43.3704C37.4534 43.3492 37.3264 43.2864 37.3307 43.2316C37.338 43.1768 37.4768 43.1512 37.6455 43.1753L41.7065 43.7634C41.8183 43.7794 41.903 43.8218 41.8979 43.859C41.8928 43.8941 41.7993 43.9124 41.6883 43.8978Z" fill="#4BAC99"/>
<path d="M41.7139 43.9673L37.6317 43.5451C37.4659 43.5283 37.325 43.559 37.3199 43.6138C37.3148 43.6686 37.4469 43.7263 37.612 43.7409L41.7015 44.1061C41.814 44.1163 41.906 44.0944 41.9096 44.0572C41.9126 44.0177 41.8257 43.979 41.7139 43.9673Z" fill="#4BAC99"/>
<path d="M47.838 47.0386L51.9071 46.5112C52.0722 46.4901 52.1992 46.4272 52.1949 46.3725C52.1875 46.3177 52.0488 46.2921 51.8801 46.3162L47.8191 46.9042C47.7073 46.9203 47.6226 46.9627 47.6277 46.9999C47.6328 47.035 47.7263 47.0532 47.838 47.0386Z" fill="#4BAC99"/>
<path d="M47.8118 47.1082L51.894 46.686C52.0598 46.6692 52.2007 46.6999 52.2058 46.7547C52.2109 46.8094 52.0788 46.8671 51.9137 46.8818L47.8242 47.247C47.7117 47.2572 47.6197 47.2353 47.616 47.198C47.6131 47.1586 47.7 47.1199 47.8118 47.1082Z" fill="#4BAC99"/>
<path d="M34.3768 51.4104H33.3843V65.6437H34.3768V51.4104Z" fill="#40414D"/>
<path d="M56.0528 51.4104H55.0604V65.6437H56.0528V51.4104Z" fill="#40414D"/>
<path d="M33.0054 50.252H55.936C56.3621 50.252 56.7708 50.4213 57.0721 50.7226C57.3734 51.024 57.5427 51.4327 57.5427 51.8589V52.0722H31.3988V51.8589C31.3988 51.4327 31.5681 51.024 31.8694 50.7226C32.1707 50.4213 32.5793 50.252 33.0054 50.252Z" fill="#DFE6F5"/>
<path opacity="0.1" d="M32.9323 50.252H55.8629C56.289 50.252 56.6977 50.4213 56.999 50.7226C57.3003 51.024 57.4695 51.4327 57.4695 51.8589V52.0722H31.3257V51.8589C31.3257 51.4327 31.495 51.024 31.7963 50.7226C32.0976 50.4213 32.5062 50.252 32.9323 50.252Z" fill="black"/>
<path d="M33.0054 49.9204H55.936C56.3621 49.9204 56.7708 50.0897 57.0721 50.3911C57.3734 50.6924 57.5427 51.1012 57.5427 51.5274V51.7407H31.3988V51.5274C31.3988 51.1012 31.5681 50.6924 31.8694 50.3911C32.1707 50.0897 32.5793 49.9204 33.0054 49.9204Z" fill="#DFE6F5"/>
<path d="M44.4708 48.7619C45.5674 48.7619 46.4564 47.8727 46.4564 46.7759C46.4564 45.679 45.5674 44.7898 44.4708 44.7898C43.3741 44.7898 42.4851 45.679 42.4851 46.7759C42.4851 47.8727 43.3741 48.7619 44.4708 48.7619Z" fill="#FFD77C" stroke="#FFAB50" stroke-width="0.107328" stroke-miterlimit="10"/>
<path d="M44.4707 48.3498C45.3399 48.3498 46.0445 47.6451 46.0445 46.7758C46.0445 45.9064 45.3399 45.2017 44.4707 45.2017C43.6016 45.2017 42.897 45.9064 42.897 46.7758C42.897 47.6451 43.6016 48.3498 44.4707 48.3498Z" fill="#FFD77C" stroke="#FFAB50" stroke-width="0.107328" stroke-miterlimit="10"/>
<path d="M44.4706 47.9749C45.1329 47.9749 45.6697 47.4379 45.6697 46.7756C45.6697 46.1132 45.1329 45.5762 44.4706 45.5762C43.8084 45.5762 43.2715 46.1132 43.2715 46.7756C43.2715 47.4379 43.8084 47.9749 44.4706 47.9749Z" fill="#FFD77C" stroke="#FFAB50" stroke-width="0.107328" stroke-miterlimit="10"/>
<path d="M44.4708 47.45C44.843 47.45 45.1448 47.1481 45.1448 46.7758C45.1448 46.4034 44.843 46.1016 44.4708 46.1016C44.0985 46.1016 43.7967 46.4034 43.7967 46.7758C43.7967 47.1481 44.0985 47.45 44.4708 47.45Z" fill="#FFD77C" stroke="#FFAB50" stroke-width="0.107328" stroke-miterlimit="10"/>
<path d="M43.3125 49.8378C44.4091 49.8378 45.2981 48.9487 45.2981 47.8518C45.2981 46.7549 44.4091 45.8657 43.3125 45.8657C42.2158 45.8657 41.3268 46.7549 41.3268 47.8518C41.3268 48.9487 42.2158 49.8378 43.3125 49.8378Z" fill="#FFD77C" stroke="#FFAB50" stroke-width="0.107328" stroke-miterlimit="10"/>
<path d="M43.3125 49.4258C44.1816 49.4258 44.8862 48.721 44.8862 47.8517C44.8862 46.9823 44.1816 46.2776 43.3125 46.2776C42.4433 46.2776 41.7387 46.9823 41.7387 47.8517C41.7387 48.721 42.4433 49.4258 43.3125 49.4258Z" fill="#FFD77C" stroke="#FFAB50" stroke-width="0.107328" stroke-miterlimit="10"/>
<path d="M43.3126 49.0511C43.9748 49.0511 44.5117 48.5141 44.5117 47.8517C44.5117 47.1893 43.9748 46.6523 43.3126 46.6523C42.6503 46.6523 42.1135 47.1893 42.1135 47.8517C42.1135 48.5141 42.6503 49.0511 43.3126 49.0511Z" fill="#FFD77C" stroke="#FFAB50" stroke-width="0.107328" stroke-miterlimit="10"/>
<path d="M43.3125 48.5259C43.6848 48.5259 43.9865 48.224 43.9865 47.8517C43.9865 47.4793 43.6848 47.1775 43.3125 47.1775C42.9402 47.1775 42.6385 47.4793 42.6385 47.8517C42.6385 48.224 42.9402 48.5259 43.3125 48.5259Z" fill="#FFD77C" stroke="#FFAB50" stroke-width="0.107328" stroke-miterlimit="10"/>
<path d="M45.6288 49.8378C46.7255 49.8378 47.6144 48.9487 47.6144 47.8518C47.6144 46.7549 46.7255 45.8657 45.6288 45.8657C44.5322 45.8657 43.6432 46.7549 43.6432 47.8518C43.6432 48.9487 44.5322 49.8378 45.6288 49.8378Z" fill="#FFD77C" stroke="#FFAB50" stroke-width="0.107328" stroke-miterlimit="10"/>
<path d="M45.6288 49.4258C46.498 49.4258 47.2026 48.721 47.2026 47.8517C47.2026 46.9823 46.498 46.2776 45.6288 46.2776C44.7597 46.2776 44.0551 46.9823 44.0551 47.8517C44.0551 48.721 44.7597 49.4258 45.6288 49.4258Z" fill="#FFD77C" stroke="#FFAB50" stroke-width="0.107328" stroke-miterlimit="10"/>
<path d="M45.6289 49.0511C46.2912 49.0511 46.828 48.5141 46.828 47.8517C46.828 47.1893 46.2912 46.6523 45.6289 46.6523C44.9667 46.6523 44.4298 47.1893 44.4298 47.8517C44.4298 48.5141 44.9667 49.0511 45.6289 49.0511Z" fill="#FFD77C" stroke="#FFAB50" stroke-width="0.107328" stroke-miterlimit="10"/>
<path d="M45.6288 48.5259C46.0011 48.5259 46.3029 48.224 46.3029 47.8517C46.3029 47.4793 46.0011 47.1775 45.6288 47.1775C45.2566 47.1775 44.9548 47.4793 44.9548 47.8517C44.9548 48.224 45.2566 48.5259 45.6288 48.5259Z" fill="#FFD77C" stroke="#FFAB50" stroke-width="0.107328" stroke-miterlimit="10"/>
<path d="M40.3336 47.2732H48.6069V47.6618C48.6069 48.0455 48.5313 48.4254 48.3845 48.7799C48.2377 49.1344 48.0226 49.4565 47.7513 49.7278C47.4801 49.9991 47.1581 50.2143 46.8037 50.3611C46.4492 50.508 46.0694 50.5835 45.6858 50.5835H43.2547C42.8711 50.5835 42.4913 50.508 42.1369 50.3611C41.7825 50.2143 41.4604 49.9991 41.1892 49.7278C40.9179 49.4565 40.7028 49.1344 40.556 48.7799C40.4092 48.4254 40.3336 48.0455 40.3336 47.6618V47.2732Z" fill="#4BAC99"/>
<path opacity="0.1" d="M47.8605 47.2725C47.839 48.1356 47.4811 48.9561 46.8632 49.559C46.2453 50.1619 45.4163 50.4994 44.5531 50.4995H42.9107C43.1503 50.5543 43.3953 50.5822 43.641 50.5828H45.2958C45.7306 50.583 46.1611 50.4975 46.5628 50.3312C46.9645 50.165 47.3295 49.9212 47.637 49.6137C47.9445 49.3063 48.1884 48.9413 48.3548 48.5396C48.5212 48.1379 48.6069 47.7073 48.6069 47.2725H47.8605Z" fill="black"/>
<path d="M55.5571 63.2436V62.251H34.0461V63.2436H55.5571Z" fill="#40414D"/>
<path d="M25.9808 58.7842H25.1125V66.6861H25.9808V58.7842Z" fill="#40414D"/>
<path d="M32.8388 58.7842H31.9705V66.6861H32.8388V58.7842Z" fill="#40414D"/>
<path d="M33.5341 57.4818C33.5341 58.0092 31.7464 58.4372 29.5409 58.4372C27.3355 58.4372 25.6347 58.0099 25.6347 57.4818C25.6347 56.9537 27.3355 56.5264 29.5409 56.5264C31.7464 56.5264 33.5341 56.9566 33.5341 57.4818Z" fill="#F6C6CD"/>
<path d="M24.4181 57.481H33.5333V58.2771C33.5333 58.4805 33.4526 58.6756 33.3088 58.8195C33.165 58.9633 32.9699 59.0441 32.7666 59.0441H25.7326C25.3839 59.0441 25.0496 58.9056 24.8031 58.659C24.5566 58.4124 24.4181 58.078 24.4181 57.7293V57.481Z" fill="#40414D"/>
<path d="M22.8702 48.3449L23.0583 48.3024C23.1905 48.2725 23.3292 48.2965 23.4438 48.3689C23.5585 48.4413 23.6396 48.5563 23.6695 48.6886L25.946 58.7763L25.6611 58.8406C25.4219 58.8946 25.1711 58.8514 24.9638 58.7204C24.7565 58.5894 24.6097 58.3815 24.5557 58.1422L22.4827 48.9565C22.4679 48.8909 22.4662 48.823 22.4777 48.7567C22.4891 48.6904 22.5136 48.6271 22.5496 48.5703C22.5856 48.5134 22.6324 48.4643 22.6874 48.4256C22.7425 48.3869 22.8046 48.3595 22.8702 48.3449Z" fill="#40414D"/>
<path d="M63.1058 66.8262H63.9741V58.9243H63.1058V66.8262Z" fill="#40414D"/>
<path d="M56.2479 66.8262H57.1161V58.9243H56.2479V66.8262Z" fill="#40414D"/>
<path d="M55.5541 57.6222C55.5541 58.1495 57.3418 58.5776 59.5472 58.5776C61.7526 58.5776 63.4535 58.1503 63.4535 57.6222C63.4535 57.094 61.7519 56.6646 59.5472 56.6646C57.3425 56.6646 55.5541 57.0948 55.5541 57.6222Z" fill="#F6C6CD"/>
<path d="M63.3541 59.1853H56.3201C56.1167 59.1853 55.9217 59.1045 55.7779 58.9607C55.6341 58.8168 55.5533 58.6218 55.5533 58.4183V57.6222H64.6686V57.8705C64.6686 58.2192 64.5301 58.5536 64.2836 58.8002C64.0371 59.0468 63.7027 59.1853 63.3541 59.1853Z" fill="#40414D"/>
<path d="M63.427 58.9808L63.1421 58.9165L65.419 48.8273C65.4488 48.695 65.53 48.58 65.6446 48.5076C65.7592 48.4352 65.8979 48.4113 66.0302 48.4411L66.2182 48.4836C66.3505 48.5134 66.4654 48.5946 66.5378 48.7093C66.6102 48.8239 66.6342 48.9626 66.6043 49.0949L64.531 58.282C64.4771 58.521 64.3305 58.7288 64.1235 58.8599C63.9165 58.9909 63.666 59.0344 63.427 58.9808Z" fill="#40414D"/>
<path d="M63.7361 54.5461L63.9924 54.465C63.9924 54.465 63.5542 51.5374 63.5586 48.9137C63.5586 48.8407 63.5586 48.7625 63.5586 48.6873C63.5637 48.5236 63.5696 48.3615 63.5776 48.203C63.5878 47.9999 63.59 47.8064 63.5886 47.6186C63.6127 45.0921 62.6173 44.0249 62.6173 44.0249C62.6173 44.0249 61.4488 42.358 60.7485 42.0337C60.6879 41.8438 60.6185 41.5998 60.5572 41.3164C60.5798 41.3011 60.6017 41.2857 60.6229 41.2697C60.9121 41.0551 61.1889 40.8241 61.4518 40.5779C61.8111 40.2412 62.1558 39.8307 62.1368 39.3676C62.1387 39.3225 62.1373 39.2773 62.1324 39.2325C62.0659 38.6737 61.4854 38.253 61.2509 37.7234C61.0538 37.2786 61.1129 36.7833 60.9406 36.3319C60.7682 35.8805 60.1665 35.4605 59.7123 35.6979C59.545 35.7855 59.4442 35.9404 59.3048 36.058C58.9586 36.3502 58.4007 36.3772 57.9275 36.2443C57.4542 36.1113 57.314 35.5693 56.6524 35.5679C56.7111 35.5876 56.7673 35.6143 56.8196 35.6475C56.7644 35.6382 56.7084 35.6333 56.6524 35.6329C56.787 35.6755 56.9063 35.7562 56.996 35.8652C57.0857 35.9742 57.1419 36.1069 57.1578 36.2472C57.1567 36.2648 57.1548 36.2824 57.1519 36.2998C56.8876 36.4422 56.5399 36.3611 56.223 36.356C55.9061 36.3509 55.5453 36.5109 55.5767 36.7702C55.5714 36.7996 55.5714 36.8298 55.5767 36.8593C55.6183 37.0558 55.8812 37.2041 55.9134 37.3859C55.9134 37.391 55.9134 37.3954 55.9134 37.4005C55.3268 37.6937 54.6923 37.8788 54.0402 37.9469C54.019 37.9469 54.0285 37.9725 54.0592 38.0097H54.0402C53.9212 38.0221 54.7537 38.6803 54.8486 38.7234C55.1962 38.8811 55.6118 38.9973 55.9798 39.1185L56.012 39.1288C55.8879 39.4169 55.8241 39.7274 55.8243 40.0411C55.8243 41.1659 56.6327 42.1111 57.7274 42.3785C57.9318 42.6173 58.1465 42.8796 58.3423 43.1403H58.3284C58.3284 43.1403 57.0701 44.8145 57.1103 47.3148C57.1067 47.6281 57.1233 47.9414 57.1599 48.2527C56.3508 48.2066 54.612 47.9934 53.2895 47.0248C51.5054 45.7195 49.5154 46.111 49.9302 46.894C50.345 47.6771 52.4694 48.3294 52.8119 48.3951C52.844 48.4009 52.9185 48.4185 53.0251 48.4448C52.603 48.5244 52.3138 48.6639 52.3314 48.8516C52.3657 49.2103 54.1841 50.3527 55.2817 50.4177C56.0068 50.4608 56.8795 50.6843 57.5682 50.8808C57.6346 52.3818 57.2717 52.8318 57.2717 52.8318C57.2717 52.8318 57.3798 52.8982 57.5587 52.9925L57.482 53.2116C57.0365 53.4687 56.4874 53.7368 55.9879 53.8449C55.3513 53.9757 54.7326 54.1817 54.1446 54.4585L51.6741 55.6527C51.4535 55.7551 51.2626 55.9121 51.1195 56.1088C50.9764 56.3055 50.8858 56.5354 50.8562 56.7769C50.8022 57.2831 50.9548 57.9156 51.7815 58.4174C51.8326 58.8287 52.0838 59.3086 52.7432 59.7483C54.0212 60.5985 57.3798 63.1456 57.8369 63.4932C57.8457 64.1148 57.7639 65.3617 56.9971 65.556C56.036 65.8 56.8094 66.7247 57.5864 66.6882C57.7708 66.7579 57.9715 66.7727 58.1641 66.7305C58.9878 66.5348 62.0068 65.4888 62.2127 63.9242C62.2213 63.8564 62.2252 63.788 62.2244 63.7197C62.2364 63.453 62.1698 63.1886 62.0331 62.9593C62.0653 63.03 62.0914 63.1033 62.1112 63.1784C61.8615 62.6087 61.2531 62.2508 60.7799 62.0492C60.7799 62.0441 60.7799 62.0382 60.7799 62.0331C60.7069 62.0046 60.6339 61.9812 60.574 61.9601C60.5752 61.9177 60.572 61.8754 60.5645 61.8337L55.8301 58.5708C55.8301 58.5708 57.8888 56.874 60.016 57.1355C62.1433 57.397 62.4822 57.0106 62.4822 57.0106C62.4822 57.0106 63.5732 55.9727 63.6828 54.7777L63.7514 54.7594C63.7514 54.7594 63.7463 54.6842 63.7361 54.5461Z" fill="url(#paint0_linear)"/>
<path d="M57.9544 63.0447C57.9544 63.0447 58.148 65.1753 57.1796 65.4339C56.2113 65.6925 57.1153 66.7253 57.8894 66.5296C58.6635 66.3338 61.505 65.3024 61.6985 63.7539C61.8921 62.2054 59.7619 61.6875 59.7619 61.6875L57.9544 63.0447Z" fill="#B8616E"/>
<path opacity="0.05" d="M57.9544 63.0447C57.9544 63.0447 58.148 65.1753 57.1796 65.4339C56.2113 65.6925 57.1153 66.7253 57.8894 66.5296C58.6635 66.3338 61.505 65.3024 61.6985 63.7539C61.8921 62.2054 59.7619 61.6875 59.7619 61.6875L57.9544 63.0447Z" fill="black"/>
<path d="M58.3437 63.1089C58.3437 63.1089 58.5372 65.2395 57.5689 65.4981C56.6005 65.7567 57.5046 66.7895 58.2787 66.5938C59.0528 66.398 61.8943 65.3666 62.0878 63.8181C62.2813 62.2696 60.1511 61.7517 60.1511 61.7517L58.3437 63.1089Z" fill="#B8616E"/>
<path opacity="0.1" d="M60.3446 61.8176L58.5386 63.174C58.5386 63.174 58.5467 63.2661 58.5518 63.4129C59.2339 63.2259 60.72 62.7292 60.7426 61.952C60.6127 61.8993 60.4798 61.8544 60.3446 61.8176Z" fill="black"/>
<path d="M59.2149 43.2522H58.4401V43.8336H59.2149V43.2522Z" fill="#F8BDC5"/>
<path d="M58.473 52.647C58.473 52.647 57.2425 53.6141 56.2318 53.8434C55.6309 53.9735 55.0483 54.1774 54.4974 54.4504L52.1729 55.6323C51.9618 55.7385 51.7808 55.896 51.6463 56.0903C51.5118 56.2847 51.4282 56.5097 51.4032 56.7447C51.3368 57.4021 51.6011 58.267 53.1785 58.7812L58.1495 62.914L59.6992 61.6226L54.4054 57.5555L58.473 55.037V52.647Z" fill="#86D0C1"/>
<path opacity="0.1" d="M58.473 52.647C58.473 52.647 57.2425 53.6141 56.2318 53.8434C55.6309 53.9735 55.0483 54.1774 54.4974 54.4504L52.1729 55.6323C51.9618 55.7385 51.7808 55.896 51.6463 56.0903C51.5118 56.2847 51.4282 56.5097 51.4032 56.7447C51.3368 57.4021 51.6011 58.267 53.1785 58.7812L58.1495 62.914L59.6992 61.6226L54.4054 57.5555L58.473 55.037V52.647Z" fill="black"/>
<path d="M57.7624 48.3214C57.7624 48.3214 55.3736 48.3856 53.6947 47.0942C52.0158 45.8028 50.1441 46.19 50.5312 46.9649C50.9182 47.7399 52.9199 48.3856 53.2427 48.4499C53.5655 48.5142 58.2137 49.8063 58.2137 49.8063L57.7624 48.3214Z" fill="#F8BDC5"/>
<path opacity="0.05" d="M57.7624 48.3214C57.7624 48.3214 55.3736 48.3856 53.6947 47.0942C52.0158 45.8028 50.1441 46.19 50.5312 46.9649C50.9182 47.7399 52.9199 48.3856 53.2427 48.4499C53.5655 48.5142 58.2137 49.8063 58.2137 49.8063L57.7624 48.3214Z" fill="black"/>
<path d="M58.0209 52.0671L57.2461 54.3921C57.2461 54.3921 52.8885 57.0721 52.5329 57.4271C52.2568 57.7032 51.8873 58.7835 53.1784 59.6871C54.4696 60.5906 58.0202 63.4328 58.0202 63.4328C58.0202 63.4328 60.7317 62.8484 60.5381 61.7527L56.0835 58.5242C56.0835 58.5242 58.0202 56.8442 60.0218 57.1035C62.0235 57.3628 62.3463 56.9742 62.3463 56.9742C62.3463 56.9742 63.8959 55.4228 63.3789 53.94C62.8619 52.4572 58.0209 52.0671 58.0209 52.0671Z" fill="#86D0C1"/>
<path d="M57.0525 41.5443C57.0525 41.5443 59.2477 43.9336 59.1185 44.6435C58.9892 45.3535 60.8616 42.5771 60.8616 42.5771C60.8616 42.5771 60.2774 41.1564 60.4096 39.6064L57.0525 41.5443Z" fill="#F8BDC5"/>
<path opacity="0.1" d="M58.9682 43.7358C59.1179 43.5777 59.2756 43.4272 59.4406 43.2851C59.771 43.0142 60.074 42.7115 60.3454 42.3816C60.7975 41.7972 62.4757 44.3187 62.4757 44.3187C62.4757 44.3187 63.5083 45.4808 63.3797 48.2579C63.2512 51.0351 63.5411 54.7479 63.5411 54.7479L63.1504 54.8567C62.8214 54.9666 62.4712 54.9983 62.1278 54.9495C61.7843 54.9007 61.4569 54.7727 61.1714 54.5755C60.6558 54.219 60.0029 53.8451 59.5064 53.8115C58.538 53.7472 57.6661 53.1979 57.6661 53.1979C57.6661 53.1979 58.086 52.1972 57.4404 48.9679C56.7949 45.7387 58.4402 43.4436 58.4402 43.4436C58.4402 43.4436 58.5702 44.1463 58.9682 43.7358Z" fill="black"/>
<path d="M63.7668 54.4561L63.3798 54.5854L63.1498 54.6621C62.8207 54.772 62.4706 54.8038 62.1271 54.755C61.7836 54.7062 61.4562 54.5781 61.1707 54.3809C60.6559 54.0252 60.0023 53.6505 59.5057 53.6169C58.5388 53.5519 57.4434 52.8419 57.4434 52.8419C57.4434 52.8419 58.0889 52.0026 57.4434 48.7733C56.7978 45.5441 58.4439 43.252 58.4439 43.252C58.4439 43.252 58.5739 43.951 58.9719 43.5398C59.1213 43.3818 59.2787 43.2316 59.4436 43.0898C59.7739 42.8189 60.077 42.5162 60.3484 42.1863C60.8005 41.6019 62.4786 44.1234 62.4786 44.1234C62.4786 44.1234 63.5112 45.2855 63.3827 48.0626C63.3688 48.3548 63.363 48.6557 63.3623 48.9603C63.3528 51.5592 63.7668 54.4561 63.7668 54.4561Z" fill="#FB2525"/>
<path opacity="0.1" d="M60.087 48.1276L60.1512 49.5483C60.1512 49.5483 56.7292 49.7419 56.0193 49.0319C55.3095 48.3219 57.9546 51.1202 58.5388 51.2919C59.0872 51.4533 60.5032 51.5957 61.2459 51.6103C61.4581 51.6172 61.6677 51.5622 61.8492 51.4521C62.0307 51.342 62.1763 51.1815 62.2683 50.9902C62.3549 50.8019 62.3829 50.592 62.3486 50.3876C62.2194 49.5483 62.3486 47.7397 62.3486 47.7397L60.087 48.1276Z" fill="black"/>
<path d="M60.0868 47.9985L60.1511 49.4192C60.1511 49.4192 56.729 49.6127 56.0192 48.9027C55.3094 48.1928 52.741 48.3498 52.7914 48.9027C52.8235 49.2577 54.5346 50.3877 55.5665 50.4527C56.5983 50.5177 57.9544 50.9911 58.5387 51.1627C59.0871 51.3241 60.5031 51.4666 61.2458 51.4812C61.458 51.488 61.6675 51.433 61.849 51.3229C62.0305 51.2129 62.1762 51.0524 62.2682 50.861C62.3547 50.6728 62.3827 50.4628 62.3485 50.2584C62.2192 49.4192 62.3485 47.6106 62.3485 47.6106L60.0868 47.9985Z" fill="#F8BDC5"/>
<path opacity="0.1" d="M60.8616 43.8657C60.8616 43.8657 59.377 44.0592 59.5705 46.2549C59.764 48.4506 60.0225 48.6442 60.0225 48.6442C60.0225 48.6442 62.2177 48.4506 62.4755 48.3856C62.7333 48.3206 62.6048 45.9321 62.6048 45.9321C62.6048 45.9321 62.5398 43.8014 60.8616 43.8657Z" fill="black"/>
<path d="M60.8616 43.8015C60.8616 43.8015 59.377 43.9951 59.5705 46.1908C59.764 48.3865 60.0225 48.5801 60.0225 48.5801C60.0225 48.5801 62.2177 48.3865 62.4755 48.3215C62.7333 48.2565 62.6048 45.8679 62.6048 45.8679C62.6048 45.8679 62.5398 43.7358 60.8616 43.8015Z" fill="#FB2525"/>
<path opacity="0.1" d="M60.3126 40.9923C60.2111 40.4809 60.4192 40.3232 60.474 39.6687L57.1147 41.6058C57.1147 41.6058 57.4996 42.0251 57.937 42.5634C58.1325 42.6129 58.3335 42.6374 58.5351 42.6365C59.4151 42.6401 59.8963 41.6949 60.3126 40.9923Z" fill="black"/>
<path d="M58.4722 42.5742C59.7915 42.5742 60.861 41.5045 60.861 40.1849C60.861 38.8654 59.7915 37.7957 58.4722 37.7957C57.153 37.7957 56.0835 38.8654 56.0835 40.1849C56.0835 41.5045 57.153 42.5742 58.4722 42.5742Z" fill="#F8BDC5"/>
<path opacity="0.1" d="M59.0747 39.4596C58.7095 39.6919 58.7044 40.2171 58.9396 40.5808C59.1747 40.9446 59.58 41.1849 59.97 41.4113C60.0832 41.4771 60.208 41.545 60.3351 41.5304C60.4328 41.5113 60.5233 41.4656 60.5966 41.3982C60.8695 41.1852 61.1299 40.9567 61.3765 40.7138C61.7314 40.3646 62.0724 39.9344 62.0169 39.4472C61.9541 38.8942 61.4079 38.4779 61.1873 37.9542C61.0019 37.5159 61.0574 37.0243 60.8952 36.5766C60.7331 36.1288 60.165 35.7146 59.7399 35.9491C59.5829 36.0353 59.488 36.1894 59.3566 36.3056C59.0308 36.5934 58.5058 36.6218 58.0603 36.4904C57.6148 36.3589 57.4827 35.822 56.8612 35.8206C57.1701 35.9294 57.379 36.2515 57.3315 36.5451C57.0825 36.6861 56.7553 36.6058 56.4552 36.6007C56.155 36.5956 55.7979 36.7636 55.8498 37.0338C55.895 37.2529 56.2113 37.4158 56.1645 37.635C55.6159 37.924 55.0179 38.1074 54.4016 38.1755C54.2899 38.1879 55.0728 38.8387 55.1619 38.8818C55.4883 39.0381 55.8804 39.1528 56.2259 39.2726C57.1643 39.5962 58.1253 39.7116 59.0747 39.4596Z" fill="black"/>
<path d="M59.0747 39.3947C58.7095 39.6269 58.7044 40.1521 58.9396 40.5159C59.1747 40.8796 59.58 41.12 59.97 41.3464C60.0832 41.4121 60.208 41.4801 60.3351 41.4654C60.4328 41.4464 60.5233 41.4006 60.5966 41.3332C60.8695 41.1203 61.1299 40.8917 61.3765 40.6488C61.7314 40.2997 62.0724 39.8694 62.0169 39.3822C61.9541 38.8293 61.4079 38.4129 61.1873 37.8892C61.0019 37.451 61.0574 36.9594 60.8952 36.5116C60.7331 36.0639 60.165 35.6497 59.7399 35.8842C59.5829 35.9704 59.488 36.1245 59.3566 36.2406C59.0308 36.5284 58.5058 36.5569 58.0603 36.4254C57.6148 36.2939 57.4827 35.7571 56.8612 35.7556C57.1701 35.8645 57.379 36.1866 57.3315 36.4802C57.0825 36.6212 56.7553 36.5408 56.4552 36.5357C56.155 36.5306 55.7979 36.6986 55.8498 36.9689C55.895 37.188 56.2113 37.3509 56.1645 37.57C55.6159 37.8591 55.0179 38.0424 54.4016 38.1105C54.2899 38.123 55.0728 38.7738 55.1619 38.8169C55.4883 38.9732 55.8804 39.0879 56.2259 39.2077C57.1643 39.532 58.1253 39.6452 59.0747 39.3947Z" fill="#916168"/>
<path opacity="0.1" d="M61.9192 62.865C62.0229 63.1041 62.059 63.3671 62.0236 63.6254C61.8301 65.1754 58.9893 66.2082 58.2145 66.401C57.8063 66.5033 57.3615 66.2644 57.1753 65.9774C57.2951 66.3148 57.8107 66.6472 58.2795 66.5303C59.0543 66.3368 61.8951 65.3032 62.0886 63.7547C62.1309 63.4476 62.0714 63.135 61.9192 62.865Z" fill="white"/>
<path d="M36.036 62.7768C36.036 62.7768 35.1597 63.8724 35.5249 64.3107C35.89 64.749 37.7157 65.5868 38.2999 65.5524C38.9206 65.5159 41.0019 65.6255 41.0749 64.6759C41.0749 64.6759 41.221 64.2377 39.3223 64.1646C37.4236 64.0916 38.0078 62.1194 38.0078 62.1194L36.036 62.7768Z" fill="#BEAEE3"/>
<path opacity="0.1" d="M25.5931 53.5731C25.5931 53.5731 24.7168 56.5679 27.3458 57.0793L30.1939 56.9332C30.1939 56.9332 34.2104 56.1297 35.3058 56.714C35.3058 56.714 35.7439 56.7871 35.5979 57.3714C35.4518 57.9558 35.817 61.9001 35.817 61.9001V63.2149C35.817 63.2149 38.2999 63.2149 38.592 62.9228C38.592 62.9228 38.3729 61.7541 38.592 60.8045C38.8111 59.8549 38.2269 56.8601 38.2269 56.8601L38.1692 55.0574C38.1649 54.8347 38.1013 54.6171 37.9851 54.4271C37.8688 54.237 37.7039 54.0815 37.5076 53.9764C37.3693 53.9031 37.2156 53.864 37.0592 53.8624C37.0592 53.8624 32.0933 53.0589 30.3406 53.205C28.588 53.3511 25.5931 53.5731 25.5931 53.5731Z" fill="black"/>
<path d="M25.5931 53.5002C25.5931 53.5002 24.7168 56.4949 27.3458 57.0063L30.1939 56.8602C30.1939 56.8602 34.2104 56.0567 35.3058 56.641C35.3058 56.641 35.7439 56.7141 35.5979 57.2984C35.4518 57.8828 35.817 61.8271 35.817 61.8271V63.1419C35.817 63.1419 38.2999 63.1419 38.592 62.8498C38.592 62.8498 38.3729 61.6811 38.592 60.7315C38.8111 59.7819 38.2269 56.7871 38.2269 56.7871L38.1692 54.9844C38.1649 54.7617 38.1013 54.5441 37.9851 54.3541C37.8688 54.164 37.7039 54.0085 37.5076 53.9034C37.3693 53.8301 37.2156 53.791 37.0592 53.7894C37.0592 53.7894 32.0933 52.9859 30.3406 53.132C28.588 53.2781 25.5931 53.5002 25.5931 53.5002Z" fill="#86D0C1"/>
<path d="M33.1149 47.5838C33.1149 47.5838 33.6991 48.3142 34.0642 47.5838C34.4294 46.8533 35.2327 44.4429 35.2327 44.4429C35.2327 44.4429 37.2044 42.3246 37.8617 42.982C38.5189 43.6394 36.2551 44.8081 36.2551 44.8081C36.2551 44.8081 35.4518 49.2638 34.7215 49.3368C33.9912 49.4099 32.8958 49.3368 32.8958 49.3368L32.5307 48.5333L33.1149 47.5838Z" fill="#F8BDC5"/>
<path opacity="0.05" d="M33.1149 47.5838C33.1149 47.5838 33.6991 48.3142 34.0642 47.5838C34.4294 46.8533 35.2327 44.4429 35.2327 44.4429C35.2327 44.4429 37.2044 42.3246 37.8617 42.982C38.5189 43.6394 36.2551 44.8081 36.2551 44.8081C36.2551 44.8081 35.4518 49.2638 34.7215 49.3368C33.9912 49.4098 32.8958 49.3368 32.8958 49.3368L32.5307 48.5333L33.1149 47.5838Z" fill="black"/>
<path d="M32.9849 48.8112C32.9849 48.8112 33.8045 46.9647 34.2033 46.613C34.602 46.2613 35.0983 44.2452 35.0983 44.2452C35.0983 44.2452 36.3918 44.9236 36.6932 44.5374C36.9947 44.1511 36.0337 46.5503 36.0337 46.5503L34.2093 49.6843L32.9849 48.8112Z" fill="#EB6475"/>
<path d="M31.3623 42.1783C31.3623 42.1783 30.705 44.2966 30.705 45.1001C30.705 45.9036 27.93 44.881 28.003 44.4427C28.076 44.0044 29.6096 42.3975 29.6826 41.7401C29.7557 41.0827 31.3623 42.1783 31.3623 42.1783Z" fill="#F8BDC5"/>
<path opacity="0.1" d="M29.1715 43.6392C29.1715 43.6392 26.6155 42.9818 26.2504 46.7071C25.8853 50.4323 26.5425 50.8706 25.4471 53.1349C24.3517 55.3993 32.8959 53.4271 32.8959 53.4271C32.8959 53.4271 32.4577 52.9158 31.0702 53.1349L30.413 51.1627C30.413 51.1627 30.1939 50.2862 31.4353 50.2862C32.6768 50.2862 32.0926 47.7297 32.0926 47.7297C32.0926 47.7297 31.4353 45.5384 31.0702 45.3192C30.7051 45.1001 30.0478 43.7853 29.1715 43.6392Z" fill="black"/>
<path d="M29.1715 43.4932C29.1715 43.4932 26.6155 42.8358 26.2504 46.5611C25.8853 50.2863 26.5425 50.7246 25.4471 52.9889C24.3517 55.2533 32.8959 53.2811 32.8959 53.2811C32.8959 53.2811 32.4577 52.7698 31.0702 52.9889L30.413 51.0167C30.413 51.0167 30.1939 50.1402 31.4353 50.1402C32.6768 50.1402 32.0926 47.5837 32.0926 47.5837C32.0926 47.5837 31.4353 45.3924 31.0702 45.1732C30.7051 44.9541 30.0478 43.6393 29.1715 43.4932Z" fill="#EB6475"/>
<path d="M31.7274 48.7524C31.7274 48.7524 37.0584 49.3368 37.9347 49.1907C37.9347 49.1907 41.849 48.7086 40.8558 49.702C40.7828 49.7751 38.2269 50.3594 37.9347 50.2864C37.6426 50.2133 31.4353 50.2864 31.4353 50.2864L31.3623 49.5559L31.7274 48.7524Z" fill="#F8BDC5"/>
<path opacity="0.1" d="M27.6378 46.9262L31.5083 50.4323C31.5083 50.4323 32.2386 48.9714 32.4576 48.9714C32.6767 48.9714 29.8287 44.6618 29.8287 44.6618C29.8287 44.6618 29.0984 43.7853 28.6602 44.2235C28.2221 44.6618 26.9076 44.3696 27.6378 46.9262Z" fill="black"/>
<path d="M27.5649 46.7799L31.5006 50.3783L38.8351 50.5836C38.8351 50.5836 39.2964 48.8822 39.5155 48.8822C39.6295 48.8822 37.3196 48.6558 34.7526 47.5211C30.6701 46.5002 29.7557 44.5156 29.7557 44.5156C29.7557 44.5156 29.0254 43.639 28.5873 44.0773C28.1491 44.5156 26.8346 44.2234 27.5649 46.7799Z" fill="#EB6475"/>
<path d="M30.705 43.493C32.036 43.493 33.1149 42.4138 33.1149 41.0826C33.1149 39.7513 32.036 38.6721 30.705 38.6721C29.3741 38.6721 28.2951 39.7513 28.2951 41.0826C28.2951 42.4138 29.3741 43.493 30.705 43.493Z" fill="#F8BDC5"/>
<g opacity="0.1">
<path opacity="0.1" d="M37.9245 62.695C37.93 62.5005 37.9579 62.3074 38.0077 62.1194L37.9712 62.1318C37.9348 62.3172 37.9191 62.5061 37.9245 62.695Z" fill="white"/>
<path opacity="0.1" d="M38.2999 65.4065C37.7157 65.4408 35.89 64.603 35.5249 64.1647C35.4769 64.1054 35.4475 64.0332 35.4402 63.9573C35.4295 64.0189 35.4314 64.082 35.446 64.1428C35.4606 64.2036 35.4874 64.2608 35.5249 64.3108C35.89 64.7491 37.7157 65.5869 38.2999 65.5525C38.9206 65.516 41.0019 65.6256 41.075 64.676C41.0804 64.6498 41.0768 64.6225 41.0647 64.5986C40.8975 65.4737 38.9053 65.3707 38.2999 65.4065Z" fill="white"/>
</g>
<path d="M41.2575 43.6028H41.1844V46.5976H41.2575V43.6028Z" fill="#FFD77C" stroke="#FFAB50" stroke-width="0.026832" stroke-miterlimit="10"/>
<path d="M41.3306 43.6028H41.2576V46.5976H41.3306V43.6028Z" fill="#FFD77C" stroke="#FFAB50" stroke-width="0.026832" stroke-miterlimit="10"/>
<path d="M41.4035 43.6028H41.3305V46.5976H41.4035V43.6028Z" fill="#FFD77C" stroke="#FFAB50" stroke-width="0.026832" stroke-miterlimit="10"/>
<path d="M41.4767 43.6028H41.4036V46.5976H41.4767V43.6028Z" fill="#FFD77C" stroke="#FFAB50" stroke-width="0.026832" stroke-miterlimit="10"/>
<path d="M41.5496 43.6028H41.4765V46.5976H41.5496V43.6028Z" fill="#FFD77C" stroke="#FFAB50" stroke-width="0.026832" stroke-miterlimit="10"/>
<path d="M41.6227 43.6028H41.5497V46.5976H41.6227V43.6028Z" fill="#FFD77C" stroke="#FFAB50" stroke-width="0.026832" stroke-miterlimit="10"/>
<path d="M41.6956 43.6028H41.6226V46.5976H41.6956V43.6028Z" fill="#FFD77C" stroke="#FFAB50" stroke-width="0.026832" stroke-miterlimit="10"/>
<path d="M27.6083 39.6947C28.1526 36.9724 30.5567 37.1993 31.6907 37.653C33.0516 38.1975 33.2784 39.8081 33.0515 40.3752H30.3299L31.3505 43.4378L32.0309 44.1183C32.4845 45.0257 33.1876 46.8406 32.3711 46.8406C31.5546 46.8406 30.8969 47.5212 30.6701 47.8614C29.4227 48.7689 26.7237 49.9712 25.9072 47.5212C24.8866 44.4586 26.9279 43.0975 27.6083 39.6947Z" fill="#734343"/>
</g>
<defs>
<linearGradient id="paint0_linear" x1="56.9321" y1="66.7576" x2="56.9321" y2="35.5679" gradientUnits="userSpaceOnUse">
<stop stop-color="#808080" stop-opacity="0.25"/>
<stop offset="0.54" stop-color="#808080" stop-opacity="0.12"/>
<stop offset="1" stop-color="#808080" stop-opacity="0.1"/>
</linearGradient>
<clipPath id="clip0">
<rect width="66" height="48" fill="white" transform="translate(14 22)"/>
</clipPath>
</defs>
</svg>
