<svg width="36" height="37" viewBox="0 0 36 37" fill="none" xmlns="http://www.w3.org/2000/svg">
<path d="M12.6 8.67188C12.06 8.67188 11.7 9.21187 11.7 9.57187V14.0719H9.9V9.57187C9.9 9.03187 9.54 8.67188 9 8.67188C8.46 8.67188 8.1 9.21187 8.1 9.57187V14.0719H6.3V9.57187C6.3 9.03187 5.94 8.67188 5.4 8.67188C4.86 8.67188 4.5 9.21187 4.5 9.57187V15.5119C4.5 17.1319 5.76 18.3919 7.2 18.5719V31.1719C7.2 32.2519 7.92 32.9719 9 32.9719C10.08 32.9719 10.8 32.2519 10.8 31.1719V18.5719C12.24 18.3919 13.5 17.1319 13.5 15.5119V9.57187C13.5 9.21187 13.14 8.67188 12.6 8.67188ZM16.2 9.57187V20.3719H18V31.1719C18 32.2519 18.72 32.9719 19.8 32.9719C20.88 32.9719 21.6 32.2519 21.6 31.1719V4.17188C18.54 4.17188 16.2 6.51187 16.2 9.57187ZM28.8 7.77187C26.28 7.77187 24.3 10.4719 24.3 13.7119C24.12 15.8719 25.2 17.8519 27 19.1119V31.1719C27 32.2519 27.72 32.9719 28.8 32.9719C29.88 32.9719 30.6 32.2519 30.6 31.1719V19.1119C32.4 17.8519 33.48 15.8719 33.3 13.7119C33.3 10.4719 31.32 7.77187 28.8 7.77187Z" fill="#2D2D2D"/>
</svg>
