<svg width="24" height="25" viewBox="0 0 24 25" fill="none" xmlns="http://www.w3.org/2000/svg">
<path d="M12 3.75C12.1989 3.75 12.3897 3.82902 12.5303 3.96967C12.671 4.11032 12.75 4.30109 12.75 4.5C12.75 4.69891 12.671 4.88968 12.5303 5.03033C12.3897 5.17098 12.1989 5.25 12 5.25C10.0772 5.25 8.23311 6.01384 6.87348 7.37348C5.51384 8.73311 4.75 10.5772 4.75 12.5C4.75 14.4228 5.51384 16.2669 6.87348 17.6265C8.23311 18.9862 10.0772 19.75 12 19.75C12.1989 19.75 12.3897 19.829 12.5303 19.9697C12.671 20.1103 12.75 20.3011 12.75 20.5C12.75 20.6989 12.671 20.8897 12.5303 21.0303C12.3897 21.171 12.1989 21.25 12 21.25C9.67936 21.25 7.45376 20.3281 5.81282 18.6872C4.17187 17.0462 3.25 14.8206 3.25 12.5C3.25 10.1794 4.17187 7.95376 5.81282 6.31282C7.45376 4.67187 9.67936 3.75 12 3.75Z" fill="#83858A"/>
<path d="M16.47 10.0298C16.3375 9.88767 16.2654 9.69963 16.2688 9.50532C16.2723 9.31102 16.351 9.12564 16.4884 8.98823C16.6258 8.85081 16.8112 8.7721 17.0055 8.76867C17.1998 8.76524 17.3878 8.83737 17.53 8.96985L20.53 11.9698C20.6705 12.1105 20.7493 12.3011 20.7493 12.4998C20.7493 12.6986 20.6705 12.8892 20.53 13.0298L17.53 16.0298C17.4613 16.1035 17.3785 16.1626 17.2865 16.2036C17.1945 16.2446 17.0952 16.2667 16.9945 16.2684C16.8938 16.2702 16.7938 16.2517 16.7004 16.214C16.607 16.1762 16.5222 16.1201 16.451 16.0489C16.3797 15.9777 16.3236 15.8928 16.2859 15.7994C16.2482 15.7061 16.2296 15.606 16.2314 15.5053C16.2332 15.4046 16.2552 15.3053 16.2962 15.2133C16.3372 15.1213 16.3963 15.0385 16.47 14.9698L18.19 13.2498H10C9.80109 13.2498 9.61032 13.1708 9.46967 13.0302C9.32902 12.8895 9.25 12.6988 9.25 12.4998C9.25 12.3009 9.32902 12.1102 9.46967 11.9695C9.61032 11.8289 9.80109 11.7498 10 11.7498H18.19L16.47 10.0298Z" fill="#83858A"/>
</svg>
