<svg width="256" height="256" viewBox="0 0 256 256" fill="none" xmlns="http://www.w3.org/2000/svg">
<g clip-path="url(#clip0_2915_3577)">
<path d="M0 0H255.904V255.904H0V0Z" fill="black"/>
<path d="M141.676 41.275L141.609 79.636L141.541 117.997L138.385 109.092L138.379 109.075L134.301 194.477C138.311 205.801 140.459 211.846 140.483 211.87C140.514 211.902 142.8 212.04 145.561 212.177C153.927 212.592 164.295 213.481 172.16 214.459C173.981 214.685 175.548 214.801 175.643 214.716C175.737 214.632 175.788 175.573 175.757 127.919L175.699 41.275H158.688H141.676ZM80.138 41.16V127.892C80.138 175.595 80.185 214.671 80.242 214.728C80.299 214.785 83.253 214.506 86.807 214.108C90.36 213.71 95.272 213.215 97.721 213.008C101.477 212.691 112.691 211.97 113.989 211.962C114.367 211.96 114.391 210.012 114.446 175.227L114.504 138.493L117.217 146.17L118.177 148.883L122.254 63.502L120.853 59.542C118.76 53.6234 116.666 47.7054 114.57 41.788L114.345 41.16H97.242H80.138Z" fill="#B1060F" stroke="black" stroke-width="2.956"/>
<path d="M80.138 41.16V89.845L114.434 180.821C114.438 178.736 114.442 177.61 114.446 175.227L114.504 138.493L117.217 146.17C132.321 188.908 140.435 211.822 140.483 211.87C140.514 211.902 142.8 212.04 145.561 212.177C153.927 212.592 164.295 213.481 172.16 214.459C173.981 214.685 175.548 214.801 175.643 214.716C175.707 214.658 175.75 195.506 175.761 168.489L141.625 70.349L141.609 79.636L141.541 117.997L138.385 109.092C135.301 100.391 133.242 94.572 120.853 59.542C118.76 53.6234 116.666 47.7054 114.57 41.788L114.345 41.16H97.242H80.138Z" fill="url(#paint0_radial_2915_3577)"/>
<path d="M80.139 41.16L114.504 138.537V138.493L117.217 146.17C132.321 188.908 140.435 211.822 140.483 211.87C140.514 211.902 142.8 212.04 145.561 212.177C153.927 212.592 164.295 213.481 172.16 214.459C173.972 214.684 175.53 214.799 175.64 214.717L141.54 117.98V117.997L138.384 109.092C135.3 100.391 133.241 94.572 120.852 59.542C117.52 50.122 114.693 42.134 114.569 41.788L114.344 41.16H97.242H80.139Z" fill="#E50914"/>
<path d="M141.676 41.275L141.609 79.636L141.541 117.997L138.385 109.092L138.379 109.075L134.301 194.477C138.311 205.801 140.459 211.846 140.483 211.87C140.514 211.902 142.8 212.04 145.561 212.177C153.927 212.592 164.295 213.481 172.16 214.459C173.981 214.685 175.548 214.801 175.643 214.716C175.737 214.632 175.788 175.573 175.757 127.919L175.699 41.275H158.688H141.676ZM80.138 41.16V127.892C80.138 175.595 80.185 214.671 80.242 214.728C80.299 214.785 83.253 214.506 86.807 214.108C90.36 213.71 95.272 213.215 97.721 213.008C101.477 212.691 112.691 211.97 113.989 211.962C114.367 211.96 114.391 210.012 114.446 175.227L114.504 138.493L117.217 146.17L118.177 148.883L122.254 63.502L120.853 59.542C118.76 53.6234 116.666 47.7054 114.57 41.788L114.345 41.16H97.242H80.138Z" fill="#B1060F" stroke="black" stroke-width="2.956"/>
<path d="M80.138 41.16V89.845L114.434 180.821C114.438 178.736 114.442 177.61 114.446 175.227L114.504 138.493L117.217 146.17C132.321 188.908 140.435 211.822 140.483 211.87C140.514 211.902 142.8 212.04 145.561 212.177C153.927 212.592 164.295 213.481 172.16 214.459C173.981 214.685 175.548 214.801 175.643 214.716C175.707 214.658 175.75 195.506 175.761 168.489L141.625 70.349L141.609 79.636L141.541 117.997L138.385 109.092C135.301 100.391 133.242 94.572 120.853 59.542C118.76 53.6234 116.666 47.7054 114.57 41.788L114.345 41.16H97.242H80.138Z" fill="url(#paint1_radial_2915_3577)"/>
<path d="M80.139 41.16L114.504 138.537V138.493L117.217 146.17C132.321 188.908 140.435 211.822 140.483 211.87C140.514 211.902 142.8 212.04 145.561 212.177C153.927 212.592 164.295 213.481 172.16 214.459C173.972 214.684 175.53 214.799 175.64 214.717L141.54 117.98V117.997L138.384 109.092C135.3 100.391 133.241 94.572 120.852 59.542C117.52 50.122 114.693 42.134 114.569 41.788L114.344 41.16H97.242H80.139Z" fill="#E50914"/>
</g>
<defs>
<radialGradient id="paint0_radial_2915_3577" cx="0" cy="0" r="1" gradientUnits="userSpaceOnUse" gradientTransform="translate(4702.55 4748.53) scale(6735.49 6735.56)">
<stop/>
<stop offset="1" stop-opacity="0"/>
</radialGradient>
<radialGradient id="paint1_radial_2915_3577" cx="0" cy="0" r="1" gradientUnits="userSpaceOnUse" gradientTransform="translate(4702.55 4748.53) scale(6735.49 6735.56)">
<stop/>
<stop offset="1" stop-opacity="0"/>
</radialGradient>
<clipPath id="clip0_2915_3577">
<rect width="256" height="256" fill="white"/>
</clipPath>
</defs>
</svg>
