<svg width="82" height="71" viewBox="0 0 82 71" fill="none" xmlns="http://www.w3.org/2000/svg">
<path fill-rule="evenodd" clip-rule="evenodd" d="M15.9855 30.4123C15.9855 30.4123 0.568848 30.0251 0.568848 45.3091C0.568848 45.3091 17.6984 51.3069 15.9855 30.4123Z" fill="#F0CAA2"/>
<path fill-rule="evenodd" clip-rule="evenodd" d="M16.1628 32.4301C16.1628 32.4301 4.61401 32.1404 4.61401 43.5901C4.61401 43.5901 17.4459 48.0833 16.1628 32.4301Z" fill="#BD6B59"/>
<path fill-rule="evenodd" clip-rule="evenodd" d="M64.0467 30.7858C64.0467 30.7858 79.4628 30.3986 79.4628 45.6832C79.4628 45.6832 62.3338 51.6805 64.0467 30.7858Z" fill="#F0CAA2"/>
<path fill-rule="evenodd" clip-rule="evenodd" d="M63.8696 32.8046C63.8696 32.8046 75.4183 32.5149 75.4183 43.9646C75.4183 43.9646 62.5859 48.4578 63.8696 32.8046Z" fill="#BD6B59"/>
<path fill-rule="evenodd" clip-rule="evenodd" d="M20.0599 20.1185C20.0599 20.1185 15.5156 25.0229 12.853 35.2087C13.6067 38.0236 24.4013 39.7695 26.8119 30.6378C28.6873 43.1676 59.691 44.5903 66.8393 33.736C63.4918 22.731 59.9334 14.0983 49.2139 12.3796C38.4949 10.6603 24.43 14.2075 20.0599 20.1185Z" fill="#BD6B59"/>
<path fill-rule="evenodd" clip-rule="evenodd" d="M37.646 63.7795C37.646 63.7795 41.9629 64.6018 45.1474 63.5925C45.1474 63.5925 41.8872 68.9001 37.646 63.7795Z" fill="#BD6B59"/>
<path fill-rule="evenodd" clip-rule="evenodd" d="M20.0599 19.1579C20.0599 19.1579 4.33433 53.5726 18.7081 64.4545C33.0819 75.3365 63.3938 71.2976 66.8511 56.6155C70.3078 41.9327 62.6823 13.5793 49.2139 11.4195C35.7456 9.25866 24.4301 13.2469 20.0599 19.1579Z" fill="#F0CAA2"/>
<path fill-rule="evenodd" clip-rule="evenodd" d="M37.3474 55.2561C37.3474 55.2561 38.5975 52.9701 40.7301 52.8205C42.8627 52.6713 44.4323 54.5909 44.6832 55.5549C44.836 56.1424 43.3868 56.5312 41.8433 56.7523C41.4773 62.1946 46.827 59.9501 47.0256 58.9232L48.1159 59.1395C48.0515 59.4723 47.9178 59.7653 47.7292 60.0209C46.5948 61.5586 43.0779 61.6167 41.6494 60.528C41.4912 60.4071 41.3575 60.2329 41.2462 60.0178C41.1343 60.2324 41.0012 60.4071 40.843 60.528C39.4145 61.6167 35.8976 61.5586 34.7631 60.0209C34.5746 59.7653 34.4404 59.4723 34.3765 59.1395L35.4667 58.9232C35.7618 60.4497 40.9666 61.7104 40.656 56.8625C38.6944 56.9483 37.0412 56.5062 37.3474 55.2561Z" fill="#553643"/>
<path fill-rule="evenodd" clip-rule="evenodd" d="M51.8482 39.8401C55.3049 39.8401 58.2402 42.6108 58.4042 46.0286C58.5677 49.4464 55.8983 52.2171 52.4416 52.2171C48.9849 52.2171 46.0496 49.4464 45.8855 46.0286C45.722 42.6108 48.3915 39.8401 51.8482 39.8401Z" fill="white"/>
<path fill-rule="evenodd" clip-rule="evenodd" d="M49.2682 51.3867C47.3481 50.3161 45.9953 48.3172 45.8856 46.0285C45.7551 43.3026 47.4264 40.9884 49.8626 40.1633C49.9468 40.1596 50.0315 40.1575 50.1161 40.1575C53.2991 40.1575 56.0016 42.7087 56.1523 45.8554C56.3031 49.0021 53.845 51.5534 50.6626 51.5534C50.1849 51.5529 49.7178 51.4948 49.2682 51.3867Z" fill="#EBB05D"/>
<path fill-rule="evenodd" clip-rule="evenodd" d="M49.268 51.3869C47.6238 50.4702 46.3961 48.8729 46.0078 46.9965C46.0845 47.4695 46.7865 47.3549 46.4515 46.8202L54.6432 46.2263C54.6432 46.2263 55.3888 47.0412 56.0876 47.0189C55.6685 49.6079 53.4421 51.553 50.6624 51.553C50.1846 51.553 49.7175 51.495 49.268 51.3869Z" fill="#C77636"/>
<path fill-rule="evenodd" clip-rule="evenodd" d="M50.2653 41.6741C52.5769 41.6741 54.5396 43.5265 54.6488 45.812C54.7585 48.0975 52.9737 49.9499 50.6621 49.9499C48.3506 49.9499 46.3884 48.0975 46.2787 45.812C46.1695 43.527 47.9543 41.6741 50.2653 41.6741Z" fill="#553643"/>
<path fill-rule="evenodd" clip-rule="evenodd" d="M46.4536 43.1725C46.4536 43.1725 53.0245 40.5227 57.6924 43.1725C55.0996 37.8607 47.4864 39.0143 46.4536 43.1725Z" fill="#553643"/>
<path fill-rule="evenodd" clip-rule="evenodd" d="M54.6607 46.0288C56.0503 46.0288 57.2156 46.8533 57.2646 47.8701C57.3131 48.8868 56.2266 49.7108 54.8375 49.7108C53.4479 49.7108 52.2825 48.8863 52.2335 47.8701C52.1845 46.8533 53.2716 46.0288 54.6607 46.0288Z" fill="white"/>
<path fill-rule="evenodd" clip-rule="evenodd" d="M47.4812 43.3052C48.3052 43.3052 49.0002 43.8735 49.0338 44.5744C49.0673 45.2753 48.4266 45.8437 47.6026 45.8437C46.7787 45.8437 46.0836 45.2753 46.0501 44.5744C46.017 43.8735 46.6572 43.3052 47.4812 43.3052Z" fill="white"/>
<path fill-rule="evenodd" clip-rule="evenodd" d="M27.965 39.8401C24.5078 39.8401 21.573 42.6108 21.409 46.0286C21.2455 49.4464 23.9144 52.2171 27.3717 52.2171C30.8289 52.2171 33.7636 49.4464 33.9277 46.0286C34.0912 42.6108 31.4217 39.8401 27.965 39.8401Z" fill="white"/>
<path fill-rule="evenodd" clip-rule="evenodd" d="M30.5455 51.3867C32.4656 50.3161 33.8184 48.3172 33.9281 46.0285C34.0586 43.3026 32.3873 40.9884 29.9516 40.1633C29.8674 40.1596 29.7828 40.1575 29.6975 40.1575C26.5146 40.1575 23.8121 42.7087 23.6614 45.8554C23.5106 49.0021 25.9681 51.5534 29.1511 51.5534C29.6288 51.5529 30.0959 51.4948 30.5455 51.3867Z" fill="#EBB05D"/>
<path fill-rule="evenodd" clip-rule="evenodd" d="M30.5443 51.3869C32.1879 50.4702 33.4161 48.8729 33.8044 46.9965C33.7277 47.4695 33.0257 47.3549 33.3608 46.8202L25.1691 46.2263C25.389 47.3523 24.0458 47.7224 23.7246 47.0189C24.1438 49.6079 26.3701 51.553 29.1499 51.553C29.6282 51.553 30.0953 51.495 30.5443 51.3869Z" fill="#C77636"/>
<path fill-rule="evenodd" clip-rule="evenodd" d="M29.5474 41.6741C27.2359 41.6741 25.2737 43.5265 25.164 45.812C25.0543 48.0975 26.8396 49.9499 29.1506 49.9499C31.4622 49.9499 33.4244 48.0975 33.5341 45.812C33.6438 43.527 31.859 41.6741 29.5474 41.6741Z" fill="#553643"/>
<path fill-rule="evenodd" clip-rule="evenodd" d="M33.3594 43.1725C33.3594 43.1725 26.7885 40.5227 22.1206 43.1725C24.7134 37.8607 32.3267 39.0143 33.3594 43.1725Z" fill="#553643"/>
<path fill-rule="evenodd" clip-rule="evenodd" d="M30.867 46.6228C32.0217 46.6228 32.99 47.4468 33.031 48.4635C33.0715 49.4803 32.1682 50.3043 31.0134 50.3043C29.8587 50.3043 28.8904 49.4798 28.8499 48.4635C28.8095 47.4473 29.7123 46.6228 30.867 46.6228Z" fill="white"/>
<path fill-rule="evenodd" clip-rule="evenodd" d="M24.6351 43.2462C25.459 43.1817 26.1541 43.6952 26.1876 44.3935C26.2212 45.0917 25.5804 45.7101 24.7565 45.7745C23.9325 45.839 23.2375 45.3255 23.2039 44.6273C23.1703 43.929 23.8111 43.3106 24.6351 43.2462Z" fill="white"/>
<path fill-rule="evenodd" clip-rule="evenodd" d="M10.8197 25.7787C5.46686 40.798 26.9815 36.9328 28.0766 30.4801C26.2241 39.6598 74.4842 47.4414 68.8161 25.4165C73.027 24.8258 70.3202 13.5668 63.1229 17.2786C68.0235 -2.59447 11.756 -8.47778 14.7334 21.4379C6.84795 19.0325 6.75367 27.7947 10.8197 25.7787Z" fill="white"/>
<path fill-rule="evenodd" clip-rule="evenodd" d="M60.0071 24.4448C66.39 28.7686 53.3377 34.3846 50.7183 26.9401C49.9135 31.8584 45.4746 31.9185 44.6182 27.6336C45.0943 36.0112 51.8123 33.9484 51.5502 30.1987C51.5502 30.1987 53.7829 34.2296 58.9328 33.4221C64.0817 32.6141 62.9216 26.5039 60.0071 24.4448Z" fill="#F0CAA2"/>
<path fill-rule="evenodd" clip-rule="evenodd" d="M22.3157 16.519C20.5975 21.5326 29.9402 21.9022 30.5015 19.2317C30.5015 19.2317 28.9857 25.4713 23.6819 23.4889C18.3781 21.5065 22.3157 16.519 22.3157 16.519Z" fill="#F0CAA2"/>
<path fill-rule="evenodd" clip-rule="evenodd" d="M55.643 12.519C55.643 12.519 57.8267 14.8066 53.9444 15.9502C50.0627 17.0942 49.8198 14.217 49.8198 14.217C49.8198 14.217 50.2012 18.8269 54.3258 18.1685C58.4504 17.5102 55.643 12.519 55.643 12.519Z" fill="#F0CAA2"/>
<path fill-rule="evenodd" clip-rule="evenodd" d="M58.5693 6.28444C62.0042 4.10443 66.7594 2.79524 72.721 5.20588C86.0296 10.588 83.7446 30.8472 71.4949 32.7908C59.2447 34.7343 61.9786 25.2467 61.9786 25.2467C61.9786 25.2467 64.2103 31.3703 70.8595 27.8566C77.5087 24.3429 75.3895 12.8436 68.9751 12.0831C66.7461 11.8189 64.859 12.5693 63.3453 13.6607C62.9619 10.7776 61.2042 8.28922 58.5693 6.28444Z" fill="#BD6B59"/>
<path fill-rule="evenodd" clip-rule="evenodd" d="M58.5693 6.28428C59.7789 5.51678 61.1525 4.85687 62.6854 4.42971C62.131 5.8044 61.5504 7.72608 61.6995 9.49118C60.8937 8.31729 59.8327 7.24566 58.5693 6.28428ZM63.1227 12.5388C63.3917 12.7785 63.7033 12.9969 64.0649 13.1876C63.8167 13.3356 63.577 13.4944 63.3459 13.6611C63.2947 13.2802 63.2202 12.9063 63.1227 12.5388ZM66.3173 3.9136C66.6193 3.91041 66.9261 3.91733 67.2372 3.93384C65.9072 5.34208 64.2343 8.23314 67.5765 12.0483C67.2915 12.068 67.0135 12.1037 66.7419 12.1538C63.7107 8.46483 64.9656 5.56206 66.3173 3.9136ZM76.0584 7.08534C76.5415 7.45072 76.9926 7.84113 77.4113 8.25338C76.1042 7.61956 74.4446 7.41077 72.5852 8.54792C71.0183 9.50663 70.1426 10.8552 69.6686 12.2134C69.4433 12.1569 69.2127 12.1127 68.9757 12.0845C69.4843 10.5644 70.4499 9.03633 72.2214 7.95245C73.6217 7.09546 74.917 6.90851 76.0584 7.08534ZM81.1274 14.6171C81.22 14.9447 81.301 15.2754 81.3724 15.6078C80.4744 14.9378 78.8829 14.1404 76.8547 14.7428C75.6046 15.1146 74.8185 16.0067 74.3242 16.9537C74.2252 16.6762 74.1154 16.4046 73.994 16.1409C74.5666 15.2445 75.4118 14.4429 76.6581 14.0728C78.5239 13.5178 80.0659 14.0062 81.1274 14.6171ZM80.8201 24.4983C80.6619 24.9483 80.4829 25.3888 80.2848 25.8176C80.2272 25.0719 80.085 24.1909 79.8214 23.1523C78.9447 19.6999 76.5394 19.4975 74.9074 19.8059C74.8925 19.571 74.8691 19.3372 74.8387 19.1044C76.7151 18.7513 79.4858 18.9883 80.4994 22.9803C80.6374 23.5236 80.7423 24.029 80.8201 24.4983ZM76.6816 30.5089C77.0299 28.4498 77.0773 25.1667 74.0579 24.5025C73.9509 24.7257 73.8353 24.9441 73.7074 25.1566C76.7098 25.7292 76.2422 29.4005 75.8496 31.1118C76.1373 30.9233 76.4142 30.7219 76.6816 30.5089ZM70.5847 32.9168C69.2585 33.075 68.124 33.0894 67.1578 32.9903C67.6617 32.9062 68.2225 32.8114 68.8473 32.7027C72.5447 32.0609 71.104 29.4671 70.1474 28.2042C70.3573 28.1105 70.5714 28.0072 70.7903 27.8932C71.781 29.2205 73.1557 31.7216 70.5847 32.9168ZM65.4566 32.6548C65.1946 32.5739 64.9517 32.4817 64.7238 32.38C65.4289 31.5837 65.8082 30.3278 64.7749 28.4125C65.0662 28.5606 65.3831 28.6847 65.7277 28.7757C66.4825 30.5573 66.1325 31.8037 65.4566 32.6548Z" fill="#8F3D3D"/>
<path fill-rule="evenodd" clip-rule="evenodd" d="M21.8722 5.27476C18.612 3.68383 14.4028 3.02977 9.31464 5.08834C-3.99392 10.4705 -1.70898 30.7292 10.5407 32.6732C22.7904 34.6168 20.057 25.1297 20.057 25.1297C20.057 25.1297 17.8254 31.2533 11.1761 27.7396C4.52745 24.2259 6.64622 12.7266 13.0606 11.9661C14.1226 11.8398 15.1069 11.9448 16.0102 12.2063C17.2677 9.32746 19.3151 7.03347 21.8722 5.27476Z" fill="#BD6B59"/>
<path fill-rule="evenodd" clip-rule="evenodd" d="M21.8729 5.27448C20.2287 4.47235 18.3438 3.90884 16.2261 3.81084C17.4139 5.3565 17.5182 6.93785 17.0996 8.38284C17.4133 6.42121 16.5878 4.85158 15.7217 3.79593C15.4197 3.79273 15.1135 3.79965 14.8019 3.81616C16.1318 5.22441 17.8048 8.11547 14.4626 11.9306C14.6336 11.9423 14.8024 11.9599 14.9691 11.9828L14.9686 11.9833C15.3271 12.0334 15.6743 12.109 16.0104 12.2065C17.2679 9.32718 19.3153 7.03319 21.8729 5.27448ZM5.98065 6.96714C5.49756 7.33198 5.04644 7.72292 4.62726 8.13517C5.93431 7.50135 7.59395 7.29257 9.45332 8.42971C11.0203 9.38843 11.8959 10.737 12.3705 12.0952C12.5952 12.0387 12.8259 11.994 13.0629 11.9663C12.5542 10.4462 11.5886 8.91759 9.81711 7.83425C8.41685 6.97673 7.12205 6.79031 5.98065 6.96714ZM0.911708 14.4989C0.819033 14.8265 0.738075 15.1567 0.667236 15.4896C1.5647 14.8195 3.1567 14.0217 5.18438 14.6246C6.43444 14.9964 7.22058 15.888 7.71538 16.836C7.81392 16.5586 7.92417 16.2864 8.04614 16.0233C7.47304 15.1269 6.62831 14.3253 5.38145 13.9546C3.51516 13.3996 1.97322 13.888 0.911708 14.4989ZM1.21903 24.3801C1.37775 24.8301 1.55618 25.2706 1.75432 25.6994C1.81184 24.9537 1.95405 24.0733 2.21769 23.0341C3.09438 19.5817 5.49969 19.3793 7.13164 19.6877C7.14655 19.4528 7.16999 19.219 7.20034 18.9862C5.32393 18.6331 2.55325 18.8701 1.53967 22.8621C1.40172 23.4054 1.29679 23.9103 1.21903 24.3801ZM5.35749 30.3907C5.00915 28.3316 4.96175 25.0485 7.98117 24.3843C8.08769 24.6075 8.2038 24.8264 8.3311 25.0384C5.32872 25.6109 5.7969 29.2823 6.18837 30.9936C5.90182 30.805 5.62433 30.6037 5.35749 30.3907ZM11.4538 32.7981C12.7801 32.9563 13.9145 32.9707 14.8813 32.8716C14.3774 32.788 13.816 32.6921 13.1912 32.584C9.4938 31.9427 10.9345 29.3483 11.8911 28.0855C11.6818 27.9918 11.4677 27.8884 11.2483 27.7745C10.2581 29.1017 8.88343 31.6034 11.4538 32.7981ZM16.583 32.5361C16.8445 32.4551 17.0879 32.363 17.3153 32.2612C16.6107 31.465 16.2309 30.209 17.2647 28.2943C16.9734 28.4423 16.6559 28.5665 16.3119 28.6575C15.5566 30.4391 15.9065 31.6855 16.583 32.5361Z" fill="#8F3D3D"/>
</svg>
