<svg width="25" height="26" viewBox="0 0 25 26" fill="none" xmlns="http://www.w3.org/2000/svg">
<path d="M5.04398 15.5244L6.06964 19.5069L9.87898 20.5792L6.06964 21.6515L5.04398 25.6339L4.01833 21.6515L0.208984 20.5792L4.01833 19.5069L5.04398 15.5244Z" fill="url(#paint0_linear_21951_37139)"/>
<path d="M17.7504 5.41895L19.2882 11.3901L24.9998 12.9979L19.2882 14.6056L17.7504 20.5768L16.2126 14.6056L10.501 12.9979L16.2126 11.3901L17.7504 5.41895Z" fill="url(#paint1_linear_21951_37139)"/>
<path d="M4.83295 0.366211L5.85818 4.34701L9.6659 5.41883L5.85818 6.49066L4.83295 10.4715L3.80773 6.49066L0 5.41883L3.80773 4.34701L4.83295 0.366211Z" fill="url(#paint2_linear_21951_37139)"/>
<defs>
<linearGradient id="paint0_linear_21951_37139" x1="5.04398" y1="15.5244" x2="14.741" y2="25.2032" gradientUnits="userSpaceOnUse">
<stop stop-color="#FFC801"/>
<stop offset="1" stop-color="#E7BC25" stop-opacity="0.99"/>
</linearGradient>
<linearGradient id="paint1_linear_21951_37139" x1="17.7504" y1="5.41895" x2="32.2898" y2="19.9309" gradientUnits="userSpaceOnUse">
<stop stop-color="#FFC801"/>
<stop offset="1" stop-color="#E7BC25" stop-opacity="0.99"/>
</linearGradient>
<linearGradient id="paint2_linear_21951_37139" x1="4.83295" y1="0.366211" x2="14.5259" y2="10.0409" gradientUnits="userSpaceOnUse">
<stop stop-color="#FFC801"/>
<stop offset="1" stop-color="#E7BC25" stop-opacity="0.99"/>
</linearGradient>
</defs>
</svg>
