<svg width="150" height="150" viewBox="0 0 150 150" fill="none" xmlns="http://www.w3.org/2000/svg">
<mask id="mask0_25001_32932" style="mask-type:luminance" maskUnits="userSpaceOnUse" x="0" y="0" width="150" height="150">
<path d="M150 0H0V150H150V0Z" fill="white"/>
</mask>
<g mask="url(#mask0_25001_32932)">
<path d="M75 134.5C108.137 134.5 135 107.637 135 74.5C135 41.363 108.137 14.5 75 14.5C41.863 14.5 15 41.363 15 74.5C15 107.637 41.863 134.5 75 134.5Z" fill="url(#paint0_linear_25001_32932)"/>
<path d="M52.5 31.7781H98.7685C103.187 31.7781 106.768 35.3596 106.768 39.7781V101.293C106.768 105.711 103.187 109.293 98.7685 109.293H52.5C48.0815 109.293 44.5 105.711 44.5 101.293V39.7781C44.5 35.3596 48.0815 31.7781 52.5 31.7781Z" fill="white"/>
<path d="M52.45 41.778H72.55C73.903 41.778 75 42.875 75 44.228C75 45.581 73.903 46.678 72.55 46.678H52.45C51.097 46.678 50 45.581 50 44.228C50 42.875 51.097 41.778 52.45 41.778Z" fill="#011625"/>
<path d="M52.45 55.678H97.55C98.903 55.678 100 56.775 100 58.128C100 59.481 98.903 60.578 97.55 60.578H52.45C51.097 60.578 50 59.481 50 58.128C50 56.775 51.097 55.678 52.45 55.678Z" fill="#D5D5D5"/>
<path d="M52.45 69.578H97.55C98.903 69.578 100 70.675 100 72.028C100 73.381 98.903 74.478 97.55 74.478H52.45C51.097 74.478 50 73.381 50 72.028C50 70.675 51.097 69.578 52.45 69.578Z" fill="#D5D5D5"/>
<path d="M52.45 83.478H97.55C98.903 83.478 100 84.575 100 85.928C100 87.281 98.903 88.378 97.55 88.378H52.45C51.097 88.378 50 87.281 50 85.928C50 84.575 51.097 83.478 52.45 83.478Z" fill="#D5D5D5"/>
<path d="M52.45 97.3779H97.55C98.903 97.3779 100 98.4749 100 99.8279C100 101.181 98.903 102.278 97.55 102.278H52.45C51.097 102.278 50 101.181 50 99.8279C50 98.4749 51.097 97.3779 52.45 97.3779Z" fill="#D5D5D5"/>
<path d="M144.075 23.212H114.035C112.635 23.212 111.5 24.4065 111.5 25.8795V40.739C111.5 42.212 112.635 43.4065 114.035 43.4065H144.075C145.475 43.4065 146.609 42.212 146.609 40.739V25.8795C146.609 24.4065 145.475 23.212 144.075 23.212Z" fill="white"/>
<path d="M119 36.5C120.657 36.5 122 35.157 122 33.5C122 31.843 120.657 30.5 119 30.5C117.343 30.5 116 31.843 116 33.5C116 35.157 117.343 36.5 119 36.5Z" fill="#CCC6D9"/>
<path d="M129 30.5H139C140.657 30.5 142 31.843 142 33.5C142 35.157 140.657 36.5 139 36.5H129C127.343 36.5 126 35.157 126 33.5C126 31.843 127.343 30.5 129 30.5Z" fill="#D5D5D5"/>
<path fill-rule="evenodd" clip-rule="evenodd" d="M92.5549 112.781C98.9944 112.781 104.979 110.833 109.952 107.494L130.302 126.92L137.682 118.357L118.046 99.613C121.672 94.509 123.805 88.2695 123.805 81.5315C123.805 64.2725 109.813 50.2815 92.5549 50.2815C75.2959 50.2815 61.3049 64.2725 61.3049 81.5315C61.3049 98.7905 75.2959 112.781 92.5549 112.781ZM119.209 81.5315C119.209 96.143 107.364 107.988 92.7524 107.988C78.1409 107.988 66.2959 96.143 66.2959 81.5315C66.2959 66.92 78.1409 55.075 92.7524 55.075C107.364 55.075 119.209 66.92 119.209 81.5315Z" fill="#CCC6D9"/>
<path d="M92.75 108.5C107.8 108.5 120 96.4115 120 81.5C120 66.5885 107.8 54.5 92.75 54.5C77.7 54.5 65.5 66.5885 65.5 81.5C65.5 96.4115 77.7 108.5 92.75 108.5Z" fill="white" fill-opacity="0.3"/>
<path d="M97.4613 81.5L104.056 74.931C104.674 74.281 105.012 73.4175 104.999 72.5235C104.987 71.6295 104.624 70.776 103.988 70.1435C103.352 69.5115 102.493 69.1505 101.593 69.138C100.694 69.1255 99.8248 69.4615 99.1708 70.0755L92.5618 76.6445L85.9673 70.0755C85.6498 69.742 85.2683 69.475 84.8453 69.29C84.4223 69.1055 83.9663 69.007 83.5043 69.0005C83.0423 68.994 82.5838 69.0795 82.1558 69.252C81.7278 69.425 81.3388 69.681 81.0118 70.006C80.6853 70.3305 80.4273 70.717 80.2538 71.1425C80.0798 71.568 79.9938 72.024 80.0003 72.4835C80.0068 72.9425 80.1058 73.3955 80.2918 73.816C80.4773 74.2365 80.7463 74.6155 81.0823 74.931L87.6878 81.5L81.0823 88.069C80.7463 88.3845 80.4773 88.7635 80.2918 89.184C80.1058 89.6045 80.0068 90.0575 80.0003 90.5165C79.9938 90.976 80.0798 91.4315 80.2538 91.8575C80.4273 92.283 80.6853 92.6695 81.0118 92.994C81.3388 93.3185 81.7278 93.575 82.1558 93.748C82.5838 93.9205 83.0423 94.006 83.5043 93.9995C83.9663 93.993 84.4223 93.8945 84.8453 93.71C85.2683 93.525 85.6498 93.258 85.9673 92.9245L92.5763 86.3555L99.1858 92.9245C99.8458 93.502 100.702 93.808 101.582 93.7795C102.461 93.7515 103.296 93.391 103.917 92.772C104.538 92.1525 104.898 91.3215 104.924 90.448C104.95 89.574 104.639 88.723 104.056 88.069L97.4613 81.5Z" fill="#FF4040"/>
<path d="M130.301 126.922L137.681 118.359L138.793 119.42C139.871 120.45 140.517 121.888 140.588 123.418C140.659 124.949 140.149 126.447 139.171 127.582C138.192 128.717 136.826 129.396 135.371 129.471C133.917 129.545 132.494 129.009 131.415 127.979L130.304 126.918L130.301 126.922Z" fill="#E1DCEB"/>
<path fill-rule="evenodd" clip-rule="evenodd" d="M28.157 45.586C28.148 44.873 28.0585 44.1535 27.8795 43.4295C27.252 40.8885 24.453 39.257 21.474 38.8735C18.4965 38.49 15.3995 39.363 14.206 41.5735C13.5235 42.837 13.4295 43.926 13.7085 44.8445C13.986 45.758 14.645 46.515 15.5395 47.1055C18.0335 48.749 22.4015 49.0845 24.3945 48.3975C25.316 48.079 26.2165 47.6955 27.093 47.2565C26.592 50.1295 24.724 52.851 22.231 55.3035C16.813 60.634 8.40599 64.68 3.82749 66.1675C3.58149 66.2475 3.44499 66.52 3.52149 66.777C3.59799 67.034 3.85949 67.178 4.10549 67.098C8.77449 65.581 17.3455 61.449 22.8705 56.013C25.725 53.2055 27.7585 50.0445 28.106 46.7215C34.5585 43.121 39.857 36.5885 44.3875 31.0905C44.556 30.888 44.5335 30.5795 44.338 30.4035C44.1425 30.229 43.8485 30.251 43.68 30.455C39.334 35.728 34.2905 42 28.157 45.586ZM27.219 46.1085C27.2545 45.307 27.179 44.493 26.9755 43.672C26.433 41.4725 23.939 40.172 21.36 39.84C19.7795 39.637 18.154 39.8045 16.879 40.3995C16.0775 40.773 15.4175 41.315 15.0195 42.0525C14.497 43.02 14.384 43.8475 14.598 44.5495C14.8125 45.2565 15.3445 45.8245 16.0375 46.2805C18.3105 47.779 22.2875 48.0975 24.1015 47.4715C25.171 47.103 26.2095 46.643 27.219 46.1085Z" fill="#011625"/>
<path d="M142.5 95C144.157 95 145.5 93.6569 145.5 92C145.5 90.3431 144.157 89 142.5 89C140.843 89 139.5 90.3431 139.5 92C139.5 93.6569 140.843 95 142.5 95Z" fill="#417BA4"/>
<path fill-rule="evenodd" clip-rule="evenodd" d="M29.192 112.697C29.7275 112.496 30.291 112.229 30.7255 111.843C31.2415 111.384 31.4515 110.793 31.592 110.171C31.773 109.372 31.8455 108.521 32.065 107.72C32.146 107.423 32.3025 107.31 32.3695 107.261C32.539 107.135 32.7105 107.101 32.8715 107.114C33.0625 107.128 33.325 107.204 33.498 107.541C33.5225 107.59 33.5545 107.663 33.576 107.764C33.5915 107.838 33.602 108.068 33.6185 108.164C33.66 108.398 33.6945 108.633 33.7275 108.868C33.836 109.653 33.8985 110.319 34.2415 111.04C34.707 112.019 35.1735 112.617 35.806 112.883C36.418 113.139 37.149 113.091 38.0835 112.89C38.1725 112.867 38.2605 112.848 38.3475 112.832C38.7595 112.756 39.1535 113.041 39.2345 113.473C39.3155 113.904 39.0535 114.325 38.645 114.42C38.56 114.44 38.476 114.458 38.393 114.476C37.13 114.805 35.668 115.979 34.8185 117.007C34.557 117.324 34.1735 118.21 33.7825 118.775C33.494 119.193 33.1695 119.467 32.897 119.565C32.7145 119.63 32.561 119.62 32.434 119.587C32.249 119.539 32.096 119.434 31.9785 119.266C31.9145 119.175 31.855 119.052 31.8265 118.895C31.813 118.82 31.8115 118.628 31.812 118.541C31.732 118.253 31.6345 117.971 31.5635 117.68C31.394 116.985 31.0615 116.546 30.6665 115.965C30.297 115.421 29.9 115.079 29.318 114.807C29.2425 114.787 28.6315 114.63 28.416 114.54C28.101 114.407 27.9505 114.185 27.896 114.066C27.8035 113.863 27.794 113.686 27.8125 113.538C27.84 113.32 27.933 113.134 28.098 112.983C28.2 112.89 28.3525 112.799 28.557 112.754C28.7145 112.72 29.1335 112.7 29.192 112.697ZM32.7755 111.565C32.8035 111.631 32.834 111.698 32.866 111.765C33.5475 113.198 34.31 113.999 35.237 114.387L35.268 114.399C34.648 114.884 34.0865 115.425 33.658 115.944C33.481 116.158 33.2475 116.602 32.9945 117.057C32.765 116.272 32.39 115.717 31.918 115.022C31.557 114.492 31.1795 114.093 30.715 113.768C31.0755 113.574 31.419 113.346 31.7185 113.08C32.217 112.636 32.5465 112.123 32.7755 111.565Z" fill="#417BA4"/>
</g>
<defs>
<linearGradient id="paint0_linear_25001_32932" x1="74.5361" y1="-5.03745" x2="75.7651" y2="205.673" gradientUnits="userSpaceOnUse">
<stop stop-color="#F2F2F2"/>
<stop offset="1" stop-color="#EFEFEF"/>
</linearGradient>
</defs>
</svg>
