<svg width="20" height="29" viewBox="0 0 20 29" fill="none" xmlns="http://www.w3.org/2000/svg">
<path d="M19.2454 3.46269V25.9794C19.2454 27.2765 18.1937 28.3282 16.8984 28.3282H2.54442C1.24909 28.3282 0.197388 27.2765 0.197388 25.9794V3.46269C0.197388 2.67913 0.582537 1.98424 1.17352 1.55749C1.55867 1.2799 2.03265 1.11566 2.54442 1.11566H16.8984C17.4138 1.11566 17.8897 1.28189 18.2767 1.56313C18.8641 1.99004 19.2454 2.68294 19.2454 3.46269Z" fill="#DA0735"/>
<path d="M19.2904 3.46269C19.2878 8.61017 19.3168 14.9366 19.3741 20.0541L19.4349 25.5846L19.4363 25.9303C19.4568 26.8042 18.9986 27.6729 18.2521 28.1353C17.8337 28.4076 17.3183 28.5336 16.8319 28.5233L15.4492 28.5163C13.6057 28.5135 11.7623 28.4772 9.91872 28.4583C8.5412 28.4308 5.76577 28.417 4.38824 28.4108L3.00558 28.4056C2.30323 28.4497 1.55381 28.3375 0.998627 27.864C0.438469 27.4061 0.0967404 26.7041 0.0844766 25.9799L0.0415535 23.2145C0.0256437 22.2928 0.0122198 21.371 0.00923673 20.4492C-0.0529109 14.8032 0.171152 9.15774 0.0780136 3.51208C0.00310498 2.13455 1.23247 0.891105 2.61049 0.939995C4.86587 0.924085 7.27372 0.919942 9.52363 0.959385L15.0541 1.03462C15.5186 1.05318 16.6753 1.02949 17.1337 1.06628C18.3289 1.17135 19.3161 2.2615 19.2904 3.46269ZM19.1998 3.46269C19.2142 2.31752 18.2682 1.26731 17.1217 1.18809C16.6893 1.17168 15.5115 1.19522 15.0541 1.19671C11.2472 1.2678 6.37747 1.32282 2.61049 1.29134C1.17844 1.23466 0.184742 2.4685 0.311192 3.85762C0.231809 9.3881 0.446094 14.9182 0.385106 20.4491C0.382123 21.3708 0.368699 22.2926 0.352789 23.2144L0.310031 25.9795C0.29959 26.6454 0.598397 27.2997 1.11265 27.7251C1.64016 28.1792 2.32759 28.2836 3.00558 28.2505L4.38824 28.2454C5.76776 28.2377 8.54004 28.2235 9.91872 28.1978C11.7623 28.1789 13.6057 28.1426 15.4492 28.1398L16.8319 28.1328C17.2661 28.138 17.6802 28.0229 18.039 27.7967C18.6759 27.4068 19.0675 26.6764 19.0543 25.93L19.0556 25.5843L19.1164 20.0538C19.185 14.9459 19.1902 8.59924 19.1998 3.46269Z" fill="black"/>
<path d="M18.2762 1.56318L9.85674 7.77348C9.77935 7.83016 9.67544 7.83016 9.60003 7.77348L1.17297 1.55755C1.55812 1.27996 2.0321 1.11572 2.54387 1.11572H16.8978C17.4134 1.11556 17.8892 1.28178 18.2762 1.56318Z" fill="#E1395D"/>
<path d="M18.322 1.56307C16.29 3.07666 13.9738 4.81182 11.989 6.38424C11.4353 6.80933 10.551 7.51449 9.99418 7.91953C9.84122 8.04797 9.60572 8.04515 9.45457 7.91456L9.32083 7.81678C9.15461 7.69249 8.69753 7.35026 8.52518 7.22083C7.80493 6.68984 6.12014 5.33784 5.38597 4.77834C4.09131 3.76442 2.23484 2.49959 0.863281 1.56489C1.22954 1.26443 1.65463 1.02164 2.13043 0.950375C2.45708 0.884415 2.91399 0.928997 3.24163 0.920545C5.40304 0.967446 7.56413 1.08478 9.72587 0.968112C11.1669 0.903478 12.6077 0.917726 14.0487 0.976062C14.7691 1.00291 15.4897 1.02611 16.2101 1.03771C16.5184 1.0513 16.9915 1.02827 17.2988 1.09025C17.6677 1.17212 18.0447 1.29459 18.322 1.56307ZM18.2313 1.5634C18.1907 1.56025 18.1861 1.5571 18.1397 1.52644C17.8795 1.36121 17.584 1.25084 17.2794 1.20626C16.9885 1.15405 16.5134 1.19764 16.2103 1.1935C14.049 1.23576 11.8878 1.37546 9.72604 1.26327C7.56429 1.14676 5.40321 1.26393 3.2418 1.31083L2.70153 1.31514C2.18562 1.29807 1.70517 1.41508 1.27975 1.70493L1.28141 1.41143C2.51972 2.38756 4.21395 3.75464 5.49486 4.63151C6.72107 5.47837 8.54407 6.74569 9.72786 7.61625C9.73084 7.61692 9.73515 7.61509 9.73813 7.61393L9.75819 7.59951L9.88977 7.50323C10.3631 7.15669 11.2724 6.52527 11.7635 6.18421C13.8412 4.76144 16.193 3.05097 18.2313 1.5634Z" fill="black"/>
</svg>
