<svg width="25" height="32" viewBox="0 0 25 32" fill="none" xmlns="http://www.w3.org/2000/svg">
<path d="M19.2454 6.46269V28.9794C19.2454 30.2765 18.1937 31.3282 16.8984 31.3282H2.54442C1.24909 31.3282 0.197388 30.2765 0.197388 28.9794V6.46269C0.197388 5.67913 0.582537 4.98424 1.17352 4.55749C1.55867 4.2799 2.03265 4.11566 2.54442 4.11566H16.8984C17.4138 4.11566 17.8897 4.28189 18.2767 4.56313C18.8641 4.99004 19.2454 5.68294 19.2454 6.46269Z" fill="#DA0735"/>
<path d="M19.2904 6.46269C19.2878 11.6102 19.3168 17.9366 19.3741 23.0541L19.4349 28.5846L19.4363 28.9303C19.4568 29.8042 18.9986 30.6729 18.2521 31.1353C17.8337 31.4076 17.3183 31.5336 16.8319 31.5233L15.4492 31.5163C13.6057 31.5135 11.7623 31.4772 9.91872 31.4583C8.5412 31.4308 5.76577 31.417 4.38824 31.4108L3.00558 31.4056C2.30323 31.4497 1.55381 31.3375 0.998627 30.864C0.438469 30.4061 0.0967404 29.7041 0.0844766 28.9799L0.0415535 26.2145C0.0256437 25.2928 0.0122198 24.371 0.00923673 23.4492C-0.0529109 17.8032 0.171152 12.1577 0.0780136 6.51208C0.00310498 5.13455 1.23247 3.89111 2.61049 3.93999C4.86587 3.92408 7.27372 3.91994 9.52363 3.95939L15.0541 4.03462C15.5186 4.05318 16.6753 4.02949 17.1337 4.06628C18.3289 4.17135 19.3161 5.2615 19.2904 6.46269ZM19.1998 6.46269C19.2142 5.31752 18.2682 4.26731 17.1217 4.18809C16.6893 4.17168 15.5115 4.19522 15.0541 4.19671C11.2472 4.2678 6.37747 4.32282 2.61049 4.29134C1.17844 4.23466 0.184742 5.4685 0.311192 6.85762C0.231809 12.3881 0.446094 17.9182 0.385106 23.4491C0.382123 24.3708 0.368699 25.2926 0.352789 26.2144L0.310031 28.9795C0.29959 29.6454 0.598397 30.2997 1.11265 30.7251C1.64016 31.1792 2.32759 31.2836 3.00558 31.2505L4.38824 31.2454C5.76776 31.2377 8.54004 31.2235 9.91872 31.1978C11.7623 31.1789 13.6057 31.1426 15.4492 31.1398L16.8319 31.1328C17.2661 31.138 17.6802 31.0229 18.039 30.7967C18.6759 30.4068 19.0675 29.6764 19.0543 28.93L19.0556 28.5843L19.1164 23.0538C19.185 17.9459 19.1902 11.5992 19.1998 6.46269Z" fill="black"/>
<path d="M18.2762 4.56318L9.85674 10.7735C9.77935 10.8302 9.67544 10.8302 9.60003 10.7735L1.17297 4.55755C1.55812 4.27996 2.0321 4.11572 2.54387 4.11572H16.8978C17.4134 4.11556 17.8892 4.28178 18.2762 4.56318Z" fill="#E1395D"/>
<path d="M18.322 4.56307C16.29 6.07666 13.9738 7.81182 11.989 9.38424C11.4353 9.80933 10.551 10.5145 9.99418 10.9195C9.84122 11.048 9.60572 11.0452 9.45457 10.9146L9.32083 10.8168C9.15461 10.6925 8.69753 10.3503 8.52518 10.2208C7.80493 9.68984 6.12014 8.33784 5.38597 7.77834C4.09131 6.76442 2.23484 5.49959 0.863281 4.56489C1.22954 4.26443 1.65463 4.02164 2.13043 3.95037C2.45708 3.88442 2.91399 3.929 3.24163 3.92055C5.40304 3.96745 7.56413 4.08478 9.72587 3.96811C11.1669 3.90348 12.6077 3.91773 14.0487 3.97606C14.7691 4.00291 15.4897 4.02611 16.2101 4.03771C16.5184 4.0513 16.9915 4.02827 17.2988 4.09025C17.6677 4.17212 18.0447 4.29459 18.322 4.56307ZM18.2313 4.5634C18.1907 4.56025 18.1861 4.5571 18.1397 4.52644C17.8795 4.36121 17.584 4.25084 17.2794 4.20626C16.9885 4.15405 16.5134 4.19764 16.2103 4.1935C14.049 4.23576 11.8878 4.37546 9.72604 4.26327C7.56429 4.14676 5.40321 4.26393 3.2418 4.31083L2.70153 4.31514C2.18562 4.29807 1.70517 4.41508 1.27975 4.70493L1.28141 4.41143C2.51972 5.38756 4.21395 6.75464 5.49486 7.63151C6.72107 8.47837 8.54407 9.74569 9.72786 10.6163C9.73084 10.6169 9.73515 10.6151 9.73813 10.6139L9.75819 10.5995L9.88977 10.5032C10.3631 10.1567 11.2724 9.52527 11.7635 9.18421C13.8412 7.76144 16.193 6.05097 18.2313 4.5634Z" fill="black"/>
<path d="M16.3693 20.9362C16.3693 24.4629 13.51 27.3219 9.98319 27.3219C6.45641 27.3219 3.5979 24.4629 3.5979 20.9362C3.5979 17.4098 6.45669 14.5505 9.98319 14.5505C13.51 14.5508 16.3693 17.4098 16.3693 20.9362Z" fill="white"/>
<path d="M10.0385 15.5307C8.95844 15.5309 7.90269 15.8514 7.00471 16.4516C6.10674 17.0518 5.40689 17.9047 4.99365 18.9026C4.58042 19.9005 4.47235 20.9986 4.68312 22.0579C4.89389 23.1172 5.41402 24.0903 6.17775 24.854C6.94149 25.6177 7.91454 26.1379 8.97386 26.3487C10.0332 26.5594 11.1312 26.4513 12.1291 26.0381C13.127 25.6249 13.98 24.925 14.5802 24.0271C15.1804 23.1291 15.5009 22.0733 15.5011 20.9932C15.5011 20.2759 15.3598 19.5656 15.0852 18.9028C14.8107 18.2401 14.4084 17.6379 13.9011 17.1306C13.3939 16.6234 12.7917 16.221 12.129 15.9465C11.4662 15.672 10.7559 15.5307 10.0385 15.5307ZM13.4866 19.6738C13.4857 19.6845 13.4827 19.6949 13.4776 19.7044C13.4726 19.7139 13.4658 19.7223 13.4575 19.7291C13.4423 19.7407 13.4236 19.7469 13.4045 19.7467C13.4007 19.7467 13.2727 19.7312 13.2727 19.7312C13.2622 19.7302 13.2519 19.7271 13.2426 19.7221C13.2332 19.7171 13.225 19.7103 13.2183 19.7021C13.2116 19.6939 13.2066 19.6844 13.2036 19.6743C13.2007 19.6641 13.1997 19.6535 13.2009 19.643C13.2009 19.643 13.2164 19.4626 13.2164 19.3705C13.2166 18.791 12.999 18.2326 12.6068 17.806C12.5417 17.733 12.4561 17.6814 12.3611 17.6582C12.2662 17.6349 12.1664 17.641 12.075 17.6757C11.9836 17.7104 11.9049 17.772 11.8492 17.8524C11.7936 17.9328 11.7637 18.0282 11.7634 18.1259L11.7615 22.6123C11.761 23.0967 11.6259 23.5714 11.3714 23.9836C11.1168 24.3957 10.7528 24.729 10.3198 24.9463C9.96667 25.1245 9.57541 25.2141 9.17989 25.2071H9.16824C8.82742 25.2074 8.4899 25.1405 8.17496 25.0102C7.86003 24.88 7.57383 24.6889 7.33276 24.448C7.09168 24.2071 6.90043 23.9211 6.76996 23.6063C6.63947 23.2914 6.57231 22.9539 6.57231 22.6131C6.57231 22.5113 6.58997 22.3107 6.58997 22.3107C6.59042 22.2998 6.59326 22.2891 6.5983 22.2793C6.60333 22.2696 6.61041 22.2611 6.61908 22.2544C6.63417 22.2426 6.65286 22.2363 6.67202 22.2367C6.67396 22.2367 6.80384 22.2512 6.80384 22.2512C6.82485 22.2539 6.84403 22.2645 6.85741 22.2809C6.87078 22.2974 6.87731 22.3183 6.87566 22.3394C6.87566 22.3403 6.85924 22.5207 6.85924 22.6128C6.85914 23.1925 7.07717 23.751 7.46997 24.1773C7.53507 24.2501 7.62073 24.3015 7.71561 24.3246C7.8105 24.3478 7.91019 24.3416 8.0015 24.307C8.09284 24.2723 8.1715 24.2108 8.22717 24.1305C8.28282 24.0503 8.31284 23.955 8.31328 23.8574V19.3723C8.3139 18.8863 8.44987 18.4102 8.70596 17.9972C8.96203 17.5842 9.32809 17.2507 9.76308 17.0341C9.93652 16.9439 10.1214 16.8777 10.3128 16.8374C10.504 16.7958 10.6993 16.7753 10.8951 16.7763C11.1701 16.7752 11.4437 16.8174 11.7056 16.9014C12.1169 17.0342 12.4885 17.2678 12.7864 17.581C13.2509 18.0717 13.5079 18.7229 13.5037 19.3985C13.503 19.4907 13.4866 19.6738 13.4866 19.6738Z" fill="#08A081"/>
<path d="M18.8554 10.8714C21.7431 10.8714 24.0843 8.53052 24.0843 5.64286C24.0843 2.75545 21.7431 0.414533 18.8554 0.414286C15.9679 0.414286 13.6272 2.75547 13.6272 5.64286C13.6272 8.5305 15.9677 10.8714 18.8554 10.8714Z" fill="white" stroke="black" stroke-width="0.171429" stroke-miterlimit="10"/>
<path d="M17.7214 8.38013C17.5728 8.38013 17.4557 8.34013 17.37 8.26013C17.29 8.17441 17.25 8.06013 17.25 7.91727C17.25 7.7687 17.29 7.65727 17.37 7.58298C17.4557 7.5087 17.5728 7.47155 17.7214 7.47155H18.6814V3.26298H19.2128L17.9528 4.02584C17.8442 4.0887 17.7414 4.11441 17.6442 4.10298C17.5528 4.08584 17.4728 4.04584 17.4042 3.98298C17.3414 3.91441 17.2985 3.83441 17.2757 3.74298C17.2528 3.65155 17.2585 3.56012 17.2928 3.46869C17.3328 3.37155 17.4071 3.29155 17.5157 3.22869L18.6985 2.51727C18.8128 2.44869 18.9271 2.39155 19.0414 2.34584C19.1557 2.29441 19.2614 2.26869 19.3585 2.26869C19.4785 2.26869 19.5785 2.30298 19.6585 2.37155C19.7385 2.43441 19.7785 2.54012 19.7785 2.68869V7.47155H20.6528C20.8014 7.47155 20.9157 7.5087 20.9957 7.58298C21.0814 7.65727 21.1242 7.7687 21.1242 7.91727C21.1242 8.06584 21.0814 8.18013 20.9957 8.26013C20.9157 8.34013 20.8014 8.38013 20.6528 8.38013H17.7214Z" fill="#08A081"/>
</svg>
