<svg width="14" height="14" viewBox="0 0 14 14" fill="none" xmlns="http://www.w3.org/2000/svg">
<path d="M13.3693 6.9362C13.3693 10.4629 10.51 13.3219 6.98319 13.3219C3.45641 13.3219 0.5979 10.4629 0.5979 6.9362C0.5979 3.40979 3.45669 0.550476 6.98319 0.550476C10.51 0.550778 13.3693 3.40979 13.3693 6.9362Z" fill="white"/>
<path d="M7.03854 1.5307C5.95844 1.53091 4.90269 1.85137 4.00471 2.45156C3.10674 3.05176 2.40689 3.90473 1.99365 4.90265C1.58042 5.90055 1.47235 6.99858 1.68312 8.0579C1.89389 9.11723 2.41402 10.0903 3.17775 10.854C3.94149 11.6177 4.91454 12.1379 5.97386 12.3487C7.03319 12.5594 8.13122 12.4513 9.12912 12.0381C10.127 11.6249 10.98 10.925 11.5802 10.0271C12.1804 9.12908 12.5009 8.07332 12.5011 6.99323C12.5011 6.27588 12.3598 5.56556 12.0852 4.90281C11.8107 4.24006 11.4084 3.63788 10.9011 3.13064C10.3939 2.6234 9.7917 2.22103 9.12895 1.94651C8.4662 1.67199 7.75588 1.5307 7.03854 1.5307ZM10.4866 5.67383C10.4857 5.68451 10.4827 5.69493 10.4776 5.70441C10.4726 5.71389 10.4658 5.72229 10.4575 5.72906C10.4423 5.74067 10.4236 5.74688 10.4045 5.7467C10.4007 5.7467 10.2727 5.73117 10.2727 5.73117C10.2622 5.73019 10.2519 5.72711 10.2426 5.72212C10.2332 5.71714 10.225 5.71033 10.2183 5.70212C10.2116 5.69391 10.2066 5.68444 10.2036 5.67428C10.2007 5.66412 10.1997 5.65347 10.2009 5.64295C10.2009 5.64295 10.2164 5.46261 10.2164 5.3705C10.2166 4.79098 9.999 4.23256 9.60676 3.80599C9.54173 3.73298 9.45608 3.68145 9.36112 3.6582C9.26616 3.63493 9.1664 3.64103 9.07499 3.67571C8.98359 3.71039 8.90487 3.772 8.84923 3.85239C8.7936 3.93276 8.76369 4.02816 8.76344 4.12592L8.76151 8.61226C8.761 9.09667 8.62593 9.57142 8.37137 9.98356C8.1168 10.3957 7.75275 10.729 7.31982 10.9463C6.96667 11.1245 6.57541 11.2141 6.17989 11.2071H6.16824C5.82742 11.2074 5.4899 11.1405 5.17496 11.0102C4.86003 10.88 4.57383 10.6889 4.33276 10.448C4.09168 10.2071 3.90043 9.9211 3.76996 9.60627C3.63947 9.29141 3.57231 8.95395 3.57231 8.61313C3.57231 8.51131 3.58997 8.31068 3.58997 8.31068C3.59042 8.29976 3.59326 8.28905 3.5983 8.27933C3.60333 8.26961 3.61041 8.26109 3.61908 8.25439C3.63417 8.24259 3.65286 8.23635 3.67202 8.23675C3.67396 8.23675 3.80384 8.25122 3.80384 8.25122C3.82485 8.25388 3.84403 8.26453 3.85741 8.28095C3.87078 8.29739 3.87731 8.31832 3.87566 8.33944C3.87566 8.34033 3.85924 8.52067 3.85924 8.61279C3.85914 9.19247 4.07717 9.75098 4.46997 10.1773C4.53507 10.2501 4.62073 10.3015 4.71561 10.3246C4.8105 10.3478 4.91019 10.3416 5.0015 10.307C5.09284 10.2723 5.1715 10.2108 5.22717 10.1305C5.28282 10.0503 5.31284 9.95504 5.31328 9.85737V5.37226C5.3139 4.88632 5.44987 4.41019 5.70596 3.99719C5.96203 3.58421 6.32809 3.25074 6.76308 3.03415C6.93652 2.94391 7.12144 2.87772 7.31276 2.8374C7.50404 2.79578 7.69932 2.7753 7.89508 2.77634C8.17014 2.77518 8.44367 2.8174 8.70556 2.90145C9.11692 3.03417 9.4885 3.2678 9.78639 3.58101C10.2509 4.0717 10.5079 4.72287 10.5037 5.39855C10.503 5.49067 10.4866 5.67383 10.4866 5.67383Z" fill="#08A081"/>
</svg>
