<svg width="21" height="21" viewBox="0 0 21 21" fill="none" xmlns="http://www.w3.org/2000/svg">
<path d="M10.2998 15.6357C11.6831 15.6357 12.8625 15.1481 13.8378 14.1727C14.8131 13.1974 15.3005 12.0184 15.2998 10.6357C15.2998 9.25241 14.8121 8.07308 13.8368 7.09774C12.8615 6.12241 11.6825 5.63508 10.2998 5.63574C8.91647 5.63574 7.73714 6.12341 6.7618 7.09874C5.78647 8.07408 5.29914 9.25308 5.2998 10.6357C5.2998 12.0191 5.78747 13.1984 6.7628 14.1737C7.73814 15.1491 8.91714 15.6364 10.2998 15.6357ZM10.2998 20.6357C8.91647 20.6357 7.61647 20.3731 6.39981 19.8477C5.18314 19.3224 4.1248 18.6101 3.2248 17.7107C2.3248 16.8107 1.61247 15.7524 1.0878 14.5357C0.563138 13.3191 0.300471 12.0191 0.299805 10.6357C0.299805 9.25241 0.562471 7.95241 1.0878 6.73574C1.61314 5.51908 2.32547 4.46074 3.2248 3.56074C4.1248 2.66074 5.18314 1.94841 6.39981 1.42374C7.61647 0.899076 8.91647 0.636409 10.2998 0.635742C11.6831 0.635742 12.9831 0.898409 14.1998 1.42374C15.4165 1.94908 16.4748 2.66141 17.3748 3.56074C18.2748 4.46074 18.9875 5.51908 19.5128 6.73574C20.0381 7.95241 20.3005 9.25241 20.2998 10.6357C20.2998 12.0191 20.0371 13.3191 19.5118 14.5357C18.9865 15.7524 18.2741 16.8107 17.3748 17.7107C16.4748 18.6107 15.4165 19.3234 14.1998 19.8487C12.9831 20.3741 11.6831 20.6364 10.2998 20.6357ZM10.2998 18.6357C12.5331 18.6357 14.4248 17.8607 15.9748 16.3107C17.5248 14.7607 18.2998 12.8691 18.2998 10.6357C18.2998 8.40241 17.5248 6.51074 15.9748 4.96074C14.4248 3.41074 12.5331 2.63574 10.2998 2.63574C8.06647 2.63574 6.1748 3.41074 4.6248 4.96074C3.0748 6.51074 2.2998 8.40241 2.2998 10.6357C2.2998 12.8691 3.0748 14.7607 4.6248 16.3107C6.1748 17.8607 8.06647 18.6357 10.2998 18.6357Z" fill="#00B5D4"/>
</svg>
