<svg width="21" height="21" viewBox="0 0 21 21" fill="none" xmlns="http://www.w3.org/2000/svg">
<path d="M10.4336 15.873C11.8169 15.873 12.9963 15.3854 13.9716 14.41C14.9469 13.4347 15.4343 12.2557 15.4336 10.873C15.4336 9.48971 14.9459 8.31038 13.9706 7.33505C12.9953 6.35971 11.8163 5.87238 10.4336 5.87305C9.05026 5.87305 7.87093 6.36071 6.89559 7.33605C5.92026 8.31138 5.43293 9.49038 5.43359 10.873C5.43359 12.2564 5.92126 13.4357 6.89659 14.411C7.87193 15.3864 9.05093 15.8737 10.4336 15.873ZM10.4336 20.873C9.05026 20.873 7.75026 20.6104 6.53359 20.085C5.31693 19.5597 4.25859 18.8474 3.35859 17.948C2.45859 17.048 1.74626 15.9897 1.22159 14.773C0.696927 13.5564 0.43426 12.2564 0.433594 10.873C0.433594 9.48971 0.696261 8.18971 1.22159 6.97305C1.74693 5.75638 2.45926 4.69805 3.35859 3.79805C4.25859 2.89805 5.31693 2.18571 6.53359 1.66105C7.75026 1.13638 9.05026 0.873714 10.4336 0.873047C11.8169 0.873047 13.1169 1.13571 14.3336 1.66105C15.5503 2.18638 16.6086 2.89871 17.5086 3.79805C18.4086 4.69805 19.1213 5.75638 19.6466 6.97305C20.1719 8.18971 20.4343 9.48971 20.4336 10.873C20.4336 12.2564 20.1709 13.5564 19.6456 14.773C19.1203 15.9897 18.4079 17.048 17.5086 17.948C16.6086 18.848 15.5503 19.5607 14.3336 20.086C13.1169 20.6114 11.8169 20.8737 10.4336 20.873ZM10.4336 18.873C12.6669 18.873 14.5586 18.098 16.1086 16.548C17.6586 14.998 18.4336 13.1064 18.4336 10.873C18.4336 8.63971 17.6586 6.74805 16.1086 5.19805C14.5586 3.64805 12.6669 2.87305 10.4336 2.87305C8.20026 2.87305 6.30859 3.64805 4.75859 5.19805C3.20859 6.74805 2.43359 8.63971 2.43359 10.873C2.43359 13.1064 3.20859 14.998 4.75859 16.548C6.30859 18.098 8.20026 18.873 10.4336 18.873Z" fill="#FFC801"/>
</svg>
