<svg width="202" height="190" viewBox="0 0 202 190" fill="none" xmlns="http://www.w3.org/2000/svg">
<path d="M84.3589 109.681H34.4363C27.9618 109.681 22.7129 104.432 22.7129 97.9579V93.9627C22.7129 87.4881 27.9618 82.2392 34.4363 82.2392H72.6354C79.11 82.2392 84.3589 87.4881 84.3589 93.9627V109.681Z" stroke="white" stroke-width="2" stroke-miterlimit="10"/>
<path d="M136.463 181.072C150.498 176.122 164.078 167.658 172.965 155.323C183.837 140.233 182.906 123.129 185.13 105.5C186.034 98.335 190.831 94.216 193.687 87.8622C199.708 74.4599 197.581 54.2887 184.918 45.1846C177.118 39.5772 169.582 38.9657 165.383 29.2149C163.061 23.8229 161.703 17.8876 158.098 13.2553C152.877 6.54757 144.015 3.91141 135.618 2.58748C125.853 1.04815 116.316 1.38983 106.522 1.09958C96.082 0.789982 85.4941 1.07208 75.3594 3.84369C61.6047 7.60519 46.4884 17.4522 44.088 32.4468C43.0589 38.8755 44.4068 45.734 41.9651 51.7696C38.2912 60.8508 28.5038 63.931 21.215 69.296C13.3895 75.0561 8.29948 84.0472 6.06611 93.3937C2.2603 109.32 5.06552 126.987 12.4734 141.447C20.4033 156.926 33.2816 170.095 48.9025 177.84C61.1393 183.907 78.0439 185.694 91.8429 186.545C106.922 187.475 122.274 186.076 136.463 181.072Z" fill="#DFFFF8"/>
<path d="M172.379 118.893C172.292 96.1423 165.998 74.2872 147.486 59.6277C124.645 41.5391 92.713 41.7744 69.3644 58.651C54.0958 69.687 43.3883 86.2928 37.3842 104.15C31.3802 122.007 29.8312 141.109 30.4707 159.938L169.482 160.373C170.063 153.983 170.644 147.593 171.224 141.203C171.891 133.868 172.408 126.374 172.379 118.893Z" fill="#BBF7E9"/>
<path opacity="0.75" d="M91.9968 107.135H42.0743C35.5997 107.135 30.3508 101.886 30.3508 95.4119V91.4167C30.3508 84.9421 35.5997 79.6932 42.0743 79.6932H80.2734C86.7479 79.6932 91.9968 84.9421 91.9968 91.4167V107.135Z" stroke="white" stroke-miterlimit="10"/>
<path opacity="0.75" d="M142.352 61.8843H73.5398C64.9759 61.8843 58.0339 54.9423 58.0339 46.3784V41.0939C58.0339 32.5301 64.9759 25.5881 73.5398 25.5881H126.846C135.41 25.5881 142.352 32.5301 142.352 41.0939V61.8843Z" stroke="white" stroke-miterlimit="10"/>
<path d="M54.133 156.305C53.9619 156.128 53.7363 156.016 53.5438 155.864C52.8233 155.293 52.6766 154.274 52.6018 153.358C51.6811 142.151 53.3595 130.876 52.8294 119.644C52.7026 116.964 50.5273 118.281 48.7512 118.624C48.4879 118.675 45.0075 119.324 45.0467 118.929C44.734 122.12 44.3267 125.537 42.214 127.948C40.7505 129.619 38.6592 130.572 36.8225 131.819C29.9202 136.509 25.8883 145.534 24.8842 153.674C24.8684 153.494 24.8496 153.314 24.8343 153.134C24.6993 151.511 24.5909 149.886 24.5099 148.26C24.3404 144.844 24.2935 141.423 24.3668 138.003C24.4213 135.458 24.7299 132.673 23.1967 130.464C21.8946 128.588 20.4475 128.45 18.5878 128.288C18.0898 127.273 18.1744 125.272 18.1805 124.371C18.1902 122.918 18.4341 121.26 19.4932 120.151C21.2362 118.327 23.9447 119.441 26.146 118.89C31.15 117.636 29.3662 111.26 29.0327 107.58C28.8275 105.314 25.261 105.293 25.4682 107.58C25.6353 109.425 25.9993 111.346 25.9769 113.196C25.9627 114.383 25.9943 115.151 24.7294 115.518C24.2222 115.665 23.5266 115.521 23.0088 115.516C20.4103 115.492 18.1902 116.075 16.5164 118.187C14.7087 120.468 14.4338 123.413 14.7342 126.216C14.9618 128.339 15.0499 131.315 17.6412 131.763C20.0462 132.179 20.8009 132.662 20.8625 135.244C20.9037 136.974 20.7764 138.716 20.7688 140.446C20.751 144.355 20.892 148.264 21.1909 152.161C21.3615 154.387 20.9832 158.446 22.8743 160.103C23.821 160.932 24.957 160.989 25.8741 160.525C28.8382 160.688 35.8469 160.268 36.5985 160.268H45.6409C47.1579 160.268 49.8281 160.785 51.2753 160.041C52.0631 159.635 53.4644 158.895 54.0316 158.23C54.4884 157.693 54.6244 156.81 54.133 156.305Z" fill="#0A6956"/>
<path d="M52.9222 122.923C52.9355 122.007 52.911 121.091 52.8489 120.178C52.8367 120.002 52.8229 119.824 52.7929 119.649C52.7603 119.459 52.7089 119.274 52.6213 119.103C51.9644 117.822 49.6246 118.931 48.7029 119.382C47.6871 119.88 46.7532 120.53 45.8478 121.211C45.3259 121.603 44.7357 122.075 44.4536 122.683C44.1537 123.329 44.3273 124.367 44.3905 125.059C44.4383 125.584 44.5264 126.132 44.8467 126.547C45.167 126.962 45.7877 127.187 46.2404 126.91C46.3356 127.462 46.4344 128.035 46.716 128.52C46.9401 128.905 47.2894 129.179 47.7166 129.302C48.0038 129.386 47.9885 129.335 48.0899 129.634C48.0929 129.643 48.0965 129.651 48.099 129.659C48.1606 129.892 48.2518 130.118 48.372 130.32C48.3791 130.335 48.3847 130.349 48.3918 130.364C48.4682 130.511 48.5553 130.656 48.68 130.765C48.7508 130.828 48.8307 130.873 48.9158 130.908C48.9188 130.91 48.9219 130.912 48.9244 130.913C48.926 130.914 48.9275 130.915 48.929 130.916C49.096 131.02 49.2834 131.089 49.4912 131.106C50.0055 131.148 50.5442 131.007 50.8329 130.541C51.1415 130.044 51.0743 129.472 51.0427 128.916C51.4308 128.897 51.7892 128.697 51.9756 128.276C52.1655 127.846 52.1223 127.303 52.1294 126.85C52.138 126.302 52.1121 125.756 52.0703 125.21C53.1432 125.323 52.911 123.658 52.9222 122.923Z" fill="#84D9C7"/>
<path d="M41.173 141.154C42.9756 142.236 44.1554 144.417 43.94 146.528C43.7154 148.731 41.9724 150.491 40.3598 151.841C38.6723 153.255 36.7974 154.562 35.7158 156.479C36.8223 156.339 37.9355 156.254 39.0501 156.223C40.0044 156.197 41.1083 156.284 41.6654 157.059C42.2489 157.87 41.9256 158.995 42.0794 159.982C42.1868 160.048 42.3431 160.017 42.4165 159.914C42.4898 160.17 42.4674 160.186 42.7332 160.166C43.6243 160.099 44.3805 159.428 44.7919 158.635C45.2033 157.841 45.3291 156.936 45.4355 156.048C45.8154 152.871 46.0206 149.663 45.8129 146.47C45.7472 145.46 45.6285 144.416 45.1091 143.547C44.242 142.097 42.8641 141.018 41.173 141.154Z" fill="url(#paint0_linear_17894_3926)"/>
<path d="M36.7136 111.57C36.6698 111.41 36.625 111.251 36.5781 111.092C36.6005 111.168 37.0089 111.32 37.0883 111.363C37.2712 111.461 37.4529 111.561 37.6342 111.661C37.9968 111.862 38.3568 112.068 38.7142 112.279C39.0717 112.489 39.4266 112.704 39.7785 112.924C39.9368 113.022 40.0188 113.111 40.2006 113.083C40.4578 113.043 40.722 112.883 40.9639 112.789C41.2715 112.669 41.577 112.544 41.8841 112.423C42.4982 112.18 43.1128 111.939 43.7264 111.696C44.9403 111.216 46.1517 110.731 47.3499 110.213C47.8132 110.013 48.8617 109.744 49.0415 109.237C49.1056 109.055 49.1071 108.859 49.1173 108.667C49.1688 107.692 49.3561 105.85 49.3561 105.85C49.3561 105.85 50.0843 106.471 50.1989 106.607C50.4642 106.922 50.7172 107.247 50.9606 107.58C51.449 108.247 51.8879 108.92 52.2897 109.645C53.1304 111.163 53.8458 112.751 54.4268 114.386C54.8943 115.701 55.129 117.017 54.2496 118.205C53.4328 119.309 52.1359 120.004 50.9413 120.62C48.5129 121.873 45.9078 123.277 43.1499 123.539C42.4595 123.605 41.7318 123.588 41.1146 123.272C40.4797 122.946 40.0346 122.34 39.6975 121.711C37.9978 118.538 37.648 114.98 36.7136 111.57Z" fill="#0A6956"/>
<path d="M50.3045 118.579C49.5015 118.313 48.6542 118.257 47.8461 118.026C47.9006 117.942 47.9479 117.85 47.9917 117.774C48.1134 117.56 48.2305 117.344 48.3446 117.126C48.4261 116.971 48.3502 116.811 48.1923 116.753C47.926 116.653 47.481 116.897 47.2299 116.985C46.8394 117.123 46.4616 117.287 46.1066 117.501C45.9147 117.616 45.96 117.9 46.1672 117.966C46.5079 118.074 46.8486 118.181 47.1892 118.288C46.8435 119.152 46.5395 120.028 46.2945 120.926C46.208 121.243 46.6994 121.378 46.7854 121.062C47.0232 120.19 47.3175 119.34 47.6506 118.502C48.4765 118.748 49.3462 118.798 50.1696 119.071C50.4807 119.173 50.6146 118.681 50.3045 118.579Z" fill="#39B39A"/>
<path d="M43.3221 116.441C43.2024 116.399 43.0914 116.403 42.9946 116.441C42.9315 116.435 42.8663 116.457 42.8123 116.526C42.7624 116.59 42.7293 116.662 42.7069 116.736C42.6901 116.775 42.6759 116.815 42.6662 116.857C42.6458 116.945 42.6703 117.017 42.7146 117.071C42.7416 117.14 42.7818 117.205 42.8454 117.261C43.0715 117.459 43.4214 117.377 43.5757 117.131C43.7376 116.872 43.6047 116.541 43.3221 116.441Z" fill="#39B39A"/>
<path d="M50.96 113.386C50.8403 113.343 50.7293 113.348 50.6326 113.386C50.5694 113.38 50.5043 113.401 50.4503 113.471C50.4004 113.534 50.3673 113.607 50.3449 113.681C50.3281 113.72 50.3138 113.76 50.3041 113.802C50.2838 113.89 50.3082 113.962 50.3525 114.016C50.3795 114.085 50.4197 114.15 50.4834 114.206C50.7095 114.404 51.0593 114.322 51.2136 114.076C51.3755 113.817 51.2426 113.485 50.96 113.386Z" fill="#39B39A"/>
<path opacity="0.75" d="M165.097 90.0749H128.909V77.6492C128.909 70.7867 134.472 65.2236 141.335 65.2236H165.097C171.959 65.2236 177.523 70.7867 177.523 77.6492C177.523 84.5118 171.959 90.0749 165.097 90.0749Z" stroke="white" stroke-miterlimit="10"/>
<path d="M64.1422 146.424C63.1742 149.746 62.3401 153.597 64.301 156.449C66.6627 159.883 72.0837 159.843 75.4878 157.439C78.8923 155.034 80.7367 151.032 82.3132 147.173C84.9692 140.672 87.309 133.977 88.2322 127.015C88.7719 122.944 88.3025 117.891 84.6061 116.102C78.9224 113.35 74.0747 117.737 72.2345 122.546C69.2291 130.4 66.4947 138.347 64.1422 146.424Z" fill="#FF735F"/>
<path d="M81.397 104.444C79.9355 105.999 78.6254 107.7 77.4751 109.492C75.8736 111.986 74.7961 114.655 73.5394 117.316C73.0989 118.249 69.4016 126.359 70.2275 126.949C74.8751 130.271 79.4411 133.9 84.7648 135.941C84.9446 136.01 83.9282 139.912 83.8345 140.285C83.472 141.729 83.144 143.18 82.8497 144.639C82.2662 147.533 81.8099 150.476 81.3002 153.392C81.0166 155.017 80.7396 156.642 80.4697 158.269C80.3485 158.997 103.488 160.539 105.583 160.57C111.704 160.66 121.324 162.378 125.04 156.129C125.921 154.648 126.361 152.951 126.753 151.273C129.048 141.444 130.03 131.318 129.793 121.228C129.738 118.86 129.613 116.475 129.037 114.177C128.199 110.831 126.443 107.829 124.607 104.944C122.933 102.312 120.295 100.858 117.497 99.5189C109.072 95.4875 98.932 94.1906 90.3855 97.9567C86.958 99.467 83.9471 101.731 81.397 104.444Z" fill="#39B39A"/>
<path d="M119.856 128.257C119.625 128.791 119.394 129.325 119.163 129.859C118.275 131.911 116.041 135.466 116.041 137.716C114.998 140.979 114.5 144.477 115.108 147.848C115.351 149.197 115.767 150.509 116.21 151.806C116.767 153.442 117.383 155.089 118.42 156.471C119.354 157.715 121.582 159.678 123.307 159.008C125.106 158.308 126.45 155.041 127.137 153.428C131.219 143.838 132.836 133.303 133.831 122.987C133.901 122.265 133.965 121.53 133.813 120.82C133.586 119.763 132.903 118.87 132.226 118.027C131.332 116.912 130.296 115.744 128.89 115.494C127.541 115.254 126.164 115.955 125.237 116.964C124.311 117.973 123.75 119.256 123.206 120.512C122.09 123.095 120.973 125.676 119.856 128.257Z" fill="#FF735F"/>
<path d="M127.255 127.177C126.468 126.956 115.493 124.29 115.468 125.642C115.549 119.682 115.879 113.725 116.456 107.792C116.639 105.901 116.855 103.984 117.574 102.226C118.292 100.468 119.587 98.8596 121.363 98.1854C122.674 97.6874 124.137 97.7337 125.507 98.0316C129.821 98.9691 133.461 102.505 134.523 106.79C134.978 108.627 134.989 110.541 134.971 112.433C134.919 118.057 134.503 123.66 134.171 129.257C131.812 129.205 129.508 127.81 127.255 127.177Z" fill="#39B39A"/>
<path d="M132.828 96.9481C132.972 97.4568 133.075 97.9747 133.109 98.5068C133.338 102.082 130.991 105.072 128.631 107.487C127.706 108.433 126.402 109.087 125.566 110.071C124.611 111.194 124.655 113.048 122.996 113.548C122.276 113.766 121.45 113.491 120.958 112.933C120.355 112.249 120.371 111.51 120.672 110.698C121.029 109.734 121.347 108.533 121.92 107.676C122.379 106.989 123.303 106.532 123.99 106.125C125.381 105.3 126.471 103.722 126.7 102.129C127.132 99.1194 126.695 95.7255 127.742 92.8501C127.923 92.3526 128.168 91.8612 128.564 91.5098C128.961 91.1585 129.535 90.9706 130.035 91.1442C130.77 91.3993 131.06 92.2589 131.316 92.9942C131.779 94.3232 132.448 95.6054 132.828 96.9481Z" fill="#DB6352"/>
<path d="M128.904 134.764C129.246 141.195 129.167 147.747 127.418 153.992C126.896 155.855 126.034 158.525 124.229 159.566C122.193 160.74 118.997 159.793 117.107 158.71C115.859 157.995 114.663 157.115 113.874 155.912C112.627 154.012 112.559 151.587 112.704 149.319C113.095 143.225 114.606 137.539 115.786 131.598C117.071 125.122 118.576 118.691 120.298 112.316C121.034 109.593 121.981 107.567 124.257 105.851C125.88 104.628 128.603 103.011 128.754 106.191C129.204 115.693 128.396 125.224 128.904 134.764Z" fill="#DB6352"/>
<path d="M103.206 102.178C103.009 102.52 102.835 102.872 102.751 103.255C102.645 103.746 102.694 104.255 102.756 104.753C103.222 108.472 103.997 112.152 107.986 113.315C110.631 114.086 113.895 113.815 116.316 112.46C117.093 112.026 117.859 111.548 118.47 110.902C119.081 110.255 119.529 109.416 119.554 108.527C122.232 109.114 125.001 106.388 126.395 104.43C129.591 99.942 130.65 94.3132 130.164 88.8907C130.045 87.5581 129.84 86.1649 129.036 85.095C128.475 84.3485 127.672 83.8281 126.885 83.3245C123.22 80.9796 119.317 80.8518 115.313 82.7023C111.675 84.3837 109.151 87.9802 107.444 91.4728C106.73 92.9337 106.604 94.8596 106.032 96.4233C105.361 98.2575 104.511 100.026 103.496 101.696C103.399 101.856 103.3 102.016 103.206 102.178Z" fill="#FF735F"/>
<path d="M108.265 83.3303C109.096 81.489 110.292 79.7852 111.804 78.7357C114.556 76.8257 118.539 77.1822 121.637 77.8762C123.422 78.2759 125.206 79.054 127.061 79.0321C128.733 79.0127 130.464 77.3446 132.085 77.9062C132.803 78.1547 133.372 78.7933 133.537 79.5342C133.807 80.7527 133.051 81.9295 132.464 83.0319C132 83.9042 131.621 84.8309 131.019 85.6136C130.23 86.6391 128.995 87.4854 127.686 87.6362C127.247 87.6866 126.803 87.6407 126.364 87.5949C123.733 87.3194 121.524 86.5867 119.51 88.6678C118.14 90.0829 117.457 92.0199 116.45 93.6794C116.204 94.0837 115.926 94.489 115.522 94.735C114.988 95.0604 114.324 95.0558 113.715 95.1973C111.103 95.8028 109.385 100.18 106.625 99.2389C104.259 98.4318 104.798 96.283 105.732 94.5812C106.895 92.4644 106.674 89.895 107.025 87.5053C107.218 86.1829 107.638 84.7174 108.265 83.3303Z" fill="#19034D"/>
<path d="M108.918 93.4474C108.3 94.2412 107.984 95.2296 107.79 96.2165C107.623 97.0658 107.541 97.9595 107.799 98.7854C108.057 99.6113 108.721 100.356 109.576 100.494C110.245 100.602 110.936 100.324 111.447 99.8776C112.665 98.8139 114.095 95.5443 113.747 93.8772C113.25 91.489 110.118 91.9055 108.918 93.4474Z" fill="#FF735F"/>
<path d="M111.327 94.3238C110.646 94.555 110.132 95.1401 109.825 95.7903C109.517 96.4406 109.39 97.1585 109.265 97.8669" stroke="#19034D" stroke-miterlimit="10"/>
<path d="M128.613 94.819C128.687 95.1398 128.487 95.4596 128.166 95.5335C127.845 95.6073 127.525 95.4072 127.452 95.0864C127.378 94.7656 127.578 94.4458 127.899 94.372C128.219 94.2981 128.539 94.4982 128.613 94.819Z" fill="#19034D"/>
<path d="M121.929 95.3359C121.983 95.6607 121.763 95.9673 121.438 96.0213C121.114 96.0752 120.807 95.8558 120.753 95.5309C120.699 95.206 120.919 94.8995 121.243 94.845C121.568 94.7915 121.875 95.011 121.929 95.3359Z" fill="#19034D"/>
<path d="M113.277 144.314C113.016 145.974 112.813 147.641 112.705 149.318C112.56 151.586 112.628 154.012 113.875 155.912C114.664 157.114 115.86 157.994 117.108 158.71C118.998 159.792 122.194 160.74 124.231 159.566C126.035 158.525 126.897 155.855 127.419 153.991C128.306 150.826 128.762 147.582 128.953 144.314H113.277Z" fill="url(#paint1_linear_17894_3926)"/>
<path d="M94.9876 134.433C94.0598 131.788 93.1321 129.143 92.2043 126.498C92.273 126.694 91.7068 127.579 91.6111 127.789C91.4023 128.246 91.1945 128.704 90.9868 129.162C90.559 130.105 90.1313 131.048 89.6929 131.986C88.8634 133.762 88.0456 135.598 87.0231 137.261C86.215 136.994 85.4543 136.584 84.7857 136.057C84.5092 137.667 84.0066 139.173 83.6843 140.774C83.5172 141.603 83.366 142.435 83.2127 143.266C83.1348 143.689 83.0569 144.111 82.9765 144.532C82.9439 144.703 82.8812 145.606 82.7473 145.685C87.0878 143.146 91.0688 139.993 94.5339 136.348C94.8114 136.057 95.0986 135.735 95.1526 135.336C95.1938 135.029 95.09 134.724 94.9876 134.433Z" fill="url(#paint2_linear_17894_3926)"/>
<path d="M129.029 91.5713C128.217 91.4587 127.374 91.6533 126.695 92.1115C126.374 92.328 126.208 92.7185 126.405 93.0836C126.575 93.3988 127.054 93.5913 127.377 93.3739C127.873 93.0388 128.375 92.9222 128.968 93.0047C129.351 93.0582 129.7 92.6793 129.715 92.3188C129.733 91.9002 129.414 91.6247 129.029 91.5713Z" fill="#19034D"/>
<path d="M123.244 92.6972C122.248 92.2379 121.18 92.4406 120.163 92.7181C119.382 92.9314 119.57 94.1938 120.363 93.9773C121.154 93.7614 121.989 93.5206 122.771 93.8811C123.517 94.2248 123.987 93.0394 123.244 92.6972Z" fill="#19034D"/>
<path d="M114.267 106.3C114.208 107.631 114.156 108.962 114.119 110.293C114.1 110.987 114.083 111.68 114.072 112.374C114.07 112.501 114.038 112.737 114.028 112.981C114.836 112.781 115.67 112.643 116.434 112.294C117.519 111.8 118.566 111.126 119.113 110.018C119.323 109.594 119.451 109.135 119.575 108.675C117.747 108.301 115.643 107.603 114.267 106.3Z" fill="url(#paint3_linear_17894_3926)"/>
<path d="M100.26 160.255C107.156 161.077 114.758 161.971 121.39 160.014C120.314 158.481 119.227 156.934 117.856 155.656C116.485 154.378 114.792 153.372 112.932 153.138C111.952 153.015 110.958 153.109 109.978 153.229C108.261 153.438 106.034 154.33 104.343 154.192C102.905 154.073 101.03 152.842 99.6692 152.303C90.4368 148.649 79.4858 143.675 69.3939 146.329C64.2896 147.672 61.2201 151.933 64.7382 156.733C66.7032 159.414 69.8822 158.914 72.9797 158.966C81.3414 159.106 89.7305 159.038 98.0515 159.994C98.7781 160.077 99.5149 160.165 100.26 160.255Z" fill="#FF735F"/>
<path d="M121.087 103.192L120.594 103.065C120.875 101.979 121.24 101.17 121.743 100.522C122.386 99.6928 123.271 99.1606 124.171 99.0619C124.494 99.0267 124.788 99.0501 125.047 99.1311C125.577 99.2966 126.045 99.7391 126.331 100.345L125.871 100.562C125.646 100.085 125.29 99.7401 124.896 99.6169C124.704 99.5568 124.479 99.5405 124.227 99.568C123.463 99.6515 122.704 100.113 122.146 100.834C121.687 101.427 121.35 102.176 121.087 103.192Z" fill="#19034D"/>
<path d="M82.9738 143.297C82.9046 143.181 82.8368 143.064 82.7696 142.946C82.2894 142.159 81.8378 141.354 81.407 140.537C80.7669 141.169 80.1462 141.783 79.3956 142.298C78.4317 142.959 77.5666 143.754 76.7564 144.594C76.2599 145.108 75.7833 145.642 75.3113 146.179C75.4365 146.468 75.5582 146.761 75.6784 147.058C75.738 147.204 75.8032 147.348 75.8663 147.493C76.1861 147.385 76.5084 147.283 76.8338 147.189C78.4745 146.713 80.634 146.064 82.4539 146.324C82.5502 145.329 82.9382 144.383 83.0176 143.389C83.0023 143.358 82.9881 143.327 82.9738 143.297Z" fill="url(#paint4_linear_17894_3926)"/>
<path d="M123.117 105.226C122.821 105.223 122.399 105.415 122.258 105.687C122.182 105.835 122.213 105.992 122.303 106.086C122.323 106.181 122.383 106.266 122.506 106.297C122.867 106.39 123.191 106.203 123.411 105.921C123.635 105.632 123.517 105.23 123.117 105.226Z" fill="#DB6352"/>
<path d="M123.634 91.1962C123.266 91.0435 122.888 90.9544 122.492 90.9085C122.167 90.8709 122.17 91.3806 122.492 91.4178C122.841 91.458 123.176 91.5532 123.499 91.6871C123.801 91.8124 123.933 91.32 123.634 91.1962Z" fill="#DB6352"/>
<path d="M126.799 90.4577C126.532 90.5402 126.265 90.6232 125.998 90.7057C125.686 90.8025 125.819 91.2939 126.133 91.1966C126.401 91.1141 126.667 91.0311 126.935 90.9486C127.246 90.8519 127.113 90.3605 126.799 90.4577Z" fill="#DB6352"/>
<path d="M137.261 55.7729H68.4485C59.8846 55.7729 52.9426 48.8309 52.9426 40.2671V34.9825C52.9426 26.4187 59.8846 19.4767 68.4485 19.4767H121.755C130.319 19.4767 137.261 26.4187 137.261 34.9825V55.7729Z" fill="#EECA58"/>
<path d="M98.1079 91.8582H48.1854C41.7108 91.8582 36.4619 86.6093 36.4619 80.1348V76.1395C36.4619 69.665 41.7108 64.4161 48.1854 64.4161H86.3845C92.859 64.4161 98.1079 69.665 98.1079 76.1395V91.8582Z" fill="white"/>
<path opacity="0.49" d="M155.295 147.896L142.107 98.687C140.253 91.7674 134.053 86.9025 126.89 86.7467C113.29 86.4508 105.465 102.097 113.858 112.803C127.647 130.392 142.893 150.151 142.893 150.151L155.295 147.896Z" fill="url(#paint5_linear_17894_3926)"/>
<path d="M174.38 81.6163H138.075V68.7243C138.075 63.4137 142.38 59.1089 147.691 59.1089H174.38C179.691 59.1089 183.996 63.4137 183.996 68.7243V72.001C183.996 77.3115 179.691 81.6163 174.38 81.6163Z" fill="#D3A617"/>
<path d="M154.235 71.5458C154.888 71.5458 155.418 71.0162 155.418 70.3629C155.418 69.7097 154.888 69.1801 154.235 69.1801C153.582 69.1801 153.052 69.7097 153.052 70.3629C153.052 71.0162 153.582 71.5458 154.235 71.5458Z" fill="white"/>
<path d="M162.221 70.3629C162.221 71.0163 161.691 71.5458 161.038 71.5458C160.384 71.5458 159.855 71.0163 159.855 70.3629C159.855 69.7096 160.384 69.1801 161.038 69.1801C161.691 69.1801 162.221 69.7096 162.221 70.3629Z" fill="white"/>
<path d="M167.84 71.5458C168.493 71.5458 169.023 71.0162 169.023 70.3629C169.023 69.7097 168.493 69.1801 167.84 69.1801C167.187 69.1801 166.657 69.7097 166.657 70.3629C166.657 71.0162 167.187 71.5458 167.84 71.5458Z" fill="white"/>
<path d="M88.1822 40.3653C88.8355 40.3653 89.3651 39.8357 89.3651 39.1824C89.3651 38.5291 88.8355 37.9995 88.1822 37.9995C87.5289 37.9995 86.9993 38.5291 86.9993 39.1824C86.9993 39.8357 87.5289 40.3653 88.1822 40.3653Z" fill="white"/>
<path d="M96.1678 39.1824C96.1678 39.8357 95.6382 40.3653 94.9849 40.3653C94.3316 40.3653 93.802 39.8357 93.802 39.1824C93.802 38.5291 94.3316 37.9995 94.9849 37.9995C95.6382 37.9995 96.1678 38.5291 96.1678 39.1824Z" fill="white"/>
<path d="M101.787 40.3653C102.441 40.3653 102.97 39.8357 102.97 39.1824C102.97 38.5291 102.441 37.9995 101.787 37.9995C101.134 37.9995 100.604 38.5291 100.604 39.1824C100.604 39.8357 101.134 40.3653 101.787 40.3653Z" fill="white"/>
<path d="M60.1822 79.3653C60.8355 79.3653 61.3651 78.8357 61.3651 78.1824C61.3651 77.5291 60.8355 76.9995 60.1822 76.9995C59.5289 76.9995 58.9993 77.5291 58.9993 78.1824C58.9993 78.8357 59.5289 79.3653 60.1822 79.3653Z" fill="#D3A617"/>
<path d="M68.1678 78.1824C68.1678 78.8357 67.6382 79.3653 66.9849 79.3653C66.3316 79.3653 65.802 78.8357 65.802 78.1824C65.802 77.5291 66.3316 76.9995 66.9849 76.9995C67.6382 76.9995 68.1678 77.5291 68.1678 78.1824Z" fill="#D3A617"/>
<path d="M73.7874 79.3653C74.4407 79.3653 74.9703 78.8357 74.9703 78.1824C74.9703 77.5291 74.4407 76.9995 73.7874 76.9995C73.1341 76.9995 72.6045 77.5291 72.6045 78.1824C72.6045 78.8357 73.1341 79.3653 73.7874 79.3653Z" fill="#D3A617"/>
<path d="M69.6226 153.659C68.9204 153.659 68.2508 153.59 67.6672 153.468L67.8908 152.4C70.118 152.866 73.7528 152.385 74.7834 150.264C75.1001 149.612 75.0945 148.806 74.7681 148.159C74.4351 147.5 73.9009 147.055 73.1794 146.835C71.7979 146.414 70.0014 146.891 68.8349 147.548L68.2992 146.598C69.5676 145.882 71.69 145.243 73.4971 145.791C74.5003 146.096 75.2768 146.745 75.7422 147.668C76.2183 148.611 76.227 149.788 75.7646 150.74C74.7269 152.877 71.9909 153.659 69.6226 153.659Z" fill="#30201D"/>
<path d="M64.455 157.324H60.6752C56.8251 157.324 53.7036 154.202 53.7036 150.352V143.146H71.4265V150.352C71.4265 154.203 68.3051 157.324 64.455 157.324Z" fill="#30201D"/>
<path d="M76.3347 158.414H49.0693C48.6176 158.414 48.2515 158.048 48.2515 157.597C48.2515 157.145 48.6176 156.779 49.0693 156.779H76.3347C76.7863 156.779 77.1525 157.145 77.1525 157.597C77.1525 158.048 76.7863 158.414 76.3347 158.414Z" fill="white"/>
<mask id="mask0_17894_3926" style="mask-type:luminance" maskUnits="userSpaceOnUse" x="162" y="111" width="26" height="41">
<path d="M179.257 140.12C179.396 139.137 179.733 138.258 180.505 137.806C181.608 137.162 183.077 137.7 184.36 137.46C187.962 136.786 187.935 131.758 187.861 128.989C187.814 127.227 187.735 125.466 187.624 123.707C187.594 123.241 187.557 122.755 187.315 122.356C186.878 121.636 185.881 121.426 185.072 121.657C183.495 122.108 182.61 123.81 182.331 125.426C182.051 127.041 182.188 128.721 181.765 130.305C181.685 130.602 181.584 130.898 181.414 131.155C181.221 131.446 180.942 131.678 180.626 131.828C180.166 132.047 179.591 132.082 179.161 131.807C178.664 131.488 178.747 131.086 178.75 130.601C178.753 130.023 178.669 129.426 178.601 128.836C178.448 127.512 178.316 126.185 178.191 124.858C177.946 122.249 177.734 119.637 177.462 117.031C177.337 115.836 177.202 114.608 176.605 113.537C174.025 108.904 170.094 112.974 169.732 116.352C168.911 124.036 172.914 131.284 172.578 138.911C172.564 139.232 172.547 139.563 172.401 139.855C171.798 141.056 169.873 140.846 168.983 140.153C167.588 139.067 168.088 136.716 168.086 135.301C168.084 134.146 167.715 132.841 166.598 132.3C165.331 131.686 163.678 132.422 162.956 133.554C162.025 135.015 162.128 137.517 162.268 139.143C162.368 140.318 162.648 141.508 163.337 142.504C164.027 143.5 165.179 144.279 166.466 144.357C167.211 144.402 168.061 144.244 168.626 144.69C169.314 145.233 169.067 146.227 169.094 147.058C169.148 148.708 170.554 150.117 172.194 150.811C173.834 151.504 175.685 151.621 177.488 151.727C179.017 149.273 179.119 146.445 179.199 143.703C179.225 142.789 179.08 141.371 179.257 140.12Z" fill="white"/>
</mask>
<g mask="url(#mask0_17894_3926)">
<path d="M179.257 140.121C179.395 139.138 179.733 138.259 180.505 137.807C181.607 137.163 183.077 137.701 184.36 137.461C187.962 136.787 187.934 131.759 187.86 128.99C187.814 127.228 187.735 125.467 187.624 123.708C187.594 123.242 187.556 122.756 187.315 122.356C186.878 121.637 185.881 121.427 185.072 121.658C183.495 122.108 182.61 123.811 182.331 125.427C182.051 127.042 182.188 128.722 181.764 130.306C181.685 130.603 181.584 130.899 181.414 131.155C181.22 131.447 180.941 131.678 180.626 131.829C180.165 132.048 179.59 132.083 179.161 131.808C178.664 131.489 178.747 131.087 178.749 130.602C178.753 130.023 178.669 129.427 178.601 128.837C178.448 127.513 178.315 126.186 178.191 124.859C177.946 122.25 177.733 119.638 177.461 117.032C177.337 115.836 177.202 114.608 176.605 113.537C174.024 108.905 170.093 112.975 169.732 116.352C168.91 124.037 172.913 131.284 172.578 138.912C172.563 139.233 172.547 139.564 172.4 139.856C171.798 141.057 169.873 140.847 168.983 140.154C167.587 139.068 168.088 136.716 168.085 135.301C168.084 134.146 167.714 132.841 166.598 132.301C165.331 131.687 163.678 132.423 162.956 133.555C162.024 135.016 162.128 137.518 162.267 139.144C162.368 140.319 162.648 141.509 163.337 142.505C164.027 143.501 165.178 144.28 166.466 144.358C167.211 144.403 168.061 144.245 168.626 144.691C169.314 145.234 169.067 146.228 169.094 147.059C169.148 148.709 170.554 150.118 172.194 150.811C173.833 151.505 175.684 151.621 177.487 151.727C179.017 149.274 179.119 146.445 179.198 143.703C179.225 142.79 179.08 141.372 179.257 140.121Z" fill="#228F4E"/>
<path d="M174.404 111.733C176.24 124.478 177.823 137.452 175.562 150.14" stroke="white" stroke-miterlimit="10"/>
<path d="M172.64 111.648C172.121 114.021 171.601 116.414 171.612 118.835C171.635 123.45 173.579 127.863 174.343 132.424C175.196 137.52 174.564 142.714 173.931 147.837" stroke="white" stroke-miterlimit="10"/>
<path d="M176.622 134.144C178.84 133.827 181.491 133.506 182.893 131.729C183.093 131.475 183.267 131.2 183.36 130.899C183.731 129.693 183.546 128.326 183.54 127.087C183.535 125.899 183.563 123.815 183.563 122.273" stroke="white" stroke-miterlimit="10"/>
<path d="M174.619 142.61C172.625 142.935 170.419 143.225 168.7 142.247C167.648 141.648 166.935 140.636 166.558 139.557C166.18 138.479 166.11 137.331 166.117 136.199C166.124 134.966 166.222 133.732 166.432 132.513" stroke="white" stroke-miterlimit="10"/>
<path d="M176.646 136.183C179.18 135.806 181.667 135.164 184.041 134.273C184.541 134.085 185.053 133.876 185.419 133.512C185.811 133.122 185.994 132.596 186.149 132.086C186.498 130.933 186.645 123.045 186.26 121.118" stroke="white" stroke-miterlimit="10"/>
</g>
<path d="M167.2 147.498L182.13 147.181L180.609 158.299L169.214 158.296L167.2 147.498Z" fill="#F5BA00"/>
<path d="M163.402 159.033H100.391C99.688 159.033 99.1182 158.463 99.1182 157.76V157.326C99.1182 156.623 99.688 156.053 100.391 156.053H163.402C164.106 156.053 164.675 156.623 164.675 157.326V157.76C164.675 158.463 164.105 159.033 163.402 159.033Z" fill="white"/>
<path d="M164.88 159.034H108.859L113.733 126.843C113.902 125.725 114.851 124.891 115.953 124.891H167.534C168.865 124.891 169.868 126.092 169.663 127.442L164.88 159.034Z" fill="white"/>
<path d="M141.979 142.346C143.46 142.346 144.661 141.145 144.661 139.664C144.661 138.183 143.46 136.982 141.979 136.982C140.497 136.982 139.297 138.183 139.297 139.664C139.297 141.145 140.497 142.346 141.979 142.346Z" stroke="#178D75" stroke-width="2" stroke-miterlimit="10"/>
<path d="M144.752 122.398C144.416 120.926 144.25 119.415 144.259 117.905C144.268 116.427 144.486 115.358 145.458 114.243C146.121 113.482 147.06 112.517 147.85 111.888C150.073 110.116 150.933 106.825 149.861 104.192" stroke="white" stroke-width="2" stroke-miterlimit="10"/>
<path d="M149.451 118.07C149.154 116.805 149.856 115.511 150.74 114.559C151.624 113.608 152.714 112.847 153.484 111.8C155.133 109.556 155.055 107.447 154.753 103.282C154.54 100.354 154.596 97.0338 156.709 94.9944" stroke="white" stroke-width="2" stroke-miterlimit="10"/>
<path d="M183.411 161.504H20.7854C19.9417 161.504 19.2578 160.82 19.2578 159.976V159.456C19.2578 158.612 19.9417 157.928 20.7854 157.928H183.411C184.254 157.928 184.938 158.612 184.938 159.456V159.976C184.938 160.82 184.254 161.504 183.411 161.504Z" fill="#39B39A"/>
<path d="M200.062 65.4692C201.32 73.4505 201.835 82.021 198.178 89.2262C196.139 93.2449 192.926 96.5736 191.103 100.711C189.159 105.126 188.472 109.711 187.989 114.497" stroke="#4FD7BB" stroke-width="2" stroke-miterlimit="10"/>
<path d="M35.2466 52.1076C30.1587 58.2511 22.6026 61.7341 16.4931 66.8634C6.61399 75.1578 0.758634 88.0417 1.00764 100.939" stroke="#4FD7BB" stroke-width="2" stroke-miterlimit="10"/>
<path d="M146.747 1.13327C155.037 3.75364 162.102 10.0164 165.699 17.931" stroke="#4FD7BB" stroke-width="2" stroke-miterlimit="10"/>
<path d="M30.8652 171.43C42.0836 181.286 56.6209 187.296 71.5238 188.238" stroke="#4FD7BB" stroke-width="2" stroke-miterlimit="10"/>
<path d="M142.597 174.378C145.327 173.154 147.996 171.793 150.583 170.29" stroke="#178D75" stroke-width="2" stroke-miterlimit="10"/>
<path d="M105.436 181.872C116.266 181.395 125.668 180.879 137.344 176.257" stroke="#178D75" stroke-width="2" stroke-miterlimit="10"/>
<defs>
<linearGradient id="paint0_linear_17894_3926" x1="35.8035" y1="153.545" x2="52.368" y2="145.962" gradientUnits="userSpaceOnUse">
<stop stop-color="#178D75"/>
<stop offset="0.5554" stop-color="#187B67"/>
</linearGradient>
<linearGradient id="paint1_linear_17894_3926" x1="114.866" y1="161.436" x2="122.104" y2="145.668" gradientUnits="userSpaceOnUse">
<stop stop-color="#201B59" stop-opacity="0.9148"/>
<stop offset="0.5554" stop-color="#FFCC00" stop-opacity="0"/>
</linearGradient>
<linearGradient id="paint2_linear_17894_3926" x1="84.2596" y1="132.998" x2="92.8731" y2="141.281" gradientUnits="userSpaceOnUse">
<stop stop-color="#201B59" stop-opacity="0.9148"/>
<stop offset="0.5554" stop-color="#FFCC00" stop-opacity="0"/>
</linearGradient>
<linearGradient id="paint3_linear_17894_3926" x1="118.249" y1="105.167" x2="114.011" y2="113.301" gradientUnits="userSpaceOnUse">
<stop offset="0.2654" stop-color="#201B59" stop-opacity="0.9148"/>
<stop offset="0.5554" stop-color="#FF735F" stop-opacity="0"/>
</linearGradient>
<linearGradient id="paint4_linear_17894_3926" x1="81.6448" y1="149.912" x2="77.2148" y2="140.918" gradientUnits="userSpaceOnUse">
<stop offset="0.2654" stop-color="#201B59" stop-opacity="0.9148"/>
<stop offset="0.5554" stop-color="#FF735F" stop-opacity="0"/>
</linearGradient>
<linearGradient id="paint5_linear_17894_3926" x1="146.795" y1="127.734" x2="108.807" y2="86.4331" gradientUnits="userSpaceOnUse">
<stop offset="0.0045" stop-color="white"/>
<stop offset="0.551" stop-color="white" stop-opacity="0.3"/>
</linearGradient>
</defs>
</svg>
