<svg width="208" height="148" viewBox="0 0 208 148" fill="none" xmlns="http://www.w3.org/2000/svg">
<path d="M62.6184 37.4409L61.7459 37.5189C61.3962 36.4101 60.8856 35.3768 60.2432 34.4486L60.9018 33.6606C61.886 32.483 61.7293 30.7309 60.5517 29.7469C59.3744 28.7627 57.622 28.9195 56.6381 30.097L56.0757 30.77C55.0697 30.2447 53.9838 29.8678 52.844 29.6607C52.8437 29.6607 52.8432 29.6605 52.8429 29.6605L52.7514 28.6375C52.6147 27.1092 51.2648 25.981 49.7365 26.1177C48.2082 26.2544 47.0797 27.6043 47.2164 29.1326L47.2945 30.0051C46.1856 30.3548 45.1524 30.8654 44.2244 31.5078L43.4364 30.8492C42.2591 29.865 40.5067 30.0217 39.5227 31.1993C38.5385 32.3766 38.6953 34.129 39.8728 35.1129L40.5455 35.6754C40.0203 36.6813 39.6431 37.7675 39.436 38.9076C39.4361 38.9079 39.4361 38.9081 39.4358 38.9084L38.4133 38.9999C36.8847 39.1366 35.7568 40.4865 35.8935 42.0148C36.0302 43.5431 37.3801 44.6713 38.9084 44.5346L39.7804 44.4566C40.1299 45.5657 40.6407 46.5989 41.2834 47.5274L40.6253 48.3149C39.6411 49.4924 39.7978 51.2446 40.9753 52.2285C42.1527 53.2127 43.9051 53.056 44.889 51.8784L45.4495 51.2078C45.4498 51.208 45.4501 51.208 45.4503 51.208C46.4561 51.7308 47.5446 52.1075 48.6847 52.3172L48.7759 53.3374C48.9126 54.866 50.2625 55.9942 51.7908 55.8575C53.3194 55.7208 54.4474 54.3709 54.3106 52.8423L54.2326 51.9706C55.3417 51.6208 56.375 51.1102 57.3032 50.4676L58.0907 51.1257C59.2679 52.1097 61.0204 51.9529 62.0046 50.7756C62.9885 49.5984 62.8318 47.8459 61.6545 46.8617L60.9835 46.301C61.5064 45.2952 61.883 44.2062 62.093 43.0661L63.1137 42.9748C64.6423 42.838 65.7702 41.4882 65.6335 39.9599C65.4969 38.4321 64.147 37.3041 62.6184 37.4409ZM59.0035 40.2513C59.4105 44.801 56.05 48.8215 51.5003 49.2285C46.9506 49.6355 42.9301 46.275 42.5232 41.7255C42.1159 37.1732 45.4766 33.1551 50.0263 32.7481C54.5761 32.3411 58.5963 35.6989 59.0035 40.2513Z" fill="#00BA88"/>
<path d="M45.5558 41.4541C45.8131 44.3302 48.3534 46.4534 51.2295 46.1961C54.1059 45.9388 56.2315 43.3983 55.9742 40.5222C55.7169 37.6458 53.1737 35.5205 50.2976 35.7778C47.4214 36.0348 45.2985 38.5777 45.5558 41.4541Z" fill="#00BA88"/>
<path d="M88.7063 27.5274L88.131 27.3254C88.2289 26.5219 88.203 25.7202 88.0634 24.9469L88.7079 24.6374C89.6708 24.175 90.0764 23.0192 89.6137 22.0564C89.1509 21.0935 87.9955 20.6878 87.0326 21.1506L86.4821 21.4151C85.9961 20.7925 85.4165 20.2408 84.7538 19.781L84.7532 19.7806L84.99 19.106C85.3437 18.0979 84.8136 16.9941 83.8055 16.6405C82.7974 16.2868 81.6936 16.8169 81.3399 17.825L81.138 18.4005C80.3344 18.3027 79.5327 18.3286 78.7594 18.4682L78.4497 17.8237C77.987 16.8609 76.8315 16.4552 75.8686 16.918C74.9057 17.3804 74.5001 18.5362 74.9628 19.499L75.2271 20.0493C74.6043 20.5353 74.0526 21.1152 73.5928 21.7778L73.5926 21.7784L72.9183 21.5418C71.9102 21.1881 70.8064 21.7183 70.4527 22.7264C70.099 23.7345 70.6292 24.8383 71.6373 25.192L72.2123 25.3937C72.1144 26.1972 72.1403 26.9992 72.28 27.7727L71.636 28.0822C70.6732 28.5449 70.2675 29.7004 70.7302 30.6633C71.1927 31.6261 72.3484 32.0318 73.3113 31.569L73.8598 31.3055L73.8601 31.306C74.3468 31.9269 74.928 32.4795 75.59 32.941L75.3539 33.6138C75.0002 34.6219 75.5303 35.7257 76.5384 36.0794C77.5462 36.4331 78.6503 35.9027 79.004 34.8949L79.2057 34.3199C80.0093 34.4178 80.8112 34.3918 81.5848 34.2522L81.8942 34.8961C82.357 35.859 83.5124 36.2646 84.4753 35.8019C85.4382 35.3395 85.8438 34.1837 85.3811 33.2209L85.1175 32.6721C85.7387 32.1854 86.291 31.6042 86.7525 30.9419L87.4256 31.1781C88.4337 31.5317 89.5375 31.0016 89.8912 29.9935C90.2446 28.9849 89.7144 27.8811 88.7063 27.5274ZM85.6056 28.2667C84.5527 31.2671 81.2647 32.8468 78.2642 31.7936C75.2637 30.7405 73.6841 27.4528 74.7369 24.4523C75.7904 21.4502 79.0778 19.8722 82.0783 20.925C85.0791 21.9784 86.6593 25.2645 85.6056 28.2667Z" fill="url(#paint0_linear_15325_4922)"/>
<path d="M76.7363 25.1542C76.0707 27.0509 77.0688 29.1285 78.9655 29.7941C80.8625 30.4597 82.9414 29.4623 83.6071 27.5656C84.2727 25.6686 83.2736 23.589 81.3766 22.9234C79.4799 22.2578 77.402 23.2575 76.7363 25.1542Z" fill="url(#paint1_linear_15325_4922)"/>
<path d="M36.1542 147.996C34.9726 147.741 33.7658 147.436 32.567 147.089C32.4617 147.058 32.3982 146.937 32.4253 146.818C32.4524 146.7 32.5587 146.629 32.6654 146.659C33.8561 147.004 35.0549 147.307 36.2283 147.56C36.3353 147.583 36.4053 147.7 36.385 147.82C36.3668 147.926 36.2843 148 36.1915 148C36.1792 148 36.1665 147.999 36.1542 147.996ZM29.0363 145.939C27.876 145.521 26.7094 145.058 25.5696 144.564C25.4679 144.52 25.4173 144.392 25.4566 144.277C25.4958 144.163 25.61 144.106 25.7113 144.15C26.8443 144.641 28.0035 145.101 29.1568 145.517C29.2605 145.555 29.3176 145.679 29.2844 145.796C29.2577 145.89 29.1801 145.95 29.0966 145.95C29.0767 145.95 29.0564 145.947 29.0363 145.939ZM22.177 142.968C21.0542 142.396 19.9428 141.786 18.8735 141.153C18.7772 141.096 18.7402 140.962 18.7909 140.853C18.8417 140.744 18.9612 140.703 19.0571 140.76C20.1194 141.389 21.2238 141.996 22.3395 142.563C22.4387 142.614 22.4827 142.745 22.438 142.857C22.405 142.939 22.3333 142.987 22.2582 142.987C22.2309 142.987 22.2032 142.981 22.177 142.968ZM15.6752 139.112C14.6118 138.381 13.5789 137.614 12.6054 136.833C12.5168 136.762 12.4961 136.623 12.5593 136.523C12.6226 136.423 12.7455 136.4 12.8343 136.471C13.8002 137.246 14.8251 138.008 15.8808 138.733C15.9737 138.797 16.0029 138.933 15.9464 139.038C15.909 139.107 15.8443 139.144 15.778 139.144C15.7427 139.144 15.7072 139.134 15.6752 139.112ZM9.69698 134.295C8.73296 133.378 7.82639 132.429 7.00157 131.473C6.92571 131.385 6.92761 131.244 7.00556 131.159C7.08332 131.074 7.2083 131.076 7.28435 131.164C8.10007 132.109 8.99753 133.049 9.95169 133.956C10.0348 134.035 10.0452 134.175 9.97483 134.269C9.93595 134.321 9.88019 134.348 9.82405 134.348C9.77929 134.348 9.73416 134.33 9.69698 134.295ZM4.59406 128.333C3.82254 127.187 3.14831 126.015 2.59034 124.848C2.53875 124.739 2.57478 124.605 2.67056 124.547C2.76634 124.489 2.88582 124.529 2.9376 124.637C3.4859 125.784 4.14894 126.938 4.90833 128.065C4.97395 128.162 4.95707 128.302 4.87039 128.376C4.83474 128.406 4.79301 128.421 4.75148 128.421C4.69193 128.421 4.63294 128.39 4.59406 128.333ZM1.15804 121.017C0.789541 119.656 0.5684 118.28 0.500313 116.925C0.494244 116.802 0.577124 116.698 0.685987 116.691C0.797505 116.681 0.887782 116.778 0.894041 116.9C0.960231 118.219 1.17606 119.561 1.53527 120.888C1.56695 121.005 1.50834 121.129 1.40422 121.165C1.38506 121.171 1.36572 121.175 1.34675 121.175C1.26198 121.174 1.18403 121.113 1.15804 121.017ZM0.920973 113.03C0.814196 113.006 0.74535 112.889 0.766971 112.768C1.00594 111.442 1.39815 110.112 1.93261 108.816C1.97831 108.705 2.09533 108.657 2.19433 108.708C2.29314 108.76 2.33601 108.891 2.29011 109.003C1.76874 110.268 1.3862 111.564 1.1533 112.857C1.13434 112.962 1.05222 113.034 0.960422 113.034C0.947336 113.035 0.934249 113.033 0.920973 113.03ZM3.85402 105.544C3.76564 105.473 3.74535 105.334 3.80888 105.235C4.03325 104.883 4.27146 104.529 4.51706 104.184C5.01947 103.475 5.59128 102.777 6.21658 102.11C6.29567 102.025 6.42027 102.029 6.49519 102.118C6.5701 102.207 6.56688 102.347 6.48779 102.432C5.87577 103.085 5.31647 103.768 4.82507 104.461C4.58382 104.801 4.3496 105.148 4.12902 105.494C4.09052 105.554 4.03002 105.586 3.96876 105.586C3.92894 105.586 3.88873 105.572 3.85402 105.544ZM9.02674 99.8307C8.96491 99.7299 8.98747 99.5918 9.07718 99.5221C10.0291 98.7833 11.0868 98.0622 12.2211 97.3789C12.3171 97.321 12.4364 97.3615 12.488 97.4699C12.5394 97.5781 12.5033 97.7122 12.4074 97.7701C11.2859 98.4458 10.2409 99.158 9.30117 99.8873C9.26703 99.9138 9.22796 99.9265 9.18927 99.9265C9.12649 99.9267 9.06486 99.8933 9.02674 99.8307ZM15.4328 95.8793C15.3895 95.7669 15.4354 95.6364 15.5354 95.5875C16.6064 95.0658 17.7574 94.5548 18.9559 94.0694C19.0583 94.0276 19.1713 94.0879 19.2081 94.2031C19.2451 94.3183 19.192 94.4454 19.0894 94.487C17.8987 94.9695 16.7556 95.4767 15.6919 95.9948C15.6663 96.0071 15.6397 96.0129 15.6137 96.0129C15.5377 96.0132 15.465 95.9632 15.4328 95.8793ZM22.3143 93.0449C22.2825 92.9279 22.3411 92.8037 22.4452 92.7682C23.571 92.3812 24.7607 92.0018 25.9811 91.6405C26.0864 91.6092 26.1943 91.6805 26.222 91.7989C26.2497 91.9173 26.1867 92.0386 26.0815 92.0699C24.8658 92.4296 23.6812 92.8071 22.5605 93.1923C22.5411 93.1989 22.5218 93.2023 22.5026 93.2023C22.4184 93.202 22.3403 93.1404 22.3143 93.0449ZM29.4016 90.9215C29.3773 90.8023 29.4435 90.6831 29.5497 90.6558C30.7066 90.358 31.9151 90.0665 33.1415 89.7894C33.2477 89.7655 33.3522 89.8431 33.3736 89.9633C33.395 90.0835 33.3258 90.2006 33.219 90.2246C31.9961 90.5008 30.7912 90.7915 29.6377 91.0886C29.6229 91.0923 29.6081 91.0941 29.5935 91.0941C29.5036 91.0941 29.4223 91.0244 29.4016 90.9215ZM36.5904 89.2787C36.5712 89.1582 36.6427 89.043 36.7499 89.0217C37.9132 88.7891 39.1316 88.5594 40.3712 88.3387C40.4787 88.3216 40.5798 88.4021 40.5967 88.5234C40.6138 88.6444 40.5404 88.7578 40.4328 88.7773C39.1957 88.9972 37.9798 89.2266 36.8189 89.4584C36.8072 89.4608 36.7956 89.4619 36.784 89.4619C36.6905 89.4621 36.6073 89.3866 36.5904 89.2787ZM43.8347 87.9791C43.8196 87.8578 43.8945 87.7457 44.0024 87.7283C45.1839 87.5407 46.408 87.3568 47.641 87.1808C47.7483 87.1666 47.8477 87.2513 47.8613 87.3729C47.8752 87.4944 47.7986 87.6057 47.6905 87.621C46.4594 87.7962 45.2372 87.9804 44.0576 88.1674C44.0483 88.1693 44.039 88.1698 44.0297 88.1698C43.933 88.1701 43.8486 88.0901 43.8347 87.9791ZM51.1115 86.9343C51.0992 86.8128 51.1767 86.7025 51.285 86.6888C52.4791 86.5357 53.7066 86.386 54.9337 86.2439C55.0404 86.2305 55.1389 86.32 55.1499 86.4418C55.1611 86.5636 55.0822 86.6728 54.9739 86.6854C53.7483 86.8272 52.5222 86.9767 51.3296 87.1298C51.322 87.1308 51.3144 87.1314 51.307 87.1314C51.2082 87.1308 51.1229 87.0474 51.1115 86.9343ZM58.408 86.0819C58.3979 85.9598 58.4776 85.8519 58.5859 85.8404C59.794 85.7135 61.0127 85.5917 62.2408 85.4746C62.3512 85.4636 62.4448 85.5546 62.4539 85.677C62.4631 85.7993 62.3826 85.9064 62.2742 85.9169C61.0469 86.034 59.8295 86.1558 58.6225 86.2826C58.6162 86.2831 58.61 86.2834 58.6039 86.2834C58.5034 86.2831 58.4175 86.1968 58.408 86.0819ZM65.7166 85.3789C65.7083 85.2565 65.7895 85.15 65.8979 85.1405C67.1095 85.035 68.3293 84.9337 69.5568 84.8361C69.6634 84.8322 69.7595 84.9193 69.7673 85.0419C69.7749 85.1642 69.6934 85.2702 69.5845 85.2789C68.358 85.3765 67.1389 85.4778 65.9283 85.5836C65.923 85.5838 65.9178 85.5841 65.9129 85.5841C65.8109 85.5838 65.7246 85.4954 65.7166 85.3789ZM73.033 84.7922C73.026 84.6696 73.1083 84.5643 73.217 84.5564C74.4314 84.4678 75.652 84.382 76.8783 84.2991C76.9832 84.2897 77.0803 84.3852 77.0868 84.5075C77.0932 84.6299 77.0105 84.7348 76.9018 84.7425C75.6763 84.8253 74.456 84.9106 73.2424 84.9992C73.2381 84.9995 73.2337 84.9998 73.2295 84.9998C73.1265 84.9998 73.0399 84.9095 73.033 84.7922ZM80.3546 84.2957C80.3485 84.1731 80.4317 84.0687 80.5404 84.0616C81.7569 83.9855 82.9783 83.9119 84.2035 83.8406C84.3142 83.8314 84.4047 83.9282 84.4104 84.0505C84.4161 84.1731 84.3324 84.2773 84.2238 84.2836C82.9991 84.3549 81.7783 84.4286 80.5624 84.5046C80.5586 84.5049 80.5552 84.5049 80.5514 84.5049C80.4473 84.5051 80.3604 84.4139 80.3546 84.2957ZM87.6793 83.8664C87.674 83.744 87.7578 83.6398 87.8667 83.634C89.0851 83.5677 90.3064 83.503 91.5305 83.4396C91.638 83.4257 91.7315 83.5285 91.7365 83.6511C91.7414 83.7735 91.6574 83.8774 91.5485 83.8829C90.325 83.9461 89.1038 84.0108 87.8858 84.0774C87.8826 84.0776 87.8794 84.0776 87.8762 84.0776C87.7717 84.0776 87.6844 83.985 87.6793 83.8664ZM94.9978 83.487C94.9931 83.3644 95.0773 83.2607 95.1861 83.2554C96.4058 83.1955 97.6274 83.1368 98.8499 83.0789C98.956 83.0705 99.0506 83.1686 99.0552 83.2912C99.0597 83.4136 98.9751 83.5172 98.8664 83.522C97.6441 83.5798 96.4229 83.6385 95.2034 83.6985C95.2005 83.6988 95.1975 83.6988 95.1947 83.6988C95.0898 83.699 95.0027 83.6061 94.9978 83.487ZM102.332 83.1389C102.328 83.0168 102.413 82.9132 102.521 82.9084C103.743 82.8524 104.964 82.7969 106.186 82.7421C106.299 82.7316 106.387 82.8326 106.391 82.9547C106.395 83.0773 106.31 83.1805 106.202 83.1852C104.98 83.2402 103.759 83.2957 102.537 83.3517C102.535 83.352 102.532 83.352 102.529 83.352C102.424 83.3517 102.337 83.2583 102.332 83.1389ZM109.661 82.8087C109.657 82.6864 109.742 82.583 109.851 82.5785L113.515 82.4149C113.62 82.4014 113.715 82.5051 113.72 82.6274C113.724 82.7498 113.639 82.8534 113.531 82.8579L109.866 83.0218C109.864 83.0221 109.861 83.0221 109.858 83.0221C109.753 83.0218 109.666 82.9282 109.661 82.8087ZM116.99 82.4796C116.986 82.357 117.07 82.2538 117.179 82.2491C118.403 82.1933 119.625 82.137 120.843 82.0802C120.957 82.0634 121.044 82.1699 121.048 82.2925C121.053 82.4151 120.968 82.5185 120.86 82.5233C119.641 82.5801 118.42 82.6364 117.195 82.6924C117.193 82.6927 117.19 82.6927 117.187 82.6927C117.082 82.6924 116.994 82.599 116.99 82.4796ZM124.318 82.1368C124.314 82.0144 124.398 81.911 124.507 81.9058C125.732 81.8463 126.954 81.7855 128.17 81.7237C128.277 81.7148 128.371 81.8129 128.376 81.9352C128.381 82.0576 128.297 82.1615 128.188 82.167C126.971 82.2289 125.749 82.2894 124.524 82.3491C124.521 82.3493 124.518 82.3493 124.515 82.3493C124.41 82.3491 124.323 82.256 124.318 82.1368ZM131.646 81.7637C131.641 81.6414 131.725 81.5372 131.833 81.5314C133.06 81.4654 134.281 81.3972 135.496 81.327C135.607 81.317 135.697 81.4146 135.703 81.5372C135.708 81.6595 135.625 81.7637 135.516 81.77C134.301 81.8403 133.079 81.9081 131.852 81.9742C131.849 81.9744 131.846 81.9744 131.843 81.9744C131.738 81.975 131.651 81.8824 131.646 81.7637ZM138.971 81.342C138.965 81.2196 139.049 81.1152 139.157 81.1083C140.385 81.032 141.606 80.9531 142.818 80.8718C142.928 80.8655 143.02 80.9578 143.026 81.0802C143.033 81.2028 142.95 81.3075 142.842 81.3151C141.629 81.3967 140.408 81.4753 139.179 81.5516C139.175 81.5519 139.172 81.5519 139.168 81.5519C139.064 81.5517 138.977 81.4601 138.971 81.342ZM146.293 80.8497C146.286 80.7274 146.369 80.6216 146.477 80.614C147.707 80.5235 148.926 80.4295 150.135 80.3322C150.243 80.3256 150.338 80.4153 150.346 80.5377C150.354 80.66 150.272 80.766 150.164 80.775C148.954 80.8723 147.733 80.9663 146.503 81.0568C146.499 81.057 146.495 81.0573 146.49 81.0573C146.387 81.057 146.3 80.967 146.293 80.8497ZM153.61 80.2614C153.602 80.1391 153.683 80.0323 153.791 80.0225C155.022 79.9134 156.24 79.7992 157.445 79.6805C157.554 79.67 157.649 79.76 157.658 79.882C157.668 80.0044 157.588 80.1117 157.479 80.1225C156.273 80.2412 155.054 80.3554 153.822 80.4651C153.817 80.4653 153.812 80.4656 153.807 80.4656C153.705 80.4659 153.618 80.3777 153.61 80.2614ZM160.918 79.5424C160.908 79.4201 160.987 79.3119 161.095 79.3001C162.34 79.163 163.567 79.0204 164.742 78.876C164.85 78.8599 164.947 78.9502 164.959 79.0725C164.971 79.1941 164.893 79.3035 164.784 79.3169C163.608 79.4619 162.38 79.6045 161.133 79.7416C161.127 79.7423 161.12 79.7426 161.114 79.7426C161.014 79.7426 160.928 79.6568 160.918 79.5424ZM168.211 78.6473C168.198 78.5258 168.274 78.415 168.382 78.4C169.624 78.2277 170.846 78.0475 172.016 77.8641C172.123 77.8473 172.224 77.932 172.239 78.0533C172.254 78.1746 172.179 78.2866 172.071 78.3037C170.899 78.4874 169.674 78.6679 168.431 78.8402C168.423 78.8412 168.415 78.842 168.407 78.842C168.308 78.842 168.223 78.7597 168.211 78.6473ZM175.477 77.5108C175.46 77.39 175.533 77.2761 175.641 77.2569C176.875 77.0364 178.09 76.8036 179.252 76.5649C179.36 76.5444 179.462 76.6231 179.482 76.7436C179.501 76.8643 179.43 76.9796 179.323 77.0019C178.158 77.2408 176.94 77.4742 175.703 77.6957C175.692 77.6973 175.682 77.6984 175.672 77.6984C175.577 77.6981 175.493 77.6205 175.477 77.5108ZM182.694 76.0332C182.671 75.9133 182.739 75.7959 182.846 75.7704C184.08 75.476 185.28 75.1661 186.413 74.849C186.519 74.8188 186.626 74.8917 186.652 75.0108C186.678 75.1295 186.614 75.25 186.508 75.2795C185.371 75.5978 184.166 75.909 182.927 76.2042C182.914 76.2077 182.9 76.2092 182.887 76.2092C182.795 76.2092 182.713 76.1374 182.694 76.0332ZM189.809 74.0445C189.778 73.9269 189.837 73.8035 189.942 73.7685C191.16 73.3607 192.327 72.9287 193.41 72.4851C193.511 72.4444 193.625 72.5025 193.662 72.6177C193.7 72.733 193.647 72.8606 193.545 72.9024C192.454 73.3486 191.28 73.7832 190.054 74.1937C190.035 74.2 190.016 74.2029 189.998 74.2029C189.913 74.2031 189.834 74.1405 189.809 74.0445ZM196.683 71.2294C196.637 71.1178 196.68 70.986 196.779 70.935C197.945 70.3299 199.02 69.6866 199.976 69.0236C200.069 68.9594 200.19 68.992 200.247 69.0962C200.304 69.2004 200.275 69.3372 200.183 69.4017C199.214 70.0739 198.124 70.7255 196.944 71.3378C196.917 71.3517 196.889 71.3583 196.862 71.3583C196.787 71.3583 196.716 71.3107 196.683 71.2294ZM202.839 66.9396C202.765 66.8486 202.772 66.7086 202.852 66.626C203.784 65.6757 204.551 64.6602 205.132 63.6067C205.189 63.5028 205.311 63.4707 205.403 63.5352C205.496 63.5999 205.524 63.7367 205.467 63.8406C204.867 64.9293 204.076 65.9767 203.117 66.9546C203.079 66.993 203.032 67.0122 202.985 67.0122C202.931 67.0122 202.878 66.9878 202.839 66.9396ZM206.62 60.1468C206.515 60.1152 206.452 59.9936 206.48 59.8755C206.793 58.5532 207.003 57.2014 207.107 55.8581C207.116 55.7362 207.211 55.6449 207.32 55.656C207.428 55.6665 207.509 55.7739 207.499 55.8959C207.394 57.2651 207.18 58.6421 206.861 59.9894C206.838 60.0886 206.758 60.1541 206.671 60.1541C206.654 60.1541 206.637 60.152 206.62 60.1468ZM207.1 51.7882C206.994 50.457 206.784 49.107 206.476 47.7758C206.449 47.6571 206.512 47.5361 206.618 47.5051C206.724 47.4732 206.831 47.5453 206.858 47.664C207.172 49.0189 207.385 50.3936 207.493 51.749C207.502 51.8708 207.422 51.9787 207.314 51.9898C207.308 51.9903 207.302 51.9906 207.296 51.9906C207.195 51.9906 207.109 51.904 207.1 51.7882ZM205.3 43.9167C204.838 42.6986 204.285 41.4723 203.656 40.2728C203.601 40.1673 203.632 40.0313 203.726 39.9692C203.82 39.9066 203.941 39.9419 203.996 40.0476C204.633 41.2637 205.194 42.5068 205.663 43.7431C205.705 43.8557 205.659 43.9859 205.559 44.034C205.533 44.0461 205.507 44.0519 205.481 44.0519C205.405 44.0517 205.332 44.0012 205.3 43.9167ZM201.633 36.8721C200.923 35.81 200.14 34.7499 199.305 33.7212C199.232 33.6307 199.237 33.4905 199.318 33.4079C199.397 33.3256 199.522 33.3316 199.596 33.4218C200.44 34.4608 201.231 35.5316 201.948 36.6056C202.013 36.7034 201.996 36.8423 201.909 36.916C201.873 36.946 201.832 36.9605 201.79 36.9605C201.731 36.9607 201.672 36.9299 201.633 36.8721ZM196.734 30.8143C195.865 29.9077 194.934 29.0079 193.968 28.1394C193.883 28.0629 193.869 27.9234 193.937 27.8277C194.005 27.7321 194.129 27.7164 194.214 27.7927C195.188 28.6677 196.126 29.5749 197.002 30.4889C197.082 30.572 197.087 30.7125 197.013 30.8022C196.974 30.8493 196.921 30.8732 196.868 30.8732C196.82 30.8735 196.772 30.854 196.734 30.8143ZM191.043 25.6829C190.067 24.9157 189.039 24.158 187.989 23.4319C187.896 23.3677 187.867 23.2311 187.924 23.1267C187.981 23.022 188.103 22.9896 188.195 23.0538C189.252 23.7844 190.286 24.5466 191.269 25.3188C191.358 25.389 191.38 25.5274 191.318 25.6279C191.279 25.6895 191.218 25.7226 191.156 25.7226C191.117 25.7229 191.078 25.7097 191.043 25.6829ZM184.828 21.3737C183.775 20.7286 182.681 20.0974 181.577 19.497C181.479 19.4436 181.438 19.311 181.485 19.2005C181.533 19.0903 181.651 19.0437 181.749 19.0971C182.858 19.7006 183.958 20.3352 185.016 20.9835C185.112 21.0422 185.147 21.1771 185.095 21.2845C185.059 21.3584 184.992 21.4002 184.922 21.4002C184.89 21.4005 184.858 21.3921 184.828 21.3737ZM178.252 17.7919C177.149 17.2591 176.009 16.74 174.864 16.2494C174.762 16.2057 174.711 16.0776 174.75 15.9631C174.788 15.8484 174.903 15.7918 175.004 15.8345C176.155 16.3275 177.3 16.8487 178.407 17.3838C178.507 17.4325 178.554 17.5627 178.511 17.6753C178.479 17.7595 178.406 17.8098 178.33 17.8098C178.304 17.8098 178.277 17.804 178.252 17.7919ZM171.423 14.8613C170.282 14.4288 169.109 14.0117 167.937 13.6221C167.833 13.5871 167.773 13.4637 167.804 13.3461C167.835 13.2288 167.944 13.1606 168.049 13.1964C169.225 13.5879 170.403 14.0065 171.549 14.4403C171.652 14.4793 171.708 14.6053 171.673 14.7216C171.645 14.8145 171.568 14.8726 171.486 14.8726C171.465 14.8729 171.444 14.8689 171.423 14.8613ZM164.413 12.5253C163.243 12.1859 162.047 11.8628 160.857 11.5652C160.751 11.5387 160.684 11.42 160.708 11.3003C160.731 11.1806 160.837 11.1061 160.943 11.1319C162.137 11.4305 163.337 11.7547 164.511 12.0954C164.617 12.1259 164.68 12.2469 164.653 12.3658C164.63 12.4658 164.55 12.5321 164.462 12.5321C164.446 12.5321 164.429 12.5297 164.413 12.5253ZM157.275 10.7365C156.088 10.4844 154.876 10.249 153.672 10.0366C153.564 10.0177 153.491 9.90405 153.507 9.78302C153.524 9.662 153.625 9.57991 153.733 9.59807C154.941 9.81117 156.158 10.0477 157.349 10.3003C157.456 10.3232 157.526 10.4392 157.506 10.5594C157.488 10.666 157.405 10.7404 157.312 10.7404C157.3 10.7404 157.288 10.7391 157.275 10.7365ZM150.051 9.46073C148.853 9.29051 147.63 9.13739 146.416 9.00505C146.307 8.99347 146.228 8.88482 146.238 8.763C146.249 8.64093 146.348 8.5499 146.454 8.56358C147.672 8.69592 148.898 8.84956 150.1 9.02031C150.208 9.03557 150.284 9.1466 150.271 9.26815C150.258 9.38022 150.173 9.46231 150.075 9.46231C150.067 9.46257 150.059 9.46205 150.051 9.46073ZM142.77 8.6675C141.567 8.57489 140.339 8.50017 139.118 8.4444C139.009 8.4394 138.925 8.33626 138.929 8.21392C138.934 8.09132 139.027 7.98687 139.134 8.00134C140.358 8.05712 141.591 8.1321 142.797 8.22497C142.906 8.23339 142.988 8.33916 142.981 8.46123C142.974 8.57857 142.887 8.66803 142.784 8.66803C142.779 8.66803 142.775 8.66776 142.77 8.6675Z" fill="#00BA88"/>
<path d="M134.291 8.67271L125.865 9.17733L128.385 5.15335L134.291 8.67271Z" fill="#13A385"/>
<path d="M126.528 10.4435L115.54 7.43961L129.146 6.81815L126.528 10.4435Z" fill="#5DD8B7"/>
<path d="M115.529 7.42675L132.414 0L130.016 3.68528L115.529 7.42675Z" fill="#5DD8B7"/>
<path d="M115.54 7.43938L129.175 6.8522L134.291 8.67255L130.016 3.62695L115.54 7.43938Z" fill="#00BA88"/>
<path d="M58.5001 107.202V34.8743C58.5001 33.6633 59.4819 32.6815 60.6929 32.6815H131.956C133.167 32.6815 134.148 33.6633 134.148 34.8743V107.202C134.148 108.413 133.167 109.395 131.956 109.395H60.6929C59.4819 109.395 58.5001 108.413 58.5001 107.202Z" fill="url(#paint2_linear_15325_4922)"/>
<path d="M129.308 107.08H63.339C61.9449 107.08 60.8146 105.949 60.8146 104.555V37.5211C60.8146 36.127 61.9449 34.9967 63.339 34.9967H129.308C130.702 34.9967 131.833 36.127 131.833 37.5211V104.555C131.833 105.949 130.703 107.08 129.308 107.08Z" fill="white"/>
<path d="M70.4074 90.3937C72.4791 90.3937 74.1586 88.7142 74.1586 86.6425C74.1586 84.5707 72.4791 82.8913 70.4074 82.8913C68.3356 82.8913 66.6562 84.5707 66.6562 86.6425C66.6562 88.7142 68.3356 90.3937 70.4074 90.3937Z" fill="url(#paint3_linear_15325_4922)"/>
<path d="M83.1369 90.3937C85.2087 90.3937 86.8882 88.7142 86.8882 86.6425C86.8882 84.5707 85.2087 82.8913 83.1369 82.8913C81.0652 82.8913 79.3857 84.5707 79.3857 86.6425C79.3857 88.7142 81.0652 90.3937 83.1369 90.3937Z" fill="url(#paint4_linear_15325_4922)"/>
<path d="M95.8665 90.3937C97.9382 90.3937 99.6177 88.7142 99.6177 86.6425C99.6177 84.5707 97.9382 82.8913 95.8665 82.8913C93.7947 82.8913 92.1152 84.5707 92.1152 86.6425C92.1152 88.7142 93.7947 90.3937 95.8665 90.3937Z" fill="url(#paint5_linear_15325_4922)"/>
<path d="M108.595 90.3939C110.667 90.3939 112.346 88.7143 112.346 86.6424C112.346 84.5705 110.667 82.8909 108.595 82.8909C106.523 82.8909 104.843 84.5705 104.843 86.6424C104.843 88.7143 106.523 90.3939 108.595 90.3939Z" fill="url(#paint6_linear_15325_4922)"/>
<path d="M121.324 90.3937C123.396 90.3937 125.075 88.7142 125.075 86.6425C125.075 84.5707 123.396 82.8913 121.324 82.8913C119.252 82.8913 117.573 84.5707 117.573 86.6425C117.573 88.7142 119.252 90.3937 121.324 90.3937Z" fill="url(#paint7_linear_15325_4922)"/>
<path d="M70.5286 84.8128L70.6992 86.0098C70.7077 86.0697 70.7694 86.1066 70.8264 86.0858L71.9612 85.6685C72.063 85.631 72.1381 85.7658 72.0527 85.8325L71.1012 86.5788C71.0535 86.6162 71.0524 86.688 71.0991 86.7268L72.0279 87.501C72.1112 87.5703 72.0321 87.7028 71.9316 87.6624L70.8098 87.2116C70.7536 87.1889 70.6908 87.224 70.6805 87.2836L70.4745 88.4751C70.456 88.5819 70.302 88.5796 70.2867 88.4725L70.116 87.2754C70.1076 87.2155 70.0458 87.1786 69.9889 87.1995L68.8541 87.6168C68.7523 87.6542 68.6771 87.5194 68.7625 87.4527L69.714 86.7065C69.7617 86.669 69.7628 86.5972 69.7164 86.5585L68.7876 85.7843C68.7043 85.7149 68.7834 85.5825 68.8839 85.6228L70.0057 86.0736C70.0619 86.0963 70.1247 86.0612 70.135 86.0016L70.341 84.8101C70.3589 84.703 70.5133 84.7054 70.5286 84.8128Z" fill="white"/>
<path d="M83.3199 84.8128L83.4906 86.0098C83.499 86.0697 83.5607 86.1066 83.6177 86.0858L84.7525 85.6685C84.8543 85.631 84.9295 85.7658 84.844 85.8325L83.8926 86.5788C83.8448 86.6162 83.8438 86.688 83.8905 86.7268L84.8192 87.501C84.9026 87.5703 84.8235 87.7028 84.723 87.6624L83.6011 87.2116C83.5449 87.1889 83.4821 87.224 83.4718 87.2836L83.2658 88.4751C83.2474 88.5819 83.093 88.5796 83.0778 88.4725L82.9071 87.2754C82.8987 87.2155 82.8369 87.1786 82.7799 87.1995L81.6451 87.6168C81.5433 87.6542 81.4682 87.5194 81.5536 87.4527L82.5051 86.7065C82.5528 86.669 82.5539 86.5972 82.5072 86.5585L81.5784 85.7843C81.4951 85.7149 81.5742 85.5825 81.6747 85.6228L82.7966 86.0736C82.8528 86.0963 82.9155 86.0612 82.9258 86.0016L83.1318 84.8101C83.1503 84.703 83.3046 84.7054 83.3199 84.8128Z" fill="white"/>
<path d="M96.1109 84.8128L96.2813 86.0098C96.2898 86.0697 96.3515 86.1066 96.4085 86.0858L97.5433 85.6685C97.6451 85.631 97.72 85.7658 97.6348 85.8325L96.6834 86.5788C96.6356 86.6162 96.6346 86.688 96.6812 86.7268L97.61 87.501C97.6934 87.5703 97.6142 87.7028 97.5137 87.6624L96.3919 87.2116C96.3357 87.1889 96.2729 87.224 96.2626 87.2836L96.0566 88.4751C96.0381 88.5819 95.8838 88.5796 95.8685 88.4725L95.6981 87.2754C95.6894 87.2155 95.628 87.1786 95.571 87.1995L94.4362 87.6168C94.3344 87.6542 94.2592 87.5194 94.3447 87.4527L95.2961 86.7065C95.3439 86.669 95.3449 86.5972 95.2985 86.5585L94.3697 85.7843C94.2864 85.7149 94.3655 85.5825 94.4663 85.6228L95.5881 86.0736C95.6443 86.0963 95.7071 86.0612 95.7174 86.0016L95.9234 84.8101C95.9416 84.703 96.0956 84.7054 96.1109 84.8128Z" fill="white"/>
<path d="M108.903 84.8128L109.074 86.0098C109.082 86.0697 109.144 86.1066 109.201 86.0858L110.336 85.6685C110.438 85.631 110.513 85.7658 110.427 85.8325L109.476 86.5788C109.428 86.6162 109.427 86.688 109.474 86.7268L110.403 87.501C110.486 87.5703 110.407 87.7028 110.306 87.6624L109.184 87.2116C109.128 87.1889 109.065 87.224 109.055 87.2836L108.849 88.4751C108.831 88.5819 108.677 88.5796 108.661 88.4725L108.491 87.2754C108.482 87.2155 108.42 87.1786 108.364 87.1995L107.229 87.6168C107.127 87.6542 107.052 87.5194 107.137 87.4527L108.089 86.7065C108.136 86.669 108.137 86.5972 108.091 86.5585L107.162 85.7843C107.079 85.7149 107.158 85.5825 107.258 85.6228L108.38 86.0736C108.436 86.0963 108.499 86.0612 108.509 86.0016L108.715 84.8101C108.734 84.703 108.888 84.7054 108.903 84.8128Z" fill="white"/>
<path d="M121.695 84.8128L121.865 86.0098C121.874 86.0697 121.935 86.1066 121.992 86.0858L123.127 85.6685C123.229 85.631 123.304 85.7658 123.219 85.8325L122.267 86.5788C122.219 86.6162 122.218 86.688 122.265 86.7268L123.194 87.501C123.277 87.5703 123.198 87.7028 123.098 87.6624L121.976 87.2116C121.92 87.1889 121.857 87.224 121.846 87.2836L121.64 88.4751C121.622 88.5819 121.468 88.5796 121.452 88.4725L121.282 87.2754C121.273 87.2155 121.212 87.1786 121.155 87.1995L120.02 87.6168C119.918 87.6542 119.843 87.5194 119.928 87.4527L120.88 86.7065C120.927 86.669 120.929 86.5972 120.882 86.5585L119.953 85.7843C119.87 85.7149 119.949 85.5825 120.05 85.6228L121.171 86.0736C121.228 86.0963 121.29 86.0612 121.301 86.0016L121.507 84.8101C121.525 84.703 121.68 84.7054 121.695 84.8128Z" fill="white"/>
<path d="M129.884 48.257C135.478 48.257 140.013 43.7224 140.013 38.1286C140.013 32.5349 135.478 28.0002 129.884 28.0002C124.29 28.0002 119.756 32.5349 119.756 38.1286C119.756 43.7224 124.29 48.257 129.884 48.257Z" fill="url(#paint8_linear_15325_4922)"/>
<path d="M134.028 32.6041C132.238 35.1045 130.448 37.6046 128.658 40.105C127.412 38.9351 126.165 37.7655 124.919 36.5957C124.169 37.5508 123.418 38.5062 122.668 39.4614C124.781 40.8586 126.894 42.2559 129.007 43.6531C131.704 40.7547 134.402 37.8563 137.099 34.9578C136.075 34.1734 135.052 33.3886 134.028 32.6041Z" fill="white"/>
<path d="M101.067 37.834H92.9655C89.9275 37.834 87.4649 40.2966 87.4649 43.3346V54.8903H90.0927V43.6612C90.0927 41.8941 91.5253 40.4618 93.2923 40.4618H100.741C102.508 40.4618 103.941 41.8944 103.941 43.6614V54.8906H106.568V43.3349C106.568 40.2969 104.105 37.834 101.067 37.834Z" fill="#224585"/>
<path d="M81.4941 54.0301V58.2521C81.4941 66.8242 88.4432 73.7735 97.0155 73.7735C105.588 73.7735 112.537 66.8242 112.537 58.2521V54.0301C112.537 51.5075 110.492 49.4627 107.97 49.4627H86.0615C83.539 49.4627 81.4941 51.5075 81.4941 54.0301Z" fill="url(#paint9_linear_15325_4922)"/>
<path d="M97.5358 67.4147C101.112 67.4147 104.011 64.5158 104.011 60.9399C104.011 57.364 101.112 54.4651 97.5358 54.4651C93.9599 54.4651 91.0611 57.364 91.0611 60.9399C91.0611 64.5158 93.9599 67.4147 97.5358 67.4147Z" fill="white"/>
<path d="M97.5357 66.5765C100.649 66.5765 103.172 64.0528 103.172 60.9398C103.172 57.8267 100.649 55.303 97.5357 55.303C94.4226 55.303 91.899 57.8267 91.899 60.9398C91.899 64.0528 94.4226 66.5765 97.5357 66.5765Z" fill="url(#paint10_linear_15325_4922)"/>
<path d="M98.8545 59.6941C98.8545 58.9415 98.2246 58.3362 97.4631 58.3768C96.7854 58.4129 96.236 58.9769 96.2164 59.6553C96.2022 60.1504 96.4618 60.5849 96.8537 60.8223L96.6142 63.8423C96.6045 63.9663 96.7023 64.0721 96.8266 64.0721H98.2433C98.3676 64.0721 98.4654 63.966 98.4557 63.8423L98.2162 60.8223C98.5984 60.591 98.8545 60.1729 98.8545 59.6941Z" fill="#224585"/>
<path d="M19.2585 64.219L19.8834 63.6073C20.0253 63.4683 20.0253 63.2433 19.8834 63.1043C19.7417 62.9652 19.5115 62.9652 19.3698 63.1043L18.7449 63.7162L18.12 63.1043C17.9784 62.9652 17.7481 62.9652 17.6064 63.1043C17.4645 63.243 17.4645 63.4683 17.6064 63.6073L18.2313 64.219L17.6075 64.8296C17.4656 64.9687 17.4656 65.1937 17.6075 65.3327C17.6784 65.4021 17.7713 65.4369 17.8641 65.4369C17.957 65.4369 18.0501 65.4021 18.1211 65.3327L18.7449 64.722L19.3688 65.3327C19.4397 65.4021 19.5326 65.4369 19.6257 65.4369C19.7188 65.4369 19.8116 65.4021 19.8823 65.3327C20.0242 65.1939 20.0242 64.9687 19.8823 64.8296L19.2585 64.219Z" fill="url(#paint11_linear_15325_4922)"/>
<path d="M163.258 106.219L163.883 105.607C164.025 105.469 164.025 105.243 163.883 105.104C163.742 104.965 163.511 104.965 163.37 105.104L162.745 105.716L162.12 105.104C161.978 104.965 161.748 104.965 161.606 105.104C161.465 105.243 161.465 105.468 161.606 105.607L162.231 106.219L161.607 106.83C161.466 106.969 161.466 107.194 161.607 107.333C161.678 107.402 161.771 107.437 161.864 107.437C161.958 107.437 162.05 107.402 162.121 107.333L162.745 106.722L163.369 107.333C163.44 107.402 163.533 107.437 163.626 107.437C163.719 107.437 163.812 107.402 163.883 107.333C164.025 107.194 164.025 106.969 163.883 106.83L163.258 106.219Z" fill="url(#paint12_linear_15325_4922)"/>
<path d="M159.927 48.795C159.14 48.795 158.5 48.168 158.5 47.3975C158.5 46.627 159.14 46 159.927 46C160.714 46 161.355 46.627 161.355 47.3975C161.355 48.168 160.714 48.795 159.927 48.795ZM159.927 46.4373C159.387 46.4373 158.947 46.8681 158.947 47.3975C158.947 47.9269 159.387 48.3577 159.927 48.3577C160.468 48.3577 160.908 47.9269 160.908 47.3975C160.908 46.8681 160.468 46.4373 159.927 46.4373Z" fill="url(#paint13_linear_15325_4922)"/>
<defs>
<linearGradient id="paint0_linear_15325_4922" x1="77.1061" y1="20.6906" x2="85.1808" y2="35.6222" gradientUnits="userSpaceOnUse">
<stop offset="0.1885" stop-color="#FFBE69"/>
<stop offset="1" stop-color="#FF8F5C"/>
</linearGradient>
<linearGradient id="paint1_linear_15325_4922" x1="77.1058" y1="20.6904" x2="85.1805" y2="35.622" gradientUnits="userSpaceOnUse">
<stop offset="0.1885" stop-color="#FFBE69"/>
<stop offset="1" stop-color="#FF8F5C"/>
</linearGradient>
<linearGradient id="paint2_linear_15325_4922" x1="58.5" y1="71.0381" x2="134.149" y2="71.0381" gradientUnits="userSpaceOnUse">
<stop stop-color="#ABDCFF"/>
<stop offset="1" stop-color="#73B2FF"/>
</linearGradient>
<linearGradient id="paint3_linear_15325_4922" x1="66.6561" y1="86.6424" x2="74.1587" y2="86.6424" gradientUnits="userSpaceOnUse">
<stop stop-color="#326AB3"/>
<stop offset="1" stop-color="#003780"/>
</linearGradient>
<linearGradient id="paint4_linear_15325_4922" x1="79.3856" y1="86.6424" x2="86.8883" y2="86.6424" gradientUnits="userSpaceOnUse">
<stop stop-color="#326AB3"/>
<stop offset="1" stop-color="#003780"/>
</linearGradient>
<linearGradient id="paint5_linear_15325_4922" x1="92.115" y1="86.6424" x2="99.6177" y2="86.6424" gradientUnits="userSpaceOnUse">
<stop stop-color="#326AB3"/>
<stop offset="1" stop-color="#003780"/>
</linearGradient>
<linearGradient id="paint6_linear_15325_4922" x1="104.843" y1="86.6423" x2="112.346" y2="86.6423" gradientUnits="userSpaceOnUse">
<stop stop-color="#326AB3"/>
<stop offset="1" stop-color="#003780"/>
</linearGradient>
<linearGradient id="paint7_linear_15325_4922" x1="117.573" y1="86.6424" x2="125.076" y2="86.6424" gradientUnits="userSpaceOnUse">
<stop stop-color="#326AB3"/>
<stop offset="1" stop-color="#003780"/>
</linearGradient>
<linearGradient id="paint8_linear_15325_4922" x1="111.713" y1="15.4369" x2="154.831" y2="69.2815" gradientUnits="userSpaceOnUse">
<stop stop-color="#08A081"/>
<stop offset="1" stop-color="#178C74"/>
</linearGradient>
<linearGradient id="paint9_linear_15325_4922" x1="81.4941" y1="61.6179" x2="112.537" y2="61.6179" gradientUnits="userSpaceOnUse">
<stop offset="0.1885" stop-color="#FFBE69"/>
<stop offset="1" stop-color="#FF8F5C"/>
</linearGradient>
<linearGradient id="paint10_linear_15325_4922" x1="91.899" y1="60.9398" x2="103.173" y2="60.9398" gradientUnits="userSpaceOnUse">
<stop offset="0.1885" stop-color="#FFBE69"/>
<stop offset="1" stop-color="#FF8F5C"/>
</linearGradient>
<linearGradient id="paint11_linear_15325_4922" x1="17.5" y1="64.2185" x2="19.9899" y2="64.2185" gradientUnits="userSpaceOnUse">
<stop offset="0.1885" stop-color="#FFBE69"/>
<stop offset="1" stop-color="#FF8F5C"/>
</linearGradient>
<linearGradient id="paint12_linear_15325_4922" x1="161.5" y1="106.219" x2="163.99" y2="106.219" gradientUnits="userSpaceOnUse">
<stop offset="0.1885" stop-color="#FFBE69"/>
<stop offset="1" stop-color="#FF8F5C"/>
</linearGradient>
<linearGradient id="paint13_linear_15325_4922" x1="158.5" y1="47.3975" x2="161.355" y2="47.3975" gradientUnits="userSpaceOnUse">
<stop stop-color="#326AB3"/>
<stop offset="1" stop-color="#003780"/>
</linearGradient>
</defs>
</svg>
