<svg width="220" height="168" viewBox="0 0 220 168" fill="none" xmlns="http://www.w3.org/2000/svg">
<path d="M209.165 103.165C206.977 106.215 204.39 108.573 201.744 111.011C200.898 111.784 200.033 112.536 199.128 113.249C198.72 113.57 198.322 113.891 197.924 114.202C192.771 118.296 186.842 121.367 180.555 123.062C180.356 123.113 180.158 123.173 179.949 123.223C174.04 124.708 168.111 125.711 162.053 125.601C158.959 125.661 155.875 125.591 152.762 125.43C149.031 125.21 145.549 124.608 141.869 124.006C136.398 123.002 129.434 121.497 126.151 126.615C109.837 151.8 83.7742 167.956 54.906 167.494C52.7672 167.504 50.6285 167.434 48.4599 167.253C44.7792 166.952 41.198 166.45 37.5174 165.447C33.6378 164.343 29.9571 163.34 26.2765 161.734C23.7896 160.53 21.4021 159.426 19.0644 157.811C16.6073 156.205 14.3094 154.379 12.0712 152.272C10.8277 151.178 9.82299 150.044 8.81827 148.8C6.31145 145.81 4.41143 142.97 2.85959 139.739C-0.482836 133.087 -0.50273 125.942 0.810367 118.677C1.24807 116.259 1.83498 113.821 2.49153 111.383C4.48107 104.238 8.06224 97.2142 6.37113 89.5882C2.09362 69.018 6.57009 46.441 25.7592 36.8081C28.7535 35.1023 31.7378 33.9985 34.921 33.0954C38.5022 32.092 42.0834 31.791 45.764 31.5903C55.5128 31.1889 65.0626 32.8947 74.7119 33.0954C83.0679 33.1958 90.2303 28.6804 96.8952 24.1148C98.079 23.3823 99.2529 22.6498 100.437 21.9073C101.61 21.1748 102.794 20.4322 103.968 19.6997C106.435 18.024 108.972 16.4286 111.568 14.9435C114.164 13.4584 116.821 12.0737 119.526 10.8094C135.87 3.24357 154.383 -1.79361 170.727 1.54779C233.527 14.3816 223.699 82.9455 209.165 103.165Z" fill="#E2FAF3"/>
<path d="M95.0016 15.5641C95.1408 18.7376 93.6387 21.6823 91.1018 23.8809C88.565 26.0795 84.9736 27.5817 80.9346 27.9398C76.8856 28.3079 73.1351 27.6115 70.3794 26.159C67.6138 24.7066 65.8231 22.1598 65.6739 18.6878C65.5943 16.9568 65.9425 15.196 66.6488 13.5644C67.3452 11.9329 68.3997 10.4606 69.7029 9.20706C72.2994 6.71003 75.9206 5.0785 79.9497 4.82979C83.9788 4.58108 87.6696 5.6953 90.3955 7.65512C93.1114 9.605 94.8623 12.4005 95.0016 15.5641Z" fill="#E2FAF3"/>
<path d="M128.418 153.926C127.761 157.12 124.747 159.308 121.752 158.831C118.758 158.353 117.067 155.428 117.932 152.295C118.798 149.161 121.713 146.943 124.498 147.37C127.304 147.788 129.084 150.733 128.418 153.926Z" fill="#E2FAF3"/>
<path d="M115.952 160.898C115.484 162.928 113.465 164.311 111.386 163.992C109.307 163.674 108.023 161.823 108.58 159.874C109.137 157.914 111.227 156.531 113.216 156.78C115.206 157.038 116.42 158.879 115.952 160.898Z" fill="#E2FAF3"/>
<path d="M47.9131 94.3183L177.913 94.857L112.103 156.891L47.9131 94.3183Z" fill="#D1A902"/>
<path d="M177.913 94.8639L47.9131 94.3243L113.722 32.2906L177.913 94.8639Z" fill="#E1B600"/>
<g filter="url(#filter0_d_23773_29365)">
<path d="M149.458 144.918H75.9374C72.7675 144.918 70.1978 142.542 70.1978 139.611V53.2248C70.1978 50.2938 72.7675 47.9177 75.9374 47.9177H149.458C152.628 47.9177 155.198 50.2938 155.198 53.2248V139.611C155.198 142.542 152.628 144.918 149.458 144.918Z" fill="white"/>
</g>
<path d="M177.643 167.139H47.9131V94.5877L177.643 167.139Z" fill="#F7C700"/>
<path d="M47.9131 167.139H177.643V94.5877L47.9131 167.139Z" fill="#FFD400"/>
<path d="M166.908 52.8386C166.908 61.0491 160.251 67.7047 152.041 67.7047C143.83 67.7047 137.175 61.049 137.175 52.8386C137.175 44.6281 143.83 37.9724 152.041 37.9724C160.251 37.9724 166.908 44.628 166.908 52.8386Z" fill="#E5425A" stroke="white"/>
<path d="M148.154 51.4756C148.095 52.1989 147.948 52.874 147.714 53.5004C147.479 54.1267 147.153 54.6753 146.737 55.1459C146.32 55.6165 145.807 55.9867 145.198 56.2557C144.59 56.5244 143.883 56.6589 143.077 56.6592C143.025 56.4976 143.008 56.3023 143.027 56.0718C143.032 56.0059 143.043 55.9302 143.058 55.8449C143.073 55.759 143.092 55.6801 143.114 55.6072C143.611 55.6066 144.067 55.5258 144.483 55.3655C144.9 55.2047 145.265 54.9846 145.582 54.7042C145.898 54.4239 146.159 54.0915 146.366 53.7064C146.572 53.3221 146.718 52.9062 146.804 52.4578C146.608 52.7561 146.329 53.0065 145.967 53.2087C145.604 53.4106 145.164 53.4903 144.646 53.4481C144.315 53.4211 144 53.3397 143.702 53.2039C143.403 53.0677 143.142 52.8747 142.918 52.6248C142.694 52.3748 142.524 52.0649 142.408 51.6952C142.291 51.3262 142.253 50.8948 142.293 50.4017C142.333 49.9165 142.45 49.4957 142.646 49.1396C142.843 48.7831 143.088 48.4908 143.384 48.2625C143.68 48.0345 144.008 47.8713 144.371 47.772C144.733 47.6735 145.1 47.6396 145.472 47.6701C145.933 47.7078 146.342 47.8093 146.699 47.975C147.056 48.1407 147.35 48.3777 147.582 48.6863C147.813 48.9945 147.979 49.381 148.08 49.8438C148.181 50.307 148.205 50.8511 148.154 51.4756ZM145.035 52.4251C145.27 52.4442 145.495 52.4216 145.712 52.3566C145.929 52.2916 146.122 52.1849 146.288 52.0371C146.455 51.8894 146.592 51.7043 146.7 51.4811C146.808 51.2587 146.874 51.0034 146.897 50.7154C146.948 50.0986 146.841 49.6244 146.58 49.293C146.317 48.9614 145.932 48.7746 145.423 48.7329C144.936 48.6932 144.517 48.8185 144.164 49.1081C143.811 49.3979 143.609 49.8507 143.558 50.4675C143.531 50.7963 143.551 51.0793 143.617 51.3163C143.684 51.5535 143.783 51.7518 143.916 51.9118C144.05 52.0715 144.213 52.1924 144.406 52.2743C144.599 52.3564 144.808 52.4065 145.035 52.4251Z" fill="white"/>
<path d="M155.203 52.0511C155.144 52.7745 154.997 53.4494 154.762 54.0757C154.529 54.7022 154.202 55.2509 153.785 55.7212C153.368 56.1916 152.856 56.5618 152.247 56.8309C151.639 57.0994 150.932 57.2341 150.125 57.2344C150.073 57.0729 150.057 56.8774 150.076 56.6469C150.081 56.5811 150.091 56.5054 150.107 56.4201C150.121 56.3344 150.14 56.2553 150.163 56.1824C150.659 56.1817 151.116 56.1012 151.532 55.9409C151.948 55.78 152.314 55.5599 152.63 55.2793C152.947 54.9992 153.207 54.6669 153.414 54.2818C153.621 53.8975 153.767 53.4815 153.852 53.0333C153.657 53.3316 153.378 53.5821 153.015 53.7843C152.653 53.9863 152.212 54.0658 151.695 54.0235C151.363 53.9963 151.048 53.9151 150.75 53.7792C150.451 53.643 150.19 53.4501 149.966 53.2001C149.742 52.9502 149.572 52.6401 149.456 52.2706C149.339 51.9015 149.302 51.4702 149.342 50.977C149.381 50.4919 149.499 50.0712 149.695 49.7149C149.891 49.3586 150.137 49.0661 150.432 48.838C150.728 48.6098 151.057 48.4467 151.419 48.3475C151.782 48.249 152.148 48.2152 152.521 48.2455C152.982 48.2833 153.391 48.3849 153.748 48.5505C154.105 48.7162 154.399 48.9532 154.63 49.2618C154.861 49.57 155.027 49.9563 155.128 50.4193C155.229 50.8825 155.254 51.4266 155.203 52.0511ZM152.084 53.0004C152.318 53.0195 152.544 52.9969 152.761 52.9321C152.979 52.8669 153.17 52.7604 153.337 52.6126C153.504 52.4647 153.641 52.2796 153.749 52.0566C153.857 51.834 153.922 51.5787 153.945 51.2909C153.996 50.6741 153.89 50.1999 153.628 49.8687C153.366 49.5372 152.98 49.3501 152.471 49.3084C151.985 49.2688 151.566 49.3941 151.212 49.6838C150.859 49.9736 150.657 50.4264 150.607 51.0432C150.58 51.3718 150.6 51.6549 150.666 51.892C150.732 52.1292 150.832 52.3274 150.965 52.4875C151.099 52.6471 151.262 52.7681 151.455 52.85C151.647 52.9319 151.857 52.9818 152.084 53.0004Z" fill="white"/>
<path d="M162.252 52.6272C162.193 53.3505 162.046 54.0254 161.811 54.6518C161.577 55.2783 161.252 55.8267 160.834 56.2974C160.417 56.7678 159.905 57.138 159.297 57.4071C158.688 57.6756 157.981 57.8103 157.175 57.8106C157.122 57.6491 157.106 57.4536 157.125 57.2231C157.13 57.1573 157.141 57.0816 157.156 56.9963C157.171 56.9106 157.189 56.8315 157.212 56.7586C157.708 56.758 158.165 56.6774 158.581 56.5169C158.997 56.3562 159.364 56.136 159.68 55.8555C159.996 55.5753 160.256 55.2429 160.464 54.8578C160.67 54.4735 160.816 54.0576 160.901 53.6093C160.706 53.9077 160.427 54.1581 160.064 54.3603C159.702 54.5623 159.262 54.6419 158.744 54.5997C158.412 54.5725 158.098 54.4911 157.799 54.3554C157.501 54.2191 157.24 54.0261 157.016 53.7763C156.792 53.5264 156.622 53.2165 156.505 52.8468C156.389 52.4777 156.351 52.0464 156.391 51.5532C156.431 51.0681 156.548 50.6474 156.744 50.291C156.94 49.9347 157.186 49.6423 157.482 49.4139C157.777 49.1859 158.106 49.0225 158.468 48.9234C158.831 48.8249 159.198 48.791 159.57 48.8213C160.031 48.859 160.44 48.9607 160.797 49.1262C161.154 49.2919 161.448 49.5289 161.679 49.8375C161.911 50.1459 162.076 50.532 162.177 50.9949C162.278 51.4586 162.303 52.0027 162.252 52.6272ZM159.133 53.5765C159.367 53.5956 159.593 53.5728 159.81 53.5081C160.027 53.4431 160.219 53.3366 160.386 53.1887C160.553 53.0409 160.69 52.856 160.798 52.6327C160.905 52.4102 160.971 52.1549 160.995 51.8671C161.045 51.2503 160.939 50.7761 160.678 50.4447C160.415 50.1132 160.03 49.9261 159.52 49.8846C159.034 49.845 158.615 49.9703 158.262 50.26C157.908 50.5496 157.707 51.0026 157.657 51.6194C157.63 51.948 157.649 52.231 157.715 52.4682C157.781 52.7054 157.881 52.9036 158.014 53.0637C158.148 53.2235 158.311 53.3443 158.504 53.4264C158.697 53.508 158.906 53.558 159.133 53.5765Z" fill="white"/>
<path d="M100.832 84.8886C100.483 84.8886 100.134 84.7557 99.8687 84.4889L90.5921 75.2133C90.0605 74.6817 90.0605 73.8189 90.5921 73.2863C91.1247 72.7547 91.9865 72.7547 92.5191 73.2863L101.795 82.5629C102.326 83.0945 102.326 83.9573 101.795 84.4889C101.529 84.7547 101.18 84.8886 100.832 84.8886Z" fill="#E5425A"/>
<path d="M91.5561 84.8886C91.207 84.8886 90.8579 84.7547 90.5921 84.4889C90.0605 83.9573 90.0605 83.0945 90.5921 82.5629L99.8687 73.2863C100.4 72.7547 101.263 72.7547 101.795 73.2863C102.326 73.8189 102.326 74.6817 101.795 75.2133L92.5191 84.4889C92.2533 84.7547 91.9042 84.8886 91.5561 84.8886Z" fill="#E5425A"/>
<path d="M135.031 84.8878C134.682 84.8878 134.334 84.7549 134.068 84.488L124.792 75.2131C124.261 74.6815 124.261 73.8188 124.792 73.2862C125.325 72.7546 126.188 72.7546 126.719 73.2862L135.994 82.5622C136.527 83.0937 136.527 83.9565 135.994 84.488C135.728 84.7538 135.379 84.8878 135.031 84.8878Z" fill="#E5425A"/>
<path d="M125.756 84.8878C125.407 84.8878 125.058 84.7538 124.792 84.488C124.261 83.9565 124.261 83.0937 124.792 82.5622L134.068 73.2862C134.6 72.7546 135.463 72.7546 135.994 73.2862C136.527 73.8188 136.527 74.6815 135.994 75.2131L126.719 84.488C126.453 84.7538 126.104 84.8878 125.756 84.8878Z" fill="#E5425A"/>
<path d="M128.815 100.917H97.3771C96.6702 100.917 96.0962 100.344 96.0962 99.6369C96.0962 98.93 96.6702 98.356 97.3771 98.356H128.815C129.522 98.356 130.096 98.93 130.096 99.6369C130.096 100.344 129.522 100.917 128.815 100.917Z" fill="#E5425A"/>
<defs>
<filter id="filter0_d_23773_29365" x="68.1978" y="47.9177" width="89" height="101" filterUnits="userSpaceOnUse" color-interpolation-filters="sRGB">
<feFlood flood-opacity="0" result="BackgroundImageFix"/>
<feColorMatrix in="SourceAlpha" type="matrix" values="0 0 0 0 0 0 0 0 0 0 0 0 0 0 0 0 0 0 127 0" result="hardAlpha"/>
<feOffset dy="2"/>
<feGaussianBlur stdDeviation="1"/>
<feComposite in2="hardAlpha" operator="out"/>
<feColorMatrix type="matrix" values="0 0 0 0 0 0 0 0 0 0 0 0 0 0 0 0 0 0 0.1 0"/>
<feBlend mode="normal" in2="BackgroundImageFix" result="effect1_dropShadow_23773_29365"/>
<feBlend mode="normal" in="SourceGraphic" in2="effect1_dropShadow_23773_29365" result="shape"/>
</filter>
</defs>
</svg>
