<svg width="220" height="205" viewBox="0 0 220 205" fill="none" xmlns="http://www.w3.org/2000/svg">
<path d="M109.01 0.268066H9.41724V89.3717H109.01V0.268066Z" fill="#FAFAFA"/>
<path d="M109.01 89.3677C109.01 89.3677 109.01 88.7965 108.986 87.7164C108.962 86.6363 108.986 85.0234 108.986 82.9401C108.986 78.759 108.953 72.6434 108.924 64.8524C108.9 49.285 108.857 27.0402 108.809 0.268817L109.034 0.494433L9.41799 0.532837L9.68201 0.268817C9.68201 32.6854 9.68201 63.1867 9.65321 89.3677L9.41799 89.1373L81.4517 89.2525L101.767 89.3149L107.148 89.3437H108.535H109.015C109.015 89.3437 108.866 89.3437 108.564 89.3437H107.205L101.872 89.3725L81.6053 89.4349L9.41799 89.6029H9.18277V89.3677C9.18277 63.1867 9.18277 32.6854 9.14917 0.268817V0H9.41799L109.001 0.0384017H109.226V0.268817C109.178 27.0978 109.14 49.3954 109.111 64.9964C109.111 72.7634 109.068 78.8646 109.054 83.0361C109.054 85.0954 109.054 86.6795 109.03 87.7644C109.006 88.8493 109.01 89.3677 109.01 89.3677Z" fill="#E0E0E0"/>
<path d="M47.6042 16.102C47.6042 16.246 42.3623 16.366 35.8962 16.366C29.4302 16.366 24.1882 16.246 24.1882 16.102C24.1882 15.9579 29.4302 15.8331 35.8962 15.8331C42.3623 15.8331 47.6042 15.9531 47.6042 16.102Z" fill="#E0E0E0"/>
<path d="M89.8051 22.7865C89.8051 22.9353 75.4041 23.0553 57.6429 23.0553C39.8817 23.0553 25.4807 22.9353 25.4807 22.7865C25.4807 22.6377 39.8817 22.5225 57.6429 22.5225C75.4041 22.5225 89.8051 22.6425 89.8051 22.7865Z" fill="#E0E0E0"/>
<path d="M28.5573 34.1206H24.3618V38.3161H28.5573V34.1206Z" fill="#E0E0E0"/>
<path d="M38.8818 34.1206H34.6863V38.3161H38.8818V34.1206Z" fill="#E0E0E0"/>
<path d="M49.404 33.9281H45.2085V38.1236H49.404V33.9281Z" fill="#E0E0E0"/>
<path d="M59.5446 34.1206H55.3491V38.3161H59.5446V34.1206Z" fill="#E0E0E0"/>
<path d="M69.8691 34.1206H65.6736V38.3161H69.8691V34.1206Z" fill="#E0E0E0"/>
<path d="M80.1989 34.1206H76.0034V38.3161H80.1989V34.1206Z" fill="#E0E0E0"/>
<path d="M90.5251 34.1206H86.3296V38.3161H90.5251V34.1206Z" fill="#EBEBEB"/>
<path d="M28.5573 43.0392H24.3618V47.2347H28.5573V43.0392Z" fill="#EBEBEB"/>
<path d="M38.8818 43.0392H34.6863V47.2347H38.8818V43.0392Z" fill="#E0E0E0"/>
<path d="M49.2133 43.0392H45.0178V47.2347H49.2133V43.0392Z" fill="#EBEBEB"/>
<path d="M59.5446 43.0392H55.3491V47.2347H59.5446V43.0392Z" fill="#E0E0E0"/>
<path d="M69.8691 43.0392H65.6736V47.2347H69.8691V43.0392Z" fill="#E0E0E0"/>
<path d="M80.3913 42.8518H76.1958V47.0473H80.3913V42.8518Z" fill="#E0E0E0"/>
<path d="M90.5251 43.0392H86.3296V47.2347H90.5251V43.0392Z" fill="#E0E0E0"/>
<path d="M28.5573 51.9629H24.3618V56.1584H28.5573V51.9629Z" fill="#E0E0E0"/>
<path d="M39.0744 51.7721H34.8789V55.9676H39.0744V51.7721Z" fill="#E0E0E0"/>
<path d="M49.2133 51.9629H45.0178V56.1584H49.2133V51.9629Z" fill="#E0E0E0"/>
<path d="M59.5446 51.9629H55.3491V56.1584H59.5446V51.9629Z" fill="#EBEBEB"/>
<path d="M69.8691 51.9629H65.6736V56.1584H69.8691V51.9629Z" fill="#E0E0E0"/>
<path d="M80.1989 51.9629H76.0034V56.1584H80.1989V51.9629Z" fill="#E0E0E0"/>
<path d="M90.5251 51.9629H86.3296V56.1584H90.5251V51.9629Z" fill="#E0E0E0"/>
<path d="M28.5573 60.8815H24.3618V65.077H28.5573V60.8815Z" fill="#E0E0E0"/>
<path d="M38.8818 60.8815H34.6863V65.077H38.8818V60.8815Z" fill="#E0E0E0"/>
<path d="M49.2133 60.8815H45.0178V65.077H49.2133V60.8815Z" fill="#E0E0E0"/>
<path d="M59.7301 60.6907H55.5347V64.8862H59.7301V60.6907Z" fill="#E0E0E0"/>
<path d="M69.8691 60.8815H65.6736V65.077H69.8691V60.8815Z" fill="#E0E0E0"/>
<path d="M80.1989 60.8815H76.0034V65.077H80.1989V60.8815Z" fill="#EBEBEB"/>
<path d="M90.5251 60.8815H86.3296V65.077H90.5251V60.8815Z" fill="#E0E0E0"/>
<path d="M28.5573 69.8018H24.3618V73.9972H28.5573V69.8018Z" fill="#E0E0E0"/>
<path d="M38.8818 69.8018H34.6863V73.9972H38.8818V69.8018Z" fill="#EBEBEB"/>
<path d="M49.2133 69.8018H45.0178V73.9972H49.2133V69.8018Z" fill="#E0E0E0"/>
<path d="M59.5446 69.8018H55.3491V73.9972H59.5446V69.8018Z" fill="#E0E0E0"/>
<path d="M69.8691 69.8018H65.6736V73.9972H69.8691V69.8018Z" fill="#E0E0E0"/>
<path d="M80.3913 69.6093H76.1958V73.8047H80.3913V69.6093Z" fill="#E0E0E0"/>
<path d="M90.5251 69.8018H86.3296V73.9972H90.5251V69.8018Z" fill="#E0E0E0"/>
<path d="M196.717 120.037C201.157 117.747 206.38 117.449 211.31 118.265C213.955 118.702 216.715 119.494 218.51 121.482C220.305 123.469 220.651 126.968 218.587 128.682C217.353 129.7 215.635 129.853 214.041 129.834C210.201 129.791 205.904 129.109 202.823 131.433C201.066 132.753 199.894 134.956 197.792 135.609C195.689 136.262 193.414 135.033 192.324 133.175C191.235 131.317 191.201 128.999 191.705 126.906C191.957 125.453 192.54 124.078 193.409 122.886C194.278 121.695 195.41 120.72 196.717 120.037Z" fill="#EBEBEB"/>
<path d="M186.55 100.408C189.263 104.287 194.538 103 196.986 100.639C199.435 98.2769 200.462 94.8398 201.403 91.5708C203.553 84.1015 205.723 76.2626 204.124 68.6589C203.644 66.3835 202.795 64.1129 201.196 62.4184C199.598 60.7239 197.14 59.7254 194.893 60.3207C192.234 61.0215 190.573 63.6281 189.387 66.0811C185.867 73.3959 184.022 81.4035 183.987 89.5211C183.987 93.2989 184.419 97.2592 186.55 100.375" fill="#EBEBEB"/>
<path d="M179.099 105.981C182.047 102.482 182.603 97.3836 181.293 93.0201C179.982 88.6566 177.021 84.9124 173.612 81.8738C169.596 78.2953 164.92 75.5362 159.845 73.7516C157.858 73.0508 155.755 72.4987 153.657 72.7004C151.56 72.902 149.443 73.9724 148.463 75.8398C147.023 78.6048 148.401 81.9554 149.904 84.6868C152.55 89.5062 155.573 94.1096 158.943 98.4541C161.655 101.949 164.756 105.395 168.889 106.975C173.022 108.554 177.309 108.367 179.498 105.501" fill="#EBEBEB"/>
<path d="M186.369 158.877C186.51 158.3 186.592 157.71 186.614 157.116C186.738 155.834 186.897 154.235 187.094 152.315C187.335 149.949 187.697 147.597 188.178 145.268C188.807 142.431 189.662 139.649 190.737 136.949C191.791 134.25 193.223 131.714 194.99 129.418C196.426 127.548 198.261 126.023 200.362 124.953C201.785 124.248 203.311 123.772 204.884 123.542C205.475 123.518 206.061 123.434 206.636 123.292C206.044 123.214 205.444 123.205 204.85 123.264C203.218 123.388 201.621 123.804 200.136 124.493C197.923 125.534 195.983 127.076 194.467 128.995C192.628 131.324 191.144 133.912 190.065 136.676C188.973 139.416 188.122 142.246 187.521 145.134C187.054 147.488 186.73 149.869 186.551 152.262C186.398 154.303 186.34 155.954 186.311 157.096C186.268 157.69 186.287 158.287 186.369 158.877Z" fill="#E0E0E0"/>
<path d="M186.699 155.175C186.745 154.906 186.761 154.632 186.747 154.359C186.747 153.745 186.747 152.972 186.747 152.022C186.747 149.996 186.747 147.058 186.853 143.434C187.03 136.185 187.654 128.385 188.864 117.387C190.002 107.047 191.538 95.0129 193.151 87.1884C193.501 85.4075 193.847 83.8282 194.178 82.3881C194.509 80.948 194.759 79.7719 195.018 78.7878C195.277 77.8038 195.417 77.1125 195.561 76.5173C195.641 76.2553 195.69 75.9845 195.705 75.7108C195.582 75.9554 195.487 76.213 195.421 76.4789L194.744 78.7158C194.442 79.6759 194.135 80.8904 193.784 82.2921C193.434 83.6938 193.036 85.2875 192.656 87.0636C190.652 96.3176 189.146 105.672 188.144 115.088C186.934 126.105 186.392 136.142 186.344 143.41C186.301 147.044 186.378 149.986 186.469 152.017C186.531 152.977 186.574 153.735 186.613 154.35C186.61 154.627 186.639 154.904 186.699 155.175Z" fill="#E0E0E0"/>
<path d="M186.747 135.826C186.811 135.012 186.811 134.195 186.747 133.382C186.61 131.166 186.361 128.959 186.003 126.767C185.467 123.518 184.749 120.302 183.853 117.133C182.803 113.235 181.455 109.424 179.82 105.732C176.46 97.8022 171.938 91.3314 167.987 87.3039C167.115 86.3835 166.185 85.5193 165.203 84.7165C164.776 84.3565 164.402 83.9965 164.018 83.7133L162.938 82.9692C162.286 82.4764 161.598 82.035 160.878 81.6491C160.763 81.8075 163.792 83.5932 167.599 87.6591C171.405 91.725 175.822 98.1574 179.119 106.02C180.726 109.691 182.086 113.464 183.19 117.316C184.115 120.456 184.879 123.641 185.48 126.859C185.984 129.604 186.277 131.851 186.44 133.406C186.481 134.219 186.584 135.028 186.747 135.826Z" fill="#E0E0E0"/>
<path d="M168.041 169.96L169.98 196.53H204.11L206.05 169.96H168.041Z" fill="#E0E0E0"/>
<path d="M210.12 159.491H164.742V169.966H210.12V159.491Z" fill="#E0E0E0"/>
<path d="M164.742 195.513V198.417H166.874H209.376V195.513H164.742Z" fill="#EBEBEB"/>
<path d="M168.966 203.523L166.874 198.416H207.748L205.31 203.523H168.966Z" fill="#E0E0E0"/>
<path d="M205.417 178.644C205.417 178.644 205.374 178.735 205.258 178.889L204.75 179.566L202.762 182.11L202.671 182.225L202.585 182.105L197.703 175.351H197.981L193.181 182.158L193.027 182.374L192.859 182.172L187.156 175.385H187.483L187.171 175.778C185.399 177.996 183.69 180.147 182.068 182.172L181.9 182.388L181.742 182.168C180.013 179.715 178.381 177.425 176.941 175.356H177.22L171.296 182.11L171.19 182.23L171.109 182.091C170.326 180.78 169.707 179.734 169.256 178.975L168.776 178.145C168.715 178.052 168.667 177.952 168.632 177.847C168.709 177.927 168.776 178.016 168.833 178.111C168.968 178.322 169.145 178.591 169.357 178.913L171.306 181.971H171.118L176.951 175.13L177.1 174.962L177.229 175.145L182.087 181.923H181.761L186.849 175.519L187.161 175.125L187.324 174.924L187.492 175.121L193.176 181.923H192.859L197.717 175.149L197.856 174.953L197.995 175.149L202.796 181.98H202.618L204.687 179.499L205.244 178.855C205.295 178.78 205.353 178.709 205.417 178.644Z" fill="#F5F5F5"/>
<path d="M206.523 169.788C206.523 169.903 197.974 169.999 187.423 169.999C176.872 169.999 168.322 169.903 168.322 169.788C168.322 169.673 176.876 169.577 187.423 169.577C197.969 169.577 206.523 169.668 206.523 169.788Z" fill="#F5F5F5"/>
<path d="M208.248 198.704C208.248 198.819 198.954 198.915 187.491 198.915C176.028 198.915 166.734 198.819 166.734 198.704C166.734 198.589 176.028 198.488 187.491 198.488C198.954 198.488 208.248 198.584 208.248 198.704Z" fill="#F5F5F5"/>
<path d="M85.1452 97.8885L81.3049 99.9478L72.8036 106.491C72.8036 106.491 46.7714 109.947 45.7729 110.696C44.7744 111.445 31.852 117.594 30.0758 125.846C28.2997 134.097 24.7283 187.914 24.7283 187.914L29.4518 203.813L124.263 203.961L146.498 203.645C146.498 203.645 155.038 183.69 155.038 178.203C155.038 172.716 152.542 131.462 152.542 131.462L125.876 112.659L85.1452 97.8885Z" fill="#08A081"/>
<path d="M72.5624 106.104C72.5276 106.182 72.4841 106.256 72.4328 106.325C72.3176 106.488 72.1831 106.69 72.0151 106.935C71.6407 107.453 71.1319 108.231 70.5414 109.205C70.2534 109.685 69.927 110.232 69.6246 110.832C69.3221 111.432 68.9957 112.071 68.6645 112.753C67.994 114.248 67.4184 115.784 66.9412 117.351C66.1188 120.212 65.5028 123.129 65.0979 126.078C64.9346 127.182 64.805 128.09 64.709 128.762C64.6658 129.055 64.6322 129.295 64.6034 129.491C64.5966 129.577 64.5772 129.661 64.5458 129.741C64.5352 129.656 64.5352 129.571 64.5458 129.487C64.5458 129.29 64.5842 129.045 64.6082 128.747C64.6658 128.109 64.7714 127.187 64.9154 126.054C65.2808 123.084 65.8844 120.148 66.7204 117.274C67.2018 115.7 67.7871 114.159 68.4725 112.661C68.7989 111.97 69.1157 111.322 69.4326 110.741C69.7494 110.16 70.0806 109.608 70.3926 109.119C71.0119 108.159 71.5399 107.386 71.9383 106.882L72.3944 106.301C72.4427 106.229 72.4991 106.163 72.5624 106.104Z" fill="#263238"/>
<g opacity="0.3">
<path d="M73.1551 121.926C72.9967 121.417 72.7951 120.846 72.3007 120.649C71.9167 120.49 72.0703 120.74 71.6862 120.903C68.086 122.387 66.3483 125.704 64.8218 129.467L64.9082 129.376C64.7996 129.691 64.7986 130.033 64.9055 130.348C65.0124 130.663 65.221 130.934 65.4986 131.118C66.3099 131.598 67.3515 131.334 68.1868 130.902C69.0221 130.47 69.7853 129.87 70.6974 129.64C72.6655 129.131 74.6288 130.48 76.0209 131.968C77.413 133.456 78.6611 135.223 80.5621 135.957C77.2592 131.77 74.749 127.015 73.1551 121.926Z" fill="black"/>
</g>
<path d="M64.5378 129.741C64.9708 128.687 65.481 127.666 66.0643 126.688C66.7287 125.529 67.4933 124.43 68.3493 123.404C68.8911 122.765 69.4922 122.178 70.1446 121.652C70.8808 121.051 71.7497 120.635 72.6792 120.438H72.7512L72.78 120.51C73.38 122.079 74.0137 123.793 74.7481 125.598C75.4977 127.517 76.3949 129.376 77.4315 131.157C78.5779 133.103 79.965 134.896 81.5598 136.495C83.278 138.186 85.1721 139.689 87.2098 140.978C87.9058 141.386 88.5779 141.823 89.2739 142.207L91.3525 143.316H91.2277L94.6935 140.916L96.3736 139.759C96.9305 139.38 97.4729 139.001 97.9865 138.597C99.9221 137.072 101.721 135.381 103.363 133.543C105.324 132.059 106.997 130.231 108.302 128.147C109.303 126.547 110.053 124.804 110.525 122.977C110.827 121.804 111.017 120.605 111.091 119.396C111.12 118.974 111.091 118.652 111.125 118.436C111.159 118.22 111.125 118.11 111.125 118.11C111.125 118.11 111.125 118.22 111.125 118.436C111.125 118.652 111.125 118.978 111.125 119.396C111.08 120.614 110.91 121.823 110.616 123.006C110.159 124.853 109.419 126.618 108.422 128.238C107.127 130.341 105.46 132.191 103.502 133.696C101.856 135.551 100.05 137.259 98.1065 138.799C97.5881 139.207 97.0457 139.591 96.4888 139.97L94.8087 141.132L91.3429 143.532L91.2853 143.575L91.2181 143.542L89.1299 142.428C88.4291 142.044 87.7522 141.607 87.0562 141.194C84.9983 139.898 83.0877 138.382 81.3582 136.672C79.7522 135.058 78.3571 133.247 77.2059 131.282C76.1765 129.481 75.289 127.604 74.5513 125.665C73.8217 123.851 73.1976 122.132 72.6072 120.563L72.708 120.62C71.8066 120.809 70.9627 121.209 70.2454 121.787C69.5981 122.301 69.0002 122.875 68.4597 123.5C67.601 124.514 66.8287 125.598 66.1508 126.741C65.5891 127.701 65.1907 128.44 64.9363 128.953L64.6434 129.544C64.6173 129.614 64.5817 129.68 64.5378 129.741Z" fill="#263238"/>
<path d="M118.189 117.922C118.262 120.368 118.146 122.815 117.843 125.243C117.543 127.894 117.054 130.52 116.379 133.101C115.551 136.276 114.489 139.385 113.202 142.404L113.019 142.836L112.962 142.356C112.928 142.077 112.904 141.775 112.856 141.468C112.63 139.745 112.23 138.05 111.661 136.408C111.387 135.611 111.075 134.843 110.739 134.104C110.571 133.734 110.393 133.374 110.211 133.019C110.045 132.67 109.849 132.336 109.625 132.021C109.415 131.715 109.122 131.475 108.78 131.329C108.619 131.271 108.444 131.257 108.275 131.289C108.107 131.321 107.949 131.398 107.82 131.512C107.558 131.752 107.314 132.012 107.091 132.29L106.395 133.082L103.855 135.962L100.164 140.143L99.1798 141.295L98.9109 141.583L98.8149 141.674C98.837 141.635 98.8628 141.598 98.8917 141.564L99.1414 141.261L100.101 140.1L103.73 135.866L106.246 132.947C106.476 132.683 106.726 132.419 106.937 132.146C107.169 131.858 107.423 131.589 107.696 131.339C107.852 131.203 108.041 131.111 108.244 131.073C108.447 131.034 108.657 131.05 108.852 131.118C109.229 131.28 109.551 131.544 109.784 131.882C110.019 132.207 110.224 132.552 110.398 132.914C110.581 133.269 110.763 133.634 110.931 134.003C111.272 134.747 111.589 135.525 111.891 136.327C112.465 137.987 112.871 139.702 113.101 141.444C113.149 141.751 113.173 142.058 113.206 142.341L112.966 142.308C114.249 139.3 115.314 136.204 116.154 133.043C116.835 130.474 117.34 127.861 117.666 125.223C117.944 122.977 118.059 121.148 118.107 119.886C118.141 119.252 118.141 118.762 118.155 118.445C118.155 118.292 118.155 118.167 118.155 118.066C118.155 117.965 118.189 117.922 118.189 117.922Z" fill="#263238"/>
<path d="M82.3802 104.659C82.3802 104.659 82.3802 104.697 82.3082 104.755L82.0778 105.014C81.8666 105.235 81.5978 105.585 81.2378 106.041C80.2872 107.376 79.5127 108.828 78.9336 110.361C78.0546 112.615 77.4752 114.975 77.2103 117.379C76.8731 120.322 77.0027 123.3 77.5943 126.203C77.8979 127.704 78.3481 129.172 78.9384 130.585C79.4869 131.901 80.157 133.162 80.9401 134.353C82.2637 136.377 83.8816 138.193 85.7405 139.739C86.5133 140.421 87.3006 140.93 87.9582 141.42C88.6159 141.909 89.2495 142.245 89.7487 142.528L90.9152 143.172L91.2176 143.344C91.2543 143.362 91.2883 143.384 91.3184 143.412C91.3184 143.412 91.28 143.412 91.208 143.368L90.896 143.215L89.7007 142.615C89.1919 142.341 88.5919 141.957 87.8814 141.535C87.171 141.112 86.4413 140.575 85.6301 139.874C83.7369 138.334 82.0891 136.514 80.7433 134.478C79.9565 133.264 79.2863 131.978 78.7416 130.638C78.1434 129.213 77.6867 127.732 77.3783 126.217C76.7808 123.287 76.6576 120.281 77.0135 117.312C77.2918 114.891 77.8923 112.518 78.7992 110.256C79.4019 108.724 80.2093 107.28 81.1994 105.964C81.4728 105.611 81.7695 105.275 82.0874 104.961L82.3322 104.716L82.3802 104.659Z" fill="#263238"/>
<path d="M41.5476 150.785C41.5476 150.785 41.586 150.823 41.6436 150.919L41.898 151.366H41.826C41.4851 149.753 40.5539 144.808 39.493 138.957C38.8594 135.356 38.2833 132.097 37.8561 129.692C37.6641 128.53 37.5057 127.58 37.3761 126.879C37.3329 126.567 37.2945 126.317 37.2657 126.111C37.2459 126.023 37.2378 125.932 37.2417 125.842C37.2747 125.927 37.2988 126.016 37.3137 126.106C37.3569 126.303 37.4097 126.557 37.4721 126.865C37.6113 127.556 37.7937 128.506 38.0193 129.663C38.4657 132.063 39.0658 135.313 39.733 138.913C40.7891 144.76 41.6532 149.724 41.8932 151.351L41.9316 151.596L41.8212 151.375L41.5956 150.895C41.5764 150.86 41.5604 150.823 41.5476 150.785Z" fill="#263238"/>
<path d="M40.3916 149.795C40.3292 149.823 39.1195 147.394 37.689 144.365C36.2585 141.336 35.1545 138.855 35.2169 138.826C35.2793 138.797 36.489 141.226 37.9195 144.255C39.35 147.284 40.454 149.766 40.3916 149.795Z" fill="#263238"/>
<g opacity="0.3">
<path d="M39.8984 202.575C42.9082 204.087 49.8879 201.418 52.4225 198.091C54.9571 194.765 55.6915 190.435 56.2628 186.287C57.0916 180.037 57.6836 173.763 58.0389 167.465C63.261 171.262 69.6136 173.18 76.0641 172.909C80.1348 172.722 84.7767 171.104 86.0392 167.23C87.3017 163.356 84.5991 159.449 81.8149 156.535C79.1621 153.759 76.2708 151.221 73.1743 148.95C71.1438 147.462 68.9164 146.07 66.4106 145.777C63.7081 145.485 60.9767 146.589 58.9221 148.37C56.8676 150.15 55.4323 152.551 54.381 155.056C51.1696 162.713 51.3424 171.282 50.6848 179.538C50.0271 187.795 49.1535 196.382 41.8234 201.768" fill="black"/>
</g>
<path d="M40.0938 202.604C40.1594 202.566 40.2285 202.534 40.3002 202.508L40.905 202.244C41.6411 201.853 42.3304 201.38 42.9595 200.833C45.1552 198.831 47.0257 196.498 48.5039 193.921V193.959C48.9408 190.671 49.464 186.83 49.9968 182.75C50.8801 176.279 51.6577 170.423 52.2866 166.189C52.6754 164.101 52.9874 162.406 53.213 161.206C53.3235 160.635 53.4099 160.184 53.4771 159.853L53.5491 159.502C53.5554 159.463 53.5667 159.424 53.5827 159.387C53.59 159.427 53.59 159.467 53.5827 159.507C53.5827 159.603 53.5491 159.718 53.5299 159.862L53.3138 161.225C53.1074 162.426 52.8338 164.106 52.4642 166.218C51.8978 170.476 51.1153 176.299 50.2512 182.784C49.6944 186.864 49.1712 190.699 48.7247 193.988V194.012C47.2212 196.602 45.312 198.934 43.07 200.919C42.4267 201.462 41.7189 201.923 40.9626 202.292C40.6938 202.403 40.4826 202.475 40.3386 202.523C40.2627 202.565 40.1797 202.592 40.0938 202.604Z" fill="#263238"/>
<path d="M86.3022 203.647C86.2801 203.599 86.2639 203.549 86.2542 203.498C86.2254 203.383 86.1918 203.234 86.1486 203.047C86.0622 202.648 85.9038 202.087 85.779 201.309C85.3948 199.156 85.1734 196.977 85.1166 194.79C85.0404 191.553 85.2137 188.314 85.635 185.103C86.0766 181.474 86.8111 177.523 87.6655 173.395C88.52 169.267 89.5137 165.374 90.3489 161.826C91.1417 158.697 91.6574 155.503 91.8898 152.283C92.014 150.111 91.9336 147.931 91.6498 145.774C91.5682 145.006 91.4386 144.42 91.381 144.017L91.3138 143.561C91.3074 143.508 91.3074 143.455 91.3138 143.403C91.3331 143.452 91.346 143.504 91.3522 143.556C91.3762 143.671 91.4098 143.82 91.4482 144.007C91.5154 144.406 91.6642 144.968 91.7602 145.76C92.0813 147.922 92.189 150.11 92.0818 152.293C91.874 155.531 91.3744 158.745 90.5889 161.894C89.7633 165.451 88.7408 169.329 87.9247 173.462C87.1087 177.595 86.331 181.527 85.875 185.146C85.4406 188.342 85.2464 191.566 85.2942 194.79C85.3346 196.966 85.5287 199.136 85.875 201.285C85.9854 202.048 86.1294 202.629 86.1966 203.032C86.2302 203.22 86.259 203.373 86.2782 203.488C86.2974 203.604 86.3022 203.647 86.3022 203.647Z" fill="#263238"/>
<path d="M94.3815 149.518C94.3239 149.479 95.1496 148.159 96.0712 146.474C96.9929 144.789 97.6601 143.383 97.7273 143.412C97.6574 143.746 97.541 144.069 97.3817 144.372C97.1321 144.953 96.7529 145.74 96.292 146.59C95.8312 147.439 95.3656 148.178 95.0103 148.702C94.8393 149.001 94.6277 149.276 94.3815 149.518Z" fill="#263238"/>
<g opacity="0.3">
<path d="M95.9256 147.525C98.4278 144.597 101.137 141.852 104.033 139.312C104.825 138.616 105.685 137.91 106.726 137.737C107.994 137.526 109.285 138.179 110.163 139.12C110.991 140.107 111.653 141.223 112.122 142.423C113.38 139.331 112.074 135.846 110.778 132.769C110.355 131.766 109.626 130.575 108.55 130.739C107.988 130.896 107.498 131.246 107.168 131.727C103.008 136.558 99.1595 141.648 95.6472 146.968" fill="black"/>
</g>
<g opacity="0.3">
<path d="M138.132 124.66L138.309 123.138C136.48 123.311 134.234 123.527 132.775 124.64C131.07 125.941 130.374 128.154 129.827 130.218C128.522 134.913 132.227 159.083 132.035 163.955C133.653 163.269 134.796 152.914 135.084 151.157C135.794 146.928 134.359 144.288 134.796 143.107C135.232 141.926 135.218 140.645 135.252 139.392C135.41 133.78 135.967 129.834 138.132 124.66Z" fill="black"/>
</g>
<path d="M114.269 47.0881C111.946 44.2079 112.709 39.6044 115.369 37.0074C118.028 34.4105 122.089 33.6904 125.723 34.3049C128.371 34.776 130.87 35.8677 133.016 37.4905C135.161 39.1134 136.891 41.2212 138.065 43.6415C139.313 46.2577 139.985 49.3491 142.275 51.1252C144.281 52.6901 147.046 52.8245 149.331 53.9478C152.394 55.4455 154.371 58.6569 155.091 61.9932C155.811 65.3294 155.37 68.8048 154.664 72.1459C154.016 75.2085 153.152 78.5207 154.467 81.3577C155.783 84.1947 158.744 85.6396 160.708 87.9725C164.423 92.3552 163.588 99.8149 158.984 103.262C157.52 104.361 155.667 105.182 154.967 106.891C154.328 108.436 154.871 110.188 154.837 111.859C154.755 116.179 150.008 119.707 145.856 118.579C143.763 118.003 141.833 116.458 139.678 116.75C137.522 117.043 136.111 119.021 134.397 120.303C132.644 121.521 130.524 122.099 128.394 121.939C126.265 121.779 124.255 120.891 122.704 119.424C121.446 118.171 120.433 116.467 118.715 116.011C116.996 115.555 115.196 116.539 113.434 116.299C111.135 115.987 109.623 113.702 108.941 111.499C108.259 109.296 108.082 106.871 106.935 104.855C105.422 102.186 102.542 100.703 100.142 98.8309C97.4762 96.7708 95.2841 94.1621 93.7139 91.1813C92.1437 88.2005 91.2322 84.9172 91.0411 81.5536C90.8499 78.19 91.3835 74.8246 92.6059 71.6851C93.8282 68.5456 95.7107 65.7053 98.1259 63.3564" fill="#263238"/>
<path d="M82.0733 104.674C79.7936 107.336 78.1791 110.502 77.3629 113.91C76.5466 117.319 76.552 120.873 77.3786 124.279C79.0923 131.052 84.7567 140.955 91.2995 143.413C95.543 140.302 100.996 135.958 104.952 132.492C107.51 130.25 108.869 126.972 110.136 123.813C110.866 121.989 111.61 120.021 111.154 118.11C110.813 116.704 109.862 115.532 108.859 114.491C105.6 111.162 101.596 108.657 97.1765 107.183C92.7575 105.709 88.0509 105.308 83.4462 106.013" fill="#EF9D78"/>
<path d="M101.499 55.9068C102.68 53.5122 104.648 51.596 107.073 50.4791C109.498 49.3623 112.233 49.1126 114.82 49.772L131.194 53.9483C139.379 56.5836 145.787 69.2517 140.963 80.3501C137.151 89.1107 133.249 100.118 129.336 106.166C121.464 118.321 110.702 115.541 110.702 115.541L104.893 128.502L81.146 106.233L101.499 55.9068Z" fill="#EF9D78"/>
<path d="M129.148 83.7716C129.455 83.6564 130.262 85.2117 132.028 86.0421C133.795 86.8726 135.542 86.6374 135.628 86.9494C135.676 87.0934 135.278 87.3814 134.51 87.5158C133.481 87.6731 132.429 87.5053 131.5 87.0358C130.574 86.5942 129.813 85.8674 129.33 84.9621C128.994 84.2996 128.999 83.8196 129.148 83.7716Z" fill="#263238"/>
<path d="M110.605 75.3285C110.951 75.2613 111.748 76.9654 113.658 78.1511C115.569 79.3367 117.499 79.3703 117.58 79.7016C117.623 79.8552 117.167 80.0808 116.308 80.0904C115.139 80.0673 113.998 79.7236 113.01 79.0967C112.03 78.4975 111.242 77.6295 110.74 76.5958C110.404 75.8421 110.437 75.3525 110.605 75.3285Z" fill="#263238"/>
<path d="M118.465 93.4361C118.503 93.3305 119.708 93.6329 121.628 94.2089C122.108 94.3625 122.588 94.4682 122.804 94.1849C123.02 93.9017 123.087 93.3209 123.102 92.6824C123.164 91.3767 123.231 90.0086 123.294 88.5685C123.62 82.7361 124.067 78.0078 124.302 78.0318C124.537 78.0558 124.47 82.789 124.148 88.6262C124.059 90.063 123.972 91.4327 123.889 92.7352C123.831 93.3353 123.865 94.0649 123.327 94.6554C123.187 94.7881 123.019 94.8873 122.836 94.9455C122.652 95.0037 122.457 95.0194 122.266 94.9914C121.981 94.9483 121.702 94.8693 121.436 94.7562C119.564 94.0361 118.426 93.5417 118.465 93.4361Z" fill="#263238"/>
<path d="M110.702 115.585C110.702 115.585 101.221 112.032 94.8223 102.926C94.8223 102.926 95.1823 114.044 109.252 118.844L110.702 115.585Z" fill="#D37A57"/>
<path d="M112.094 69.1739C112.392 68.6939 114.268 69.3467 116.592 69.5531C118.915 69.7595 120.879 69.5291 121.08 70.062C121.167 70.3164 120.744 70.7436 119.899 71.094C118.781 71.5084 117.583 71.6628 116.396 71.5456C115.209 71.4283 114.065 71.0424 113.049 70.4172C112.291 69.9036 111.96 69.4043 112.094 69.1739Z" fill="#263238"/>
<path d="M133.018 74.4551C133.623 74.4551 134.372 75.948 135.668 77.3737C136.964 78.7994 138.303 79.7738 138.217 80.3787C138.159 80.6523 137.655 80.7723 136.858 80.5371C135.805 80.1727 134.868 79.5329 134.146 78.6842C133.399 77.8627 132.89 76.8539 132.672 75.7656C132.547 74.9495 132.735 74.4743 133.018 74.4551Z" fill="#263238"/>
<path d="M114.303 98.4518C114.303 98.4518 115.417 97.8709 114.898 95.73C114.38 93.5891 111.663 91.6545 109.94 93.4162C109.94 93.4162 108.202 93.5459 108.884 95.5524C109.565 97.5589 113.53 100.391 114.27 98.7782" fill="#D37A57"/>
<path d="M113.654 100.088C113.337 100.03 113.817 97.9421 112.377 96.046C110.937 94.1499 108.661 93.8618 108.714 93.5642C108.714 93.425 109.304 93.2762 110.25 93.4682C111.476 93.7353 112.567 94.4274 113.332 95.4219C114.069 96.3775 114.405 97.5829 114.268 98.7822C114.148 99.6702 113.793 100.131 113.654 100.088Z" fill="#263238"/>
<path d="M87.4972 49.0846C86.2284 50.0749 85.2109 51.3503 84.527 52.8073C83.8431 54.2643 83.5121 55.862 83.561 57.4708C83.633 59.2661 84.0698 61.383 82.7497 62.6023C81.4296 63.8216 79.2839 63.1736 77.4694 63.1832C75.8708 63.2358 74.3418 63.8496 73.1507 64.917C71.9595 65.9844 71.1823 67.4371 70.9553 69.0204C70.8257 70.1532 70.9553 71.3773 70.3985 72.3806C69.8416 73.3839 68.5888 73.8639 67.5711 74.4831C66.3016 75.2519 65.2564 76.3408 64.5403 77.6408C63.8242 78.9408 63.4624 80.4062 63.4911 81.89C63.5198 83.3739 63.938 84.8242 64.7037 86.0955C65.4695 87.3669 66.556 88.4146 67.8543 89.1337C69.0304 89.7818 70.4033 90.1898 71.2625 91.2219C72.2226 92.4076 72.2802 94.1021 72.765 95.5422C73.2313 96.9554 74.1291 98.1869 75.3319 99.0632C76.5347 99.9395 77.9821 100.416 79.4703 100.427C80.9584 100.438 82.4124 99.9813 83.6276 99.1223C84.8428 98.2632 85.758 97.0446 86.2444 95.6382" fill="#263238"/>
<path d="M114.064 44.4922C113.581 45.9005 113.413 47.398 113.575 48.8781C113.736 50.3583 114.221 51.7848 114.996 53.0561C115.771 54.3274 116.817 55.4124 118.058 56.2337C119.3 57.0551 120.708 57.5927 122.181 57.8083C124.457 58.1395 127.174 57.8515 128.642 59.6228C130.188 61.4853 129.271 64.4519 130.495 66.5449C132.238 69.5259 135.219 71.9068 138.041 73.9038C140.226 75.4447 137.729 79.7314 138.68 82.2275C139.63 84.7237 143.543 90.4217 146.212 90.5225C146.797 88.2904 150.119 78.4833 150.177 76.1791C150.234 73.875 149.697 71.4748 148.285 69.6603C147.503 68.6666 146.476 67.8746 145.799 66.8089C144.335 64.4999 144.839 61.5285 144.359 58.8259C144.037 57.084 143.302 55.4444 142.216 54.0447C141.131 52.6449 139.725 51.5256 138.118 50.7806C135.454 49.5613 132.329 49.4269 129.867 47.838C128.047 46.6619 126.746 44.785 124.86 43.7193C121.188 41.6456 116.589 43.2393 112.792 45.0634" fill="#263238"/>
<path d="M96.3623 72.3804C95.9831 72.126 93.4821 74.0317 95.9495 75.5534C100.303 78.2128 104.043 69.217 103.884 66.2264C106.102 65.2663 108.344 64.3399 110.298 62.8662C112.251 61.3925 115.17 56.5393 115.693 54.072C117.359 54.7488 125.409 54.8112 124.708 54.3264C123.119 53.2271 119.908 50.8701 119.481 49.046C118.554 45.0377 115.708 41.5479 111.944 40.5014C109.982 40.0056 107.912 40.1585 106.043 40.9373C104.175 41.7161 102.609 43.0789 101.58 44.8217C97.1015 43.3432 91.7924 44.6729 88.2209 48.182C86.4381 49.9788 85.1189 52.1823 84.3772 54.6024C83.6354 57.0226 83.4933 59.5868 83.963 62.0741C84.2223 63.351 84.6543 64.6855 84.2463 65.9528C83.7374 67.5177 82.1629 68.3529 80.91 69.3802C77.497 72.15 76.0281 77.0607 76.4457 81.4626C76.8634 85.8645 77.6218 87.6359 79.806 89.2344C84.083 92.3546 75.1928 100.333 83.1662 103.031" fill="#263238"/>
<path d="M155.825 102.886C155.825 102.857 156.108 102.689 156.574 102.252C157.261 101.62 157.808 100.852 158.182 99.9961C158.787 98.6538 158.943 97.1524 158.628 95.7142C158.254 94.0389 156.991 92.4452 155.302 91.0867C153.612 89.7282 151.505 88.4177 149.978 86.1952C148.452 83.9726 148.178 80.9148 148.668 78.0346C149.157 75.1544 150.367 72.2742 151.145 69.2452C151.563 67.7195 151.762 66.142 151.735 64.5601C151.72 62.9518 151.287 61.3751 150.477 59.9854C149.604 58.6358 148.366 57.562 146.906 56.8892C145.475 56.2193 143.955 55.757 142.394 55.5163C140.838 55.3332 139.298 55.038 137.785 54.633C137.026 54.4311 136.317 54.0761 135.7 53.5898C135.084 53.1036 134.573 52.4965 134.199 51.8056C133.503 50.4328 133.35 48.9783 133.047 47.6582C132.812 46.3781 132.279 45.1712 131.492 44.1347C130.02 42.2795 127.917 41.0319 125.583 40.6305C123.659 40.3035 121.682 40.5402 119.89 41.3121C118.533 41.8963 117.286 42.708 116.203 43.7123C115.299 44.5998 114.482 45.5723 113.764 46.6165C113.764 46.6165 113.788 46.5301 113.87 46.3861C113.982 46.1671 114.106 45.954 114.24 45.7476C114.749 44.943 115.349 44.2003 116.03 43.5347C117.112 42.4759 118.371 41.6148 119.75 40.9905C121.601 40.1556 123.654 39.877 125.66 40.1889C128.11 40.5913 130.325 41.8876 131.876 43.8275C132.719 44.9212 133.294 46.1968 133.556 47.5526C133.873 48.9014 134.036 50.3223 134.684 51.556C135.027 52.1746 135.493 52.7168 136.052 53.1493C136.612 53.5818 137.254 53.8956 137.939 54.0714C139.425 54.4641 140.938 54.748 142.466 54.9211C144.089 55.1756 145.669 55.6605 147.155 56.3612C148.725 57.0839 150.057 58.2376 150.996 59.6878C151.862 61.1719 152.325 62.8564 152.34 64.5745C152.369 66.2149 152.162 67.8509 151.725 69.4325C150.914 72.5191 149.695 75.3369 149.22 78.1642C148.744 80.9916 148.97 83.8382 150.391 85.9264C151.812 88.0145 153.914 89.3154 155.57 90.7651C157.227 92.2148 158.59 93.8661 158.931 95.6566C159.232 97.1656 159.032 98.7319 158.359 100.116C157.953 100.987 157.358 101.756 156.617 102.368C156.379 102.577 156.112 102.752 155.825 102.886Z" fill="#455A64"/>
<path d="M141.084 73.9033C141.137 73.9273 140.849 74.5898 140.556 75.8475C140.155 77.6234 140.098 79.46 140.388 81.2574C140.583 82.4909 140.948 83.6914 141.473 84.8241C142.109 86.1147 142.899 87.3236 143.825 88.4243C144.33 89.0595 144.76 89.7504 145.107 90.4837C145.475 91.2785 145.63 92.155 145.558 93.0278C145.419 94.8135 144.541 96.3881 143.888 98.0154C143.235 99.6427 142.817 101.323 143.446 102.816C144.075 104.309 145.218 105.427 146.298 106.502C147.406 107.496 148.358 108.651 149.12 109.93C149.762 111.111 149.933 112.491 149.6 113.794C149.38 114.717 148.957 115.579 148.363 116.319C147.768 117.059 147.017 117.657 146.163 118.071C145.699 118.281 145.205 118.419 144.699 118.479C144.524 118.505 144.346 118.505 144.171 118.479C144.819 118.336 145.452 118.127 146.058 117.855C146.841 117.422 147.524 116.827 148.059 116.109C148.595 115.392 148.971 114.568 149.163 113.693C149.443 112.501 149.272 111.248 148.683 110.175C147.93 108.957 146.998 107.86 145.918 106.92C144.833 105.85 143.571 104.697 142.899 103.037C142.566 102.192 142.455 101.277 142.577 100.377C142.715 99.482 142.97 98.6089 143.336 97.7802C144.013 96.124 144.848 94.5831 144.973 92.9798C145.098 91.3765 144.296 89.97 143.389 88.7651C142.449 87.6234 141.656 86.3688 141.027 85.0305C139.739 82.118 139.5 78.8492 140.35 75.7803C140.482 75.2872 140.654 74.8056 140.864 74.3402C140.915 74.1841 140.989 74.0368 141.084 73.9033Z" fill="#455A64"/>
<path d="M69.0598 88.9712C69.0598 88.9712 68.9542 88.9136 68.7862 88.7696C68.5311 88.5567 68.2964 88.3204 68.0853 88.0639C67.2743 87.0791 66.726 85.9049 66.4916 84.6509C66.2886 83.6711 66.2883 82.6602 66.4905 81.6803C66.6928 80.7004 67.0934 79.7722 67.6677 78.9529C68.4312 77.8851 69.4482 77.0238 70.6272 76.4465C71.8061 75.8691 73.1101 75.5939 74.4218 75.6455L74.1577 76.0007C73.5398 74.4103 73.2634 72.7077 73.3465 71.0036C73.3959 70.064 73.6516 69.1468 74.0955 68.3171C74.5393 67.4875 75.1604 66.7658 75.9147 66.2032C76.7258 65.5946 77.7089 65.2585 78.7228 65.2432C79.7387 65.3046 80.7293 65.5846 81.627 66.064C82.4704 66.5222 83.369 66.8707 84.3008 67.1009C84.7535 67.1876 85.2204 67.1644 85.6623 67.0333C86.1042 66.9022 86.5081 66.6669 86.8402 66.3472C87.8215 65.3308 88.3837 63.9819 88.4147 62.5694C88.5251 61.1581 88.3907 59.7228 88.5395 58.2875C88.8395 55.5259 90.0881 52.954 92.0726 51.0102C93.8417 49.2847 96.122 48.1783 98.5722 47.8564C100.638 47.5662 102.743 47.8296 104.673 48.6196L104.405 48.73C105.096 47.3478 106.271 46.268 107.707 45.6962C108.76 45.2642 109.902 45.0993 111.034 45.2162C111.738 45.2869 112.422 45.4853 113.055 45.8018C113.274 45.9095 113.479 46.0451 113.664 46.2051C112.838 45.7859 111.938 45.5284 111.015 45.4466C109.925 45.38 108.835 45.5759 107.837 46.0179C106.501 46.5823 105.417 47.615 104.789 48.9221L104.702 49.0997L104.515 49.0277C102.648 48.3019 100.625 48.0752 98.6442 48.37C96.3141 48.7071 94.1528 49.7802 92.4758 51.4326C90.602 53.2894 89.4269 55.7362 89.1492 58.3595C89.01 59.718 89.1492 61.1485 89.0387 62.6366C88.9983 64.2056 88.3655 65.7011 87.2674 66.8225C86.8638 67.2048 86.3757 67.4867 85.8427 67.6451C85.3098 67.8036 84.747 67.8342 84.2 67.7345C83.2079 67.4963 82.251 67.13 81.3534 66.6449C80.539 66.2008 79.6386 65.9373 78.7132 65.872C77.8282 65.8862 76.9701 66.1784 76.2603 66.7073C75.5688 67.2175 74.9991 67.8749 74.5923 68.6319C74.1856 69.389 73.9519 70.2269 73.9081 71.0852C73.8205 72.7093 74.0706 74.334 74.6426 75.8567L74.777 76.2311H74.3786C73.1495 76.1731 71.9252 76.4191 70.814 76.9475C69.7029 77.4759 68.7392 78.2702 68.0085 79.2601C67.4508 80.0302 67.0548 80.9053 66.8444 81.8327C66.634 82.76 66.6136 83.7203 66.7844 84.6557C66.987 85.8754 67.481 87.0281 68.2245 88.0159C68.7286 88.6448 69.0838 88.9424 69.0598 88.9712Z" fill="#455A64"/>
<path d="M113.846 48.1062C113.875 48.2166 112.886 48.0582 111.681 48.9462C110.477 49.8343 109.392 51.9129 109.08 54.5818L109.056 54.8075H108.825C107.499 54.7212 106.172 54.9428 104.946 55.4549C103.72 55.9671 102.629 56.7559 101.759 57.7596C101.275 58.3311 100.89 58.9803 100.621 59.6798C100.391 60.4381 100.231 61.2157 100.141 62.0031C100.04 62.8502 99.8799 63.6891 99.6614 64.5137C99.4233 65.4174 98.8914 66.2162 98.1493 66.7843C96.5556 68.0276 94.597 68.2244 92.8689 68.5124C91.2109 68.6575 89.5886 69.0776 88.0686 69.7557C85.5253 70.9747 83.54 73.1143 82.5146 75.7417C81.8395 77.5252 81.6136 79.4474 81.857 81.3389C82.0298 82.683 82.337 83.3934 82.2554 83.4126C82.1513 83.2578 82.0719 83.0878 82.0202 82.9086C81.8453 82.4097 81.7104 81.8976 81.6169 81.3773C81.2697 79.4387 81.4352 77.443 82.097 75.5881C83.1047 72.8003 85.1541 70.5118 87.8142 69.2036C89.381 68.486 91.0572 68.0365 92.7729 67.8739C94.4818 67.6003 96.3395 67.3603 97.7316 66.261C99.1045 65.301 99.2533 63.4768 99.5174 61.8783C99.6211 61.0526 99.7994 60.2381 100.05 59.4446C100.351 58.6838 100.776 57.9782 101.308 57.3564C102.243 56.2946 103.414 55.4667 104.727 54.939C106.04 54.4113 107.458 54.1986 108.868 54.3178L108.614 54.529C108.998 51.7496 110.169 49.5991 111.533 48.7254C112.034 48.3803 112.613 48.1643 113.217 48.0966C113.426 48.0681 113.638 48.0713 113.846 48.1062Z" fill="#455A64"/>
<path d="M97.2896 73.7591C98.6577 71.0805 96.8096 67.7059 93.8094 67.7107C92.1533 67.7107 90.3771 68.6132 88.8986 71.4454C84.9576 79.0011 93.3581 81.4012 93.483 81.19C93.5598 81.0604 95.6863 76.9033 97.2896 73.7591Z" fill="#EF9D78"/>
<path d="M92.667 77.1251C92.667 77.0819 92.4894 77.1491 92.1869 77.1251C91.8062 77.0994 91.4501 76.9274 91.1933 76.6451C90.55 75.9347 90.5356 74.3169 91.1933 72.9393C91.508 72.279 91.9693 71.6994 92.5422 71.2447C92.7374 71.048 92.9773 70.9016 93.2415 70.818C93.5057 70.7344 93.7863 70.7161 94.0591 70.7647C94.2316 70.8038 94.3851 70.9019 94.4929 71.0422C94.6007 71.1824 94.6561 71.356 94.6495 71.5328C94.6495 71.7968 94.5151 71.9216 94.5439 71.9552C94.5727 71.9888 94.7743 71.912 94.8751 71.5712C94.9411 71.3659 94.936 71.1444 94.8607 70.9423C94.7986 70.8104 94.7111 70.6921 94.6032 70.5941C94.4953 70.4961 94.3691 70.4203 94.2319 70.3711C93.8897 70.2698 93.5273 70.2581 93.1793 70.3371C92.8313 70.4161 92.5094 70.5832 92.2446 70.8223C91.5832 71.3103 91.0496 71.9509 90.6892 72.6896C89.9452 74.2401 89.9836 76.0499 90.9101 76.9571C91.0824 77.1206 91.289 77.2438 91.5148 77.3177C91.7406 77.3916 91.9801 77.4143 92.2158 77.3844C92.5614 77.2979 92.6862 77.1539 92.667 77.1251Z" fill="#D37A57"/>
<path d="M89.7629 178.704C89.0909 177.465 87.3628 176.702 87.3628 176.702L85.9227 173.174C86.2672 172.283 86.2672 171.295 85.9227 170.404C85.3514 168.878 81.1511 160.011 81.2471 159.723L80.1623 159.661C80.1623 159.661 84.0313 169.046 84.4106 169.526C84.7898 170.006 85.3706 172.795 84.4106 173.174C83.4505 173.553 81.4296 172.526 80.5703 171.667C79.711 170.807 76.9797 164.351 76.5044 163.026C76.0292 161.701 76.874 159.834 76.874 159.834L77.6373 158.024H76.6196C76.2015 159.242 75.8505 160.483 75.5684 161.739C75.1891 163.554 79.4806 171.47 80.1479 172.329C80.8151 173.188 83.1049 173.856 84.3434 174.729C85.5818 175.603 85.3946 178.262 85.3946 178.262C84.749 179.195 84.3539 180.277 84.2474 181.406C84.1513 183.125 87.9676 191.233 90.5406 192.927C93.1136 194.622 96.1714 193.407 96.4546 193.503C96.7378 193.599 97.4147 192.164 97.4147 192.164C97.4147 192.164 90.4302 179.942 89.7629 178.704ZM93.2768 192.87C91.8718 192.68 90.5986 191.943 89.7341 190.82C89.4221 190.407 86.0811 184.579 85.649 183.514C84.9002 181.627 85.4186 180.581 85.6922 179.477C86.0907 177.869 88.5724 178.809 88.5724 178.809C88.5724 178.809 95.8785 191.434 95.7105 191.818C95.5425 192.202 94.6497 192.99 93.2768 192.87Z" fill="#263238"/>
<path d="M97.39 192.149C97.39 192.149 118.66 184.055 119.654 183.138C120.648 182.222 124.238 176.951 124.238 176.951C124.238 176.951 125.995 177.253 125.765 177.714C125.534 178.175 122.174 183.446 118.564 184.972C114.954 186.499 96.4155 193.488 96.4155 193.488L97.39 192.149Z" fill="#263238"/>
<path d="M30.0804 125.449L21.3198 175.977C21.3198 175.977 18.094 185.808 18.5548 187.978C19.0157 190.147 20.643 199.402 25.5585 202.321C30.474 205.24 40.2091 203.334 42.206 201.361C44.203 199.388 48.1392 195.706 48.6001 194.016C49.0609 192.327 52.2915 166.655 52.2915 166.655L53.5732 159.454C53.5732 159.454 48.8113 160.99 45.8927 158.974C42.9741 156.958 39.1338 148.375 39.1338 148.375L34.8567 154.947L30.0804 125.449Z" fill="#08A081"/>
<path d="M39.135 148.327C39.0919 148.427 39.0372 148.522 38.9718 148.61L38.4486 149.402C37.9973 150.084 37.3445 151.077 36.562 152.316C34.9875 154.793 32.885 158.254 30.5856 162.099C28.2863 165.944 26.2173 169.424 24.6668 171.925C23.8988 173.173 23.2651 174.177 22.8187 174.868C22.6027 175.189 22.4251 175.454 22.2954 175.655C22.2368 175.748 22.1709 175.836 22.0986 175.919C22.137 175.815 22.1887 175.717 22.2522 175.626L22.7323 174.815L24.518 171.834L30.3696 161.969C32.669 158.129 34.8003 154.673 36.4132 152.22C37.2197 150.991 37.8917 150.012 38.3717 149.34L38.9286 148.576C38.9898 148.487 39.0589 148.404 39.135 148.327Z" fill="#263238"/>
<path d="M52.4721 165.584C52.4186 165.659 52.3574 165.729 52.2897 165.791C52.1601 165.92 51.9872 166.127 51.728 166.352C51.0068 167.017 50.1896 167.569 49.3039 167.989C48.6936 168.277 48.0479 168.482 47.3837 168.599C46.6143 168.744 45.8264 168.764 45.0508 168.657C44.1952 168.547 43.3587 168.32 42.5642 167.985C41.7211 167.62 40.917 167.171 40.164 166.645C39.4219 166.096 38.7412 165.468 38.1335 164.773C36.6307 162.999 35.6238 160.86 35.2149 158.571C35.0362 157.611 34.9701 156.633 35.0181 155.657C35.0181 155.312 35.0757 155.048 35.0901 154.865C35.0985 154.773 35.1146 154.681 35.1381 154.592C35.1562 154.948 35.1562 155.306 35.1381 155.662C35.1297 156.629 35.2214 157.594 35.4117 158.542C35.6918 159.948 36.1907 161.3 36.8902 162.551C37.3069 163.281 37.7889 163.972 38.3303 164.615C38.9305 165.294 39.5998 165.908 40.3273 166.448C41.0686 166.965 41.8598 167.405 42.689 167.764C43.456 168.093 44.263 168.319 45.0892 168.436C45.836 168.536 46.5938 168.52 47.3357 168.388C47.9973 168.282 48.6426 168.091 49.2559 167.821C50.1342 167.421 50.9519 166.899 51.6848 166.271C52.1841 165.834 52.4577 165.565 52.4721 165.584Z" fill="#263238"/>
<path d="M39.1348 148.328L45.692 144.113C45.692 144.113 63.1652 137.014 64.9413 136.606C66.7174 136.198 68.7816 135.377 69.7417 136.606C70.7017 137.835 80.6624 145.069 80.6624 145.069C80.6624 145.069 86.5332 156.109 86.5332 157.631C86.5332 159.153 88.1701 161.054 86.5332 161.596L84.8771 162.148C84.8771 162.148 84.3298 164.827 82.2801 165.124C80.2304 165.422 79.5487 165.124 79.5487 165.124C79.5487 165.124 79.4143 167.803 77.7774 167.64C76.1405 167.477 73.4091 165.124 73.4091 165.124C73.4091 165.124 72.1802 166.516 71.2249 166.516C70.2697 166.516 67.2647 164.472 67.2647 164.472L61.4563 159.417L56.3391 157.645L53.5789 159.388C53.5789 159.388 47.6745 159.892 46.7865 159.388C45.8984 158.884 39.1348 148.328 39.1348 148.328Z" fill="#EF9D78"/>
<path d="M72.6927 165.584C72.5699 165.333 72.4687 165.073 72.3903 164.806C72.3039 164.556 72.1935 164.249 72.0446 163.899C71.8958 163.548 71.7518 163.145 71.5406 162.718C71.3294 162.291 71.123 161.81 70.8542 161.326C70.5854 160.841 70.2829 160.318 69.9613 159.775C69.233 158.623 68.4195 157.527 67.5275 156.497C66.6197 155.48 65.6394 154.53 64.5945 153.655C64.1145 153.266 63.6345 152.882 63.1544 152.57C62.6744 152.258 62.2664 151.955 61.8632 151.706C61.4599 151.456 61.0807 151.226 60.7543 151.053C60.4279 150.88 60.1398 150.707 59.8998 150.573C59.647 150.459 59.4031 150.325 59.1702 150.174C59.4366 150.255 59.6953 150.36 59.943 150.487C60.2431 150.612 60.5363 150.753 60.8215 150.909C61.1575 151.087 61.5463 151.279 61.9544 151.533C62.3624 151.787 62.8136 152.051 63.2744 152.383C63.7353 152.714 64.2345 153.069 64.7145 153.458C66.8623 155.191 68.6956 157.281 70.1341 159.636C70.4557 160.183 70.7678 160.697 71.0126 161.21C71.2574 161.724 71.4926 162.171 71.6798 162.651C71.867 163.131 72.0206 163.5 72.1599 163.855C72.2991 164.211 72.3903 164.523 72.4623 164.782C72.56 165.043 72.637 165.311 72.6927 165.584Z" fill="#D37A57"/>
<path d="M79.5369 165.417C79.5369 165.417 79.4793 165.35 79.3881 165.206C79.2969 165.062 79.1625 164.856 79.0137 164.573C78.5964 163.772 78.2401 162.94 77.948 162.086C77.5688 161.011 77.1992 159.686 76.7672 158.246C76.3356 156.681 75.7167 155.174 74.9238 153.757C74.0831 152.37 72.9654 151.17 71.6404 150.234C70.4307 149.355 69.2642 148.645 68.3762 147.915C67.655 147.365 67.029 146.7 66.5233 145.947C66.3915 145.739 66.2759 145.521 66.1776 145.294C66.1358 145.219 66.1051 145.138 66.0864 145.054C66.1104 145.054 66.2448 145.371 66.6049 145.894C67.133 146.614 67.7675 147.248 68.4866 147.776C69.3795 148.477 70.5459 149.168 71.7748 150.052C73.1348 150.993 74.2801 152.212 75.135 153.628C75.9397 155.062 76.5622 156.59 76.988 158.178C77.4104 159.619 77.7608 160.934 78.116 162.019C78.3842 162.87 78.7048 163.703 79.0761 164.515C79.2463 164.807 79.4002 165.108 79.5369 165.417Z" fill="#D37A57"/>
<path d="M84.4628 162.248C84.4265 162.173 84.4007 162.094 84.386 162.012C84.3427 161.825 84.2899 161.6 84.2227 161.321C84.1555 161.043 84.0739 160.654 83.9539 160.236C83.8339 159.819 83.7187 159.329 83.5315 158.796C83.3443 158.263 83.1763 157.707 82.9315 157.106C82.6866 156.506 82.4178 155.873 82.125 155.21C80.7875 152.357 79.0052 149.733 76.8446 147.439C76.3358 146.92 75.8606 146.416 75.3757 145.999C74.8909 145.581 74.4493 145.168 74.022 144.818C73.5948 144.467 73.2012 144.174 72.8556 143.906C72.5099 143.637 72.2027 143.426 71.9483 143.253L71.3627 142.85C71.2331 142.753 71.1659 142.701 71.1707 142.691C71.2483 142.721 71.3224 142.76 71.3915 142.806L72.0011 143.176C72.2651 143.334 72.582 143.536 72.9372 143.795C73.2924 144.054 73.71 144.328 74.1373 144.683C74.5645 145.038 75.0397 145.403 75.5149 145.85C75.9902 146.296 76.475 146.771 77.0079 147.29C78.0979 148.445 79.0992 149.68 80.0033 150.986C80.8855 152.304 81.6654 153.687 82.3362 155.124C82.629 155.796 82.9171 156.43 83.1283 157.044C83.3395 157.659 83.5459 158.225 83.7043 158.758C83.8627 159.291 83.9827 159.771 84.0931 160.198C84.1883 160.56 84.2652 160.927 84.3236 161.297C84.3716 161.576 84.41 161.811 84.4436 161.998C84.4621 162.08 84.4686 162.164 84.4628 162.248Z" fill="#D37A57"/>
<path d="M58.7436 143.614C58.7436 143.653 58.4028 143.705 57.8987 143.926C57.2411 144.202 56.6679 144.646 56.2371 145.214C55.8064 145.782 55.5334 146.454 55.4458 147.162C55.3738 147.709 55.417 148.054 55.3786 148.059C55.2627 147.77 55.2262 147.455 55.2729 147.147C55.3149 146.391 55.5812 145.665 56.0377 145.062C56.4943 144.458 57.1205 144.004 57.8363 143.758C58.1214 143.633 58.4338 143.584 58.7436 143.614Z" fill="#D37A57"/>
<path d="M63.611 138.985C63.6494 139.053 62.8046 139.586 61.9693 140.478C61.1341 141.371 60.6348 142.235 60.5676 142.202C61.1415 140.785 62.2282 139.637 63.611 138.985Z" fill="#D37A57"/>
<path d="M132.116 81.983C131.285 82.3287 131.117 83.3223 131.131 84.22C131.131 85.3433 131.429 85.5257 132.346 87.4074C133.848 90.4844 135.644 96.3216 135.644 96.3216C135.644 96.3216 134.17 111.059 135.164 114.52C135.435 115.437 135.926 116.275 136.596 116.958C137.265 117.642 138.092 118.151 139.004 118.442L137.66 129.823H153.736C153.736 129.823 153.165 118.782 152.819 115.422C152.454 111.87 152.695 90.3884 152.695 90.3884L151.115 78.9204L147.395 72.4784C146.831 72.8474 146.412 73.4013 146.212 74.0451C146.011 74.6889 146.041 75.3823 146.296 76.0066C147.136 78.3636 147.688 82.8903 147.688 82.8903L138.38 68.8829C138.38 68.8829 136.551 69.3198 136.46 72.7232C136.46 72.7232 133.752 74.4849 135.5 77.3459C137.381 80.5429 139.407 90.1436 138.697 90.1436L132.936 81.6614L132.116 81.983Z" fill="#EF9D78"/>
<path d="M137.622 129.821C137.622 129.821 137.622 129.566 137.694 129.067C137.766 128.568 137.833 127.824 137.939 126.864C138.16 124.92 138.486 122.063 138.899 118.43L138.942 118.497C138.194 118.255 137.499 117.87 136.897 117.364C136.235 116.815 135.709 116.12 135.361 115.333C135.015 114.479 134.824 113.571 134.795 112.65C134.74 111.69 134.718 110.714 134.727 109.722C134.771 105.699 135.083 101.196 135.539 96.3096V96.348C134.785 93.9767 133.95 91.4757 132.903 88.9411C132.639 88.3075 132.361 87.6786 132.044 87.0546C131.692 86.4368 131.384 85.7952 131.122 85.1345C131.034 84.775 130.995 84.4051 131.007 84.0352C131.008 83.6612 131.063 83.2892 131.17 82.9311C131.276 82.5517 131.515 82.2229 131.842 82.0046C132.006 81.9099 132.178 81.8296 132.356 81.7646L132.865 81.5534L132.951 81.5198L133.004 81.5966L139.024 90.4244L138.803 90.4724C138.882 89.7331 138.872 88.9869 138.774 88.2499C138.691 87.494 138.563 86.7439 138.39 86.0033C138.042 84.4885 137.593 82.9987 137.046 81.5438C136.518 80.0605 135.851 78.6204 135.203 77.1371C134.858 76.371 134.768 75.515 134.943 74.6937C135.141 73.8615 135.627 73.1265 136.316 72.62L136.264 72.7112C136.342 71.9711 136.513 71.2438 136.772 70.5463C136.916 70.1821 137.106 69.8383 137.339 69.5238C137.575 69.1836 137.91 68.924 138.299 68.7797L138.376 68.7557L138.429 68.8325L138.539 68.9958L147.736 82.8447L147.511 82.9263C147.286 81.0803 146.958 79.2485 146.527 77.4395C146.416 76.9931 146.291 76.5563 146.147 76.129C145.984 75.6869 145.906 75.2178 145.917 74.7465C145.944 74.2762 146.08 73.8186 146.316 73.4109C146.552 73.0031 146.881 72.6566 147.276 72.3992L147.376 72.332L147.439 72.4424L151.159 78.8844C151.706 82.8975 152.229 86.7218 152.729 90.3572C152.661 96.3 152.628 101.739 152.637 106.549C152.637 108.949 152.638 111.205 152.71 113.269C152.738 114.306 152.796 115.295 152.892 116.245C152.988 117.196 153.031 118.103 153.089 118.962C153.314 122.399 153.449 125.097 153.545 126.936C153.588 127.853 153.622 128.553 153.641 129.033C153.66 129.513 153.665 129.753 153.665 129.753C153.665 129.753 153.641 129.509 153.612 129.033C153.583 128.558 153.535 127.853 153.482 126.941C153.367 125.102 153.209 122.404 152.969 118.967C152.906 118.108 152.844 117.205 152.762 116.255C152.681 115.305 152.594 114.311 152.565 113.274C152.498 111.191 152.479 108.954 152.465 106.554C152.441 101.753 152.465 96.3048 152.522 90.362C152.02 86.733 151.49 82.9103 150.933 78.894V78.9324L147.204 72.5L147.367 72.5432C147.008 72.7815 146.709 73.0996 146.493 73.4727C146.277 73.8458 146.151 74.2637 146.123 74.6937C146.119 75.1355 146.193 75.5746 146.344 75.9898C146.495 76.4251 146.624 76.8667 146.733 77.3147C147.167 79.135 147.498 80.978 147.727 82.8351L147.794 83.3583L147.501 82.9167L138.299 69.0726L138.193 68.9094L138.323 68.9622C137.993 69.0958 137.71 69.3226 137.507 69.615C137.288 69.9097 137.111 70.2327 136.979 70.5751C136.732 71.2533 136.571 71.9595 136.499 72.6776V72.7304L136.451 72.7688C135.814 73.239 135.363 73.919 135.179 74.6889C135.018 75.461 135.106 76.264 135.428 76.9835C136.067 78.4476 136.744 79.9069 137.272 81.395C137.823 82.8609 138.275 84.3619 138.625 85.8881C138.805 86.6569 138.939 87.436 139.024 88.2211C139.125 88.9804 139.134 89.7492 139.053 90.5108L139.009 90.818L138.832 90.5588C136.753 87.4962 134.727 84.52 132.817 81.7118L132.956 81.7502C132.625 81.899 132.246 82.0238 131.962 82.1823C131.679 82.372 131.474 82.6587 131.386 82.9887C131.285 83.325 131.233 83.6743 131.233 84.0256C131.221 84.3728 131.257 84.72 131.338 85.0577C131.595 85.7176 131.897 86.3591 132.241 86.9778C132.558 87.6066 132.841 88.2451 133.105 88.8979C134.151 91.4469 134.982 93.9479 135.731 96.3288V96.3672C135.251 101.249 134.943 105.747 134.886 109.765C134.886 110.767 134.905 111.738 134.943 112.679C134.966 113.583 135.149 114.475 135.486 115.314C135.818 116.045 136.299 116.698 136.898 117.232C137.498 117.766 138.202 118.169 138.966 118.415H139.019V118.463C138.573 122.107 138.227 124.948 137.992 126.888L137.718 129.091C137.665 129.566 137.622 129.821 137.622 129.821Z" fill="#D37A57"/>
<path d="M144.726 91.3657C144.646 91.1071 144.588 90.8422 144.553 90.5737C144.462 90.0601 144.308 89.3208 144.102 88.4087C143.541 86.0469 142.745 83.7473 141.726 81.5443C140.684 79.3472 139.472 77.235 138.101 75.227C137.583 74.4542 137.141 73.8349 136.849 73.4077C136.685 73.1907 136.535 72.963 136.402 72.7261C136.594 72.9187 136.769 73.1275 136.925 73.3501C137.252 73.7581 137.708 74.363 138.25 75.1262C139.671 77.1146 140.91 79.2274 141.951 81.4387C142.982 83.6552 143.761 85.9803 144.275 88.3703C144.457 89.2872 144.591 90.0361 144.649 90.5593C144.699 90.8253 144.724 91.0952 144.726 91.3657Z" fill="#D37A57"/>
<path d="M149.72 87.7903C149.254 86.9956 148.86 86.1601 148.544 85.2942C148.144 84.4637 147.822 83.5974 147.584 82.7068C148.048 83.501 148.44 84.3347 148.756 85.1982C149.154 86.0316 149.477 86.8992 149.72 87.7903Z" fill="#D37A57"/>
<path d="M136.341 125.107C133.519 150.011 129.846 176.518 125.622 204.053H158.346C164.5 190.43 160.746 178.544 159.095 161.604L153.699 123.139L136.341 125.107Z" fill="#08A081"/>
<path d="M125.621 204.054C125.616 204.001 125.616 203.948 125.621 203.895L125.679 203.415C125.741 202.988 125.823 202.379 125.928 201.606C126.159 200.017 126.49 197.765 126.888 194.943C127.714 189.307 128.856 181.55 130.114 172.977C131.372 164.403 132.394 156.617 133.081 150.977C133.431 148.154 133.695 145.874 133.873 144.295C133.964 143.517 134.036 142.907 134.089 142.475L134.146 141.995C134.152 141.942 134.164 141.888 134.18 141.837C134.18 141.837 134.18 141.89 134.18 141.995L134.142 142.475C134.103 142.907 134.046 143.522 133.974 144.299C133.825 145.879 133.589 148.168 133.258 150.991C132.62 156.636 131.602 164.432 130.378 173.01C129.154 181.588 127.949 189.331 127.075 194.967C126.639 197.761 126.279 200.026 126.029 201.615C125.904 202.383 125.803 202.988 125.736 203.42C125.703 203.612 125.674 203.771 125.655 203.9C125.648 203.952 125.637 204.004 125.621 204.054Z" fill="#263238"/>
<path d="M196.526 203.837H103.213L115.252 138.347C115.459 137.223 116.052 136.208 116.929 135.476C117.806 134.744 118.91 134.342 120.052 134.338H203.914C204.634 134.34 205.345 134.5 205.996 134.807C206.647 135.115 207.222 135.562 207.68 136.117C208.139 136.672 208.469 137.321 208.648 138.019C208.826 138.716 208.849 139.444 208.714 140.151L196.526 203.837Z" fill="#455A64"/>
<path d="M103.213 203.837H67.8152L67.9592 203.731C71.1164 201.359 74.9282 200.018 78.8751 199.891L104.182 199.147L103.213 203.837Z" fill="#455A64"/>
<path d="M125.624 134.425C125.624 134.449 125.364 134.377 124.87 134.372C124.148 134.383 123.438 134.56 122.796 134.89C121.779 135.407 120.92 136.188 120.31 137.151C119.538 138.454 119.021 139.89 118.783 141.385C118.481 143.041 118.212 144.88 117.881 146.843C117.55 148.807 117.185 150.899 116.772 153.084C115.961 157.486 114.996 162.315 113.949 167.369C111.842 177.484 109.888 186.628 108.616 193.291C107.973 196.613 107.478 199.306 107.142 201.169C106.974 202.081 106.845 202.796 106.754 203.309C106.706 203.54 106.672 203.722 106.643 203.866C106.633 203.93 106.617 203.993 106.595 204.054C106.595 204.054 106.595 203.991 106.595 203.862C106.595 203.732 106.643 203.53 106.672 203.3C106.754 202.781 106.859 202.061 106.998 201.145C107.291 199.277 107.752 196.575 108.362 193.243C109.576 186.585 111.492 177.426 113.599 167.321C114.645 162.267 115.615 157.447 116.445 153.05C116.868 150.856 117.238 148.763 117.588 146.81C117.938 144.856 118.212 143.022 118.548 141.352C118.803 139.832 119.347 138.375 120.151 137.06C120.791 136.078 121.688 135.29 122.744 134.78C123.404 134.447 124.136 134.283 124.875 134.3C125.129 134.306 125.381 134.348 125.624 134.425Z" fill="#263238"/>
<path d="M165.036 167.614C165.036 168.506 164.771 169.379 164.275 170.121C163.779 170.863 163.075 171.441 162.25 171.783C161.426 172.124 160.518 172.214 159.643 172.039C158.768 171.865 157.964 171.436 157.333 170.804C156.702 170.173 156.272 169.369 156.098 168.494C155.924 167.619 156.013 166.712 156.354 165.887C156.696 165.063 157.274 164.358 158.016 163.862C158.758 163.366 159.631 163.102 160.523 163.102C161.72 163.102 162.868 163.577 163.714 164.423C164.56 165.269 165.036 166.417 165.036 167.614Z" fill="#F5F5F5"/>
<path d="M219.49 203.91C219.49 203.977 170.349 204.035 109.75 204.035C49.1503 204.035 -0.000244141 203.982 -0.000244141 203.91C-0.000244141 203.838 49.1263 203.785 109.75 203.785C170.373 203.785 219.49 203.843 219.49 203.91Z" fill="#263238"/>
<path d="M89.3794 31.9629L88.0977 19.9093L81.9485 21.2966L76.6489 11.9359L79.9516 24.5896L86.1872 23.1591L89.3794 31.9629Z" fill="#08A081"/>
<path d="M86.8743 34.2372L81.1619 28.3568L78.4689 31.6642L71.7437 28.8944L78.7809 34.2516L81.5027 30.8866L86.8743 34.2372Z" fill="#08A081"/>
<path d="M148.625 39.4377L153.819 29.9906L158.384 33.2404L165.945 27.384L158.893 36.6295L154.265 33.3172L148.625 39.4377Z" fill="#08A081"/>
<path d="M158.154 44.828L163.525 42.5382L164.385 45.4472L169.564 45.4808L163.468 47.0601L162.604 44.1031L158.154 44.828Z" fill="#08A081"/>
<path d="M120.896 8.12746C120.896 8.12746 121.112 7.98825 121.544 7.72904C122.19 7.35236 122.858 7.01725 123.546 6.72577C126.224 5.57817 129.127 5.04823 132.038 5.17526C132.528 5.18998 133.016 5.23004 133.502 5.29527C134.018 5.34505 134.528 5.43818 135.029 5.57369C135.557 5.71142 136.066 5.918 136.541 6.18813C137.047 6.47028 137.472 6.87875 137.774 7.37381C138.079 7.9056 138.184 8.52833 138.072 9.13073C137.931 9.75016 137.624 10.3195 137.184 10.7772C136.247 11.7209 135.093 12.4213 133.824 12.8174C131.052 13.8368 128.096 14.2605 125.149 14.0607C121.815 13.8559 118.575 12.8692 115.693 11.1805L115.626 11.1373L115.669 11.0701C116.9 9.1332 118.618 7.55392 120.652 6.49055C122.803 5.35183 125.169 4.67494 127.598 4.50321C130.157 4.34201 132.726 4.55057 135.225 5.12246C136.512 5.39608 137.798 5.7369 139.066 6.13533C140.388 6.49355 141.674 6.97571 142.906 7.57543C144.18 8.20021 145.249 9.17834 145.983 10.3932C146.347 11.0184 146.574 11.7138 146.65 12.4334C146.716 13.1656 146.594 13.9025 146.295 14.5743C145.62 15.8975 144.524 16.9582 143.179 17.5889C141.847 18.2588 140.434 18.7541 138.974 19.0626C132.912 20.5347 126.605 20.6984 120.474 19.5426C120.075 19.4754 119.687 19.3794 119.288 19.2978C118.89 19.2162 118.501 19.125 118.107 19.0242C117.311 18.8459 116.529 18.6068 115.77 18.309C114.996 18.0058 114.275 17.5831 113.633 17.0561C112.966 16.5172 112.509 15.7612 112.342 14.9199C112.201 14.0636 112.393 13.1856 112.88 12.467C113.358 11.7626 113.966 11.1551 114.67 10.6764C115.369 10.1951 116.112 9.78046 116.888 9.43795C117.262 9.24594 117.656 9.07793 118.045 8.91472C118.434 8.75151 118.827 8.5835 119.231 8.43468C122.472 7.21791 125.898 6.56838 129.359 6.51455C131.117 6.48528 132.874 6.60734 134.611 6.87938C135.048 6.94658 135.485 7.01859 135.921 7.11939C136.358 7.2202 136.79 7.29221 137.217 7.41221C138.09 7.61105 138.943 7.88736 139.766 8.23787C140.605 8.58415 141.383 9.06221 142.071 9.65397C142.776 10.2539 143.279 11.0569 143.511 11.9533L143.583 12.2941L143.611 12.6446C143.628 12.8763 143.628 13.1089 143.611 13.3406C143.551 13.8014 143.414 14.2489 143.208 14.6655C142.786 15.4907 142.194 16.2171 141.471 16.7969C140.763 17.3877 139.99 17.8951 139.166 18.309C138.758 18.525 138.336 18.7074 137.913 18.885C137.491 19.0626 137.069 19.245 136.637 19.4082C134.915 20.0729 133.147 20.6104 131.347 21.0163C127.694 21.8621 123.938 22.1725 120.195 21.938C118.283 21.8673 116.409 21.3756 114.709 20.4979C113.848 20.0425 113.111 19.3833 112.563 18.5778C112.038 17.7416 111.796 16.7588 111.872 15.7744C111.944 14.9768 112.202 14.2073 112.625 13.5278C113.052 12.8597 113.572 12.2567 114.171 11.7373C115.362 10.722 116.714 9.91103 118.17 9.33715C121.016 8.12949 124.043 7.39964 127.127 7.177C128.649 7.06572 130.177 7.07696 131.697 7.2106C132.456 7.27781 133.209 7.37381 133.958 7.50342C134.711 7.61838 135.452 7.80319 136.171 8.05546C136.896 8.29298 137.581 8.63588 138.206 9.07313C138.851 9.50306 139.361 10.1074 139.675 10.8156C139.979 11.5359 140.005 12.3433 139.747 13.0814C139.491 13.8029 139.053 14.4461 138.475 14.9487C137.323 15.9664 135.835 16.3888 134.419 16.7393C133.003 17.0897 131.572 17.4161 130.151 17.7281C127.343 18.3812 124.493 18.8383 121.621 19.0962C118.797 19.3529 115.95 19.2172 113.163 18.693C110.428 18.1778 107.825 17.1149 105.511 15.568L105.386 15.4864L105.497 15.3856C109.402 12.0163 114.198 9.849 119.307 9.14513C124.154 8.39625 129.114 9.01641 133.627 10.9357C134.165 11.1911 134.668 11.5137 135.125 11.8957C135.591 12.2775 135.949 12.7737 136.166 13.3358C136.357 13.9183 136.326 14.5507 136.08 15.1119C135.82 15.6486 135.431 16.1121 134.947 16.4608C133.995 17.1071 132.945 17.5935 131.836 17.9009C130.765 18.2443 129.669 18.5043 128.558 18.6786C126.385 19.017 124.173 19.017 122 18.6786C121.457 18.6288 120.935 18.4422 120.484 18.1361C120.266 17.9558 120.1 17.7207 120.003 17.4549C119.906 17.1892 119.881 16.9024 119.931 16.624C120.073 16.093 120.371 15.6165 120.786 15.256C121.173 14.894 121.609 14.5886 122.082 14.3487C125.739 12.7129 129.764 12.0753 133.747 12.5006C134.695 12.5876 135.626 12.8023 136.517 13.139C137.403 13.4636 138.179 14.0308 138.758 14.7759C139.325 15.5171 139.592 16.444 139.507 17.3729C139.363 18.2675 138.882 19.073 138.163 19.6242C137.495 20.1549 136.778 20.621 136.022 21.0163C135.286 21.421 134.527 21.7801 133.747 22.0916C132.262 22.6839 130.717 23.1105 129.138 23.3637C126.263 23.831 123.322 23.7036 120.498 22.9893H120.407L120.46 22.9173C121.672 21.276 123.342 20.0288 125.26 19.3314C126.932 18.7031 128.739 18.5244 130.502 18.813C131.294 18.9225 132.052 19.2079 132.72 19.6483C133.029 19.8614 133.295 20.1319 133.502 20.4451C133.695 20.7516 133.817 21.0979 133.857 21.458C133.908 22.1308 133.721 22.8002 133.329 23.3493C132.992 23.8436 132.573 24.277 132.091 24.631C131.271 25.1825 130.377 25.6155 129.436 25.9175C128.773 26.1564 128.128 26.4435 127.506 26.7767C127.129 26.9857 126.778 27.2387 126.46 27.5304C126.354 27.6264 126.282 27.708 126.229 27.7608L126.153 27.8376C126.246 27.7254 126.346 27.618 126.45 27.516C126.763 27.2188 127.112 26.9609 127.487 26.7479C128.104 26.4054 128.746 26.1102 129.407 25.8647C130.341 25.5544 131.227 25.1183 132.043 24.5686C132.518 24.2176 132.929 23.7873 133.257 23.2965C133.639 22.7632 133.819 22.1117 133.766 21.458C133.727 21.1155 133.608 20.7869 133.42 20.4979C133.22 20.1916 132.961 19.9288 132.657 19.7251C132.001 19.2946 131.256 19.0173 130.478 18.9138C128.732 18.6316 126.943 18.812 125.289 19.437C123.393 20.1316 121.744 21.3687 120.546 22.9941L120.512 22.8981C123.319 23.5999 126.24 23.7208 129.095 23.2533C130.673 22.9975 132.219 22.5693 133.704 21.9764C134.472 21.6686 135.223 21.316 135.95 20.9203C136.702 20.5254 137.414 20.0592 138.077 19.5282C138.762 19.0001 139.222 18.2316 139.363 17.3777C139.432 16.4919 139.169 15.6122 138.624 14.9103C138.069 14.1889 137.322 13.6382 136.469 13.3214C135.595 12.9825 134.679 12.766 133.747 12.6782C129.789 12.2478 125.787 12.879 122.154 14.5071C121.698 14.7369 121.278 15.0311 120.906 15.3808C120.526 15.7187 120.254 16.1611 120.123 16.6528C120.078 16.8964 120.099 17.1476 120.183 17.3805C120.268 17.6134 120.413 17.8196 120.604 17.9777C121.026 18.289 121.522 18.4858 122.044 18.549C124.194 18.8826 126.383 18.8826 128.534 18.549C129.635 18.3722 130.721 18.1123 131.783 17.7713C132.872 17.4623 133.902 16.9757 134.832 16.3312C135.286 16.0033 135.652 15.5679 135.897 15.0639C136.122 14.551 136.149 13.9733 135.974 13.4414C135.78 12.9115 135.449 12.4426 135.014 12.0829C134.578 11.7012 134.094 11.3784 133.574 11.1229C129.092 9.20909 124.163 8.58723 119.346 9.32755C114.277 10.0421 109.523 12.2095 105.66 15.568V15.3808C107.951 16.9056 110.526 17.9537 113.23 18.4626C115.995 18.9844 118.819 19.1201 121.621 18.8658C124.482 18.6019 127.321 18.14 130.118 17.4833C131.558 17.1713 132.96 16.8353 134.38 16.4944C135.801 16.1536 137.261 15.7312 138.331 14.7615C138.87 14.279 139.275 13.6656 139.507 12.9806C139.741 12.2961 139.715 11.5497 139.435 10.8829C139.138 10.2189 138.659 9.65287 138.053 9.25074C137.446 8.82954 136.781 8.49811 136.08 8.26667C135.373 8.02421 134.645 7.84902 133.905 7.74344C133.166 7.61383 132.417 7.51782 131.668 7.45062C130.159 7.32098 128.642 7.31135 127.132 7.42182C124.077 7.64322 121.08 8.36657 118.261 9.56276C116.827 10.1257 115.496 10.9239 114.325 11.9245C113.192 12.9326 112.213 14.2623 112.088 15.7984C112.016 16.7272 112.245 17.6544 112.741 18.4434C113.267 19.2135 113.972 19.8444 114.795 20.2819C116.464 21.1414 118.301 21.6232 120.176 21.6932C123.896 21.9261 127.629 21.6189 131.26 20.7811C133.057 20.3703 134.822 19.8297 136.541 19.1634C136.966 19.0002 137.389 18.8274 137.808 18.645C138.23 18.4674 138.643 18.285 139.046 18.0737C139.852 17.6677 140.609 17.1717 141.303 16.5952C141.998 16.0367 142.569 15.3384 142.978 14.5455C143.17 14.1525 143.298 13.7311 143.357 13.2974C143.374 13.0801 143.374 12.8619 143.357 12.6446L143.328 12.3181L143.261 11.9965C143.044 11.1497 142.572 10.3903 141.907 9.82198C141.238 9.24856 140.481 8.78516 139.666 8.44909C138.855 8.10323 138.014 7.83014 137.155 7.63303C136.728 7.51782 136.296 7.43142 135.864 7.34021C135.432 7.249 135.004 7.1722 134.568 7.10499C129.433 6.29481 124.177 6.82392 119.307 8.6411C118.909 8.78031 118.52 8.93872 118.131 9.12113C117.743 9.30354 117.358 9.44755 116.984 9.63957C116.22 9.97722 115.488 10.3854 114.8 10.8588C114.12 11.3187 113.534 11.9035 113.072 12.5822C112.615 13.2522 112.433 14.0717 112.563 14.8719C112.723 15.6598 113.153 16.3675 113.777 16.8737C114.4 17.3857 115.1 17.7956 115.851 18.0881C116.601 18.3839 117.373 18.6199 118.16 18.7938C118.549 18.8946 118.938 18.9906 119.331 19.0674C119.725 19.1442 120.114 19.245 120.508 19.3122C126.608 20.4607 132.884 20.2971 138.917 18.8322C140.359 18.5342 141.756 18.0501 143.074 17.3921C144.346 16.72 145.532 15.7792 146.108 14.4783C146.39 13.8392 146.506 13.1389 146.444 12.443C146.371 11.7413 146.149 11.0634 145.791 10.4556C145.073 9.27594 144.034 8.32517 142.795 7.71464C141.581 7.11981 140.315 6.63775 139.013 6.27454C137.731 5.87611 136.449 5.53529 135.173 5.26167C132.689 4.69066 130.136 4.48049 127.593 4.63763C125.189 4.81025 122.847 5.48393 120.719 6.61536C118.708 7.66096 117.008 9.21715 115.789 11.1277L115.76 11.0173C118.453 12.6063 121.464 13.5809 124.578 13.8714C127.691 14.1618 130.83 13.7609 133.771 12.6974C135.03 12.3095 136.176 11.6189 137.107 10.686C137.533 10.2433 137.833 9.69474 137.976 9.09713C138.086 8.51969 137.985 7.92206 137.693 7.41221C137.401 6.93077 136.989 6.53367 136.497 6.26013C136.031 5.99149 135.53 5.78646 135.009 5.65049C134.514 5.51493 134.008 5.4202 133.497 5.36728C133.017 5.30007 132.537 5.26647 132.057 5.24247C129.155 5.11381 126.261 5.63365 123.585 6.76417C122.898 7.04525 122.228 7.3658 121.578 7.72424C121.122 8.00266 120.896 8.12746 120.896 8.12746Z" fill="#263238"/>
</svg>
