<svg width="162" height="194" viewBox="0 0 162 194" fill="none" xmlns="http://www.w3.org/2000/svg">
<g clip-path="url(#clip0_9011_26217)">
<path d="M83.7815 190.09C128.476 188.553 163.462 151.074 161.925 106.379C160.388 61.6846 122.909 26.6986 78.2143 28.2359C33.5194 29.7733 -1.46662 67.2519 0.0707236 111.947C1.60807 156.642 39.0867 191.628 83.7815 190.09Z" fill="#E9FAF5"/>
<rect x="133.523" y="84.5" width="15" height="2" rx="1" fill="#E9FAF5"/>
<rect x="133.523" y="88.5" width="15" height="2" rx="1" fill="#E9FAF5"/>
<path fill-rule="evenodd" clip-rule="evenodd" d="M30.5084 166.431C48.6784 166.431 63.4934 151.611 63.4934 133.446C63.4934 115.281 48.6734 100.461 30.5084 100.461C12.3434 100.461 -2.47656 115.281 -2.47656 133.446C-2.47656 151.611 12.3434 166.431 30.5084 166.431Z" fill="#FF935F"/>
<path fill-rule="evenodd" clip-rule="evenodd" d="M131.009 166.431C112.839 166.431 98.0241 151.611 98.0241 133.446C98.0241 115.281 112.844 100.461 131.009 100.461C149.174 100.461 163.994 115.281 163.994 133.446C163.994 151.611 149.174 166.431 131.009 166.431Z" fill="#FF935F"/>
<path fill-rule="evenodd" clip-rule="evenodd" d="M44.7941 163.184C55.8591 157.859 63.4941 146.544 63.4941 133.444C63.4941 119.674 55.0541 107.879 43.0691 102.934C32.0041 108.259 24.3691 119.574 24.3691 132.674C24.3691 146.444 32.8091 158.239 44.7941 163.179V163.184Z" fill="#A4434C"/>
<path fill-rule="evenodd" clip-rule="evenodd" d="M116.723 163.184C105.658 157.859 98.0234 146.544 98.0234 133.444C98.0234 119.674 106.463 107.879 118.448 102.934C129.513 108.259 137.148 119.574 137.148 132.674C137.148 146.444 128.708 158.239 116.723 163.179V163.184Z" fill="#A4434C"/>
<path fill-rule="evenodd" clip-rule="evenodd" d="M80.2283 103.78C84.3783 102.18 89.0433 104.245 90.6483 108.4C92.2483 112.55 90.1833 117.215 86.0333 118.815C85.9833 118.835 69.1333 125.18 63.3233 142.68C61.9233 146.895 57.3733 149.18 53.1583 147.78C48.9433 146.38 46.6583 141.83 48.0583 137.615C56.2983 112.795 80.1633 103.81 80.2333 103.78H80.2283Z" fill="#A4434C"/>
<path fill-rule="evenodd" clip-rule="evenodd" d="M78.7379 81.9962C82.7179 80.0112 87.5579 81.6312 89.5429 85.6112C91.5279 89.5912 89.9079 94.4312 85.9279 96.4162C85.8829 96.4412 69.6979 104.346 65.5629 122.311C64.5679 126.641 60.2529 129.341 55.9229 128.346C51.5929 127.351 48.8929 123.036 49.8879 118.706C55.7529 93.2212 78.6679 82.0262 78.7329 81.9912L78.7379 81.9962Z" fill="#FFA562"/>
<path fill-rule="evenodd" clip-rule="evenodd" d="M38.1237 73.4128C41.6502 75.2871 43.1323 79.1178 41.4134 81.9234L14.4918 125.863L1.665 119.044L28.5867 75.1049C30.3056 72.2992 34.5987 71.5346 38.1252 73.409L38.1237 73.4128Z" fill="#FF935F"/>
<path fill-rule="evenodd" clip-rule="evenodd" d="M130.628 73.3745C126.956 74.9429 125.154 78.634 126.629 81.5754L149.725 127.64L163.084 121.934L139.988 75.8696C138.513 72.9283 134.3 71.8022 130.627 73.3706L130.628 73.3745Z" fill="#FF935F"/>
<path d="M142.74 94.8032L142.74 142.252C142.74 149.869 136.555 156.055 128.937 156.055L31.3277 156.055C23.71 156.055 17.5245 149.869 17.5245 142.252L17.5245 94.8032C17.5245 87.1855 23.71 81 31.3277 81L128.937 81C136.555 81 142.74 87.1855 142.74 94.8032Z" fill="#474747"/>
<path fill-rule="evenodd" clip-rule="evenodd" d="M136.785 142.251C136.785 146.558 133.47 150.099 129.438 150.099L38.0538 150.099C34.0222 150.099 30.7067 146.558 30.7067 142.251L30.7067 94.802C30.7067 90.4941 34.0222 86.9531 38.0538 86.9531L129.438 86.9531C133.47 86.9531 136.785 90.4941 136.785 94.802L136.785 142.251Z" fill="#E9FAF5"/>
<path fill-rule="evenodd" clip-rule="evenodd" d="M34.064 100.038C37.959 97.0475 43.544 97.7825 46.534 101.678C49.524 105.573 48.789 111.158 44.894 114.148C44.849 114.183 28.984 126.163 28.294 146.498C28.129 151.398 24.019 155.233 19.124 155.068C14.224 154.903 10.389 150.793 10.554 145.898C11.534 117.048 33.999 100.088 34.064 100.038Z" fill="#FF935F"/>
<path fill-rule="evenodd" clip-rule="evenodd" d="M39.1133 113.393C42.2783 113.393 44.8583 110.808 44.8583 107.643C44.8583 104.478 42.2783 101.898 39.1133 101.898C35.9483 101.898 33.3633 104.478 33.3633 107.643C33.3633 110.808 35.9433 113.393 39.1133 113.393Z" fill="#FFB48F"/>
<path fill-rule="evenodd" clip-rule="evenodd" d="M127.454 100.038C123.559 97.0475 117.974 97.7825 114.984 101.678C111.994 105.573 112.729 111.158 116.624 114.148C116.669 114.183 132.534 126.163 133.224 146.498C133.389 151.398 137.499 155.233 142.394 155.068C147.294 154.903 151.129 150.793 150.964 145.898C149.984 117.048 127.519 100.088 127.454 100.038Z" fill="#FF935F"/>
<path fill-rule="evenodd" clip-rule="evenodd" d="M122.404 113.393C119.239 113.393 116.659 110.808 116.659 107.643C116.659 104.478 119.239 101.898 122.404 101.898C125.569 101.898 128.154 104.478 128.154 107.643C128.154 110.808 125.574 113.393 122.404 113.393Z" fill="#FFB48F"/>
<path d="M91.7889 114.243C93.8855 115.478 93.8855 118.565 91.7889 119.8L71.7403 131.608C69.6437 132.843 67.0229 131.299 67.0229 128.829L67.0229 105.213C67.0229 102.743 69.6437 101.2 71.7403 102.435L91.7889 114.243Z" fill="#417465"/>
<path fill-rule="evenodd" clip-rule="evenodd" d="M20.9784 17H45.9984C56.4234 17 64.9534 25.525 64.9534 35.955V45.815C64.9534 53.52 60.2984 60.185 53.6584 63.14V75.38L41.4034 64.765H20.9784C10.5534 64.765 2.02344 56.235 2.02344 45.81V35.95C2.02344 25.525 10.5534 17 20.9784 17Z" fill="white"/>
<path fill-rule="evenodd" clip-rule="evenodd" d="M134.998 31H109.978C99.5531 31 91.0231 39.525 91.0231 49.955V59.815C91.0231 67.52 95.6781 74.185 102.318 77.14V89.38L114.573 78.765H134.998C145.423 78.765 153.953 70.235 153.953 59.81V49.95C153.953 39.525 145.423 31 134.998 31Z" fill="white"/>
<path d="M45.5586 52.1268C45.1166 52.5688 44.4693 52.9002 43.6169 53.1212C42.796 53.3737 41.8015 53.5 40.6333 53.5C39.4651 53.5 38.3601 53.3264 37.3182 52.9791C36.2763 52.6319 35.4238 51.7953 34.7608 50.4695L30.0723 40.9045C29.5987 39.9259 29.1724 39.0104 28.7936 38.1581C28.4147 37.2742 28.0043 36.264 27.5622 35.1276L27.2781 35.175C27.4044 36.8796 27.4675 38.6158 27.4675 40.3836C27.4991 42.1514 27.5149 43.8876 27.5149 45.5923V52.9318C27.1676 53.0265 26.6308 53.1212 25.9047 53.2159C25.2101 53.3106 24.5155 53.3579 23.8209 53.3579C23.1263 53.3579 22.5106 53.3106 21.9739 53.2159C21.4372 53.1212 20.9951 52.9318 20.6478 52.6477C20.3005 52.3636 20.0322 51.9848 19.8427 51.5112C19.6533 51.0062 19.5586 50.359 19.5586 49.5698V25.8941C20.0006 25.2627 20.6794 24.7892 21.595 24.4735C22.5106 24.1578 23.4894 24 24.5313 24C25.6995 24 26.8045 24.1894 27.8464 24.5682C28.9199 24.9155 29.7723 25.7362 30.4038 27.0305L35.1397 36.5955C35.6132 37.5741 36.0395 38.5054 36.4183 39.3892C36.7972 40.2416 37.2077 41.236 37.6497 42.3724L37.8865 42.325C37.7602 40.6204 37.6812 38.9157 37.6497 37.2111C37.6181 35.5064 37.6023 33.8018 37.6023 32.0971V24.4262C37.9496 24.3315 38.4706 24.2368 39.1652 24.1421C39.8913 24.0474 40.6017 24 41.2963 24C42.6855 24 43.7432 24.2525 44.4693 24.7576C45.1955 25.2311 45.5586 26.2413 45.5586 27.7881V52.1268Z" fill="#4B8574"/>
<g clip-path="url(#clip1_9011_26217)">
<path d="M133.523 56.846C133.516 57.0511 133.505 57.2561 133.501 57.4613C133.484 58.3367 133.476 59.2125 133.45 60.0877C133.436 60.5654 133.407 61.0435 133.362 61.5192C133.261 62.582 132.759 63.4073 131.872 63.9929C131.285 64.3802 130.678 64.7262 129.996 64.9184C128.375 65.3752 126.668 64.6297 125.957 63.1533C125.743 62.7093 125.637 62.2399 125.66 61.7467C125.686 61.1768 125.892 60.6681 126.198 60.194C126.901 59.106 127.895 58.4572 129.147 58.1928C129.747 58.0663 130.352 58.0332 130.961 58.0867C131.152 58.1036 131.341 58.1411 131.532 58.1681C131.56 58.1721 131.59 58.171 131.623 58.1726C131.647 54.5047 131.67 50.8414 131.694 47.1659C126.749 47.9532 121.81 48.7393 116.865 49.5268C116.865 49.5832 116.865 49.6313 116.865 49.6794C116.865 53.0557 116.872 56.4322 116.863 59.8085C116.861 60.9196 116.828 62.0308 116.794 63.1418C116.778 63.6555 116.733 64.1687 116.591 64.6673C116.401 65.3363 116.008 65.8632 115.459 66.2724C114.791 66.7698 114.075 67.1765 113.264 67.3889C111.605 67.823 109.846 66.9528 109.235 65.3916C108.854 64.4205 109.003 63.5098 109.56 62.647C110.262 61.5596 111.251 60.9068 112.505 60.6404C113.116 60.5105 113.731 60.4806 114.351 60.5343C114.539 60.5505 114.724 60.5885 114.911 60.6153C114.935 60.6189 114.961 60.6157 114.995 60.6157C114.995 60.564 114.994 60.5159 114.995 60.4678C115.019 55.7701 115.044 51.0727 115.069 46.3751C115.073 45.7688 115.081 45.1623 115.082 44.556C115.082 44.4733 115.094 44.4337 115.188 44.4148C116.074 44.235 116.958 44.0437 117.844 43.8656C118.401 43.7537 118.961 43.6541 119.522 43.5579C120.054 43.4666 120.587 43.3861 121.12 43.3029C121.595 43.2288 122.07 43.1541 122.545 43.0856C122.955 43.0264 123.367 42.9754 123.777 42.9215C124.159 42.8711 124.54 42.8194 124.921 42.7722C125.267 42.7295 125.613 42.6917 125.958 42.6519C126.329 42.6092 126.701 42.5654 127.072 42.5251C127.396 42.4901 127.721 42.459 128.045 42.4273C128.403 42.3925 128.76 42.3577 129.118 42.3248C129.413 42.2976 129.709 42.2727 130.004 42.2477C130.336 42.2196 130.669 42.1915 131.001 42.1652C131.237 42.1463 131.474 42.1304 131.722 42.1122C131.721 42.0701 131.719 42.0351 131.717 42C132.305 42 132.892 42 133.479 42C133.489 44.1381 133.5 46.2764 133.511 48.4145C133.511 48.4623 133.519 48.5104 133.523 48.5583V56.8463V56.846Z" fill="#4B8574"/>
</g>
</g>
<defs>
<clipPath id="clip0_9011_26217">
<rect width="161.955" height="193.03" fill="white" transform="translate(0.0234375)"/>
</clipPath>
<clipPath id="clip1_9011_26217">
<rect width="24.5" height="25.5" fill="white" transform="translate(109.023 42)"/>
</clipPath>
</defs>
</svg>
