<svg width="162" height="194" viewBox="0 0 162 194" fill="none" xmlns="http://www.w3.org/2000/svg">
<g clip-path="url(#clip0_9011_26169)">
<path d="M83.7815 190.09C128.476 188.553 163.462 151.074 161.925 106.379C160.388 61.6846 122.909 26.6986 78.2143 28.2359C33.5194 29.7733 -1.46662 67.2519 0.0707236 111.947C1.60807 156.642 39.0867 191.628 83.7815 190.09Z" fill="#E9FAF5"/>
<path fill-rule="evenodd" clip-rule="evenodd" d="M61.6686 193.029C79.8386 193.029 94.6536 178.209 94.6536 160.044C94.6536 141.879 79.8336 127.059 61.6686 127.059C43.5036 127.059 28.6836 141.879 28.6836 160.044C28.6836 178.209 43.5036 193.029 61.6686 193.029Z" fill="#FF935F"/>
<path fill-rule="evenodd" clip-rule="evenodd" d="M75.9543 189.785C87.0193 184.46 94.6543 173.145 94.6543 160.045C94.6543 146.275 86.2143 134.48 74.2293 129.535C63.1643 134.86 55.5293 146.175 55.5293 159.275C55.5293 173.045 63.9693 184.84 75.9543 189.78V189.785Z" fill="#A4434C"/>
<path fill-rule="evenodd" clip-rule="evenodd" d="M111.388 130.381C115.538 128.781 120.203 130.846 121.808 135.001C123.408 139.151 121.343 143.816 117.193 145.416C117.143 145.436 100.293 151.781 94.4835 169.281C93.0835 173.496 88.5335 175.781 84.3185 174.381C80.1035 172.981 77.8185 168.431 79.2185 164.216C87.4585 139.396 111.323 130.411 111.393 130.381H111.388Z" fill="#A4434C"/>
<path fill-rule="evenodd" clip-rule="evenodd" d="M109.898 108.594C113.878 106.609 118.718 108.229 120.703 112.209C122.688 116.189 121.068 121.029 117.088 123.014C117.043 123.039 100.858 130.944 96.7231 148.909C95.7281 153.239 91.4131 155.939 87.0831 154.944C82.7531 153.949 80.0531 149.634 81.0481 145.304C86.9131 119.819 109.828 108.624 109.893 108.589L109.898 108.594Z" fill="#FFA562"/>
<path fill-rule="evenodd" clip-rule="evenodd" d="M47.8944 84.6909C51.8794 85.3009 54.6444 89.0609 54.0344 93.0459L44.4794 155.456L29.9844 153.236L39.5394 90.8259C40.1494 86.8409 43.9094 84.0759 47.8944 84.6859V84.6909Z" fill="#FF935F"/>
<path d="M60.5232 61.0781H102.598C109.353 61.0781 114.838 66.5631 114.838 73.3181V159.873C114.838 166.628 109.353 172.113 102.598 172.113H60.5232C53.7682 172.113 48.2832 166.628 48.2832 159.873V73.3181C48.2832 66.5631 53.7682 61.0781 60.5232 61.0781Z" fill="#474747"/>
<path fill-rule="evenodd" clip-rule="evenodd" d="M102.599 66.3594C106.419 66.3594 109.559 69.2994 109.559 72.8744V153.909C109.559 157.484 106.419 160.424 102.599 160.424H60.5245C56.7045 160.424 53.5645 157.484 53.5645 153.909V72.8744C53.5645 69.2994 56.7045 66.3594 60.5245 66.3594H102.599Z" fill="#E9FAF5"/>
<path fill-rule="evenodd" clip-rule="evenodd" d="M59.3535 136.296C59.3535 137.621 60.4335 138.701 61.7585 138.701H73.8635C75.1885 138.701 76.2685 137.621 76.2685 136.296C76.2685 134.971 75.1885 133.891 73.8635 133.891H61.7585C60.4335 133.891 59.3535 134.971 59.3535 136.296Z" fill="#50A8BA"/>
<path fill-rule="evenodd" clip-rule="evenodd" d="M63.3926 136.296C63.3926 137.621 64.4726 138.701 65.7976 138.701H67.4376C68.7626 138.701 69.8426 137.621 69.8426 136.296C69.8426 134.971 68.7626 133.891 67.4376 133.891H65.7976C64.4726 133.891 63.3926 134.971 63.3926 136.296Z" fill="#8AE9FC"/>
<path fill-rule="evenodd" clip-rule="evenodd" d="M65.2241 126.639C69.1191 123.649 74.7041 124.384 77.6941 128.279C80.6841 132.174 79.9491 137.759 76.0541 140.749C76.0091 140.784 60.1441 152.764 59.4541 173.099C59.2891 177.999 55.1791 181.834 50.2841 181.669C45.3841 181.504 41.5491 177.394 41.7141 172.499C42.6941 143.649 65.1591 126.689 65.2241 126.639Z" fill="#FF935F"/>
<path fill-rule="evenodd" clip-rule="evenodd" d="M70.5879 139.311C73.7529 139.311 76.3329 136.726 76.3329 133.561C76.3329 130.396 73.7529 127.816 70.5879 127.816C67.4229 127.816 64.8379 130.396 64.8379 133.561C64.8379 136.726 67.4179 139.311 70.5879 139.311Z" fill="#FFB48F"/>
<path d="M56.8543 76.8642C56.8543 75.9447 56.11 75.1992 55.1918 75.1992C54.2736 75.1992 53.5293 75.9447 53.5293 76.8642V83.0842C53.5293 84.0038 54.2736 84.7492 55.1918 84.7492C56.11 84.7492 56.8543 84.0038 56.8543 83.0842V76.8642Z" fill="#8DCABE"/>
<path d="M109.348 90.165C109.348 89.2454 108.604 88.5 107.686 88.5C106.768 88.5 106.023 89.2454 106.023 90.165V96.385C106.023 97.3046 106.768 98.05 107.686 98.05C108.604 98.05 109.348 97.3046 109.348 96.385V90.165Z" fill="#8DCABE"/>
<path d="M56.8543 89.9384C56.8543 89.0189 56.11 88.2734 55.1918 88.2734C54.2736 88.2734 53.5293 89.0189 53.5293 89.9384V107.218C53.5293 108.138 54.2736 108.883 55.1918 108.883C56.11 108.883 56.8543 108.138 56.8543 107.218V89.9384Z" fill="#8DCABE"/>
<path d="M109.348 103.239C109.348 102.32 108.604 101.574 107.686 101.574C106.768 101.574 106.023 102.32 106.023 103.239V120.519C106.023 121.439 106.768 122.184 107.686 122.184C108.604 122.184 109.348 121.439 109.348 120.519V103.239Z" fill="#8DCABE"/>
<path d="M81.7563 88.293C72.6713 88.293 65.3145 95.6663 65.3145 104.751C65.3145 113.836 72.6713 121.21 81.7563 121.21C90.8578 121.21 98.2311 113.836 98.2311 104.751C98.2311 95.6663 90.8578 88.293 81.7563 88.293ZM81.7728 117.918C74.4982 117.918 68.6061 112.026 68.6061 104.751C68.6061 97.4767 74.4982 91.5846 81.7728 91.5846C89.0474 91.5846 94.9395 97.4767 94.9395 104.751C94.9395 112.026 89.0474 117.918 81.7728 117.918ZM81.4107 96.5221H81.312C80.6536 96.5221 80.127 97.0488 80.127 97.7071V105.475C80.127 106.052 80.4232 106.595 80.9334 106.891L87.7636 110.989C88.3232 111.318 89.0474 111.154 89.3765 110.594C89.4592 110.461 89.5142 110.312 89.5382 110.157C89.5622 110.002 89.5548 109.844 89.5164 109.692C89.478 109.54 89.4094 109.397 89.3147 109.272C89.22 109.147 89.1011 109.043 88.9651 108.965L82.5957 105.179V97.7071C82.5957 97.0488 82.069 96.5221 81.4107 96.5221Z" fill="#417465"/>
</g>
<defs>
<clipPath id="clip0_9011_26169">
<rect width="161.955" height="193.03" fill="white" transform="translate(0.0234375)"/>
</clipPath>
</defs>
</svg>
