<svg width="163" height="194" viewBox="0 0 163 194" fill="none" xmlns="http://www.w3.org/2000/svg">
<g clip-path="url(#clip0_9011_26193)">
<path d="M84.2815 190.09C128.976 188.553 163.962 151.074 162.425 106.379C160.888 61.6846 123.409 26.6986 78.7143 28.2359C34.0194 29.7733 -0.966624 67.2519 0.570724 111.947C2.10807 156.642 39.5867 191.628 84.2815 190.09Z" fill="#E9FAF5"/>
<path fill-rule="evenodd" clip-rule="evenodd" d="M62.1686 193.029C80.3386 193.029 95.1536 178.209 95.1536 160.044C95.1536 141.879 80.3336 127.059 62.1686 127.059C44.0036 127.059 29.1836 141.879 29.1836 160.044C29.1836 178.209 44.0036 193.029 62.1686 193.029Z" fill="#FF935F"/>
<path fill-rule="evenodd" clip-rule="evenodd" d="M76.4543 189.785C87.5193 184.46 95.1543 173.145 95.1543 160.045C95.1543 146.275 86.7143 134.48 74.7293 129.535C63.6643 134.86 56.0293 146.175 56.0293 159.275C56.0293 173.045 64.4693 184.84 76.4543 189.78V189.785Z" fill="#A4434C"/>
<path fill-rule="evenodd" clip-rule="evenodd" d="M111.888 130.381C116.038 128.781 120.703 130.846 122.308 135.001C123.908 139.151 121.843 143.816 117.693 145.416C117.643 145.436 100.793 151.781 94.9835 169.281C93.5835 173.496 89.0335 175.781 84.8185 174.381C80.6035 172.981 78.3185 168.431 79.7185 164.216C87.9585 139.396 111.823 130.411 111.893 130.381H111.888Z" fill="#A4434C"/>
<path fill-rule="evenodd" clip-rule="evenodd" d="M110.398 108.594C114.378 106.609 119.218 108.229 121.203 112.209C123.188 116.189 121.568 121.029 117.588 123.014C117.543 123.039 101.358 130.944 97.2231 148.909C96.2281 153.239 91.9131 155.939 87.5831 154.944C83.2531 153.949 80.5531 149.634 81.5481 145.304C87.4131 119.819 110.328 108.624 110.393 108.589L110.398 108.594Z" fill="#FFA562"/>
<path fill-rule="evenodd" clip-rule="evenodd" d="M48.3944 84.6909C52.3794 85.3009 55.1444 89.0609 54.5344 93.0459L44.9794 155.456L30.4844 153.236L40.0394 90.8259C40.6494 86.8409 44.4094 84.0759 48.3944 84.6859V84.6909Z" fill="#FF935F"/>
<path d="M61.0232 61.0781H103.098C109.853 61.0781 115.338 66.5631 115.338 73.3181V159.873C115.338 166.628 109.853 172.113 103.098 172.113H61.0232C54.2682 172.113 48.7832 166.628 48.7832 159.873V73.3181C48.7832 66.5631 54.2682 61.0781 61.0232 61.0781Z" fill="#474747"/>
<path fill-rule="evenodd" clip-rule="evenodd" d="M103.098 66.3594C106.918 66.3594 110.058 69.2994 110.058 72.8744V153.909C110.058 157.484 106.918 160.424 103.098 160.424H61.0225C57.2025 160.424 54.0625 157.484 54.0625 153.909V72.8744C54.0625 69.2994 57.2025 66.3594 61.0225 66.3594H103.098Z" fill="#E9FAF5"/>
<path fill-rule="evenodd" clip-rule="evenodd" d="M59.8535 136.296C59.8535 137.621 60.9335 138.701 62.2585 138.701H74.3635C75.6885 138.701 76.7685 137.621 76.7685 136.296C76.7685 134.971 75.6885 133.891 74.3635 133.891H62.2585C60.9335 133.891 59.8535 134.971 59.8535 136.296Z" fill="#50A8BA"/>
<path fill-rule="evenodd" clip-rule="evenodd" d="M63.8926 136.296C63.8926 137.621 64.9726 138.701 66.2976 138.701H67.9376C69.2626 138.701 70.3426 137.621 70.3426 136.296C70.3426 134.971 69.2626 133.891 67.9376 133.891H66.2976C64.9726 133.891 63.8926 134.971 63.8926 136.296Z" fill="#8AE9FC"/>
<path fill-rule="evenodd" clip-rule="evenodd" d="M65.7241 126.639C69.6191 123.649 75.2041 124.384 78.1941 128.279C81.1841 132.174 80.4491 137.759 76.5541 140.749C76.5091 140.784 60.6441 152.764 59.9541 173.099C59.7891 177.999 55.6791 181.834 50.7841 181.669C45.8841 181.504 42.0491 177.394 42.2141 172.499C43.1941 143.649 65.6591 126.689 65.7241 126.639Z" fill="#FF935F"/>
<path fill-rule="evenodd" clip-rule="evenodd" d="M71.0879 139.311C74.2529 139.311 76.8329 136.726 76.8329 133.561C76.8329 130.396 74.2529 127.816 71.0879 127.816C67.9229 127.816 65.3379 130.396 65.3379 133.561C65.3379 136.726 67.9179 139.311 71.0879 139.311Z" fill="#FFB48F"/>
<path d="M57.3523 76.8642C57.3523 75.9447 56.608 75.1992 55.6898 75.1992C54.7717 75.1992 54.0273 75.9447 54.0273 76.8642V83.0842C54.0273 84.0038 54.7717 84.7492 55.6898 84.7492C56.608 84.7492 57.3523 84.0038 57.3523 83.0842V76.8642Z" fill="#8DCABE"/>
<path d="M109.848 90.165C109.848 89.2454 109.104 88.5 108.186 88.5C107.268 88.5 106.523 89.2454 106.523 90.165V96.385C106.523 97.3046 107.268 98.05 108.186 98.05C109.104 98.05 109.848 97.3046 109.848 96.385V90.165Z" fill="#8DCABE"/>
<path d="M57.3523 89.9384C57.3523 89.0189 56.608 88.2734 55.6898 88.2734C54.7717 88.2734 54.0273 89.0189 54.0273 89.9384V107.218C54.0273 108.138 54.7717 108.883 55.6898 108.883C56.608 108.883 57.3523 108.138 57.3523 107.218V89.9384Z" fill="#8DCABE"/>
<path d="M109.848 103.239C109.848 102.32 109.104 101.574 108.186 101.574C107.268 101.574 106.523 102.32 106.523 103.239V120.519C106.523 121.439 107.268 122.184 108.186 122.184C109.104 122.184 109.848 121.439 109.848 120.519V103.239Z" fill="#8DCABE"/>
<path d="M79.4234 106.7L76.1609 103.438C75.8859 103.163 75.5424 103.032 75.1304 103.045C74.7174 103.057 74.3734 103.2 74.0984 103.475C73.8234 103.75 73.6859 104.1 73.6859 104.525C73.6859 104.95 73.8234 105.3 74.0984 105.575L78.3734 109.85C78.6484 110.125 78.9984 110.263 79.4234 110.263C79.8484 110.263 80.1984 110.125 80.4734 109.85L88.9859 101.338C89.2609 101.063 89.3924 100.719 89.3804 100.306C89.3674 99.8935 89.2234 99.55 88.9484 99.275C88.6734 99 88.3234 98.8625 87.8984 98.8625C87.4734 98.8625 87.1234 99 86.8484 99.275L79.4234 106.7ZM81.5234 119C79.4484 119 77.4984 118.606 75.6734 117.818C73.8484 117.031 72.2609 115.963 70.9109 114.613C69.5609 113.263 68.4924 111.675 67.7054 109.85C66.9174 108.025 66.5234 106.075 66.5234 104C66.5234 101.925 66.9174 99.975 67.7054 98.15C68.4924 96.325 69.5609 94.7375 70.9109 93.3875C72.2609 92.0375 73.8484 90.9685 75.6734 90.1805C77.4984 89.3935 79.4484 89 81.5234 89C83.5984 89 85.5484 89.3935 87.3734 90.1805C89.1984 90.9685 90.7859 92.0375 92.1359 93.3875C93.4859 94.7375 94.5544 96.325 95.3414 98.15C96.1294 99.975 96.5234 101.925 96.5234 104C96.5234 106.075 96.1294 108.025 95.3414 109.85C94.5544 111.675 93.4859 113.263 92.1359 114.613C90.7859 115.963 89.1984 117.031 87.3734 117.818C85.5484 118.606 83.5984 119 81.5234 119ZM81.5234 116C84.8484 116 87.6799 114.832 90.0179 112.495C92.3549 110.157 93.5234 107.325 93.5234 104C93.5234 100.675 92.3549 97.8435 90.0179 95.5055C87.6799 93.1685 84.8484 92 81.5234 92C78.1984 92 75.3674 93.1685 73.0304 95.5055C70.6924 97.8435 69.5234 100.675 69.5234 104C69.5234 107.325 70.6924 110.157 73.0304 112.495C75.3674 114.832 78.1984 116 81.5234 116Z" fill="#417465"/>
</g>
<defs>
<clipPath id="clip0_9011_26193">
<rect width="161.955" height="193.03" fill="white" transform="translate(0.523438)"/>
</clipPath>
</defs>
</svg>
