<svg width="163" height="194" viewBox="0 0 163 194" fill="none" xmlns="http://www.w3.org/2000/svg">
<g clip-path="url(#clip0_9011_26140)">
<path d="M84.2815 190.09C128.976 188.553 163.962 151.074 162.425 106.379C160.888 61.6846 123.409 26.6986 78.7143 28.2359C34.0194 29.7733 -0.966624 67.2519 0.570724 111.947C2.10807 156.642 39.5867 191.628 84.2815 190.09Z" fill="#E9FAF5"/>
<path fill-rule="evenodd" clip-rule="evenodd" d="M62.1686 193.029C80.3386 193.029 95.1536 178.209 95.1536 160.044C95.1536 141.879 80.3336 127.059 62.1686 127.059C44.0036 127.059 29.1836 141.879 29.1836 160.044C29.1836 178.209 44.0036 193.029 62.1686 193.029Z" fill="#FF935F"/>
<path fill-rule="evenodd" clip-rule="evenodd" d="M76.4543 189.785C87.5193 184.46 95.1543 173.145 95.1543 160.045C95.1543 146.275 86.7143 134.48 74.7293 129.535C63.6643 134.86 56.0293 146.175 56.0293 159.275C56.0293 173.045 64.4693 184.84 76.4543 189.78V189.785Z" fill="#A4434C"/>
<path fill-rule="evenodd" clip-rule="evenodd" d="M111.888 130.381C116.038 128.781 120.703 130.846 122.308 135.001C123.908 139.151 121.843 143.816 117.693 145.416C117.643 145.436 100.793 151.781 94.9835 169.281C93.5835 173.496 89.0335 175.781 84.8185 174.381C80.6035 172.981 78.3185 168.431 79.7185 164.216C87.9585 139.396 111.823 130.411 111.893 130.381H111.888Z" fill="#A4434C"/>
<path fill-rule="evenodd" clip-rule="evenodd" d="M110.398 108.594C114.378 106.609 119.218 108.229 121.203 112.209C123.188 116.189 121.568 121.029 117.588 123.014C117.543 123.039 101.358 130.944 97.2231 148.909C96.2281 153.239 91.9131 155.939 87.5831 154.944C83.2531 153.949 80.5531 149.634 81.5481 145.304C87.4131 119.819 110.328 108.624 110.393 108.589L110.398 108.594Z" fill="#FFA562"/>
<path fill-rule="evenodd" clip-rule="evenodd" d="M48.3944 84.6909C52.3794 85.3009 55.1444 89.0609 54.5344 93.0459L44.9794 155.456L30.4844 153.236L40.0394 90.8259C40.6494 86.8409 44.4094 84.0759 48.3944 84.6859V84.6909Z" fill="#FF935F"/>
<path d="M61.0232 61.0781H103.098C109.853 61.0781 115.338 66.5631 115.338 73.3181V159.873C115.338 166.628 109.853 172.113 103.098 172.113H61.0232C54.2682 172.113 48.7832 166.628 48.7832 159.873V73.3181C48.7832 66.5631 54.2682 61.0781 61.0232 61.0781Z" fill="#474747"/>
<path fill-rule="evenodd" clip-rule="evenodd" d="M103.098 66.3594C106.918 66.3594 110.058 69.2994 110.058 72.8744V153.909C110.058 157.484 106.918 160.424 103.098 160.424H61.0225C57.2025 160.424 54.0625 157.484 54.0625 153.909V72.8744C54.0625 69.2994 57.2025 66.3594 61.0225 66.3594H103.098Z" fill="#E9FAF5"/>
<path fill-rule="evenodd" clip-rule="evenodd" d="M156.088 128.535C156.088 132.355 153.148 135.495 149.573 135.495L68.5379 135.495C64.9629 135.495 62.0229 132.355 62.0229 128.535L62.0229 86.46C62.0229 82.64 64.9629 79.5 68.5379 79.5L149.573 79.5C153.148 79.5 156.088 82.64 156.088 86.46L156.088 128.535Z" fill="#569F91"/>
<path fill-rule="evenodd" clip-rule="evenodd" d="M59.8535 136.296C59.8535 137.621 60.9335 138.701 62.2585 138.701H74.3635C75.6885 138.701 76.7685 137.621 76.7685 136.296C76.7685 134.971 75.6885 133.891 74.3635 133.891H62.2585C60.9335 133.891 59.8535 134.971 59.8535 136.296Z" fill="#50A8BA"/>
<path fill-rule="evenodd" clip-rule="evenodd" d="M63.8926 136.296C63.8926 137.621 64.9726 138.701 66.2976 138.701H67.9376C69.2626 138.701 70.3426 137.621 70.3426 136.296C70.3426 134.971 69.2626 133.891 67.9376 133.891H66.2976C64.9726 133.891 63.8926 134.971 63.8926 136.296Z" fill="#8AE9FC"/>
<path fill-rule="evenodd" clip-rule="evenodd" d="M65.7241 126.639C69.6191 123.649 75.2041 124.384 78.1941 128.279C81.1841 132.174 80.4491 137.759 76.5541 140.749C76.5091 140.784 60.6441 152.764 59.9541 173.099C59.7891 177.999 55.6791 181.834 50.7841 181.669C45.8841 181.504 42.0491 177.394 42.2141 172.499C43.1941 143.649 65.6591 126.689 65.7241 126.639Z" fill="#FF935F"/>
<path fill-rule="evenodd" clip-rule="evenodd" d="M71.0879 139.311C74.2529 139.311 76.8329 136.726 76.8329 133.561C76.8329 130.396 74.2529 127.816 71.0879 127.816C67.9229 127.816 65.3379 130.396 65.3379 133.561C65.3379 136.726 67.9179 139.311 71.0879 139.311Z" fill="#FFB48F"/>
<path d="M57.3543 76.8642C57.3543 75.9447 56.61 75.1992 55.6918 75.1992C54.7736 75.1992 54.0293 75.9447 54.0293 76.8642V83.0842C54.0293 84.0038 54.7736 84.7492 55.6918 84.7492C56.61 84.7492 57.3543 84.0038 57.3543 83.0842V76.8642Z" fill="#8DCABE"/>
<path d="M57.3543 89.9384C57.3543 89.0189 56.61 88.2734 55.6918 88.2734C54.7736 88.2734 54.0293 89.0189 54.0293 89.9384V107.218C54.0293 108.138 54.7736 108.883 55.6918 108.883C56.61 108.883 57.3543 108.138 57.3543 107.218V89.9384Z" fill="#8DCABE"/>
<path d="M75.0234 87.5C75.0234 89.7091 73.2326 91.5 71.0234 91.5C68.8143 91.5 67.0234 89.7091 67.0234 87.5C67.0234 85.2909 68.8143 83.5 71.0234 83.5C73.2326 83.5 75.0234 85.2909 75.0234 87.5Z" fill="#F3B700"/>
<path fill-rule="evenodd" clip-rule="evenodd" d="M75.5234 91C77.4564 91 79.0234 89.433 79.0234 87.5C79.0234 85.567 77.4564 84 75.5234 84C73.5904 84 72.0234 85.567 72.0234 87.5C72.0234 89.433 73.5904 91 75.5234 91ZM75.5234 91.5C77.7326 91.5 79.5234 89.7091 79.5234 87.5C79.5234 85.2909 77.7326 83.5 75.5234 83.5C73.3143 83.5 71.5234 85.2909 71.5234 87.5C71.5234 89.7091 73.3143 91.5 75.5234 91.5Z" fill="#F3B700"/>
<path d="M86.5234 132.5C86.5234 131.948 86.9712 131.5 87.5234 131.5H100.523C101.076 131.5 101.523 131.948 101.523 132.5C101.523 133.052 101.076 133.5 100.523 133.5H87.5234C86.9712 133.5 86.5234 133.052 86.5234 132.5Z" fill="#84CEBF"/>
<path d="M103.523 132.5C103.523 131.948 103.971 131.5 104.523 131.5H117.523C118.076 131.5 118.523 131.948 118.523 132.5C118.523 133.052 118.076 133.5 117.523 133.5H104.523C103.971 133.5 103.523 133.052 103.523 132.5Z" fill="#84CEBF"/>
<path d="M120.523 132.5C120.523 131.948 120.971 131.5 121.523 131.5H134.523C135.076 131.5 135.523 131.948 135.523 132.5C135.523 133.052 135.076 133.5 134.523 133.5H121.523C120.971 133.5 120.523 133.052 120.523 132.5Z" fill="#84CEBF"/>
<path d="M134.023 85.5C134.023 84.9477 134.471 84.5 135.023 84.5H148.023C148.576 84.5 149.023 84.9477 149.023 85.5C149.023 86.0523 148.576 86.5 148.023 86.5H135.023C134.471 86.5 134.023 86.0523 134.023 85.5Z" fill="#E9FAF5"/>
<path d="M134.023 89.5C134.023 88.9477 134.471 88.5 135.023 88.5H148.023C148.576 88.5 149.023 88.9477 149.023 89.5C149.023 90.0523 148.576 90.5 148.023 90.5H135.023C134.471 90.5 134.023 90.0523 134.023 89.5Z" fill="#E9FAF5"/>
<path d="M68.0918 113.998V102.996H72.1626C73.0428 102.996 73.7711 103.143 74.3474 103.436C74.9237 103.73 75.3533 104.133 75.6362 104.646C75.9191 105.16 76.0606 105.736 76.0606 106.375C76.0606 106.983 75.9244 107.544 75.6519 108.057C75.3795 108.56 74.9551 108.969 74.3788 109.283C73.8025 109.587 73.0638 109.739 72.1626 109.739H70.1036V113.998H68.0918ZM70.1036 108.104H72.0369C72.7389 108.104 73.2419 107.952 73.5458 107.648C73.8601 107.334 74.0173 106.91 74.0173 106.375C74.0173 105.83 73.8601 105.406 73.5458 105.102C73.2419 104.788 72.7389 104.631 72.0369 104.631H70.1036V108.104Z" fill="#E9FAF5"/>
<path d="M79.7883 114.187C79.1177 114.187 78.5676 114.082 78.138 113.873C77.7084 113.653 77.3888 113.364 77.1792 113.008C76.9697 112.652 76.8649 112.259 76.8649 111.829C76.8649 111.106 77.1478 110.52 77.7136 110.069C78.2794 109.618 79.1282 109.393 80.2598 109.393H82.2403V109.205C82.2403 108.67 82.0883 108.277 81.7844 108.026C81.4806 107.774 81.1034 107.648 80.6528 107.648C80.2441 107.648 79.8879 107.748 79.584 107.947C79.2801 108.136 79.0915 108.419 79.0182 108.796H77.0535C77.1059 108.23 77.2945 107.738 77.6193 107.318C77.9546 106.899 78.3842 106.58 78.9081 106.36C79.4321 106.129 80.0188 106.014 80.6685 106.014C81.7792 106.014 82.6541 106.292 83.2933 106.847C83.9325 107.402 84.2521 108.188 84.2521 109.205V113.998H82.5389L82.3503 112.741C82.1198 113.16 81.7949 113.506 81.3758 113.778C80.9671 114.051 80.438 114.187 79.7883 114.187ZM80.2441 112.615C80.8204 112.615 81.2658 112.427 81.5801 112.049C81.9049 111.672 82.1093 111.206 82.1931 110.651H80.4799C79.9455 110.651 79.563 110.75 79.3325 110.949C79.102 111.138 78.9867 111.374 78.9867 111.656C78.9867 111.96 79.102 112.196 79.3325 112.364C79.563 112.531 79.8669 112.615 80.2441 112.615Z" fill="#E9FAF5"/>
<path d="M86.8855 117.456L88.693 113.48H88.2215L85.188 106.202H87.3728L89.5575 111.688L91.8365 106.202H93.9741L89.0231 117.456H86.8855Z" fill="#E9FAF5"/>
<path d="M95.2893 113.998V106.202H97.0654L97.2383 107.256C97.4898 106.878 97.8199 106.58 98.2285 106.36C98.6477 106.129 99.1297 106.014 99.6745 106.014C100.88 106.014 101.734 106.48 102.236 107.413C102.519 106.983 102.897 106.643 103.368 106.391C103.85 106.14 104.374 106.014 104.94 106.014C105.956 106.014 106.737 106.318 107.282 106.925C107.827 107.533 108.099 108.424 108.099 109.597V113.998H106.087V109.786C106.087 109.115 105.956 108.602 105.694 108.246C105.443 107.889 105.05 107.711 104.516 107.711C103.971 107.711 103.531 107.91 103.195 108.309C102.87 108.707 102.708 109.262 102.708 109.975V113.998H100.696V109.786C100.696 109.115 100.565 108.602 100.303 108.246C100.041 107.889 99.6379 107.711 99.093 107.711C98.5586 107.711 98.1237 107.91 97.7884 108.309C97.4636 108.707 97.3012 109.262 97.3012 109.975V113.998H95.2893Z" fill="#E9FAF5"/>
<path d="M113.797 114.187C113.011 114.187 112.314 114.019 111.707 113.684C111.099 113.349 110.622 112.877 110.276 112.269C109.931 111.662 109.758 110.96 109.758 110.163C109.758 109.356 109.925 108.639 110.261 108.01C110.606 107.381 111.078 106.894 111.675 106.548C112.283 106.192 112.995 106.014 113.813 106.014C114.578 106.014 115.254 106.182 115.84 106.517C116.427 106.852 116.883 107.313 117.208 107.9C117.543 108.476 117.711 109.121 117.711 109.833C117.711 109.948 117.705 110.069 117.695 110.195C117.695 110.32 117.69 110.451 117.679 110.588H111.754C111.796 111.195 112.005 111.672 112.382 112.018C112.77 112.364 113.236 112.537 113.781 112.537C114.19 112.537 114.531 112.448 114.803 112.269C115.086 112.081 115.295 111.84 115.432 111.546H117.475C117.328 112.039 117.082 112.489 116.736 112.898C116.401 113.296 115.982 113.611 115.479 113.841C114.986 114.072 114.426 114.187 113.797 114.187ZM113.813 107.648C113.32 107.648 112.885 107.79 112.508 108.073C112.131 108.345 111.89 108.764 111.785 109.33H115.667C115.636 108.817 115.447 108.408 115.102 108.104C114.756 107.8 114.326 107.648 113.813 107.648Z" fill="#E9FAF5"/>
<path d="M119.403 113.998V106.202H121.179L121.336 107.523C121.577 107.062 121.923 106.695 122.373 106.423C122.834 106.15 123.374 106.014 123.992 106.014C124.956 106.014 125.706 106.318 126.24 106.925C126.774 107.533 127.042 108.424 127.042 109.597V113.998H125.03V109.786C125.03 109.115 124.893 108.602 124.621 108.246C124.349 107.889 123.924 107.711 123.348 107.711C122.782 107.711 122.316 107.91 121.949 108.309C121.593 108.707 121.415 109.262 121.415 109.975V113.998H119.403Z" fill="#E9FAF5"/>
<path d="M132.439 113.998C131.622 113.998 130.967 113.799 130.474 113.401C129.982 113.003 129.735 112.296 129.735 111.279V107.884H128.399V106.202H129.735L129.971 104.112H131.747V106.202H133.853V107.884H131.747V111.295C131.747 111.672 131.826 111.934 131.983 112.081C132.151 112.217 132.434 112.285 132.832 112.285H133.806V113.998H132.439Z" fill="#E9FAF5"/>
</g>
<defs>
<clipPath id="clip0_9011_26140">
<rect width="161.955" height="193.03" fill="white" transform="translate(0.523438)"/>
</clipPath>
</defs>
</svg>
