<svg width="40" height="41" viewBox="0 0 40 41" fill="none" xmlns="http://www.w3.org/2000/svg">
<path d="M14.375 19.0371C13.8777 19.0371 13.4008 19.2347 13.0492 19.5863C12.6975 19.9379 12.5 20.4148 12.5 20.9121C12.5 21.4094 12.6975 21.8863 13.0492 22.2379C13.4008 22.5896 13.8777 22.7871 14.375 22.7871C14.8723 22.7871 15.3492 22.5896 15.7008 22.2379C16.0525 21.8863 16.25 21.4094 16.25 20.9121C16.25 20.4148 16.0525 19.9379 15.7008 19.5863C15.3492 19.2347 14.8723 19.0371 14.375 19.0371ZM12.5 25.9121C12.5 25.4148 12.6975 24.9379 13.0492 24.5863C13.4008 24.2347 13.8777 24.0371 14.375 24.0371C14.8723 24.0371 15.3492 24.2347 15.7008 24.5863C16.0525 24.9379 16.25 25.4148 16.25 25.9121C16.25 26.4094 16.0525 26.8863 15.7008 27.2379C15.3492 27.5896 14.8723 27.7871 14.375 27.7871C13.8777 27.7871 13.4008 27.5896 13.0492 27.2379C12.6975 26.8863 12.5 26.4094 12.5 25.9121ZM25.625 19.0371C25.1277 19.0371 24.6508 19.2347 24.2992 19.5863C23.9475 19.9379 23.75 20.4148 23.75 20.9121C23.75 21.4094 23.9475 21.8863 24.2992 22.2379C24.6508 22.5896 25.1277 22.7871 25.625 22.7871C26.1223 22.7871 26.5992 22.5896 26.9508 22.2379C27.3025 21.8863 27.5 21.4094 27.5 20.9121C27.5 20.4148 27.3025 19.9379 26.9508 19.5863C26.5992 19.2347 26.1223 19.0371 25.625 19.0371ZM18.125 20.9121C18.125 20.4148 18.3225 19.9379 18.6742 19.5863C19.0258 19.2347 19.5027 19.0371 20 19.0371C20.4973 19.0371 20.9742 19.2347 21.3258 19.5863C21.6775 19.9379 21.875 20.4148 21.875 20.9121C21.875 21.4094 21.6775 21.8863 21.3258 22.2379C20.9742 22.5896 20.4973 22.7871 20 22.7871C19.5027 22.7871 19.0258 22.5896 18.6742 22.2379C18.3225 21.8863 18.125 21.4094 18.125 20.9121ZM20 24.0371C19.5027 24.0371 19.0258 24.2347 18.6742 24.5863C18.3225 24.9379 18.125 25.4148 18.125 25.9121C18.125 26.4094 18.3225 26.8863 18.6742 27.2379C19.0258 27.5896 19.5027 27.7871 20 27.7871C20.4973 27.7871 20.9742 27.5896 21.3258 27.2379C21.6775 26.8863 21.875 26.4094 21.875 25.9121C21.875 25.4148 21.6775 24.9379 21.3258 24.5863C20.9742 24.2347 20.4973 24.0371 20 24.0371Z" fill="url(#paint0_linear_24945_38973)"/>
<path fill-rule="evenodd" clip-rule="evenodd" d="M11.875 2.78711C11.3777 2.78711 10.9008 2.98465 10.5492 3.33628C10.1975 3.68791 10 4.16483 10 4.66211V7.78711C8.67392 7.78711 7.40215 8.31389 6.46447 9.25158C5.52678 10.1893 5 11.461 5 12.7871V30.2871C5 31.6132 5.52678 32.885 6.46447 33.8226C7.40215 34.7603 8.67392 35.2871 10 35.2871H30C31.3261 35.2871 32.5979 34.7603 33.5355 33.8226C34.4732 32.885 35 31.6132 35 30.2871V12.7871C35 11.461 34.4732 10.1893 33.5355 9.25158C32.5979 8.31389 31.3261 7.78711 30 7.78711V4.66211C30 4.16483 29.8025 3.68791 29.4508 3.33628C29.0992 2.98465 28.6223 2.78711 28.125 2.78711C27.6277 2.78711 27.1508 2.98465 26.7992 3.33628C26.4475 3.68791 26.25 4.16483 26.25 4.66211V7.78711H13.75V4.66211C13.75 4.16483 13.5525 3.68791 13.2008 3.33628C12.8492 2.98465 12.3723 2.78711 11.875 2.78711ZM8.75 17.7871C8.75 17.1241 9.01339 16.4882 9.48223 16.0193C9.95107 15.5505 10.587 15.2871 11.25 15.2871H28.75C29.413 15.2871 30.0489 15.5505 30.5178 16.0193C30.9866 16.4882 31.25 17.1241 31.25 17.7871V29.0371C31.25 29.7002 30.9866 30.336 30.5178 30.8049C30.0489 31.2737 29.413 31.5371 28.75 31.5371H11.25C10.587 31.5371 9.95107 31.2737 9.48223 30.8049C9.01339 30.336 8.75 29.7002 8.75 29.0371V17.7871Z" fill="url(#paint1_linear_24945_38973)"/>
<defs>
<linearGradient id="paint0_linear_24945_38973" x1="15.7722" y1="21.5139" x2="22.4519" y2="29.0802" gradientUnits="userSpaceOnUse">
<stop stop-color="#37D9E8"/>
<stop offset="1" stop-color="#066AFE"/>
</linearGradient>
<linearGradient id="paint1_linear_24945_38973" x1="11.5443" y1="11.9865" x2="33.775" y2="25.5456" gradientUnits="userSpaceOnUse">
<stop stop-color="#37D9E8"/>
<stop offset="1" stop-color="#066AFE"/>
</linearGradient>
</defs>
</svg>
