<svg width="31" height="41" viewBox="0 0 31 41" fill="none" xmlns="http://www.w3.org/2000/svg">
<path d="M23.4851 32.5992L13.9087 25.5654C13.645 25.3718 13.2803 25.6003 13.3396 25.9221L14.0354 29.6955C9.36439 29.7279 5.05279 27.7582 2.80013 23.2861C2.01875 21.741 1.56622 20.0213 1.50323 18.2821C1.44033 16.4842 1.81159 14.6166 2.78406 13.0781C2.72116 13.144 2.60449 13.2627 2.53995 13.3311C2.49807 13.3765 2.34717 13.5535 2.30698 13.5967C2.25166 13.6673 2.14145 13.8013 2.08535 13.8739C2.04667 13.9253 1.91295 14.1124 1.87528 14.1619C-0.842213 18.2037 -0.423777 23.8545 1.95973 27.9752C4.09096 31.7444 7.99002 34.3557 12.1311 35.4767C12.7708 35.6581 13.416 35.8071 14.0641 35.9297L13.3396 39.8587C13.2803 40.1805 13.645 40.4091 13.9087 40.2154L23.4851 33.1816C23.6817 33.0372 23.6817 32.7436 23.4851 32.5992Z" fill="url(#paint0_linear_24945_38961)"/>
<path d="M28.7538 12.5985C26.6226 8.82937 22.7236 6.21801 18.5825 5.09706C17.9427 4.91567 17.2975 4.76666 16.6495 4.64401L17.374 0.715017C17.4333 0.393269 17.0685 0.164685 16.8049 0.35835L7.22845 7.39217C7.03192 7.53653 7.03192 7.83012 7.22845 7.97447L16.8049 15.0083C17.0685 15.202 17.4333 14.9734 17.374 14.6516L16.6782 10.8782C21.3492 10.8458 25.6608 12.8156 27.9134 17.2876C28.6948 18.8327 29.1473 20.5524 29.2103 22.2916C29.2732 24.0895 28.902 25.9571 27.9295 27.4956C27.9924 27.4297 28.109 27.311 28.1736 27.2426C28.2155 27.1972 28.3664 27.0202 28.4066 26.9771C28.4619 26.9064 28.5721 26.7724 28.6282 26.6998C28.6669 26.6484 28.8006 26.4613 28.8383 26.4118C31.5558 22.3701 31.1374 16.7192 28.7538 12.5985Z" fill="url(#paint1_linear_24945_38961)"/>
<defs>
<linearGradient id="paint0_linear_24945_38961" x1="19.9689" y1="34.0949" x2="-1.01245" y2="20.8932" gradientUnits="userSpaceOnUse">
<stop stop-color="#1FECFF"/>
<stop offset="1" stop-color="#066AFE"/>
</linearGradient>
<linearGradient id="paint1_linear_24945_38961" x1="12.2363" y1="7.9887" x2="30.3102" y2="18.3615" gradientUnits="userSpaceOnUse">
<stop stop-color="#1FECFF"/>
<stop offset="1" stop-color="#066AFE"/>
</linearGradient>
</defs>
</svg>
