<svg width="77" height="61" viewBox="0 0 77 61" fill="none" xmlns="http://www.w3.org/2000/svg">
<g clip-path="url(#clip0)">
<path opacity="0.1" d="M75.134 40.8048C75.065 40.8559 75.0015 40.9056 74.9339 40.9539C74.6845 41.133 74.4234 41.2947 74.1524 41.4378C72.7327 42.1975 70.9826 42.5686 69.278 42.8207C65.4549 43.3865 61.5518 43.4964 57.6653 43.6043C47.164 43.897 36.6371 44.189 26.1613 43.5146C22.0223 43.2486 17.7922 42.8032 14.0416 41.4378C13.504 41.2427 12.9769 41.0275 12.4605 40.7922C11.4154 40.3153 10.4117 39.7348 9.57697 39.0416C8.79263 38.3918 8.1566 37.6454 7.7765 36.7967C6.98388 35.0293 7.4033 33.0442 8.30836 31.3119C8.68426 30.611 9.10817 29.9379 9.57697 29.2973C10.2758 28.3219 11.0463 27.3745 11.7493 26.3998C14.2506 22.9351 15.8827 18.5517 13.5739 14.9981C12.9102 13.9771 11.9514 13.0809 11.4105 12.0151C10.7207 10.6518 10.7738 9.13791 10.9932 7.66744C11.0217 7.48071 11.0518 7.29586 11.0836 7.11286C11.4581 4.93237 12.1632 2.58312 14.3368 1.22189C16.5947 -0.192561 19.801 -0.121138 22.6031 0.381622C26.9608 1.17147 30.9805 2.8156 35.0429 4.30007C39.1053 5.78454 43.3554 7.14087 47.82 7.28652C51.7624 7.41536 56.3608 6.45115 58.9774 3.94506C61.5187 1.51108 66.2958 1.32552 69.7388 2.79599C72.1022 3.80501 73.8654 5.62279 74.609 7.66744C74.7596 8.07794 74.8681 8.50313 74.9326 8.93624C74.9922 9.33207 75.0116 9.73307 74.9905 10.1329C74.9802 10.3304 74.9602 10.5258 74.9326 10.719C74.3572 14.7537 70.2162 17.9362 67.699 21.5403C66.469 23.3006 65.6005 25.4153 66.4462 27.3136C67.7362 30.2062 72.2222 31.2348 74.9312 33.3873C75.441 33.7791 75.8898 34.2465 76.2626 34.7738C77.5767 36.6896 77.0918 39.2769 75.134 40.8048Z" fill="#86D0C1"/>
<path d="M21.7488 30.9579C21.7488 30.9579 18.5755 25.2497 13.7936 23.6056C11.7869 22.9152 10.0354 21.617 8.83783 19.8426C8.27088 19.0002 7.78134 18.1067 7.37538 17.1733" stroke="#535461" stroke-width="0.407238" stroke-miterlimit="10"/>
<path d="M4.36842 16.1167C4.91339 16.651 7.4506 17.2111 7.4506 17.2111C7.4506 17.2111 6.82974 14.6539 6.2834 14.1168C6.02077 13.8644 5.67072 13.7272 5.30911 13.7349C4.9475 13.7427 4.60346 13.8947 4.35154 14.1582C4.09963 14.4216 3.96014 14.7752 3.96329 15.1424C3.96645 15.5095 4.11201 15.8605 4.36842 16.1195V16.1167Z" fill="#86D0C1"/>
<path d="M5.80396 20.7444C6.54829 20.8943 8.9772 19.9609 8.9772 19.9609C8.9772 19.9609 7.0836 18.1571 6.33858 18.0072C5.9845 17.9439 5.62008 18.024 5.32342 18.2301C5.02677 18.4363 4.82149 18.7523 4.75157 19.1102C4.68165 19.4682 4.75266 19.8397 4.94937 20.1452C5.14609 20.4507 5.45287 20.6658 5.80396 20.7444Z" fill="#86D0C1"/>
<path d="M11.0294 25.7539C11.7469 25.5018 13.3749 23.4522 13.3749 23.4522C13.3749 23.4522 10.8446 22.8647 10.1278 23.1168C9.95197 23.1723 9.78888 23.263 9.64823 23.3837C9.50758 23.5044 9.39225 23.6525 9.30908 23.8192C9.22591 23.986 9.17659 24.1681 9.16406 24.3546C9.15153 24.541 9.17603 24.7282 9.23612 24.9049C9.29621 25.0816 9.39066 25.2442 9.51386 25.3832C9.63706 25.5221 9.78651 25.6345 9.95332 25.7137C10.1201 25.7929 10.3009 25.8372 10.485 25.8441C10.669 25.851 10.8525 25.8203 11.0246 25.7539H11.0294Z" fill="#86D0C1"/>
<path d="M15.8238 28.638C16.573 28.512 18.5211 26.7719 18.5211 26.7719C18.5211 26.7719 16.1253 25.7587 15.3761 25.884C15.0163 25.9443 14.6949 26.1472 14.4824 26.448C14.27 26.7489 14.184 27.123 14.2434 27.4882C14.3028 27.8534 14.5026 28.1797 14.799 28.3954C15.0954 28.611 15.464 28.6983 15.8238 28.638Z" fill="#86D0C1"/>
<path d="M11.0908 17.9625C11.0908 18.7328 9.71807 20.9686 9.71807 20.9686C9.71807 20.9686 8.34254 18.7342 8.34185 17.9639C8.33775 17.7781 8.37027 17.5933 8.4375 17.4203C8.50473 17.2474 8.60532 17.0899 8.73336 16.957C8.8614 16.8241 9.01431 16.7185 9.18311 16.6464C9.35192 16.5743 9.53321 16.5371 9.71635 16.5371C9.89948 16.5371 10.0808 16.5743 10.2496 16.6464C10.4184 16.7185 10.5713 16.8241 10.6993 16.957C10.8274 17.0899 10.928 17.2474 10.9952 17.4203C11.0624 17.5933 11.0949 17.7781 11.0908 17.9639V17.9625Z" fill="#86D0C1"/>
<path d="M16.6564 21.4126C16.4295 22.1478 14.46 23.8634 14.46 23.8634C14.46 23.8634 13.806 21.3111 14.0302 20.5723C14.1507 20.2341 14.3952 19.9561 14.7127 19.7965C15.0302 19.6368 15.3962 19.6077 15.7343 19.7152C16.0724 19.8228 16.3566 20.0587 16.5275 20.3738C16.6984 20.6889 16.7429 21.0588 16.6516 21.4063L16.6564 21.4126Z" fill="#86D0C1"/>
<path d="M21.6122 25.5124C21.5115 26.2763 19.8559 28.3049 19.8559 28.3049C19.8559 28.3049 18.7866 25.9045 18.8901 25.1406C18.9437 24.7782 19.1355 24.4518 19.4242 24.2318C19.7128 24.0117 20.0751 23.9158 20.4329 23.9646C20.7907 24.0134 21.1152 24.2031 21.3363 24.4927C21.5575 24.7823 21.6576 25.1485 21.615 25.5124H21.6122Z" fill="#86D0C1"/>
<path opacity="0.25" d="M4.36842 16.1167C4.91339 16.651 7.4506 17.2111 7.4506 17.2111C7.4506 17.2111 6.82974 14.6539 6.2834 14.1168C6.02077 13.8644 5.67072 13.7272 5.30911 13.7349C4.9475 13.7427 4.60346 13.8947 4.35154 14.1582C4.09963 14.4216 3.96014 14.7752 3.96329 15.1424C3.96645 15.5095 4.11201 15.8605 4.36842 16.1195V16.1167Z" fill="black"/>
<path opacity="0.25" d="M5.80396 20.7444C6.54829 20.8943 8.9772 19.9609 8.9772 19.9609C8.9772 19.9609 7.0836 18.1571 6.33858 18.0072C5.9845 17.9439 5.62008 18.024 5.32342 18.2301C5.02677 18.4363 4.82149 18.7523 4.75157 19.1102C4.68165 19.4682 4.75266 19.8397 4.94937 20.1452C5.14609 20.4507 5.45287 20.6658 5.80396 20.7444Z" fill="black"/>
<path opacity="0.25" d="M11.0294 25.7539C11.7469 25.5018 13.3749 23.4522 13.3749 23.4522C13.3749 23.4522 10.8446 22.8647 10.1278 23.1168C9.95197 23.1723 9.78888 23.263 9.64823 23.3837C9.50758 23.5044 9.39225 23.6525 9.30908 23.8192C9.22591 23.986 9.17659 24.1681 9.16406 24.3546C9.15153 24.541 9.17603 24.7282 9.23612 24.9049C9.29621 25.0816 9.39066 25.2442 9.51386 25.3832C9.63706 25.5221 9.78651 25.6345 9.95332 25.7137C10.1201 25.7929 10.3009 25.8372 10.485 25.8441C10.669 25.851 10.8525 25.8203 11.0246 25.7539H11.0294Z" fill="black"/>
<path opacity="0.25" d="M15.8238 28.638C16.573 28.512 18.5211 26.7719 18.5211 26.7719C18.5211 26.7719 16.1253 25.7587 15.3761 25.884C15.0163 25.9443 14.6949 26.1472 14.4824 26.448C14.27 26.7489 14.184 27.123 14.2434 27.4882C14.3028 27.8534 14.5026 28.1797 14.799 28.3954C15.0954 28.611 15.464 28.6983 15.8238 28.638Z" fill="black"/>
<path opacity="0.25" d="M11.0908 17.9625C11.0908 18.7328 9.71807 20.9686 9.71807 20.9686C9.71807 20.9686 8.34254 18.7342 8.34185 17.9639C8.33775 17.7781 8.37027 17.5933 8.4375 17.4203C8.50473 17.2474 8.60532 17.0899 8.73336 16.957C8.8614 16.8241 9.01431 16.7185 9.18311 16.6464C9.35192 16.5743 9.53321 16.5371 9.71635 16.5371C9.89948 16.5371 10.0808 16.5743 10.2496 16.6464C10.4184 16.7185 10.5713 16.8241 10.6993 16.957C10.8274 17.0899 10.928 17.2474 10.9952 17.4203C11.0624 17.5933 11.0949 17.7781 11.0908 17.9639V17.9625Z" fill="black"/>
<path opacity="0.25" d="M16.6564 21.4126C16.4295 22.1478 14.46 23.8634 14.46 23.8634C14.46 23.8634 13.806 21.3111 14.0302 20.5723C14.1507 20.2341 14.3952 19.9561 14.7127 19.7965C15.0302 19.6368 15.3962 19.6077 15.7343 19.7152C16.0724 19.8228 16.3566 20.0587 16.5275 20.3738C16.6984 20.6889 16.7429 21.0588 16.6516 21.4063L16.6564 21.4126Z" fill="black"/>
<path opacity="0.25" d="M21.6122 25.5124C21.5115 26.2763 19.8559 28.3049 19.8559 28.3049C19.8559 28.3049 18.7866 25.9045 18.8901 25.1406C18.9437 24.7782 19.1355 24.4518 19.4242 24.2318C19.7128 24.0117 20.0751 23.9158 20.4329 23.9646C20.7907 24.0134 21.1152 24.2031 21.3363 24.4927C21.5575 24.7823 21.6576 25.1485 21.615 25.5124H21.6122Z" fill="black"/>
<path d="M21.566 30.8444C21.566 30.8444 20.9451 24.3197 17.2283 20.8494C15.67 19.3929 14.5869 17.4883 14.1999 15.3708C14.0183 14.3672 13.9278 13.3488 13.9295 12.3284" stroke="#535461" stroke-width="0.407238" stroke-miterlimit="10"/>
<path d="M11.6013 10.1276C11.8855 10.8426 13.9833 12.3936 13.9833 12.3936C13.9833 12.3936 14.4352 9.79924 14.1516 9.08431C14.0153 8.74075 13.7502 8.46622 13.4144 8.32111C13.0787 8.176 12.7 8.17221 12.3615 8.31057C12.023 8.44892 11.7526 8.71809 11.6096 9.05886C11.4667 9.39963 11.4629 9.78408 11.5992 10.1276H11.6013Z" fill="#86D0C1"/>
<path d="M11.0639 14.9487C11.6848 15.3919 14.2765 15.5369 14.2765 15.5369C14.2765 15.5369 13.2714 13.1099 12.6506 12.6667C12.3524 12.4531 11.9829 12.3685 11.6234 12.4315C11.2638 12.4944 10.9436 12.6998 10.7332 13.0024C10.5228 13.305 10.4394 13.6801 10.5014 14.0451C10.5635 14.4101 10.7658 14.7351 11.0639 14.9487Z" fill="#86D0C1"/>
<path d="M13.8446 21.6764C14.6035 21.7415 16.9103 20.5378 16.9103 20.5378C16.9103 20.5378 14.8318 18.9602 14.0751 18.8958C13.893 18.8761 13.7089 18.8935 13.5335 18.9471C13.3582 19.0006 13.1951 19.0892 13.0539 19.2075C12.9128 19.3259 12.7963 19.4717 12.7114 19.6364C12.6265 19.8011 12.5748 19.9813 12.5595 20.1665C12.5441 20.3517 12.5654 20.5382 12.622 20.715C12.6786 20.8917 12.7695 21.0552 12.8892 21.1959C13.0089 21.3365 13.1551 21.4515 13.3191 21.534C13.4832 21.6165 13.6619 21.6649 13.8446 21.6764Z" fill="#86D0C1"/>
<path d="M17.0758 26.2868C17.8112 26.4801 20.287 25.6903 20.287 25.6903C20.287 25.6903 18.501 23.7786 17.7664 23.5854C17.4157 23.4991 17.0456 23.5563 16.7361 23.7445C16.4266 23.9328 16.2023 24.237 16.1118 24.5915C16.0213 24.9461 16.0717 25.3226 16.2522 25.6397C16.4326 25.9569 16.7287 26.1893 17.0765 26.2868H17.0758Z" fill="#86D0C1"/>
<path d="M17.0103 14.5804C16.7034 15.2848 14.5552 16.763 14.5552 16.763C14.5552 16.763 14.1896 14.1554 14.4966 13.4502C14.5677 13.2796 14.6715 13.1251 14.802 12.9957C14.9326 12.8662 15.0872 12.7645 15.2569 12.6963C15.4266 12.6281 15.6079 12.595 15.7904 12.5987C15.9728 12.6024 16.1527 12.6429 16.3196 12.7179C16.4864 12.793 16.6369 12.9009 16.7622 13.0356C16.8875 13.1702 16.9852 13.3289 17.0495 13.5022C17.1138 13.6756 17.1434 13.8602 17.1367 14.0453C17.13 14.2304 17.087 14.4123 17.0103 14.5804Z" fill="#86D0C1"/>
<path d="M20.7216 20.0198C20.2208 20.5989 17.7353 21.3572 17.7353 21.3572C17.7353 21.3572 18.1547 18.758 18.6562 18.1789C18.7753 18.0412 18.92 17.9287 19.0819 17.8478C19.2438 17.7669 19.4198 17.7191 19.5999 17.7073C19.78 17.6954 19.9606 17.7197 20.1315 17.7787C20.3024 17.8377 20.4601 17.9302 20.5957 18.0511C20.7313 18.172 20.8422 18.3188 20.9219 18.4831C21.0016 18.6475 21.0487 18.8262 21.0603 19.009C21.072 19.1918 21.0481 19.3751 20.99 19.5486C20.9319 19.722 20.8407 19.8821 20.7216 20.0198Z" fill="#86D0C1"/>
<path d="M23.6189 25.8098C23.2216 26.4666 20.8982 27.6401 20.8982 27.6401C20.8982 27.6401 20.8789 25.0059 21.2763 24.3491C21.4671 24.0334 21.7736 23.8076 22.1285 23.7213C22.4834 23.635 22.8574 23.6954 23.1685 23.889C23.4795 24.0827 23.702 24.3939 23.787 24.7541C23.872 25.1143 23.8125 25.4941 23.6217 25.8098H23.6189Z" fill="#86D0C1"/>
<path opacity="0.1" d="M28.1563 59.6379C32.4054 59.6379 35.85 59.1827 35.85 58.6212C35.85 58.0597 32.4054 57.6045 28.1563 57.6045C23.9072 57.6045 20.4626 58.0597 20.4626 58.6212C20.4626 59.1827 23.9072 59.6379 28.1563 59.6379Z" fill="#86D0C1"/>
<path opacity="0.1" d="M12.6157 58.949C13.9065 58.949 14.9529 58.7671 14.9529 58.5428C14.9529 58.3185 13.9065 58.1367 12.6157 58.1367C11.3249 58.1367 10.2785 58.3185 10.2785 58.5428C10.2785 58.7671 11.3249 58.949 12.6157 58.949Z" fill="#86D0C1"/>
<path d="M13.1234 54.0208C13.1234 54.0208 13.5021 54.5242 12.9482 55.2811C12.3943 56.0381 11.9376 56.6816 12.1204 57.1556C12.1204 57.1556 12.9558 55.7447 13.638 55.7251C14.3203 55.7055 13.8726 54.8694 13.1234 54.0208Z" fill="#86D0C1"/>
<path opacity="0.1" d="M13.1234 54.0208C13.1565 54.0695 13.1825 54.1228 13.2007 54.179C13.8643 54.9703 14.2182 55.709 13.5801 55.7272C12.9862 55.7447 12.2729 56.823 12.1025 57.0954C12.1081 57.1165 12.1148 57.1373 12.1225 57.1577C12.1225 57.1577 12.9579 55.7468 13.6401 55.7272C14.3224 55.7076 13.8726 54.8694 13.1234 54.0208Z" fill="black"/>
<path d="M13.8278 54.6623C13.8278 54.8395 13.8084 54.983 13.7843 54.983C13.7601 54.983 13.7401 54.843 13.7401 54.6623C13.7401 54.4816 13.765 54.5685 13.7891 54.5685C13.8133 54.5685 13.8278 54.4851 13.8278 54.6623Z" fill="#898474"/>
<path d="M14.0699 54.8737C13.9167 54.9584 13.7829 55.0095 13.7712 54.9878C13.7594 54.9661 13.8747 54.88 14.0278 54.7953C14.1809 54.7106 14.1202 54.7722 14.132 54.7953C14.1437 54.8184 14.223 54.789 14.0699 54.8737Z" fill="#898474"/>
<path d="M11.1215 54.0208C11.1215 54.0208 10.7428 54.5242 11.2968 55.2811C11.8507 56.0381 12.3074 56.6816 12.1246 57.1556C12.1246 57.1556 11.2892 55.7447 10.6069 55.7251C9.92467 55.7055 10.3738 54.8694 11.1215 54.0208Z" fill="#86D0C1"/>
<path opacity="0.1" d="M11.1215 54.0208C11.0884 54.0695 11.0624 54.1228 11.0442 54.179C10.3806 54.9703 10.0267 55.709 10.6648 55.7272C11.2595 55.7447 11.9721 56.823 12.1425 57.0954C12.1371 57.1166 12.1305 57.1374 12.1225 57.1577C12.1225 57.1577 11.2871 55.7468 10.6048 55.7272C9.92257 55.7076 10.3737 54.8694 11.1215 54.0208Z" fill="black"/>
<path d="M10.4172 54.6623C10.4172 54.8395 10.4365 54.983 10.4606 54.983C10.4848 54.983 10.5048 54.843 10.5048 54.6623C10.5048 54.4816 10.48 54.5685 10.4558 54.5685C10.4317 54.5685 10.4172 54.4851 10.4172 54.6623Z" fill="#898474"/>
<path d="M10.1758 54.8737C10.3289 54.9584 10.462 55.0095 10.4738 54.9878C10.4855 54.9661 10.3703 54.88 10.2171 54.7953C10.064 54.7106 10.1247 54.7722 10.113 54.7953C10.1012 54.8184 10.0226 54.789 10.1758 54.8737Z" fill="#898474"/>
<path d="M10.5379 57.0922C10.5379 57.0922 11.5975 57.0586 11.9176 56.8282C12.2377 56.5978 13.547 56.3212 13.6263 56.6916C13.7057 57.0621 15.2185 58.5325 14.0223 58.5423C12.8261 58.5521 11.2429 58.3533 10.9242 58.1565C10.6055 57.9597 10.5379 57.0922 10.5379 57.0922Z" fill="#A8A8A8"/>
<path opacity="0.2" d="M14.043 58.4133C12.8468 58.4231 11.2636 58.2242 10.9449 58.0275C10.7021 57.8769 10.6055 57.3385 10.5731 57.0906H10.5379C10.5379 57.0906 10.6069 57.9574 10.9236 58.1549C11.2402 58.3524 12.8254 58.5505 14.0216 58.5407C14.3665 58.5407 14.4865 58.4133 14.4796 58.2284C14.432 58.3419 14.3003 58.4112 14.043 58.4133Z" fill="black"/>
<path d="M45.9223 57.0507C45.9223 57.0507 43.0057 56.8722 43.3499 58.9469C43.3499 58.9469 43.2809 59.3131 43.6086 59.4798C43.6086 59.4798 43.6141 59.3265 43.908 59.3783C44.0126 59.3961 44.1188 59.4013 44.2246 59.3937C44.3679 59.3841 44.5041 59.327 44.6123 59.2312C44.6123 59.2312 45.4318 58.8881 45.7505 57.5276C45.7505 57.5276 45.9865 57.2307 45.9775 57.1544L45.4849 57.3644C45.4849 57.3644 45.6533 57.725 45.5208 58.0247C45.5208 58.0247 45.505 57.3777 45.4104 57.3945C45.3911 57.3945 45.1545 57.5192 45.1545 57.5192C45.1545 57.5192 45.4442 58.1494 45.2235 58.6031C45.2235 58.6031 45.3063 57.8329 45.0621 57.5647L44.7172 57.7699C44.7172 57.7699 45.0552 58.4183 44.8262 58.9476C44.8262 58.9476 44.8848 58.1361 44.6447 57.8196L44.3309 58.0681C44.3309 58.0681 44.6482 58.7075 44.4543 59.1465C44.4543 59.1465 44.4295 58.2019 44.2626 58.1305C44.2626 58.1305 43.9866 58.3762 43.9459 58.4806C43.9459 58.4806 44.1632 58.9441 44.0287 59.1892C44.0287 59.1892 43.9459 58.559 43.8776 58.559C43.8776 58.559 43.6017 58.9791 43.5755 59.2592C43.5755 59.2592 43.5879 58.8342 43.8114 58.5163C43.6536 58.5468 43.5081 58.6235 43.3927 58.7369C43.3927 58.7369 43.4354 58.4421 43.8756 58.4162C43.8756 58.4162 44.1018 58.0997 44.1625 58.0808C44.1625 58.0808 43.721 58.0429 43.4534 58.1634C43.4534 58.1634 43.6886 57.8833 44.2432 58.0114L44.553 57.7552C44.553 57.7552 43.9721 57.6739 43.7252 57.7636C43.7252 57.7636 44.0094 57.5171 44.6365 57.6935L44.9745 57.4891C44.9745 57.4891 44.4785 57.3805 44.1832 57.419C44.1832 57.419 44.495 57.2482 45.0731 57.433L45.3146 57.3231C45.3146 57.3231 44.951 57.2531 44.8448 57.2398C44.7385 57.2265 44.733 57.1985 44.733 57.1985C44.9631 57.1595 45.1993 57.1862 45.4153 57.2755C45.4153 57.2755 45.9313 57.0836 45.9223 57.0507Z" fill="#86D0C1"/>
<path opacity="0.1" d="M43.9135 60.0148C45.0534 60.0148 45.9775 59.8562 45.9775 59.6605C45.9775 59.4648 45.0534 59.3062 43.9135 59.3062C42.7736 59.3062 41.8495 59.4648 41.8495 59.6605C41.8495 59.8562 42.7736 60.0148 43.9135 60.0148Z" fill="#86D0C1"/>
<path d="M40.8127 57.1614C40.8127 57.1614 39.1681 57.0605 39.364 58.2306C39.3541 58.2899 39.3629 58.3509 39.3892 58.4049C39.4155 58.4588 39.4578 58.5029 39.5103 58.531C39.5103 58.531 39.5103 58.4442 39.6793 58.4736C39.7381 58.4833 39.7978 58.4864 39.8572 58.4827C39.9379 58.4767 40.0146 58.4445 40.0759 58.391C40.0759 58.391 40.5381 58.197 40.7182 57.4302C40.7182 57.4302 40.8506 57.2629 40.8458 57.2202L40.5698 57.3399C40.5698 57.3399 40.6643 57.5437 40.5898 57.7124C40.5898 57.7124 40.5809 57.3476 40.5278 57.356C40.5167 57.356 40.3836 57.426 40.3836 57.426C40.3836 57.426 40.5464 57.7762 40.4236 58.0373C40.4236 58.0373 40.4698 57.6011 40.3325 57.4513L40.1373 57.5675C40.1373 57.5675 40.3277 57.933 40.1987 58.2313C40.1987 58.2313 40.2318 57.7734 40.0959 57.5955L39.9193 57.7355C39.9193 57.7355 40.098 58.0962 39.9883 58.3433C39.9883 58.3433 39.9738 57.8105 39.88 57.7706C39.8128 57.8281 39.7528 57.8937 39.7013 57.9659C39.7013 57.9659 39.8241 58.2278 39.7483 58.3658C39.7483 58.3658 39.7013 58.0107 39.6634 58.0093C39.6634 58.0093 39.5089 58.2446 39.493 58.4057C39.5 58.2562 39.5457 58.1113 39.6255 57.9855C39.5366 58.0026 39.4546 58.0457 39.3895 58.1095C39.3895 58.1095 39.4137 57.9428 39.6655 57.9288C39.6655 57.9288 39.7924 57.7503 39.8269 57.7397C39.8269 57.7397 39.5779 57.718 39.4268 57.786C39.4268 57.786 39.5599 57.6291 39.8724 57.7005L40.047 57.5556C40.047 57.5556 39.7193 57.5101 39.5806 57.5605C39.5806 57.5605 39.7407 57.4204 40.0945 57.5227L40.2843 57.4078C40.1381 57.375 39.9882 57.3618 39.8386 57.3686C39.8386 57.3686 40.0145 57.2727 40.3401 57.3763L40.4781 57.3147C40.4781 57.3147 40.2711 57.2734 40.2139 57.2671C40.1566 57.2608 40.1504 57.244 40.1504 57.244C40.2802 57.2221 40.4135 57.2371 40.5354 57.2874C40.5354 57.2874 40.8175 57.1803 40.8127 57.1614Z" fill="#86D0C1"/>
<path opacity="0.1" d="M39.68 58.8327C40.3227 58.8327 40.8437 58.7434 40.8437 58.6332C40.8437 58.5229 40.3227 58.4336 39.68 58.4336C39.0372 58.4336 38.5162 58.5229 38.5162 58.6332C38.5162 58.7434 39.0372 58.8327 39.68 58.8327Z" fill="#86D0C1"/>
<path d="M43.9425 54.6818C43.9425 54.6818 41.9578 54.56 42.1917 55.9724C42.1797 56.044 42.1903 56.1177 42.222 56.1828C42.2537 56.2479 42.3049 56.3012 42.3683 56.3351C42.3683 56.3351 42.3683 56.2307 42.5718 56.2651C42.6429 56.2766 42.7151 56.2801 42.787 56.2756C42.8845 56.2685 42.9771 56.2297 43.0512 56.1649C43.0512 56.1649 43.6093 55.931 43.8259 55.0046C43.8259 55.0046 43.9866 54.803 43.9804 54.7512L43.6452 54.8961C43.6452 54.8961 43.7597 55.1419 43.67 55.3457C43.67 55.3457 43.6589 54.9052 43.5941 54.9157C43.5817 54.9157 43.4203 55.0004 43.4203 55.0004C43.4203 55.0004 43.6176 55.4283 43.4686 55.7385C43.4686 55.7385 43.5251 55.2119 43.3589 55.0313L43.1229 55.1713C43.1229 55.1713 43.3533 55.6124 43.1974 55.9731C43.1974 55.9731 43.2375 55.4206 43.0733 55.2028L42.8594 55.3716C42.8594 55.3716 43.076 55.8064 42.9443 56.1054C42.9443 56.1054 42.927 55.4626 42.8132 55.4136C42.8132 55.4136 42.6263 55.5809 42.598 55.6496C42.598 55.6496 42.7463 55.9654 42.6539 56.132C42.6539 56.132 42.598 55.7042 42.5518 55.7021C42.5518 55.7021 42.3655 55.9822 42.3448 56.1803C42.3537 56.0005 42.4089 55.8262 42.5049 55.6748C42.3975 55.6955 42.2985 55.7476 42.22 55.8246C42.22 55.8246 42.2489 55.6236 42.5511 55.6061C42.5511 55.6061 42.7049 55.3912 42.7463 55.3779C42.7463 55.3779 42.4455 55.3527 42.2634 55.4346C42.2634 55.4346 42.4235 55.2448 42.8015 55.3309L43.0126 55.1566C43.0126 55.1566 42.6166 55.1013 42.449 55.1622C42.449 55.1622 42.6421 54.9948 43.0698 55.1167L43.2995 54.9766C43.2995 54.9766 42.9622 54.9066 42.7615 54.9297C42.7615 54.9297 42.9733 54.8135 43.3671 54.9388L43.5313 54.8646C43.5313 54.8646 43.2837 54.8149 43.2112 54.8072C43.1388 54.7995 43.1354 54.7792 43.1354 54.7792C43.2919 54.7527 43.4526 54.7709 43.5996 54.8317C43.5996 54.8317 43.9494 54.7042 43.9425 54.6818Z" fill="#86D0C1"/>
<path opacity="0.1" d="M42.5759 56.6993C43.352 56.6993 43.9811 56.5914 43.9811 56.4584C43.9811 56.3254 43.352 56.2175 42.5759 56.2175C41.7998 56.2175 41.1707 56.3254 41.1707 56.4584C41.1707 56.5914 41.7998 56.6993 42.5759 56.6993Z" fill="#86D0C1"/>
<path d="M75.0609 40.94V6.68994H9.4335V38.9751C10.2717 39.6852 11.2795 40.2824 12.3308 40.7733C12.8486 41.0156 13.3775 41.2371 13.9174 41.4378H74.2779L75.0609 40.94Z" fill="url(#paint0_linear)"/>
<path d="M74.934 40.9541V7.67041H9.577V39.0474C10.4117 39.7378 11.4154 40.3183 12.4605 40.798C12.9765 41.0314 13.5035 41.2466 14.0416 41.4436H74.1524L74.934 40.9541Z" fill="white"/>
<path d="M74.934 6.78735H9.57768V8.54771H74.934V6.78735Z" fill="#C1C1C1"/>
<path d="M10.8828 8.12269C11.1305 8.12269 11.3312 7.91892 11.3312 7.66755C11.3312 7.41618 11.1305 7.2124 10.8828 7.2124C10.6352 7.2124 10.4344 7.41618 10.4344 7.66755C10.4344 7.91892 10.6352 8.12269 10.8828 8.12269Z" fill="white"/>
<path d="M12.09 8.12245C12.3377 8.12245 12.5384 7.91867 12.5384 7.6673C12.5384 7.41593 12.3377 7.21216 12.09 7.21216C11.8424 7.21216 11.6416 7.41593 11.6416 7.6673C11.6416 7.91867 11.8424 8.12245 12.09 8.12245Z" fill="white"/>
<path d="M13.2972 8.12245C13.5449 8.12245 13.7456 7.91867 13.7456 7.6673C13.7456 7.41593 13.5449 7.21216 13.2972 7.21216C13.0496 7.21216 12.8488 7.41593 12.8488 7.6673C12.8488 7.91867 13.0496 8.12245 13.2972 8.12245Z" fill="white"/>
<path d="M37.0752 12.4163H26.2793V19.3023H37.0752V12.4163Z" fill="#86D0C1"/>
<path opacity="0.2" d="M22.1271 12.4165H11.3312V19.3025H22.1271V12.4165Z" fill="#C1C1C1"/>
<path opacity="0.2" d="M52.0232 12.4163H41.2273V19.3023H52.0232V12.4163Z" fill="#C1C1C1"/>
<path opacity="0.2" d="M22.1271 22.2607H11.3312V29.1467H22.1271V22.2607Z" fill="#C1C1C1"/>
<path opacity="0.2" d="M37.0752 22.2607H26.2793V29.1467H37.0752V22.2607Z" fill="#C1C1C1"/>
<path opacity="0.2" d="M52.0232 22.2607H41.2273V29.1467H52.0232V22.2607Z" fill="#C1C1C1"/>
<path opacity="0.2" d="M22.1271 32.1045H11.3312V38.9905H22.1271V32.1045Z" fill="#C1C1C1"/>
<path opacity="0.2" d="M37.0752 32.1045H26.2793V38.9905H37.0752V32.1045Z" fill="#C1C1C1"/>
<path opacity="0.2" d="M52.0232 32.1045H41.2273V38.9905H52.0232V32.1045Z" fill="#C1C1C1"/>
<path d="M27.542 50.1939C27.4656 50.3584 27.4092 50.5334 27.3742 50.7143C27.3184 51.0053 27.294 51.3027 27.3015 51.6001C27.306 51.8059 27.3217 51.9406 27.3217 51.9406L26.0645 52.8962C26.0645 52.8962 26.0717 52.7843 26.084 52.6199C26.1165 52.1823 26.1841 51.3701 26.2479 51.265C26.2921 51.1921 26.3228 50.8991 26.3424 50.6272C26.362 50.3552 26.3698 50.1166 26.3698 50.1166C26.3698 50.1166 27.8826 49.4899 27.542 50.1939Z" fill="#8DCABE"/>
<path d="M30.5111 50.8794C30.5111 50.8794 30.5111 51.1452 30.5021 51.4542C30.4932 51.7633 30.4764 52.1279 30.4412 52.2979C30.4088 52.4537 30.4065 52.7399 30.4127 53.0038C30.4211 53.3128 30.4412 53.591 30.4412 53.591C30.4412 53.591 29.1577 52.2497 29.2886 52.1434C29.3238 52.115 29.3585 52.0006 29.3903 51.8486C29.4295 51.6631 29.4647 51.4159 29.491 51.2057C29.5223 50.9554 29.5419 50.7539 29.5419 50.7539L30.5111 50.8794Z" fill="#8DCABE"/>
<path d="M33.139 37.7325C32.6267 38.9686 32.417 40.4348 32.417 40.4348L32.2308 41.671C32.2308 41.671 32.3242 42.2112 32.2308 42.417C32.1374 42.6228 31.9512 42.9579 31.9512 42.9579C31.9512 42.9579 32.091 44.2188 31.9512 44.3473C31.8113 44.4759 31.9512 45.2479 31.9512 45.2479L31.4853 47.8439L30.8332 51.1891C30.2046 51.7559 27.6635 50.6436 27.6635 50.6436V48.6926C27.6635 48.6926 25.5298 45.1416 28.2041 45.1416C25.0376 44.1409 27.9944 41.9244 27.9944 41.9244C27.9944 41.9244 31.8937 44.5235 29.8092 43.5716C26.9407 42.2617 27.6635 38.9421 27.6635 38.9421C27.6635 38.9421 28.0643 36.9611 28.2041 36.6007C28.344 36.2404 28.5302 37.7918 28.5302 37.7918H29.8696L29.8372 37.4073L29.8696 38.0209C29.8696 38.0209 29.8131 37.5235 29.7784 37.7621C29.6755 38.4884 29.4563 39.9935 29.3696 40.3031C29.3107 40.5263 29.2307 40.7419 29.1308 40.9466C29.1308 40.9466 29.2516 41.7186 29.1308 41.9244C29.01 42.1302 29.1124 42.362 29.1124 42.362C29.1124 42.362 29.2287 43.0054 28.8792 43.2626C28.5296 43.5197 28.8792 43.6489 28.8792 43.6489C28.8792 43.6489 28.623 44.267 28.5302 44.5235C28.4374 44.78 28.5302 45.1416 28.5302 45.1416L28.344 47.2258C28.344 47.2258 28.1807 48.1004 28.2041 48.6926C28.2276 49.2847 27.9944 50.6482 27.9944 50.6482C27.9944 50.6482 26.2014 50.6482 25.9252 50.4164C25.6489 50.1847 26.3866 47.9237 26.3866 47.9237C26.3866 47.9237 26.5963 43.9604 26.5493 43.8578C26.5023 43.7552 26.5493 42.9826 26.7126 42.8287C26.8759 42.6748 26.7126 42.3651 26.7126 42.3651C26.7126 42.3651 26.6662 41.747 26.7126 41.5931C26.759 41.4392 26.7053 40.9237 26.7053 40.9237C26.7053 40.9237 26.5493 39.6628 26.5264 38.9421C26.5034 38.2214 26.3866 36.6007 26.3866 36.6007C26.3866 36.6007 26.5085 35.5982 26.5269 35.121C26.5336 34.9454 26.6047 34.726 26.6947 34.5196C26.7955 34.2865 26.9114 34.0617 27.0415 33.8471C27.0415 33.8471 32.5585 32.0447 32.79 32.224C32.8516 32.2716 32.941 32.5948 33.0294 33.0627C33.2755 34.37 33.5159 36.8238 33.139 37.7325Z" fill="#444053"/>
<path d="M27.4464 52.7998C27.2687 53.2477 27.1793 53.7323 27.1841 54.2214C27.1912 54.6224 27.0991 55.018 26.9179 55.3655C26.8917 55.4145 26.8621 55.4612 26.8295 55.5052C26.8295 55.5052 25.956 55.4972 25.65 55.2172C25.6157 55.1871 25.5876 55.1491 25.5678 55.1059C25.3928 54.7202 25.9084 53.2436 25.9084 53.2436C26.1791 52.105 26.7288 51.4968 26.7288 51.4968C27.7081 51.2168 27.4464 52.7998 27.4464 52.7998Z" fill="#444053"/>
<path d="M26.7982 53.3857L26.7372 55.8791H27.0303C27.0303 55.8791 27.0778 53.6917 27.2087 53.3857C27.3396 53.0798 26.7982 53.3857 26.7982 53.3857Z" fill="#444053"/>
<path d="M30.633 55.0868C30.6232 55.0915 30.6128 55.0948 30.6023 55.0967C30.4513 55.1258 29.8948 55.1091 29.5833 55.0967C29.5262 55.0946 29.4721 55.0682 29.4324 55.0228C29.3926 54.9775 29.3703 54.9169 29.3702 54.8538C29.3702 54.7611 29.3702 54.648 29.3635 54.5275C29.349 54.1467 29.3076 53.6936 29.184 53.5917C28.9653 53.4062 28.7925 52.777 29.184 51.9803C29.184 51.9803 29.9345 51.3467 30.4759 53.2511C30.4759 53.2511 30.5284 53.7944 30.7639 53.9872C30.9993 54.1801 30.7382 55.0318 30.633 55.0868Z" fill="#444053"/>
<path opacity="0.1" d="M30.6011 55.0966C30.4501 55.1257 29.8937 55.109 29.5822 55.0966C29.5251 55.0945 29.471 55.068 29.4312 55.0227C29.3915 54.9774 29.3692 54.9168 29.3691 54.8537C29.3691 54.761 29.3691 54.6479 29.3624 54.5274C29.4569 54.0663 29.5928 53.5916 29.7678 53.4834C29.769 53.4828 30.2986 53.4166 30.6011 55.0966Z" fill="black"/>
<path d="M29.2791 53.4273L29.42 55.5022H29.5989V53.2505L29.2791 53.4273Z" fill="#444053"/>
<path d="M34.4296 18.448L33.6846 18.7155L33.4142 18.2604C33.2073 17.9103 32.9203 17.4313 32.7085 17.0833C32.3346 16.4713 32.8237 15.5386 32.8237 15.5386C32.8237 15.5386 32.912 14.6024 33.2266 14.3139C33.5411 14.0254 33.6287 15.5386 33.6287 15.5386C34.8918 16.1212 34.2151 17.4915 34.2151 17.4915L34.3379 18.0349L34.4296 18.448Z" fill="#F9B776"/>
<path opacity="0.1" d="M34.4296 18.4481L33.6846 18.7156L33.4142 18.2605V18.2205C33.4142 18.2205 33.8412 17.9229 34.3393 18.035L34.4296 18.4481Z" fill="black"/>
<path d="M33.2266 21.5151L33.5998 21.1944L33.4128 18.3081C33.4128 18.3081 34.3786 17.6373 35.0933 18.6869C35.0933 18.6869 35.0643 19.3283 35.0933 19.5034C35.1222 19.6784 34.8925 19.8535 35.0933 20.0278C35.294 20.2022 35.0933 20.7862 35.0933 20.7862C35.0933 20.7862 35.3202 21.1944 35.4637 21.3106C35.6072 21.4269 35.7514 22.3897 35.4637 22.5934C35.176 22.7972 34.6366 23.2643 34.6366 23.468C34.6366 23.6718 33.9468 24.1682 33.9468 24.1682L33.3411 23.3553L33.2266 21.5151Z" fill="#FF6484"/>
<path d="M25.1555 39.036C23.7634 38.4366 24.0725 36.9725 24.3346 36.2351C24.387 36.0857 24.4485 35.9398 24.5188 35.7982L25.2997 35.3171C25.2997 35.3171 25.459 35.7296 25.6294 36.2827C26.0247 37.5698 26.4793 39.6067 25.1555 39.036Z" fill="#F9B776"/>
<path opacity="0.1" d="M27.0691 52.3958C26.9749 52.5822 26.9053 52.7804 26.8622 52.9854C26.4377 52.974 26.0141 52.9411 25.5929 52.8866C25.6163 52.5855 25.6267 52.3082 25.6267 52.3082C25.6267 52.3082 27.4892 51.5982 27.0691 52.3958Z" fill="black"/>
<path opacity="0.1" d="M30.7315 53.1722C30.7315 53.1722 30.7315 53.4733 30.7204 53.8234C30.2265 53.9516 29.7188 53.6953 29.4732 53.5433C29.5118 53.2598 29.536 53.0315 29.536 53.0315L30.7315 53.1722Z" fill="black"/>
<path opacity="0.1" d="M33.8378 32.9897C33.6095 33.1088 33.4563 33.1907 33.4563 33.1907C33.4563 33.1907 30.2396 34.7361 29.3249 34.6486C28.6171 34.5785 26.8104 34.6184 26.0233 34.6381C26.1477 34.374 26.2906 34.1194 26.451 33.8762C26.451 33.8762 33.2569 31.8351 33.5425 32.0381C33.6184 32.0934 33.7288 32.4583 33.8378 32.9897Z" fill="black"/>
<path d="M28.4012 21.6609C28.4012 21.6609 26.0778 21.1973 25.6446 21.4858C25.2114 21.7743 24.841 23.0893 24.841 24.2846C24.841 25.4799 24.6402 26.7046 24.525 27.054C24.4098 27.4034 26.3344 30.2316 26.3344 30.2316L25.6446 34.5177C25.6446 34.5177 28.4039 34.4301 29.3228 34.5177C30.2417 34.6052 33.457 33.0598 33.457 33.0598C33.457 33.0598 35.3527 32.0396 35.7548 32.0095C36.157 31.9793 34.9505 29.7645 34.9505 29.7645C34.9505 29.7645 33.0831 26.1794 33.399 25.5961C33.715 25.0128 33.9468 24.1677 33.9468 24.1677L33.6019 21.1945C33.6019 21.1945 32.6496 20.4796 32.2184 20.8003C31.7873 21.121 30.7584 21.4858 30.7584 21.4858L28.4012 21.6609Z" fill="#FF6484"/>
<path opacity="0.1" d="M25.2852 26.8503L24.565 27.054L24.3657 29.7975C24.3657 29.7975 24.6244 30.5264 24.3657 30.7596C24.107 30.9928 24.0497 35.9784 24.0497 35.9784C24.0497 35.9784 24.883 36.5904 25.8592 36.124C25.8592 36.124 25.7157 35.5701 26.1468 33.5584C26.578 31.5467 26.5773 30.5264 26.5773 30.5264C26.5773 30.5264 26.5773 28.0189 26.7787 27.6107C26.9801 27.2025 26.7787 26.1823 26.7787 26.1823C26.7787 26.1823 26.3765 25.6284 26.4048 25.4246C26.4331 25.2209 25.2852 26.8503 25.2852 26.8503Z" fill="black"/>
<path opacity="0.1" d="M25.6294 36.2849C25.2065 36.4295 24.7462 36.4125 24.3346 36.2373C24.387 36.0879 24.4485 35.942 24.5188 35.8004L25.2997 35.3193C25.2997 35.3193 25.4618 35.7318 25.6294 36.2849Z" fill="black"/>
<path d="M25.2417 26.8501L24.5236 27.0539L24.3229 29.7973C24.3229 29.7973 24.5816 30.5263 24.3229 30.7595C24.0642 30.9926 24.0069 35.9782 24.0069 35.9782C24.0069 35.9782 24.841 36.5895 25.8164 36.1211C25.8164 36.1211 25.6729 35.5672 26.1033 33.5554C26.5338 31.5437 26.5345 30.5235 26.5345 30.5235C26.5345 30.5235 26.5345 28.016 26.7352 27.6078C26.936 27.1995 26.7352 26.1793 26.7352 26.1793C26.7352 26.1793 26.3331 25.6254 26.362 25.4217C26.391 25.2179 25.2417 26.8501 25.2417 26.8501Z" fill="#FF6484"/>
<path opacity="0.1" d="M32.5947 27.2871C32.5947 27.2871 32.2215 30.5522 31.1295 31.1649C31.1295 31.1649 33.5708 30.4654 32.5947 27.2871Z" fill="black"/>
<path opacity="0.1" d="M27.1091 27.5791C27.1091 27.5791 28.4584 28.2492 28.1439 28.7156C27.8293 29.1819 27.1091 27.5791 27.1091 27.5791Z" fill="black"/>
<path opacity="0.1" d="M27.1091 28.9199C27.1091 28.9199 27.9707 29.8239 27.7989 30.1446C27.6272 30.4653 27.1091 28.9199 27.1091 28.9199Z" fill="black"/>
<path opacity="0.1" d="M34.0592 21.4277C34.0592 21.4277 34.3972 22.0103 34.4296 22.3898C34.4621 22.7694 34.0592 21.4277 34.0592 21.4277Z" fill="black"/>
<path opacity="0.1" d="M34.0592 20.6405C34.0592 20.6405 34.2289 20.4941 34.6621 20.6405C35.0953 20.7868 34.0592 20.6405 34.0592 20.6405Z" fill="black"/>
<path opacity="0.1" d="M32.4009 37.6803C31.6892 37.7828 30.9635 37.6885 30.3003 37.4072L29.9381 38.3483L29.1581 37.6507C29.2174 37.2852 30.0727 37.1559 30.3003 37.0571C30.3003 37.0571 31.0978 37.702 32.4009 37.6803Z" fill="black"/>
<path opacity="0.1" d="M26.509 38.905C26.509 38.905 28.2756 39.2768 28.7709 39.211L26.509 38.905Z" fill="black"/>
<path opacity="0.1" d="M26.6925 39.375C26.6925 39.375 27.4465 39.3421 27.8231 39.4955L26.6925 39.375Z" fill="black"/>
<path opacity="0.1" d="M26.7787 39.6921C27.1227 39.7663 27.4719 39.8132 27.8231 39.8322L26.7787 39.6921Z" fill="black"/>
<path opacity="0.1" d="M26.7352 43.7045C26.7676 43.6828 28.2432 43.3327 28.4267 43.5841L26.7352 43.7045Z" fill="black"/>
<path opacity="0.1" d="M26.7352 44.1639C26.7352 44.1639 28.0169 44.0105 28.0494 44.1639C28.0818 44.3172 26.7352 44.1639 26.7352 44.1639Z" fill="black"/>
<path opacity="0.1" d="M26.7352 44.5791C26.7352 44.5791 28.1032 44.2921 28.2646 44.3621C28.426 44.4321 26.7352 44.5791 26.7352 44.5791Z" fill="black"/>
<path opacity="0.1" d="M26.8001 54.3751L25.2493 55.4576C25.2493 55.4576 25.2583 55.3309 25.2735 55.1446C25.6184 54.2834 26.0675 53.8289 26.0675 53.8289C26.4172 53.7365 26.6379 53.8219 26.7752 53.9893C26.7807 54.2218 26.8001 54.3751 26.8001 54.3751Z" fill="black"/>
<path opacity="0.1" d="M26.2992 58.2508C26.2669 58.3063 26.2305 58.3592 26.1903 58.4091C26.1903 58.4091 25.1127 58.4 24.7354 58.0828C24.921 57.4596 25.5128 55.5739 25.7902 55.8946C26.0509 56.1957 26.2323 57.6444 26.2992 58.2508Z" fill="black"/>
<path opacity="0.1" d="M30.6452 56.2441C30.6452 56.2441 29.062 54.7246 29.2235 54.6042C29.2669 54.572 29.3097 54.4425 29.349 54.2702C29.6532 54.2163 30.1768 54.3451 30.61 55.5789C30.6204 55.929 30.6452 56.2441 30.6452 56.2441Z" fill="black"/>
<g opacity="0.1">
<path opacity="0.1" d="M27.6222 16.1997C27.6195 16.2267 27.6182 16.2538 27.6182 16.2809C27.6202 16.2543 27.6216 16.227 27.6222 16.1997Z" fill="black"/>
<path opacity="0.1" d="M32.6361 19.0028C32.6609 18.6316 32.7423 18.2591 32.7119 17.8894C32.6892 18.2605 32.6078 18.633 32.6361 19.0028Z" fill="black"/>
<path opacity="0.1" d="M26.6559 20.8479C26.6159 20.4138 26.4165 20.0077 26.3696 19.5742C26.3602 19.6537 26.3568 19.7337 26.3592 19.8137C26.3758 20.2863 26.6069 20.7282 26.6538 21.1987C26.6652 21.0821 26.6659 20.9647 26.6559 20.8479Z" fill="black"/>
<path opacity="0.1" d="M32.912 22.5724C32.8474 22.8574 32.8242 23.1504 32.843 23.4421C32.8499 23.272 32.873 23.1029 32.912 22.9373C33.0231 22.4884 33.27 22.0704 33.29 21.6068C33.2933 21.5245 33.2896 21.442 33.279 21.3604C33.2252 21.777 33.0106 22.1649 32.912 22.5724Z" fill="black"/>
<path opacity="0.1" d="M27.0795 22.6104C26.7918 22.8551 26.4356 23.0021 26.0613 23.0305C25.9826 23.1551 25.9012 23.277 25.8205 23.3974C26.2781 23.4247 26.7286 23.2731 27.0795 22.9738C27.3315 23.825 27.4666 24.7074 27.481 25.5961C27.5014 24.5857 27.366 23.5782 27.0795 22.6104Z" fill="black"/>
<path opacity="0.1" d="M32.9251 26.4818C32.8492 26.874 32.6851 27.3095 32.3139 27.4418C32.221 27.4629 32.1314 27.4968 32.0477 27.5427C31.8773 27.6645 31.889 27.9166 31.8524 28.1253C31.7931 28.4712 31.5579 28.7653 31.2757 28.9655C30.9936 29.1658 30.6659 29.2946 30.3424 29.4179L29.0524 29.908C29.0457 30.0395 29.0249 30.1698 28.9903 30.2967L30.3424 29.782C30.6659 29.6588 30.9943 29.5334 31.2757 29.3303C31.5572 29.1273 31.7931 28.8325 31.8524 28.4866C31.889 28.2765 31.8773 28.0258 32.0477 27.904C32.1316 27.8587 32.2212 27.825 32.3139 27.8039C32.6851 27.6708 32.8492 27.2353 32.9251 26.8432C33.0037 26.4351 33.0363 26.0193 33.0224 25.6038C33.0133 25.8986 32.9808 26.1923 32.9251 26.4818Z" fill="black"/>
<path opacity="0.1" d="M28.2253 27.6267C28.1842 27.5799 28.1342 27.542 28.0783 27.5153C28.0186 27.4955 27.9556 27.4874 27.8928 27.4915H27.3292C27.3071 27.6134 27.2837 27.7352 27.2602 27.8564H27.8955C27.9583 27.8519 28.0214 27.86 28.0811 27.8802C28.137 27.9065 28.187 27.9442 28.228 27.9908C28.6626 28.4305 28.9917 29.0229 29.0483 29.6307C29.1179 28.9039 28.7468 28.156 28.2253 27.6267Z" fill="black"/>
</g>
<path opacity="0.1" d="M25.0734 30.0131C25.0734 30.0131 25.5867 29.7946 25.7012 30.0131C25.8157 30.2316 25.0734 30.0131 25.0734 30.0131Z" fill="black"/>
<path opacity="0.1" d="M25.2548 30.3876C25.2548 30.3876 25.7681 30.1691 25.8833 30.3876C25.9985 30.6061 25.2548 30.3876 25.2548 30.3876Z" fill="black"/>
<path d="M27.4412 21.6719C34.7077 27.064 32.2721 18.4539 32.2721 17.2684C32.2721 16.0828 30.8754 15.5698 29.9562 15.5698C29.037 15.5698 28.2918 16.5309 28.2918 17.7165C28.2918 18.9021 26.522 21.6719 27.4412 21.6719Z" fill="#444053"/>
<path opacity="0.1" d="M57.0638 2.116C57.0638 2.116 54.439 1.95564 54.7487 3.82244C54.7487 3.82244 54.6873 4.15224 54.9819 4.30209C54.9819 4.30209 54.9867 4.16205 55.2509 4.21036C55.345 4.22644 55.4406 4.23114 55.5358 4.22437C55.6643 4.21533 55.7864 4.16395 55.8835 4.07802C55.8835 4.07802 56.6209 3.76922 56.9079 2.54523C56.9079 2.54523 57.1203 2.27775 57.1148 2.20912L56.672 2.40169C56.672 2.40169 56.823 2.72589 56.7037 2.99548C56.7037 2.99548 56.6899 2.41289 56.6044 2.42689C56.5871 2.42689 56.3746 2.53893 56.3746 2.53893C56.3746 2.53893 56.6347 3.10401 56.4381 3.51504C56.4381 3.51504 56.5126 2.81902 56.2932 2.58024L55.9801 2.7686C55.9801 2.7686 56.2843 3.35189 56.078 3.82804C56.078 3.82804 56.1311 3.09771 55.9145 2.81342L55.6317 3.03679C55.6317 3.03679 55.918 3.60887 55.7455 4.0038C55.7455 4.0038 55.7227 3.15303 55.5724 3.08931C55.5724 3.08931 55.3254 3.31058 55.2882 3.4016C55.2882 3.4016 55.4834 3.82174 55.362 4.03881C55.362 4.03881 55.2875 3.47303 55.224 3.47023C55.224 3.47023 54.9777 3.84555 54.9522 4.10043C54.9642 3.8626 55.0372 3.63207 55.164 3.43171C55.0219 3.45901 54.8909 3.52818 54.7873 3.63058C54.7873 3.63058 54.8253 3.36519 55.2247 3.34139C55.2247 3.34139 55.4282 3.0571 55.4827 3.03959C55.4827 3.03959 55.0853 3.00598 54.8446 3.11451C54.8446 3.11451 55.0564 2.86383 55.5558 2.97447L55.8317 2.7434C55.8317 2.7434 55.3088 2.67337 55.0867 2.7511C55.0867 2.7511 55.342 2.52983 55.9069 2.69088L56.2105 2.50672C56.2105 2.50672 55.7648 2.40869 55.4992 2.4444C55.4992 2.4444 55.7793 2.29105 56.2994 2.457L56.5167 2.35827C56.5167 2.35827 56.1898 2.29315 56.0946 2.28265C55.9994 2.27215 55.9938 2.24554 55.9938 2.24554C56.2007 2.21059 56.4131 2.23484 56.6071 2.31556C56.6071 2.31556 57.0714 2.1454 57.0638 2.116Z" fill="#86D0C1"/>
<path opacity="0.1" d="M53.3228 0.602051C53.3228 0.602051 51.1153 2.05221 52.4543 3.36933C52.4543 3.36933 52.5971 3.67183 52.922 3.61581C52.922 3.61581 52.8448 3.50097 53.0855 3.37984C53.1709 3.33621 53.2508 3.28238 53.3235 3.21948C53.4218 3.13487 53.4903 3.0201 53.5187 2.89248C53.5187 2.89248 53.9326 2.19926 53.4498 1.04109C53.4498 1.04109 53.4649 0.697981 53.418 0.647565L53.1738 1.0677C53.1738 1.0677 53.4849 1.23785 53.5463 1.52634C53.5463 1.52634 53.1952 1.0663 53.1324 1.12862C53.12 1.14122 53.0124 1.35759 53.0124 1.35759C53.0124 1.35759 53.5525 1.65589 53.6333 2.10473C53.6333 2.10473 53.2883 1.49904 52.9703 1.43952L52.8268 1.77562C52.8268 1.77562 53.4132 2.06272 53.5249 2.57038C53.5249 2.57038 53.1407 1.94998 52.8006 1.85125L52.704 2.20136C52.704 2.20136 53.2697 2.49265 53.3601 2.91559C53.3601 2.91559 52.8455 2.24477 52.6868 2.28539C52.6868 2.28539 52.6178 2.61169 52.6399 2.70552C52.6399 2.70552 53.0414 2.92399 53.0717 3.17467C53.0717 3.17467 52.6813 2.76364 52.6309 2.79795C52.6309 2.79795 52.6516 3.24819 52.7806 3.47086C52.6516 3.27206 52.576 3.04252 52.5612 2.80495C52.4628 2.91236 52.3975 3.04676 52.3736 3.19148C52.3736 3.19148 52.2494 2.9548 52.5578 2.69572C52.5578 2.69572 52.5578 2.34561 52.5888 2.29729C52.5888 2.29729 52.2494 2.50736 52.1184 2.74123C52.1184 2.74123 52.1432 2.41213 52.6116 2.20346L52.7013 1.84985C52.7013 1.84985 52.2377 2.10613 52.106 2.30429C52.106 2.30429 52.1825 1.97239 52.7309 1.76232L52.8689 1.43111C52.8689 1.43111 52.455 1.62088 52.2591 1.80924C52.2591 1.80924 52.3971 1.51654 52.9117 1.33799L53.029 1.12792C53.029 1.12792 52.7275 1.27216 52.6447 1.32118C52.5619 1.3702 52.5419 1.35199 52.5419 1.35199C52.6881 1.19935 52.8732 1.09098 53.0766 1.03899C53.0766 1.03899 53.3463 0.621657 53.3228 0.602051Z" fill="#86D0C1"/>
<path opacity="0.1" d="M49.9633 2.2917C49.9633 2.2917 48.6437 4.60244 50.4255 5.15772C50.4255 5.15772 50.6883 5.36148 50.9525 5.15772C50.9525 5.15772 50.8332 5.09189 50.9932 4.87273C51.0488 4.7945 51.0951 4.70989 51.1312 4.62064C51.1811 4.49989 51.191 4.36599 51.1595 4.23902C51.1595 4.23902 51.2181 3.43097 50.2696 2.62081C50.2696 2.62081 50.1316 2.30851 50.0627 2.2854L50.033 2.77556C50.033 2.77556 50.3862 2.78396 50.5704 3.01293C50.5704 3.01293 50.0516 2.76435 50.0254 2.84768C50.0199 2.86449 50.0206 3.10676 50.0206 3.10676C50.0206 3.10676 50.6407 3.12567 50.9167 3.48838C50.9167 3.48838 50.3372 3.10816 50.0289 3.20059L50.0509 3.56611C50.0509 3.56611 50.7014 3.5521 51.0277 3.95333C51.0277 3.95333 50.4069 3.57731 50.062 3.64593L50.1309 4.00235C50.1309 4.00235 50.7656 4.00235 51.0346 4.33705C51.0346 4.33705 50.2758 3.97574 50.1523 4.08287C50.1523 4.08287 50.2358 4.40638 50.2993 4.4813C50.2993 4.4813 50.7546 4.4911 50.8939 4.70047C50.8939 4.70047 50.362 4.51351 50.3324 4.56813C50.3324 4.56813 50.5524 4.95955 50.767 5.0982C50.5634 4.98106 50.3934 4.81213 50.2737 4.60804C50.2341 4.74905 50.236 4.89877 50.2793 5.03868C50.2793 5.03868 50.0627 4.88533 50.2213 4.51211C50.2213 4.51211 50.0627 4.19981 50.0716 4.14309C50.0716 4.14309 49.8647 4.4883 49.8509 4.75509C49.8509 4.75509 49.7253 4.45049 50.0495 4.04926L49.9716 3.69215C49.9716 3.69215 49.6729 4.13399 49.6439 4.37137C49.6439 4.37137 49.5639 4.04016 49.9592 3.60112L49.933 3.24331C49.933 3.24331 49.6474 3.60392 49.5591 3.8609C49.5591 3.8609 49.5494 3.5374 49.9295 3.14037L49.9399 2.8988C49.9399 2.8988 49.7329 3.16558 49.6839 3.24891C49.635 3.33223 49.606 3.32033 49.606 3.32033C49.6682 3.11683 49.7847 2.9348 49.9426 2.79446C49.9426 2.79446 49.9923 2.298 49.9633 2.2917Z" fill="#86D0C1"/>
<path d="M61.2938 28.6328C61.0986 28.6328 60.9077 28.6916 60.7454 28.8017C60.5831 28.9118 60.4565 29.0683 60.3818 29.2514C60.3071 29.4345 60.2876 29.636 60.3257 29.8303C60.3637 30.0247 60.4578 30.2032 60.5958 30.3434C60.7339 30.4835 60.9098 30.5789 61.1013 30.6176C61.2927 30.6563 61.4912 30.6364 61.6716 30.5606C61.852 30.4847 62.0062 30.3563 62.1146 30.1915C62.2231 30.0268 62.281 29.833 62.281 29.6348C62.2803 29.3693 62.176 29.1149 61.9911 28.9271C61.8061 28.7394 61.5554 28.6336 61.2938 28.6328ZM58.4076 20.77V21.772H59.3947L61.1717 25.4258L60.4288 26.6533C60.3477 26.7985 60.3051 26.9626 60.3053 27.1294C60.3053 27.8003 60.7572 28.1315 61.3697 28.1315H67.1416V27.168H61.4904C61.474 27.169 61.4575 27.1664 61.442 27.1605C61.4266 27.1546 61.4126 27.1454 61.4009 27.1335C61.3892 27.1217 61.3802 27.1074 61.3743 27.0918C61.3685 27.0761 61.366 27.0593 61.367 27.0426C61.38 26.9993 61.3976 26.9575 61.4194 26.918L61.9126 26.1274H65.5901C65.7678 26.1289 65.9425 26.0806 66.0948 25.9878C66.2472 25.895 66.3714 25.7614 66.4538 25.6016L68.2315 22.4989C68.2662 22.4201 68.2831 22.3345 68.2812 22.2482C68.2805 22.1837 68.2671 22.12 68.2417 22.0609C68.2163 22.0018 68.1795 21.9485 68.1334 21.9041C68.0874 21.8597 68.033 21.8251 67.9735 21.8024C67.9141 21.7797 67.8507 21.7694 67.7873 21.772H60.4812L60.0121 20.77H58.4076ZM66.1537 28.6328C65.9585 28.633 65.7677 28.6918 65.6055 28.802C65.4432 28.9122 65.3168 29.0688 65.2422 29.2519C65.1676 29.435 65.1481 29.6364 65.1863 29.8308C65.2245 30.0251 65.3186 30.2036 65.4566 30.3436C65.5947 30.4837 65.7706 30.5791 65.9621 30.6177C66.1536 30.6563 66.352 30.6364 66.5323 30.5605C66.7127 30.4847 66.8668 30.3562 66.9752 30.1915C67.0837 30.0267 67.1416 29.833 67.1416 29.6348C67.1408 29.3692 67.0365 29.1147 66.8514 28.9269C66.6663 28.7391 66.4154 28.6334 66.1537 28.6328Z" fill="#86D0C1"/>
<path d="M64.8907 23.5422H64.0629V22.7019H63.442V23.5422H62.6142V24.1724H63.442V25.0126H64.0629V24.1724H64.8907V23.5422Z" fill="white"/>
</g>
<defs>
<linearGradient id="paint0_linear" x1="42.2469" y1="41.4378" x2="42.2469" y2="6.68994" gradientUnits="userSpaceOnUse">
<stop stop-color="#808080" stop-opacity="0.25"/>
<stop offset="0.54" stop-color="#808080" stop-opacity="0.12"/>
<stop offset="1" stop-color="#808080" stop-opacity="0.1"/>
</linearGradient>
<clipPath id="clip0">
<rect width="77" height="60.0147" fill="white"/>
</clipPath>
</defs>
</svg>
