<svg width="36" height="36" viewBox="0 0 36 36" fill="none" xmlns="http://www.w3.org/2000/svg">
<path d="M36 17.9139C36 18.6827 35.9521 19.4399 35.8586 20.1837C35.6421 21.8797 35.1865 23.5033 34.5279 25.0159C34.5279 25.0159 34.5279 25.0182 34.5255 25.0203C31.7639 31.3785 25.4025 35.8274 17.9999 35.8274C9.61969 35.8274 2.58148 30.1291 0.574055 22.415V22.4126C0.197997 20.9751 0 19.467 0 17.9139C0 16.3266 0.207223 14.787 0.599061 13.3223C2.63388 5.6535 9.65364 0.00073243 17.9999 0.00073243C27.9411 0.000434681 36 8.02061 36 17.9139Z" fill="#9FADB7"/>
<path d="M35.0496 17.0483C35.0496 17.2662 35.0461 17.4845 35.0374 17.7007C35.0184 18.2095 34.9784 18.7115 34.9162 19.2082C34.7102 20.8229 34.2793 22.3667 33.6561 23.8069C33.6561 23.8069 33.6562 23.8087 33.6526 23.8119C31.0374 29.8628 25.0125 34.0962 18.0014 34.0962C10.0643 34.0962 3.39884 28.6736 1.49681 21.3317V21.3299C1.21455 20.2482 1.03827 19.1233 0.977532 17.9704C0.961751 17.664 0.953125 17.3576 0.953125 17.048C0.953125 15.5369 1.14874 14.0729 1.52093 12.6779C3.44737 5.37917 10.0967 0 18.0011 0C27.4168 0.00029775 35.0496 7.63313 35.0496 17.0483Z" fill="#E7E6E2"/>
<path d="M35.0493 17.0483C35.0493 17.2662 35.0458 17.4845 35.0371 17.7006C34.3916 16.496 33.2908 14.5177 31.4233 11.3056C27.2798 4.17983 18.0014 3.37529 10.4761 5.63045C2.94895 7.88739 1.3012 20.484 1.3012 20.484L0.97755 17.971C0.961769 17.6646 0.953125 17.3582 0.953125 17.0486C0.953125 15.5375 1.14876 14.0734 1.52095 12.6785C3.44739 5.37975 10.0967 0.00061036 18.0011 0.00061036C27.4165 0.000312611 35.0493 7.63312 35.0493 17.0483Z" fill="white"/>
<path d="M32.9696 17.626C32.9696 18.2772 32.9297 18.9186 32.852 19.5486C32.6722 20.9852 32.2931 22.3602 31.7453 23.6415C31.7453 23.6415 31.7453 23.6435 31.7435 23.6453C29.4467 29.0307 24.1557 32.799 17.9985 32.799C11.0285 32.799 5.17471 27.9725 3.50494 21.4384V21.4366C3.1923 20.2188 3.02734 18.9418 3.02734 17.626C3.02734 16.2817 3.19974 14.9775 3.52578 13.7368C5.21819 7.24111 11.0568 2.453 17.9985 2.453C26.2667 2.453 32.9696 9.24616 32.9696 17.626Z" fill="url(#paint0_radial_26736_242210)"/>
<path d="M32.5969 17.0479C32.5969 17.6744 32.5581 18.2913 32.4822 18.8972C32.3068 20.279 31.9373 21.602 31.4032 22.8343C31.4032 22.8343 31.4032 22.8361 31.4014 22.8379C29.162 28.0184 24.0035 31.6436 18.0006 31.6436C11.205 31.6436 5.49778 27.0005 3.86998 20.715V20.7132C3.56509 19.5418 3.4043 18.313 3.4043 17.0476C3.4043 15.7542 3.57253 14.4997 3.89023 13.3061C5.54006 7.0575 11.2327 2.45129 18.0003 2.45129C26.0618 2.45189 32.5969 8.98692 32.5969 17.0479Z" fill="#586686"/>
<path d="M31.6743 17.0486C31.6743 17.6354 31.638 18.2134 31.5668 18.7812C31.4025 20.0758 31.0562 21.315 30.5563 22.4694C30.5563 22.4694 30.5563 22.4712 30.5545 22.473C28.4568 27.326 23.6247 30.7218 18.0011 30.7218C11.6352 30.7218 6.28909 26.3723 4.76432 20.4843V20.4825C4.47878 19.3853 4.32812 18.2342 4.32812 17.0486C4.32812 15.837 4.48563 14.6618 4.78338 13.5438C6.329 7.69031 11.6614 3.37561 18.0011 3.37561C25.5526 3.37561 31.6743 9.49735 31.6743 17.0486Z" fill="#A9C1D3"/>
<path d="M31.6742 17.0483C31.6742 17.6351 31.6378 18.2131 31.5667 18.7809C29.8549 9.34311 23.9169 6.04583 14.8856 6.83695C10.0879 7.25737 6.81683 10.513 4.7832 13.5438C6.32882 7.69031 11.6612 3.37561 18.0009 3.37561C25.5524 3.37531 31.6742 9.49706 31.6742 17.0483Z" fill="#C4D8E6"/>
<path opacity="0.43" d="M30.5538 22.4733C28.4562 27.3263 23.624 30.7222 18.0004 30.7222C11.6346 30.7222 6.28845 26.3726 4.76367 20.4846C6.70381 23.3472 11.2386 28.6695 18.0004 28.4149C27.0872 28.074 30.4499 22.6427 30.5538 22.4733Z" fill="#C4D8E6"/>
<mask id="path-9-outside-1_26736_242210" maskUnits="userSpaceOnUse" x="12.2715" y="9.54541" width="12" height="15" fill="black">
<rect fill="white" x="12.2715" y="9.54541" width="12" height="15"/>
<path d="M15.101 23.5454C14.717 23.5454 14.423 23.4434 14.219 23.2394C14.015 23.0354 13.913 22.7534 13.913 22.3934C13.913 22.0214 14.015 21.7394 14.219 21.5474C14.423 21.3554 14.717 21.2594 15.101 21.2594H16.919V13.1414H18.233L15.605 14.7434C15.329 14.9114 15.071 14.9774 14.831 14.9414C14.603 14.9054 14.405 14.8034 14.237 14.6354C14.069 14.4674 13.955 14.2694 13.895 14.0414C13.847 13.8014 13.871 13.5674 13.967 13.3394C14.063 13.0994 14.243 12.8954 14.507 12.7274L17.009 11.2154C17.261 11.0594 17.513 10.9334 17.765 10.8374C18.029 10.7414 18.287 10.6934 18.539 10.6934C18.899 10.6934 19.181 10.7894 19.385 10.9814C19.601 11.1614 19.709 11.4434 19.709 11.8274V21.2594H21.347C21.719 21.2594 22.007 21.3554 22.211 21.5474C22.415 21.7394 22.517 22.0214 22.517 22.3934C22.517 22.7654 22.415 23.0534 22.211 23.2574C22.007 23.4494 21.719 23.5454 21.347 23.5454H15.101Z"/>
</mask>
<path d="M15.101 23.5454C14.717 23.5454 14.423 23.4434 14.219 23.2394C14.015 23.0354 13.913 22.7534 13.913 22.3934C13.913 22.0214 14.015 21.7394 14.219 21.5474C14.423 21.3554 14.717 21.2594 15.101 21.2594H16.919V13.1414H18.233L15.605 14.7434C15.329 14.9114 15.071 14.9774 14.831 14.9414C14.603 14.9054 14.405 14.8034 14.237 14.6354C14.069 14.4674 13.955 14.2694 13.895 14.0414C13.847 13.8014 13.871 13.5674 13.967 13.3394C14.063 13.0994 14.243 12.8954 14.507 12.7274L17.009 11.2154C17.261 11.0594 17.513 10.9334 17.765 10.8374C18.029 10.7414 18.287 10.6934 18.539 10.6934C18.899 10.6934 19.181 10.7894 19.385 10.9814C19.601 11.1614 19.709 11.4434 19.709 11.8274V21.2594H21.347C21.719 21.2594 22.007 21.3554 22.211 21.5474C22.415 21.7394 22.517 22.0214 22.517 22.3934C22.517 22.7654 22.415 23.0534 22.211 23.2574C22.007 23.4494 21.719 23.5454 21.347 23.5454H15.101Z" fill="white"/>
<path d="M14.219 21.5474L13.5336 20.8192L14.219 21.5474ZM16.919 21.2594V22.2594H17.919V21.2594H16.919ZM16.919 13.1414V12.1414H15.919V13.1414H16.919ZM18.233 13.1414L18.7535 13.9953L21.7947 12.1414H18.233V13.1414ZM15.605 14.7434L16.1249 15.5976L16.1255 15.5973L15.605 14.7434ZM14.831 14.9414L14.675 15.9292L14.6827 15.9303L14.831 14.9414ZM14.237 14.6354L14.9441 13.9283V13.9283L14.237 14.6354ZM13.895 14.0414L12.9144 14.2375L12.9203 14.2669L12.9279 14.2959L13.895 14.0414ZM13.967 13.3394L14.8886 13.7275L14.8921 13.7192L14.8955 13.7108L13.967 13.3394ZM14.507 12.7274L13.9898 11.8716L13.9799 11.8775L13.9701 11.8837L14.507 12.7274ZM17.009 11.2154L17.5262 12.0713L17.5354 12.0657L17.009 11.2154ZM17.765 10.8374L17.4233 9.89762L17.4161 9.90022L17.409 9.90292L17.765 10.8374ZM19.385 10.9814L18.6996 11.7096L18.7216 11.7303L18.7448 11.7496L19.385 10.9814ZM19.709 21.2594H18.709V22.2594H19.709V21.2594ZM22.211 21.5474L22.8964 20.8192L22.8964 20.8192L22.211 21.5474ZM22.211 23.2574L22.8964 23.9856L22.9074 23.9752L22.9181 23.9645L22.211 23.2574ZM15.101 22.5454C14.9955 22.5454 14.9405 22.5312 14.9203 22.5242C14.9046 22.5187 14.913 22.5192 14.9261 22.5323L13.5119 23.9465C13.9591 24.3937 14.5425 24.5454 15.101 24.5454V22.5454ZM14.9261 22.5323C14.932 22.5382 14.933 22.5434 14.9299 22.5348C14.9253 22.5222 14.913 22.48 14.913 22.3934H12.913C12.913 22.9492 13.0764 23.511 13.5119 23.9465L14.9261 22.5323ZM14.913 22.3934C14.913 22.2966 14.9265 22.2523 14.9299 22.243C14.9313 22.2391 14.9304 22.2426 14.9253 22.2507C14.9199 22.2589 14.9127 22.2678 14.9044 22.2756L13.5336 20.8192C13.0691 21.2564 12.913 21.8401 12.913 22.3934H14.913ZM14.9044 22.2756C14.8885 22.2905 14.881 22.2892 14.9029 22.282C14.9289 22.2735 14.99 22.2594 15.101 22.2594V20.2594C14.558 20.2594 13.9827 20.3965 13.5336 20.8192L14.9044 22.2756ZM15.101 22.2594H16.919V20.2594H15.101V22.2594ZM17.919 21.2594V13.1414H15.919V21.2594H17.919ZM16.919 14.1414H18.233V12.1414H16.919V14.1414ZM17.7125 12.2876L15.0845 13.8896L16.1255 15.5973L18.7535 13.9953L17.7125 12.2876ZM15.0851 13.8892C15.0142 13.9323 14.9719 13.9462 14.9567 13.9501C14.9444 13.9532 14.9549 13.9488 14.9793 13.9525L14.6827 15.9303C15.2214 16.0112 15.7156 15.8468 16.1249 15.5976L15.0851 13.8892ZM14.987 13.9536C14.9744 13.9517 14.9703 13.9494 14.9695 13.9489C14.9684 13.9484 14.9598 13.944 14.9441 13.9283L13.5299 15.3425C13.8426 15.6553 14.2318 15.8592 14.675 15.9292L14.987 13.9536ZM14.9441 13.9283C14.9003 13.8845 14.8766 13.8423 14.8621 13.7869L12.9279 14.2959C13.0333 14.6965 13.2377 15.0503 13.5299 15.3425L14.9441 13.9283ZM14.8756 13.8453C14.8673 13.8038 14.8694 13.7731 14.8886 13.7275L13.0454 12.9514C12.8726 13.3617 12.8267 13.799 12.9144 14.2375L14.8756 13.8453ZM14.8955 13.7108C14.8984 13.7034 14.9187 13.6507 15.0439 13.5711L13.9701 11.8837C13.5673 12.1401 13.2276 12.4954 13.0385 12.968L14.8955 13.7108ZM15.0242 13.5833L17.5262 12.0713L16.4918 10.3596L13.9898 11.8716L15.0242 13.5833ZM17.5354 12.0657C17.7386 11.9398 17.9338 11.8432 18.121 11.7719L17.409 9.90292C17.0922 10.0236 16.7834 10.179 16.4826 10.3651L17.5354 12.0657ZM18.1067 11.7772C18.2737 11.7165 18.4161 11.6934 18.539 11.6934V9.69341C18.1579 9.69341 17.7843 9.76633 17.4233 9.89762L18.1067 11.7772ZM18.539 11.6934C18.6315 11.6934 18.6801 11.7059 18.6982 11.7121C18.7127 11.717 18.7082 11.7177 18.6996 11.7096L20.0704 10.2532C19.6325 9.84108 19.0784 9.69341 18.539 9.69341V11.6934ZM18.7448 11.7496C18.7308 11.7379 18.718 11.724 18.708 11.7097C18.6982 11.6957 18.6944 11.6863 18.6941 11.6856C18.694 11.6853 18.6978 11.6951 18.7016 11.7186C18.7055 11.7423 18.709 11.7778 18.709 11.8274H20.709C20.709 11.2612 20.5446 10.646 20.0252 10.2132L18.7448 11.7496ZM18.709 11.8274V21.2594H20.709V11.8274H18.709ZM19.709 22.2594H21.347V20.2594H19.709V22.2594ZM21.347 22.2594C21.4488 22.2594 21.5037 22.2727 21.5258 22.2801C21.5439 22.2861 21.5378 22.2871 21.5256 22.2756L22.8964 20.8192C22.4527 20.4017 21.8881 20.2594 21.347 20.2594V22.2594ZM21.5256 22.2756C21.5173 22.2678 21.5101 22.2589 21.5047 22.2507C21.4996 22.2426 21.4987 22.2391 21.5001 22.243C21.5035 22.2523 21.517 22.2966 21.517 22.3934H23.517C23.517 21.8401 23.3609 21.2564 22.8964 20.8192L21.5256 22.2756ZM21.517 22.3934C21.517 22.4896 21.5037 22.5382 21.4979 22.5546C21.4936 22.5666 21.4944 22.5598 21.5039 22.5503L22.9181 23.9645C23.3596 23.523 23.517 22.9504 23.517 22.3934H21.517ZM21.5256 22.5292C21.5378 22.5177 21.5439 22.5187 21.5258 22.5247C21.5037 22.5321 21.4488 22.5454 21.347 22.5454V24.5454C21.8881 24.5454 22.4527 24.4032 22.8964 23.9856L21.5256 22.5292ZM21.347 22.5454H15.101V24.5454H21.347V22.5454Z" fill="#4F5E7F" mask="url(#path-9-outside-1_26736_242210)"/>
<defs>
<radialGradient id="paint0_radial_26736_242210" cx="0" cy="0" r="1" gradientUnits="userSpaceOnUse" gradientTransform="translate(17.9984 17.626) scale(15.0724 15.0724)">
<stop stop-color="#C4D8E6"/>
<stop offset="1" stop-color="#B7CEDE"/>
</radialGradient>
</defs>
</svg>
