<svg width="36" height="37" viewBox="0 0 36 37" fill="none" xmlns="http://www.w3.org/2000/svg">
<path d="M36 18.7413C36 19.5101 35.9521 20.2673 35.8586 21.011C35.6421 22.707 35.1865 24.3306 34.5279 25.8432C34.5279 25.8432 34.5279 25.8456 34.5255 25.8476C31.7639 32.2058 25.4025 36.6548 17.9999 36.6548C9.61969 36.6548 2.58148 30.9564 0.574055 23.2423V23.24C0.197997 21.8024 0 20.2943 0 18.7413C0 17.154 0.207223 15.6143 0.599061 14.1497C2.63388 6.48083 9.65364 0.828064 17.9999 0.828064C27.9411 0.827766 36 8.84795 36 18.7413Z" fill="#9FADB7"/>
<path d="M35.0496 17.8756C35.0496 18.0936 35.0461 18.3118 35.0374 18.528C35.0184 19.0368 34.9784 19.5388 34.9162 20.0355C34.7102 21.6502 34.2793 23.194 33.6561 24.6342C33.6561 24.6342 33.6562 24.636 33.6526 24.6393C31.0374 30.6901 25.0125 34.9235 18.0014 34.9235C10.0643 34.9235 3.39884 29.5009 1.49681 22.159V22.1572C1.21455 21.0755 1.03827 19.9506 0.977532 18.7977C0.961751 18.4913 0.953125 18.185 0.953125 17.8753C0.953125 16.3642 1.14874 14.9002 1.52093 13.5052C3.44737 6.20651 10.0967 0.827332 18.0011 0.827332C27.4168 0.827629 35.0496 8.46046 35.0496 17.8756Z" fill="#E7E6E2"/>
<path d="M35.0493 17.8757C35.0493 18.0936 35.0458 18.3119 35.0371 18.528C34.3916 17.3233 33.2908 15.3451 31.4233 12.133C27.2798 5.00722 18.0014 4.20268 10.4761 6.45784C2.94895 8.71478 1.3012 21.3114 1.3012 21.3114L0.97755 18.7984C0.961769 18.492 0.953125 18.1856 0.953125 17.8759C0.953125 16.3649 1.14876 14.9008 1.52095 13.5059C3.44739 6.20714 10.0967 0.828003 18.0011 0.828003C27.4165 0.827705 35.0493 8.46052 35.0493 17.8757Z" fill="white"/>
<path d="M32.9696 18.4534C32.9696 19.1045 32.9297 19.7459 32.852 20.3759C32.6722 21.8126 32.2931 23.1876 31.7453 24.4688C31.7453 24.4688 31.7453 24.4709 31.7435 24.4726C29.4467 29.858 24.1557 33.6264 17.9985 33.6264C11.0285 33.6264 5.17471 28.7998 3.50494 22.2657V22.2639C3.1923 21.0461 3.02734 19.7691 3.02734 18.4534C3.02734 17.109 3.19974 15.8049 3.52578 14.5641C5.21819 8.06844 11.0568 3.28033 17.9985 3.28033C26.2667 3.28033 32.9696 10.0735 32.9696 18.4534Z" fill="url(#paint0_radial_26736_242327)"/>
<path d="M32.5969 17.8752C32.5969 18.5017 32.5581 19.1186 32.4822 19.7245C32.3068 21.1064 31.9373 22.4293 31.4032 23.6617C31.4032 23.6617 31.4032 23.6634 31.4014 23.6652C29.162 28.8458 24.0035 32.4709 18.0006 32.4709C11.205 32.4709 5.49778 27.8278 3.86998 21.5423V21.5405C3.56509 20.3692 3.4043 19.1404 3.4043 17.8749C3.4043 16.5815 3.57253 15.3271 3.89023 14.1334C5.54006 7.88483 11.2327 3.27863 18.0003 3.27863C26.0618 3.27922 32.5969 9.81425 32.5969 17.8752Z" fill="#586686"/>
<path d="M31.6743 17.876C31.6743 18.4628 31.638 19.0408 31.5668 19.6086C31.4025 20.9032 31.0562 22.1424 30.5563 23.2968C30.5563 23.2968 30.5563 23.2986 30.5545 23.3004C28.4568 28.1534 23.6247 31.5492 18.0011 31.5492C11.6352 31.5492 6.28909 27.1997 4.76432 21.3117V21.3099C4.47878 20.2127 4.32812 19.0616 4.32812 17.876C4.32812 16.6644 4.48563 15.4892 4.78338 14.3712C6.329 8.5177 11.6614 4.203 18.0011 4.203C25.5526 4.203 31.6743 10.3247 31.6743 17.876Z" fill="#A9C1D3"/>
<path d="M31.6742 17.8757C31.6742 18.4625 31.6378 19.0405 31.5667 19.6083C29.8549 10.1705 23.9169 6.87322 14.8856 7.66434C10.0879 8.08476 6.81683 11.3404 4.7832 14.3712C6.32882 8.5177 11.6612 4.203 18.0009 4.203C25.5524 4.20271 31.6742 10.3245 31.6742 17.8757Z" fill="#C4D8E6"/>
<path opacity="0.43" d="M30.5538 23.3007C28.4562 28.1537 23.624 31.5496 18.0004 31.5496C11.6346 31.5496 6.28845 27.2 4.76367 21.312C6.70381 24.1746 11.2386 29.4969 18.0004 29.2423C27.0872 28.9014 30.4499 23.4701 30.5538 23.3007Z" fill="#C4D8E6"/>
<mask id="path-9-outside-1_26736_242327" maskUnits="userSpaceOnUse" x="7.27148" y="10.3727" width="22" height="16" fill="black">
<rect fill="white" x="7.27148" y="10.3727" width="22" height="16"/>
<path d="M10.2045 24.3727C9.82052 24.3727 9.52652 24.2707 9.32252 24.0667C9.11852 23.8627 9.01652 23.5807 9.01652 23.2207C9.01652 22.8487 9.11852 22.5667 9.32252 22.3747C9.52652 22.1827 9.82052 22.0867 10.2045 22.0867H12.0225V13.9687H13.3365L10.7085 15.5707C10.4325 15.7387 10.1745 15.8047 9.93452 15.7687C9.70652 15.7327 9.50852 15.6307 9.34052 15.4627C9.17252 15.2947 9.05852 15.0967 8.99852 14.8687C8.95052 14.6287 8.97452 14.3947 9.07052 14.1667C9.16652 13.9267 9.34652 13.7227 9.61052 13.5547L12.1125 12.0427C12.3645 11.8867 12.6165 11.7607 12.8685 11.6647C13.1325 11.5687 13.3905 11.5207 13.6425 11.5207C14.0025 11.5207 14.2845 11.6167 14.4885 11.8087C14.7045 11.9887 14.8125 12.2707 14.8125 12.6547V22.0867H16.4505C16.8225 22.0867 17.1105 22.1827 17.3145 22.3747C17.5185 22.5667 17.6205 22.8487 17.6205 23.2207C17.6205 23.5927 17.5185 23.8807 17.3145 24.0847C17.1105 24.2767 16.8225 24.3727 16.4505 24.3727H10.2045ZM22.5715 24.5707C21.0355 24.5707 19.8595 24.0007 19.0435 22.8607C18.2395 21.7087 17.8375 20.0827 17.8375 17.9827C17.8375 16.5787 18.0175 15.3967 18.3775 14.4367C18.7495 13.4647 19.2835 12.7327 19.9795 12.2407C20.6875 11.7367 21.5515 11.4847 22.5715 11.4847C24.1195 11.4847 25.2955 12.0427 26.0995 13.1587C26.9035 14.2627 27.3055 15.8707 27.3055 17.9827C27.3055 19.3867 27.1195 20.5807 26.7475 21.5647C26.3875 22.5367 25.8595 23.2807 25.1635 23.7967C24.4675 24.3127 23.6035 24.5707 22.5715 24.5707ZM22.5715 22.3027C23.2675 22.3027 23.7835 21.9607 24.1195 21.2767C24.4555 20.5807 24.6235 19.4827 24.6235 17.9827C24.6235 16.4827 24.4555 15.4027 24.1195 14.7427C23.7835 14.0827 23.2675 13.7527 22.5715 13.7527C21.8755 13.7527 21.3595 14.0827 21.0235 14.7427C20.6875 15.4027 20.5195 16.4827 20.5195 17.9827C20.5195 19.4827 20.6875 20.5807 21.0235 21.2767C21.3595 21.9607 21.8755 22.3027 22.5715 22.3027Z"/>
</mask>
<path d="M10.2045 24.3727C9.82052 24.3727 9.52652 24.2707 9.32252 24.0667C9.11852 23.8627 9.01652 23.5807 9.01652 23.2207C9.01652 22.8487 9.11852 22.5667 9.32252 22.3747C9.52652 22.1827 9.82052 22.0867 10.2045 22.0867H12.0225V13.9687H13.3365L10.7085 15.5707C10.4325 15.7387 10.1745 15.8047 9.93452 15.7687C9.70652 15.7327 9.50852 15.6307 9.34052 15.4627C9.17252 15.2947 9.05852 15.0967 8.99852 14.8687C8.95052 14.6287 8.97452 14.3947 9.07052 14.1667C9.16652 13.9267 9.34652 13.7227 9.61052 13.5547L12.1125 12.0427C12.3645 11.8867 12.6165 11.7607 12.8685 11.6647C13.1325 11.5687 13.3905 11.5207 13.6425 11.5207C14.0025 11.5207 14.2845 11.6167 14.4885 11.8087C14.7045 11.9887 14.8125 12.2707 14.8125 12.6547V22.0867H16.4505C16.8225 22.0867 17.1105 22.1827 17.3145 22.3747C17.5185 22.5667 17.6205 22.8487 17.6205 23.2207C17.6205 23.5927 17.5185 23.8807 17.3145 24.0847C17.1105 24.2767 16.8225 24.3727 16.4505 24.3727H10.2045ZM22.5715 24.5707C21.0355 24.5707 19.8595 24.0007 19.0435 22.8607C18.2395 21.7087 17.8375 20.0827 17.8375 17.9827C17.8375 16.5787 18.0175 15.3967 18.3775 14.4367C18.7495 13.4647 19.2835 12.7327 19.9795 12.2407C20.6875 11.7367 21.5515 11.4847 22.5715 11.4847C24.1195 11.4847 25.2955 12.0427 26.0995 13.1587C26.9035 14.2627 27.3055 15.8707 27.3055 17.9827C27.3055 19.3867 27.1195 20.5807 26.7475 21.5647C26.3875 22.5367 25.8595 23.2807 25.1635 23.7967C24.4675 24.3127 23.6035 24.5707 22.5715 24.5707ZM22.5715 22.3027C23.2675 22.3027 23.7835 21.9607 24.1195 21.2767C24.4555 20.5807 24.6235 19.4827 24.6235 17.9827C24.6235 16.4827 24.4555 15.4027 24.1195 14.7427C23.7835 14.0827 23.2675 13.7527 22.5715 13.7527C21.8755 13.7527 21.3595 14.0827 21.0235 14.7427C20.6875 15.4027 20.5195 16.4827 20.5195 17.9827C20.5195 19.4827 20.6875 20.5807 21.0235 21.2767C21.3595 21.9607 21.8755 22.3027 22.5715 22.3027Z" fill="white"/>
<path d="M9.32252 22.3747L8.63715 21.6465H8.63715L9.32252 22.3747ZM12.0225 22.0867V23.0867H13.0225V22.0867H12.0225ZM12.0225 13.9687V12.9687H11.0225V13.9687H12.0225ZM13.3365 13.9687L13.857 14.8226L16.8982 12.9687H13.3365V13.9687ZM10.7085 15.5707L11.2285 16.4249L11.229 16.4246L10.7085 15.5707ZM9.93452 15.7687L9.77855 16.7565L9.78618 16.7577L9.93452 15.7687ZM9.34052 15.4627L10.0476 14.7556L10.0476 14.7556L9.34052 15.4627ZM8.99852 14.8687L8.01793 15.0649L8.02381 15.0942L8.03144 15.1232L8.99852 14.8687ZM9.07052 14.1667L9.99215 14.5548L9.99565 14.5465L9.99899 14.5381L9.07052 14.1667ZM9.61052 13.5547L9.09331 12.6989L9.0834 12.7049L9.07364 12.7111L9.61052 13.5547ZM12.1125 12.0427L12.6298 12.8986L12.6389 12.893L12.1125 12.0427ZM12.8685 11.6647L12.5268 10.7249L12.5196 10.7275L12.5125 10.7303L12.8685 11.6647ZM14.4885 11.8087L13.8032 12.5369L13.8251 12.5576L13.8483 12.577L14.4885 11.8087ZM14.8125 22.0867H13.8125V23.0867H14.8125V22.0867ZM17.3145 22.3747L17.9999 21.6465L17.9999 21.6465L17.3145 22.3747ZM17.3145 24.0847L17.9999 24.8129L18.0109 24.8026L18.0216 24.7918L17.3145 24.0847ZM10.2045 23.3727C10.099 23.3727 10.044 23.3585 10.0238 23.3515C10.0081 23.3461 10.0165 23.3465 10.0296 23.3596L8.61541 24.7738C9.06262 25.2211 9.64606 25.3727 10.2045 25.3727V23.3727ZM10.0296 23.3596C10.0355 23.3655 10.0365 23.3707 10.0334 23.3621C10.0289 23.3496 10.0165 23.3074 10.0165 23.2207H8.01652C8.01652 23.7765 8.17988 24.3383 8.61541 24.7738L10.0296 23.3596ZM10.0165 23.2207C10.0165 23.1239 10.03 23.0797 10.0334 23.0704C10.0348 23.0664 10.034 23.07 10.0288 23.078C10.0235 23.0862 10.0162 23.0951 10.0079 23.1029L8.63715 21.6465C8.17263 22.0837 8.01652 22.6675 8.01652 23.2207H10.0165ZM10.0079 23.1029C9.99206 23.1178 9.98455 23.1165 10.0064 23.1093C10.0324 23.1009 10.0935 23.0867 10.2045 23.0867V21.0867C9.6615 21.0867 9.08625 21.2239 8.63715 21.6465L10.0079 23.1029ZM10.2045 23.0867H12.0225V21.0867H10.2045V23.0867ZM13.0225 22.0867V13.9687H11.0225V22.0867H13.0225ZM12.0225 14.9687H13.3365V12.9687H12.0225V14.9687ZM12.816 13.1149L10.188 14.7169L11.229 16.4246L13.857 14.8226L12.816 13.1149ZM10.1886 14.7165C10.1177 14.7597 10.0754 14.7735 10.0602 14.7774C10.0479 14.7806 10.0584 14.7761 10.0829 14.7798L9.78618 16.7577C10.3249 16.8385 10.8191 16.6741 11.2285 16.4249L10.1886 14.7165ZM10.0905 14.781C10.0779 14.779 10.0738 14.7767 10.073 14.7763C10.0719 14.7757 10.0634 14.7714 10.0476 14.7556L8.63341 16.1698C8.94616 16.4826 9.33534 16.6865 9.77855 16.7565L10.0905 14.781ZM10.0476 14.7556C10.0038 14.7118 9.98017 14.6696 9.96559 14.6142L8.03144 15.1232C8.13687 15.5239 8.34123 15.8777 8.63341 16.1698L10.0476 14.7556ZM9.9791 14.6726C9.97079 14.6311 9.97292 14.6005 9.99215 14.5548L8.14888 13.7787C7.97611 14.189 7.93024 14.6264 8.01793 15.0649L9.9791 14.6726ZM9.99899 14.5381C10.002 14.5307 10.0222 14.4781 10.1474 14.3984L9.07364 12.7111C8.67084 12.9674 8.33107 13.3228 8.14204 13.7954L9.99899 14.5381ZM10.1277 14.4106L12.6297 12.8986L11.5953 11.1869L9.09331 12.6989L10.1277 14.4106ZM12.6389 12.893C12.8421 12.7672 13.0373 12.6705 13.2245 12.5992L12.5125 10.7303C12.1957 10.851 11.8869 11.0063 11.5862 11.1925L12.6389 12.893ZM13.2103 12.6045C13.3772 12.5438 13.5197 12.5207 13.6425 12.5207V10.5207C13.2614 10.5207 12.8878 10.5937 12.5268 10.7249L13.2103 12.6045ZM13.6425 12.5207C13.735 12.5207 13.7836 12.5332 13.8018 12.5394C13.8162 12.5443 13.8117 12.545 13.8032 12.5369L15.1739 11.0805C14.736 10.6684 14.182 10.5207 13.6425 10.5207V12.5207ZM13.8483 12.577C13.8343 12.5652 13.8215 12.5513 13.8115 12.537C13.8017 12.5231 13.798 12.5137 13.7977 12.5129C13.7975 12.5126 13.8014 12.5225 13.8052 12.5459C13.809 12.5696 13.8125 12.6052 13.8125 12.6547H15.8125C15.8125 12.0885 15.6481 11.4733 15.1287 11.0405L13.8483 12.577ZM13.8125 12.6547V22.0867H15.8125V12.6547H13.8125ZM14.8125 23.0867H16.4505V21.0867H14.8125V23.0867ZM16.4505 23.0867C16.5524 23.0867 16.6072 23.1001 16.6293 23.1074C16.6474 23.1135 16.6414 23.1144 16.6292 23.1029L17.9999 21.6465C17.5562 21.229 16.9916 21.0867 16.4505 21.0867V23.0867ZM16.6292 23.1029C16.6208 23.0951 16.6136 23.0862 16.6082 23.078C16.6031 23.07 16.6022 23.0664 16.6036 23.0704C16.607 23.0797 16.6205 23.1239 16.6205 23.2207H18.6205C18.6205 22.6675 18.4644 22.0837 17.9999 21.6465L16.6292 23.1029ZM16.6205 23.2207C16.6205 23.3169 16.6072 23.3655 16.6014 23.3819C16.5971 23.394 16.5979 23.3871 16.6074 23.3776L18.0216 24.7918C18.4632 24.3503 18.6205 23.7777 18.6205 23.2207H16.6205ZM16.6292 23.3565C16.6414 23.345 16.6474 23.346 16.6293 23.3521C16.6072 23.3594 16.5524 23.3727 16.4505 23.3727V25.3727C16.9916 25.3727 17.5562 25.2305 17.9999 24.8129L16.6292 23.3565ZM16.4505 23.3727H10.2045V25.3727H16.4505V23.3727ZM19.0435 22.8607L18.2234 23.4331L18.2303 23.4428L19.0435 22.8607ZM18.3775 14.4367L17.4435 14.0793L17.4412 14.0856L18.3775 14.4367ZM19.9795 12.2407L20.5567 13.0573L20.5594 13.0554L19.9795 12.2407ZM26.0995 13.1587L25.2881 13.7433L25.2911 13.7474L26.0995 13.1587ZM26.7475 21.5647L25.8121 21.2111L25.8097 21.2174L26.7475 21.5647ZM25.1635 23.7967L25.759 24.6001L25.1635 23.7967ZM24.1195 21.2767L25.0171 21.7177L25.02 21.7115L24.1195 21.2767ZM24.1195 14.7427L23.2283 15.1964V15.1964L24.1195 14.7427ZM21.0235 14.7427L21.9146 15.1964V15.1964L21.0235 14.7427ZM21.0235 21.2767L20.1229 21.7115L20.1259 21.7176L21.0235 21.2767ZM22.5715 23.5707C21.3221 23.5707 20.4649 23.1284 19.8566 22.2787L18.2303 23.4428C19.2541 24.873 20.7488 25.5707 22.5715 25.5707V23.5707ZM19.8635 22.2884C19.2215 21.3686 18.8375 19.9737 18.8375 17.9827H16.8375C16.8375 20.1918 17.2574 22.0489 18.2235 23.4331L19.8635 22.2884ZM18.8375 17.9827C18.8375 16.6574 19.0083 15.6025 19.3138 14.7879L17.4412 14.0856C17.0267 15.191 16.8375 16.5001 16.8375 17.9827H18.8375ZM19.3114 14.7942C19.6284 13.9659 20.0552 13.4119 20.5567 13.0573L19.4022 11.4242C18.5118 12.0536 17.8705 12.9636 17.4435 14.0793L19.3114 14.7942ZM20.5594 13.0554C21.0701 12.6919 21.7222 12.4847 22.5715 12.4847V10.4847C21.3808 10.4847 20.3048 10.7816 19.3996 11.4261L20.5594 13.0554ZM22.5715 12.4847C23.8446 12.4847 24.6977 12.9238 25.2881 13.7433L26.9109 12.5742C25.8932 11.1617 24.3944 10.4847 22.5715 10.4847V12.4847ZM25.2911 13.7474C25.9192 14.6099 26.3055 15.9741 26.3055 17.9827H28.3055C28.3055 15.7674 27.8877 13.9156 26.9078 12.57L25.2911 13.7474ZM26.3055 17.9827C26.3055 19.304 26.1297 20.3709 25.8121 21.2111L27.6829 21.9184C28.1092 20.7905 28.3055 19.4695 28.3055 17.9827H26.3055ZM25.8097 21.2174C25.5037 22.0437 25.0797 22.614 24.5679 22.9934L25.759 24.6001C26.6393 23.9474 27.2712 23.0298 27.6852 21.9121L25.8097 21.2174ZM24.5679 22.9934C24.0753 23.3587 23.4312 23.5707 22.5715 23.5707V25.5707C23.7758 25.5707 24.8597 25.2668 25.759 24.6001L24.5679 22.9934ZM22.5715 23.3027C23.0907 23.3027 23.5913 23.1725 24.0329 22.8798C24.4694 22.5905 24.7888 22.1823 25.017 21.7176L23.2219 20.8358C23.1142 21.0552 23.0076 21.16 22.928 21.2127C22.8537 21.262 22.7482 21.3027 22.5715 21.3027V23.3027ZM25.02 21.7115C25.458 20.8044 25.6235 19.5175 25.6235 17.9827H23.6235C23.6235 19.448 23.453 20.3571 23.2189 20.842L25.02 21.7115ZM25.6235 17.9827C25.6235 16.455 25.4601 15.1719 25.0106 14.2891L23.2283 15.1964C23.4509 15.6336 23.6235 16.5105 23.6235 17.9827H25.6235ZM25.0106 14.2891C24.7788 13.8336 24.4558 13.437 24.0193 13.1578C23.5793 12.8764 23.0837 12.7527 22.5715 12.7527V14.7527C22.7553 14.7527 22.8657 14.7941 22.9417 14.8427C23.0212 14.8935 23.1242 14.9919 23.2283 15.1964L25.0106 14.2891ZM22.5715 12.7527C22.0593 12.7527 21.5637 12.8764 21.1237 13.1578C20.6872 13.437 20.3642 13.8336 20.1323 14.2891L21.9146 15.1964C22.0188 14.9919 22.1218 14.8935 22.2013 14.8427C22.2773 14.7941 22.3877 14.7527 22.5715 14.7527V12.7527ZM20.1323 14.2891C19.6829 15.1719 19.5195 16.455 19.5195 17.9827H21.5195C21.5195 16.5105 21.6921 15.6336 21.9146 15.1964L20.1323 14.2891ZM19.5195 17.9827C19.5195 19.5175 19.685 20.8044 20.1229 21.7115L21.924 20.842C21.69 20.3571 21.5195 19.448 21.5195 17.9827H19.5195ZM20.1259 21.7176C20.3542 22.1823 20.6736 22.5905 21.11 22.8798C21.5517 23.1725 22.0522 23.3027 22.5715 23.3027V21.3027C22.3947 21.3027 22.2893 21.262 22.2149 21.2127C22.1354 21.16 22.0288 21.0552 21.921 20.8358L20.1259 21.7176Z" fill="#4F5E7F" mask="url(#path-9-outside-1_26736_242327)"/>
<path d="M25.5305 28.8289L24.4442 26.2748C23.7339 24.6047 24.5147 22.6681 26.1848 21.9578C27.8549 21.2475 29.7915 22.0283 30.5018 23.6984L31.5881 26.2525L25.5305 28.8289ZM27.4704 23.0597C27.2192 23.0597 26.9642 23.109 26.7188 23.2134C26.2451 23.4148 25.8783 23.7887 25.6858 24.2661C25.4934 24.7434 25.4983 25.2672 25.6997 25.7408L26.2521 27.0394L29.7985 25.5311L29.2462 24.2326C28.9347 23.5 28.2202 23.0597 27.4704 23.0597Z" fill="#124933"/>
<path d="M27.2783 34.5088C26.8063 34.5088 26.382 34.2282 26.1974 33.794L24.1386 28.9534C23.8852 28.3577 24.1637 27.6669 24.7595 27.4135L31.1024 24.7157C31.2489 24.6534 31.4034 24.6218 31.5615 24.6218C32.0334 24.6218 32.4577 24.9024 32.6424 25.3366L34.7011 30.1772C34.8239 30.4658 34.8269 30.7849 34.7096 31.0758C34.5924 31.3667 34.3688 31.5944 34.0802 31.7172L27.7373 34.4149C27.5907 34.4772 27.4362 34.5088 27.2783 34.5088Z" fill="url(#paint1_linear_26736_242327)"/>
<path d="M31.5615 24.7468C31.9695 24.7467 32.3575 24.9863 32.5273 25.3855L34.5861 30.226C34.8128 30.7592 34.5645 31.3752 34.0313 31.6019L27.6884 34.2997C27.5544 34.3566 27.4152 34.3836 27.2782 34.3836C26.8702 34.3836 26.4822 34.1441 26.3124 33.7449L24.2536 28.9043C24.0269 28.3712 24.2753 27.7552 24.8084 27.5284L31.1513 24.8307C31.2853 24.7738 31.4245 24.7468 31.5615 24.7468ZM31.5615 24.4967C31.3866 24.4967 31.2156 24.5317 31.0535 24.6006L24.7106 27.2984C24.0514 27.5787 23.7432 28.3431 24.0236 29.0023L26.0823 33.8429C26.2867 34.3234 26.7561 34.6339 27.2783 34.6339C27.4533 34.6339 27.6242 34.5989 27.7863 34.53L34.1293 31.8322C34.7885 31.5518 35.0967 30.7874 34.8163 30.1282L32.7575 25.2876C32.5531 24.8072 32.0836 24.4967 31.5615 24.4967Z" fill="#5A2903"/>
<path d="M33.5738 31.1926L27.71 33.6865C27.2171 33.8962 26.6476 33.6665 26.438 33.1737L24.5347 28.6986C24.325 28.2058 24.5547 27.6363 25.0475 27.4267L30.9114 24.9327C31.4042 24.723 31.9737 24.9527 32.1834 25.4455L34.0867 29.9206C34.2964 30.4134 34.0668 30.983 33.5738 31.1926Z" fill="url(#paint2_linear_26736_242327)"/>
<path d="M29.2513 28.3075L28.6309 28.5714L29.4293 30.4486L30.0497 30.1847L29.2513 28.3075Z" fill="#124933"/>
<defs>
<radialGradient id="paint0_radial_26736_242327" cx="0" cy="0" r="1" gradientUnits="userSpaceOnUse" gradientTransform="translate(17.9984 18.4533) scale(15.0724 15.0724)">
<stop stop-color="#C4D8E6"/>
<stop offset="1" stop-color="#B7CEDE"/>
</radialGradient>
<linearGradient id="paint1_linear_26736_242327" x1="27.1815" y1="25.6065" x2="30.8125" y2="32.0287" gradientUnits="userSpaceOnUse">
<stop stop-color="#318063"/>
<stop offset="0.354" stop-color="#23674D"/>
<stop offset="0.7462" stop-color="#16513A"/>
<stop offset="1" stop-color="#124933"/>
</linearGradient>
<linearGradient id="paint2_linear_26736_242327" x1="30.4548" y1="30.4454" x2="24.654" y2="24.6867" gradientUnits="userSpaceOnUse">
<stop offset="2.7e-07" stop-color="#95D543"/>
<stop offset="0.0319" stop-color="#98D748"/>
<stop offset="0.349" stop-color="#B8E879"/>
<stop offset="0.6275" stop-color="#D0F59D"/>
<stop offset="0.8539" stop-color="#DEFCB3"/>
<stop offset="1" stop-color="#E3FFBB"/>
</linearGradient>
</defs>
</svg>
