<svg width="36" height="37" viewBox="0 0 36 37" fill="none" xmlns="http://www.w3.org/2000/svg">
<path d="M36 18.5686C36 19.3374 35.9521 20.0946 35.8586 20.8384C35.6421 22.5343 35.1865 24.158 34.5279 25.6705C34.5279 25.6705 34.5279 25.6729 34.5255 25.675C31.7639 32.0331 25.4025 36.4821 17.9999 36.4821C9.61969 36.4821 2.58148 30.7838 0.574055 23.0697V23.0673C0.197997 21.6298 0 20.1217 0 18.5686C0 16.9813 0.207223 15.4416 0.599061 13.977C2.63388 6.30816 9.65364 0.655396 17.9999 0.655396C27.9411 0.655098 36 8.67528 36 18.5686Z" fill="#9FADB7"/>
<path d="M35.0496 17.7029C35.0496 17.9209 35.0461 18.1391 35.0374 18.3553C35.0184 18.8642 34.9784 19.3662 34.9162 19.8628C34.7102 21.4775 34.2793 23.0213 33.6561 24.4615C33.6561 24.4615 33.6562 24.4633 33.6526 24.4666C31.0374 30.5175 25.0125 34.7509 18.0014 34.7509C10.0643 34.7509 3.39884 29.3283 1.49681 21.9864V21.9846C1.21455 20.9029 1.03827 19.7779 0.977532 18.625C0.961751 18.3187 0.953125 18.0123 0.953125 17.7026C0.953125 16.1916 1.14874 14.7275 1.52093 13.3326C3.44737 6.03384 10.0967 0.654663 18.0011 0.654663C27.4168 0.654961 35.0496 8.2878 35.0496 17.7029Z" fill="#E7E6E2"/>
<path d="M35.0493 17.703C35.0493 17.9209 35.0458 18.1392 35.0371 18.3554C34.3916 17.1507 33.2908 15.1724 31.4233 11.9603C27.2798 4.83455 18.0014 4.03002 10.4761 6.28517C2.94895 8.54211 1.3012 21.1387 1.3012 21.1387L0.97755 18.6257C0.961769 18.3193 0.953125 18.0129 0.953125 17.7033C0.953125 16.1922 1.14876 14.7282 1.52095 13.3332C3.44739 6.03447 10.0967 0.655334 18.0011 0.655334C27.4165 0.655037 35.0493 8.28785 35.0493 17.703Z" fill="white"/>
<path d="M32.9696 18.2807C32.9696 18.9319 32.9297 19.5732 32.852 20.2033C32.6722 21.6399 32.2931 23.0149 31.7453 24.2961C31.7453 24.2961 31.7453 24.2982 31.7435 24.3C29.4467 29.6854 24.1557 33.4537 17.9985 33.4537C11.0285 33.4537 5.17471 28.6272 3.50494 22.0931V22.0913C3.1923 20.8735 3.02734 19.5964 3.02734 18.2807C3.02734 16.9363 3.19974 15.6322 3.52578 14.3915C5.21819 7.89577 11.0568 3.10767 17.9985 3.10767C26.2667 3.10767 32.9696 9.90082 32.9696 18.2807Z" fill="url(#paint0_radial_26736_242452)"/>
<path d="M32.5969 17.7026C32.5969 18.329 32.5581 18.9459 32.4822 19.5519C32.3068 20.9337 31.9373 22.2566 31.4032 23.489C31.4032 23.489 31.4032 23.4908 31.4014 23.4926C29.162 28.6731 24.0035 32.2982 18.0006 32.2982C11.205 32.2982 5.49778 27.6551 3.86998 21.3696V21.3678C3.56509 20.1965 3.4043 18.9677 3.4043 17.7023C3.4043 16.4088 3.57253 15.1544 3.89023 13.9607C5.54006 7.71216 11.2327 3.10596 18.0003 3.10596C26.0618 3.10655 32.5969 9.64158 32.5969 17.7026Z" fill="#586686"/>
<path d="M31.6743 17.7033C31.6743 18.2902 31.638 18.8681 31.5668 19.4359C31.4025 20.7305 31.0562 21.9697 30.5563 23.1241C30.5563 23.1241 30.5563 23.1259 30.5545 23.1277C28.4568 27.9807 23.6247 31.3766 18.0011 31.3766C11.6352 31.3766 6.28909 27.027 4.76432 21.139V21.1372C4.47878 20.04 4.32812 18.8889 4.32812 17.7033C4.32812 16.4918 4.48563 15.3165 4.78338 14.1985C6.329 8.34503 11.6614 4.03033 18.0011 4.03033C25.5526 4.03033 31.6743 10.1521 31.6743 17.7033Z" fill="#A9C1D3"/>
<path d="M31.6742 17.703C31.6742 18.2899 31.6378 18.8678 31.5667 19.4356C29.8549 9.99784 23.9169 6.70055 14.8856 7.49167C10.0879 7.9121 6.81683 11.1677 4.7832 14.1985C6.32882 8.34503 11.6612 4.03033 18.0009 4.03033C25.5524 4.03004 31.6742 10.1518 31.6742 17.703Z" fill="#C4D8E6"/>
<path opacity="0.43" d="M30.5538 23.128C28.4562 27.9811 23.624 31.3769 18.0004 31.3769C11.6346 31.3769 6.28845 27.0273 4.76367 21.1393C6.70381 24.0019 11.2386 29.3242 18.0004 29.0696C27.0872 28.7287 30.4499 23.2975 30.5538 23.128Z" fill="#C4D8E6"/>
<mask id="path-9-outside-1_26736_242452" maskUnits="userSpaceOnUse" x="7.27148" y="10.2001" width="22" height="15" fill="black">
<rect fill="white" x="7.27148" y="10.2001" width="22" height="15"/>
<path d="M10.2045 24.2001C9.82052 24.2001 9.52652 24.0981 9.32252 23.8941C9.11852 23.6901 9.01652 23.4081 9.01652 23.0481C9.01652 22.6761 9.11852 22.3941 9.32252 22.2021C9.52652 22.0101 9.82052 21.9141 10.2045 21.9141H12.0225V13.7961H13.3365L10.7085 15.3981C10.4325 15.5661 10.1745 15.6321 9.93452 15.5961C9.70652 15.5601 9.50852 15.4581 9.34052 15.2901C9.17252 15.1221 9.05852 14.9241 8.99852 14.6961C8.95052 14.4561 8.97452 14.2221 9.07052 13.9941C9.16652 13.7541 9.34652 13.5501 9.61052 13.3821L12.1125 11.8701C12.3645 11.7141 12.6165 11.5881 12.8685 11.4921C13.1325 11.3961 13.3905 11.3481 13.6425 11.3481C14.0025 11.3481 14.2845 11.4441 14.4885 11.6361C14.7045 11.8161 14.8125 12.0981 14.8125 12.4821V21.9141H16.4505C16.8225 21.9141 17.1105 22.0101 17.3145 22.2021C17.5185 22.3941 17.6205 22.6761 17.6205 23.0481C17.6205 23.4201 17.5185 23.7081 17.3145 23.9121C17.1105 24.1041 16.8225 24.2001 16.4505 24.2001H10.2045ZM19.9975 24.2001C19.6135 24.2001 19.3195 24.0981 19.1155 23.8941C18.9115 23.6901 18.8095 23.4081 18.8095 23.0481C18.8095 22.6761 18.9115 22.3941 19.1155 22.2021C19.3195 22.0101 19.6135 21.9141 19.9975 21.9141H21.8155V13.7961H23.1295L20.5015 15.3981C20.2255 15.5661 19.9675 15.6321 19.7275 15.5961C19.4995 15.5601 19.3015 15.4581 19.1335 15.2901C18.9655 15.1221 18.8515 14.9241 18.7915 14.6961C18.7435 14.4561 18.7675 14.2221 18.8635 13.9941C18.9595 13.7541 19.1395 13.5501 19.4035 13.3821L21.9055 11.8701C22.1575 11.7141 22.4095 11.5881 22.6615 11.4921C22.9255 11.3961 23.1835 11.3481 23.4355 11.3481C23.7955 11.3481 24.0775 11.4441 24.2815 11.6361C24.4975 11.8161 24.6055 12.0981 24.6055 12.4821V21.9141H26.2435C26.6155 21.9141 26.9035 22.0101 27.1075 22.2021C27.3115 22.3941 27.4135 22.6761 27.4135 23.0481C27.4135 23.4201 27.3115 23.7081 27.1075 23.9121C26.9035 24.1041 26.6155 24.2001 26.2435 24.2001H19.9975Z"/>
</mask>
<path d="M10.2045 24.2001C9.82052 24.2001 9.52652 24.0981 9.32252 23.8941C9.11852 23.6901 9.01652 23.4081 9.01652 23.0481C9.01652 22.6761 9.11852 22.3941 9.32252 22.2021C9.52652 22.0101 9.82052 21.9141 10.2045 21.9141H12.0225V13.7961H13.3365L10.7085 15.3981C10.4325 15.5661 10.1745 15.6321 9.93452 15.5961C9.70652 15.5601 9.50852 15.4581 9.34052 15.2901C9.17252 15.1221 9.05852 14.9241 8.99852 14.6961C8.95052 14.4561 8.97452 14.2221 9.07052 13.9941C9.16652 13.7541 9.34652 13.5501 9.61052 13.3821L12.1125 11.8701C12.3645 11.7141 12.6165 11.5881 12.8685 11.4921C13.1325 11.3961 13.3905 11.3481 13.6425 11.3481C14.0025 11.3481 14.2845 11.4441 14.4885 11.6361C14.7045 11.8161 14.8125 12.0981 14.8125 12.4821V21.9141H16.4505C16.8225 21.9141 17.1105 22.0101 17.3145 22.2021C17.5185 22.3941 17.6205 22.6761 17.6205 23.0481C17.6205 23.4201 17.5185 23.7081 17.3145 23.9121C17.1105 24.1041 16.8225 24.2001 16.4505 24.2001H10.2045ZM19.9975 24.2001C19.6135 24.2001 19.3195 24.0981 19.1155 23.8941C18.9115 23.6901 18.8095 23.4081 18.8095 23.0481C18.8095 22.6761 18.9115 22.3941 19.1155 22.2021C19.3195 22.0101 19.6135 21.9141 19.9975 21.9141H21.8155V13.7961H23.1295L20.5015 15.3981C20.2255 15.5661 19.9675 15.6321 19.7275 15.5961C19.4995 15.5601 19.3015 15.4581 19.1335 15.2901C18.9655 15.1221 18.8515 14.9241 18.7915 14.6961C18.7435 14.4561 18.7675 14.2221 18.8635 13.9941C18.9595 13.7541 19.1395 13.5501 19.4035 13.3821L21.9055 11.8701C22.1575 11.7141 22.4095 11.5881 22.6615 11.4921C22.9255 11.3961 23.1835 11.3481 23.4355 11.3481C23.7955 11.3481 24.0775 11.4441 24.2815 11.6361C24.4975 11.8161 24.6055 12.0981 24.6055 12.4821V21.9141H26.2435C26.6155 21.9141 26.9035 22.0101 27.1075 22.2021C27.3115 22.3941 27.4135 22.6761 27.4135 23.0481C27.4135 23.4201 27.3115 23.7081 27.1075 23.9121C26.9035 24.1041 26.6155 24.2001 26.2435 24.2001H19.9975Z" fill="white"/>
<path d="M9.32252 22.2021L8.63715 21.4739H8.63715L9.32252 22.2021ZM12.0225 21.9141V22.9141H13.0225V21.9141H12.0225ZM12.0225 13.7961V12.7961H11.0225V13.7961H12.0225ZM13.3365 13.7961L13.857 14.6499L16.8982 12.7961H13.3365V13.7961ZM10.7085 15.3981L11.2285 16.2523L11.229 16.2519L10.7085 15.3981ZM9.93452 15.5961L9.77855 16.5839L9.78618 16.585L9.93452 15.5961ZM9.34052 15.2901L10.0476 14.583L10.0476 14.583L9.34052 15.2901ZM8.99852 14.6961L8.01793 14.8922L8.02381 14.9216L8.03144 14.9506L8.99852 14.6961ZM9.07052 13.9941L9.99215 14.3821L9.99565 14.3738L9.99899 14.3655L9.07052 13.9941ZM9.61052 13.3821L9.09331 12.5262L9.0834 12.5322L9.07364 12.5384L9.61052 13.3821ZM12.1125 11.8701L12.6298 12.726L12.6389 12.7203L12.1125 11.8701ZM12.8685 11.4921L12.5268 10.5523L12.5196 10.5549L12.5125 10.5576L12.8685 11.4921ZM14.4885 11.6361L13.8032 12.3643L13.8251 12.385L13.8483 12.4043L14.4885 11.6361ZM14.8125 21.9141H13.8125V22.9141H14.8125V21.9141ZM17.3145 22.2021L17.9999 21.4739L17.9999 21.4739L17.3145 22.2021ZM17.3145 23.9121L17.9999 24.6403L18.0109 24.6299L18.0216 24.6192L17.3145 23.9121ZM10.2045 23.2001C10.099 23.2001 10.044 23.1858 10.0238 23.1788C10.0081 23.1734 10.0165 23.1739 10.0296 23.187L8.61541 24.6012C9.06262 25.0484 9.64606 25.2001 10.2045 25.2001V23.2001ZM10.0296 23.187C10.0355 23.1928 10.0365 23.1981 10.0334 23.1894C10.0289 23.1769 10.0165 23.1347 10.0165 23.0481H8.01652C8.01652 23.6038 8.17988 24.1657 8.61541 24.6012L10.0296 23.187ZM10.0165 23.0481C10.0165 22.9512 10.03 22.907 10.0334 22.8977C10.0348 22.8937 10.034 22.8973 10.0288 22.9053C10.0235 22.9136 10.0162 22.9224 10.0079 22.9303L8.63715 21.4739C8.17263 21.9111 8.01652 22.4948 8.01652 23.0481H10.0165ZM10.0079 22.9303C9.99206 22.9452 9.98455 22.9438 10.0064 22.9367C10.0324 22.9282 10.0935 22.9141 10.2045 22.9141V20.9141C9.6615 20.9141 9.08625 21.0512 8.63715 21.4739L10.0079 22.9303ZM10.2045 22.9141H12.0225V20.9141H10.2045V22.9141ZM13.0225 21.9141V13.7961H11.0225V21.9141H13.0225ZM12.0225 14.7961H13.3365V12.7961H12.0225V14.7961ZM12.816 12.9422L10.188 14.5442L11.229 16.2519L13.857 14.6499L12.816 12.9422ZM10.1886 14.5439C10.1177 14.587 10.0754 14.6009 10.0602 14.6048C10.0479 14.6079 10.0584 14.6035 10.0829 14.6071L9.78618 16.585C10.3249 16.6658 10.8191 16.5014 11.2285 16.2523L10.1886 14.5439ZM10.0905 14.6083C10.0779 14.6063 10.0738 14.604 10.073 14.6036C10.0719 14.603 10.0634 14.5987 10.0476 14.583L8.63341 15.9972C8.94616 16.3099 9.33534 16.5139 9.77855 16.5838L10.0905 14.6083ZM10.0476 14.583C10.0038 14.5391 9.98017 14.497 9.96559 14.4416L8.03144 14.9506C8.13687 15.3512 8.34123 15.705 8.63341 15.9972L10.0476 14.583ZM9.9791 14.5C9.97079 14.4584 9.97292 14.4278 9.99215 14.3821L8.14888 13.606C7.97611 14.0163 7.93024 14.4537 8.01793 14.8922L9.9791 14.5ZM9.99899 14.3655C10.002 14.358 10.0222 14.3054 10.1474 14.2257L9.07364 12.5384C8.67084 12.7947 8.33107 13.1501 8.14204 13.6227L9.99899 14.3655ZM10.1277 14.2379L12.6297 12.7259L11.5953 11.0142L9.09331 12.5262L10.1277 14.2379ZM12.6389 12.7203C12.8421 12.5945 13.0373 12.4979 13.2245 12.4266L12.5125 10.5576C12.1957 10.6783 11.8869 10.8336 11.5862 11.0198L12.6389 12.7203ZM13.2103 12.4319C13.3772 12.3712 13.5197 12.3481 13.6425 12.3481V10.3481C13.2614 10.3481 12.8878 10.421 12.5268 10.5523L13.2103 12.4319ZM13.6425 12.3481C13.735 12.3481 13.7836 12.3605 13.8018 12.3667C13.8162 12.3717 13.8117 12.3723 13.8032 12.3643L15.1739 10.9079C14.736 10.4957 14.182 10.3481 13.6425 10.3481V12.3481ZM13.8483 12.4043C13.8343 12.3926 13.8215 12.3787 13.8115 12.3644C13.8017 12.3504 13.798 12.341 13.7977 12.3402C13.7975 12.3399 13.8014 12.3498 13.8052 12.3733C13.809 12.3969 13.8125 12.4325 13.8125 12.4821H15.8125C15.8125 11.9158 15.6481 11.3007 15.1287 10.8679L13.8483 12.4043ZM13.8125 12.4821V21.9141H15.8125V12.4821H13.8125ZM14.8125 22.9141H16.4505V20.9141H14.8125V22.9141ZM16.4505 22.9141C16.5524 22.9141 16.6072 22.9274 16.6293 22.9348C16.6474 22.9408 16.6414 22.9418 16.6292 22.9303L17.9999 21.4739C17.5562 21.0563 16.9916 20.9141 16.4505 20.9141V22.9141ZM16.6292 22.9303C16.6208 22.9224 16.6136 22.9136 16.6082 22.9053C16.6031 22.8973 16.6022 22.8937 16.6036 22.8977C16.607 22.907 16.6205 22.9512 16.6205 23.0481H18.6205C18.6205 22.4948 18.4644 21.9111 17.9999 21.4739L16.6292 22.9303ZM16.6205 23.0481C16.6205 23.1443 16.6072 23.1929 16.6014 23.2092C16.5971 23.2213 16.5979 23.2145 16.6074 23.205L18.0216 24.6192C18.4632 24.1776 18.6205 23.6051 18.6205 23.0481H16.6205ZM16.6292 23.1839C16.6414 23.1724 16.6474 23.1734 16.6293 23.1794C16.6072 23.1867 16.5524 23.2001 16.4505 23.2001V25.2001C16.9916 25.2001 17.5562 25.0578 17.9999 24.6403L16.6292 23.1839ZM16.4505 23.2001H10.2045V25.2001H16.4505V23.2001ZM19.1155 22.2021L18.4301 21.4739L19.1155 22.2021ZM21.8155 21.9141V22.9141H22.8155V21.9141H21.8155ZM21.8155 13.7961V12.7961H20.8155V13.7961H21.8155ZM23.1295 13.7961L23.65 14.6499L26.6912 12.7961H23.1295V13.7961ZM20.5015 15.3981L21.0214 16.2523L21.022 16.2519L20.5015 15.3981ZM19.7275 15.5961L19.5715 16.5839L19.5791 16.585L19.7275 15.5961ZM19.1335 15.2901L19.8406 14.583L19.8406 14.583L19.1335 15.2901ZM18.7915 14.6961L17.8109 14.8922L17.8168 14.9216L17.8244 14.9506L18.7915 14.6961ZM18.8635 13.9941L19.7851 14.3821L19.7886 14.3738L19.792 14.3655L18.8635 13.9941ZM19.4035 13.3821L18.8863 12.5262L18.8764 12.5322L18.8666 12.5384L19.4035 13.3821ZM21.9055 11.8701L22.4227 12.726L22.4318 12.7203L21.9055 11.8701ZM22.6615 11.4921L22.3197 10.5523L22.3126 10.5549L22.3055 10.5576L22.6615 11.4921ZM24.2815 11.6361L23.5961 12.3643L23.6181 12.385L23.6413 12.4043L24.2815 11.6361ZM24.6055 21.9141H23.6055V22.9141H24.6055V21.9141ZM27.1075 22.2021L27.7929 21.4739L27.7928 21.4739L27.1075 22.2021ZM27.1075 23.9121L27.7928 24.6403L27.8039 24.6299L27.8146 24.6192L27.1075 23.9121ZM19.9975 23.2001C19.8919 23.2001 19.837 23.1858 19.8168 23.1788C19.8011 23.1734 19.8095 23.1739 19.8226 23.187L18.4084 24.6012C18.8556 25.0484 19.439 25.2001 19.9975 25.2001V23.2001ZM19.8226 23.187C19.8284 23.1928 19.8295 23.1981 19.8264 23.1894C19.8218 23.1769 19.8095 23.1347 19.8095 23.0481H17.8095C17.8095 23.6038 17.9728 24.1657 18.4084 24.6012L19.8226 23.187ZM19.8095 23.0481C19.8095 22.9512 19.823 22.907 19.8264 22.8977C19.8278 22.8937 19.8269 22.8973 19.8217 22.9053C19.8164 22.9136 19.8092 22.9224 19.8008 22.9303L18.4301 21.4739C17.9656 21.9111 17.8095 22.4948 17.8095 23.0481H19.8095ZM19.8008 22.9303C19.785 22.9452 19.7775 22.9438 19.7994 22.9367C19.8253 22.9282 19.8865 22.9141 19.9975 22.9141V20.9141C19.4545 20.9141 18.8792 21.0512 18.4301 21.4739L19.8008 22.9303ZM19.9975 22.9141H21.8155V20.9141H19.9975V22.9141ZM22.8155 21.9141V13.7961H20.8155V21.9141H22.8155ZM21.8155 14.7961H23.1295V12.7961H21.8155V14.7961ZM22.609 12.9422L19.981 14.5442L21.022 16.2519L23.65 14.6499L22.609 12.9422ZM19.9815 14.5439C19.9107 14.587 19.8684 14.6009 19.8532 14.6048C19.8409 14.6079 19.8514 14.6035 19.8758 14.6071L19.5791 16.585C20.1179 16.6658 20.6121 16.5014 21.0214 16.2523L19.9815 14.5439ZM19.8834 14.6083C19.8709 14.6063 19.8668 14.604 19.8659 14.6036C19.8648 14.603 19.8563 14.5987 19.8406 14.583L18.4264 15.9972C18.7391 16.3099 19.1283 16.5139 19.5715 16.5838L19.8834 14.6083ZM19.8406 14.583C19.7968 14.5391 19.7731 14.497 19.7586 14.4416L17.8244 14.9506C17.9298 15.3512 18.1342 15.705 18.4264 15.9972L19.8406 14.583ZM19.7721 14.5C19.7638 14.4584 19.7659 14.4278 19.7851 14.3821L17.9418 13.606C17.7691 14.0163 17.7232 14.4537 17.8109 14.8922L19.7721 14.5ZM19.792 14.3655C19.7949 14.358 19.8152 14.3054 19.9404 14.2257L18.8666 12.5384C18.4638 12.7947 18.124 13.1501 17.935 13.6227L19.792 14.3655ZM19.9207 14.2379L22.4227 12.7259L21.3883 11.0142L18.8863 12.5262L19.9207 14.2379ZM22.4318 12.7203C22.6351 12.5945 22.8303 12.4979 23.0175 12.4266L22.3055 10.5576C21.9887 10.6783 21.6799 10.8336 21.3791 11.0198L22.4318 12.7203ZM23.0032 12.4319C23.1702 12.3712 23.3126 12.3481 23.4355 12.3481V10.3481C23.0543 10.3481 22.6808 10.421 22.3197 10.5523L23.0032 12.4319ZM23.4355 12.3481C23.528 12.3481 23.5765 12.3605 23.5947 12.3667C23.6092 12.3717 23.6047 12.3723 23.5961 12.3643L24.9669 10.9079C24.529 10.4957 23.9749 10.3481 23.4355 10.3481V12.3481ZM23.6413 12.4043C23.6272 12.3926 23.6145 12.3787 23.6045 12.3644C23.5947 12.3504 23.5909 12.341 23.5906 12.3402C23.5905 12.3399 23.5943 12.3498 23.5981 12.3733C23.602 12.3969 23.6055 12.4325 23.6055 12.4821H25.6055C25.6055 11.9158 25.441 11.3007 24.9217 10.8679L23.6413 12.4043ZM23.6055 12.4821V21.9141H25.6055V12.4821H23.6055ZM24.6055 22.9141H26.2435V20.9141H24.6055V22.9141ZM26.2435 22.9141C26.3453 22.9141 26.4002 22.9274 26.4223 22.9348C26.4404 22.9408 26.4343 22.9418 26.4221 22.9303L27.7928 21.4739C27.3492 21.0563 26.7846 20.9141 26.2435 20.9141V22.9141ZM26.4221 22.9303C26.4138 22.9224 26.4065 22.9136 26.4012 22.9053C26.396 22.8973 26.3952 22.8937 26.3966 22.8977C26.4 22.907 26.4135 22.9512 26.4135 23.0481H28.4135C28.4135 22.4948 28.2574 21.9111 27.7929 21.4739L26.4221 22.9303ZM26.4135 23.0481C26.4135 23.1443 26.4001 23.1929 26.3944 23.2092C26.3901 23.2213 26.3909 23.2145 26.4004 23.205L27.8146 24.6192C28.2561 24.1776 28.4135 23.6051 28.4135 23.0481H26.4135ZM26.4221 23.1839C26.4343 23.1724 26.4404 23.1734 26.4223 23.1794C26.4002 23.1867 26.3453 23.2001 26.2435 23.2001V25.2001C26.7846 25.2001 27.3492 25.0578 27.7928 24.6403L26.4221 23.1839ZM26.2435 23.2001H19.9975V25.2001H26.2435V23.2001Z" fill="#4F5E7F" mask="url(#path-9-outside-1_26736_242452)"/>
<path d="M25.5305 28.8289L24.4442 26.2748C23.7339 24.6047 24.5147 22.6681 26.1848 21.9578C27.8549 21.2474 29.7915 22.0282 30.5018 23.6983L31.5881 26.2525L25.5305 28.8289ZM27.4704 23.0596C27.2192 23.0596 26.9642 23.109 26.7188 23.2134C26.2451 23.4148 25.8783 23.7886 25.6858 24.266C25.4934 24.7434 25.4983 25.2671 25.6997 25.7408L26.2521 27.0394L29.7985 25.531L29.2462 24.2325C28.9347 23.5 28.2202 23.0596 27.4704 23.0596Z" fill="#124933"/>
<path d="M27.2783 34.5088C26.8063 34.5088 26.382 34.2282 26.1974 33.7939L24.1386 28.9534C23.8852 28.3577 24.1637 27.6668 24.7595 27.4134L31.1024 24.7157C31.2489 24.6534 31.4034 24.6217 31.5615 24.6217C32.0334 24.6217 32.4577 24.9023 32.6424 25.3365L34.7011 30.1772C34.8239 30.4658 34.8269 30.7849 34.7096 31.0758C34.5924 31.3666 34.3688 31.5944 34.0802 31.7171L27.7373 34.4149C27.5907 34.4772 27.4362 34.5088 27.2783 34.5088Z" fill="url(#paint1_linear_26736_242452)"/>
<path d="M31.5615 24.7467C31.9695 24.7467 32.3575 24.9863 32.5273 25.3854L34.5861 30.226C34.8128 30.7591 34.5645 31.3751 34.0313 31.6019L27.6884 34.2996C27.5544 34.3566 27.4152 34.3836 27.2782 34.3836C26.8702 34.3836 26.4822 34.144 26.3124 33.7449L24.2536 28.9043C24.0269 28.3711 24.2753 27.7551 24.8084 27.5284L31.1513 24.8306C31.2853 24.7737 31.4245 24.7467 31.5615 24.7467ZM31.5615 24.4966C31.3866 24.4966 31.2156 24.5316 31.0535 24.6005L24.7106 27.2983C24.0514 27.5787 23.7432 28.3431 24.0236 29.0023L26.0823 33.8429C26.2867 34.3233 26.7561 34.6338 27.2783 34.6338C27.4533 34.6338 27.6242 34.5988 27.7863 34.5299L34.1293 31.8321C34.7885 31.5518 35.0967 30.7874 34.8163 30.1282L32.7575 25.2876C32.5531 24.8071 32.0836 24.4966 31.5615 24.4966Z" fill="#5A2903"/>
<path d="M33.5738 31.1925L27.71 33.6865C27.2171 33.8961 26.6476 33.6665 26.438 33.1736L24.5347 28.6986C24.325 28.2057 24.5547 27.6362 25.0475 27.4266L30.9114 24.9326C31.4042 24.7229 31.9737 24.9526 32.1834 25.4455L34.0867 29.9205C34.2964 30.4134 34.0668 30.9829 33.5738 31.1925Z" fill="url(#paint2_linear_26736_242452)"/>
<path d="M29.2513 28.3074L28.6309 28.5713L29.4293 30.4485L30.0497 30.1846L29.2513 28.3074Z" fill="#124933"/>
<defs>
<radialGradient id="paint0_radial_26736_242452" cx="0" cy="0" r="1" gradientUnits="userSpaceOnUse" gradientTransform="translate(17.9984 18.2806) scale(15.0724 15.0724)">
<stop stop-color="#C4D8E6"/>
<stop offset="1" stop-color="#B7CEDE"/>
</radialGradient>
<linearGradient id="paint1_linear_26736_242452" x1="27.1815" y1="25.6064" x2="30.8125" y2="32.0286" gradientUnits="userSpaceOnUse">
<stop stop-color="#318063"/>
<stop offset="0.354" stop-color="#23674D"/>
<stop offset="0.7462" stop-color="#16513A"/>
<stop offset="1" stop-color="#124933"/>
</linearGradient>
<linearGradient id="paint2_linear_26736_242452" x1="30.4548" y1="30.4454" x2="24.654" y2="24.6866" gradientUnits="userSpaceOnUse">
<stop offset="2.7e-07" stop-color="#95D543"/>
<stop offset="0.0319" stop-color="#98D748"/>
<stop offset="0.349" stop-color="#B8E879"/>
<stop offset="0.6275" stop-color="#D0F59D"/>
<stop offset="0.8539" stop-color="#DEFCB3"/>
<stop offset="1" stop-color="#E3FFBB"/>
</linearGradient>
</defs>
</svg>
