<svg width="36" height="37" viewBox="0 0 36 37" fill="none" xmlns="http://www.w3.org/2000/svg">
<path d="M36 18.5686C36 19.3374 35.9521 20.0946 35.8586 20.8384C35.6421 22.5343 35.1865 24.158 34.5279 25.6705C34.5279 25.6705 34.5279 25.6729 34.5255 25.675C31.7639 32.0331 25.4025 36.4821 17.9999 36.4821C9.61969 36.4821 2.58148 30.7838 0.574055 23.0697V23.0673C0.197997 21.6298 0 20.1217 0 18.5686C0 16.9813 0.207223 15.4416 0.599061 13.977C2.63388 6.30816 9.65364 0.655396 17.9999 0.655396C27.9411 0.655098 36 8.67528 36 18.5686Z" fill="#9FADB7"/>
<path d="M35.0496 17.7029C35.0496 17.9209 35.0461 18.1391 35.0374 18.3553C35.0184 18.8642 34.9784 19.3662 34.9162 19.8628C34.7102 21.4775 34.2793 23.0213 33.6561 24.4615C33.6561 24.4615 33.6562 24.4633 33.6526 24.4666C31.0374 30.5175 25.0125 34.7509 18.0014 34.7509C10.0643 34.7509 3.39884 29.3283 1.49681 21.9864V21.9846C1.21455 20.9029 1.03827 19.7779 0.977532 18.625C0.961751 18.3187 0.953125 18.0123 0.953125 17.7026C0.953125 16.1916 1.14874 14.7275 1.52093 13.3326C3.44737 6.03384 10.0967 0.654663 18.0011 0.654663C27.4168 0.654961 35.0496 8.2878 35.0496 17.7029Z" fill="#E7E6E2"/>
<path d="M35.0493 17.703C35.0493 17.9209 35.0458 18.1392 35.0371 18.3554C34.3916 17.1507 33.2908 15.1724 31.4233 11.9603C27.2798 4.83455 18.0014 4.03002 10.4761 6.28517C2.94895 8.54211 1.3012 21.1387 1.3012 21.1387L0.97755 18.6257C0.961769 18.3193 0.953125 18.0129 0.953125 17.7033C0.953125 16.1922 1.14876 14.7282 1.52095 13.3332C3.44739 6.03447 10.0967 0.655334 18.0011 0.655334C27.4165 0.655037 35.0493 8.28785 35.0493 17.703Z" fill="white"/>
<path d="M32.9696 18.2807C32.9696 18.9319 32.9297 19.5732 32.852 20.2033C32.6722 21.6399 32.2931 23.0149 31.7453 24.2961C31.7453 24.2961 31.7453 24.2982 31.7435 24.3C29.4467 29.6854 24.1557 33.4537 17.9985 33.4537C11.0285 33.4537 5.17471 28.6272 3.50494 22.0931V22.0913C3.1923 20.8735 3.02734 19.5964 3.02734 18.2807C3.02734 16.9363 3.19974 15.6322 3.52578 14.3915C5.21819 7.89577 11.0568 3.10767 17.9985 3.10767C26.2667 3.10767 32.9696 9.90082 32.9696 18.2807Z" fill="url(#paint0_radial_26736_242477)"/>
<path d="M32.5969 17.7026C32.5969 18.329 32.5581 18.9459 32.4822 19.5519C32.3068 20.9337 31.9373 22.2566 31.4032 23.489C31.4032 23.489 31.4032 23.4908 31.4014 23.4926C29.162 28.6731 24.0035 32.2982 18.0006 32.2982C11.205 32.2982 5.49778 27.6551 3.86998 21.3696V21.3678C3.56509 20.1965 3.4043 18.9677 3.4043 17.7023C3.4043 16.4088 3.57253 15.1544 3.89023 13.9607C5.54006 7.71216 11.2327 3.10596 18.0003 3.10596C26.0618 3.10655 32.5969 9.64158 32.5969 17.7026Z" fill="#586686"/>
<path d="M31.6743 17.7033C31.6743 18.2902 31.638 18.8681 31.5668 19.4359C31.4025 20.7305 31.0562 21.9697 30.5563 23.1241C30.5563 23.1241 30.5563 23.1259 30.5545 23.1277C28.4568 27.9807 23.6247 31.3766 18.0011 31.3766C11.6352 31.3766 6.28909 27.027 4.76432 21.139V21.1372C4.47878 20.04 4.32812 18.8889 4.32812 17.7033C4.32812 16.4918 4.48563 15.3165 4.78338 14.1985C6.329 8.34503 11.6614 4.03033 18.0011 4.03033C25.5526 4.03033 31.6743 10.1521 31.6743 17.7033Z" fill="#A9C1D3"/>
<path d="M31.6742 17.703C31.6742 18.2899 31.6378 18.8678 31.5667 19.4356C29.8549 9.99784 23.9169 6.70055 14.8856 7.49167C10.0879 7.9121 6.81683 11.1677 4.7832 14.1985C6.32882 8.34503 11.6612 4.03033 18.0009 4.03033C25.5524 4.03004 31.6742 10.1518 31.6742 17.703Z" fill="#C4D8E6"/>
<path opacity="0.43" d="M30.5538 23.128C28.4562 27.9811 23.624 31.3769 18.0004 31.3769C11.6346 31.3769 6.28845 27.0273 4.76367 21.1393C6.70381 24.0019 11.2386 29.3242 18.0004 29.0696C27.0872 28.7287 30.4499 23.2975 30.5538 23.128Z" fill="#C4D8E6"/>
<mask id="path-9-outside-1_26736_242477" maskUnits="userSpaceOnUse" x="7.27148" y="10.2001" width="22" height="15" fill="black">
<rect fill="white" x="7.27148" y="10.2001" width="22" height="15"/>
<path d="M10.2045 24.2001C9.82052 24.2001 9.52652 24.0981 9.32252 23.8941C9.11852 23.6901 9.01652 23.4081 9.01652 23.0481C9.01652 22.6761 9.11852 22.3941 9.32252 22.2021C9.52652 22.0101 9.82052 21.9141 10.2045 21.9141H12.0225V13.7961H13.3365L10.7085 15.3981C10.4325 15.5661 10.1745 15.6321 9.93452 15.5961C9.70652 15.5601 9.50852 15.4581 9.34052 15.2901C9.17252 15.1221 9.05852 14.9241 8.99852 14.6961C8.95052 14.4561 8.97452 14.2221 9.07052 13.9941C9.16652 13.7541 9.34652 13.5501 9.61052 13.3821L12.1125 11.8701C12.3645 11.7141 12.6165 11.5881 12.8685 11.4921C13.1325 11.3961 13.3905 11.3481 13.6425 11.3481C14.0025 11.3481 14.2845 11.4441 14.4885 11.6361C14.7045 11.8161 14.8125 12.0981 14.8125 12.4821V21.9141H16.4505C16.8225 21.9141 17.1105 22.0101 17.3145 22.2021C17.5185 22.3941 17.6205 22.6761 17.6205 23.0481C17.6205 23.4201 17.5185 23.7081 17.3145 23.9121C17.1105 24.1041 16.8225 24.2001 16.4505 24.2001H10.2045ZM19.6555 24.2001C19.2115 24.2001 18.8815 24.0981 18.6655 23.8941C18.4615 23.6781 18.3595 23.3661 18.3595 22.9581C18.3595 22.6941 18.4255 22.4481 18.5575 22.2201C18.6895 21.9921 18.8695 21.7581 19.0975 21.5181L22.4815 17.9541C22.9855 17.4141 23.3455 16.9341 23.5615 16.5141C23.7895 16.0941 23.9035 15.6741 23.9035 15.2541C23.9035 14.7261 23.7295 14.3241 23.3815 14.0481C23.0455 13.7721 22.5535 13.6341 21.9055 13.6341C21.5575 13.6341 21.1975 13.6881 20.8255 13.7961C20.4655 13.8921 20.0875 14.0541 19.6915 14.2821C19.4275 14.4261 19.1815 14.4801 18.9535 14.4441C18.7375 14.3961 18.5515 14.2941 18.3955 14.1381C18.2395 13.9701 18.1375 13.7721 18.0895 13.5441C18.0415 13.3161 18.0655 13.0881 18.1615 12.8601C18.2575 12.6321 18.4375 12.4401 18.7015 12.2841C19.2295 11.9601 19.8055 11.7201 20.4295 11.5641C21.0535 11.3961 21.6715 11.3121 22.2835 11.3121C23.2315 11.3121 24.0295 11.4561 24.6775 11.7441C25.3255 12.0201 25.8175 12.4281 26.1535 12.9681C26.4895 13.5081 26.6575 14.1681 26.6575 14.9481C26.6575 15.4521 26.5795 15.9441 26.4235 16.4241C26.2675 16.9041 26.0215 17.3901 25.6855 17.8821C25.3615 18.3621 24.9295 18.8781 24.3895 19.4301L21.2395 22.6341V21.9141H26.1175C26.5015 21.9141 26.7895 22.0101 26.9815 22.2021C27.1855 22.3941 27.2875 22.6761 27.2875 23.0481C27.2875 23.4201 27.1855 23.7081 26.9815 23.9121C26.7895 24.1041 26.5015 24.2001 26.1175 24.2001H19.6555Z"/>
</mask>
<path d="M10.2045 24.2001C9.82052 24.2001 9.52652 24.0981 9.32252 23.8941C9.11852 23.6901 9.01652 23.4081 9.01652 23.0481C9.01652 22.6761 9.11852 22.3941 9.32252 22.2021C9.52652 22.0101 9.82052 21.9141 10.2045 21.9141H12.0225V13.7961H13.3365L10.7085 15.3981C10.4325 15.5661 10.1745 15.6321 9.93452 15.5961C9.70652 15.5601 9.50852 15.4581 9.34052 15.2901C9.17252 15.1221 9.05852 14.9241 8.99852 14.6961C8.95052 14.4561 8.97452 14.2221 9.07052 13.9941C9.16652 13.7541 9.34652 13.5501 9.61052 13.3821L12.1125 11.8701C12.3645 11.7141 12.6165 11.5881 12.8685 11.4921C13.1325 11.3961 13.3905 11.3481 13.6425 11.3481C14.0025 11.3481 14.2845 11.4441 14.4885 11.6361C14.7045 11.8161 14.8125 12.0981 14.8125 12.4821V21.9141H16.4505C16.8225 21.9141 17.1105 22.0101 17.3145 22.2021C17.5185 22.3941 17.6205 22.6761 17.6205 23.0481C17.6205 23.4201 17.5185 23.7081 17.3145 23.9121C17.1105 24.1041 16.8225 24.2001 16.4505 24.2001H10.2045ZM19.6555 24.2001C19.2115 24.2001 18.8815 24.0981 18.6655 23.8941C18.4615 23.6781 18.3595 23.3661 18.3595 22.9581C18.3595 22.6941 18.4255 22.4481 18.5575 22.2201C18.6895 21.9921 18.8695 21.7581 19.0975 21.5181L22.4815 17.9541C22.9855 17.4141 23.3455 16.9341 23.5615 16.5141C23.7895 16.0941 23.9035 15.6741 23.9035 15.2541C23.9035 14.7261 23.7295 14.3241 23.3815 14.0481C23.0455 13.7721 22.5535 13.6341 21.9055 13.6341C21.5575 13.6341 21.1975 13.6881 20.8255 13.7961C20.4655 13.8921 20.0875 14.0541 19.6915 14.2821C19.4275 14.4261 19.1815 14.4801 18.9535 14.4441C18.7375 14.3961 18.5515 14.2941 18.3955 14.1381C18.2395 13.9701 18.1375 13.7721 18.0895 13.5441C18.0415 13.3161 18.0655 13.0881 18.1615 12.8601C18.2575 12.6321 18.4375 12.4401 18.7015 12.2841C19.2295 11.9601 19.8055 11.7201 20.4295 11.5641C21.0535 11.3961 21.6715 11.3121 22.2835 11.3121C23.2315 11.3121 24.0295 11.4561 24.6775 11.7441C25.3255 12.0201 25.8175 12.4281 26.1535 12.9681C26.4895 13.5081 26.6575 14.1681 26.6575 14.9481C26.6575 15.4521 26.5795 15.9441 26.4235 16.4241C26.2675 16.9041 26.0215 17.3901 25.6855 17.8821C25.3615 18.3621 24.9295 18.8781 24.3895 19.4301L21.2395 22.6341V21.9141H26.1175C26.5015 21.9141 26.7895 22.0101 26.9815 22.2021C27.1855 22.3941 27.2875 22.6761 27.2875 23.0481C27.2875 23.4201 27.1855 23.7081 26.9815 23.9121C26.7895 24.1041 26.5015 24.2001 26.1175 24.2001H19.6555Z" fill="white"/>
<path d="M9.32252 22.2021L8.63715 21.4739H8.63715L9.32252 22.2021ZM12.0225 21.9141V22.9141H13.0225V21.9141H12.0225ZM12.0225 13.7961V12.7961H11.0225V13.7961H12.0225ZM13.3365 13.7961L13.857 14.6499L16.8982 12.7961H13.3365V13.7961ZM10.7085 15.3981L11.2285 16.2523L11.229 16.2519L10.7085 15.3981ZM9.93452 15.5961L9.77855 16.5839L9.78618 16.585L9.93452 15.5961ZM9.34052 15.2901L10.0476 14.583L10.0476 14.583L9.34052 15.2901ZM8.99852 14.6961L8.01793 14.8922L8.02381 14.9216L8.03144 14.9506L8.99852 14.6961ZM9.07052 13.9941L9.99215 14.3821L9.99565 14.3738L9.99899 14.3655L9.07052 13.9941ZM9.61052 13.3821L9.09331 12.5262L9.0834 12.5322L9.07364 12.5384L9.61052 13.3821ZM12.1125 11.8701L12.6298 12.726L12.6389 12.7203L12.1125 11.8701ZM12.8685 11.4921L12.5268 10.5523L12.5196 10.5549L12.5125 10.5576L12.8685 11.4921ZM14.4885 11.6361L13.8032 12.3643L13.8251 12.385L13.8483 12.4043L14.4885 11.6361ZM14.8125 21.9141H13.8125V22.9141H14.8125V21.9141ZM17.3145 22.2021L17.9999 21.4739L17.9999 21.4739L17.3145 22.2021ZM17.3145 23.9121L17.9999 24.6403L18.0109 24.6299L18.0216 24.6192L17.3145 23.9121ZM10.2045 23.2001C10.099 23.2001 10.044 23.1858 10.0238 23.1788C10.0081 23.1734 10.0165 23.1739 10.0296 23.187L8.61541 24.6012C9.06262 25.0484 9.64606 25.2001 10.2045 25.2001V23.2001ZM10.0296 23.187C10.0355 23.1928 10.0365 23.1981 10.0334 23.1894C10.0289 23.1769 10.0165 23.1347 10.0165 23.0481H8.01652C8.01652 23.6038 8.17988 24.1657 8.61541 24.6012L10.0296 23.187ZM10.0165 23.0481C10.0165 22.9512 10.03 22.907 10.0334 22.8977C10.0348 22.8937 10.034 22.8973 10.0288 22.9053C10.0235 22.9136 10.0162 22.9224 10.0079 22.9303L8.63715 21.4739C8.17263 21.9111 8.01652 22.4948 8.01652 23.0481H10.0165ZM10.0079 22.9303C9.99206 22.9452 9.98455 22.9438 10.0064 22.9367C10.0324 22.9282 10.0935 22.9141 10.2045 22.9141V20.9141C9.6615 20.9141 9.08625 21.0512 8.63715 21.4739L10.0079 22.9303ZM10.2045 22.9141H12.0225V20.9141H10.2045V22.9141ZM13.0225 21.9141V13.7961H11.0225V21.9141H13.0225ZM12.0225 14.7961H13.3365V12.7961H12.0225V14.7961ZM12.816 12.9422L10.188 14.5442L11.229 16.2519L13.857 14.6499L12.816 12.9422ZM10.1886 14.5439C10.1177 14.587 10.0754 14.6009 10.0602 14.6048C10.0479 14.6079 10.0584 14.6035 10.0829 14.6071L9.78618 16.585C10.3249 16.6658 10.8191 16.5014 11.2285 16.2523L10.1886 14.5439ZM10.0905 14.6083C10.0779 14.6063 10.0738 14.604 10.073 14.6036C10.0719 14.603 10.0634 14.5987 10.0476 14.583L8.63341 15.9972C8.94616 16.3099 9.33534 16.5139 9.77855 16.5838L10.0905 14.6083ZM10.0476 14.583C10.0038 14.5391 9.98017 14.497 9.96559 14.4416L8.03144 14.9506C8.13687 15.3512 8.34123 15.705 8.63341 15.9972L10.0476 14.583ZM9.9791 14.5C9.97079 14.4584 9.97292 14.4278 9.99215 14.3821L8.14888 13.606C7.97611 14.0163 7.93024 14.4537 8.01793 14.8922L9.9791 14.5ZM9.99899 14.3655C10.002 14.358 10.0222 14.3054 10.1474 14.2257L9.07364 12.5384C8.67084 12.7947 8.33107 13.1501 8.14204 13.6227L9.99899 14.3655ZM10.1277 14.2379L12.6297 12.7259L11.5953 11.0142L9.09331 12.5262L10.1277 14.2379ZM12.6389 12.7203C12.8421 12.5945 13.0373 12.4979 13.2245 12.4266L12.5125 10.5576C12.1957 10.6783 11.8869 10.8336 11.5862 11.0198L12.6389 12.7203ZM13.2103 12.4319C13.3772 12.3712 13.5197 12.3481 13.6425 12.3481V10.3481C13.2614 10.3481 12.8878 10.421 12.5268 10.5523L13.2103 12.4319ZM13.6425 12.3481C13.735 12.3481 13.7836 12.3605 13.8018 12.3667C13.8162 12.3717 13.8117 12.3723 13.8032 12.3643L15.1739 10.9079C14.736 10.4957 14.182 10.3481 13.6425 10.3481V12.3481ZM13.8483 12.4043C13.8343 12.3926 13.8215 12.3787 13.8115 12.3644C13.8017 12.3504 13.798 12.341 13.7977 12.3402C13.7975 12.3399 13.8014 12.3498 13.8052 12.3733C13.809 12.3969 13.8125 12.4325 13.8125 12.4821H15.8125C15.8125 11.9158 15.6481 11.3007 15.1287 10.8679L13.8483 12.4043ZM13.8125 12.4821V21.9141H15.8125V12.4821H13.8125ZM14.8125 22.9141H16.4505V20.9141H14.8125V22.9141ZM16.4505 22.9141C16.5524 22.9141 16.6072 22.9274 16.6293 22.9348C16.6474 22.9408 16.6414 22.9418 16.6292 22.9303L17.9999 21.4739C17.5562 21.0563 16.9916 20.9141 16.4505 20.9141V22.9141ZM16.6292 22.9303C16.6208 22.9224 16.6136 22.9136 16.6082 22.9053C16.6031 22.8973 16.6022 22.8937 16.6036 22.8977C16.607 22.907 16.6205 22.9512 16.6205 23.0481H18.6205C18.6205 22.4948 18.4644 21.9111 17.9999 21.4739L16.6292 22.9303ZM16.6205 23.0481C16.6205 23.1443 16.6072 23.1929 16.6014 23.2092C16.5971 23.2213 16.5979 23.2145 16.6074 23.205L18.0216 24.6192C18.4632 24.1776 18.6205 23.6051 18.6205 23.0481H16.6205ZM16.6292 23.1839C16.6414 23.1724 16.6474 23.1734 16.6293 23.1794C16.6072 23.1867 16.5524 23.2001 16.4505 23.2001V25.2001C16.9916 25.2001 17.5562 25.0578 17.9999 24.6403L16.6292 23.1839ZM16.4505 23.2001H10.2045V25.2001H16.4505V23.2001ZM18.6655 23.8941L17.9385 24.5807L17.9581 24.6015L17.9789 24.6211L18.6655 23.8941ZM18.5575 22.2201L19.4229 22.7211L18.5575 22.2201ZM19.0975 21.5181L19.8225 22.2068L19.8227 22.2066L19.0975 21.5181ZM22.4815 17.9541L23.2067 18.6427L23.2125 18.6364L22.4815 17.9541ZM23.5615 16.5141L22.6826 16.037L22.6773 16.0468L22.6722 16.0567L23.5615 16.5141ZM23.3815 14.0481L22.7467 14.8208L22.7534 14.8262L22.7601 14.8316L23.3815 14.0481ZM20.8255 13.7961L21.0831 14.7623L21.0938 14.7595L21.1043 14.7564L20.8255 13.7961ZM19.6915 14.2821L20.1703 15.16L20.1805 15.1544L20.1904 15.1487L19.6915 14.2821ZM18.9535 14.4441L18.7366 15.4203L18.7669 15.427L18.7975 15.4318L18.9535 14.4441ZM18.3955 14.1381L17.6627 14.8185L17.6753 14.8321L17.6884 14.8452L18.3955 14.1381ZM18.1615 12.8601L17.2398 12.472L17.2398 12.472L18.1615 12.8601ZM18.7015 12.2841L19.2102 13.145L19.2174 13.1408L19.2245 13.1364L18.7015 12.2841ZM20.4295 11.5641L20.672 12.5342L20.6808 12.532L20.6895 12.5297L20.4295 11.5641ZM24.6775 11.7441L24.2713 12.6579L24.2785 12.661L24.2856 12.6641L24.6775 11.7441ZM26.1535 12.9681L25.3044 13.4964V13.4964L26.1535 12.9681ZM26.4235 16.4241L25.4725 16.115V16.115L26.4235 16.4241ZM25.6855 17.8821L24.8597 17.3181L24.8566 17.3226L25.6855 17.8821ZM24.3895 19.4301L25.1026 20.1311L25.1043 20.1294L24.3895 19.4301ZM21.2395 22.6341H20.2395V25.0776L21.9526 23.3351L21.2395 22.6341ZM21.2395 21.9141V20.9141H20.2395V21.9141H21.2395ZM26.9815 22.2021L26.2744 22.9092L26.2851 22.9199L26.2961 22.9303L26.9815 22.2021ZM26.9815 23.9121L26.2744 23.205V23.205L26.9815 23.9121ZM19.6555 23.2001C19.3429 23.2001 19.3086 23.126 19.3521 23.1671L17.9789 24.6211C18.4543 25.0701 19.08 25.2001 19.6555 25.2001V23.2001ZM19.3925 23.2074C19.402 23.2175 19.3965 23.2179 19.3865 23.1873C19.3751 23.1526 19.3595 23.0811 19.3595 22.9581H17.3595C17.3595 23.5248 17.5025 24.1191 17.9385 24.5807L19.3925 23.2074ZM19.3595 22.9581C19.3595 22.8696 19.3793 22.7965 19.4229 22.7211L17.6921 21.719C17.4717 22.0996 17.3595 22.5185 17.3595 22.9581H19.3595ZM19.4229 22.7211C19.5071 22.5757 19.6354 22.4038 19.8225 22.2068L18.3725 20.8293C18.1036 21.1124 17.8719 21.4085 17.6921 21.719L19.4229 22.7211ZM19.8227 22.2066L23.2067 18.6426L21.7563 17.2655L18.3723 20.8295L19.8227 22.2066ZM23.2125 18.6364C23.7483 18.0624 24.1759 17.5059 24.4508 16.9714L22.6722 16.0567C22.5151 16.3623 22.2227 16.7658 21.7504 17.2718L23.2125 18.6364ZM24.4403 16.9912C24.7367 16.4451 24.9035 15.8625 24.9035 15.2541H22.9035C22.9035 15.4856 22.8422 15.743 22.6826 16.037L24.4403 16.9912ZM24.9035 15.2541C24.9035 14.4851 24.6363 13.7669 24.0029 13.2646L22.7601 14.8316C22.8227 14.8812 22.9035 14.967 22.9035 15.2541H24.9035ZM24.0162 13.2753C23.4319 12.7954 22.6756 12.6341 21.9055 12.6341V14.6341C22.4313 14.6341 22.659 14.7487 22.7467 14.8208L24.0162 13.2753ZM21.9055 12.6341C21.4532 12.6341 20.9992 12.7044 20.5467 12.8357L21.1043 14.7564C21.3958 14.6718 21.6618 14.6341 21.9055 14.6341V12.6341ZM20.5678 12.8298C20.1069 12.9528 19.6479 13.1533 19.1925 13.4155L20.1904 15.1487C20.5271 14.9549 20.8241 14.8314 21.0831 14.7623L20.5678 12.8298ZM19.2126 13.4042C19.1481 13.4394 19.1093 13.4506 19.0946 13.4538C19.0821 13.4566 19.0896 13.4532 19.1094 13.4563L18.7975 15.4318C19.3015 15.5114 19.7715 15.3775 20.1703 15.16L19.2126 13.4042ZM19.1704 13.4679C19.1395 13.461 19.1237 13.4521 19.1026 13.431L17.6884 14.8452C17.9793 15.1361 18.3355 15.3311 18.7366 15.4203L19.1704 13.4679ZM19.1283 13.4576C19.0978 13.4248 19.0793 13.3916 19.068 13.3381L17.1109 13.7501C17.1957 14.1525 17.3812 14.5153 17.6627 14.8185L19.1283 13.4576ZM19.068 13.3381C19.0646 13.3219 19.061 13.3008 19.0831 13.2481L17.2398 12.472C17.07 12.8754 17.0183 13.3103 17.1109 13.7501L19.068 13.3381ZM19.0831 13.2481C19.0832 13.248 19.0832 13.2479 19.0834 13.2475C19.0836 13.2471 19.0841 13.2463 19.0849 13.245C19.0865 13.2426 19.0904 13.2372 19.098 13.229C19.1135 13.2125 19.1467 13.1825 19.2102 13.145L18.1928 11.4231C17.7889 11.6618 17.4374 12.0029 17.2398 12.472L19.0831 13.2481ZM19.2245 13.1364C19.6623 12.8678 20.1432 12.6664 20.672 12.5342L20.1869 10.5939C19.4678 10.7737 18.7967 11.0524 18.1785 11.4317L19.2245 13.1364ZM20.6895 12.5297C21.2334 12.3832 21.764 12.3121 22.2835 12.3121V10.3121C21.5789 10.3121 20.8735 10.4089 20.1695 10.5985L20.6895 12.5297ZM22.2835 12.3121C23.1362 12.3121 23.7865 12.4424 24.2713 12.6579L25.0836 10.8303C24.2724 10.4697 23.3267 10.3121 22.2835 10.3121V12.3121ZM24.2856 12.6641C24.7658 12.8686 25.0886 13.1494 25.3044 13.4964L27.0025 12.4398C26.5464 11.7067 25.8851 11.1715 25.0693 10.824L24.2856 12.6641ZM25.3044 13.4964C25.5216 13.8454 25.6575 14.3125 25.6575 14.9481H27.6575C27.6575 14.0237 27.4574 13.1708 27.0025 12.4398L25.3044 13.4964ZM25.6575 14.9481C25.6575 15.347 25.5961 15.7347 25.4725 16.115L27.3745 16.7332C27.5629 16.1535 27.6575 15.5572 27.6575 14.9481H25.6575ZM25.4725 16.115C25.3506 16.4899 25.1514 16.8909 24.8597 17.3181L26.5113 18.446C26.8916 17.8892 27.1844 17.3182 27.3745 16.7332L25.4725 16.115ZM24.8566 17.3226C24.5754 17.7393 24.1855 18.2086 23.6747 18.7308L25.1043 20.1294C25.6735 19.5476 26.1476 18.9848 26.5143 18.4415L24.8566 17.3226ZM23.6764 18.729L20.5264 21.933L21.9526 23.3351L25.1026 20.1311L23.6764 18.729ZM22.2395 22.6341V21.9141H20.2395V22.6341H22.2395ZM21.2395 22.9141H26.1175V20.9141H21.2395V22.9141ZM26.1175 22.9141C26.2291 22.9141 26.2861 22.9284 26.3053 22.9348C26.3196 22.9395 26.3005 22.9353 26.2744 22.9092L27.6886 21.495C27.2429 21.0493 26.6556 20.9141 26.1175 20.9141V22.9141ZM26.2961 22.9303C26.2878 22.9224 26.2805 22.9136 26.2752 22.9053C26.27 22.8973 26.2692 22.8937 26.2706 22.8977C26.274 22.907 26.2875 22.9512 26.2875 23.0481H28.2875C28.2875 22.4948 28.1314 21.9111 27.6668 21.4739L26.2961 22.9303ZM26.2875 23.0481C26.2875 23.1443 26.2741 23.1929 26.2684 23.2092C26.2641 23.2213 26.2649 23.2145 26.2744 23.205L27.6886 24.6192C28.1301 24.1777 28.2875 23.6051 28.2875 23.0481H26.2875ZM26.2744 23.205C26.3005 23.1788 26.3196 23.1746 26.3053 23.1794C26.2861 23.1858 26.2291 23.2001 26.1175 23.2001V25.2001C26.6556 25.2001 27.2429 25.0649 27.6886 24.6192L26.2744 23.205ZM26.1175 23.2001H19.6555V25.2001H26.1175V23.2001Z" fill="#4F5E7F" mask="url(#path-9-outside-1_26736_242477)"/>
<path d="M25.5305 28.8289L24.4442 26.2748C23.7339 24.6047 24.5147 22.6681 26.1848 21.9578C27.8549 21.2474 29.7915 22.0282 30.5018 23.6983L31.5881 26.2525L25.5305 28.8289ZM27.4704 23.0596C27.2192 23.0596 26.9642 23.109 26.7188 23.2134C26.2451 23.4148 25.8783 23.7886 25.6858 24.266C25.4934 24.7434 25.4983 25.2671 25.6997 25.7408L26.2521 27.0394L29.7985 25.531L29.2462 24.2325C28.9347 23.5 28.2202 23.0596 27.4704 23.0596Z" fill="#124933"/>
<path d="M27.2783 34.5088C26.8063 34.5088 26.382 34.2282 26.1974 33.7939L24.1386 28.9534C23.8852 28.3577 24.1637 27.6668 24.7595 27.4134L31.1024 24.7157C31.2489 24.6534 31.4034 24.6217 31.5615 24.6217C32.0334 24.6217 32.4577 24.9023 32.6424 25.3365L34.7011 30.1772C34.8239 30.4658 34.8269 30.7849 34.7096 31.0758C34.5924 31.3666 34.3688 31.5944 34.0802 31.7171L27.7373 34.4149C27.5907 34.4772 27.4362 34.5088 27.2783 34.5088Z" fill="url(#paint1_linear_26736_242477)"/>
<path d="M31.5615 24.7467C31.9695 24.7467 32.3575 24.9863 32.5273 25.3854L34.5861 30.226C34.8128 30.7591 34.5645 31.3751 34.0313 31.6019L27.6884 34.2996C27.5544 34.3566 27.4152 34.3836 27.2782 34.3836C26.8702 34.3836 26.4822 34.144 26.3124 33.7449L24.2536 28.9043C24.0269 28.3711 24.2753 27.7551 24.8084 27.5284L31.1513 24.8306C31.2853 24.7737 31.4245 24.7467 31.5615 24.7467ZM31.5615 24.4966C31.3866 24.4966 31.2156 24.5316 31.0535 24.6005L24.7106 27.2983C24.0514 27.5787 23.7432 28.3431 24.0236 29.0023L26.0823 33.8429C26.2867 34.3233 26.7561 34.6338 27.2783 34.6338C27.4533 34.6338 27.6242 34.5988 27.7863 34.5299L34.1293 31.8321C34.7885 31.5518 35.0967 30.7874 34.8163 30.1282L32.7575 25.2876C32.5531 24.8071 32.0836 24.4966 31.5615 24.4966Z" fill="#5A2903"/>
<path d="M33.5738 31.1925L27.71 33.6865C27.2171 33.8961 26.6476 33.6665 26.438 33.1736L24.5347 28.6986C24.325 28.2057 24.5547 27.6362 25.0475 27.4266L30.9114 24.9326C31.4042 24.7229 31.9737 24.9526 32.1834 25.4455L34.0867 29.9205C34.2964 30.4134 34.0668 30.9829 33.5738 31.1925Z" fill="url(#paint2_linear_26736_242477)"/>
<path d="M29.2513 28.3074L28.6309 28.5713L29.4293 30.4485L30.0497 30.1846L29.2513 28.3074Z" fill="#124933"/>
<defs>
<radialGradient id="paint0_radial_26736_242477" cx="0" cy="0" r="1" gradientUnits="userSpaceOnUse" gradientTransform="translate(17.9984 18.2806) scale(15.0724 15.0724)">
<stop stop-color="#C4D8E6"/>
<stop offset="1" stop-color="#B7CEDE"/>
</radialGradient>
<linearGradient id="paint1_linear_26736_242477" x1="27.1815" y1="25.6064" x2="30.8125" y2="32.0286" gradientUnits="userSpaceOnUse">
<stop stop-color="#318063"/>
<stop offset="0.354" stop-color="#23674D"/>
<stop offset="0.7462" stop-color="#16513A"/>
<stop offset="1" stop-color="#124933"/>
</linearGradient>
<linearGradient id="paint2_linear_26736_242477" x1="30.4548" y1="30.4454" x2="24.654" y2="24.6866" gradientUnits="userSpaceOnUse">
<stop offset="2.7e-07" stop-color="#95D543"/>
<stop offset="0.0319" stop-color="#98D748"/>
<stop offset="0.349" stop-color="#B8E879"/>
<stop offset="0.6275" stop-color="#D0F59D"/>
<stop offset="0.8539" stop-color="#DEFCB3"/>
<stop offset="1" stop-color="#E3FFBB"/>
</linearGradient>
</defs>
</svg>
