<svg width="36" height="37" viewBox="0 0 36 37" fill="none" xmlns="http://www.w3.org/2000/svg">
<path d="M36 18.5686C36 19.3374 35.9521 20.0946 35.8586 20.8384C35.6421 22.5343 35.1865 24.158 34.5279 25.6705C34.5279 25.6705 34.5279 25.6729 34.5255 25.675C31.7639 32.0331 25.4025 36.4821 17.9999 36.4821C9.61969 36.4821 2.58148 30.7838 0.574055 23.0697V23.0673C0.197997 21.6298 0 20.1217 0 18.5686C0 16.9813 0.207223 15.4416 0.599061 13.977C2.63388 6.30816 9.65364 0.655396 17.9999 0.655396C27.9411 0.655098 36 8.67528 36 18.5686Z" fill="#9FADB7"/>
<path d="M35.0496 17.7029C35.0496 17.9209 35.0461 18.1391 35.0374 18.3553C35.0184 18.8642 34.9784 19.3662 34.9162 19.8628C34.7102 21.4775 34.2793 23.0213 33.6561 24.4615C33.6561 24.4615 33.6562 24.4633 33.6526 24.4666C31.0374 30.5175 25.0125 34.7509 18.0014 34.7509C10.0643 34.7509 3.39884 29.3283 1.49681 21.9864V21.9846C1.21455 20.9029 1.03827 19.7779 0.977532 18.625C0.961751 18.3187 0.953125 18.0123 0.953125 17.7026C0.953125 16.1916 1.14874 14.7275 1.52093 13.3326C3.44737 6.03384 10.0967 0.654663 18.0011 0.654663C27.4168 0.654961 35.0496 8.2878 35.0496 17.7029Z" fill="#E7E6E2"/>
<path d="M35.0493 17.703C35.0493 17.9209 35.0458 18.1392 35.0371 18.3554C34.3916 17.1507 33.2908 15.1724 31.4233 11.9603C27.2798 4.83455 18.0014 4.03002 10.4761 6.28517C2.94895 8.54211 1.3012 21.1387 1.3012 21.1387L0.97755 18.6257C0.961769 18.3193 0.953125 18.0129 0.953125 17.7033C0.953125 16.1922 1.14876 14.7282 1.52095 13.3332C3.44739 6.03447 10.0967 0.655334 18.0011 0.655334C27.4165 0.655037 35.0493 8.28785 35.0493 17.703Z" fill="white"/>
<path d="M32.9696 18.2807C32.9696 18.9319 32.9297 19.5732 32.852 20.2033C32.6722 21.6399 32.2931 23.0149 31.7453 24.2961C31.7453 24.2961 31.7453 24.2982 31.7435 24.3C29.4467 29.6854 24.1557 33.4537 17.9985 33.4537C11.0285 33.4537 5.17471 28.6272 3.50494 22.0931V22.0913C3.1923 20.8735 3.02734 19.5964 3.02734 18.2807C3.02734 16.9363 3.19974 15.6322 3.52578 14.3915C5.21819 7.89577 11.0568 3.10767 17.9985 3.10767C26.2667 3.10767 32.9696 9.90082 32.9696 18.2807Z" fill="url(#paint0_radial_26736_242502)"/>
<path d="M32.5969 17.7026C32.5969 18.329 32.5581 18.9459 32.4822 19.5519C32.3068 20.9337 31.9373 22.2566 31.4032 23.489C31.4032 23.489 31.4032 23.4908 31.4014 23.4926C29.162 28.6731 24.0035 32.2982 18.0006 32.2982C11.205 32.2982 5.49778 27.6551 3.86998 21.3696V21.3678C3.56509 20.1965 3.4043 18.9677 3.4043 17.7023C3.4043 16.4088 3.57253 15.1544 3.89023 13.9607C5.54006 7.71216 11.2327 3.10596 18.0003 3.10596C26.0618 3.10655 32.5969 9.64158 32.5969 17.7026Z" fill="#586686"/>
<path d="M31.6743 17.7033C31.6743 18.2902 31.638 18.8681 31.5668 19.4359C31.4025 20.7305 31.0562 21.9697 30.5563 23.1241C30.5563 23.1241 30.5563 23.1259 30.5545 23.1277C28.4568 27.9807 23.6247 31.3766 18.0011 31.3766C11.6352 31.3766 6.28909 27.027 4.76432 21.139V21.1372C4.47878 20.04 4.32812 18.8889 4.32812 17.7033C4.32812 16.4918 4.48563 15.3165 4.78338 14.1985C6.329 8.34503 11.6614 4.03033 18.0011 4.03033C25.5526 4.03033 31.6743 10.1521 31.6743 17.7033Z" fill="#A9C1D3"/>
<path d="M31.6742 17.703C31.6742 18.2899 31.6378 18.8678 31.5667 19.4356C29.8549 9.99784 23.9169 6.70055 14.8856 7.49167C10.0879 7.9121 6.81683 11.1677 4.7832 14.1985C6.32882 8.34503 11.6612 4.03033 18.0009 4.03033C25.5524 4.03004 31.6742 10.1518 31.6742 17.703Z" fill="#C4D8E6"/>
<path opacity="0.43" d="M30.5538 23.128C28.4562 27.9811 23.624 31.3769 18.0004 31.3769C11.6346 31.3769 6.28845 27.0273 4.76367 21.1393C6.70381 24.0019 11.2386 29.3242 18.0004 29.0696C27.0872 28.7287 30.4499 23.2975 30.5538 23.128Z" fill="#C4D8E6"/>
<mask id="path-9-outside-1_26736_242502" maskUnits="userSpaceOnUse" x="7.27148" y="10.2001" width="21" height="16" fill="black">
<rect fill="white" x="7.27148" y="10.2001" width="21" height="16"/>
<path d="M10.2045 24.2001C9.82052 24.2001 9.52652 24.0981 9.32252 23.8941C9.11852 23.6901 9.01652 23.4081 9.01652 23.0481C9.01652 22.6761 9.11852 22.3941 9.32252 22.2021C9.52652 22.0101 9.82052 21.9141 10.2045 21.9141H12.0225V13.7961H13.3365L10.7085 15.3981C10.4325 15.5661 10.1745 15.6321 9.93452 15.5961C9.70652 15.5601 9.50852 15.4581 9.34052 15.2901C9.17252 15.1221 9.05852 14.9241 8.99852 14.6961C8.95052 14.4561 8.97452 14.2221 9.07052 13.9941C9.16652 13.7541 9.34652 13.5501 9.61052 13.3821L12.1125 11.8701C12.3645 11.7141 12.6165 11.5881 12.8685 11.4921C13.1325 11.3961 13.3905 11.3481 13.6425 11.3481C14.0025 11.3481 14.2845 11.4441 14.4885 11.6361C14.7045 11.8161 14.8125 12.0981 14.8125 12.4821V21.9141H16.4505C16.8225 21.9141 17.1105 22.0101 17.3145 22.2021C17.5185 22.3941 17.6205 22.6761 17.6205 23.0481C17.6205 23.4201 17.5185 23.7081 17.3145 23.9121C17.1105 24.1041 16.8225 24.2001 16.4505 24.2001H10.2045ZM22.2655 24.3981C21.6295 24.3981 20.9815 24.3261 20.3215 24.1821C19.6735 24.0261 19.1095 23.8101 18.6295 23.5341C18.3175 23.3661 18.1015 23.1681 17.9815 22.9401C17.8735 22.7001 17.8315 22.4661 17.8555 22.2381C17.8915 22.0101 17.9875 21.8121 18.1435 21.6441C18.2995 21.4641 18.4975 21.3501 18.7375 21.3021C18.9895 21.2541 19.2655 21.3021 19.5655 21.4461C20.0335 21.6741 20.4775 21.8361 20.8975 21.9321C21.3175 22.0281 21.7375 22.0761 22.1575 22.0761C22.6375 22.0761 23.0395 22.0161 23.3635 21.8961C23.6875 21.7641 23.9335 21.5781 24.1015 21.3381C24.2695 21.0981 24.3535 20.7981 24.3535 20.4381C24.3535 19.9341 24.1795 19.5561 23.8315 19.3041C23.4835 19.0521 22.9735 18.9261 22.3015 18.9261H21.2395C20.8435 18.9261 20.5375 18.8301 20.3215 18.6381C20.1175 18.4341 20.0155 18.1581 20.0155 17.8101C20.0155 17.4501 20.1175 17.1741 20.3215 16.9821C20.5375 16.7781 20.8435 16.6761 21.2395 16.6761H22.0315C22.4395 16.6761 22.7815 16.6161 23.0575 16.4961C23.3455 16.3641 23.5675 16.1841 23.7235 15.9561C23.8915 15.7281 23.9755 15.4461 23.9755 15.1101C23.9755 14.6301 23.8075 14.2641 23.4715 14.0121C23.1475 13.7601 22.6735 13.6341 22.0495 13.6341C21.6655 13.6341 21.2875 13.6821 20.9155 13.7781C20.5435 13.8621 20.1415 14.0181 19.7095 14.2461C19.4455 14.3781 19.1995 14.4201 18.9715 14.3721C18.7435 14.3241 18.5515 14.2161 18.3955 14.0481C18.2515 13.8801 18.1555 13.6881 18.1075 13.4721C18.0715 13.2441 18.1015 13.0161 18.1975 12.7881C18.3055 12.5601 18.4975 12.3741 18.7735 12.2301C19.2895 11.9301 19.8475 11.7021 20.4475 11.5461C21.0595 11.3901 21.6775 11.3121 22.3015 11.3121C23.2135 11.3121 23.9935 11.4501 24.6415 11.7261C25.2895 12.0021 25.7875 12.3981 26.1355 12.9141C26.4835 13.4181 26.6575 14.0301 26.6575 14.7501C26.6575 15.2421 26.5615 15.6921 26.3695 16.1001C26.1775 16.5081 25.9075 16.8561 25.5595 17.1441C25.2235 17.4201 24.8095 17.6181 24.3175 17.7381V17.5041C25.1695 17.6481 25.8355 18.0021 26.3155 18.5661C26.7955 19.1301 27.0355 19.8381 27.0355 20.6901C27.0355 21.4461 26.8435 22.1061 26.4595 22.6701C26.0755 23.2221 25.5235 23.6481 24.8035 23.9481C24.0955 24.2481 23.2495 24.3981 22.2655 24.3981Z"/>
</mask>
<path d="M10.2045 24.2001C9.82052 24.2001 9.52652 24.0981 9.32252 23.8941C9.11852 23.6901 9.01652 23.4081 9.01652 23.0481C9.01652 22.6761 9.11852 22.3941 9.32252 22.2021C9.52652 22.0101 9.82052 21.9141 10.2045 21.9141H12.0225V13.7961H13.3365L10.7085 15.3981C10.4325 15.5661 10.1745 15.6321 9.93452 15.5961C9.70652 15.5601 9.50852 15.4581 9.34052 15.2901C9.17252 15.1221 9.05852 14.9241 8.99852 14.6961C8.95052 14.4561 8.97452 14.2221 9.07052 13.9941C9.16652 13.7541 9.34652 13.5501 9.61052 13.3821L12.1125 11.8701C12.3645 11.7141 12.6165 11.5881 12.8685 11.4921C13.1325 11.3961 13.3905 11.3481 13.6425 11.3481C14.0025 11.3481 14.2845 11.4441 14.4885 11.6361C14.7045 11.8161 14.8125 12.0981 14.8125 12.4821V21.9141H16.4505C16.8225 21.9141 17.1105 22.0101 17.3145 22.2021C17.5185 22.3941 17.6205 22.6761 17.6205 23.0481C17.6205 23.4201 17.5185 23.7081 17.3145 23.9121C17.1105 24.1041 16.8225 24.2001 16.4505 24.2001H10.2045ZM22.2655 24.3981C21.6295 24.3981 20.9815 24.3261 20.3215 24.1821C19.6735 24.0261 19.1095 23.8101 18.6295 23.5341C18.3175 23.3661 18.1015 23.1681 17.9815 22.9401C17.8735 22.7001 17.8315 22.4661 17.8555 22.2381C17.8915 22.0101 17.9875 21.8121 18.1435 21.6441C18.2995 21.4641 18.4975 21.3501 18.7375 21.3021C18.9895 21.2541 19.2655 21.3021 19.5655 21.4461C20.0335 21.6741 20.4775 21.8361 20.8975 21.9321C21.3175 22.0281 21.7375 22.0761 22.1575 22.0761C22.6375 22.0761 23.0395 22.0161 23.3635 21.8961C23.6875 21.7641 23.9335 21.5781 24.1015 21.3381C24.2695 21.0981 24.3535 20.7981 24.3535 20.4381C24.3535 19.9341 24.1795 19.5561 23.8315 19.3041C23.4835 19.0521 22.9735 18.9261 22.3015 18.9261H21.2395C20.8435 18.9261 20.5375 18.8301 20.3215 18.6381C20.1175 18.4341 20.0155 18.1581 20.0155 17.8101C20.0155 17.4501 20.1175 17.1741 20.3215 16.9821C20.5375 16.7781 20.8435 16.6761 21.2395 16.6761H22.0315C22.4395 16.6761 22.7815 16.6161 23.0575 16.4961C23.3455 16.3641 23.5675 16.1841 23.7235 15.9561C23.8915 15.7281 23.9755 15.4461 23.9755 15.1101C23.9755 14.6301 23.8075 14.2641 23.4715 14.0121C23.1475 13.7601 22.6735 13.6341 22.0495 13.6341C21.6655 13.6341 21.2875 13.6821 20.9155 13.7781C20.5435 13.8621 20.1415 14.0181 19.7095 14.2461C19.4455 14.3781 19.1995 14.4201 18.9715 14.3721C18.7435 14.3241 18.5515 14.2161 18.3955 14.0481C18.2515 13.8801 18.1555 13.6881 18.1075 13.4721C18.0715 13.2441 18.1015 13.0161 18.1975 12.7881C18.3055 12.5601 18.4975 12.3741 18.7735 12.2301C19.2895 11.9301 19.8475 11.7021 20.4475 11.5461C21.0595 11.3901 21.6775 11.3121 22.3015 11.3121C23.2135 11.3121 23.9935 11.4501 24.6415 11.7261C25.2895 12.0021 25.7875 12.3981 26.1355 12.9141C26.4835 13.4181 26.6575 14.0301 26.6575 14.7501C26.6575 15.2421 26.5615 15.6921 26.3695 16.1001C26.1775 16.5081 25.9075 16.8561 25.5595 17.1441C25.2235 17.4201 24.8095 17.6181 24.3175 17.7381V17.5041C25.1695 17.6481 25.8355 18.0021 26.3155 18.5661C26.7955 19.1301 27.0355 19.8381 27.0355 20.6901C27.0355 21.4461 26.8435 22.1061 26.4595 22.6701C26.0755 23.2221 25.5235 23.6481 24.8035 23.9481C24.0955 24.2481 23.2495 24.3981 22.2655 24.3981Z" fill="white"/>
<path d="M9.32252 22.2021L8.63715 21.4739H8.63715L9.32252 22.2021ZM12.0225 21.9141V22.9141H13.0225V21.9141H12.0225ZM12.0225 13.7961V12.7961H11.0225V13.7961H12.0225ZM13.3365 13.7961L13.857 14.6499L16.8982 12.7961H13.3365V13.7961ZM10.7085 15.3981L11.2285 16.2523L11.229 16.2519L10.7085 15.3981ZM9.93452 15.5961L9.77855 16.5839L9.78618 16.585L9.93452 15.5961ZM9.34052 15.2901L10.0476 14.583L10.0476 14.583L9.34052 15.2901ZM8.99852 14.6961L8.01793 14.8922L8.02381 14.9216L8.03144 14.9506L8.99852 14.6961ZM9.07052 13.9941L9.99215 14.3821L9.99565 14.3738L9.99899 14.3655L9.07052 13.9941ZM9.61052 13.3821L9.09331 12.5262L9.0834 12.5322L9.07364 12.5384L9.61052 13.3821ZM12.1125 11.8701L12.6298 12.726L12.6389 12.7203L12.1125 11.8701ZM12.8685 11.4921L12.5268 10.5523L12.5196 10.5549L12.5125 10.5576L12.8685 11.4921ZM14.4885 11.6361L13.8032 12.3643L13.8251 12.385L13.8483 12.4043L14.4885 11.6361ZM14.8125 21.9141H13.8125V22.9141H14.8125V21.9141ZM17.3145 22.2021L17.9999 21.4739L17.9999 21.4739L17.3145 22.2021ZM17.3145 23.9121L17.9999 24.6403L18.0109 24.6299L18.0216 24.6192L17.3145 23.9121ZM10.2045 23.2001C10.099 23.2001 10.044 23.1858 10.0238 23.1788C10.0081 23.1734 10.0165 23.1739 10.0296 23.187L8.61541 24.6012C9.06262 25.0484 9.64606 25.2001 10.2045 25.2001V23.2001ZM10.0296 23.187C10.0355 23.1928 10.0365 23.1981 10.0334 23.1894C10.0289 23.1769 10.0165 23.1347 10.0165 23.0481H8.01652C8.01652 23.6038 8.17988 24.1657 8.61541 24.6012L10.0296 23.187ZM10.0165 23.0481C10.0165 22.9512 10.03 22.907 10.0334 22.8977C10.0348 22.8937 10.034 22.8973 10.0288 22.9053C10.0235 22.9136 10.0162 22.9224 10.0079 22.9303L8.63715 21.4739C8.17263 21.9111 8.01652 22.4948 8.01652 23.0481H10.0165ZM10.0079 22.9303C9.99206 22.9452 9.98455 22.9438 10.0064 22.9367C10.0324 22.9282 10.0935 22.9141 10.2045 22.9141V20.9141C9.6615 20.9141 9.08625 21.0512 8.63715 21.4739L10.0079 22.9303ZM10.2045 22.9141H12.0225V20.9141H10.2045V22.9141ZM13.0225 21.9141V13.7961H11.0225V21.9141H13.0225ZM12.0225 14.7961H13.3365V12.7961H12.0225V14.7961ZM12.816 12.9422L10.188 14.5442L11.229 16.2519L13.857 14.6499L12.816 12.9422ZM10.1886 14.5439C10.1177 14.587 10.0754 14.6009 10.0602 14.6048C10.0479 14.6079 10.0584 14.6035 10.0829 14.6071L9.78618 16.585C10.3249 16.6658 10.8191 16.5014 11.2285 16.2523L10.1886 14.5439ZM10.0905 14.6083C10.0779 14.6063 10.0738 14.604 10.073 14.6036C10.0719 14.603 10.0634 14.5987 10.0476 14.583L8.63341 15.9972C8.94616 16.3099 9.33534 16.5139 9.77855 16.5838L10.0905 14.6083ZM10.0476 14.583C10.0038 14.5391 9.98017 14.497 9.96559 14.4416L8.03144 14.9506C8.13687 15.3512 8.34123 15.705 8.63341 15.9972L10.0476 14.583ZM9.9791 14.5C9.97079 14.4584 9.97292 14.4278 9.99215 14.3821L8.14888 13.606C7.97611 14.0163 7.93024 14.4537 8.01793 14.8922L9.9791 14.5ZM9.99899 14.3655C10.002 14.358 10.0222 14.3054 10.1474 14.2257L9.07364 12.5384C8.67084 12.7947 8.33107 13.1501 8.14204 13.6227L9.99899 14.3655ZM10.1277 14.2379L12.6297 12.7259L11.5953 11.0142L9.09331 12.5262L10.1277 14.2379ZM12.6389 12.7203C12.8421 12.5945 13.0373 12.4979 13.2245 12.4266L12.5125 10.5576C12.1957 10.6783 11.8869 10.8336 11.5862 11.0198L12.6389 12.7203ZM13.2103 12.4319C13.3772 12.3712 13.5197 12.3481 13.6425 12.3481V10.3481C13.2614 10.3481 12.8878 10.421 12.5268 10.5523L13.2103 12.4319ZM13.6425 12.3481C13.735 12.3481 13.7836 12.3605 13.8018 12.3667C13.8162 12.3717 13.8117 12.3723 13.8032 12.3643L15.1739 10.9079C14.736 10.4957 14.182 10.3481 13.6425 10.3481V12.3481ZM13.8483 12.4043C13.8343 12.3926 13.8215 12.3787 13.8115 12.3644C13.8017 12.3504 13.798 12.341 13.7977 12.3402C13.7975 12.3399 13.8014 12.3498 13.8052 12.3733C13.809 12.3969 13.8125 12.4325 13.8125 12.4821H15.8125C15.8125 11.9158 15.6481 11.3007 15.1287 10.8679L13.8483 12.4043ZM13.8125 12.4821V21.9141H15.8125V12.4821H13.8125ZM14.8125 22.9141H16.4505V20.9141H14.8125V22.9141ZM16.4505 22.9141C16.5524 22.9141 16.6072 22.9274 16.6293 22.9348C16.6474 22.9408 16.6414 22.9418 16.6292 22.9303L17.9999 21.4739C17.5562 21.0563 16.9916 20.9141 16.4505 20.9141V22.9141ZM16.6292 22.9303C16.6208 22.9224 16.6136 22.9136 16.6082 22.9053C16.6031 22.8973 16.6022 22.8937 16.6036 22.8977C16.607 22.907 16.6205 22.9512 16.6205 23.0481H18.6205C18.6205 22.4948 18.4644 21.9111 17.9999 21.4739L16.6292 22.9303ZM16.6205 23.0481C16.6205 23.1443 16.6072 23.1929 16.6014 23.2092C16.5971 23.2213 16.5979 23.2145 16.6074 23.205L18.0216 24.6192C18.4632 24.1776 18.6205 23.6051 18.6205 23.0481H16.6205ZM16.6292 23.1839C16.6414 23.1724 16.6474 23.1734 16.6293 23.1794C16.6072 23.1867 16.5524 23.2001 16.4505 23.2001V25.2001C16.9916 25.2001 17.5562 25.0578 17.9999 24.6403L16.6292 23.1839ZM16.4505 23.2001H10.2045V25.2001H16.4505V23.2001ZM20.3215 24.1821L20.0874 25.1543L20.0978 25.1568L20.1083 25.1591L20.3215 24.1821ZM18.6295 23.5341L19.128 22.6672L19.1159 22.6602L19.1036 22.6536L18.6295 23.5341ZM17.9815 22.9401L17.0696 23.3504L17.0822 23.3785L17.0966 23.4058L17.9815 22.9401ZM17.8555 22.2381L16.8677 22.0821L16.8637 22.1077L16.861 22.1334L17.8555 22.2381ZM18.1435 21.6441L18.8763 22.3245L18.8879 22.312L18.8992 22.299L18.1435 21.6441ZM18.7375 21.3021L18.5504 20.3197L18.5414 20.3215L18.7375 21.3021ZM19.5655 21.4461L20.0035 20.5471L19.9982 20.5445L19.5655 21.4461ZM20.8975 21.9321L20.6747 22.9069L20.8975 21.9321ZM23.3635 21.8961L23.7108 22.8338L23.7259 22.8282L23.7408 22.8222L23.3635 21.8961ZM23.8315 19.3041L23.245 20.114V20.114L23.8315 19.3041ZM20.3215 18.6381L19.6144 19.3452L19.6352 19.366L19.6571 19.3855L20.3215 18.6381ZM20.3215 16.9821L21.0068 17.7103L21.0081 17.7091L20.3215 16.9821ZM23.0575 16.4961L23.4562 17.4131L23.4652 17.4092L23.4741 17.4051L23.0575 16.4961ZM23.7235 15.9561L22.9184 15.3629L22.9081 15.377L22.8982 15.3914L23.7235 15.9561ZM23.4715 14.0121L22.8575 14.8014L22.8645 14.8068L22.8715 14.8121L23.4715 14.0121ZM20.9155 13.7781L21.1357 14.7535L21.1506 14.7502L21.1654 14.7463L20.9155 13.7781ZM19.7095 14.2461L20.1567 15.1405L20.1665 15.1356L20.1762 15.1305L19.7095 14.2461ZM18.9715 14.3721L18.7655 15.3506H18.7655L18.9715 14.3721ZM18.3955 14.0481L17.6362 14.6989L17.6492 14.714L17.6627 14.7285L18.3955 14.0481ZM18.1075 13.4721L17.1197 13.628L17.1246 13.6587L17.1313 13.689L18.1075 13.4721ZM18.1975 12.7881L17.2937 12.36L17.2844 12.3798L17.2758 12.4L18.1975 12.7881ZM18.7735 12.2301L19.236 13.1167L19.2563 13.1061L19.2761 13.0946L18.7735 12.2301ZM20.4475 11.5461L20.2005 10.577L20.1959 10.5783L20.4475 11.5461ZM26.1355 12.9141L25.3064 13.4732L25.3126 13.4823L26.1355 12.9141ZM26.3695 16.1001L27.2743 16.5259V16.5259L26.3695 16.1001ZM25.5595 17.1441L26.1942 17.9168L26.1971 17.9145L25.5595 17.1441ZM24.3175 17.7381H23.3175V19.0113L24.5544 18.7096L24.3175 17.7381ZM24.3175 17.5041L24.4841 16.5181L23.3175 16.3209V17.5041H24.3175ZM26.3155 18.5661L25.5539 19.2142L26.3155 18.5661ZM26.4595 22.6701L27.2804 23.2412L27.2861 23.2329L26.4595 22.6701ZM24.8035 23.9481L24.4189 23.025L24.4133 23.0273L24.8035 23.9481ZM22.2655 23.3981C21.7055 23.3981 21.1289 23.3347 20.5347 23.2051L20.1083 25.1591C20.834 25.3174 21.5535 25.3981 22.2655 25.3981V23.3981ZM20.5555 23.2099C19.982 23.0718 19.5105 22.8871 19.128 22.6672L18.131 24.401C18.7085 24.733 19.3649 24.9804 20.0874 25.1543L20.5555 23.2099ZM19.1036 22.6536C19.0058 22.601 18.945 22.5553 18.9092 22.5224C18.8917 22.5063 18.8809 22.494 18.8747 22.4862C18.8685 22.4784 18.8665 22.4744 18.8664 22.4743L17.0966 23.4058C17.338 23.8646 17.732 24.1866 18.1554 24.4145L19.1036 22.6536ZM18.8934 22.5297C18.8471 22.4268 18.8471 22.3701 18.85 22.3428L16.861 22.1334C16.8159 22.562 16.8999 22.9733 17.0696 23.3504L18.8934 22.5297ZM18.8432 22.394C18.8485 22.3609 18.8565 22.3459 18.8763 22.3245L17.4107 20.9636C17.1185 21.2783 16.9345 21.6593 16.8677 22.0821L18.8432 22.394ZM18.8992 22.299C18.9037 22.2938 18.9064 22.2914 18.9073 22.2907C18.9077 22.2903 18.908 22.2902 18.908 22.2902C18.908 22.2902 18.9079 22.2902 18.9079 22.2902C18.908 22.2902 18.9082 22.29 18.9088 22.2898C18.9094 22.2895 18.9105 22.289 18.9123 22.2884C18.9156 22.2871 18.9224 22.2849 18.9336 22.2827L18.5414 20.3215C18.0904 20.4117 17.6933 20.6366 17.3878 20.9891L18.8992 22.299ZM18.9246 22.2844C18.9118 22.2868 18.9681 22.2686 19.1328 22.3476L19.9982 20.5445C19.5628 20.3356 19.0672 20.2213 18.5504 20.3197L18.9246 22.2844ZM19.1275 22.3451C19.6504 22.5998 20.1668 22.7908 20.6747 22.9069L21.1203 20.9572C20.7882 20.8813 20.4166 20.7483 20.0035 20.5471L19.1275 22.3451ZM20.6747 22.9069C21.1659 23.0192 21.6606 23.0761 22.1575 23.0761V21.0761C21.8144 21.0761 21.4691 21.0369 21.1203 20.9572L20.6747 22.9069ZM22.1575 23.0761C22.7133 23.0761 23.2416 23.0076 23.7108 22.8338L23.0162 20.9583C22.8374 21.0245 22.5617 21.0761 22.1575 21.0761V23.0761ZM23.7408 22.8222C24.2079 22.6319 24.6225 22.3375 24.9207 21.9115L23.2823 20.7646C23.2444 20.8186 23.1671 20.8963 22.9862 20.97L23.7408 22.8222ZM24.9207 21.9115C25.231 21.4683 25.3535 20.9557 25.3535 20.4381H23.3535C23.3535 20.6404 23.308 20.7278 23.2823 20.7646L24.9207 21.9115ZM25.3535 20.4381C25.3535 19.6766 25.073 18.9684 24.418 18.4941L23.245 20.114C23.286 20.1437 23.3535 20.1915 23.3535 20.4381H25.3535ZM24.418 18.4941C23.8275 18.0666 23.0735 17.9261 22.3015 17.9261V19.9261C22.8734 19.9261 23.1394 20.0376 23.245 20.114L24.418 18.4941ZM22.3015 17.9261H21.2395V19.9261H22.3015V17.9261ZM21.2395 17.9261C20.9972 17.9261 20.9605 17.8682 20.9858 17.8907L19.6571 19.3855C20.1144 19.792 20.6897 19.9261 21.2395 19.9261V17.9261ZM21.0286 17.931C21.0283 17.9307 21.0295 17.9319 21.0308 17.934C21.0322 17.9361 21.0316 17.9359 21.03 17.9314C21.0267 17.9226 21.0155 17.8869 21.0155 17.8101H19.0155C19.0155 18.3648 19.1852 18.916 19.6144 19.3452L21.0286 17.931ZM21.0155 17.8101C21.0155 17.7228 21.028 17.6851 21.03 17.6797C21.0308 17.6775 21.0295 17.6815 21.0246 17.6891C21.0195 17.6968 21.0132 17.7043 21.0068 17.7103L19.6361 16.2539C19.178 16.6851 19.0155 17.2574 19.0155 17.8101H21.0155ZM21.0081 17.7091C21.0014 17.7154 21.0023 17.7102 21.0292 17.7013C21.0601 17.691 21.1254 17.6761 21.2395 17.6761V15.6761C20.6752 15.6761 20.0914 15.8239 19.6349 16.2551L21.0081 17.7091ZM21.2395 17.6761H22.0315V15.6761H21.2395V17.6761ZM22.0315 17.6761C22.5307 17.6761 23.0182 17.6036 23.4562 17.4131L22.6588 15.579C22.5448 15.6285 22.3483 15.6761 22.0315 15.6761V17.6761ZM23.4741 17.4051C23.9024 17.2088 24.276 16.9194 24.5488 16.5208L22.8982 15.3914C22.8589 15.4487 22.7885 15.5193 22.6408 15.587L23.4741 17.4051ZM24.5285 16.5493C24.8455 16.1191 24.9755 15.6186 24.9755 15.1101H22.9755C22.9755 15.2736 22.9375 15.337 22.9184 15.3629L24.5285 16.5493ZM24.9755 15.1101C24.9755 14.3666 24.6977 13.6817 24.0715 13.2121L22.8715 14.8121C22.9173 14.8464 22.9755 14.8935 22.9755 15.1101H24.9755ZM24.0854 13.2227C23.5154 12.7794 22.786 12.6341 22.0495 12.6341V14.6341C22.561 14.6341 22.7796 14.7408 22.8575 14.8014L24.0854 13.2227ZM22.0495 12.6341C21.5811 12.6341 21.1192 12.6927 20.6656 12.8098L21.1654 14.7463C21.4558 14.6714 21.7498 14.6341 22.0495 14.6341V12.6341ZM20.6952 12.8026C20.2173 12.9105 19.7319 13.1035 19.2427 13.3617L20.1762 15.1305C20.551 14.9326 20.8696 14.8136 21.1357 14.7535L20.6952 12.8026ZM19.2623 13.3516C19.2026 13.3815 19.1689 13.3891 19.1587 13.3908C19.1509 13.3922 19.1598 13.3898 19.1775 13.3935L18.7655 15.3506C19.2678 15.4564 19.7456 15.3461 20.1567 15.1405L19.2623 13.3516ZM19.1775 13.3935C19.1574 13.3893 19.149 13.3848 19.1467 13.3835C19.1446 13.3823 19.1387 13.3789 19.1283 13.3676L17.6627 14.7285C17.9617 15.0505 18.3388 15.2608 18.7655 15.3506L19.1775 13.3935ZM19.1547 13.3973C19.1176 13.3539 19.0961 13.3109 19.0837 13.2551L17.1313 13.689C17.2149 14.0652 17.3854 14.4062 17.6362 14.6989L19.1547 13.3973ZM19.0952 13.3161C19.0904 13.2853 19.09 13.2453 19.1191 13.1761L17.2758 12.4C17.113 12.7868 17.0526 13.2028 17.1197 13.628L19.0952 13.3161ZM19.1012 13.2162C19.1015 13.2156 19.1022 13.2142 19.104 13.2117C19.1059 13.2091 19.1101 13.2037 19.1183 13.1958C19.1348 13.1798 19.1698 13.1512 19.236 13.1167L18.3109 11.3435C17.8879 11.5642 17.515 11.8929 17.2937 12.36L19.1012 13.2162ZM19.2761 13.0946C19.7105 12.842 20.1837 12.6479 20.6991 12.5139L20.1959 10.5783C19.5113 10.7562 18.8684 11.0181 18.2709 11.3656L19.2761 13.0946ZM20.6945 12.5151C21.2268 12.3794 21.7618 12.3121 22.3015 12.3121V10.3121C21.5932 10.3121 20.8922 10.4007 20.2005 10.5771L20.6945 12.5151ZM22.3015 12.3121C23.1168 12.3121 23.7562 12.436 24.2496 12.6461L25.0333 10.806C24.2307 10.4642 23.3102 10.3121 22.3015 10.3121V12.3121ZM24.2496 12.6461C24.7442 12.8567 25.08 13.1376 25.3064 13.4732L26.9646 12.3549C26.4949 11.6586 25.8348 11.1474 25.0333 10.806L24.2496 12.6461ZM25.3126 13.4823C25.5261 13.7915 25.6575 14.1965 25.6575 14.7501H27.6575C27.6575 13.8636 27.4409 13.0446 26.9584 12.3459L25.3126 13.4823ZM25.6575 14.7501C25.6575 15.1085 25.5884 15.4112 25.4647 15.6743L27.2743 16.5259C27.5345 15.9729 27.6575 15.3757 27.6575 14.7501H25.6575ZM25.4647 15.6743C25.3354 15.9489 25.1568 16.1793 24.9219 16.3737L26.1971 17.9145C26.6582 17.5328 27.0195 17.0672 27.2743 16.5259L25.4647 15.6743ZM24.9247 16.3713C24.7224 16.5376 24.4506 16.6763 24.0805 16.7666L24.5544 18.7096C25.1684 18.5599 25.7246 18.3026 26.1942 17.9168L24.9247 16.3713ZM25.3175 17.7381V17.5041H23.3175V17.7381H25.3175ZM24.1508 18.4901C24.8117 18.6018 25.2511 18.8584 25.5539 19.2142L27.077 17.918C26.4199 17.1458 25.5273 16.6944 24.4841 16.5181L24.1508 18.4901ZM25.5539 19.2142C25.8572 19.5705 26.0355 20.0377 26.0355 20.6901H28.0355C28.0355 19.6384 27.7338 18.6897 27.077 17.918L25.5539 19.2142ZM26.0355 20.6901C26.0355 21.2679 25.8918 21.727 25.6329 22.1073L27.2861 23.2329C27.7951 22.4852 28.0355 21.6242 28.0355 20.6901H26.0355ZM25.6386 22.099C25.38 22.4707 24.9916 22.7864 24.4189 23.025L25.1881 24.8712C26.0554 24.5098 26.771 23.9734 27.2804 23.2411L25.6386 22.099ZM24.4133 23.0273C23.8581 23.2626 23.1514 23.3981 22.2655 23.3981V25.3981C23.3476 25.3981 24.3329 25.2335 25.1936 24.8688L24.4133 23.0273Z" fill="#4F5E7F" mask="url(#path-9-outside-1_26736_242502)"/>
<path d="M25.5305 28.8289L24.4442 26.2748C23.7339 24.6047 24.5147 22.6681 26.1848 21.9578C27.8549 21.2474 29.7915 22.0282 30.5018 23.6983L31.5881 26.2525L25.5305 28.8289ZM27.4704 23.0596C27.2192 23.0596 26.9642 23.109 26.7188 23.2134C26.2451 23.4148 25.8783 23.7886 25.6858 24.266C25.4934 24.7434 25.4983 25.2671 25.6997 25.7408L26.2521 27.0394L29.7985 25.531L29.2462 24.2325C28.9347 23.5 28.2202 23.0596 27.4704 23.0596Z" fill="#124933"/>
<path d="M27.2783 34.5088C26.8063 34.5088 26.382 34.2282 26.1974 33.7939L24.1386 28.9534C23.8852 28.3577 24.1637 27.6668 24.7595 27.4134L31.1024 24.7157C31.2489 24.6534 31.4034 24.6217 31.5615 24.6217C32.0334 24.6217 32.4577 24.9023 32.6424 25.3365L34.7011 30.1772C34.8239 30.4658 34.8269 30.7849 34.7096 31.0758C34.5924 31.3666 34.3688 31.5944 34.0802 31.7171L27.7373 34.4149C27.5907 34.4772 27.4362 34.5088 27.2783 34.5088Z" fill="url(#paint1_linear_26736_242502)"/>
<path d="M31.5615 24.7467C31.9695 24.7467 32.3575 24.9863 32.5273 25.3854L34.5861 30.226C34.8128 30.7591 34.5645 31.3751 34.0313 31.6019L27.6884 34.2996C27.5544 34.3566 27.4152 34.3836 27.2782 34.3836C26.8702 34.3836 26.4822 34.144 26.3124 33.7449L24.2536 28.9043C24.0269 28.3711 24.2753 27.7551 24.8084 27.5284L31.1513 24.8306C31.2853 24.7737 31.4245 24.7467 31.5615 24.7467ZM31.5615 24.4966C31.3866 24.4966 31.2156 24.5316 31.0535 24.6005L24.7106 27.2983C24.0514 27.5787 23.7432 28.3431 24.0236 29.0023L26.0823 33.8429C26.2867 34.3233 26.7561 34.6338 27.2783 34.6338C27.4533 34.6338 27.6242 34.5988 27.7863 34.5299L34.1293 31.8321C34.7885 31.5518 35.0967 30.7874 34.8163 30.1282L32.7575 25.2876C32.5531 24.8071 32.0836 24.4966 31.5615 24.4966Z" fill="#5A2903"/>
<path d="M33.5738 31.1925L27.71 33.6865C27.2171 33.8961 26.6476 33.6665 26.438 33.1736L24.5347 28.6986C24.325 28.2057 24.5547 27.6362 25.0475 27.4266L30.9114 24.9326C31.4042 24.7229 31.9737 24.9526 32.1834 25.4455L34.0867 29.9205C34.2964 30.4134 34.0668 30.9829 33.5738 31.1925Z" fill="url(#paint2_linear_26736_242502)"/>
<path d="M29.2513 28.3074L28.6309 28.5713L29.4293 30.4485L30.0497 30.1846L29.2513 28.3074Z" fill="#124933"/>
<defs>
<radialGradient id="paint0_radial_26736_242502" cx="0" cy="0" r="1" gradientUnits="userSpaceOnUse" gradientTransform="translate(17.9984 18.2806) scale(15.0724 15.0724)">
<stop stop-color="#C4D8E6"/>
<stop offset="1" stop-color="#B7CEDE"/>
</radialGradient>
<linearGradient id="paint1_linear_26736_242502" x1="27.1815" y1="25.6064" x2="30.8125" y2="32.0286" gradientUnits="userSpaceOnUse">
<stop stop-color="#318063"/>
<stop offset="0.354" stop-color="#23674D"/>
<stop offset="0.7462" stop-color="#16513A"/>
<stop offset="1" stop-color="#124933"/>
</linearGradient>
<linearGradient id="paint2_linear_26736_242502" x1="30.4548" y1="30.4454" x2="24.654" y2="24.6866" gradientUnits="userSpaceOnUse">
<stop offset="2.7e-07" stop-color="#95D543"/>
<stop offset="0.0319" stop-color="#98D748"/>
<stop offset="0.349" stop-color="#B8E879"/>
<stop offset="0.6275" stop-color="#D0F59D"/>
<stop offset="0.8539" stop-color="#DEFCB3"/>
<stop offset="1" stop-color="#E3FFBB"/>
</linearGradient>
</defs>
</svg>
