<svg width="36" height="37" viewBox="0 0 36 37" fill="none" xmlns="http://www.w3.org/2000/svg">
<path d="M36 18.5686C36 19.3374 35.9521 20.0946 35.8586 20.8384C35.6421 22.5343 35.1865 24.158 34.5279 25.6705C34.5279 25.6705 34.5279 25.6729 34.5255 25.675C31.7639 32.0331 25.4025 36.4821 17.9999 36.4821C9.61969 36.4821 2.58148 30.7838 0.574055 23.0697V23.0673C0.197997 21.6298 0 20.1217 0 18.5686C0 16.9813 0.207223 15.4416 0.599061 13.977C2.63388 6.30816 9.65364 0.655396 17.9999 0.655396C27.9411 0.655098 36 8.67528 36 18.5686Z" fill="#9FADB7"/>
<path d="M35.0496 17.7029C35.0496 17.9209 35.0461 18.1391 35.0374 18.3553C35.0184 18.8642 34.9784 19.3662 34.9162 19.8628C34.7102 21.4775 34.2793 23.0213 33.6561 24.4615C33.6561 24.4615 33.6562 24.4633 33.6526 24.4666C31.0374 30.5175 25.0125 34.7509 18.0014 34.7509C10.0643 34.7509 3.39884 29.3283 1.49681 21.9864V21.9846C1.21455 20.9029 1.03827 19.7779 0.977532 18.625C0.961751 18.3187 0.953125 18.0123 0.953125 17.7026C0.953125 16.1916 1.14874 14.7275 1.52093 13.3326C3.44737 6.03384 10.0967 0.654663 18.0011 0.654663C27.4168 0.654961 35.0496 8.2878 35.0496 17.7029Z" fill="#E7E6E2"/>
<path d="M35.0493 17.703C35.0493 17.9209 35.0458 18.1392 35.0371 18.3554C34.3916 17.1507 33.2908 15.1724 31.4233 11.9603C27.2798 4.83455 18.0014 4.03002 10.4761 6.28517C2.94895 8.54211 1.3012 21.1387 1.3012 21.1387L0.97755 18.6257C0.961769 18.3193 0.953125 18.0129 0.953125 17.7033C0.953125 16.1922 1.14876 14.7282 1.52095 13.3332C3.44739 6.03447 10.0967 0.655334 18.0011 0.655334C27.4165 0.655037 35.0493 8.28785 35.0493 17.703Z" fill="white"/>
<path d="M32.9696 18.2807C32.9696 18.9319 32.9297 19.5732 32.852 20.2033C32.6722 21.6399 32.2931 23.0149 31.7453 24.2961C31.7453 24.2961 31.7453 24.2982 31.7435 24.3C29.4467 29.6854 24.1557 33.4537 17.9985 33.4537C11.0285 33.4537 5.17471 28.6272 3.50494 22.0931V22.0913C3.1923 20.8735 3.02734 19.5964 3.02734 18.2807C3.02734 16.9363 3.19974 15.6322 3.52578 14.3915C5.21819 7.89577 11.0568 3.10767 17.9985 3.10767C26.2667 3.10767 32.9696 9.90082 32.9696 18.2807Z" fill="url(#paint0_radial_26736_242527)"/>
<path d="M32.5969 17.7026C32.5969 18.329 32.5581 18.9459 32.4822 19.5519C32.3068 20.9337 31.9373 22.2566 31.4032 23.489C31.4032 23.489 31.4032 23.4908 31.4014 23.4926C29.162 28.6731 24.0035 32.2982 18.0006 32.2982C11.205 32.2982 5.49778 27.6551 3.86998 21.3696V21.3678C3.56509 20.1965 3.4043 18.9677 3.4043 17.7023C3.4043 16.4088 3.57253 15.1544 3.89023 13.9607C5.54006 7.71216 11.2327 3.10596 18.0003 3.10596C26.0618 3.10655 32.5969 9.64158 32.5969 17.7026Z" fill="#586686"/>
<path d="M31.6743 17.7033C31.6743 18.2902 31.638 18.8681 31.5668 19.4359C31.4025 20.7305 31.0562 21.9697 30.5563 23.1241C30.5563 23.1241 30.5563 23.1259 30.5545 23.1277C28.4568 27.9807 23.6247 31.3766 18.0011 31.3766C11.6352 31.3766 6.28909 27.027 4.76432 21.139V21.1372C4.47878 20.04 4.32812 18.8889 4.32812 17.7033C4.32812 16.4918 4.48563 15.3165 4.78338 14.1985C6.329 8.34503 11.6614 4.03033 18.0011 4.03033C25.5526 4.03033 31.6743 10.1521 31.6743 17.7033Z" fill="#A9C1D3"/>
<path d="M31.6742 17.703C31.6742 18.2899 31.6378 18.8678 31.5667 19.4356C29.8549 9.99784 23.9169 6.70055 14.8856 7.49167C10.0879 7.9121 6.81683 11.1677 4.7832 14.1985C6.32882 8.34503 11.6612 4.03033 18.0009 4.03033C25.5524 4.03004 31.6742 10.1518 31.6742 17.703Z" fill="#C4D8E6"/>
<path opacity="0.43" d="M30.5538 23.128C28.4562 27.9811 23.624 31.3769 18.0004 31.3769C11.6346 31.3769 6.28845 27.0273 4.76367 21.1393C6.70381 24.0019 11.2386 29.3242 18.0004 29.0696C27.0872 28.7287 30.4499 23.2975 30.5538 23.128Z" fill="#C4D8E6"/>
<mask id="path-9-outside-1_26736_242527" maskUnits="userSpaceOnUse" x="7.27148" y="10.2001" width="22" height="16" fill="black">
<rect fill="white" x="7.27148" y="10.2001" width="22" height="16"/>
<path d="M10.2045 24.2001C9.82052 24.2001 9.52652 24.0981 9.32252 23.8941C9.11852 23.6901 9.01652 23.4081 9.01652 23.0481C9.01652 22.6761 9.11852 22.3941 9.32252 22.2021C9.52652 22.0101 9.82052 21.9141 10.2045 21.9141H12.0225V13.7961H13.3365L10.7085 15.3981C10.4325 15.5661 10.1745 15.6321 9.93452 15.5961C9.70652 15.5601 9.50852 15.4581 9.34052 15.2901C9.17252 15.1221 9.05852 14.9241 8.99852 14.6961C8.95052 14.4561 8.97452 14.2221 9.07052 13.9941C9.16652 13.7541 9.34652 13.5501 9.61052 13.3821L12.1125 11.8701C12.3645 11.7141 12.6165 11.5881 12.8685 11.4921C13.1325 11.3961 13.3905 11.3481 13.6425 11.3481C14.0025 11.3481 14.2845 11.4441 14.4885 11.6361C14.7045 11.8161 14.8125 12.0981 14.8125 12.4821V21.9141H16.4505C16.8225 21.9141 17.1105 22.0101 17.3145 22.2021C17.5185 22.3941 17.6205 22.6761 17.6205 23.0481C17.6205 23.4201 17.5185 23.7081 17.3145 23.9121C17.1105 24.1041 16.8225 24.2001 16.4505 24.2001H10.2045ZM24.5515 24.3621C24.1195 24.3621 23.7775 24.2421 23.5255 24.0021C23.2855 23.7621 23.1655 23.4141 23.1655 22.9581V21.9321H19.1335C18.6895 21.9321 18.3355 21.8361 18.0715 21.6441C17.8075 21.4401 17.6755 21.1341 17.6755 20.7261C17.6755 20.4861 17.7295 20.2401 17.8375 19.9881C17.9455 19.7361 18.1375 19.4241 18.4135 19.0521L23.0755 12.2661C23.2795 11.9661 23.5075 11.7381 23.7595 11.5821C24.0115 11.4261 24.2995 11.3481 24.6235 11.3481C25.0075 11.3481 25.3135 11.4681 25.5415 11.7081C25.7815 11.9361 25.9015 12.2841 25.9015 12.7521V19.7361H26.5675C26.9635 19.7361 27.2635 19.8321 27.4675 20.0241C27.6715 20.2041 27.7735 20.4741 27.7735 20.8341C27.7735 21.1821 27.6715 21.4521 27.4675 21.6441C27.2755 21.8361 26.9755 21.9321 26.5675 21.9321H25.9015V22.9581C25.9015 23.4141 25.7815 23.7621 25.5415 24.0021C25.3135 24.2421 24.9835 24.3621 24.5515 24.3621ZM23.1655 19.7361V14.7861H23.6875L19.8535 20.4201V19.7361H23.1655Z"/>
</mask>
<path d="M10.2045 24.2001C9.82052 24.2001 9.52652 24.0981 9.32252 23.8941C9.11852 23.6901 9.01652 23.4081 9.01652 23.0481C9.01652 22.6761 9.11852 22.3941 9.32252 22.2021C9.52652 22.0101 9.82052 21.9141 10.2045 21.9141H12.0225V13.7961H13.3365L10.7085 15.3981C10.4325 15.5661 10.1745 15.6321 9.93452 15.5961C9.70652 15.5601 9.50852 15.4581 9.34052 15.2901C9.17252 15.1221 9.05852 14.9241 8.99852 14.6961C8.95052 14.4561 8.97452 14.2221 9.07052 13.9941C9.16652 13.7541 9.34652 13.5501 9.61052 13.3821L12.1125 11.8701C12.3645 11.7141 12.6165 11.5881 12.8685 11.4921C13.1325 11.3961 13.3905 11.3481 13.6425 11.3481C14.0025 11.3481 14.2845 11.4441 14.4885 11.6361C14.7045 11.8161 14.8125 12.0981 14.8125 12.4821V21.9141H16.4505C16.8225 21.9141 17.1105 22.0101 17.3145 22.2021C17.5185 22.3941 17.6205 22.6761 17.6205 23.0481C17.6205 23.4201 17.5185 23.7081 17.3145 23.9121C17.1105 24.1041 16.8225 24.2001 16.4505 24.2001H10.2045ZM24.5515 24.3621C24.1195 24.3621 23.7775 24.2421 23.5255 24.0021C23.2855 23.7621 23.1655 23.4141 23.1655 22.9581V21.9321H19.1335C18.6895 21.9321 18.3355 21.8361 18.0715 21.6441C17.8075 21.4401 17.6755 21.1341 17.6755 20.7261C17.6755 20.4861 17.7295 20.2401 17.8375 19.9881C17.9455 19.7361 18.1375 19.4241 18.4135 19.0521L23.0755 12.2661C23.2795 11.9661 23.5075 11.7381 23.7595 11.5821C24.0115 11.4261 24.2995 11.3481 24.6235 11.3481C25.0075 11.3481 25.3135 11.4681 25.5415 11.7081C25.7815 11.9361 25.9015 12.2841 25.9015 12.7521V19.7361H26.5675C26.9635 19.7361 27.2635 19.8321 27.4675 20.0241C27.6715 20.2041 27.7735 20.4741 27.7735 20.8341C27.7735 21.1821 27.6715 21.4521 27.4675 21.6441C27.2755 21.8361 26.9755 21.9321 26.5675 21.9321H25.9015V22.9581C25.9015 23.4141 25.7815 23.7621 25.5415 24.0021C25.3135 24.2421 24.9835 24.3621 24.5515 24.3621ZM23.1655 19.7361V14.7861H23.6875L19.8535 20.4201V19.7361H23.1655Z" fill="white"/>
<path d="M9.32252 22.2021L8.63715 21.4739H8.63715L9.32252 22.2021ZM12.0225 21.9141V22.9141H13.0225V21.9141H12.0225ZM12.0225 13.7961V12.7961H11.0225V13.7961H12.0225ZM13.3365 13.7961L13.857 14.6499L16.8982 12.7961H13.3365V13.7961ZM10.7085 15.3981L11.2285 16.2523L11.229 16.2519L10.7085 15.3981ZM9.93452 15.5961L9.77855 16.5839L9.78618 16.585L9.93452 15.5961ZM9.34052 15.2901L10.0476 14.583L10.0476 14.583L9.34052 15.2901ZM8.99852 14.6961L8.01793 14.8922L8.02381 14.9216L8.03144 14.9506L8.99852 14.6961ZM9.07052 13.9941L9.99215 14.3821L9.99565 14.3738L9.99899 14.3655L9.07052 13.9941ZM9.61052 13.3821L9.09331 12.5262L9.0834 12.5322L9.07364 12.5384L9.61052 13.3821ZM12.1125 11.8701L12.6298 12.726L12.6389 12.7203L12.1125 11.8701ZM12.8685 11.4921L12.5268 10.5523L12.5196 10.5549L12.5125 10.5576L12.8685 11.4921ZM14.4885 11.6361L13.8032 12.3643L13.8251 12.385L13.8483 12.4043L14.4885 11.6361ZM14.8125 21.9141H13.8125V22.9141H14.8125V21.9141ZM17.3145 22.2021L17.9999 21.4739L17.9999 21.4739L17.3145 22.2021ZM17.3145 23.9121L17.9999 24.6403L18.0109 24.6299L18.0216 24.6192L17.3145 23.9121ZM10.2045 23.2001C10.099 23.2001 10.044 23.1858 10.0238 23.1788C10.0081 23.1734 10.0165 23.1739 10.0296 23.187L8.61541 24.6012C9.06262 25.0484 9.64606 25.2001 10.2045 25.2001V23.2001ZM10.0296 23.187C10.0355 23.1928 10.0365 23.1981 10.0334 23.1894C10.0289 23.1769 10.0165 23.1347 10.0165 23.0481H8.01652C8.01652 23.6038 8.17988 24.1657 8.61541 24.6012L10.0296 23.187ZM10.0165 23.0481C10.0165 22.9512 10.03 22.907 10.0334 22.8977C10.0348 22.8937 10.034 22.8973 10.0288 22.9053C10.0235 22.9136 10.0162 22.9224 10.0079 22.9303L8.63715 21.4739C8.17263 21.9111 8.01652 22.4948 8.01652 23.0481H10.0165ZM10.0079 22.9303C9.99206 22.9452 9.98455 22.9438 10.0064 22.9367C10.0324 22.9282 10.0935 22.9141 10.2045 22.9141V20.9141C9.6615 20.9141 9.08625 21.0512 8.63715 21.4739L10.0079 22.9303ZM10.2045 22.9141H12.0225V20.9141H10.2045V22.9141ZM13.0225 21.9141V13.7961H11.0225V21.9141H13.0225ZM12.0225 14.7961H13.3365V12.7961H12.0225V14.7961ZM12.816 12.9422L10.188 14.5442L11.229 16.2519L13.857 14.6499L12.816 12.9422ZM10.1886 14.5439C10.1177 14.587 10.0754 14.6009 10.0602 14.6048C10.0479 14.6079 10.0584 14.6035 10.0829 14.6071L9.78618 16.585C10.3249 16.6658 10.8191 16.5014 11.2285 16.2523L10.1886 14.5439ZM10.0905 14.6083C10.0779 14.6063 10.0738 14.604 10.073 14.6036C10.0719 14.603 10.0634 14.5987 10.0476 14.583L8.63341 15.9972C8.94616 16.3099 9.33534 16.5139 9.77855 16.5838L10.0905 14.6083ZM10.0476 14.583C10.0038 14.5391 9.98017 14.497 9.96559 14.4416L8.03144 14.9506C8.13687 15.3512 8.34123 15.705 8.63341 15.9972L10.0476 14.583ZM9.9791 14.5C9.97079 14.4584 9.97292 14.4278 9.99215 14.3821L8.14888 13.606C7.97611 14.0163 7.93024 14.4537 8.01793 14.8922L9.9791 14.5ZM9.99899 14.3655C10.002 14.358 10.0222 14.3054 10.1474 14.2257L9.07364 12.5384C8.67084 12.7947 8.33107 13.1501 8.14204 13.6227L9.99899 14.3655ZM10.1277 14.2379L12.6297 12.7259L11.5953 11.0142L9.09331 12.5262L10.1277 14.2379ZM12.6389 12.7203C12.8421 12.5945 13.0373 12.4979 13.2245 12.4266L12.5125 10.5576C12.1957 10.6783 11.8869 10.8336 11.5862 11.0198L12.6389 12.7203ZM13.2103 12.4319C13.3772 12.3712 13.5197 12.3481 13.6425 12.3481V10.3481C13.2614 10.3481 12.8878 10.421 12.5268 10.5523L13.2103 12.4319ZM13.6425 12.3481C13.735 12.3481 13.7836 12.3605 13.8018 12.3667C13.8162 12.3717 13.8117 12.3723 13.8032 12.3643L15.1739 10.9079C14.736 10.4957 14.182 10.3481 13.6425 10.3481V12.3481ZM13.8483 12.4043C13.8343 12.3926 13.8215 12.3787 13.8115 12.3644C13.8017 12.3504 13.798 12.341 13.7977 12.3402C13.7975 12.3399 13.8014 12.3498 13.8052 12.3733C13.809 12.3969 13.8125 12.4325 13.8125 12.4821H15.8125C15.8125 11.9158 15.6481 11.3007 15.1287 10.8679L13.8483 12.4043ZM13.8125 12.4821V21.9141H15.8125V12.4821H13.8125ZM14.8125 22.9141H16.4505V20.9141H14.8125V22.9141ZM16.4505 22.9141C16.5524 22.9141 16.6072 22.9274 16.6293 22.9348C16.6474 22.9408 16.6414 22.9418 16.6292 22.9303L17.9999 21.4739C17.5562 21.0563 16.9916 20.9141 16.4505 20.9141V22.9141ZM16.6292 22.9303C16.6208 22.9224 16.6136 22.9136 16.6082 22.9053C16.6031 22.8973 16.6022 22.8937 16.6036 22.8977C16.607 22.907 16.6205 22.9512 16.6205 23.0481H18.6205C18.6205 22.4948 18.4644 21.9111 17.9999 21.4739L16.6292 22.9303ZM16.6205 23.0481C16.6205 23.1443 16.6072 23.1929 16.6014 23.2092C16.5971 23.2213 16.5979 23.2145 16.6074 23.205L18.0216 24.6192C18.4632 24.1776 18.6205 23.6051 18.6205 23.0481H16.6205ZM16.6292 23.1839C16.6414 23.1724 16.6474 23.1734 16.6293 23.1794C16.6072 23.1867 16.5524 23.2001 16.4505 23.2001V25.2001C16.9916 25.2001 17.5562 25.0578 17.9999 24.6403L16.6292 23.1839ZM16.4505 23.2001H10.2045V25.2001H16.4505V23.2001ZM23.5255 24.0021L22.8184 24.7092L22.827 24.7178L22.8358 24.7262L23.5255 24.0021ZM23.1655 21.9321H24.1655V20.9321H23.1655V21.9321ZM18.0715 21.6441L17.46 22.4354L17.4715 22.4443L17.4833 22.4528L18.0715 21.6441ZM17.8375 19.9881L18.7566 20.382L17.8375 19.9881ZM18.4135 19.0521L19.2166 19.6479L19.2274 19.6333L19.2377 19.6183L18.4135 19.0521ZM23.0755 12.2661L23.8997 12.8323L23.9024 12.8284L23.0755 12.2661ZM25.5415 11.7081L24.8165 12.3968L24.8341 12.4154L24.8527 12.4331L25.5415 11.7081ZM25.9015 19.7361H24.9015V20.7361H25.9015V19.7361ZM27.4675 20.0241L26.7821 20.7523L26.7938 20.7633L26.8059 20.7739L27.4675 20.0241ZM27.4675 21.6441L26.7821 20.9159L26.7711 20.9263L26.7604 20.937L27.4675 21.6441ZM25.9015 21.9321V20.9321H24.9015V21.9321H25.9015ZM25.5415 24.0021L24.8344 23.295L24.8253 23.304L24.8165 23.3133L25.5415 24.0021ZM23.1655 19.7361V20.7361H24.1655V19.7361H23.1655ZM23.1655 14.7861V13.7861H22.1655V14.7861H23.1655ZM23.6875 14.7861L24.5142 15.3487L25.5776 13.7861H23.6875V14.7861ZM19.8535 20.4201H18.8535V23.667L20.6802 20.9827L19.8535 20.4201ZM19.8535 19.7361V18.7361H18.8535V19.7361H19.8535ZM24.5515 23.3621C24.3111 23.3621 24.2389 23.3005 24.2151 23.2779L22.8358 24.7262C23.3161 25.1836 23.9278 25.3621 24.5515 25.3621V23.3621ZM24.2326 23.295C24.2288 23.2911 24.2156 23.278 24.2009 23.2351C24.1845 23.1876 24.1655 23.1006 24.1655 22.9581H22.1655C22.1655 23.5854 22.3335 24.2243 22.8184 24.7092L24.2326 23.295ZM24.1655 22.9581V21.9321H22.1655V22.9581H24.1655ZM23.1655 20.9321H19.1335V22.9321H23.1655V20.9321ZM19.1335 20.9321C18.826 20.9321 18.7008 20.8653 18.6597 20.8353L17.4833 22.4528C17.9701 22.8069 18.5529 22.9321 19.1335 22.9321V20.9321ZM18.6829 20.8528C18.6814 20.8516 18.6842 20.8536 18.6881 20.8587C18.692 20.8637 18.6933 20.867 18.6927 20.8655C18.6913 20.8623 18.6755 20.8236 18.6755 20.7261H16.6755C16.6755 21.3671 16.8961 21.9996 17.46 22.4354L18.6829 20.8528ZM18.6755 20.7261C18.6755 20.6394 18.6944 20.5271 18.7566 20.382L16.9183 19.5942C16.7645 19.953 16.6755 20.3327 16.6755 20.7261H18.6755ZM18.7566 20.382C18.8201 20.2339 18.9599 19.9939 19.2166 19.6479L17.6104 18.4562C17.3151 18.8542 17.0709 19.2382 16.9183 19.5942L18.7566 20.382ZM19.2377 19.6183L23.8997 12.8323L22.2513 11.6998L17.5893 18.4858L19.2377 19.6183ZM23.9024 12.8284C24.0448 12.619 24.1767 12.4999 24.2858 12.4323L23.2331 10.7318C22.8383 10.9763 22.5142 11.3131 22.2486 11.7038L23.9024 12.8284ZM24.2858 12.4323C24.3651 12.3833 24.4675 12.3481 24.6235 12.3481V10.3481C24.1315 10.3481 23.6578 10.4689 23.2331 10.7318L24.2858 12.4323ZM24.6235 12.3481C24.7812 12.3481 24.8079 12.3878 24.8165 12.3968L26.2665 11.0193C25.8191 10.5484 25.2338 10.3481 24.6235 10.3481V12.3481ZM24.8527 12.4331C24.8439 12.4247 24.8525 12.4265 24.8661 12.4661C24.8817 12.5111 24.9015 12.6003 24.9015 12.7521H26.9015C26.9015 12.1256 26.7396 11.4669 26.2302 10.9831L24.8527 12.4331ZM24.9015 12.7521V19.7361H26.9015V12.7521H24.9015ZM25.9015 20.7361H26.5675V18.7361H25.9015V20.7361ZM26.5675 20.7361C26.6874 20.7361 26.7548 20.7509 26.7847 20.7605C26.8105 20.7687 26.8015 20.7705 26.7821 20.7523L28.1528 19.2959C27.6986 18.8683 27.1127 18.7361 26.5675 18.7361V20.7361ZM26.8059 20.7739C26.7941 20.7636 26.7832 20.7512 26.7744 20.7383C26.7658 20.7256 26.7622 20.7167 26.7615 20.715C26.7608 20.713 26.7735 20.7461 26.7735 20.8341H28.7735C28.7735 20.2852 28.6122 19.7005 28.1291 19.2742L26.8059 20.7739ZM26.7735 20.8341C26.7735 20.9115 26.7621 20.9427 26.7615 20.9442C26.7613 20.9447 26.763 20.9403 26.7676 20.9332C26.7724 20.9261 26.7777 20.92 26.7821 20.9159L28.1528 22.3723C28.6043 21.9474 28.7735 21.3864 28.7735 20.8341H26.7735ZM26.7604 20.937C26.7938 20.9035 26.8163 20.9004 26.7937 20.9076C26.7664 20.9164 26.6969 20.9321 26.5675 20.9321V22.9321C27.1091 22.9321 27.7189 22.8068 28.1746 22.3512L26.7604 20.937ZM26.5675 20.9321H25.9015V22.9321H26.5675V20.9321ZM24.9015 21.9321V22.9581H26.9015V21.9321H24.9015ZM24.9015 22.9581C24.9015 23.1006 24.8825 23.1876 24.8661 23.2351C24.8513 23.278 24.8382 23.2911 24.8344 23.295L26.2486 24.7092C26.7334 24.2243 26.9015 23.5854 26.9015 22.9581H24.9015ZM24.8165 23.3133C24.8155 23.3143 24.8098 23.3219 24.7812 23.3323C24.7477 23.3445 24.6768 23.3621 24.5515 23.3621V25.3621C25.1699 25.3621 25.7968 25.1853 26.2665 24.6908L24.8165 23.3133ZM24.1655 19.7361V14.7861H22.1655V19.7361H24.1655ZM23.1655 15.7861H23.6875V13.7861H23.1655V15.7861ZM22.8608 14.2235L19.0268 19.8575L20.6802 20.9827L24.5142 15.3487L22.8608 14.2235ZM20.8535 20.4201V19.7361H18.8535V20.4201H20.8535ZM19.8535 20.7361H23.1655V18.7361H19.8535V20.7361Z" fill="#4F5E7F" mask="url(#path-9-outside-1_26736_242527)"/>
<path d="M25.5305 28.8289L24.4442 26.2748C23.7339 24.6047 24.5147 22.6681 26.1848 21.9578C27.8549 21.2474 29.7915 22.0282 30.5018 23.6983L31.5881 26.2525L25.5305 28.8289ZM27.4704 23.0596C27.2192 23.0596 26.9642 23.109 26.7188 23.2134C26.2451 23.4148 25.8783 23.7886 25.6858 24.266C25.4934 24.7434 25.4983 25.2671 25.6997 25.7408L26.2521 27.0394L29.7985 25.531L29.2462 24.2325C28.9347 23.5 28.2202 23.0596 27.4704 23.0596Z" fill="#124933"/>
<path d="M27.2783 34.5088C26.8063 34.5088 26.382 34.2282 26.1974 33.7939L24.1386 28.9534C23.8852 28.3577 24.1637 27.6668 24.7595 27.4134L31.1024 24.7157C31.2489 24.6534 31.4034 24.6217 31.5615 24.6217C32.0334 24.6217 32.4577 24.9023 32.6424 25.3365L34.7011 30.1772C34.8239 30.4658 34.8269 30.7849 34.7096 31.0758C34.5924 31.3666 34.3688 31.5944 34.0802 31.7171L27.7373 34.4149C27.5907 34.4772 27.4362 34.5088 27.2783 34.5088Z" fill="url(#paint1_linear_26736_242527)"/>
<path d="M31.5615 24.7467C31.9695 24.7467 32.3575 24.9863 32.5273 25.3854L34.5861 30.226C34.8128 30.7591 34.5645 31.3751 34.0313 31.6019L27.6884 34.2996C27.5544 34.3566 27.4152 34.3836 27.2782 34.3836C26.8702 34.3836 26.4822 34.144 26.3124 33.7449L24.2536 28.9043C24.0269 28.3711 24.2753 27.7551 24.8084 27.5284L31.1513 24.8306C31.2853 24.7737 31.4245 24.7467 31.5615 24.7467ZM31.5615 24.4966C31.3866 24.4966 31.2156 24.5316 31.0535 24.6005L24.7106 27.2983C24.0514 27.5787 23.7432 28.3431 24.0236 29.0023L26.0823 33.8429C26.2867 34.3233 26.7561 34.6338 27.2783 34.6338C27.4533 34.6338 27.6242 34.5988 27.7863 34.5299L34.1293 31.8321C34.7885 31.5518 35.0967 30.7874 34.8163 30.1282L32.7575 25.2876C32.5531 24.8071 32.0836 24.4966 31.5615 24.4966Z" fill="#5A2903"/>
<path d="M33.5738 31.1925L27.71 33.6865C27.2171 33.8961 26.6476 33.6665 26.438 33.1736L24.5347 28.6986C24.325 28.2057 24.5547 27.6362 25.0475 27.4266L30.9114 24.9326C31.4042 24.7229 31.9737 24.9526 32.1834 25.4455L34.0867 29.9205C34.2964 30.4134 34.0668 30.9829 33.5738 31.1925Z" fill="url(#paint2_linear_26736_242527)"/>
<path d="M29.2513 28.3074L28.6309 28.5713L29.4293 30.4485L30.0497 30.1846L29.2513 28.3074Z" fill="#124933"/>
<defs>
<radialGradient id="paint0_radial_26736_242527" cx="0" cy="0" r="1" gradientUnits="userSpaceOnUse" gradientTransform="translate(17.9984 18.2806) scale(15.0724 15.0724)">
<stop stop-color="#C4D8E6"/>
<stop offset="1" stop-color="#B7CEDE"/>
</radialGradient>
<linearGradient id="paint1_linear_26736_242527" x1="27.1815" y1="25.6064" x2="30.8125" y2="32.0286" gradientUnits="userSpaceOnUse">
<stop stop-color="#318063"/>
<stop offset="0.354" stop-color="#23674D"/>
<stop offset="0.7462" stop-color="#16513A"/>
<stop offset="1" stop-color="#124933"/>
</linearGradient>
<linearGradient id="paint2_linear_26736_242527" x1="30.4548" y1="30.4454" x2="24.654" y2="24.6866" gradientUnits="userSpaceOnUse">
<stop offset="2.7e-07" stop-color="#95D543"/>
<stop offset="0.0319" stop-color="#98D748"/>
<stop offset="0.349" stop-color="#B8E879"/>
<stop offset="0.6275" stop-color="#D0F59D"/>
<stop offset="0.8539" stop-color="#DEFCB3"/>
<stop offset="1" stop-color="#E3FFBB"/>
</linearGradient>
</defs>
</svg>
