<svg width="36" height="36" viewBox="0 0 36 36" fill="none" xmlns="http://www.w3.org/2000/svg">
<path d="M36 17.9139C36 18.6827 35.9521 19.4399 35.8586 20.1837C35.6421 21.8797 35.1865 23.5033 34.5279 25.0159C34.5279 25.0159 34.5279 25.0182 34.5255 25.0203C31.7639 31.3785 25.4025 35.8274 17.9999 35.8274C9.61969 35.8274 2.58148 30.1291 0.574055 22.415V22.4126C0.197997 20.9751 0 19.467 0 17.9139C0 16.3266 0.207223 14.787 0.599061 13.3223C2.63388 5.6535 9.65364 0.00073243 17.9999 0.00073243C27.9411 0.000434681 36 8.02061 36 17.9139Z" fill="#9FADB7"/>
<path d="M35.0496 17.0483C35.0496 17.2662 35.0461 17.4845 35.0374 17.7007C35.0184 18.2095 34.9784 18.7115 34.9162 19.2082C34.7102 20.8229 34.2793 22.3667 33.6561 23.8069C33.6561 23.8069 33.6562 23.8087 33.6526 23.8119C31.0374 29.8628 25.0125 34.0962 18.0014 34.0962C10.0643 34.0962 3.39884 28.6736 1.49681 21.3317V21.3299C1.21455 20.2482 1.03827 19.1233 0.977532 17.9704C0.961751 17.664 0.953125 17.3576 0.953125 17.048C0.953125 15.5369 1.14874 14.0729 1.52093 12.6779C3.44737 5.37917 10.0967 0 18.0011 0C27.4168 0.00029775 35.0496 7.63313 35.0496 17.0483Z" fill="#E7E6E2"/>
<path d="M35.0493 17.0483C35.0493 17.2662 35.0458 17.4845 35.0371 17.7006C34.3916 16.496 33.2908 14.5177 31.4233 11.3056C27.2798 4.17983 18.0014 3.37529 10.4761 5.63045C2.94895 7.88739 1.3012 20.484 1.3012 20.484L0.97755 17.971C0.961769 17.6646 0.953125 17.3582 0.953125 17.0486C0.953125 15.5375 1.14876 14.0734 1.52095 12.6785C3.44739 5.37975 10.0967 0.00061036 18.0011 0.00061036C27.4165 0.000312611 35.0493 7.63312 35.0493 17.0483Z" fill="white"/>
<path d="M32.9696 17.626C32.9696 18.2772 32.9297 18.9186 32.852 19.5486C32.6722 20.9852 32.2931 22.3602 31.7453 23.6415C31.7453 23.6415 31.7453 23.6435 31.7435 23.6453C29.4467 29.0307 24.1557 32.799 17.9985 32.799C11.0285 32.799 5.17471 27.9725 3.50494 21.4384V21.4366C3.1923 20.2188 3.02734 18.9418 3.02734 17.626C3.02734 16.2817 3.19974 14.9775 3.52578 13.7368C5.21819 7.24111 11.0568 2.453 17.9985 2.453C26.2667 2.453 32.9696 9.24616 32.9696 17.626Z" fill="url(#paint0_radial_26736_242227)"/>
<path d="M32.5969 17.0479C32.5969 17.6744 32.5581 18.2913 32.4822 18.8972C32.3068 20.279 31.9373 21.602 31.4032 22.8343C31.4032 22.8343 31.4032 22.8361 31.4014 22.8379C29.162 28.0184 24.0035 31.6436 18.0006 31.6436C11.205 31.6436 5.49778 27.0005 3.86998 20.715V20.7132C3.56509 19.5418 3.4043 18.313 3.4043 17.0476C3.4043 15.7542 3.57253 14.4997 3.89023 13.3061C5.54006 7.0575 11.2327 2.45129 18.0003 2.45129C26.0618 2.45189 32.5969 8.98692 32.5969 17.0479Z" fill="#586686"/>
<path d="M31.6743 17.0486C31.6743 17.6354 31.638 18.2134 31.5668 18.7812C31.4025 20.0758 31.0562 21.315 30.5563 22.4694C30.5563 22.4694 30.5563 22.4712 30.5545 22.473C28.4568 27.326 23.6247 30.7218 18.0011 30.7218C11.6352 30.7218 6.28909 26.3723 4.76432 20.4843V20.4825C4.47878 19.3853 4.32812 18.2342 4.32812 17.0486C4.32812 15.837 4.48563 14.6618 4.78338 13.5438C6.329 7.69031 11.6614 3.37561 18.0011 3.37561C25.5526 3.37561 31.6743 9.49735 31.6743 17.0486Z" fill="#A9C1D3"/>
<path d="M31.6742 17.0483C31.6742 17.6351 31.6378 18.2131 31.5667 18.7809C29.8549 9.34311 23.9169 6.04583 14.8856 6.83695C10.0879 7.25737 6.81683 10.513 4.7832 13.5438C6.32882 7.69031 11.6612 3.37561 18.0009 3.37561C25.5524 3.37531 31.6742 9.49706 31.6742 17.0483Z" fill="#C4D8E6"/>
<path opacity="0.43" d="M30.5538 22.4733C28.4562 27.3263 23.624 30.7222 18.0004 30.7222C11.6346 30.7222 6.28845 26.3726 4.76367 20.4846C6.70381 23.3472 11.2386 28.6695 18.0004 28.4149C27.0872 28.074 30.4499 22.6427 30.5538 22.4733Z" fill="#C4D8E6"/>
<mask id="path-9-outside-1_26736_242227" maskUnits="userSpaceOnUse" x="11.2715" y="9.54541" width="13" height="15" fill="black">
<rect fill="white" x="11.2715" y="9.54541" width="13" height="15"/>
<path d="M14.759 23.5454C14.315 23.5454 13.985 23.4434 13.769 23.2394C13.565 23.0234 13.463 22.7114 13.463 22.3034C13.463 22.0394 13.529 21.7934 13.661 21.5654C13.793 21.3374 13.973 21.1034 14.201 20.8634L17.585 17.2994C18.089 16.7594 18.449 16.2794 18.665 15.8594C18.893 15.4394 19.007 15.0194 19.007 14.5994C19.007 14.0714 18.833 13.6694 18.485 13.3934C18.149 13.1174 17.657 12.9794 17.009 12.9794C16.661 12.9794 16.301 13.0334 15.929 13.1414C15.569 13.2374 15.191 13.3994 14.795 13.6274C14.531 13.7714 14.285 13.8254 14.057 13.7894C13.841 13.7414 13.655 13.6394 13.499 13.4834C13.343 13.3154 13.241 13.1174 13.193 12.8894C13.145 12.6614 13.169 12.4334 13.265 12.2054C13.361 11.9774 13.541 11.7854 13.805 11.6294C14.333 11.3054 14.909 11.0654 15.533 10.9094C16.157 10.7414 16.775 10.6574 17.387 10.6574C18.335 10.6574 19.133 10.8014 19.781 11.0894C20.429 11.3654 20.921 11.7734 21.257 12.3134C21.593 12.8534 21.761 13.5134 21.761 14.2934C21.761 14.7974 21.683 15.2894 21.527 15.7694C21.371 16.2494 21.125 16.7354 20.789 17.2274C20.465 17.7074 20.033 18.2234 19.493 18.7754L16.343 21.9794V21.2594H21.221C21.605 21.2594 21.893 21.3554 22.085 21.5474C22.289 21.7394 22.391 22.0214 22.391 22.3934C22.391 22.7654 22.289 23.0534 22.085 23.2574C21.893 23.4494 21.605 23.5454 21.221 23.5454H14.759Z"/>
</mask>
<path d="M14.759 23.5454C14.315 23.5454 13.985 23.4434 13.769 23.2394C13.565 23.0234 13.463 22.7114 13.463 22.3034C13.463 22.0394 13.529 21.7934 13.661 21.5654C13.793 21.3374 13.973 21.1034 14.201 20.8634L17.585 17.2994C18.089 16.7594 18.449 16.2794 18.665 15.8594C18.893 15.4394 19.007 15.0194 19.007 14.5994C19.007 14.0714 18.833 13.6694 18.485 13.3934C18.149 13.1174 17.657 12.9794 17.009 12.9794C16.661 12.9794 16.301 13.0334 15.929 13.1414C15.569 13.2374 15.191 13.3994 14.795 13.6274C14.531 13.7714 14.285 13.8254 14.057 13.7894C13.841 13.7414 13.655 13.6394 13.499 13.4834C13.343 13.3154 13.241 13.1174 13.193 12.8894C13.145 12.6614 13.169 12.4334 13.265 12.2054C13.361 11.9774 13.541 11.7854 13.805 11.6294C14.333 11.3054 14.909 11.0654 15.533 10.9094C16.157 10.7414 16.775 10.6574 17.387 10.6574C18.335 10.6574 19.133 10.8014 19.781 11.0894C20.429 11.3654 20.921 11.7734 21.257 12.3134C21.593 12.8534 21.761 13.5134 21.761 14.2934C21.761 14.7974 21.683 15.2894 21.527 15.7694C21.371 16.2494 21.125 16.7354 20.789 17.2274C20.465 17.7074 20.033 18.2234 19.493 18.7754L16.343 21.9794V21.2594H21.221C21.605 21.2594 21.893 21.3554 22.085 21.5474C22.289 21.7394 22.391 22.0214 22.391 22.3934C22.391 22.7654 22.289 23.0534 22.085 23.2574C21.893 23.4494 21.605 23.5454 21.221 23.5454H14.759Z" fill="white"/>
<path d="M13.769 23.2394L13.042 23.926L13.0616 23.9468L13.0824 23.9664L13.769 23.2394ZM13.661 21.5654L14.5264 22.0664L13.661 21.5654ZM14.201 20.8634L14.926 21.5522L14.9262 21.552L14.201 20.8634ZM17.585 17.2994L18.3102 17.988L18.3161 17.9817L17.585 17.2994ZM18.665 15.8594L17.7861 15.3823L17.7808 15.3921L17.7757 15.4021L18.665 15.8594ZM18.485 13.3934L17.8503 14.1661L17.8569 14.1716L17.8636 14.1769L18.485 13.3934ZM15.929 13.1414L16.1867 14.1076L16.1973 14.1048L16.2078 14.1018L15.929 13.1414ZM14.795 13.6274L15.2739 14.5053L15.284 14.4998L15.294 14.494L14.795 13.6274ZM14.057 13.7894L13.8401 14.7656L13.8704 14.7723L13.901 14.7772L14.057 13.7894ZM13.499 13.4834L12.7662 14.1639L12.7788 14.1774L12.7919 14.1905L13.499 13.4834ZM13.265 12.2054L12.3434 11.8174L12.3434 11.8174L13.265 12.2054ZM13.805 11.6294L14.3137 12.4903L14.3209 12.4861L14.328 12.4817L13.805 11.6294ZM15.533 10.9094L15.7755 11.8796L15.7843 11.8774L15.793 11.875L15.533 10.9094ZM19.781 11.0894L19.3749 12.0032L19.382 12.0064L19.3891 12.0094L19.781 11.0894ZM21.257 12.3134L20.4079 12.8417V12.8417L21.257 12.3134ZM21.527 15.7694L20.576 15.4603V15.4603L21.527 15.7694ZM20.789 17.2274L19.9632 16.6634L19.9602 16.6679L20.789 17.2274ZM19.493 18.7754L20.2061 19.4765L20.2078 19.4747L19.493 18.7754ZM16.343 21.9794H15.343V24.4229L17.0561 22.6805L16.343 21.9794ZM16.343 21.2594V20.2594H15.343V21.2594H16.343ZM22.085 21.5474L21.3779 22.2545L21.3886 22.2652L21.3996 22.2756L22.085 21.5474ZM22.085 23.2574L21.3779 22.5503V22.5503L22.085 23.2574ZM14.759 22.5454C14.4465 22.5454 14.4122 22.4713 14.4556 22.5124L13.0824 23.9664C13.5578 24.4155 14.1835 24.5454 14.759 24.5454V22.5454ZM14.496 22.5528C14.5055 22.5629 14.5 22.5633 14.49 22.5327C14.4786 22.4979 14.463 22.4264 14.463 22.3034H12.463C12.463 22.8702 12.606 23.4644 13.042 23.926L14.496 22.5528ZM14.463 22.3034C14.463 22.215 14.4828 22.1418 14.5264 22.0664L12.7956 21.0644C12.5752 21.445 12.463 21.8639 12.463 22.3034H14.463ZM14.5264 22.0664C14.6106 21.921 14.7389 21.7491 14.926 21.5522L13.476 20.1747C13.2071 20.4577 12.9754 20.7538 12.7956 21.0644L14.5264 22.0664ZM14.9262 21.552L18.3102 17.988L16.8598 16.6109L13.4758 20.1749L14.9262 21.552ZM18.3161 17.9817C18.8518 17.4077 19.2794 16.8512 19.5543 16.3168L17.7757 15.4021C17.6186 15.7076 17.3262 16.1111 16.8539 16.6171L18.3161 17.9817ZM19.5439 16.3365C19.8403 15.7905 20.007 15.2078 20.007 14.5994H18.007C18.007 14.831 17.9457 15.0883 17.7861 15.3823L19.5439 16.3365ZM20.007 14.5994C20.007 13.8305 19.7398 13.1123 19.1064 12.6099L17.8636 14.1769C17.9262 14.2266 18.007 14.3124 18.007 14.5994H20.007ZM19.1197 12.6207C18.5355 12.1407 17.7791 11.9794 17.009 11.9794V13.9794C17.5349 13.9794 17.7625 14.0941 17.8503 14.1661L19.1197 12.6207ZM17.009 11.9794C16.5567 11.9794 16.1027 12.0497 15.6502 12.1811L16.2078 14.1018C16.4993 14.0171 16.7653 13.9794 17.009 13.9794V11.9794ZM15.6713 12.1752C15.2104 12.2981 14.7514 12.4986 14.296 12.7608L15.294 14.494C15.6306 14.3002 15.9276 14.1767 16.1867 14.1076L15.6713 12.1752ZM14.3161 12.7495C14.2516 12.7847 14.2129 12.7959 14.1981 12.7992C14.1857 12.8019 14.1931 12.7985 14.213 12.8016L13.901 14.7772C14.4051 14.8568 14.8751 14.7228 15.2739 14.5053L14.3161 12.7495ZM14.2739 12.8132C14.243 12.8063 14.2272 12.7974 14.2061 12.7763L12.7919 14.1905C13.0828 14.4814 13.439 14.6765 13.8401 14.7656L14.2739 12.8132ZM14.2318 12.803C14.2013 12.7702 14.1828 12.7369 14.1715 12.6834L12.2144 13.0954C12.2992 13.4979 12.4847 13.8607 12.7662 14.1639L14.2318 12.803ZM14.1715 12.6834C14.1681 12.6672 14.1645 12.6461 14.1866 12.5935L12.3434 11.8174C12.1735 12.2207 12.1219 12.6556 12.2144 13.0954L14.1715 12.6834ZM14.1866 12.5935C14.1867 12.5934 14.1868 12.5932 14.187 12.5928C14.1872 12.5924 14.1876 12.5916 14.1885 12.5903C14.19 12.5879 14.1939 12.5825 14.2015 12.5744C14.217 12.5578 14.2502 12.5279 14.3137 12.4903L13.2963 10.7685C12.8925 11.0071 12.5409 11.3482 12.3434 11.8174L14.1866 12.5935ZM14.328 12.4817C14.7658 12.2131 15.2467 12.0118 15.7755 11.8796L15.2905 9.93927C14.5713 10.1191 13.9002 10.3977 13.282 10.7771L14.328 12.4817ZM15.793 11.875C16.3369 11.7286 16.8676 11.6574 17.387 11.6574V9.65741C16.6824 9.65741 15.9771 9.75425 15.273 9.94379L15.793 11.875ZM17.387 11.6574C18.2398 11.6574 18.8901 11.7878 19.3749 12.0032L20.1871 10.1756C19.3759 9.81506 18.4302 9.65741 17.387 9.65741V11.6574ZM19.3891 12.0094C19.8693 12.214 20.1921 12.4948 20.4079 12.8417L22.1061 11.7851C21.6499 11.0521 20.9887 10.5169 20.1729 10.1694L19.3891 12.0094ZM20.4079 12.8417C20.6251 13.1907 20.761 13.6578 20.761 14.2934H22.761C22.761 13.369 22.5609 12.5161 22.1061 11.7851L20.4079 12.8417ZM20.761 14.2934C20.761 14.6923 20.6996 15.08 20.576 15.4603L22.478 16.0785C22.6664 15.4988 22.761 14.9025 22.761 14.2934H20.761ZM20.576 15.4603C20.4541 15.8353 20.2549 16.2363 19.9632 16.6634L21.6148 17.7914C21.9951 17.2346 22.2879 16.6636 22.478 16.0785L20.576 15.4603ZM19.9602 16.6679C19.6789 17.0847 19.289 17.5539 18.7782 18.0761L20.2078 19.4747C20.777 18.8929 21.2511 18.3302 21.6178 17.7869L19.9602 16.6679ZM18.7799 18.0743L15.6299 21.2783L17.0561 22.6805L20.2061 19.4765L18.7799 18.0743ZM17.343 21.9794V21.2594H15.343V21.9794H17.343ZM16.343 22.2594H21.221V20.2594H16.343V22.2594ZM21.221 22.2594C21.3327 22.2594 21.3896 22.2737 21.4088 22.2801C21.4231 22.2849 21.4041 22.2807 21.3779 22.2545L22.7921 20.8403C22.3464 20.3946 21.7591 20.2594 21.221 20.2594V22.2594ZM21.3996 22.2756C21.3913 22.2678 21.3841 22.2589 21.3787 22.2507C21.3736 22.2426 21.3727 22.2391 21.3741 22.243C21.3775 22.2523 21.391 22.2966 21.391 22.3934H23.391C23.391 21.8401 23.2349 21.2564 22.7704 20.8192L21.3996 22.2756ZM21.391 22.3934C21.391 22.4896 21.3777 22.5382 21.3719 22.5546C21.3676 22.5666 21.3684 22.5598 21.3779 22.5503L22.7921 23.9645C23.2336 23.523 23.391 22.9504 23.391 22.3934H21.391ZM21.3779 22.5503C21.4041 22.5241 21.4231 22.52 21.4088 22.5247C21.3896 22.5311 21.3327 22.5454 21.221 22.5454V24.5454C21.7591 24.5454 22.3464 24.4102 22.7921 23.9645L21.3779 22.5503ZM21.221 22.5454H14.759V24.5454H21.221V22.5454Z" fill="#4F5E7F" mask="url(#path-9-outside-1_26736_242227)"/>
<path d="M25.5305 27.829L24.4442 25.2749C23.7339 23.6048 24.5147 21.6682 26.1848 20.9579C27.8549 20.2476 29.7915 21.0283 30.5018 22.6984L31.5881 25.2526L25.5305 27.829ZM27.4704 22.0597C27.2192 22.0597 26.9642 22.1091 26.7188 22.2135C26.2451 22.4149 25.8783 22.7888 25.6858 23.2661C25.4934 23.7435 25.4983 24.2672 25.6997 24.7409L26.2521 26.0395L29.7985 24.5311L29.2462 23.2326C28.9347 22.5001 28.2202 22.0597 27.4704 22.0597Z" fill="#124933"/>
<path d="M27.2783 33.5089C26.8063 33.5089 26.382 33.2283 26.1974 32.7941L24.1386 27.9535C23.8852 27.3578 24.1637 26.6669 24.7595 26.4135L31.1024 23.7158C31.2489 23.6535 31.4034 23.6218 31.5615 23.6218C32.0334 23.6218 32.4577 23.9024 32.6424 24.3367L34.7011 29.1773C34.8239 29.4659 34.8269 29.785 34.7096 30.0759C34.5924 30.3668 34.3688 30.5945 34.0802 30.7173L27.7373 33.415C27.5907 33.4773 27.4362 33.5089 27.2783 33.5089Z" fill="url(#paint1_linear_26736_242227)"/>
<path d="M31.5615 23.7469C31.9695 23.7468 32.3575 23.9865 32.5273 24.3856L34.5861 29.2262C34.8128 29.7593 34.5645 30.3753 34.0313 30.602L27.6884 33.2998C27.5544 33.3568 27.4152 33.3838 27.2782 33.3838C26.8702 33.3838 26.4822 33.1442 26.3124 32.7451L24.2536 27.9044C24.0269 27.3713 24.2753 26.7553 24.8084 26.5286L31.1513 23.8308C31.2853 23.7739 31.4245 23.7469 31.5615 23.7469ZM31.5615 23.4968C31.3866 23.4968 31.2156 23.5318 31.0535 23.6007L24.7106 26.2985C24.0514 26.5789 23.7432 27.3433 24.0236 28.0024L26.0823 32.8431C26.2867 33.3235 26.7561 33.634 27.2783 33.634C27.4533 33.634 27.6242 33.599 27.7863 33.5301L34.1293 30.8323C34.7885 30.5519 35.0967 29.7876 34.8163 29.1284L32.7575 24.2877C32.5531 23.8073 32.0836 23.4968 31.5615 23.4968Z" fill="#5A2903"/>
<path d="M33.5738 30.1926L27.71 32.6866C27.2171 32.8963 26.6476 32.6666 26.438 32.1737L24.5347 27.6987C24.325 27.2058 24.5547 26.6364 25.0475 26.4267L30.9114 23.9327C31.4042 23.7231 31.9737 23.9527 32.1834 24.4456L34.0867 28.9206C34.2964 29.4135 34.0668 29.983 33.5738 30.1926Z" fill="url(#paint2_linear_26736_242227)"/>
<path d="M29.2513 27.3075L28.6309 27.5714L29.4293 29.4486L30.0497 29.1847L29.2513 27.3075Z" fill="#124933"/>
<defs>
<radialGradient id="paint0_radial_26736_242227" cx="0" cy="0" r="1" gradientUnits="userSpaceOnUse" gradientTransform="translate(17.9984 17.626) scale(15.0724 15.0724)">
<stop stop-color="#C4D8E6"/>
<stop offset="1" stop-color="#B7CEDE"/>
</radialGradient>
<linearGradient id="paint1_linear_26736_242227" x1="27.1815" y1="24.6066" x2="30.8125" y2="31.0287" gradientUnits="userSpaceOnUse">
<stop stop-color="#318063"/>
<stop offset="0.354" stop-color="#23674D"/>
<stop offset="0.7462" stop-color="#16513A"/>
<stop offset="1" stop-color="#124933"/>
</linearGradient>
<linearGradient id="paint2_linear_26736_242227" x1="30.4548" y1="29.4455" x2="24.654" y2="23.6867" gradientUnits="userSpaceOnUse">
<stop offset="2.7e-07" stop-color="#95D543"/>
<stop offset="0.0319" stop-color="#98D748"/>
<stop offset="0.349" stop-color="#B8E879"/>
<stop offset="0.6275" stop-color="#D0F59D"/>
<stop offset="0.8539" stop-color="#DEFCB3"/>
<stop offset="1" stop-color="#E3FFBB"/>
</linearGradient>
</defs>
</svg>
