<svg width="36" height="36" viewBox="0 0 36 36" fill="none" xmlns="http://www.w3.org/2000/svg">
<path d="M36 17.9139C36 18.6827 35.9521 19.4399 35.8586 20.1837C35.6421 21.8797 35.1865 23.5033 34.5279 25.0159C34.5279 25.0159 34.5279 25.0182 34.5255 25.0203C31.7639 31.3785 25.4025 35.8274 17.9999 35.8274C9.61969 35.8274 2.58148 30.1291 0.574055 22.415V22.4126C0.197997 20.9751 0 19.467 0 17.9139C0 16.3266 0.207223 14.787 0.599061 13.3223C2.63388 5.6535 9.65364 0.00073243 17.9999 0.00073243C27.9411 0.000434681 36 8.02061 36 17.9139Z" fill="#9FADB7"/>
<path d="M35.0496 17.0483C35.0496 17.2662 35.0461 17.4845 35.0374 17.7007C35.0184 18.2095 34.9784 18.7115 34.9162 19.2082C34.7102 20.8229 34.2793 22.3667 33.6561 23.8069C33.6561 23.8069 33.6562 23.8087 33.6526 23.8119C31.0374 29.8628 25.0125 34.0962 18.0014 34.0962C10.0643 34.0962 3.39884 28.6736 1.49681 21.3317V21.3299C1.21455 20.2482 1.03827 19.1233 0.977532 17.9704C0.961751 17.664 0.953125 17.3576 0.953125 17.048C0.953125 15.5369 1.14874 14.0729 1.52093 12.6779C3.44737 5.37917 10.0967 0 18.0011 0C27.4168 0.00029775 35.0496 7.63313 35.0496 17.0483Z" fill="#E7E6E2"/>
<path d="M35.0493 17.0483C35.0493 17.2662 35.0458 17.4845 35.0371 17.7006C34.3916 16.496 33.2908 14.5177 31.4233 11.3056C27.2798 4.17983 18.0014 3.37529 10.4761 5.63045C2.94895 7.88739 1.3012 20.484 1.3012 20.484L0.97755 17.971C0.961769 17.6646 0.953125 17.3582 0.953125 17.0486C0.953125 15.5375 1.14876 14.0734 1.52095 12.6785C3.44739 5.37975 10.0967 0.00061036 18.0011 0.00061036C27.4165 0.000312611 35.0493 7.63312 35.0493 17.0483Z" fill="white"/>
<path d="M32.9696 17.626C32.9696 18.2772 32.9297 18.9186 32.852 19.5486C32.6722 20.9852 32.2931 22.3602 31.7453 23.6415C31.7453 23.6415 31.7453 23.6435 31.7435 23.6453C29.4467 29.0307 24.1557 32.799 17.9985 32.799C11.0285 32.799 5.17471 27.9725 3.50494 21.4384V21.4366C3.1923 20.2188 3.02734 18.9418 3.02734 17.626C3.02734 16.2817 3.19974 14.9775 3.52578 13.7368C5.21819 7.24111 11.0568 2.453 17.9985 2.453C26.2667 2.453 32.9696 9.24616 32.9696 17.626Z" fill="url(#paint0_radial_26736_242252)"/>
<path d="M32.5969 17.0479C32.5969 17.6744 32.5581 18.2913 32.4822 18.8972C32.3068 20.279 31.9373 21.602 31.4032 22.8343C31.4032 22.8343 31.4032 22.8361 31.4014 22.8379C29.162 28.0184 24.0035 31.6436 18.0006 31.6436C11.205 31.6436 5.49778 27.0005 3.86998 20.715V20.7132C3.56509 19.5418 3.4043 18.313 3.4043 17.0476C3.4043 15.7542 3.57253 14.4997 3.89023 13.3061C5.54006 7.0575 11.2327 2.45129 18.0003 2.45129C26.0618 2.45189 32.5969 8.98692 32.5969 17.0479Z" fill="#586686"/>
<path d="M31.6743 17.0486C31.6743 17.6354 31.638 18.2134 31.5668 18.7812C31.4025 20.0758 31.0562 21.315 30.5563 22.4694C30.5563 22.4694 30.5563 22.4712 30.5545 22.473C28.4568 27.326 23.6247 30.7218 18.0011 30.7218C11.6352 30.7218 6.28909 26.3723 4.76432 20.4843V20.4825C4.47878 19.3853 4.32812 18.2342 4.32812 17.0486C4.32812 15.837 4.48563 14.6618 4.78338 13.5438C6.329 7.69031 11.6614 3.37561 18.0011 3.37561C25.5526 3.37561 31.6743 9.49735 31.6743 17.0486Z" fill="#A9C1D3"/>
<path d="M31.6742 17.0483C31.6742 17.6351 31.6378 18.2131 31.5667 18.7809C29.8549 9.34311 23.9169 6.04583 14.8856 6.83695C10.0879 7.25737 6.81683 10.513 4.7832 13.5438C6.32882 7.69031 11.6612 3.37561 18.0009 3.37561C25.5524 3.37531 31.6742 9.49706 31.6742 17.0483Z" fill="#C4D8E6"/>
<path opacity="0.43" d="M30.5538 22.4733C28.4562 27.3263 23.624 30.7222 18.0004 30.7222C11.6346 30.7222 6.28845 26.3726 4.76367 20.4846C6.70381 23.3472 11.2386 28.6695 18.0004 28.4149C27.0872 28.074 30.4499 22.6427 30.5538 22.4733Z" fill="#C4D8E6"/>
<mask id="path-9-outside-1_26736_242252" maskUnits="userSpaceOnUse" x="11.2715" y="9.54541" width="12" height="16" fill="black">
<rect fill="white" x="11.2715" y="9.54541" width="12" height="16"/>
<path d="M17.369 23.7434C16.733 23.7434 16.085 23.6714 15.425 23.5274C14.777 23.3714 14.213 23.1554 13.733 22.8794C13.421 22.7114 13.205 22.5134 13.085 22.2854C12.977 22.0454 12.935 21.8114 12.959 21.5834C12.995 21.3554 13.091 21.1574 13.247 20.9894C13.403 20.8094 13.601 20.6954 13.841 20.6474C14.093 20.5994 14.369 20.6474 14.669 20.7914C15.137 21.0194 15.581 21.1814 16.001 21.2774C16.421 21.3734 16.841 21.4214 17.261 21.4214C17.741 21.4214 18.143 21.3614 18.467 21.2414C18.791 21.1094 19.037 20.9234 19.205 20.6834C19.373 20.4434 19.457 20.1434 19.457 19.7834C19.457 19.2794 19.283 18.9014 18.935 18.6494C18.587 18.3974 18.077 18.2714 17.405 18.2714H16.343C15.947 18.2714 15.641 18.1754 15.425 17.9834C15.221 17.7794 15.119 17.5034 15.119 17.1554C15.119 16.7954 15.221 16.5194 15.425 16.3274C15.641 16.1234 15.947 16.0214 16.343 16.0214H17.135C17.543 16.0214 17.885 15.9614 18.161 15.8414C18.449 15.7094 18.671 15.5294 18.827 15.3014C18.995 15.0734 19.079 14.7914 19.079 14.4554C19.079 13.9754 18.911 13.6094 18.575 13.3574C18.251 13.1054 17.777 12.9794 17.153 12.9794C16.769 12.9794 16.391 13.0274 16.019 13.1234C15.647 13.2074 15.245 13.3634 14.813 13.5914C14.549 13.7234 14.303 13.7654 14.075 13.7174C13.847 13.6694 13.655 13.5614 13.499 13.3934C13.355 13.2254 13.259 13.0334 13.211 12.8174C13.175 12.5894 13.205 12.3614 13.301 12.1334C13.409 11.9054 13.601 11.7194 13.877 11.5754C14.393 11.2754 14.951 11.0474 15.551 10.8914C16.163 10.7354 16.781 10.6574 17.405 10.6574C18.317 10.6574 19.097 10.7954 19.745 11.0714C20.393 11.3474 20.891 11.7434 21.239 12.2594C21.587 12.7634 21.761 13.3754 21.761 14.0954C21.761 14.5874 21.665 15.0374 21.473 15.4454C21.281 15.8534 21.011 16.2014 20.663 16.4894C20.327 16.7654 19.913 16.9634 19.421 17.0834V16.8494C20.273 16.9934 20.939 17.3474 21.419 17.9114C21.899 18.4754 22.139 19.1834 22.139 20.0354C22.139 20.7914 21.947 21.4514 21.563 22.0154C21.179 22.5674 20.627 22.9934 19.907 23.2934C19.199 23.5934 18.353 23.7434 17.369 23.7434Z"/>
</mask>
<path d="M17.369 23.7434C16.733 23.7434 16.085 23.6714 15.425 23.5274C14.777 23.3714 14.213 23.1554 13.733 22.8794C13.421 22.7114 13.205 22.5134 13.085 22.2854C12.977 22.0454 12.935 21.8114 12.959 21.5834C12.995 21.3554 13.091 21.1574 13.247 20.9894C13.403 20.8094 13.601 20.6954 13.841 20.6474C14.093 20.5994 14.369 20.6474 14.669 20.7914C15.137 21.0194 15.581 21.1814 16.001 21.2774C16.421 21.3734 16.841 21.4214 17.261 21.4214C17.741 21.4214 18.143 21.3614 18.467 21.2414C18.791 21.1094 19.037 20.9234 19.205 20.6834C19.373 20.4434 19.457 20.1434 19.457 19.7834C19.457 19.2794 19.283 18.9014 18.935 18.6494C18.587 18.3974 18.077 18.2714 17.405 18.2714H16.343C15.947 18.2714 15.641 18.1754 15.425 17.9834C15.221 17.7794 15.119 17.5034 15.119 17.1554C15.119 16.7954 15.221 16.5194 15.425 16.3274C15.641 16.1234 15.947 16.0214 16.343 16.0214H17.135C17.543 16.0214 17.885 15.9614 18.161 15.8414C18.449 15.7094 18.671 15.5294 18.827 15.3014C18.995 15.0734 19.079 14.7914 19.079 14.4554C19.079 13.9754 18.911 13.6094 18.575 13.3574C18.251 13.1054 17.777 12.9794 17.153 12.9794C16.769 12.9794 16.391 13.0274 16.019 13.1234C15.647 13.2074 15.245 13.3634 14.813 13.5914C14.549 13.7234 14.303 13.7654 14.075 13.7174C13.847 13.6694 13.655 13.5614 13.499 13.3934C13.355 13.2254 13.259 13.0334 13.211 12.8174C13.175 12.5894 13.205 12.3614 13.301 12.1334C13.409 11.9054 13.601 11.7194 13.877 11.5754C14.393 11.2754 14.951 11.0474 15.551 10.8914C16.163 10.7354 16.781 10.6574 17.405 10.6574C18.317 10.6574 19.097 10.7954 19.745 11.0714C20.393 11.3474 20.891 11.7434 21.239 12.2594C21.587 12.7634 21.761 13.3754 21.761 14.0954C21.761 14.5874 21.665 15.0374 21.473 15.4454C21.281 15.8534 21.011 16.2014 20.663 16.4894C20.327 16.7654 19.913 16.9634 19.421 17.0834V16.8494C20.273 16.9934 20.939 17.3474 21.419 17.9114C21.899 18.4754 22.139 19.1834 22.139 20.0354C22.139 20.7914 21.947 21.4514 21.563 22.0154C21.179 22.5674 20.627 22.9934 19.907 23.2934C19.199 23.5934 18.353 23.7434 17.369 23.7434Z" fill="white"/>
<path d="M15.425 23.5274L15.1909 24.4996L15.2014 24.5021L15.2118 24.5044L15.425 23.5274ZM13.733 22.8794L14.2315 22.0125L14.2194 22.0056L14.2071 21.9989L13.733 22.8794ZM13.085 22.2854L12.1731 22.6958L12.1857 22.7239L12.2001 22.7512L13.085 22.2854ZM12.959 21.5834L11.9712 21.4274L11.9672 21.453L11.9645 21.4787L12.959 21.5834ZM13.247 20.9894L13.9798 21.6699L13.9915 21.6573L14.0027 21.6443L13.247 20.9894ZM13.841 20.6474L13.6539 19.665L13.6449 19.6668L13.841 20.6474ZM14.669 20.7914L15.107 19.8924L15.1017 19.8899L14.669 20.7914ZM16.001 21.2774L15.7782 22.2523L16.001 21.2774ZM18.467 21.2414L18.8143 22.1792L18.8294 22.1736L18.8443 22.1675L18.467 21.2414ZM18.935 18.6494L18.3485 19.4594V19.4594L18.935 18.6494ZM15.425 17.9834L14.7179 18.6905L14.7387 18.7113L14.7606 18.7308L15.425 17.9834ZM15.425 16.3274L16.1104 17.0556L16.1116 17.0544L15.425 16.3274ZM18.161 15.8414L18.5597 16.7585L18.5687 16.7546L18.5777 16.7505L18.161 15.8414ZM18.827 15.3014L18.0219 14.7082L18.0116 14.7223L18.0017 14.7367L18.827 15.3014ZM18.575 13.3574L17.9611 14.1468L17.968 14.1521L17.975 14.1574L18.575 13.3574ZM16.019 13.1234L16.2393 14.0988L16.2541 14.0955L16.2689 14.0917L16.019 13.1234ZM14.813 13.5914L15.2602 14.4858L15.27 14.4809L15.2798 14.4758L14.813 13.5914ZM14.075 13.7174L13.869 14.696H13.869L14.075 13.7174ZM13.499 13.3934L12.7397 14.0442L12.7527 14.0593L12.7662 14.0739L13.499 13.3934ZM13.211 12.8174L12.2232 12.9734L12.2281 13.004L12.2348 13.0343L13.211 12.8174ZM13.301 12.1334L12.3973 11.7053L12.3879 11.7251L12.3794 11.7454L13.301 12.1334ZM13.877 11.5754L14.3396 12.462L14.3598 12.4514L14.3796 12.4399L13.877 11.5754ZM15.551 10.8914L15.304 9.92238L15.2994 9.92359L15.551 10.8914ZM21.239 12.2594L20.4099 12.8186L20.4161 12.8276L21.239 12.2594ZM21.473 15.4454L22.3778 15.8712V15.8712L21.473 15.4454ZM20.663 16.4894L21.2977 17.2621L21.3006 17.2598L20.663 16.4894ZM19.421 17.0834H18.421V18.3566L19.658 18.0549L19.421 17.0834ZM19.421 16.8494L19.5877 15.8634L18.421 15.6662V16.8494H19.421ZM21.419 17.9114L20.6575 18.5595L21.419 17.9114ZM21.563 22.0154L22.3839 22.5865L22.3896 22.5782L21.563 22.0154ZM19.907 23.2934L19.5224 22.3703L19.5169 22.3727L19.907 23.2934ZM17.369 22.7434C16.809 22.7434 16.2325 22.6801 15.6382 22.5504L15.2118 24.5044C15.9375 24.6628 16.657 24.7434 17.369 24.7434V22.7434ZM15.6591 22.5552C15.0856 22.4171 14.614 22.2325 14.2315 22.0125L13.2345 23.7463C13.812 24.0784 14.4684 24.3257 15.1909 24.4996L15.6591 22.5552ZM14.2071 21.9989C14.1093 21.9463 14.0486 21.9006 14.0127 21.8678C13.9952 21.8517 13.9844 21.8394 13.9782 21.8315C13.9721 21.8237 13.97 21.8198 13.9699 21.8197L12.2001 22.7512C12.4415 23.2099 12.8355 23.5319 13.2589 23.7599L14.2071 21.9989ZM13.9969 21.875C13.9506 21.7722 13.9506 21.7155 13.9535 21.6881L11.9645 21.4787C11.9194 21.9074 12.0034 22.3187 12.1731 22.6958L13.9969 21.875ZM13.9468 21.7394C13.952 21.7062 13.96 21.6912 13.9798 21.6699L12.5142 20.309C12.222 20.6236 12.038 21.0046 11.9712 21.4274L13.9468 21.7394ZM14.0027 21.6443C14.0072 21.6391 14.01 21.6368 14.0108 21.6361C14.0112 21.6357 14.0115 21.6355 14.0115 21.6355C14.0115 21.6355 14.0115 21.6355 14.0115 21.6355C14.0115 21.6355 14.0117 21.6354 14.0123 21.6351C14.0129 21.6348 14.014 21.6343 14.0158 21.6337C14.0192 21.6324 14.026 21.6302 14.0371 21.628L13.6449 19.6668C13.1939 19.757 12.7968 19.982 12.4913 20.3345L14.0027 21.6443ZM14.0281 21.6297C14.0153 21.6322 14.0716 21.6139 14.2363 21.6929L15.1017 19.8899C14.6664 19.6809 14.1707 19.5666 13.6539 19.6651L14.0281 21.6297ZM14.231 21.6904C14.7539 21.9451 15.2703 22.1362 15.7782 22.2523L16.2238 20.3026C15.8917 20.2266 15.5201 20.0937 15.107 19.8924L14.231 21.6904ZM15.7782 22.2523C16.2694 22.3645 16.7641 22.4214 17.261 22.4214V20.4214C16.9179 20.4214 16.5726 20.3823 16.2238 20.3026L15.7782 22.2523ZM17.261 22.4214C17.8168 22.4214 18.3451 22.3529 18.8143 22.1792L18.1197 20.3037C17.9409 20.3699 17.6652 20.4214 17.261 20.4214V22.4214ZM18.8443 22.1675C19.3114 21.9772 19.726 21.6829 20.0242 21.2569L18.3858 20.1099C18.348 20.164 18.2706 20.2416 18.0897 20.3153L18.8443 22.1675ZM20.0242 21.2569C20.3345 20.8136 20.457 20.301 20.457 19.7834H18.457C18.457 19.9858 18.4115 20.0732 18.3858 20.1099L20.0242 21.2569ZM20.457 19.7834C20.457 19.022 20.1765 18.3138 19.5215 17.8395L18.3485 19.4594C18.3895 19.489 18.457 19.5368 18.457 19.7834H20.457ZM19.5215 17.8395C18.9311 17.4119 18.177 17.2714 17.405 17.2714V19.2714C17.977 19.2714 18.2429 19.3829 18.3485 19.4594L19.5215 17.8395ZM17.405 17.2714H16.343V19.2714H17.405V17.2714ZM16.343 17.2714C16.1007 17.2714 16.064 17.2135 16.0894 17.236L14.7606 18.7308C15.218 19.1373 15.7933 19.2714 16.343 19.2714V17.2714ZM16.1321 17.2763C16.1318 17.276 16.133 17.2772 16.1344 17.2794C16.1357 17.2814 16.1351 17.2812 16.1335 17.2768C16.1302 17.268 16.119 17.2322 16.119 17.1554H14.119C14.119 17.7102 14.2887 18.2613 14.7179 18.6905L16.1321 17.2763ZM16.119 17.1554C16.119 17.0681 16.1315 17.0304 16.1335 17.0251C16.1343 17.0228 16.133 17.0268 16.1281 17.0344C16.123 17.0421 16.1167 17.0496 16.1104 17.0556L14.7396 15.5992C14.2815 16.0304 14.119 16.6027 14.119 17.1554H16.119ZM16.1116 17.0544C16.1049 17.0607 16.1059 17.0555 16.1327 17.0466C16.1636 17.0363 16.2289 17.0214 16.343 17.0214V15.0214C15.7787 15.0214 15.1949 15.1693 14.7384 15.6004L16.1116 17.0544ZM16.343 17.0214H17.135V15.0214H16.343V17.0214ZM17.135 17.0214C17.6342 17.0214 18.1217 16.9489 18.5597 16.7585L17.7623 14.9243C17.6483 14.9739 17.4518 15.0214 17.135 15.0214V17.0214ZM18.5777 16.7505C19.0059 16.5542 19.3795 16.2647 19.6523 15.8661L18.0017 14.7367C17.9625 14.7941 17.8921 14.8646 17.7443 14.9323L18.5777 16.7505ZM19.6321 15.8946C19.949 15.4645 20.079 14.9639 20.079 14.4554H18.079C18.079 14.6189 18.041 14.6824 18.0219 14.7082L19.6321 15.8946ZM20.079 14.4554C20.079 13.712 19.8012 13.0271 19.175 12.5574L17.975 14.1574C18.0208 14.1918 18.079 14.2388 18.079 14.4554H20.079ZM19.1889 12.5681C18.6189 12.1247 17.8895 11.9794 17.153 11.9794V13.9794C17.6645 13.9794 17.8831 14.0861 17.9611 14.1468L19.1889 12.5681ZM17.153 11.9794C16.6847 11.9794 16.2227 12.0381 15.7691 12.1551L16.2689 14.0917C16.5593 14.0167 16.8533 13.9794 17.153 13.9794V11.9794ZM15.7987 12.148C15.3208 12.2559 14.8354 12.4488 14.3462 12.707L15.2798 14.4758C15.6546 14.278 15.9732 14.1589 16.2393 14.0988L15.7987 12.148ZM14.3658 12.697C14.3062 12.7268 14.2724 12.7344 14.2622 12.7362C14.2544 12.7375 14.2633 12.7351 14.281 12.7389L13.869 14.696C14.3713 14.8017 14.8491 14.6914 15.2602 14.4858L14.3658 12.697ZM14.281 12.7389C14.2609 12.7346 14.2525 12.7301 14.2503 12.7288C14.2481 12.7276 14.2422 12.7242 14.2318 12.713L12.7662 14.0739C13.0652 14.3959 13.4423 14.6061 13.869 14.696L14.281 12.7389ZM14.2583 12.7426C14.2211 12.6992 14.1996 12.6562 14.1872 12.6005L12.2348 13.0343C12.3184 13.4106 12.4889 13.7516 12.7397 14.0442L14.2583 12.7426ZM14.1988 12.6614C14.1939 12.6307 14.1935 12.5906 14.2226 12.5215L12.3794 11.7454C12.2165 12.1322 12.1561 12.5481 12.2232 12.9734L14.1988 12.6614ZM14.2047 12.5615C14.205 12.5609 14.2057 12.5596 14.2075 12.5571C14.2094 12.5544 14.2136 12.5491 14.2218 12.5411C14.2383 12.5252 14.2733 12.4966 14.3396 12.462L13.4144 10.6888C12.9915 10.9095 12.6185 11.2382 12.3973 11.7053L14.2047 12.5615ZM14.3796 12.4399C14.814 12.1873 15.2872 11.9932 15.8026 11.8592L15.2994 9.92359C14.6148 10.1016 13.972 10.3635 13.3744 10.7109L14.3796 12.4399ZM15.798 11.8604C16.3303 11.7247 16.8653 11.6574 17.405 11.6574V9.65741C16.6967 9.65741 15.9957 9.74607 15.304 9.9224L15.798 11.8604ZM17.405 11.6574C18.2203 11.6574 18.8598 11.7813 19.3531 11.9914L20.1369 10.1514C19.3342 9.80953 18.4137 9.65741 17.405 9.65741V11.6574ZM19.3531 11.9914C19.8477 12.2021 20.1836 12.4829 20.4099 12.8186L22.0681 11.7003C21.5984 11.0039 20.9383 10.4927 20.1369 10.1514L19.3531 11.9914ZM20.4161 12.8276C20.6296 13.1368 20.761 13.5419 20.761 14.0954H22.761C22.761 13.209 22.5444 12.39 22.0619 11.6912L20.4161 12.8276ZM20.761 14.0954C20.761 14.4538 20.692 14.7566 20.5682 15.0196L22.3778 15.8712C22.638 15.3182 22.761 14.721 22.761 14.0954H20.761ZM20.5682 15.0196C20.4389 15.2942 20.2603 15.5246 20.0254 15.719L21.3006 17.2598C21.7617 16.8782 22.1231 16.4126 22.3778 15.8712L20.5682 15.0196ZM20.0283 15.7167C19.8259 15.8829 19.5541 16.0216 19.184 16.1119L19.658 18.0549C20.2719 17.9052 20.8281 17.6479 21.2977 17.2621L20.0283 15.7167ZM20.421 17.0834V16.8494H18.421V17.0834H20.421ZM19.2543 17.8354C19.9152 17.9471 20.3546 18.2037 20.6575 18.5595L22.1805 17.2633C21.5234 16.4911 20.6308 16.0397 19.5877 15.8634L19.2543 17.8354ZM20.6575 18.5595C20.9607 18.9158 21.139 19.3831 21.139 20.0354H23.139C23.139 18.9837 22.8373 18.035 22.1805 17.2633L20.6575 18.5595ZM21.139 20.0354C21.139 20.6132 20.9953 21.0723 20.7364 21.4526L22.3896 22.5782C22.8987 21.8305 23.139 20.9696 23.139 20.0354H21.139ZM20.7421 21.4443C20.4835 21.8161 20.0951 22.1317 19.5224 22.3703L20.2916 24.2165C21.1589 23.8551 21.8745 23.3188 22.3839 22.5865L20.7421 21.4443ZM19.5169 22.3727C18.9616 22.6079 18.2549 22.7434 17.369 22.7434V24.7434C18.4511 24.7434 19.4364 24.5789 20.2971 24.2142L19.5169 22.3727Z" fill="#4F5E7F" mask="url(#path-9-outside-1_26736_242252)"/>
<path d="M25.5305 27.829L24.4442 25.2749C23.7339 23.6048 24.5147 21.6682 26.1848 20.9579C27.8549 20.2476 29.7915 21.0283 30.5018 22.6984L31.5881 25.2526L25.5305 27.829ZM27.4704 22.0597C27.2192 22.0597 26.9642 22.1091 26.7188 22.2135C26.2451 22.4149 25.8783 22.7888 25.6858 23.2661C25.4934 23.7435 25.4983 24.2672 25.6997 24.7409L26.2521 26.0395L29.7985 24.5311L29.2462 23.2326C28.9347 22.5001 28.2202 22.0597 27.4704 22.0597Z" fill="#124933"/>
<path d="M27.2783 33.5089C26.8063 33.5089 26.382 33.2283 26.1974 32.7941L24.1386 27.9535C23.8852 27.3578 24.1637 26.6669 24.7595 26.4135L31.1024 23.7158C31.2489 23.6535 31.4034 23.6218 31.5615 23.6218C32.0334 23.6218 32.4577 23.9024 32.6424 24.3367L34.7011 29.1773C34.8239 29.4659 34.8269 29.785 34.7096 30.0759C34.5924 30.3668 34.3688 30.5945 34.0802 30.7173L27.7373 33.415C27.5907 33.4773 27.4362 33.5089 27.2783 33.5089Z" fill="url(#paint1_linear_26736_242252)"/>
<path d="M31.5615 23.7469C31.9695 23.7468 32.3575 23.9865 32.5273 24.3856L34.5861 29.2262C34.8128 29.7593 34.5645 30.3753 34.0313 30.602L27.6884 33.2998C27.5544 33.3568 27.4152 33.3838 27.2782 33.3838C26.8702 33.3838 26.4822 33.1442 26.3124 32.7451L24.2536 27.9044C24.0269 27.3713 24.2753 26.7553 24.8084 26.5286L31.1513 23.8308C31.2853 23.7739 31.4245 23.7469 31.5615 23.7469ZM31.5615 23.4968C31.3866 23.4968 31.2156 23.5318 31.0535 23.6007L24.7106 26.2985C24.0514 26.5789 23.7432 27.3433 24.0236 28.0024L26.0823 32.8431C26.2867 33.3235 26.7561 33.634 27.2783 33.634C27.4533 33.634 27.6242 33.599 27.7863 33.5301L34.1293 30.8323C34.7885 30.5519 35.0967 29.7876 34.8163 29.1284L32.7575 24.2877C32.5531 23.8073 32.0836 23.4968 31.5615 23.4968Z" fill="#5A2903"/>
<path d="M33.5738 30.1926L27.71 32.6866C27.2171 32.8963 26.6476 32.6666 26.438 32.1737L24.5347 27.6987C24.325 27.2058 24.5547 26.6364 25.0475 26.4267L30.9114 23.9327C31.4042 23.7231 31.9737 23.9527 32.1834 24.4456L34.0867 28.9206C34.2964 29.4135 34.0668 29.983 33.5738 30.1926Z" fill="url(#paint2_linear_26736_242252)"/>
<path d="M29.2513 27.3075L28.6309 27.5714L29.4293 29.4486L30.0497 29.1847L29.2513 27.3075Z" fill="#124933"/>
<defs>
<radialGradient id="paint0_radial_26736_242252" cx="0" cy="0" r="1" gradientUnits="userSpaceOnUse" gradientTransform="translate(17.9984 17.626) scale(15.0724 15.0724)">
<stop stop-color="#C4D8E6"/>
<stop offset="1" stop-color="#B7CEDE"/>
</radialGradient>
<linearGradient id="paint1_linear_26736_242252" x1="27.1815" y1="24.6066" x2="30.8125" y2="31.0287" gradientUnits="userSpaceOnUse">
<stop stop-color="#318063"/>
<stop offset="0.354" stop-color="#23674D"/>
<stop offset="0.7462" stop-color="#16513A"/>
<stop offset="1" stop-color="#124933"/>
</linearGradient>
<linearGradient id="paint2_linear_26736_242252" x1="30.4548" y1="29.4455" x2="24.654" y2="23.6867" gradientUnits="userSpaceOnUse">
<stop offset="2.7e-07" stop-color="#95D543"/>
<stop offset="0.0319" stop-color="#98D748"/>
<stop offset="0.349" stop-color="#B8E879"/>
<stop offset="0.6275" stop-color="#D0F59D"/>
<stop offset="0.8539" stop-color="#DEFCB3"/>
<stop offset="1" stop-color="#E3FFBB"/>
</linearGradient>
</defs>
</svg>
