<svg width="36" height="36" viewBox="0 0 36 36" fill="none" xmlns="http://www.w3.org/2000/svg">
<path d="M36 17.9139C36 18.6827 35.9521 19.4399 35.8586 20.1837C35.6421 21.8797 35.1865 23.5033 34.5279 25.0159C34.5279 25.0159 34.5279 25.0182 34.5255 25.0203C31.7639 31.3785 25.4025 35.8274 17.9999 35.8274C9.61969 35.8274 2.58148 30.1291 0.574055 22.415V22.4126C0.197997 20.9751 0 19.467 0 17.9139C0 16.3266 0.207223 14.787 0.599061 13.3223C2.63388 5.6535 9.65364 0.00073243 17.9999 0.00073243C27.9411 0.000434681 36 8.02061 36 17.9139Z" fill="#9FADB7"/>
<path d="M35.0496 17.0483C35.0496 17.2662 35.0461 17.4845 35.0374 17.7007C35.0184 18.2095 34.9784 18.7115 34.9162 19.2082C34.7102 20.8229 34.2793 22.3667 33.6561 23.8069C33.6561 23.8069 33.6562 23.8087 33.6526 23.8119C31.0374 29.8628 25.0125 34.0962 18.0014 34.0962C10.0643 34.0962 3.39884 28.6736 1.49681 21.3317V21.3299C1.21455 20.2482 1.03827 19.1233 0.977532 17.9704C0.961751 17.664 0.953125 17.3576 0.953125 17.048C0.953125 15.5369 1.14874 14.0729 1.52093 12.6779C3.44737 5.37917 10.0967 0 18.0011 0C27.4168 0.00029775 35.0496 7.63313 35.0496 17.0483Z" fill="#E7E6E2"/>
<path d="M35.0493 17.0483C35.0493 17.2662 35.0458 17.4845 35.0371 17.7006C34.3916 16.496 33.2908 14.5177 31.4233 11.3056C27.2798 4.17983 18.0014 3.37529 10.4761 5.63045C2.94895 7.88739 1.3012 20.484 1.3012 20.484L0.97755 17.971C0.961769 17.6646 0.953125 17.3582 0.953125 17.0486C0.953125 15.5375 1.14876 14.0734 1.52095 12.6785C3.44739 5.37975 10.0967 0.00061036 18.0011 0.00061036C27.4165 0.000312611 35.0493 7.63312 35.0493 17.0483Z" fill="white"/>
<path d="M32.9696 17.626C32.9696 18.2772 32.9297 18.9186 32.852 19.5486C32.6722 20.9852 32.2931 22.3602 31.7453 23.6415C31.7453 23.6415 31.7453 23.6435 31.7435 23.6453C29.4467 29.0307 24.1557 32.799 17.9985 32.799C11.0285 32.799 5.17471 27.9725 3.50494 21.4384V21.4366C3.1923 20.2188 3.02734 18.9418 3.02734 17.626C3.02734 16.2817 3.19974 14.9775 3.52578 13.7368C5.21819 7.24111 11.0568 2.453 17.9985 2.453C26.2667 2.453 32.9696 9.24616 32.9696 17.626Z" fill="url(#paint0_radial_26736_242277)"/>
<path d="M32.5969 17.0479C32.5969 17.6744 32.5581 18.2913 32.4822 18.8972C32.3068 20.279 31.9373 21.602 31.4032 22.8343C31.4032 22.8343 31.4032 22.8361 31.4014 22.8379C29.162 28.0184 24.0035 31.6436 18.0006 31.6436C11.205 31.6436 5.49778 27.0005 3.86998 20.715V20.7132C3.56509 19.5418 3.4043 18.313 3.4043 17.0476C3.4043 15.7542 3.57253 14.4997 3.89023 13.3061C5.54006 7.0575 11.2327 2.45129 18.0003 2.45129C26.0618 2.45189 32.5969 8.98692 32.5969 17.0479Z" fill="#586686"/>
<path d="M31.6743 17.0486C31.6743 17.6354 31.638 18.2134 31.5668 18.7812C31.4025 20.0758 31.0562 21.315 30.5563 22.4694C30.5563 22.4694 30.5563 22.4712 30.5545 22.473C28.4568 27.326 23.6247 30.7218 18.0011 30.7218C11.6352 30.7218 6.28909 26.3723 4.76432 20.4843V20.4825C4.47878 19.3853 4.32812 18.2342 4.32812 17.0486C4.32812 15.837 4.48563 14.6618 4.78338 13.5438C6.329 7.69031 11.6614 3.37561 18.0011 3.37561C25.5526 3.37561 31.6743 9.49735 31.6743 17.0486Z" fill="#A9C1D3"/>
<path d="M31.6742 17.0483C31.6742 17.6351 31.6378 18.2131 31.5667 18.7809C29.8549 9.34311 23.9169 6.04583 14.8856 6.83695C10.0879 7.25737 6.81683 10.513 4.7832 13.5438C6.32882 7.69031 11.6612 3.37561 18.0009 3.37561C25.5524 3.37531 31.6742 9.49706 31.6742 17.0483Z" fill="#C4D8E6"/>
<path opacity="0.43" d="M30.5538 22.4733C28.4562 27.3263 23.624 30.7222 18.0004 30.7222C11.6346 30.7222 6.28845 26.3726 4.76367 20.4846C6.70381 23.3472 11.2386 28.6695 18.0004 28.4149C27.0872 28.074 30.4499 22.6427 30.5538 22.4733Z" fill="#C4D8E6"/>
<mask id="path-9-outside-1_26736_242277" maskUnits="userSpaceOnUse" x="11.2715" y="9.54541" width="13" height="16" fill="black">
<rect fill="white" x="11.2715" y="9.54541" width="13" height="16"/>
<path d="M19.655 23.7074C19.223 23.7074 18.881 23.5874 18.629 23.3474C18.389 23.1074 18.269 22.7594 18.269 22.3034V21.2774H14.237C13.793 21.2774 13.439 21.1814 13.175 20.9894C12.911 20.7854 12.779 20.4794 12.779 20.0714C12.779 19.8314 12.833 19.5854 12.941 19.3334C13.049 19.0814 13.241 18.7694 13.517 18.3974L18.179 11.6114C18.383 11.3114 18.611 11.0834 18.863 10.9274C19.115 10.7714 19.403 10.6934 19.727 10.6934C20.111 10.6934 20.417 10.8134 20.645 11.0534C20.885 11.2814 21.005 11.6294 21.005 12.0974V19.0814H21.671C22.067 19.0814 22.367 19.1774 22.571 19.3694C22.775 19.5494 22.877 19.8194 22.877 20.1794C22.877 20.5274 22.775 20.7974 22.571 20.9894C22.379 21.1814 22.079 21.2774 21.671 21.2774H21.005V22.3034C21.005 22.7594 20.885 23.1074 20.645 23.3474C20.417 23.5874 20.087 23.7074 19.655 23.7074ZM18.269 19.0814V14.1314H18.791L14.957 19.7654V19.0814H18.269Z"/>
</mask>
<path d="M19.655 23.7074C19.223 23.7074 18.881 23.5874 18.629 23.3474C18.389 23.1074 18.269 22.7594 18.269 22.3034V21.2774H14.237C13.793 21.2774 13.439 21.1814 13.175 20.9894C12.911 20.7854 12.779 20.4794 12.779 20.0714C12.779 19.8314 12.833 19.5854 12.941 19.3334C13.049 19.0814 13.241 18.7694 13.517 18.3974L18.179 11.6114C18.383 11.3114 18.611 11.0834 18.863 10.9274C19.115 10.7714 19.403 10.6934 19.727 10.6934C20.111 10.6934 20.417 10.8134 20.645 11.0534C20.885 11.2814 21.005 11.6294 21.005 12.0974V19.0814H21.671C22.067 19.0814 22.367 19.1774 22.571 19.3694C22.775 19.5494 22.877 19.8194 22.877 20.1794C22.877 20.5274 22.775 20.7974 22.571 20.9894C22.379 21.1814 22.079 21.2774 21.671 21.2774H21.005V22.3034C21.005 22.7594 20.885 23.1074 20.645 23.3474C20.417 23.5874 20.087 23.7074 19.655 23.7074ZM18.269 19.0814V14.1314H18.791L14.957 19.7654V19.0814H18.269Z" fill="white"/>
<path d="M18.629 23.3474L17.9219 24.0545L17.9305 24.0631L17.9393 24.0715L18.629 23.3474ZM18.269 21.2774H19.269V20.2774H18.269V21.2774ZM13.175 20.9894L12.5636 21.7807L12.5751 21.7896L12.5868 21.7981L13.175 20.9894ZM12.941 19.3334L13.8601 19.7273L12.941 19.3334ZM13.517 18.3974L14.3201 18.9933L14.3309 18.9787L14.3412 18.9637L13.517 18.3974ZM18.179 11.6114L19.0032 12.1777L19.0059 12.1737L18.179 11.6114ZM20.645 11.0534L19.92 11.7422L19.9377 11.7607L19.9563 11.7784L20.645 11.0534ZM21.005 19.0814H20.005V20.0814H21.005V19.0814ZM22.571 19.3694L21.8856 20.0976L21.8973 20.1086L21.9094 20.1192L22.571 19.3694ZM22.571 20.9894L21.8856 20.2612L21.8746 20.2716L21.8639 20.2823L22.571 20.9894ZM21.005 21.2774V20.2774H20.005V21.2774H21.005ZM20.645 23.3474L19.9379 22.6403L19.9288 22.6494L19.92 22.6587L20.645 23.3474ZM18.269 19.0814V20.0814H19.269V19.0814H18.269ZM18.269 14.1314V13.1314H17.269V14.1314H18.269ZM18.791 14.1314L19.6177 14.694L20.6811 13.1314H18.791V14.1314ZM14.957 19.7654H13.957V23.0124L15.7837 20.328L14.957 19.7654ZM14.957 19.0814V18.0814H13.957V19.0814H14.957ZM19.655 22.7074C19.4146 22.7074 19.3424 22.6459 19.3187 22.6233L17.9393 24.0715C18.4196 24.529 19.0314 24.7074 19.655 24.7074V22.7074ZM19.3361 22.6403C19.3323 22.6365 19.3192 22.6233 19.3044 22.5804C19.288 22.5329 19.269 22.4459 19.269 22.3034H17.269C17.269 22.9308 17.437 23.5697 17.9219 24.0545L19.3361 22.6403ZM19.269 22.3034V21.2774H17.269V22.3034H19.269ZM18.269 20.2774H14.237V22.2774H18.269V20.2774ZM14.237 20.2774C13.9296 20.2774 13.8043 20.2106 13.7632 20.1807L12.5868 21.7981C13.0737 22.1522 13.6564 22.2774 14.237 22.2774V20.2774ZM13.7864 20.1981C13.7849 20.197 13.7877 20.1989 13.7916 20.204C13.7955 20.2091 13.7968 20.2123 13.7962 20.2108C13.7948 20.2076 13.779 20.169 13.779 20.0714H11.779C11.779 20.7124 11.9996 21.3449 12.5636 21.7807L13.7864 20.1981ZM13.779 20.0714C13.779 19.9848 13.7979 19.8725 13.8601 19.7273L12.0219 18.9395C11.8681 19.2983 11.779 19.678 11.779 20.0714H13.779ZM13.8601 19.7273C13.9236 19.5793 14.0634 19.3392 14.3201 18.9933L12.7139 17.8016C12.4186 18.1996 12.1744 18.5836 12.0219 18.9395L13.8601 19.7273ZM14.3412 18.9637L19.0032 12.1777L17.3548 11.0452L12.6928 17.8312L14.3412 18.9637ZM19.0059 12.1737C19.1483 11.9643 19.2802 11.8452 19.3894 11.7777L18.3366 10.0771C17.9418 10.3216 17.6177 10.6585 17.3521 11.0491L19.0059 12.1737ZM19.3894 11.7777C19.4686 11.7286 19.571 11.6934 19.727 11.6934V9.69341C19.235 9.69341 18.7614 9.81423 18.3366 10.0771L19.3894 11.7777ZM19.727 11.6934C19.8847 11.6934 19.9114 11.7331 19.92 11.7422L21.37 10.3647C20.9226 9.89373 20.3373 9.69341 19.727 9.69341V11.6934ZM19.9563 11.7784C19.9474 11.77 19.956 11.7718 19.9696 11.8114C19.9852 11.8565 20.005 11.9457 20.005 12.0974H22.005C22.005 11.4709 21.8431 10.8123 21.3337 10.3284L19.9563 11.7784ZM20.005 12.0974V19.0814H22.005V12.0974H20.005ZM21.005 20.0814H21.671V18.0814H21.005V20.0814ZM21.671 20.0814C21.7909 20.0814 21.8583 20.0963 21.8882 20.1058C21.914 20.1141 21.905 20.1158 21.8856 20.0976L23.2564 18.6412C22.8021 18.2137 22.2162 18.0814 21.671 18.0814V20.0814ZM21.9094 20.1192C21.8976 20.1089 21.8867 20.0965 21.8779 20.0836C21.8693 20.0709 21.8657 20.062 21.865 20.0603C21.8643 20.0583 21.877 20.0914 21.877 20.1794H23.877C23.877 19.6305 23.7157 19.0458 23.2326 18.6196L21.9094 20.1192ZM21.877 20.1794C21.877 20.2568 21.8656 20.288 21.865 20.2895C21.8648 20.2901 21.8665 20.2856 21.8712 20.2786C21.8759 20.2714 21.8812 20.2654 21.8856 20.2612L23.2564 21.7176C23.7078 21.2927 23.877 20.7318 23.877 20.1794H21.877ZM21.8639 20.2823C21.8973 20.2489 21.9198 20.2458 21.8972 20.253C21.8699 20.2617 21.8004 20.2774 21.671 20.2774V22.2774C22.2126 22.2774 22.8225 22.1522 23.2781 21.6965L21.8639 20.2823ZM21.671 20.2774H21.005V22.2774H21.671V20.2774ZM20.005 21.2774V22.3034H22.005V21.2774H20.005ZM20.005 22.3034C20.005 22.4459 19.986 22.5329 19.9696 22.5804C19.9548 22.6233 19.9417 22.6365 19.9379 22.6403L21.3521 24.0545C21.837 23.5697 22.005 22.9308 22.005 22.3034H20.005ZM19.92 22.6587C19.9191 22.6597 19.9134 22.6672 19.8848 22.6776C19.8512 22.6898 19.7803 22.7074 19.655 22.7074V24.7074C20.2734 24.7074 20.9003 24.5306 21.37 24.0362L19.92 22.6587ZM19.269 19.0814V14.1314H17.269V19.0814H19.269ZM18.269 15.1314H18.791V13.1314H18.269V15.1314ZM17.9643 13.5688L14.1303 19.2028L15.7837 20.328L19.6177 14.694L17.9643 13.5688ZM15.957 19.7654V19.0814H13.957V19.7654H15.957ZM14.957 20.0814H18.269V18.0814H14.957V20.0814Z" fill="#4F5E7F" mask="url(#path-9-outside-1_26736_242277)"/>
<path d="M25.5305 27.829L24.4442 25.2749C23.7339 23.6048 24.5147 21.6682 26.1848 20.9579C27.8549 20.2476 29.7915 21.0283 30.5018 22.6984L31.5881 25.2526L25.5305 27.829ZM27.4704 22.0597C27.2192 22.0597 26.9642 22.1091 26.7188 22.2135C26.2451 22.4149 25.8783 22.7888 25.6858 23.2661C25.4934 23.7435 25.4983 24.2672 25.6997 24.7409L26.2521 26.0395L29.7985 24.5311L29.2462 23.2326C28.9347 22.5001 28.2202 22.0597 27.4704 22.0597Z" fill="#124933"/>
<path d="M27.2783 33.5089C26.8063 33.5089 26.382 33.2283 26.1974 32.7941L24.1386 27.9535C23.8852 27.3578 24.1637 26.6669 24.7595 26.4135L31.1024 23.7158C31.2489 23.6535 31.4034 23.6218 31.5615 23.6218C32.0334 23.6218 32.4577 23.9024 32.6424 24.3367L34.7011 29.1773C34.8239 29.4659 34.8269 29.785 34.7096 30.0759C34.5924 30.3668 34.3688 30.5945 34.0802 30.7173L27.7373 33.415C27.5907 33.4773 27.4362 33.5089 27.2783 33.5089Z" fill="url(#paint1_linear_26736_242277)"/>
<path d="M31.5615 23.7469C31.9695 23.7468 32.3575 23.9865 32.5273 24.3856L34.5861 29.2262C34.8128 29.7593 34.5645 30.3753 34.0313 30.602L27.6884 33.2998C27.5544 33.3568 27.4152 33.3838 27.2782 33.3838C26.8702 33.3838 26.4822 33.1442 26.3124 32.7451L24.2536 27.9044C24.0269 27.3713 24.2753 26.7553 24.8084 26.5286L31.1513 23.8308C31.2853 23.7739 31.4245 23.7469 31.5615 23.7469ZM31.5615 23.4968C31.3866 23.4968 31.2156 23.5318 31.0535 23.6007L24.7106 26.2985C24.0514 26.5789 23.7432 27.3433 24.0236 28.0024L26.0823 32.8431C26.2867 33.3235 26.7561 33.634 27.2783 33.634C27.4533 33.634 27.6242 33.599 27.7863 33.5301L34.1293 30.8323C34.7885 30.5519 35.0967 29.7876 34.8163 29.1284L32.7575 24.2877C32.5531 23.8073 32.0836 23.4968 31.5615 23.4968Z" fill="#5A2903"/>
<path d="M33.5738 30.1926L27.71 32.6866C27.2171 32.8963 26.6476 32.6666 26.438 32.1737L24.5347 27.6987C24.325 27.2058 24.5547 26.6364 25.0475 26.4267L30.9114 23.9327C31.4042 23.7231 31.9737 23.9527 32.1834 24.4456L34.0867 28.9206C34.2964 29.4135 34.0668 29.983 33.5738 30.1926Z" fill="url(#paint2_linear_26736_242277)"/>
<path d="M29.2513 27.3075L28.6309 27.5714L29.4293 29.4486L30.0497 29.1847L29.2513 27.3075Z" fill="#124933"/>
<defs>
<radialGradient id="paint0_radial_26736_242277" cx="0" cy="0" r="1" gradientUnits="userSpaceOnUse" gradientTransform="translate(17.9984 17.626) scale(15.0724 15.0724)">
<stop stop-color="#C4D8E6"/>
<stop offset="1" stop-color="#B7CEDE"/>
</radialGradient>
<linearGradient id="paint1_linear_26736_242277" x1="27.1815" y1="24.6066" x2="30.8125" y2="31.0287" gradientUnits="userSpaceOnUse">
<stop stop-color="#318063"/>
<stop offset="0.354" stop-color="#23674D"/>
<stop offset="0.7462" stop-color="#16513A"/>
<stop offset="1" stop-color="#124933"/>
</linearGradient>
<linearGradient id="paint2_linear_26736_242277" x1="30.4548" y1="29.4455" x2="24.654" y2="23.6867" gradientUnits="userSpaceOnUse">
<stop offset="2.7e-07" stop-color="#95D543"/>
<stop offset="0.0319" stop-color="#98D748"/>
<stop offset="0.349" stop-color="#B8E879"/>
<stop offset="0.6275" stop-color="#D0F59D"/>
<stop offset="0.8539" stop-color="#DEFCB3"/>
<stop offset="1" stop-color="#E3FFBB"/>
</linearGradient>
</defs>
</svg>
