<svg width="36" height="36" viewBox="0 0 36 36" fill="none" xmlns="http://www.w3.org/2000/svg">
<path d="M36 17.9139C36 18.6827 35.9521 19.4399 35.8586 20.1837C35.6421 21.8797 35.1865 23.5033 34.5279 25.0159C34.5279 25.0159 34.5279 25.0182 34.5255 25.0203C31.7639 31.3785 25.4025 35.8274 17.9999 35.8274C9.61969 35.8274 2.58148 30.1291 0.574055 22.415V22.4126C0.197997 20.9751 0 19.467 0 17.9139C0 16.3266 0.207223 14.787 0.599061 13.3223C2.63388 5.6535 9.65364 0.00073243 17.9999 0.00073243C27.9411 0.000434681 36 8.02061 36 17.9139Z" fill="#9FADB7"/>
<path d="M35.0496 17.0483C35.0496 17.2662 35.0461 17.4845 35.0374 17.7007C35.0184 18.2095 34.9784 18.7115 34.9162 19.2082C34.7102 20.8229 34.2793 22.3667 33.6561 23.8069C33.6561 23.8069 33.6562 23.8087 33.6526 23.8119C31.0374 29.8628 25.0125 34.0962 18.0014 34.0962C10.0643 34.0962 3.39884 28.6736 1.49681 21.3317V21.3299C1.21455 20.2482 1.03827 19.1233 0.977532 17.9704C0.961751 17.664 0.953125 17.3576 0.953125 17.048C0.953125 15.5369 1.14874 14.0729 1.52093 12.6779C3.44737 5.37917 10.0967 0 18.0011 0C27.4168 0.00029775 35.0496 7.63313 35.0496 17.0483Z" fill="#E7E6E2"/>
<path d="M35.0493 17.0483C35.0493 17.2662 35.0458 17.4845 35.0371 17.7006C34.3916 16.496 33.2908 14.5177 31.4233 11.3056C27.2798 4.17983 18.0014 3.37529 10.4761 5.63045C2.94895 7.88739 1.3012 20.484 1.3012 20.484L0.97755 17.971C0.961769 17.6646 0.953125 17.3582 0.953125 17.0486C0.953125 15.5375 1.14876 14.0734 1.52095 12.6785C3.44739 5.37975 10.0967 0.00061036 18.0011 0.00061036C27.4165 0.000312611 35.0493 7.63312 35.0493 17.0483Z" fill="white"/>
<path d="M32.9696 17.626C32.9696 18.2772 32.9297 18.9186 32.852 19.5486C32.6722 20.9852 32.2931 22.3602 31.7453 23.6415C31.7453 23.6415 31.7453 23.6435 31.7435 23.6453C29.4467 29.0307 24.1557 32.799 17.9985 32.799C11.0285 32.799 5.17471 27.9725 3.50494 21.4384V21.4366C3.1923 20.2188 3.02734 18.9418 3.02734 17.626C3.02734 16.2817 3.19974 14.9775 3.52578 13.7368C5.21819 7.24111 11.0568 2.453 17.9985 2.453C26.2667 2.453 32.9696 9.24616 32.9696 17.626Z" fill="url(#paint0_radial_26736_242302)"/>
<path d="M32.5969 17.0479C32.5969 17.6744 32.5581 18.2913 32.4822 18.8972C32.3068 20.279 31.9373 21.602 31.4032 22.8343C31.4032 22.8343 31.4032 22.8361 31.4014 22.8379C29.162 28.0184 24.0035 31.6436 18.0006 31.6436C11.205 31.6436 5.49778 27.0005 3.86998 20.715V20.7132C3.56509 19.5418 3.4043 18.313 3.4043 17.0476C3.4043 15.7542 3.57253 14.4997 3.89023 13.3061C5.54006 7.0575 11.2327 2.45129 18.0003 2.45129C26.0618 2.45189 32.5969 8.98692 32.5969 17.0479Z" fill="#586686"/>
<path d="M31.6743 17.0486C31.6743 17.6354 31.638 18.2134 31.5668 18.7812C31.4025 20.0758 31.0562 21.315 30.5563 22.4694C30.5563 22.4694 30.5563 22.4712 30.5545 22.473C28.4568 27.326 23.6247 30.7218 18.0011 30.7218C11.6352 30.7218 6.28909 26.3723 4.76432 20.4843V20.4825C4.47878 19.3853 4.32812 18.2342 4.32812 17.0486C4.32812 15.837 4.48563 14.6618 4.78338 13.5438C6.329 7.69031 11.6614 3.37561 18.0011 3.37561C25.5526 3.37561 31.6743 9.49735 31.6743 17.0486Z" fill="#A9C1D3"/>
<path d="M31.6742 17.0483C31.6742 17.6351 31.6378 18.2131 31.5667 18.7809C29.8549 9.34311 23.9169 6.04583 14.8856 6.83695C10.0879 7.25737 6.81683 10.513 4.7832 13.5438C6.32882 7.69031 11.6612 3.37561 18.0009 3.37561C25.5524 3.37531 31.6742 9.49706 31.6742 17.0483Z" fill="#C4D8E6"/>
<path opacity="0.43" d="M30.5538 22.4733C28.4562 27.3263 23.624 30.7222 18.0004 30.7222C11.6346 30.7222 6.28845 26.3726 4.76367 20.4846C6.70381 23.3472 11.2386 28.6695 18.0004 28.4149C27.0872 28.074 30.4499 22.6427 30.5538 22.4733Z" fill="#C4D8E6"/>
<mask id="path-9-outside-1_26736_242302" maskUnits="userSpaceOnUse" x="12.2715" y="9.54541" width="12" height="16" fill="black">
<rect fill="white" x="12.2715" y="9.54541" width="12" height="16"/>
<path d="M17.693 23.7434C17.081 23.7434 16.451 23.6654 15.803 23.5094C15.155 23.3534 14.561 23.1194 14.021 22.8074C13.745 22.6514 13.553 22.4594 13.445 22.2314C13.349 22.0034 13.319 21.7694 13.355 21.5294C13.403 21.2894 13.499 21.0854 13.643 20.9174C13.799 20.7374 13.991 20.6234 14.219 20.5754C14.459 20.5274 14.723 20.5814 15.011 20.7374C15.431 20.9534 15.857 21.1214 16.289 21.2414C16.733 21.3614 17.183 21.4214 17.639 21.4214C18.095 21.4214 18.485 21.3434 18.809 21.1874C19.133 21.0314 19.379 20.8154 19.547 20.5394C19.715 20.2634 19.799 19.9394 19.799 19.5674C19.799 18.9914 19.613 18.5294 19.241 18.1814C18.881 17.8334 18.389 17.6594 17.765 17.6594C17.453 17.6594 17.135 17.7134 16.811 17.8214C16.499 17.9174 16.175 18.0914 15.839 18.3434C15.719 18.4394 15.563 18.5294 15.371 18.6134C15.179 18.6974 14.975 18.7394 14.759 18.7394C14.387 18.7394 14.111 18.6554 13.931 18.4874C13.751 18.3074 13.661 18.0494 13.661 17.7134V12.0614C13.661 11.6654 13.763 11.3654 13.967 11.1614C14.183 10.9574 14.483 10.8554 14.867 10.8554H20.645C21.041 10.8554 21.341 10.9574 21.545 11.1614C21.749 11.3534 21.851 11.6354 21.851 12.0074C21.851 12.3674 21.749 12.6494 21.545 12.8534C21.341 13.0454 21.041 13.1414 20.645 13.1414H16.343V16.5794H15.659C15.959 16.2074 16.355 15.9194 16.847 15.7154C17.339 15.5114 17.879 15.4094 18.467 15.4094C19.271 15.4094 19.973 15.5834 20.573 15.9314C21.173 16.2674 21.641 16.7414 21.977 17.3534C22.313 17.9654 22.481 18.6734 22.481 19.4774C22.481 20.3174 22.289 21.0614 21.905 21.7094C21.521 22.3454 20.969 22.8434 20.249 23.2034C19.529 23.5634 18.677 23.7434 17.693 23.7434Z"/>
</mask>
<path d="M17.693 23.7434C17.081 23.7434 16.451 23.6654 15.803 23.5094C15.155 23.3534 14.561 23.1194 14.021 22.8074C13.745 22.6514 13.553 22.4594 13.445 22.2314C13.349 22.0034 13.319 21.7694 13.355 21.5294C13.403 21.2894 13.499 21.0854 13.643 20.9174C13.799 20.7374 13.991 20.6234 14.219 20.5754C14.459 20.5274 14.723 20.5814 15.011 20.7374C15.431 20.9534 15.857 21.1214 16.289 21.2414C16.733 21.3614 17.183 21.4214 17.639 21.4214C18.095 21.4214 18.485 21.3434 18.809 21.1874C19.133 21.0314 19.379 20.8154 19.547 20.5394C19.715 20.2634 19.799 19.9394 19.799 19.5674C19.799 18.9914 19.613 18.5294 19.241 18.1814C18.881 17.8334 18.389 17.6594 17.765 17.6594C17.453 17.6594 17.135 17.7134 16.811 17.8214C16.499 17.9174 16.175 18.0914 15.839 18.3434C15.719 18.4394 15.563 18.5294 15.371 18.6134C15.179 18.6974 14.975 18.7394 14.759 18.7394C14.387 18.7394 14.111 18.6554 13.931 18.4874C13.751 18.3074 13.661 18.0494 13.661 17.7134V12.0614C13.661 11.6654 13.763 11.3654 13.967 11.1614C14.183 10.9574 14.483 10.8554 14.867 10.8554H20.645C21.041 10.8554 21.341 10.9574 21.545 11.1614C21.749 11.3534 21.851 11.6354 21.851 12.0074C21.851 12.3674 21.749 12.6494 21.545 12.8534C21.341 13.0454 21.041 13.1414 20.645 13.1414H16.343V16.5794H15.659C15.959 16.2074 16.355 15.9194 16.847 15.7154C17.339 15.5114 17.879 15.4094 18.467 15.4094C19.271 15.4094 19.973 15.5834 20.573 15.9314C21.173 16.2674 21.641 16.7414 21.977 17.3534C22.313 17.9654 22.481 18.6734 22.481 19.4774C22.481 20.3174 22.289 21.0614 21.905 21.7094C21.521 22.3454 20.969 22.8434 20.249 23.2034C19.529 23.5634 18.677 23.7434 17.693 23.7434Z" fill="white"/>
<path d="M15.803 23.5094L16.0371 22.5372L15.803 23.5094ZM14.021 22.8074L14.5213 21.9415L14.5131 21.9368L14.021 22.8074ZM13.445 22.2314L12.5234 22.6195L12.5319 22.6397L12.5413 22.6595L13.445 22.2314ZM13.355 21.5294L12.3744 21.3333L12.3697 21.3571L12.3661 21.3811L13.355 21.5294ZM13.643 20.9174L12.8873 20.2625L12.8837 20.2666L13.643 20.9174ZM14.219 20.5754L14.0229 19.5948L14.013 19.5969L14.219 20.5754ZM15.011 20.7374L14.5347 21.6167L14.5441 21.6218L14.5537 21.6267L15.011 20.7374ZM16.289 21.2414L16.0213 22.205L16.0281 22.2068L16.289 21.2414ZM18.809 21.1874L18.3752 20.2864L18.809 21.1874ZM19.241 18.1814L18.546 18.9004L18.5519 18.9061L18.5578 18.9117L19.241 18.1814ZM16.811 17.8214L17.1051 18.7772L17.1162 18.7738L17.1272 18.7701L16.811 17.8214ZM15.839 18.3434L15.239 17.5434L15.2265 17.5528L15.2143 17.5625L15.839 18.3434ZM13.931 18.4874L13.2239 19.1945L13.2361 19.2067L13.2487 19.2185L13.931 18.4874ZM13.967 11.1614L13.2804 10.4344L13.27 10.4442L13.2599 10.4543L13.967 11.1614ZM21.545 11.1614L20.8379 11.8685L20.8486 11.8792L20.8596 11.8896L21.545 11.1614ZM21.545 12.8534L22.2304 13.5816L22.2414 13.5712L22.2521 13.5605L21.545 12.8534ZM16.343 13.1414V12.1414H15.343V13.1414H16.343ZM16.343 16.5794V17.5794H17.343V16.5794H16.343ZM15.659 16.5794L14.8806 15.9517L13.5679 17.5794H15.659V16.5794ZM16.847 15.7154L16.464 14.7917L16.464 14.7917L16.847 15.7154ZM20.573 15.9314L20.0713 16.7964L20.0778 16.8002L20.0844 16.8039L20.573 15.9314ZM21.905 21.7094L22.7611 22.2263L22.7653 22.2192L21.905 21.7094ZM20.249 23.2034L19.8018 22.309L20.249 23.2034ZM17.693 22.7434C17.1665 22.7434 16.6151 22.6764 16.0371 22.5372L15.5689 24.4816C16.2868 24.6545 16.9955 24.7434 17.693 24.7434V22.7434ZM16.0371 22.5372C15.476 22.4021 14.9726 22.2023 14.5213 21.9415L13.5207 23.6733C14.1494 24.0365 14.834 24.3047 15.5689 24.4816L16.0371 22.5372ZM14.5131 21.9368C14.441 21.8961 14.3995 21.8617 14.3771 21.8393C14.356 21.8182 14.3501 21.8061 14.3487 21.8033L12.5413 22.6595C12.7579 23.1169 13.1197 23.4467 13.5289 23.678L14.5131 21.9368ZM14.3666 21.8434C14.3404 21.7811 14.3357 21.7325 14.3439 21.6778L12.3661 21.3811C12.3023 21.8063 12.3576 22.2257 12.5234 22.6195L14.3666 21.8434ZM14.3356 21.7255C14.3536 21.6353 14.3813 21.5927 14.4023 21.5682L12.8837 20.2666C12.6167 20.5781 12.4524 20.9435 12.3744 21.3333L14.3356 21.7255ZM14.3987 21.5723C14.4053 21.5647 14.4099 21.5605 14.4121 21.5587C14.4142 21.5569 14.415 21.5565 14.4145 21.5568C14.4141 21.557 14.4139 21.5571 14.4146 21.5568C14.4154 21.5565 14.4186 21.5553 14.425 21.554L14.013 19.5969C13.5663 19.6909 13.1829 19.9215 12.8873 20.2625L14.3987 21.5723ZM14.4151 21.556C14.3916 21.5607 14.3821 21.5567 14.3966 21.5596C14.4141 21.5632 14.4593 21.5759 14.5347 21.6167L15.4873 19.8581C15.0637 19.6287 14.5593 19.4875 14.0229 19.5948L14.4151 21.556ZM14.5537 21.6267C15.031 21.8722 15.5204 22.0658 16.0214 22.2049L16.5566 20.2779C16.1936 20.1771 15.831 20.0346 15.4683 19.8481L14.5537 21.6267ZM16.0281 22.2068C16.5564 22.3496 17.0941 22.4214 17.639 22.4214V20.4214C17.2719 20.4214 16.9096 20.3733 16.5499 20.276L16.0281 22.2068ZM17.639 22.4214C18.2062 22.4214 18.7522 22.3246 19.2428 22.0884L18.3752 20.2864C18.2178 20.3622 17.9838 20.4214 17.639 20.4214V22.4214ZM19.2428 22.0884C19.7205 21.8584 20.1217 21.5186 20.4012 21.0594L18.6928 20.0195C18.6363 20.1122 18.5455 20.2044 18.3752 20.2864L19.2428 22.0884ZM20.4012 21.0594C20.6783 20.6042 20.799 20.0946 20.799 19.5674H18.799C18.799 19.7843 18.7517 19.9226 18.6928 20.0195L20.4012 21.0594ZM20.799 19.5674C20.799 18.7545 20.5257 18.0138 19.9242 17.4511L18.5578 18.9117C18.7003 19.045 18.799 19.2283 18.799 19.5674H20.799ZM19.936 17.4624C19.3463 16.8923 18.5812 16.6594 17.765 16.6594V18.6594C18.1968 18.6594 18.4157 18.7745 18.546 18.9004L19.936 17.4624ZM17.765 16.6594C17.3358 16.6594 16.9111 16.7339 16.4948 16.8727L17.1272 18.7701C17.3589 18.6929 17.5702 18.6594 17.765 18.6594V16.6594ZM16.5169 16.8656C16.0683 17.0037 15.6421 17.2411 15.239 17.5434L16.439 19.1434C16.7079 18.9417 16.9297 18.8311 17.1051 18.7772L16.5169 16.8656ZM15.2143 17.5625C15.1824 17.5881 15.1089 17.6366 14.9702 17.6973L15.7718 19.5296C16.0171 19.4223 16.2556 19.2907 16.4637 19.1243L15.2143 17.5625ZM14.9702 17.6973C14.9085 17.7242 14.8414 17.7394 14.759 17.7394V19.7394C15.1086 19.7394 15.4495 19.6706 15.7718 19.5296L14.9702 17.6973ZM14.759 17.7394C14.6447 17.7394 14.5851 17.7261 14.5642 17.7197C14.5471 17.7145 14.5742 17.7199 14.6133 17.7564L13.2487 19.2185C13.6891 19.6295 14.2599 19.7394 14.759 19.7394V17.7394ZM14.6381 17.7803C14.6487 17.7909 14.6575 17.8023 14.6641 17.813C14.6706 17.8235 14.6728 17.83 14.6727 17.8295C14.672 17.8276 14.661 17.7941 14.661 17.7134H12.661C12.661 18.2267 12.8022 18.7728 13.2239 19.1945L14.6381 17.7803ZM14.661 17.7134V12.0614H12.661V17.7134H14.661ZM14.661 12.0614C14.661 11.9467 14.6761 11.8855 14.6843 11.8613C14.6909 11.8419 14.6908 11.8519 14.6741 11.8685L13.2599 10.4543C12.8073 10.9069 12.661 11.5012 12.661 12.0614H14.661ZM14.6536 11.8884C14.6537 11.8884 14.6537 11.8884 14.6536 11.8884C14.6536 11.8884 14.6536 11.8884 14.6536 11.8885C14.6536 11.8885 14.6536 11.8885 14.6536 11.8885C14.6536 11.8885 14.6536 11.8885 14.6536 11.8884C14.6536 11.8884 14.6537 11.8884 14.6538 11.8883C14.654 11.8882 14.6543 11.888 14.6548 11.8877C14.6565 11.8867 14.6628 11.8831 14.6759 11.8787C14.7029 11.8695 14.7621 11.8554 14.867 11.8554V9.85541C14.305 9.85541 13.7315 10.0084 13.2804 10.4344L14.6536 11.8884ZM14.867 11.8554H20.645V9.85541H14.867V11.8554ZM20.645 11.8554C20.7597 11.8554 20.8209 11.8705 20.8451 11.8787C20.8645 11.8853 20.8546 11.8852 20.8379 11.8685L22.2521 10.4543C21.7995 10.0017 21.2052 9.85541 20.645 9.85541V11.8554ZM20.8596 11.8896C20.8513 11.8818 20.8441 11.8729 20.8387 11.8647C20.8336 11.8566 20.8327 11.8531 20.8341 11.857C20.8375 11.8663 20.851 11.9106 20.851 12.0074H22.851C22.851 11.4541 22.6949 10.8704 22.2304 10.4332L20.8596 11.8896ZM20.851 12.0074C20.851 12.094 20.8387 12.1362 20.8341 12.1488C20.831 12.1574 20.832 12.1522 20.8379 12.1463L22.2521 13.5605C22.6876 13.125 22.851 12.5632 22.851 12.0074H20.851ZM20.8596 12.1252C20.879 12.107 20.888 12.1087 20.8622 12.117C20.8323 12.1266 20.7649 12.1414 20.645 12.1414V14.1414C21.1902 14.1414 21.7761 14.0091 22.2304 13.5816L20.8596 12.1252ZM20.645 12.1414H16.343V14.1414H20.645V12.1414ZM15.343 13.1414V16.5794H17.343V13.1414H15.343ZM16.343 15.5794H15.659V17.5794H16.343V15.5794ZM16.4374 17.2072C16.6208 16.9797 16.8745 16.7866 17.23 16.6392L16.464 14.7917C15.8355 15.0522 15.2972 15.4351 14.8806 15.9517L16.4374 17.2072ZM17.23 16.6392C17.5885 16.4905 17.9967 16.4094 18.467 16.4094V14.4094C17.7613 14.4094 17.0895 14.5323 16.464 14.7917L17.23 16.6392ZM18.467 16.4094C19.1232 16.4094 19.6465 16.5501 20.0713 16.7964L21.0747 15.0664C20.2995 14.6167 19.4188 14.4094 18.467 14.4094V16.4094ZM20.0844 16.8039C20.5184 17.0469 20.8531 17.3842 21.1004 17.8347L22.8536 16.8722C22.4289 16.0986 21.8276 15.4879 21.0616 15.0589L20.0844 16.8039ZM21.1004 17.8347C21.3439 18.2782 21.481 18.8159 21.481 19.4774H23.481C23.481 18.5309 23.2821 17.6527 22.8536 16.8722L21.1004 17.8347ZM21.481 19.4774C21.481 20.1592 21.327 20.7232 21.0447 21.1996L22.7653 22.2192C23.251 21.3996 23.481 20.4756 23.481 19.4774H21.481ZM21.0489 21.1925C20.7709 21.653 20.3672 22.0263 19.8018 22.309L20.6962 24.0978C21.5708 23.6606 22.2711 23.0378 22.7611 22.2263L21.0489 21.1925ZM19.8018 22.309C19.2481 22.5858 18.5557 22.7434 17.693 22.7434V24.7434C18.7983 24.7434 19.8099 24.541 20.6962 24.0978L19.8018 22.309Z" fill="#4F5E7F" mask="url(#path-9-outside-1_26736_242302)"/>
<path d="M25.5305 27.829L24.4442 25.2749C23.7339 23.6048 24.5147 21.6682 26.1848 20.9579C27.8549 20.2476 29.7915 21.0283 30.5018 22.6984L31.5881 25.2526L25.5305 27.829ZM27.4704 22.0597C27.2192 22.0597 26.9642 22.1091 26.7188 22.2135C26.2451 22.4149 25.8783 22.7888 25.6858 23.2661C25.4934 23.7435 25.4983 24.2672 25.6997 24.7409L26.2521 26.0395L29.7985 24.5311L29.2462 23.2326C28.9347 22.5001 28.2202 22.0597 27.4704 22.0597Z" fill="#124933"/>
<path d="M27.2783 33.5089C26.8063 33.5089 26.382 33.2283 26.1974 32.7941L24.1386 27.9535C23.8852 27.3578 24.1637 26.6669 24.7595 26.4135L31.1024 23.7158C31.2489 23.6535 31.4034 23.6218 31.5615 23.6218C32.0334 23.6218 32.4577 23.9024 32.6424 24.3367L34.7011 29.1773C34.8239 29.4659 34.8269 29.785 34.7096 30.0759C34.5924 30.3668 34.3688 30.5945 34.0802 30.7173L27.7373 33.415C27.5907 33.4773 27.4362 33.5089 27.2783 33.5089Z" fill="url(#paint1_linear_26736_242302)"/>
<path d="M31.5615 23.7469C31.9695 23.7468 32.3575 23.9865 32.5273 24.3856L34.5861 29.2262C34.8128 29.7593 34.5645 30.3753 34.0313 30.602L27.6884 33.2998C27.5544 33.3568 27.4152 33.3838 27.2782 33.3838C26.8702 33.3838 26.4822 33.1442 26.3124 32.7451L24.2536 27.9044C24.0269 27.3713 24.2753 26.7553 24.8084 26.5286L31.1513 23.8308C31.2853 23.7739 31.4245 23.7469 31.5615 23.7469ZM31.5615 23.4968C31.3866 23.4968 31.2156 23.5318 31.0535 23.6007L24.7106 26.2985C24.0514 26.5789 23.7432 27.3433 24.0236 28.0024L26.0823 32.8431C26.2867 33.3235 26.7561 33.634 27.2783 33.634C27.4533 33.634 27.6242 33.599 27.7863 33.5301L34.1293 30.8323C34.7885 30.5519 35.0967 29.7876 34.8163 29.1284L32.7575 24.2877C32.5531 23.8073 32.0836 23.4968 31.5615 23.4968Z" fill="#5A2903"/>
<path d="M33.5738 30.1926L27.71 32.6866C27.2171 32.8963 26.6476 32.6666 26.438 32.1737L24.5347 27.6987C24.325 27.2058 24.5547 26.6364 25.0475 26.4267L30.9114 23.9327C31.4042 23.7231 31.9737 23.9527 32.1834 24.4456L34.0867 28.9206C34.2964 29.4135 34.0668 29.983 33.5738 30.1926Z" fill="url(#paint2_linear_26736_242302)"/>
<path d="M29.2513 27.3075L28.6309 27.5714L29.4293 29.4486L30.0497 29.1847L29.2513 27.3075Z" fill="#124933"/>
<defs>
<radialGradient id="paint0_radial_26736_242302" cx="0" cy="0" r="1" gradientUnits="userSpaceOnUse" gradientTransform="translate(17.9984 17.626) scale(15.0724 15.0724)">
<stop stop-color="#C4D8E6"/>
<stop offset="1" stop-color="#B7CEDE"/>
</radialGradient>
<linearGradient id="paint1_linear_26736_242302" x1="27.1815" y1="24.6066" x2="30.8125" y2="31.0287" gradientUnits="userSpaceOnUse">
<stop stop-color="#318063"/>
<stop offset="0.354" stop-color="#23674D"/>
<stop offset="0.7462" stop-color="#16513A"/>
<stop offset="1" stop-color="#124933"/>
</linearGradient>
<linearGradient id="paint2_linear_26736_242302" x1="30.4548" y1="29.4455" x2="24.654" y2="23.6867" gradientUnits="userSpaceOnUse">
<stop offset="2.7e-07" stop-color="#95D543"/>
<stop offset="0.0319" stop-color="#98D748"/>
<stop offset="0.349" stop-color="#B8E879"/>
<stop offset="0.6275" stop-color="#D0F59D"/>
<stop offset="0.8539" stop-color="#DEFCB3"/>
<stop offset="1" stop-color="#E3FFBB"/>
</linearGradient>
</defs>
</svg>
