<svg width="36" height="37" viewBox="0 0 36 37" fill="none" xmlns="http://www.w3.org/2000/svg">
<path d="M36 18.7413C36 19.5101 35.9521 20.2673 35.8586 21.011C35.6421 22.707 35.1865 24.3306 34.5279 25.8432C34.5279 25.8432 34.5279 25.8456 34.5255 25.8476C31.7639 32.2058 25.4025 36.6548 17.9999 36.6548C9.61969 36.6548 2.58148 30.9564 0.574055 23.2423V23.24C0.197997 21.8024 0 20.2943 0 18.7413C0 17.154 0.207223 15.6143 0.599061 14.1497C2.63388 6.48083 9.65364 0.828064 17.9999 0.828064C27.9411 0.827766 36 8.84795 36 18.7413Z" fill="#9FADB7"/>
<path d="M35.0496 17.8756C35.0496 18.0936 35.0461 18.3118 35.0374 18.528C35.0184 19.0368 34.9784 19.5388 34.9162 20.0355C34.7102 21.6502 34.2793 23.194 33.6561 24.6342C33.6561 24.6342 33.6562 24.636 33.6526 24.6393C31.0374 30.6901 25.0125 34.9235 18.0014 34.9235C10.0643 34.9235 3.39884 29.5009 1.49681 22.159V22.1572C1.21455 21.0755 1.03827 19.9506 0.977532 18.7977C0.961751 18.4913 0.953125 18.185 0.953125 17.8753C0.953125 16.3642 1.14874 14.9002 1.52093 13.5052C3.44737 6.20651 10.0967 0.827332 18.0011 0.827332C27.4168 0.827629 35.0496 8.46046 35.0496 17.8756Z" fill="#E7E6E2"/>
<path d="M35.0493 17.8757C35.0493 18.0936 35.0458 18.3119 35.0371 18.528C34.3916 17.3233 33.2908 15.3451 31.4233 12.133C27.2798 5.00722 18.0014 4.20268 10.4761 6.45784C2.94895 8.71478 1.3012 21.3114 1.3012 21.3114L0.97755 18.7984C0.961769 18.492 0.953125 18.1856 0.953125 17.8759C0.953125 16.3649 1.14876 14.9008 1.52095 13.5059C3.44739 6.20714 10.0967 0.828003 18.0011 0.828003C27.4165 0.827705 35.0493 8.46052 35.0493 17.8757Z" fill="white"/>
<path d="M32.9696 18.4534C32.9696 19.1045 32.9297 19.7459 32.852 20.3759C32.6722 21.8126 32.2931 23.1876 31.7453 24.4688C31.7453 24.4688 31.7453 24.4709 31.7435 24.4726C29.4467 29.858 24.1557 33.6264 17.9985 33.6264C11.0285 33.6264 5.17471 28.7998 3.50494 22.2657V22.2639C3.1923 21.0461 3.02734 19.7691 3.02734 18.4534C3.02734 17.109 3.19974 15.8049 3.52578 14.5641C5.21819 8.06844 11.0568 3.28033 17.9985 3.28033C26.2667 3.28033 32.9696 10.0735 32.9696 18.4534Z" fill="url(#paint0_radial_26736_242427)"/>
<path d="M32.5969 17.8752C32.5969 18.5017 32.5581 19.1186 32.4822 19.7245C32.3068 21.1064 31.9373 22.4293 31.4032 23.6617C31.4032 23.6617 31.4032 23.6634 31.4014 23.6652C29.162 28.8458 24.0035 32.4709 18.0006 32.4709C11.205 32.4709 5.49778 27.8278 3.86998 21.5423V21.5405C3.56509 20.3692 3.4043 19.1404 3.4043 17.8749C3.4043 16.5815 3.57253 15.3271 3.89023 14.1334C5.54006 7.88483 11.2327 3.27863 18.0003 3.27863C26.0618 3.27922 32.5969 9.81425 32.5969 17.8752Z" fill="#586686"/>
<path d="M31.6743 17.876C31.6743 18.4628 31.638 19.0408 31.5668 19.6086C31.4025 20.9032 31.0562 22.1424 30.5563 23.2968C30.5563 23.2968 30.5563 23.2986 30.5545 23.3004C28.4568 28.1534 23.6247 31.5492 18.0011 31.5492C11.6352 31.5492 6.28909 27.1997 4.76432 21.3117V21.3099C4.47878 20.2127 4.32812 19.0616 4.32812 17.876C4.32812 16.6644 4.48563 15.4892 4.78338 14.3712C6.329 8.5177 11.6614 4.203 18.0011 4.203C25.5526 4.203 31.6743 10.3247 31.6743 17.876Z" fill="#A9C1D3"/>
<path d="M31.6742 17.8757C31.6742 18.4625 31.6378 19.0405 31.5667 19.6083C29.8549 10.1705 23.9169 6.87322 14.8856 7.66434C10.0879 8.08476 6.81683 11.3404 4.7832 14.3712C6.32882 8.5177 11.6612 4.203 18.0009 4.203C25.5524 4.20271 31.6742 10.3245 31.6742 17.8757Z" fill="#C4D8E6"/>
<path opacity="0.43" d="M30.5538 23.3007C28.4562 28.1537 23.624 31.5496 18.0004 31.5496C11.6346 31.5496 6.28845 27.2 4.76367 21.312C6.70381 24.1746 11.2386 29.4969 18.0004 29.2423C27.0872 28.9014 30.4499 23.4701 30.5538 23.3007Z" fill="#C4D8E6"/>
<mask id="path-9-outside-1_26736_242427" maskUnits="userSpaceOnUse" x="11.2715" y="10.3727" width="13" height="16" fill="black">
<rect fill="white" x="11.2715" y="10.3727" width="13" height="16"/>
<path d="M18.161 24.5707C17.081 24.5707 16.163 24.3187 15.407 23.8147C14.651 23.3107 14.075 22.5847 13.679 21.6367C13.283 20.6887 13.085 19.5427 13.085 18.1987C13.085 17.1307 13.211 16.1827 13.463 15.3547C13.727 14.5267 14.099 13.8247 14.579 13.2487C15.059 12.6727 15.647 12.2347 16.343 11.9347C17.051 11.6347 17.843 11.4847 18.719 11.4847C19.235 11.4847 19.757 11.5567 20.285 11.7007C20.813 11.8447 21.305 12.0607 21.761 12.3487C22.001 12.4687 22.163 12.6427 22.247 12.8707C22.343 13.0867 22.373 13.3087 22.337 13.5367C22.301 13.7647 22.211 13.9687 22.067 14.1487C21.923 14.3167 21.737 14.4307 21.509 14.4907C21.293 14.5387 21.041 14.4967 20.753 14.3647C20.381 14.1607 20.021 14.0167 19.673 13.9327C19.337 13.8487 19.007 13.8067 18.683 13.8067C18.047 13.8067 17.507 13.9507 17.063 14.2387C16.619 14.5267 16.283 14.9587 16.055 15.5347C15.839 16.1107 15.731 16.8247 15.731 17.6767V18.8467H15.479C15.587 18.2707 15.785 17.7847 16.073 17.3887C16.373 16.9807 16.751 16.6687 17.207 16.4527C17.663 16.2367 18.167 16.1287 18.719 16.1287C19.439 16.1287 20.075 16.3087 20.627 16.6687C21.191 17.0167 21.635 17.5027 21.959 18.1267C22.283 18.7387 22.445 19.4407 22.445 20.2327C22.445 21.0727 22.265 21.8227 21.905 22.4827C21.545 23.1307 21.041 23.6407 20.393 24.0127C19.757 24.3847 19.013 24.5707 18.161 24.5707ZM18.017 22.3927C18.389 22.3927 18.713 22.3087 18.989 22.1407C19.277 21.9727 19.493 21.7327 19.637 21.4207C19.793 21.1087 19.871 20.7487 19.871 20.3407C19.871 19.9327 19.793 19.5787 19.637 19.2787C19.493 18.9667 19.277 18.7267 18.989 18.5587C18.713 18.3787 18.389 18.2887 18.017 18.2887C17.645 18.2887 17.315 18.3787 17.027 18.5587C16.751 18.7267 16.535 18.9667 16.379 19.2787C16.223 19.5787 16.145 19.9327 16.145 20.3407C16.145 20.7487 16.223 21.1087 16.379 21.4207C16.535 21.7327 16.751 21.9727 17.027 22.1407C17.315 22.3087 17.645 22.3927 18.017 22.3927Z"/>
</mask>
<path d="M18.161 24.5707C17.081 24.5707 16.163 24.3187 15.407 23.8147C14.651 23.3107 14.075 22.5847 13.679 21.6367C13.283 20.6887 13.085 19.5427 13.085 18.1987C13.085 17.1307 13.211 16.1827 13.463 15.3547C13.727 14.5267 14.099 13.8247 14.579 13.2487C15.059 12.6727 15.647 12.2347 16.343 11.9347C17.051 11.6347 17.843 11.4847 18.719 11.4847C19.235 11.4847 19.757 11.5567 20.285 11.7007C20.813 11.8447 21.305 12.0607 21.761 12.3487C22.001 12.4687 22.163 12.6427 22.247 12.8707C22.343 13.0867 22.373 13.3087 22.337 13.5367C22.301 13.7647 22.211 13.9687 22.067 14.1487C21.923 14.3167 21.737 14.4307 21.509 14.4907C21.293 14.5387 21.041 14.4967 20.753 14.3647C20.381 14.1607 20.021 14.0167 19.673 13.9327C19.337 13.8487 19.007 13.8067 18.683 13.8067C18.047 13.8067 17.507 13.9507 17.063 14.2387C16.619 14.5267 16.283 14.9587 16.055 15.5347C15.839 16.1107 15.731 16.8247 15.731 17.6767V18.8467H15.479C15.587 18.2707 15.785 17.7847 16.073 17.3887C16.373 16.9807 16.751 16.6687 17.207 16.4527C17.663 16.2367 18.167 16.1287 18.719 16.1287C19.439 16.1287 20.075 16.3087 20.627 16.6687C21.191 17.0167 21.635 17.5027 21.959 18.1267C22.283 18.7387 22.445 19.4407 22.445 20.2327C22.445 21.0727 22.265 21.8227 21.905 22.4827C21.545 23.1307 21.041 23.6407 20.393 24.0127C19.757 24.3847 19.013 24.5707 18.161 24.5707ZM18.017 22.3927C18.389 22.3927 18.713 22.3087 18.989 22.1407C19.277 21.9727 19.493 21.7327 19.637 21.4207C19.793 21.1087 19.871 20.7487 19.871 20.3407C19.871 19.9327 19.793 19.5787 19.637 19.2787C19.493 18.9667 19.277 18.7267 18.989 18.5587C18.713 18.3787 18.389 18.2887 18.017 18.2887C17.645 18.2887 17.315 18.3787 17.027 18.5587C16.751 18.7267 16.535 18.9667 16.379 19.2787C16.223 19.5787 16.145 19.9327 16.145 20.3407C16.145 20.7487 16.223 21.1087 16.379 21.4207C16.535 21.7327 16.751 21.9727 17.027 22.1407C17.315 22.3087 17.645 22.3927 18.017 22.3927Z" fill="white"/>
<path d="M15.407 23.8147L14.8523 24.6468L15.407 23.8147ZM13.679 21.6367L12.7563 22.0222L13.679 21.6367ZM13.463 15.3547L12.5102 15.0509L12.5063 15.0636L13.463 15.3547ZM14.579 13.2487L13.8108 12.6086L14.579 13.2487ZM16.343 11.9347L15.9528 11.014L15.9472 11.0164L16.343 11.9347ZM20.285 11.7007L20.5481 10.736L20.5481 10.736L20.285 11.7007ZM21.761 12.3487L21.227 13.1942L21.2692 13.2209L21.3138 13.2432L21.761 12.3487ZM22.247 12.8707L21.3087 13.2164L21.3199 13.2471L21.3332 13.2769L22.247 12.8707ZM22.337 13.5367L21.3492 13.3808V13.3808L22.337 13.5367ZM22.067 14.1487L22.8263 14.7995L22.8373 14.7867L22.8479 14.7734L22.067 14.1487ZM21.509 14.4907L21.7259 15.4669L21.7448 15.4627L21.7635 15.4578L21.509 14.4907ZM20.753 14.3647L20.2722 15.2416L20.3037 15.2588L20.3363 15.2738L20.753 14.3647ZM19.673 13.9327L19.4305 14.9029L19.4384 14.9048L19.673 13.9327ZM17.063 14.2387L16.5188 13.3998L17.063 14.2387ZM16.055 15.5347L15.1252 15.1667L15.1219 15.1751L15.1187 15.1836L16.055 15.5347ZM15.731 18.8467V19.8467H16.731V18.8467H15.731ZM15.479 18.8467L14.4961 18.6625L14.2741 19.8467H15.479V18.8467ZM16.073 17.3887L15.2673 16.7963L15.2643 16.8006L16.073 17.3887ZM17.207 16.4527L17.6351 17.3565H17.6351L17.207 16.4527ZM20.627 16.6687L20.0807 17.5064L20.0912 17.5132L20.1019 17.5198L20.627 16.6687ZM21.959 18.1267L21.0715 18.5876L21.0752 18.5946L21.959 18.1267ZM21.905 22.4827L22.7792 22.9684L22.7829 22.9616L21.905 22.4827ZM20.393 24.0127L19.8951 23.1455L19.8881 23.1496L20.393 24.0127ZM18.989 22.1407L18.4851 21.277L18.477 21.2817L18.4691 21.2865L18.989 22.1407ZM19.637 21.4207L18.7426 20.9735L18.7356 20.9875L18.729 21.0017L19.637 21.4207ZM19.637 19.2787L18.729 19.6978L18.7389 19.7192L18.7498 19.7401L19.637 19.2787ZM18.989 18.5587L18.4427 19.3964L18.4636 19.41L18.4851 19.4225L18.989 18.5587ZM17.027 18.5587L17.547 19.413L17.557 19.4067L17.027 18.5587ZM16.379 19.2787L17.2662 19.7401L17.2699 19.7331L17.2734 19.726L16.379 19.2787ZM16.379 21.4207L17.2734 20.9735L16.379 21.4207ZM17.027 22.1407L16.5071 22.9949L16.515 22.9998L16.5231 23.0045L17.027 22.1407ZM18.161 23.5707C17.2405 23.5707 16.5245 23.3579 15.9617 22.9827L14.8523 24.6468C15.8015 25.2796 16.9215 25.5707 18.161 25.5707V23.5707ZM15.9617 22.9827C15.3905 22.6019 14.932 22.042 14.6017 21.2513L12.7563 22.0222C13.218 23.1275 13.9115 24.0196 14.8523 24.6468L15.9617 22.9827ZM14.6017 21.2513C14.2698 20.4567 14.085 19.4492 14.085 18.1987H12.085C12.085 19.6363 12.2962 20.9208 12.7563 22.0222L14.6017 21.2513ZM14.085 18.1987C14.085 17.2073 14.2022 16.3605 14.4197 15.6459L12.5063 15.0636C12.2198 16.005 12.085 17.0542 12.085 18.1987H14.085ZM14.4157 15.6585C14.6467 14.9342 14.9619 14.3513 15.3472 13.8889L13.8108 12.6086C13.2361 13.2982 12.8073 14.1193 12.5103 15.051L14.4157 15.6585ZM15.3472 13.8889C15.7255 13.435 16.1855 13.0916 16.7388 12.8531L15.9472 11.0164C15.1085 11.3779 14.3925 11.9105 13.8108 12.6086L15.3472 13.8889ZM16.7331 12.8555C17.3017 12.6146 17.9585 12.4847 18.719 12.4847V10.4847C17.7275 10.4847 16.8003 10.6549 15.9529 11.014L16.7331 12.8555ZM18.719 12.4847C19.1409 12.4847 19.5744 12.5435 20.0219 12.6655L20.5481 10.736C19.9396 10.57 19.3291 10.4847 18.719 10.4847V12.4847ZM20.0219 12.6655C20.4556 12.7838 20.8561 12.96 21.227 13.1942L22.295 11.5033C21.7539 11.1615 21.1704 10.9057 20.5481 10.736L20.0219 12.6655ZM21.3138 13.2432C21.3276 13.2501 21.3343 13.2548 21.3361 13.256C21.3377 13.2572 21.3352 13.2556 21.3306 13.2507C21.3259 13.2456 21.3209 13.2392 21.3164 13.2318C21.312 13.2246 21.3096 13.2189 21.3087 13.2164L23.1853 12.525C23.0039 12.0326 22.65 11.6752 22.2082 11.4543L21.3138 13.2432ZM21.3332 13.2769C21.3528 13.3211 21.3544 13.3481 21.3492 13.3808L23.3248 13.6927C23.3916 13.2693 23.3332 12.8524 23.1608 12.4646L21.3332 13.2769ZM21.3492 13.3808C21.3403 13.4375 21.3215 13.4799 21.2861 13.524L22.8479 14.7734C23.1005 14.4576 23.2617 14.092 23.3248 13.6927L21.3492 13.3808ZM21.3077 13.4979C21.3027 13.5039 21.2997 13.5059 21.2969 13.5076C21.2937 13.5096 21.2816 13.5165 21.2545 13.5237L21.7635 15.4578C22.1744 15.3497 22.5412 15.1321 22.8263 14.7995L21.3077 13.4979ZM21.2921 13.5146C21.3272 13.5068 21.3412 13.512 21.3224 13.5088C21.3014 13.5054 21.2517 13.4933 21.1697 13.4557L20.3363 15.2738C20.7396 15.4587 21.2225 15.5788 21.7259 15.4669L21.2921 13.5146ZM21.2338 13.4879C20.7982 13.249 20.3557 13.0688 19.9076 12.9607L19.4384 14.9048C19.6863 14.9647 19.9638 15.0724 20.2722 15.2416L21.2338 13.4879ZM19.9155 12.9626C19.5056 12.8601 19.0942 12.8067 18.683 12.8067V14.8067C18.9198 14.8067 19.1683 14.8374 19.4305 14.9029L19.9155 12.9626ZM18.683 12.8067C17.8933 12.8067 17.155 12.9871 16.5188 13.3998L17.6072 15.0777C17.859 14.9144 18.2007 14.8067 18.683 14.8067V12.8067ZM16.5188 13.3998C15.8722 13.8192 15.4162 14.4314 15.1252 15.1667L16.9848 15.9028C17.1498 15.4861 17.3658 15.2342 17.6072 15.0777L16.5188 13.3998ZM15.1187 15.1836C14.8478 15.906 14.731 16.7477 14.731 17.6767H16.731C16.731 16.9018 16.8302 16.3155 16.9913 15.8859L15.1187 15.1836ZM14.731 17.6767V18.8467H16.731V17.6767H14.731ZM15.731 17.8467H15.479V19.8467H15.731V17.8467ZM16.4619 19.031C16.5478 18.5726 16.6965 18.2316 16.8817 17.9769L15.2643 16.8006C14.8735 17.3379 14.6262 17.9689 14.4961 18.6625L16.4619 19.031ZM16.8787 17.9811C17.0809 17.7061 17.3294 17.5013 17.6351 17.3565L16.7789 15.549C16.1726 15.8362 15.6651 16.2554 15.2673 16.7964L16.8787 17.9811ZM17.6351 17.3565C17.9451 17.2096 18.301 17.1287 18.719 17.1287V15.1287C18.033 15.1287 17.3809 15.2638 16.7789 15.549L17.6351 17.3565ZM18.719 17.1287C19.2637 17.1287 19.7062 17.2621 20.0807 17.5064L21.1733 15.8311C20.4438 15.3554 19.6143 15.1287 18.719 15.1287V17.1287ZM20.1019 17.5198C20.5026 17.767 20.8255 18.1138 21.0715 18.5876L22.8465 17.6659C22.4445 16.8917 21.8794 16.2665 21.1521 15.8177L20.1019 17.5198ZM21.0752 18.5946C21.3126 19.0429 21.445 19.5802 21.445 20.2327H23.445C23.445 19.3013 23.2534 18.4345 22.8428 17.6589L21.0752 18.5946ZM21.445 20.2327C21.445 20.9254 21.2979 21.5074 21.0271 22.0039L22.7829 22.9616C23.2321 22.1381 23.445 21.2201 23.445 20.2327H21.445ZM21.0308 21.9971C20.76 22.4847 20.3866 22.8633 19.8951 23.1455L20.8909 24.88C21.6954 24.4182 22.33 23.7768 22.7792 22.9684L21.0308 21.9971ZM19.8881 23.1496C19.4279 23.4188 18.8637 23.5707 18.161 23.5707V25.5707C19.1623 25.5707 20.0861 25.3507 20.8979 24.8759L19.8881 23.1496ZM18.017 23.3927C18.5441 23.3927 19.0538 23.272 19.5089 22.9949L18.4691 21.2865C18.3722 21.3455 18.2339 21.3927 18.017 21.3927V23.3927ZM19.4929 23.0045C19.9637 22.7299 20.3178 22.3319 20.545 21.8398L18.729 21.0017C18.6682 21.1336 18.5903 21.2156 18.4851 21.277L19.4929 23.0045ZM20.5314 21.868C20.7677 21.3954 20.871 20.8777 20.871 20.3407H18.871C18.871 20.6198 18.8183 20.8221 18.7426 20.9735L20.5314 21.868ZM20.871 20.3407C20.871 19.805 20.7681 19.2864 20.5242 18.8174L18.7498 19.7401C18.8179 19.871 18.871 20.0605 18.871 20.3407H20.871ZM20.545 18.8597C20.3178 18.3676 19.9637 17.9696 19.4929 17.695L18.4851 19.4225C18.5903 19.4839 18.6682 19.5659 18.729 19.6978L20.545 18.8597ZM19.5353 17.7211C19.0764 17.4219 18.5572 17.2887 18.017 17.2887V19.2887C18.2208 19.2887 18.3496 19.3356 18.4427 19.3964L19.5353 17.7211ZM18.017 17.2887C17.4761 17.2887 16.9589 17.422 16.497 17.7107L17.557 19.4067C17.6711 19.3354 17.8139 19.2887 18.017 19.2887V17.2887ZM16.5071 17.7045C16.0576 17.9781 15.7177 18.3653 15.4846 18.8315L17.2734 19.726C17.3523 19.5682 17.4444 19.4754 17.5469 19.4129L16.5071 17.7045ZM15.4918 18.8174C15.2479 19.2864 15.145 19.805 15.145 20.3407H17.145C17.145 20.0605 17.1981 19.871 17.2662 19.7401L15.4918 18.8174ZM15.145 20.3407C15.145 20.8777 15.2483 21.3954 15.4846 21.868L17.2734 20.9735C17.1977 20.8221 17.145 20.6198 17.145 20.3407H15.145ZM15.4846 21.868C15.7177 22.3342 16.0576 22.7214 16.5071 22.9949L17.5469 21.2865C17.4444 21.2241 17.3523 21.1313 17.2734 20.9735L15.4846 21.868ZM16.5231 23.0045C16.9812 23.2717 17.4889 23.3927 18.017 23.3927V21.3927C17.8011 21.3927 17.6488 21.3457 17.5309 21.277L16.5231 23.0045Z" fill="#4F5E7F" mask="url(#path-9-outside-1_26736_242427)"/>
<path d="M25.5305 28.8289L24.4442 26.2748C23.7339 24.6047 24.5147 22.6681 26.1848 21.9578C27.8549 21.2475 29.7915 22.0283 30.5018 23.6984L31.5881 26.2525L25.5305 28.8289ZM27.4704 23.0597C27.2192 23.0597 26.9642 23.109 26.7188 23.2134C26.2451 23.4148 25.8783 23.7887 25.6858 24.2661C25.4934 24.7434 25.4983 25.2672 25.6997 25.7408L26.2521 27.0394L29.7985 25.5311L29.2462 24.2326C28.9347 23.5 28.2202 23.0597 27.4704 23.0597Z" fill="#124933"/>
<path d="M27.2783 34.5088C26.8063 34.5088 26.382 34.2282 26.1974 33.794L24.1386 28.9534C23.8852 28.3577 24.1637 27.6669 24.7595 27.4135L31.1024 24.7157C31.2489 24.6534 31.4034 24.6218 31.5615 24.6218C32.0334 24.6218 32.4577 24.9024 32.6424 25.3366L34.7011 30.1772C34.8239 30.4658 34.8269 30.7849 34.7096 31.0758C34.5924 31.3667 34.3688 31.5944 34.0802 31.7172L27.7373 34.4149C27.5907 34.4772 27.4362 34.5088 27.2783 34.5088Z" fill="url(#paint1_linear_26736_242427)"/>
<path d="M31.5615 24.7468C31.9695 24.7467 32.3575 24.9863 32.5273 25.3855L34.5861 30.226C34.8128 30.7592 34.5645 31.3752 34.0313 31.6019L27.6884 34.2997C27.5544 34.3566 27.4152 34.3836 27.2782 34.3836C26.8702 34.3836 26.4822 34.1441 26.3124 33.7449L24.2536 28.9043C24.0269 28.3712 24.2753 27.7552 24.8084 27.5284L31.1513 24.8307C31.2853 24.7738 31.4245 24.7468 31.5615 24.7468ZM31.5615 24.4967C31.3866 24.4967 31.2156 24.5317 31.0535 24.6006L24.7106 27.2984C24.0514 27.5787 23.7432 28.3431 24.0236 29.0023L26.0823 33.8429C26.2867 34.3234 26.7561 34.6339 27.2783 34.6339C27.4533 34.6339 27.6242 34.5989 27.7863 34.53L34.1293 31.8322C34.7885 31.5518 35.0967 30.7874 34.8163 30.1282L32.7575 25.2876C32.5531 24.8072 32.0836 24.4967 31.5615 24.4967Z" fill="#5A2903"/>
<path d="M33.5738 31.1926L27.71 33.6865C27.2171 33.8962 26.6476 33.6665 26.438 33.1737L24.5347 28.6986C24.325 28.2058 24.5547 27.6363 25.0475 27.4267L30.9114 24.9327C31.4042 24.723 31.9737 24.9527 32.1834 25.4455L34.0867 29.9206C34.2964 30.4134 34.0668 30.983 33.5738 31.1926Z" fill="url(#paint2_linear_26736_242427)"/>
<path d="M29.2513 28.3075L28.6309 28.5714L29.4293 30.4486L30.0497 30.1847L29.2513 28.3075Z" fill="#124933"/>
<defs>
<radialGradient id="paint0_radial_26736_242427" cx="0" cy="0" r="1" gradientUnits="userSpaceOnUse" gradientTransform="translate(17.9984 18.4533) scale(15.0724 15.0724)">
<stop stop-color="#C4D8E6"/>
<stop offset="1" stop-color="#B7CEDE"/>
</radialGradient>
<linearGradient id="paint1_linear_26736_242427" x1="27.1815" y1="25.6065" x2="30.8125" y2="32.0287" gradientUnits="userSpaceOnUse">
<stop stop-color="#318063"/>
<stop offset="0.354" stop-color="#23674D"/>
<stop offset="0.7462" stop-color="#16513A"/>
<stop offset="1" stop-color="#124933"/>
</linearGradient>
<linearGradient id="paint2_linear_26736_242427" x1="30.4548" y1="30.4454" x2="24.654" y2="24.6867" gradientUnits="userSpaceOnUse">
<stop offset="2.7e-07" stop-color="#95D543"/>
<stop offset="0.0319" stop-color="#98D748"/>
<stop offset="0.349" stop-color="#B8E879"/>
<stop offset="0.6275" stop-color="#D0F59D"/>
<stop offset="0.8539" stop-color="#DEFCB3"/>
<stop offset="1" stop-color="#E3FFBB"/>
</linearGradient>
</defs>
</svg>
