<svg width="36" height="37" viewBox="0 0 36 37" fill="none" xmlns="http://www.w3.org/2000/svg">
<path d="M36 18.7413C36 19.5101 35.9521 20.2673 35.8586 21.011C35.6421 22.707 35.1865 24.3306 34.5279 25.8432C34.5279 25.8432 34.5279 25.8456 34.5255 25.8476C31.7639 32.2058 25.4025 36.6548 17.9999 36.6548C9.61969 36.6548 2.58148 30.9564 0.574055 23.2423V23.24C0.197997 21.8024 0 20.2943 0 18.7413C0 17.154 0.207223 15.6143 0.599061 14.1497C2.63388 6.48083 9.65364 0.828064 17.9999 0.828064C27.9411 0.827766 36 8.84795 36 18.7413Z" fill="#9FADB7"/>
<path d="M35.0496 17.8756C35.0496 18.0936 35.0461 18.3118 35.0374 18.528C35.0184 19.0368 34.9784 19.5388 34.9162 20.0355C34.7102 21.6502 34.2793 23.194 33.6561 24.6342C33.6561 24.6342 33.6562 24.636 33.6526 24.6393C31.0374 30.6901 25.0125 34.9235 18.0014 34.9235C10.0643 34.9235 3.39884 29.5009 1.49681 22.159V22.1572C1.21455 21.0755 1.03827 19.9506 0.977532 18.7977C0.961751 18.4913 0.953125 18.185 0.953125 17.8753C0.953125 16.3642 1.14874 14.9002 1.52093 13.5052C3.44737 6.20651 10.0967 0.827332 18.0011 0.827332C27.4168 0.827629 35.0496 8.46046 35.0496 17.8756Z" fill="#E7E6E2"/>
<path d="M35.0493 17.8757C35.0493 18.0936 35.0458 18.3119 35.0371 18.528C34.3916 17.3233 33.2908 15.3451 31.4233 12.133C27.2798 5.00722 18.0014 4.20268 10.4761 6.45784C2.94895 8.71478 1.3012 21.3114 1.3012 21.3114L0.97755 18.7984C0.961769 18.492 0.953125 18.1856 0.953125 17.8759C0.953125 16.3649 1.14876 14.9008 1.52095 13.5059C3.44739 6.20714 10.0967 0.828003 18.0011 0.828003C27.4165 0.827705 35.0493 8.46052 35.0493 17.8757Z" fill="white"/>
<path d="M32.9696 18.4534C32.9696 19.1045 32.9297 19.7459 32.852 20.3759C32.6722 21.8126 32.2931 23.1876 31.7453 24.4688C31.7453 24.4688 31.7453 24.4709 31.7435 24.4726C29.4467 29.858 24.1557 33.6264 17.9985 33.6264C11.0285 33.6264 5.17471 28.7998 3.50494 22.2657V22.2639C3.1923 21.0461 3.02734 19.7691 3.02734 18.4534C3.02734 17.109 3.19974 15.8049 3.52578 14.5641C5.21819 8.06844 11.0568 3.28033 17.9985 3.28033C26.2667 3.28033 32.9696 10.0735 32.9696 18.4534Z" fill="url(#paint0_radial_26736_242402)"/>
<path d="M32.5969 17.8752C32.5969 18.5017 32.5581 19.1186 32.4822 19.7245C32.3068 21.1064 31.9373 22.4293 31.4032 23.6617C31.4032 23.6617 31.4032 23.6634 31.4014 23.6652C29.162 28.8458 24.0035 32.4709 18.0006 32.4709C11.205 32.4709 5.49778 27.8278 3.86998 21.5423V21.5405C3.56509 20.3692 3.4043 19.1404 3.4043 17.8749C3.4043 16.5815 3.57253 15.3271 3.89023 14.1334C5.54006 7.88483 11.2327 3.27863 18.0003 3.27863C26.0618 3.27922 32.5969 9.81425 32.5969 17.8752Z" fill="#586686"/>
<path d="M31.6743 17.876C31.6743 18.4628 31.638 19.0408 31.5668 19.6086C31.4025 20.9032 31.0562 22.1424 30.5563 23.2968C30.5563 23.2968 30.5563 23.2986 30.5545 23.3004C28.4568 28.1534 23.6247 31.5492 18.0011 31.5492C11.6352 31.5492 6.28909 27.1997 4.76432 21.3117V21.3099C4.47878 20.2127 4.32812 19.0616 4.32812 17.876C4.32812 16.6644 4.48563 15.4892 4.78338 14.3712C6.329 8.5177 11.6614 4.203 18.0011 4.203C25.5526 4.203 31.6743 10.3247 31.6743 17.876Z" fill="#A9C1D3"/>
<path d="M31.6742 17.8757C31.6742 18.4625 31.6378 19.0405 31.5667 19.6083C29.8549 10.1705 23.9169 6.87322 14.8856 7.66434C10.0879 8.08476 6.81683 11.3404 4.7832 14.3712C6.32882 8.5177 11.6612 4.203 18.0009 4.203C25.5524 4.20271 31.6742 10.3245 31.6742 17.8757Z" fill="#C4D8E6"/>
<path opacity="0.43" d="M30.5538 23.3007C28.4562 28.1537 23.624 31.5496 18.0004 31.5496C11.6346 31.5496 6.28845 27.2 4.76367 21.312C6.70381 24.1746 11.2386 29.4969 18.0004 29.2423C27.0872 28.9014 30.4499 23.4701 30.5538 23.3007Z" fill="#C4D8E6"/>
<mask id="path-9-outside-1_26736_242402" maskUnits="userSpaceOnUse" x="11.2715" y="10.3727" width="13" height="16" fill="black">
<rect fill="white" x="11.2715" y="10.3727" width="13" height="16"/>
<path d="M15.425 24.5347C15.077 24.5347 14.795 24.4567 14.579 24.3007C14.363 24.1327 14.237 23.9167 14.201 23.6527C14.165 23.3887 14.237 23.0947 14.417 22.7707L19.619 13.1227V13.9867H14.183C13.787 13.9867 13.487 13.8907 13.283 13.6987C13.079 13.4947 12.977 13.2067 12.977 12.8347C12.977 12.4627 13.079 12.1807 13.283 11.9887C13.487 11.7847 13.787 11.6827 14.183 11.6827H21.041C21.425 11.6827 21.737 11.7847 21.977 11.9887C22.229 12.1927 22.355 12.4807 22.355 12.8527C22.355 13.1767 22.307 13.4587 22.211 13.6987C22.127 13.9387 22.013 14.1967 21.869 14.4727L17.009 23.6347C16.841 23.9467 16.631 24.1747 16.379 24.3187C16.127 24.4627 15.809 24.5347 15.425 24.5347Z"/>
</mask>
<path d="M15.425 24.5347C15.077 24.5347 14.795 24.4567 14.579 24.3007C14.363 24.1327 14.237 23.9167 14.201 23.6527C14.165 23.3887 14.237 23.0947 14.417 22.7707L19.619 13.1227V13.9867H14.183C13.787 13.9867 13.487 13.8907 13.283 13.6987C13.079 13.4947 12.977 13.2067 12.977 12.8347C12.977 12.4627 13.079 12.1807 13.283 11.9887C13.487 11.7847 13.787 11.6827 14.183 11.6827H21.041C21.425 11.6827 21.737 11.7847 21.977 11.9887C22.229 12.1927 22.355 12.4807 22.355 12.8527C22.355 13.1767 22.307 13.4587 22.211 13.6987C22.127 13.9387 22.013 14.1967 21.869 14.4727L17.009 23.6347C16.841 23.9467 16.631 24.1747 16.379 24.3187C16.127 24.4627 15.809 24.5347 15.425 24.5347Z" fill="white"/>
<path d="M14.579 24.3007L13.9651 25.0901L13.9791 25.101L13.9935 25.1114L14.579 24.3007ZM14.201 23.6527L15.1918 23.5176L14.201 23.6527ZM14.417 22.7707L15.2912 23.2564L15.2972 23.2453L14.417 22.7707ZM19.619 13.1227H20.619L18.7388 12.6482L19.619 13.1227ZM19.619 13.9867V14.9867H20.619V13.9867H19.619ZM13.283 13.6987L12.5759 14.4058L12.5866 14.4166L12.5976 14.4269L13.283 13.6987ZM13.283 11.9887L13.9684 12.7169L13.9794 12.7066L13.9901 12.6958L13.283 11.9887ZM21.977 11.9887L21.3294 12.7507L21.3385 12.7584L21.3478 12.766L21.977 11.9887ZM22.211 13.6987L21.2825 13.3274L21.2744 13.3477L21.2671 13.3684L22.211 13.6987ZM21.869 14.4727L22.7524 14.9414L22.7556 14.9353L21.869 14.4727ZM17.009 23.6347L17.8895 24.1089L17.8924 24.1033L17.009 23.6347ZM15.425 23.5347C15.2231 23.5347 15.1646 23.4901 15.1645 23.4901L13.9935 25.1114C14.4254 25.4233 14.9309 25.5347 15.425 25.5347V23.5347ZM15.1929 23.5114C15.1883 23.5078 15.1852 23.5051 15.1833 23.5033C15.1824 23.5024 15.1817 23.5017 15.1813 23.5013C15.181 23.5011 15.1809 23.5009 15.1808 23.5008C15.1807 23.5007 15.1806 23.5007 15.1806 23.5007C15.1806 23.5007 15.1807 23.5007 15.1808 23.5008C15.1809 23.5009 15.181 23.5011 15.1811 23.5013C15.1815 23.5017 15.1819 23.5022 15.1824 23.503C15.1836 23.5045 15.1849 23.5065 15.1863 23.5089C15.1893 23.514 15.1913 23.5188 15.1924 23.522C15.1934 23.525 15.1927 23.5241 15.1918 23.5176L13.2102 23.7879C13.2825 24.3185 13.549 24.7665 13.9651 25.0901L15.1929 23.5114ZM15.1918 23.5176C15.1945 23.5372 15.176 23.4637 15.2912 23.2564L13.5428 22.2851C13.298 22.7257 13.1355 23.2403 13.2102 23.7879L15.1918 23.5176ZM15.2972 23.2453L20.4992 13.5973L18.7388 12.6482L13.5368 22.2962L15.2972 23.2453ZM18.619 13.1227V13.9867H20.619V13.1227H18.619ZM19.619 12.9867H14.183V14.9867H19.619V12.9867ZM14.183 12.9867C14.0631 12.9867 13.9957 12.9719 13.9658 12.9623C13.94 12.9541 13.949 12.9523 13.9684 12.9705L12.5976 14.4269C13.0519 14.8545 13.6378 14.9867 14.183 14.9867V12.9867ZM13.9901 12.9916C13.9996 13.0011 14.0004 13.008 13.9961 12.9959C13.9903 12.9795 13.977 12.9309 13.977 12.8347H11.977C11.977 13.3917 12.1344 13.9643 12.5759 14.4058L13.9901 12.9916ZM13.977 12.8347C13.977 12.7379 13.9905 12.6937 13.9939 12.6844C13.9953 12.6804 13.9944 12.684 13.9893 12.692C13.9839 12.7002 13.9767 12.7091 13.9684 12.7169L12.5976 11.2605C12.1331 11.6977 11.977 12.2815 11.977 12.8347H13.977ZM13.9901 12.6958C13.9734 12.7125 13.9635 12.7126 13.9829 12.706C14.0071 12.6978 14.0683 12.6827 14.183 12.6827V10.6827C13.6228 10.6827 13.0285 10.829 12.5759 11.2816L13.9901 12.6958ZM14.183 12.6827H21.041V10.6827H14.183V12.6827ZM21.041 12.6827C21.2418 12.6827 21.3075 12.7321 21.3294 12.7507L22.6246 11.2268C22.1665 10.8374 21.6082 10.6827 21.041 10.6827V12.6827ZM21.3478 12.766C21.3526 12.7698 21.3521 12.7702 21.3494 12.7667C21.3466 12.7631 21.3449 12.7598 21.3443 12.7586C21.3429 12.7552 21.355 12.7798 21.355 12.8527H23.355C23.355 12.229 23.129 11.6347 22.6062 11.2115L21.3478 12.766ZM21.355 12.8527C21.355 13.0806 21.321 13.2312 21.2825 13.3274L23.1395 14.0701C23.293 13.6862 23.355 13.2729 23.355 12.8527H21.355ZM21.2671 13.3684C21.2021 13.5543 21.1089 13.7677 20.9824 14.0102L22.7556 14.9353C22.9171 14.6257 23.0519 14.3232 23.1549 14.0291L21.2671 13.3684ZM20.9856 14.0041L16.1256 23.1661L17.8924 24.1033L22.7524 14.9413L20.9856 14.0041ZM16.1285 23.1606C16.0296 23.3444 15.9398 23.4179 15.8829 23.4505L16.8751 25.187C17.3222 24.9315 17.6524 24.5491 17.8895 24.1088L16.1285 23.1606ZM15.8829 23.4505C15.8231 23.4847 15.6894 23.5347 15.425 23.5347V25.5347C15.9286 25.5347 16.4309 25.4408 16.8751 25.187L15.8829 23.4505Z" fill="#4F5E7F" mask="url(#path-9-outside-1_26736_242402)"/>
<path d="M25.5305 28.8289L24.4442 26.2748C23.7339 24.6047 24.5147 22.6681 26.1848 21.9578C27.8549 21.2475 29.7915 22.0283 30.5018 23.6984L31.5881 26.2525L25.5305 28.8289ZM27.4704 23.0597C27.2192 23.0597 26.9642 23.109 26.7188 23.2134C26.2451 23.4148 25.8783 23.7887 25.6858 24.2661C25.4934 24.7434 25.4983 25.2672 25.6997 25.7408L26.2521 27.0394L29.7985 25.5311L29.2462 24.2326C28.9347 23.5 28.2202 23.0597 27.4704 23.0597Z" fill="#124933"/>
<path d="M27.2783 34.5088C26.8063 34.5088 26.382 34.2282 26.1974 33.794L24.1386 28.9534C23.8852 28.3577 24.1637 27.6669 24.7595 27.4135L31.1024 24.7157C31.2489 24.6534 31.4034 24.6218 31.5615 24.6218C32.0334 24.6218 32.4577 24.9024 32.6424 25.3366L34.7011 30.1772C34.8239 30.4658 34.8269 30.7849 34.7096 31.0758C34.5924 31.3667 34.3688 31.5944 34.0802 31.7172L27.7373 34.4149C27.5907 34.4772 27.4362 34.5088 27.2783 34.5088Z" fill="url(#paint1_linear_26736_242402)"/>
<path d="M31.5615 24.7468C31.9695 24.7467 32.3575 24.9863 32.5273 25.3855L34.5861 30.226C34.8128 30.7592 34.5645 31.3752 34.0313 31.6019L27.6884 34.2997C27.5544 34.3566 27.4152 34.3836 27.2782 34.3836C26.8702 34.3836 26.4822 34.1441 26.3124 33.7449L24.2536 28.9043C24.0269 28.3712 24.2753 27.7552 24.8084 27.5284L31.1513 24.8307C31.2853 24.7738 31.4245 24.7468 31.5615 24.7468ZM31.5615 24.4967C31.3866 24.4967 31.2156 24.5317 31.0535 24.6006L24.7106 27.2984C24.0514 27.5787 23.7432 28.3431 24.0236 29.0023L26.0823 33.8429C26.2867 34.3234 26.7561 34.6339 27.2783 34.6339C27.4533 34.6339 27.6242 34.5989 27.7863 34.53L34.1293 31.8322C34.7885 31.5518 35.0967 30.7874 34.8163 30.1282L32.7575 25.2876C32.5531 24.8072 32.0836 24.4967 31.5615 24.4967Z" fill="#5A2903"/>
<path d="M33.5738 31.1926L27.71 33.6865C27.2171 33.8962 26.6476 33.6665 26.438 33.1737L24.5347 28.6986C24.325 28.2058 24.5547 27.6363 25.0475 27.4267L30.9114 24.9327C31.4042 24.723 31.9737 24.9527 32.1834 25.4455L34.0867 29.9206C34.2964 30.4134 34.0668 30.983 33.5738 31.1926Z" fill="url(#paint2_linear_26736_242402)"/>
<path d="M29.2513 28.3075L28.6309 28.5714L29.4293 30.4486L30.0497 30.1847L29.2513 28.3075Z" fill="#124933"/>
<defs>
<radialGradient id="paint0_radial_26736_242402" cx="0" cy="0" r="1" gradientUnits="userSpaceOnUse" gradientTransform="translate(17.9984 18.4533) scale(15.0724 15.0724)">
<stop stop-color="#C4D8E6"/>
<stop offset="1" stop-color="#B7CEDE"/>
</radialGradient>
<linearGradient id="paint1_linear_26736_242402" x1="27.1815" y1="25.6065" x2="30.8125" y2="32.0287" gradientUnits="userSpaceOnUse">
<stop stop-color="#318063"/>
<stop offset="0.354" stop-color="#23674D"/>
<stop offset="0.7462" stop-color="#16513A"/>
<stop offset="1" stop-color="#124933"/>
</linearGradient>
<linearGradient id="paint2_linear_26736_242402" x1="30.4548" y1="30.4454" x2="24.654" y2="24.6867" gradientUnits="userSpaceOnUse">
<stop offset="2.7e-07" stop-color="#95D543"/>
<stop offset="0.0319" stop-color="#98D748"/>
<stop offset="0.349" stop-color="#B8E879"/>
<stop offset="0.6275" stop-color="#D0F59D"/>
<stop offset="0.8539" stop-color="#DEFCB3"/>
<stop offset="1" stop-color="#E3FFBB"/>
</linearGradient>
</defs>
</svg>
