<svg width="36" height="37" viewBox="0 0 36 37" fill="none" xmlns="http://www.w3.org/2000/svg">
<path d="M36 18.7413C36 19.5101 35.9521 20.2673 35.8586 21.011C35.6421 22.707 35.1865 24.3306 34.5279 25.8432C34.5279 25.8432 34.5279 25.8456 34.5255 25.8476C31.7639 32.2058 25.4025 36.6548 17.9999 36.6548C9.61969 36.6548 2.58148 30.9564 0.574055 23.2423V23.24C0.197997 21.8024 0 20.2943 0 18.7413C0 17.154 0.207223 15.6143 0.599061 14.1497C2.63388 6.48083 9.65364 0.828064 17.9999 0.828064C27.9411 0.827766 36 8.84795 36 18.7413Z" fill="#9FADB7"/>
<path d="M35.0496 17.8756C35.0496 18.0936 35.0461 18.3118 35.0374 18.528C35.0184 19.0368 34.9784 19.5388 34.9162 20.0355C34.7102 21.6502 34.2793 23.194 33.6561 24.6342C33.6561 24.6342 33.6562 24.636 33.6526 24.6393C31.0374 30.6901 25.0125 34.9235 18.0014 34.9235C10.0643 34.9235 3.39884 29.5009 1.49681 22.159V22.1572C1.21455 21.0755 1.03827 19.9506 0.977532 18.7977C0.961751 18.4913 0.953125 18.185 0.953125 17.8753C0.953125 16.3642 1.14874 14.9002 1.52093 13.5052C3.44737 6.20651 10.0967 0.827332 18.0011 0.827332C27.4168 0.827629 35.0496 8.46046 35.0496 17.8756Z" fill="#E7E6E2"/>
<path d="M35.0493 17.8757C35.0493 18.0936 35.0458 18.3119 35.0371 18.528C34.3916 17.3233 33.2908 15.3451 31.4233 12.133C27.2798 5.00722 18.0014 4.20268 10.4761 6.45784C2.94895 8.71478 1.3012 21.3114 1.3012 21.3114L0.97755 18.7984C0.961769 18.492 0.953125 18.1856 0.953125 17.8759C0.953125 16.3649 1.14876 14.9008 1.52095 13.5059C3.44739 6.20714 10.0967 0.828003 18.0011 0.828003C27.4165 0.827705 35.0493 8.46052 35.0493 17.8757Z" fill="white"/>
<path d="M32.9696 18.4534C32.9696 19.1045 32.9297 19.7459 32.852 20.3759C32.6722 21.8126 32.2931 23.1876 31.7453 24.4688C31.7453 24.4688 31.7453 24.4709 31.7435 24.4726C29.4467 29.858 24.1557 33.6264 17.9985 33.6264C11.0285 33.6264 5.17471 28.7998 3.50494 22.2657V22.2639C3.1923 21.0461 3.02734 19.7691 3.02734 18.4534C3.02734 17.109 3.19974 15.8049 3.52578 14.5641C5.21819 8.06844 11.0568 3.28033 17.9985 3.28033C26.2667 3.28033 32.9696 10.0735 32.9696 18.4534Z" fill="url(#paint0_radial_26736_242377)"/>
<path d="M32.5969 17.8752C32.5969 18.5017 32.5581 19.1186 32.4822 19.7245C32.3068 21.1064 31.9373 22.4293 31.4032 23.6617C31.4032 23.6617 31.4032 23.6634 31.4014 23.6652C29.162 28.8458 24.0035 32.4709 18.0006 32.4709C11.205 32.4709 5.49778 27.8278 3.86998 21.5423V21.5405C3.56509 20.3692 3.4043 19.1404 3.4043 17.8749C3.4043 16.5815 3.57253 15.3271 3.89023 14.1334C5.54006 7.88483 11.2327 3.27863 18.0003 3.27863C26.0618 3.27922 32.5969 9.81425 32.5969 17.8752Z" fill="#586686"/>
<path d="M31.6743 17.876C31.6743 18.4628 31.638 19.0408 31.5668 19.6086C31.4025 20.9032 31.0562 22.1424 30.5563 23.2968C30.5563 23.2968 30.5563 23.2986 30.5545 23.3004C28.4568 28.1534 23.6247 31.5492 18.0011 31.5492C11.6352 31.5492 6.28909 27.1997 4.76432 21.3117V21.3099C4.47878 20.2127 4.32812 19.0616 4.32812 17.876C4.32812 16.6644 4.48563 15.4892 4.78338 14.3712C6.329 8.5177 11.6614 4.203 18.0011 4.203C25.5526 4.203 31.6743 10.3247 31.6743 17.876Z" fill="#A9C1D3"/>
<path d="M31.6742 17.8757C31.6742 18.4625 31.6378 19.0405 31.5667 19.6083C29.8549 10.1705 23.9169 6.87322 14.8856 7.66434C10.0879 8.08476 6.81683 11.3404 4.7832 14.3712C6.32882 8.5177 11.6612 4.203 18.0009 4.203C25.5524 4.20271 31.6742 10.3245 31.6742 17.8757Z" fill="#C4D8E6"/>
<path opacity="0.43" d="M30.5538 23.3007C28.4562 28.1537 23.624 31.5496 18.0004 31.5496C11.6346 31.5496 6.28845 27.2 4.76367 21.312C6.70381 24.1746 11.2386 29.4969 18.0004 29.2423C27.0872 28.9014 30.4499 23.4701 30.5538 23.3007Z" fill="#C4D8E6"/>
<mask id="path-9-outside-1_26736_242377" maskUnits="userSpaceOnUse" x="11.2715" y="10.3727" width="13" height="16" fill="black">
<rect fill="white" x="11.2715" y="10.3727" width="13" height="16"/>
<path d="M17.675 24.5707C16.667 24.5707 15.803 24.4267 15.083 24.1387C14.363 23.8507 13.811 23.4367 13.427 22.8967C13.043 22.3447 12.851 21.6847 12.851 20.9167C12.851 20.3167 12.971 19.7827 13.211 19.3147C13.463 18.8467 13.805 18.4687 14.237 18.1807C14.669 17.8927 15.155 17.7127 15.695 17.6407V18.1087C14.939 17.9407 14.327 17.5747 13.859 17.0107C13.403 16.4347 13.175 15.7447 13.175 14.9407C13.175 14.2207 13.355 13.6027 13.715 13.0867C14.087 12.5707 14.609 12.1747 15.281 11.8987C15.965 11.6227 16.763 11.4847 17.675 11.4847C18.599 11.4847 19.397 11.6227 20.069 11.8987C20.741 12.1747 21.263 12.5707 21.635 13.0867C22.007 13.6027 22.193 14.2207 22.193 14.9407C22.193 15.4807 22.085 15.9727 21.869 16.4167C21.665 16.8607 21.371 17.2267 20.987 17.5147C20.615 17.8027 20.183 17.9887 19.691 18.0727V17.6407C20.519 17.7607 21.191 18.1147 21.707 18.7027C22.235 19.2907 22.499 20.0287 22.499 20.9167C22.499 21.6847 22.307 22.3447 21.923 22.8967C21.539 23.4367 20.987 23.8507 20.267 24.1387C19.547 24.4267 18.683 24.5707 17.675 24.5707ZM17.675 22.4287C18.419 22.4287 18.983 22.2847 19.367 21.9967C19.751 21.7087 19.943 21.2827 19.943 20.7187C19.943 20.1547 19.751 19.7347 19.367 19.4587C18.983 19.1707 18.419 19.0267 17.675 19.0267C16.931 19.0267 16.367 19.1707 15.983 19.4587C15.599 19.7347 15.407 20.1547 15.407 20.7187C15.407 21.2827 15.599 21.7087 15.983 21.9967C16.367 22.2847 16.931 22.4287 17.675 22.4287ZM17.675 16.8847C18.083 16.8847 18.431 16.8187 18.719 16.6867C19.019 16.5547 19.241 16.3627 19.385 16.1107C19.541 15.8587 19.619 15.5707 19.619 15.2467C19.619 14.7427 19.445 14.3467 19.097 14.0587C18.761 13.7707 18.287 13.6267 17.675 13.6267C17.063 13.6267 16.589 13.7707 16.253 14.0587C15.917 14.3467 15.749 14.7427 15.749 15.2467C15.749 15.7507 15.917 16.1527 16.253 16.4527C16.589 16.7407 17.063 16.8847 17.675 16.8847Z"/>
</mask>
<path d="M17.675 24.5707C16.667 24.5707 15.803 24.4267 15.083 24.1387C14.363 23.8507 13.811 23.4367 13.427 22.8967C13.043 22.3447 12.851 21.6847 12.851 20.9167C12.851 20.3167 12.971 19.7827 13.211 19.3147C13.463 18.8467 13.805 18.4687 14.237 18.1807C14.669 17.8927 15.155 17.7127 15.695 17.6407V18.1087C14.939 17.9407 14.327 17.5747 13.859 17.0107C13.403 16.4347 13.175 15.7447 13.175 14.9407C13.175 14.2207 13.355 13.6027 13.715 13.0867C14.087 12.5707 14.609 12.1747 15.281 11.8987C15.965 11.6227 16.763 11.4847 17.675 11.4847C18.599 11.4847 19.397 11.6227 20.069 11.8987C20.741 12.1747 21.263 12.5707 21.635 13.0867C22.007 13.6027 22.193 14.2207 22.193 14.9407C22.193 15.4807 22.085 15.9727 21.869 16.4167C21.665 16.8607 21.371 17.2267 20.987 17.5147C20.615 17.8027 20.183 17.9887 19.691 18.0727V17.6407C20.519 17.7607 21.191 18.1147 21.707 18.7027C22.235 19.2907 22.499 20.0287 22.499 20.9167C22.499 21.6847 22.307 22.3447 21.923 22.8967C21.539 23.4367 20.987 23.8507 20.267 24.1387C19.547 24.4267 18.683 24.5707 17.675 24.5707ZM17.675 22.4287C18.419 22.4287 18.983 22.2847 19.367 21.9967C19.751 21.7087 19.943 21.2827 19.943 20.7187C19.943 20.1547 19.751 19.7347 19.367 19.4587C18.983 19.1707 18.419 19.0267 17.675 19.0267C16.931 19.0267 16.367 19.1707 15.983 19.4587C15.599 19.7347 15.407 20.1547 15.407 20.7187C15.407 21.2827 15.599 21.7087 15.983 21.9967C16.367 22.2847 16.931 22.4287 17.675 22.4287ZM17.675 16.8847C18.083 16.8847 18.431 16.8187 18.719 16.6867C19.019 16.5547 19.241 16.3627 19.385 16.1107C19.541 15.8587 19.619 15.5707 19.619 15.2467C19.619 14.7427 19.445 14.3467 19.097 14.0587C18.761 13.7707 18.287 13.6267 17.675 13.6267C17.063 13.6267 16.589 13.7707 16.253 14.0587C15.917 14.3467 15.749 14.7427 15.749 15.2467C15.749 15.7507 15.917 16.1527 16.253 16.4527C16.589 16.7407 17.063 16.8847 17.675 16.8847Z" fill="white"/>
<path d="M15.083 24.1387L15.4544 23.2103L15.083 24.1387ZM13.427 22.8967L12.6061 23.4678L12.612 23.4763L13.427 22.8967ZM13.211 19.3147L12.3305 18.8406L12.3258 18.8495L12.3212 18.8584L13.211 19.3147ZM14.237 18.1807L14.7917 19.0128H14.7917L14.237 18.1807ZM15.695 17.6407H16.695V16.4986L15.5628 16.6495L15.695 17.6407ZM15.695 18.1087L15.4781 19.0849L16.695 19.3554V18.1087H15.695ZM13.859 17.0107L13.075 17.6314L13.0821 17.6405L13.0894 17.6493L13.859 17.0107ZM13.715 13.0867L12.9038 12.5019L12.8993 12.5082L12.8949 12.5146L13.715 13.0867ZM15.281 11.8987L14.9068 10.9714L14.9011 10.9737L15.281 11.8987ZM20.069 11.8987L20.4489 10.9737L20.069 11.8987ZM21.635 13.0867L22.4462 12.5019V12.5019L21.635 13.0867ZM21.869 16.4167L20.9698 15.9793L20.9649 15.9892L20.9603 15.9992L21.869 16.4167ZM20.987 17.5147L20.387 16.7147L20.3809 16.7193L20.3748 16.724L20.987 17.5147ZM19.691 18.0727H18.691V19.2579L19.8593 19.0585L19.691 18.0727ZM19.691 17.6407L19.8344 16.6511L18.691 16.4854V17.6407H19.691ZM21.707 18.7027L20.9553 19.3624L20.963 19.3709L21.707 18.7027ZM21.923 22.8967L22.738 23.4763L22.7439 23.4678L21.923 22.8967ZM20.267 24.1387L20.6384 25.0672L20.267 24.1387ZM19.367 21.9967L19.967 22.7967H19.967L19.367 21.9967ZM19.367 19.4587L18.767 20.2587L18.7751 20.2648L18.7834 20.2708L19.367 19.4587ZM15.983 19.4587L16.5666 20.2708L16.5749 20.2648L16.583 20.2587L15.983 19.4587ZM15.983 21.9967L16.583 21.1967L15.983 21.9967ZM18.719 16.6867L18.3163 15.7714L18.3093 15.7745L18.3023 15.7777L18.719 16.6867ZM19.385 16.1107L18.5347 15.5844L18.5255 15.5993L18.5168 15.6146L19.385 16.1107ZM19.097 14.0587L18.4462 14.818L18.4528 14.8236L18.4594 14.8291L19.097 14.0587ZM16.253 14.0587L16.9038 14.818L16.9038 14.818L16.253 14.0587ZM16.253 16.4527L15.587 17.1987L15.5945 17.2054L15.6022 17.212L16.253 16.4527ZM17.675 23.5707C16.7579 23.5707 16.0267 23.4392 15.4544 23.2103L14.7116 25.0672C15.5793 25.4143 16.5761 25.5707 17.675 25.5707V23.5707ZM15.4544 23.2103C14.8817 22.9812 14.4968 22.6756 14.242 22.3172L12.612 23.4763C13.1252 24.1979 13.8443 24.7203 14.7116 25.0672L15.4544 23.2103ZM14.2479 22.3257C13.9966 21.9644 13.851 21.5106 13.851 20.9167H11.851C11.851 21.8589 12.0894 22.7251 12.6061 23.4678L14.2479 22.3257ZM13.851 20.9167C13.851 20.4529 13.9428 20.0791 14.1008 19.7711L12.3212 18.8584C11.9992 19.4864 11.851 20.1805 11.851 20.9167H13.851ZM14.0915 19.7888C14.2677 19.4615 14.4993 19.2077 14.7917 19.0128L13.6823 17.3487C13.1107 17.7298 12.6583 18.232 12.3305 18.8406L14.0915 19.7888ZM14.7917 19.0128C15.0906 18.8135 15.4307 18.6848 15.8272 18.632L15.5628 16.6495C14.8793 16.7406 14.2474 16.9719 13.6823 17.3487L14.7917 19.0128ZM14.695 17.6407V18.1087H16.695V17.6407H14.695ZM15.9119 17.1326C15.3593 17.0098 14.9465 16.7554 14.6286 16.3722L13.0894 17.6493C13.7075 18.3941 14.5187 18.8717 15.4781 19.0849L15.9119 17.1326ZM14.643 16.39C14.3403 16.0077 14.175 15.5421 14.175 14.9407H12.175C12.175 15.9474 12.4657 16.8618 13.075 17.6314L14.643 16.39ZM14.175 14.9407C14.175 14.3948 14.3086 13.9837 14.5351 13.6589L12.8949 12.5146C12.4014 13.2218 12.175 14.0467 12.175 14.9407H14.175ZM14.5262 13.6715C14.7742 13.3276 15.1365 13.0391 15.6609 12.8238L14.9011 10.9737C14.0815 11.3103 13.3998 11.8139 12.9038 12.5019L14.5262 13.6715ZM15.6552 12.8261C16.1958 12.608 16.8619 12.4847 17.675 12.4847V10.4847C16.6641 10.4847 15.7342 10.6375 14.9068 10.9714L15.6552 12.8261ZM17.675 12.4847C18.5027 12.4847 19.1655 12.6087 19.6891 12.8238L20.4489 10.9737C19.6285 10.6367 18.6953 10.4847 17.675 10.4847V12.4847ZM19.6891 12.8238C20.2135 13.0391 20.5758 13.3276 20.8238 13.6715L22.4462 12.5019C21.9502 11.8139 21.2685 11.3103 20.4489 10.9737L19.6891 12.8238ZM20.8238 13.6715C21.0572 13.9953 21.193 14.4018 21.193 14.9407H23.193C23.193 14.0397 22.9568 13.2102 22.4462 12.5019L20.8238 13.6715ZM21.193 14.9407C21.193 15.3436 21.1134 15.684 20.9698 15.9793L22.7682 16.8542C23.0566 16.2615 23.193 15.6179 23.193 14.9407H21.193ZM20.9603 15.9992C20.8245 16.2949 20.6354 16.5284 20.387 16.7147L21.587 18.3147C22.1066 17.9251 22.5055 17.4266 22.7777 16.8342L20.9603 15.9992ZM20.3748 16.724C20.1405 16.9055 19.8631 17.0289 19.5227 17.087L19.8593 19.0585C20.5029 18.9486 21.0895 18.7 21.5992 18.3055L20.3748 16.724ZM20.691 18.0727V17.6407H18.691V18.0727H20.691ZM19.5476 18.6304C20.1577 18.7188 20.6078 18.9662 20.9554 19.3623L22.4586 18.0432C21.7742 17.2633 20.8803 16.8027 19.8344 16.6511L19.5476 18.6304ZM20.963 19.3709C21.3055 19.7523 21.499 20.2426 21.499 20.9167H23.499C23.499 19.8149 23.1645 18.8291 22.451 18.0346L20.963 19.3709ZM21.499 20.9167C21.499 21.5106 21.3534 21.9644 21.1021 22.3257L22.7439 23.4678C23.2606 22.7251 23.499 21.8589 23.499 20.9167H21.499ZM21.108 22.3172C20.8532 22.6756 20.4683 22.9812 19.8956 23.2103L20.6384 25.0672C21.5057 24.7203 22.2248 24.1979 22.738 23.4763L21.108 22.3172ZM19.8956 23.2103C19.3233 23.4392 18.5921 23.5707 17.675 23.5707V25.5707C18.7739 25.5707 19.7707 25.4143 20.6384 25.0672L19.8956 23.2103ZM17.675 23.4287C18.5237 23.4287 19.338 23.2685 19.967 22.7967L18.767 21.1967C18.628 21.301 18.3143 21.4287 17.675 21.4287V23.4287ZM19.967 22.7967C20.6488 22.2854 20.943 21.5352 20.943 20.7187H18.943C18.943 21.0303 18.8532 21.1321 18.767 21.1967L19.967 22.7967ZM20.943 20.7187C20.943 19.9032 20.6484 19.1482 19.9506 18.6467L18.7834 20.2708C18.8536 20.3212 18.943 20.4063 18.943 20.7187H20.943ZM19.967 18.6587C19.338 18.187 18.5237 18.0267 17.675 18.0267V20.0267C18.3143 20.0267 18.628 20.1545 18.767 20.2587L19.967 18.6587ZM17.675 18.0267C16.8263 18.0267 16.012 18.187 15.383 18.6587L16.583 20.2587C16.722 20.1545 17.0357 20.0267 17.675 20.0267V18.0267ZM15.3994 18.6467C14.7016 19.1482 14.407 19.9032 14.407 20.7187H16.407C16.407 20.4063 16.4964 20.3212 16.5666 20.2708L15.3994 18.6467ZM14.407 20.7187C14.407 21.5352 14.7012 22.2854 15.383 22.7967L16.583 21.1967C16.4968 21.1321 16.407 21.0303 16.407 20.7187H14.407ZM15.383 22.7967C16.012 23.2685 16.8263 23.4287 17.675 23.4287V21.4287C17.0357 21.4287 16.722 21.301 16.583 21.1967L15.383 22.7967ZM17.675 17.8847C18.187 17.8847 18.685 17.8024 19.1357 17.5958L18.3023 15.7777C18.177 15.8351 17.979 15.8847 17.675 15.8847V17.8847ZM19.1217 17.6021C19.5913 17.3955 19.9895 17.0685 20.2532 16.6069L18.5168 15.6146C18.4925 15.657 18.4467 15.714 18.3163 15.7714L19.1217 17.6021ZM20.2353 16.6371C20.4982 16.2124 20.619 15.7388 20.619 15.2467H18.619C18.619 15.4027 18.5838 15.5051 18.5347 15.5844L20.2353 16.6371ZM20.619 15.2467C20.619 14.4837 20.3405 13.7898 19.7346 13.2883L18.4594 14.8291C18.5495 14.9037 18.619 15.0018 18.619 15.2467H20.619ZM19.7478 13.2995C19.1716 12.8056 18.4346 12.6267 17.675 12.6267V14.6267C18.1394 14.6267 18.3504 14.7358 18.4462 14.818L19.7478 13.2995ZM17.675 12.6267C16.9154 12.6267 16.1784 12.8056 15.6022 13.2995L16.9038 14.818C16.9996 14.7358 17.2106 14.6267 17.675 14.6267V12.6267ZM15.6022 13.2995C15.0124 13.8051 14.749 14.496 14.749 15.2467H16.749C16.749 14.9894 16.8216 14.8884 16.9038 14.818L15.6022 13.2995ZM14.749 15.2467C14.749 15.9979 15.0119 16.6852 15.587 17.1987L16.919 15.7068C16.8221 15.6203 16.749 15.5036 16.749 15.2467H14.749ZM15.6022 17.212C16.1784 17.7058 16.9154 17.8847 17.675 17.8847V15.8847C17.2106 15.8847 16.9996 15.7756 16.9038 15.6935L15.6022 17.212Z" fill="#4F5E7F" mask="url(#path-9-outside-1_26736_242377)"/>
<path d="M25.5305 28.8289L24.4442 26.2748C23.7339 24.6047 24.5147 22.6681 26.1848 21.9578C27.8549 21.2475 29.7915 22.0283 30.5018 23.6984L31.5881 26.2525L25.5305 28.8289ZM27.4704 23.0597C27.2192 23.0597 26.9642 23.109 26.7188 23.2134C26.2451 23.4148 25.8783 23.7887 25.6858 24.2661C25.4934 24.7434 25.4983 25.2672 25.6997 25.7408L26.2521 27.0394L29.7985 25.5311L29.2462 24.2326C28.9347 23.5 28.2202 23.0597 27.4704 23.0597Z" fill="#124933"/>
<path d="M27.2783 34.5088C26.8063 34.5088 26.382 34.2282 26.1974 33.794L24.1386 28.9534C23.8852 28.3577 24.1637 27.6669 24.7595 27.4135L31.1024 24.7157C31.2489 24.6534 31.4034 24.6218 31.5615 24.6218C32.0334 24.6218 32.4577 24.9024 32.6424 25.3366L34.7011 30.1772C34.8239 30.4658 34.8269 30.7849 34.7096 31.0758C34.5924 31.3667 34.3688 31.5944 34.0802 31.7172L27.7373 34.4149C27.5907 34.4772 27.4362 34.5088 27.2783 34.5088Z" fill="url(#paint1_linear_26736_242377)"/>
<path d="M31.5615 24.7468C31.9695 24.7467 32.3575 24.9863 32.5273 25.3855L34.5861 30.226C34.8128 30.7592 34.5645 31.3752 34.0313 31.6019L27.6884 34.2997C27.5544 34.3566 27.4152 34.3836 27.2782 34.3836C26.8702 34.3836 26.4822 34.1441 26.3124 33.7449L24.2536 28.9043C24.0269 28.3712 24.2753 27.7552 24.8084 27.5284L31.1513 24.8307C31.2853 24.7738 31.4245 24.7468 31.5615 24.7468ZM31.5615 24.4967C31.3866 24.4967 31.2156 24.5317 31.0535 24.6006L24.7106 27.2984C24.0514 27.5787 23.7432 28.3431 24.0236 29.0023L26.0823 33.8429C26.2867 34.3234 26.7561 34.6339 27.2783 34.6339C27.4533 34.6339 27.6242 34.5989 27.7863 34.53L34.1293 31.8322C34.7885 31.5518 35.0967 30.7874 34.8163 30.1282L32.7575 25.2876C32.5531 24.8072 32.0836 24.4967 31.5615 24.4967Z" fill="#5A2903"/>
<path d="M33.5738 31.1926L27.71 33.6865C27.2171 33.8962 26.6476 33.6665 26.438 33.1737L24.5347 28.6986C24.325 28.2058 24.5547 27.6363 25.0475 27.4267L30.9114 24.9327C31.4042 24.723 31.9737 24.9527 32.1834 25.4455L34.0867 29.9206C34.2964 30.4134 34.0668 30.983 33.5738 31.1926Z" fill="url(#paint2_linear_26736_242377)"/>
<path d="M29.2513 28.3075L28.6309 28.5714L29.4293 30.4486L30.0497 30.1847L29.2513 28.3075Z" fill="#124933"/>
<defs>
<radialGradient id="paint0_radial_26736_242377" cx="0" cy="0" r="1" gradientUnits="userSpaceOnUse" gradientTransform="translate(17.9984 18.4533) scale(15.0724 15.0724)">
<stop stop-color="#C4D8E6"/>
<stop offset="1" stop-color="#B7CEDE"/>
</radialGradient>
<linearGradient id="paint1_linear_26736_242377" x1="27.1815" y1="25.6065" x2="30.8125" y2="32.0287" gradientUnits="userSpaceOnUse">
<stop stop-color="#318063"/>
<stop offset="0.354" stop-color="#23674D"/>
<stop offset="0.7462" stop-color="#16513A"/>
<stop offset="1" stop-color="#124933"/>
</linearGradient>
<linearGradient id="paint2_linear_26736_242377" x1="30.4548" y1="30.4454" x2="24.654" y2="24.6867" gradientUnits="userSpaceOnUse">
<stop offset="2.7e-07" stop-color="#95D543"/>
<stop offset="0.0319" stop-color="#98D748"/>
<stop offset="0.349" stop-color="#B8E879"/>
<stop offset="0.6275" stop-color="#D0F59D"/>
<stop offset="0.8539" stop-color="#DEFCB3"/>
<stop offset="1" stop-color="#E3FFBB"/>
</linearGradient>
</defs>
</svg>
