<svg width="36" height="37" viewBox="0 0 36 37" fill="none" xmlns="http://www.w3.org/2000/svg">
<path d="M36 18.7413C36 19.5101 35.9521 20.2673 35.8586 21.011C35.6421 22.707 35.1865 24.3306 34.5279 25.8432C34.5279 25.8432 34.5279 25.8456 34.5255 25.8476C31.7639 32.2058 25.4025 36.6548 17.9999 36.6548C9.61969 36.6548 2.58148 30.9564 0.574055 23.2423V23.24C0.197997 21.8024 0 20.2943 0 18.7413C0 17.154 0.207223 15.6143 0.599061 14.1497C2.63388 6.48083 9.65364 0.828064 17.9999 0.828064C27.9411 0.827766 36 8.84795 36 18.7413Z" fill="#9FADB7"/>
<path d="M35.0496 17.8756C35.0496 18.0936 35.0461 18.3118 35.0374 18.528C35.0184 19.0368 34.9784 19.5388 34.9162 20.0355C34.7102 21.6502 34.2793 23.194 33.6561 24.6342C33.6561 24.6342 33.6562 24.636 33.6526 24.6393C31.0374 30.6901 25.0125 34.9235 18.0014 34.9235C10.0643 34.9235 3.39884 29.5009 1.49681 22.159V22.1572C1.21455 21.0755 1.03827 19.9506 0.977532 18.7977C0.961751 18.4913 0.953125 18.185 0.953125 17.8753C0.953125 16.3642 1.14874 14.9002 1.52093 13.5052C3.44737 6.20651 10.0967 0.827332 18.0011 0.827332C27.4168 0.827629 35.0496 8.46046 35.0496 17.8756Z" fill="#E7E6E2"/>
<path d="M35.0493 17.8757C35.0493 18.0936 35.0458 18.3119 35.0371 18.528C34.3916 17.3233 33.2908 15.3451 31.4233 12.133C27.2798 5.00722 18.0014 4.20268 10.4761 6.45784C2.94895 8.71478 1.3012 21.3114 1.3012 21.3114L0.97755 18.7984C0.961769 18.492 0.953125 18.1856 0.953125 17.8759C0.953125 16.3649 1.14876 14.9008 1.52095 13.5059C3.44739 6.20714 10.0967 0.828003 18.0011 0.828003C27.4165 0.827705 35.0493 8.46052 35.0493 17.8757Z" fill="white"/>
<path d="M32.9696 18.4534C32.9696 19.1045 32.9297 19.7459 32.852 20.3759C32.6722 21.8126 32.2931 23.1876 31.7453 24.4688C31.7453 24.4688 31.7453 24.4709 31.7435 24.4726C29.4467 29.858 24.1557 33.6264 17.9985 33.6264C11.0285 33.6264 5.17471 28.7998 3.50494 22.2657V22.2639C3.1923 21.0461 3.02734 19.7691 3.02734 18.4534C3.02734 17.109 3.19974 15.8049 3.52578 14.5641C5.21819 8.06844 11.0568 3.28033 17.9985 3.28033C26.2667 3.28033 32.9696 10.0735 32.9696 18.4534Z" fill="url(#paint0_radial_26736_242352)"/>
<path d="M32.5969 17.8752C32.5969 18.5017 32.5581 19.1186 32.4822 19.7245C32.3068 21.1064 31.9373 22.4293 31.4032 23.6617C31.4032 23.6617 31.4032 23.6634 31.4014 23.6652C29.162 28.8458 24.0035 32.4709 18.0006 32.4709C11.205 32.4709 5.49778 27.8278 3.86998 21.5423V21.5405C3.56509 20.3692 3.4043 19.1404 3.4043 17.8749C3.4043 16.5815 3.57253 15.3271 3.89023 14.1334C5.54006 7.88483 11.2327 3.27863 18.0003 3.27863C26.0618 3.27922 32.5969 9.81425 32.5969 17.8752Z" fill="#586686"/>
<path d="M31.6743 17.876C31.6743 18.4628 31.638 19.0408 31.5668 19.6086C31.4025 20.9032 31.0562 22.1424 30.5563 23.2968C30.5563 23.2968 30.5563 23.2986 30.5545 23.3004C28.4568 28.1534 23.6247 31.5492 18.0011 31.5492C11.6352 31.5492 6.28909 27.1997 4.76432 21.3117V21.3099C4.47878 20.2127 4.32812 19.0616 4.32812 17.876C4.32812 16.6644 4.48563 15.4892 4.78338 14.3712C6.329 8.5177 11.6614 4.203 18.0011 4.203C25.5526 4.203 31.6743 10.3247 31.6743 17.876Z" fill="#A9C1D3"/>
<path d="M31.6742 17.8757C31.6742 18.4625 31.6378 19.0405 31.5667 19.6083C29.8549 10.1705 23.9169 6.87322 14.8856 7.66434C10.0879 8.08476 6.81683 11.3404 4.7832 14.3712C6.32882 8.5177 11.6612 4.203 18.0009 4.203C25.5524 4.20271 31.6742 10.3245 31.6742 17.8757Z" fill="#C4D8E6"/>
<path opacity="0.43" d="M30.5538 23.3007C28.4562 28.1537 23.624 31.5496 18.0004 31.5496C11.6346 31.5496 6.28845 27.2 4.76367 21.312C6.70381 24.1746 11.2386 29.4969 18.0004 29.2423C27.0872 28.9014 30.4499 23.4701 30.5538 23.3007Z" fill="#C4D8E6"/>
<mask id="path-9-outside-1_26736_242352" maskUnits="userSpaceOnUse" x="11.2715" y="10.3727" width="12" height="16" fill="black">
<rect fill="white" x="11.2715" y="10.3727" width="12" height="16"/>
<path d="M16.631 24.5707C16.115 24.5707 15.593 24.4987 15.065 24.3547C14.537 24.2107 14.045 23.9947 13.589 23.7067C13.349 23.5867 13.181 23.4187 13.085 23.2027C13.001 22.9747 12.977 22.7467 13.013 22.5187C13.049 22.2907 13.139 22.0927 13.283 21.9247C13.427 21.7447 13.607 21.6307 13.823 21.5827C14.051 21.5227 14.309 21.5587 14.597 21.6907C14.969 21.8947 15.323 22.0387 15.659 22.1227C16.007 22.2067 16.343 22.2487 16.667 22.2487C17.303 22.2487 17.843 22.1047 18.287 21.8167C18.731 21.5287 19.061 21.0967 19.277 20.5207C19.505 19.9327 19.619 19.2187 19.619 18.3787V17.2087H19.871C19.775 17.7727 19.577 18.2587 19.277 18.6667C18.977 19.0747 18.599 19.3867 18.143 19.6027C17.687 19.8187 17.183 19.9267 16.631 19.9267C15.923 19.9267 15.287 19.7527 14.723 19.4047C14.159 19.0447 13.715 18.5527 13.391 17.9287C13.067 17.3047 12.905 16.6027 12.905 15.8227C12.905 14.9827 13.085 14.2387 13.445 13.5907C13.805 12.9307 14.309 12.4147 14.957 12.0427C15.605 11.6707 16.349 11.4847 17.189 11.4847C18.281 11.4847 19.199 11.7367 19.943 12.2407C20.699 12.7327 21.275 13.4587 21.671 14.4187C22.067 15.3667 22.265 16.5127 22.265 17.8567C22.265 18.9247 22.133 19.8727 21.869 20.7007C21.617 21.5287 21.251 22.2307 20.771 22.8067C20.291 23.3827 19.697 23.8207 18.989 24.1207C18.293 24.4207 17.507 24.5707 16.631 24.5707ZM17.351 17.7487C17.723 17.7487 18.047 17.6647 18.323 17.4967C18.611 17.3167 18.833 17.0707 18.989 16.7587C19.145 16.4467 19.223 16.0927 19.223 15.6967C19.223 15.2887 19.145 14.9287 18.989 14.6167C18.833 14.3047 18.611 14.0647 18.323 13.8967C18.047 13.7287 17.723 13.6447 17.351 13.6447C16.979 13.6447 16.655 13.7287 16.379 13.8967C16.103 14.0647 15.881 14.3047 15.713 14.6167C15.557 14.9287 15.479 15.2887 15.479 15.6967C15.479 16.0927 15.557 16.4467 15.713 16.7587C15.881 17.0707 16.103 17.3167 16.379 17.4967C16.655 17.6647 16.979 17.7487 17.351 17.7487Z"/>
</mask>
<path d="M16.631 24.5707C16.115 24.5707 15.593 24.4987 15.065 24.3547C14.537 24.2107 14.045 23.9947 13.589 23.7067C13.349 23.5867 13.181 23.4187 13.085 23.2027C13.001 22.9747 12.977 22.7467 13.013 22.5187C13.049 22.2907 13.139 22.0927 13.283 21.9247C13.427 21.7447 13.607 21.6307 13.823 21.5827C14.051 21.5227 14.309 21.5587 14.597 21.6907C14.969 21.8947 15.323 22.0387 15.659 22.1227C16.007 22.2067 16.343 22.2487 16.667 22.2487C17.303 22.2487 17.843 22.1047 18.287 21.8167C18.731 21.5287 19.061 21.0967 19.277 20.5207C19.505 19.9327 19.619 19.2187 19.619 18.3787V17.2087H19.871C19.775 17.7727 19.577 18.2587 19.277 18.6667C18.977 19.0747 18.599 19.3867 18.143 19.6027C17.687 19.8187 17.183 19.9267 16.631 19.9267C15.923 19.9267 15.287 19.7527 14.723 19.4047C14.159 19.0447 13.715 18.5527 13.391 17.9287C13.067 17.3047 12.905 16.6027 12.905 15.8227C12.905 14.9827 13.085 14.2387 13.445 13.5907C13.805 12.9307 14.309 12.4147 14.957 12.0427C15.605 11.6707 16.349 11.4847 17.189 11.4847C18.281 11.4847 19.199 11.7367 19.943 12.2407C20.699 12.7327 21.275 13.4587 21.671 14.4187C22.067 15.3667 22.265 16.5127 22.265 17.8567C22.265 18.9247 22.133 19.8727 21.869 20.7007C21.617 21.5287 21.251 22.2307 20.771 22.8067C20.291 23.3827 19.697 23.8207 18.989 24.1207C18.293 24.4207 17.507 24.5707 16.631 24.5707ZM17.351 17.7487C17.723 17.7487 18.047 17.6647 18.323 17.4967C18.611 17.3167 18.833 17.0707 18.989 16.7587C19.145 16.4467 19.223 16.0927 19.223 15.6967C19.223 15.2887 19.145 14.9287 18.989 14.6167C18.833 14.3047 18.611 14.0647 18.323 13.8967C18.047 13.7287 17.723 13.6447 17.351 13.6447C16.979 13.6447 16.655 13.7287 16.379 13.8967C16.103 14.0647 15.881 14.3047 15.713 14.6167C15.557 14.9287 15.479 15.2887 15.479 15.6967C15.479 16.0927 15.557 16.4467 15.713 16.7587C15.881 17.0707 16.103 17.3167 16.379 17.4967C16.655 17.6647 16.979 17.7487 17.351 17.7487Z" fill="white"/>
<path d="M15.065 24.3547L14.8019 25.3195H14.8019L15.065 24.3547ZM13.589 23.7067L14.123 22.8613L14.0808 22.8346L14.0362 22.8123L13.589 23.7067ZM13.085 23.2027L12.1467 23.5484L12.1579 23.5791L12.1712 23.6089L13.085 23.2027ZM13.013 22.5187L12.0252 22.3628L13.013 22.5187ZM13.283 21.9247L14.0423 22.5755L14.0533 22.5627L14.0639 22.5494L13.283 21.9247ZM13.823 21.5827L14.0399 22.5589L14.0588 22.5547L14.0775 22.5498L13.823 21.5827ZM14.597 21.6907L15.0778 20.8139L15.0463 20.7966L15.0137 20.7817L14.597 21.6907ZM15.659 22.1227L15.4165 23.0929L15.4244 23.0948L15.659 22.1227ZM18.287 21.8167L18.8312 22.6557L18.287 21.8167ZM19.277 20.5207L18.3446 20.1592L18.3407 20.1696L19.277 20.5207ZM19.619 17.2087V16.2087H18.619V17.2087H19.619ZM19.871 17.2087L20.8568 17.3765L21.0556 16.2087H19.871V17.2087ZM19.277 18.6667L20.0827 19.2591L19.277 18.6667ZM18.143 19.6027L17.7149 18.699V18.699L18.143 19.6027ZM14.723 19.4047L14.185 20.2477L14.1914 20.2518L14.1979 20.2558L14.723 19.4047ZM13.391 17.9287L12.5035 18.3896L13.391 17.9287ZM13.445 13.5907L14.3192 14.0764L14.3229 14.0696L13.445 13.5907ZM14.957 12.0427L14.4591 11.1755L14.4591 11.1755L14.957 12.0427ZM19.943 12.2407L19.3822 13.0687L19.3898 13.0738L19.3975 13.0789L19.943 12.2407ZM21.671 14.4187L20.7466 14.8001L20.7483 14.8042L21.671 14.4187ZM21.869 20.7007L20.9162 20.3969L20.9123 20.4096L21.869 20.7007ZM20.771 22.8067L21.5392 23.4469L20.771 22.8067ZM18.989 24.1207L18.5988 23.2L18.5932 23.2024L18.989 24.1207ZM18.323 17.4967L18.843 18.351L18.853 18.3447L18.323 17.4967ZM18.989 16.7587L19.8834 17.206L19.8834 17.206L18.989 16.7587ZM18.989 14.6167L19.8834 14.1695L19.8834 14.1695L18.989 14.6167ZM18.323 13.8967L17.8031 14.7509L17.811 14.7558L17.8191 14.7605L18.323 13.8967ZM15.713 14.6167L14.8325 14.1426L14.8253 14.156L14.8186 14.1695L15.713 14.6167ZM15.713 16.7587L14.8186 17.206L14.8253 17.2195L14.8325 17.2328L15.713 16.7587ZM16.379 17.4967L15.8327 18.3344L15.8458 18.3429L15.8591 18.3509L16.379 17.4967ZM16.631 23.5707C16.2091 23.5707 15.7756 23.512 15.3281 23.39L14.8019 25.3195C15.4104 25.4855 16.0209 25.5707 16.631 25.5707V23.5707ZM15.3281 23.39C14.8944 23.2717 14.4939 23.0955 14.123 22.8613L13.055 24.5522C13.5961 24.894 14.1796 25.1498 14.8019 25.3195L15.3281 23.39ZM14.0362 22.8123C14.0001 22.7942 13.989 22.7825 13.9901 22.7836C13.9904 22.784 13.9923 22.7859 13.9945 22.7892C13.9968 22.7925 13.9982 22.7953 13.9988 22.7966L12.1712 23.6089C12.374 24.0653 12.724 24.3923 13.1418 24.6012L14.0362 22.8123ZM14.0233 22.857C13.9952 22.7805 13.9928 22.725 14.0008 22.6747L12.0252 22.3628C11.9612 22.7685 12.0068 23.1689 12.1467 23.5484L14.0233 22.857ZM14.0008 22.6747C14.0092 22.6213 14.0241 22.5967 14.0423 22.5755L12.5237 21.274C12.2539 21.5888 12.0888 21.9601 12.0252 22.3628L14.0008 22.6747ZM14.0639 22.5494C14.0685 22.5437 14.0706 22.5419 14.0697 22.5427C14.0688 22.5435 14.0659 22.546 14.0611 22.5491C14.0562 22.5521 14.0511 22.5547 14.0464 22.5567C14.0417 22.5586 14.0393 22.5591 14.0399 22.5589L13.6061 20.6066C13.1577 20.7062 12.7821 20.9501 12.5021 21.3L14.0639 22.5494ZM14.0775 22.5498C14.0506 22.5569 14.0377 22.5535 14.0493 22.5551C14.0639 22.5572 14.1063 22.5659 14.1803 22.5998L15.0137 20.7817C14.5878 20.5865 14.0867 20.4793 13.5685 20.6157L14.0775 22.5498ZM14.1162 22.5676C14.5471 22.8039 14.9812 22.9841 15.4165 23.0929L15.9015 21.1526C15.6648 21.0934 15.3909 20.9856 15.0778 20.8139L14.1162 22.5676ZM15.4244 23.0948C15.8413 23.1955 16.2562 23.2487 16.667 23.2487V21.2487C16.4298 21.2487 16.1727 21.218 15.8936 21.1507L15.4244 23.0948ZM16.667 23.2487C17.4567 23.2487 18.195 23.0684 18.8312 22.6557L17.7428 20.9778C17.491 21.1411 17.1493 21.2487 16.667 21.2487V23.2487ZM18.8312 22.6557C19.4828 22.2331 19.9348 21.6145 20.2133 20.8719L18.3407 20.1696C18.1872 20.579 17.9792 20.8244 17.7428 20.9778L18.8312 22.6557ZM20.2094 20.8823C20.4942 20.1477 20.619 19.3037 20.619 18.3787H18.619C18.619 19.1338 18.5158 19.7178 18.3446 20.1592L20.2094 20.8823ZM20.619 18.3787V17.2087H18.619V18.3787H20.619ZM19.619 18.2087H19.871V16.2087H19.619V18.2087ZM18.8852 17.0409C18.8119 17.4714 18.6677 17.8074 18.4713 18.0744L20.0827 19.2591C20.4863 18.7101 20.7381 18.0741 20.8568 17.3765L18.8852 17.0409ZM18.4713 18.0744C18.2691 18.3494 18.0206 18.5542 17.7149 18.699L18.5711 20.5065C19.1774 20.2193 19.6849 19.8001 20.0827 19.2591L18.4713 18.0744ZM17.7149 18.699C17.4049 18.8458 17.049 18.9267 16.631 18.9267V20.9267C17.317 20.9267 17.9691 20.7916 18.5711 20.5065L17.7149 18.699ZM16.631 18.9267C16.0953 18.9267 15.6434 18.7976 15.2481 18.5537L14.1979 20.2558C14.9306 20.7079 15.7507 20.9267 16.631 20.9267V18.9267ZM15.261 18.5618C14.8527 18.3012 14.5259 17.9443 14.2785 17.4679L12.5035 18.3896C12.9041 19.1612 13.4653 19.7883 14.185 20.2477L15.261 18.5618ZM14.2785 17.4679C14.0362 17.0013 13.905 16.4602 13.905 15.8227H11.905C11.905 16.7453 12.0978 17.6082 12.5035 18.3896L14.2785 17.4679ZM13.905 15.8227C13.905 15.1297 14.0522 14.557 14.3192 14.0764L12.5708 13.1051C12.1178 13.9205 11.905 14.8358 11.905 15.8227H13.905ZM14.3229 14.0696C14.5951 13.5706 14.968 13.1895 15.4549 12.91L14.4591 11.1755C13.65 11.64 13.0149 12.2909 12.5671 13.1119L14.3229 14.0696ZM15.4549 12.91C15.9332 12.6354 16.5016 12.4847 17.189 12.4847V10.4847C16.1964 10.4847 15.2768 10.7061 14.4591 11.1755L15.4549 12.91ZM17.189 12.4847C18.1246 12.4847 18.8364 12.699 19.3822 13.0687L20.5038 11.4128C19.5616 10.7745 18.4374 10.4847 17.189 10.4847V12.4847ZM19.3975 13.0789C19.9592 13.4444 20.4157 13.998 20.7466 14.8001L22.5954 14.0374C22.1343 12.9195 21.4388 12.0211 20.4885 11.4026L19.3975 13.0789ZM20.7483 14.8042C21.0802 15.5988 21.265 16.6063 21.265 17.8567H23.265C23.265 16.4192 23.0538 15.1347 22.5937 14.0333L20.7483 14.8042ZM21.265 17.8567C21.265 18.8443 21.1427 19.6867 20.9163 20.397L22.8217 21.0045C23.1233 20.0588 23.265 19.0052 23.265 17.8567H21.265ZM20.9123 20.4096C20.6933 21.1294 20.3851 21.7078 20.0028 22.1666L21.5392 23.4469C22.1169 22.7537 22.5407 21.9281 22.8257 20.9919L20.9123 20.4096ZM20.0028 22.1666C19.6273 22.6171 19.1642 22.9604 18.5989 23.2L19.3791 25.0415C20.2298 24.681 20.9547 24.1484 21.5392 23.4469L20.0028 22.1666ZM18.5932 23.2024C18.0401 23.4408 17.3919 23.5707 16.631 23.5707V25.5707C17.6221 25.5707 18.5459 25.4007 19.3848 25.0391L18.5932 23.2024ZM17.351 18.7487C17.8781 18.7487 18.3878 18.628 18.8429 18.3509L17.8031 16.6425C17.7062 16.7015 17.5679 16.7487 17.351 16.7487V18.7487ZM18.853 18.3447C19.3014 18.0645 19.6475 17.6778 19.8834 17.206L18.0946 16.3115C18.0185 16.4636 17.9206 16.569 17.793 16.6487L18.853 18.3447ZM19.8834 17.206C20.1177 16.7374 20.223 16.2269 20.223 15.6967H18.223C18.223 15.9586 18.1723 16.1561 18.0946 16.3115L19.8834 17.206ZM20.223 15.6967C20.223 15.1598 20.1197 14.6421 19.8834 14.1695L18.0946 15.064C18.1703 15.2154 18.223 15.4177 18.223 15.6967H20.223ZM19.8834 14.1695C19.6447 13.6921 19.2908 13.3036 18.8269 13.033L17.8191 14.7605C17.9312 14.8259 18.0213 14.9174 18.0946 15.064L19.8834 14.1695ZM18.8429 13.0425C18.3878 12.7655 17.8781 12.6447 17.351 12.6447V14.6447C17.5679 14.6447 17.7062 14.692 17.8031 14.7509L18.8429 13.0425ZM17.351 12.6447C16.8239 12.6447 16.3142 12.7655 15.8591 13.0425L16.8989 14.7509C16.9958 14.692 17.1341 14.6447 17.351 14.6447V12.6447ZM15.8591 13.0425C15.4168 13.3117 15.0764 13.6897 14.8325 14.1426L16.5935 15.0908C16.6856 14.9198 16.7892 14.8177 16.8989 14.7509L15.8591 13.0425ZM14.8186 14.1695C14.5823 14.6421 14.479 15.1598 14.479 15.6967H16.479C16.479 15.4177 16.5317 15.2154 16.6074 15.064L14.8186 14.1695ZM14.479 15.6967C14.479 16.2269 14.5843 16.7374 14.8186 17.206L16.6074 16.3115C16.5297 16.1561 16.479 15.9586 16.479 15.6967H14.479ZM14.8325 17.2328C15.0736 17.6806 15.4062 18.0562 15.8327 18.3344L16.9253 16.6591C16.7998 16.5773 16.6884 16.4609 16.5935 16.2846L14.8325 17.2328ZM15.8591 18.3509C16.3142 18.628 16.8239 18.7487 17.351 18.7487V16.7487C17.1341 16.7487 16.9958 16.7015 16.8989 16.6425L15.8591 18.3509Z" fill="#4F5E7F" mask="url(#path-9-outside-1_26736_242352)"/>
<path d="M25.5305 28.8289L24.4442 26.2748C23.7339 24.6047 24.5147 22.6681 26.1848 21.9578C27.8549 21.2475 29.7915 22.0283 30.5018 23.6984L31.5881 26.2525L25.5305 28.8289ZM27.4704 23.0597C27.2192 23.0597 26.9642 23.109 26.7188 23.2134C26.2451 23.4148 25.8783 23.7887 25.6858 24.2661C25.4934 24.7434 25.4983 25.2672 25.6997 25.7408L26.2521 27.0394L29.7985 25.5311L29.2462 24.2326C28.9347 23.5 28.2202 23.0597 27.4704 23.0597Z" fill="#124933"/>
<path d="M27.2783 34.5088C26.8063 34.5088 26.382 34.2282 26.1974 33.794L24.1386 28.9534C23.8852 28.3577 24.1637 27.6669 24.7595 27.4135L31.1024 24.7157C31.2489 24.6534 31.4034 24.6218 31.5615 24.6218C32.0334 24.6218 32.4577 24.9024 32.6424 25.3366L34.7011 30.1772C34.8239 30.4658 34.8269 30.7849 34.7096 31.0758C34.5924 31.3667 34.3688 31.5944 34.0802 31.7172L27.7373 34.4149C27.5907 34.4772 27.4362 34.5088 27.2783 34.5088Z" fill="url(#paint1_linear_26736_242352)"/>
<path d="M31.5615 24.7468C31.9695 24.7467 32.3575 24.9863 32.5273 25.3855L34.5861 30.226C34.8128 30.7592 34.5645 31.3752 34.0313 31.6019L27.6884 34.2997C27.5544 34.3566 27.4152 34.3836 27.2782 34.3836C26.8702 34.3836 26.4822 34.1441 26.3124 33.7449L24.2536 28.9043C24.0269 28.3712 24.2753 27.7552 24.8084 27.5284L31.1513 24.8307C31.2853 24.7738 31.4245 24.7468 31.5615 24.7468ZM31.5615 24.4967C31.3866 24.4967 31.2156 24.5317 31.0535 24.6006L24.7106 27.2984C24.0514 27.5787 23.7432 28.3431 24.0236 29.0023L26.0823 33.8429C26.2867 34.3234 26.7561 34.6339 27.2783 34.6339C27.4533 34.6339 27.6242 34.5989 27.7863 34.53L34.1293 31.8322C34.7885 31.5518 35.0967 30.7874 34.8163 30.1282L32.7575 25.2876C32.5531 24.8072 32.0836 24.4967 31.5615 24.4967Z" fill="#5A2903"/>
<path d="M33.5738 31.1926L27.71 33.6865C27.2171 33.8962 26.6476 33.6665 26.438 33.1737L24.5347 28.6986C24.325 28.2058 24.5547 27.6363 25.0475 27.4267L30.9114 24.9327C31.4042 24.723 31.9737 24.9527 32.1834 25.4455L34.0867 29.9206C34.2964 30.4134 34.0668 30.983 33.5738 31.1926Z" fill="url(#paint2_linear_26736_242352)"/>
<path d="M29.2513 28.3075L28.6309 28.5714L29.4293 30.4486L30.0497 30.1847L29.2513 28.3075Z" fill="#124933"/>
<defs>
<radialGradient id="paint0_radial_26736_242352" cx="0" cy="0" r="1" gradientUnits="userSpaceOnUse" gradientTransform="translate(17.9984 18.4533) scale(15.0724 15.0724)">
<stop stop-color="#C4D8E6"/>
<stop offset="1" stop-color="#B7CEDE"/>
</radialGradient>
<linearGradient id="paint1_linear_26736_242352" x1="27.1815" y1="25.6065" x2="30.8125" y2="32.0287" gradientUnits="userSpaceOnUse">
<stop stop-color="#318063"/>
<stop offset="0.354" stop-color="#23674D"/>
<stop offset="0.7462" stop-color="#16513A"/>
<stop offset="1" stop-color="#124933"/>
</linearGradient>
<linearGradient id="paint2_linear_26736_242352" x1="30.4548" y1="30.4454" x2="24.654" y2="24.6867" gradientUnits="userSpaceOnUse">
<stop offset="2.7e-07" stop-color="#95D543"/>
<stop offset="0.0319" stop-color="#98D748"/>
<stop offset="0.349" stop-color="#B8E879"/>
<stop offset="0.6275" stop-color="#D0F59D"/>
<stop offset="0.8539" stop-color="#DEFCB3"/>
<stop offset="1" stop-color="#E3FFBB"/>
</linearGradient>
</defs>
</svg>
