<svg width="115" height="80" viewBox="0 0 115 80" fill="none" xmlns="http://www.w3.org/2000/svg">
<path d="M45.5708 30.9337C45.6165 30.9337 45.6626 30.9208 45.7037 30.8939C45.8159 30.8204 45.8472 30.6698 45.7737 30.5577C45.3992 29.9862 45.041 29.3917 44.709 28.7908C44.6441 28.6733 44.4963 28.6308 44.379 28.6956C44.2616 28.7604 44.219 28.9082 44.2839 29.0256C44.6217 29.6372 44.9863 30.2422 45.3675 30.8239C45.4141 30.895 45.4917 30.9337 45.5708 30.9337ZM43.2781 26.6586C43.31 26.6586 43.3425 26.6522 43.3736 26.6388C43.4969 26.586 43.554 26.4432 43.5012 26.3199C43.2314 25.6904 42.9819 25.0427 42.7596 24.3947C42.7161 24.2678 42.5779 24.2003 42.4511 24.2438C42.3243 24.2873 42.2567 24.4254 42.3002 24.5523C42.5263 25.2117 42.7802 25.8707 43.0548 26.5113C43.0942 26.6034 43.1839 26.6586 43.2781 26.6586ZM41.7616 22.0504C41.78 22.0504 41.7986 22.0484 41.8173 22.044C41.9479 22.0133 42.0289 21.8826 41.9982 21.752C41.8817 21.2554 41.7779 20.7497 41.6897 20.249C41.6798 20.1926 41.6704 20.138 41.6616 20.0851C41.9884 20.1551 42.3068 20.1904 42.6147 20.1904L42.6268 20.1903C42.7609 20.1897 42.8691 20.0805 42.8685 19.9463C42.8679 19.8126 42.7593 19.7046 42.6257 19.7046C42.6253 19.7046 42.6249 19.7046 42.6245 19.7046L42.6146 19.7046C42.0223 19.7046 41.3803 19.5567 40.7066 19.2649C40.5833 19.2115 40.4405 19.2682 40.3872 19.3912C40.3339 19.5143 40.3905 19.6573 40.5135 19.7106C40.7275 19.8032 40.9391 19.8826 41.1478 19.9485C41.1661 20.0684 41.1871 20.1954 41.2113 20.3331C41.3011 20.8428 41.4067 21.3575 41.5253 21.863C41.5516 21.9749 41.6514 22.0504 41.7616 22.0504ZM45.0189 19.0139C45.0957 19.0139 45.1712 18.9775 45.2184 18.9097C45.4824 18.5307 45.6393 18.1029 45.6723 17.6726C45.6763 17.62 45.6784 17.5663 45.6784 17.513C45.6784 17.2411 45.6271 16.9698 45.5261 16.7068C45.478 16.5816 45.3377 16.519 45.2123 16.5671C45.0871 16.6152 45.0246 16.7557 45.0727 16.8809C45.1523 17.0882 45.1926 17.3009 45.1926 17.513C45.1926 17.5541 45.1911 17.5953 45.188 17.6356C45.1616 17.9795 45.0343 18.3242 44.8198 18.6322C44.7431 18.7423 44.7702 18.8937 44.8803 18.9703C44.9226 18.9997 44.971 19.0139 45.0189 19.0139ZM38.2888 18.2286C38.356 18.2286 38.423 18.2008 38.4709 18.1464C38.5597 18.0459 38.5501 17.8924 38.4496 17.8036C37.9429 17.3564 37.4834 16.8531 37.084 16.3078C37.0047 16.1996 36.8528 16.1761 36.7446 16.2553C36.6363 16.3346 36.6128 16.4866 36.6921 16.5948C37.1121 17.1683 37.5953 17.6975 38.1282 18.1678C38.1744 18.2086 38.2317 18.2286 38.2888 18.2286ZM41.5884 17.2777C41.6807 17.2777 41.7688 17.2249 41.8096 17.1355C42.0777 16.5471 42.5905 16.0684 43.1478 15.8864C43.2753 15.8447 43.3449 15.7076 43.3033 15.5801C43.2616 15.4526 43.1245 15.383 42.997 15.4247C42.3146 15.6476 41.6903 16.2259 41.3676 16.9341C41.312 17.0561 41.3658 17.2002 41.4879 17.2558C41.5205 17.2707 41.5548 17.2777 41.5884 17.2777Z" fill="#4ADAB3"/>
<path d="M18.2153 14.2213C18.2921 14.5395 18.5319 14.8097 18.8679 14.9088L30.1806 18.2451C30.4129 18.3136 30.6598 18.2911 30.8758 18.1818L35.8936 15.6427C36.1289 15.5236 36.2995 15.3187 36.3741 15.0658C36.4487 14.8129 36.4165 14.5482 36.2835 14.3205L33.4465 9.46491C33.3244 9.25585 33.1292 9.10298 32.897 9.03449L21.5843 5.69819C21.0836 5.55053 20.5562 5.8377 20.4085 6.33837L18.2277 13.733C18.1791 13.8977 18.1776 14.0653 18.2153 14.2213Z" fill="#00BA88"/>
<path d="M34.7419 8.03369L36.4103 14.5756C36.5426 15.0944 36.1739 15.6367 35.6427 15.7043L28.9457 16.558C28.7478 16.5832 28.5517 16.5372 28.3911 16.428L17.8025 9.22812C17.4222 8.96955 17.3373 8.43159 17.6127 8.02653L22.6414 0.631061C22.9168 0.226006 23.4483 0.10723 23.8286 0.3658L34.4172 7.56567C34.5778 7.67486 34.6927 7.84041 34.7419 8.03369ZM32.685 12.8678C32.4099 13.2724 32.5149 13.8234 32.9195 14.0985C33.324 14.3736 33.875 14.2686 34.1501 13.864C34.4252 13.4594 34.3202 12.9085 33.9157 12.6334C33.5111 12.3583 32.9601 12.4632 32.685 12.8678Z" fill="#4ADAB3"/>
<path d="M28.4543 9.42965C28.6418 9.42965 28.8291 9.39124 29.0064 9.31456C29.3475 9.16699 29.6108 8.89542 29.7477 8.54985C29.8846 8.20428 29.8787 7.82607 29.7312 7.48491C29.5836 7.14377 29.3121 6.88049 28.9665 6.74359C28.6209 6.6067 28.2427 6.61255 27.9016 6.76012C27.5604 6.90767 27.2972 7.17923 27.1602 7.52483C27.0234 7.8704 27.0292 8.24858 27.1768 8.58974C27.3243 8.93088 27.5959 9.19416 27.9414 9.33106C28.1074 9.39682 28.281 9.42965 28.4543 9.42965ZM28.4538 7.16574C28.5623 7.16574 28.6709 7.18628 28.7748 7.22742C28.9912 7.31314 29.1611 7.47794 29.2535 7.69149C29.3459 7.90507 29.3496 8.14182 29.2639 8.35813C29.1782 8.57447 29.0134 8.74448 28.7998 8.83686C28.5862 8.92924 28.3494 8.93289 28.1331 8.8472C27.9168 8.76151 27.7468 8.59671 27.6545 8.38313C27.5621 8.16955 27.5584 7.93281 27.6441 7.71647C27.7298 7.50016 27.8946 7.33014 28.1082 7.23777C28.2192 7.18979 28.3364 7.16574 28.4538 7.16574Z" fill="white"/>
<path d="M27.8316 11.6663C27.866 11.6663 27.9011 11.6594 27.9348 11.6449C28.0667 11.5878 28.1273 11.4347 28.0703 11.3028L25.8106 6.07813C25.7536 5.94622 25.6005 5.88554 25.4685 5.9426C25.3366 5.99966 25.2759 6.1528 25.333 6.28471L27.5926 11.5093C27.6351 11.6076 27.731 11.6663 27.8316 11.6663Z" fill="white"/>
<path d="M24.9486 10.9494C25.1361 10.9494 25.3234 10.911 25.5007 10.8343C26.2049 10.5297 26.53 9.70892 26.2255 9.00465C25.9208 8.30038 25.1002 7.97527 24.3959 8.27984C24.0547 8.42738 23.7914 8.69895 23.6545 9.04454C23.5177 9.39011 23.5235 9.7683 23.6711 10.1095C23.8186 10.4506 24.0902 10.7139 24.4357 10.8508C24.6017 10.9165 24.7753 10.9494 24.9486 10.9494ZM24.9471 8.68596C25.2842 8.68596 25.6057 8.88267 25.7478 9.21126C25.9385 9.65214 25.735 10.1659 25.2941 10.3566C25.0805 10.449 24.8437 10.4527 24.6274 10.367C24.4111 10.2813 24.2411 10.1165 24.1487 9.9029C24.0564 9.68932 24.0527 9.45258 24.1384 9.23624C24.2241 9.01993 24.3889 8.84992 24.6025 8.75754C24.7148 8.70892 24.8319 8.68596 24.9471 8.68596Z" fill="white"/>
<path d="M42.8515 32.6082C43.1424 33.4737 43.7354 34.3001 44.866 34.9938C45.2359 35.2207 45.5986 35.4073 45.9476 35.5609C46.1814 35.664 46.4091 35.752 46.6281 35.8275L46.6288 35.8273C46.8934 35.9185 47.1459 35.9909 47.3823 36.0485C47.8016 36.1507 48.1705 36.2061 48.4683 36.2353C48.9675 36.2844 49.2664 36.2604 49.2664 36.2604L54.8414 34.5277L55.6183 34.2862C55.591 34.1816 55.5518 34.042 55.498 33.8739C55.3698 33.4729 55.159 32.9088 54.8309 32.2681C54.0066 30.6579 52.4413 28.5647 49.5841 27.3627C44.48 25.2157 42.7883 28.4359 42.6454 30.0446C42.5983 30.576 42.5792 31.1282 42.6456 31.6779C42.6831 31.9903 42.7484 32.3016 42.8515 32.6082Z" fill="#00BA88"/>
<path d="M42.8528 32.6071C43.1437 33.4725 43.7366 34.2991 44.8674 34.9928C45.2371 35.2196 45.6 35.4061 45.9489 35.5598C45.9491 35.5597 45.9493 35.5597 45.9493 35.5597C44.7558 32.1041 48.7817 31.7637 48.7817 31.7637L45.8255 29.8109C45.8255 29.8109 42.5845 29.5862 42.8528 32.6071Z" fill="#4ADAB3"/>
<path d="M55.9446 34.2321C55.9498 34.2514 55.9551 34.2692 55.9597 34.2857L62.4252 32.7392C62.4252 32.7392 62.7013 32.6084 63.1153 32.3107C63.3588 32.1358 63.6497 31.9035 63.9604 31.6064C64.498 31.0923 65.0942 30.3842 65.6048 29.4443C66.8571 27.1388 66.028 25.4326 65.0571 24.0475C64.1301 22.725 61.0562 20.78 57.7063 25.1895C55.8057 27.6914 55.5125 30.3236 55.6145 32.1332C55.653 32.819 55.7482 33.3863 55.8345 33.7837C55.8756 33.9743 55.9148 34.1256 55.9446 34.2321Z" fill="#00BA88"/>
<path d="M66.1662 26.3714C66.3465 27.2664 66.2455 28.2786 65.6123 29.4444C65.4053 29.8255 65.1841 30.1684 64.9586 30.4757C64.9584 30.4758 64.9582 30.4758 64.9582 30.4758C64.2664 26.886 60.6085 28.6017 60.6085 28.6017L62.1944 25.4334C62.1944 25.4334 64.8901 23.6202 66.1662 26.3714Z" fill="#4ADAB3"/>
<path d="M56.8012 33.1054C56.8338 33.0695 61.0178 28.4559 61.7825 26.8231C62.4674 25.3612 62.4423 23.4721 60.7302 24.3043C60.7302 24.3043 60.7302 24.3043 60.7303 24.3045C60.5228 24.4053 60.2902 24.5462 60.0314 24.7327C58.2577 26.0106 57.3702 29.7299 57.0076 31.7544C56.8641 32.5552 56.8028 33.091 56.8012 33.1054Z" fill="#D8FEF6"/>
<path d="M54.3211 33.7699C54.3211 33.7699 50.388 28.4391 47.3409 28.1292C44.405 27.8305 45.3839 29.7781 46.8677 30.8148C48.3516 31.8515 54.3211 33.7699 54.3211 33.7699Z" fill="#D8FEF6"/>
<path d="M56.8012 33.1054C56.8338 33.0695 61.0178 28.4559 61.7825 26.8231C62.4674 25.3612 62.4423 23.4721 60.7302 24.3043C60.7302 24.3043 60.7302 24.3043 60.7303 24.3045C60.7316 24.3414 62.2233 26.8225 57.0076 31.7544C56.8641 32.5552 56.8028 33.091 56.8012 33.1054Z" fill="#D8FEF6"/>
<path d="M54.3211 33.7685C54.2749 33.7536 48.346 31.8461 46.868 30.8135C45.5446 29.8889 44.6228 28.2397 46.5217 28.1057C46.5217 28.1057 46.5217 28.1057 46.5218 28.1059C46.5391 28.1385 46.4858 31.033 53.4676 32.701C53.9918 33.3231 54.3126 33.7567 54.3211 33.7685Z" fill="#D8FEF6"/>
<path d="M54.0299 34.8036L57.5705 33.8561C57.5656 33.8379 57.5605 33.8197 57.5549 33.8019C57.5091 33.6487 57.4445 33.5056 57.3647 33.3749C56.9524 32.6986 56.1304 32.3445 55.3264 32.5595C54.5221 32.7748 53.9866 33.4929 53.9678 34.2851C53.964 34.4383 53.9795 34.5944 54.0165 34.75C54.0205 34.7679 54.0251 34.7858 54.0299 34.8036Z" fill="#D8FEF6"/>
<path d="M44.7907 39.5124L67.9412 33.3096L74.144 56.4601L50.9935 62.6629L44.7907 39.5124Z" fill="#4ADAB3"/>
<path d="M42.8635 37.6891L68.6933 30.7683L69.79 34.8615L43.9602 41.7822L42.8635 37.6891Z" fill="#4ADAB3"/>
<path d="M54.5651 34.5575L56.9966 33.906L63.7852 59.2427L61.3538 59.8942L54.5651 34.5575Z" fill="white"/>
<g opacity="0.4">
<path d="M45.3004 41.4184L68.4509 35.2156L68.9042 36.9072L45.7537 43.1101L45.3004 41.4184Z" fill="#00BA88"/>
</g>
<path d="M65.2531 41.8774L81.0665 37.6404L85.3035 53.4538L69.4901 57.6908L65.2531 41.8774Z" fill="#00BA88"/>
<path d="M63.9356 40.6295L81.5792 35.9021L82.3283 38.698L64.6848 43.4254L63.9356 40.6295Z" fill="#00BA88"/>
<path d="M71.9299 38.4897L73.5908 38.0447L78.2279 55.3514L76.567 55.7964L71.9299 38.4897Z" fill="white"/>
<g opacity="0.3">
<path d="M65.6015 43.1801L81.4149 38.9431L81.7609 40.2342L65.9475 44.4712L65.6015 43.1801Z" fill="#00BA88"/>
</g>
<path d="M19.8584 26.2791L28.7213 25.6254C28.7221 25.6254 28.7229 25.6254 28.7237 25.6254C28.7356 25.6246 28.7476 25.6245 28.7596 25.6245C28.7656 25.6245 28.7717 25.6241 28.7777 25.6243C28.7849 25.6246 28.792 25.6255 28.7991 25.626C28.8744 25.6315 28.9457 25.6526 29.0095 25.6866C29.0142 25.689 29.019 25.6911 29.0235 25.6937C29.0287 25.6967 29.0335 25.7002 29.0385 25.7032C29.0831 25.7306 29.124 25.7649 29.1596 25.8056C29.1662 25.8131 29.173 25.8205 29.1791 25.8284C29.1822 25.8323 29.1848 25.8365 29.1878 25.8405C29.1955 25.8509 29.2031 25.8614 29.21 25.8724C29.2104 25.8731 29.2109 25.8736 29.2113 25.8743L37.43 39.0596L84.9387 26.3297C85.099 26.2867 85.2701 26.3211 85.4014 26.4226C85.5327 26.5241 85.6089 26.6811 85.6077 26.8471L85.4006 54.1603C85.3988 54.4047 85.2322 54.6093 85.0071 54.6696C85.0054 54.6701 85.0037 54.6702 85.002 54.6706C85.0007 54.671 84.9995 54.6715 84.9982 54.6719L58.9189 61.6598L58.6319 61.7367L51.8853 63.5445C51.8847 63.5446 51.8841 63.5449 51.8834 63.5451C51.8823 63.5454 51.8811 63.5456 51.88 63.5459L48.9222 64.3384C47.5028 64.7187 46.5642 65.3731 46.1323 66.2835C45.7613 67.0656 45.738 68.0774 46.0631 69.2906C46.6401 71.4441 48.8616 72.7267 51.0152 72.1497L95.7444 60.1645C96.028 60.0885 96.3193 60.2567 96.3953 60.5402C96.4713 60.8238 96.3031 61.1152 96.0195 61.1911L51.2903 73.1763C48.5706 73.9051 45.7652 72.2853 45.0365 69.5657C44.6442 68.1019 44.6899 66.8444 45.1721 65.8279C45.7436 64.6231 46.9129 63.7765 48.6472 63.3118L50.9156 62.7039L36.7398 39.9616C36.7385 39.9595 36.7372 39.9574 36.7359 39.9553L28.4793 26.7091L19.9366 27.3392C19.644 27.3607 19.3891 27.141 19.3676 26.8483C19.3459 26.5554 19.5655 26.3008 19.8584 26.2791ZM47.7538 37.3937L50.199 42.6375L62.4882 39.3446L61.0134 33.8408L47.7538 37.3937ZM64.8264 46.1546L66.4287 52.1346L75.8593 49.6077L75.3114 43.3451L64.8264 46.1546ZM75.2675 42.8433L74.7196 36.5807L63.0957 39.6954L64.698 45.6754L75.2675 42.8433ZM64.3473 46.2829L53.2815 49.248L55.9383 54.9455L65.9496 52.263L64.3473 46.2829ZM64.2189 45.8038L62.6165 39.8238L50.4119 43.094L53.0687 48.7916L64.2189 45.8038ZM61.4925 33.7124L62.9673 39.2162L74.6757 36.079L74.1714 30.3151L61.4925 33.7124ZM84.5395 27.537L74.658 30.1848L75.1622 35.9486L84.4947 33.448L84.5395 27.537ZM84.4908 33.9625L75.2061 36.4504L75.7541 42.713L84.4421 40.385L84.4908 33.9625ZM84.4382 40.8996L75.7979 43.2147L76.3458 49.4773L84.3895 47.322L84.4382 40.8996ZM84.3408 53.7476L84.3856 47.8366L76.3898 49.9791L76.894 55.743L84.3408 53.7476ZM76.4075 55.8733L75.9032 50.1095L66.5571 52.6138L68.0319 58.1176L76.4075 55.8733ZM67.5528 58.246L66.078 52.7421L56.1512 55.402L58.5964 60.6458L67.5528 58.246ZM51.9888 62.4163L58.1099 60.7762L55.6646 55.5324L48.838 57.3616L51.9888 62.4163ZM48.5637 56.9216L55.4518 55.0759L52.7949 49.3784L45.1403 51.4294L48.5637 56.9216ZM44.8661 50.9894L52.5821 48.9219L49.9253 43.2243L41.4427 45.4972L44.8661 50.9894ZM41.1685 45.0572L49.7125 42.7679L47.2673 37.5241L38.0177 40.0025L41.1685 45.0572Z" fill="#00BA88"/>
<path d="M49.9641 73.4496C50.415 73.4496 50.8686 73.3904 51.3154 73.2707L96.0446 61.2855C96.3796 61.1957 96.5791 60.8502 96.4894 60.5151C96.3996 60.1801 96.0541 59.9806 95.719 60.0704L50.9898 72.0555C48.8883 72.6186 46.7203 71.367 46.1571 69.2655C45.8382 68.0751 45.8595 67.086 46.2203 66.3254C46.6393 65.4421 47.5568 64.8054 48.9473 64.4328L51.9029 63.6408C51.9047 63.6404 51.9063 63.6401 51.908 63.6396L51.9147 63.6377L85.0269 54.7653C85.0287 54.7649 85.0304 54.7645 85.0321 54.764C85.3044 54.6911 85.4959 54.4432 85.4981 54.1612L85.7051 26.8479C85.7066 26.6528 85.6153 26.465 85.461 26.3456C85.3065 26.2262 85.1018 26.1851 84.9133 26.2356L37.4744 38.9468L29.2921 25.8199L29.2909 25.8182C29.2831 25.8059 29.2747 25.7942 29.2661 25.7827L29.2642 25.78C29.2616 25.7762 29.2589 25.7723 29.2561 25.7687C29.2496 25.7605 29.2432 25.7531 29.2367 25.7458L29.2327 25.7414C29.1912 25.6939 29.143 25.6531 29.0895 25.6203L29.0858 25.6179C29.0812 25.6148 29.0765 25.6118 29.0716 25.6091C29.0671 25.6065 29.0628 25.6044 29.0585 25.6022L29.0552 25.6006C28.9779 25.5594 28.894 25.5352 28.8061 25.5288L28.8004 25.5283C28.7939 25.5277 28.7873 25.5272 28.7807 25.527C28.7752 25.5268 28.7696 25.5269 28.7639 25.527L28.7593 25.5271C28.7464 25.5271 28.7333 25.5272 28.7203 25.5279H28.7185L28.7128 25.5284L19.8511 26.1819C19.5053 26.2075 19.2446 26.5097 19.2701 26.8555C19.2824 27.0231 19.3593 27.1758 19.4865 27.2855C19.6138 27.3953 19.7762 27.4489 19.9436 27.4366L28.4274 26.8108L50.763 62.6439L48.6217 63.2176C46.8585 63.6901 45.6681 64.5543 45.0837 65.7862C44.5914 66.8243 44.5437 68.1044 44.9421 69.591C45.3013 70.9316 46.1627 72.053 47.3678 72.7488C48.1712 73.2126 49.0622 73.4496 49.9641 73.4496ZM95.8817 60.244C96.0733 60.244 96.249 60.372 96.3009 60.5657C96.3628 60.7968 96.2252 61.0351 95.9941 61.0971L51.2649 73.0822C49.9747 73.4279 48.6253 73.2495 47.4653 72.5798C46.3054 71.9101 45.4761 70.8308 45.1304 69.5406C44.7444 68.1 44.788 66.865 45.2599 65.8699C45.8187 64.692 46.9667 63.8631 48.6722 63.4062L51.0678 62.7642L50.9981 62.6525L28.5306 26.6076L19.9292 27.242C19.8137 27.2506 19.7016 27.2135 19.6139 27.1378C19.5261 27.0621 19.4731 26.9568 19.4646 26.8412C19.4471 26.6026 19.6268 26.3942 19.8654 26.3766L28.7254 25.7231L28.7302 25.7229C28.7399 25.7223 28.7497 25.7223 28.7595 25.7223L28.7743 25.7221C28.7771 25.7221 28.7797 25.7224 28.7824 25.7227L28.7918 25.7235C28.8525 25.7279 28.9102 25.7445 28.9635 25.7729C28.9664 25.7745 28.9693 25.7759 28.9722 25.7774L28.9786 25.781C28.9815 25.7829 28.9844 25.7848 28.9874 25.7866C29.0241 25.8092 29.0573 25.8372 29.086 25.87L29.0906 25.8753C29.0946 25.8798 29.0986 25.8842 29.1023 25.8889L29.1035 25.8908C29.1054 25.8935 29.1072 25.8961 29.1092 25.8987C29.1154 25.9072 29.1216 25.9156 29.1272 25.9245L29.1298 25.9286L37.3852 39.1728L37.455 39.1541L84.9638 26.4241C85.0938 26.3893 85.2351 26.4177 85.3416 26.5C85.448 26.5824 85.5109 26.7119 85.5099 26.8465L85.3029 54.1598C85.3014 54.3532 85.1708 54.5234 84.9848 54.5748C84.9821 54.5753 84.9796 54.5758 84.9771 54.5765L84.9701 54.5786L48.8967 64.2444C47.4484 64.6325 46.4886 65.3045 46.0439 66.2419C45.6627 67.0455 45.6373 68.0798 45.9686 69.316C46.4638 71.1639 48.1413 72.3856 49.9694 72.3857C50.3233 72.3857 50.6826 72.3399 51.0402 72.2441L95.7695 60.2588C95.8069 60.2488 95.8446 60.244 95.8817 60.244ZM51.944 62.5294L58.2472 60.8405L55.7183 55.4171L48.6854 57.3016L51.944 62.5294ZM57.9721 60.7122L52.0331 62.3036L48.9903 57.4219L55.6106 55.648L57.9721 60.7122ZM58.5424 60.7614L67.6721 58.3151L66.1468 52.6228L56.0135 55.338L58.5424 60.7614ZM67.4331 58.1772L58.6501 60.5306L56.2886 55.4663L66.0089 52.8618L67.4331 58.1772ZM67.9627 58.2373L76.5117 55.9466L75.9901 49.9853L66.4375 52.5449L67.9627 58.2373ZM76.303 55.8005L68.1007 57.9983L66.6765 52.6829L75.816 50.2339L76.303 55.8005ZM48.519 57.0347L55.5892 55.1402L52.8486 49.2631L44.9877 51.3694L48.519 57.0347ZM55.3141 55.0119L48.6082 56.8088L45.2927 51.4897L52.741 49.494L55.3141 55.0119ZM76.8068 55.8675L84.4377 53.8228L84.484 47.7094L76.2853 49.9062L76.8068 55.8675ZM84.2437 53.6728L76.9809 55.6188L76.4939 50.0523L84.2869 47.9642L84.2437 53.6728ZM55.8844 55.0611L66.069 52.3322L64.4161 46.1636L64.3219 46.1889L53.1438 49.184L55.8844 55.0611ZM65.83 52.1942L55.992 54.8303L53.4189 49.3123L64.2781 46.4026L65.83 52.1942ZM66.3596 52.2543L66.4538 52.229L75.9635 49.6809L75.3983 43.2209L64.7067 46.0857L66.3596 52.2543ZM75.7548 49.5349L66.4976 52.0153L64.9457 46.2237L75.2242 43.4696L75.7548 49.5349ZM44.8214 51.1025L52.7195 48.9862L49.979 43.1091L41.2901 45.4373L44.8214 51.1025ZM52.4444 48.8579L44.9105 50.8766L41.595 45.5576L49.8713 43.3399L52.4444 48.8579ZM76.2587 49.6018L84.4864 47.3972L84.5366 40.7723L75.6935 43.1418L76.2587 49.6018ZM84.2924 47.2472L76.4328 49.3532L75.9021 43.288L84.3396 41.0271L84.2924 47.2472ZM53.0147 48.9071L53.0938 48.8859L64.3382 45.873L62.6854 39.7044L50.2742 43.03L53.0147 48.9071ZM64.0992 45.735L53.1223 48.6763L50.5492 43.1583L62.5474 39.9434L64.0992 45.735ZM64.6289 45.7951L64.7231 45.7698L75.3717 42.9166L74.8065 36.4566L62.976 39.6265L64.6289 45.7951ZM75.163 42.7705L64.7668 45.5561L63.215 39.7645L74.6324 36.7052L75.163 42.7705ZM41.1237 45.1703L49.8498 42.8322L47.3209 37.4088L37.8651 39.9425L41.1237 45.1703ZM49.5747 42.7039L41.2129 44.9445L38.17 40.0628L47.2133 37.6397L49.5747 42.7039ZM75.6669 42.8375L84.539 40.4602L84.5892 33.8353L75.1017 36.3775L75.6669 42.8375ZM84.345 40.3102L75.841 42.5888L75.3103 36.5236L84.3921 34.0901L84.345 40.3102ZM50.145 42.7531L50.2241 42.7319L62.6075 39.4138L61.0822 33.7215L47.6161 37.3297L50.145 42.7531ZM62.3685 39.2758L50.2527 42.5222L47.8912 37.458L60.9443 33.9605L62.3685 39.2758ZM62.8981 39.3359L74.7799 36.1522L74.2583 30.191L74.146 30.2211L61.3729 33.6436L62.8981 39.3359ZM74.5712 36.0061L63.0361 39.0969L61.6119 33.7816L74.0842 30.4396L74.5712 36.0061ZM75.075 36.0731L84.5916 33.5231L84.6379 27.4097L74.5535 30.1119L75.075 36.0731ZM84.3976 33.3731L75.2492 35.8244L74.7622 30.258L84.4409 27.6646L84.3976 33.3731Z" fill="#00BA88"/>
<path d="M84.8458 65.3454C86.488 64.9054 88.182 65.8834 88.622 67.5256C89.0621 69.1678 88.084 70.8619 86.4418 71.3019C84.7996 71.7419 83.1056 70.7638 82.6656 69.1217C82.2255 67.4795 83.2036 65.7854 84.8458 65.3454ZM83.6922 68.8466C83.9805 69.9227 85.0906 70.5636 86.1667 70.2752C87.2428 69.9869 87.8837 68.8768 87.5954 67.8007C87.307 66.7246 86.197 66.0837 85.1209 66.3721C84.0448 66.6604 83.4039 67.7704 83.6922 68.8466Z" fill="#00BA88"/>
<path d="M85.6443 71.505C85.9161 71.505 86.1921 71.4699 86.4668 71.3963C88.161 70.9423 89.17 69.1947 88.716 67.5005C88.262 65.8064 86.5144 64.7974 84.8203 65.2513C84.0008 65.4709 83.3154 65.9975 82.8901 66.7341C82.4648 67.4707 82.3515 68.3277 82.571 69.1471C82.9514 70.5665 84.24 71.505 85.6443 71.505ZM85.6428 65.3377C86.9611 65.3377 88.1705 66.2186 88.5275 67.551C88.9536 69.1412 88.0065 70.7817 86.4163 71.2078C86.1585 71.2769 85.8992 71.3098 85.6442 71.3099C84.3259 71.3099 83.1165 70.429 82.7595 69.0966C82.5534 68.3275 82.6598 67.5231 83.0591 66.8316C83.4583 66.1401 84.1017 65.6459 84.8708 65.4398C85.1286 65.3707 85.3878 65.3377 85.6428 65.3377ZM85.6417 70.4424C85.8252 70.4424 86.0098 70.4183 86.1917 70.3696C86.7373 70.2234 87.1938 69.8728 87.4769 69.3823C87.7601 68.8918 87.8356 68.3212 87.6893 67.7756C87.3871 66.6475 86.2234 65.9758 85.0953 66.2779C83.9673 66.5802 83.2954 67.7439 83.5977 68.872C83.7439 69.4176 84.0945 69.874 84.585 70.1572C84.912 70.346 85.2746 70.4424 85.6417 70.4424ZM85.6431 66.4007C86.4921 66.4007 87.2709 66.968 87.5009 67.8261C87.6336 68.3214 87.5651 68.8394 87.308 69.2848C87.0508 69.7301 86.6365 70.0484 86.1412 70.1811C85.646 70.3138 85.1279 70.2454 84.6826 69.9882C84.2372 69.7311 83.9189 69.3168 83.7862 68.8215C83.5117 67.7974 84.1217 66.7409 85.1458 66.4665C85.3119 66.422 85.4788 66.4007 85.6431 66.4007Z" fill="#00BA88"/>
<path d="M58.6266 72.3693C60.2688 71.9293 61.9629 72.9074 62.4029 74.5496C62.8429 76.1917 61.8648 77.8858 60.2227 78.3258C58.5805 78.7658 56.8864 77.7877 56.4464 76.1456C56.0064 74.5034 56.9845 72.8094 58.6266 72.3693ZM57.4731 75.8705C57.7614 76.9466 58.8715 77.5875 59.9476 77.2992C61.0237 77.0108 61.6646 75.9008 61.3763 74.8247C61.0879 73.7485 59.9778 73.1077 58.9017 73.396C57.8256 73.6843 57.1847 74.7944 57.4731 75.8705Z" fill="#00BA88"/>
<path d="M59.4245 78.5289C59.6963 78.5289 59.9723 78.4938 60.247 78.4202C61.0664 78.2006 61.7519 77.674 62.1772 76.9374C62.6025 76.2008 62.7158 75.3438 62.4962 74.5245C62.0423 72.8303 60.2947 71.8213 58.6005 72.2753C56.9063 72.7292 55.8973 74.4768 56.3513 76.171C56.7316 77.5904 58.0202 78.5288 59.4245 78.5289ZM59.4231 72.3616C60.7413 72.3616 61.9507 73.2425 62.3078 74.5749C62.5138 75.344 62.4075 76.1483 62.0082 76.8398C61.609 77.5313 60.9656 78.0256 60.1965 78.2317C59.9387 78.3008 59.6795 78.3337 59.4244 78.3338C58.1062 78.3338 56.8968 77.4529 56.5398 76.1205C56.1137 74.5302 57.0608 72.8898 58.651 72.4637C58.9088 72.3946 59.168 72.3616 59.4231 72.3616ZM59.4242 77.4659C59.6052 77.4659 59.789 77.4425 59.9719 77.3935C61.1 77.0913 61.7718 75.9276 61.4696 74.7995C61.1673 73.6714 60.0037 72.9996 58.8755 73.3018C57.7475 73.6041 57.0757 74.7678 57.3779 75.8959C57.6312 76.841 58.4892 77.4659 59.4242 77.4659ZM59.4233 73.4246C60.2723 73.4246 61.0512 73.9919 61.2811 74.85C61.5555 75.8742 60.9456 76.9306 59.9214 77.205C58.8972 77.4794 57.8408 76.8695 57.5664 75.8454C57.292 74.8213 57.9019 73.7648 58.9261 73.4904C59.0921 73.4459 59.2591 73.4246 59.4233 73.4246Z" fill="#00BA88"/>
<path d="M59.1285 74.2525C59.734 74.0903 60.3586 74.4509 60.5208 75.0563C60.683 75.6617 60.3224 76.2863 59.717 76.4486C59.1115 76.6108 58.4869 76.2502 58.3247 75.6447C58.1625 75.0393 58.5231 74.4147 59.1285 74.2525ZM58.8038 75.5164C58.8953 75.8577 59.2473 76.0609 59.5886 75.9695C59.9299 75.878 60.1331 75.526 60.0417 75.1847C59.9502 74.8434 59.5982 74.6401 59.2569 74.7316C58.9156 74.823 58.7124 75.1751 58.8038 75.5164Z" fill="#00BA88"/>
<path d="M59.4228 76.5854C59.5283 76.5854 59.6353 76.5718 59.742 76.5432C60.3994 76.367 60.7909 75.6889 60.6148 75.0315C60.5296 74.7135 60.3253 74.4475 60.0394 74.2824C59.7536 74.1174 59.4211 74.0735 59.103 74.1587C58.4456 74.3348 58.0541 75.013 58.2302 75.6704C58.3778 76.2212 58.8779 76.5854 59.4228 76.5854ZM59.4232 74.3114C59.6034 74.3114 59.7813 74.3587 59.9418 74.4514C60.1825 74.5904 60.3546 74.8143 60.4263 75.082C60.5746 75.6354 60.2449 76.2064 59.6914 76.3547C59.138 76.503 58.567 76.1734 58.4187 75.6199C58.2704 75.0664 58.6 74.4954 59.1535 74.3471C59.2427 74.3232 59.3333 74.3114 59.4232 74.3114ZM59.4227 76.0893C59.4858 76.0893 59.5498 76.0812 59.6136 76.0641C59.8038 76.0132 59.963 75.8909 60.0617 75.72C60.1604 75.549 60.1867 75.3501 60.1357 75.1599C60.0303 74.7666 59.6246 74.5323 59.2314 74.6378C59.0412 74.6887 58.8821 74.811 58.7834 74.9819C58.6847 75.1529 58.6584 75.3519 58.7094 75.5421C58.7976 75.8715 59.0967 76.0893 59.4227 76.0893ZM59.4224 74.8077C59.6622 74.8077 59.8823 74.9679 59.9472 75.2104C59.9847 75.3502 59.9653 75.4966 59.8927 75.6224C59.82 75.7482 59.703 75.8381 59.5631 75.8756C59.2737 75.9533 58.9753 75.7808 58.8978 75.4915C58.8604 75.3516 58.8797 75.2053 58.9523 75.0795C59.025 74.9537 59.1421 74.8637 59.2819 74.8262C59.3288 74.8137 59.376 74.8077 59.4224 74.8077Z" fill="#00BA88"/>
<path d="M85.3485 67.2249C85.954 67.0627 86.5786 67.4233 86.7408 68.0287C86.903 68.6342 86.5424 69.2588 85.9369 69.421C85.3315 69.5832 84.7069 69.2226 84.5447 68.6172C84.3825 68.0117 84.7431 67.3871 85.3485 67.2249ZM85.0238 68.4888C85.1153 68.8301 85.4673 69.0333 85.8086 68.9419C86.1499 68.8504 86.3531 68.4984 86.2617 68.1571C86.1702 67.8158 85.8182 67.6126 85.4769 67.704C85.1356 67.7954 84.9324 68.1475 85.0238 68.4888Z" fill="#00BA88"/>
<path d="M85.6428 69.5576C85.7482 69.5576 85.8553 69.544 85.9619 69.5154C86.6193 69.3392 87.0109 68.6611 86.8348 68.0036C86.6586 67.3462 85.9805 66.9547 85.323 67.1308C85.005 67.216 84.739 67.4203 84.574 67.7062C84.4089 67.992 84.365 68.3246 84.4502 68.6426C84.5978 69.1934 85.0978 69.5576 85.6428 69.5576ZM85.6422 67.2838C86.101 67.2838 86.522 67.5904 86.6463 68.0542C86.7946 68.6076 86.4649 69.1786 85.9114 69.3269C85.3579 69.4752 84.787 69.1456 84.6387 68.5921C84.5669 68.3244 84.604 68.0445 84.7429 67.8038C84.8819 67.5631 85.1059 67.391 85.3735 67.3193C85.4632 67.2953 85.5534 67.2838 85.6422 67.2838ZM85.6417 69.0617C85.7057 69.0617 85.7701 69.0533 85.8335 69.0363C86.0238 68.9853 86.1829 68.8631 86.2816 68.6921C86.3803 68.5212 86.4066 68.3222 86.3556 68.132C86.2502 67.7388 85.8447 67.5044 85.4513 67.6099C85.0581 67.7153 84.8239 68.121 84.9293 68.5142C84.9803 68.7044 85.1025 68.8635 85.2734 68.9622C85.3874 69.0281 85.5138 69.0617 85.6417 69.0617ZM85.6423 67.7799C85.8822 67.7799 86.1022 67.9401 86.1671 68.1825C86.2046 68.3224 86.1853 68.4688 86.1126 68.5946C86.04 68.7204 85.9229 68.8103 85.7831 68.8478C85.6431 68.8853 85.4968 68.8659 85.371 68.7933C85.2452 68.7206 85.1552 68.6036 85.1178 68.4637C85.0403 68.1744 85.2126 67.8759 85.5019 67.7984C85.5488 67.7859 85.5959 67.7799 85.6423 67.7799Z" fill="#00BA88"/>
<path d="M88.4987 52.2954C88.4776 52.3011 88.4553 52.304 88.4323 52.3038C88.2953 52.3027 88.1853 52.1908 88.1864 52.0538L88.2782 40.8688C88.2793 40.7319 88.3909 40.6214 88.5282 40.6228C88.6652 40.6239 88.7753 40.7358 88.7742 40.8728L88.6823 52.0579C88.6815 52.1719 88.6037 52.2673 88.4987 52.2954Z" fill="#00BA88"/>
<path d="M88.4345 52.4015C88.4646 52.4015 88.4946 52.3976 88.5237 52.3898C88.6732 52.3497 88.7784 52.2137 88.7797 52.0588L88.8715 40.8738C88.873 40.6832 88.7193 40.527 88.5288 40.5254C88.4364 40.5249 88.3496 40.5596 88.2838 40.6242C88.2178 40.689 88.1811 40.7756 88.1804 40.8681L88.0886 52.0531C88.087 52.2437 88.2407 52.3999 88.4313 52.4015C88.4323 52.4015 88.4334 52.4015 88.4345 52.4015ZM88.5254 40.7205C88.5259 40.7205 88.5264 40.7205 88.5269 40.7205C88.6101 40.7212 88.677 40.7892 88.6763 40.8722L88.5845 52.0572C88.584 52.1246 88.5382 52.1839 88.4732 52.2013H88.4732C88.4601 52.2048 88.4467 52.2063 88.433 52.2064C88.3499 52.2057 88.283 52.1377 88.2837 52.0547L88.3755 40.8697C88.3758 40.8293 88.3918 40.7916 88.4205 40.7634C88.4487 40.7357 88.4859 40.7205 88.5254 40.7205Z" fill="#00BA88"/>
<path d="M91.4671 41.109C91.446 41.1146 91.4238 41.1176 91.4008 41.1174C91.2638 41.1163 91.1537 41.0043 91.1548 40.8674L91.2071 34.5043C91.2081 34.3673 91.3199 34.257 91.4571 34.2583C91.5941 34.2594 91.7042 34.3713 91.703 34.5083L91.6508 40.8714C91.6499 40.9854 91.5722 41.0808 91.4671 41.109Z" fill="#00BA88"/>
<path d="M91.403 41.2152C91.433 41.2152 91.4631 41.2112 91.4922 41.2034C91.6416 41.1634 91.7469 41.0273 91.7481 40.8724L91.8003 34.5093C91.8011 34.417 91.7659 34.3299 91.7012 34.2641C91.6364 34.1983 91.55 34.1617 91.4576 34.1609C91.3662 34.1597 91.2783 34.1952 91.2125 34.2599C91.1466 34.3247 91.11 34.4113 91.1093 34.5037L91.0571 40.8668C91.0563 40.9591 91.0915 41.0462 91.1562 41.1119C91.221 41.1778 91.3075 41.2144 91.3998 41.2152C91.4008 41.2152 91.4019 41.2152 91.403 41.2152ZM91.4545 34.356C91.455 34.356 91.4554 34.356 91.4559 34.356C91.4962 34.3564 91.5339 34.3723 91.562 34.401C91.5902 34.4296 91.6055 34.4675 91.6052 34.5077L91.5529 40.8708C91.5524 40.9382 91.5066 40.9975 91.4416 41.0149C91.4285 41.0184 91.4151 41.0201 91.4014 41.02C91.3611 41.0196 91.3235 41.0037 91.2953 40.9751C91.2671 40.9464 91.2518 40.9085 91.2521 40.8683L91.3044 34.5052C91.3047 34.4649 91.3206 34.4272 91.3493 34.3991C91.3775 34.3713 91.4149 34.356 91.4545 34.356Z" fill="#00BA88"/>
<path d="M91.3915 42.1323C91.5285 42.1335 91.6386 42.2454 91.6374 42.3824L91.6103 45.6951C91.6093 45.8091 91.5316 45.9045 91.4266 45.9326C91.4055 45.9383 91.3832 45.9412 91.3602 45.941C91.2233 45.9399 91.1132 45.828 91.1143 45.691L91.1415 42.3783C91.1426 42.2414 91.2544 42.1311 91.3915 42.1323Z" fill="#00BA88"/>
<path d="M91.3624 46.0387C91.3925 46.0387 91.4225 46.0348 91.4516 46.027C91.6011 45.987 91.7064 45.8508 91.7076 45.696L91.7348 42.3833C91.7355 42.291 91.7003 42.2039 91.6356 42.1381C91.5709 42.0724 91.4844 42.0357 91.3921 42.0349C91.3002 42.0345 91.2126 42.0693 91.1468 42.1341C91.0811 42.1988 91.0445 42.2853 91.0437 42.3776L91.0165 45.6903C91.0157 45.7827 91.051 45.8697 91.1157 45.9355C91.1804 46.0013 91.2669 46.0379 91.3592 46.0387C91.3603 46.0387 91.3613 46.0387 91.3624 46.0387ZM91.3904 42.2301C91.4306 42.2304 91.4683 42.2463 91.4965 42.275C91.5246 42.3036 91.54 42.3415 91.5396 42.3817L91.5124 45.6944C91.5119 45.7619 91.4661 45.8211 91.4011 45.8385C91.388 45.842 91.3745 45.8436 91.3609 45.8436C91.3205 45.8433 91.2829 45.8273 91.2547 45.7987C91.2266 45.7701 91.2112 45.7322 91.2116 45.692L91.2388 42.3793C91.2391 42.3391 91.2551 42.3014 91.2837 42.2732C91.3123 42.2451 91.3496 42.229 91.3903 42.2301L91.3904 42.2301Z" fill="#00BA88"/>
<path d="M4.04616 78.6339H19.9636L18.5176 61.6956H5.49214L4.04616 78.6339Z" fill="#4ADAB3"/>
<path d="M8.01901 60.7145C8.46329 58.9287 10.0805 57.6016 12.0021 57.6016C13.9237 57.6016 15.541 58.9287 15.9852 60.7145C16.0646 61.0321 16.1065 61.3644 16.1065 61.7059H15.0722C15.0722 61.3592 15.0145 61.0256 14.9077 60.7145C14.4947 59.5069 13.3481 58.6359 12.0022 58.6359C10.6559 58.6359 9.50958 59.5069 9.09661 60.7145C8.98979 61.0256 8.93215 61.3592 8.93215 61.7059H7.89778C7.89773 61.3644 7.93963 61.0321 8.01901 60.7145Z" fill="#4ADAB3"/>
<g opacity="0.4">
<path d="M5.21765 64.9177C5.21765 64.9177 7.97769 74.9678 19.6129 74.5321L19.9636 78.6406H4.04619L5.21765 64.9177Z" fill="#00BA88"/>
</g>
<g opacity="0.4">
<path d="M14.9077 60.7073C15.0145 61.0184 15.0722 61.3519 15.0722 61.6987H16.1065C16.1065 61.3571 16.0646 61.0248 15.9852 60.7073H14.9077Z" fill="#00BA88"/>
</g>
<g opacity="0.4">
<path d="M7.90142 61.6987H8.93579C8.93579 61.3519 8.99346 61.0184 9.10025 60.7073H8.02268C7.94332 61.0248 7.90142 61.3571 7.90142 61.6987Z" fill="#00BA88"/>
</g>
<path d="M30.8901 55.7199H29.5722C29.5722 55.2781 29.4987 54.853 29.3626 54.4567C28.8364 52.9179 27.3758 51.8082 25.6604 51.8082C23.9454 51.8082 22.4845 52.9179 21.9583 54.4567C21.8222 54.853 21.7487 55.2781 21.7487 55.7199H20.4307C20.4307 55.2846 20.4841 54.8613 20.5853 54.4567C21.1513 52.1812 23.2119 50.4902 25.6604 50.4902C28.1088 50.4902 30.1695 52.1812 30.7355 54.4567C30.8368 54.8613 30.8901 55.2847 30.8901 55.7199Z" fill="#00BA88"/>
<g opacity="0.2">
<path d="M21.9608 54.4558C21.8247 54.8522 21.7512 55.2772 21.7512 55.7191H20.4333C20.4333 55.2838 20.4866 54.8604 20.5878 54.4558H21.9608Z" fill="#00BA88"/>
</g>
<g opacity="0.2">
<path d="M30.8901 55.7191H29.5722C29.5722 55.2772 29.4987 54.8522 29.3626 54.4558H30.7356C30.8368 54.8604 30.8901 55.2838 30.8901 55.7191Z" fill="#00BA88"/>
</g>
<path d="M16.6944 55.7234H34.6343V78.638H16.6944V55.7234Z" fill="#00BA88"/>
<path d="M20.6373 55.7234H38.5771V78.6382H20.6373V55.7234Z" fill="#4ADAB3"/>
<path opacity="0.4" d="M20.6365 78.6361H16.6929L18.6647 76.5952L20.6365 78.6361Z" fill="#00BA88"/>
<path d="M25.811 60.4847V65.1198H22.3589V60.4847C22.3589 60.4379 22.3775 60.393 22.4106 60.3599L23.96 58.8097C23.9615 58.8083 23.9631 58.8074 23.9646 58.806V55.7188H24.2053V58.806C24.2068 58.8074 24.2085 58.8083 24.2099 58.8097L25.7593 60.3599C25.7924 60.393 25.811 60.4379 25.811 60.4847ZM24.0378 59.3549C23.9431 59.3729 23.8666 59.4493 23.8487 59.5441C23.8165 59.7137 23.9625 59.8597 24.1321 59.8275C24.2269 59.8096 24.3033 59.7331 24.3213 59.6383C24.3534 59.4688 24.2075 59.3228 24.0378 59.3549Z" fill="white"/>
<path d="M24.734 61.4883C24.9867 61.4883 25.2054 61.6331 25.3122 61.8441V61.8441C25.3246 61.8687 25.3355 61.8941 25.3448 61.9203C25.6651 62.7969 24.0862 63.7813 24.0862 63.7813V62.1361C24.0862 61.7783 24.3762 61.4883 24.734 61.4883Z" fill="#4ADAB3"/>
<path d="M23.438 61.4883C23.1853 61.4883 22.9666 61.6331 22.8598 61.8441V61.8441C22.8474 61.8687 22.8365 61.8941 22.8272 61.9203C22.5069 62.7969 24.0858 63.7813 24.0858 63.7813V62.1361C24.0858 61.7783 23.7958 61.4883 23.438 61.4883Z" fill="#00BA88"/>
<path opacity="0.2" d="M18.6647 55.7234H20.6365V78.6382H18.6647V55.7234Z" fill="#00BA88"/>
<path d="M34.8405 55.7194H33.5225C33.5225 55.2776 33.449 54.8525 33.3129 54.4562C32.7867 52.9175 31.3261 51.8077 29.6108 51.8077C27.8958 51.8077 26.4348 52.9174 25.9086 54.4562C25.7725 54.8525 25.699 55.2776 25.699 55.7194H24.3811C24.3811 55.2841 24.4345 54.8608 24.5356 54.4562C25.1017 52.1807 27.1623 50.4897 29.6108 50.4897C32.0592 50.4897 34.1198 52.1807 34.6859 54.4562C34.7871 54.8608 34.8405 55.2842 34.8405 55.7194Z" fill="#4ADAB3"/>
<g opacity="0.4">
<path d="M25.9057 54.4553C25.7696 54.8517 25.6961 55.2767 25.6961 55.7186H24.3781C24.3781 55.2833 24.4315 54.8599 24.5327 54.4553H25.9057Z" fill="#00BA88"/>
</g>
<g opacity="0.4">
<path d="M34.8405 55.7186H33.5225C33.5225 55.2767 33.449 54.8517 33.3129 54.4553H34.6859C34.7871 54.8599 34.8405 55.2833 34.8405 55.7186Z" fill="#00BA88"/>
</g>
<path opacity="0.4" d="M20.6382 58.1267C20.6382 58.1267 20.6988 78.6378 36.8739 78.6378L20.6382 78.638V58.1267Z" fill="#00BA88"/>
<path d="M106.141 55.8527L104.874 56.5459L106.141 57.239L106.834 58.5065L107.527 57.239L108.795 56.5459L107.527 55.8527L106.834 54.5852L106.141 55.8527Z" fill="#BAD7F1"/>
<path d="M109.996 60.3156L109.362 60.6622L109.996 61.0088L110.342 61.6425L110.689 61.0088L111.323 60.6622L110.689 60.3156L110.342 59.6819L109.996 60.3156Z" fill="#BAD7F1"/>
<path d="M12.0495 21.8263L10.6885 22.5707L12.0495 23.315L12.7939 24.676L13.5382 23.315L14.8992 22.5707L13.5382 21.8263L12.7939 20.4653L12.0495 21.8263Z" fill="#BAD7F1"/>
<path d="M105.152 78.6338H47.0391C46.7296 78.6338 46.4786 78.8884 46.4786 79.2025C46.4786 79.5166 46.7296 79.7712 47.0391 79.7712H105.132C105.43 79.7712 105.691 79.5435 105.711 79.2417C105.722 79.0695 105.658 78.912 105.548 78.8002C105.447 78.6974 105.306 78.6338 105.152 78.6338Z" fill="#00BA88"/>
<path d="M1.14441e-05 79.2028C1.14441e-05 79.3597 0.0636864 79.5015 0.166405 79.6048C0.269684 79.7076 0.41151 79.7712 0.56842 79.7712H42.655C42.9691 79.7712 43.2237 79.5166 43.2237 79.2025C43.2237 78.8884 42.9691 78.6338 42.655 78.6338H0.56842C0.254658 78.6338 1.14441e-05 78.8884 1.14441e-05 79.2028Z" fill="#00BA88"/>
<path d="M108.905 79.7709H114.431C114.745 79.7709 115 79.5163 115 79.2023C115 78.8883 114.745 78.6338 114.431 78.6338H108.905C108.591 78.6338 108.336 78.8883 108.336 79.2023C108.336 79.5163 108.591 79.7709 108.905 79.7709Z" fill="#00BA88"/>
<path d="M87.267 19.004V15.5708C87.267 15.3097 87.4786 15.0981 87.7396 15.0981C88.0007 15.0981 88.2122 15.3097 88.2122 15.5708V19.004C88.2122 19.265 88.0007 19.4766 87.7396 19.4766C87.4786 19.4766 87.267 19.265 87.267 19.004Z" fill="#00BA88"/>
<path d="M91.6259 23.3584C91.6259 23.0973 91.8375 22.8857 92.0985 22.8857H95.5318C95.7928 22.8857 96.0044 23.0973 96.0044 23.3584C96.0044 23.6194 95.7928 23.831 95.5318 23.831H92.0985C91.8374 23.831 91.6259 23.6194 91.6259 23.3584Z" fill="#00BA88"/>
<path d="M90.4187 20.2112C90.4187 20.0903 90.4648 19.9693 90.5571 19.877L92.9156 17.5185C93.1002 17.334 93.3994 17.334 93.584 17.5185C93.7686 17.7031 93.7686 18.0023 93.584 18.1869L91.2255 20.5454C91.041 20.7299 90.7417 20.7299 90.5571 20.5454C90.4648 20.4531 90.4187 20.3322 90.4187 20.2112Z" fill="#00BA88"/>
</svg>
