<svg width="34" height="43" viewBox="0 0 34 43" fill="none" xmlns="http://www.w3.org/2000/svg">
<path d="M27.0815 8.49171V39.3717C27.0815 41.1507 25.6391 42.593 23.8627 42.593H4.17728C2.40083 42.593 0.958496 41.1507 0.958496 39.3717V8.49171C0.958496 7.41712 1.4867 6.46413 2.29719 5.87887C2.8254 5.49817 3.47543 5.27293 4.17728 5.27293H23.8627C24.5695 5.27293 25.2223 5.5009 25.753 5.8866C26.5585 6.47208 27.0815 7.42235 27.0815 8.49171Z" fill="#DA0735"/>
<path d="M27.1437 8.49172C27.1401 15.5511 27.1799 24.2274 27.2585 31.2457L27.3419 38.8303L27.3438 39.3045C27.3719 40.5029 26.7435 41.6943 25.7198 42.3285C25.1459 42.7019 24.4391 42.8746 23.772 42.8605L21.8758 42.851C19.3475 42.8471 16.8194 42.7973 14.2911 42.7714C12.4019 42.7337 8.59564 42.7148 6.70647 42.7062L4.81024 42.6992C3.84702 42.7596 2.81925 42.6057 2.05785 41.9564C1.28963 41.3284 0.820975 40.3656 0.804156 39.3724L0.74529 35.58C0.723471 34.3158 0.705061 33.0517 0.70097 31.7875C0.615739 24.0445 0.923025 16.3021 0.795292 8.55945C0.69256 6.67027 2.37855 4.96497 4.2684 5.03202C7.36149 5.0102 10.6637 5.00452 13.7493 5.05862L21.3339 5.1618C21.971 5.18725 23.5572 5.15475 24.1859 5.20521C25.825 5.34931 27.179 6.84437 27.1437 8.49172ZM27.0194 8.49172C27.0392 6.92119 25.7419 5.48091 24.1695 5.37227C23.5765 5.34977 21.9612 5.38204 21.3339 5.38409C16.113 5.48159 9.43454 5.55704 4.2684 5.51386C2.30445 5.43613 0.941663 7.12825 1.11508 9.03334C1.00621 16.618 1.30009 24.2022 1.21645 31.7873C1.21236 33.0515 1.19395 34.3156 1.17213 35.5797L1.11349 39.372C1.09917 40.2852 1.50896 41.1825 2.21422 41.7659C2.93766 42.3887 3.88043 42.5319 4.81024 42.4864L6.70647 42.4794C8.59837 42.4689 12.4004 42.4494 14.2911 42.4141C16.8194 42.3882 19.3475 42.3385 21.8758 42.3346L23.772 42.325C24.3675 42.3321 24.9355 42.1744 25.4275 41.8641C26.301 41.3293 26.838 40.3277 26.8199 39.304L26.8217 38.8299L26.9051 31.2452C26.9992 24.2402 27.0062 15.5361 27.0194 8.49172Z" fill="black"/>
<path d="M25.7529 5.88678L14.2063 14.4038C14.1001 14.4815 13.9576 14.4815 13.8542 14.4038L2.29712 5.87905C2.82532 5.49835 3.47535 5.27312 4.1772 5.27312H23.8626C24.5697 5.27289 25.2222 5.50085 25.7529 5.88678Z" fill="#E1395D"/>
<path d="M25.8152 5.88663C23.0285 7.96241 19.8519 10.3421 17.13 12.4985C16.3707 13.0815 15.1579 14.0486 14.3942 14.6041C14.1844 14.7802 13.8615 14.7763 13.6542 14.5972L13.4708 14.4632C13.2428 14.2927 12.6159 13.8233 12.3796 13.6458C11.3918 12.9176 9.08124 11.0635 8.07438 10.2961C6.29884 8.90563 3.75282 7.17101 1.87183 5.88913C2.37412 5.47707 2.9571 5.1441 3.60963 5.04636C4.05761 4.95591 4.68423 5.01705 5.13356 5.00546C8.09779 5.06978 11.0616 5.2307 14.0262 5.07069C16.0025 4.98205 17.9785 5.00159 19.9547 5.08159C20.9427 5.11841 21.9309 5.15023 22.9189 5.16614C23.3417 5.18478 23.9905 5.15319 24.4119 5.2382C24.9179 5.35047 25.4349 5.51844 25.8152 5.88663ZM25.6908 5.88709C25.6352 5.88277 25.6288 5.87845 25.5652 5.8364C25.2083 5.6098 24.8031 5.45843 24.3853 5.39729C23.9865 5.3257 23.3348 5.38547 22.9191 5.37979C19.9551 5.43775 16.9911 5.62935 14.0265 5.47547C11.0618 5.31569 8.09801 5.47639 5.13379 5.54071L4.39285 5.54662C3.68532 5.52321 3.02642 5.68367 2.44299 6.08119L2.44526 5.67867C4.14352 7.01736 6.46703 8.89222 8.2237 10.0948C9.90537 11.2562 12.4055 12.9942 14.029 14.1881C14.0331 14.189 14.039 14.1865 14.0431 14.185L14.0706 14.1652L14.251 14.0331C14.9001 13.5579 16.1472 12.6919 16.8207 12.2242C19.6701 10.273 22.8955 7.92718 25.6908 5.88709Z" fill="black"/>
<path d="M23.1384 28.3411C23.1384 33.1777 19.217 37.0986 14.3803 37.0986C9.54353 37.0986 5.62329 33.1777 5.62329 28.3411C5.62329 23.5049 9.54392 19.5835 14.3803 19.5835C19.217 19.5839 23.1384 23.5049 23.1384 28.3411Z" fill="white"/>
<path d="M14.4559 20.9279C12.9746 20.9282 11.5267 21.3676 10.2952 22.1908C9.06367 23.0139 8.10388 24.1837 7.53715 25.5523C6.97043 26.9208 6.82223 28.4267 7.11128 29.8795C7.40033 31.3323 8.11365 32.6667 9.16106 33.7141C10.2085 34.7615 11.5429 35.4749 12.9957 35.7639C14.4485 36.053 15.9544 35.9048 17.3229 35.338C18.6915 34.7713 19.8613 33.8115 20.6844 32.58C21.5076 31.3485 21.947 29.9006 21.9473 28.4193C21.9473 27.4355 21.7535 26.4614 21.3771 25.5525C21.0006 24.6436 20.4488 23.8177 19.7531 23.1221C19.0575 22.4264 18.2316 21.8746 17.3227 21.4981C16.4138 21.1216 15.4396 20.9279 14.4559 20.9279ZM19.1846 26.6099C19.1834 26.6245 19.1792 26.6388 19.1723 26.6518C19.1655 26.6648 19.1561 26.6763 19.1447 26.6856C19.1238 26.7016 19.0983 26.7101 19.0721 26.7098C19.0668 26.7098 18.8913 26.6885 18.8913 26.6885C18.8768 26.6872 18.8628 26.6829 18.85 26.6761C18.8372 26.6693 18.8259 26.6599 18.8167 26.6487C18.8075 26.6374 18.8007 26.6244 18.7966 26.6105C18.7925 26.5966 18.7912 26.582 18.7928 26.5675C18.7928 26.5675 18.8141 26.3202 18.8141 26.1939C18.8144 25.3991 18.5159 24.6333 17.978 24.0483C17.8888 23.9481 17.7713 23.8775 17.6411 23.8456C17.5109 23.8137 17.3741 23.822 17.2487 23.8696C17.1233 23.9172 17.0154 24.0016 16.9391 24.1119C16.8628 24.2221 16.8218 24.353 16.8214 24.487L16.8188 30.6397C16.8181 31.3041 16.6329 31.9551 16.2837 32.5204C15.9346 33.0856 15.4353 33.5427 14.8416 33.8407C14.3573 34.0851 13.8207 34.2079 13.2783 34.1984H13.2623C12.7949 34.1987 12.332 34.107 11.9001 33.9284C11.4682 33.7497 11.0757 33.4878 10.7451 33.1574C10.4144 32.827 10.1522 32.4347 9.97323 32.0029C9.79427 31.5711 9.70216 31.1083 9.70216 30.6409C9.70216 30.5013 9.72638 30.2261 9.72638 30.2261C9.72701 30.2111 9.7309 30.1965 9.73782 30.1831C9.74471 30.1698 9.75442 30.1581 9.7663 30.1489C9.787 30.1328 9.81264 30.1242 9.83891 30.1247C9.84158 30.1247 10.0197 30.1446 10.0197 30.1446C10.0485 30.1482 10.0748 30.1628 10.0932 30.1854C10.1115 30.2079 10.1205 30.2366 10.1182 30.2656C10.1182 30.2668 10.0957 30.5141 10.0957 30.6404C10.0955 31.4354 10.3945 32.2014 10.9332 32.7861C11.0225 32.8859 11.14 32.9564 11.2701 32.9881C11.4003 33.0199 11.537 33.0114 11.6622 32.9639C11.7875 32.9164 11.8953 32.832 11.9717 32.7219C12.048 32.6119 12.0892 32.4812 12.0898 32.3473V26.1963C12.0906 25.5299 12.2771 24.8769 12.6283 24.3105C12.9795 23.7441 13.4815 23.2868 14.0781 22.9897C14.3159 22.866 14.5696 22.7752 14.8319 22.7199C15.0943 22.6628 15.3621 22.6348 15.6305 22.6362C16.0078 22.6346 16.3829 22.6925 16.7421 22.8078C17.3062 22.9898 17.8158 23.3102 18.2243 23.7397C18.8614 24.4127 19.2138 25.3057 19.2081 26.2324C19.2071 26.3587 19.1846 26.6099 19.1846 26.6099Z" fill="#08A081"/>
<path d="M26.5463 0.196749H26.5462C22.5863 0.196749 19.3761 3.40752 19.3761 7.36737C19.3761 11.3276 22.586 14.538 26.5462 14.538C30.5065 14.538 33.7173 11.3276 33.7173 7.36737C33.7173 3.40749 30.5065 0.197089 26.5463 0.196749Z" fill="white" stroke="black" stroke-width="0.235102" stroke-miterlimit="10"/>
<path d="M26.7541 11.0103C26.3388 11.0103 25.9156 10.9555 25.4846 10.8458C25.0536 10.736 24.6578 10.5676 24.2973 10.3403C24.1484 10.2462 24.0465 10.1365 23.9917 10.0111C23.9447 9.87792 23.9329 9.74861 23.9564 9.62322C23.9878 9.49 24.0465 9.38029 24.1327 9.29408C24.2268 9.20004 24.3365 9.14518 24.4619 9.12951C24.5951 9.11384 24.7401 9.1491 24.8968 9.23531C25.1868 9.39988 25.4807 9.52527 25.7785 9.61147C26.0763 9.69767 26.3936 9.74078 26.7306 9.74078C27.0598 9.74078 27.3419 9.682 27.577 9.56445C27.8121 9.4469 27.9923 9.28233 28.1177 9.07073C28.2431 8.85914 28.3058 8.61228 28.3058 8.33016C28.3058 7.8913 28.1726 7.53865 27.9061 7.2722C27.6397 6.99792 27.2753 6.86077 26.8129 6.86077C26.5621 6.86077 26.3192 6.90388 26.0841 6.99008C25.849 7.06845 25.6178 7.20951 25.3905 7.41326C25.32 7.47596 25.2299 7.53865 25.1202 7.60135C25.0105 7.6562 24.8929 7.68363 24.7675 7.68363C24.5716 7.68363 24.4227 7.63269 24.3208 7.53081C24.2189 7.42894 24.168 7.28788 24.168 7.10763V3.26371C24.168 3.05212 24.2229 2.89146 24.3326 2.78175C24.4501 2.6642 24.6147 2.60542 24.8263 2.60542H28.6937C28.9053 2.60542 29.066 2.66028 29.1757 2.76999C29.2932 2.87187 29.352 3.02469 29.352 3.22844C29.352 3.42436 29.2932 3.57718 29.1757 3.68689C29.066 3.79661 28.9053 3.85146 28.6937 3.85146H25.6374V6.48461H25.2495C25.4532 6.21032 25.7236 5.99873 26.0606 5.84983C26.3976 5.70094 26.7659 5.62649 27.1656 5.62649C27.6906 5.62649 28.1452 5.74012 28.5292 5.96738C28.921 6.18681 29.2227 6.49636 29.4343 6.89604C29.6537 7.28788 29.7634 7.74632 29.7634 8.27139C29.7634 8.81212 29.642 9.29016 29.399 9.70551C29.1561 10.113 28.8074 10.4343 28.3528 10.6694C27.9061 10.8967 27.3732 11.0103 26.7541 11.0103Z" fill="#08A081"/>
</svg>
