<svg width="30" height="39" viewBox="0 0 30 39" fill="none" xmlns="http://www.w3.org/2000/svg">
<path d="M22.4546 8.95646V35.2259C22.4546 36.7392 21.2276 37.9662 19.7164 37.9662H2.97013C1.45892 37.9662 0.231934 36.7392 0.231934 35.2259V8.95646C0.231934 8.04231 0.681275 7.2316 1.37075 6.73373C1.8201 6.40987 2.37307 6.21826 2.97013 6.21826H19.7164C20.3177 6.21826 20.873 6.41219 21.3245 6.7403C22.0097 7.23837 22.4546 8.04675 22.4546 8.95646Z" fill="#DA0735"/>
<path d="M22.5076 8.95652C22.5045 14.9619 22.5384 22.3428 22.6053 28.3132L22.6762 34.7654L22.6778 35.1687C22.7017 36.1883 22.1671 37.2018 21.2963 37.7412C20.8081 38.0589 20.2068 38.2058 19.6393 38.1939L18.0262 38.1857C15.8754 38.1825 13.7248 38.1401 11.574 38.1181C9.96686 38.086 6.72886 38.0699 5.12175 38.0626L3.50865 38.0566C2.68924 38.108 1.81492 37.9771 1.1672 37.4247C0.513683 36.8905 0.115 36.0715 0.100692 35.2265L0.0506152 32.0003C0.0320538 30.9249 0.0163927 29.8495 0.0129124 28.7741C-0.0595931 22.1871 0.201814 15.6007 0.0931521 9.01414C0.0057587 7.40703 1.44002 5.95634 3.04771 6.01338C5.67898 5.99482 8.48813 5.98998 11.113 6.036L17.5653 6.12378C18.1072 6.14543 19.4566 6.11778 19.9914 6.16071C21.3858 6.28329 22.5376 7.55513 22.5076 8.95652ZM22.4019 8.95652C22.4187 7.62048 21.315 6.39524 19.9775 6.30282C19.473 6.28368 18.0989 6.31114 17.5653 6.31288C13.1238 6.39582 7.44251 6.46001 3.04771 6.42328C1.37698 6.35715 0.217669 7.79663 0.365193 9.41727C0.272579 15.8695 0.522578 22.3213 0.451426 28.7739C0.447946 29.8493 0.432285 30.9247 0.413723 32.0001L0.363839 35.2262C0.351658 36.003 0.700265 36.7664 1.30022 37.2627C1.91565 37.7925 2.71766 37.9143 3.50865 37.8756L5.12175 37.8696C6.73118 37.8607 9.96551 37.8441 11.574 37.8141C13.7248 37.7921 15.8754 37.7497 18.0262 37.7464L19.6393 37.7383C20.1459 37.7443 20.629 37.6101 21.0476 37.3462C21.7907 36.8913 22.2476 36.0392 22.2321 35.1683L22.2336 34.765L22.3046 28.3128C22.3846 22.3536 22.3906 14.9492 22.4019 8.95652Z" fill="black"/>
<path d="M21.3248 6.74054L11.5022 13.9859C11.4119 14.052 11.2906 14.052 11.2027 13.9859L1.37109 6.73397C1.82043 6.41011 2.37341 6.21851 2.97047 6.21851H19.7167C20.3182 6.21831 20.8733 6.41224 21.3248 6.74054Z" fill="#E1395D"/>
<path d="M21.3777 6.74041C19.0071 8.50626 16.3049 10.5306 13.9893 12.3651C13.3433 12.861 12.3116 13.6837 11.662 14.1563C11.4835 14.3061 11.2088 14.3028 11.0324 14.1505L10.8764 14.0364C10.6825 13.8914 10.1492 13.4921 9.94815 13.3411C9.10786 12.7216 7.14228 11.1443 6.28575 10.4916C4.77531 9.30866 2.60943 7.83302 1.00928 6.74254C1.43658 6.392 1.93252 6.10874 2.48762 6.0256C2.86871 5.94865 3.40177 6.00066 3.78402 5.9908C6.30566 6.04552 8.82692 6.18241 11.349 6.04629C13.0301 5.97089 14.7111 5.98751 16.3922 6.05557C17.2327 6.08689 18.0734 6.11396 18.9139 6.1275C19.2735 6.14335 19.8255 6.11648 20.184 6.18879C20.6144 6.2843 21.0543 6.42719 21.3777 6.74041ZM21.272 6.7408C21.2246 6.73712 21.2192 6.73345 21.165 6.69768C20.8615 6.50491 20.5168 6.37614 20.1614 6.32413C19.8221 6.26323 19.2677 6.31408 18.9141 6.30924C16.3926 6.35855 13.8712 6.52154 11.3491 6.39064C8.82712 6.25472 6.30586 6.39142 3.78421 6.44614L3.1539 6.45116C2.552 6.43125 1.99149 6.56775 1.49516 6.90592L1.4971 6.5635C2.94179 7.70232 4.91839 9.29725 6.41278 10.3203C7.84336 11.3083 9.97019 12.7868 11.3513 13.8025C11.3548 13.8032 11.3598 13.8011 11.3633 13.7997L11.3867 13.7829L11.5402 13.6706C12.0924 13.2663 13.1533 12.5296 13.7262 12.1317C16.1502 10.4718 18.894 8.47629 21.272 6.7408Z" fill="black"/>
<path d="M19.1002 25.8422C19.1002 29.9567 15.7643 33.2922 11.6497 33.2922C7.53512 33.2922 4.2002 29.9567 4.2002 25.8422C4.2002 21.7281 7.53545 18.3922 11.6497 18.3922C15.7643 18.3926 19.1002 21.7281 19.1002 25.8422Z" fill="white"/>
<path d="M11.7142 19.5359C10.4541 19.5361 9.2224 19.91 8.17476 20.6102C7.12713 21.3105 6.31064 22.3056 5.82853 23.4698C5.34643 24.634 5.22035 25.9151 5.46624 27.151C5.71214 28.3868 6.31896 29.5221 7.20998 30.4131C8.101 31.3041 9.23623 31.9109 10.4721 32.1568C11.708 32.4027 12.989 32.2766 14.1532 31.7945C15.3175 31.3124 16.3126 30.4959 17.0128 29.4483C17.7131 28.4007 18.0869 27.1689 18.0872 25.9088C18.0872 25.0719 17.9223 24.2432 17.602 23.47C17.2818 22.6968 16.8124 21.9943 16.2206 21.4025C15.6288 20.8107 14.9263 20.3413 14.153 20.021C13.3798 19.7007 12.5511 19.5359 11.7142 19.5359ZM15.7369 24.3695C15.7359 24.382 15.7324 24.3941 15.7265 24.4052C15.7207 24.4163 15.7127 24.4261 15.703 24.434C15.6852 24.4475 15.6635 24.4548 15.6412 24.4546C15.6367 24.4546 15.4874 24.4364 15.4874 24.4364C15.4751 24.4353 15.4632 24.4317 15.4523 24.4259C15.4414 24.4201 15.4318 24.4121 15.424 24.4025C15.4162 24.393 15.4104 24.3819 15.4068 24.3701C15.4034 24.3582 15.4023 24.3458 15.4036 24.3335C15.4036 24.3335 15.4218 24.1231 15.4218 24.0156C15.422 23.3395 15.1681 22.6881 14.7105 22.1904C14.6346 22.1052 14.5347 22.0451 14.4239 22.018C14.3131 21.9908 14.1967 21.9979 14.0901 22.0384C13.9834 22.0789 13.8916 22.1507 13.8267 22.2445C13.7618 22.3383 13.7269 22.4496 13.7266 22.5636L13.7244 27.7977C13.7238 28.3629 13.5662 28.9167 13.2692 29.3976C12.9722 29.8784 12.5475 30.2672 12.0424 30.5208C11.6304 30.7287 11.1739 30.8331 10.7125 30.825H10.6989C10.3013 30.8253 9.90749 30.7473 9.54005 30.5953C9.17264 30.4434 8.83874 30.2205 8.55749 29.9394C8.27622 29.6584 8.05311 29.3247 7.90089 28.9574C7.74865 28.59 7.6703 28.1963 7.6703 27.7987C7.6703 27.6799 7.6909 27.4459 7.6909 27.4459C7.69143 27.4331 7.69474 27.4206 7.70062 27.4093C7.70649 27.3979 7.71475 27.388 7.72486 27.3802C7.74247 27.3664 7.76428 27.3591 7.78662 27.3596C7.78889 27.3596 7.94041 27.3765 7.94041 27.3765C7.96492 27.3796 7.98731 27.392 8.00292 27.4112C8.01851 27.4304 8.02613 27.4548 8.0242 27.4794C8.0242 27.4805 8.00504 27.6908 8.00504 27.7983C8.00494 28.4746 8.2593 29.1262 8.71757 29.6236C8.79352 29.7085 8.89345 29.7685 9.00415 29.7954C9.11485 29.8225 9.23115 29.8153 9.33769 29.7749C9.44424 29.7344 9.53602 29.6627 9.60097 29.569C9.66589 29.4754 9.70092 29.3643 9.70143 29.2503V24.0177C9.70215 23.4508 9.86078 22.8953 10.1596 22.4135C10.4583 21.9317 10.8854 21.5426 11.3929 21.2899C11.5952 21.1846 11.811 21.1074 12.0342 21.0604C12.2573 21.0118 12.4851 20.9879 12.7135 20.9891C13.0344 20.9878 13.3535 21.037 13.6591 21.1351C14.139 21.2899 14.5725 21.5625 14.92 21.9279C15.462 22.5004 15.7618 23.2601 15.7569 24.0484C15.7561 24.1558 15.7369 24.3695 15.7369 24.3695Z" fill="#08A081"/>
<path d="M21.9995 0.9H21.9995C18.0786 0.9 14.9 4.07914 14.9 8C14.9 11.9212 18.0782 15.1 21.9995 15.1C25.9208 15.1 29.1 11.9212 29.1 8C29.1 4.07912 25.9208 0.900336 21.9995 0.9Z" fill="white" stroke="black" stroke-width="0.2" stroke-miterlimit="10"/>
<path d="M18.0639 11.5391C17.8906 11.5391 17.7539 11.4924 17.6539 11.3991C17.5606 11.2991 17.5139 11.1657 17.5139 10.9991C17.5139 10.8257 17.5606 10.6957 17.6539 10.6091C17.7539 10.5224 17.8906 10.4791 18.0639 10.4791H19.1839V5.56906H19.8039L18.3339 6.45906C18.2072 6.5324 18.0872 6.5624 17.9739 6.54906C17.8672 6.52906 17.7739 6.4824 17.6939 6.40906C17.6206 6.32906 17.5706 6.23573 17.5439 6.12906C17.5172 6.0224 17.5239 5.91573 17.5639 5.80906C17.6106 5.69573 17.6972 5.6024 17.8239 5.52906L19.2039 4.69906C19.3372 4.61906 19.4706 4.5524 19.6039 4.49906C19.7372 4.43906 19.8606 4.40906 19.9739 4.40906C20.1139 4.40906 20.2306 4.44906 20.3239 4.52906C20.4172 4.6024 20.4639 4.72573 20.4639 4.89906V10.4791H21.4839C21.6572 10.4791 21.7906 10.5224 21.8839 10.6091C21.9839 10.6957 22.0339 10.8257 22.0339 10.9991C22.0339 11.1724 21.9839 11.3057 21.8839 11.3991C21.7906 11.4924 21.6572 11.5391 21.4839 11.5391H18.0639ZM24.5 11.6391C23.6667 11.6391 23.03 11.3257 22.59 10.6991C22.15 10.0657 21.93 9.16573 21.93 7.99906C21.93 7.2124 22.0267 6.5524 22.22 6.01906C22.42 5.47906 22.71 5.0724 23.09 4.79906C23.4767 4.52573 23.9467 4.38906 24.5 4.38906C25.34 4.38906 25.9767 4.69573 26.41 5.30906C26.85 5.9224 27.07 6.81573 27.07 7.98906C27.07 8.76906 26.97 9.4324 26.77 9.97906C26.5767 10.5191 26.29 10.9324 25.91 11.2191C25.53 11.4991 25.06 11.6391 24.5 11.6391ZM24.5 10.5891C24.9533 10.5891 25.2867 10.3791 25.5 9.95906C25.72 9.53906 25.83 8.8824 25.83 7.98906C25.83 7.09573 25.72 6.44906 25.5 6.04906C25.2867 5.6424 24.9533 5.43906 24.5 5.43906C24.0533 5.43906 23.72 5.6424 23.5 6.04906C23.28 6.44906 23.17 7.09573 23.17 7.98906C23.17 8.8824 23.28 9.53906 23.5 9.95906C23.72 10.3791 24.0533 10.5891 24.5 10.5891Z" fill="#08A081"/>
</svg>
