<svg width="36" height="42" viewBox="0 0 36 42" fill="none" xmlns="http://www.w3.org/2000/svg">
<path d="M28.5386 9.59818L25.2351 37.5495C25.0448 39.1597 23.585 40.311 21.977 40.1209L4.15861 38.0151C2.55064 37.825 1.3994 36.3652 1.5897 34.755L4.89313 6.80364C5.00808 5.83096 5.58814 5.02486 6.38437 4.58182C6.9032 4.29373 7.51568 4.15939 8.15096 4.23447L25.9694 6.34034C26.6092 6.41596 27.1757 6.69213 27.6148 7.09802C28.2812 7.71414 28.653 8.63023 28.5386 9.59818Z" fill="#DA0735"/>
<path d="M28.5949 9.60508C27.8364 15.9946 26.9443 23.8523 26.2647 30.2133L25.5288 37.0876L25.4797 37.5169C25.377 38.6047 24.6808 39.6159 23.6863 40.0804C23.1269 40.357 22.4686 40.4377 21.8663 40.3536L20.151 40.1421C17.8629 39.8682 15.5799 39.5527 13.2942 39.2587C11.5882 39.0225 8.14489 38.5982 6.43581 38.3883L4.72019 38.1791C3.84185 38.1308 2.92801 37.8816 2.30829 37.2123C1.68011 36.5617 1.35889 35.6401 1.44992 34.7393L1.80234 31.3003C1.91782 30.1537 2.03639 29.0074 2.16792 27.8628C2.9191 20.8449 4.02549 13.8697 4.73815 6.84774C4.84726 5.12674 6.55577 3.76354 8.25922 4.02639C11.0613 4.33753 14.0509 4.68565 16.8381 5.06469L23.6924 5.96947C24.2663 6.06066 25.7055 6.20093 26.2692 6.31385C27.7375 6.61963 28.803 8.11774 28.5949 9.60508ZM28.4824 9.59178C28.6683 8.17233 27.6481 6.72985 26.2365 6.46331C25.7022 6.37951 24.2366 6.23593 23.6686 6.17067C18.9324 5.70042 12.8792 5.05428 8.20767 4.46253C6.4383 4.18208 5.02374 5.56794 4.97691 7.31089C4.06699 14.1646 3.52167 21.0609 2.63454 27.9177C2.4956 29.0615 2.3437 30.2038 2.18872 31.3457L1.72996 34.772C1.61931 35.5971 1.89425 36.4531 2.4702 37.0567C3.05841 37.6977 3.89645 37.9282 4.74294 37.9865L6.46008 38.183C8.17367 38.3759 11.6172 38.765 13.3324 38.9353C15.6237 39.1823 17.9173 39.4077 20.2062 39.6747L21.9236 39.8689C22.4619 39.939 22.9928 39.857 23.4714 39.6288C24.3192 39.2382 24.9125 38.389 25.0056 37.4605L25.058 37.0315L25.9448 30.1751C26.7794 23.8445 27.7169 15.9667 28.4824 9.59178Z" fill="black"/>
<path d="M27.6148 7.09836L16.2521 13.5724C16.1477 13.6314 16.0187 13.6161 15.9334 13.5347L6.38434 4.58216C6.90317 4.29407 7.51565 4.15973 8.15093 4.23482L25.9694 6.34069C26.6094 6.41612 27.1757 6.69227 27.6148 7.09836Z" fill="#E1395D"/>
<path d="M27.6711 7.10493C24.9266 8.68572 21.7968 10.4999 19.1023 12.1606C18.3526 12.6071 17.1514 13.3527 16.4008 13.7738C16.192 13.9108 15.9001 13.8728 15.7317 13.6885L15.58 13.5475C15.3919 13.3688 14.8747 12.8769 14.6797 12.691C13.8635 11.9261 11.9705 10.0006 11.1412 9.1984C9.68278 7.74982 7.56378 5.90735 5.99832 4.54582C6.49706 4.22658 7.06037 3.98755 7.66146 3.96889C8.07663 3.93493 8.63728 4.05731 9.04524 4.09489C11.7215 4.47021 14.3869 4.93292 17.0875 5.10524C18.8858 5.23641 20.6723 5.46548 22.4526 5.74931C23.3429 5.88833 24.234 6.02285 25.1266 6.14294C25.5073 6.20503 26.098 6.24586 26.4703 6.36788C26.9163 6.52363 27.3663 6.73098 27.6711 7.10493ZM27.5585 7.09204C27.5086 7.08217 27.5033 7.07759 27.4502 7.03272C27.1514 6.78943 26.8008 6.60907 26.4292 6.50904C26.0758 6.40156 25.4796 6.38596 25.104 6.33635C22.4149 6.07173 19.7115 5.92808 17.0444 5.47166C14.378 5.00988 11.6782 4.83828 8.98819 4.5794L8.31688 4.50549C7.67896 4.40861 7.06539 4.48336 6.49476 4.78077L6.53988 4.41667C7.93387 5.81007 9.83645 7.75567 11.2979 9.0321C12.6958 10.2633 14.7729 12.1039 16.1147 13.3583C16.1183 13.3595 16.1239 13.3579 16.1278 13.3569L16.1548 13.3419L16.3322 13.2417C16.9706 12.881 18.1921 12.2306 18.8517 11.8792C21.6396 10.4179 24.8101 8.63961 27.5585 7.09204Z" fill="black"/>
<path d="M22.8459 27.1439C22.3285 31.5219 18.3596 34.6514 13.9816 34.134C9.60357 33.6166 6.47458 29.6482 6.99198 25.2702C7.50934 20.8927 11.4776 17.7627 15.8553 18.28C20.2332 18.7978 23.3633 22.7664 22.8459 27.1439Z" fill="white"/>
<path d="M15.7802 19.5047C14.4394 19.3465 13.0818 19.5894 11.8791 20.2027C10.6763 20.8161 9.68239 21.7722 9.02301 22.9504C8.36364 24.1285 8.0684 25.4757 8.17462 26.8216C8.28084 28.1676 8.78376 29.4518 9.61979 30.5119C10.4558 31.572 11.5874 32.3604 12.8715 32.7775C14.1556 33.1945 15.5345 33.2215 16.8339 32.8549C18.1333 32.4883 19.2948 31.7447 20.1716 30.7181C21.0484 29.6914 21.6011 28.4278 21.7598 27.0871C21.865 26.1966 21.7939 25.2941 21.5503 24.4311C21.3068 23.5681 20.8956 22.7616 20.3404 22.0575C19.7851 21.3534 19.0966 20.7656 18.3142 20.3276C17.5318 19.8896 16.6707 19.61 15.7802 19.5047ZM19.4527 25.1537C19.45 25.1668 19.4447 25.1793 19.4371 25.1903C19.4295 25.2014 19.4197 25.2108 19.4084 25.218C19.3878 25.2302 19.3638 25.2351 19.3401 25.2321C19.3353 25.2315 19.1788 25.1935 19.1788 25.1935C19.1658 25.1907 19.1535 25.1854 19.1427 25.1778C19.1318 25.1703 19.1226 25.1606 19.1155 25.1494C19.1084 25.1383 19.1036 25.1258 19.1014 25.1127C19.0991 25.0997 19.0996 25.0863 19.1025 25.0734C19.1025 25.0734 19.1483 24.8519 19.1618 24.7375C19.2471 24.0181 19.0588 23.293 18.6345 22.7059C18.5645 22.6058 18.4657 22.5292 18.3513 22.4864C18.2368 22.4436 18.1121 22.4366 17.9935 22.4662C17.875 22.4959 17.7682 22.5608 17.6873 22.6524C17.6065 22.744 17.5554 22.8581 17.5407 22.9794L16.8801 28.5483C16.8084 29.1495 16.5711 29.719 16.1946 30.1933C15.8182 30.6675 15.3173 31.0279 14.748 31.2341C14.2835 31.4036 13.7847 31.4573 13.2947 31.3907L13.2802 31.3889C12.8571 31.3393 12.448 31.2067 12.0761 30.9988C11.7043 30.7909 11.377 30.5118 11.1131 30.1774C10.8492 29.843 10.6538 29.4598 10.538 29.0499C10.4222 28.6399 10.3883 28.2111 10.4383 27.788C10.4533 27.6616 10.5046 27.4152 10.5046 27.4152C10.5068 27.4017 10.5119 27.3888 10.5196 27.3775C10.5272 27.3661 10.5373 27.3566 10.549 27.3496C10.5695 27.3371 10.5936 27.3321 10.6173 27.3354C10.6197 27.3357 10.7788 27.3727 10.7788 27.3727C10.8045 27.3791 10.8268 27.3952 10.841 27.4175C10.8552 27.4399 10.8602 27.4668 10.855 27.4928C10.8549 27.4939 10.8081 27.7153 10.7946 27.8297C10.7094 28.5493 10.8981 29.2746 11.3232 29.8614C11.3933 29.9613 11.4921 30.0377 11.6065 30.0803C11.7209 30.123 11.8455 30.13 11.964 30.1004C12.0824 30.0708 12.1891 30.0059 12.27 29.9145C12.3508 29.823 12.4021 29.7092 12.417 29.588L13.075 24.0204C13.147 23.4172 13.3857 22.8461 13.7642 22.371C14.1426 21.8959 14.646 21.5357 15.2177 21.3306C15.4463 21.244 15.6855 21.189 15.9289 21.167C16.1725 21.1434 16.4179 21.1467 16.6608 21.1767C17.0024 21.2156 17.3357 21.3081 17.6485 21.4509C18.1397 21.676 18.5667 22.0205 18.8905 22.453C19.3951 23.1303 19.6186 23.9763 19.5143 24.8145C19.4999 24.9287 19.4527 25.1537 19.4527 25.1537Z" fill="#08A081"/>
<path d="M28.9417 2.0338L28.9417 2.0338C25.3573 1.61018 22.1081 4.17302 21.6845 7.75732C21.2608 11.3419 23.8228 14.5912 27.4075 15.0149C30.9922 15.4385 34.2419 12.8761 34.6656 9.29149C35.0892 5.70716 32.5263 2.45776 28.9417 2.0338Z" fill="white" stroke="black" stroke-width="0.214286" stroke-miterlimit="10"/>
<path d="M27.7944 11.529C27.4113 11.4837 27.02 11.3871 26.6203 11.2392C26.2206 11.0913 25.88 10.9 25.5984 10.6653C25.4675 10.5563 25.3843 10.4386 25.3489 10.3121C25.3135 10.1857 25.3127 10.0705 25.3466 9.96663C25.3884 9.85649 25.4529 9.76701 25.5401 9.69821C25.6345 9.63024 25.7428 9.59629 25.865 9.59635C25.9944 9.59725 26.1289 9.64552 26.2687 9.74116C26.5411 9.93159 26.8079 10.0782 27.069 10.181C27.331 10.2767 27.6039 10.3413 27.8876 10.3748C28.1998 10.4117 28.4672 10.4002 28.6901 10.3402C28.913 10.2802 29.0877 10.1714 29.2142 10.0137C29.3478 9.85692 29.4289 9.65791 29.4574 9.41674C29.4993 9.06206 29.4097 8.78535 29.1887 8.5866C28.9755 8.3816 28.642 8.25227 28.188 8.19862L27.507 8.11814C27.3084 8.09466 27.1618 8.02698 27.0671 7.9151C26.9795 7.80405 26.9462 7.65986 26.9672 7.48252C26.9881 7.30519 27.0541 7.17273 27.1652 7.08516C27.2833 6.99843 27.4417 6.9668 27.6403 6.99027L28.1936 7.05566C28.4632 7.08752 28.6987 7.0722 28.9003 7.00972C29.1027 6.94014 29.2668 6.83006 29.3925 6.67948C29.5182 6.52891 29.5948 6.33658 29.6225 6.10249C29.6611 5.77619 29.5805 5.51493 29.3807 5.31869C29.188 5.1233 28.8859 5.00129 28.4745 4.95267C28.2121 4.92165 27.96 4.92423 27.7184 4.9604C27.4847 4.99032 27.2199 5.07051 26.9239 5.20097C26.787 5.2639 26.6591 5.28115 26.5402 5.25271C26.4284 5.22511 26.3381 5.16769 26.2693 5.08044C26.2005 4.99319 26.1582 4.89469 26.1424 4.78493C26.1274 4.66808 26.1479 4.55542 26.2039 4.44696C26.2607 4.3314 26.3615 4.23902 26.5064 4.16983C26.8349 4.00726 27.1894 3.89812 27.57 3.8424C27.9514 3.77959 28.3372 3.77124 28.7274 3.81735C29.2452 3.87855 29.6789 4.01252 30.0285 4.21927C30.3789 4.41892 30.6323 4.67902 30.7886 4.99959C30.9528 5.31389 31.0102 5.68031 30.9608 6.09882C30.9255 6.39675 30.8365 6.66314 30.6937 6.898C30.5517 7.12576 30.3678 7.31261 30.1419 7.45855C29.9161 7.60448 29.6536 7.69572 29.3544 7.73229L29.3695 7.6046C29.8701 7.75009 30.2422 8.00984 30.4857 8.38386C30.73 8.75079 30.8225 9.18607 30.7629 9.68971C30.711 10.1295 30.5557 10.4996 30.2973 10.7999C30.0388 11.1002 29.6969 11.3151 29.2716 11.4447C28.8472 11.5671 28.3548 11.5952 27.7944 11.529Z" fill="#08A081"/>
</svg>
