<svg width="38" height="46" viewBox="0 0 38 46" fill="none" xmlns="http://www.w3.org/2000/svg">
<path d="M29.2968 10.4567V42.3912C29.2968 44.2309 27.8052 45.7225 25.9681 45.7225H5.61044C3.77333 45.7225 2.28174 44.2309 2.28174 42.3912V10.4567C2.28174 9.34536 2.82798 8.35983 3.66615 7.75459C4.21239 7.36089 4.88462 7.12796 5.61044 7.12796H25.9681C26.6991 7.12796 27.3741 7.36371 27.9229 7.76258C28.7559 8.36806 29.2968 9.35077 29.2968 10.4567Z" fill="#DA0735"/>
<path d="M29.3614 10.4567C29.3577 17.7571 29.3988 26.7297 29.4801 33.9876L29.5664 41.8313L29.5683 42.3216C29.5974 43.561 28.9475 44.7931 27.8889 45.4489C27.2954 45.835 26.5644 46.0137 25.8746 45.9991L23.9136 45.9892C21.299 45.9852 18.6846 45.9338 16.0699 45.907C14.1162 45.8679 10.18 45.8484 8.22627 45.8395L6.2653 45.8322C5.26918 45.8947 4.20631 45.7356 3.41891 45.0641C2.62446 44.4147 2.1398 43.419 2.12241 42.3919L2.06153 38.4699C2.03897 37.1626 2.01993 35.8553 2.0157 34.548C1.92756 26.5405 2.24534 18.5337 2.11324 10.5267C2.007 8.57301 3.75056 6.80947 5.70495 6.87881C8.90367 6.85625 12.3186 6.85037 15.5096 6.90631L23.3532 7.01302C24.0121 7.03934 25.6525 7.00573 26.3026 7.05791C27.9977 7.20693 29.3979 8.75305 29.3614 10.4567ZM29.2329 10.4567C29.2533 8.8325 27.9117 7.34303 26.2857 7.23068C25.6724 7.20741 24.002 7.24078 23.3532 7.2429C17.954 7.34373 11.0475 7.42176 5.70495 7.3771C3.67393 7.29672 2.26461 9.04663 2.44395 11.0168C2.33136 18.8604 2.63527 26.7036 2.54878 34.5477C2.54455 35.8551 2.52551 37.1624 2.50294 38.4697L2.4423 42.3914C2.42749 43.3358 2.85128 44.2638 3.58062 44.8671C4.32877 45.5111 5.30373 45.6592 6.2653 45.6122L8.22627 45.6049C10.1828 45.5941 14.1146 45.5739 16.0699 45.5375C18.6846 45.5107 21.299 45.4592 23.9136 45.4552L25.8746 45.4453C26.4904 45.4526 27.0778 45.2895 27.5866 44.9687C28.4899 44.4156 29.0453 43.3798 29.0265 42.3211L29.0284 41.8308L29.1147 33.9872C29.212 26.7429 29.2192 17.7416 29.2329 10.4567Z" fill="black"/>
<path d="M27.9238 7.76274L15.9828 16.5706C15.8731 16.6509 15.7257 16.6509 15.6188 16.5706L3.66699 7.75475C4.21323 7.36105 4.88546 7.12813 5.61128 7.12813H25.9689C26.7002 7.12789 27.375 7.36364 27.9238 7.76274Z" fill="#E1395D"/>
<path d="M27.988 7.76259C25.1061 9.90925 21.8212 12.3702 19.0063 14.6003C18.221 15.2031 16.9668 16.2033 16.177 16.7777C15.9601 16.9599 15.6261 16.9559 15.4117 16.7707L15.2221 16.632C14.9863 16.4557 14.3381 15.9703 14.0936 15.7868C13.0721 15.0337 10.6827 13.1162 9.64141 12.3227C7.80524 10.8847 5.17228 9.09082 3.22705 7.76517C3.7465 7.33903 4.34939 6.99469 5.0242 6.89362C5.48747 6.80008 6.13549 6.8633 6.60017 6.85132C9.66562 6.91783 12.7306 7.08425 15.7965 6.91878C17.8402 6.82711 19.8837 6.84732 21.9274 6.93005C22.9491 6.96813 23.9711 7.00104 24.9929 7.01749C25.43 7.03677 26.1011 7.0041 26.5369 7.09201C27.0601 7.20812 27.5948 7.38182 27.988 7.76259ZM27.8595 7.76305C27.8019 7.75859 27.7953 7.75412 27.7295 7.71064C27.3605 7.4763 26.9414 7.31976 26.5094 7.25653C26.0969 7.18249 25.423 7.24431 24.9931 7.23844C21.9279 7.29837 18.8627 7.49651 15.7967 7.33739C12.7308 7.17215 9.66585 7.33833 6.60041 7.40485L5.83416 7.41096C5.10247 7.38675 4.42108 7.55269 3.81772 7.96378L3.82007 7.54752C5.57632 8.93193 7.97918 10.8708 9.79583 12.1144C11.5349 13.3155 14.1204 15.1129 15.7993 16.3476C15.8036 16.3485 15.8097 16.3459 15.8139 16.3443L15.8423 16.3238L16.029 16.1873C16.7003 15.6958 17.9899 14.8003 18.6864 14.3166C21.6331 12.2987 24.9686 9.87281 27.8595 7.76305Z" fill="black"/>
<path d="M25.2192 30.9839C25.2192 35.9857 21.1639 40.0405 16.162 40.0405C11.1601 40.0405 7.10596 35.9857 7.10596 30.9839C7.10596 25.9825 11.1605 21.9272 16.162 21.9272C21.1639 21.9277 25.2192 25.9825 25.2192 30.9839Z" fill="white"/>
<path d="M16.2404 23.3175C14.7085 23.3178 13.2112 23.7723 11.9376 24.6235C10.6641 25.4748 9.6715 26.6845 9.08542 28.0998C8.49935 29.5151 8.34608 31.0724 8.645 32.5748C8.94392 34.0772 9.68161 35.4572 10.7648 36.5404C11.848 37.6236 13.228 38.3612 14.7304 38.6602C16.2328 38.9591 17.7901 38.8058 19.2054 38.2198C20.6207 37.6337 21.8304 36.6411 22.6817 35.3675C23.5329 34.094 23.9874 32.5966 23.9877 31.0648C23.9877 30.0474 23.7873 29.04 23.3979 28.1C23.0086 27.1601 22.4379 26.306 21.7185 25.5866C20.9991 24.8672 20.1451 24.2966 19.2051 23.9072C18.2652 23.5179 17.2578 23.3175 16.2404 23.3175ZM21.1306 29.1935C21.1293 29.2087 21.125 29.2235 21.1179 29.2369C21.1108 29.2504 21.1011 29.2623 21.0893 29.2719C21.0678 29.2883 21.0414 29.2971 21.0142 29.2969C21.0087 29.2969 20.8273 29.2749 20.8273 29.2749C20.8123 29.2735 20.7978 29.2691 20.7846 29.262C20.7713 29.255 20.7596 29.2453 20.7501 29.2337C20.7406 29.222 20.7336 29.2086 20.7293 29.1942C20.7251 29.1798 20.7238 29.1647 20.7254 29.1497C20.7254 29.1497 20.7475 28.894 20.7475 28.7633C20.7477 27.9414 20.4391 27.1494 19.8828 26.5445C19.7906 26.4409 19.6691 26.3678 19.5344 26.3349C19.3997 26.3019 19.2582 26.3105 19.1286 26.3597C18.999 26.4089 18.8873 26.4962 18.8084 26.6103C18.7295 26.7243 18.6871 26.8595 18.6867 26.9982L18.684 33.361C18.6833 34.048 18.4917 34.7213 18.1307 35.3059C17.7696 35.8904 17.2533 36.3631 16.6393 36.6713C16.1385 36.9241 15.5835 37.051 15.0226 37.0412H15.0061C14.5227 37.0415 14.044 36.9467 13.5973 36.7619C13.1507 36.5772 12.7448 36.3063 12.4029 35.9646C12.061 35.623 11.7897 35.2173 11.6047 34.7708C11.4196 34.3242 11.3244 33.8456 11.3244 33.3622C11.3244 33.2178 11.3494 32.9333 11.3494 32.9333C11.3501 32.9178 11.3541 32.9026 11.3612 32.8888C11.3684 32.875 11.3784 32.8629 11.3907 32.8534C11.4121 32.8367 11.4386 32.8279 11.4658 32.8284C11.4685 32.8284 11.6527 32.849 11.6527 32.849C11.6825 32.8527 11.7097 32.8678 11.7287 32.8911C11.7477 32.9144 11.7569 32.9441 11.7546 32.9741C11.7546 32.9753 11.7313 33.2311 11.7313 33.3618C11.7312 34.1839 12.0404 34.976 12.5975 35.5806C12.6898 35.6839 12.8113 35.7567 12.9459 35.7896C13.0804 35.8224 13.2218 35.8137 13.3513 35.7645C13.4809 35.7154 13.5924 35.6282 13.6714 35.5143C13.7503 35.4005 13.7929 35.2654 13.7935 35.1269V28.7658C13.7944 28.0766 13.9872 27.4014 14.3504 26.8156C14.7136 26.2299 15.2328 25.757 15.8497 25.4498C16.0957 25.3218 16.358 25.2279 16.6293 25.1707C16.9006 25.1117 17.1775 25.0827 17.4552 25.0841C17.8453 25.0825 18.2332 25.1424 18.6047 25.2616C19.1881 25.4498 19.7151 25.7812 20.1375 26.2254C20.7963 26.9213 21.1608 27.8448 21.1549 28.8031C21.1539 28.9338 21.1306 29.1935 21.1306 29.1935Z" fill="#08A081"/>
<path d="M28.7441 1.87843H28.7441C24.6489 1.87843 21.3291 5.19884 21.3291 9.29392C21.3291 13.3893 24.6486 16.7094 28.7441 16.7094C32.8396 16.7094 36.1601 13.3894 36.1601 9.29392C36.1601 5.19882 32.8396 1.87879 28.7441 1.87843Z" fill="white" stroke="black" stroke-width="0.243131" stroke-miterlimit="10"/>
<path d="M29.2021 12.7881C28.497 12.7881 27.8933 12.622 27.3908 12.2897C26.8964 11.9493 26.5196 11.4631 26.2602 10.8309C26.0009 10.1988 25.8712 9.43291 25.8712 8.53333C25.8712 7.80394 25.9523 7.15964 26.1144 6.60044C26.2846 6.03314 26.5277 5.55498 26.8438 5.16597C27.1598 4.77696 27.5448 4.48115 27.9986 4.27854C28.4606 4.07594 28.9792 3.97463 29.5547 3.97463C29.9112 3.97463 30.2719 4.03136 30.6366 4.14482C31.0094 4.25018 31.3579 4.41227 31.6821 4.63108C31.8117 4.71213 31.8968 4.81748 31.9373 4.94715C31.9779 5.07682 31.9819 5.20649 31.9495 5.33616C31.9252 5.45773 31.8685 5.56714 31.7793 5.66439C31.6983 5.75354 31.5929 5.81027 31.4632 5.83458C31.3336 5.85079 31.1917 5.81432 31.0378 5.72517C30.7622 5.56308 30.5029 5.44962 30.2597 5.38479C30.0166 5.31995 29.7735 5.28754 29.5303 5.28754C29.0603 5.28754 28.6632 5.39694 28.339 5.61576C28.0148 5.83458 27.7676 6.16281 27.5975 6.60044C27.4354 7.03808 27.3543 7.58512 27.3543 8.24157V9.15331H27.2084C27.2733 8.73999 27.407 8.38745 27.6096 8.09569C27.8203 7.79583 28.0878 7.56891 28.4119 7.41493C28.7361 7.25284 29.0968 7.1718 29.4939 7.1718C29.9882 7.1718 30.4259 7.28931 30.8068 7.52434C31.1877 7.75936 31.4875 8.08354 31.7064 8.49686C31.9252 8.91018 32.0346 9.38429 32.0346 9.91917C32.0346 10.4703 31.913 10.9646 31.6699 11.4023C31.4349 11.8318 31.1026 12.1722 30.6731 12.4234C30.2516 12.6665 29.7613 12.7881 29.2021 12.7881ZM29.117 11.5481C29.4088 11.5481 29.6641 11.4833 29.8829 11.3536C30.1098 11.224 30.2841 11.0416 30.4056 10.8066C30.5272 10.5635 30.588 10.2879 30.588 9.97996C30.588 9.66389 30.5272 9.38834 30.4056 9.15331C30.2841 8.91829 30.1098 8.73594 29.8829 8.60627C29.6641 8.46849 29.4088 8.39961 29.117 8.39961C28.8253 8.39961 28.57 8.46849 28.3512 8.60627C28.1323 8.73594 27.9581 8.91829 27.8284 9.15331C27.7069 9.38834 27.6461 9.66389 27.6461 9.97996C27.6461 10.2879 27.7069 10.5635 27.8284 10.8066C27.9581 11.0416 28.1323 11.224 28.3512 11.3536C28.57 11.4833 28.8253 11.5481 29.117 11.5481Z" fill="#08A081"/>
</svg>
