<svg width="28" height="38" viewBox="0 0 28 38" fill="none" xmlns="http://www.w3.org/2000/svg">
<path fill-rule="evenodd" clip-rule="evenodd" d="M7.17464 16.1639H16.6479C20.5959 16.1639 23.8225 19.3412 23.8225 23.2217V26.8926C23.8225 29.7603 22.0584 32.244 19.5466 33.344V37.9019L14.9067 33.9504H7.17464C3.22662 33.9504 0 30.7731 0 26.8926V23.2217C0 19.338 3.2299 16.1639 7.17464 16.1639Z" fill="white"/>
<path d="M22.0853 8.80212L19.8477 28.2301C19.7188 29.3493 18.7068 30.1522 17.5892 30.0235L5.20423 28.5971C4.08659 28.4684 3.28367 27.4564 3.41257 26.3372L5.65016 6.90923C5.72802 6.23316 6.12939 5.67186 6.68172 5.36238C7.04162 5.16114 7.4669 5.06653 7.90847 5.11739L20.2934 6.54381C20.7381 6.59503 21.1323 6.78575 21.4382 7.06687C21.9026 7.49358 22.1628 8.12933 22.0853 8.80212Z" fill="#DA0735"/>
<path d="M22.125 8.80652C21.6111 13.2476 21.0075 18.7092 20.5484 23.1304L20.0513 27.9082L20.0181 28.2067C19.949 28.9627 19.4673 29.6667 18.7773 29.9915C18.3891 30.1849 17.9319 30.2423 17.5133 30.1851L16.321 30.0417C14.7306 29.8561 13.1437 29.6416 11.5549 29.4421C10.369 29.2815 7.9757 28.9938 6.78776 28.8515L5.59528 28.7096C4.98489 28.6779 4.34942 28.5066 3.91745 28.0429C3.47963 27.5921 3.25454 26.9524 3.31593 26.3263L3.5537 23.9361C3.63157 23.1392 3.71159 22.3425 3.80062 21.5469C4.30806 16.6692 5.06241 11.8204 5.54308 6.93991C5.61534 5.7439 6.79963 4.79319 7.98376 4.97231C9.93135 5.18271 12.0093 5.41842 13.9467 5.67603L18.711 6.29054C19.11 6.35272 20.1103 6.44721 20.5022 6.52451C21.523 6.73394 22.2665 7.77265 22.125 8.80652ZM22.0467 8.79751C22.173 7.81086 21.4611 6.81071 20.4798 6.62842C20.1083 6.5713 19.0897 6.47456 18.6949 6.43039C15.4032 6.11342 11.196 5.67697 7.94885 5.27546C6.71888 5.08424 5.73887 6.05009 5.70993 7.26122C5.09185 12.0252 4.72719 16.818 4.12494 21.5841C4.03077 22.3791 3.92758 23.1731 3.82226 23.9669L3.51058 26.3485C3.4354 26.922 3.62819 27.5162 4.02963 27.9344C4.43965 28.3786 5.02241 28.537 5.61069 28.5758L6.8042 28.7087C7.99524 28.8393 10.3887 29.1024 11.5808 29.2173C13.1733 29.3842 14.7674 29.5361 16.3584 29.7168L17.5521 29.8482C17.9262 29.8958 18.295 29.8377 18.627 29.6782C19.2153 29.405 19.6258 28.8138 19.6885 28.1684L19.724 27.8703L20.3261 23.1045C20.8929 18.7041 21.528 13.2285 22.0467 8.79751Z" fill="black"/>
<path d="M21.4382 7.06709L13.5566 11.5888C13.4842 11.63 13.3945 11.6197 13.3351 11.5633L6.68171 5.3626C7.04161 5.16136 7.4669 5.06676 7.90846 5.11762L20.2934 6.54403C20.7383 6.59513 21.1323 6.78583 21.4382 7.06709Z" fill="#E1395D"/>
<path d="M21.4776 7.07123C19.5739 8.17526 17.403 9.44224 15.5342 10.6017C15.0143 10.9135 14.1812 11.434 13.6605 11.7282C13.5157 11.8238 13.3128 11.798 13.1954 11.6703L13.0897 11.5726C12.9586 11.4488 12.5983 11.1081 12.4624 10.9793C11.8937 10.4496 10.5744 9.11565 9.99654 8.55994C8.98023 7.55645 7.50411 6.28063 6.41358 5.33785C6.75945 5.115 7.15036 4.94776 7.56797 4.93355C7.85637 4.9091 8.24617 4.99297 8.52971 5.01824C10.39 5.2735 12.243 5.5895 14.1198 5.70365C15.3695 5.79108 16.6113 5.94656 17.8488 6.14009C18.4677 6.23485 19.0872 6.32647 19.7076 6.40807C19.9722 6.45043 20.3828 6.47758 20.6417 6.56159C20.9519 6.66889 21.265 6.81203 21.4776 7.07123ZM21.3993 7.06251C21.3646 7.05575 21.3609 7.05258 21.3239 7.02151C21.1158 6.85309 20.8718 6.72849 20.6135 6.65976C20.3677 6.58581 19.9534 6.5762 19.6923 6.54251C17.8233 6.3642 15.9446 6.26996 14.0906 5.95834C12.2369 5.64299 10.3607 5.52933 8.49107 5.35501L8.02448 5.30504C7.58104 5.23904 7.15487 5.29225 6.759 5.50007L6.7896 5.24699C7.76105 6.21228 9.08702 7.5602 10.1051 8.44407C11.0789 9.29662 12.5259 10.5713 13.4608 11.44C13.4633 11.4409 13.4672 11.4398 13.4699 11.4391L13.4886 11.4286L13.6117 11.3586C14.0546 11.1066 14.9019 10.6522 15.3595 10.4067C17.2936 9.38559 19.4928 8.14346 21.3993 7.06251Z" fill="black"/>
<path d="M18.1671 21.0046C17.8166 24.0476 15.0654 26.2302 12.0224 25.8798C8.9794 25.5293 6.79712 22.7784 7.14759 19.7355C7.49802 16.6928 10.2488 14.5098 13.2916 14.8602C16.3345 15.211 18.5175 17.962 18.1671 21.0046Z" fill="white"/>
<path d="M13.2417 15.7116C12.3097 15.6045 11.367 15.7761 10.5325 16.2047C9.69807 16.6333 9.00946 17.2997 8.55375 18.1197C8.09803 18.9397 7.89567 19.8763 7.97226 20.8113C8.04884 21.7462 8.40093 22.6375 8.98401 23.3724C9.56708 24.1072 10.355 24.6527 11.248 24.9398C12.1411 25.227 13.0992 25.2428 14.0013 24.9854C14.9034 24.7281 15.7089 24.209 16.316 23.4938C16.9231 22.7787 17.3046 21.8996 17.4121 20.9677C17.4833 20.3487 17.432 19.7218 17.261 19.1227C17.09 18.5236 16.8027 17.964 16.4154 17.4759C16.0282 16.9879 15.5486 16.5809 15.004 16.2781C14.4595 15.9754 13.8606 15.7829 13.2417 15.7116ZM15.805 19.6291C15.8032 19.6382 15.7995 19.6469 15.7943 19.6546C15.789 19.6623 15.7823 19.6688 15.7744 19.6738C15.7602 19.6824 15.7435 19.6859 15.727 19.6838C15.7236 19.6834 15.6148 19.6573 15.6148 19.6573C15.6058 19.6554 15.5973 19.6517 15.5897 19.6465C15.5821 19.6413 15.5757 19.6346 15.5708 19.6268C15.5658 19.6191 15.5624 19.6104 15.5609 19.6014C15.5593 19.5923 15.5595 19.583 15.5616 19.574C15.5616 19.574 15.5929 19.42 15.6021 19.3405C15.6598 18.8405 15.5276 18.3371 15.2315 17.93C15.1827 17.8606 15.1139 17.8076 15.0343 17.7781C14.9546 17.7486 14.868 17.7439 14.7856 17.7648C14.7033 17.7856 14.6293 17.8309 14.5733 17.8948C14.5173 17.9586 14.482 18.0379 14.4721 18.1223L14.0246 21.993C13.976 22.4109 13.8123 22.8071 13.5517 23.1374C13.2911 23.4677 12.9439 23.7191 12.5487 23.8636C12.2263 23.9823 11.8798 24.0207 11.5392 23.9754L11.5292 23.9742C11.2351 23.9406 10.9505 23.8493 10.6917 23.7056C10.4329 23.5619 10.205 23.3687 10.0209 23.1369C9.83684 22.905 9.70026 22.6392 9.61897 22.3546C9.53766 22.07 9.51325 21.7721 9.54712 21.4781C9.55724 21.3902 9.59242 21.2189 9.59242 21.2189C9.59389 21.2095 9.59741 21.2005 9.60272 21.1927C9.60803 21.1848 9.61498 21.1781 9.62313 21.1732C9.63732 21.1645 9.65407 21.161 9.67056 21.1632C9.67224 21.1634 9.78286 21.1888 9.78286 21.1888C9.80072 21.1932 9.81622 21.2043 9.82613 21.2198C9.83603 21.2353 9.83959 21.254 9.83606 21.2721C9.83597 21.2728 9.80388 21.4268 9.79473 21.5063C9.73704 22.0065 9.86965 22.51 10.1662 22.9169C10.2151 22.9862 10.2839 23.039 10.3635 23.0684C10.4431 23.0978 10.5297 23.1024 10.6119 23.0816C10.6942 23.0608 10.7682 23.0155 10.8242 22.9518C10.8802 22.8881 10.9155 22.8089 10.9256 22.7246L11.3713 18.8548C11.4202 18.4356 11.5848 18.0383 11.8468 17.7074C12.1088 17.3765 12.4578 17.1251 12.8546 16.9815C13.0132 16.9208 13.1794 16.8821 13.3484 16.8663C13.5176 16.8494 13.6881 16.8512 13.857 16.8715C14.0944 16.8979 14.3262 16.9615 14.5438 17.06C14.8856 17.2154 15.183 17.4539 15.4089 17.7538C15.7609 18.2233 15.9179 18.8107 15.8472 19.3933C15.8374 19.4727 15.805 19.6291 15.805 19.6291Z" fill="#08A081"/>
<path d="M21.0859 13.9229C24.2264 14.2846 27.0659 12.032 27.4276 8.89149C27.7892 5.75126 25.5362 2.9121 22.3957 2.55013C19.2554 2.18845 16.4164 4.44143 16.0548 7.58165C15.6931 10.7221 17.9453 13.5612 21.0859 13.9229Z" fill="white" stroke="black" stroke-width="0.148891" stroke-miterlimit="10"/>
<path d="M20.3948 11.0429C20.2391 11.025 20.1212 10.9689 20.0411 10.8748C19.9676 10.7753 19.9395 10.6508 19.9567 10.5011C19.9746 10.3455 20.03 10.2336 20.1228 10.1654C20.2215 10.0979 20.3487 10.0731 20.5044 10.091L21.5101 10.2069L22.018 5.79775L22.5747 5.86187L21.1626 6.50905C21.0413 6.5618 20.9304 6.57633 20.83 6.55263C20.7363 6.52364 20.6573 6.47208 20.5931 6.39796C20.5355 6.31853 20.5002 6.22955 20.4873 6.13101C20.4744 6.03246 20.4914 5.93737 20.5384 5.84572C20.592 5.74877 20.6795 5.67392 20.8008 5.62117L22.1259 5.01856C22.2539 4.96051 22.3805 4.91444 22.5058 4.88034C22.6317 4.84025 22.7456 4.82606 22.8473 4.83778C22.9731 4.85226 23.0737 4.90025 23.1492 4.98174C23.2254 5.05725 23.2546 5.17283 23.2367 5.32848L22.6596 10.3393L23.5755 10.4448C23.7312 10.4627 23.8464 10.5154 23.9213 10.6029C24.0021 10.691 24.0336 10.8129 24.0156 10.9686C23.9977 11.1242 23.939 11.2388 23.8396 11.3123C23.7461 11.3864 23.6215 11.4146 23.4659 11.3966L20.3948 11.0429Z" fill="#08A081"/>
</svg>
