<svg width="39" height="44" viewBox="0 0 39 44" fill="none" xmlns="http://www.w3.org/2000/svg">
<path d="M29.7688 15.0538L22.0796 39.0248C21.6367 40.4057 20.1579 41.1662 18.7789 40.7239L3.49785 35.8222C2.11886 35.3798 1.35837 33.9011 1.80133 32.5201L9.49051 8.54915C9.75809 7.71499 10.4054 7.10674 11.1803 6.85424C11.6851 6.69024 12.2458 6.67726 12.7906 6.85202L28.0717 11.7537C28.6204 11.9297 29.0703 12.2692 29.3862 12.7008C29.8657 13.3558 30.0351 14.2237 29.7688 15.0538Z" fill="#DA0735"/>
<path d="M29.8174 15.0696C28.0568 20.5486 25.9273 27.2936 24.2408 32.7612L22.4169 38.6697L22.3003 39.0382C22.0237 39.9755 21.2392 40.7439 20.2867 40.9812C19.7482 41.1282 19.1565 41.0863 18.6422 40.9092L17.1726 40.4297C15.211 39.7971 13.2609 39.129 11.3047 38.4793C9.84764 37.9796 6.89765 37.0172 5.4333 36.5401L3.96309 36.0625C3.20033 35.8695 2.44082 35.4942 2.01146 34.8005C1.57149 34.1218 1.44742 33.2577 1.68168 32.4825L2.58031 29.5239C2.87815 28.5372 3.17863 27.5513 3.49023 26.569C5.35211 20.5371 7.51851 14.6035 9.34728 8.56137C9.73794 7.0693 11.4713 6.16535 12.9217 6.68797C15.3281 7.44122 17.8929 8.25906 20.2747 9.06937L26.1367 11.0381C26.6249 11.2165 27.8643 11.5862 28.3397 11.7819C29.5763 12.3019 30.255 13.7996 29.8174 15.0696ZM29.7209 15.0386C30.1274 13.8244 29.4789 12.3834 28.2854 11.9075C27.8307 11.7424 26.5688 11.3652 26.0813 11.2106C22.0042 9.98629 16.8012 8.38191 12.8017 7.06201C11.2965 6.51264 9.81727 7.48684 9.47752 9.00886C7.50442 14.8694 5.84407 20.8299 3.89044 26.6971C3.57248 27.6774 3.24342 28.6542 2.91171 29.63L1.92192 32.5592C1.68341 33.2645 1.77808 34.0631 2.18027 34.6916C2.58679 35.3552 3.28297 35.7011 4.01606 35.8973L5.48978 36.364C6.961 36.827 9.91721 37.7585 11.3937 38.202C13.3628 38.8114 15.3376 39.4023 17.3012 40.0288L18.7755 40.4936C19.236 40.6473 19.7162 40.6663 20.1754 40.548C20.9866 40.3503 21.6529 39.7065 21.8937 38.9074L22.0132 38.5398L23.9665 32.6729C25.7839 27.2585 27.9566 20.5037 29.7209 15.0386Z" fill="black"/>
<path d="M29.3871 12.7018L18.3031 16.4381C18.2014 16.472 18.0908 16.4365 18.0298 16.3504L11.1812 6.85525C11.686 6.69125 12.2467 6.67827 12.7915 6.85303L28.0725 11.7547C28.6215 11.9306 29.0712 12.2701 29.3871 12.7018Z" fill="#E1395D"/>
<path d="M29.4358 12.7169C26.7557 13.6343 23.6974 14.6906 21.0475 15.6868C20.3129 15.9503 19.1306 16.399 18.3995 16.64C18.1928 16.7245 17.943 16.6411 17.8267 16.4505L17.7177 16.3007C17.5832 16.1116 17.2135 15.5912 17.0742 15.3945C16.4888 14.5833 15.1569 12.5687 14.5663 11.7223C13.5343 10.2008 11.9898 8.2203 10.8489 6.75686C11.3414 6.56206 11.8768 6.44875 12.4077 6.53537C12.778 6.5767 13.2492 6.78019 13.6009 6.88308C15.8859 7.6711 18.1465 8.534 20.4877 9.148C22.0438 9.57128 23.5728 10.0785 25.087 10.6327C25.8448 10.9073 26.604 11.178 27.3669 11.4364C27.6905 11.5561 28.202 11.6932 28.508 11.8641C28.8728 12.0772 29.2323 12.3364 29.4358 12.7169ZM29.3392 12.6862C29.297 12.669 29.2932 12.6641 29.2542 12.6156C29.0337 12.3509 28.7568 12.1324 28.4477 11.981C28.1559 11.8261 27.6352 11.7102 27.3139 11.6023C24.9987 10.9092 22.6501 10.3199 20.3871 9.46228C18.1255 8.60004 15.7848 7.9868 13.4678 7.29863L12.8911 7.11872C12.3477 6.92437 11.7963 6.88486 11.2444 7.04817L11.3464 6.73627C12.3314 8.19832 13.6682 10.2323 14.7324 11.6032C15.7486 12.9235 17.2566 14.8952 18.2195 16.2262C18.2225 16.2279 18.2277 16.2275 18.2313 16.2273L18.2575 16.2187L18.4305 16.1612C19.0527 15.9539 20.2364 15.5922 20.8757 15.3968C23.5734 14.5917 26.6613 13.5738 29.3392 12.6862Z" fill="black"/>
<path d="M21.7672 29.4804C20.5629 33.2349 16.5425 35.3021 12.788 34.0977C9.0334 32.8934 6.96658 28.8736 8.17091 25.1191C9.37514 21.3649 13.395 19.2972 17.1493 20.5014C20.9037 21.7061 22.9715 25.7262 21.7672 29.4804Z" fill="white"/>
<path d="M16.8727 21.5632C15.7227 21.1945 14.4894 21.1752 13.3284 21.5075C12.1675 21.8398 11.1312 22.5089 10.3505 23.4301C9.56976 24.3514 9.07975 25.4834 8.94239 26.6831C8.80502 27.8828 9.02646 29.0964 9.57872 30.1702C10.131 31.2441 10.9893 32.1301 12.045 32.7162C13.1008 33.3024 14.3066 33.5623 15.5101 33.4631C16.7136 33.364 17.8607 32.9102 18.8063 32.1592C19.7519 31.4082 20.4536 30.3937 20.8226 29.2439C21.0676 28.4802 21.1597 27.6758 21.0938 26.8765C21.0279 26.0772 20.8052 25.2987 20.4384 24.5855C20.0716 23.8722 19.5679 23.2382 18.9561 22.7197C18.3443 22.2011 17.6363 21.8081 16.8727 21.5632ZM19.1286 27.1513C19.124 27.1624 19.1172 27.1725 19.1086 27.1808C19.1001 27.1892 19.0899 27.1958 19.0787 27.2002C19.0586 27.2074 19.0366 27.2076 19.0163 27.2009C19.0122 27.1996 18.8813 27.1394 18.8813 27.1394C18.8704 27.1347 18.8606 27.1279 18.8523 27.1194C18.8441 27.1109 18.8376 27.1009 18.8333 27.0898C18.829 27.0788 18.8269 27.067 18.8272 27.0552C18.8275 27.0434 18.8301 27.0317 18.835 27.0209C18.835 27.0209 18.9131 26.8342 18.9446 26.7362C19.1427 26.1193 19.1017 25.4505 18.8298 24.8624C18.7855 24.7625 18.7119 24.6784 18.6187 24.6212C18.5256 24.564 18.4173 24.5364 18.3082 24.5421C18.199 24.5478 18.0942 24.5865 18.0075 24.6531C17.9208 24.7197 17.8564 24.811 17.8227 24.915L16.2886 29.6905C16.1227 30.206 15.8168 30.6653 15.405 31.0171C14.9933 31.3689 14.4919 31.5994 13.9568 31.683C13.52 31.7521 13.0729 31.7138 12.6542 31.5713L12.6418 31.5673C12.2789 31.4512 11.9424 31.2648 11.6516 31.0186C11.3608 30.7723 11.1213 30.4712 10.947 30.1325C10.7726 29.7937 10.6667 29.4238 10.6353 29.0441C10.6039 28.6644 10.6476 28.2822 10.764 27.9193C10.7988 27.811 10.8861 27.6034 10.8861 27.6034C10.8903 27.5919 10.897 27.5815 10.9057 27.5729C10.9143 27.5642 10.9248 27.5576 10.9363 27.5534C10.9564 27.546 10.9784 27.5457 10.9987 27.5527C11.0007 27.5534 11.1341 27.6131 11.1341 27.6131C11.1555 27.6231 11.1723 27.641 11.1809 27.6631C11.1896 27.6851 11.1894 27.7097 11.1804 27.7316C11.1801 27.7325 11.101 27.9189 11.0696 28.017C10.8715 28.6341 10.9129 29.3031 11.1855 29.8911C11.2299 29.9908 11.3036 30.0748 11.3967 30.1318C11.4898 30.1888 11.598 30.2163 11.7071 30.2106C11.8161 30.205 11.9209 30.1663 12.0076 30.0999C12.0942 30.0334 12.1587 29.9423 12.1925 29.8385L13.7241 25.0637C13.8907 24.5466 14.1981 24.0861 14.6117 23.7339C15.0254 23.3817 15.529 23.1517 16.066 23.0696C16.2815 23.0328 16.5009 23.0255 16.7184 23.0479C16.9362 23.0689 17.1511 23.1138 17.3592 23.1817C17.6524 23.2744 17.9291 23.4128 18.1793 23.5917C18.5719 23.8735 18.8877 24.2491 19.0978 24.6842C19.4248 25.3653 19.476 26.1462 19.2408 26.8641C19.2086 26.962 19.1286 27.1513 19.1286 27.1513Z" fill="#08A081"/>
<path d="M32.0726 6.34663L32.0726 6.34663C28.3731 5.15994 24.4119 7.19752 23.2252 10.8969C22.0385 14.5966 24.0751 18.5578 27.7749 19.7446C31.4747 20.9314 35.4364 18.8943 36.6232 15.1946C37.8098 11.4952 35.7723 7.53372 32.0726 6.34663Z" fill="white" stroke="black" stroke-width="0.174997" stroke-miterlimit="10"/>
<path d="M25.5092 15.0111C25.3648 14.9648 25.2634 14.8894 25.205 14.7849C25.154 14.6766 25.1507 14.5531 25.1952 14.4142C25.2416 14.2698 25.3152 14.174 25.4161 14.1267C25.5226 14.0812 25.648 14.0816 25.7925 14.128L26.7256 14.4273L28.0378 10.3364L28.5544 10.5021L27.0918 10.8508C26.9667 10.878 26.8587 10.871 26.7678 10.8296C26.6843 10.7844 26.619 10.7206 26.5719 10.6381C26.5322 10.5518 26.5155 10.4607 26.5218 10.3647C26.5281 10.2687 26.5621 10.1816 26.624 10.1034C26.6931 10.0215 26.7903 9.96688 26.9154 9.93963L28.287 9.61691C28.4195 9.58589 28.5484 9.56598 28.6737 9.55718C28.8009 9.54283 28.9116 9.55079 29.0061 9.58108C29.1227 9.6185 29.2092 9.683 29.2656 9.7746C29.3238 9.86064 29.3297 9.97587 29.2834 10.1203L27.7921 14.7694L28.6419 15.042C28.7863 15.0883 28.8858 15.16 28.9404 15.2572C29.0006 15.3561 29.0075 15.4778 28.9612 15.6222C28.9149 15.7666 28.8376 15.8644 28.7293 15.9154C28.6266 15.9682 28.503 15.9715 28.3586 15.9251L25.5092 15.0111ZM31.7916 17.0999C31.625 17.0464 31.5087 16.9601 31.4428 16.8409C31.3787 16.7162 31.3742 16.5678 31.4294 16.3956L31.6379 15.7457L29.58 15.0856C29.4078 15.0304 29.2805 14.9497 29.1981 14.8437C29.1213 14.7394 29.1079 14.6095 29.1577 14.454C29.1862 14.3651 29.2396 14.275 29.3179 14.1837C29.4018 14.0942 29.5324 13.983 29.7098 13.85L33.0537 11.2746C33.1689 11.1829 33.2835 11.1216 33.3975 11.0908C33.5116 11.06 33.6297 11.0642 33.7519 11.1034C33.8963 11.1497 34.0015 11.2325 34.0674 11.3516C34.1351 11.4652 34.1395 11.6137 34.0807 11.797L32.9877 15.2046L33.3959 15.3356C33.557 15.3873 33.6639 15.4645 33.7168 15.5672C33.7769 15.6661 33.7838 15.7878 33.7375 15.9322C33.6912 16.0766 33.6139 16.1743 33.5056 16.2254C33.4047 16.2726 33.2737 16.2704 33.1126 16.2188L32.7044 16.0878L32.4959 16.7377C32.4407 16.9099 32.3507 17.028 32.226 17.0922C32.1031 17.1507 31.9583 17.1533 31.7916 17.0999ZM31.9212 14.8626L32.755 12.2631L32.9967 12.3406L30.1057 14.5926L30.1965 14.3093L31.9212 14.8626Z" fill="#08A081"/>
</svg>
