<svg width="38" height="49" viewBox="0 0 38 49" fill="none" xmlns="http://www.w3.org/2000/svg">
<path d="M28.649 11.1513V44.6675C28.649 46.5983 27.0835 48.1638 25.1554 48.1638H3.78946C1.86137 48.1638 0.295898 46.5983 0.295898 44.6675V11.1513C0.295898 9.98495 0.869196 8.9506 1.74888 8.31538C2.32217 7.90218 3.0277 7.65771 3.78946 7.65771H25.1554C25.9226 7.65771 26.6311 7.90514 27.2071 8.32377C28.0813 8.95923 28.649 9.99062 28.649 11.1513Z" fill="#DA0735"/>
<path d="M28.7166 11.1514C28.7127 18.8134 28.7559 28.2304 28.8412 35.8478L28.9317 44.08L28.9337 44.5946C28.9643 45.8953 28.2822 47.1885 27.1711 47.8767C26.5483 48.282 25.7811 48.4695 25.0571 48.4542L22.999 48.4439C20.2548 48.4397 17.5109 48.3856 14.7668 48.3575C12.7163 48.3166 8.5851 48.2961 6.53465 48.2867L4.47655 48.2791C3.4311 48.3447 2.31558 48.1777 1.48919 47.4729C0.65539 46.7913 0.146724 45.7463 0.128469 44.6683L0.0645781 40.5521C0.0408963 39.1801 0.0209148 37.808 0.0164745 36.4359C-0.0760327 28.0318 0.257487 19.6285 0.118849 11.2249C0.00734732 9.17445 1.83726 7.32357 3.88845 7.39634C7.2456 7.37266 10.8297 7.36649 14.1787 7.4252L22.4109 7.53719C23.1023 7.56482 24.8239 7.52955 25.5063 7.58431C27.2854 7.74071 28.7549 9.36341 28.7166 11.1514ZM28.5817 11.1514C28.6032 9.44679 27.1951 7.88355 25.4885 7.76563C24.8449 7.74121 23.0917 7.77624 22.4109 7.77846C16.7442 7.88429 9.49562 7.96618 3.88845 7.91931C1.75684 7.83495 0.277715 9.67153 0.465936 11.7392C0.347774 19.9714 0.666738 28.203 0.575958 36.4357C0.571518 37.8078 0.551536 39.1798 0.527854 40.5519L0.464209 44.6678C0.448668 45.659 0.893442 46.6329 1.65891 47.2662C2.44411 47.9421 3.46736 48.0975 4.47655 48.0482L6.53465 48.0405C8.58806 48.0292 12.7146 48.008 14.7668 47.9697C17.5109 47.9416 20.2548 47.8876 22.999 47.8834L25.0571 47.873C25.7034 47.8807 26.3198 47.7095 26.8539 47.3727C27.8019 46.7923 28.3848 45.7052 28.3651 44.5941L28.3671 44.0795L28.4576 35.8473C28.5597 28.2442 28.5674 18.7972 28.5817 11.1514Z" fill="black"/>
<path d="M27.2067 8.32413L14.6744 17.5682C14.5592 17.6526 14.4045 17.6526 14.2923 17.5682L1.74854 8.31574C2.32183 7.90254 3.02735 7.65808 3.78912 7.65808H25.1551C25.9225 7.65783 26.6307 7.90526 27.2067 8.32413Z" fill="#E1395D"/>
<path d="M27.2745 8.32408C24.2499 10.5771 20.8022 13.1599 17.8479 15.5004C17.0237 16.1332 15.7074 17.1828 14.8785 17.7857C14.6508 17.9769 14.3003 17.9727 14.0753 17.7783L13.8762 17.6328C13.6288 17.4477 12.9484 16.9383 12.6919 16.7457C11.6198 15.9553 9.11198 13.9428 8.01916 13.11C6.09205 11.6008 3.32868 9.7181 1.28711 8.32679C1.83228 7.87955 2.46503 7.51815 3.17327 7.41208C3.65949 7.3139 4.3396 7.38026 4.8273 7.36768C8.04457 7.43749 11.2614 7.61215 14.4791 7.43848C16.6241 7.34227 18.7687 7.36348 20.9137 7.45031C21.986 7.49028 23.0586 7.52481 24.1309 7.54208C24.5898 7.56231 25.2941 7.52803 25.7514 7.62029C26.3006 7.74215 26.8618 7.92445 27.2745 8.32408ZM27.1395 8.32457C27.0791 8.31988 27.0722 8.3152 27.0031 8.26956C26.6158 8.02361 26.176 7.85932 25.7226 7.79296C25.2896 7.71526 24.5824 7.78014 24.1312 7.77397C20.9142 7.83687 17.6971 8.04483 14.4794 7.87782C11.2616 7.7044 8.04482 7.87881 4.82754 7.94862L4.02335 7.95504C3.25542 7.92963 2.54027 8.10379 1.90703 8.53524L1.9095 8.09836C3.75273 9.55134 6.2746 11.5862 8.18124 12.8915C10.0065 14.152 12.72 16.0384 14.4821 17.3343C14.4865 17.3353 14.4929 17.3325 14.4974 17.3308L14.5272 17.3094L14.7231 17.166C15.4276 16.6502 16.7812 15.7103 17.5121 15.2027C20.6048 13.0849 24.1055 10.5388 27.1395 8.32457Z" fill="black"/>
<path d="M24.3692 32.6952C24.3692 37.9448 20.1131 42.2004 14.8634 42.2004C9.61379 42.2004 5.35889 37.9448 5.35889 32.6952C5.35889 27.4462 9.61421 23.1901 14.8634 23.1901C20.1131 23.1905 24.3692 27.4462 24.3692 32.6952Z" fill="white"/>
<path d="M14.9457 24.6492C13.338 24.6495 11.7665 25.1265 10.4299 26.0199C9.09322 26.9133 8.05149 28.1829 7.43639 29.6683C6.82129 31.1537 6.66043 32.7881 6.97416 34.3649C7.28788 35.9418 8.0621 37.3902 9.19893 38.527C10.3357 39.6638 11.7841 40.438 13.361 40.7518C14.9378 41.0655 16.5722 40.9046 18.0576 40.2895C19.543 39.6744 20.8126 38.6327 21.706 37.296C22.5994 35.9594 23.0764 34.3879 23.0767 32.7802C23.0767 31.7124 22.8664 30.6551 22.4578 29.6686C22.0492 28.6821 21.4502 27.7857 20.6952 27.0307C19.9402 26.2757 19.0438 25.6767 18.0573 25.2681C17.0708 24.8595 16.0135 24.6492 14.9457 24.6492ZM20.0782 30.8162C20.0768 30.8321 20.0723 30.8476 20.0649 30.8618C20.0574 30.8759 20.0472 30.8884 20.0348 30.8985C20.0122 30.9157 19.9845 30.925 19.956 30.9247C19.9503 30.9247 19.7598 30.9016 19.7598 30.9016C19.7441 30.9001 19.7289 30.8956 19.715 30.8881C19.7011 30.8807 19.6888 30.8706 19.6788 30.8583C19.6689 30.8461 19.6615 30.832 19.657 30.8169C19.6526 30.8018 19.6512 30.7859 19.6529 30.7703C19.6529 30.7703 19.676 30.5018 19.676 30.3647C19.6763 29.5021 19.3524 28.6709 18.7685 28.0359C18.6717 27.9273 18.5442 27.8506 18.4029 27.816C18.2616 27.7813 18.1131 27.7904 17.977 27.842C17.8409 27.8937 17.7238 27.9854 17.641 28.105C17.5581 28.2247 17.5136 28.3666 17.5132 28.5122L17.5104 35.1901C17.5096 35.9112 17.3086 36.6178 16.9297 37.2313C16.5507 37.8447 16.0088 38.3409 15.3644 38.6644C14.8387 38.9296 14.2564 39.0629 13.6676 39.0526H13.6503C13.143 39.0529 12.6406 38.9534 12.1718 38.7595C11.703 38.5656 11.277 38.2813 10.9182 37.9227C10.5593 37.5641 10.2746 37.1383 10.0804 36.6697C9.88619 36.201 9.78622 35.6987 9.78622 35.1914C9.78622 35.0399 9.81251 34.7412 9.81251 34.7412C9.81319 34.7249 9.81741 34.709 9.82492 34.6945C9.8324 34.6801 9.84294 34.6674 9.85584 34.6574C9.8783 34.6399 9.90613 34.6306 9.93464 34.6312C9.93754 34.6312 10.1309 34.6527 10.1309 34.6527C10.1621 34.6567 10.1907 34.6725 10.2106 34.697C10.2305 34.7214 10.2402 34.7526 10.2378 34.784C10.2378 34.7853 10.2133 35.0538 10.2133 35.1909C10.2132 36.0538 10.5377 36.8851 11.1224 37.5197C11.2193 37.628 11.3468 37.7045 11.488 37.739C11.6293 37.7734 11.7777 37.7643 11.9136 37.7127C12.0495 37.6611 12.1666 37.5696 12.2495 37.4501C12.3323 37.3306 12.377 37.1888 12.3777 37.0435V30.3674C12.3786 29.644 12.581 28.9353 12.9622 28.3206C13.3433 27.7058 13.8882 27.2095 14.5357 26.8871C14.7939 26.7527 15.0691 26.6542 15.3539 26.5942C15.6386 26.5322 15.9293 26.5018 16.2207 26.5033C16.6301 26.5016 17.0373 26.5644 17.4271 26.6895C18.0394 26.8871 18.5925 27.2348 19.0359 27.7011C19.7273 28.4315 20.1098 29.4007 20.1036 30.4065C20.1026 30.5436 20.0782 30.8162 20.0782 30.8162Z" fill="#08A081"/>
<path d="M28.0686 18.9724C33.0621 18.9724 37.1106 14.9244 37.1106 9.93105C37.1106 4.93806 33.0621 0.890083 28.0686 0.889655C23.0755 0.889655 19.0278 4.93809 19.0278 9.93105C19.0278 14.9244 23.0751 18.9724 28.0686 18.9724Z" fill="white" stroke="black" stroke-width="0.22069" stroke-miterlimit="10"/>
<path d="M23.726 13.5153C23.5347 13.5153 23.3839 13.4638 23.2735 13.3608C23.1706 13.2504 23.1191 13.1033 23.1191 12.9194C23.1191 12.7281 23.1706 12.5847 23.2735 12.4891C23.3839 12.3934 23.5347 12.3456 23.726 12.3456H24.9618V6.92767H25.646L24.0239 7.90974C23.8841 7.99066 23.7517 8.02376 23.6267 8.00905C23.5089 7.98698 23.406 7.93548 23.3177 7.85457C23.2368 7.76629 23.1816 7.6633 23.1522 7.5456C23.1227 7.4279 23.1301 7.3102 23.1742 7.1925C23.2257 7.06744 23.3214 6.96445 23.4611 6.88353L24.9839 5.96767C25.131 5.87939 25.2781 5.80583 25.4253 5.74698C25.5724 5.68077 25.7085 5.64767 25.8335 5.64767C25.988 5.64767 26.1168 5.69181 26.2198 5.78008C26.3227 5.861 26.3742 5.99709 26.3742 6.18836V12.3456H27.4998C27.691 12.3456 27.8381 12.3934 27.9411 12.4891C28.0515 12.5847 28.1067 12.7281 28.1067 12.9194C28.1067 13.1107 28.0515 13.2578 27.9411 13.3608C27.8381 13.4638 27.691 13.5153 27.4998 13.5153H23.726ZM28.9851 13.5153C28.7497 13.5153 28.5768 13.4638 28.4665 13.3608C28.3635 13.2504 28.312 13.0923 28.312 12.8863C28.312 12.7612 28.3451 12.6399 28.4113 12.5222C28.4775 12.4045 28.5731 12.2794 28.6982 12.147L30.9161 9.7856C31.2545 9.4325 31.4973 9.1125 31.6444 8.8256C31.7915 8.53135 31.8651 8.23709 31.8651 7.94284C31.8651 7.57503 31.7474 7.29548 31.512 7.10422C31.284 6.91296 30.9492 6.81732 30.5079 6.81732C30.2577 6.81732 30.0076 6.8541 29.7575 6.92767C29.5074 6.99388 29.2536 7.11158 28.9961 7.28077C28.8637 7.36905 28.7387 7.40583 28.621 7.39112C28.5106 7.3764 28.4113 7.32859 28.323 7.24767C28.2421 7.16675 28.1869 7.06744 28.1575 6.94974C28.1281 6.83204 28.1318 6.71433 28.1686 6.59663C28.2127 6.47158 28.301 6.36491 28.4334 6.27663C28.7497 6.0633 29.1028 5.90146 29.4927 5.79112C29.8899 5.68077 30.2872 5.6256 30.6844 5.6256C31.2435 5.6256 31.7143 5.7102 32.0968 5.87939C32.4794 6.04859 32.7699 6.29502 32.9686 6.6187C33.1672 6.94238 33.2665 7.33594 33.2665 7.79939C33.2665 8.10836 33.215 8.40997 33.112 8.70422C33.0164 8.99847 32.8656 9.29641 32.6596 9.59801C32.461 9.89962 32.1998 10.2196 31.8761 10.558L29.8017 12.7208V12.3456H33.0458C33.2444 12.3456 33.3952 12.3934 33.4982 12.4891C33.6012 12.5847 33.6527 12.7281 33.6527 12.9194C33.6527 13.1107 33.6012 13.2578 33.4982 13.3608C33.3952 13.4638 33.2444 13.5153 33.0458 13.5153H28.9851Z" fill="#08A081"/>
</svg>
