<svg width="33" height="43" viewBox="0 0 33 43" fill="none" xmlns="http://www.w3.org/2000/svg">
<path d="M25.6625 9.06232V39.0846C25.6625 40.8141 24.2602 42.2164 22.5331 42.2164H3.39451C1.66741 42.2164 0.265137 40.8141 0.265137 39.0846V9.06232C0.265137 8.01758 0.77867 7.09106 1.56665 6.52206C2.08018 6.15194 2.71215 5.93295 3.39451 5.93295H22.5331C23.2203 5.93295 23.8549 6.15459 24.3709 6.52957C25.154 7.09879 25.6625 8.02266 25.6625 9.06232Z" fill="#DA0735"/>
<path d="M25.723 9.06232C25.7195 15.9256 25.7581 24.3609 25.8346 31.1842L25.9157 38.5582L25.9175 39.0192C25.9449 40.1843 25.3339 41.3427 24.3386 41.9592C23.7807 42.3222 23.0935 42.4901 22.4449 42.4764L20.6014 42.4672C18.1433 42.4634 15.6855 42.415 13.2274 42.3898C11.3907 42.3531 7.69013 42.3348 5.85343 42.3264L4.00988 42.3196C3.07342 42.3783 2.07419 42.2287 1.33394 41.5974C0.587067 40.9869 0.131429 40.0509 0.115077 39.0852L0.057846 35.3981C0.036633 34.1691 0.0187345 32.9401 0.014757 31.711C-0.0681065 24.183 0.230644 16.6557 0.10646 9.12817C0.00658138 7.29148 1.64573 5.63354 3.48309 5.69873C6.49027 5.67752 9.70073 5.67199 12.7006 5.72458L20.0746 5.8249C20.694 5.84965 22.2361 5.81805 22.8473 5.86711C24.4409 6.0072 25.7573 7.46074 25.723 9.06232ZM25.6021 9.06232C25.6214 7.53543 24.3601 6.13515 22.8314 6.02952C22.2549 6.00765 20.6845 6.03903 20.0746 6.04101C14.9987 6.13581 8.50573 6.20917 3.48309 6.16718C1.5737 6.09161 0.248764 7.73673 0.417364 9.5889C0.31152 16.9629 0.597233 24.3364 0.515916 31.7108C0.511939 32.9398 0.49404 34.1689 0.472827 35.3979L0.415816 39.0848C0.401895 39.9726 0.800304 40.845 1.48597 41.4123C2.18932 42.0177 3.1059 42.1569 4.00988 42.1127L5.85343 42.1059C7.69278 42.0957 11.3892 42.0767 13.2274 42.0424C15.6855 42.0173 18.1433 41.9689 20.6014 41.9651L22.4449 41.9558C23.0239 41.9627 23.5761 41.8093 24.0545 41.5077C24.9037 40.9878 25.4258 40.014 25.4081 39.0187L25.4099 38.5578L25.491 31.1838C25.5825 24.3733 25.5893 15.9111 25.6021 9.06232Z" fill="black"/>
<path d="M24.3712 6.52972L13.1453 14.8101C13.0421 14.8857 12.9035 14.8857 12.803 14.8101L1.56689 6.52221C2.08043 6.15208 2.7124 5.93311 3.39475 5.93311H22.5334C23.2208 5.93288 23.8552 6.15451 24.3712 6.52972Z" fill="#E1395D"/>
<path d="M24.4316 6.52957C21.7223 8.54768 18.634 10.8612 15.9877 12.9578C15.2494 13.5246 14.0703 14.4648 13.3279 15.0048C13.1239 15.1761 12.8099 15.1723 12.6084 14.9982L12.4301 14.8678C12.2084 14.7021 11.599 14.2458 11.3692 14.0732C10.4088 13.3653 8.16247 11.5626 7.18358 10.8166C5.45736 9.46471 2.98206 7.77827 1.15332 6.532C1.64166 6.13138 2.20845 5.80766 2.84285 5.71264C3.27838 5.6247 3.8876 5.68414 4.32445 5.67287C7.20634 5.7354 10.0878 5.89185 12.9701 5.73629C14.8914 5.65011 16.8125 5.66911 18.7339 5.74689C19.6944 5.78269 20.6552 5.81363 21.6158 5.82909C22.0268 5.84721 22.6576 5.8165 23.0673 5.89915C23.5592 6.0083 24.0619 6.1716 24.4316 6.52957ZM24.3107 6.53001C24.2566 6.52581 24.2504 6.52161 24.1885 6.48073C23.8416 6.26043 23.4476 6.11326 23.0415 6.05382C22.6537 5.98421 22.0201 6.04233 21.616 6.03681C18.7343 6.09315 15.8527 6.27943 12.9703 6.12983C10.088 5.97449 7.20656 6.13072 4.32468 6.19325L3.60431 6.199C2.91644 6.17624 2.27585 6.33224 1.70862 6.71872L1.71083 6.32738C3.36191 7.62889 5.62088 9.45167 7.32876 10.6208C8.96371 11.75 11.3944 13.4397 12.9728 14.6005C12.9767 14.6014 12.9825 14.5989 12.9865 14.5974L13.0132 14.5782L13.1886 14.4498C13.8197 13.9877 15.0322 13.1458 15.6869 12.6911C18.4572 10.7941 21.593 8.51343 24.3107 6.53001Z" fill="black"/>
<path d="M21.8289 28.3603C21.8289 33.0626 18.0164 36.8746 13.314 36.8746C8.61164 36.8746 4.80029 33.0626 4.80029 28.3603C4.80029 23.6584 8.61202 19.846 13.314 19.846C18.0164 19.8464 21.8289 23.6584 21.8289 28.3603Z" fill="white"/>
<path d="M13.3875 21.153C11.9474 21.1533 10.5397 21.5806 9.34238 22.3808C8.14508 23.1811 7.21195 24.3184 6.66097 25.649C6.10999 26.9795 5.96591 28.4435 6.24693 29.856C6.52795 31.2684 7.22146 32.5658 8.23977 33.5841C9.25808 34.6024 10.5555 35.2959 11.9679 35.577C13.3803 35.858 14.8444 35.7139 16.1749 35.1629C17.5055 34.6119 18.6428 33.6788 19.443 32.4815C20.2433 31.2842 20.6706 29.8765 20.6709 28.4364C20.6709 27.4799 20.4825 26.5328 20.1164 25.6492C19.7504 24.7655 19.2139 23.9626 18.5376 23.2863C17.8613 22.61 17.0584 22.0735 16.1747 21.7074C15.291 21.3414 14.3439 21.153 13.3875 21.153ZM17.9849 26.6772C17.9837 26.6914 17.9796 26.7053 17.973 26.718C17.9663 26.7306 17.9571 26.7418 17.9461 26.7508C17.9258 26.7663 17.901 26.7746 17.8755 26.7744C17.8703 26.7744 17.6997 26.7537 17.6997 26.7537C17.6857 26.7523 17.672 26.7482 17.6595 26.7416C17.6471 26.7349 17.6361 26.7259 17.6272 26.7149C17.6183 26.704 17.6116 26.6913 17.6076 26.6778C17.6036 26.6643 17.6024 26.6501 17.604 26.636C17.604 26.636 17.6247 26.3956 17.6247 26.2728C17.6249 25.5001 17.3348 24.7555 16.8118 24.1867C16.7251 24.0894 16.6109 24.0207 16.4843 23.9897C16.3577 23.9587 16.2246 23.9668 16.1028 24.013C15.9809 24.0593 15.8759 24.1414 15.8017 24.2486C15.7276 24.3558 15.6877 24.483 15.6873 24.6133L15.6848 30.5951C15.6841 31.241 15.504 31.874 15.1646 32.4235C14.8252 32.973 14.3398 33.4174 13.7625 33.7072C13.2917 33.9448 12.77 34.0642 12.2426 34.0549H12.2271C11.7727 34.0553 11.3226 33.966 10.9027 33.7924C10.4828 33.6187 10.1012 33.364 9.77978 33.0428C9.45833 32.7216 9.20334 32.3402 9.02938 31.9204C8.85539 31.5006 8.76584 31.0507 8.76584 30.5963C8.76584 30.4605 8.78939 30.193 8.78939 30.193C8.79 30.1784 8.79378 30.1642 8.80051 30.1512C8.80721 30.1382 8.81665 30.1269 8.8282 30.1179C8.84832 30.1022 8.87325 30.0939 8.89879 30.0944C8.90139 30.0944 9.07455 30.1137 9.07455 30.1137C9.10256 30.1173 9.12815 30.1315 9.14599 30.1534C9.1638 30.1753 9.17252 30.2032 9.17031 30.2314C9.17031 30.2325 9.14841 30.473 9.14841 30.5958C9.14829 31.3687 9.43899 32.1134 9.96273 32.6818C10.0495 32.7789 10.1637 32.8474 10.2902 32.8782C10.4168 32.9091 10.5497 32.9009 10.6714 32.8547C10.7932 32.8085 10.8981 32.7265 10.9723 32.6195C11.0465 32.5125 11.0866 32.3855 11.0871 32.2552V26.2751C11.088 25.6272 11.2693 24.9923 11.6107 24.4417C11.9521 23.891 12.4402 23.4464 13.0202 23.1576C13.2515 23.0373 13.498 22.9491 13.7531 22.8953C14.0082 22.8398 14.2685 22.8125 14.5295 22.8139C14.8963 22.8123 15.261 22.8686 15.6102 22.9807C16.1587 23.1577 16.6541 23.4692 17.0513 23.8868C17.6706 24.541 18.0133 25.4093 18.0077 26.3102C18.0068 26.433 17.9849 26.6772 17.9849 26.6772Z" fill="#08A081"/>
<path d="M25.1423 0.997775H25.1423C21.2924 0.997775 18.1714 4.11935 18.1714 7.96921C18.1714 11.8194 21.2921 14.9406 25.1423 14.9406C28.9926 14.9406 32.1142 11.8194 32.1142 7.96921C32.1142 4.11933 28.9926 0.998104 25.1423 0.997775Z" fill="white" stroke="black" stroke-width="0.228572" stroke-miterlimit="10"/>
<path d="M25.2762 11.7332C24.6514 11.7332 24.1143 11.6456 23.6648 11.4704C23.2229 11.2875 22.88 11.0246 22.6362 10.6818C22.4 10.3389 22.2819 9.9275 22.2819 9.4475C22.2819 9.06654 22.3581 8.73131 22.5105 8.44178C22.6705 8.14464 22.8876 7.90464 23.1619 7.72178C23.4362 7.53892 23.7486 7.42464 24.099 7.37892V7.61892C23.6114 7.51226 23.219 7.27988 22.9219 6.92178C22.6324 6.55607 22.4876 6.12178 22.4876 5.61892C22.4876 5.16178 22.6019 4.77321 22.8305 4.45321C23.059 4.12559 23.3829 3.87797 23.8019 3.71035C24.2209 3.53511 24.7124 3.44749 25.2762 3.44749C25.8476 3.44749 26.3429 3.53511 26.7619 3.71035C27.181 3.87797 27.5048 4.12559 27.7333 4.45321C27.9619 4.77321 28.0762 5.16178 28.0762 5.61892C28.0762 5.95416 28.0076 6.26273 27.8705 6.54464C27.741 6.82654 27.5543 7.05892 27.3105 7.24178C27.0743 7.42464 26.7962 7.54654 26.4762 7.6075V7.37892C27.0095 7.45511 27.44 7.67988 27.7676 8.05321C28.1029 8.41892 28.2705 8.88369 28.2705 9.4475C28.2705 9.9275 28.1486 10.3389 27.9048 10.6818C27.6686 11.0246 27.3257 11.2875 26.8762 11.4704C26.4343 11.6456 25.901 11.7332 25.2762 11.7332ZM25.2762 10.5904C25.8171 10.5904 26.2248 10.4875 26.499 10.2818C26.7733 10.0684 26.9105 9.75607 26.9105 9.34464C26.9105 8.93321 26.7733 8.62464 26.499 8.41892C26.2248 8.21321 25.8171 8.11035 25.2762 8.11035C24.7429 8.11035 24.3352 8.21321 24.0533 8.41892C23.779 8.62464 23.6419 8.93321 23.6419 9.34464C23.6419 9.75607 23.779 10.0684 24.0533 10.2818C24.3352 10.4875 24.7429 10.5904 25.2762 10.5904ZM25.2762 6.9675C25.581 6.9675 25.84 6.92178 26.0533 6.83035C26.2667 6.7313 26.4305 6.59035 26.5448 6.40749C26.659 6.22464 26.7162 6.0113 26.7162 5.76749C26.7162 5.40178 26.5867 5.11607 26.3276 4.91035C26.0762 4.69702 25.7257 4.59035 25.2762 4.59035C24.8267 4.59035 24.4762 4.69702 24.2248 4.91035C23.9733 5.11607 23.8476 5.40178 23.8476 5.76749C23.8476 6.14083 23.9733 6.43416 24.2248 6.64749C24.4762 6.86083 24.8267 6.9675 25.2762 6.9675Z" fill="#08A081"/>
</svg>
