<svg width="33" height="43" viewBox="0 0 33 43" fill="none" xmlns="http://www.w3.org/2000/svg">
<path d="M26.163 8.95026V38.9725C26.163 40.702 24.7607 42.1043 23.0336 42.1043H3.89499C2.1679 42.1043 0.765625 40.702 0.765625 38.9725V8.95026C0.765625 7.90552 1.27916 6.979 2.06713 6.41C2.58067 6.03988 3.21264 5.82089 3.89499 5.82089H23.0336C23.7208 5.82089 24.3554 6.04253 24.8714 6.41751C25.6545 6.98673 26.163 7.9106 26.163 8.95026Z" fill="#DA0735"/>
<path d="M26.223 8.95027C26.2195 15.8136 26.2581 24.2489 26.3346 31.0722L26.4157 38.4462L26.4175 38.9071C26.4449 40.0723 25.8339 41.2306 24.8386 41.8471C24.2807 42.2102 23.5935 42.3781 22.9449 42.3644L21.1014 42.3551C18.6433 42.3514 16.1855 42.303 13.7274 42.2778C11.8907 42.2411 8.19013 42.2227 6.35343 42.2144L4.50988 42.2075C3.57342 42.2663 2.57419 42.1167 1.83394 41.4854C1.08707 40.8748 0.631429 39.9388 0.615077 38.9732L0.557846 35.2861C0.536633 34.057 0.518734 32.828 0.514757 31.599C0.431893 24.071 0.730644 16.5437 0.60646 9.01612C0.506581 7.17942 2.14573 5.52149 3.98309 5.58668C6.99027 5.56546 10.2007 5.55994 13.2006 5.61253L20.5746 5.71285C21.194 5.7376 22.7361 5.706 23.3473 5.75505C24.9409 5.89515 26.2573 7.34868 26.223 8.95027ZM26.1021 8.95027C26.1214 7.42337 24.8601 6.02309 23.3314 5.91747C22.7549 5.89559 21.1845 5.92697 20.5746 5.92896C15.4987 6.02376 9.00573 6.09712 3.98309 6.05513C2.0737 5.97956 0.748764 7.62468 0.917364 9.47685C0.81152 16.8508 1.09723 24.2243 1.01592 31.5988C1.01194 32.8278 0.99404 34.0568 0.972827 35.2859L0.915816 38.9727C0.901895 39.8606 1.3003 40.733 1.98597 41.3002C2.68932 41.9057 3.6059 42.0449 4.50988 42.0007L6.35343 41.9938C8.19278 41.9837 11.8892 41.9646 13.7274 41.9304C16.1855 41.9052 18.6433 41.8568 21.1014 41.8531L22.9449 41.8438C23.5239 41.8506 24.0761 41.6973 24.5545 41.3957C25.4037 40.8757 25.9258 39.9019 25.9081 38.9067L25.9099 38.4457L25.991 31.0717C26.0825 24.2612 26.0893 15.799 26.1021 8.95027Z" fill="black"/>
<path d="M24.8697 6.41767L13.6438 14.6981C13.5406 14.7736 13.402 14.7736 13.3015 14.6981L2.06543 6.41016C2.57896 6.04004 3.21094 5.82106 3.89329 5.82106H23.0319C23.7193 5.82084 24.3537 6.04247 24.8697 6.41767Z" fill="#E1395D"/>
<path d="M24.9306 6.41753C22.2213 8.43564 19.133 10.7492 16.4867 12.8457C15.7484 13.4125 14.5693 14.3528 13.8269 14.8928C13.6229 15.0641 13.3089 15.0603 13.1074 14.8862L12.9291 14.7558C12.7074 14.5901 12.098 14.1338 11.8682 13.9612C10.9079 13.2532 8.6615 11.4505 7.6826 10.7046C5.95639 9.35266 3.48109 7.66622 1.65234 6.41995C2.14069 6.01934 2.70747 5.69561 3.34188 5.6006C3.77741 5.51265 4.38662 5.57209 4.82348 5.56082C7.70536 5.62336 10.5868 5.77981 13.4691 5.62425C15.3905 5.53807 17.3116 5.55706 19.2329 5.63485C20.1934 5.67064 21.1542 5.70158 22.1148 5.71705C22.5258 5.73517 23.1567 5.70446 23.5663 5.7871C24.0582 5.89626 24.5609 6.05955 24.9306 6.41753ZM24.8097 6.41796C24.7556 6.41376 24.7494 6.40957 24.6875 6.36869C24.3406 6.14838 23.9466 6.00122 23.5405 5.94177C23.1527 5.87217 22.5192 5.93028 22.115 5.92476C19.2333 5.98111 16.3517 6.16738 13.4693 6.01779C10.587 5.86245 7.70558 6.01867 4.8237 6.08121L4.10334 6.08695C3.41546 6.06419 2.77487 6.2202 2.20764 6.60667L2.20985 6.21534C3.86093 7.51685 6.11991 9.33962 7.82778 10.5088C9.46273 11.6379 11.8934 13.3277 13.4718 14.4884C13.4758 14.4893 13.4815 14.4869 13.4855 14.4853L13.5122 14.4661L13.6877 14.3377C14.3188 13.8757 15.5312 13.0338 16.1859 12.579C18.9562 10.682 22.092 8.40139 24.8097 6.41796Z" fill="black"/>
<path d="M22.3294 28.2483C22.3294 32.9505 18.5169 36.7625 13.8145 36.7625C9.11212 36.7625 5.30078 32.9505 5.30078 28.2483C5.30078 23.5464 9.1125 19.734 13.8145 19.734C18.5169 19.7344 22.3294 23.5464 22.3294 28.2483Z" fill="white"/>
<path d="M13.888 21.041C12.4478 21.0412 11.0402 21.4685 9.84287 22.2688C8.64557 23.069 7.71244 24.2063 7.16146 25.5369C6.61048 26.8674 6.46639 28.3315 6.74741 29.7439C7.02844 31.1563 7.72195 32.4537 8.74026 33.472C9.75857 34.4904 11.056 35.1839 12.4684 35.4649C13.8808 35.7459 15.3449 35.6018 16.6754 35.0509C18.006 34.4999 19.1433 33.5667 19.9435 32.3694C20.7438 31.1721 21.1711 29.7645 21.1713 28.3243C21.1713 27.3679 20.983 26.4208 20.6169 25.5371C20.2509 24.6535 19.7144 23.8505 19.0381 23.1742C18.3618 22.4979 17.5589 21.9614 16.6752 21.5954C15.7915 21.2294 14.8444 21.041 13.888 21.041ZM18.4854 26.5651C18.4842 26.5794 18.4801 26.5933 18.4734 26.6059C18.4668 26.6186 18.4576 26.6298 18.4466 26.6388C18.4263 26.6543 18.4015 26.6625 18.376 26.6623C18.3708 26.6623 18.2002 26.6416 18.2002 26.6416C18.1862 26.6403 18.1725 26.6362 18.16 26.6295C18.1476 26.6229 18.1366 26.6138 18.1277 26.6029C18.1187 26.5919 18.1121 26.5793 18.1081 26.5657C18.1041 26.5522 18.1029 26.538 18.1044 26.524C18.1044 26.524 18.1252 26.2835 18.1252 26.1607C18.1254 25.388 17.8353 24.6435 17.3123 24.0747C17.2256 23.9773 17.1114 23.9086 16.9847 23.8776C16.8581 23.8466 16.7251 23.8547 16.6032 23.901C16.4814 23.9472 16.3764 24.0294 16.3022 24.1366C16.2281 24.2437 16.1882 24.3709 16.1878 24.5013L16.1853 30.483C16.1846 31.1289 16.0045 31.7619 15.6651 32.3115C15.3257 32.8609 14.8403 33.3054 14.263 33.5951C13.7921 33.8327 13.2705 33.9521 12.7431 33.9429H12.7276C12.2732 33.9432 11.8231 33.854 11.4032 33.6803C10.9833 33.5067 10.6017 33.252 10.2803 32.9308C9.95882 32.6096 9.70383 32.2282 9.52987 31.8084C9.35588 31.3886 9.26633 30.9386 9.26633 30.4842C9.26633 30.3485 9.28988 30.0809 9.28988 30.0809C9.29048 30.0664 9.29427 30.0521 9.30099 30.0391C9.30769 30.0262 9.31714 30.0148 9.32869 30.0059C9.34881 29.9902 9.37374 29.9818 9.39928 29.9824C9.40187 29.9824 9.57504 30.0017 9.57504 30.0017C9.60305 30.0052 9.62863 30.0194 9.64647 30.0413C9.66429 30.0632 9.67301 30.0911 9.6708 30.1193C9.6708 30.1205 9.6489 30.3609 9.6489 30.4838C9.64878 31.2567 9.93948 32.0013 10.4632 32.5698C10.55 32.6668 10.6642 32.7353 10.7907 32.7662C10.9172 32.7971 11.0502 32.7889 11.1719 32.7427C11.2937 32.6965 11.3986 32.6145 11.4728 32.5074C11.547 32.4004 11.587 32.2734 11.5876 32.1432V26.1631C11.5885 25.5151 11.7697 24.8803 12.1112 24.3296C12.4526 23.779 12.9407 23.3344 13.5207 23.0456C13.7519 22.9252 13.9985 22.837 14.2536 22.7832C14.5086 22.7277 14.769 22.7004 15.03 22.7018C15.3968 22.7003 15.7615 22.7566 16.1107 22.8686C16.6591 23.0456 17.1546 23.3571 17.5518 23.7747C18.1711 24.429 18.5137 25.2972 18.5082 26.1981C18.5073 26.3209 18.4854 26.5651 18.4854 26.5651Z" fill="#08A081"/>
<path d="M25.6419 0.885714H25.6418C21.7919 0.885714 18.6709 4.00729 18.6709 7.85715C18.6709 11.7073 21.7916 14.8286 25.6418 14.8286C29.4921 14.8286 32.6137 11.7074 32.6137 7.85715C32.6137 4.00727 29.4921 0.886044 25.6419 0.885714Z" fill="white" stroke="black" stroke-width="0.228572" stroke-miterlimit="10"/>
<path d="M25.1471 11.6212C24.8195 11.6212 24.4805 11.5716 24.13 11.4726C23.7795 11.3659 23.4519 11.2097 23.1471 11.004C23.0252 10.9278 22.9452 10.8288 22.9071 10.7069C22.869 10.585 22.8614 10.4669 22.8843 10.3526C22.9147 10.2307 22.9681 10.1278 23.0443 10.044C23.1281 9.95259 23.2309 9.89925 23.3528 9.88402C23.4747 9.86116 23.6081 9.89163 23.7528 9.97544C24.0119 10.1278 24.2557 10.2345 24.4843 10.2954C24.7128 10.3564 24.9414 10.3869 25.17 10.3869C25.6119 10.3869 25.9852 10.284 26.29 10.0783C26.5947 9.87259 26.8233 9.56402 26.9757 9.15259C27.1357 8.73354 27.2157 8.21925 27.2157 7.60973V6.75258H27.3528C27.2995 7.13354 27.1738 7.46497 26.9757 7.74687C26.7776 8.02878 26.5262 8.24592 26.2214 8.3983C25.9167 8.54306 25.5776 8.61544 25.2043 8.61544C24.7471 8.61544 24.3357 8.50497 23.97 8.28401C23.6119 8.06306 23.33 7.7583 23.1243 7.36973C22.9186 6.97354 22.8157 6.52782 22.8157 6.03258C22.8157 5.50687 22.9262 5.04211 23.1471 4.6383C23.3757 4.23449 23.6919 3.9183 24.0957 3.68973C24.4995 3.45353 24.9605 3.33544 25.4786 3.33544C26.149 3.33544 26.7167 3.49163 27.1814 3.80401C27.6462 4.11639 28.0005 4.57354 28.2443 5.17544C28.4881 5.76973 28.61 6.48973 28.61 7.33544C28.61 8.02116 28.53 8.63068 28.37 9.16402C28.2176 9.68973 27.9928 10.1354 27.6957 10.5012C27.3986 10.8669 27.0328 11.145 26.5986 11.3354C26.1719 11.5259 25.6881 11.6212 25.1471 11.6212ZM25.57 7.44973C25.8443 7.44973 26.0843 7.38878 26.29 7.26687C26.5033 7.13735 26.6671 6.96211 26.7814 6.74116C26.8957 6.51258 26.9528 6.25354 26.9528 5.96401C26.9528 5.66687 26.8957 5.40782 26.7814 5.18687C26.6671 4.96592 26.5033 4.79449 26.29 4.67258C26.0843 4.55068 25.8443 4.48973 25.57 4.48973C25.2957 4.48973 25.0557 4.55068 24.85 4.67258C24.6443 4.79449 24.4805 4.96592 24.3586 5.18687C24.2443 5.40782 24.1871 5.66687 24.1871 5.96401C24.1871 6.25354 24.2443 6.51258 24.3586 6.74116C24.4805 6.96211 24.6443 7.13735 24.85 7.26687C25.0557 7.38878 25.2957 7.44973 25.57 7.44973Z" fill="#08A081"/>
</svg>
