<svg width="32" height="40" viewBox="0 0 32 40" fill="none" xmlns="http://www.w3.org/2000/svg">
<path d="M25.6509 9.98015L22.6452 36.0771C22.4721 37.5805 21.1128 38.659 19.6115 38.4861L2.97519 36.5701C1.4739 36.3971 0.395363 35.0378 0.568514 33.5344L3.57419 7.4375C3.67878 6.52935 4.21793 5.77538 4.95984 5.35967C5.44329 5.08935 6.01456 4.96227 6.6077 5.03058L23.244 6.94664C23.8414 7.01544 24.3708 7.27163 24.7818 7.64924C25.4055 8.22244 25.755 9.07642 25.6509 9.98015Z" fill="#DA0735"/>
<path d="M25.7039 9.98599C25.0137 15.9516 24.2029 23.2879 23.5862 29.2267L22.9184 35.6447L22.8738 36.0455C22.781 37.0611 22.1339 38.0068 21.2071 38.4431C20.6858 38.7028 20.0716 38.78 19.5092 38.7031L17.9076 38.5105C15.7713 38.2612 13.6397 37.973 11.5055 37.705C9.91263 37.4893 6.69773 37.1028 5.10201 36.9117L3.50019 36.7211C2.68028 36.6785 1.82668 36.4484 1.24642 35.8255C0.658316 35.22 0.35596 34.3608 0.438421 33.5198L0.757806 30.309C0.862411 29.2385 0.969897 28.1684 1.08948 27.0997C1.77112 20.5477 2.7844 14.0344 3.43008 7.47864C3.52714 5.87208 5.11796 4.59502 6.70856 4.83563C9.32468 5.11826 12.1159 5.43487 14.7183 5.78092L21.1181 6.60636C21.6541 6.68988 22.9977 6.81681 23.5241 6.92064C24.8954 7.20196 25.894 8.59724 25.7039 9.98599ZM25.5989 9.97389C25.7684 8.64855 24.8122 7.30508 23.494 7.06023C22.9951 6.98349 21.6268 6.85355 21.0965 6.79422C16.6748 6.36845 11.0234 5.78217 6.66166 5.24284C5.00948 4.98599 3.69308 6.28337 3.6542 7.91025C2.82395 14.3095 2.33411 20.7476 1.52514 27.1497C1.39864 28.2176 1.26004 29.2841 1.11855 30.3504L0.699884 33.5495C0.598896 34.3199 0.857875 35.1181 1.39711 35.6798C1.94788 36.2765 2.73068 36.4893 3.5209 36.5414L5.12409 36.72C6.72397 36.8953 9.93896 37.2488 11.5403 37.4031C13.6795 37.6273 15.8208 37.8313 17.9579 38.0741L19.5613 38.2506C20.0639 38.3145 20.5592 38.2365 21.0053 38.0222C21.7955 37.6553 22.3469 36.861 22.4311 35.9942L22.4788 35.5937L23.2876 29.1919C24.0489 23.281 24.9021 15.9259 25.5989 9.97389Z" fill="black"/>
<path d="M24.7813 7.64931L14.1942 13.7232C14.0969 13.7785 13.9765 13.7647 13.8966 13.6889L4.95939 5.35973C5.44284 5.08942 6.01411 4.96234 6.60724 5.03065L23.2435 6.94671C23.8411 7.01534 24.3704 7.27151 24.7813 7.64931Z" fill="#E1395D"/>
<path d="M24.8343 7.65504C22.2772 9.13806 19.3611 10.8399 16.8509 12.3974C16.1524 12.8162 15.0333 13.5155 14.3339 13.9106C14.1395 14.039 13.8669 14.0043 13.7091 13.8328L13.5672 13.7016C13.3911 13.5353 12.9071 13.0777 12.7246 12.9047C11.9607 12.1931 10.1885 10.4012 9.41227 9.65478C8.04709 8.30682 6.06427 6.59306 4.5994 5.32666C5.064 5.02731 5.58909 4.80266 6.15006 4.78358C6.53745 4.75073 7.06106 4.86339 7.44193 4.89733C9.94075 5.24021 12.4298 5.66468 14.9508 5.81802C16.6296 5.93546 18.2976 6.14431 19.9599 6.40427C20.7913 6.53156 21.6234 6.65464 22.4568 6.76425C22.8123 6.82115 23.3637 6.85761 23.7116 6.97046C24.1282 7.11459 24.5488 7.30687 24.8343 7.65504ZM24.7292 7.64332C24.6826 7.63426 24.6776 7.62999 24.6279 7.58826C24.3484 7.36203 24.0207 7.19466 23.6736 7.10233C23.3435 7.003 22.787 6.99009 22.4362 6.94483C19.9257 6.70531 17.4021 6.57873 14.9116 6.16013C12.4217 5.73654 9.90137 5.58386 7.39002 5.3497L6.76327 5.28258C6.16761 5.19393 5.59516 5.2654 5.0634 5.54456L5.1045 5.20461C6.40941 6.50125 8.19054 8.31186 9.55806 9.49913C10.8662 10.6443 12.8099 12.3565 14.0657 13.5235C14.0691 13.5247 14.0743 13.5231 14.0779 13.5222L14.1031 13.5082L14.2685 13.4141C14.8633 13.0757 16.0015 12.4652 16.6162 12.1355C19.2142 10.7638 22.1683 9.09534 24.7292 7.64332Z" fill="black"/>
<path d="M20.3871 26.371C19.9163 30.4585 16.2206 33.3904 12.1331 32.9196C8.04553 32.4489 5.11414 28.7537 5.58491 24.6662C6.05564 20.5791 9.75067 17.6467 13.8379 18.1175C17.9254 18.5886 20.8578 22.2839 20.3871 26.371Z" fill="white"/>
<path d="M13.7708 19.2611C12.519 19.1172 11.2526 19.3477 10.1317 19.9234C9.01083 20.4992 8.08584 21.3944 7.47369 22.4958C6.86154 23.5972 6.58972 24.8554 6.6926 26.1113C6.79547 27.3672 7.26842 28.5644 8.05164 29.5515C8.83486 30.5386 9.8932 31.2713 11.0928 31.657C12.2925 32.0427 13.5795 32.064 14.7912 31.7183C16.003 31.3726 17.085 30.6753 17.9005 29.7147C18.716 28.754 19.2283 27.5732 19.3728 26.3214C19.4685 25.49 19.3996 24.6479 19.1699 23.8431C18.9402 23.0383 18.5542 22.2867 18.034 21.6311C17.5138 20.9754 16.8696 20.4287 16.1381 20.0221C15.4067 19.6155 14.6022 19.3569 13.7708 19.2611ZM17.2141 24.5233C17.2116 24.5355 17.2067 24.5472 17.1996 24.5575C17.1926 24.5679 17.1835 24.5767 17.173 24.5834C17.1538 24.5948 17.1314 24.5996 17.1093 24.5968C17.1048 24.5963 16.9586 24.5612 16.9586 24.5612C16.9465 24.5587 16.935 24.5537 16.9248 24.5467C16.9147 24.5397 16.906 24.5307 16.8994 24.5203C16.8927 24.5099 16.8882 24.4982 16.8861 24.486C16.884 24.4739 16.8843 24.4614 16.8871 24.4494C16.8871 24.4494 16.9292 24.2424 16.9415 24.1357C17.0191 23.464 16.8414 22.7878 16.4437 22.241C16.3781 22.1477 16.2857 22.0765 16.1787 22.0369C16.0718 21.9973 15.9553 21.991 15.8448 22.019C15.7342 22.047 15.6347 22.1079 15.5595 22.1937C15.4843 22.2794 15.4369 22.386 15.4236 22.4992L14.8225 27.6987C14.7572 28.26 14.5373 28.7922 14.1873 29.2359C13.8372 29.6796 13.3708 30.0173 12.84 30.2114C12.4069 30.3708 11.9415 30.4224 11.484 30.3615L11.4705 30.3599C11.0754 30.3147 10.6932 30.1922 10.3456 29.9992C9.99794 29.8062 9.69174 29.5466 9.44449 29.2352C9.19723 28.9238 9.01376 28.5667 8.90457 28.1844C8.79535 27.8021 8.76256 27.402 8.80806 27.007C8.82165 26.889 8.8689 26.6588 8.8689 26.6588C8.87088 26.6462 8.8756 26.6342 8.88275 26.6236C8.88987 26.613 8.89921 26.6041 8.91015 26.5974C8.92922 26.5858 8.95172 26.581 8.97386 26.5841C8.97612 26.5843 9.12471 26.6184 9.12471 26.6184C9.14871 26.6243 9.16952 26.6392 9.18284 26.66C9.19613 26.6809 9.20091 26.706 9.19617 26.7303C9.19605 26.7313 9.15295 26.9381 9.14065 27.0449C9.06317 27.7167 9.2413 28.3931 9.63966 28.9397C9.70539 29.0328 9.79781 29.1037 9.90469 29.1432C10.0116 29.1827 10.1279 29.1889 10.2384 29.1609C10.3489 29.133 10.4483 29.0722 10.5235 28.9866C10.5987 28.901 10.6462 28.7946 10.6598 28.6815L11.2585 23.4832C11.324 22.9201 11.5452 22.3864 11.8971 21.9419C12.249 21.4974 12.7178 21.1598 13.2509 20.9668C13.464 20.8854 13.6871 20.8334 13.9142 20.8122C14.1415 20.7895 14.3706 20.7918 14.5973 20.8192C14.9162 20.8545 15.2276 20.94 15.52 21.0723C15.979 21.2811 16.3785 21.6015 16.6819 22.0042C17.1548 22.635 17.3657 23.424 17.2707 24.2065C17.2576 24.3132 17.2141 24.5233 17.2141 24.5233Z" fill="#08A081"/>
<path d="M26.0066 2.91768L26.0066 2.91768C22.66 2.53224 19.6346 4.93322 19.2491 8.27973C18.8637 11.6265 21.2639 14.6521 24.6107 15.0376C27.9576 15.423 30.9835 13.0224 31.369 9.67561C31.7544 6.32909 29.3534 3.30343 26.0066 2.91768Z" fill="white" stroke="black" stroke-width="0.2" stroke-miterlimit="10"/>
<path d="M23.7786 12.0965C23.6262 12.079 23.5046 12.0281 23.4136 11.9438C23.3227 11.8595 23.2741 11.7566 23.268 11.6351C23.2626 11.507 23.3084 11.3713 23.4055 11.2281L27.0555 5.93099L27.0052 6.3681L23.7865 5.99739C23.6076 5.97679 23.4739 5.91441 23.3852 5.81025C23.3032 5.70685 23.2717 5.57237 23.2908 5.40679C23.3106 5.2346 23.3722 5.10748 23.4756 5.02544C23.5856 4.94416 23.7301 4.91382 23.9089 4.93441L27.7535 5.37721C27.9323 5.3978 28.0726 5.46094 28.1746 5.56663C28.2765 5.67232 28.3175 5.81126 28.2977 5.98346C28.2809 6.12916 28.2461 6.25602 28.1934 6.36403C28.1415 6.46542 28.0752 6.57522 27.9944 6.69343L24.5518 11.7628C24.4622 11.9001 24.3539 11.995 24.2271 12.0475C24.1069 12.1008 23.9574 12.1171 23.7786 12.0965Z" fill="#08A081"/>
</svg>
