<svg width="41" height="43" viewBox="0 0 41 43" fill="none" xmlns="http://www.w3.org/2000/svg">
<path d="M33.6625 9.14206V39.1643C33.6625 40.8938 32.2602 42.2961 30.5331 42.2961H11.3945C9.66741 42.2961 8.26514 40.8938 8.26514 39.1643V9.14206C8.26514 8.09732 8.77867 7.1708 9.56665 6.6018C10.0802 6.23168 10.7122 6.0127 11.3945 6.0127H30.5331C31.2203 6.0127 31.8549 6.23433 32.3709 6.60932C33.154 7.17853 33.6625 8.1024 33.6625 9.14206Z" fill="#DA0735"/>
<path d="M33.723 9.14207C33.7195 16.0054 33.7581 24.4407 33.8346 31.264L33.9157 38.638L33.9175 39.0989C33.9449 40.2641 33.3339 41.4224 32.3386 42.0389C31.7807 42.402 31.0935 42.5699 30.4449 42.5562L28.6014 42.5469C26.1433 42.5432 23.6855 42.4948 21.2274 42.4696C19.3907 42.4329 15.6901 42.4145 13.8534 42.4061L12.0099 42.3993C11.0734 42.4581 10.0742 42.3085 9.33394 41.6772C8.58707 41.0666 8.13143 40.1306 8.11508 39.165L8.05785 35.4779C8.03663 34.2488 8.01873 33.0198 8.01476 31.7908C7.93189 24.2628 8.23064 16.7355 8.10646 9.20792C8.00658 7.37122 9.64573 5.71329 11.4831 5.77847C14.4903 5.75726 17.7007 5.75174 20.7006 5.80433L28.0746 5.90464C28.694 5.92939 30.2361 5.89779 30.8473 5.94685C32.4409 6.08694 33.7573 7.54048 33.723 9.14207ZM33.6021 9.14207C33.6214 7.61517 32.3601 6.21489 30.8314 6.10927C30.2549 6.08739 28.6845 6.11877 28.0746 6.12076C22.9987 6.21555 16.5057 6.28891 11.4831 6.24693C9.5737 6.17136 8.24876 7.81648 8.41736 9.66864C8.31152 17.0426 8.59723 24.4161 8.51592 31.7906C8.51194 33.0196 8.49404 34.2486 8.47283 35.4776L8.41582 39.1645C8.4019 40.0524 8.8003 40.9248 9.48597 41.492C10.1893 42.0974 11.1059 42.2367 12.0099 42.1925L13.8534 42.1856C15.6928 42.1755 19.3892 42.1564 21.2274 42.1222C23.6855 42.097 26.1433 42.0486 28.6014 42.0449L30.4449 42.0356C31.0239 42.0424 31.5761 41.8891 32.0545 41.5875C32.9037 41.0675 33.4258 40.0937 33.4081 39.0985L33.4099 38.6375L33.491 31.2635C33.5825 24.453 33.5893 15.9908 33.6021 9.14207Z" fill="black"/>
<path d="M32.3709 6.6098L21.145 14.8902C21.0418 14.9658 20.9032 14.9658 20.8027 14.8902L9.5666 6.60229C10.0801 6.23216 10.7121 6.01318 11.3945 6.01318H30.5331C31.2205 6.01296 31.8549 6.23459 32.3709 6.6098Z" fill="#E1395D"/>
<path d="M32.4314 6.60965C29.7221 8.62776 26.6339 10.9413 23.9875 13.0379C23.2493 13.6047 22.0702 14.5449 21.3277 15.0849C21.1238 15.2562 20.8098 15.2524 20.6082 15.0783L20.4299 14.9479C20.2083 14.7822 19.5989 14.3259 19.369 14.1533C18.4087 13.4453 16.1623 11.6427 15.1834 10.8967C13.4572 9.54479 10.9819 7.85834 9.15318 6.61208C9.64153 6.21146 10.2083 5.88774 10.8427 5.79272C11.2782 5.70477 11.8875 5.76422 12.3243 5.75295C15.2062 5.81548 18.0876 5.97193 20.97 5.81637C22.8913 5.73019 24.8124 5.74919 26.7337 5.82697C27.6943 5.86277 28.6551 5.8937 29.6156 5.90917C30.0266 5.92729 30.6575 5.89658 31.0672 5.97922C31.559 6.08838 32.0618 6.25168 32.4314 6.60965ZM32.3106 6.61009C32.2564 6.60589 32.2502 6.60169 32.1884 6.56081C31.8414 6.34051 31.4475 6.19334 31.0413 6.1339C30.6535 6.06429 30.02 6.12241 29.6158 6.11688C26.7342 6.17323 23.8525 6.35951 20.9702 6.20991C18.0879 6.05457 15.2064 6.2108 12.3245 6.27333L11.6042 6.27908C10.9163 6.25632 10.2757 6.41232 9.70848 6.7988L9.71069 6.40746C11.3618 7.70897 13.6207 9.53175 15.3286 10.7009C16.9636 11.83 19.3942 13.5198 20.9726 14.6806C20.9766 14.6814 20.9823 14.679 20.9863 14.6775L21.0131 14.6582L21.1885 14.5299C21.8196 14.0678 23.0321 13.2259 23.6868 12.7712C26.4571 10.8741 29.5929 8.59351 32.3106 6.61009Z" fill="black"/>
<path d="M29.8289 28.4406C29.8289 33.1429 26.0164 36.9549 21.314 36.9549C16.6116 36.9549 12.8003 33.1429 12.8003 28.4406C12.8003 23.7387 16.612 19.9263 21.314 19.9263C26.0164 19.9267 29.8289 23.7387 29.8289 28.4406Z" fill="white"/>
<path d="M21.3879 21.2329C19.9478 21.2332 18.5401 21.6605 17.3428 22.4607C16.1455 23.261 15.2124 24.3983 14.6614 25.7288C14.1104 27.0594 13.9663 28.5234 14.2474 29.9358C14.5284 31.3483 15.2219 32.6457 16.2402 33.664C17.2585 34.6823 18.5559 35.3758 19.9683 35.6568C21.3808 35.9379 22.8448 35.7938 24.1754 35.2428C25.5059 34.6918 26.6432 33.7587 27.4435 32.5614C28.2437 31.3641 28.671 29.9564 28.6713 28.5163C28.6713 27.5598 28.4829 26.6127 28.1169 25.7291C27.7508 24.8454 27.2144 24.0425 26.538 23.3662C25.8617 22.6898 25.0588 22.1533 24.1751 21.7873C23.2915 21.4213 22.3444 21.2329 21.3879 21.2329ZM25.9853 26.7571C25.9841 26.7713 25.9801 26.7852 25.9734 26.7979C25.9667 26.8105 25.9576 26.8217 25.9465 26.8307C25.9262 26.8462 25.9014 26.8545 25.8759 26.8542C25.8707 26.8542 25.7001 26.8335 25.7001 26.8335C25.6861 26.8322 25.6724 26.8281 25.66 26.8215C25.6475 26.8148 25.6365 26.8057 25.6276 26.7948C25.6187 26.7838 25.6121 26.7712 25.6081 26.7577C25.6041 26.7441 25.6028 26.7299 25.6044 26.7159C25.6044 26.7159 25.6251 26.4755 25.6251 26.3526C25.6254 25.5799 25.3352 24.8354 24.8122 24.2666C24.7255 24.1693 24.6113 24.1006 24.4847 24.0696C24.3581 24.0386 24.2251 24.0467 24.1032 24.0929C23.9813 24.1392 23.8764 24.2213 23.8022 24.3285C23.728 24.4357 23.6881 24.5629 23.6878 24.6932L23.6852 30.675C23.6845 31.3209 23.5044 31.9539 23.165 32.5034C22.8256 33.0529 22.3402 33.4973 21.763 33.7871C21.2921 34.0247 20.7704 34.1441 20.243 34.1348H20.2275C19.7731 34.1351 19.3231 34.0459 18.9031 33.8723C18.4832 33.6986 18.1016 33.4439 17.7802 33.1227C17.4588 32.8015 17.2038 32.4201 17.0298 32.0003C16.8558 31.5805 16.7663 31.1306 16.7663 30.6762C16.7663 30.5404 16.7898 30.2729 16.7898 30.2729C16.7904 30.2583 16.7942 30.244 16.8009 30.2311C16.8076 30.2181 16.8171 30.2068 16.8286 30.1978C16.8488 30.1821 16.8737 30.1738 16.8992 30.1743C16.9018 30.1743 17.075 30.1936 17.075 30.1936C17.103 30.1971 17.1286 30.2113 17.1464 30.2332C17.1642 30.2552 17.1729 30.2831 17.1707 30.3112C17.1707 30.3124 17.1488 30.5529 17.1488 30.6757C17.1487 31.4486 17.4394 32.1933 17.9632 32.7617C18.05 32.8588 18.1642 32.9273 18.2907 32.9581C18.4172 32.989 18.5501 32.9808 18.6719 32.9346C18.7936 32.8884 18.8985 32.8064 18.9728 32.6994C19.047 32.5924 19.087 32.4654 19.0876 32.3351V26.355C19.0884 25.7071 19.2697 25.0722 19.6111 24.5216C19.9526 23.9709 20.4407 23.5263 21.0206 23.2375C21.2519 23.1172 21.4985 23.0289 21.7535 22.9752C22.0086 22.9197 22.269 22.8924 22.53 22.8938C22.8967 22.8922 23.2614 22.9485 23.6106 23.0606C24.1591 23.2375 24.6545 23.549 25.0517 23.9667C25.671 24.6209 26.0137 25.4891 26.0081 26.39C26.0072 26.5129 25.9853 26.7571 25.9853 26.7571Z" fill="#08A081"/>
<path d="M33.1424 1.0781H33.1424C29.2924 1.0781 26.1714 4.19967 26.1714 8.04954C26.1714 11.8997 29.2921 15.021 33.1424 15.021C36.9927 15.021 40.1143 11.8997 40.1143 8.04954C40.1143 4.19965 36.9927 1.07843 33.1424 1.0781Z" fill="white" stroke="black" stroke-width="0.228572" stroke-miterlimit="10"/>
<path d="M31.3673 11.6992C31.1235 11.6992 30.9444 11.6459 30.8302 11.5392C30.7235 11.4249 30.6702 11.2611 30.6702 11.0478C30.6702 10.9183 30.7044 10.7926 30.773 10.6706C30.8416 10.5487 30.9406 10.4192 31.0702 10.2821L33.3673 7.83636C33.7178 7.47064 33.9692 7.13922 34.1216 6.84207C34.274 6.53731 34.3502 6.23255 34.3502 5.92779C34.3502 5.54683 34.2282 5.25731 33.9844 5.05921C33.7482 4.86112 33.4016 4.76207 32.9444 4.76207C32.6854 4.76207 32.4263 4.80017 32.1673 4.87636C31.9082 4.94493 31.6454 5.06683 31.3787 5.24207C31.2416 5.3335 31.1121 5.3716 30.9902 5.35636C30.8759 5.34112 30.773 5.29159 30.6816 5.20779C30.5978 5.12398 30.5406 5.02112 30.5102 4.89921C30.4797 4.77731 30.4835 4.6554 30.5216 4.5335C30.5673 4.40398 30.6587 4.2935 30.7959 4.20207C31.1235 3.98112 31.4892 3.8135 31.893 3.69921C32.3044 3.58493 32.7159 3.52778 33.1273 3.52778C33.7063 3.52778 34.194 3.6154 34.5902 3.79064C34.9863 3.96588 35.2873 4.22112 35.493 4.55636C35.6987 4.89159 35.8016 5.29921 35.8016 5.77921C35.8016 6.09921 35.7483 6.4116 35.6416 6.71636C35.5425 7.02112 35.3863 7.32969 35.173 7.64207C34.9673 7.95445 34.6968 8.28588 34.3616 8.63636L32.213 10.8764V10.4878H35.573C35.7787 10.4878 35.9349 10.5373 36.0416 10.6364C36.1483 10.7354 36.2016 10.884 36.2016 11.0821C36.2016 11.2802 36.1483 11.4326 36.0416 11.5392C35.9349 11.6459 35.7787 11.6992 35.573 11.6992H31.3673Z" fill="#08A081"/>
</svg>
