<svg width="42" height="50" viewBox="0 0 42 50" fill="none" xmlns="http://www.w3.org/2000/svg">
<path d="M33.6273 13.1597L28.3774 44.6234C28.0749 46.436 26.3601 47.6604 24.5501 47.3584L4.49261 44.0117C2.68259 43.7097 1.4582 41.9949 1.76064 40.1823L7.01053 8.71858C7.19322 7.62368 7.89343 6.74247 8.81874 6.28395C9.42165 5.98585 10.1223 5.86687 10.8374 5.98619L30.8949 9.33289C31.6151 9.45307 32.2414 9.79632 32.7166 10.2795C33.4378 11.013 33.8091 12.0702 33.6273 13.1597Z" fill="#DA0735"/>
<path d="M33.6907 13.1701C32.4868 20.3623 31.0523 29.2093 29.9392 36.3736L28.7348 44.1158L28.656 44.5992C28.481 45.8251 27.6381 46.9322 26.4873 47.4043C25.839 47.6872 25.0895 47.743 24.4122 47.6153L22.4817 47.2832C19.9063 46.8494 17.3389 46.3689 14.7673 45.9127C12.8488 45.553 8.97374 44.8867 7.05032 44.5567L5.11946 44.2272C4.12775 44.125 3.10671 43.7935 2.44131 43.0024C1.76534 42.232 1.4515 41.1713 1.60323 40.1565L2.188 36.2824C2.38068 34.9906 2.57684 33.6994 2.78759 32.4107C4.01714 24.5068 5.64652 16.6703 6.83269 8.7596C7.04919 6.81725 9.05696 5.36635 10.9711 5.75596C14.1264 6.25958 17.492 6.8152 20.6267 7.39489L28.3372 8.78949C28.982 8.92373 30.6037 9.16029 31.2356 9.31858C32.8813 9.74407 34.0066 11.4976 33.6907 13.1701ZM33.564 13.1489C33.8512 11.5521 32.7742 9.86402 31.1906 9.48601C30.5902 9.36227 28.9389 9.12054 28.2994 9.01598C22.9632 8.22772 16.1457 7.1692 10.8892 6.24691C8.90137 5.83382 7.22514 7.32624 7.07795 9.29681C5.67757 17.0063 4.68761 24.7838 3.31285 32.4981C3.09377 33.7854 2.86009 35.0704 2.62294 36.3547L1.91848 40.2086C1.74864 41.1367 2.01362 42.1206 2.63302 42.835C3.26426 43.5925 4.20051 43.8987 5.15562 44.0104L7.08888 44.3256C9.01833 44.6366 12.8955 45.2631 14.828 45.5486C17.4085 45.952 19.9928 46.3311 22.5695 46.757L24.5032 47.0697C25.1088 47.1781 25.7143 47.1139 26.2684 46.8815C27.2493 46.4851 27.9668 45.5558 28.1223 44.5097L28.2048 44.0269L29.5792 36.3131C30.866 29.1916 32.353 20.3243 33.564 13.1489Z" fill="black"/>
<path d="M32.7164 10.2795L19.5035 16.9944C19.3822 17.0555 19.237 17.0313 19.1448 16.9345L8.81854 6.28389C9.42145 5.9858 10.1221 5.86682 10.8372 5.98614L30.8947 9.33284C31.6152 9.45282 32.2413 9.79603 32.7164 10.2795Z" fill="#E1395D"/>
<path d="M32.7799 10.2902C29.5876 11.9314 25.9465 13.816 22.8065 15.5505C21.9337 16.0154 20.5335 16.7946 19.661 17.2307C19.4173 17.3745 19.0889 17.3157 18.9081 17.098L18.7441 16.9301C18.5408 16.7177 17.9819 16.1329 17.7712 15.9119C16.8886 15.002 14.8496 12.7199 13.9541 11.7669C12.3814 10.0483 10.0822 7.84802 8.38356 6.22213C8.9654 5.88767 9.61601 5.64752 10.2975 5.65888C10.7693 5.64287 11.3974 5.8117 11.8572 5.87628C14.8665 6.44576 17.8589 7.11359 20.9068 7.45458C22.9355 7.70024 24.9455 8.05609 26.9455 8.47358C27.9459 8.67907 28.9474 8.8795 29.9514 9.06368C30.3789 9.15454 31.0455 9.23267 31.4604 9.39092C31.9568 9.59133 32.4551 9.85038 32.7799 10.2902ZM32.6531 10.2695C32.5971 10.2556 32.5914 10.2502 32.5337 10.1965C32.2086 9.90495 31.8215 9.68182 31.4062 9.5485C31.012 9.40774 30.3379 9.35787 29.9153 9.2814C26.8854 8.83655 23.8328 8.52786 20.8383 7.86706C17.8447 7.20023 14.7976 6.8601 11.7664 6.42169L11.0105 6.30174C10.2935 6.1576 9.59491 6.20908 8.93286 6.51492L9.00361 6.10518C10.5064 7.7579 12.5551 10.0632 14.1405 11.5871C15.6565 13.0564 17.9084 15.2523 19.3596 16.7448C19.3636 16.7465 19.37 16.7449 19.3745 16.744L19.4059 16.7285L19.6122 16.6246C20.3544 16.2508 21.7723 15.5805 22.5379 15.2184C25.773 13.7147 29.4581 11.8729 32.6531 10.2695Z" fill="black"/>
<path d="M26.235 32.7138C25.4127 37.6419 20.7506 40.9702 15.8224 40.1479C10.8943 39.3256 7.56651 34.6641 8.38879 29.7361C9.21099 24.8084 13.8724 21.4795 18.8001 22.3018C23.7282 23.1245 27.0572 27.7862 26.235 32.7138Z" fill="white"/>
<path d="M18.649 23.6843C17.1397 23.4327 15.5897 23.6344 14.195 24.2637C12.8003 24.893 11.6234 25.9217 10.8133 27.2198C10.0032 28.5179 9.59622 30.027 9.64375 31.5564C9.69128 33.0858 10.1912 34.5668 11.0804 35.812C11.9695 37.0573 13.2079 38.011 14.639 38.5525C16.0701 39.094 17.6296 39.199 19.1204 38.8542C20.6112 38.5095 21.9663 37.7304 23.0143 36.6156C24.0624 35.5007 24.7563 34.1002 25.0084 32.5909C25.1757 31.5886 25.1439 30.5631 24.9148 29.573C24.6857 28.5829 24.2639 27.6476 23.6734 26.8205C23.0828 25.9935 22.3352 25.2908 21.4731 24.7527C20.611 24.2146 19.6514 23.8515 18.649 23.6843ZM22.5011 30.2776C22.4974 30.2923 22.4907 30.3062 22.4815 30.3182C22.4723 30.3303 22.4608 30.3405 22.4476 30.348C22.4236 30.3607 22.3962 30.365 22.3695 30.3603C22.3641 30.3594 22.1889 30.3079 22.1889 30.3079C22.1744 30.304 22.1608 30.2973 22.1489 30.2882C22.137 30.279 22.1271 30.2676 22.1197 30.2546C22.1122 30.2415 22.1075 30.2272 22.1057 30.2123C22.1039 30.1974 22.105 30.1823 22.1091 30.1678C22.1091 30.1678 22.1729 29.9195 22.1944 29.7907C22.3297 28.981 22.1559 28.15 21.7072 27.4624C21.6334 27.3453 21.5257 27.2533 21.3984 27.1986C21.2712 27.144 21.1303 27.1293 20.9945 27.1564C20.8587 27.1836 20.7343 27.2513 20.6379 27.3506C20.5414 27.45 20.4773 27.5763 20.4542 27.7129L19.4055 33.9814C19.2918 34.6582 18.9924 35.2901 18.5406 35.8066C18.0888 36.3232 17.5024 36.704 16.8468 36.9068C16.3117 37.0735 15.7441 37.1073 15.1931 37.0054L15.1768 37.0027C14.7005 36.9236 14.2444 36.7514 13.8347 36.496C13.425 36.2405 13.0696 35.9069 12.789 35.514C12.5082 35.1212 12.3077 34.6769 12.1988 34.2066C12.0899 33.7362 12.0747 33.249 12.1542 32.7727C12.1779 32.6305 12.2493 32.3542 12.2493 32.3542C12.2525 32.3391 12.259 32.3248 12.2683 32.3123C12.2776 32.2999 12.2895 32.2897 12.3031 32.2823C12.327 32.2694 12.3546 32.265 12.3812 32.27C12.384 32.2705 12.5621 32.321 12.5621 32.321C12.5908 32.3296 12.6151 32.349 12.63 32.375C12.6448 32.4011 12.6491 32.4319 12.6419 32.461C12.6416 32.4623 12.5766 32.7104 12.5552 32.8391C12.4199 33.6491 12.5943 34.4804 13.0438 35.1677C13.1178 35.2846 13.2255 35.3764 13.3527 35.4308C13.4799 35.4853 13.6206 35.5 13.7563 35.4728C13.892 35.4457 14.0163 35.3781 14.1128 35.2789C14.2093 35.1797 14.2734 35.0537 14.2968 34.9173L15.3425 28.65C15.4567 27.9711 15.7577 27.3375 16.2118 26.8201C16.666 26.3027 17.2552 25.9221 17.9136 25.7209C18.1769 25.6352 18.4508 25.5858 18.7275 25.5741C19.0045 25.5605 19.2822 25.5775 19.5555 25.6246C19.9401 25.6871 20.3125 25.8098 20.6588 25.9884C21.2027 26.2697 21.6674 26.6828 22.0107 27.1899C22.5453 27.9839 22.7526 28.9537 22.5892 29.8969C22.5668 30.0255 22.5011 30.2776 22.5011 30.2776Z" fill="#08A081"/>
<path d="M34.4922 4.61732L34.4922 4.61732C30.4574 3.94409 26.6407 6.66978 25.9675 10.7045C25.2942 14.7395 28.0189 18.5563 32.0541 19.2296C36.0892 19.9029 39.9065 17.1777 40.5798 13.1426C41.253 9.1079 38.5273 5.29095 34.4922 4.61732Z" fill="white" stroke="black" stroke-width="0.242858" stroke-miterlimit="10"/>
<path d="M34.1946 15.5999C33.9551 15.5599 33.7781 15.4647 33.6636 15.3143C33.5506 15.1559 33.5147 14.953 33.556 14.7054L33.7118 13.7712L30.7535 13.2776C30.5059 13.2363 30.315 13.1511 30.1806 13.0219C30.0542 12.8942 30.0096 12.7185 30.0469 12.4949C30.0682 12.3671 30.1235 12.2327 30.2127 12.0917C30.3099 11.952 30.4669 11.773 30.6839 11.5548L34.7591 7.34737C34.8988 7.19834 35.0439 7.09123 35.1943 7.02605C35.3447 6.96086 35.5078 6.94293 35.6834 6.97224C35.891 7.00688 36.052 7.0994 36.1665 7.24981C36.2822 7.39223 36.3181 7.59519 36.2742 7.85869L35.4568 12.7574L36.0437 12.8553C36.2752 12.894 36.4376 12.9785 36.5307 13.109C36.6332 13.2327 36.6671 13.3984 36.6324 13.606C36.5978 13.8137 36.5113 13.9634 36.3728 14.0552C36.2437 14.1403 36.0634 14.1636 35.8318 14.1249L35.2449 14.027L35.0891 14.9612C35.0478 15.2088 34.9479 15.3891 34.7895 15.5022C34.6325 15.6073 34.4342 15.6398 34.1946 15.5999ZM33.9237 12.5016L34.5472 8.76469L34.8945 8.82264L31.3764 12.4951L31.4444 12.0879L33.9237 12.5016Z" fill="#08A081"/>
</svg>
