<svg width="38" height="44" viewBox="0 0 38 44" fill="none" xmlns="http://www.w3.org/2000/svg">
<path d="M24.2683 9.90498L30.748 34.941C31.1212 36.3833 30.2545 37.8553 28.8143 38.2281L12.8543 42.3588C11.414 42.7315 9.94197 41.8648 9.56869 40.4225L3.08899 15.3865C2.8635 14.5153 3.09177 13.6318 3.62607 12.9872C3.97443 12.5677 4.45418 12.2487 5.02321 12.1014L20.9832 7.97076C21.5563 7.82244 22.1334 7.87029 22.6446 8.07164C23.4205 8.3773 24.0439 9.03799 24.2683 9.90498Z" fill="#DA0735"/>
<path d="M24.3183 9.89213C25.7967 15.6163 27.6495 22.6423 29.1859 28.3159L30.8451 34.4477L30.946 34.8317C31.2204 35.7974 30.9609 36.8952 30.264 37.6241C29.877 38.0473 29.3402 38.3357 28.7964 38.4642L27.257 38.8544C25.2064 39.3818 23.1463 39.8719 21.0911 40.3814C19.5515 40.7472 16.4616 41.5306 14.9281 41.9201L13.3893 42.3122C12.621 42.5634 11.7555 42.6543 11.0019 42.2876C10.2473 41.9396 9.6653 41.2574 9.44326 40.4557L8.59974 37.3933C8.31679 36.373 8.0366 35.3519 7.76802 34.3279C6.07416 28.068 4.69867 21.7264 2.97044 15.4759C2.49073 13.9658 3.49982 12.2294 5.04609 11.8872C7.54925 11.2205 10.2253 10.523 12.7383 9.91936L18.9092 8.41149C19.4311 8.29845 20.7103 7.93926 21.2306 7.84825C22.5898 7.62112 24.0012 8.54915 24.3183 9.89213ZM24.2175 9.91822C23.904 8.64076 22.5499 7.74527 21.2524 7.98712C20.7669 8.09331 19.464 8.45842 18.9559 8.59171C14.7435 9.76629 9.34472 11.2288 5.1472 12.2779C3.53861 12.627 2.78879 14.2848 3.32915 15.793C4.8324 21.9651 6.66209 28.0523 8.1859 34.2195C8.44785 35.2453 8.69818 36.2741 8.94575 37.3036L9.69395 40.3904C9.87397 41.1338 10.3945 41.7753 11.0887 42.1004C11.8059 42.4535 12.6003 42.3717 13.3446 42.1398L14.8805 41.7362C16.4122 41.3307 19.4906 40.517 21.0161 40.0917C23.0605 39.5402 25.0997 38.9694 27.1487 38.4357L28.6841 38.0301C29.1683 37.9109 29.5957 37.6638 29.9296 37.309C30.5255 36.6921 30.7507 35.7674 30.5212 34.9412L30.4232 34.5565L28.8993 28.3897C27.5057 22.6905 25.685 15.6323 24.2175 9.91822Z" fill="black"/>
<path d="M22.6447 8.07202L15.0703 17.4001C15.0006 17.4854 14.8851 17.5153 14.7849 17.4739L3.62617 12.9876C3.97453 12.5681 4.45428 12.2491 5.02331 12.1018L20.9833 7.97115C21.5565 7.82259 22.1334 7.87049 22.6447 8.07202Z" fill="#E1395D"/>
<path d="M22.6947 8.05886C20.871 10.3266 18.7949 12.9224 17.0406 15.2419C16.5473 15.8739 15.767 16.9125 15.2644 17.5231C15.1313 17.7099 14.8686 17.7745 14.663 17.6728L14.4861 17.6026C14.2655 17.5122 13.6588 17.2632 13.4299 17.1689C12.4763 16.7858 10.2139 15.7673 9.23661 15.3565C7.50532 14.6017 5.07714 13.7296 3.28314 13.085C3.60391 12.6456 4.00669 12.2533 4.51522 12.0371C4.85944 11.8698 5.3803 11.7878 5.74217 11.6842C8.15892 11.1143 10.5956 10.6229 12.9656 9.87106C14.5492 9.38452 16.1554 8.98573 17.7744 8.63591C18.5831 8.45844 19.391 8.27688 20.1954 8.08246C20.542 8.00887 21.0615 7.84709 21.421 7.82759C21.8547 7.81246 22.3092 7.84013 22.6947 8.05886ZM22.594 8.08532C22.548 8.0935 22.5419 8.09134 22.4815 8.0706C22.1446 7.96176 21.7843 7.92407 21.4328 7.96216C21.0944 7.98781 20.5786 8.17301 20.2404 8.25563C17.8495 8.92457 15.4866 9.70185 13.0507 10.1992C10.6136 10.6917 8.24442 11.4439 5.85467 12.1181L5.25519 12.2783C4.67664 12.4078 4.17611 12.6762 3.78651 13.1209L3.70389 12.7941C5.36166 13.5231 7.63886 14.5556 9.31542 15.1619C10.9225 15.7507 13.3142 16.6352 14.881 17.2625C14.8845 17.2624 14.8888 17.2591 14.8917 17.2569L14.9099 17.2351L15.0285 17.0902C15.455 16.5687 16.2844 15.6049 16.7323 15.0844C18.633 12.9045 20.7558 10.3259 22.594 8.08532Z" fill="black"/>
<path d="M25.2363 26.8256C26.2512 30.7469 23.8946 34.7486 19.9733 35.7635C16.0519 36.7785 12.0508 34.4222 11.0359 30.5009C10.0211 26.5799 12.3769 22.578 16.298 21.5631C20.2195 20.5485 24.2215 22.9046 25.2363 26.8256Z" fill="white"/>
<path d="M16.6417 22.6371C15.4408 22.9482 14.3591 23.6083 13.5334 24.5341C12.7077 25.4599 12.175 26.6097 12.0027 27.8381C11.8304 29.0666 12.0262 30.3186 12.5654 31.4358C13.1046 32.553 13.963 33.4853 15.0319 34.1147C16.1009 34.7441 17.3325 35.0424 18.571 34.9719C19.8095 34.9014 20.9993 34.4652 21.9899 33.7186C22.9806 32.972 23.7276 31.9483 24.1365 30.7772C24.5455 29.606 24.598 28.3399 24.2874 27.1389C24.0809 26.3413 23.7194 25.5921 23.2235 24.9342C22.7275 24.2763 22.1068 23.7226 21.3969 23.3045C20.6869 22.8865 19.9016 22.6124 19.0857 22.4979C18.2698 22.3834 17.4393 22.4307 16.6417 22.6371ZM21.6678 26.2516C21.6699 26.2637 21.6695 26.2762 21.6667 26.2882C21.6638 26.3001 21.6586 26.3114 21.6513 26.3214C21.6378 26.3387 21.6189 26.3509 21.5976 26.3562C21.5932 26.3573 21.4465 26.3769 21.4465 26.3769C21.4345 26.3788 21.4222 26.3784 21.4104 26.3755C21.3986 26.3726 21.3875 26.3674 21.3777 26.3602C21.3679 26.353 21.3596 26.3439 21.3533 26.3335C21.3471 26.3231 21.343 26.3115 21.3413 26.2995C21.3413 26.2995 21.3066 26.0945 21.2801 25.9921C21.1136 25.3476 20.7109 24.7894 20.152 24.4279C20.0587 24.3655 19.9486 24.3328 19.8364 24.3343C19.7241 24.3358 19.6149 24.3712 19.5233 24.4361C19.4316 24.501 19.3618 24.5921 19.3231 24.6975C19.2844 24.8029 19.2786 24.9176 19.3064 25.0263L20.5953 30.0152C20.7342 30.554 20.7206 31.1207 20.5562 31.6522C20.3917 32.1837 20.0828 32.6591 19.664 33.0253C19.3226 33.3251 18.9133 33.5372 18.4716 33.6433L18.4586 33.6467C18.0797 33.745 17.6852 33.7678 17.2975 33.7136C16.9099 33.6594 16.5367 33.5294 16.1993 33.3309C15.8619 33.1324 15.567 32.8694 15.3313 32.5569C15.0956 32.2443 14.9238 31.8885 14.8258 31.5095C14.7965 31.3963 14.7584 31.1681 14.7584 31.1681C14.7557 31.1558 14.7558 31.1431 14.7586 31.1309C14.7614 31.1186 14.7668 31.1071 14.7745 31.0972C14.7879 31.0797 14.8069 31.0674 14.8283 31.0623C14.8305 31.0617 14.979 31.0405 14.979 31.0405C15.0032 31.0374 15.0276 31.0437 15.0472 31.0581C15.0668 31.0725 15.0801 31.0939 15.0843 31.1179C15.0845 31.1189 15.1182 31.3241 15.1447 31.4265C15.3114 32.0711 15.7145 32.6294 16.274 32.9904C16.3673 33.0526 16.4773 33.085 16.5895 33.0835C16.7017 33.0819 16.8107 33.0464 16.9023 32.9816C16.9939 32.9168 17.0637 32.8257 17.1025 32.7205C17.1412 32.6152 17.1472 32.5007 17.1196 32.3919L15.8289 27.405C15.6897 26.8645 15.7039 26.296 15.8698 25.7631C16.0357 25.2302 16.3467 24.7541 16.7681 24.3881C16.9349 24.2378 17.1215 24.111 17.3226 24.0111C17.5233 23.9098 17.7346 23.8308 17.9525 23.7757C18.258 23.6952 18.5743 23.6634 18.8897 23.6815C19.3853 23.7107 19.8657 23.8636 20.287 24.1261C20.9447 24.538 21.4178 25.1881 21.6076 25.9406C21.6334 26.0432 21.6678 26.2516 21.6678 26.2516Z" fill="#08A081"/>
<path d="M25.3461 15.8574C29.0749 14.8923 31.3157 11.0872 30.3506 7.35846C29.3856 3.63006 25.5802 1.38975 21.8513 2.35449C18.1228 3.31948 15.8827 7.12483 16.8477 10.8532C17.8127 14.5819 21.6173 16.8225 25.3461 15.8574Z" fill="white" stroke="black" stroke-width="0.165517" stroke-miterlimit="10"/>
<path d="M21.0945 12.4324C20.9556 12.4684 20.8364 12.4593 20.7369 12.4053C20.6414 12.3445 20.5764 12.2474 20.5418 12.1138C20.5059 11.9749 20.5163 11.8611 20.5731 11.7723C20.6353 11.6822 20.7358 11.6191 20.8747 11.5832L21.772 11.3509L20.7539 7.41708L21.2506 7.28852L20.2574 8.30639C20.1711 8.39141 20.0812 8.44033 19.9876 8.45315C19.898 8.45924 19.8136 8.44121 19.7343 8.39904C19.6589 8.35015 19.5995 8.28574 19.556 8.20581C19.5125 8.12588 19.4958 8.03904 19.5057 7.94529C19.5196 7.84481 19.5697 7.75206 19.6559 7.66704L20.5895 6.7159C20.6797 6.62416 20.7727 6.54309 20.8685 6.47272C20.9629 6.397 21.0555 6.34739 21.1463 6.32389C21.2584 6.29486 21.3602 6.30271 21.4516 6.34745C21.5415 6.38685 21.6045 6.47599 21.6404 6.61486L22.7975 11.0855L23.6147 10.874C23.7536 10.838 23.8694 10.8451 23.9622 10.8952C24.0602 10.9439 24.1273 11.0377 24.1632 11.1766C24.1991 11.3154 24.1867 11.4326 24.126 11.5281C24.0705 11.6223 23.9734 11.6873 23.8345 11.7232L21.0945 12.4324ZM26.1596 11.207C25.8711 11.2816 25.5623 11.3217 25.2332 11.3271C24.904 11.3325 24.6053 11.2901 24.3369 11.2C24.2121 11.1582 24.1193 11.0967 24.0584 11.0156C23.9975 10.9345 23.9647 10.8518 23.96 10.7675C23.9592 10.6765 23.9806 10.5941 24.0242 10.5201C24.073 10.4448 24.1415 10.39 24.2295 10.3558C24.3229 10.3203 24.4333 10.3173 24.5607 10.3471C24.8101 10.4079 25.0432 10.4387 25.26 10.4396C25.4754 10.4352 25.6899 10.4053 25.9036 10.35C26.1386 10.2892 26.3279 10.206 26.4716 10.1004C26.6152 9.99483 26.7105 9.86759 26.7574 9.71866C26.8097 9.56835 26.8124 9.4024 26.7654 9.2208C26.6962 8.95373 26.5543 8.77961 26.3395 8.69842C26.1287 8.61051 25.8524 8.61079 25.5105 8.69926L24.9978 8.83197C24.8482 8.87068 24.7237 8.86301 24.6242 8.80897C24.5301 8.75354 24.4657 8.65907 24.4312 8.52554C24.3966 8.392 24.4071 8.27817 24.4625 8.18404C24.5232 8.08853 24.6284 8.02142 24.778 7.98271L25.1946 7.87488C25.3975 7.82235 25.5628 7.74538 25.6905 7.64396C25.8167 7.5372 25.904 7.41202 25.9523 7.26844C26.0006 7.12485 26.002 6.96493 25.9564 6.78867C25.8928 6.54297 25.7616 6.37746 25.5628 6.29212C25.3694 6.2054 25.1178 6.20213 24.808 6.28231C24.6104 6.33346 24.4297 6.40588 24.2659 6.49957C24.106 6.58654 23.9378 6.7184 23.7613 6.89516C23.6804 6.9788 23.5931 7.02703 23.4996 7.03985C23.4113 7.05128 23.3302 7.03523 23.2563 6.99168C23.1823 6.94813 23.1243 6.88906 23.0822 6.81447C23.0387 6.73454 23.0219 6.6477 23.0319 6.55395C23.0404 6.45485 23.0871 6.36012 23.172 6.26976C23.363 6.06076 23.5877 5.88293 23.8461 5.73627C24.1031 5.58427 24.3785 5.47025 24.6722 5.39422C25.0621 5.2933 25.4119 5.26833 25.7214 5.31929C26.0296 5.36492 26.2848 5.48123 26.487 5.66824C26.6933 5.84852 26.8372 6.09623 26.9187 6.41137C26.9768 6.6357 26.9873 6.8524 26.9502 7.06146C26.9118 7.26518 26.8317 7.45118 26.7099 7.61946C26.5882 7.78774 26.4248 7.92692 26.2196 8.03701L26.1947 7.94087C26.5959 7.90543 26.9365 7.98826 27.2165 8.18934C27.4951 8.38509 27.6835 8.67257 27.7816 9.0518C27.8673 9.38296 27.8592 9.69281 27.7572 9.98136C27.6552 10.2699 27.4693 10.5204 27.1994 10.7327C26.9281 10.9397 26.5815 11.0978 26.1596 11.207Z" fill="#08A081"/>
</svg>
