<svg width="35" height="45" viewBox="0 0 35 45" fill="none" xmlns="http://www.w3.org/2000/svg">
<path d="M26.3261 10.3275V41.1261C26.3261 42.9004 24.8876 44.3389 23.1158 44.3389H3.48227C1.71051 44.3389 0.271973 42.9004 0.271973 41.1261V10.3275C0.271973 9.25572 0.798786 8.30524 1.60714 7.72153C2.13396 7.34183 2.78227 7.11719 3.48227 7.11719H23.1158C23.8208 7.11719 24.4719 7.34455 25.0012 7.72924C25.8045 8.31318 26.3261 9.26094 26.3261 10.3275Z" fill="#DA0735"/>
<path d="M26.3882 10.3276C26.3846 17.3684 26.4243 26.0218 26.5027 33.0216L26.5859 40.5863L26.5877 41.0591C26.6158 42.2545 25.989 43.4427 24.9681 44.0752C24.3957 44.4476 23.6907 44.6199 23.0254 44.6059L21.1342 44.5963C18.6125 44.5925 16.0911 44.5428 13.5695 44.517C11.6853 44.4794 7.88901 44.4605 6.00481 44.4519L4.11358 44.4449C3.1529 44.5052 2.12783 44.3517 1.36844 43.7041C0.60225 43.0778 0.134828 42.1175 0.118053 41.1269L0.059342 37.3445C0.0375803 36.0837 0.019219 34.8228 0.0151387 33.562C-0.0698678 25.8394 0.236609 18.1174 0.109213 10.3951C0.00675158 8.51095 1.68829 6.81014 3.57317 6.87701C6.65811 6.85525 9.95161 6.84958 13.0291 6.90354L20.5937 7.00645C21.2291 7.03183 22.8112 6.99942 23.4382 7.04974C25.073 7.19346 26.4234 8.68459 26.3882 10.3276ZM26.2642 10.3276C26.284 8.76121 24.99 7.32472 23.4218 7.21636C22.8304 7.19392 21.2194 7.22611 20.5937 7.22815C15.3866 7.3254 8.7257 7.40065 3.57317 7.35758C1.6144 7.28006 0.255198 8.96772 0.428157 10.8678C0.319576 18.4325 0.612678 25.9967 0.529258 33.5618C0.525178 34.8226 0.506817 36.0834 0.485055 37.3442L0.42657 41.1265C0.412289 42.0373 0.821001 42.9322 1.5244 43.5141C2.24594 44.1352 3.18622 44.2781 4.11358 44.2327L6.00481 44.2257C7.89173 44.2153 11.6837 44.1958 13.5695 44.1606C16.0911 44.1348 18.6125 44.0852 21.1342 44.0813L23.0254 44.0718C23.6193 44.0788 24.1858 43.9215 24.6765 43.6121C25.5477 43.0787 26.0833 42.0797 26.0652 41.0587L26.067 40.5858L26.1502 33.0212C26.2441 26.0345 26.2511 17.3534 26.2642 10.3276Z" fill="black"/>
<path d="M25.0011 7.73021L13.4849 16.2247C13.379 16.3023 13.2369 16.3023 13.1338 16.2247L1.6071 7.7225C2.13392 7.3428 2.78223 7.11816 3.48223 7.11816H23.1158C23.821 7.11794 24.4718 7.3453 25.0011 7.73021Z" fill="#E1395D"/>
<path d="M25.0632 7.73019C22.2839 9.80049 19.1157 12.1739 16.401 14.3247C15.6436 14.9061 14.434 15.8706 13.6724 16.4247C13.4631 16.6003 13.141 16.5965 12.9343 16.4179L12.7514 16.2841C12.524 16.1141 11.8988 15.646 11.663 15.469C10.6779 14.7427 8.3734 12.8934 7.36919 12.1281C5.59833 10.7412 3.05902 9.01118 1.18298 7.73268C1.68396 7.3217 2.2654 6.98961 2.91621 6.89213C3.363 6.80191 3.98797 6.86289 4.43613 6.85133C7.39254 6.91548 10.3485 7.07598 13.3054 6.91639C15.2764 6.82799 17.2472 6.84748 19.2182 6.92727C20.2036 6.96399 21.1892 6.99573 22.1746 7.0116C22.5962 7.03019 23.2434 6.99868 23.6637 7.08346C24.1683 7.19544 24.684 7.36296 25.0632 7.73019ZM24.9392 7.73064C24.8837 7.72633 24.8774 7.72203 24.8139 7.68009C24.458 7.45409 24.0538 7.30311 23.6372 7.24213C23.2393 7.17073 22.5894 7.23035 22.1748 7.22468C19.2186 7.28249 16.2625 7.47358 13.3056 7.32011C10.3487 7.16075 7.39277 7.32102 4.43635 7.38518L3.69736 7.39107C2.9917 7.36772 2.33454 7.52776 1.75264 7.92423L1.75491 7.52277C3.44869 8.85794 5.76608 10.7279 7.51812 11.9272C9.19536 13.0856 11.6889 14.8191 13.3081 16.0098C13.3122 16.0107 13.3181 16.0082 13.3221 16.0066L13.3496 15.9869L13.5296 15.8552C14.177 15.3812 15.4208 14.5176 16.0924 14.051C18.9344 12.105 22.1513 9.76535 24.9392 7.73064Z" fill="black"/>
<path d="M22.3935 30.1251C22.3935 34.949 18.4824 38.8596 13.6585 38.8596C8.83447 38.8596 4.92456 34.949 4.92456 30.1251C4.92456 25.3016 8.83486 21.3906 13.6585 21.3906C18.4824 21.391 22.3935 25.3016 22.3935 30.1251Z" fill="white"/>
<path d="M13.7342 22.7314C12.2569 22.7317 10.8128 23.1701 9.58452 23.991C8.35625 24.812 7.39899 25.9787 6.83376 27.3436C6.26854 28.7086 6.12072 30.2105 6.40901 31.6594C6.6973 33.1084 7.40874 34.4394 8.45339 35.484C9.49804 36.5287 10.829 37.2401 12.278 37.5284C13.7269 37.8167 15.2288 37.6689 16.5938 37.1036C17.9587 36.5384 19.1254 35.5811 19.9464 34.3529C20.7674 33.1246 21.2057 31.6805 21.206 30.2032C21.206 29.222 21.0127 28.2504 20.6372 27.3439C20.2617 26.4374 19.7114 25.6137 19.0175 24.9199C18.3237 24.226 17.5001 23.6757 16.5935 23.3002C15.687 22.9247 14.7154 22.7314 13.7342 22.7314ZM18.4505 28.3985C18.4493 28.4131 18.4451 28.4273 18.4383 28.4403C18.4314 28.4533 18.4221 28.4648 18.4107 28.474C18.3899 28.4899 18.3644 28.4984 18.3383 28.4982C18.333 28.4982 18.158 28.4769 18.158 28.4769C18.1436 28.4756 18.1295 28.4714 18.1168 28.4645C18.104 28.4577 18.0927 28.4484 18.0836 28.4372C18.0744 28.4259 18.0676 28.413 18.0635 28.3991C18.0594 28.3852 18.0582 28.3706 18.0597 28.3562C18.0597 28.3562 18.081 28.1096 18.081 27.9836C18.0813 27.1909 17.7836 26.4271 17.2471 25.8436C17.1581 25.7438 17.041 25.6733 16.9111 25.6415C16.7812 25.6096 16.6448 25.618 16.5197 25.6654C16.3947 25.7129 16.287 25.7971 16.2109 25.9071C16.1348 26.017 16.0939 26.1475 16.0936 26.2812L16.0909 32.4177C16.0902 33.0803 15.9055 33.7297 15.5573 34.2934C15.2091 34.8571 14.7111 35.313 14.119 35.6103C13.6359 35.854 13.1008 35.9765 12.5598 35.967H12.5438C12.0776 35.9673 11.616 35.8758 11.1852 35.6977C10.7544 35.5195 10.363 35.2582 10.0332 34.9287C9.70347 34.5992 9.44188 34.208 9.26342 33.7773C9.08493 33.3467 8.99307 32.8851 8.99307 32.4189C8.99307 32.2796 9.01722 32.0052 9.01722 32.0052C9.01785 31.9903 9.02173 31.9756 9.02863 31.9623C9.0355 31.949 9.04519 31.9374 9.05704 31.9282C9.07768 31.9121 9.10326 31.9035 9.12945 31.9041C9.13212 31.9041 9.30976 31.9239 9.30976 31.9239C9.3385 31.9275 9.36474 31.9421 9.38304 31.9645C9.40132 31.987 9.41026 32.0157 9.40799 32.0445C9.40799 32.0458 9.38553 32.2924 9.38553 32.4184C9.38541 33.2113 9.68362 33.9753 10.2209 34.5584C10.31 34.658 10.4271 34.7282 10.5569 34.7599C10.6867 34.7916 10.823 34.7831 10.9479 34.7358C11.0729 34.6884 11.1805 34.6042 11.2566 34.4944C11.3327 34.3847 11.3738 34.2544 11.3744 34.1208V27.986C11.3752 27.3213 11.5612 26.6701 11.9115 26.1051C12.2618 25.5403 12.7625 25.0841 13.3575 24.7879C13.5947 24.6645 13.8476 24.5739 14.1093 24.5188C14.3709 24.4618 14.6381 24.4338 14.9058 24.4352C15.2821 24.4337 15.6562 24.4914 16.0144 24.6064C16.5771 24.7879 17.0853 25.1075 17.4928 25.5359C18.1281 26.2071 18.4796 27.0977 18.4739 28.0219C18.473 28.1479 18.4505 28.3985 18.4505 28.3985Z" fill="#08A081"/>
<path d="M25.7926 17.531C30.3899 17.531 34.1173 13.8042 34.1173 9.2069C34.1173 4.61001 30.3899 0.883152 25.7926 0.882759C21.1956 0.882759 17.469 4.61003 17.469 9.2069C17.469 13.8042 21.1952 17.531 25.7926 17.531Z" fill="white" stroke="black" stroke-width="0.234483" stroke-miterlimit="10"/>
<path d="M21.1784 13.1494C20.9752 13.1494 20.8149 13.0947 20.6977 12.9853C20.5883 12.868 20.5336 12.7117 20.5336 12.5163C20.5336 12.3131 20.5883 12.1607 20.6977 12.0591C20.8149 11.9575 20.9752 11.9067 21.1784 11.9067H22.4915V6.1501H23.2184L21.4949 7.19355C21.3464 7.27953 21.2057 7.3147 21.0729 7.29907C20.9478 7.27562 20.8384 7.22091 20.7446 7.13493C20.6586 7.04114 20.6 6.93171 20.5687 6.80666C20.5375 6.6816 20.5453 6.55654 20.5922 6.43148C20.6469 6.29861 20.7485 6.18918 20.897 6.10321L22.5149 5.1301C22.6713 5.03631 22.8276 4.95815 22.9839 4.89562C23.1402 4.82528 23.2848 4.7901 23.4177 4.7901C23.5818 4.7901 23.7186 4.837 23.828 4.93079C23.9375 5.01677 23.9922 5.16137 23.9922 5.36459V11.9067H25.188C25.3913 11.9067 25.5476 11.9575 25.657 12.0591C25.7743 12.1607 25.8329 12.3131 25.8329 12.5163C25.8329 12.7195 25.7743 12.8759 25.657 12.9853C25.5476 13.0947 25.3913 13.1494 25.188 13.1494H21.1784ZM27.0359 13.1494C26.8327 13.1494 26.6724 13.0947 26.5552 12.9853C26.4458 12.868 26.3911 12.7117 26.3911 12.5163C26.3911 12.3131 26.4458 12.1607 26.5552 12.0591C26.6724 11.9575 26.8327 11.9067 27.0359 11.9067H28.349V6.1501H29.0759L27.3524 7.19355C27.2039 7.27953 27.0632 7.3147 26.9304 7.29907C26.8053 7.27562 26.6959 7.22091 26.6021 7.13493C26.5161 7.04114 26.4575 6.93171 26.4262 6.80666C26.395 6.6816 26.4028 6.55654 26.4497 6.43148C26.5044 6.29861 26.606 6.18918 26.7545 6.10321L28.3724 5.1301C28.5288 5.03631 28.6851 4.95815 28.8414 4.89562C28.9977 4.82528 29.1423 4.7901 29.2752 4.7901C29.4393 4.7901 29.5761 4.837 29.6855 4.93079C29.795 5.01677 29.8497 5.16137 29.8497 5.36459V11.9067H31.0455C31.2488 11.9067 31.4051 11.9575 31.5145 12.0591C31.6317 12.1607 31.6904 12.3131 31.6904 12.5163C31.6904 12.7195 31.6317 12.8759 31.5145 12.9853C31.4051 13.0947 31.2488 13.1494 31.0455 13.1494H27.0359Z" fill="#08A081"/>
</svg>
