<svg width="30" height="38" viewBox="0 0 30 38" fill="none" xmlns="http://www.w3.org/2000/svg">
<path d="M22.4546 8.15104V34.4205C22.4546 35.9338 21.2276 37.1608 19.7164 37.1608H2.97013C1.45892 37.1608 0.231934 35.9338 0.231934 34.4205V8.15104C0.231934 7.23689 0.681275 6.42618 1.37075 5.92831C1.8201 5.60445 2.37307 5.41284 2.97013 5.41284H19.7164C20.3177 5.41284 20.873 5.60677 21.3245 5.93488C22.0097 6.43295 22.4546 7.24133 22.4546 8.15104Z" fill="#DA0735"/>
<path d="M22.5076 8.1511C22.5045 14.1565 22.5384 21.5374 22.6053 27.5078L22.6762 33.96L22.6778 34.3633C22.7017 35.3828 22.1671 36.3964 21.2963 36.9358C20.8081 37.2535 20.2068 37.4004 19.6393 37.3884L18.0262 37.3803C15.8754 37.377 13.7248 37.3347 11.574 37.3126C9.96686 37.2805 6.72886 37.2645 5.12175 37.2572L3.50865 37.2512C2.68924 37.3026 1.81492 37.1717 1.1672 36.6193C0.513683 36.0851 0.115 35.2661 0.100692 34.4211L0.0506152 31.1949C0.0320538 30.1195 0.0163927 29.0441 0.0129124 27.9687C-0.0595931 21.3817 0.201814 14.7953 0.0931521 8.20872C0.0057587 6.60161 1.44002 5.15092 3.04771 5.20796C5.67898 5.1894 8.48813 5.18456 11.113 5.23058L17.5653 5.31836C18.1072 5.34001 19.4566 5.31236 19.9914 5.35529C21.3858 5.47787 22.5376 6.74971 22.5076 8.1511ZM22.4019 8.1511C22.4187 6.81507 21.315 5.58982 19.9775 5.4974C19.473 5.47826 18.0989 5.50572 17.5653 5.50746C13.1238 5.5904 7.44251 5.65459 3.04771 5.61786C1.37698 5.55173 0.217669 6.99121 0.365193 8.61185C0.272579 15.0641 0.522578 21.5159 0.451426 27.9685C0.447946 29.0439 0.432285 30.1193 0.413723 31.1947L0.363839 34.4207C0.351658 35.1976 0.700265 35.9609 1.30022 36.4573C1.91565 36.987 2.71766 37.1089 3.50865 37.0702L5.12175 37.0642C6.73118 37.0553 9.96551 37.0387 11.574 37.0087C13.7248 36.9867 15.8754 36.9443 18.0262 36.941L19.6393 36.9329C20.1459 36.9389 20.629 36.8047 21.0476 36.5408C21.7907 36.0858 22.2476 35.2338 22.2321 34.3629L22.2336 33.9596L22.3046 27.5074C22.3846 21.5482 22.3906 14.1437 22.4019 8.1511Z" fill="black"/>
<path d="M21.3248 5.93512L11.5022 13.1805C11.4119 13.2466 11.2906 13.2466 11.2027 13.1805L1.37109 5.92855C1.82043 5.60469 2.37341 5.41309 2.97047 5.41309H19.7167C20.3182 5.41289 20.8733 5.60682 21.3248 5.93512Z" fill="#E1395D"/>
<path d="M21.3777 5.93499C19.0071 7.70084 16.3049 9.7252 13.9893 11.5597C13.3433 12.0556 12.3116 12.8783 11.662 13.3509C11.4835 13.5007 11.2088 13.4974 11.0324 13.3451L10.8764 13.231C10.6825 13.086 10.1492 12.6867 9.94815 12.5357C9.10786 11.9162 7.14228 10.3389 6.28575 9.68614C4.77531 8.50324 2.60943 7.0276 1.00928 5.93712C1.43658 5.58658 1.93252 5.30332 2.48762 5.22018C2.86871 5.14323 3.40177 5.19524 3.78402 5.18538C6.30566 5.2401 8.82692 5.37699 11.349 5.24087C13.0301 5.16547 14.7111 5.18209 16.3922 5.25015C17.2327 5.28147 18.0734 5.30854 18.9139 5.32208C19.2735 5.33793 19.8255 5.31106 20.184 5.38337C20.6144 5.47888 21.0543 5.62177 21.3777 5.93499ZM21.272 5.93538C21.2246 5.9317 21.2192 5.92803 21.165 5.89226C20.8615 5.69949 20.5168 5.57072 20.1614 5.51871C19.8221 5.45781 19.2677 5.50866 18.9141 5.50382C16.3926 5.55313 13.8712 5.71612 11.3491 5.58522C8.82712 5.4493 6.30586 5.586 3.78421 5.64072L3.1539 5.64574C2.552 5.62583 1.99149 5.76233 1.49516 6.1005L1.4971 5.75808C2.94179 6.8969 4.91839 8.49183 6.41278 9.51483C7.84336 10.5028 9.97019 11.9814 11.3513 12.997C11.3548 12.9978 11.3598 12.9957 11.3633 12.9943L11.3867 12.9775L11.5402 12.8652C12.0924 12.4609 13.1533 11.7242 13.7262 11.3263C16.1502 9.66642 18.894 7.67087 21.272 5.93538Z" fill="black"/>
<path d="M19.1002 25.0368C19.1002 29.1513 15.7643 32.4868 11.6497 32.4868C7.53512 32.4868 4.2002 29.1513 4.2002 25.0368C4.2002 20.9227 7.53545 17.5868 11.6497 17.5868C15.7643 17.5871 19.1002 20.9227 19.1002 25.0368Z" fill="white"/>
<path d="M11.7142 18.7305C10.4541 18.7307 9.2224 19.1046 8.17476 19.8048C7.12713 20.505 6.31064 21.5002 5.82853 22.6644C5.34643 23.8286 5.22035 25.1097 5.46624 26.3455C5.71214 27.5814 6.31896 28.7166 7.20998 29.6077C8.101 30.4987 9.23623 31.1055 10.4721 31.3514C11.708 31.5973 12.989 31.4712 14.1532 30.9891C15.3175 30.507 16.3126 29.6905 17.0128 28.6429C17.7131 27.5952 18.0869 26.3635 18.0872 25.1034C18.0872 24.2665 17.9223 23.4378 17.602 22.6646C17.2818 21.8914 16.8124 21.1888 16.2206 20.5971C15.6288 20.0053 14.9263 19.5359 14.153 19.2156C13.3798 18.8953 12.5511 18.7305 11.7142 18.7305ZM15.7369 23.5641C15.7359 23.5766 15.7324 23.5887 15.7265 23.5998C15.7207 23.6109 15.7127 23.6206 15.703 23.6286C15.6852 23.6421 15.6635 23.6493 15.6412 23.6491C15.6367 23.6491 15.4874 23.631 15.4874 23.631C15.4751 23.6299 15.4632 23.6263 15.4523 23.6205C15.4414 23.6146 15.4318 23.6067 15.424 23.5971C15.4162 23.5875 15.4104 23.5765 15.4068 23.5646C15.4034 23.5528 15.4023 23.5404 15.4036 23.5281C15.4036 23.5281 15.4218 23.3177 15.4218 23.2102C15.422 22.5341 15.1681 21.8826 14.7105 21.385C14.6346 21.2998 14.5347 21.2397 14.4239 21.2125C14.3131 21.1854 14.1967 21.1925 14.0901 21.233C13.9834 21.2734 13.8916 21.3453 13.8267 21.4391C13.7618 21.5329 13.7269 21.6442 13.7266 21.7582L13.7244 26.9923C13.7238 27.5574 13.5662 28.1113 13.2692 28.5921C12.9722 29.0729 12.5475 29.4618 12.0424 29.7153C11.6304 29.9233 11.1739 30.0277 10.7125 30.0196H10.6989C10.3013 30.0199 9.90749 29.9419 9.54005 29.7899C9.17264 29.6379 8.83874 29.4151 8.55749 29.134C8.27622 28.853 8.05311 28.5193 7.90089 28.152C7.74865 27.7846 7.6703 27.3909 7.6703 26.9933C7.6703 26.8745 7.6909 26.6404 7.6909 26.6404C7.69143 26.6277 7.69474 26.6152 7.70062 26.6039C7.70649 26.5925 7.71475 26.5826 7.72486 26.5748C7.74247 26.561 7.76428 26.5537 7.78662 26.5542C7.78889 26.5542 7.94041 26.5711 7.94041 26.5711C7.96492 26.5742 7.98731 26.5866 8.00292 26.6058C8.01851 26.6249 8.02613 26.6494 8.0242 26.674C8.0242 26.675 8.00504 26.8854 8.00504 26.9929C8.00494 27.6692 8.2593 28.3208 8.71757 28.8182C8.79352 28.9031 8.89345 28.963 9.00415 28.99C9.11485 29.017 9.23115 29.0099 9.33769 28.9694C9.44424 28.929 9.53602 28.8573 9.60097 28.7636C9.66589 28.67 9.70092 28.5589 9.70143 28.4449V23.2123C9.70215 22.6454 9.86078 22.0899 10.1596 21.608C10.4583 21.1262 10.8854 20.7372 11.3929 20.4845C11.5952 20.3792 11.811 20.302 12.0342 20.2549C12.2573 20.2064 12.4851 20.1825 12.7135 20.1837C13.0344 20.1824 13.3535 20.2316 13.6591 20.3297C14.139 20.4845 14.5725 20.7571 14.92 21.1225C15.462 21.695 15.7618 22.4547 15.7569 23.243C15.7561 23.3504 15.7369 23.5641 15.7369 23.5641Z" fill="#08A081"/>
<path d="M21.9995 0.0945801H21.9995C18.0786 0.0945801 14.9 3.27373 14.9 7.19458C14.9 11.1158 18.0782 14.2946 21.9995 14.2946C25.9208 14.2946 29.1 11.1158 29.1 7.19458C29.1 3.2737 25.9208 0.0949159 21.9995 0.0945801Z" fill="white" stroke="black" stroke-width="0.2" stroke-miterlimit="10"/>
<path d="M18.0639 10.7336C17.8906 10.7336 17.7539 10.687 17.6539 10.5936C17.5606 10.4936 17.5139 10.3603 17.5139 10.1936C17.5139 10.0203 17.5606 9.89031 17.6539 9.80364C17.7539 9.71698 17.8906 9.67364 18.0639 9.67364H19.1839V4.76364H19.8039L18.3339 5.65364C18.2072 5.72698 18.0872 5.75698 17.9739 5.74364C17.8672 5.72364 17.7739 5.67698 17.6939 5.60364C17.6206 5.52364 17.5706 5.43031 17.5439 5.32364C17.5172 5.21698 17.5239 5.11031 17.5639 5.00364C17.6106 4.89031 17.6972 4.79698 17.8239 4.72364L19.2039 3.89364C19.3372 3.81364 19.4706 3.74698 19.6039 3.69364C19.7372 3.63364 19.8606 3.60364 19.9739 3.60364C20.1139 3.60364 20.2306 3.64364 20.3239 3.72364C20.4172 3.79698 20.4639 3.92031 20.4639 4.09364V9.67364H21.4839C21.6572 9.67364 21.7906 9.71698 21.8839 9.80364C21.9839 9.89031 22.0339 10.0203 22.0339 10.1936C22.0339 10.367 21.9839 10.5003 21.8839 10.5936C21.7906 10.687 21.6572 10.7336 21.4839 10.7336H18.0639ZM24.56 10.8336C24.2067 10.8336 23.8467 10.787 23.48 10.6936C23.1133 10.6003 22.7767 10.457 22.47 10.2636C22.3433 10.1836 22.2567 10.0903 22.21 9.98364C22.17 9.87031 22.16 9.76031 22.18 9.65364C22.2067 9.54031 22.2567 9.44698 22.33 9.37364C22.41 9.29364 22.5033 9.24698 22.61 9.23364C22.7233 9.22031 22.8467 9.25031 22.98 9.32364C23.2267 9.46364 23.4767 9.57031 23.73 9.64364C23.9833 9.71698 24.2533 9.75364 24.54 9.75364C24.82 9.75364 25.06 9.70364 25.26 9.60364C25.46 9.50364 25.6133 9.36364 25.72 9.18364C25.8267 9.00364 25.88 8.79364 25.88 8.55364C25.88 8.18031 25.7667 7.88031 25.54 7.65364C25.3133 7.42031 25.0033 7.30364 24.61 7.30364C24.3967 7.30364 24.19 7.34031 23.99 7.41364C23.79 7.48031 23.5933 7.60031 23.4 7.77364C23.34 7.82698 23.2633 7.88031 23.17 7.93364C23.0767 7.98031 22.9767 8.00364 22.87 8.00364C22.7033 8.00364 22.5767 7.96031 22.49 7.87364C22.4033 7.78698 22.36 7.66698 22.36 7.51364V4.24364C22.36 4.06364 22.4067 3.92698 22.5 3.83364C22.6 3.73364 22.74 3.68364 22.92 3.68364H26.21C26.39 3.68364 26.5267 3.73031 26.62 3.82364C26.72 3.91031 26.77 4.04031 26.77 4.21364C26.77 4.38031 26.72 4.51031 26.62 4.60364C26.5267 4.69698 26.39 4.74364 26.21 4.74364H23.61V6.98364H23.28C23.4533 6.75031 23.6833 6.57031 23.97 6.44364C24.2567 6.31698 24.57 6.25364 24.91 6.25364C25.3567 6.25364 25.7433 6.35031 26.07 6.54364C26.4033 6.73031 26.66 6.99364 26.84 7.33364C27.0267 7.66698 27.12 8.05698 27.12 8.50364C27.12 8.96364 27.0167 9.37031 26.81 9.72364C26.6033 10.0703 26.3067 10.3436 25.92 10.5436C25.54 10.737 25.0867 10.8336 24.56 10.8336Z" fill="#08A081"/>
</svg>
