<svg width="30" height="39" viewBox="0 0 30 39" fill="none" xmlns="http://www.w3.org/2000/svg">
<path d="M22.4541 8.95646V35.2259C22.4541 36.7392 21.2271 37.9662 19.7159 37.9662H2.96964C1.45843 37.9662 0.231445 36.7392 0.231445 35.2259V8.95646C0.231445 8.04231 0.680786 7.2316 1.37027 6.73373C1.81961 6.40987 2.37258 6.21826 2.96964 6.21826H19.7159C20.3172 6.21826 20.8725 6.41219 21.324 6.7403C22.0092 7.23837 22.4541 8.04675 22.4541 8.95646Z" fill="#DA0735"/>
<path d="M22.5071 8.95652C22.504 14.9619 22.5379 22.3428 22.6048 28.3132L22.6757 34.7654L22.6773 35.1687C22.7012 36.1883 22.1666 37.2018 21.2958 37.7412C20.8076 38.0589 20.2063 38.2058 19.6388 38.1939L18.0257 38.1857C15.8749 38.1825 13.7243 38.1401 11.5735 38.1181C9.96637 38.086 6.72837 38.0699 5.12126 38.0626L3.50816 38.0566C2.68875 38.108 1.81443 37.9771 1.16671 37.4247C0.513195 36.8905 0.114512 36.0715 0.100204 35.2265L0.050127 32.0003C0.0315655 30.9249 0.0159044 29.8495 0.0124241 28.7741C-0.0600814 22.1871 0.201325 15.6007 0.0926638 9.01414C0.00527042 7.40703 1.43953 5.95634 3.04722 6.01338C5.67849 5.99482 8.48765 5.98998 11.1125 6.036L17.5648 6.12378C18.1067 6.14543 19.4561 6.11778 19.9909 6.16071C21.3853 6.28329 22.5371 7.55513 22.5071 8.95652ZM22.4014 8.95652C22.4182 7.62048 21.3146 6.39524 19.977 6.30282C19.4725 6.28368 18.0984 6.31114 17.5648 6.31288C13.1234 6.39582 7.44202 6.46001 3.04722 6.42328C1.3765 6.35715 0.21718 7.79663 0.364705 9.41727C0.272091 15.8695 0.52209 22.3213 0.450938 28.7739C0.447458 29.8493 0.431797 30.9247 0.413235 32.0001L0.363351 35.2262C0.35117 36.003 0.699777 36.7664 1.29974 37.2627C1.91516 37.7925 2.71717 37.9143 3.50816 37.8756L5.12126 37.8696C6.73069 37.8607 9.96502 37.8441 11.5735 37.8141C13.7243 37.7921 15.8749 37.7497 18.0257 37.7464L19.6388 37.7383C20.1454 37.7443 20.6286 37.6101 21.0472 37.3462C21.7902 36.8913 22.2471 36.0392 22.2316 35.1683L22.2332 34.765L22.3041 28.3128C22.3842 22.3536 22.3902 14.9492 22.4014 8.95652Z" fill="black"/>
<path d="M21.3243 6.74054L11.5017 13.9859C11.4114 14.052 11.2901 14.052 11.2022 13.9859L1.37061 6.73397C1.81995 6.41011 2.37292 6.21851 2.96998 6.21851H19.7163C20.3178 6.21831 20.8729 6.41224 21.3243 6.74054Z" fill="#E1395D"/>
<path d="M21.3772 6.74041C19.0066 8.50626 16.3044 10.5306 13.9888 12.3651C13.3429 12.861 12.3111 13.6837 11.6615 14.1563C11.483 14.3061 11.2083 14.3028 11.032 14.1505L10.8759 14.0364C10.682 13.8914 10.1487 13.4921 9.94766 13.3411C9.10737 12.7216 7.14179 11.1443 6.28526 10.4916C4.77482 9.30866 2.60894 7.83302 1.00879 6.74254C1.43609 6.392 1.93203 6.10874 2.48713 6.0256C2.86822 5.94865 3.40128 6.00066 3.78353 5.9908C6.30518 6.04552 8.82644 6.18241 11.3485 6.04629C13.0296 5.97089 14.7106 5.98751 16.3918 6.05557C17.2322 6.08689 18.0729 6.11396 18.9134 6.1275C19.273 6.14335 19.825 6.11648 20.1835 6.18879C20.6139 6.2843 21.0538 6.42719 21.3772 6.74041ZM21.2715 6.7408C21.2241 6.73712 21.2187 6.73345 21.1646 6.69768C20.861 6.50491 20.5163 6.37614 20.1609 6.32413C19.8216 6.26323 19.2672 6.31408 18.9136 6.30924C16.3921 6.35855 13.8707 6.52154 11.3487 6.39064C8.82663 6.25472 6.30537 6.39142 3.78372 6.44614L3.15341 6.45116C2.55151 6.43125 1.991 6.56775 1.49467 6.90592L1.49661 6.5635C2.9413 7.70232 4.9179 9.29725 6.41229 10.3203C7.84287 11.3083 9.9697 12.7868 11.3508 13.8025C11.3543 13.8032 11.3593 13.8011 11.3628 13.7997L11.3862 13.7829L11.5397 13.6706C12.0919 13.2663 13.1528 12.5296 13.7257 12.1317C16.1497 10.4718 18.8935 8.47629 21.2715 6.7408Z" fill="black"/>
<path d="M19.0997 25.8422C19.0997 29.9567 15.7638 33.2922 11.6492 33.2922C7.53463 33.2922 4.19971 29.9567 4.19971 25.8422C4.19971 21.7281 7.53496 18.3922 11.6492 18.3922C15.7638 18.3926 19.0997 21.7281 19.0997 25.8422Z" fill="white"/>
<path d="M11.7137 19.5359C10.4536 19.5361 9.22191 19.91 8.17428 20.6102C7.12664 21.3105 6.31015 22.3056 5.82804 23.4698C5.34594 24.634 5.21986 25.9151 5.46576 27.151C5.71165 28.3868 6.31847 29.5221 7.2095 30.4131C8.10051 31.3041 9.23574 31.9109 10.4716 32.1568C11.7075 32.4027 12.9885 32.2766 14.1527 31.7945C15.317 31.3124 16.3121 30.4959 17.0123 29.4483C17.7126 28.4007 18.0864 27.1689 18.0867 25.9088C18.0867 25.0719 17.9218 24.2432 17.6016 23.47C17.2813 22.6968 16.8119 21.9943 16.2201 21.4025C15.6283 20.8107 14.9258 20.3413 14.1526 20.021C13.3793 19.7007 12.5506 19.5359 11.7137 19.5359ZM15.7365 24.3695C15.7354 24.382 15.7319 24.3941 15.726 24.4052C15.7202 24.4163 15.7122 24.4261 15.7025 24.434C15.6848 24.4475 15.663 24.4548 15.6407 24.4546C15.6362 24.4546 15.4869 24.4364 15.4869 24.4364C15.4746 24.4353 15.4627 24.4317 15.4518 24.4259C15.4409 24.4201 15.4313 24.4121 15.4235 24.4025C15.4157 24.393 15.4099 24.3819 15.4064 24.3701C15.4029 24.3582 15.4018 24.3458 15.4032 24.3335C15.4032 24.3335 15.4213 24.1231 15.4213 24.0156C15.4215 23.3395 15.1676 22.6881 14.71 22.1904C14.6341 22.1052 14.5342 22.0451 14.4234 22.018C14.3126 21.9908 14.1962 21.9979 14.0896 22.0384C13.983 22.0789 13.8911 22.1507 13.8262 22.2445C13.7613 22.3383 13.7264 22.4496 13.7261 22.5636L13.7239 27.7977C13.7233 28.3629 13.5657 28.9167 13.2687 29.3976C12.9717 29.8784 12.547 30.2672 12.0419 30.5208C11.6299 30.7287 11.1734 30.8331 10.712 30.825H10.6984C10.3008 30.8253 9.907 30.7473 9.53956 30.5953C9.17215 30.4434 8.83825 30.2205 8.557 29.9394C8.27574 29.6584 8.05262 29.3247 7.9004 28.9574C7.74816 28.59 7.66981 28.1963 7.66981 27.7987C7.66981 27.6799 7.69041 27.4459 7.69041 27.4459C7.69094 27.4331 7.69425 27.4206 7.70014 27.4093C7.706 27.3979 7.71426 27.388 7.72437 27.3802C7.74198 27.3664 7.76379 27.3591 7.78613 27.3596C7.78841 27.3596 7.93992 27.3765 7.93992 27.3765C7.96443 27.3796 7.98682 27.392 8.00243 27.4112C8.01802 27.4304 8.02565 27.4548 8.02371 27.4794C8.02371 27.4805 8.00456 27.6908 8.00456 27.7983C8.00445 28.4746 8.25881 29.1262 8.71708 29.6236C8.79303 29.7085 8.89296 29.7685 9.00366 29.7954C9.11436 29.8225 9.23066 29.8153 9.3372 29.7749C9.44375 29.7344 9.53553 29.6627 9.60048 29.569C9.66541 29.4754 9.70043 29.3643 9.70094 29.2503V24.0177C9.70166 23.4508 9.86029 22.8953 10.1591 22.4135C10.4578 21.9317 10.8849 21.5426 11.3924 21.2899C11.5947 21.1846 11.8105 21.1074 12.0337 21.0604C12.2568 21.0118 12.4847 20.9879 12.713 20.9891C13.0339 20.9878 13.3531 21.037 13.6586 21.1351C14.1385 21.2899 14.572 21.5625 14.9196 21.9279C15.4615 22.5004 15.7613 23.2601 15.7564 24.0484C15.7556 24.1558 15.7365 24.3695 15.7365 24.3695Z" fill="#08A081"/>
<path d="M21.9991 0.9H21.999C18.0781 0.9 14.8995 4.07914 14.8995 8C14.8995 11.9212 18.0778 15.1 21.999 15.1C25.9203 15.1 29.0995 11.9212 29.0995 8C29.0995 4.07912 25.9203 0.900336 21.9991 0.9Z" fill="white" stroke="black" stroke-width="0.2" stroke-miterlimit="10"/>
<path d="M18.0634 11.5391C17.8901 11.5391 17.7534 11.4924 17.6534 11.3991C17.5601 11.2991 17.5134 11.1657 17.5134 10.9991C17.5134 10.8257 17.5601 10.6957 17.6534 10.6091C17.7534 10.5224 17.8901 10.4791 18.0634 10.4791H19.1834V5.56906H19.8034L18.3334 6.45906C18.2068 6.5324 18.0868 6.5624 17.9734 6.54906C17.8668 6.52906 17.7734 6.4824 17.6934 6.40906C17.6201 6.32906 17.5701 6.23573 17.5434 6.12906C17.5168 6.0224 17.5234 5.91573 17.5634 5.80906C17.6101 5.69573 17.6968 5.6024 17.8234 5.52906L19.2034 4.69906C19.3368 4.61906 19.4701 4.5524 19.6034 4.49906C19.7368 4.43906 19.8601 4.40906 19.9734 4.40906C20.1134 4.40906 20.2301 4.44906 20.3234 4.52906C20.4168 4.6024 20.4634 4.72573 20.4634 4.89906V10.4791H21.4834C21.6568 10.4791 21.7901 10.5224 21.8834 10.6091C21.9834 10.6957 22.0334 10.8257 22.0334 10.9991C22.0334 11.1724 21.9834 11.3057 21.8834 11.3991C21.7901 11.4924 21.6568 11.5391 21.4834 11.5391H18.0634ZM24.3595 11.6391C23.9995 11.6391 23.6262 11.5924 23.2395 11.4991C22.8528 11.4057 22.5162 11.2657 22.2295 11.0791C22.0962 10.9924 22.0062 10.8924 21.9595 10.7791C21.9128 10.6657 21.8995 10.5591 21.9195 10.4591C21.9462 10.3524 21.9962 10.2624 22.0695 10.1891C22.1495 10.1157 22.2462 10.0724 22.3595 10.0591C22.4795 10.0457 22.6095 10.0757 22.7495 10.1491C23.0228 10.2957 23.2862 10.4024 23.5395 10.4691C23.7928 10.5291 24.0528 10.5591 24.3195 10.5591C24.6128 10.5591 24.8595 10.5191 25.0595 10.4391C25.2595 10.3591 25.4095 10.2391 25.5095 10.0791C25.6162 9.91906 25.6695 9.72573 25.6695 9.49906C25.6695 9.16573 25.5562 8.91906 25.3295 8.75906C25.1095 8.5924 24.7862 8.50906 24.3595 8.50906H23.7195C23.5328 8.50906 23.3895 8.4624 23.2895 8.36906C23.1962 8.27573 23.1495 8.14573 23.1495 7.97906C23.1495 7.8124 23.1962 7.6824 23.2895 7.58906C23.3895 7.49573 23.5328 7.44906 23.7195 7.44906H24.2395C24.4928 7.44906 24.7095 7.40906 24.8895 7.32906C25.0695 7.2424 25.2095 7.1224 25.3095 6.96906C25.4095 6.81573 25.4595 6.62906 25.4595 6.40906C25.4595 6.1024 25.3562 5.86906 25.1495 5.70906C24.9495 5.54906 24.6562 5.46906 24.2695 5.46906C24.0228 5.46906 23.7895 5.49906 23.5695 5.55906C23.3562 5.6124 23.1195 5.71573 22.8595 5.86906C22.7395 5.9424 22.6228 5.9724 22.5095 5.95906C22.4028 5.94573 22.3128 5.9024 22.2395 5.82906C22.1662 5.75573 22.1162 5.66906 22.0895 5.56906C22.0628 5.4624 22.0695 5.35573 22.1095 5.24906C22.1495 5.13573 22.2328 5.03906 22.3595 4.95906C22.6462 4.7724 22.9628 4.6324 23.3095 4.53906C23.6562 4.43906 24.0128 4.38906 24.3795 4.38906C24.8662 4.38906 25.2828 4.46573 25.6295 4.61906C25.9762 4.76573 26.2395 4.97906 26.4195 5.25906C26.6062 5.5324 26.6995 5.86573 26.6995 6.25906C26.6995 6.53906 26.6462 6.79573 26.5395 7.02906C26.4328 7.25573 26.2828 7.44906 26.0895 7.60906C25.8962 7.76906 25.6628 7.8824 25.3895 7.94906V7.82906C25.8695 7.90906 26.2428 8.10906 26.5095 8.42906C26.7762 8.7424 26.9095 9.13573 26.9095 9.60906C26.9095 10.0224 26.8062 10.3824 26.5995 10.6891C26.3928 10.9957 26.0995 11.2324 25.7195 11.3991C25.3395 11.5591 24.8862 11.6391 24.3595 11.6391Z" fill="#08A081"/>
</svg>
