<svg width="26" height="27" viewBox="0 0 26 27" fill="none" xmlns="http://www.w3.org/2000/svg">
<rect y="0.5" width="26" height="26" rx="4" fill="#08A081"/>
<path d="M18.4444 18.9444H7.55556V8.05556H13V6.5H7.55556C7.143 6.5 6.74733 6.66389 6.45561 6.95561C6.16389 7.24733 6 7.643 6 8.05556V18.9444C6 19.357 6.16389 19.7527 6.45561 20.0444C6.74733 20.3361 7.143 20.5 7.55556 20.5H18.4444C19.3 20.5 20 19.8 20 18.9444V13.5H18.4444V18.9444ZM14.5556 6.5V8.05556H17.3478L9.70222 15.7011L10.7989 16.7978L18.4444 9.15222V11.9444H20V6.5H14.5556Z" fill="white"/>
</svg>
