<svg width="141" height="148" viewBox="0 0 141 148" fill="none" xmlns="http://www.w3.org/2000/svg">
<path d="M73.1784 11.5898C37.341 10.531 6.29501 36.5382 1.60399 70.6642C-3.52352 107.976 24.7029 141.55 59.4315 146.929C102.629 153.618 144.527 114.926 140.764 72.9523C137.93 41.3252 109.613 12.6636 73.1784 11.5898Z" fill="#F4F7FA"/>
<path d="M76.1735 109.772C69.0141 110.169 55.3675 81.5521 64.9 66.3282C68.8786 59.9756 74.8841 59.1628 77.4228 51.0741C79.6905 43.8535 75.9076 41.3095 77.0967 33.271C78.7674 21.9659 88.7916 9.70749 98.0232 10.6508C102.654 11.1225 107.837 14.9912 109.337 20.4907C110.536 24.8963 106.893 29.3722 108.183 30.2653C109.241 30.9979 111.384 28.0124 113.27 28.5693C116.055 29.3872 117.971 37.8221 115.458 44.8922C111.153 57.0001 96.5883 57.4216 95.9912 66.1475C95.6099 71.7072 101.4 73.4434 100.446 79.1737C99.6086 84.2166 94.747 85.1749 88.5207 91.4121C78.7774 101.187 80.0116 109.561 76.1735 109.772Z" fill="url(#paint0_linear)"/>
<g opacity="0.5">
<path opacity="0.5" d="M77.99 116.065C77.8445 116.105 77.684 116.055 77.5937 115.924C77.5134 115.809 77.5134 115.663 77.5736 115.553C77.5736 115.337 77.4331 114.635 77.2676 113.832C76.3394 109.306 73.876 97.2883 76.3243 78.1605C79.4049 54.1053 89.0026 27.8723 104.852 0.17916C104.952 0.00855529 105.168 -0.0516581 105.338 0.0486976C105.509 0.149053 105.569 0.364818 105.469 0.535423C88.4407 30.2859 69.8472 74.066 77.9649 113.686C78.3312 115.478 78.3964 115.804 78.0904 116.015C78.0603 116.035 78.0252 116.055 77.99 116.065Z" fill="white"/>
<path opacity="0.5" d="M82.8713 52.6666C82.6907 52.7218 82.4951 52.6215 82.4348 52.4408C82.3696 52.2552 82.47 52.0494 82.6556 51.9842C98.0281 46.6102 107.139 41.1006 112.081 37.4326C117.429 33.4585 119.17 30.7138 119.185 30.6887C119.291 30.5231 119.511 30.4679 119.677 30.5733C119.843 30.6787 119.898 30.8995 119.792 31.0651C119.722 31.1805 117.996 33.9152 112.563 37.9645C107.581 41.6777 98.3893 47.2424 82.8864 52.6616C82.8814 52.6616 82.8764 52.6616 82.8713 52.6666Z" fill="white"/>
<path opacity="0.5" d="M88.4453 35.3785C88.3751 35.3986 88.2948 35.3986 88.2246 35.3685C84.0403 33.8381 81.1555 28.6497 79.6553 19.9539C78.5466 13.5411 78.6369 7.4897 78.6419 7.42948C78.6469 7.23379 78.8075 7.07322 79.0081 7.07824C79.2038 7.08326 79.3644 7.24383 79.3593 7.44454C79.3543 7.68037 79.0533 31.2489 88.4754 34.6961C88.6611 34.7664 88.7564 34.9721 88.6912 35.1578C88.641 35.2682 88.5557 35.3484 88.4453 35.3785Z" fill="white"/>
<path opacity="0.5" d="M76.299 82.8273C76.1987 82.8574 76.0883 82.8424 75.993 82.7771C70.2032 78.7679 67.4087 71.7581 66.0791 66.5847C64.6442 61.005 64.569 56.2933 64.569 56.2481C64.5639 56.0524 64.7245 55.8868 64.9202 55.8868C65.1158 55.8818 65.2814 56.0424 65.2814 56.2381C65.2814 56.2832 65.3567 60.9197 66.7715 66.4242C68.0709 71.4721 70.7952 78.3063 76.3944 82.1901C76.5549 82.3004 76.595 82.5262 76.4847 82.6868C76.4445 82.7571 76.3743 82.8022 76.299 82.8273Z" fill="white"/>
</g>
<path d="M80.659 27.7741L93.7587 136.69C93.9544 138.321 92.8306 139.786 91.2552 139.942L36.6838 145.933C33.3424 146.139 31.5111 144.433 31.3054 142.696L17.5485 26.901C17.3428 25.1749 18.9834 23.6094 22.3398 23.6094L77.4079 24.7685C79.0033 24.7986 80.4633 26.1484 80.659 27.7741Z" fill="url(#paint1_linear)"/>
<path d="M83.1172 27.5842L96.2922 137.047C96.4879 138.688 95.359 140.158 93.7786 140.319L37.2004 145.949C35.4243 146.124 33.7988 144.84 33.5931 143.099L19.7609 26.7011C19.5551 24.9649 20.8596 23.57 22.6507 23.6001L79.8511 24.5635C81.4515 24.5936 82.9165 25.9534 83.1172 27.5842Z" fill="url(#paint2_linear)"/>
<path d="M82.0437 33.6202L94.2554 135.11C94.441 136.645 93.3824 138.015 91.9024 138.161L38.6906 143.339C37.04 143.5 35.5299 142.3 35.3392 140.675L22.5556 33.1536C22.3649 31.5378 23.574 30.2282 25.2397 30.2483L78.9933 30.8203C80.4884 30.8354 81.8581 32.0948 82.0437 33.6202Z" fill="url(#paint3_linear)"/>
<path d="M53.5111 27.5063C53.5814 28.0884 53.165 28.555 52.5779 28.55C51.9909 28.545 51.4591 28.0633 51.3889 27.4812C51.3186 26.8992 51.7401 26.4325 52.3271 26.4375C52.9091 26.4476 53.4409 26.9243 53.5111 27.5063Z" fill="url(#paint4_linear)"/>
<g opacity="0.5">
<path opacity="0.5" d="M72.8421 101.751C61.9499 81.6096 45.6794 75.5782 40.7776 54.8196C38.1286 43.5999 39.9347 32.8618 42.9751 23.9452L22.6507 23.604C20.8596 23.5739 19.5551 24.9688 19.7609 26.705L33.5931 143.097C33.7988 144.844 35.4243 146.128 37.2004 145.948L81.6723 141.517C82.0034 123.473 77.6987 110.728 72.8421 101.751Z" fill="white"/>
</g>
<g opacity="0.8">
<g opacity="0.8">
<path opacity="0.8" d="M75.8077 87.8685C75.7475 87.2865 75.2809 86.7997 74.7641 86.8148L44.3151 87.6277C43.7683 87.6427 43.3769 88.1696 43.4422 88.7617L43.7934 92.0835C43.8586 92.6806 44.3503 93.1472 44.8921 93.1322L75.306 92.1838C75.8227 92.1688 76.194 91.682 76.1338 91.105L75.8077 87.8685Z" fill="white"/>
<path opacity="0.8" d="M73.545 94.9891C73.4848 94.407 73.0182 93.9454 72.4964 93.9655L48.3489 94.7533C47.8071 94.7733 47.4158 95.2701 47.481 95.8622L49.1517 111.748C49.2119 112.341 49.7036 112.797 50.2404 112.772L74.2976 111.628C74.8143 111.603 75.1856 111.111 75.1304 110.534L73.545 94.9891ZM66.5009 107.062C66.5762 107.81 66.0945 108.392 65.4172 108.422L58.604 108.723C57.9216 108.753 57.3045 108.216 57.2293 107.463L56.4366 99.8513C56.3563 99.0987 56.848 98.4263 57.5303 98.4012L64.3586 98.1553C65.0359 98.1302 65.643 98.7575 65.7233 99.5051L66.5009 107.062Z" fill="white"/>
<g opacity="0.8">
<path opacity="0.8" d="M60.6758 107.23C60.4299 107.24 60.1791 107.15 59.9683 106.949L57.9715 105.047C57.5551 104.651 57.4849 103.983 57.816 103.557C58.1471 103.13 58.7542 103.105 59.1706 103.502L60.4149 104.686L63.5004 100.692C63.8265 100.265 64.4286 100.245 64.84 100.641C65.2514 101.038 65.3216 101.7 64.9955 102.127L61.3179 106.894C61.1524 107.104 60.9166 107.215 60.6758 107.23Z" fill="white"/>
</g>
</g>
<path opacity="0.8" d="M74.9494 55.0508H37.3109C34.7471 55.0508 32.7854 57.1281 33.0664 59.7675L34.1551 69.9486C34.436 72.5829 36.8443 74.7355 39.398 74.6954L76.876 74.0933C79.2641 74.0531 81.0201 71.9507 80.7643 69.4167L79.7759 59.5969C79.515 57.0579 77.3476 55.0508 74.9494 55.0508Z" fill="white"/>
</g>
<path d="M38.6909 29.9198C38.6909 38.3747 31.8776 45.6806 23.4538 46.2476C14.9949 46.8147 8.12146 40.3768 8.12146 31.8717C8.12146 23.3666 14.9999 16.0506 23.4538 15.5388C31.8776 15.022 38.6909 21.4648 38.6909 29.9198Z" fill="#FF7B01"/>
<path d="M40.4969 30.4627C40.4969 38.9177 33.6836 46.2236 25.2598 46.7906C16.801 47.3576 9.92749 40.9198 9.92749 32.4147C9.92749 23.9095 16.806 16.5936 25.2598 16.0818C33.6886 15.5649 40.4969 22.0078 40.4969 30.4627Z" fill="url(#paint5_linear)"/>
<path d="M24.7181 39.7411C24.0559 39.7863 23.4388 39.4752 23.0976 38.9232L17.3329 29.6704C16.7911 28.8023 17.0821 27.6131 17.9801 27.016C18.8782 26.4189 20.0422 26.6346 20.584 27.5027L24.5827 33.9255L29.8557 23.1824C30.3273 22.219 31.4662 21.7774 32.3944 22.1939C33.3225 22.6104 33.6938 23.7293 33.2222 24.6928L26.4089 38.592C26.0978 39.2293 25.4757 39.6658 24.7884 39.7361C24.7633 39.7361 24.7432 39.7411 24.7181 39.7411Z" fill="white"/>
<g clip-path="url(#clip0)">
<path d="M12.1582 45.8587L12.9102 46.2348C16.044 48.1149 19.5535 48.9923 23.0631 48.9923C34.0932 48.9923 43.1179 39.9677 43.1179 28.9376C43.1179 23.6732 40.9869 18.5342 37.2268 14.7739C33.4665 11.0135 28.4527 8.88281 23.0631 8.88281C12.033 8.88281 3.00819 17.9074 3.13362 29.063C3.13362 32.8231 4.26169 36.4582 6.14176 39.5916L6.64309 40.3438L4.63778 47.739L12.1582 45.8587Z" fill="#00E676"/>
<path d="M39.3575 12.7685C35.0958 8.38158 29.2048 6 23.1883 6C10.4035 6 0.125422 16.4034 0.250664 29.0629C0.250664 33.0739 1.37874 36.9596 3.25899 40.4691L0 52.3766L12.1582 49.2431C15.5424 51.1233 19.3026 52.0007 23.0631 52.0007C35.7226 52.0007 46.0007 41.5972 46.0007 28.9378C46.0007 22.7959 43.6191 17.0301 39.3577 12.7685H39.3575ZM23.1883 48.1152C19.8041 48.1152 16.4198 47.2379 13.5369 45.4831L12.7849 45.107L5.51515 46.9871L7.39522 39.8427L6.89389 39.0905C1.37874 30.1913 4.01098 18.4089 13.0356 12.8937C22.0602 7.37874 33.7171 10.011 39.2322 19.0356C44.7472 28.0602 42.115 39.7171 33.0905 45.2323C30.2074 47.1123 26.698 48.115 23.1883 48.115V48.1152ZM34.2184 34.2023L32.8397 33.5756C32.8397 33.5756 30.8344 32.6981 29.5809 32.0714C29.4555 32.0714 29.3302 31.946 29.2048 31.946C28.8287 31.946 28.578 32.0714 28.3274 32.1968C28.3274 32.1968 28.2021 32.3221 26.4473 34.3276C26.3219 34.5782 26.0712 34.7036 25.8206 34.7036H25.6951C25.5699 34.7036 25.3192 34.5782 25.1938 34.453L24.5671 34.2023C23.1883 33.5756 21.935 32.8234 20.9322 31.8207C20.6815 31.5701 20.3054 31.3194 20.0547 31.0687C19.1773 30.1913 18.2999 29.1885 17.6733 28.0604L17.5479 27.8097C17.4227 27.6843 17.4227 27.5591 17.2973 27.3084C17.2973 27.0578 17.2973 26.8071 17.4227 26.6817C17.4227 26.6817 17.924 26.0549 18.2999 25.679C18.5508 25.4282 18.676 25.0523 18.9267 24.8016C19.1773 24.4255 19.3027 23.9242 19.1773 23.5481C19.0521 22.9214 17.5479 19.5371 17.172 18.7851C16.9212 18.409 16.6707 18.2838 16.2946 18.1584H14.9159C14.665 18.1584 14.4145 18.2838 14.1637 18.2838L14.0383 18.409C13.7876 18.5345 13.5369 18.7851 13.2863 18.9104C13.0356 19.1612 12.9102 19.4117 12.6595 19.6625C11.7821 20.7906 11.2808 22.1694 11.2808 23.5481C11.2808 24.5508 11.5314 25.5536 11.9075 26.431L12.033 26.8071C13.161 29.1885 14.665 31.3194 16.6707 33.1995L17.172 33.7008C17.5479 34.0769 17.924 34.3276 18.1747 34.7035C20.8069 36.9598 23.8151 38.5892 27.1993 39.4666C27.5754 39.5919 28.0767 39.5919 28.4528 39.7173H29.7061C30.3329 39.7173 31.0849 39.4666 31.5864 39.216C31.9623 38.9653 32.2129 38.9653 32.4636 38.7146L32.7144 38.4638C32.9651 38.2131 33.2158 38.0879 33.4664 37.8372C33.7171 37.5865 33.9678 37.3359 34.0932 37.085C34.3438 36.5837 34.4691 35.957 34.5945 35.3304V34.453C34.5945 34.453 34.4691 34.3276 34.2184 34.2023Z" fill="white"/>
</g>
<defs>
<linearGradient id="paint0_linear" x1="101.612" y1="24.3903" x2="68.9408" y2="108.85" gradientUnits="userSpaceOnUse">
<stop stop-color="#417465"/>
<stop offset="1" stop-color="#2A5446"/>
</linearGradient>
<linearGradient id="paint1_linear" x1="54.9799" y1="81.9634" x2="33.4735" y2="84.3092" gradientUnits="userSpaceOnUse">
<stop stop-color="#66738F"/>
<stop offset="0.9964" stop-color="#363636"/>
</linearGradient>
<linearGradient id="paint2_linear" x1="73.9289" y1="27.7461" x2="20.7372" y2="208.809" gradientUnits="userSpaceOnUse">
<stop stop-color="#66738F"/>
<stop offset="0.9964" stop-color="#363636"/>
</linearGradient>
<linearGradient id="paint3_linear" x1="19.0103" y1="78.7496" x2="72.477" y2="89.9864" gradientUnits="userSpaceOnUse">
<stop offset="0.00359712" stop-color="#8DCABE"/>
<stop offset="1" stop-color="#4BAC99"/>
</linearGradient>
<linearGradient id="paint4_linear" x1="54.0015" y1="23.2836" x2="-8.51242" y2="192.571" gradientUnits="userSpaceOnUse">
<stop stop-color="#2A5446"/>
<stop offset="1" stop-color="#417465"/>
</linearGradient>
<linearGradient id="paint5_linear" x1="9.92538" y1="31.4354" x2="40.4977" y2="31.4354" gradientUnits="userSpaceOnUse">
<stop stop-color="#FFC444"/>
<stop offset="0.9964" stop-color="#FF7B01"/>
</linearGradient>
<clipPath id="clip0">
<rect width="46" height="46.5391" fill="white" transform="translate(0 6)"/>
</clipPath>
</defs>
</svg>
