<svg width="55" height="55" viewBox="0 0 55 55" fill="none" xmlns="http://www.w3.org/2000/svg">
<path d="M55 27.3684C55 28.5429 54.9268 29.6997 54.7839 30.8361C54.4532 33.4271 53.7572 35.9077 52.751 38.2186C52.751 38.2186 52.751 38.2222 52.7473 38.2253C48.5282 47.9392 38.8094 54.7362 27.4998 54.7362C14.6968 54.7362 3.94393 46.0304 0.877028 34.245V34.2414C0.302495 32.0452 0 29.7411 0 27.3684C0 24.9433 0.31659 22.5911 0.915232 20.3534C4.02399 8.63715 14.7486 0.000976575 27.4998 0.000976575C42.6878 0.00052168 55 12.2536 55 27.3684Z" fill="#CEB3AA"/>
<path d="M53.5469 26.046C53.5469 26.379 53.5415 26.7124 53.5283 27.0427C53.4992 27.8201 53.4382 28.587 53.3431 29.3458C53.0284 31.8127 52.3701 34.1713 51.418 36.3716C51.418 36.3716 51.418 36.3743 51.4126 36.3793C47.4172 45.6237 38.2124 52.0914 27.501 52.0914C15.3749 52.0914 5.19158 43.8069 2.28571 32.5901V32.5874C1.85447 30.9347 1.58516 29.2161 1.49237 27.4547C1.46826 26.9867 1.45508 26.5186 1.45508 26.0455C1.45508 23.7369 1.75394 21.5002 2.32256 19.369C5.26573 8.21818 15.4244 0 27.5005 0C41.8857 0.000454895 53.5469 11.6617 53.5469 26.046Z" fill="#E7E6E2"/>
<path d="M53.5465 26.046C53.5465 26.379 53.541 26.7124 53.5279 27.0427C52.5416 25.2022 50.8599 22.1799 48.0068 17.2724C41.6765 6.38589 27.501 5.15674 16.004 8.60212C4.50425 12.0502 1.98685 31.295 1.98685 31.295L1.49239 27.4557C1.46828 26.9876 1.45508 26.5195 1.45508 26.0464C1.45508 23.7379 1.75396 21.5011 2.32258 19.3699C5.26575 8.2191 15.4245 0.000976576 27.5006 0.000976576C41.8853 0.000521681 53.5465 11.6618 53.5465 26.046Z" fill="white"/>
<path d="M50.3702 26.9286C50.3702 27.9234 50.3092 28.9033 50.1905 29.8658C49.9157 32.0607 49.3366 34.1614 48.4996 36.1188C48.4996 36.1188 48.4996 36.122 48.4969 36.1247C44.9879 44.3524 36.9044 50.1095 27.4976 50.1095C16.8489 50.1095 7.90571 42.7357 5.35465 32.753V32.7503C4.87701 30.8898 4.625 28.9387 4.625 26.9286C4.625 24.8747 4.88839 22.8823 5.3865 20.9867C7.97212 11.0627 16.8922 3.74756 27.4976 3.74756C40.1296 3.74756 50.3702 14.126 50.3702 26.9286Z" fill="url(#paint0_radial_26645_234568)"/>
<path d="M49.8029 26.0455C49.8029 27.0026 49.7437 27.9451 49.6277 28.8708C49.3598 30.982 48.7953 33.0031 47.9792 34.8859C47.9792 34.8859 47.9792 34.8886 47.9765 34.8913C44.5552 42.806 36.6742 48.3444 27.503 48.3444C17.1209 48.3444 8.4015 41.2508 5.91459 31.648V31.6452C5.44878 29.8556 5.20312 27.9783 5.20312 26.045C5.20312 24.069 5.46015 22.1525 5.94552 20.3288C8.4661 10.7824 17.1632 3.74512 27.5025 3.74512C39.8188 3.74603 49.8029 13.7301 49.8029 26.0455Z" fill="#8029AB"/>
<path d="M48.3903 26.0465C48.3903 26.9431 48.3348 27.826 48.226 28.6935C47.9749 30.6714 47.4459 32.5646 46.6821 34.3283C46.6821 34.3283 46.6821 34.331 46.6794 34.3338C43.4747 41.7481 36.0922 46.9362 27.5006 46.9362C17.7749 46.9362 9.60725 40.291 7.27773 31.2955V31.2928C6.84149 29.6165 6.61133 27.8579 6.61133 26.0465C6.61133 24.1955 6.85196 22.4 7.30686 20.6919C9.66822 11.7491 17.8149 5.15723 27.5006 5.15723C39.0376 5.15723 48.3903 14.5099 48.3903 26.0465Z" fill="#C349E1"/>
<path d="M48.392 26.046C48.392 26.9426 48.3365 27.8256 48.2278 28.6931C45.6126 14.2742 36.5406 9.23673 22.7427 10.4454C15.413 11.0877 10.4155 16.0615 7.30859 20.6919C9.66995 11.7491 17.8167 5.15723 27.5023 5.15723C39.0394 5.15677 48.392 14.5094 48.392 26.046Z" fill="#D468E5"/>
<path opacity="0.43" d="M46.679 34.3342C43.4743 41.7485 36.0918 46.9366 27.5002 46.9366C17.7745 46.9366 9.60686 40.2915 7.27734 31.2959C10.2414 35.6693 17.1695 43.8005 27.5002 43.4116C41.3827 42.8907 46.5202 34.593 46.679 34.3342Z" fill="#D468E5"/>
<mask id="path-9-outside-1_26645_234568" maskUnits="userSpaceOnUse" x="20" y="16" width="15" height="21" fill="black">
<rect fill="white" x="20" y="16" width="15" height="21"/>
<path d="M23.2871 36C22.7324 36 22.3077 35.8527 22.0131 35.558C21.7184 35.2633 21.5711 34.856 21.5711 34.336C21.5711 33.7987 21.7184 33.3913 22.0131 33.114C22.3077 32.8367 22.7324 32.698 23.2871 32.698H25.9131V20.972H27.8111L24.0151 23.286C23.6164 23.5287 23.2437 23.624 22.8971 23.572C22.5677 23.52 22.2817 23.3727 22.0391 23.13C21.7964 22.8873 21.6317 22.6013 21.5451 22.272C21.4757 21.9253 21.5104 21.5873 21.6491 21.258C21.7877 20.9113 22.0477 20.6167 22.4291 20.374L26.0431 18.19C26.4071 17.9647 26.7711 17.7827 27.1351 17.644C27.5164 17.5053 27.8891 17.436 28.2531 17.436C28.7731 17.436 29.1804 17.5747 29.4751 17.852C29.7871 18.112 29.9431 18.5193 29.9431 19.074V32.698H32.3091C32.8464 32.698 33.2624 32.8367 33.5571 33.114C33.8517 33.3913 33.9991 33.7987 33.9991 34.336C33.9991 34.8733 33.8517 35.2893 33.5571 35.584C33.2624 35.8613 32.8464 36 32.3091 36H23.2871Z"/>
</mask>
<path d="M23.2871 36C22.7324 36 22.3077 35.8527 22.0131 35.558C21.7184 35.2633 21.5711 34.856 21.5711 34.336C21.5711 33.7987 21.7184 33.3913 22.0131 33.114C22.3077 32.8367 22.7324 32.698 23.2871 32.698H25.9131V20.972H27.8111L24.0151 23.286C23.6164 23.5287 23.2437 23.624 22.8971 23.572C22.5677 23.52 22.2817 23.3727 22.0391 23.13C21.7964 22.8873 21.6317 22.6013 21.5451 22.272C21.4757 21.9253 21.5104 21.5873 21.6491 21.258C21.7877 20.9113 22.0477 20.6167 22.4291 20.374L26.0431 18.19C26.4071 17.9647 26.7711 17.7827 27.1351 17.644C27.5164 17.5053 27.8891 17.436 28.2531 17.436C28.7731 17.436 29.1804 17.5747 29.4751 17.852C29.7871 18.112 29.9431 18.5193 29.9431 19.074V32.698H32.3091C32.8464 32.698 33.2624 32.8367 33.5571 33.114C33.8517 33.3913 33.9991 33.7987 33.9991 34.336C33.9991 34.8733 33.8517 35.2893 33.5571 35.584C33.2624 35.8613 32.8464 36 32.3091 36H23.2871Z" fill="white"/>
<path d="M22.0131 33.114L21.3277 32.3858L22.0131 33.114ZM25.9131 32.698V33.698H26.9131V32.698H25.9131ZM25.9131 20.972V19.972H24.9131V20.972H25.9131ZM27.8111 20.972L28.3316 21.8259L31.3727 19.972H27.8111V20.972ZM24.0151 23.286L24.535 24.1402L24.5356 24.1399L24.0151 23.286ZM22.8971 23.572L22.7411 24.5598L22.7487 24.5609L22.8971 23.572ZM22.0391 23.13L22.7462 22.4229L22.7462 22.4229L22.0391 23.13ZM21.5451 22.272L20.5645 22.4681L20.5704 22.4975L20.578 22.5265L21.5451 22.272ZM21.6491 21.258L22.5707 21.6461L22.5742 21.6378L22.5776 21.6294L21.6491 21.258ZM22.4291 20.374L21.9119 19.5181L21.902 19.5241L21.8922 19.5303L22.4291 20.374ZM26.0431 18.19L26.5603 19.0459L26.5694 19.0403L26.0431 18.19ZM27.1351 17.644L26.7933 16.7042L26.7862 16.7068L26.7791 16.7095L27.1351 17.644ZM29.4751 17.852L28.7897 18.5802L28.8117 18.6009L28.8349 18.6202L29.4751 17.852ZM29.9431 32.698H28.9431V33.698H29.9431V32.698ZM33.5571 33.114L34.2424 32.3858L34.2424 32.3858L33.5571 33.114ZM33.5571 35.584L34.2424 36.3122L34.2535 36.3018L34.2642 36.2911L33.5571 35.584ZM23.2871 35C22.9069 35 22.7716 34.9024 22.7202 34.8509L21.306 36.2651C21.8438 36.803 22.558 37 23.2871 37V35ZM22.7202 34.8509C22.657 34.7878 22.5711 34.6603 22.5711 34.336H20.5711C20.5711 35.0517 20.7798 35.7389 21.306 36.2651L22.7202 34.8509ZM22.5711 34.336C22.5711 33.98 22.6643 33.8743 22.6984 33.8422L21.3277 32.3858C20.7725 32.9083 20.5711 33.6174 20.5711 34.336H22.5711ZM22.6984 33.8422C22.748 33.7955 22.8914 33.698 23.2871 33.698V31.698C22.5734 31.698 21.8675 31.8778 21.3277 32.3858L22.6984 33.8422ZM23.2871 33.698H25.9131V31.698H23.2871V33.698ZM26.9131 32.698V20.972H24.9131V32.698H26.9131ZM25.9131 21.972H27.8111V19.972H25.9131V21.972ZM27.2906 20.1181L23.4946 22.4321L24.5356 24.1399L28.3316 21.8259L27.2906 20.1181ZM23.4951 22.4318C23.2298 22.5933 23.0934 22.5903 23.0454 22.5831L22.7487 24.5609C23.3941 24.6577 24.003 24.464 24.535 24.1402L23.4951 22.4318ZM23.053 22.5842C22.9389 22.5662 22.8441 22.5208 22.7462 22.4229L21.332 23.8371C21.7194 24.2245 22.1966 24.4738 22.7411 24.5598L23.053 22.5842ZM22.7462 22.4229C22.6277 22.3044 22.5534 22.1742 22.5122 22.0175L20.578 22.5265C20.7101 23.0284 20.9651 23.4703 21.332 23.8371L22.7462 22.4229ZM22.5257 22.0759C22.496 21.9277 22.5088 21.7931 22.5707 21.6461L20.7274 20.8699C20.512 21.3816 20.4555 21.923 20.5645 22.4681L22.5257 22.0759ZM22.5776 21.6294C22.6232 21.5153 22.7234 21.372 22.966 21.2177L21.8922 19.5303C21.3721 19.8613 20.9523 20.3074 20.7206 20.8866L22.5776 21.6294ZM22.9463 21.2299L26.5603 19.0459L25.5259 17.3341L21.9119 19.5181L22.9463 21.2299ZM26.5694 19.0403C26.8847 18.8451 27.1919 18.6925 27.4911 18.5785L26.7791 16.7095C26.3502 16.8729 25.9295 17.0842 25.5167 17.3397L26.5694 19.0403ZM27.4768 18.5838C27.7611 18.4804 28.0182 18.436 28.2531 18.436V16.436C27.7599 16.436 27.2717 16.5303 26.7933 16.7042L27.4768 18.5838ZM28.2531 18.436C28.5936 18.436 28.7289 18.523 28.7897 18.5802L30.1604 17.1238C29.6319 16.6263 28.9525 16.436 28.2531 16.436V18.436ZM28.8349 18.6202C28.8435 18.6274 28.9431 18.7016 28.9431 19.074H30.9431C30.9431 18.3371 30.7306 17.5966 30.1153 17.0838L28.8349 18.6202ZM28.9431 19.074V32.698H30.9431V19.074H28.9431ZM29.9431 33.698H32.3091V31.698H29.9431V33.698ZM32.3091 33.698C32.6773 33.698 32.8167 33.7904 32.8717 33.8422L34.2424 32.3858C33.7081 31.8829 33.0155 31.698 32.3091 31.698V33.698ZM32.8717 33.8422C32.9059 33.8743 32.9991 33.98 32.9991 34.336H34.9991C34.9991 33.6174 34.7976 32.9083 34.2424 32.3858L32.8717 33.8422ZM32.9991 34.336C32.9991 34.6884 32.9071 34.8198 32.85 34.8769L34.2642 36.2911C34.7964 35.7589 34.9991 35.0583 34.9991 34.336H32.9991ZM32.8717 34.8558C32.8167 34.9076 32.6773 35 32.3091 35V37C33.0155 37 33.7081 36.8151 34.2424 36.3122L32.8717 34.8558ZM32.3091 35H23.2871V37H32.3091V35Z" fill="#8029AB" mask="url(#path-9-outside-1_26645_234568)"/>
<defs>
<radialGradient id="paint0_radial_26645_234568" cx="0" cy="0" r="1" gradientUnits="userSpaceOnUse" gradientTransform="translate(27.4975 26.9285) scale(23.0273 23.0272)">
<stop stop-color="#E2DAD7"/>
<stop offset="1" stop-color="#D5C5BE"/>
</radialGradient>
</defs>
</svg>
