<svg width="55" height="56" viewBox="0 0 55 56" fill="none" xmlns="http://www.w3.org/2000/svg">
<path d="M55 28.1045C55 29.279 54.9268 30.4358 54.7839 31.5721C54.4532 34.1632 53.7572 36.6438 52.751 38.9546C52.751 38.9546 52.751 38.9582 52.7473 38.9614C48.5282 48.6753 38.8094 55.4723 27.4998 55.4723C14.6968 55.4723 3.94393 46.7665 0.877028 34.9811V34.9775C0.302495 32.7812 0 30.4772 0 28.1045C0 25.6794 0.31659 23.3271 0.915232 21.0895C4.02399 9.37323 14.7486 0.737061 27.4998 0.737061C42.6878 0.736606 55 12.9897 55 28.1045Z" fill="#CEB3AA"/>
<path d="M53.5469 26.7821C53.5469 27.115 53.5415 27.4485 53.5283 27.7787C53.4992 28.5562 53.4382 29.3231 53.3431 30.0819C53.0284 32.5488 52.3701 34.9074 51.418 37.1077C51.418 37.1077 51.418 37.1104 51.4126 37.1154C47.4172 46.3598 38.2124 52.8275 27.501 52.8275C15.3749 52.8275 5.19158 44.543 2.28571 33.3262V33.3234C1.85447 31.6708 1.58516 29.9522 1.49237 28.1908C1.46826 27.7227 1.45508 27.2547 1.45508 26.7816C1.45508 24.473 1.75394 22.2363 2.32256 20.1051C5.26573 8.95427 15.4244 0.736084 27.5005 0.736084C41.8857 0.736539 53.5469 12.3978 53.5469 26.7821Z" fill="#E7E6E2"/>
<path d="M53.5465 26.7821C53.5465 27.1151 53.541 27.4485 53.5279 27.7788C52.5416 25.9383 50.8599 22.9159 48.0068 18.0085C41.6765 7.12198 27.501 5.89282 16.004 9.3382C4.50425 12.7863 1.98685 32.0311 1.98685 32.0311L1.49239 28.1918C1.46828 27.7237 1.45508 27.2556 1.45508 26.7825C1.45508 24.4739 1.75396 22.2372 2.32258 20.106C5.26575 8.95519 15.4245 0.737061 27.5006 0.737061C41.8853 0.736606 53.5465 12.3978 53.5465 26.7821Z" fill="white"/>
<path d="M50.3702 27.6646C50.3702 28.6595 50.3092 29.6394 50.1905 30.6019C49.9157 32.7968 49.3366 34.8975 48.4996 36.8549C48.4996 36.8549 48.4996 36.858 48.4969 36.8608C44.9879 45.0885 36.9044 50.8456 27.4976 50.8456C16.8489 50.8456 7.90571 43.4718 5.35465 33.4891V33.4864C4.87701 31.6259 4.625 29.6748 4.625 27.6646C4.625 25.6108 4.88839 23.6183 5.3865 21.7228C7.97212 11.7988 16.8922 4.48364 27.4976 4.48364C40.1296 4.48364 50.3702 14.8621 50.3702 27.6646Z" fill="url(#paint0_radial_26645_234738)"/>
<path d="M49.8029 26.7816C49.8029 27.7387 49.7437 28.6812 49.6277 29.6069C49.3598 31.7181 48.7953 33.7392 47.9792 35.622C47.9792 35.622 47.9792 35.6247 47.9765 35.6274C44.5552 43.5421 36.6742 49.0805 27.503 49.0805C17.1209 49.0805 8.4015 41.9869 5.91459 32.3841V32.3813C5.44878 30.5917 5.20312 28.7144 5.20312 26.7811C5.20312 24.805 5.46015 22.8886 5.94552 21.0649C8.4661 11.5185 17.1632 4.4812 27.5025 4.4812C39.8188 4.48211 49.8029 14.4662 49.8029 26.7816Z" fill="#8029AB"/>
<path d="M48.3903 26.7826C48.3903 27.6792 48.3348 28.5621 48.226 29.4296C47.9749 31.4075 47.4459 33.3007 46.6821 35.0644C46.6821 35.0644 46.6821 35.0671 46.6794 35.0699C43.4747 42.4842 36.0922 47.6723 27.5006 47.6723C17.7749 47.6723 9.60725 41.0271 7.27773 32.0316V32.0289C6.84149 30.3526 6.61133 28.594 6.61133 26.7826C6.61133 24.9316 6.85196 23.1361 7.30686 21.428C9.66822 12.4852 17.8149 5.89331 27.5006 5.89331C39.0376 5.89331 48.3903 15.246 48.3903 26.7826Z" fill="#C349E1"/>
<path d="M48.392 26.7821C48.392 27.6787 48.3365 28.5617 48.2278 29.4291C45.6126 15.0103 36.5406 9.97281 22.7427 11.1815C15.413 11.8238 10.4155 16.7976 7.30859 21.428C9.66995 12.4852 17.8167 5.89331 27.5023 5.89331C39.0394 5.89286 48.392 15.2455 48.392 26.7821Z" fill="#D468E5"/>
<path opacity="0.43" d="M46.679 35.0703C43.4743 42.4846 36.0918 47.6727 27.5002 47.6727C17.7745 47.6727 9.60686 41.0275 7.27734 32.032C10.2414 36.4053 17.1695 44.5366 27.5002 44.1477C41.3827 43.6268 46.5202 35.3291 46.679 35.0703Z" fill="#D468E5"/>
<mask id="path-9-outside-1_26645_234738" maskUnits="userSpaceOnUse" x="13" y="16.7361" width="30" height="21" fill="black">
<rect fill="white" x="13" y="16.7361" width="30" height="21"/>
<path d="M15.9922 36.7361C15.4375 36.7361 15.0128 36.5888 14.7182 36.2941C14.4235 35.9994 14.2762 35.5921 14.2762 35.0721C14.2762 34.5348 14.4235 34.1274 14.7182 33.8501C15.0128 33.5728 15.4375 33.4341 15.9922 33.4341H18.6182V21.7081H20.5162L16.7202 24.0221C16.3215 24.2648 15.9488 24.3601 15.6022 24.3081C15.2728 24.2561 14.9868 24.1087 14.7442 23.8661C14.5015 23.6234 14.3368 23.3374 14.2502 23.0081C14.1808 22.6614 14.2155 22.3234 14.3542 21.9941C14.4928 21.6474 14.7528 21.3528 15.1342 21.1101L18.7482 18.9261C19.1122 18.7007 19.4762 18.5188 19.8402 18.3801C20.2215 18.2414 20.5942 18.1721 20.9582 18.1721C21.4782 18.1721 21.8855 18.3107 22.1802 18.5881C22.4922 18.8481 22.6482 19.2554 22.6482 19.8101V33.4341H25.0142C25.5515 33.4341 25.9675 33.5728 26.2622 33.8501C26.5568 34.1274 26.7042 34.5348 26.7042 35.0721C26.7042 35.6094 26.5568 36.0254 26.2622 36.3201C25.9675 36.5974 25.5515 36.7361 25.0142 36.7361H15.9922ZM30.582 36.7361C30.0273 36.7361 29.6027 36.5888 29.308 36.2941C29.0133 35.9994 28.866 35.5921 28.866 35.0721C28.866 34.5348 29.0133 34.1274 29.308 33.8501C29.6027 33.5728 30.0273 33.4341 30.582 33.4341H33.208V21.7081H35.106L31.31 24.0221C30.9113 24.2648 30.5387 24.3601 30.192 24.3081C29.8627 24.2561 29.5767 24.1087 29.334 23.8661C29.0913 23.6234 28.9267 23.3374 28.84 23.0081C28.7707 22.6614 28.8053 22.3234 28.944 21.9941C29.0827 21.6474 29.3427 21.3528 29.724 21.1101L33.338 18.9261C33.702 18.7007 34.066 18.5188 34.43 18.3801C34.8113 18.2414 35.184 18.1721 35.548 18.1721C36.068 18.1721 36.4753 18.3107 36.77 18.5881C37.082 18.8481 37.238 19.2554 37.238 19.8101V33.4341H39.604C40.1413 33.4341 40.5573 33.5728 40.852 33.8501C41.1467 34.1274 41.294 34.5348 41.294 35.0721C41.294 35.6094 41.1467 36.0254 40.852 36.3201C40.5573 36.5974 40.1413 36.7361 39.604 36.7361H30.582Z"/>
</mask>
<path d="M15.9922 36.7361C15.4375 36.7361 15.0128 36.5888 14.7182 36.2941C14.4235 35.9994 14.2762 35.5921 14.2762 35.0721C14.2762 34.5348 14.4235 34.1274 14.7182 33.8501C15.0128 33.5728 15.4375 33.4341 15.9922 33.4341H18.6182V21.7081H20.5162L16.7202 24.0221C16.3215 24.2648 15.9488 24.3601 15.6022 24.3081C15.2728 24.2561 14.9868 24.1087 14.7442 23.8661C14.5015 23.6234 14.3368 23.3374 14.2502 23.0081C14.1808 22.6614 14.2155 22.3234 14.3542 21.9941C14.4928 21.6474 14.7528 21.3528 15.1342 21.1101L18.7482 18.9261C19.1122 18.7007 19.4762 18.5188 19.8402 18.3801C20.2215 18.2414 20.5942 18.1721 20.9582 18.1721C21.4782 18.1721 21.8855 18.3107 22.1802 18.5881C22.4922 18.8481 22.6482 19.2554 22.6482 19.8101V33.4341H25.0142C25.5515 33.4341 25.9675 33.5728 26.2622 33.8501C26.5568 34.1274 26.7042 34.5348 26.7042 35.0721C26.7042 35.6094 26.5568 36.0254 26.2622 36.3201C25.9675 36.5974 25.5515 36.7361 25.0142 36.7361H15.9922ZM30.582 36.7361C30.0273 36.7361 29.6027 36.5888 29.308 36.2941C29.0133 35.9994 28.866 35.5921 28.866 35.0721C28.866 34.5348 29.0133 34.1274 29.308 33.8501C29.6027 33.5728 30.0273 33.4341 30.582 33.4341H33.208V21.7081H35.106L31.31 24.0221C30.9113 24.2648 30.5387 24.3601 30.192 24.3081C29.8627 24.2561 29.5767 24.1087 29.334 23.8661C29.0913 23.6234 28.9267 23.3374 28.84 23.0081C28.7707 22.6614 28.8053 22.3234 28.944 21.9941C29.0827 21.6474 29.3427 21.3528 29.724 21.1101L33.338 18.9261C33.702 18.7007 34.066 18.5188 34.43 18.3801C34.8113 18.2414 35.184 18.1721 35.548 18.1721C36.068 18.1721 36.4753 18.3107 36.77 18.5881C37.082 18.8481 37.238 19.2554 37.238 19.8101V33.4341H39.604C40.1413 33.4341 40.5573 33.5728 40.852 33.8501C41.1467 34.1274 41.294 34.5348 41.294 35.0721C41.294 35.6094 41.1467 36.0254 40.852 36.3201C40.5573 36.5974 40.1413 36.7361 39.604 36.7361H30.582Z" fill="white"/>
<path d="M14.7182 33.8501L14.0328 33.1219H14.0328L14.7182 33.8501ZM18.6182 33.4341V34.4341H19.6182V33.4341H18.6182ZM18.6182 21.7081V20.7081H17.6182V21.7081H18.6182ZM20.5162 21.7081L21.0367 22.5619L24.0778 20.7081H20.5162V21.7081ZM16.7202 24.0221L17.2401 24.8763L17.2407 24.8759L16.7202 24.0221ZM15.6022 24.3081L15.4462 25.2959L15.4538 25.297L15.6022 24.3081ZM14.7442 23.8661L15.4513 23.159L15.4513 23.159L14.7442 23.8661ZM14.2502 23.0081L13.2696 23.2042L13.2755 23.2336L13.2831 23.2626L14.2502 23.0081ZM14.3542 21.9941L15.2758 22.3821L15.2793 22.3738L15.2826 22.3655L14.3542 21.9941ZM15.1342 21.1101L14.6169 20.2542L14.607 20.2602L14.5973 20.2664L15.1342 21.1101ZM18.7482 18.9261L19.2654 19.782L19.2745 19.7763L18.7482 18.9261ZM19.8402 18.3801L19.4984 17.4403L19.4913 17.4429L19.4842 17.4456L19.8402 18.3801ZM22.1802 18.5881L21.4948 19.3163L21.5168 19.337L21.54 19.3563L22.1802 18.5881ZM22.6482 33.4341H21.6482V34.4341H22.6482V33.4341ZM26.2622 33.8501L26.9475 33.1219L26.9475 33.1219L26.2622 33.8501ZM26.2622 36.3201L26.9475 37.0483L26.9586 37.0379L26.9693 37.0272L26.2622 36.3201ZM15.9922 35.7361C15.6119 35.7361 15.4767 35.6384 15.4253 35.587L14.011 37.0012C14.5489 37.5391 15.263 37.7361 15.9922 37.7361V35.7361ZM15.4253 35.587C15.3621 35.5238 15.2762 35.3963 15.2762 35.0721H13.2762C13.2762 35.7878 13.4849 36.475 14.011 37.0012L15.4253 35.587ZM15.2762 35.0721C15.2762 34.716 15.3694 34.6104 15.4035 34.5783L14.0328 33.1219C13.4776 33.6444 13.2762 34.3535 13.2762 35.0721H15.2762ZM15.4035 34.5783C15.4531 34.5316 15.5965 34.4341 15.9922 34.4341V32.4341C15.2785 32.4341 14.5726 32.6139 14.0328 33.1219L15.4035 34.5783ZM15.9922 34.4341H18.6182V32.4341H15.9922V34.4341ZM19.6182 33.4341V21.7081H17.6182V33.4341H19.6182ZM18.6182 22.7081H20.5162V20.7081H18.6182V22.7081ZM19.9957 20.8542L16.1997 23.1682L17.2407 24.8759L21.0367 22.5619L19.9957 20.8542ZM16.2002 23.1679C15.9349 23.3294 15.7984 23.3263 15.7505 23.3191L15.4538 25.297C16.0992 25.3938 16.7081 25.2001 17.2401 24.8763L16.2002 23.1679ZM15.7581 23.3203C15.644 23.3023 15.5492 23.2569 15.4513 23.159L14.037 24.5732C14.4245 24.9606 14.9016 25.2099 15.4462 25.2958L15.7581 23.3203ZM15.4513 23.159C15.3328 23.0405 15.2585 22.9103 15.2172 22.7536L13.2831 23.2626C13.4152 23.7645 13.6702 24.2063 14.0371 24.5732L15.4513 23.159ZM15.2307 22.812C15.2011 22.6638 15.2139 22.5292 15.2758 22.3821L13.4325 21.606C13.2171 22.1177 13.1605 22.6591 13.2696 23.2042L15.2307 22.812ZM15.2826 22.3655C15.3283 22.2514 15.4285 22.1081 15.671 21.9537L14.5973 20.2664C14.0772 20.5974 13.6574 21.0434 13.4257 21.6227L15.2826 22.3655ZM15.6514 21.9659L19.2654 19.7819L18.2309 18.0702L14.6169 20.2542L15.6514 21.9659ZM19.2745 19.7763C19.5898 19.5812 19.897 19.4285 20.1962 19.3146L19.4842 17.4456C19.0553 17.609 18.6345 17.8203 18.2218 18.0758L19.2745 19.7763ZM20.1819 19.3199C20.4662 19.2165 20.7233 19.1721 20.9582 19.1721V17.1721C20.465 17.1721 19.9768 17.2663 19.4984 17.4403L20.1819 19.3199ZM20.9582 19.1721C21.2987 19.1721 21.434 19.2591 21.4948 19.3163L22.8655 17.8599C22.337 17.3624 21.6576 17.1721 20.9582 17.1721V19.1721ZM21.54 19.3563C21.5486 19.3635 21.6482 19.4377 21.6482 19.8101H23.6482C23.6482 19.0732 23.4357 18.3327 22.8203 17.8199L21.54 19.3563ZM21.6482 19.8101V33.4341H23.6482V19.8101H21.6482ZM22.6482 34.4341H25.0142V32.4341H22.6482V34.4341ZM25.0142 34.4341C25.3824 34.4341 25.5218 34.5265 25.5768 34.5783L26.9475 33.1219C26.4132 32.619 25.7206 32.4341 25.0142 32.4341V34.4341ZM25.5768 34.5783C25.6109 34.6104 25.7042 34.716 25.7042 35.0721H27.7042C27.7042 34.3535 27.5027 33.6444 26.9475 33.1219L25.5768 34.5783ZM25.7042 35.0721C25.7042 35.4244 25.6122 35.5558 25.555 35.613L26.9693 37.0272C27.5015 36.495 27.7042 35.7944 27.7042 35.0721H25.7042ZM25.5768 35.5919C25.5218 35.6437 25.3824 35.7361 25.0142 35.7361V37.7361C25.7206 37.7361 26.4132 37.5512 26.9475 37.0483L25.5768 35.5919ZM25.0142 35.7361H15.9922V37.7361H25.0142V35.7361ZM29.308 33.8501L28.6226 33.1219L29.308 33.8501ZM33.208 33.4341V34.4341H34.208V33.4341H33.208ZM33.208 21.7081V20.7081H32.208V21.7081H33.208ZM35.106 21.7081L35.6265 22.5619L38.6677 20.7081H35.106V21.7081ZM31.31 24.0221L31.8299 24.8763L31.8305 24.8759L31.31 24.0221ZM30.192 24.3081L30.036 25.2959L30.0437 25.297L30.192 24.3081ZM29.334 23.8661L30.0411 23.159L30.0411 23.159L29.334 23.8661ZM28.84 23.0081L27.8594 23.2042L27.8653 23.2336L27.8729 23.2626L28.84 23.0081ZM28.944 21.9941L29.8656 22.3821L29.8691 22.3738L29.8725 22.3655L28.944 21.9941ZM29.724 21.1101L29.2068 20.2542L29.1969 20.2602L29.1871 20.2664L29.724 21.1101ZM33.338 18.9261L33.8552 19.782L33.8644 19.7763L33.338 18.9261ZM34.43 18.3801L34.0883 17.4403L34.0811 17.4429L34.074 17.4456L34.43 18.3801ZM36.77 18.5881L36.0846 19.3163L36.1066 19.337L36.1298 19.3563L36.77 18.5881ZM37.238 33.4341H36.238V34.4341H37.238V33.4341ZM40.852 33.8501L41.5374 33.1219V33.1219L40.852 33.8501ZM40.852 36.3201L41.5374 37.0483L41.5484 37.0379L41.5591 37.0272L40.852 36.3201ZM30.582 35.7361C30.2018 35.7361 30.0666 35.6384 30.0151 35.587L28.6009 37.0012C29.1388 37.5391 29.8529 37.7361 30.582 37.7361V35.7361ZM30.0151 35.587C29.952 35.5238 29.866 35.3963 29.866 35.0721H27.866C27.866 35.7878 28.0747 36.475 28.6009 37.0012L30.0151 35.587ZM29.866 35.0721C29.866 34.716 29.9592 34.6104 29.9934 34.5783L28.6226 33.1219C28.0675 33.6444 27.866 34.3535 27.866 35.0721H29.866ZM29.9934 34.5783C30.0429 34.5316 30.1863 34.4341 30.582 34.4341V32.4341C29.8683 32.4341 29.1624 32.6139 28.6226 33.1219L29.9934 34.5783ZM30.582 34.4341H33.208V32.4341H30.582V34.4341ZM34.208 33.4341V21.7081H32.208V33.4341H34.208ZM33.208 22.7081H35.106V20.7081H33.208V22.7081ZM34.5855 20.8542L30.7895 23.1682L31.8305 24.8759L35.6265 22.5619L34.5855 20.8542ZM30.7901 23.1679C30.5247 23.3294 30.3883 23.3263 30.3403 23.3191L30.0437 25.297C30.6891 25.3938 31.298 25.2001 31.8299 24.8763L30.7901 23.1679ZM30.348 23.3203C30.2338 23.3023 30.139 23.2569 30.0411 23.159L28.6269 24.5732C29.0143 24.9606 29.4915 25.2099 30.036 25.2958L30.348 23.3203ZM30.0411 23.159C29.9226 23.0405 29.8483 22.9103 29.8071 22.7536L27.8729 23.2626C28.005 23.7645 28.26 24.2063 28.6269 24.5732L30.0411 23.159ZM29.8206 22.812C29.7909 22.6638 29.8037 22.5292 29.8656 22.3821L28.0224 21.606C27.8069 22.1177 27.7504 22.6591 27.8594 23.2042L29.8206 22.812ZM29.8725 22.3655C29.9181 22.2514 30.0183 22.1081 30.2609 21.9537L29.1871 20.2664C28.667 20.5974 28.2472 21.0434 28.0155 21.6227L29.8725 22.3655ZM30.2412 21.9659L33.8552 19.7819L32.8208 18.0702L29.2068 20.2542L30.2412 21.9659ZM33.8644 19.7763C34.1796 19.5812 34.4868 19.4285 34.786 19.3146L34.074 17.4456C33.6452 17.609 33.2244 17.8203 32.8116 18.0758L33.8644 19.7763ZM34.7717 19.3199C35.056 19.2165 35.3131 19.1721 35.548 19.1721V17.1721C35.0549 17.1721 34.5666 17.2663 34.0883 17.4403L34.7717 19.3199ZM35.548 19.1721C35.8886 19.1721 36.0239 19.2591 36.0846 19.3163L37.4554 17.8599C36.9268 17.3624 36.2474 17.1721 35.548 17.1721V19.1721ZM36.1298 19.3563C36.1384 19.3635 36.238 19.4377 36.238 19.8101H38.238C38.238 19.0732 38.0256 18.3327 37.4102 17.8199L36.1298 19.3563ZM36.238 19.8101V33.4341H38.238V19.8101H36.238ZM37.238 34.4341H39.604V32.4341H37.238V34.4341ZM39.604 34.4341C39.9722 34.4341 40.1116 34.5265 40.1666 34.5783L41.5374 33.1219C41.003 32.619 40.3104 32.4341 39.604 32.4341V34.4341ZM40.1666 34.5783C40.2008 34.6104 40.294 34.716 40.294 35.0721H42.294C42.294 34.3535 42.0925 33.6444 41.5374 33.1219L40.1666 34.5783ZM40.294 35.0721C40.294 35.4244 40.202 35.5558 40.1449 35.613L41.5591 37.0272C42.0913 36.495 42.294 35.7944 42.294 35.0721H40.294ZM40.1666 35.5919C40.1116 35.6437 39.9722 35.7361 39.604 35.7361V37.7361C40.3104 37.7361 41.003 37.5512 41.5374 37.0483L40.1666 35.5919ZM39.604 35.7361H30.582V37.7361H39.604V35.7361Z" fill="#8029AB" mask="url(#path-9-outside-1_26645_234738)"/>
<defs>
<radialGradient id="paint0_radial_26645_234738" cx="0" cy="0" r="1" gradientUnits="userSpaceOnUse" gradientTransform="translate(27.4975 27.6645) scale(23.0273 23.0272)">
<stop stop-color="#E2DAD7"/>
<stop offset="1" stop-color="#D5C5BE"/>
</radialGradient>
</defs>
</svg>
