<svg width="55" height="56" viewBox="0 0 55 56" fill="none" xmlns="http://www.w3.org/2000/svg">
<path d="M55 28.1045C55 29.279 54.9268 30.4358 54.7839 31.5721C54.4532 34.1632 53.7572 36.6438 52.751 38.9546C52.751 38.9546 52.751 38.9582 52.7473 38.9614C48.5282 48.6753 38.8094 55.4723 27.4998 55.4723C14.6968 55.4723 3.94393 46.7665 0.877028 34.9811V34.9775C0.302495 32.7812 0 30.4772 0 28.1045C0 25.6794 0.31659 23.3271 0.915232 21.0895C4.02399 9.37323 14.7486 0.737061 27.4998 0.737061C42.6878 0.736606 55 12.9897 55 28.1045Z" fill="#CEB3AA"/>
<path d="M53.5469 26.7821C53.5469 27.115 53.5415 27.4485 53.5283 27.7787C53.4992 28.5562 53.4382 29.3231 53.3431 30.0819C53.0284 32.5488 52.3701 34.9074 51.418 37.1077C51.418 37.1077 51.418 37.1104 51.4126 37.1154C47.4172 46.3598 38.2124 52.8275 27.501 52.8275C15.3749 52.8275 5.19158 44.543 2.28571 33.3262V33.3234C1.85447 31.6708 1.58516 29.9522 1.49237 28.1908C1.46826 27.7227 1.45508 27.2547 1.45508 26.7816C1.45508 24.473 1.75394 22.2363 2.32256 20.1051C5.26573 8.95427 15.4244 0.736084 27.5005 0.736084C41.8857 0.736539 53.5469 12.3978 53.5469 26.7821Z" fill="#E7E6E2"/>
<path d="M53.5465 26.7821C53.5465 27.1151 53.541 27.4485 53.5279 27.7788C52.5416 25.9383 50.8599 22.9159 48.0068 18.0085C41.6765 7.12198 27.501 5.89282 16.004 9.3382C4.50425 12.7863 1.98685 32.0311 1.98685 32.0311L1.49239 28.1918C1.46828 27.7237 1.45508 27.2556 1.45508 26.7825C1.45508 24.4739 1.75396 22.2372 2.32258 20.106C5.26575 8.95519 15.4245 0.737061 27.5006 0.737061C41.8853 0.736606 53.5465 12.3978 53.5465 26.7821Z" fill="white"/>
<path d="M50.3702 27.6646C50.3702 28.6595 50.3092 29.6394 50.1905 30.6019C49.9157 32.7968 49.3366 34.8975 48.4996 36.8549C48.4996 36.8549 48.4996 36.858 48.4969 36.8608C44.9879 45.0885 36.9044 50.8456 27.4976 50.8456C16.8489 50.8456 7.90571 43.4718 5.35465 33.4891V33.4864C4.87701 31.6259 4.625 29.6748 4.625 27.6646C4.625 25.6108 4.88839 23.6183 5.3865 21.7228C7.97212 11.7988 16.8922 4.48364 27.4976 4.48364C40.1296 4.48364 50.3702 14.8621 50.3702 27.6646Z" fill="url(#paint0_radial_26645_234755)"/>
<path d="M49.8029 26.7816C49.8029 27.7387 49.7437 28.6812 49.6277 29.6069C49.3598 31.7181 48.7953 33.7392 47.9792 35.622C47.9792 35.622 47.9792 35.6247 47.9765 35.6274C44.5552 43.5421 36.6742 49.0805 27.503 49.0805C17.1209 49.0805 8.4015 41.9869 5.91459 32.3841V32.3813C5.44878 30.5917 5.20312 28.7144 5.20312 26.7811C5.20312 24.805 5.46015 22.8886 5.94552 21.0649C8.4661 11.5185 17.1632 4.4812 27.5025 4.4812C39.8188 4.48211 49.8029 14.4662 49.8029 26.7816Z" fill="#8029AB"/>
<path d="M48.3903 26.7826C48.3903 27.6792 48.3348 28.5621 48.226 29.4296C47.9749 31.4075 47.4459 33.3007 46.6821 35.0644C46.6821 35.0644 46.6821 35.0671 46.6794 35.0699C43.4747 42.4842 36.0922 47.6723 27.5006 47.6723C17.7749 47.6723 9.60725 41.0271 7.27773 32.0316V32.0289C6.84149 30.3526 6.61133 28.594 6.61133 26.7826C6.61133 24.9316 6.85196 23.1361 7.30686 21.428C9.66822 12.4852 17.8149 5.89331 27.5006 5.89331C39.0376 5.89331 48.3903 15.246 48.3903 26.7826Z" fill="#C349E1"/>
<path d="M48.392 26.7821C48.392 27.6787 48.3365 28.5617 48.2278 29.4291C45.6126 15.0103 36.5406 9.97281 22.7427 11.1815C15.413 11.8238 10.4155 16.7976 7.30859 21.428C9.66995 12.4852 17.8167 5.89331 27.5023 5.89331C39.0394 5.89286 48.392 15.2455 48.392 26.7821Z" fill="#D468E5"/>
<path opacity="0.43" d="M46.679 35.0703C43.4743 42.4846 36.0918 47.6727 27.5002 47.6727C17.7745 47.6727 9.60686 41.0275 7.27734 32.032C10.2414 36.4053 17.1695 44.5366 27.5002 44.1477C41.3827 43.6268 46.5202 35.3291 46.679 35.0703Z" fill="#D468E5"/>
<mask id="path-9-outside-1_26645_234755" maskUnits="userSpaceOnUse" x="13" y="16.7361" width="30" height="21" fill="black">
<rect fill="white" x="13" y="16.7361" width="30" height="21"/>
<path d="M15.9922 36.7361C15.4375 36.7361 15.0128 36.5888 14.7182 36.2941C14.4235 35.9994 14.2762 35.5921 14.2762 35.0721C14.2762 34.5348 14.4235 34.1274 14.7182 33.8501C15.0128 33.5728 15.4375 33.4341 15.9922 33.4341H18.6182V21.7081H20.5162L16.7202 24.0221C16.3215 24.2648 15.9488 24.3601 15.6022 24.3081C15.2728 24.2561 14.9868 24.1087 14.7442 23.8661C14.5015 23.6234 14.3368 23.3374 14.2502 23.0081C14.1808 22.6614 14.2155 22.3234 14.3542 21.9941C14.4928 21.6474 14.7528 21.3528 15.1342 21.1101L18.7482 18.9261C19.1122 18.7007 19.4762 18.5188 19.8402 18.3801C20.2215 18.2414 20.5942 18.1721 20.9582 18.1721C21.4782 18.1721 21.8855 18.3107 22.1802 18.5881C22.4922 18.8481 22.6482 19.2554 22.6482 19.8101V33.4341H25.0142C25.5515 33.4341 25.9675 33.5728 26.2622 33.8501C26.5568 34.1274 26.7042 34.5348 26.7042 35.0721C26.7042 35.6094 26.5568 36.0254 26.2622 36.3201C25.9675 36.5974 25.5515 36.7361 25.0142 36.7361H15.9922ZM30.088 36.7361C29.4467 36.7361 28.97 36.5888 28.658 36.2941C28.3633 35.9821 28.216 35.5314 28.216 34.9421C28.216 34.5608 28.3113 34.2054 28.502 33.8761C28.6927 33.5468 28.9527 33.2088 29.282 32.8621L34.17 27.7141C34.898 26.9341 35.418 26.2408 35.73 25.6341C36.0593 25.0274 36.224 24.4208 36.224 23.8141C36.224 23.0514 35.9727 22.4708 35.47 22.0721C34.9847 21.6734 34.274 21.4741 33.338 21.4741C32.8353 21.4741 32.3153 21.5521 31.778 21.7081C31.258 21.8467 30.712 22.0807 30.14 22.4101C29.7587 22.6181 29.4033 22.6961 29.074 22.6441C28.762 22.5748 28.4933 22.4274 28.268 22.2021C28.0427 21.9594 27.8953 21.6734 27.826 21.3441C27.7567 21.0148 27.7913 20.6854 27.93 20.3561C28.0687 20.0267 28.3287 19.7494 28.71 19.5241C29.4727 19.0561 30.3047 18.7094 31.206 18.4841C32.1073 18.2414 33 18.1201 33.884 18.1201C35.2533 18.1201 36.406 18.3281 37.342 18.7441C38.278 19.1427 38.9887 19.7321 39.474 20.5121C39.9593 21.2921 40.202 22.2454 40.202 23.3721C40.202 24.1001 40.0893 24.8107 39.864 25.5041C39.6387 26.1974 39.2833 26.8994 38.798 27.6101C38.33 28.3034 37.706 29.0488 36.926 29.8461L32.376 34.4741V33.4341H39.422C39.9767 33.4341 40.3927 33.5728 40.67 33.8501C40.9647 34.1274 41.112 34.5348 41.112 35.0721C41.112 35.6094 40.9647 36.0254 40.67 36.3201C40.3927 36.5974 39.9767 36.7361 39.422 36.7361H30.088Z"/>
</mask>
<path d="M15.9922 36.7361C15.4375 36.7361 15.0128 36.5888 14.7182 36.2941C14.4235 35.9994 14.2762 35.5921 14.2762 35.0721C14.2762 34.5348 14.4235 34.1274 14.7182 33.8501C15.0128 33.5728 15.4375 33.4341 15.9922 33.4341H18.6182V21.7081H20.5162L16.7202 24.0221C16.3215 24.2648 15.9488 24.3601 15.6022 24.3081C15.2728 24.2561 14.9868 24.1087 14.7442 23.8661C14.5015 23.6234 14.3368 23.3374 14.2502 23.0081C14.1808 22.6614 14.2155 22.3234 14.3542 21.9941C14.4928 21.6474 14.7528 21.3528 15.1342 21.1101L18.7482 18.9261C19.1122 18.7007 19.4762 18.5188 19.8402 18.3801C20.2215 18.2414 20.5942 18.1721 20.9582 18.1721C21.4782 18.1721 21.8855 18.3107 22.1802 18.5881C22.4922 18.8481 22.6482 19.2554 22.6482 19.8101V33.4341H25.0142C25.5515 33.4341 25.9675 33.5728 26.2622 33.8501C26.5568 34.1274 26.7042 34.5348 26.7042 35.0721C26.7042 35.6094 26.5568 36.0254 26.2622 36.3201C25.9675 36.5974 25.5515 36.7361 25.0142 36.7361H15.9922ZM30.088 36.7361C29.4467 36.7361 28.97 36.5888 28.658 36.2941C28.3633 35.9821 28.216 35.5314 28.216 34.9421C28.216 34.5608 28.3113 34.2054 28.502 33.8761C28.6927 33.5468 28.9527 33.2088 29.282 32.8621L34.17 27.7141C34.898 26.9341 35.418 26.2408 35.73 25.6341C36.0593 25.0274 36.224 24.4208 36.224 23.8141C36.224 23.0514 35.9727 22.4708 35.47 22.0721C34.9847 21.6734 34.274 21.4741 33.338 21.4741C32.8353 21.4741 32.3153 21.5521 31.778 21.7081C31.258 21.8467 30.712 22.0807 30.14 22.4101C29.7587 22.6181 29.4033 22.6961 29.074 22.6441C28.762 22.5748 28.4933 22.4274 28.268 22.2021C28.0427 21.9594 27.8953 21.6734 27.826 21.3441C27.7567 21.0148 27.7913 20.6854 27.93 20.3561C28.0687 20.0267 28.3287 19.7494 28.71 19.5241C29.4727 19.0561 30.3047 18.7094 31.206 18.4841C32.1073 18.2414 33 18.1201 33.884 18.1201C35.2533 18.1201 36.406 18.3281 37.342 18.7441C38.278 19.1427 38.9887 19.7321 39.474 20.5121C39.9593 21.2921 40.202 22.2454 40.202 23.3721C40.202 24.1001 40.0893 24.8107 39.864 25.5041C39.6387 26.1974 39.2833 26.8994 38.798 27.6101C38.33 28.3034 37.706 29.0488 36.926 29.8461L32.376 34.4741V33.4341H39.422C39.9767 33.4341 40.3927 33.5728 40.67 33.8501C40.9647 34.1274 41.112 34.5348 41.112 35.0721C41.112 35.6094 40.9647 36.0254 40.67 36.3201C40.3927 36.5974 39.9767 36.7361 39.422 36.7361H30.088Z" fill="white"/>
<path d="M14.7182 33.8501L14.0328 33.1219H14.0328L14.7182 33.8501ZM18.6182 33.4341V34.4341H19.6182V33.4341H18.6182ZM18.6182 21.7081V20.7081H17.6182V21.7081H18.6182ZM20.5162 21.7081L21.0367 22.5619L24.0778 20.7081H20.5162V21.7081ZM16.7202 24.0221L17.2401 24.8763L17.2407 24.8759L16.7202 24.0221ZM15.6022 24.3081L15.4462 25.2959L15.4538 25.297L15.6022 24.3081ZM14.7442 23.8661L15.4513 23.159L15.4513 23.159L14.7442 23.8661ZM14.2502 23.0081L13.2696 23.2042L13.2755 23.2336L13.2831 23.2626L14.2502 23.0081ZM14.3542 21.9941L15.2758 22.3821L15.2793 22.3738L15.2826 22.3655L14.3542 21.9941ZM15.1342 21.1101L14.6169 20.2542L14.607 20.2602L14.5973 20.2664L15.1342 21.1101ZM18.7482 18.9261L19.2654 19.782L19.2745 19.7763L18.7482 18.9261ZM19.8402 18.3801L19.4984 17.4403L19.4913 17.4429L19.4842 17.4456L19.8402 18.3801ZM22.1802 18.5881L21.4948 19.3163L21.5168 19.337L21.54 19.3563L22.1802 18.5881ZM22.6482 33.4341H21.6482V34.4341H22.6482V33.4341ZM26.2622 33.8501L26.9475 33.1219L26.9475 33.1219L26.2622 33.8501ZM26.2622 36.3201L26.9475 37.0483L26.9586 37.0379L26.9693 37.0272L26.2622 36.3201ZM15.9922 35.7361C15.6119 35.7361 15.4767 35.6384 15.4253 35.587L14.011 37.0012C14.5489 37.5391 15.263 37.7361 15.9922 37.7361V35.7361ZM15.4253 35.587C15.3621 35.5238 15.2762 35.3963 15.2762 35.0721H13.2762C13.2762 35.7878 13.4849 36.475 14.011 37.0012L15.4253 35.587ZM15.2762 35.0721C15.2762 34.716 15.3694 34.6104 15.4035 34.5783L14.0328 33.1219C13.4776 33.6444 13.2762 34.3535 13.2762 35.0721H15.2762ZM15.4035 34.5783C15.4531 34.5316 15.5965 34.4341 15.9922 34.4341V32.4341C15.2785 32.4341 14.5726 32.6139 14.0328 33.1219L15.4035 34.5783ZM15.9922 34.4341H18.6182V32.4341H15.9922V34.4341ZM19.6182 33.4341V21.7081H17.6182V33.4341H19.6182ZM18.6182 22.7081H20.5162V20.7081H18.6182V22.7081ZM19.9957 20.8542L16.1997 23.1682L17.2407 24.8759L21.0367 22.5619L19.9957 20.8542ZM16.2002 23.1679C15.9349 23.3294 15.7984 23.3263 15.7505 23.3191L15.4538 25.297C16.0992 25.3938 16.7081 25.2001 17.2401 24.8763L16.2002 23.1679ZM15.7581 23.3203C15.644 23.3023 15.5492 23.2569 15.4513 23.159L14.037 24.5732C14.4245 24.9606 14.9016 25.2099 15.4462 25.2958L15.7581 23.3203ZM15.4513 23.159C15.3328 23.0405 15.2585 22.9103 15.2172 22.7536L13.2831 23.2626C13.4152 23.7645 13.6702 24.2063 14.0371 24.5732L15.4513 23.159ZM15.2307 22.812C15.2011 22.6638 15.2139 22.5292 15.2758 22.3821L13.4325 21.606C13.2171 22.1177 13.1605 22.6591 13.2696 23.2042L15.2307 22.812ZM15.2826 22.3655C15.3283 22.2514 15.4285 22.1081 15.671 21.9537L14.5973 20.2664C14.0772 20.5974 13.6574 21.0434 13.4257 21.6227L15.2826 22.3655ZM15.6514 21.9659L19.2654 19.7819L18.2309 18.0702L14.6169 20.2542L15.6514 21.9659ZM19.2745 19.7763C19.5898 19.5812 19.897 19.4285 20.1962 19.3146L19.4842 17.4456C19.0553 17.609 18.6345 17.8203 18.2218 18.0758L19.2745 19.7763ZM20.1819 19.3199C20.4662 19.2165 20.7233 19.1721 20.9582 19.1721V17.1721C20.465 17.1721 19.9768 17.2663 19.4984 17.4403L20.1819 19.3199ZM20.9582 19.1721C21.2987 19.1721 21.434 19.2591 21.4948 19.3163L22.8655 17.8599C22.337 17.3624 21.6576 17.1721 20.9582 17.1721V19.1721ZM21.54 19.3563C21.5486 19.3635 21.6482 19.4377 21.6482 19.8101H23.6482C23.6482 19.0732 23.4357 18.3327 22.8203 17.8199L21.54 19.3563ZM21.6482 19.8101V33.4341H23.6482V19.8101H21.6482ZM22.6482 34.4341H25.0142V32.4341H22.6482V34.4341ZM25.0142 34.4341C25.3824 34.4341 25.5218 34.5265 25.5768 34.5783L26.9475 33.1219C26.4132 32.619 25.7206 32.4341 25.0142 32.4341V34.4341ZM25.5768 34.5783C25.6109 34.6104 25.7042 34.716 25.7042 35.0721H27.7042C27.7042 34.3535 27.5027 33.6444 26.9475 33.1219L25.5768 34.5783ZM25.7042 35.0721C25.7042 35.4244 25.6122 35.5558 25.555 35.613L26.9693 37.0272C27.5015 36.495 27.7042 35.7944 27.7042 35.0721H25.7042ZM25.5768 35.5919C25.5218 35.6437 25.3824 35.7361 25.0142 35.7361V37.7361C25.7206 37.7361 26.4132 37.5512 26.9475 37.0483L25.5768 35.5919ZM25.0142 35.7361H15.9922V37.7361H25.0142V35.7361ZM28.658 36.2941L27.931 36.9807L27.9506 37.0015L27.9714 37.0211L28.658 36.2941ZM28.502 33.8761L29.3674 34.3771L28.502 33.8761ZM29.282 32.8621L30.007 33.5508L30.0072 33.5506L29.282 32.8621ZM34.17 27.7141L34.8952 28.4027L34.9011 28.3964L34.17 27.7141ZM35.73 25.6341L34.8511 25.157L34.8458 25.1668L34.8407 25.1767L35.73 25.6341ZM35.47 22.0721L34.8353 22.8448L34.8419 22.8503L34.8486 22.8556L35.47 22.0721ZM31.778 21.7081L32.0357 22.6743L32.0463 22.6715L32.0568 22.6684L31.778 21.7081ZM30.14 22.4101L30.6189 23.288L30.629 23.2825L30.639 23.2767L30.14 22.4101ZM29.074 22.6441L28.8571 23.6203L28.8874 23.627L28.918 23.6318L29.074 22.6441ZM28.268 22.2021L27.5352 22.8825L27.5478 22.8961L27.5609 22.9092L28.268 22.2021ZM27.93 20.3561L27.0084 19.968L27.0084 19.968L27.93 20.3561ZM28.71 19.5241L29.2187 20.385L29.2259 20.3808L29.233 20.3764L28.71 19.5241ZM31.206 18.4841L31.4485 19.4542L31.4573 19.452L31.466 19.4497L31.206 18.4841ZM37.342 18.7441L36.9359 19.6579L36.943 19.6611L36.9501 19.6641L37.342 18.7441ZM39.474 20.5121L38.6249 21.0404V21.0404L39.474 20.5121ZM39.864 25.5041L38.913 25.195L38.913 25.195L39.864 25.5041ZM38.798 27.6101L37.9722 27.0461L37.9692 27.0506L38.798 27.6101ZM36.926 29.8461L37.6391 30.5472L37.6408 30.5454L36.926 29.8461ZM32.376 34.4741H31.376V36.9176L33.0891 35.1752L32.376 34.4741ZM32.376 33.4341V32.4341H31.376V33.4341H32.376ZM40.67 33.8501L39.9629 34.5572L39.9736 34.5679L39.9846 34.5783L40.67 33.8501ZM40.67 36.3201L39.9629 35.613V35.613L40.67 36.3201ZM30.088 35.7361C29.5781 35.7361 29.3972 35.6167 29.3446 35.5671L27.9714 37.0211C28.5428 37.5608 29.3152 37.7361 30.088 37.7361V35.7361ZM29.385 35.6075C29.3223 35.5411 29.216 35.3727 29.216 34.9421H27.216C27.216 35.6902 27.4044 36.4231 27.931 36.9807L29.385 35.6075ZM29.216 34.9421C29.216 34.7363 29.2651 34.5539 29.3674 34.3771L27.6366 33.375C27.3576 33.857 27.216 34.3852 27.216 34.9421H29.216ZM29.3674 34.3771C29.5103 34.1304 29.7186 33.8545 30.007 33.5508L28.557 32.1733C28.1868 32.563 27.875 32.9632 27.6366 33.375L29.3674 34.3771ZM30.0072 33.5506L34.8952 28.4026L33.4448 27.0255L28.5568 32.1735L30.0072 33.5506ZM34.9011 28.3964C35.6608 27.5824 36.2484 26.8125 36.6193 26.0914L34.8407 25.1767C34.5876 25.669 34.1352 26.2858 33.4389 27.0318L34.9011 28.3964ZM36.6089 26.1112C37.0066 25.3785 37.224 24.6092 37.224 23.8141H35.224C35.224 24.2323 35.1121 24.6763 34.8511 25.157L36.6089 26.1112ZM37.224 23.8141C37.224 22.8105 36.8795 21.9136 36.0914 21.2886L34.8486 22.8556C35.0659 23.0279 35.224 23.2924 35.224 23.8141H37.224ZM36.1047 21.2994C35.3711 20.6967 34.3961 20.4741 33.338 20.4741V22.4741C34.1519 22.4741 34.5982 22.6501 34.8353 22.8448L36.1047 21.2994ZM33.338 20.4741C32.731 20.4741 32.117 20.5684 31.4992 20.7477L32.0568 22.6684C32.5137 22.5358 32.9397 22.4741 33.338 22.4741V20.4741ZM31.5203 20.7418C30.8994 20.9074 30.2724 21.18 29.641 21.5435L30.639 23.2767C31.1516 22.9815 31.6166 22.7861 32.0357 22.6743L31.5203 20.7418ZM29.6611 21.5322C29.4146 21.6667 29.2833 21.6647 29.23 21.6563L28.918 23.6318C29.5234 23.7274 30.1027 23.5695 30.6189 23.288L29.6611 21.5322ZM29.2909 21.6679C29.164 21.6397 29.0655 21.5854 28.9751 21.495L27.5609 22.9092C27.9211 23.2694 28.36 23.5098 28.8571 23.6203L29.2909 21.6679ZM29.0008 21.5216C28.901 21.4142 28.8372 21.2929 28.8046 21.1381L26.8475 21.5501C26.9535 22.0539 27.1843 22.5047 27.5352 22.8825L29.0008 21.5216ZM28.8046 21.1381C28.7798 21.0205 28.7868 20.8981 28.8516 20.7441L27.0084 19.968C26.7959 20.4727 26.7335 21.009 26.8475 21.5501L28.8046 21.1381ZM28.8516 20.7441C28.8888 20.656 28.9772 20.5277 29.2187 20.385L28.2013 18.6632C27.6801 18.9711 27.2486 19.3975 27.0084 19.968L28.8516 20.7441ZM29.233 20.3764C29.9055 19.9638 30.6423 19.6558 31.4485 19.4542L30.9635 17.5139C29.967 17.7631 29.0399 18.1484 28.187 18.6718L29.233 20.3764ZM31.466 19.4497C32.2873 19.2286 33.0926 19.1201 33.884 19.1201V17.1201C32.9074 17.1201 31.9274 17.2543 30.946 17.5185L31.466 19.4497ZM33.884 19.1201C35.1581 19.1201 36.1631 19.3144 36.9359 19.6579L37.7481 17.8303C36.6489 17.3417 35.3486 17.1201 33.884 17.1201V19.1201ZM36.9501 19.6641C37.7183 19.9913 38.2597 20.4534 38.6249 21.0404L40.3231 19.9838C39.7176 19.0107 38.8377 18.2942 37.7339 17.8241L36.9501 19.6641ZM38.6249 21.0404C38.9914 21.6294 39.202 22.3898 39.202 23.3721H41.202C41.202 22.101 40.9272 20.9548 40.3231 19.9838L38.6249 21.0404ZM39.202 23.3721C39.202 23.995 39.1059 24.6013 38.913 25.195L40.815 25.8132C41.0728 25.0202 41.202 24.2052 41.202 23.3721H39.202ZM38.913 25.195C38.7218 25.7833 38.4133 26.4003 37.9722 27.0461L39.6238 28.174C40.1534 27.3986 40.5556 26.6116 40.815 25.8132L38.913 25.195ZM37.9692 27.0506C37.5439 27.6807 36.962 28.3793 36.2112 29.1468L37.6408 30.5454C38.45 29.7182 39.1161 28.9262 39.6269 28.1696L37.9692 27.0506ZM36.2129 29.145L31.6629 33.773L33.0891 35.1752L37.6391 30.5472L36.2129 29.145ZM33.376 34.4741V33.4341H31.376V34.4741H33.376ZM32.376 34.4341H39.422V32.4341H32.376V34.4341ZM39.422 34.4341C39.8225 34.4341 39.9392 34.5335 39.9629 34.5572L41.3771 33.143C40.8461 32.612 40.1308 32.4341 39.422 32.4341V34.4341ZM39.9846 34.5783C40.0188 34.6104 40.112 34.716 40.112 35.0721H42.112C42.112 34.3535 41.9105 33.6444 41.3554 33.1219L39.9846 34.5783ZM40.112 35.0721C40.112 35.4244 40.02 35.5558 39.9629 35.613L41.3771 37.0272C41.9093 36.495 42.112 35.7944 42.112 35.0721H40.112ZM39.9629 35.613C39.9392 35.6366 39.8225 35.7361 39.422 35.7361V37.7361C40.1308 37.7361 40.8461 37.5582 41.3771 37.0272L39.9629 35.613ZM39.422 35.7361H30.088V37.7361H39.422V35.7361Z" fill="#8029AB" mask="url(#path-9-outside-1_26645_234755)"/>
<defs>
<radialGradient id="paint0_radial_26645_234755" cx="0" cy="0" r="1" gradientUnits="userSpaceOnUse" gradientTransform="translate(27.4975 27.6645) scale(23.0273 23.0272)">
<stop stop-color="#E2DAD7"/>
<stop offset="1" stop-color="#D5C5BE"/>
</radialGradient>
</defs>
</svg>
