<svg width="55" height="56" viewBox="0 0 55 56" fill="none" xmlns="http://www.w3.org/2000/svg">
<path d="M55 28.1045C55 29.279 54.9268 30.4358 54.7839 31.5721C54.4532 34.1632 53.7572 36.6438 52.751 38.9546C52.751 38.9546 52.751 38.9582 52.7473 38.9614C48.5282 48.6753 38.8094 55.4723 27.4998 55.4723C14.6968 55.4723 3.94393 46.7665 0.877028 34.9811V34.9775C0.302495 32.7812 0 30.4772 0 28.1045C0 25.6794 0.31659 23.3271 0.915232 21.0895C4.02399 9.37323 14.7486 0.737061 27.4998 0.737061C42.6878 0.736606 55 12.9897 55 28.1045Z" fill="#CEB3AA"/>
<path d="M53.5469 26.7821C53.5469 27.115 53.5415 27.4485 53.5283 27.7787C53.4992 28.5562 53.4382 29.3231 53.3431 30.0819C53.0284 32.5488 52.3701 34.9074 51.418 37.1077C51.418 37.1077 51.418 37.1104 51.4126 37.1154C47.4172 46.3598 38.2124 52.8275 27.501 52.8275C15.3749 52.8275 5.19158 44.543 2.28571 33.3262V33.3234C1.85447 31.6708 1.58516 29.9522 1.49237 28.1908C1.46826 27.7227 1.45508 27.2547 1.45508 26.7816C1.45508 24.473 1.75394 22.2363 2.32256 20.1051C5.26573 8.95427 15.4244 0.736084 27.5005 0.736084C41.8857 0.736539 53.5469 12.3978 53.5469 26.7821Z" fill="#E7E6E2"/>
<path d="M53.5465 26.7821C53.5465 27.1151 53.541 27.4485 53.5279 27.7788C52.5416 25.9383 50.8599 22.9159 48.0068 18.0085C41.6765 7.12198 27.501 5.89282 16.004 9.3382C4.50425 12.7863 1.98685 32.0311 1.98685 32.0311L1.49239 28.1918C1.46828 27.7237 1.45508 27.2556 1.45508 26.7825C1.45508 24.4739 1.75396 22.2372 2.32258 20.106C5.26575 8.95519 15.4245 0.737061 27.5006 0.737061C41.8853 0.736606 53.5465 12.3978 53.5465 26.7821Z" fill="white"/>
<path d="M50.3702 27.6646C50.3702 28.6595 50.3092 29.6394 50.1905 30.6019C49.9157 32.7968 49.3366 34.8975 48.4996 36.8549C48.4996 36.8549 48.4996 36.858 48.4969 36.8608C44.9879 45.0885 36.9044 50.8456 27.4976 50.8456C16.8489 50.8456 7.90571 43.4718 5.35465 33.4891V33.4864C4.87701 31.6259 4.625 29.6748 4.625 27.6646C4.625 25.6108 4.88839 23.6183 5.3865 21.7228C7.97212 11.7988 16.8922 4.48364 27.4976 4.48364C40.1296 4.48364 50.3702 14.8621 50.3702 27.6646Z" fill="url(#paint0_radial_26645_234772)"/>
<path d="M49.8029 26.7816C49.8029 27.7387 49.7437 28.6812 49.6277 29.6069C49.3598 31.7181 48.7953 33.7392 47.9792 35.622C47.9792 35.622 47.9792 35.6247 47.9765 35.6274C44.5552 43.5421 36.6742 49.0805 27.503 49.0805C17.1209 49.0805 8.4015 41.9869 5.91459 32.3841V32.3813C5.44878 30.5917 5.20312 28.7144 5.20312 26.7811C5.20312 24.805 5.46015 22.8886 5.94552 21.0649C8.4661 11.5185 17.1632 4.4812 27.5025 4.4812C39.8188 4.48211 49.8029 14.4662 49.8029 26.7816Z" fill="#8029AB"/>
<path d="M48.3903 26.7826C48.3903 27.6792 48.3348 28.5621 48.226 29.4296C47.9749 31.4075 47.4459 33.3007 46.6821 35.0644C46.6821 35.0644 46.6821 35.0671 46.6794 35.0699C43.4747 42.4842 36.0922 47.6723 27.5006 47.6723C17.7749 47.6723 9.60725 41.0271 7.27773 32.0316V32.0289C6.84149 30.3526 6.61133 28.594 6.61133 26.7826C6.61133 24.9316 6.85196 23.1361 7.30686 21.428C9.66822 12.4852 17.8149 5.89331 27.5006 5.89331C39.0376 5.89331 48.3903 15.246 48.3903 26.7826Z" fill="#C349E1"/>
<path d="M48.392 26.7821C48.392 27.6787 48.3365 28.5617 48.2278 29.4291C45.6126 15.0103 36.5406 9.97281 22.7427 11.1815C15.413 11.8238 10.4155 16.7976 7.30859 21.428C9.66995 12.4852 17.8167 5.89331 27.5023 5.89331C39.0394 5.89286 48.392 15.2455 48.392 26.7821Z" fill="#D468E5"/>
<path opacity="0.43" d="M46.679 35.0703C43.4743 42.4846 36.0918 47.6727 27.5002 47.6727C17.7745 47.6727 9.60686 41.0275 7.27734 32.032C10.2414 36.4053 17.1695 44.5366 27.5002 44.1477C41.3827 43.6268 46.5202 35.3291 46.679 35.0703Z" fill="#D468E5"/>
<mask id="path-9-outside-1_26645_234772" maskUnits="userSpaceOnUse" x="13" y="16.7361" width="29" height="22" fill="black">
<rect fill="white" x="13" y="16.7361" width="29" height="22"/>
<path d="M15.9922 36.7361C15.4375 36.7361 15.0128 36.5888 14.7182 36.2941C14.4235 35.9994 14.2762 35.5921 14.2762 35.0721C14.2762 34.5348 14.4235 34.1274 14.7182 33.8501C15.0128 33.5728 15.4375 33.4341 15.9922 33.4341H18.6182V21.7081H20.5162L16.7202 24.0221C16.3215 24.2648 15.9488 24.3601 15.6022 24.3081C15.2728 24.2561 14.9868 24.1087 14.7442 23.8661C14.5015 23.6234 14.3368 23.3374 14.2502 23.0081C14.1808 22.6614 14.2155 22.3234 14.3542 21.9941C14.4928 21.6474 14.7528 21.3528 15.1342 21.1101L18.7482 18.9261C19.1122 18.7007 19.4762 18.5188 19.8402 18.3801C20.2215 18.2414 20.5942 18.1721 20.9582 18.1721C21.4782 18.1721 21.8855 18.3107 22.1802 18.5881C22.4922 18.8481 22.6482 19.2554 22.6482 19.8101V33.4341H25.0142C25.5515 33.4341 25.9675 33.5728 26.2622 33.8501C26.5568 34.1274 26.7042 34.5348 26.7042 35.0721C26.7042 35.6094 26.5568 36.0254 26.2622 36.3201C25.9675 36.5974 25.5515 36.7361 25.0142 36.7361H15.9922ZM33.858 37.0221C32.9393 37.0221 32.0033 36.9181 31.05 36.7101C30.114 36.4848 29.2993 36.1728 28.606 35.7741C28.1553 35.5314 27.8433 35.2454 27.67 34.9161C27.514 34.5694 27.4533 34.2314 27.488 33.9021C27.54 33.5728 27.6787 33.2868 27.904 33.0441C28.1293 32.7841 28.4153 32.6194 28.762 32.5501C29.126 32.4808 29.5247 32.5501 29.958 32.7581C30.634 33.0874 31.2753 33.3214 31.882 33.4601C32.4887 33.5988 33.0953 33.6681 33.702 33.6681C34.3953 33.6681 34.976 33.5814 35.444 33.4081C35.912 33.2174 36.2673 32.9488 36.51 32.6021C36.7527 32.2554 36.874 31.8221 36.874 31.3021C36.874 30.5741 36.6227 30.0281 36.12 29.6641C35.6173 29.3001 34.8807 29.1181 33.91 29.1181H32.376C31.804 29.1181 31.362 28.9794 31.05 28.7021C30.7553 28.4074 30.608 28.0088 30.608 27.5061C30.608 26.9861 30.7553 26.5874 31.05 26.3101C31.362 26.0154 31.804 25.8681 32.376 25.8681H33.52C34.1093 25.8681 34.6033 25.7814 35.002 25.6081C35.418 25.4174 35.7387 25.1574 35.964 24.8281C36.2067 24.4987 36.328 24.0914 36.328 23.6061C36.328 22.9128 36.0853 22.3841 35.6 22.0201C35.132 21.6561 34.4473 21.4741 33.546 21.4741C32.9913 21.4741 32.4453 21.5434 31.908 21.6821C31.3707 21.8034 30.79 22.0287 30.166 22.3581C29.7847 22.5487 29.4293 22.6094 29.1 22.5401C28.7707 22.4708 28.4933 22.3148 28.268 22.0721C28.06 21.8294 27.9213 21.5521 27.852 21.2401C27.8 20.9108 27.8433 20.5814 27.982 20.2521C28.138 19.9227 28.4153 19.6541 28.814 19.4461C29.5593 19.0127 30.3653 18.6834 31.232 18.4581C32.116 18.2328 33.0087 18.1201 33.91 18.1201C35.2273 18.1201 36.354 18.3194 37.29 18.7181C38.226 19.1168 38.9453 19.6888 39.448 20.4341C39.9507 21.1621 40.202 22.0461 40.202 23.0861C40.202 23.7967 40.0633 24.4468 39.786 25.0361C39.5087 25.6254 39.1187 26.1281 38.616 26.5441C38.1307 26.9428 37.5327 27.2288 36.822 27.4021V27.0641C38.0527 27.2721 39.0147 27.7834 39.708 28.5981C40.4013 29.4128 40.748 30.4354 40.748 31.6661C40.748 32.7581 40.4707 33.7114 39.916 34.5261C39.3613 35.3234 38.564 35.9388 37.524 36.3721C36.5013 36.8054 35.2793 37.0221 33.858 37.0221Z"/>
</mask>
<path d="M15.9922 36.7361C15.4375 36.7361 15.0128 36.5888 14.7182 36.2941C14.4235 35.9994 14.2762 35.5921 14.2762 35.0721C14.2762 34.5348 14.4235 34.1274 14.7182 33.8501C15.0128 33.5728 15.4375 33.4341 15.9922 33.4341H18.6182V21.7081H20.5162L16.7202 24.0221C16.3215 24.2648 15.9488 24.3601 15.6022 24.3081C15.2728 24.2561 14.9868 24.1087 14.7442 23.8661C14.5015 23.6234 14.3368 23.3374 14.2502 23.0081C14.1808 22.6614 14.2155 22.3234 14.3542 21.9941C14.4928 21.6474 14.7528 21.3528 15.1342 21.1101L18.7482 18.9261C19.1122 18.7007 19.4762 18.5188 19.8402 18.3801C20.2215 18.2414 20.5942 18.1721 20.9582 18.1721C21.4782 18.1721 21.8855 18.3107 22.1802 18.5881C22.4922 18.8481 22.6482 19.2554 22.6482 19.8101V33.4341H25.0142C25.5515 33.4341 25.9675 33.5728 26.2622 33.8501C26.5568 34.1274 26.7042 34.5348 26.7042 35.0721C26.7042 35.6094 26.5568 36.0254 26.2622 36.3201C25.9675 36.5974 25.5515 36.7361 25.0142 36.7361H15.9922ZM33.858 37.0221C32.9393 37.0221 32.0033 36.9181 31.05 36.7101C30.114 36.4848 29.2993 36.1728 28.606 35.7741C28.1553 35.5314 27.8433 35.2454 27.67 34.9161C27.514 34.5694 27.4533 34.2314 27.488 33.9021C27.54 33.5728 27.6787 33.2868 27.904 33.0441C28.1293 32.7841 28.4153 32.6194 28.762 32.5501C29.126 32.4808 29.5247 32.5501 29.958 32.7581C30.634 33.0874 31.2753 33.3214 31.882 33.4601C32.4887 33.5988 33.0953 33.6681 33.702 33.6681C34.3953 33.6681 34.976 33.5814 35.444 33.4081C35.912 33.2174 36.2673 32.9488 36.51 32.6021C36.7527 32.2554 36.874 31.8221 36.874 31.3021C36.874 30.5741 36.6227 30.0281 36.12 29.6641C35.6173 29.3001 34.8807 29.1181 33.91 29.1181H32.376C31.804 29.1181 31.362 28.9794 31.05 28.7021C30.7553 28.4074 30.608 28.0088 30.608 27.5061C30.608 26.9861 30.7553 26.5874 31.05 26.3101C31.362 26.0154 31.804 25.8681 32.376 25.8681H33.52C34.1093 25.8681 34.6033 25.7814 35.002 25.6081C35.418 25.4174 35.7387 25.1574 35.964 24.8281C36.2067 24.4987 36.328 24.0914 36.328 23.6061C36.328 22.9128 36.0853 22.3841 35.6 22.0201C35.132 21.6561 34.4473 21.4741 33.546 21.4741C32.9913 21.4741 32.4453 21.5434 31.908 21.6821C31.3707 21.8034 30.79 22.0287 30.166 22.3581C29.7847 22.5487 29.4293 22.6094 29.1 22.5401C28.7707 22.4708 28.4933 22.3148 28.268 22.0721C28.06 21.8294 27.9213 21.5521 27.852 21.2401C27.8 20.9108 27.8433 20.5814 27.982 20.2521C28.138 19.9227 28.4153 19.6541 28.814 19.4461C29.5593 19.0127 30.3653 18.6834 31.232 18.4581C32.116 18.2328 33.0087 18.1201 33.91 18.1201C35.2273 18.1201 36.354 18.3194 37.29 18.7181C38.226 19.1168 38.9453 19.6888 39.448 20.4341C39.9507 21.1621 40.202 22.0461 40.202 23.0861C40.202 23.7967 40.0633 24.4468 39.786 25.0361C39.5087 25.6254 39.1187 26.1281 38.616 26.5441C38.1307 26.9428 37.5327 27.2288 36.822 27.4021V27.0641C38.0527 27.2721 39.0147 27.7834 39.708 28.5981C40.4013 29.4128 40.748 30.4354 40.748 31.6661C40.748 32.7581 40.4707 33.7114 39.916 34.5261C39.3613 35.3234 38.564 35.9388 37.524 36.3721C36.5013 36.8054 35.2793 37.0221 33.858 37.0221Z" fill="white"/>
<path d="M14.7182 33.8501L14.0328 33.1219H14.0328L14.7182 33.8501ZM18.6182 33.4341V34.4341H19.6182V33.4341H18.6182ZM18.6182 21.7081V20.7081H17.6182V21.7081H18.6182ZM20.5162 21.7081L21.0367 22.5619L24.0778 20.7081H20.5162V21.7081ZM16.7202 24.0221L17.2401 24.8763L17.2407 24.8759L16.7202 24.0221ZM15.6022 24.3081L15.4462 25.2959L15.4538 25.297L15.6022 24.3081ZM14.7442 23.8661L15.4513 23.159L15.4513 23.159L14.7442 23.8661ZM14.2502 23.0081L13.2696 23.2042L13.2755 23.2336L13.2831 23.2626L14.2502 23.0081ZM14.3542 21.9941L15.2758 22.3821L15.2793 22.3738L15.2826 22.3655L14.3542 21.9941ZM15.1342 21.1101L14.6169 20.2542L14.607 20.2602L14.5973 20.2664L15.1342 21.1101ZM18.7482 18.9261L19.2654 19.782L19.2745 19.7763L18.7482 18.9261ZM19.8402 18.3801L19.4984 17.4403L19.4913 17.4429L19.4842 17.4456L19.8402 18.3801ZM22.1802 18.5881L21.4948 19.3163L21.5168 19.337L21.54 19.3563L22.1802 18.5881ZM22.6482 33.4341H21.6482V34.4341H22.6482V33.4341ZM26.2622 33.8501L26.9475 33.1219L26.9475 33.1219L26.2622 33.8501ZM26.2622 36.3201L26.9475 37.0483L26.9586 37.0379L26.9693 37.0272L26.2622 36.3201ZM15.9922 35.7361C15.6119 35.7361 15.4767 35.6384 15.4253 35.587L14.011 37.0012C14.5489 37.5391 15.263 37.7361 15.9922 37.7361V35.7361ZM15.4253 35.587C15.3621 35.5238 15.2762 35.3963 15.2762 35.0721H13.2762C13.2762 35.7878 13.4849 36.475 14.011 37.0012L15.4253 35.587ZM15.2762 35.0721C15.2762 34.716 15.3694 34.6104 15.4035 34.5783L14.0328 33.1219C13.4776 33.6444 13.2762 34.3535 13.2762 35.0721H15.2762ZM15.4035 34.5783C15.4531 34.5316 15.5965 34.4341 15.9922 34.4341V32.4341C15.2785 32.4341 14.5726 32.6139 14.0328 33.1219L15.4035 34.5783ZM15.9922 34.4341H18.6182V32.4341H15.9922V34.4341ZM19.6182 33.4341V21.7081H17.6182V33.4341H19.6182ZM18.6182 22.7081H20.5162V20.7081H18.6182V22.7081ZM19.9957 20.8542L16.1997 23.1682L17.2407 24.8759L21.0367 22.5619L19.9957 20.8542ZM16.2002 23.1679C15.9349 23.3294 15.7984 23.3263 15.7505 23.3191L15.4538 25.297C16.0992 25.3938 16.7081 25.2001 17.2401 24.8763L16.2002 23.1679ZM15.7581 23.3203C15.644 23.3023 15.5492 23.2569 15.4513 23.159L14.037 24.5732C14.4245 24.9606 14.9016 25.2099 15.4462 25.2958L15.7581 23.3203ZM15.4513 23.159C15.3328 23.0405 15.2585 22.9103 15.2172 22.7536L13.2831 23.2626C13.4152 23.7645 13.6702 24.2063 14.0371 24.5732L15.4513 23.159ZM15.2307 22.812C15.2011 22.6638 15.2139 22.5292 15.2758 22.3821L13.4325 21.606C13.2171 22.1177 13.1605 22.6591 13.2696 23.2042L15.2307 22.812ZM15.2826 22.3655C15.3283 22.2514 15.4285 22.1081 15.671 21.9537L14.5973 20.2664C14.0772 20.5974 13.6574 21.0434 13.4257 21.6227L15.2826 22.3655ZM15.6514 21.9659L19.2654 19.7819L18.2309 18.0702L14.6169 20.2542L15.6514 21.9659ZM19.2745 19.7763C19.5898 19.5812 19.897 19.4285 20.1962 19.3146L19.4842 17.4456C19.0553 17.609 18.6345 17.8203 18.2218 18.0758L19.2745 19.7763ZM20.1819 19.3199C20.4662 19.2165 20.7233 19.1721 20.9582 19.1721V17.1721C20.465 17.1721 19.9768 17.2663 19.4984 17.4403L20.1819 19.3199ZM20.9582 19.1721C21.2987 19.1721 21.434 19.2591 21.4948 19.3163L22.8655 17.8599C22.337 17.3624 21.6576 17.1721 20.9582 17.1721V19.1721ZM21.54 19.3563C21.5486 19.3635 21.6482 19.4377 21.6482 19.8101H23.6482C23.6482 19.0732 23.4357 18.3327 22.8203 17.8199L21.54 19.3563ZM21.6482 19.8101V33.4341H23.6482V19.8101H21.6482ZM22.6482 34.4341H25.0142V32.4341H22.6482V34.4341ZM25.0142 34.4341C25.3824 34.4341 25.5218 34.5265 25.5768 34.5783L26.9475 33.1219C26.4132 32.619 25.7206 32.4341 25.0142 32.4341V34.4341ZM25.5768 34.5783C25.6109 34.6104 25.7042 34.716 25.7042 35.0721H27.7042C27.7042 34.3535 27.5027 33.6444 26.9475 33.1219L25.5768 34.5783ZM25.7042 35.0721C25.7042 35.4244 25.6122 35.5558 25.555 35.613L26.9693 37.0272C27.5015 36.495 27.7042 35.7944 27.7042 35.0721H25.7042ZM25.5768 35.5919C25.5218 35.6437 25.3824 35.7361 25.0142 35.7361V37.7361C25.7206 37.7361 26.4132 37.5512 26.9475 37.0483L25.5768 35.5919ZM25.0142 35.7361H15.9922V37.7361H25.0142V35.7361ZM31.05 36.7101L30.8159 37.6823L30.8264 37.6848L30.8368 37.6871L31.05 36.7101ZM28.606 35.7741L29.1045 34.9072L29.0924 34.9002L29.0801 34.8936L28.606 35.7741ZM27.67 34.9161L26.7581 35.3264L26.7707 35.3546L26.7851 35.3818L27.67 34.9161ZM27.488 33.9021L26.5002 33.7461L26.4962 33.7717L26.4935 33.7974L27.488 33.9021ZM27.904 33.0441L28.6368 33.7245L28.6485 33.712L28.6597 33.699L27.904 33.0441ZM28.762 32.5501L28.5749 31.5677L28.5659 31.5695L28.762 32.5501ZM29.958 32.7581L30.396 31.8591L30.3907 31.8566L29.958 32.7581ZM31.882 33.4601L31.6592 34.4349L31.882 33.4601ZM35.444 33.4081L35.7913 34.3458L35.8064 34.3402L35.8213 34.3342L35.444 33.4081ZM36.12 29.6641L35.5335 30.474H35.5335L36.12 29.6641ZM31.05 28.7021L30.3429 29.4092L30.3637 29.43L30.3856 29.4495L31.05 28.7021ZM31.05 26.3101L31.7354 27.0383L31.7366 27.0371L31.05 26.3101ZM35.002 25.6081L35.4007 26.5252L35.4097 26.5212L35.4187 26.5171L35.002 25.6081ZM35.964 24.8281L35.1589 24.2349L35.1486 24.249L35.1387 24.2634L35.964 24.8281ZM35.6 22.0201L34.9861 22.8094L34.993 22.8148L35 22.8201L35.6 22.0201ZM31.908 21.6821L32.1283 22.6575L32.1431 22.6542L32.1579 22.6504L31.908 21.6821ZM30.166 22.3581L30.6132 23.2525L30.623 23.2476L30.6328 23.2425L30.166 22.3581ZM29.1 22.5401L28.894 23.5186H28.894L29.1 22.5401ZM28.268 22.0721L27.5087 22.7229L27.5217 22.738L27.5352 22.7525L28.268 22.0721ZM27.852 21.2401L26.8642 21.396L26.8691 21.4267L26.8758 21.457L27.852 21.2401ZM27.982 20.2521L27.0783 19.824L27.0689 19.8438L27.0604 19.864L27.982 20.2521ZM28.814 19.4461L29.2766 20.3327L29.2968 20.3221L29.3166 20.3106L28.814 19.4461ZM31.232 18.4581L30.985 17.4891L30.9804 17.4903L31.232 18.4581ZM39.448 20.4341L38.6189 20.9933L38.6251 21.0023L39.448 20.4341ZM39.786 25.0361L40.6908 25.4619V25.4619L39.786 25.0361ZM38.616 26.5441L39.2507 27.3168L39.2536 27.3145L38.616 26.5441ZM36.822 27.4021H35.822V28.6753L37.059 28.3736L36.822 27.4021ZM36.822 27.0641L36.9887 26.0781L35.822 25.8809V27.0641H36.822ZM39.708 28.5981L38.9465 29.2462L39.708 28.5981ZM39.916 34.5261L40.7369 35.0972L40.7426 35.0889L39.916 34.5261ZM37.524 36.3721L37.1394 35.449L37.1339 35.4513L37.524 36.3721ZM33.858 36.0221C33.0153 36.0221 32.1508 35.9267 31.2632 35.7331L30.8368 37.6871C31.8559 37.9094 32.8634 38.0221 33.858 38.0221V36.0221ZM31.2841 35.7379C30.4226 35.5305 29.7003 35.2498 29.1045 34.9072L28.1075 36.641C28.8983 37.0957 29.8054 37.439 30.8159 37.6823L31.2841 35.7379ZM29.0801 34.8936C28.7408 34.7109 28.6068 34.5489 28.5549 34.4503L26.7851 35.3818C27.0799 35.9419 27.5699 36.3519 28.1319 36.6546L29.0801 34.8936ZM28.5819 34.5057C28.4876 34.2962 28.469 34.1355 28.4825 34.0068L26.4935 33.7974C26.4377 34.3274 26.5404 34.8427 26.7581 35.3264L28.5819 34.5057ZM28.4758 34.058C28.497 33.9236 28.5477 33.8205 28.6368 33.7245L27.1712 32.3636C26.8097 32.753 26.583 33.2219 26.5002 33.7461L28.4758 34.058ZM28.6597 33.699C28.7355 33.6115 28.8225 33.5578 28.9581 33.5307L28.5659 31.5695C28.0082 31.681 27.5232 31.9566 27.1483 32.3892L28.6597 33.699ZM28.9491 33.5324C29.0483 33.5135 29.2273 33.5166 29.5253 33.6596L30.3907 31.8566C29.822 31.5836 29.2037 31.448 28.5749 31.5677L28.9491 33.5324ZM29.52 33.6571C30.2509 34.0132 30.9646 34.2762 31.6592 34.4349L32.1048 32.4852C31.586 32.3666 31.0171 32.1617 30.396 31.8591L29.52 33.6571ZM31.6592 34.4349C32.337 34.5899 33.0184 34.6681 33.702 34.6681V32.6681C33.1722 32.6681 32.6403 32.6076 32.1048 32.4852L31.6592 34.4349ZM33.702 34.6681C34.4711 34.6681 35.1781 34.573 35.7913 34.3458L35.0967 32.4703C34.7739 32.5899 34.3195 32.6681 33.702 32.6681V34.6681ZM35.8213 34.3342C36.4324 34.0852 36.9564 33.7082 37.3292 33.1755L35.6908 32.0286C35.5783 32.1893 35.3916 32.3496 35.0667 32.482L35.8213 34.3342ZM37.3292 33.1755C37.7142 32.6256 37.874 31.9797 37.874 31.3021H35.874C35.874 31.6645 35.7912 31.8852 35.6908 32.0286L37.3292 33.1755ZM37.874 31.3021C37.874 30.3166 37.5162 29.4405 36.7065 28.8541L35.5335 30.474C35.7292 30.6157 35.874 30.8315 35.874 31.3021H37.874ZM36.7065 28.8541C35.9614 28.3146 34.9807 28.1181 33.91 28.1181V30.1181C34.7806 30.1181 35.2733 30.2856 35.5335 30.474L36.7065 28.8541ZM33.91 28.1181H32.376V30.1181H33.91V28.1181ZM32.376 28.1181C31.9577 28.1181 31.785 28.0175 31.7144 27.9547L30.3856 29.4495C30.939 29.9413 31.6503 30.1181 32.376 30.1181V28.1181ZM31.7571 27.995C31.6876 27.9255 31.608 27.802 31.608 27.5061H29.608C29.608 28.2155 29.823 28.8893 30.3429 29.4092L31.7571 27.995ZM31.608 27.5061C31.608 27.1788 31.6949 27.0764 31.7354 27.0383L30.3646 25.5819C29.8158 26.0984 29.608 26.7934 29.608 27.5061H31.608ZM31.7366 27.0371C31.8081 26.9696 31.9723 26.8681 32.376 26.8681V24.8681C31.6357 24.8681 30.9159 25.0613 30.3634 25.5831L31.7366 27.0371ZM32.376 26.8681H33.52V24.8681H32.376V26.8681ZM33.52 26.8681C34.2006 26.8681 34.84 26.7689 35.4007 26.5252L34.6033 24.691C34.3667 24.7939 34.0181 24.8681 33.52 24.8681V26.8681ZM35.4187 26.5171C35.9749 26.2622 36.4472 25.8927 36.7893 25.3928L35.1387 24.2634C35.0301 24.4221 34.8611 24.5726 34.5853 24.699L35.4187 26.5171ZM36.7691 25.4213C37.1607 24.8898 37.328 24.2639 37.328 23.6061H35.328C35.328 23.9189 35.2527 24.1077 35.1589 24.2349L36.7691 25.4213ZM37.328 23.6061C37.328 22.6493 36.9755 21.8017 36.2 21.2201L35 22.8201C35.1951 22.9664 35.328 23.1762 35.328 23.6061H37.328ZM36.2139 21.2307C35.4999 20.6754 34.5599 20.4741 33.546 20.4741V22.4741C34.3348 22.4741 34.7641 22.6368 34.9861 22.8094L36.2139 21.2307ZM33.546 20.4741C32.907 20.4741 32.277 20.5541 31.6581 20.7138L32.1579 22.6504C32.6136 22.5327 33.0757 22.4741 33.546 22.4741V20.4741ZM31.6877 20.7066C31.0445 20.8519 30.3804 21.1142 29.6992 21.4737L30.6328 23.2425C31.1996 22.9433 31.6968 22.7549 32.1283 22.6575L31.6877 20.7066ZM29.7188 21.4637C29.4846 21.5807 29.361 21.5731 29.306 21.5615L28.894 23.5186C29.4977 23.6457 30.0847 23.5168 30.6132 23.2525L29.7188 21.4637ZM29.306 21.5615C29.1753 21.534 29.0831 21.4803 29.0008 21.3916L27.5352 22.7525C27.9036 23.1492 28.366 23.4075 28.894 23.5186L29.306 21.5615ZM29.0273 21.4213C28.9261 21.3033 28.8619 21.1749 28.8282 21.0232L26.8758 21.457C26.9808 21.9292 27.1939 22.3556 27.5087 22.7229L29.0273 21.4213ZM28.8398 21.0841C28.8189 20.952 28.8318 20.8107 28.9036 20.6401L27.0604 19.864C26.8548 20.3522 26.7811 20.8695 26.8642 21.396L28.8398 21.0841ZM28.8857 20.6802C28.9285 20.5899 29.0249 20.464 29.2766 20.3327L28.3514 18.5595C27.8058 18.8442 27.3475 19.2556 27.0783 19.824L28.8857 20.6802ZM29.3166 20.3106C29.9804 19.9247 30.7015 19.6293 31.4836 19.4259L30.9804 17.4903C30.0291 17.7376 29.1383 18.1008 28.3114 18.5816L29.3166 20.3106ZM31.479 19.4271C32.2833 19.2221 33.093 19.1201 33.91 19.1201V17.1201C32.9244 17.1201 31.9487 17.2434 30.985 17.4891L31.479 19.4271ZM33.91 19.1201C35.1306 19.1201 36.1168 19.3053 36.8981 19.6381L37.6819 17.7981C36.5912 17.3335 35.324 17.1201 33.91 17.1201V19.1201ZM36.8981 19.6381C37.6807 19.9714 38.2379 20.4282 38.6189 20.9932L40.2771 19.8749C39.6528 18.9493 38.7713 18.2621 37.6819 17.7981L36.8981 19.6381ZM38.6251 21.0023C38.9933 21.5355 39.202 22.2125 39.202 23.0861H41.202C41.202 21.8796 40.908 20.7887 40.2709 19.8659L38.6251 21.0023ZM39.202 23.0861C39.202 23.6631 39.0903 24.1659 38.8812 24.6103L40.6908 25.4619C41.0364 24.7276 41.202 23.9304 41.202 23.0861H39.202ZM38.8812 24.6103C38.6666 25.0662 38.368 25.4513 37.9784 25.7737L39.2536 27.3145C39.8694 26.8048 40.3507 26.1846 40.6908 25.4619L38.8812 24.6103ZM37.9813 25.7714C37.6296 26.0603 37.1738 26.287 36.585 26.4306L37.059 28.3736C37.8915 28.1705 38.6318 27.8252 39.2507 27.3168L37.9813 25.7714ZM37.822 27.4021V27.0641H35.822V27.4021H37.822ZM36.6553 28.0501C37.6948 28.2258 38.4303 28.6397 38.9465 29.2462L40.4695 27.95C39.599 26.9271 38.4105 26.3184 36.9887 26.0781L36.6553 28.0501ZM38.9465 29.2462C39.463 29.8531 39.748 30.6351 39.748 31.6661H41.748C41.748 30.2357 41.3397 28.9724 40.4695 27.95L38.9465 29.2462ZM39.748 31.6661C39.748 32.5799 39.519 33.3323 39.0894 33.9633L40.7426 35.0889C41.4223 34.0905 41.748 32.9362 41.748 31.6661H39.748ZM39.0951 33.955C38.6658 34.5721 38.0321 35.077 37.1394 35.449L37.9086 37.2952C39.0959 36.8005 40.0568 36.0748 40.7369 35.0971L39.0951 33.955ZM37.1339 35.4513C36.2639 35.82 35.1813 36.0221 33.858 36.0221V38.0221C35.3774 38.0221 36.7388 37.7909 37.9142 37.2928L37.1339 35.4513Z" fill="#8029AB" mask="url(#path-9-outside-1_26645_234772)"/>
<defs>
<radialGradient id="paint0_radial_26645_234772" cx="0" cy="0" r="1" gradientUnits="userSpaceOnUse" gradientTransform="translate(27.4975 27.6645) scale(23.0273 23.0272)">
<stop stop-color="#E2DAD7"/>
<stop offset="1" stop-color="#D5C5BE"/>
</radialGradient>
</defs>
</svg>
