<svg width="55" height="56" viewBox="0 0 55 56" fill="none" xmlns="http://www.w3.org/2000/svg">
<path d="M55 28.1045C55 29.279 54.9268 30.4358 54.7839 31.5721C54.4532 34.1632 53.7572 36.6438 52.751 38.9546C52.751 38.9546 52.751 38.9582 52.7473 38.9614C48.5282 48.6753 38.8094 55.4723 27.4998 55.4723C14.6968 55.4723 3.94393 46.7665 0.877028 34.9811V34.9775C0.302495 32.7812 0 30.4772 0 28.1045C0 25.6794 0.31659 23.3271 0.915232 21.0895C4.02399 9.37323 14.7486 0.737061 27.4998 0.737061C42.6878 0.736606 55 12.9897 55 28.1045Z" fill="#CEB3AA"/>
<path d="M53.5469 26.7821C53.5469 27.115 53.5415 27.4485 53.5283 27.7787C53.4992 28.5562 53.4382 29.3231 53.3431 30.0819C53.0284 32.5488 52.3701 34.9074 51.418 37.1077C51.418 37.1077 51.418 37.1104 51.4126 37.1154C47.4172 46.3598 38.2124 52.8275 27.501 52.8275C15.3749 52.8275 5.19158 44.543 2.28571 33.3262V33.3234C1.85447 31.6708 1.58516 29.9522 1.49237 28.1908C1.46826 27.7227 1.45508 27.2547 1.45508 26.7816C1.45508 24.473 1.75394 22.2363 2.32256 20.1051C5.26573 8.95427 15.4244 0.736084 27.5005 0.736084C41.8857 0.736539 53.5469 12.3978 53.5469 26.7821Z" fill="#E7E6E2"/>
<path d="M53.5465 26.7821C53.5465 27.1151 53.541 27.4485 53.5279 27.7788C52.5416 25.9383 50.8599 22.9159 48.0068 18.0085C41.6765 7.12198 27.501 5.89282 16.004 9.3382C4.50425 12.7863 1.98685 32.0311 1.98685 32.0311L1.49239 28.1918C1.46828 27.7237 1.45508 27.2556 1.45508 26.7825C1.45508 24.4739 1.75396 22.2372 2.32258 20.106C5.26575 8.95519 15.4245 0.737061 27.5006 0.737061C41.8853 0.736606 53.5465 12.3978 53.5465 26.7821Z" fill="white"/>
<path d="M50.3702 27.6646C50.3702 28.6595 50.3092 29.6394 50.1905 30.6019C49.9157 32.7968 49.3366 34.8975 48.4996 36.8549C48.4996 36.8549 48.4996 36.858 48.4969 36.8608C44.9879 45.0885 36.9044 50.8456 27.4976 50.8456C16.8489 50.8456 7.90571 43.4718 5.35465 33.4891V33.4864C4.87701 31.6259 4.625 29.6748 4.625 27.6646C4.625 25.6108 4.88839 23.6183 5.3865 21.7228C7.97212 11.7988 16.8922 4.48364 27.4976 4.48364C40.1296 4.48364 50.3702 14.8621 50.3702 27.6646Z" fill="url(#paint0_radial_26645_234789)"/>
<path d="M49.8029 26.7816C49.8029 27.7387 49.7437 28.6812 49.6277 29.6069C49.3598 31.7181 48.7953 33.7392 47.9792 35.622C47.9792 35.622 47.9792 35.6247 47.9765 35.6274C44.5552 43.5421 36.6742 49.0805 27.503 49.0805C17.1209 49.0805 8.4015 41.9869 5.91459 32.3841V32.3813C5.44878 30.5917 5.20312 28.7144 5.20312 26.7811C5.20312 24.805 5.46015 22.8886 5.94552 21.0649C8.4661 11.5185 17.1632 4.4812 27.5025 4.4812C39.8188 4.48211 49.8029 14.4662 49.8029 26.7816Z" fill="#8029AB"/>
<path d="M48.3903 26.7826C48.3903 27.6792 48.3348 28.5621 48.226 29.4296C47.9749 31.4075 47.4459 33.3007 46.6821 35.0644C46.6821 35.0644 46.6821 35.0671 46.6794 35.0699C43.4747 42.4842 36.0922 47.6723 27.5006 47.6723C17.7749 47.6723 9.60725 41.0271 7.27773 32.0316V32.0289C6.84149 30.3526 6.61133 28.594 6.61133 26.7826C6.61133 24.9316 6.85196 23.1361 7.30686 21.428C9.66822 12.4852 17.8149 5.89331 27.5006 5.89331C39.0376 5.89331 48.3903 15.246 48.3903 26.7826Z" fill="#C349E1"/>
<path d="M48.392 26.7821C48.392 27.6787 48.3365 28.5617 48.2278 29.4291C45.6126 15.0103 36.5406 9.97281 22.7427 11.1815C15.413 11.8238 10.4155 16.7976 7.30859 21.428C9.66995 12.4852 17.8167 5.89331 27.5023 5.89331C39.0394 5.89286 48.392 15.2455 48.392 26.7821Z" fill="#D468E5"/>
<path opacity="0.43" d="M46.679 35.0703C43.4743 42.4846 36.0918 47.6727 27.5002 47.6727C17.7745 47.6727 9.60686 41.0275 7.27734 32.032C10.2414 36.4053 17.1695 44.5366 27.5002 44.1477C41.3827 43.6268 46.5202 35.3291 46.679 35.0703Z" fill="#D468E5"/>
<mask id="path-9-outside-1_26645_234789" maskUnits="userSpaceOnUse" x="13" y="16.7361" width="30" height="22" fill="black">
<rect fill="white" x="13" y="16.7361" width="30" height="22"/>
<path d="M15.9922 36.7361C15.4375 36.7361 15.0128 36.5888 14.7182 36.2941C14.4235 35.9994 14.2762 35.5921 14.2762 35.0721C14.2762 34.5348 14.4235 34.1274 14.7182 33.8501C15.0128 33.5728 15.4375 33.4341 15.9922 33.4341H18.6182V21.7081H20.5162L16.7202 24.0221C16.3215 24.2648 15.9488 24.3601 15.6022 24.3081C15.2728 24.2561 14.9868 24.1087 14.7442 23.8661C14.5015 23.6234 14.3368 23.3374 14.2502 23.0081C14.1808 22.6614 14.2155 22.3234 14.3542 21.9941C14.4928 21.6474 14.7528 21.3528 15.1342 21.1101L18.7482 18.9261C19.1122 18.7007 19.4762 18.5188 19.8402 18.3801C20.2215 18.2414 20.5942 18.1721 20.9582 18.1721C21.4782 18.1721 21.8855 18.3107 22.1802 18.5881C22.4922 18.8481 22.6482 19.2554 22.6482 19.8101V33.4341H25.0142C25.5515 33.4341 25.9675 33.5728 26.2622 33.8501C26.5568 34.1274 26.7042 34.5348 26.7042 35.0721C26.7042 35.6094 26.5568 36.0254 26.2622 36.3201C25.9675 36.5974 25.5515 36.7361 25.0142 36.7361H15.9922ZM37.16 36.9701C36.536 36.9701 36.042 36.7968 35.678 36.4501C35.3313 36.1034 35.158 35.6008 35.158 34.9421V33.4601H29.334C28.6927 33.4601 28.1813 33.3214 27.8 33.0441C27.4187 32.7494 27.228 32.3074 27.228 31.7181C27.228 31.3714 27.306 31.0161 27.462 30.6521C27.618 30.2881 27.8953 29.8374 28.294 29.3001L35.028 19.4981C35.3227 19.0647 35.652 18.7354 36.016 18.5101C36.38 18.2847 36.796 18.1721 37.264 18.1721C37.8187 18.1721 38.2607 18.3454 38.59 18.6921C38.9367 19.0214 39.11 19.5241 39.11 20.2001V30.2881H40.072C40.644 30.2881 41.0773 30.4268 41.372 30.7041C41.6667 30.9641 41.814 31.3541 41.814 31.8741C41.814 32.3768 41.6667 32.7668 41.372 33.0441C41.0947 33.3214 40.6613 33.4601 40.072 33.4601H39.11V34.9421C39.11 35.6008 38.9367 36.1034 38.59 36.4501C38.2607 36.7968 37.784 36.9701 37.16 36.9701ZM35.158 30.2881V23.1381H35.912L30.374 31.2761V30.2881H35.158Z"/>
</mask>
<path d="M15.9922 36.7361C15.4375 36.7361 15.0128 36.5888 14.7182 36.2941C14.4235 35.9994 14.2762 35.5921 14.2762 35.0721C14.2762 34.5348 14.4235 34.1274 14.7182 33.8501C15.0128 33.5728 15.4375 33.4341 15.9922 33.4341H18.6182V21.7081H20.5162L16.7202 24.0221C16.3215 24.2648 15.9488 24.3601 15.6022 24.3081C15.2728 24.2561 14.9868 24.1087 14.7442 23.8661C14.5015 23.6234 14.3368 23.3374 14.2502 23.0081C14.1808 22.6614 14.2155 22.3234 14.3542 21.9941C14.4928 21.6474 14.7528 21.3528 15.1342 21.1101L18.7482 18.9261C19.1122 18.7007 19.4762 18.5188 19.8402 18.3801C20.2215 18.2414 20.5942 18.1721 20.9582 18.1721C21.4782 18.1721 21.8855 18.3107 22.1802 18.5881C22.4922 18.8481 22.6482 19.2554 22.6482 19.8101V33.4341H25.0142C25.5515 33.4341 25.9675 33.5728 26.2622 33.8501C26.5568 34.1274 26.7042 34.5348 26.7042 35.0721C26.7042 35.6094 26.5568 36.0254 26.2622 36.3201C25.9675 36.5974 25.5515 36.7361 25.0142 36.7361H15.9922ZM37.16 36.9701C36.536 36.9701 36.042 36.7968 35.678 36.4501C35.3313 36.1034 35.158 35.6008 35.158 34.9421V33.4601H29.334C28.6927 33.4601 28.1813 33.3214 27.8 33.0441C27.4187 32.7494 27.228 32.3074 27.228 31.7181C27.228 31.3714 27.306 31.0161 27.462 30.6521C27.618 30.2881 27.8953 29.8374 28.294 29.3001L35.028 19.4981C35.3227 19.0647 35.652 18.7354 36.016 18.5101C36.38 18.2847 36.796 18.1721 37.264 18.1721C37.8187 18.1721 38.2607 18.3454 38.59 18.6921C38.9367 19.0214 39.11 19.5241 39.11 20.2001V30.2881H40.072C40.644 30.2881 41.0773 30.4268 41.372 30.7041C41.6667 30.9641 41.814 31.3541 41.814 31.8741C41.814 32.3768 41.6667 32.7668 41.372 33.0441C41.0947 33.3214 40.6613 33.4601 40.072 33.4601H39.11V34.9421C39.11 35.6008 38.9367 36.1034 38.59 36.4501C38.2607 36.7968 37.784 36.9701 37.16 36.9701ZM35.158 30.2881V23.1381H35.912L30.374 31.2761V30.2881H35.158Z" fill="white"/>
<path d="M14.7182 33.8501L14.0328 33.1219H14.0328L14.7182 33.8501ZM18.6182 33.4341V34.4341H19.6182V33.4341H18.6182ZM18.6182 21.7081V20.7081H17.6182V21.7081H18.6182ZM20.5162 21.7081L21.0367 22.5619L24.0778 20.7081H20.5162V21.7081ZM16.7202 24.0221L17.2401 24.8763L17.2407 24.8759L16.7202 24.0221ZM15.6022 24.3081L15.4462 25.2959L15.4538 25.297L15.6022 24.3081ZM14.7442 23.8661L15.4513 23.159L15.4513 23.159L14.7442 23.8661ZM14.2502 23.0081L13.2696 23.2042L13.2755 23.2336L13.2831 23.2626L14.2502 23.0081ZM14.3542 21.9941L15.2758 22.3821L15.2793 22.3738L15.2826 22.3655L14.3542 21.9941ZM15.1342 21.1101L14.6169 20.2542L14.607 20.2602L14.5973 20.2664L15.1342 21.1101ZM18.7482 18.9261L19.2654 19.782L19.2745 19.7763L18.7482 18.9261ZM19.8402 18.3801L19.4984 17.4403L19.4913 17.4429L19.4842 17.4456L19.8402 18.3801ZM22.1802 18.5881L21.4948 19.3163L21.5168 19.337L21.54 19.3563L22.1802 18.5881ZM22.6482 33.4341H21.6482V34.4341H22.6482V33.4341ZM26.2622 33.8501L26.9475 33.1219L26.9475 33.1219L26.2622 33.8501ZM26.2622 36.3201L26.9475 37.0483L26.9586 37.0379L26.9693 37.0272L26.2622 36.3201ZM15.9922 35.7361C15.6119 35.7361 15.4767 35.6384 15.4253 35.587L14.011 37.0012C14.5489 37.5391 15.263 37.7361 15.9922 37.7361V35.7361ZM15.4253 35.587C15.3621 35.5238 15.2762 35.3963 15.2762 35.0721H13.2762C13.2762 35.7878 13.4849 36.475 14.011 37.0012L15.4253 35.587ZM15.2762 35.0721C15.2762 34.716 15.3694 34.6104 15.4035 34.5783L14.0328 33.1219C13.4776 33.6444 13.2762 34.3535 13.2762 35.0721H15.2762ZM15.4035 34.5783C15.4531 34.5316 15.5965 34.4341 15.9922 34.4341V32.4341C15.2785 32.4341 14.5726 32.6139 14.0328 33.1219L15.4035 34.5783ZM15.9922 34.4341H18.6182V32.4341H15.9922V34.4341ZM19.6182 33.4341V21.7081H17.6182V33.4341H19.6182ZM18.6182 22.7081H20.5162V20.7081H18.6182V22.7081ZM19.9957 20.8542L16.1997 23.1682L17.2407 24.8759L21.0367 22.5619L19.9957 20.8542ZM16.2002 23.1679C15.9349 23.3294 15.7984 23.3263 15.7505 23.3191L15.4538 25.297C16.0992 25.3938 16.7081 25.2001 17.2401 24.8763L16.2002 23.1679ZM15.7581 23.3203C15.644 23.3023 15.5492 23.2569 15.4513 23.159L14.037 24.5732C14.4245 24.9606 14.9016 25.2099 15.4462 25.2958L15.7581 23.3203ZM15.4513 23.159C15.3328 23.0405 15.2585 22.9103 15.2172 22.7536L13.2831 23.2626C13.4152 23.7645 13.6702 24.2063 14.0371 24.5732L15.4513 23.159ZM15.2307 22.812C15.2011 22.6638 15.2139 22.5292 15.2758 22.3821L13.4325 21.606C13.2171 22.1177 13.1605 22.6591 13.2696 23.2042L15.2307 22.812ZM15.2826 22.3655C15.3283 22.2514 15.4285 22.1081 15.671 21.9537L14.5973 20.2664C14.0772 20.5974 13.6574 21.0434 13.4257 21.6227L15.2826 22.3655ZM15.6514 21.9659L19.2654 19.7819L18.2309 18.0702L14.6169 20.2542L15.6514 21.9659ZM19.2745 19.7763C19.5898 19.5812 19.897 19.4285 20.1962 19.3146L19.4842 17.4456C19.0553 17.609 18.6345 17.8203 18.2218 18.0758L19.2745 19.7763ZM20.1819 19.3199C20.4662 19.2165 20.7233 19.1721 20.9582 19.1721V17.1721C20.465 17.1721 19.9768 17.2663 19.4984 17.4403L20.1819 19.3199ZM20.9582 19.1721C21.2987 19.1721 21.434 19.2591 21.4948 19.3163L22.8655 17.8599C22.337 17.3624 21.6576 17.1721 20.9582 17.1721V19.1721ZM21.54 19.3563C21.5486 19.3635 21.6482 19.4377 21.6482 19.8101H23.6482C23.6482 19.0732 23.4357 18.3327 22.8203 17.8199L21.54 19.3563ZM21.6482 19.8101V33.4341H23.6482V19.8101H21.6482ZM22.6482 34.4341H25.0142V32.4341H22.6482V34.4341ZM25.0142 34.4341C25.3824 34.4341 25.5218 34.5265 25.5768 34.5783L26.9475 33.1219C26.4132 32.619 25.7206 32.4341 25.0142 32.4341V34.4341ZM25.5768 34.5783C25.6109 34.6104 25.7042 34.716 25.7042 35.0721H27.7042C27.7042 34.3535 27.5027 33.6444 26.9475 33.1219L25.5768 34.5783ZM25.7042 35.0721C25.7042 35.4244 25.6122 35.5558 25.555 35.613L26.9693 37.0272C27.5015 36.495 27.7042 35.7944 27.7042 35.0721H25.7042ZM25.5768 35.5919C25.5218 35.6437 25.3824 35.7361 25.0142 35.7361V37.7361C25.7206 37.7361 26.4132 37.5512 26.9475 37.0483L25.5768 35.5919ZM25.0142 35.7361H15.9922V37.7361H25.0142V35.7361ZM35.678 36.4501L34.9709 37.1572L34.9795 37.1658L34.9883 37.1742L35.678 36.4501ZM35.158 33.4601H36.158V32.4601H35.158V33.4601ZM27.8 33.0441L27.1886 33.8354L27.2001 33.8443L27.2118 33.8528L27.8 33.0441ZM27.462 30.6521L28.3811 31.046L27.462 30.6521ZM28.294 29.3001L29.0971 29.8959L29.1079 29.8813L29.1182 29.8663L28.294 29.3001ZM35.028 19.4981L35.8522 20.0643L35.8549 20.0604L35.028 19.4981ZM38.59 18.6921L37.865 19.3808L37.8827 19.3994L37.9013 19.4171L38.59 18.6921ZM39.11 30.2881H38.11V31.2881H39.11V30.2881ZM41.372 30.7041L40.6866 31.4323L40.6983 31.4433L40.7104 31.4539L41.372 30.7041ZM41.372 33.0441L40.6866 32.3159L40.6756 32.3263L40.6649 32.337L41.372 33.0441ZM39.11 33.4601V32.4601H38.11V33.4601H39.11ZM38.59 36.4501L37.8829 35.743L37.8738 35.752L37.865 35.7613L38.59 36.4501ZM35.158 30.2881V31.2881H36.158V30.2881H35.158ZM35.158 23.1381V22.1381H34.158V23.1381H35.158ZM35.912 23.1381L36.7387 23.7007L37.8021 22.1381H35.912V23.1381ZM30.374 31.2761H29.374V34.523L31.2007 31.8387L30.374 31.2761ZM30.374 30.2881V29.2881H29.374V30.2881H30.374ZM37.16 35.9701C36.7276 35.9701 36.5034 35.8552 36.3677 35.7259L34.9883 37.1742C35.5806 37.7383 36.3444 37.9701 37.16 37.9701V35.9701ZM36.3851 35.743C36.2833 35.6412 36.158 35.4294 36.158 34.9421H34.158C34.158 35.7721 34.3794 36.5657 34.9709 37.1572L36.3851 35.743ZM36.158 34.9421V33.4601H34.158V34.9421H36.158ZM35.158 32.4601H29.334V34.4601H35.158V32.4601ZM29.334 32.4601C28.8292 32.4601 28.5467 32.3506 28.3882 32.2353L27.2118 33.8528C27.816 34.2922 28.5561 34.4601 29.334 34.4601V32.4601ZM28.4114 32.2528C28.3301 32.1899 28.228 32.0744 28.228 31.7181H26.228C26.228 32.5404 26.5073 33.3089 27.1886 33.8354L28.4114 32.2528ZM28.228 31.7181C28.228 31.5248 28.2709 31.3032 28.3811 31.046L26.5429 30.2582C26.3411 30.729 26.228 31.218 26.228 31.7181H28.228ZM28.3811 31.046C28.4926 30.7859 28.7177 30.4072 29.0971 29.8959L27.4909 28.7042C27.0729 29.2676 26.7434 29.7902 26.5429 30.2582L28.3811 31.046ZM29.1182 29.8663L35.8522 20.0643L34.2038 18.9318L27.4698 28.7338L29.1182 29.8663ZM35.8549 20.0604C36.088 19.7177 36.3212 19.4972 36.5424 19.3603L35.4896 17.6598C34.9828 17.9736 34.5574 18.4118 34.2011 18.9358L35.8549 20.0604ZM36.5424 19.3603C36.7336 19.2419 36.964 19.1721 37.264 19.1721V17.1721C36.628 17.1721 36.0264 17.3276 35.4896 17.6598L36.5424 19.3603ZM37.264 19.1721C37.5924 19.1721 37.7551 19.2651 37.865 19.3808L39.315 18.0033C38.7663 17.4257 38.045 17.1721 37.264 17.1721V19.1721ZM37.9013 19.4171C37.9786 19.4906 38.11 19.6826 38.11 20.2001H40.11C40.11 19.3656 39.8947 18.5523 39.2788 17.9671L37.9013 19.4171ZM38.11 20.2001V30.2881H40.11V20.2001H38.11ZM39.11 31.2881H40.072V29.2881H39.11V31.2881ZM40.072 31.2881C40.4948 31.2881 40.6422 31.3905 40.6866 31.4323L42.0574 29.9759C41.5124 29.463 40.7932 29.2881 40.072 29.2881V31.2881ZM40.7104 31.4539C40.7259 31.4677 40.814 31.543 40.814 31.8741H42.814C42.814 31.1652 42.6074 30.4605 42.0336 29.9542L40.7104 31.4539ZM40.814 31.8741C40.814 32.1724 40.7339 32.2714 40.6866 32.3159L42.0574 33.7723C42.5995 33.2621 42.814 32.5811 42.814 31.8741H40.814ZM40.6649 32.337C40.6512 32.3507 40.5278 32.4601 40.072 32.4601V34.4601C40.7949 34.4601 41.5381 34.2922 42.0791 33.7512L40.6649 32.337ZM40.072 32.4601H39.11V34.4601H40.072V32.4601ZM38.11 33.4601V34.9421H40.11V33.4601H38.11ZM38.11 34.9421C38.11 35.4294 37.9847 35.6412 37.8829 35.743L39.2971 37.1572C39.8886 36.5657 40.11 35.7721 40.11 34.9421H38.11ZM37.865 35.7613C37.7774 35.8536 37.5976 35.9701 37.16 35.9701V37.9701C37.9704 37.9701 38.7439 37.74 39.315 37.1388L37.865 35.7613ZM36.158 30.2881V23.1381H34.158V30.2881H36.158ZM35.158 24.1381H35.912V22.1381H35.158V24.1381ZM35.0853 22.5755L29.5473 30.7135L31.2007 31.8387L36.7387 23.7007L35.0853 22.5755ZM31.374 31.2761V30.2881H29.374V31.2761H31.374ZM30.374 31.2881H35.158V29.2881H30.374V31.2881Z" fill="#8029AB" mask="url(#path-9-outside-1_26645_234789)"/>
<defs>
<radialGradient id="paint0_radial_26645_234789" cx="0" cy="0" r="1" gradientUnits="userSpaceOnUse" gradientTransform="translate(27.4975 27.6645) scale(23.0273 23.0272)">
<stop stop-color="#E2DAD7"/>
<stop offset="1" stop-color="#D5C5BE"/>
</radialGradient>
</defs>
</svg>
