<svg width="55" height="56" viewBox="0 0 55 56" fill="none" xmlns="http://www.w3.org/2000/svg">
<path d="M55 28.1045C55 29.279 54.9268 30.4358 54.7839 31.5721C54.4532 34.1632 53.7572 36.6438 52.751 38.9546C52.751 38.9546 52.751 38.9582 52.7473 38.9614C48.5282 48.6753 38.8094 55.4723 27.4998 55.4723C14.6968 55.4723 3.94393 46.7665 0.877028 34.9811V34.9775C0.302495 32.7812 0 30.4772 0 28.1045C0 25.6794 0.31659 23.3271 0.915232 21.0895C4.02399 9.37323 14.7486 0.737061 27.4998 0.737061C42.6878 0.736606 55 12.9897 55 28.1045Z" fill="#CEB3AA"/>
<path d="M53.5469 26.7821C53.5469 27.115 53.5415 27.4485 53.5283 27.7787C53.4992 28.5562 53.4382 29.3231 53.3431 30.0819C53.0284 32.5488 52.3701 34.9074 51.418 37.1077C51.418 37.1077 51.418 37.1104 51.4126 37.1154C47.4172 46.3598 38.2124 52.8275 27.501 52.8275C15.3749 52.8275 5.19158 44.543 2.28571 33.3262V33.3234C1.85447 31.6708 1.58516 29.9522 1.49237 28.1908C1.46826 27.7227 1.45508 27.2547 1.45508 26.7816C1.45508 24.473 1.75394 22.2363 2.32256 20.1051C5.26573 8.95427 15.4244 0.736084 27.5005 0.736084C41.8857 0.736539 53.5469 12.3978 53.5469 26.7821Z" fill="#E7E6E2"/>
<path d="M53.5465 26.7821C53.5465 27.1151 53.541 27.4485 53.5279 27.7788C52.5416 25.9383 50.8599 22.9159 48.0068 18.0085C41.6765 7.12198 27.501 5.89282 16.004 9.3382C4.50425 12.7863 1.98685 32.0311 1.98685 32.0311L1.49239 28.1918C1.46828 27.7237 1.45508 27.2556 1.45508 26.7825C1.45508 24.4739 1.75396 22.2372 2.32258 20.106C5.26575 8.95519 15.4245 0.737061 27.5006 0.737061C41.8853 0.736606 53.5465 12.3978 53.5465 26.7821Z" fill="white"/>
<path d="M50.3702 27.6646C50.3702 28.6595 50.3092 29.6394 50.1905 30.6019C49.9157 32.7968 49.3366 34.8975 48.4996 36.8549C48.4996 36.8549 48.4996 36.858 48.4969 36.8608C44.9879 45.0885 36.9044 50.8456 27.4976 50.8456C16.8489 50.8456 7.90571 43.4718 5.35465 33.4891V33.4864C4.87701 31.6259 4.625 29.6748 4.625 27.6646C4.625 25.6108 4.88839 23.6183 5.3865 21.7228C7.97212 11.7988 16.8922 4.48364 27.4976 4.48364C40.1296 4.48364 50.3702 14.8621 50.3702 27.6646Z" fill="url(#paint0_radial_26645_234806)"/>
<path d="M49.8029 26.7816C49.8029 27.7387 49.7437 28.6812 49.6277 29.6069C49.3598 31.7181 48.7953 33.7392 47.9792 35.622C47.9792 35.622 47.9792 35.6247 47.9765 35.6274C44.5552 43.5421 36.6742 49.0805 27.503 49.0805C17.1209 49.0805 8.4015 41.9869 5.91459 32.3841V32.3813C5.44878 30.5917 5.20312 28.7144 5.20312 26.7811C5.20312 24.805 5.46015 22.8886 5.94552 21.0649C8.4661 11.5185 17.1632 4.4812 27.5025 4.4812C39.8188 4.48211 49.8029 14.4662 49.8029 26.7816Z" fill="#8029AB"/>
<path d="M48.3903 26.7826C48.3903 27.6792 48.3348 28.5621 48.226 29.4296C47.9749 31.4075 47.4459 33.3007 46.6821 35.0644C46.6821 35.0644 46.6821 35.0671 46.6794 35.0699C43.4747 42.4842 36.0922 47.6723 27.5006 47.6723C17.7749 47.6723 9.60725 41.0271 7.27773 32.0316V32.0289C6.84149 30.3526 6.61133 28.594 6.61133 26.7826C6.61133 24.9316 6.85196 23.1361 7.30686 21.428C9.66822 12.4852 17.8149 5.89331 27.5006 5.89331C39.0376 5.89331 48.3903 15.246 48.3903 26.7826Z" fill="#C349E1"/>
<path d="M48.392 26.7821C48.392 27.6787 48.3365 28.5617 48.2278 29.4291C45.6126 15.0103 36.5406 9.97281 22.7427 11.1815C15.413 11.8238 10.4155 16.7976 7.30859 21.428C9.66995 12.4852 17.8167 5.89331 27.5023 5.89331C39.0394 5.89286 48.392 15.2455 48.392 26.7821Z" fill="#D468E5"/>
<path opacity="0.43" d="M46.679 35.0703C43.4743 42.4846 36.0918 47.6727 27.5002 47.6727C17.7745 47.6727 9.60686 41.0275 7.27734 32.032C10.2414 36.4053 17.1695 44.5366 27.5002 44.1477C41.3827 43.6268 46.5202 35.3291 46.679 35.0703Z" fill="#D468E5"/>
<mask id="path-9-outside-1_26645_234806" maskUnits="userSpaceOnUse" x="13" y="16.7361" width="30" height="22" fill="black">
<rect fill="white" x="13" y="16.7361" width="30" height="22"/>
<path d="M15.9922 36.7361C15.4375 36.7361 15.0128 36.5888 14.7182 36.2941C14.4235 35.9994 14.2762 35.5921 14.2762 35.0721C14.2762 34.5348 14.4235 34.1274 14.7182 33.8501C15.0128 33.5728 15.4375 33.4341 15.9922 33.4341H18.6182V21.7081H20.5162L16.7202 24.0221C16.3215 24.2648 15.9488 24.3601 15.6022 24.3081C15.2728 24.2561 14.9868 24.1087 14.7442 23.8661C14.5015 23.6234 14.3368 23.3374 14.2502 23.0081C14.1808 22.6614 14.2155 22.3234 14.3542 21.9941C14.4928 21.6474 14.7528 21.3528 15.1342 21.1101L18.7482 18.9261C19.1122 18.7007 19.4762 18.5188 19.8402 18.3801C20.2215 18.2414 20.5942 18.1721 20.9582 18.1721C21.4782 18.1721 21.8855 18.3107 22.1802 18.5881C22.4922 18.8481 22.6482 19.2554 22.6482 19.8101V33.4341H25.0142C25.5515 33.4341 25.9675 33.5728 26.2622 33.8501C26.5568 34.1274 26.7042 34.5348 26.7042 35.0721C26.7042 35.6094 26.5568 36.0254 26.2622 36.3201C25.9675 36.5974 25.5515 36.7361 25.0142 36.7361H15.9922ZM34.326 37.0221C33.442 37.0221 32.532 36.9094 31.596 36.6841C30.66 36.4588 29.802 36.1208 29.022 35.6701C28.6233 35.4448 28.346 35.1674 28.19 34.8381C28.0513 34.5088 28.008 34.1708 28.06 33.8241C28.1293 33.4774 28.268 33.1828 28.476 32.9401C28.7013 32.6801 28.9787 32.5154 29.308 32.4461C29.6547 32.3768 30.036 32.4548 30.452 32.6801C31.0587 32.9921 31.674 33.2348 32.298 33.4081C32.9393 33.5814 33.5893 33.6681 34.248 33.6681C34.9067 33.6681 35.47 33.5554 35.938 33.3301C36.406 33.1048 36.7613 32.7928 37.004 32.3941C37.2467 31.9954 37.368 31.5274 37.368 30.9901C37.368 30.1581 37.0993 29.4908 36.562 28.9881C36.042 28.4854 35.3313 28.2341 34.43 28.2341C33.9793 28.2341 33.52 28.3121 33.052 28.4681C32.6013 28.6068 32.1333 28.8581 31.648 29.2221C31.4747 29.3608 31.2493 29.4908 30.972 29.6121C30.6947 29.7334 30.4 29.7941 30.088 29.7941C29.5507 29.7941 29.152 29.6728 28.892 29.4301C28.632 29.1701 28.502 28.7974 28.502 28.3121V20.1481C28.502 19.5761 28.6493 19.1428 28.944 18.8481C29.256 18.5534 29.6893 18.4061 30.244 18.4061H38.59C39.162 18.4061 39.5953 18.5534 39.89 18.8481C40.1847 19.1254 40.332 19.5327 40.332 20.0701C40.332 20.5901 40.1847 20.9974 39.89 21.2921C39.5953 21.5694 39.162 21.7081 38.59 21.7081H32.376V26.6741H31.388C31.8213 26.1368 32.3933 25.7208 33.104 25.4261C33.8147 25.1314 34.5947 24.9841 35.444 24.9841C36.6053 24.9841 37.6193 25.2354 38.486 25.7381C39.3527 26.2234 40.0287 26.9081 40.514 27.7921C40.9993 28.6761 41.242 29.6988 41.242 30.8601C41.242 32.0734 40.9647 33.1481 40.41 34.0841C39.8553 35.0028 39.058 35.7221 38.018 36.2421C36.978 36.7621 35.7473 37.0221 34.326 37.0221Z"/>
</mask>
<path d="M15.9922 36.7361C15.4375 36.7361 15.0128 36.5888 14.7182 36.2941C14.4235 35.9994 14.2762 35.5921 14.2762 35.0721C14.2762 34.5348 14.4235 34.1274 14.7182 33.8501C15.0128 33.5728 15.4375 33.4341 15.9922 33.4341H18.6182V21.7081H20.5162L16.7202 24.0221C16.3215 24.2648 15.9488 24.3601 15.6022 24.3081C15.2728 24.2561 14.9868 24.1087 14.7442 23.8661C14.5015 23.6234 14.3368 23.3374 14.2502 23.0081C14.1808 22.6614 14.2155 22.3234 14.3542 21.9941C14.4928 21.6474 14.7528 21.3528 15.1342 21.1101L18.7482 18.9261C19.1122 18.7007 19.4762 18.5188 19.8402 18.3801C20.2215 18.2414 20.5942 18.1721 20.9582 18.1721C21.4782 18.1721 21.8855 18.3107 22.1802 18.5881C22.4922 18.8481 22.6482 19.2554 22.6482 19.8101V33.4341H25.0142C25.5515 33.4341 25.9675 33.5728 26.2622 33.8501C26.5568 34.1274 26.7042 34.5348 26.7042 35.0721C26.7042 35.6094 26.5568 36.0254 26.2622 36.3201C25.9675 36.5974 25.5515 36.7361 25.0142 36.7361H15.9922ZM34.326 37.0221C33.442 37.0221 32.532 36.9094 31.596 36.6841C30.66 36.4588 29.802 36.1208 29.022 35.6701C28.6233 35.4448 28.346 35.1674 28.19 34.8381C28.0513 34.5088 28.008 34.1708 28.06 33.8241C28.1293 33.4774 28.268 33.1828 28.476 32.9401C28.7013 32.6801 28.9787 32.5154 29.308 32.4461C29.6547 32.3768 30.036 32.4548 30.452 32.6801C31.0587 32.9921 31.674 33.2348 32.298 33.4081C32.9393 33.5814 33.5893 33.6681 34.248 33.6681C34.9067 33.6681 35.47 33.5554 35.938 33.3301C36.406 33.1048 36.7613 32.7928 37.004 32.3941C37.2467 31.9954 37.368 31.5274 37.368 30.9901C37.368 30.1581 37.0993 29.4908 36.562 28.9881C36.042 28.4854 35.3313 28.2341 34.43 28.2341C33.9793 28.2341 33.52 28.3121 33.052 28.4681C32.6013 28.6068 32.1333 28.8581 31.648 29.2221C31.4747 29.3608 31.2493 29.4908 30.972 29.6121C30.6947 29.7334 30.4 29.7941 30.088 29.7941C29.5507 29.7941 29.152 29.6728 28.892 29.4301C28.632 29.1701 28.502 28.7974 28.502 28.3121V20.1481C28.502 19.5761 28.6493 19.1428 28.944 18.8481C29.256 18.5534 29.6893 18.4061 30.244 18.4061H38.59C39.162 18.4061 39.5953 18.5534 39.89 18.8481C40.1847 19.1254 40.332 19.5327 40.332 20.0701C40.332 20.5901 40.1847 20.9974 39.89 21.2921C39.5953 21.5694 39.162 21.7081 38.59 21.7081H32.376V26.6741H31.388C31.8213 26.1368 32.3933 25.7208 33.104 25.4261C33.8147 25.1314 34.5947 24.9841 35.444 24.9841C36.6053 24.9841 37.6193 25.2354 38.486 25.7381C39.3527 26.2234 40.0287 26.9081 40.514 27.7921C40.9993 28.6761 41.242 29.6988 41.242 30.8601C41.242 32.0734 40.9647 33.1481 40.41 34.0841C39.8553 35.0028 39.058 35.7221 38.018 36.2421C36.978 36.7621 35.7473 37.0221 34.326 37.0221Z" fill="white"/>
<path d="M14.7182 33.8501L14.0328 33.1219H14.0328L14.7182 33.8501ZM18.6182 33.4341V34.4341H19.6182V33.4341H18.6182ZM18.6182 21.7081V20.7081H17.6182V21.7081H18.6182ZM20.5162 21.7081L21.0367 22.5619L24.0778 20.7081H20.5162V21.7081ZM16.7202 24.0221L17.2401 24.8763L17.2407 24.8759L16.7202 24.0221ZM15.6022 24.3081L15.4462 25.2959L15.4538 25.297L15.6022 24.3081ZM14.7442 23.8661L15.4513 23.159L15.4513 23.159L14.7442 23.8661ZM14.2502 23.0081L13.2696 23.2042L13.2755 23.2336L13.2831 23.2626L14.2502 23.0081ZM14.3542 21.9941L15.2758 22.3821L15.2793 22.3738L15.2826 22.3655L14.3542 21.9941ZM15.1342 21.1101L14.6169 20.2542L14.607 20.2602L14.5973 20.2664L15.1342 21.1101ZM18.7482 18.9261L19.2654 19.782L19.2745 19.7763L18.7482 18.9261ZM19.8402 18.3801L19.4984 17.4403L19.4913 17.4429L19.4842 17.4456L19.8402 18.3801ZM22.1802 18.5881L21.4948 19.3163L21.5168 19.337L21.54 19.3563L22.1802 18.5881ZM22.6482 33.4341H21.6482V34.4341H22.6482V33.4341ZM26.2622 33.8501L26.9475 33.1219L26.9475 33.1219L26.2622 33.8501ZM26.2622 36.3201L26.9475 37.0483L26.9586 37.0379L26.9693 37.0272L26.2622 36.3201ZM15.9922 35.7361C15.6119 35.7361 15.4767 35.6384 15.4253 35.587L14.011 37.0012C14.5489 37.5391 15.263 37.7361 15.9922 37.7361V35.7361ZM15.4253 35.587C15.3621 35.5238 15.2762 35.3963 15.2762 35.0721H13.2762C13.2762 35.7878 13.4849 36.475 14.011 37.0012L15.4253 35.587ZM15.2762 35.0721C15.2762 34.716 15.3694 34.6104 15.4035 34.5783L14.0328 33.1219C13.4776 33.6444 13.2762 34.3535 13.2762 35.0721H15.2762ZM15.4035 34.5783C15.4531 34.5316 15.5965 34.4341 15.9922 34.4341V32.4341C15.2785 32.4341 14.5726 32.6139 14.0328 33.1219L15.4035 34.5783ZM15.9922 34.4341H18.6182V32.4341H15.9922V34.4341ZM19.6182 33.4341V21.7081H17.6182V33.4341H19.6182ZM18.6182 22.7081H20.5162V20.7081H18.6182V22.7081ZM19.9957 20.8542L16.1997 23.1682L17.2407 24.8759L21.0367 22.5619L19.9957 20.8542ZM16.2002 23.1679C15.9349 23.3294 15.7984 23.3263 15.7505 23.3191L15.4538 25.297C16.0992 25.3938 16.7081 25.2001 17.2401 24.8763L16.2002 23.1679ZM15.7581 23.3203C15.644 23.3023 15.5492 23.2569 15.4513 23.159L14.037 24.5732C14.4245 24.9606 14.9016 25.2099 15.4462 25.2958L15.7581 23.3203ZM15.4513 23.159C15.3328 23.0405 15.2585 22.9103 15.2172 22.7536L13.2831 23.2626C13.4152 23.7645 13.6702 24.2063 14.0371 24.5732L15.4513 23.159ZM15.2307 22.812C15.2011 22.6638 15.2139 22.5292 15.2758 22.3821L13.4325 21.606C13.2171 22.1177 13.1605 22.6591 13.2696 23.2042L15.2307 22.812ZM15.2826 22.3655C15.3283 22.2514 15.4285 22.1081 15.671 21.9537L14.5973 20.2664C14.0772 20.5974 13.6574 21.0434 13.4257 21.6227L15.2826 22.3655ZM15.6514 21.9659L19.2654 19.7819L18.2309 18.0702L14.6169 20.2542L15.6514 21.9659ZM19.2745 19.7763C19.5898 19.5812 19.897 19.4285 20.1962 19.3146L19.4842 17.4456C19.0553 17.609 18.6345 17.8203 18.2218 18.0758L19.2745 19.7763ZM20.1819 19.3199C20.4662 19.2165 20.7233 19.1721 20.9582 19.1721V17.1721C20.465 17.1721 19.9768 17.2663 19.4984 17.4403L20.1819 19.3199ZM20.9582 19.1721C21.2987 19.1721 21.434 19.2591 21.4948 19.3163L22.8655 17.8599C22.337 17.3624 21.6576 17.1721 20.9582 17.1721V19.1721ZM21.54 19.3563C21.5486 19.3635 21.6482 19.4377 21.6482 19.8101H23.6482C23.6482 19.0732 23.4357 18.3327 22.8203 17.8199L21.54 19.3563ZM21.6482 19.8101V33.4341H23.6482V19.8101H21.6482ZM22.6482 34.4341H25.0142V32.4341H22.6482V34.4341ZM25.0142 34.4341C25.3824 34.4341 25.5218 34.5265 25.5768 34.5783L26.9475 33.1219C26.4132 32.619 25.7206 32.4341 25.0142 32.4341V34.4341ZM25.5768 34.5783C25.6109 34.6104 25.7042 34.716 25.7042 35.0721H27.7042C27.7042 34.3535 27.5027 33.6444 26.9475 33.1219L25.5768 34.5783ZM25.7042 35.0721C25.7042 35.4244 25.6122 35.5558 25.555 35.613L26.9693 37.0272C27.5015 36.495 27.7042 35.7944 27.7042 35.0721H25.7042ZM25.5768 35.5919C25.5218 35.6437 25.3824 35.7361 25.0142 35.7361V37.7361C25.7206 37.7361 26.4132 37.5512 26.9475 37.0483L25.5768 35.5919ZM25.0142 35.7361H15.9922V37.7361H25.0142V35.7361ZM31.596 36.6841L31.8301 35.7119L31.596 36.6841ZM29.022 35.6701L29.5223 34.8042L29.5141 34.7995L29.022 35.6701ZM28.19 34.8381L27.2684 35.2261L27.2769 35.2464L27.2863 35.2662L28.19 34.8381ZM28.06 33.8241L27.0794 33.628L27.0747 33.6518L27.0711 33.6757L28.06 33.8241ZM28.476 32.9401L27.7203 32.2851L27.7167 32.2893L28.476 32.9401ZM29.308 32.4461L29.1119 31.4655L29.102 31.4675L29.308 32.4461ZM30.452 32.6801L29.9757 33.5594L29.9851 33.5645L29.9947 33.5694L30.452 32.6801ZM32.298 33.4081L32.0303 34.3716L32.0371 34.3734L32.298 33.4081ZM35.938 33.3301L35.5042 32.4291V32.4291L35.938 33.3301ZM36.562 28.9881L35.867 29.7071L35.8729 29.7128L35.8788 29.7184L36.562 28.9881ZM33.052 28.4681L33.3461 29.4239L33.3572 29.4204L33.3682 29.4168L33.052 28.4681ZM31.648 29.2221L31.048 28.4221L31.0355 28.4315L31.0233 28.4412L31.648 29.2221ZM28.892 29.4301L28.1849 30.1372L28.1971 30.1494L28.2097 30.1611L28.892 29.4301ZM28.944 18.8481L28.2574 18.1211L28.247 18.1309L28.2369 18.141L28.944 18.8481ZM39.89 18.8481L39.1829 19.5552L39.1936 19.5659L39.2046 19.5763L39.89 18.8481ZM39.89 21.2921L40.5754 22.0203L40.5864 22.0099L40.5971 21.9992L39.89 21.2921ZM32.376 21.7081V20.7081H31.376V21.7081H32.376ZM32.376 26.6741V27.6741H33.376V26.6741H32.376ZM31.388 26.6741L30.6096 26.0463L29.2969 27.6741H31.388V26.6741ZM33.104 25.4261L32.721 24.5023L33.104 25.4261ZM38.486 25.7381L37.9843 26.6031L37.9908 26.6069L37.9974 26.6106L38.486 25.7381ZM40.41 34.0841L41.2661 34.601L41.2703 34.5939L40.41 34.0841ZM38.018 36.2421L37.5708 35.3477L38.018 36.2421ZM34.326 36.0221C33.5275 36.0221 32.6961 35.9204 31.8301 35.7119L31.3619 37.6563C32.3679 37.8985 33.3565 38.0221 34.326 38.0221V36.0221ZM31.8301 35.7119C30.981 35.5075 30.2136 35.2036 29.5223 34.8042L28.5217 36.5359C29.3904 37.0379 30.339 37.41 31.3619 37.6563L31.8301 35.7119ZM29.5141 34.7995C29.2486 34.6495 29.1411 34.51 29.0937 34.41L27.2863 35.2662C27.5509 35.8249 27.9981 36.24 28.5299 36.5406L29.5141 34.7995ZM29.1116 34.45C29.0428 34.2865 29.0247 34.1338 29.0489 33.9724L27.0711 33.6757C26.9913 34.2077 27.0599 34.731 27.2684 35.2261L29.1116 34.45ZM29.0406 34.0202C29.08 33.8233 29.1503 33.69 29.2353 33.5909L27.7167 32.2893C27.3857 32.6755 27.1787 33.1315 27.0794 33.628L29.0406 34.0202ZM29.2317 33.595C29.3175 33.496 29.4034 33.4479 29.514 33.4246L29.102 31.4675C28.5539 31.5829 28.0852 31.8641 27.7203 32.2852L29.2317 33.595ZM29.5041 33.4267C29.5543 33.4166 29.6953 33.4075 29.9757 33.5594L30.9283 31.8008C30.3767 31.502 29.755 31.3369 29.1119 31.4655L29.5041 33.4267ZM29.9947 33.5694C30.6586 33.9109 31.3374 34.1791 32.0304 34.3716L32.5656 32.4446C32.0106 32.2904 31.4587 32.0733 30.9093 31.7908L29.9947 33.5694ZM32.0371 34.3734C32.7627 34.5696 33.5005 34.6681 34.248 34.6681V32.6681C33.6782 32.6681 33.1159 32.5933 32.5589 32.4427L32.0371 34.3734ZM34.248 34.6681C35.0178 34.6681 35.7372 34.5366 36.3718 34.2311L35.5042 32.4291C35.2028 32.5742 34.7955 32.6681 34.248 32.6681V34.6681ZM36.3718 34.2311C36.9935 33.9318 37.504 33.4959 37.8582 32.914L36.1498 31.8741C36.0187 32.0896 35.8185 32.2777 35.5042 32.4291L36.3718 34.2311ZM37.8582 32.914C38.2099 32.3362 38.368 31.6826 38.368 30.9901H36.368C36.368 31.3723 36.2834 31.6546 36.1498 31.8741L37.8582 32.914ZM38.368 30.9901C38.368 29.9212 38.012 28.9752 37.2452 28.2578L35.8788 29.7184C36.1867 30.0063 36.368 30.395 36.368 30.9901H38.368ZM37.257 28.2691C36.5073 27.5443 35.5235 27.2341 34.43 27.2341V29.2341C35.1392 29.2341 35.5767 29.4265 35.867 29.7071L37.257 28.2691ZM34.43 27.2341C33.8622 27.2341 33.2961 27.3326 32.7358 27.5194L33.3682 29.4168C33.7439 29.2916 34.0965 29.2341 34.43 29.2341V27.2341ZM32.7579 27.5123C32.1706 27.693 31.6004 28.0078 31.048 28.4221L32.248 30.0221C32.6662 29.7084 33.0321 29.5205 33.3461 29.4239L32.7579 27.5123ZM31.0233 28.4412C30.938 28.5094 30.7952 28.5979 30.5712 28.6959L31.3728 30.5282C31.7034 30.3836 32.0113 30.2121 32.2727 30.003L31.0233 28.4412ZM30.5712 28.6959C30.4242 28.7603 30.2664 28.7941 30.088 28.7941V30.7941C30.5336 30.7941 30.9652 30.7066 31.3728 30.5282L30.5712 28.6959ZM30.088 28.7941C29.891 28.7941 29.7594 28.7714 29.6772 28.7464C29.5988 28.7226 29.5752 28.6999 29.5743 28.699L28.2097 30.1611C28.7301 30.6469 29.4236 30.7941 30.088 30.7941V28.7941ZM29.5991 28.723C29.5808 28.7047 29.502 28.6202 29.502 28.3121H27.502C27.502 28.9747 27.6832 29.6355 28.1849 30.1372L29.5991 28.723ZM29.502 28.3121V20.1481H27.502V28.3121H29.502ZM29.502 20.1481C29.502 19.7403 29.605 19.6013 29.6511 19.5552L28.2369 18.141C27.6936 18.6842 27.502 19.4119 27.502 20.1481H29.502ZM29.6306 19.5751C29.7075 19.5025 29.8673 19.4061 30.244 19.4061V17.4061C29.5113 17.4061 28.8045 17.6044 28.2574 18.1211L29.6306 19.5751ZM30.244 19.4061H38.59V17.4061H30.244V19.4061ZM38.59 19.4061C38.9978 19.4061 39.1368 19.5091 39.1829 19.5552L40.5971 18.141C40.0539 17.5977 39.3262 17.4061 38.59 17.4061V19.4061ZM39.2046 19.5763C39.2388 19.6084 39.332 19.714 39.332 20.0701H41.332C41.332 19.3515 41.1306 18.6424 40.5754 18.1199L39.2046 19.5763ZM39.332 20.0701C39.332 20.3943 39.246 20.5218 39.1829 20.585L40.5971 21.9992C41.1233 21.473 41.332 20.7858 41.332 20.0701H39.332ZM39.2046 20.5639C39.1602 20.6057 39.0128 20.7081 38.59 20.7081V22.7081C39.3112 22.7081 40.0304 22.5331 40.5754 22.0203L39.2046 20.5639ZM38.59 20.7081H32.376V22.7081H38.59V20.7081ZM31.376 21.7081V26.6741H33.376V21.7081H31.376ZM32.376 25.6741H31.388V27.6741H32.376V25.6741ZM32.1664 27.3018C32.4832 26.9091 32.9128 26.5879 33.487 26.3498L32.721 24.5023C31.8739 24.8536 31.1595 25.3644 30.6096 26.0463L32.1664 27.3018ZM33.487 26.3498C34.0642 26.1105 34.7124 25.9841 35.444 25.9841V23.9841C34.4769 23.9841 33.5651 24.1523 32.721 24.5023L33.487 26.3498ZM35.444 25.9841C36.4575 25.9841 37.2928 26.2021 37.9843 26.6031L38.9877 24.8731C37.9458 24.2688 36.7532 23.9841 35.444 23.9841V25.9841ZM37.9974 26.6106C38.698 27.0029 39.2408 27.5509 39.6374 28.2733L41.3906 27.3108C40.8166 26.2653 40.0073 25.4439 38.9746 24.8656L37.9974 26.6106ZM39.6374 28.2733C40.0302 28.9888 40.242 29.8413 40.242 30.8601H42.242C42.242 29.5562 41.9684 28.3633 41.3906 27.3108L39.6374 28.2733ZM40.242 30.8601C40.242 31.9152 40.0027 32.8099 39.5497 33.5743L41.2703 34.5939C41.9266 33.4863 42.242 32.2316 42.242 30.8601H40.242ZM39.5539 33.5672C39.1052 34.3104 38.4562 34.9049 37.5708 35.3477L38.4652 37.1365C39.6598 36.5392 40.6054 35.6951 41.2661 34.601L39.5539 33.5672ZM37.5708 35.3477C36.6971 35.7845 35.6261 36.0221 34.326 36.0221V38.0221C35.8686 38.0221 37.2589 37.7397 38.4652 37.1365L37.5708 35.3477Z" fill="#8029AB" mask="url(#path-9-outside-1_26645_234806)"/>
<defs>
<radialGradient id="paint0_radial_26645_234806" cx="0" cy="0" r="1" gradientUnits="userSpaceOnUse" gradientTransform="translate(27.4975 27.6645) scale(23.0273 23.0272)">
<stop stop-color="#E2DAD7"/>
<stop offset="1" stop-color="#D5C5BE"/>
</radialGradient>
</defs>
</svg>
