<svg width="55" height="55" viewBox="0 0 55 55" fill="none" xmlns="http://www.w3.org/2000/svg">
<path d="M55 27.3684C55 28.5429 54.9268 29.6997 54.7839 30.8361C54.4532 33.4271 53.7572 35.9077 52.751 38.2186C52.751 38.2186 52.751 38.2222 52.7473 38.2253C48.5282 47.9392 38.8094 54.7362 27.4998 54.7362C14.6968 54.7362 3.94393 46.0304 0.877028 34.245V34.2414C0.302495 32.0452 0 29.7411 0 27.3684C0 24.9433 0.31659 22.5911 0.915232 20.3534C4.02399 8.63715 14.7486 0.000976575 27.4998 0.000976575C42.6878 0.00052168 55 12.2536 55 27.3684Z" fill="#CEB3AA"/>
<path d="M53.5469 26.046C53.5469 26.379 53.5415 26.7124 53.5283 27.0427C53.4992 27.8201 53.4382 28.587 53.3431 29.3458C53.0284 31.8127 52.3701 34.1713 51.418 36.3716C51.418 36.3716 51.418 36.3743 51.4126 36.3793C47.4172 45.6237 38.2124 52.0914 27.501 52.0914C15.3749 52.0914 5.19158 43.8069 2.28571 32.5901V32.5874C1.85447 30.9347 1.58516 29.2161 1.49237 27.4547C1.46826 26.9867 1.45508 26.5186 1.45508 26.0455C1.45508 23.7369 1.75394 21.5002 2.32256 19.369C5.26573 8.21818 15.4244 0 27.5005 0C41.8857 0.000454895 53.5469 11.6617 53.5469 26.046Z" fill="#E7E6E2"/>
<path d="M53.5465 26.046C53.5465 26.379 53.541 26.7124 53.5279 27.0427C52.5416 25.2022 50.8599 22.1799 48.0068 17.2724C41.6765 6.38589 27.501 5.15674 16.004 8.60212C4.50425 12.0502 1.98685 31.295 1.98685 31.295L1.49239 27.4557C1.46828 26.9876 1.45508 26.5195 1.45508 26.0464C1.45508 23.7379 1.75396 21.5011 2.32258 19.3699C5.26575 8.2191 15.4245 0.000976576 27.5006 0.000976576C41.8853 0.000521681 53.5465 11.6618 53.5465 26.046Z" fill="white"/>
<path d="M50.3702 26.9286C50.3702 27.9234 50.3092 28.9033 50.1905 29.8658C49.9157 32.0607 49.3366 34.1614 48.4996 36.1188C48.4996 36.1188 48.4996 36.122 48.4969 36.1247C44.9879 44.3524 36.9044 50.1095 27.4976 50.1095C16.8489 50.1095 7.90571 42.7357 5.35465 32.753V32.7503C4.87701 30.8898 4.625 28.9387 4.625 26.9286C4.625 24.8747 4.88839 22.8823 5.3865 20.9867C7.97212 11.0627 16.8922 3.74756 27.4976 3.74756C40.1296 3.74756 50.3702 14.126 50.3702 26.9286Z" fill="url(#paint0_radial_26645_234585)"/>
<path d="M49.8029 26.0455C49.8029 27.0026 49.7437 27.9451 49.6277 28.8708C49.3598 30.982 48.7953 33.0031 47.9792 34.8859C47.9792 34.8859 47.9792 34.8886 47.9765 34.8913C44.5552 42.806 36.6742 48.3444 27.503 48.3444C17.1209 48.3444 8.4015 41.2508 5.91459 31.648V31.6452C5.44878 29.8556 5.20312 27.9783 5.20312 26.045C5.20312 24.069 5.46015 22.1525 5.94552 20.3288C8.4661 10.7824 17.1632 3.74512 27.5025 3.74512C39.8188 3.74603 49.8029 13.7301 49.8029 26.0455Z" fill="#8029AB"/>
<path d="M48.3903 26.0465C48.3903 26.9431 48.3348 27.826 48.226 28.6935C47.9749 30.6714 47.4459 32.5646 46.6821 34.3283C46.6821 34.3283 46.6821 34.331 46.6794 34.3338C43.4747 41.7481 36.0922 46.9362 27.5006 46.9362C17.7749 46.9362 9.60725 40.291 7.27773 31.2955V31.2928C6.84149 29.6165 6.61133 27.8579 6.61133 26.0465C6.61133 24.1955 6.85196 22.4 7.30686 20.6919C9.66822 11.7491 17.8149 5.15723 27.5006 5.15723C39.0376 5.15723 48.3903 14.5099 48.3903 26.0465Z" fill="#C349E1"/>
<path d="M48.392 26.046C48.392 26.9426 48.3365 27.8256 48.2278 28.6931C45.6126 14.2742 36.5406 9.23673 22.7427 10.4454C15.413 11.0877 10.4155 16.0615 7.30859 20.6919C9.66995 11.7491 17.8167 5.15723 27.5023 5.15723C39.0394 5.15677 48.392 14.5094 48.392 26.046Z" fill="#D468E5"/>
<path opacity="0.43" d="M46.679 34.3342C43.4743 41.7485 36.0918 46.9366 27.5002 46.9366C17.7745 46.9366 9.60686 40.2915 7.27734 31.2959C10.2414 35.6693 17.1695 43.8005 27.5002 43.4116C41.3827 42.8907 46.5202 34.593 46.679 34.3342Z" fill="#D468E5"/>
<mask id="path-9-outside-1_26645_234585" maskUnits="userSpaceOnUse" x="19" y="16" width="16" height="21" fill="black">
<rect fill="white" x="19" y="16" width="16" height="21"/>
<path d="M22.7931 36C22.1517 36 21.6751 35.8527 21.3631 35.558C21.0684 35.246 20.9211 34.7953 20.9211 34.206C20.9211 33.8247 21.0164 33.4693 21.2071 33.14C21.3977 32.8107 21.6577 32.4727 21.9871 32.126L26.8751 26.978C27.6031 26.198 28.1231 25.5047 28.4351 24.898C28.7644 24.2913 28.9291 23.6847 28.9291 23.078C28.9291 22.3153 28.6777 21.7347 28.1751 21.336C27.6897 20.9373 26.9791 20.738 26.0431 20.738C25.5404 20.738 25.0204 20.816 24.4831 20.972C23.9631 21.1107 23.4171 21.3447 22.8451 21.674C22.4637 21.882 22.1084 21.96 21.7791 21.908C21.4671 21.8387 21.1984 21.6913 20.9731 21.466C20.7477 21.2233 20.6004 20.9373 20.5311 20.608C20.4617 20.2787 20.4964 19.9493 20.6351 19.62C20.7737 19.2907 21.0337 19.0133 21.4151 18.788C22.1777 18.32 23.0097 17.9733 23.9111 17.748C24.8124 17.5053 25.7051 17.384 26.5891 17.384C27.9584 17.384 29.1111 17.592 30.0471 18.008C30.9831 18.4067 31.6937 18.996 32.1791 19.776C32.6644 20.556 32.9071 21.5093 32.9071 22.636C32.9071 23.364 32.7944 24.0747 32.5691 24.768C32.3437 25.4613 31.9884 26.1633 31.5031 26.874C31.0351 27.5673 30.4111 28.3127 29.6311 29.11L25.0811 33.738V32.698H32.1271C32.6817 32.698 33.0977 32.8367 33.3751 33.114C33.6697 33.3913 33.8171 33.7987 33.8171 34.336C33.8171 34.8733 33.6697 35.2893 33.3751 35.584C33.0977 35.8613 32.6817 36 32.1271 36H22.7931Z"/>
</mask>
<path d="M22.7931 36C22.1517 36 21.6751 35.8527 21.3631 35.558C21.0684 35.246 20.9211 34.7953 20.9211 34.206C20.9211 33.8247 21.0164 33.4693 21.2071 33.14C21.3977 32.8107 21.6577 32.4727 21.9871 32.126L26.8751 26.978C27.6031 26.198 28.1231 25.5047 28.4351 24.898C28.7644 24.2913 28.9291 23.6847 28.9291 23.078C28.9291 22.3153 28.6777 21.7347 28.1751 21.336C27.6897 20.9373 26.9791 20.738 26.0431 20.738C25.5404 20.738 25.0204 20.816 24.4831 20.972C23.9631 21.1107 23.4171 21.3447 22.8451 21.674C22.4637 21.882 22.1084 21.96 21.7791 21.908C21.4671 21.8387 21.1984 21.6913 20.9731 21.466C20.7477 21.2233 20.6004 20.9373 20.5311 20.608C20.4617 20.2787 20.4964 19.9493 20.6351 19.62C20.7737 19.2907 21.0337 19.0133 21.4151 18.788C22.1777 18.32 23.0097 17.9733 23.9111 17.748C24.8124 17.5053 25.7051 17.384 26.5891 17.384C27.9584 17.384 29.1111 17.592 30.0471 18.008C30.9831 18.4067 31.6937 18.996 32.1791 19.776C32.6644 20.556 32.9071 21.5093 32.9071 22.636C32.9071 23.364 32.7944 24.0747 32.5691 24.768C32.3437 25.4613 31.9884 26.1633 31.5031 26.874C31.0351 27.5673 30.4111 28.3127 29.6311 29.11L25.0811 33.738V32.698H32.1271C32.6817 32.698 33.0977 32.8367 33.3751 33.114C33.6697 33.3913 33.8171 33.7987 33.8171 34.336C33.8171 34.8733 33.6697 35.2893 33.3751 35.584C33.0977 35.8613 32.6817 36 32.1271 36H22.7931Z" fill="white"/>
<path d="M21.3631 35.558L20.6361 36.2446L20.6557 36.2654L20.6765 36.285L21.3631 35.558ZM21.2071 33.14L22.0725 33.641L21.2071 33.14ZM21.9871 32.126L22.7121 32.8147L22.7123 32.8146L21.9871 32.126ZM26.8751 26.978L27.6003 27.6666L27.6061 27.6603L26.8751 26.978ZM28.4351 24.898L27.5562 24.4209L27.5509 24.4307L27.5458 24.4407L28.4351 24.898ZM28.1751 21.336L27.5403 22.1087L27.547 22.1142L27.5537 22.1195L28.1751 21.336ZM24.4831 20.972L24.7407 21.9382L24.7513 21.9354L24.7619 21.9323L24.4831 20.972ZM22.8451 21.674L23.3239 22.5519L23.3341 22.5464L23.344 22.5406L22.8451 21.674ZM21.7791 21.908L21.5622 22.8842L21.5925 22.8909L21.6231 22.8958L21.7791 21.908ZM20.9731 21.466L20.2403 22.1465L20.2529 22.16L20.266 22.1731L20.9731 21.466ZM20.6351 19.62L19.7134 19.2319V19.2319L20.6351 19.62ZM21.4151 18.788L21.9238 19.6489L21.931 19.6447L21.9381 19.6403L21.4151 18.788ZM23.9111 17.748L24.1536 18.7181L24.1624 18.716L24.1711 18.7136L23.9111 17.748ZM30.0471 18.008L29.6409 18.9218L29.6481 18.925L29.6552 18.928L30.0471 18.008ZM32.1791 19.776L31.33 20.3043L31.33 20.3043L32.1791 19.776ZM32.5691 24.768L31.618 24.4589V24.4589L32.5691 24.768ZM31.5031 26.874L30.6773 26.31L30.6742 26.3145L31.5031 26.874ZM29.6311 29.11L30.3442 29.8111L30.3459 29.8093L29.6311 29.11ZM25.0811 33.738H24.0811V36.1815L25.7942 34.4391L25.0811 33.738ZM25.0811 32.698V31.698H24.0811V32.698H25.0811ZM33.3751 33.114L32.668 33.8211L32.6787 33.8318L32.6897 33.8422L33.3751 33.114ZM33.3751 35.584L32.668 34.8769L32.668 34.8769L33.3751 35.584ZM22.7931 35C22.2832 35 22.1022 34.8806 22.0497 34.831L20.6765 36.285C21.2479 36.8247 22.0203 37 22.7931 37V35ZM22.0901 34.8714C22.0274 34.805 21.9211 34.6366 21.9211 34.206H19.9211C19.9211 34.9541 20.1094 35.687 20.6361 36.2446L22.0901 34.8714ZM21.9211 34.206C21.9211 34.0002 21.9702 33.8178 22.0725 33.641L20.3417 32.639C20.0626 33.1209 19.9211 33.6491 19.9211 34.206H21.9211ZM22.0725 33.641C22.2154 33.3943 22.4236 33.1184 22.7121 32.8147L21.2621 31.4373C20.8918 31.827 20.5801 32.2271 20.3417 32.639L22.0725 33.641ZM22.7123 32.8146L27.6003 27.6666L26.1499 26.2894L21.2619 31.4374L22.7123 32.8146ZM27.6061 27.6603C28.3659 26.8463 28.9535 26.0765 29.3244 25.3553L27.5458 24.4407C27.2926 24.9329 26.8403 25.5497 26.144 26.2957L27.6061 27.6603ZM29.3139 25.3751C29.7117 24.6424 29.9291 23.8731 29.9291 23.078H27.9291C27.9291 23.4962 27.8171 23.9403 27.5562 24.4209L29.3139 25.3751ZM29.9291 23.078C29.9291 22.0744 29.5845 21.1775 28.7965 20.5525L27.5537 22.1195C27.771 22.2918 27.9291 22.5563 27.9291 23.078H29.9291ZM28.8098 20.5633C28.0762 19.9607 27.1012 19.738 26.0431 19.738V21.738C26.8569 21.738 27.3033 21.914 27.5403 22.1087L28.8098 20.5633ZM26.0431 19.738C25.4361 19.738 24.8221 19.8323 24.2043 20.0117L24.7619 21.9323C25.2187 21.7997 25.6447 21.738 26.0431 21.738V19.738ZM24.2254 20.0058C23.6045 20.1714 22.9775 20.4439 22.3461 20.8074L23.344 22.5406C23.8567 22.2455 24.3217 22.05 24.7407 21.9382L24.2254 20.0058ZM22.3662 20.7961C22.1197 20.9306 21.9883 20.9287 21.935 20.9202L21.6231 22.8958C22.2285 22.9913 22.8078 22.8334 23.3239 22.5519L22.3662 20.7961ZM21.996 20.9318C21.8691 20.9036 21.7706 20.8493 21.6802 20.7589L20.266 22.1731C20.6262 22.5333 21.0651 22.7737 21.5622 22.8842L21.996 20.9318ZM21.7059 20.7855C21.6061 20.6781 21.5422 20.5569 21.5096 20.402L19.5525 20.814C19.6586 21.3178 19.8894 21.7686 20.2403 22.1465L21.7059 20.7855ZM21.5096 20.402C21.4849 20.2845 21.4919 20.162 21.5567 20.0081L19.7134 19.2319C19.5009 19.7367 19.4386 20.2729 19.5525 20.814L21.5096 20.402ZM21.5567 20.0081C21.5938 19.9199 21.6823 19.7916 21.9238 19.6489L20.9063 17.9271C20.3852 18.235 19.9536 18.6615 19.7134 19.2319L21.5567 20.0081ZM21.9381 19.6403C22.6105 19.2277 23.3474 18.9197 24.1536 18.7181L23.6685 16.7779C22.6721 17.027 21.745 17.4123 20.8921 17.9357L21.9381 19.6403ZM24.1711 18.7136C24.9923 18.4925 25.7976 18.384 26.5891 18.384V16.384C25.6125 16.384 24.6325 16.5182 23.6511 16.7824L24.1711 18.7136ZM26.5891 18.384C27.8632 18.384 28.8681 18.5783 29.6409 18.9218L30.4532 17.0942C29.354 16.6057 28.0536 16.384 26.5891 16.384V18.384ZM29.6552 18.928C30.4234 19.2552 30.9648 19.7174 31.33 20.3043L33.0281 19.2477C32.4227 18.2746 31.5427 17.5581 30.4389 17.088L29.6552 18.928ZM31.33 20.3043C31.6965 20.8933 31.9071 21.6538 31.9071 22.636H33.9071C33.9071 21.3649 33.6323 20.2187 33.0281 19.2477L31.33 20.3043ZM31.9071 22.636C31.9071 23.2589 31.811 23.8653 31.618 24.4589L33.5201 25.0771C33.7778 24.2841 33.9071 23.4691 33.9071 22.636H31.9071ZM31.618 24.4589C31.4269 25.0472 31.1183 25.6642 30.6773 26.31L32.3289 27.438C32.8585 26.6625 33.2606 25.8755 33.5201 25.0771L31.618 24.4589ZM30.6742 26.3145C30.2489 26.9446 29.6671 27.6432 28.9162 28.4107L30.3459 29.8093C31.1551 28.9822 31.8212 28.1901 32.3319 27.4335L30.6742 26.3145ZM28.918 28.4089L24.368 33.0369L25.7942 34.4391L30.3442 29.8111L28.918 28.4089ZM26.0811 33.738V32.698H24.0811V33.738H26.0811ZM25.0811 33.698H32.1271V31.698H25.0811V33.698ZM32.1271 33.698C32.5276 33.698 32.6443 33.7975 32.668 33.8211L34.0822 32.4069C33.5512 31.8759 32.8359 31.698 32.1271 31.698V33.698ZM32.6897 33.8422C32.7239 33.8743 32.8171 33.98 32.8171 34.336H34.8171C34.8171 33.6174 34.6156 32.9083 34.0604 32.3858L32.6897 33.8422ZM32.8171 34.336C32.8171 34.6884 32.7251 34.8198 32.668 34.8769L34.0822 36.2911C34.6144 35.7589 34.8171 35.0583 34.8171 34.336H32.8171ZM32.668 34.8769C32.6443 34.9005 32.5276 35 32.1271 35V37C32.8359 37 33.5512 36.8221 34.0822 36.2911L32.668 34.8769ZM32.1271 35H22.7931V37H32.1271V35Z" fill="#8029AB" mask="url(#path-9-outside-1_26645_234585)"/>
<defs>
<radialGradient id="paint0_radial_26645_234585" cx="0" cy="0" r="1" gradientUnits="userSpaceOnUse" gradientTransform="translate(27.4975 26.9285) scale(23.0273 23.0272)">
<stop stop-color="#E2DAD7"/>
<stop offset="1" stop-color="#D5C5BE"/>
</radialGradient>
</defs>
</svg>
