<svg width="55" height="55" viewBox="0 0 55 55" fill="none" xmlns="http://www.w3.org/2000/svg">
<path d="M55 27.3684C55 28.5429 54.9268 29.6997 54.7839 30.8361C54.4532 33.4271 53.7572 35.9077 52.751 38.2186C52.751 38.2186 52.751 38.2222 52.7473 38.2253C48.5282 47.9392 38.8094 54.7362 27.4998 54.7362C14.6968 54.7362 3.94393 46.0304 0.877028 34.245V34.2414C0.302495 32.0452 0 29.7411 0 27.3684C0 24.9433 0.31659 22.5911 0.915232 20.3534C4.02399 8.63715 14.7486 0.000976575 27.4998 0.000976575C42.6878 0.00052168 55 12.2536 55 27.3684Z" fill="#CEB3AA"/>
<path d="M53.5469 26.046C53.5469 26.379 53.5415 26.7124 53.5283 27.0427C53.4992 27.8201 53.4382 28.587 53.3431 29.3458C53.0284 31.8127 52.3701 34.1713 51.418 36.3716C51.418 36.3716 51.418 36.3743 51.4126 36.3793C47.4172 45.6237 38.2124 52.0914 27.501 52.0914C15.3749 52.0914 5.19158 43.8069 2.28571 32.5901V32.5874C1.85447 30.9347 1.58516 29.2161 1.49237 27.4547C1.46826 26.9867 1.45508 26.5186 1.45508 26.0455C1.45508 23.7369 1.75394 21.5002 2.32256 19.369C5.26573 8.21818 15.4244 0 27.5005 0C41.8857 0.000454895 53.5469 11.6617 53.5469 26.046Z" fill="#E7E6E2"/>
<path d="M53.5465 26.046C53.5465 26.379 53.541 26.7124 53.5279 27.0427C52.5416 25.2022 50.8599 22.1799 48.0068 17.2724C41.6765 6.38589 27.501 5.15674 16.004 8.60212C4.50425 12.0502 1.98685 31.295 1.98685 31.295L1.49239 27.4557C1.46828 26.9876 1.45508 26.5195 1.45508 26.0464C1.45508 23.7379 1.75396 21.5011 2.32258 19.3699C5.26575 8.2191 15.4245 0.000976576 27.5006 0.000976576C41.8853 0.000521681 53.5465 11.6618 53.5465 26.046Z" fill="white"/>
<path d="M50.3702 26.9286C50.3702 27.9234 50.3092 28.9033 50.1905 29.8658C49.9157 32.0607 49.3366 34.1614 48.4996 36.1188C48.4996 36.1188 48.4996 36.122 48.4969 36.1247C44.9879 44.3524 36.9044 50.1095 27.4976 50.1095C16.8489 50.1095 7.90571 42.7357 5.35465 32.753V32.7503C4.87701 30.8898 4.625 28.9387 4.625 26.9286C4.625 24.8747 4.88839 22.8823 5.3865 20.9867C7.97212 11.0627 16.8922 3.74756 27.4976 3.74756C40.1296 3.74756 50.3702 14.126 50.3702 26.9286Z" fill="url(#paint0_radial_26645_234653)"/>
<path d="M49.8029 26.0455C49.8029 27.0026 49.7437 27.9451 49.6277 28.8708C49.3598 30.982 48.7953 33.0031 47.9792 34.8859C47.9792 34.8859 47.9792 34.8886 47.9765 34.8913C44.5552 42.806 36.6742 48.3444 27.503 48.3444C17.1209 48.3444 8.4015 41.2508 5.91459 31.648V31.6452C5.44878 29.8556 5.20312 27.9783 5.20312 26.045C5.20312 24.069 5.46015 22.1525 5.94552 20.3288C8.4661 10.7824 17.1632 3.74512 27.5025 3.74512C39.8188 3.74603 49.8029 13.7301 49.8029 26.0455Z" fill="#8029AB"/>
<path d="M48.3903 26.0465C48.3903 26.9431 48.3348 27.826 48.226 28.6935C47.9749 30.6714 47.4459 32.5646 46.6821 34.3283C46.6821 34.3283 46.6821 34.331 46.6794 34.3338C43.4747 41.7481 36.0922 46.9362 27.5006 46.9362C17.7749 46.9362 9.60725 40.291 7.27773 31.2955V31.2928C6.84149 29.6165 6.61133 27.8579 6.61133 26.0465C6.61133 24.1955 6.85196 22.4 7.30686 20.6919C9.66822 11.7491 17.8149 5.15723 27.5006 5.15723C39.0376 5.15723 48.3903 14.5099 48.3903 26.0465Z" fill="#C349E1"/>
<path d="M48.392 26.046C48.392 26.9426 48.3365 27.8256 48.2278 28.6931C45.6126 14.2742 36.5406 9.23673 22.7427 10.4454C15.413 11.0877 10.4155 16.0615 7.30859 20.6919C9.66995 11.7491 17.8167 5.15723 27.5023 5.15723C39.0394 5.15677 48.392 14.5094 48.392 26.046Z" fill="#D468E5"/>
<path opacity="0.43" d="M46.679 34.3342C43.4743 41.7485 36.0918 46.9366 27.5002 46.9366C17.7745 46.9366 9.60686 40.2915 7.27734 31.2959C10.2414 35.6693 17.1695 43.8005 27.5002 43.4116C41.3827 42.8907 46.5202 34.593 46.679 34.3342Z" fill="#D468E5"/>
<mask id="path-9-outside-1_26645_234653" maskUnits="userSpaceOnUse" x="19" y="16" width="16" height="22" fill="black">
<rect fill="white" x="19" y="16" width="16" height="22"/>
<path d="M27.7071 36.286C26.1471 36.286 24.8211 35.922 23.7291 35.194C22.6371 34.466 21.8051 33.4173 21.2331 32.048C20.6611 30.6787 20.3751 29.0233 20.3751 27.082C20.3751 25.5393 20.5571 24.17 20.9211 22.974C21.3024 21.778 21.8397 20.764 22.5331 19.932C23.2264 19.1 24.0757 18.4673 25.0811 18.034C26.1037 17.6007 27.2477 17.384 28.5131 17.384C29.2584 17.384 30.0124 17.488 30.7751 17.696C31.5377 17.904 32.2484 18.216 32.9071 18.632C33.2537 18.8053 33.4877 19.0567 33.6091 19.386C33.7477 19.698 33.7911 20.0187 33.7391 20.348C33.6871 20.6773 33.5571 20.972 33.3491 21.232C33.1411 21.4747 32.8724 21.6393 32.5431 21.726C32.2311 21.7953 31.8671 21.7347 31.4511 21.544C30.9137 21.2493 30.3937 21.0413 29.8911 20.92C29.4057 20.7987 28.9291 20.738 28.4611 20.738C27.5424 20.738 26.7624 20.946 26.1211 21.362C25.4797 21.778 24.9944 22.402 24.6651 23.234C24.3531 24.066 24.1971 25.0973 24.1971 26.328V28.018H23.8331C23.9891 27.186 24.2751 26.484 24.6911 25.912C25.1244 25.3227 25.6704 24.872 26.3291 24.56C26.9877 24.248 27.7157 24.092 28.5131 24.092C29.5531 24.092 30.4717 24.352 31.2691 24.872C32.0837 25.3747 32.7251 26.0767 33.1931 26.978C33.6611 27.862 33.8951 28.876 33.8951 30.02C33.8951 31.2333 33.6351 32.3167 33.1151 33.27C32.5951 34.206 31.8671 34.9427 30.9311 35.48C30.0124 36.0173 28.9377 36.286 27.7071 36.286ZM27.4991 33.14C28.0364 33.14 28.5044 33.0187 28.9031 32.776C29.3191 32.5333 29.6311 32.1867 29.8391 31.736C30.0644 31.2853 30.1771 30.7653 30.1771 30.176C30.1771 29.5867 30.0644 29.0753 29.8391 28.642C29.6311 28.1913 29.3191 27.8447 28.9031 27.602C28.5044 27.342 28.0364 27.212 27.4991 27.212C26.9617 27.212 26.4851 27.342 26.0691 27.602C25.6704 27.8447 25.3584 28.1913 25.1331 28.642C24.9077 29.0753 24.7951 29.5867 24.7951 30.176C24.7951 30.7653 24.9077 31.2853 25.1331 31.736C25.3584 32.1867 25.6704 32.5333 26.0691 32.776C26.4851 33.0187 26.9617 33.14 27.4991 33.14Z"/>
</mask>
<path d="M27.7071 36.286C26.1471 36.286 24.8211 35.922 23.7291 35.194C22.6371 34.466 21.8051 33.4173 21.2331 32.048C20.6611 30.6787 20.3751 29.0233 20.3751 27.082C20.3751 25.5393 20.5571 24.17 20.9211 22.974C21.3024 21.778 21.8397 20.764 22.5331 19.932C23.2264 19.1 24.0757 18.4673 25.0811 18.034C26.1037 17.6007 27.2477 17.384 28.5131 17.384C29.2584 17.384 30.0124 17.488 30.7751 17.696C31.5377 17.904 32.2484 18.216 32.9071 18.632C33.2537 18.8053 33.4877 19.0567 33.6091 19.386C33.7477 19.698 33.7911 20.0187 33.7391 20.348C33.6871 20.6773 33.5571 20.972 33.3491 21.232C33.1411 21.4747 32.8724 21.6393 32.5431 21.726C32.2311 21.7953 31.8671 21.7347 31.4511 21.544C30.9137 21.2493 30.3937 21.0413 29.8911 20.92C29.4057 20.7987 28.9291 20.738 28.4611 20.738C27.5424 20.738 26.7624 20.946 26.1211 21.362C25.4797 21.778 24.9944 22.402 24.6651 23.234C24.3531 24.066 24.1971 25.0973 24.1971 26.328V28.018H23.8331C23.9891 27.186 24.2751 26.484 24.6911 25.912C25.1244 25.3227 25.6704 24.872 26.3291 24.56C26.9877 24.248 27.7157 24.092 28.5131 24.092C29.5531 24.092 30.4717 24.352 31.2691 24.872C32.0837 25.3747 32.7251 26.0767 33.1931 26.978C33.6611 27.862 33.8951 28.876 33.8951 30.02C33.8951 31.2333 33.6351 32.3167 33.1151 33.27C32.5951 34.206 31.8671 34.9427 30.9311 35.48C30.0124 36.0173 28.9377 36.286 27.7071 36.286ZM27.4991 33.14C28.0364 33.14 28.5044 33.0187 28.9031 32.776C29.3191 32.5333 29.6311 32.1867 29.8391 31.736C30.0644 31.2853 30.1771 30.7653 30.1771 30.176C30.1771 29.5867 30.0644 29.0753 29.8391 28.642C29.6311 28.1913 29.3191 27.8447 28.9031 27.602C28.5044 27.342 28.0364 27.212 27.4991 27.212C26.9617 27.212 26.4851 27.342 26.0691 27.602C25.6704 27.8447 25.3584 28.1913 25.1331 28.642C24.9077 29.0753 24.7951 29.5867 24.7951 30.176C24.7951 30.7653 24.9077 31.2853 25.1331 31.736C25.3584 32.1867 25.6704 32.5333 26.0691 32.776C26.4851 33.0187 26.9617 33.14 27.4991 33.14Z" fill="white"/>
<path d="M23.7291 35.194L23.1744 36.0261L23.7291 35.194ZM21.2331 32.048L20.3103 32.4334L21.2331 32.048ZM20.9211 22.974L19.9683 22.6702L19.9644 22.6828L20.9211 22.974ZM22.5331 19.932L21.7649 19.2918L22.5331 19.932ZM25.0811 18.034L24.6909 17.1132L24.6852 17.1157L25.0811 18.034ZM30.7751 17.696L31.0382 16.7312L31.0382 16.7312L30.7751 17.696ZM32.9071 18.632L32.3731 19.4775L32.4153 19.5041L32.4599 19.5264L32.9071 18.632ZM33.6091 19.386L32.6707 19.7317L32.682 19.7623L32.6953 19.7921L33.6091 19.386ZM33.7391 20.348L32.7513 20.192V20.192L33.7391 20.348ZM33.3491 21.232L34.1083 21.8828L34.1194 21.8699L34.1299 21.8567L33.3491 21.232ZM32.5431 21.726L32.76 22.7022L32.7789 22.698L32.7976 22.6931L32.5431 21.726ZM31.4511 21.544L30.9702 22.4208L31.0018 22.4381L31.0344 22.4531L31.4511 21.544ZM29.8911 20.92L29.6485 21.8902L29.6564 21.8921L29.8911 20.92ZM26.1211 21.362L25.5769 20.523L26.1211 21.362ZM24.6651 23.234L23.7353 22.866L23.7319 22.8744L23.7287 22.8829L24.6651 23.234ZM24.1971 28.018V29.018H25.1971V28.018H24.1971ZM23.8331 28.018L22.8502 27.8337L22.6282 29.018H23.8331V28.018ZM24.6911 25.912L23.8854 25.3196L23.8823 25.3238L24.6911 25.912ZM26.3291 24.56L26.7572 25.4637V25.4637L26.3291 24.56ZM31.2691 24.872L30.7228 25.7096L30.7333 25.7165L30.744 25.723L31.2691 24.872ZM33.1931 26.978L32.3056 27.4388L32.3093 27.4459L33.1931 26.978ZM33.1151 33.27L33.9893 33.7557L33.993 33.7489L33.1151 33.27ZM30.9311 35.48L30.4332 34.6127L30.4262 34.6168L30.9311 35.48ZM28.9031 32.776L28.3992 31.9122L28.3911 31.9169L28.3831 31.9218L28.9031 32.776ZM29.8391 31.736L28.9447 31.2888L28.9377 31.3028L28.9311 31.3169L29.8391 31.736ZM29.8391 28.642L28.9311 29.0611L28.941 29.0824L28.9519 29.1034L29.8391 28.642ZM28.9031 27.602L28.3568 28.4396L28.3777 28.4532L28.3992 28.4658L28.9031 27.602ZM26.0691 27.602L26.5891 28.4563L26.5991 28.45L26.0691 27.602ZM25.1331 28.642L26.0203 29.1034L26.024 29.0963L26.0275 29.0892L25.1331 28.642ZM25.1331 31.736L26.0275 31.2888L25.1331 31.736ZM26.0691 32.776L25.5491 33.6302L25.5571 33.6351L25.5652 33.6398L26.0691 32.776ZM27.7071 35.286C26.3066 35.286 25.1826 34.9611 24.2838 34.3619L23.1744 36.0261C24.4596 36.8829 25.9876 37.286 27.7071 37.286V35.286ZM24.2838 34.3619C23.3766 33.7572 22.6621 32.8746 22.1558 31.6626L20.3103 32.4334C20.9481 33.9601 21.8975 35.1748 23.1744 36.0261L24.2838 34.3619ZM22.1558 31.6626C21.6479 30.4467 21.3751 28.9298 21.3751 27.082H19.3751C19.3751 29.1168 19.6743 30.9107 20.3103 32.4334L22.1558 31.6626ZM21.3751 27.082C21.3751 25.6159 21.5483 24.3477 21.8778 23.2652L19.9644 22.6828C19.5659 23.9923 19.3751 25.4628 19.3751 27.082H21.3751ZM21.8738 23.2778C22.2221 22.1854 22.7027 21.2905 23.3013 20.5722L21.7649 19.2918C20.9768 20.2375 20.3827 21.3706 19.9683 22.6702L21.8738 23.2778ZM23.3013 20.5722C23.8929 19.8622 24.6142 19.3242 25.4769 18.9523L24.6852 17.1157C23.5373 17.6105 22.5599 18.3378 21.7649 19.2918L23.3013 20.5722ZM25.4712 18.9548C26.3544 18.5805 27.3632 18.384 28.5131 18.384V16.384C27.1323 16.384 25.853 16.6208 24.6909 17.1132L25.4712 18.9548ZM28.5131 18.384C29.1643 18.384 29.8299 18.4747 30.512 18.6608L31.0382 16.7312C30.195 16.5013 29.3525 16.384 28.5131 16.384V18.384ZM30.512 18.6608C31.1803 18.8431 31.7995 19.1152 32.3731 19.4775L33.4411 17.7865C32.6973 17.3168 31.8951 16.9649 31.0382 16.7312L30.512 18.6608ZM32.4599 19.5264C32.6048 19.5989 32.6468 19.6669 32.6707 19.7317L34.5474 19.0403C34.3286 18.4465 33.9027 18.0118 33.3543 17.7376L32.4599 19.5264ZM32.6953 19.7921C32.7576 19.9323 32.7725 20.0581 32.7513 20.192L34.7268 20.504C34.8097 19.9793 34.7379 19.4637 34.5229 18.9799L32.6953 19.7921ZM32.7513 20.192C32.7264 20.3501 32.6676 20.4831 32.5682 20.6073L34.1299 21.8567C34.4466 21.4609 34.6478 21.0046 34.7268 20.504L32.7513 20.192ZM32.5898 20.5812C32.5229 20.6593 32.435 20.7204 32.2886 20.7589L32.7976 22.6931C33.3098 22.5583 33.7593 22.29 34.1083 21.8828L32.5898 20.5812ZM32.3261 20.7498C32.3015 20.7553 32.1684 20.7728 31.8677 20.6349L31.0344 22.4531C31.5657 22.6966 32.1606 22.8354 32.76 22.7022L32.3261 20.7498ZM31.9319 20.6672C31.331 20.3376 30.7284 20.0934 30.1257 19.9479L29.6564 21.8921C30.0591 21.9893 30.4965 22.161 30.9702 22.4208L31.9319 20.6672ZM30.1336 19.9499C29.5744 19.8101 29.0163 19.738 28.4611 19.738V21.738C28.8419 21.738 29.2371 21.7873 29.6485 21.8901L30.1336 19.9499ZM28.4611 19.738C27.3887 19.738 26.4104 19.9824 25.5769 20.523L26.6653 22.201C27.1144 21.9096 27.6961 21.738 28.4611 21.738V19.738ZM25.5769 20.523C24.7329 21.0705 24.1277 21.8747 23.7353 22.866L25.5949 23.602C25.8612 22.9293 26.2266 22.4855 26.6653 22.201L25.5769 20.523ZM23.7287 22.8829C23.3618 23.8613 23.1971 25.0203 23.1971 26.328H25.1971C25.1971 25.1744 25.3443 24.2707 25.6014 23.5851L23.7287 22.8829ZM23.1971 26.328V28.018H25.1971V26.328H23.1971ZM24.1971 27.018H23.8331V29.018H24.1971V27.018ZM24.816 28.2023C24.9499 27.4878 25.1866 26.9308 25.4998 26.5002L23.8823 25.3238C23.3635 26.0372 23.0282 26.8842 22.8502 27.8337L24.816 28.2023ZM25.4967 26.5044C25.8323 26.048 26.2488 25.7046 26.7572 25.4637L25.901 23.6563C25.0921 24.0394 24.4165 24.5973 23.8854 25.3196L25.4967 26.5044ZM26.7572 25.4637C27.2698 25.2209 27.8497 25.092 28.5131 25.092V23.092C27.5818 23.092 26.7057 23.2751 25.901 23.6563L26.7572 25.4637ZM28.5131 25.092C29.3778 25.092 30.1029 25.3053 30.7228 25.7096L31.8153 24.0344C30.8406 23.3987 29.7284 23.092 28.5131 23.092V25.092ZM30.744 25.723C31.3953 26.1249 31.9156 26.6877 32.3056 27.4388L34.0806 26.5172C33.5346 25.4656 32.7722 24.6244 31.7942 24.021L30.744 25.723ZM32.3093 27.4459C32.6906 28.1662 32.8951 29.0155 32.8951 30.02H34.8951C34.8951 28.7365 34.6315 27.5578 34.0769 26.5101L32.3093 27.4459ZM32.8951 30.02C32.8951 31.086 32.668 32.0013 32.2372 32.7911L33.993 33.7489C34.6021 32.632 34.8951 31.3807 34.8951 30.02H32.8951ZM32.2409 32.7844C31.81 33.56 31.2127 34.1652 30.4332 34.6127L31.4289 36.3473C32.5214 35.7201 33.3801 34.852 33.9892 33.7556L32.2409 32.7844ZM30.4262 34.6168C29.6833 35.0513 28.7884 35.286 27.7071 35.286V37.286C29.0871 37.286 30.3415 36.9833 31.436 36.3432L30.4262 34.6168ZM27.4991 34.14C28.1916 34.14 28.8452 33.9819 29.423 33.6302L28.3831 31.9218C28.1636 32.0554 27.8813 32.14 27.4991 32.14V34.14ZM29.4069 33.6398C30.0057 33.2905 30.4559 32.7858 30.747 32.1551L28.9311 31.3169C28.8062 31.5875 28.6324 31.7762 28.3992 31.9122L29.4069 33.6398ZM30.7335 32.1832C31.0391 31.572 31.1771 30.8943 31.1771 30.176H29.1771C29.1771 30.6364 29.0897 30.9987 28.9447 31.2888L30.7335 32.1832ZM31.1771 30.176C31.1771 29.4589 31.0395 28.783 30.7263 28.1806L28.9519 29.1034C29.0893 29.3676 29.1771 29.7144 29.1771 30.176H31.1771ZM30.747 28.2229C30.4559 27.5922 30.0057 27.0875 29.4069 26.7382L28.3992 28.4658C28.6324 28.6018 28.8062 28.7905 28.9311 29.0611L30.747 28.2229ZM29.4493 26.7644C28.8679 26.3852 28.2046 26.212 27.4991 26.212V28.212C27.8682 28.212 28.141 28.2988 28.3568 28.4396L29.4493 26.7644ZM27.4991 26.212C26.7928 26.212 26.129 26.3853 25.5391 26.754L26.5991 28.45C26.8411 28.2987 27.1307 28.212 27.4991 28.212V26.212ZM25.5491 26.7478C24.9771 27.096 24.5411 27.5899 24.2387 28.1948L26.0275 29.0892C26.1757 28.7928 26.3638 28.5933 26.589 28.4562L25.5491 26.7478ZM24.2459 28.1806C23.9326 28.783 23.7951 29.4589 23.7951 30.176H25.7951C25.7951 29.7144 25.8829 29.3676 26.0203 29.1034L24.2459 28.1806ZM23.7951 30.176C23.7951 30.8943 23.933 31.572 24.2387 32.1832L26.0275 31.2888C25.8825 30.9987 25.7951 30.6364 25.7951 30.176H23.7951ZM24.2387 32.1832C24.5411 32.7881 24.9771 33.282 25.5491 33.6302L26.589 31.9218C26.3638 31.7847 26.1757 31.5852 26.0275 31.2888L24.2387 32.1832ZM25.5652 33.6398C26.1513 33.9817 26.8057 34.14 27.4991 34.14V32.14C27.1178 32.14 26.8189 32.0557 26.5729 31.9122L25.5652 33.6398Z" fill="#8029AB" mask="url(#path-9-outside-1_26645_234653)"/>
<defs>
<radialGradient id="paint0_radial_26645_234653" cx="0" cy="0" r="1" gradientUnits="userSpaceOnUse" gradientTransform="translate(27.4975 26.9285) scale(23.0273 23.0272)">
<stop stop-color="#E2DAD7"/>
<stop offset="1" stop-color="#D5C5BE"/>
</radialGradient>
</defs>
</svg>
