<svg width="55" height="55" viewBox="0 0 55 55" fill="none" xmlns="http://www.w3.org/2000/svg">
<path d="M55 27.3684C55 28.5429 54.9268 29.6997 54.7839 30.8361C54.4532 33.4271 53.7572 35.9077 52.751 38.2186C52.751 38.2186 52.751 38.2222 52.7473 38.2253C48.5282 47.9392 38.8094 54.7362 27.4998 54.7362C14.6968 54.7362 3.94393 46.0304 0.877028 34.245V34.2414C0.302495 32.0452 0 29.7411 0 27.3684C0 24.9433 0.31659 22.5911 0.915232 20.3534C4.02399 8.63715 14.7486 0.000976575 27.4998 0.000976575C42.6878 0.00052168 55 12.2536 55 27.3684Z" fill="#CEB3AA"/>
<path d="M53.5469 26.046C53.5469 26.379 53.5415 26.7124 53.5283 27.0427C53.4992 27.8201 53.4382 28.587 53.3431 29.3458C53.0284 31.8127 52.3701 34.1713 51.418 36.3716C51.418 36.3716 51.418 36.3743 51.4126 36.3793C47.4172 45.6237 38.2124 52.0914 27.501 52.0914C15.3749 52.0914 5.19158 43.8069 2.28571 32.5901V32.5874C1.85447 30.9347 1.58516 29.2161 1.49237 27.4547C1.46826 26.9867 1.45508 26.5186 1.45508 26.0455C1.45508 23.7369 1.75394 21.5002 2.32256 19.369C5.26573 8.21818 15.4244 0 27.5005 0C41.8857 0.000454895 53.5469 11.6617 53.5469 26.046Z" fill="#E7E6E2"/>
<path d="M53.5465 26.046C53.5465 26.379 53.541 26.7124 53.5279 27.0427C52.5416 25.2022 50.8599 22.1799 48.0068 17.2724C41.6765 6.38589 27.501 5.15674 16.004 8.60212C4.50425 12.0502 1.98685 31.295 1.98685 31.295L1.49239 27.4557C1.46828 26.9876 1.45508 26.5195 1.45508 26.0464C1.45508 23.7379 1.75396 21.5011 2.32258 19.3699C5.26575 8.2191 15.4245 0.000976576 27.5006 0.000976576C41.8853 0.000521681 53.5465 11.6618 53.5465 26.046Z" fill="white"/>
<path d="M50.3702 26.9286C50.3702 27.9234 50.3092 28.9033 50.1905 29.8658C49.9157 32.0607 49.3366 34.1614 48.4996 36.1188C48.4996 36.1188 48.4996 36.122 48.4969 36.1247C44.9879 44.3524 36.9044 50.1095 27.4976 50.1095C16.8489 50.1095 7.90571 42.7357 5.35465 32.753V32.7503C4.87701 30.8898 4.625 28.9387 4.625 26.9286C4.625 24.8747 4.88839 22.8823 5.3865 20.9867C7.97212 11.0627 16.8922 3.74756 27.4976 3.74756C40.1296 3.74756 50.3702 14.126 50.3702 26.9286Z" fill="url(#paint0_radial_26645_234687)"/>
<path d="M49.8029 26.0455C49.8029 27.0026 49.7437 27.9451 49.6277 28.8708C49.3598 30.982 48.7953 33.0031 47.9792 34.8859C47.9792 34.8859 47.9792 34.8886 47.9765 34.8913C44.5552 42.806 36.6742 48.3444 27.503 48.3444C17.1209 48.3444 8.4015 41.2508 5.91459 31.648V31.6452C5.44878 29.8556 5.20312 27.9783 5.20312 26.045C5.20312 24.069 5.46015 22.1525 5.94552 20.3288C8.4661 10.7824 17.1632 3.74512 27.5025 3.74512C39.8188 3.74603 49.8029 13.7301 49.8029 26.0455Z" fill="#8029AB"/>
<path d="M48.3903 26.0465C48.3903 26.9431 48.3348 27.826 48.226 28.6935C47.9749 30.6714 47.4459 32.5646 46.6821 34.3283C46.6821 34.3283 46.6821 34.331 46.6794 34.3338C43.4747 41.7481 36.0922 46.9362 27.5006 46.9362C17.7749 46.9362 9.60725 40.291 7.27773 31.2955V31.2928C6.84149 29.6165 6.61133 27.8579 6.61133 26.0465C6.61133 24.1955 6.85196 22.4 7.30686 20.6919C9.66822 11.7491 17.8149 5.15723 27.5006 5.15723C39.0376 5.15723 48.3903 14.5099 48.3903 26.0465Z" fill="#C349E1"/>
<path d="M48.392 26.046C48.392 26.9426 48.3365 27.8256 48.2278 28.6931C45.6126 14.2742 36.5406 9.23673 22.7427 10.4454C15.413 11.0877 10.4155 16.0615 7.30859 20.6919C9.66995 11.7491 17.8167 5.15723 27.5023 5.15723C39.0394 5.15677 48.392 14.5094 48.392 26.046Z" fill="#D468E5"/>
<path opacity="0.43" d="M46.679 34.3342C43.4743 41.7485 36.0918 46.9366 27.5002 46.9366C17.7745 46.9366 9.60686 40.2915 7.27734 31.2959C10.2414 35.6693 17.1695 43.8005 27.5002 43.4116C41.3827 42.8907 46.5202 34.593 46.679 34.3342Z" fill="#D468E5"/>
<mask id="path-9-outside-1_26645_234687" maskUnits="userSpaceOnUse" x="19" y="16" width="16" height="22" fill="black">
<rect fill="white" x="19" y="16" width="16" height="22"/>
<path d="M27.0051 36.286C25.5491 36.286 24.3011 36.078 23.2611 35.662C22.2211 35.246 21.4237 34.648 20.8691 33.868C20.3144 33.0707 20.0371 32.1173 20.0371 31.008C20.0371 30.1413 20.2104 29.37 20.5571 28.694C20.9211 28.018 21.4151 27.472 22.0391 27.056C22.6631 26.64 23.3651 26.38 24.1451 26.276V26.952C23.0531 26.7093 22.1691 26.1807 21.4931 25.366C20.8344 24.534 20.5051 23.5373 20.5051 22.376C20.5051 21.336 20.7651 20.4433 21.2851 19.698C21.8224 18.9527 22.5764 18.3807 23.5471 17.982C24.5351 17.5833 25.6877 17.384 27.0051 17.384C28.3397 17.384 29.4924 17.5833 30.4631 17.982C31.4337 18.3807 32.1877 18.9527 32.7251 19.698C33.2624 20.4433 33.5311 21.336 33.5311 22.376C33.5311 23.156 33.3751 23.8667 33.0631 24.508C32.7684 25.1493 32.3437 25.678 31.7891 26.094C31.2517 26.51 30.6277 26.7787 29.9171 26.9V26.276C31.1131 26.4493 32.0837 26.9607 32.8291 27.81C33.5917 28.6593 33.9731 29.7253 33.9731 31.008C33.9731 32.1173 33.6957 33.0707 33.1411 33.868C32.5864 34.648 31.7891 35.246 30.7491 35.662C29.7091 36.078 28.4611 36.286 27.0051 36.286ZM27.0051 33.192C28.0797 33.192 28.8944 32.984 29.4491 32.568C30.0037 32.152 30.2811 31.5367 30.2811 30.722C30.2811 29.9073 30.0037 29.3007 29.4491 28.902C28.8944 28.486 28.0797 28.278 27.0051 28.278C25.9304 28.278 25.1157 28.486 24.5611 28.902C24.0064 29.3007 23.7291 29.9073 23.7291 30.722C23.7291 31.5367 24.0064 32.152 24.5611 32.568C25.1157 32.984 25.9304 33.192 27.0051 33.192ZM27.0051 25.184C27.5944 25.184 28.0971 25.0887 28.5131 24.898C28.9464 24.7073 29.2671 24.43 29.4751 24.066C29.7004 23.702 29.8131 23.286 29.8131 22.818C29.8131 22.09 29.5617 21.518 29.0591 21.102C28.5737 20.686 27.8891 20.478 27.0051 20.478C26.1211 20.478 25.4364 20.686 24.9511 21.102C24.4657 21.518 24.2231 22.09 24.2231 22.818C24.2231 23.546 24.4657 24.1267 24.9511 24.56C25.4364 24.976 26.1211 25.184 27.0051 25.184Z"/>
</mask>
<path d="M27.0051 36.286C25.5491 36.286 24.3011 36.078 23.2611 35.662C22.2211 35.246 21.4237 34.648 20.8691 33.868C20.3144 33.0707 20.0371 32.1173 20.0371 31.008C20.0371 30.1413 20.2104 29.37 20.5571 28.694C20.9211 28.018 21.4151 27.472 22.0391 27.056C22.6631 26.64 23.3651 26.38 24.1451 26.276V26.952C23.0531 26.7093 22.1691 26.1807 21.4931 25.366C20.8344 24.534 20.5051 23.5373 20.5051 22.376C20.5051 21.336 20.7651 20.4433 21.2851 19.698C21.8224 18.9527 22.5764 18.3807 23.5471 17.982C24.5351 17.5833 25.6877 17.384 27.0051 17.384C28.3397 17.384 29.4924 17.5833 30.4631 17.982C31.4337 18.3807 32.1877 18.9527 32.7251 19.698C33.2624 20.4433 33.5311 21.336 33.5311 22.376C33.5311 23.156 33.3751 23.8667 33.0631 24.508C32.7684 25.1493 32.3437 25.678 31.7891 26.094C31.2517 26.51 30.6277 26.7787 29.9171 26.9V26.276C31.1131 26.4493 32.0837 26.9607 32.8291 27.81C33.5917 28.6593 33.9731 29.7253 33.9731 31.008C33.9731 32.1173 33.6957 33.0707 33.1411 33.868C32.5864 34.648 31.7891 35.246 30.7491 35.662C29.7091 36.078 28.4611 36.286 27.0051 36.286ZM27.0051 33.192C28.0797 33.192 28.8944 32.984 29.4491 32.568C30.0037 32.152 30.2811 31.5367 30.2811 30.722C30.2811 29.9073 30.0037 29.3007 29.4491 28.902C28.8944 28.486 28.0797 28.278 27.0051 28.278C25.9304 28.278 25.1157 28.486 24.5611 28.902C24.0064 29.3007 23.7291 29.9073 23.7291 30.722C23.7291 31.5367 24.0064 32.152 24.5611 32.568C25.1157 32.984 25.9304 33.192 27.0051 33.192ZM27.0051 25.184C27.5944 25.184 28.0971 25.0887 28.5131 24.898C28.9464 24.7073 29.2671 24.43 29.4751 24.066C29.7004 23.702 29.8131 23.286 29.8131 22.818C29.8131 22.09 29.5617 21.518 29.0591 21.102C28.5737 20.686 27.8891 20.478 27.0051 20.478C26.1211 20.478 25.4364 20.686 24.9511 21.102C24.4657 21.518 24.2231 22.09 24.2231 22.818C24.2231 23.546 24.4657 24.1267 24.9511 24.56C25.4364 24.976 26.1211 25.184 27.0051 25.184Z" fill="white"/>
<path d="M23.2611 35.662L23.6325 34.7335L23.2611 35.662ZM20.8691 33.868L20.0481 34.4391L20.0541 34.4475L20.8691 33.868ZM20.5571 28.694L19.6766 28.2199L19.6718 28.2287L19.6673 28.2377L20.5571 28.694ZM22.0391 27.056L22.5938 27.8881L22.0391 27.056ZM24.1451 26.276H25.1451V25.1338L24.0129 25.2848L24.1451 26.276ZM24.1451 26.952L23.9281 27.9282L25.1451 28.1986V26.952H24.1451ZM21.4931 25.366L20.709 25.9867L20.7162 25.9957L20.7235 26.0046L21.4931 25.366ZM21.2851 19.698L20.4739 19.1132L20.4694 19.1195L20.465 19.1258L21.2851 19.698ZM23.5471 17.982L23.1729 17.0546L23.1672 17.057L23.5471 17.982ZM30.4631 17.982L30.843 17.057L30.4631 17.982ZM32.7251 19.698L33.5363 19.1132V19.1132L32.7251 19.698ZM33.0631 24.508L32.1638 24.0705L32.159 24.0805L32.1544 24.0905L33.0631 24.508ZM31.7891 26.094L31.1891 25.294L31.183 25.2986L31.1769 25.3033L31.7891 26.094ZM29.9171 26.9H28.9171V28.0852L30.0854 27.8857L29.9171 26.9ZM29.9171 26.276L30.0605 25.2863L28.9171 25.1206V26.276H29.9171ZM32.8291 27.81L32.0774 28.4696L32.085 28.4781L32.8291 27.81ZM33.1411 33.868L33.9561 34.4476L33.962 34.4391L33.1411 33.868ZM30.7491 35.662L31.1205 36.5905L30.7491 35.662ZM29.4491 32.568L30.0491 33.368L29.4491 32.568ZM29.4491 28.902L28.8491 29.702L28.8572 29.7081L28.8654 29.714L29.4491 28.902ZM24.5611 28.902L25.1447 29.714L25.153 29.7081L25.1611 29.702L24.5611 28.902ZM24.5611 32.568L25.1611 31.768L24.5611 32.568ZM28.5131 24.898L28.1103 23.9827L28.1034 23.9858L28.0964 23.9889L28.5131 24.898ZM29.4751 24.066L28.6248 23.5396L28.6156 23.5546L28.6068 23.5699L29.4751 24.066ZM29.0591 21.102L28.4083 21.8613L28.4149 21.8669L28.4215 21.8724L29.0591 21.102ZM24.9511 21.102L25.6019 21.8613L24.9511 21.102ZM24.9511 24.56L24.2851 25.3059L24.2926 25.3127L24.3003 25.3193L24.9511 24.56ZM27.0051 35.286C25.64 35.286 24.5248 35.0904 23.6325 34.7335L22.8897 36.5905C24.0774 37.0656 25.4582 37.286 27.0051 37.286V35.286ZM23.6325 34.7335C22.7398 34.3765 22.1096 33.8869 21.684 33.2885L20.0541 34.4475C20.7379 35.4091 21.7023 36.1155 22.8897 36.5905L23.6325 34.7335ZM21.69 33.2969C21.268 32.6903 21.0371 31.9432 21.0371 31.008H19.0371C19.0371 32.2915 19.3609 33.451 20.0482 34.4391L21.69 33.2969ZM21.0371 31.008C21.0371 30.2775 21.1823 29.6664 21.4469 29.1503L19.6673 28.2377C19.2386 29.0736 19.0371 30.0051 19.0371 31.008H21.0371ZM21.4375 29.1681C21.7258 28.6327 22.1094 28.211 22.5938 27.8881L21.4844 26.2239C20.7208 26.733 20.1163 27.4033 19.6766 28.2199L21.4375 29.1681ZM22.5938 27.8881C23.0846 27.5608 23.6407 27.3521 24.2772 27.2672L24.0129 25.2848C23.0894 25.4079 22.2415 25.7192 21.4844 26.2239L22.5938 27.8881ZM23.1451 26.276V26.952H25.1451V26.276H23.1451ZM24.362 25.9758C23.4734 25.7783 22.7886 25.3613 22.2626 24.7274L20.7235 26.0046C21.5496 27.0001 22.6327 27.6403 23.9281 27.9282L24.362 25.9758ZM22.2771 24.7453C21.7717 24.1069 21.5051 23.3346 21.5051 22.376H19.5051C19.5051 23.74 19.8971 24.9611 20.709 25.9867L22.2771 24.7453ZM21.5051 22.376C21.5051 21.5101 21.7186 20.8242 22.1052 20.2702L20.465 19.1258C19.8115 20.0624 19.5051 21.1619 19.5051 22.376H21.5051ZM22.0963 20.2828C22.5096 19.7095 23.1039 19.2451 23.927 18.907L23.1672 17.057C22.0489 17.5163 21.1353 18.1958 20.4739 19.1132L22.0963 20.2828ZM23.9213 18.9094C24.7659 18.5685 25.7866 18.384 27.0051 18.384V16.384C25.5889 16.384 24.3043 16.5981 23.1729 17.0546L23.9213 18.9094ZM27.0051 18.384C28.2434 18.384 29.2609 18.5693 30.0832 18.907L30.843 17.057C29.7239 16.5973 28.436 16.384 27.0051 16.384V18.384ZM30.0832 18.907C30.9062 19.2451 31.5006 19.7095 31.9139 20.2828L33.5363 19.1132C32.8749 18.1958 31.9613 17.5163 30.843 17.057L30.0832 18.907ZM31.9139 20.2828C32.3126 20.8359 32.5311 21.5171 32.5311 22.376H34.5311C34.5311 21.1549 34.2122 20.0508 33.5363 19.1132L31.9139 20.2828ZM32.5311 22.376C32.5311 23.0188 32.4035 23.5779 32.1638 24.0705L33.9623 24.9455C34.3467 24.1554 34.5311 23.2932 34.5311 22.376H32.5311ZM32.1544 24.0905C31.9279 24.5835 31.6082 24.9797 31.1891 25.294L32.3891 26.894C33.0793 26.3763 33.6089 25.7152 33.9718 24.9255L32.1544 24.0905ZM31.1769 25.3033C30.7772 25.6127 30.3079 25.8188 29.7488 25.9143L30.0854 27.8857C30.9476 27.7385 31.7263 27.4073 32.4013 26.8847L31.1769 25.3033ZM30.9171 26.9V26.276H28.9171V26.9H30.9171ZM29.7736 27.2657C30.7518 27.4074 31.5005 27.8122 32.0775 28.4696L33.5807 27.1504C32.667 26.1092 31.4744 25.4912 30.0605 25.2863L29.7736 27.2657ZM32.085 28.4781C32.6622 29.1209 32.9731 29.9392 32.9731 31.008H34.9731C34.9731 29.5115 34.5212 28.1977 33.5731 27.1419L32.085 28.4781ZM32.9731 31.008C32.9731 31.9432 32.7422 32.6903 32.3202 33.2969L33.962 34.4391C34.6493 33.451 34.9731 32.2915 34.9731 31.008H32.9731ZM32.3261 33.2885C31.9006 33.8869 31.2703 34.3765 30.3777 34.7335L31.1205 36.5905C32.3078 36.1155 33.2722 35.4091 33.956 34.4475L32.3261 33.2885ZM30.3777 34.7335C29.4854 35.0904 28.3702 35.286 27.0051 35.286V37.286C28.552 37.286 29.9328 37.0656 31.1205 36.5905L30.3777 34.7335ZM27.0051 34.192C28.1845 34.192 29.2494 33.9678 30.0491 33.368L28.8491 31.768C28.5395 32.0002 27.975 32.192 27.0051 32.192V34.192ZM30.0491 33.368C30.9016 32.7286 31.2811 31.7891 31.2811 30.722H29.2811C29.2811 31.2842 29.1059 31.5754 28.8491 31.768L30.0491 33.368ZM31.2811 30.722C31.2811 29.6558 30.9011 28.7142 30.0327 28.09L28.8654 29.714C29.1064 29.8872 29.2811 30.1588 29.2811 30.722H31.2811ZM30.0491 28.102C29.2494 27.5022 28.1845 27.278 27.0051 27.278V29.278C27.975 29.278 28.5395 29.4698 28.8491 29.702L30.0491 28.102ZM27.0051 27.278C25.8257 27.278 24.7608 27.5022 23.9611 28.102L25.1611 29.702C25.4707 29.4698 26.0351 29.278 27.0051 29.278V27.278ZM23.9774 28.09C23.109 28.7142 22.7291 29.6558 22.7291 30.722H24.7291C24.7291 30.1588 24.9038 29.8872 25.1447 29.714L23.9774 28.09ZM22.7291 30.722C22.7291 31.7891 23.1086 32.7286 23.9611 33.368L25.1611 31.768C24.9042 31.5754 24.7291 31.2842 24.7291 30.722H22.7291ZM23.9611 33.368C24.7608 33.9678 25.8257 34.192 27.0051 34.192V32.192C26.0351 32.192 25.4707 32.0002 25.1611 31.768L23.9611 33.368ZM27.0051 26.184C27.6984 26.184 28.3511 26.0723 28.9297 25.8071L28.0964 23.9889C27.8431 24.1051 27.4904 24.184 27.0051 24.184V26.184ZM28.9158 25.8133C29.5187 25.548 30.0155 25.1358 30.3433 24.5621L28.6068 23.5699C28.5186 23.7242 28.3741 23.8666 28.1103 23.9827L28.9158 25.8133ZM30.3253 24.5924C30.6576 24.0556 30.8131 23.454 30.8131 22.818H28.8131C28.8131 23.118 28.7432 23.3484 28.6248 23.5396L30.3253 24.5924ZM30.8131 22.818C30.8131 21.831 30.4573 20.9611 29.6966 20.3316L28.4215 21.8724C28.6662 22.0749 28.8131 22.349 28.8131 22.818H30.8131ZM29.7099 20.3427C28.9844 19.7209 28.0367 19.478 27.0051 19.478V21.478C27.7415 21.478 28.1631 21.6511 28.4083 21.8613L29.7099 20.3427ZM27.0051 19.478C25.9735 19.478 25.0258 19.7209 24.3003 20.3427L25.6019 21.8613C25.847 21.6511 26.2687 21.478 27.0051 21.478V19.478ZM24.3003 20.3427C23.5611 20.9763 23.2231 21.8433 23.2231 22.818H25.2231C25.2231 22.3367 25.3704 22.0597 25.6019 21.8613L24.3003 20.3427ZM23.2231 22.818C23.2231 23.7931 23.5606 24.6591 24.2851 25.3059L25.6171 23.8141C25.3709 23.5942 25.2231 23.2989 25.2231 22.818H23.2231ZM24.3003 25.3193C25.0258 25.9411 25.9735 26.184 27.0051 26.184V24.184C26.2687 24.184 25.847 24.0109 25.6019 23.8007L24.3003 25.3193Z" fill="#8029AB" mask="url(#path-9-outside-1_26645_234687)"/>
<defs>
<radialGradient id="paint0_radial_26645_234687" cx="0" cy="0" r="1" gradientUnits="userSpaceOnUse" gradientTransform="translate(27.4975 26.9285) scale(23.0273 23.0272)">
<stop stop-color="#E2DAD7"/>
<stop offset="1" stop-color="#D5C5BE"/>
</radialGradient>
</defs>
</svg>
