<svg width="55" height="56" viewBox="0 0 55 56" fill="none" xmlns="http://www.w3.org/2000/svg">
<path d="M55 28.1045C55 29.279 54.9268 30.4358 54.7839 31.5721C54.4532 34.1632 53.7572 36.6438 52.751 38.9546C52.751 38.9546 52.751 38.9582 52.7473 38.9614C48.5282 48.6753 38.8094 55.4723 27.4998 55.4723C14.6968 55.4723 3.94393 46.7665 0.877028 34.9811V34.9775C0.302495 32.7812 0 30.4772 0 28.1045C0 25.6794 0.31659 23.3271 0.915232 21.0895C4.02399 9.37323 14.7486 0.737061 27.4998 0.737061C42.6878 0.736606 55 12.9897 55 28.1045Z" fill="#CEB3AA"/>
<path d="M53.5469 26.7821C53.5469 27.115 53.5415 27.4485 53.5283 27.7787C53.4992 28.5562 53.4382 29.3231 53.3431 30.0819C53.0284 32.5488 52.3701 34.9074 51.418 37.1077C51.418 37.1077 51.418 37.1104 51.4126 37.1154C47.4172 46.3598 38.2124 52.8275 27.501 52.8275C15.3749 52.8275 5.19158 44.543 2.28571 33.3262V33.3234C1.85447 31.6708 1.58516 29.9522 1.49237 28.1908C1.46826 27.7227 1.45508 27.2547 1.45508 26.7816C1.45508 24.473 1.75394 22.2363 2.32256 20.1051C5.26573 8.95427 15.4244 0.736084 27.5005 0.736084C41.8857 0.736539 53.5469 12.3978 53.5469 26.7821Z" fill="#E7E6E2"/>
<path d="M53.5465 26.7821C53.5465 27.1151 53.541 27.4485 53.5279 27.7788C52.5416 25.9383 50.8599 22.9159 48.0068 18.0085C41.6765 7.12198 27.501 5.89282 16.004 9.3382C4.50425 12.7863 1.98685 32.0311 1.98685 32.0311L1.49239 28.1918C1.46828 27.7237 1.45508 27.2556 1.45508 26.7825C1.45508 24.4739 1.75396 22.2372 2.32258 20.106C5.26575 8.95519 15.4245 0.737061 27.5006 0.737061C41.8853 0.736606 53.5465 12.3978 53.5465 26.7821Z" fill="white"/>
<path d="M50.3702 27.6646C50.3702 28.6595 50.3092 29.6394 50.1905 30.6019C49.9157 32.7968 49.3366 34.8975 48.4996 36.8549C48.4996 36.8549 48.4996 36.858 48.4969 36.8608C44.9879 45.0885 36.9044 50.8456 27.4976 50.8456C16.8489 50.8456 7.90571 43.4718 5.35465 33.4891V33.4864C4.87701 31.6259 4.625 29.6748 4.625 27.6646C4.625 25.6108 4.88839 23.6183 5.3865 21.7228C7.97212 11.7988 16.8922 4.48364 27.4976 4.48364C40.1296 4.48364 50.3702 14.8621 50.3702 27.6646Z" fill="url(#paint0_radial_26645_234704)"/>
<path d="M49.8029 26.7816C49.8029 27.7387 49.7437 28.6812 49.6277 29.6069C49.3598 31.7181 48.7953 33.7392 47.9792 35.622C47.9792 35.622 47.9792 35.6247 47.9765 35.6274C44.5552 43.5421 36.6742 49.0805 27.503 49.0805C17.1209 49.0805 8.4015 41.9869 5.91459 32.3841V32.3813C5.44878 30.5917 5.20312 28.7144 5.20312 26.7811C5.20312 24.805 5.46015 22.8886 5.94552 21.0649C8.4661 11.5185 17.1632 4.4812 27.5025 4.4812C39.8188 4.48211 49.8029 14.4662 49.8029 26.7816Z" fill="#8029AB"/>
<path d="M48.3903 26.7826C48.3903 27.6792 48.3348 28.5621 48.226 29.4296C47.9749 31.4075 47.4459 33.3007 46.6821 35.0644C46.6821 35.0644 46.6821 35.0671 46.6794 35.0699C43.4747 42.4842 36.0922 47.6723 27.5006 47.6723C17.7749 47.6723 9.60725 41.0271 7.27773 32.0316V32.0289C6.84149 30.3526 6.61133 28.594 6.61133 26.7826C6.61133 24.9316 6.85196 23.1361 7.30686 21.428C9.66822 12.4852 17.8149 5.89331 27.5006 5.89331C39.0376 5.89331 48.3903 15.246 48.3903 26.7826Z" fill="#C349E1"/>
<path d="M48.392 26.7821C48.392 27.6787 48.3365 28.5617 48.2278 29.4291C45.6126 15.0103 36.5406 9.97281 22.7427 11.1815C15.413 11.8238 10.4155 16.7976 7.30859 21.428C9.66995 12.4852 17.8167 5.89331 27.5023 5.89331C39.0394 5.89286 48.392 15.2455 48.392 26.7821Z" fill="#D468E5"/>
<path opacity="0.43" d="M46.679 35.0703C43.4743 42.4846 36.0918 47.6727 27.5002 47.6727C17.7745 47.6727 9.60686 41.0275 7.27734 32.032C10.2414 36.4053 17.1695 44.5366 27.5002 44.1477C41.3827 43.6268 46.5202 35.3291 46.679 35.0703Z" fill="#D468E5"/>
<mask id="path-9-outside-1_26645_234704" maskUnits="userSpaceOnUse" x="19" y="16.7361" width="16" height="22" fill="black">
<rect fill="white" x="19" y="16.7361" width="16" height="22"/>
<path d="M25.4971 37.0221C24.7517 37.0221 23.9977 36.9181 23.2351 36.7101C22.4724 36.5021 21.7617 36.1901 21.1031 35.7741C20.7564 35.6008 20.5137 35.3581 20.3751 35.0461C20.2537 34.7168 20.2191 34.3874 20.2711 34.0581C20.3231 33.7288 20.4531 33.4428 20.6611 33.2001C20.8691 32.9401 21.1291 32.7754 21.4411 32.7061C21.7704 32.6194 22.1431 32.6714 22.5591 32.8621C23.0964 33.1568 23.6077 33.3648 24.0931 33.4861C24.5957 33.6074 25.0811 33.6681 25.5491 33.6681C26.4677 33.6681 27.2477 33.4601 27.8891 33.0441C28.5304 32.6281 29.0071 32.0041 29.3191 31.1721C29.6484 30.3228 29.8131 29.2914 29.8131 28.0781V26.3881H30.1771C30.0384 27.2028 29.7524 27.9048 29.3191 28.4941C28.8857 29.0834 28.3397 29.5341 27.6811 29.8461C27.0224 30.1581 26.2944 30.3141 25.4971 30.3141C24.4744 30.3141 23.5557 30.0628 22.7411 29.5601C21.9264 29.0401 21.2851 28.3294 20.8171 27.4281C20.3491 26.5268 20.1151 25.5127 20.1151 24.3861C20.1151 23.1728 20.3751 22.0981 20.8951 21.1621C21.4151 20.2087 22.1431 19.4634 23.0791 18.9261C24.0151 18.3887 25.0897 18.1201 26.3031 18.1201C27.8804 18.1201 29.2064 18.4841 30.2811 19.2121C31.3731 19.9228 32.2051 20.9714 32.7771 22.3581C33.3491 23.7274 33.6351 25.3827 33.6351 27.3241C33.6351 28.8668 33.4444 30.2361 33.0631 31.4321C32.6991 32.6281 32.1704 33.6421 31.4771 34.4741C30.7837 35.3061 29.9257 35.9388 28.9031 36.3721C27.8977 36.8054 26.7624 37.0221 25.4971 37.0221ZM26.5371 27.1681C27.0744 27.1681 27.5424 27.0467 27.9411 26.8041C28.3571 26.5441 28.6777 26.1888 28.9031 25.7381C29.1284 25.2874 29.2411 24.7761 29.2411 24.2041C29.2411 23.6147 29.1284 23.0947 28.9031 22.6441C28.6777 22.1934 28.3571 21.8468 27.9411 21.6041C27.5424 21.3614 27.0744 21.2401 26.5371 21.2401C25.9997 21.2401 25.5317 21.3614 25.1331 21.6041C24.7344 21.8468 24.4137 22.1934 24.1711 22.6441C23.9457 23.0947 23.8331 23.6147 23.8331 24.2041C23.8331 24.7761 23.9457 25.2874 24.1711 25.7381C24.4137 26.1888 24.7344 26.5441 25.1331 26.8041C25.5317 27.0467 25.9997 27.1681 26.5371 27.1681Z"/>
</mask>
<path d="M25.4971 37.0221C24.7517 37.0221 23.9977 36.9181 23.2351 36.7101C22.4724 36.5021 21.7617 36.1901 21.1031 35.7741C20.7564 35.6008 20.5137 35.3581 20.3751 35.0461C20.2537 34.7168 20.2191 34.3874 20.2711 34.0581C20.3231 33.7288 20.4531 33.4428 20.6611 33.2001C20.8691 32.9401 21.1291 32.7754 21.4411 32.7061C21.7704 32.6194 22.1431 32.6714 22.5591 32.8621C23.0964 33.1568 23.6077 33.3648 24.0931 33.4861C24.5957 33.6074 25.0811 33.6681 25.5491 33.6681C26.4677 33.6681 27.2477 33.4601 27.8891 33.0441C28.5304 32.6281 29.0071 32.0041 29.3191 31.1721C29.6484 30.3228 29.8131 29.2914 29.8131 28.0781V26.3881H30.1771C30.0384 27.2028 29.7524 27.9048 29.3191 28.4941C28.8857 29.0834 28.3397 29.5341 27.6811 29.8461C27.0224 30.1581 26.2944 30.3141 25.4971 30.3141C24.4744 30.3141 23.5557 30.0628 22.7411 29.5601C21.9264 29.0401 21.2851 28.3294 20.8171 27.4281C20.3491 26.5268 20.1151 25.5127 20.1151 24.3861C20.1151 23.1728 20.3751 22.0981 20.8951 21.1621C21.4151 20.2087 22.1431 19.4634 23.0791 18.9261C24.0151 18.3887 25.0897 18.1201 26.3031 18.1201C27.8804 18.1201 29.2064 18.4841 30.2811 19.2121C31.3731 19.9228 32.2051 20.9714 32.7771 22.3581C33.3491 23.7274 33.6351 25.3827 33.6351 27.3241C33.6351 28.8668 33.4444 30.2361 33.0631 31.4321C32.6991 32.6281 32.1704 33.6421 31.4771 34.4741C30.7837 35.3061 29.9257 35.9388 28.9031 36.3721C27.8977 36.8054 26.7624 37.0221 25.4971 37.0221ZM26.5371 27.1681C27.0744 27.1681 27.5424 27.0467 27.9411 26.8041C28.3571 26.5441 28.6777 26.1888 28.9031 25.7381C29.1284 25.2874 29.2411 24.7761 29.2411 24.2041C29.2411 23.6147 29.1284 23.0947 28.9031 22.6441C28.6777 22.1934 28.3571 21.8468 27.9411 21.6041C27.5424 21.3614 27.0744 21.2401 26.5371 21.2401C25.9997 21.2401 25.5317 21.3614 25.1331 21.6041C24.7344 21.8468 24.4137 22.1934 24.1711 22.6441C23.9457 23.0947 23.8331 23.6147 23.8331 24.2041C23.8331 24.7761 23.9457 25.2874 24.1711 25.7381C24.4137 26.1888 24.7344 26.5441 25.1331 26.8041C25.5317 27.0467 25.9997 27.1681 26.5371 27.1681Z" fill="white"/>
<path d="M23.2351 36.7101L22.972 37.6748L23.2351 36.7101ZM21.1031 35.7741L21.6371 34.9286L21.5949 34.902L21.5503 34.8797L21.1031 35.7741ZM20.3751 35.0461L19.4367 35.3918L19.448 35.4224L19.4613 35.4522L20.3751 35.0461ZM20.2711 34.0581L19.2833 33.9021H19.2833L20.2711 34.0581ZM20.6611 33.2001L21.4203 33.8509L21.4314 33.838L21.4419 33.8248L20.6611 33.2001ZM21.4411 32.7061L21.658 33.6823L21.6769 33.6781L21.6956 33.6732L21.4411 32.7061ZM22.5591 32.8621L23.0399 31.9853L23.0084 31.968L22.9757 31.953L22.5591 32.8621ZM24.0931 33.4861L23.8505 34.4563L23.8584 34.4582L24.0931 33.4861ZM27.8891 33.0441L28.4333 33.883L27.8891 33.0441ZM29.3191 31.1721L28.3867 30.8105L28.3827 30.821L29.3191 31.1721ZM29.8131 26.3881V25.3881H28.8131V26.3881H29.8131ZM30.1771 26.3881L31.1629 26.5559L31.3617 25.3881H30.1771V26.3881ZM29.3191 28.4941L30.1247 29.0865V29.0865L29.3191 28.4941ZM27.6811 29.8461L27.253 28.9423H27.253L27.6811 29.8461ZM22.7411 29.5601L22.203 30.403L22.2095 30.4071L22.216 30.4111L22.7411 29.5601ZM20.8171 27.4281L19.9296 27.8889H19.9296L20.8171 27.4281ZM20.8951 21.1621L21.7693 21.6477L21.773 21.6409L20.8951 21.1621ZM23.0791 18.9261L22.5812 18.0588V18.0588L23.0791 18.9261ZM30.2811 19.2121L29.7202 20.04L29.7279 20.0452L29.7356 20.0502L30.2811 19.2121ZM32.7771 22.3581L31.8526 22.7394L31.8543 22.7435L32.7771 22.3581ZM33.0631 31.4321L32.1103 31.1283L32.1064 31.1409L33.0631 31.4321ZM31.4771 34.4741L32.2453 35.1143V35.1143L31.4771 34.4741ZM28.9031 36.3721L28.5129 35.4513L28.5072 35.4538L28.9031 36.3721ZM27.9411 26.8041L28.4611 27.6583L28.4711 27.6521L27.9411 26.8041ZM28.9031 25.7381L29.7975 26.1853V26.1853L28.9031 25.7381ZM28.9031 22.6441L29.7975 22.1969V22.1969L28.9031 22.6441ZM27.9411 21.6041L27.4211 22.4583L27.4291 22.4631L27.4372 22.4679L27.9411 21.6041ZM24.1711 22.6441L23.2906 22.17L23.2834 22.1833L23.2767 22.1969L24.1711 22.6441ZM24.1711 25.7381L23.2767 26.1853L23.2834 26.1988L23.2906 26.2122L24.1711 25.7381ZM25.1331 26.8041L24.5868 27.6417L24.5998 27.6502L24.6131 27.6583L25.1331 26.8041ZM25.4971 36.0221C24.8458 36.0221 24.1803 35.9313 23.4982 35.7453L22.972 37.6748C23.8152 37.9048 24.6576 38.0221 25.4971 38.0221V36.0221ZM23.4982 35.7453C22.8298 35.563 22.2106 35.2908 21.6371 34.9286L20.5691 36.6196C21.3129 37.0893 22.115 37.4411 22.972 37.6748L23.4982 35.7453ZM21.5503 34.8797C21.3814 34.7952 21.3207 34.7115 21.2889 34.6399L19.4613 35.4522C19.7068 36.0046 20.1314 36.4063 20.6559 36.6685L21.5503 34.8797ZM21.3134 34.7004C21.2479 34.5226 21.2349 34.3657 21.2588 34.214L19.2833 33.9021C19.2033 34.4091 19.2596 34.9109 19.4367 35.3918L21.3134 34.7004ZM21.2588 34.214C21.2833 34.0594 21.3382 33.9467 21.4203 33.8509L19.9018 32.5493C19.568 32.9388 19.3629 33.3981 19.2833 33.9021L21.2588 34.214ZM21.4419 33.8248C21.514 33.7348 21.5784 33.7 21.658 33.6823L21.2241 31.7299C20.6798 31.8509 20.2242 32.1454 19.8802 32.5754L21.4419 33.8248ZM21.6956 33.6732C21.7347 33.6629 21.8643 33.6437 22.1424 33.7711L22.9757 31.953C22.4219 31.6992 21.8061 31.576 21.1866 31.739L21.6956 33.6732ZM22.0782 33.7389C22.6745 34.0659 23.266 34.3101 23.8505 34.4562L24.3356 32.5159C23.9495 32.4194 23.5183 32.2476 23.0399 31.9853L22.0782 33.7389ZM23.8584 34.4582C24.43 34.5961 24.9943 34.6681 25.5491 34.6681V32.6681C25.1679 32.6681 24.7615 32.6187 24.3277 32.514L23.8584 34.4582ZM25.5491 34.6681C26.6215 34.6681 27.5997 34.4237 28.4333 33.883L27.3449 32.2051C26.8958 32.4964 26.314 32.6681 25.5491 32.6681V34.6681ZM28.4333 33.883C29.2822 33.3324 29.8809 32.5219 30.2554 31.5232L28.3827 30.821C28.1332 31.4863 27.7786 31.9238 27.3449 32.2051L28.4333 33.883ZM30.2514 31.5336C30.6376 30.5377 30.8131 29.3764 30.8131 28.0781H28.8131C28.8131 29.2064 28.6592 30.1078 28.3867 30.8106L30.2514 31.5336ZM30.8131 28.0781V26.3881H28.8131V28.0781H30.8131ZM29.8131 27.3881H30.1771V25.3881H29.8131V27.3881ZM29.1913 26.2203C29.0753 26.9014 28.8431 27.4534 28.5134 27.9017L30.1247 29.0865C30.6617 28.3561 31.0015 27.5041 31.1629 26.5559L29.1913 26.2203ZM28.5134 27.9017C28.1778 28.3581 27.7614 28.7015 27.253 28.9423L28.1092 30.7498C28.9181 30.3666 29.5936 29.8087 30.1247 29.0865L28.5134 27.9017ZM27.253 28.9423C26.7403 29.1852 26.1605 29.3141 25.4971 29.3141V31.3141C26.4284 31.3141 27.3045 31.131 28.1092 30.7498L27.253 28.9423ZM25.4971 29.3141C24.6467 29.3141 23.9121 29.1076 23.2662 28.709L22.216 30.4111C23.1993 31.0179 24.3022 31.3141 25.4971 31.3141V29.3141ZM23.2791 28.7172C22.6201 28.2965 22.0959 27.721 21.7046 26.9673L19.9296 27.8889C20.4742 28.9378 21.2327 29.7837 22.203 30.403L23.2791 28.7172ZM21.7046 26.9673C21.3183 26.2233 21.1151 25.3702 21.1151 24.3861H19.1151C19.1151 25.6553 19.3799 26.8302 19.9296 27.8889L21.7046 26.9673ZM21.1151 24.3861C21.1151 23.3197 21.3422 22.4163 21.7692 21.6477L20.0209 20.6764C19.4079 21.7799 19.1151 23.0258 19.1151 24.3861H21.1151ZM21.773 21.6409C22.2052 20.8486 22.8021 20.2382 23.5769 19.7933L22.5812 18.0588C21.4841 18.6887 20.625 19.5689 20.0172 20.6832L21.773 21.6409ZM23.5769 19.7933C24.3433 19.3534 25.2423 19.1201 26.3031 19.1201V17.1201C24.9372 17.1201 23.6868 17.4241 22.5812 18.0588L23.5769 19.7933ZM26.3031 19.1201C27.724 19.1201 28.8438 19.4463 29.7202 20.04L30.8419 18.3842C29.569 17.5219 28.0368 17.1201 26.3031 17.1201V19.1201ZM29.7356 20.0502C30.6333 20.6344 31.3458 21.5107 31.8526 22.7394L33.7015 21.9768C33.0644 20.4322 32.1129 19.2111 30.8265 18.3739L29.7356 20.0502ZM31.8543 22.7435C32.3623 23.9594 32.6351 25.4763 32.6351 27.3241H34.6351C34.6351 25.2892 34.3359 23.4954 33.6998 21.9726L31.8543 22.7435ZM32.6351 27.3241C32.6351 28.7863 32.4541 30.05 32.1103 31.1283L34.0158 31.7359C34.4347 30.4222 34.6351 28.9472 34.6351 27.3241H32.6351ZM32.1064 31.1409C31.7753 32.2287 31.3045 33.1191 30.7089 33.8339L32.2453 35.1143C33.0363 34.1651 33.6228 33.0275 34.0198 31.7232L32.1064 31.1409ZM30.7089 33.8339C30.1201 34.5404 29.3929 35.0785 28.5129 35.4513L29.2932 37.2928C30.4586 36.799 31.4474 36.0717 32.2453 35.1143L30.7089 33.8339ZM28.5072 35.4538C27.6449 35.8255 26.6473 36.0221 25.4971 36.0221V38.0221C26.8775 38.0221 28.1506 37.7854 29.2989 37.2904L28.5072 35.4538ZM26.5371 28.1681C27.2296 28.1681 27.8832 28.01 28.461 27.6583L27.4211 25.9499C27.2016 26.0835 26.9193 26.1681 26.5371 26.1681V28.1681ZM28.4711 27.6521C29.0475 27.2918 29.4922 26.7959 29.7975 26.1853L28.0087 25.2909C27.8633 25.5816 27.6667 25.7964 27.4111 25.9561L28.4711 27.6521ZM29.7975 26.1853C30.1011 25.578 30.2411 24.9102 30.2411 24.2041H28.2411C28.2411 24.642 28.1557 24.9968 28.0087 25.2909L29.7975 26.1853ZM30.2411 24.2041C30.2411 23.4858 30.1031 22.8081 29.7975 22.1969L28.0087 23.0913C28.1537 23.3814 28.2411 23.7437 28.2411 24.2041H30.2411ZM29.7975 22.1969C29.4895 21.5808 29.0368 21.0856 28.445 20.7403L27.4372 22.4679C27.6773 22.6079 27.866 22.806 28.0087 23.0913L29.7975 22.1969ZM28.461 20.7499C27.8832 20.3982 27.2296 20.2401 26.5371 20.2401V22.2401C26.9193 22.2401 27.2016 22.3247 27.4211 22.4583L28.461 20.7499ZM26.5371 20.2401C25.8446 20.2401 25.191 20.3982 24.6131 20.7499L25.653 22.4583C25.8725 22.3247 26.1549 22.2401 26.5371 22.2401V20.2401ZM24.6131 20.7499C24.0482 21.0937 23.6091 21.5784 23.2906 22.17L25.0515 23.1182C25.2183 22.8084 25.4206 22.5998 25.653 22.4583L24.6131 20.7499ZM23.2767 22.1969C22.971 22.8081 22.8331 23.4858 22.8331 24.2041H24.8331C24.8331 23.7437 24.9205 23.3814 25.0655 23.0913L23.2767 22.1969ZM22.8331 24.2041C22.8331 24.9102 22.973 25.578 23.2767 26.1853L25.0655 25.2909C24.9185 24.9968 24.8331 24.642 24.8331 24.2041H22.8331ZM23.2906 26.2122C23.6064 26.7986 24.0376 27.2835 24.5868 27.6417L25.6793 25.9665C25.4312 25.8046 25.2211 25.5789 25.0515 25.264L23.2906 26.2122ZM24.6131 27.6583C25.191 28.01 25.8446 28.1681 26.5371 28.1681V26.1681C26.1549 26.1681 25.8725 26.0835 25.653 25.9499L24.6131 27.6583Z" fill="#8029AB" mask="url(#path-9-outside-1_26645_234704)"/>
<defs>
<radialGradient id="paint0_radial_26645_234704" cx="0" cy="0" r="1" gradientUnits="userSpaceOnUse" gradientTransform="translate(27.4975 27.6645) scale(23.0273 23.0272)">
<stop stop-color="#E2DAD7"/>
<stop offset="1" stop-color="#D5C5BE"/>
</radialGradient>
</defs>
</svg>
