<svg width="176" height="60" viewBox="0 0 176 60" fill="none" xmlns="http://www.w3.org/2000/svg">
<g clip-path="url(#clip0_26481_190624)">
<path d="M50.7969 36.9103C50.7969 36.0184 51.5219 35.4926 52.8431 35.4926C54.4244 35.4926 55.3796 36.3165 55.5471 37.5712H60.7624C60.4002 33.9436 57.757 31.3076 53.0099 31.3076C48.2629 31.3076 45.5208 33.8797 45.5208 37.0098C45.5208 43.7707 55.5452 41.6281 55.5452 44.5986C55.5452 45.4225 54.7885 46.0802 53.3353 46.0802C51.7831 46.0802 50.6313 45.224 50.5 43.9344H44.9277C45.1909 47.4979 48.4912 50.2336 53.4045 50.2336C58.0228 50.2336 60.858 47.8245 60.858 44.627C60.7585 37.7717 50.7969 39.8451 50.7969 36.9103Z" fill="#08A081"/>
<path d="M80.6799 40.4737C80.6799 34.8672 76.8888 31.3076 71.5097 31.3076C66.1308 31.3076 62.209 34.9351 62.209 40.7725C62.209 46.6099 66.0991 50.2374 71.5104 50.2374C76.0968 50.2374 79.3622 47.4662 80.2536 43.8742H74.2493C74.0018 44.4364 73.5874 44.9088 73.0623 45.2273C72.5372 45.5457 71.9274 45.6947 71.3142 45.6541C69.5034 45.6541 68.0209 44.5352 67.822 42.1261H80.5872C80.6512 41.5778 80.6846 41.0264 80.6866 40.4744L80.6799 40.4737ZM67.8507 38.992C67.9308 38.1052 68.3485 37.283 69.0164 36.6942C69.6842 36.1055 70.5523 35.7949 71.4423 35.8263C73.2865 35.8263 74.9065 36.9807 74.9065 38.992H67.8507Z" fill="#08A081"/>
<path d="M95.3238 31.5752V34.177C94.3323 32.5601 92.3887 31.3101 89.6498 31.3101C85.1274 31.3101 81.5352 34.9376 81.5352 40.7394C81.5352 46.5413 85.1274 50.2393 89.6198 50.2393C90.7367 50.2911 91.8483 50.0546 92.8477 49.5524C93.8466 49.0504 94.6999 48.2996 95.3251 47.3723V49.9767H100.963V31.5752H95.3238ZM91.2985 45.328C89.1881 45.328 87.2732 43.6762 87.2732 40.7413C87.2732 37.8064 89.1881 36.2219 91.2985 36.2219C93.4089 36.2219 95.3238 37.8388 95.3238 40.773C95.3238 43.7073 93.4442 45.3241 91.2985 45.3241V45.328Z" fill="#08A081"/>
<path d="M114.58 40.8085L122.233 31.575H115.273L109.699 39.061V25.5669H104.061V49.9746H109.699V42.2578L115.306 49.9746H122.297L114.58 40.8085Z" fill="#08A081"/>
<path d="M135.985 31.574V41.5647C135.985 44.0727 134.596 45.4548 132.422 45.4548C130.247 45.4548 128.89 44.0727 128.89 41.5647V31.574H123.287V42.3214C123.287 47.2365 126.154 50.1733 130.407 50.1733C131.486 50.2044 132.557 49.9745 133.528 49.5032C134.499 49.0319 135.342 48.333 135.985 47.4661V49.9742H141.623V31.574H135.985Z" fill="#08A081"/>
<path d="M155.905 31.3749C154.834 31.3414 153.769 31.5629 152.799 32.0211C151.829 32.4795 150.982 33.1614 150.327 34.011V31.5741H144.689V49.9717H150.327V39.9835C150.327 37.4755 151.717 36.0935 153.859 36.0935C156.001 36.0935 157.386 37.4755 157.386 39.9835V49.9717H162.993V39.2198C162.993 34.2742 160.158 31.3717 155.902 31.3717L155.905 31.3749Z" fill="#08A081"/>
<path d="M20.0125 20C16.0539 20.0008 12.1846 21.1753 8.89347 23.375C5.60238 25.5747 3.03743 28.7008 1.52292 32.3582C0.00841142 36.0156 -0.387652 40.0399 0.384807 43.9223C1.15727 47.8047 3.06356 51.371 5.86267 54.1701C8.66175 56.9692 12.228 58.8755 16.1104 59.648C19.9929 60.4204 24.0172 60.0243 27.6745 58.5098C31.3319 56.9953 34.4581 54.4304 36.6578 51.1393C38.8575 47.8482 40.032 43.9788 40.0327 40.0202C40.0327 37.3912 39.5149 34.7878 38.5088 32.3588C37.5027 29.9299 36.028 27.7228 34.1689 25.8638C32.3099 24.0047 30.1029 22.5301 27.6739 21.524C25.2449 20.5178 22.6416 20 20.0125 20ZM32.6496 35.1846C32.6464 35.2238 32.6352 35.2619 32.6169 35.2967C32.5985 35.3315 32.5734 35.3622 32.543 35.3871C32.4872 35.4296 32.419 35.4524 32.3489 35.4517C32.3347 35.4517 31.8658 35.3948 31.8658 35.3948C31.8272 35.3912 31.7896 35.3799 31.7554 35.3616C31.7211 35.3433 31.6909 35.3184 31.6664 35.2883C31.6419 35.2582 31.6237 35.2235 31.6127 35.1863C31.6017 35.1491 31.5983 35.11 31.6026 35.0715C31.6026 35.0715 31.6595 34.4105 31.6595 34.0729C31.6602 31.949 30.8626 29.9024 29.4251 28.339C29.1867 28.0714 28.8728 27.8825 28.5248 27.7973C28.1768 27.712 27.8111 27.7344 27.4761 27.8615C27.1411 27.9886 26.8526 28.2144 26.6487 28.509C26.4448 28.8036 26.3352 29.1532 26.3343 29.5115L26.3272 45.954C26.3253 47.7294 25.8303 49.4694 24.8974 50.9799C23.9643 52.4903 22.6301 53.7119 21.0434 54.5084C19.7491 55.1616 18.3151 55.4897 16.8655 55.4642H16.8228C15.5737 55.4651 14.3367 55.2199 13.1825 54.7426C12.0282 54.2652 10.9793 53.5651 10.0958 52.6822C9.2122 51.7993 8.5113 50.7509 8.0331 49.5971C7.55485 48.4431 7.30871 47.2063 7.30871 45.9572C7.30871 45.5841 7.37343 44.8487 7.37343 44.8487C7.3751 44.8087 7.38551 44.7695 7.40399 44.7338C7.42241 44.6982 7.44836 44.667 7.48012 44.6424C7.53543 44.5992 7.60395 44.5763 7.67414 44.5778C7.68128 44.5778 8.15727 44.6308 8.15727 44.6308C8.23427 44.6406 8.30459 44.6796 8.35363 44.7398C8.40261 44.8 8.42656 44.8767 8.42049 44.9541C8.42049 44.9574 8.36031 45.6184 8.36031 45.956C8.35997 48.0805 9.15903 50.1274 10.5987 51.6899C10.8373 51.9567 11.1512 52.145 11.4989 52.2298C11.8467 52.3147 12.2121 52.2921 12.5467 52.1652C12.8815 52.0382 13.1698 51.8128 13.3738 51.5186C13.5778 51.2244 13.6878 50.8753 13.6894 50.5174V34.0794C13.6917 32.2984 14.19 30.5534 15.1286 29.0397C16.0671 27.5262 17.4087 26.304 19.0029 25.5102C19.6386 25.1794 20.3164 24.9368 21.0175 24.7891C21.7186 24.6365 22.4343 24.5615 23.1517 24.5653C24.1598 24.5611 25.1623 24.7158 26.1222 25.0238C27.6298 25.5103 28.9916 26.3665 30.0834 27.5144C31.7858 29.3128 32.7276 31.6994 32.7124 34.1757C32.7098 34.5133 32.6496 35.1846 32.6496 35.1846Z" fill="#08A081"/>
<path d="M152.062 30.5391C154.85 28.0817 167.45 17.66 170.115 15.3101C168.642 23.1022 167.335 30.9259 166.193 38.7736C166.193 38.7736 161.333 39.1232 157.293 36.3939C153.254 33.6649 152.062 30.5391 152.062 30.5391Z" fill="#E1395D"/>
<path d="M168.495 13.7328C168.259 12.9722 168.195 12.1338 168.47 11.3867C168.574 11.1037 168.764 10.8093 169.062 10.7598C169.231 10.7316 169.404 10.7911 169.555 10.8729C170.091 11.1644 170.438 11.7729 170.416 12.3826C170.568 12.053 170.721 11.7234 170.873 11.3936C171.039 11.0347 171.224 10.6545 171.563 10.4516C171.903 10.2488 172.441 10.3347 172.562 10.711C172.618 10.8841 172.576 11.0725 172.524 11.2469C172.372 11.7613 172.146 12.2536 171.854 12.7037C172.244 12.1564 172.989 11.8898 173.638 12.0653C173.761 12.0986 173.883 12.1485 173.971 12.2409C174.166 12.4478 174.115 12.7851 173.995 13.0432C173.744 13.5875 173.239 14.0078 172.659 14.1559C173.021 14.1991 173.376 14.2967 173.71 14.4441C173.805 14.486 173.902 14.5348 173.967 14.6161C174.053 14.7241 174.07 14.8722 174.063 15.0106C174.018 15.8854 173.154 16.5513 172.283 16.635C170.277 16.8279 169.037 15.4833 168.495 13.7328Z" fill="#E1395D"/>
<mask id="mask0_26481_190624" style="mask-type:luminance" maskUnits="userSpaceOnUse" x="152" y="15" width="19" height="24">
<path d="M152.062 30.5388C154.85 28.0815 167.45 17.6597 170.115 15.3099C168.642 23.102 167.335 30.9256 166.193 38.7733C166.193 38.7733 161.333 39.123 157.293 36.3937C153.254 33.6646 152.062 30.5388 152.062 30.5388Z" fill="white"/>
</mask>
<g mask="url(#mask0_26481_190624)">
<path d="M170.921 22.0549C170.133 22.0013 169.379 21.8092 168.649 21.556C167.921 21.2972 167.219 20.9661 166.554 20.5746C165.888 20.1844 165.259 19.7304 164.684 19.2134C164.111 18.6955 163.583 18.122 163.167 17.4492C162.909 17.0325 163.038 16.4857 163.455 16.2278C163.711 16.0698 164.016 16.0573 164.273 16.1675L164.294 16.1771C164.972 16.474 165.583 16.8205 166.188 17.1686C166.791 17.5179 167.379 17.8767 167.964 18.2427C168.55 18.6074 169.134 18.9766 169.72 19.3582C170.304 19.7456 170.893 20.1345 171.473 20.5991L171.485 20.6089C171.835 20.8896 171.892 21.4017 171.611 21.7522C171.439 21.9667 171.176 22.0706 170.921 22.0549Z" fill="#F3D24F"/>
</g>
<mask id="mask1_26481_190624" style="mask-type:luminance" maskUnits="userSpaceOnUse" x="152" y="15" width="19" height="24">
<path d="M152.062 30.5388C154.85 28.0815 167.45 17.6597 170.115 15.3099C168.642 23.102 167.335 30.9256 166.193 38.7733C166.193 38.7733 161.333 39.123 157.293 36.3937C153.254 33.6646 152.062 30.5388 152.062 30.5388Z" fill="white"/>
</mask>
<g mask="url(#mask1_26481_190624)">
<path d="M170.964 26.1146C169.871 26.004 168.808 25.7227 167.779 25.3517C166.752 24.9749 165.761 24.4973 164.821 23.934C163.881 23.3714 162.993 22.7198 162.181 21.9846C161.371 21.2486 160.628 20.4357 160.029 19.5123C159.767 19.11 159.882 18.5718 160.284 18.3106C160.578 18.1201 160.943 18.1295 161.221 18.3046L161.232 18.3117C162.104 18.8636 162.923 19.4369 163.751 19.9899C164.577 20.5437 165.404 21.0839 166.242 21.6086C167.081 22.1322 167.932 22.6368 168.8 23.1301C169.665 23.6288 170.548 24.1053 171.44 24.6321L171.449 24.6374C171.827 24.861 171.953 25.3491 171.729 25.7277C171.566 26.0031 171.262 26.1442 170.964 26.1146Z" fill="#F3D24F"/>
</g>
<mask id="mask2_26481_190624" style="mask-type:luminance" maskUnits="userSpaceOnUse" x="152" y="15" width="19" height="24">
<path d="M152.062 30.5388C154.85 28.0815 167.45 17.6597 170.115 15.3099C168.642 23.102 167.335 30.9256 166.193 38.7733C166.193 38.7733 161.333 39.123 157.293 36.3937C153.254 33.6646 152.062 30.5388 152.062 30.5388Z" fill="white"/>
</mask>
<g mask="url(#mask2_26481_190624)">
<path d="M169.197 31.0594C167.997 30.758 166.855 30.2805 165.755 29.7209C164.659 29.1532 163.614 28.4853 162.633 27.7338C161.651 26.9834 160.734 26.1465 159.905 25.2307C159.078 24.3143 158.328 23.3248 157.736 22.2359C157.508 21.8163 157.663 21.2915 158.083 21.0633C158.402 20.8897 158.783 20.9383 159.047 21.156L159.055 21.1634C159.958 21.9129 160.811 22.6756 161.678 23.415C162.545 24.1552 163.417 24.8782 164.305 25.5824C165.195 26.2857 166.102 26.9671 167.029 27.6343C167.952 28.3095 168.902 28.9521 169.852 29.6467L169.858 29.6513C170.211 29.9096 170.289 30.4053 170.03 30.7585C169.834 31.0268 169.501 31.1355 169.197 31.0594Z" fill="#F3D24F"/>
</g>
<mask id="mask3_26481_190624" style="mask-type:luminance" maskUnits="userSpaceOnUse" x="152" y="15" width="19" height="24">
<path d="M152.062 30.5388C154.85 28.0815 167.45 17.6597 170.115 15.3099C168.642 23.102 167.335 30.9256 166.193 38.7733C166.193 38.7733 161.333 39.123 157.293 36.3937C153.254 33.6646 152.062 30.5388 152.062 30.5388Z" fill="white"/>
</mask>
<g mask="url(#mask3_26481_190624)">
<path d="M167.817 34.7304C166.47 34.4464 165.176 33.9614 163.931 33.3737C162.689 32.7775 161.504 32.0601 160.393 31.2411C159.282 30.4233 158.247 29.5005 157.315 28.4842C156.386 27.4666 155.548 26.3634 154.891 25.1511C154.664 24.7326 154.82 24.2095 155.238 23.9828C155.567 23.805 155.96 23.8623 156.223 24.0976L156.231 24.1047C157.2 24.9734 158.128 25.841 159.089 26.6688C160.046 27.4976 161.022 28.2952 162.025 29.0588C163.03 29.8212 164.063 30.5463 165.125 31.2405C166.185 31.9429 167.28 32.5956 168.389 33.2825L168.396 33.2864C168.766 33.5161 168.881 34.0027 168.651 34.3735C168.471 34.6639 168.133 34.7964 167.817 34.7304Z" fill="#F3D24F"/>
</g>
<mask id="mask4_26481_190624" style="mask-type:luminance" maskUnits="userSpaceOnUse" x="152" y="15" width="19" height="24">
<path d="M152.066 30.5388C154.854 28.0815 167.453 17.6597 170.119 15.3099C168.646 23.102 167.338 30.9256 166.197 38.7733C166.197 38.7733 161.337 39.123 157.297 36.3937C153.258 33.6646 152.066 30.5388 152.066 30.5388Z" fill="white"/>
</mask>
<g mask="url(#mask4_26481_190624)">
<path d="M166.325 39.2938C164.826 38.8804 163.387 38.2771 162.006 37.5625C160.621 36.8531 159.301 36.014 158.054 35.0809C156.806 34.1473 155.634 33.1107 154.564 31.9799C153.497 30.8472 152.517 29.6292 151.713 28.2957C151.468 27.8894 151.599 27.3614 152.006 27.1164C152.335 26.9174 152.746 26.9663 153.019 27.209L153.024 27.2139C154.138 28.2036 155.213 29.1957 156.32 30.1475C157.425 31.101 158.549 32.0225 159.701 32.9099C160.853 33.7975 162.038 34.6413 163.246 35.4648C164.458 36.2831 165.7 37.0631 166.956 37.8703L166.96 37.873C167.326 38.1081 167.431 38.595 167.196 38.9606C167.005 39.2575 166.648 39.3827 166.325 39.2938Z" fill="#F3D24F"/>
</g>
<path d="M159.605 36.7202C158.774 36.53 157.998 35.959 157.332 35.3852C156.751 34.8852 156.187 34.365 155.642 33.8264C155.378 33.5661 155.115 33.2971 154.934 32.9738C154.779 32.6983 154.693 32.3961 154.662 32.0847C155.705 33.1751 156.842 34.1768 158.052 35.0814C158.854 35.6814 159.686 36.2427 160.546 36.7554C160.227 36.8087 159.912 36.7905 159.605 36.7202ZM160.247 33.3278C160.064 33.1897 159.881 33.0506 159.699 32.9104C158.547 32.023 157.423 31.1015 156.318 30.148C156.06 29.9263 155.804 29.7022 155.549 29.4766C155.865 29.0566 156.231 28.6683 156.592 28.285C156.686 28.1855 156.781 28.0856 156.875 27.9859C157.019 28.1542 157.167 28.3205 157.316 28.4844C158.18 29.4269 159.133 30.289 160.154 31.0617C160.058 31.5415 160.028 32.0309 160.085 32.5232C160.116 32.7965 160.174 33.0643 160.247 33.3278ZM161.281 28.4812C160.537 27.8955 159.808 27.2912 159.09 26.669C158.916 26.5189 158.743 26.3675 158.571 26.2151C158.956 25.8209 159.346 25.4309 159.742 25.0477C159.796 25.1091 159.851 25.1704 159.906 25.2312C160.591 25.9888 161.337 26.6925 162.131 27.3377C161.96 27.5469 161.794 27.759 161.634 27.9757C161.512 28.14 161.394 28.3087 161.281 28.4812ZM163.895 25.2548C163.148 24.6547 162.412 24.0412 161.679 23.4155C161.654 23.394 161.629 23.3723 161.603 23.3508C161.967 23.0414 162.338 22.7399 162.717 22.4483C163.379 22.9968 164.084 23.493 164.822 23.9345C164.829 23.9384 164.835 23.9424 164.842 23.9464C164.801 24.0169 164.76 24.0837 164.719 24.1456C164.464 24.5299 164.185 24.8967 163.895 25.2548Z" fill="#C52340"/>
<path d="M164.842 23.946C164.835 23.942 164.829 23.938 164.822 23.9341C164.084 23.4926 163.379 22.9964 162.717 22.4479C162.753 22.4204 162.789 22.3929 162.825 22.3653C163.193 22.0857 163.579 21.81 164.026 21.6922C164.371 21.6011 164.635 21.5882 164.834 21.6336C165.698 21.8314 165.308 23.1384 164.842 23.946Z" fill="#EEB72A"/>
<path d="M162.13 27.3374C161.337 26.6922 160.591 25.9885 159.905 25.2309C159.85 25.1701 159.796 25.1088 159.742 25.0474C160.346 24.4629 160.963 23.8942 161.603 23.3506C161.628 23.3721 161.653 23.3938 161.679 23.4153C162.411 24.0409 163.147 24.6545 163.894 25.2545C163.322 25.9603 162.704 26.6321 162.13 27.3374Z" fill="#EEB72A"/>
<path d="M160.153 31.0616C159.132 30.2889 158.179 29.4267 157.315 28.4843C157.166 28.3204 157.018 28.1541 156.874 27.9858C157.435 27.3921 157.998 26.7991 158.57 26.215C158.742 26.3674 158.915 26.5187 159.089 26.6689C159.807 27.2911 160.536 27.8954 161.28 28.4811C160.758 29.2751 160.336 30.151 160.153 31.0616Z" fill="#EEB72A"/>
<path d="M160.546 36.7553C159.686 36.2425 158.854 35.6813 158.052 35.0813C156.842 34.1766 155.705 33.175 154.661 32.0846C154.605 31.5182 154.735 30.9218 154.98 30.4015C155.134 30.0721 155.33 29.7667 155.549 29.4765C155.804 29.7021 156.06 29.9261 156.318 30.1479C157.423 31.1013 158.547 32.0229 159.699 32.9103C159.881 33.0505 160.063 33.1896 160.247 33.3277C160.467 34.1155 160.831 34.8701 161.082 35.6537C161.177 35.9519 161.242 36.3168 161.029 36.5455C160.918 36.6635 160.755 36.7162 160.596 36.7462C160.579 36.7494 160.563 36.7525 160.546 36.7553Z" fill="#EEB72A"/>
<path d="M167.423 25.2187C167.341 25.5524 167.258 25.891 167.09 26.1907C166.97 26.4044 166.745 26.6159 166.511 26.5417C166.229 26.4518 166.22 26.0597 166.272 25.7679C166.474 24.6235 166.738 23.4899 167.062 22.3741C167.181 21.9659 167.705 19.6181 168.148 19.6236C169.163 19.6361 167.577 24.5904 167.423 25.2187Z" fill="white"/>
<path d="M172.878 12.8887L172.872 12.9153C172.859 12.9639 172.859 13.0122 172.871 13.0599C172.876 13.1074 172.891 13.1512 172.919 13.1915C172.943 13.2337 172.976 13.2671 173.017 13.2917C173.054 13.3238 173.098 13.3445 173.147 13.3539C173.18 13.357 173.213 13.3598 173.245 13.3628C173.309 13.3599 173.369 13.3412 173.424 13.3071C173.448 13.2872 173.472 13.2675 173.496 13.2478C173.541 13.1992 173.571 13.1432 173.586 13.0787L173.592 13.0522C173.605 13.0034 173.606 12.9553 173.593 12.9075C173.588 12.86 173.573 12.8162 173.545 12.7758C173.521 12.7336 173.488 12.7003 173.447 12.6757C173.41 12.6436 173.366 12.6229 173.317 12.6133C173.284 12.6105 173.252 12.6074 173.219 12.6046C173.154 12.6075 173.095 12.6262 173.04 12.6602C173.016 12.68 172.992 12.6999 172.968 12.7196C172.923 12.7679 172.893 12.8242 172.878 12.8887Z" fill="white"/>
<path d="M172.029 13.7201C172.259 13.7726 172.341 13.4156 172.111 13.3629C171.881 13.3102 171.799 13.6673 172.029 13.7201Z" fill="white"/>
<path d="M171.033 13.3165C171.493 13.4217 171.657 12.7078 171.197 12.6024C170.738 12.4973 170.573 13.2111 171.033 13.3165Z" fill="white"/>
<path d="M171.64 11.6482C171.87 11.7009 171.952 11.344 171.722 11.2913C171.492 11.2387 171.41 11.5956 171.64 11.6482Z" fill="white"/>
<path d="M169.832 13.3279C170.061 13.3805 170.143 13.0237 169.913 12.971C169.684 12.9184 169.601 13.2752 169.832 13.3279Z" fill="white"/>
<path d="M168.964 12.1743L168.984 12.2069C169.009 12.249 169.041 12.2824 169.082 12.307C169.12 12.3391 169.163 12.3599 169.213 12.3693C169.262 12.3824 169.31 12.3826 169.357 12.37C169.405 12.3657 169.449 12.3498 169.489 12.3225C169.513 12.3028 169.537 12.2828 169.562 12.2631C169.607 12.2149 169.636 12.1585 169.651 12.094C169.655 12.0614 169.658 12.0288 169.66 11.9961C169.657 11.9319 169.639 11.8723 169.605 11.8177L169.584 11.7851C169.56 11.7428 169.527 11.7096 169.486 11.685C169.449 11.6529 169.405 11.6322 169.356 11.6228C169.307 11.6097 169.259 11.6094 169.211 11.622C169.164 11.6263 169.12 11.642 169.08 11.6695C169.055 11.6893 169.031 11.7092 169.007 11.7289C168.962 11.7772 168.932 11.8335 168.917 11.8979C168.914 11.9306 168.911 11.9633 168.908 11.9956C168.911 12.0601 168.93 12.1197 168.964 12.1743Z" fill="white"/>
<path d="M169.046 14.2015C169.505 14.3067 169.67 13.593 169.209 13.4876C168.75 13.3825 168.586 14.0961 169.046 14.2015Z" fill="white"/>
<path d="M170.808 14.3056C171.038 14.3582 171.12 14.0014 170.89 13.9486C170.66 13.8961 170.578 14.2529 170.808 14.3056Z" fill="white"/>
<path d="M170.135 15.2956L170.161 15.3016C170.186 15.3082 170.21 15.3083 170.234 15.302C170.257 15.3001 170.279 15.2921 170.299 15.2783C170.32 15.266 170.337 15.2498 170.349 15.2293C170.365 15.2107 170.376 15.1888 170.38 15.1641L170.385 15.1152C170.383 15.083 170.374 15.0532 170.357 15.0259L170.327 14.9897C170.303 14.9673 170.275 14.9523 170.243 14.9447L170.216 14.9386C170.192 14.9321 170.168 14.932 170.144 14.9382C170.12 14.9404 170.098 14.9483 170.078 14.9621C170.057 14.9742 170.04 14.9907 170.028 15.0109C170.012 15.0298 170.002 15.0514 169.997 15.0763L169.993 15.1253C169.994 15.1575 170.003 15.187 170.02 15.2145L170.05 15.2507C170.074 15.2731 170.102 15.2882 170.135 15.2956Z" fill="white"/>
<path d="M171.06 15.7107L171.054 15.7373C171.041 15.786 171.04 15.8342 171.053 15.8817C171.057 15.9295 171.073 15.9733 171.1 16.0136C171.125 16.0559 171.158 16.0892 171.198 16.1137C171.236 16.1458 171.279 16.1665 171.329 16.1759C171.361 16.179 171.394 16.182 171.427 16.1849C171.491 16.1817 171.551 16.1633 171.605 16.1292C171.629 16.1094 171.653 16.0895 171.678 16.0698C171.723 16.0215 171.753 15.965 171.768 15.9008L171.774 15.8742C171.787 15.8255 171.787 15.7773 171.775 15.7298C171.77 15.682 171.755 15.6383 171.727 15.5978C171.703 15.5556 171.67 15.5224 171.629 15.4978C171.592 15.4657 171.548 15.4449 171.498 15.4355C171.466 15.4325 171.433 15.4295 171.401 15.4264C171.336 15.4298 171.277 15.4483 171.222 15.4823C171.198 15.502 171.174 15.5219 171.15 15.5417C171.105 15.59 171.075 15.6463 171.06 15.7107Z" fill="white"/>
<path d="M173.16 15.3747L173.187 15.3807C173.211 15.3873 173.235 15.3874 173.259 15.3809C173.283 15.3789 173.305 15.371 173.325 15.3572C173.346 15.3451 173.363 15.3286 173.375 15.3082C173.391 15.2895 173.401 15.2679 173.406 15.2431L173.411 15.1941C173.409 15.1618 173.4 15.1323 173.383 15.1049L173.353 15.0687C173.329 15.0462 173.301 15.0312 173.268 15.0238L173.242 15.0177C173.218 15.011 173.193 15.0111 173.17 15.0174C173.146 15.0193 173.124 15.0272 173.104 15.041C173.083 15.0533 173.066 15.0696 173.054 15.0901C173.038 15.1087 173.027 15.1303 173.022 15.1552L173.018 15.2042C173.02 15.2364 173.029 15.2662 173.046 15.2934L173.076 15.3296C173.1 15.352 173.128 15.367 173.16 15.3747Z" fill="white"/>
<path d="M171.659 14.913L171.679 14.9459C171.704 14.9879 171.736 15.0214 171.777 15.046C171.815 15.0781 171.858 15.0988 171.908 15.1082C171.957 15.1213 172.005 15.1216 172.052 15.1089C172.1 15.1047 172.144 15.0887 172.184 15.0615C172.208 15.0415 172.233 15.0218 172.257 15.0018C172.302 14.9535 172.332 14.8972 172.347 14.833C172.35 14.8001 172.353 14.7678 172.356 14.7351C172.353 14.6707 172.334 14.6113 172.3 14.5565L172.279 14.5238C172.255 14.4818 172.222 14.4483 172.181 14.424C172.144 14.3916 172.101 14.3709 172.051 14.3615C172.002 14.3483 171.954 14.3481 171.906 14.361C171.859 14.365 171.815 14.381 171.774 14.4082C171.75 14.4282 171.726 14.4479 171.702 14.4679C171.657 14.5161 171.627 14.5725 171.612 14.6367C171.609 14.6693 171.606 14.702 171.603 14.7346C171.606 14.799 171.625 14.8587 171.659 14.913Z" fill="white"/>
<path d="M166.756 27.203C166.795 27.3256 166.785 27.4581 166.769 27.5859C166.745 27.7858 166.685 28.0131 166.503 28.0992C166.311 28.1898 166.069 28.0601 165.98 27.8673C165.892 27.6746 165.926 27.4463 166.004 27.2489C166.042 27.152 166.092 27.056 166.174 26.9911C166.377 26.8294 166.683 26.9749 166.756 27.203Z" fill="white"/>
</g>
<defs>
<clipPath id="clip0_26481_190624">
<rect width="176" height="60" fill="white"/>
</clipPath>
</defs>
</svg>
