<svg width="32" height="32" viewBox="0 0 32 32" fill="none" xmlns="http://www.w3.org/2000/svg">
<rect width="32" height="32" rx="16" fill="#08A081"/>
<path d="M8.60187 15.0439H16.7837H24.9655C25.1825 15.0439 25.3906 15.1264 25.5441 15.2731C25.6975 15.4199 25.7837 15.6189 25.7837 15.8265C25.7837 16.034 25.6975 16.2331 25.5441 16.3798C25.3906 16.5266 25.1825 16.609 24.9655 16.609H8.60187C8.38488 16.609 8.17677 16.5266 8.02333 16.3798C7.86989 16.2331 7.78369 16.034 7.78369 15.8265C7.78369 15.6189 7.86989 15.4199 8.02333 15.2731C8.17677 15.1264 8.38488 15.0439 8.60187 15.0439Z" fill="white"/>
<path d="M8.89047 15.8265L15.3809 22.3154C15.5279 22.4623 15.6104 22.6616 15.6104 22.8694C15.6104 23.0772 15.5279 23.2765 15.3809 23.4235C15.234 23.5704 15.0347 23.653 14.8269 23.653C14.6191 23.653 14.4198 23.5704 14.2728 23.4235L7.2299 16.3805C7.15703 16.3078 7.09921 16.2215 7.05976 16.1264C7.02031 16.0313 7 15.9294 7 15.8265C7 15.7235 7.02031 15.6216 7.05976 15.5266C7.09921 15.4315 7.15703 15.3451 7.2299 15.2724L14.2728 8.22949C14.4198 8.08255 14.6191 8 14.8269 8C15.0347 8 15.234 8.08255 15.3809 8.22949C15.5279 8.37643 15.6104 8.57573 15.6104 8.78354C15.6104 8.99134 15.5279 9.19064 15.3809 9.33758L8.89047 15.8265Z" fill="white"/>
</svg>
