<svg width="27" height="26" viewBox="0 0 27 26" fill="none" xmlns="http://www.w3.org/2000/svg">
<path fill-rule="evenodd" clip-rule="evenodd" d="M1.89643 2.99324C1.96444 2.78885 2.11082 2.61984 2.3034 2.52334C2.49598 2.42685 2.719 2.41078 2.92343 2.47866L3.25385 2.58916C3.93201 2.81558 4.5051 3.00624 4.95685 3.21641C5.43568 3.43958 5.85168 3.71474 6.16693 4.15349C6.48218 4.59008 6.61326 5.07216 6.67285 5.59758C6.70318 5.86624 6.71726 6.16633 6.72376 6.49999H18.3219C20.5482 6.49999 21.6608 6.49999 22.1428 7.23016C22.6238 7.96033 22.1862 8.98408 21.3087 11.0305L20.845 12.1138C20.4355 13.0693 20.2308 13.546 19.8234 13.8147C19.4161 14.0833 18.8972 14.0833 17.8572 14.0833H6.89493C7.00868 14.6683 7.18851 15.0107 7.4431 15.2652C7.74318 15.5653 8.1646 15.7603 8.95976 15.8676C9.77768 15.977 10.8621 15.9792 12.4167 15.9792H20C20.2155 15.9792 20.4222 16.0648 20.5745 16.2171C20.7269 16.3695 20.8125 16.5762 20.8125 16.7917C20.8125 17.0071 20.7269 17.2138 20.5745 17.3662C20.4222 17.5186 20.2155 17.6042 20 17.6042H12.3571C10.8762 17.6042 9.68126 17.6042 8.74201 17.4774C7.76701 17.3474 6.94585 17.0657 6.29368 16.4147C5.6426 15.7625 5.36201 14.9413 5.23093 13.9663C5.10418 13.0271 5.10418 11.8322 5.10418 10.3512V7.45658C5.10418 6.68416 5.10418 6.17283 5.05868 5.78174C5.01535 5.41124 4.94276 5.23249 4.84851 5.10358C4.75535 4.97358 4.6091 4.84683 4.2711 4.68974C3.9136 4.52399 3.42935 4.36041 2.69701 4.11558L2.40993 4.02024C2.20574 3.95202 2.03698 3.80554 1.9407 3.61298C1.84442 3.42043 1.8285 3.19753 1.89643 2.99324ZM9.16668 8.93749C8.95119 8.93749 8.74453 9.0231 8.59216 9.17547C8.43978 9.32784 8.35418 9.5345 8.35418 9.74999C8.35418 9.96548 8.43978 10.1721 8.59216 10.3245C8.74453 10.4769 8.95119 10.5625 9.16668 10.5625H12.4167C12.6322 10.5625 12.8388 10.4769 12.9912 10.3245C13.1436 10.1721 13.2292 9.96548 13.2292 9.74999C13.2292 9.5345 13.1436 9.32784 12.9912 9.17547C12.8388 9.0231 12.6322 8.93749 12.4167 8.93749H9.16668Z" fill="white"/>
<path d="M8.625 19.5C9.05598 19.5 9.4693 19.6712 9.77405 19.976C10.0788 20.2807 10.25 20.694 10.25 21.125C10.25 21.556 10.0788 21.9693 9.77405 22.274C9.4693 22.5788 9.05598 22.75 8.625 22.75C8.19402 22.75 7.7807 22.5788 7.47595 22.274C7.1712 21.9693 7 21.556 7 21.125C7 20.694 7.1712 20.2807 7.47595 19.976C7.7807 19.6712 8.19402 19.5 8.625 19.5ZM18.375 19.5C18.806 19.5 19.2193 19.6712 19.524 19.976C19.8288 20.2807 20 20.694 20 21.125C20 21.556 19.8288 21.9693 19.524 22.274C19.2193 22.5788 18.806 22.75 18.375 22.75C17.944 22.75 17.5307 22.5788 17.226 22.274C16.9212 21.9693 16.75 21.556 16.75 21.125C16.75 20.694 16.9212 20.2807 17.226 19.976C17.5307 19.6712 17.944 19.5 18.375 19.5Z" fill="white"/>
</svg>
