<svg width="28" height="28" viewBox="0 0 28 28" fill="none" xmlns="http://www.w3.org/2000/svg">
<rect width="28" height="28" rx="14" fill="#08A081"/>
<path d="M7.3335 11.9999C7.3335 10.7426 7.3335 10.1146 7.72416 9.72392C8.11483 9.33325 8.74283 9.33325 10.0002 9.33325H18.0002C19.2575 9.33325 19.8855 9.33325 20.2762 9.72392C20.6668 10.1146 20.6668 10.7426 20.6668 11.9999C20.6668 12.3139 20.6668 12.4713 20.5695 12.5693C20.4715 12.6666 20.3135 12.6666 20.0002 12.6666H8.00016C7.68616 12.6666 7.52883 12.6666 7.43083 12.5693C7.3335 12.4713 7.3335 12.3133 7.3335 11.9999ZM7.3335 17.9999C7.3335 19.2573 7.3335 19.8853 7.72416 20.2759C8.11483 20.6666 8.74283 20.6666 10.0002 20.6666H18.0002C19.2575 20.6666 19.8855 20.6666 20.2762 20.2759C20.6668 19.8853 20.6668 19.2573 20.6668 17.9999V14.6666C20.6668 14.3526 20.6668 14.1953 20.5695 14.0973C20.4715 13.9999 20.3135 13.9999 20.0002 13.9999H8.00016C7.68616 13.9999 7.52883 13.9999 7.43083 14.0973C7.3335 14.1953 7.3335 14.3533 7.3335 14.6666V17.9999Z" fill="white"/>
<path d="M10.667 8V10M17.3337 8V10" stroke="white" stroke-width="2" stroke-linecap="round"/>
</svg>
