<svg width="16" height="14" viewBox="0 0 16 14" fill="none" xmlns="http://www.w3.org/2000/svg">
<path d="M14.7894 6.89059L8.35342 0.459338C8.30708 0.412907 8.25204 0.37607 8.19144 0.350937C8.13085 0.325803 8.06589 0.312866 8.00029 0.312866C7.93469 0.312866 7.86974 0.325803 7.80914 0.350937C7.74855 0.37607 7.69351 0.412907 7.64717 0.459338L1.21123 6.89059C1.02373 7.07809 0.91748 7.33278 0.91748 7.5984C0.91748 8.14996 1.36592 8.5984 1.91748 8.5984H2.59561V13.1875C2.59561 13.464 2.81904 13.6875 3.09561 13.6875H7.00029V10.1875H8.75029V13.6875H12.905C13.1815 13.6875 13.405 13.464 13.405 13.1875V8.5984H14.0831C14.3487 8.5984 14.6034 8.49371 14.7909 8.30465C15.18 7.91403 15.18 7.28121 14.7894 6.89059Z" fill="#6D7588"/>
</svg>
