<svg width="25" height="25" viewBox="0 0 25 25" fill="none" xmlns="http://www.w3.org/2000/svg">
<g clip-path="url(#clip0_25414_75111)">
<path d="M20.7364 6.1347C21.1684 4.9397 20.0104 3.7817 18.8154 4.2147L4.21038 9.4967C3.01138 9.9307 2.86638 11.5667 3.96938 12.2057L8.63138 14.9047L12.7944 10.7417C12.983 10.5595 13.2356 10.4587 13.4978 10.461C13.76 10.4633 14.0108 10.5685 14.1962 10.7539C14.3816 10.9393 14.4868 11.1901 14.4891 11.4523C14.4913 11.7145 14.3905 11.9671 14.2084 12.1557L10.0454 16.3187L12.7454 20.9807C13.3834 22.0837 15.0194 21.9377 15.4534 20.7397L20.7364 6.1347Z" fill="white"/>
</g>
<defs>
<clipPath id="clip0_25414_75111">
<rect width="24" height="24" fill="white" transform="translate(0.501343 0.44873)"/>
</clipPath>
</defs>
</svg>
