<svg width="20" height="20" viewBox="0 0 20 20" fill="none" xmlns="http://www.w3.org/2000/svg">
<path d="M5.83318 4.99985C5.66837 4.99985 5.50725 5.04873 5.37021 5.14029C5.23317 5.23186 5.12636 5.36201 5.06328 5.51428C5.00021 5.66655 4.98371 5.83411 5.01586 5.99576C5.04802 6.15741 5.12739 6.3059 5.24393 6.42244C5.36047 6.53898 5.50896 6.61835 5.67061 6.65051C5.83226 6.68266 5.99982 6.66616 6.15209 6.60308C6.30436 6.54001 6.43451 6.4332 6.52608 6.29616C6.61764 6.15912 6.66652 5.998 6.66652 5.83318C6.66652 5.61217 6.57872 5.40021 6.42244 5.24393C6.26616 5.08765 6.0542 4.99985 5.83318 4.99985ZM18.0915 9.81652L10.1915 1.93318C10.1138 1.8494 10.0197 1.7825 9.91507 1.73662C9.81042 1.69075 9.69745 1.66689 9.58318 1.66652H4.58318C4.47351 1.66588 4.36479 1.6869 4.26326 1.72838C4.16173 1.76985 4.06938 1.83095 3.99152 1.90818L1.90818 3.98318C1.83095 4.06105 1.76985 4.1534 1.72838 4.25493C1.6869 4.35646 1.66588 4.46518 1.66652 4.57485V9.57485C1.66959 9.79549 1.75591 10.0068 1.90818 10.1665L9.81652 18.0832C9.97621 18.2355 10.1875 18.3218 10.4082 18.3249C10.5179 18.3255 10.6266 18.3045 10.7281 18.263C10.8296 18.2215 10.922 18.1604 10.9999 18.0832L18.0915 10.9915C18.1688 10.9137 18.2299 10.8213 18.2713 10.7198C18.3128 10.6182 18.3338 10.5095 18.3332 10.3999C18.328 10.1821 18.2419 9.97411 18.0915 9.81652ZM10.4082 16.3249L3.33318 9.24152V4.91652L4.91652 3.33318H9.23318L16.3165 10.4082L10.4082 16.3249Z" fill="#00BA88"/>
</svg>
