<svg width="20" height="20" viewBox="0 0 20 20" fill="none" xmlns="http://www.w3.org/2000/svg">
<path d="M18.3332 2.5H1.6665V7.5H2.49984V16.6667C2.49984 17.1087 2.67543 17.5326 2.98799 17.8452C3.30055 18.1577 3.72448 18.3333 4.1665 18.3333H15.8332C16.2752 18.3333 16.6991 18.1577 17.0117 17.8452C17.3242 17.5326 17.4998 17.1087 17.4998 16.6667V7.5H18.3332V2.5ZM3.33317 4.16667H16.6665V5.83333H3.33317V4.16667ZM15.8332 16.6667H4.1665V7.5H15.8332V16.6667ZM7.49984 9.16667H12.4998C12.4998 9.60869 12.3242 10.0326 12.0117 10.3452C11.6991 10.6577 11.2752 10.8333 10.8332 10.8333H9.1665C8.72448 10.8333 8.30055 10.6577 7.98799 10.3452C7.67543 10.0326 7.49984 9.60869 7.49984 9.16667Z" fill="#474747"/>
</svg>
