<svg width="202" height="184" viewBox="0 0 202 184" fill="none" xmlns="http://www.w3.org/2000/svg">
<g opacity="0.5">
<path d="M199.029 131.069C197.014 117.983 184.869 109.34 180.032 97.0612C176.136 87.1751 177.361 76.0725 176.608 65.4134C175.879 54.7779 171.833 42.7103 162.561 39.0027C155.496 36.1839 147.736 39.2187 141.47 43.4005C130.556 50.716 120.911 61.9005 107.969 62.9461C98.4778 63.7014 89.2276 58.6496 81.466 52.3323C73.7289 46.0387 66.924 38.3571 58.8567 32.5768C50.8122 26.7955 40.8699 22.9709 31.7122 25.6005C31.7122 25.6005 11.7862 35.3396 17.6632 57.4674C19.419 64.0986 22.0225 70.4403 24.2249 76.9256C26.4062 83.4369 27.5775 90.8673 24.8188 96.9198C21.4429 104.295 13.2238 107.626 9.32523 114.703C5.14379 122.317 7.10888 132.669 12.0223 140.069C19.5042 151.299 32.2262 156.706 44.3684 160.649C83.4065 173.271 125.106 176.761 164.274 167.29C172.988 165.179 181.787 162.318 188.754 156.362C195.699 150.431 200.516 140.772 199.029 131.069Z" fill="url(#paint0_linear_9951_37942)" fill-opacity="0.3"/>
<path d="M176.109 65.4374L176.109 65.4385C176.296 68.0892 176.361 70.7703 176.412 73.4645C176.418 73.7724 176.424 74.0806 176.43 74.3889C176.475 76.774 176.519 79.1678 176.642 81.5427C176.918 86.9068 177.589 92.2174 179.567 97.2357C181.659 102.547 185.104 107.189 188.475 111.732C189.05 112.507 189.623 113.279 190.186 114.051C194.076 119.378 197.547 124.724 198.535 131.135C199.989 140.63 195.273 150.131 188.424 155.979L188.423 155.98C181.549 161.858 172.846 164.697 164.147 166.804C125.084 176.25 83.4796 172.773 44.514 160.174C32.3797 156.234 19.8141 150.87 12.4379 139.799C7.5901 132.498 5.70121 122.351 9.76508 114.951C11.5795 111.657 14.3567 109.188 17.1981 106.661C17.3338 106.541 17.4696 106.42 17.6055 106.299C20.5634 103.665 23.5389 100.928 25.2749 97.1348L25.2752 97.1341C28.1143 90.9052 26.8913 83.3188 24.6994 76.776L24.6987 76.774C23.9816 74.6625 23.226 72.576 22.4726 70.4956C20.8971 66.1452 19.3312 61.8211 18.1471 57.349L18.147 57.3486C15.2574 46.4692 18.7057 38.6612 22.8745 33.5561C24.9636 30.9978 27.2355 29.1176 28.986 27.8771C29.8606 27.2572 30.6034 26.7982 31.1257 26.4951C31.3868 26.3436 31.5926 26.2312 31.732 26.1572C31.8017 26.1201 31.8548 26.0927 31.8899 26.0749L31.9032 26.0682C40.8326 23.5253 50.5907 27.2459 58.5696 32.98L58.5702 32.9805C62.5745 35.8496 66.2716 39.1951 69.9472 42.6236C70.5112 43.1498 71.0749 43.678 71.6391 44.2067C74.7444 47.1167 77.8659 50.0419 81.1544 52.7168C88.9473 59.0596 98.3295 64.215 108.019 63.444L108.02 63.4439C114.624 62.9103 120.359 59.7915 125.776 55.9329C128.197 54.2085 130.567 52.3272 132.926 50.4549C133.206 50.2321 133.487 50.0094 133.767 49.7871C136.409 47.6933 139.044 45.6336 141.755 43.8167C147.992 39.6542 155.563 36.7448 162.383 39.4659C166.857 41.2551 170.107 45.0755 172.336 49.8146C174.564 54.5528 175.747 60.1636 176.109 65.4374Z" stroke="#8DCABE" stroke-opacity="0.2"/>
</g>
<path d="M107.72 120.694C106.257 127.582 120.465 139.871 120.465 139.871L128.377 147.192C128.377 147.192 121.028 152.623 116.055 155.845C110.42 159.497 101.128 164.663 101.128 164.663L92.0822 148.398C92.0822 148.398 85.7075 137.399 82.0534 133.895C78.3992 130.392 75.1299 126.913 73.9519 125.611C72.774 124.309 70.8774 119.189 69.6532 114.877C68.6298 111.272 68.137 109.207 67.8603 105.481C67.5144 100.825 68.5834 98.1567 68.6785 93.4711C68.7611 89.405 68.3945 86.6722 68.4569 83.0806C68.5194 79.489 67.4505 73.898 69.3978 72.0794C70.7077 70.8561 72.8305 71.0481 74.1701 70.6456C73.8737 67.1614 73.0313 62.8835 73.4111 61.7237C73.7908 60.5639 75.6297 58.1291 79.9475 57.6684C79.5737 56.7349 78.9278 55.6461 79.486 54.408C80.3489 52.4942 82.8413 51.4504 85.2335 51.8969C87.7361 52.3641 87.9964 54.814 88.4522 56.4199C88.4522 56.4199 90.2568 55.3793 91.4663 55.5143C93.0217 55.6879 94.0947 57.8617 94.0947 57.8617L98.5449 81.6218L102.913 100.962L101.774 93.2C102.501 91.5004 104.035 88.0242 104.362 87.7167C104.771 87.3325 106.285 84.7869 106.285 84.7869C106.285 84.7869 109.146 82.097 114.573 82.2967C119.999 82.4963 115.157 86.5655 113.632 93.2979C112.412 98.6838 109.182 113.806 107.72 120.694Z" fill="#FFF1EB"/>
<path d="M88.4522 56.4199C88.4522 56.4199 90.2568 55.3793 91.4663 55.5143C93.0217 55.6879 94.0947 57.8617 94.0947 57.8617L98.5449 81.6218L102.913 100.962L101.774 93.2C102.501 91.5004 104.035 88.0242 104.362 87.7167C104.771 87.3325 106.285 84.7869 106.285 84.7869C106.285 84.7869 109.146 82.097 114.573 82.2967C119.999 82.4963 115.157 86.5655 113.632 93.2979C112.412 98.6838 109.182 113.806 107.72 120.694C106.257 127.582 120.465 139.871 120.465 139.871L128.377 147.192C128.377 147.192 121.028 152.623 116.055 155.845C110.42 159.497 101.128 164.663 101.128 164.663L92.0822 148.398C92.0822 148.398 85.7075 137.399 82.0534 133.895C78.3992 130.392 75.1299 126.913 73.9519 125.611C72.774 124.309 70.8774 119.189 69.6532 114.877C68.6298 111.272 68.137 109.207 67.8603 105.481C67.5144 100.825 68.5834 98.1567 68.6785 93.4711C68.7611 89.405 68.3945 86.6722 68.4569 83.0806C68.5194 79.489 67.4505 73.898 69.3978 72.0794C70.7077 70.8561 72.8305 71.0481 74.1701 70.6456M88.4522 56.4199C88.4522 56.4199 91.0923 72.8362 92.7675 83.3575C93.4191 87.4499 94.4322 93.8374 94.4322 93.8374M88.4522 56.4199C87.9964 54.814 87.7361 52.3641 85.2335 51.8969C82.8413 51.4504 80.3489 52.4942 79.486 54.408C78.9278 55.6461 79.5737 56.7349 79.9475 57.6684M79.9475 57.6684C80.9727 58.0404 81.5112 58.3781 82.2022 59.0824C82.8931 59.7868 83.6094 71.731 83.6094 71.731C83.849 74.6913 84.0883 76.2057 84.6547 79.2598C85.2212 82.3139 86.5119 88.1132 86.5119 88.1132C86.5119 88.1132 87.9974 91.5883 88.6613 93.4803M79.9475 57.6684C75.6297 58.1291 73.7908 60.5639 73.4111 61.7237C73.0313 62.8835 73.8737 67.1614 74.1701 70.6456M74.1701 70.6456C75.0871 71.2889 75.8078 71.4979 76.5182 72.293C77.4812 73.3709 77.4531 74.2478 77.8265 75.5599C78.8049 78.9976 77.4904 81.1628 77.832 84.7082C78.227 88.8077 79.9985 95.0368 79.9985 95.0368" stroke="#FBECE6"/>
<path d="M111.099 125.769L80.5336 138.104L91.5624 156.058L100.5 171.127C100.5 171.127 114 172.137 127.5 171.51C142.5 170.813 147.5 168.656 147.5 168.656L123.008 138.734L111.099 125.769Z" fill="#8DCABE"/>
<path d="M111.994 125.501L80.534 138.104L91.6595 156.029L100.5 171.126C100.5 171.126 88.8107 146.898 95.9614 142.134C102.496 137.779 117.17 131.035 117.17 131.035L111.994 125.501Z" fill="#ADE6DA"/>
<path d="M110.729 135.825C109.654 133.798 107.874 131.983 104.315 128.352C101.468 125.447 97.6021 121.664 96.0253 120.136C94.4484 118.608 93.1596 116.257 91.8157 113.567C89.4638 108.858 89.5196 105.808 88.2776 100.789C86.9104 95.2652 85.2123 86.5647 85.2123 86.5647L82.3729 76.1891C81.877 74.0749 80.792 69.6134 80.792 69.6134C80.6987 69.3803 81.1101 66.7203 82.632 65.6659C83.6893 64.9333 85.2939 64.8661 85.9202 64.6779C85.4234 62.9993 84.4213 59.2267 84.3876 57.5655C84.3455 55.4891 84.2913 53.9525 86.089 52.6151C87.3353 51.6879 89.0019 51.5659 90.0819 51.4155C90.0367 50.6456 90.3788 48.8714 92.1084 47.934C93.8381 46.9965 95.8042 46.6495 96.5711 46.5932C97.3379 46.5369 98.2509 47.7652 99.0072 48.7339C100.069 50.0936 100.594 52.6964 100.594 52.6964L103.178 51.9202C103.741 51.7508 105.352 52.3113 106.086 52.6127C106.821 52.9141 108.194 54.5909 108.194 54.5909L123.783 93.5165L123.542 96.2002C123.783 93.5165 125.623 89.5693 125.623 89.5693C125.623 89.5693 125.796 84.1501 128.27 81.7231C130.094 79.9335 131.614 78.5143 134.38 78.5818C136.457 78.6325 138.247 78.9742 139.116 80.5534C139.86 81.9059 138.594 82.9734 138.544 84.3812L136.695 92.2484C136.695 92.2484 136.209 96.6852 135.927 99.5298C135.512 103.72 135.808 106.113 134.963 110.265C134.293 113.558 132.307 115.254 132.503 118.577C132.685 121.663 133.592 123.422 135.49 126.036C136.301 127.152 136.976 127.648 137.878 128.713C141.838 133.388 158.259 152.232 158.259 152.232C158.259 152.232 151.35 156.159 146.619 158.204C140.766 160.735 131.019 163.51 131.019 163.51C131.019 163.51 111.804 137.853 110.729 135.825Z" fill="#FFF1EB"/>
<path d="M85.9202 64.6779C85.2939 64.8661 83.6893 64.9333 82.632 65.6659C81.1101 66.7203 80.6987 69.3803 80.792 69.6134C80.792 69.6134 81.877 74.0749 82.3729 76.1891L85.2123 86.5647C85.2123 86.5647 86.9104 95.2652 88.2776 100.789C89.5196 105.808 89.4638 108.858 91.8157 113.567C93.1596 116.257 94.4484 118.608 96.0253 120.136C97.6021 121.664 101.468 125.447 104.315 128.352C107.874 131.983 109.654 133.798 110.729 135.825C111.804 137.853 131.019 163.51 131.019 163.51C131.019 163.51 140.766 160.735 146.619 158.204C151.35 156.159 158.259 152.232 158.259 152.232C158.259 152.232 141.838 133.388 137.878 128.713C136.976 127.648 136.301 127.152 135.49 126.036C133.592 123.422 132.685 121.663 132.503 118.577C132.307 115.254 134.293 113.558 134.963 110.265C135.808 106.113 135.512 103.72 135.927 99.5298C136.209 96.6852 136.695 92.2484 136.695 92.2484L138.544 84.3812C138.594 82.9734 139.86 81.9059 139.116 80.5534C138.247 78.9742 136.457 78.6325 134.38 78.5818C131.614 78.5143 130.094 79.9335 128.27 81.7231C125.796 84.1501 125.623 89.5693 125.623 89.5693C125.623 89.5693 123.783 93.5165 123.542 96.2002M85.9202 64.6779L88.0611 72.6521L91.8731 88.7416M85.9202 64.6779C85.4234 62.9993 84.4213 59.2267 84.3876 57.5655C84.3455 55.4891 84.2913 53.9525 86.089 52.6151C87.3353 51.6879 89.0019 51.5659 90.0819 51.4155M90.0819 51.4155L92.2227 59.3895M90.0819 51.4155C90.0367 50.6456 90.3788 48.8714 92.1084 47.934C93.8381 46.9965 95.8042 46.6495 96.5711 46.5932C97.3379 46.5369 98.2509 47.7652 99.0072 48.7339C100.069 50.0936 100.594 52.6964 100.594 52.6964M92.2227 59.3895L96.8358 74.1938L98.6966 81.4687M92.2227 59.3895C93.7604 64.3243 97.2079 75.6488 98.6966 81.4687M98.6966 81.4687L99.6241 86.4129M100.594 52.6964C100.092 53.1952 99.0594 54.5149 98.9438 55.8032C98.8282 57.0915 99.8872 60.5684 100.431 62.1458L102.858 68.2064C102.858 68.2064 104.319 71.5887 105.099 73.8002C106.47 77.6902 107.845 83.943 107.845 83.943M100.594 52.6964C101.22 52.5082 102.614 52.0895 103.178 51.9202C103.741 51.7508 105.352 52.3113 106.086 52.6127C106.821 52.9141 108.194 54.5909 108.194 54.5909L123.783 93.5165C123.783 93.5165 123.636 95.1522 123.542 96.2002M123.542 96.2002C121.19 98.5385 117.52 102.188 117.52 102.188" stroke="#FBECE6"/>
<path d="M137 121.626L108.212 133.494L119.249 152.101L128.258 171.551C128.258 171.551 136.496 171.118 149.996 169.192C163.496 167.266 168.5 164.962 168.5 164.962L148 136.126L137 121.626Z" fill="#8DCABE"/>
<path d="M137 121.626L107.716 133.253L118.336 152.129L126.742 168.509C126.742 168.509 115.441 143.011 122.071 138.404C128.131 134.192 141.807 127.748 141.807 127.748L137 121.626Z" fill="#ADE5DA"/>
<path d="M173.815 45.0396L158.464 64.9207L173.815 52.713V45.0396Z" fill="#248989"/>
<path d="M178.392 88.3336L159.47 70.7464L176.939 80.7574L178.392 88.3336Z" fill="#248989"/>
<path d="M175.211 62.5833L158.902 67.6771L171.887 66.3772L175.211 62.5833Z" fill="#248989"/>
<path d="M23.4912 45.0396L38.8418 64.9207L23.4912 52.713V45.0396Z" fill="#248989"/>
<path d="M18.9142 88.3336L37.8357 70.7464L20.3676 80.7574L18.9142 88.3336Z" fill="#248989"/>
<path d="M22.0961 62.5833L38.4052 67.6771L25.4204 66.3772L22.0961 62.5833Z" fill="#248989"/>
<path fill-rule="evenodd" clip-rule="evenodd" d="M99.0313 21.6501C100.905 26.6146 99.719 25.6539 105.819 27.1755C99.719 28.7004 100.905 27.7364 99.0313 32.7008C97.1577 27.7364 98.3435 28.6971 92.2433 27.1755C98.3435 25.6506 97.1577 26.6146 99.0313 21.6501Z" fill="#E5B223"/>
<path fill-rule="evenodd" clip-rule="evenodd" d="M27.0966 2.7771C28.9701 7.74151 27.7843 6.77751 33.8846 8.30244C27.7843 9.82737 28.9701 8.86337 27.0966 13.8278C25.223 8.86337 26.4088 9.82401 20.3086 8.30244C26.4088 6.77751 25.223 7.74151 27.0966 2.7771Z" fill="#E5B223"/>
<path fill-rule="evenodd" clip-rule="evenodd" d="M33.1637 13.2532C34.1636 15.8932 33.528 15.3827 36.777 16.1955C33.5317 17.0084 34.1599 16.4911 33.1637 19.1379C32.1637 16.4978 32.7994 17.0084 29.5504 16.1955C32.7956 15.3827 32.1674 15.9 33.1637 13.2532Z" fill="#E5B223"/>
<path fill-rule="evenodd" clip-rule="evenodd" d="M174.388 14.5962C175.388 17.2363 174.752 16.7257 178.001 17.5386C174.76 18.3514 175.384 17.8341 174.388 20.4809C173.388 17.8409 174.027 18.3514 170.775 17.5386C174.02 16.7257 173.392 17.243 174.388 14.5962Z" fill="#E5B223"/>
<path fill-rule="evenodd" clip-rule="evenodd" d="M167.666 0.0876465C169.536 5.05206 168.358 4.09142 174.458 5.61299C168.358 7.13792 169.54 6.17392 167.666 11.1383C165.796 6.17392 166.978 7.13792 160.878 5.61299C166.978 4.08806 165.793 5.05206 167.666 0.0876465Z" fill="#E5B223"/>
<defs>
<linearGradient id="paint0_linear_9951_37942" x1="91.636" y1="-14.2979" x2="94.6424" y2="17.7655" gradientUnits="userSpaceOnUse">
<stop stop-color="#E0FAF4" stop-opacity="0.36"/>
<stop offset="0.0001" stop-color="#6DBCAC"/>
<stop offset="1" stop-color="#D0EFE9"/>
</linearGradient>
</defs>
</svg>
