<svg width="24" height="19" viewBox="0 0 24 19" fill="none" xmlns="http://www.w3.org/2000/svg">
<g clip-path="url(#clip0_17602_32267)">
<path d="M0 0.5H7.99875V18.5H0V0.5Z" fill="#007A5E"/>
<path d="M7.99875 0.5H16.0012V18.5H7.99875V0.5Z" fill="#CE1126"/>
<path d="M16.0013 0.5H24V18.5H16.0013V0.5Z" fill="#FCD116"/>
<path d="M12 7.3667L11.3333 9.39336L12.3467 9.74003L12 7.3667Z" fill="#FCD116"/>
<path d="M12 7.3667L12.6667 9.39336L11.6533 9.74003L12 7.3667Z" fill="#FCD116"/>
<path d="M14.0289 8.84082L11.8954 8.83306L11.8789 9.90392L14.0289 8.84082Z" fill="#FCD116"/>
<path d="M14.0289 8.84082L12.3075 10.1011L11.6646 9.24452L14.0289 8.84082Z" fill="#FCD116"/>
<path d="M13.2539 11.2259L12.602 9.19444L11.5785 9.5096L13.2539 11.2259Z" fill="#FCD116"/>
<path d="M13.2539 11.2259L11.5234 9.97813L12.1394 9.10205L13.2539 11.2259Z" fill="#FCD116"/>
<path d="M10.7461 11.2259L12.4767 9.97819L11.8606 9.10211L10.7461 11.2259Z" fill="#FCD116"/>
<path d="M10.7461 11.226L11.398 9.1945L12.4215 9.50966L10.7461 11.226Z" fill="#FCD116"/>
<path d="M9.97109 8.84082L11.6925 10.1011L12.3354 9.24452L9.97109 8.84082Z" fill="#FCD116"/>
<path d="M9.97108 8.84082L12.1046 8.83306L12.1211 9.90392L9.97108 8.84082Z" fill="#FCD116"/>
</g>
<defs>
<clipPath id="clip0_17602_32267">
<rect width="24" height="18" fill="white" transform="translate(0 0.5)"/>
</clipPath>
</defs>
</svg>
