<svg width="24" height="19" viewBox="0 0 24 19" fill="none" xmlns="http://www.w3.org/2000/svg">
<g clip-path="url(#clip0_17602_31902)">
<mask id="mask0_17602_31902" style="mask-type:luminance" maskUnits="userSpaceOnUse" x="0" y="0" width="25" height="19">
<path d="M0.00117493 0.5H24.0023V18.5H0.00117493V0.5Z" fill="white"/>
</mask>
<g mask="url(#mask0_17602_31902)">
<path fill-rule="evenodd" clip-rule="evenodd" d="M-3.75 0.5H27.75V18.5H-3.75V0.5Z" fill="white"/>
<path fill-rule="evenodd" clip-rule="evenodd" d="M-3.75 12.5867H27.75V18.5H-3.75V12.5867Z" fill="#DA0000"/>
<path fill-rule="evenodd" clip-rule="evenodd" d="M2.24063 12.8398H3.96329V12.9559H2.24063V12.8398ZM2.49727 13.4305H2.6168V13.5465H2.49727V13.4305ZM3.97032 13.4305V13.5465H3.62579V13.427L3.97032 13.4305ZM4.15313 12.8398H4.27266V13.543H4.15313V12.8398Z" fill="white"/>
<path fill-rule="evenodd" clip-rule="evenodd" d="M4.84219 13.427V13.5465H4.18828V13.427H4.84219ZM3.62578 13.1492H3.73828V13.5465H3.62227L3.62578 13.1492Z" fill="white"/>
<path fill-rule="evenodd" clip-rule="evenodd" d="M4.74376 12.8398H4.86329V13.543H4.74376V12.8398ZM4.44844 12.8398H4.56446V13.543H4.44844V12.8398ZM2.87344 13.1211V13.2406H2.24063V13.1211H2.87344ZM4.25508 13.1211V13.2406H3.62227V13.1211H4.25508Z" fill="white"/>
<path fill-rule="evenodd" clip-rule="evenodd" d="M3.62578 13.1527H3.73828V13.5429H3.62227L3.62578 13.1527Z" fill="white"/>
<path fill-rule="evenodd" clip-rule="evenodd" d="M3.62578 13.1527H3.73828V13.5429H3.62227L3.62578 13.1527Z" fill="white"/>
<path fill-rule="evenodd" clip-rule="evenodd" d="M3.62578 13.1527H3.73828V13.5429H3.62227L3.62578 13.1527ZM2.24414 13.1527H2.36016V13.5429H2.24414V13.1527ZM3.25664 13.1527H3.37617V13.5429H3.25664V13.1527ZM2.75391 13.1527H2.87344V13.5429H2.75391V13.1527Z" fill="white"/>
<path fill-rule="evenodd" clip-rule="evenodd" d="M3.3375 13.427V13.5465H2.80664V13.427H3.3375ZM3.37266 13.1211V13.2406H3.03516V13.1211H3.37266Z" fill="white"/>
<path fill-rule="evenodd" clip-rule="evenodd" d="M-0.592972 12.8398H1.12968V12.9559H-0.592972V12.8398ZM-0.336331 13.4305H-0.2168V13.5465H-0.339847L-0.336331 13.4305ZM1.13672 13.4305V13.5465H0.792184V13.427L1.13672 13.4305ZM1.31953 12.8398H1.43906V13.543H1.31953V12.8398Z" fill="white"/>
<path fill-rule="evenodd" clip-rule="evenodd" d="M2.0086 13.427V13.5465H1.35469V13.427H2.0086ZM0.792191 13.1492H0.908206V13.5465H0.792191V13.1492Z" fill="white"/>
<path fill-rule="evenodd" clip-rule="evenodd" d="M1.91015 12.8398H2.02968V13.543H1.91015V12.8398ZM1.61484 12.8398H1.73086V13.543H1.61484V12.8398ZM0.0398408 13.1211V13.2406H-0.592972V13.1211H0.0398408ZM1.42148 13.1211V13.2406H0.788669V13.1211H1.42148Z" fill="white"/>
<path fill-rule="evenodd" clip-rule="evenodd" d="M0.792191 13.1527H0.908206V13.5429H0.792191V13.1527Z" fill="white"/>
<path fill-rule="evenodd" clip-rule="evenodd" d="M0.792191 13.1527H0.908206V13.5429H0.792191V13.1527Z" fill="white"/>
<path fill-rule="evenodd" clip-rule="evenodd" d="M0.792178 13.1527H0.908194V13.5429H0.792178V13.1527ZM-0.589462 13.1527H-0.473447V13.5429H-0.589462V13.1527ZM0.423038 13.1527H0.539053V13.5429H0.423038V13.1527ZM-0.0796967 13.1527H0.0398346V13.5429H-0.0796967V13.1527Z" fill="white"/>
<path fill-rule="evenodd" clip-rule="evenodd" d="M0.503906 13.427V13.5465H-0.0234375V13.427H0.503906ZM0.539062 13.1211V13.2406H0.201563V13.1211H0.539062Z" fill="white"/>
<path fill-rule="evenodd" clip-rule="evenodd" d="M5.04961 12.8398H6.77226V12.9559H5.04961V12.8398ZM5.30625 13.4305H5.42578V13.5465H5.30625V13.4305ZM6.77929 13.4305V13.5465H6.43476V13.427L6.77929 13.4305ZM6.96562 12.8398H7.08515V13.543H6.96562V12.8398Z" fill="white"/>
<path fill-rule="evenodd" clip-rule="evenodd" d="M7.65118 13.427V13.5465H6.99727V13.427H7.65118ZM6.43477 13.1492H6.5543V13.5465H6.43477V13.1492Z" fill="white"/>
<path fill-rule="evenodd" clip-rule="evenodd" d="M7.55273 12.8398H7.67226V13.543H7.55273V12.8398ZM7.25742 12.8398H7.37695V13.543H7.2539L7.25742 12.8398ZM5.68242 13.1211V13.2406H5.04961V13.1211H5.68242ZM7.06406 13.1211V13.2406H6.43125V13.1211H7.06406Z" fill="white"/>
<path fill-rule="evenodd" clip-rule="evenodd" d="M6.43477 13.1527H6.5543V13.5429H6.43477V13.1527Z" fill="white"/>
<path fill-rule="evenodd" clip-rule="evenodd" d="M6.43477 13.1527H6.5543V13.5429H6.43477V13.1527Z" fill="white"/>
<path fill-rule="evenodd" clip-rule="evenodd" d="M6.43476 13.1527H6.55429V13.5429H6.43476V13.1527ZM5.05312 13.1527H5.17265V13.5429H5.05312V13.1527ZM6.06562 13.1527H6.18515V13.5429H6.06562V13.1527ZM5.56288 13.1527H5.68241V13.5429H5.56288V13.1527Z" fill="white"/>
<path fill-rule="evenodd" clip-rule="evenodd" d="M6.14999 13.427V13.5465H5.61562V13.427H6.14999ZM6.18515 13.1211V13.2406H5.84765V13.1211H6.18515Z" fill="white"/>
<path fill-rule="evenodd" clip-rule="evenodd" d="M7.87617 12.8398H9.60235V12.9559H7.87969L7.87617 12.8398ZM8.13633 13.4305H8.25235V13.5465H8.13633V13.4305ZM9.60586 13.4305V13.5465H9.26133V13.427L9.60586 13.4305ZM9.79219 12.8398H9.91172V13.543H9.79219V12.8398Z" fill="white"/>
<path fill-rule="evenodd" clip-rule="evenodd" d="M10.4813 13.427V13.5465H9.82735V13.427H10.4813ZM9.26134 13.1492H9.38087V13.5465H9.26134V13.1492Z" fill="white"/>
<path fill-rule="evenodd" clip-rule="evenodd" d="M10.3828 12.8398H10.5023V13.543H10.3828V12.8398ZM10.084 12.8398H10.2035V13.543H10.084V12.8398ZM8.50898 13.1211V13.2406H7.87968V13.1211H8.50898ZM9.89062 13.1211V13.2406H9.26133V13.1211H9.89062Z" fill="white"/>
<path fill-rule="evenodd" clip-rule="evenodd" d="M9.26134 13.1527H9.38087V13.5429H9.26134V13.1527Z" fill="white"/>
<path fill-rule="evenodd" clip-rule="evenodd" d="M9.26134 13.1527H9.38087V13.5429H9.26134V13.1527Z" fill="white"/>
<path fill-rule="evenodd" clip-rule="evenodd" d="M9.26133 13.1527H9.38086V13.5429H9.26133V13.1527ZM7.87968 13.1527H7.99922V13.5429H7.87968V13.1527ZM8.89218 13.1527H9.01172V13.5429H8.89218V13.1527ZM8.39297 13.1527H8.50898V13.5429H8.39297V13.1527Z" fill="white"/>
<path fill-rule="evenodd" clip-rule="evenodd" d="M8.97657 13.427V13.5465H8.44571V13.427H8.97657ZM9.01173 13.1211V13.2406H8.67422V13.1211H9.01173Z" fill="white"/>
<path fill-rule="evenodd" clip-rule="evenodd" d="M10.7168 12.8398H12.4395V12.9559H10.7168V12.8398ZM10.9734 13.4305H11.093V13.5465H10.9734V13.4305ZM12.4465 13.4305V13.5465H12.102V13.427L12.4465 13.4305ZM12.6328 12.8398H12.7488V13.543H12.6328V12.8398Z" fill="white"/>
<path fill-rule="evenodd" clip-rule="evenodd" d="M13.3184 13.427V13.5465H12.6645V13.427H13.3184ZM12.102 13.1492H12.2215V13.5465H12.102V13.1492Z" fill="white"/>
<path fill-rule="evenodd" clip-rule="evenodd" d="M13.2199 12.8398H13.3395V13.543H13.2199V12.8398ZM12.9246 12.8398H13.0441V13.543H12.9246V12.8398ZM11.3496 13.1211V13.2406H10.7168V13.1211H11.3496ZM12.7312 13.1211V13.2406H12.0984V13.1211H12.7312Z" fill="white"/>
<path fill-rule="evenodd" clip-rule="evenodd" d="M12.102 13.1527H12.2215V13.5429H12.102V13.1527Z" fill="white"/>
<path fill-rule="evenodd" clip-rule="evenodd" d="M12.102 13.1527H12.2215V13.5429H12.102V13.1527Z" fill="white"/>
<path fill-rule="evenodd" clip-rule="evenodd" d="M12.1019 13.1527H12.2215V13.5429H12.1019V13.1527ZM10.7203 13.1527H10.8363V13.5429H10.7203V13.1527ZM11.7328 13.1527H11.8523V13.5429H11.7328V13.1527ZM11.2301 13.1527H11.3496V13.5429H11.2266L11.2301 13.1527Z" fill="white"/>
<path fill-rule="evenodd" clip-rule="evenodd" d="M11.8172 13.427V13.5465H11.2828V13.427H11.8172ZM11.8523 13.1211V13.2406H11.5078V13.1211H11.8523Z" fill="white"/>
<path fill-rule="evenodd" clip-rule="evenodd" d="M-3.75 0.5H27.75V6.41328H-3.75V0.5Z" fill="#239F40"/>
<path fill-rule="evenodd" clip-rule="evenodd" d="M13.5715 12.8398H15.2941V12.9559H13.5715V12.8398ZM13.8281 13.4305H13.9477V13.5465H13.8281V13.4305ZM15.3012 13.4305V13.5465H14.9531V13.427L15.3012 13.4305ZM15.4875 12.8398H15.6035V13.543H15.4875V12.8398Z" fill="white"/>
<path fill-rule="evenodd" clip-rule="evenodd" d="M16.173 13.427V13.5465H15.5191V13.427H16.173ZM14.9566 13.1492H15.0762V13.5465H14.9531L14.9566 13.1492Z" fill="white"/>
<path fill-rule="evenodd" clip-rule="evenodd" d="M16.0781 12.8398H16.1941V13.543H16.0781V12.8398ZM15.7793 12.8398H15.8988V13.543H15.7793V12.8398ZM14.2043 13.1211V13.2406H13.5715V13.1211H14.2043ZM15.5859 13.1211V13.2406H14.9531V13.1211H15.5859Z" fill="white"/>
<path fill-rule="evenodd" clip-rule="evenodd" d="M14.9531 13.1527H15.0762V13.5429H14.9531V13.1527Z" fill="white"/>
<path fill-rule="evenodd" clip-rule="evenodd" d="M14.9531 13.1527H15.0762V13.5429H14.9531V13.1527Z" fill="white"/>
<path fill-rule="evenodd" clip-rule="evenodd" d="M14.9531 13.1527H15.0762V13.5429H14.9531V13.1527ZM13.575 13.1527H13.6945V13.5429H13.575V13.1527ZM14.5875 13.1527H14.707V13.5429H14.5875V13.1527ZM14.0848 13.1527H14.2043V13.5429H14.0848V13.1527Z" fill="white"/>
<path fill-rule="evenodd" clip-rule="evenodd" d="M14.6719 13.427V13.5465H14.1375V13.427H14.6719ZM14.707 13.1211V13.2406H14.3695V13.1211H14.707Z" fill="white"/>
<path fill-rule="evenodd" clip-rule="evenodd" d="M16.4086 12.8398H18.1313V12.9559H16.4086V12.8398ZM16.6652 13.4305H16.7848V13.5465H16.6652V13.4305ZM18.1418 13.4305V13.5465H17.7938V13.427L18.1418 13.4305ZM18.3246 12.8398H18.4441V13.543H18.3246V12.8398Z" fill="white"/>
<path fill-rule="evenodd" clip-rule="evenodd" d="M19.0102 13.427V13.5465H18.3563V13.427H19.0102ZM17.7938 13.1492H17.9133V13.5465H17.7938V13.1492Z" fill="white"/>
<path fill-rule="evenodd" clip-rule="evenodd" d="M18.9152 12.8398H19.0312V13.543H18.9152V12.8398ZM18.6164 12.8398H18.7359V13.543H18.6164V12.8398ZM17.0414 13.1211V13.2406H16.4121V13.1211H17.0414ZM18.423 13.1211V13.2406H17.7937V13.1211H18.423Z" fill="white"/>
<path fill-rule="evenodd" clip-rule="evenodd" d="M17.7938 13.1527H17.9133V13.5429H17.7938V13.1527Z" fill="white"/>
<path fill-rule="evenodd" clip-rule="evenodd" d="M17.7938 13.1527H17.9133V13.5429H17.7938V13.1527Z" fill="white"/>
<path fill-rule="evenodd" clip-rule="evenodd" d="M17.7937 13.1527H17.9133V13.5429H17.7937V13.1527ZM16.4121 13.1527H16.5316V13.5429H16.4121V13.1527ZM17.4246 13.1527H17.5441V13.5429H17.4246V13.1527ZM16.9219 13.1527H17.0414V13.5429H16.9254L16.9219 13.1527Z" fill="white"/>
<path fill-rule="evenodd" clip-rule="evenodd" d="M17.509 13.427V13.5465H16.9781V13.427H17.509ZM17.5441 13.1211V13.2406H17.2031V13.1211H17.5441Z" fill="white"/>
<path fill-rule="evenodd" clip-rule="evenodd" d="M19.2492 12.8398H20.9719V12.9559H19.2492V12.8398ZM19.5059 13.4305H19.6254V13.5465H19.5059V13.4305ZM20.9789 13.4305V13.5465H20.6344V13.427L20.9789 13.4305ZM21.1617 12.8398H21.2813V13.543H21.1617V12.8398Z" fill="white"/>
<path fill-rule="evenodd" clip-rule="evenodd" d="M21.8508 13.427V13.5465H21.1969V13.427H21.8508ZM20.6309 13.1492H20.7504V13.5465H20.6309V13.1492Z" fill="white"/>
<path fill-rule="evenodd" clip-rule="evenodd" d="M21.7523 12.8398H21.8719V13.543H21.7523V12.8398ZM21.457 12.8398H21.573V13.543H21.457V12.8398ZM19.882 13.1211V13.2406H19.2492V13.1211H19.882ZM21.2637 13.1211V13.2406H20.6309V13.1211H21.2637Z" fill="white"/>
<path fill-rule="evenodd" clip-rule="evenodd" d="M20.6344 13.1527H20.7504V13.5429H20.6344V13.1527Z" fill="white"/>
<path fill-rule="evenodd" clip-rule="evenodd" d="M20.6344 13.1527H20.7504V13.5429H20.6344V13.1527Z" fill="white"/>
<path fill-rule="evenodd" clip-rule="evenodd" d="M20.6344 13.1527H20.7504V13.5429H20.6344V13.1527ZM19.2492 13.1527H19.3688V13.5429H19.2492V13.1527ZM20.2652 13.1527H20.3813V13.5429H20.2652V13.1527ZM19.7625 13.1527H19.882V13.5429H19.7625V13.1527Z" fill="white"/>
<path fill-rule="evenodd" clip-rule="evenodd" d="M20.3461 13.427V13.5465H19.8152V13.427H20.3461ZM20.3812 13.1211V13.2406H20.0437V13.1211H20.3812Z" fill="white"/>
<path fill-rule="evenodd" clip-rule="evenodd" d="M22.1039 12.8398H23.8266V12.9559H22.1039V12.8398ZM22.3605 13.4305H22.4801V13.5465H22.3605V13.4305ZM23.8336 13.4305V13.5465H23.4891V13.427L23.8336 13.4305ZM24.0164 12.8398H24.1359V13.543H24.0164V12.8398Z" fill="white"/>
<path fill-rule="evenodd" clip-rule="evenodd" d="M24.7055 13.427V13.5465H24.0516V13.427H24.7055ZM23.4891 13.1492H23.6051V13.5465H23.4891V13.1492Z" fill="white"/>
<path fill-rule="evenodd" clip-rule="evenodd" d="M24.607 12.8398H24.7266V13.543H24.607V12.8398ZM24.3117 12.8398H24.4277V13.543H24.3117V12.8398ZM22.7367 13.1211V13.2406H22.1039V13.1211H22.7367ZM24.1184 13.1211V13.2406H23.4855V13.1211H24.1184Z" fill="white"/>
<path fill-rule="evenodd" clip-rule="evenodd" d="M23.4891 13.1527H23.6051V13.5429H23.4891V13.1527Z" fill="white"/>
<path fill-rule="evenodd" clip-rule="evenodd" d="M23.4891 13.1527H23.6051V13.5429H23.4891V13.1527Z" fill="white"/>
<path fill-rule="evenodd" clip-rule="evenodd" d="M23.4891 13.1527H23.6051V13.5429H23.4891V13.1527ZM22.1074 13.1527H22.2234V13.5429H22.1074V13.1527ZM23.1199 13.1527H23.2395V13.5429H23.1199V13.1527ZM22.6172 13.1527H22.7367V13.5429H22.6172V13.1527Z" fill="white"/>
<path fill-rule="evenodd" clip-rule="evenodd" d="M23.2008 13.427V13.5465H22.6699V13.427H23.2008ZM23.2359 13.1211V13.2406H22.8984V13.1211H23.2359Z" fill="white"/>
<path fill-rule="evenodd" clip-rule="evenodd" d="M2.24063 5.54138H3.96329V5.66091H2.24063V5.54138ZM2.49727 6.13904H2.6168V6.25154H2.49727V6.13904ZM3.97032 6.13201V6.25154H3.62579V6.13201H3.97032ZM4.15313 5.54138H4.27266V6.25154H4.15313V5.54138Z" fill="white"/>
<path fill-rule="evenodd" clip-rule="evenodd" d="M4.84219 6.13198V6.25151H4.18828V6.13198H4.84219ZM3.62578 5.85425H3.73828V6.25151H3.62227L3.62578 5.85425Z" fill="white"/>
<path fill-rule="evenodd" clip-rule="evenodd" d="M4.74376 5.54138H4.86329V6.25154H4.74376V5.54138ZM4.44844 5.54138H4.56446V6.25154H4.44844V5.54138ZM2.87344 5.82263V5.94216H2.24063V5.82615L2.87344 5.82263ZM4.25508 5.82263V5.94216H3.62227V5.82615L4.25508 5.82263Z" fill="white"/>
<path fill-rule="evenodd" clip-rule="evenodd" d="M3.62578 5.85425H3.73828V6.25151H3.62227L3.62578 5.85425Z" fill="white"/>
<path fill-rule="evenodd" clip-rule="evenodd" d="M3.62578 5.85425H3.73828V6.25151H3.62227L3.62578 5.85425Z" fill="white"/>
<path fill-rule="evenodd" clip-rule="evenodd" d="M3.62578 5.85425H3.73828V6.25151H3.62227L3.62578 5.85425ZM2.24414 5.85425H2.36016V6.25151H2.24414V5.85425ZM3.25664 5.85425H3.37617V6.25151H3.25664V5.85425ZM2.75391 5.85425H2.87344V6.25151H2.75391V5.85425Z" fill="white"/>
<path fill-rule="evenodd" clip-rule="evenodd" d="M3.3375 6.13203V6.25156H2.80664V6.13203H3.3375ZM3.37266 5.82617V5.94219H3.03516V5.82617H3.37266Z" fill="white"/>
<path fill-rule="evenodd" clip-rule="evenodd" d="M-0.592972 5.54138H1.12968V5.66091H-0.592972V5.54138ZM-0.336331 6.13904H-0.2168V6.25154H-0.339847L-0.336331 6.13904ZM1.13672 6.13201V6.25154H0.792184V6.13201H1.13672ZM1.31953 5.54138H1.43906V6.25154H1.31953V5.54138Z" fill="white"/>
<path fill-rule="evenodd" clip-rule="evenodd" d="M2.0086 6.13198V6.25151H1.35469V6.13198H2.0086ZM0.792191 5.85425H0.908206V6.25151H0.792191V5.85425Z" fill="white"/>
<path fill-rule="evenodd" clip-rule="evenodd" d="M1.91015 5.54138H2.02968V6.25154H1.91015V5.54138ZM1.61484 5.54138H1.73086V6.25154H1.61484V5.54138ZM0.0398408 5.82263V5.94216H-0.592972V5.82615L0.0398408 5.82263ZM1.42148 5.82263V5.94216H0.788669V5.82615L1.42148 5.82263Z" fill="white"/>
<path fill-rule="evenodd" clip-rule="evenodd" d="M0.792191 5.85425H0.908206V6.25151H0.792191V5.85425Z" fill="white"/>
<path fill-rule="evenodd" clip-rule="evenodd" d="M0.792191 5.85425H0.908206V6.25151H0.792191V5.85425Z" fill="white"/>
<path fill-rule="evenodd" clip-rule="evenodd" d="M0.792178 5.85425H0.908194V6.25151H0.792178V5.85425ZM-0.589462 5.85425H-0.473447V6.25151H-0.589462V5.85425ZM0.423038 5.85425H0.539053V6.25151H0.423038V5.85425ZM-0.0796967 5.85425H0.0398346V6.25151H-0.0796967V5.85425Z" fill="white"/>
<path fill-rule="evenodd" clip-rule="evenodd" d="M0.503906 6.13203V6.25156H-0.0234375V6.13203H0.503906ZM0.539062 5.82617V5.94219H0.201563V5.82617H0.539062Z" fill="white"/>
<path fill-rule="evenodd" clip-rule="evenodd" d="M5.04961 5.54138H6.77226V5.66091H5.04961V5.54138ZM5.30625 6.13904H5.42578V6.25154H5.30625V6.13904ZM6.77929 6.13201V6.25154H6.43476V6.13201H6.77929ZM6.96562 5.54138H7.08515V6.25154H6.96562V5.54138Z" fill="white"/>
<path fill-rule="evenodd" clip-rule="evenodd" d="M7.65118 6.13198V6.25151H6.99727V6.13198H7.65118ZM6.43477 5.85425H6.5543V6.25151H6.43477V5.85425Z" fill="white"/>
<path fill-rule="evenodd" clip-rule="evenodd" d="M7.55273 5.54138H7.67226V6.25154H7.55273V5.54138ZM7.25742 5.54138H7.37695V6.25154H7.2539L7.25742 5.54138ZM5.68242 5.82263V5.94216H5.04961V5.82615L5.68242 5.82263ZM7.06406 5.82263V5.94216H6.43125V5.82615L7.06406 5.82263Z" fill="white"/>
<path fill-rule="evenodd" clip-rule="evenodd" d="M6.43477 5.85425H6.5543V6.25151H6.43477V5.85425Z" fill="white"/>
<path fill-rule="evenodd" clip-rule="evenodd" d="M6.43477 5.85425H6.5543V6.25151H6.43477V5.85425Z" fill="white"/>
<path fill-rule="evenodd" clip-rule="evenodd" d="M6.43476 5.85425H6.55429V6.25151H6.43476V5.85425ZM5.05312 5.85425H5.17265V6.25151H5.05312V5.85425ZM6.06562 5.85425H6.18515V6.25151H6.06562V5.85425ZM5.56288 5.85425H5.68241V6.25151H5.56288V5.85425Z" fill="white"/>
<path fill-rule="evenodd" clip-rule="evenodd" d="M6.14999 6.13203V6.25156H5.61562V6.13203H6.14999ZM6.18515 5.82617V5.94219H5.84765V5.82617H6.18515Z" fill="white"/>
<path fill-rule="evenodd" clip-rule="evenodd" d="M7.87617 5.54138H9.60235V5.66091H7.87969L7.87617 5.54138ZM8.13633 6.13904H8.25235V6.25154H8.13633V6.13904ZM9.60586 6.13201V6.25154H9.26133V6.13201H9.60586ZM9.79219 5.54138H9.91172V6.25154H9.79219V5.54138Z" fill="white"/>
<path fill-rule="evenodd" clip-rule="evenodd" d="M10.4813 6.13198V6.25151H9.82735V6.13198H10.4813ZM9.26134 5.85425H9.38087V6.25151H9.26134V5.85425Z" fill="white"/>
<path fill-rule="evenodd" clip-rule="evenodd" d="M10.3828 5.54138H10.5023V6.25154H10.3828V5.54138ZM10.084 5.54138H10.2035V6.25154H10.084V5.54138ZM8.50898 5.82263V5.94216H7.87968V5.82615L8.50898 5.82263ZM9.89062 5.82263V5.94216H9.26133V5.82615L9.89062 5.82263Z" fill="white"/>
<path fill-rule="evenodd" clip-rule="evenodd" d="M9.26134 5.85425H9.38087V6.25151H9.26134V5.85425Z" fill="white"/>
<path fill-rule="evenodd" clip-rule="evenodd" d="M9.26134 5.85425H9.38087V6.25151H9.26134V5.85425Z" fill="white"/>
<path fill-rule="evenodd" clip-rule="evenodd" d="M9.26133 5.85425H9.38086V6.25151H9.26133V5.85425ZM7.87968 5.85425H7.99922V6.25151H7.87968V5.85425ZM8.89218 5.85425H9.01172V6.25151H8.89218V5.85425ZM8.39297 5.85425H8.50898V6.25151H8.39297V5.85425Z" fill="white"/>
<path fill-rule="evenodd" clip-rule="evenodd" d="M8.97657 6.13203V6.25156H8.44571V6.13203H8.97657ZM9.01173 5.82617V5.94219H8.67422V5.82617H9.01173Z" fill="white"/>
<path fill-rule="evenodd" clip-rule="evenodd" d="M10.7168 5.54138H12.4395V5.66091H10.7168V5.54138ZM10.9734 6.13904H11.093V6.25154H10.9734V6.13904ZM12.4465 6.13201V6.25154H12.102V6.13201H12.4465ZM12.6328 5.54138H12.7488V6.25154H12.6328V5.54138Z" fill="white"/>
<path fill-rule="evenodd" clip-rule="evenodd" d="M13.3184 6.13198V6.25151H12.6645V6.13198H13.3184ZM12.102 5.85425H12.2215V6.25151H12.102V5.85425Z" fill="white"/>
<path fill-rule="evenodd" clip-rule="evenodd" d="M13.2199 5.54138H13.3395V6.25154H13.2199V5.54138ZM12.9246 5.54138H13.0441V6.25154H12.9246V5.54138ZM11.3496 5.82263V5.94216H10.7168V5.82615L11.3496 5.82263ZM12.7312 5.82263V5.94216H12.0984V5.82615L12.7312 5.82263Z" fill="white"/>
<path fill-rule="evenodd" clip-rule="evenodd" d="M12.102 5.85425H12.2215V6.25151H12.102V5.85425Z" fill="white"/>
<path fill-rule="evenodd" clip-rule="evenodd" d="M12.102 5.85425H12.2215V6.25151H12.102V5.85425Z" fill="white"/>
<path fill-rule="evenodd" clip-rule="evenodd" d="M12.1019 5.85425H12.2215V6.25151H12.1019V5.85425ZM10.7203 5.85425H10.8363V6.25151H10.7203V5.85425ZM11.7328 5.85425H11.8523V6.25151H11.7328V5.85425ZM11.2301 5.85425H11.3496V6.25151H11.2266L11.2301 5.85425Z" fill="white"/>
<path fill-rule="evenodd" clip-rule="evenodd" d="M11.8172 6.13203V6.25156H11.2828V6.13203H11.8172ZM11.8523 5.82617V5.94219H11.5078V5.82617H11.8523Z" fill="white"/>
<path fill-rule="evenodd" clip-rule="evenodd" d="M13.5715 5.54138H15.2941V5.66091H13.5715V5.54138ZM13.8281 6.13904H13.9477V6.25154H13.8281V6.13904ZM15.3012 6.13201V6.25154H14.9531V6.13201H15.3012ZM15.4875 5.54138H15.6035V6.25154H15.4875V5.54138Z" fill="white"/>
<path fill-rule="evenodd" clip-rule="evenodd" d="M16.173 6.13198V6.25151H15.5191V6.13198H16.173ZM14.9566 5.85425H15.0762V6.25151H14.9531L14.9566 5.85425Z" fill="white"/>
<path fill-rule="evenodd" clip-rule="evenodd" d="M16.0781 5.54138H16.1941V6.25154H16.0781V5.54138ZM15.7793 5.54138H15.8988V6.25154H15.7793V5.54138ZM14.2043 5.82263V5.94216H13.5715V5.82615L14.2043 5.82263ZM15.5859 5.82263V5.94216H14.9531V5.82615L15.5859 5.82263Z" fill="white"/>
<path fill-rule="evenodd" clip-rule="evenodd" d="M14.9531 5.85425H15.0762V6.25151H14.9531V5.85425Z" fill="white"/>
<path fill-rule="evenodd" clip-rule="evenodd" d="M14.9531 5.85425H15.0762V6.25151H14.9531V5.85425Z" fill="white"/>
<path fill-rule="evenodd" clip-rule="evenodd" d="M14.9531 5.85425H15.0762V6.25151H14.9531V5.85425ZM13.575 5.85425H13.6945V6.25151H13.575V5.85425ZM14.5875 5.85425H14.707V6.25151H14.5875V5.85425ZM14.0848 5.85425H14.2043V6.25151H14.0848V5.85425Z" fill="white"/>
<path fill-rule="evenodd" clip-rule="evenodd" d="M14.6719 6.13203V6.25156H14.1375V6.13203H14.6719ZM14.707 5.82617V5.94219H14.3695V5.82617H14.707Z" fill="white"/>
<path fill-rule="evenodd" clip-rule="evenodd" d="M16.4086 5.54138H18.1313V5.66091H16.4086V5.54138ZM16.6652 6.13904H16.7848V6.25154H16.6652V6.13904ZM18.1418 6.13201V6.25154H17.7938V6.13201H18.1418ZM18.3246 5.54138H18.4441V6.25154H18.3246V5.54138Z" fill="white"/>
<path fill-rule="evenodd" clip-rule="evenodd" d="M19.0102 6.13198V6.25151H18.3563V6.13198H19.0102ZM17.7938 5.85425H17.9133V6.25151H17.7938V5.85425Z" fill="white"/>
<path fill-rule="evenodd" clip-rule="evenodd" d="M18.9152 5.54138H19.0312V6.25154H18.9152V5.54138ZM18.6164 5.54138H18.7359V6.25154H18.6164V5.54138ZM17.0414 5.82263V5.94216H16.4121V5.82615L17.0414 5.82263ZM18.423 5.82263V5.94216H17.7937V5.82615L18.423 5.82263Z" fill="white"/>
<path fill-rule="evenodd" clip-rule="evenodd" d="M17.7938 5.85425H17.9133V6.25151H17.7938V5.85425Z" fill="white"/>
<path fill-rule="evenodd" clip-rule="evenodd" d="M17.7938 5.85425H17.9133V6.25151H17.7938V5.85425Z" fill="white"/>
<path fill-rule="evenodd" clip-rule="evenodd" d="M17.7937 5.85425H17.9133V6.25151H17.7937V5.85425ZM16.4121 5.85425H16.5316V6.25151H16.4121V5.85425ZM17.4246 5.85425H17.5441V6.25151H17.4246V5.85425ZM16.9219 5.85425H17.0414V6.25151H16.9254L16.9219 5.85425Z" fill="white"/>
<path fill-rule="evenodd" clip-rule="evenodd" d="M17.509 6.13203V6.25156H16.9781V6.13203H17.509ZM17.5441 5.82617V5.94219H17.2031V5.82617H17.5441Z" fill="white"/>
<path fill-rule="evenodd" clip-rule="evenodd" d="M19.2492 5.54138H20.9719V5.66091H19.2492V5.54138ZM19.5059 6.13904H19.6254V6.25154H19.5059V6.13904ZM20.9789 6.13201V6.25154H20.6344V6.13201H20.9789ZM21.1617 5.54138H21.2813V6.25154H21.1617V5.54138Z" fill="white"/>
<path fill-rule="evenodd" clip-rule="evenodd" d="M21.8508 6.13198V6.25151H21.1969V6.13198H21.8508ZM20.6309 5.85425H20.7504V6.25151H20.6309V5.85425Z" fill="white"/>
<path fill-rule="evenodd" clip-rule="evenodd" d="M21.7523 5.54138H21.8719V6.25154H21.7523V5.54138ZM21.457 5.54138H21.573V6.25154H21.457V5.54138ZM19.882 5.82263V5.94216H19.2492V5.82615L19.882 5.82263ZM21.2637 5.82263V5.94216H20.6309V5.82615L21.2637 5.82263Z" fill="white"/>
<path fill-rule="evenodd" clip-rule="evenodd" d="M20.6344 5.85425H20.7504V6.25151H20.6344V5.85425Z" fill="white"/>
<path fill-rule="evenodd" clip-rule="evenodd" d="M20.6344 5.85425H20.7504V6.25151H20.6344V5.85425Z" fill="white"/>
<path fill-rule="evenodd" clip-rule="evenodd" d="M20.6344 5.85425H20.7504V6.25151H20.6344V5.85425ZM19.2492 5.85425H19.3688V6.25151H19.2492V5.85425ZM20.2652 5.85425H20.3813V6.25151H20.2652V5.85425ZM19.7625 5.85425H19.882V6.25151H19.7625V5.85425Z" fill="white"/>
<path fill-rule="evenodd" clip-rule="evenodd" d="M20.3461 6.13203V6.25156H19.8152V6.13203H20.3461ZM20.3812 5.82617V5.94219H20.0437V5.82617H20.3812Z" fill="white"/>
<path fill-rule="evenodd" clip-rule="evenodd" d="M22.1039 5.54138H23.8266V5.66091H22.1039V5.54138ZM22.3605 6.13904H22.4801V6.25154H22.3605V6.13904ZM23.8336 6.13201V6.25154H23.4891V6.13201H23.8336ZM24.0164 5.54138H24.1359V6.25154H24.0164V5.54138Z" fill="white"/>
<path fill-rule="evenodd" clip-rule="evenodd" d="M24.7055 6.13198V6.25151H24.0516V6.13198H24.7055ZM23.4891 5.85425H23.6051V6.25151H23.4891V5.85425Z" fill="white"/>
<path fill-rule="evenodd" clip-rule="evenodd" d="M24.607 5.54138H24.7266V6.25154H24.607V5.54138ZM24.3117 5.54138H24.4277V6.25154H24.3117V5.54138ZM22.7367 5.82263V5.94216H22.1039V5.82615L22.7367 5.82263ZM24.1184 5.82263V5.94216H23.4855V5.82615L24.1184 5.82263Z" fill="white"/>
<path fill-rule="evenodd" clip-rule="evenodd" d="M23.4891 5.85425H23.6051V6.25151H23.4891V5.85425Z" fill="white"/>
<path fill-rule="evenodd" clip-rule="evenodd" d="M23.4891 5.85425H23.6051V6.25151H23.4891V5.85425Z" fill="white"/>
<path fill-rule="evenodd" clip-rule="evenodd" d="M23.4891 5.85425H23.6051V6.25151H23.4891V5.85425ZM22.1074 5.85425H22.2234V6.25151H22.1074V5.85425ZM23.1199 5.85425H23.2395V6.25151H23.1199V5.85425ZM22.6172 5.85425H22.7367V6.25151H22.6172V5.85425Z" fill="white"/>
<path fill-rule="evenodd" clip-rule="evenodd" d="M23.2008 6.13203V6.25156H22.6699V6.13203H23.2008ZM23.2359 5.82617V5.94219H22.8984V5.82617H23.2359Z" fill="white"/>
<path fill-rule="evenodd" clip-rule="evenodd" d="M0.58125 12.4355H0.792187V12.8047H0.58125V12.4355ZM6.22383 12.4355H6.43477V12.8047H6.22383V12.4355ZM-3.75 12.4355H-3.53906V12.8047H-3.75V12.4355ZM-0.884766 12.4355H-0.673828V12.8047H-0.884766V12.4355ZM1.95937 12.4355H2.17031V12.8047H1.95937V12.4355ZM3.36562 12.4355H3.57656V12.8047H3.36562V12.4355ZM4.80352 12.4355H5.01445V12.8047H4.80352V12.4355ZM7.63008 12.4355H7.84102V12.8047H7.63008V12.4355ZM14.7668 12.4355H14.9812V12.8047H14.7703L14.7668 12.4355ZM9.06797 12.4355H9.27891V12.8047H9.06797V12.4355ZM10.4742 12.4355H10.6852V12.8047H10.4742V12.4355ZM11.898 12.4355H12.109V12.8047H11.898V12.4355ZM13.3184 12.4355H13.5293V12.8047H13.3184V12.4355ZM24.6809 12.4355H24.8918V12.8047H24.6809V12.4355ZM16.1484 12.4355H16.3594V12.8047H16.1484V12.4355ZM17.5828 12.4355H17.7937V12.8047H17.5828V12.4355ZM19.0348 12.4355H19.2457V12.8047H19.0348V12.4355ZM20.3988 12.4355H20.6098V12.8047H20.3988V12.4355ZM21.8508 12.4355H22.0617V12.8047H21.8508V12.4355ZM23.2711 12.4355H23.482V12.8047H23.2711V12.4355ZM27.4793 12.4355H27.6902V12.8047H27.4793V12.4355ZM26.1152 12.4355H26.3262V12.8047H26.1152V12.4355ZM-2.32266 12.4355H-2.11172V12.8047H-2.32266V12.4355Z" fill="#D90000"/>
<path fill-rule="evenodd" clip-rule="evenodd" d="M0.58125 6.21643H0.792187V6.58557H0.58125V6.21643ZM6.22383 6.21643H6.43477V6.58557H6.22383V6.21643ZM-3.75 6.21643H-3.53906V6.58557H-3.75V6.21643ZM-0.884766 6.21643H-0.673828V6.58557H-0.884766V6.21643ZM1.95937 6.21643H2.17031V6.58557H1.95937V6.21643ZM3.36562 6.21643H3.57656V6.58557H3.36562V6.21643ZM4.80352 6.21643H5.01445V6.58557H4.80352V6.21643ZM7.63008 6.21643H7.84102V6.58557H7.63008V6.21643ZM14.7668 6.21643H14.9812V6.58557H14.7703L14.7668 6.21643ZM9.06797 6.21643H9.27891V6.58557H9.06797V6.21643ZM10.4742 6.21643H10.6852V6.58557H10.4742V6.21643ZM11.898 6.21643H12.109V6.58557H11.898V6.21643ZM13.3184 6.21643H13.5293V6.58557H13.3184V6.21643ZM24.6809 6.21643H24.8918V6.58557H24.6809V6.21643ZM16.1484 6.21643H16.3594V6.58557H16.1484V6.21643ZM17.5828 6.21643H17.7937V6.58557H17.5828V6.21643ZM19.0348 6.21643H19.2457V6.58557H19.0348V6.21643ZM20.3988 6.21643H20.6098V6.58557H20.3988V6.21643ZM21.8508 6.21643H22.0617V6.58557H21.8508V6.21643ZM23.2711 6.21643H23.482V6.58557H23.2711V6.21643ZM27.4793 6.21643H27.6902V6.58557H27.4793V6.21643ZM26.1152 6.21643H26.3262V6.58557H26.1152V6.21643ZM-2.32266 6.21643H-2.11172V6.58557H-2.32266V6.21643Z" fill="#239E3F"/>
<path fill-rule="evenodd" clip-rule="evenodd" d="M12.8367 7.44336C13.132 7.80898 14.0496 9.81992 12.2848 11.1418C11.4516 11.7676 11.9684 11.7957 11.993 11.9012C13.3289 11.1945 13.7613 10.2312 13.7508 9.36992C13.7437 8.51211 13.2867 7.75273 12.8367 7.44336Z" fill="#DA0000"/>
<path fill-rule="evenodd" clip-rule="evenodd" d="M13.0125 7.34839C13.3387 7.54687 13.6167 7.81535 13.8264 8.13442C14.0361 8.45349 14.1723 8.81518 14.2251 9.19334C14.278 9.57149 14.2461 9.95666 14.1318 10.321C14.0176 10.6853 13.8238 11.0197 13.5645 11.3C14.5207 11.089 15.7441 8.26245 13.0125 7.34839ZM10.9875 7.34839C10.6616 7.54717 10.3839 7.81588 10.1745 8.13509C9.96512 8.45431 9.82928 8.81606 9.7768 9.1942C9.72432 9.57233 9.75651 9.9574 9.87104 10.3216C9.98557 10.6857 10.1796 11.0199 10.4391 11.3C9.4793 11.089 8.25937 8.26245 10.9875 7.34839Z" fill="#DA0000"/>
<path fill-rule="evenodd" clip-rule="evenodd" d="M11.1633 7.44336C10.868 7.80898 9.9504 9.81992 11.7152 11.1418C12.5449 11.7676 12.0316 11.7957 12.007 11.9012C10.6711 11.1945 10.2387 10.2312 10.2492 9.36992C10.2563 8.51211 10.7133 7.75273 11.1633 7.44336Z" fill="#DA0000"/>
<path fill-rule="evenodd" clip-rule="evenodd" d="M13.6945 11.7183C13.1707 11.7254 12.5133 11.648 12.0246 11.3914C12.1055 11.5496 12.1723 11.648 12.2531 11.8027C12.7172 11.8484 13.3606 11.9011 13.6945 11.7183ZM10.3547 11.7183C10.8785 11.7254 11.5359 11.648 12.0246 11.3914C11.9438 11.5496 11.877 11.648 11.7961 11.8027C11.332 11.8484 10.6887 11.9011 10.3547 11.7183ZM11.3145 6.84216C11.4199 7.12341 11.6977 7.1656 11.993 7.00037C12.2109 7.12693 12.5449 7.13748 12.6609 6.85623C12.7488 7.55232 12.0176 7.38357 11.993 7.24998C11.7188 7.51365 11.2125 7.36248 11.3145 6.84216Z" fill="#DA0000"/>
<path fill-rule="evenodd" clip-rule="evenodd" d="M12.0141 12.1578L12.2883 11.8414L12.327 7.61909L12 7.33081L11.673 7.60503L11.7398 11.8589L12.0141 12.1578Z" fill="#DA0000"/>
</g>
</g>
<defs>
<clipPath id="clip0_17602_31902">
<rect width="24" height="18" fill="white" transform="translate(0 0.5)"/>
</clipPath>
</defs>
</svg>
