<svg width="24" height="19" viewBox="0 0 24 19" fill="none" xmlns="http://www.w3.org/2000/svg">
<g clip-path="url(#clip0_17602_31890)">
<path d="M0 6.5H24V12.5H0V6.5Z" fill="white"/>
<path d="M0 0.5H24V6.5H0V0.5Z" fill="#CE1126"/>
<path d="M0 12.5H24V18.5H0V12.5Z" fill="black"/>
<path d="M14.6594 8.39809C14.6252 8.38167 14.5941 8.35944 14.5674 8.33239C14.5477 8.29955 14.5609 8.29955 14.6463 8.31926C14.7974 8.36524 14.8959 8.34553 14.9944 8.2667L15.0798 8.19444L15.1784 8.24042C15.2375 8.27327 15.2966 8.29298 15.3098 8.28641C15.3557 8.27327 15.4477 8.15502 15.4411 8.11561C15.4411 8.06962 15.4806 8.08276 15.5068 8.13531C15.5463 8.24042 15.4871 8.36524 15.3755 8.39152C15.3295 8.40466 15.2835 8.39809 15.2047 8.37181C15.1127 8.33896 15.093 8.33896 15.047 8.37181C14.9919 8.41341 14.926 8.43805 14.8571 8.44272C14.7883 8.44739 14.7196 8.43188 14.6594 8.39809ZM15.0404 8.04991C14.9959 7.96957 14.9733 7.87897 14.9747 7.78714C14.9813 7.74772 14.9944 7.73459 15.0273 7.74772C15.093 7.76743 15.1061 7.81342 15.093 7.9448C15.093 8.06305 15.0733 8.0959 15.0404 8.04991ZM10.5996 7.9251C10.593 8.0105 10.7572 8.22729 10.8295 8.2667C10.7769 8.28641 10.7178 8.27984 10.6718 8.29955C10.409 8.56232 9.46306 9.48203 9.29226 9.70538C9.80467 9.71852 10.3696 9.69881 10.8492 9.67911C10.8492 9.33093 11.1777 9.31122 11.401 9.18641C11.5127 9.36378 11.7952 9.35064 11.8346 9.61998V10.7762H7.46599C7.44946 10.8639 7.41471 10.9471 7.36399 11.0205C7.31327 11.0938 7.2477 11.1558 7.17153 11.2022C7.09536 11.2487 7.01029 11.2786 6.92182 11.2901C6.83336 11.3016 6.74346 11.2943 6.65796 11.2689C6.78935 11.1375 7.0127 11.0849 7.09153 10.8944C7.15723 10.474 6.96015 10.2178 6.82876 9.97473C6.99402 9.92174 7.14939 9.84183 7.28861 9.73823C7.13752 10.1981 7.69591 10.1521 8.10321 10.139C8.11635 9.9813 8.10978 9.79735 7.99153 9.77108C8.14263 9.71195 8.1689 9.69224 8.42511 9.48203V10.1127L11.4536 10.1061C11.4536 9.90903 11.5061 9.58714 11.3485 9.58714C11.2039 9.58714 11.3485 9.99443 11.2302 9.99443H8.88496V9.60027C8.9835 9.49517 8.97036 9.50173 9.647 8.82509C9.7127 8.7594 10.1923 8.32583 10.6061 7.9251H10.5996ZM16.4528 7.90539C16.6171 7.99736 16.7484 8.11561 16.9455 8.16816C16.9258 8.25356 16.847 8.28641 16.8273 8.37181V10.1455C17.0506 10.1915 17.1032 10.0601 17.2083 9.99443C17.2346 10.2769 17.4185 10.5528 17.4054 10.7828H16.4528V7.91196V7.90539ZM15.1784 8.85794C15.1784 8.85794 15.5265 8.56232 15.5265 8.54918V10.093H15.7762L15.7696 8.36524C15.8682 8.26013 16.0718 8.11561 16.1178 8.0105V10.7696H13.9236C13.8908 10.1981 13.8842 9.60684 14.5543 9.73166V9.50173C14.5346 9.46232 14.4952 9.5083 14.4886 9.45575C14.5937 9.35064 14.6266 9.32436 14.9156 9.07473L14.9222 10.093H15.1784V8.85794ZM14.3506 10.0798C14.3966 10.1455 14.5609 10.1455 14.5477 10.0273C14.528 9.92874 14.3178 9.96159 14.3506 10.0798Z" fill="#007A3D"/>
<path d="M7.99154 11.236C8.0641 11.236 8.12293 11.1772 8.12293 11.1047C8.12293 11.0321 8.0641 10.9733 7.99154 10.9733C7.91898 10.9733 7.86015 11.0321 7.86015 11.1047C7.86015 11.1772 7.91898 11.236 7.99154 11.236Z" fill="#007A3D"/>
<path d="M12.1302 7.91199C12.2944 7.99739 12.4258 8.12221 12.6295 8.17476C12.6032 8.25359 12.5309 8.28644 12.5112 8.37184V10.1456C12.7346 10.1915 12.7806 10.0667 12.8857 9.99446C12.9185 10.2769 13.0959 10.5594 13.0893 10.7828H12.1302V7.91199Z" fill="#007A3D"/>
</g>
<defs>
<clipPath id="clip0_17602_31890">
<rect width="24" height="18" fill="white" transform="translate(0 0.5)"/>
</clipPath>
</defs>
</svg>
