<svg width="24" height="19" viewBox="0 0 24 19" fill="none" xmlns="http://www.w3.org/2000/svg">
<g clip-path="url(#clip0_17602_32123)">
<mask id="mask0_17602_32123" style="mask-type:luminance" maskUnits="userSpaceOnUse" x="-1" y="0" width="26" height="19">
<path d="M-0.00915527 0.5H24.0525V18.548H-0.00915527V0.5Z" fill="white"/>
</mask>
<g mask="url(#mask0_17602_32123)">
<path fill-rule="evenodd" clip-rule="evenodd" d="M24.9126 18.548H-0.869263V0.5H24.9126V18.548Z" fill="white"/>
<path fill-rule="evenodd" clip-rule="evenodd" d="M24.9126 4.56082H-0.869263V2.19202H24.9126V4.56082ZM24.9126 16.9159H-0.869263V14.5471H24.9126V16.9159ZM7.88684 7.22219L11.7679 13.9761L15.7335 7.25392L7.88684 7.22572V7.22219Z" fill="#0038B8"/>
<path fill-rule="evenodd" clip-rule="evenodd" d="M11.0382 11.7025L11.7749 12.9538L12.5293 11.7095L11.0347 11.7025H11.0382Z" fill="white"/>
<path fill-rule="evenodd" clip-rule="evenodd" d="M7.87274 11.8011L11.7573 5.04724L15.7194 11.7729L7.87274 11.8011Z" fill="#0038B8"/>
<path fill-rule="evenodd" clip-rule="evenodd" d="M11.0382 7.25388L11.7749 6.0025L12.5293 7.25035L11.0347 7.25388H11.0382ZM9.49423 10.0563L8.72931 11.3253L10.1746 11.3217L9.49423 10.0527V10.0563ZM8.74341 7.71213L10.1957 7.7227L9.49776 9.00228L8.74341 7.71213ZM14.0732 10.0739L14.8099 11.3253L13.34 11.3076L14.0732 10.0739ZM14.7958 7.71213L13.3435 7.7227L14.0415 9.00228L14.7958 7.71213ZM10.7668 7.71213L9.76566 9.52398L10.7809 11.2971L12.6421 11.3394L13.7701 9.52398L12.7267 7.69098L10.7668 7.7086V7.71213Z" fill="white"/>
</g>
</g>
<defs>
<clipPath id="clip0_17602_32123">
<rect width="24" height="18" fill="white" transform="translate(0 0.5)"/>
</clipPath>
</defs>
</svg>
