<svg width="24" height="19" viewBox="0 0 24 19" fill="none" xmlns="http://www.w3.org/2000/svg">
<g clip-path="url(#clip0_17602_32175)">
<mask id="mask0_17602_32175" style="mask-type:luminance" maskUnits="userSpaceOnUse" x="0" y="0" width="24" height="19">
<path d="M0.00234985 0.5H24V18.5H0.00234985V0.5Z" fill="white"/>
</mask>
<g mask="url(#mask0_17602_32175)">
<path fill-rule="evenodd" clip-rule="evenodd" d="M0.00234985 0.5H36.0023V6.50117H0.00234985V0.5Z" fill="black"/>
<path fill-rule="evenodd" clip-rule="evenodd" d="M0.00234985 6.50116H36.0023V12.4988H0.00234985V6.50116Z" fill="white"/>
<path fill-rule="evenodd" clip-rule="evenodd" d="M0.00234985 12.4988H36.0023V18.5H0.00234985V12.4988Z" fill="#009900"/>
<path fill-rule="evenodd" clip-rule="evenodd" d="M0.00234985 18.5L18.0023 9.5L0.00234985 0.5V18.5Z" fill="#FF0000"/>
<path fill-rule="evenodd" clip-rule="evenodd" d="M5.00508 10.6601L5.20547 9.78474H4.30899L5.11758 9.39802L4.5586 8.69841L5.36719 9.08513L5.56407 8.21326L5.76446 9.08865L6.56954 8.69841L6.00704 9.39802L6.81563 9.78474H5.92266L6.12305 10.6601L5.56407 9.95701L5.00508 10.6601Z" fill="white"/>
</g>
</g>
<defs>
<clipPath id="clip0_17602_32175">
<rect width="24" height="18" fill="white" transform="translate(0 0.5)"/>
</clipPath>
</defs>
</svg>
