<svg width="18" height="18" viewBox="0 0 18 18" fill="none" xmlns="http://www.w3.org/2000/svg">
<path d="M14.901 1.96875H3.09902C2.475 1.96875 1.96875 2.475 1.96875 3.09902V14.901C1.96875 15.525 2.475 16.0312 3.09902 16.0312H14.901C15.525 16.0312 16.0312 15.525 16.0312 14.901V3.09902C16.0312 2.475 15.525 1.96875 14.901 1.96875ZM14.901 14.9062C7.02949 14.9045 3.09375 14.9027 3.09375 14.901C3.09551 7.02949 3.09727 3.09375 3.09902 3.09375C10.9705 3.09551 14.9062 3.09727 14.9062 3.09902C14.9045 10.9705 14.9027 14.9062 14.901 14.9062ZM4.05352 7.24043H6.14004V13.9518H4.05352V7.24043ZM5.09766 6.32285C5.76387 6.32285 6.30703 5.78145 6.30703 5.11348C6.30703 4.95466 6.27575 4.7974 6.21497 4.65067C6.1542 4.50394 6.06511 4.37062 5.95281 4.25832C5.84051 4.14602 5.70719 4.05694 5.56046 3.99616C5.41374 3.93538 5.25647 3.9041 5.09766 3.9041C4.93884 3.9041 4.78158 3.93538 4.63485 3.99616C4.48812 4.05694 4.3548 4.14602 4.2425 4.25832C4.1302 4.37062 4.04112 4.50394 3.98034 4.65067C3.91956 4.7974 3.88828 4.95466 3.88828 5.11348C3.88652 5.78145 4.42793 6.32285 5.09766 6.32285ZM9.53262 10.6312C9.53262 9.75586 9.69961 8.90859 10.7842 8.90859C11.8529 8.90859 11.8688 9.90879 11.8688 10.6875V13.9518H13.9535V10.2709C13.9535 8.46387 13.5633 7.07344 11.4521 7.07344C10.4379 7.07344 9.75762 7.63066 9.47813 8.15801H9.45V7.24043H7.44785V13.9518H9.53262V10.6312Z" fill="#08A081"/>
</svg>
