<svg width="71" height="70" viewBox="0 0 71 70" fill="none" xmlns="http://www.w3.org/2000/svg">
<rect x="0.5" width="70" height="70" rx="35" fill="#FFF8E6"/>
<path d="M23.3749 21.6969H20.7479C20.4802 21.6969 20.2633 21.48 20.2633 21.2122V14.269C20.2633 14.0013 20.4802 13.7844 20.7479 13.7844H23.3749C23.6426 13.7844 23.8595 14.0013 23.8595 14.269V21.2122C23.8595 21.4797 23.6426 21.6969 23.3749 21.6969Z" fill="white"/>
<path d="M39.6775 21.6969H37.0503C36.7826 21.6969 36.5657 21.48 36.5657 21.2122V14.269C36.5657 14.0013 36.7828 13.7844 37.0503 13.7844H39.6775C39.9453 13.7844 40.1621 14.0013 40.1621 14.269V21.2122C40.1621 21.4797 39.9453 21.6969 39.6775 21.6969Z" fill="white"/>
<path d="M40.162 17.7404V19.9919C40.162 20.9336 39.3987 21.6969 38.4571 21.6969H38.2702C37.3286 21.6969 36.5653 20.9336 36.5653 19.9919V17.7404H23.8593V19.9919C23.8593 20.9336 23.096 21.6969 22.1544 21.6969H21.9675C21.0259 21.6969 20.2626 20.9336 20.2626 19.9919V17.7404H14.9343C13.866 17.7404 13 18.6064 13 19.6747V26.3848H47.4238V19.6747C47.4238 18.6064 46.5578 17.7404 45.4895 17.7404H40.162Z" fill="#375560"/>
<path d="M47.4245 56.2156C53.2652 56.2156 57.9999 51.4809 57.9999 45.6402C57.9999 39.7996 53.2652 35.0648 47.4245 35.0648C41.5839 35.0648 36.8491 39.7996 36.8491 45.6402C36.8491 51.4809 41.5839 56.2156 47.4245 56.2156Z" fill="#FF928E"/>
<path d="M36.8491 45.6402C36.8491 39.7997 41.5838 35.0648 47.4245 35.0648V26.3849H13.0004V48.8289C13.0004 49.8972 13.8664 50.7633 14.9348 50.7633H38.1752C37.3327 49.245 36.8491 47.4997 36.8491 45.6402Z" fill="white"/>
<path d="M23.6771 30.6458H17.5877V36.735H23.6771V30.6458Z" fill="#00BA88"/>
<path d="M23.6771 40.4129H17.5877V46.502H23.6771V40.4129Z" fill="#00BA88"/>
<path d="M33.2574 30.6458H27.168V36.735H33.2574V30.6458Z" fill="#00BA88"/>
<path d="M33.2574 40.4129H27.168V46.502H33.2574V40.4129Z" fill="#00BA88"/>
<path d="M51.359 46.6071H47.4249C46.8908 46.6071 46.4578 46.1746 46.4578 45.64V38.5742C46.4578 38.0395 46.8908 37.6071 47.4249 37.6071C47.9591 37.6071 48.3921 38.0395 48.3921 38.5742V44.6728H51.3593C51.8934 44.6728 52.3264 45.1053 52.3264 45.64C52.3262 46.1746 51.8931 46.6071 51.359 46.6071Z" fill="white"/>
</svg>
