<svg width="71" height="70" viewBox="0 0 71 70" fill="none" xmlns="http://www.w3.org/2000/svg">
<rect x="0.5" width="70" height="70" rx="35" fill="#D7FCF2"/>
<path d="M38.9506 27.5841H32.3955C28.4078 27.5841 25.1753 30.8167 25.1753 34.8044V35.9554C25.1753 39.7123 28.0453 42.7961 31.7115 43.1411L33.553 47.837L34.5964 43.2755C35.0699 43.2676 35.6327 43.2357 36.2417 43.1757H38.95C42.937 43.1757 46.1696 39.9431 46.1696 35.9561V34.8051C46.1709 30.8167 42.9384 27.5841 38.9506 27.5841Z" fill="#FFF8E5"/>
<path d="M45.6664 53.6936H40.9705V52.7253H45.6664C47.3652 52.7253 49.3516 51.4001 50.0043 49.8311L50.1406 49.5038C50.871 47.747 51.3353 46.5829 51.4305 46.3149L51.4442 46.2764C51.4449 46.2738 51.4462 46.2712 51.4462 46.2693L51.467 46.2764H52.3996V46.3866C52.3996 46.4884 52.3996 46.594 51.0353 49.8755L50.8984 50.2028C50.0983 52.1266 47.7519 53.6936 45.6664 53.6936Z" fill="#15BAAC"/>
<path d="M34.078 13.5355C25.0964 13.5355 17.7894 20.8836 17.7894 29.9148V32.6713H20.1598V29.9148C20.1598 22.1943 26.4032 15.9138 34.078 15.9138H35.5003V13.5348H34.078V13.5355Z" fill="#15BAAC"/>
<path d="M36.9228 13.5355H35.4999V15.9144H36.9228C44.5969 15.9144 50.841 22.195 50.841 29.9154V32.6719H53.2101V29.9154C53.2101 20.8836 45.9031 13.5355 36.9228 13.5355Z" fill="#0A9B86"/>
<path d="M57.0811 32.9621C55.857 31.4323 53.8316 31.2979 53.8316 31.2979C53.109 31.1173 52.4269 31.1297 51.8217 31.2973V49.1738C52.4269 49.3414 53.109 49.3545 53.8316 49.1732C53.8316 49.1732 55.8577 49.0395 57.0811 47.5083C58.3064 45.9785 58.3064 34.4933 57.0811 32.9621Z" fill="#375560"/>
<path d="M49.3716 34.8018V45.67C49.3716 47.464 50.3706 48.7728 51.8216 49.1745V31.2979C50.3706 31.6996 49.3716 33.0078 49.3716 34.8018Z" fill="#0E2D38"/>
<path d="M17.168 31.2988C17.168 31.2988 15.1419 31.4332 13.9166 32.963C12.6945 34.4942 12.6945 45.9794 13.9166 47.5099C15.1419 49.0411 17.168 49.1747 17.168 49.1747C17.8906 49.356 18.572 49.343 19.1772 49.1754V31.2988C18.572 31.1306 17.8906 31.1175 17.168 31.2988Z" fill="#415B66"/>
<path d="M19.1772 31.2979V49.1745C20.6275 48.7728 21.6291 47.464 21.6291 45.67V34.8018C21.6291 33.0078 20.6275 31.6996 19.1772 31.2979Z" fill="#113240"/>
<path d="M41.5216 33.4917H30.1317C29.8643 33.4917 29.6471 33.2752 29.6471 33.0078C29.6471 32.7404 29.8643 32.5239 30.1317 32.5239H41.5216C41.789 32.5239 42.0061 32.7404 42.0061 33.0078C42.0061 33.2752 41.789 33.4917 41.5216 33.4917Z" fill="#113240"/>
<path d="M41.5216 36.1282H30.1317C29.8643 36.1282 29.6471 35.9116 29.6471 35.6443C29.6471 35.3769 29.8643 35.1604 30.1317 35.1604H41.5216C41.789 35.1604 42.0061 35.3769 42.0061 35.6443C42.0061 35.9116 41.789 36.1282 41.5216 36.1282Z" fill="#113240"/>
<path d="M41.5216 38.7647H30.1317C29.8643 38.7647 29.6471 38.5481 29.6471 38.2808C29.6471 38.0134 29.8643 37.7969 30.1317 37.7969H41.5216C41.789 37.7969 42.0061 38.0134 42.0061 38.2808C42.0061 38.5481 41.789 38.7647 41.5216 38.7647Z" fill="#113240"/>
<path d="M35.1341 56.4651H36.8212H38.5082C40.4398 56.4651 42.0062 54.8994 42.0062 52.9678H31.6368C31.6368 54.8987 33.2026 56.4651 35.1341 56.4651Z" fill="#0BAF9B"/>
<path d="M38.5082 49.4692H36.8211H35.1341C33.2025 49.4692 31.6368 51.035 31.6368 52.9672H42.0061C42.0061 51.035 40.4397 49.4692 38.5082 49.4692Z" fill="#15BAAC"/>
</svg>
