<svg width="71" height="70" viewBox="0 0 71 70" fill="none" xmlns="http://www.w3.org/2000/svg">
<rect x="0.5" width="70" height="70" rx="35" fill="#FFE1E9"/>
<path d="M57.9278 50.6764H26.0458C24.8518 50.6764 23.8848 49.7094 23.8848 48.5153V30.8339C23.8848 29.6399 24.8518 28.6729 26.0458 28.6729H57.9278C59.1219 28.6729 60.0889 29.6399 60.0889 30.8339V48.5153C60.0889 49.7067 59.1219 50.6764 57.9278 50.6764Z" fill="white"/>
<path d="M57.9285 50.1484C55.3721 50.1484 52.8183 50.1484 50.2619 50.1484C45.3574 50.1484 40.4529 50.1484 35.5484 50.1484C32.4416 50.1484 29.3322 50.1697 26.2255 50.1484C25.3386 50.143 24.5319 49.6462 24.4197 48.6925C24.377 48.3292 24.4117 47.9445 24.4117 47.5812C24.4117 45.6018 24.4117 43.6197 24.4117 41.6403C24.4117 39.2281 24.4117 36.8159 24.4117 34.4037C24.4117 33.2203 24.3583 32.0209 24.4117 30.8375C24.4918 29.1038 26.0786 29.2054 27.3154 29.2054C28.9289 29.2054 30.545 29.2054 32.1585 29.2054C36.9775 29.2054 41.7965 29.2054 46.6156 29.2054C50.1791 29.2054 53.7426 29.2054 57.3061 29.2054C57.5118 29.2054 57.7202 29.1947 57.9259 29.2054C59.0024 29.2588 59.5554 30.0842 59.558 31.0833C59.5634 32.7074 59.558 34.3343 59.558 35.9584C59.558 40.0642 59.5767 44.17 59.558 48.2731C59.558 49.2615 59.0077 50.103 57.9285 50.1484C57.25 50.1751 57.2473 51.2329 57.9285 51.2062C59.4432 51.1448 60.5678 50.0095 60.6185 48.4948C60.6319 48.0541 60.6185 47.6106 60.6185 47.1699C60.6185 44.958 60.6185 42.7462 60.6185 40.5317C60.6185 38.1141 60.6185 35.6993 60.6185 33.2818C60.6185 31.8767 60.9177 30.0201 59.8305 28.9302C58.9009 28.0006 57.6454 28.1422 56.4566 28.1422C54.7096 28.1422 52.9653 28.1422 51.2182 28.1422C46.1374 28.1422 41.0593 28.1422 35.9784 28.1422C32.7168 28.1422 29.4551 28.1101 26.1935 28.1422C25.2825 28.1502 24.4411 28.4841 23.8855 29.2347C23.4233 29.8598 23.3539 30.5597 23.3539 31.2997C23.3539 33.1803 23.3539 35.0609 23.3539 36.9414C23.3539 40.7908 23.2256 44.6615 23.3539 48.5082C23.4046 50.0121 24.5453 51.1528 26.0492 51.2009C26.2896 51.2089 26.53 51.2009 26.7705 51.2009C28.2557 51.2009 29.7409 51.2009 31.2262 51.2009C36.1868 51.2009 41.1447 51.2009 46.1053 51.2009C49.8452 51.2009 53.585 51.2009 57.3275 51.2009C57.5278 51.2009 57.7282 51.2009 57.9285 51.2009C58.6097 51.2062 58.6124 50.1484 57.9285 50.1484Z" fill="#0E2D38"/>
<path d="M26.0459 48.5586C26.0219 48.5586 26.0005 48.5372 26.0005 48.5132V32.9582C26.0005 31.7668 26.9755 30.7891 28.1696 30.7891H55.8069C56.9983 30.7891 57.976 31.7641 57.976 32.9582V48.5158C57.976 48.5399 57.9546 48.5612 57.9306 48.5612H26.0459V48.5586Z" fill="#8FE4DB"/>
<g opacity="0.61">
<path d="M42.518 40.9958C39.3044 42.8684 36.155 44.8371 33.0483 46.8807C32.2014 47.4363 31.3573 47.9973 30.5132 48.5583H57.9288C57.9528 48.5583 57.9742 48.5369 57.9742 48.5128V32.9578C57.9742 32.8537 57.9581 32.7522 57.9421 32.6533C52.7358 35.3086 47.5695 38.0494 42.518 40.9958Z" fill="#59C9BC"/>
</g>
<path d="M60.2414 54.1752H23.9358C22.6936 54.1752 21.6865 53.1682 21.6865 51.926C21.6865 50.6838 22.6936 49.6768 23.9358 49.6768H38.489C41.1229 51.7577 43.8209 51.8619 46.5911 49.6768H60.2441C61.4863 49.6768 62.4933 50.6838 62.4933 51.926C62.4907 53.1682 61.4836 54.1752 60.2414 54.1752Z" fill="white"/>
<path d="M21.7646 52.4883C22.0158 53.458 22.8893 54.1765 23.9364 54.1765H60.2421C61.2892 54.1765 62.1628 53.458 62.4139 52.4883H21.7646Z" fill="#DDD3DC"/>
<path d="M60.2418 53.6467C56.0586 53.6467 51.8753 53.6467 47.6894 53.6467C41.134 53.6467 34.5759 53.6467 28.0206 53.6467C26.6689 53.6467 25.3012 53.7082 23.9522 53.6467C22.9771 53.6013 22.1597 52.8533 22.2185 51.8329C22.2746 50.8472 23.076 50.2381 24.0109 50.2034C24.9486 50.1687 25.8915 50.2034 26.8292 50.2034C30.0988 50.2034 33.3712 50.2034 36.6409 50.2034C37.1137 50.2034 37.5865 50.2034 38.062 50.2034C38.1635 50.2034 38.3158 50.174 38.4119 50.2034C38.4333 50.2087 38.4627 50.1954 38.4814 50.2034C38.5241 50.2221 38.3825 50.2648 38.4146 50.2809C38.6497 50.3984 38.8661 50.6041 39.0904 50.7457C40.2471 51.4643 41.6095 51.905 42.9825 51.7875C43.653 51.7287 44.2968 51.5604 44.9165 51.2986C45.2024 51.1784 45.4775 51.0422 45.7447 50.8899C45.9156 50.7911 46.0839 50.6869 46.2495 50.5774C46.3858 50.4839 46.522 50.3904 46.6529 50.2889C46.6315 50.2622 46.6102 50.2328 46.5888 50.2061C46.7624 50.134 47.1204 50.2061 47.302 50.2061C47.8844 50.2061 48.4667 50.2061 49.0517 50.2061C50.748 50.2061 52.4443 50.2061 54.1406 50.2061C55.6712 50.2061 57.2045 50.2061 58.7352 50.2061C59.761 50.2061 61.0566 49.9977 61.6977 51.0101C62.4269 52.1615 61.5534 53.5933 60.2418 53.6467C59.5633 53.6734 59.5606 54.7313 60.2418 54.7045C62.8463 54.6004 64.0671 51.2212 61.8366 49.6531C60.907 48.9986 59.7209 49.1456 58.647 49.1456C55.2491 49.1456 51.8513 49.1456 48.456 49.1456C47.9458 49.1456 47.4356 49.1456 46.9254 49.1456C46.2602 49.1456 45.8836 49.5783 45.3119 49.9149C43.9362 50.7297 42.3842 50.9834 40.8615 50.4411C40.4635 50.2996 40.0842 50.1072 39.7235 49.8909C39.4003 49.6959 39.0931 49.3673 38.7565 49.2177C38.6149 49.1536 38.5081 49.1509 38.3665 49.1456C35.4682 49.0334 32.5457 49.1456 29.6474 49.1456C28.1114 49.1456 26.5754 49.1456 25.0394 49.1456C23.8052 49.1456 22.6032 49.1269 21.7457 50.2221C20.3112 52.06 21.7056 54.6324 23.9495 54.7045C24.3903 54.7179 24.8337 54.7045 25.2718 54.7045C31.4505 54.7045 37.6266 54.7045 43.8053 54.7045C49.1933 54.7045 54.5813 54.7045 59.9693 54.7045C60.0602 54.7045 60.151 54.7045 60.2418 54.7045C60.9203 54.7045 60.923 53.6467 60.2418 53.6467Z" fill="#0E2D38"/>
<path d="M26.1159 48.3053C26.1052 48.2999 26.0945 48.2973 26.0838 48.2919C26.1453 48.3534 26.2067 48.4148 26.2682 48.4762C26.2922 48.535 26.2655 48.4629 26.2655 48.4095C26.2628 48.3106 26.2655 48.2091 26.2655 48.1103C26.2655 47.7363 26.2655 47.3596 26.2655 46.9857C26.2655 45.7595 26.2655 44.5307 26.2655 43.3046C26.2655 40.5345 26.2655 37.7643 26.2655 34.9942C26.2655 34.3317 26.2601 33.6692 26.2655 33.0067C26.2735 31.8581 27.1684 31.0567 28.2877 31.054C29.7489 31.0513 31.2127 31.054 32.6739 31.054C35.4147 31.054 38.1554 31.054 40.8962 31.054C43.7759 31.054 46.6529 31.054 49.5325 31.054C51.4078 31.054 53.2857 31.054 55.161 31.054C55.7166 31.054 56.2562 31.0166 56.7637 31.3158C57.3728 31.6737 57.704 32.3175 57.7094 33.0147C57.7121 33.2418 57.7094 33.4689 57.7094 33.6959C57.7094 36.1856 57.7094 38.6752 57.7094 41.1649C57.7094 43.4862 57.7094 45.8103 57.7094 48.1316C57.7094 48.2251 57.7121 48.316 57.7094 48.4095C57.7094 48.4629 57.6827 48.5323 57.7067 48.4762C57.7681 48.4148 57.8296 48.3534 57.891 48.2919C57.9391 48.2705 57.9231 48.3053 57.8723 48.2946C57.8216 48.2866 57.7601 48.2946 57.7067 48.2946C57.493 48.2946 57.282 48.2946 57.0683 48.2946C56.2963 48.2946 55.5243 48.2946 54.7496 48.2946C52.2065 48.2946 49.6634 48.2946 47.1203 48.2946C44.0564 48.2946 40.9924 48.2946 37.9284 48.2946C35.2785 48.2946 32.6285 48.2946 29.9813 48.2946C29.1024 48.2946 28.2209 48.2946 27.342 48.2946C26.9306 48.2946 26.5086 48.2679 26.0972 48.2946C26.0785 48.2946 26.0598 48.2946 26.0411 48.2946C25.7018 48.2946 25.6992 48.8235 26.0411 48.8235C26.6528 48.8235 27.2645 48.8235 27.8736 48.8235C29.4443 48.8235 31.0151 48.8235 32.5858 48.8235C34.7202 48.8235 36.8572 48.8235 38.9916 48.8235C41.2969 48.8235 43.6022 48.8235 45.9076 48.8235C47.9885 48.8235 50.0695 48.8235 52.1504 48.8235C53.6169 48.8235 55.0835 48.8235 56.55 48.8235C56.9213 48.8235 57.2927 48.8235 57.6666 48.8235C57.9231 48.8235 58.1929 48.8449 58.2303 48.4949C58.2704 48.1183 58.2303 47.7149 58.2303 47.3356C58.2303 46.4834 58.2303 45.6313 58.2303 44.7792C58.2303 42.5326 58.2303 40.286 58.2303 38.0395C58.2303 36.4474 58.2303 34.8553 58.2303 33.2605C58.2303 32.4912 58.0673 31.7619 57.485 31.2036C56.9641 30.7041 56.3016 30.5197 55.6017 30.5197C54.5466 30.5197 53.4941 30.5197 52.4389 30.5197C50.5022 30.5197 48.5628 30.5197 46.6261 30.5197C44.3315 30.5197 42.0368 30.5197 39.7422 30.5197C37.6158 30.5197 35.4922 30.5197 33.3658 30.5197C31.9367 30.5197 30.5075 30.5197 29.0784 30.5197C28.7899 30.5197 28.4987 30.5171 28.2102 30.5197C27.123 30.5278 26.1426 31.2089 25.8274 32.2641C25.6938 32.7075 25.7285 33.1857 25.7285 33.6452C25.7285 34.3905 25.7285 35.1358 25.7285 35.8837C25.7285 38.0902 25.7285 40.2967 25.7285 42.5032C25.7285 44.285 25.7285 46.0641 25.7285 47.8458C25.7285 48.153 25.6217 48.6659 25.9663 48.8101C26.2895 48.9464 26.4258 48.4335 26.1159 48.3053Z" fill="#0E2D38"/>
<path d="M28.227 32.6229H18.3646C17.7395 32.6229 17.2319 32.1153 17.2319 31.4902V22.0018C17.2319 21.3767 17.7395 20.8691 18.3646 20.8691H28.227C28.8521 20.8691 29.3596 21.3767 29.3596 22.0018V31.4902C29.357 32.1153 28.8521 32.6229 28.227 32.6229Z" fill="#8FE4DB"/>
<path d="M28.2273 32.8881H18.3649C17.5955 32.8881 16.9678 32.263 16.9678 31.491V22.0026C16.9678 21.2332 17.5929 20.6055 18.3649 20.6055H28.2273C28.9966 20.6055 29.6244 21.2306 29.6244 22.0026V31.491C29.6244 32.263 28.9966 32.8881 28.2273 32.8881ZM18.3649 21.1344C17.8867 21.1344 17.4994 21.5244 17.4994 22.0026V31.491C17.4994 31.9692 17.8894 32.3592 18.3649 32.3592H28.2273C28.7055 32.3592 29.0955 31.9692 29.0955 31.491V22.0026C29.0955 21.5244 28.7055 21.1344 28.2273 21.1344H18.3649Z" fill="#0E2D38"/>
<path d="M20.2397 30.9679C20.4561 29.2583 21.9173 27.9307 23.6884 27.9307C25.4568 27.9307 26.9153 29.2583 27.1317 30.9679" fill="white"/>
<path d="M23.6862 27.2221C25.0066 27.2221 26.077 26.1517 26.077 24.8312C26.077 23.5108 25.0066 22.4404 23.6862 22.4404C22.3658 22.4404 21.2954 23.5108 21.2954 24.8312C21.2954 26.1517 22.3658 27.2221 23.6862 27.2221Z" fill="white"/>
<path d="M23.686 27.4893C22.2222 27.4893 21.0308 26.2979 21.0308 24.834C21.0308 23.3701 22.2222 22.1787 23.686 22.1787C25.1499 22.1787 26.3413 23.3701 26.3413 24.834C26.344 26.2979 25.1526 27.4893 23.686 27.4893ZM23.686 22.705C22.5133 22.705 21.5597 23.6586 21.5597 24.8313C21.5597 26.004 22.5133 26.9577 23.686 26.9577C24.8587 26.9577 25.8124 26.004 25.8124 24.8313C25.8124 23.6586 24.8587 22.705 23.686 22.705Z" fill="#0E2D38"/>
<path d="M20.2398 31.2319C20.2291 31.2319 20.2184 31.2319 20.205 31.2293C20.0608 31.2106 19.9566 31.0797 19.9753 30.9328C20.2104 29.0682 21.8078 27.6631 23.6884 27.6631C25.5664 27.6631 27.1584 29.0682 27.3962 30.9328C27.4149 31.077 27.3107 31.2106 27.1665 31.2293C27.0222 31.248 26.8886 31.1465 26.8699 30.9995C26.6669 29.3994 25.2992 28.1947 23.6884 28.1947C22.075 28.1947 20.7046 29.4021 20.5016 30.9995C20.4855 31.1358 20.3707 31.2319 20.2398 31.2319Z" fill="#0E2D38"/>
<path d="M28.2275 45.8231H18.3651C17.74 45.8231 17.2324 45.3155 17.2324 44.6904V35.202C17.2324 34.5769 17.74 34.0693 18.3651 34.0693H28.2275C28.8526 34.0693 29.3601 34.5769 29.3601 35.202V44.6904C29.3575 45.3182 28.8526 45.8231 28.2275 45.8231Z" fill="#DFB4FD"/>
<path d="M28.2273 46.0864H18.3649C17.5955 46.0864 16.9678 45.4613 16.9678 44.6893V35.2008C16.9678 34.4315 17.5929 33.8037 18.3649 33.8037H28.2273C28.9966 33.8037 29.6244 34.4288 29.6244 35.2008V44.6893C29.6244 45.4613 28.9966 46.0864 28.2273 46.0864ZM18.3649 34.3353C17.8867 34.3353 17.4994 34.7253 17.4994 35.2035V44.6919C17.4994 45.1701 17.8894 45.5601 18.3649 45.5601H28.2273C28.7055 45.5601 29.0955 45.1701 29.0955 44.6919V35.2035C29.0955 34.7253 28.7055 34.3353 28.2273 34.3353H18.3649Z" fill="#0E2D38"/>
<path d="M20.1226 44.3058C20.3389 42.5962 21.8001 41.2686 23.5712 41.2686C25.3396 41.2686 26.7981 42.5962 27.0145 44.3058" fill="white"/>
<path d="M23.6857 40.4252C25.0061 40.4252 26.0766 39.3548 26.0766 38.0344C26.0766 36.714 25.0061 35.6436 23.6857 35.6436C22.3653 35.6436 21.2949 36.714 21.2949 38.0344C21.2949 39.3548 22.3653 40.4252 23.6857 40.4252Z" fill="white"/>
<path d="M23.6855 40.6885C22.2217 40.6885 21.0303 39.4971 21.0303 38.0332C21.0303 36.5693 22.2217 35.3779 23.6855 35.3779C25.1494 35.3779 26.3408 36.5693 26.3408 38.0332C26.3435 39.4971 25.1521 40.6885 23.6855 40.6885ZM23.6855 35.9042C22.5128 35.9042 21.5592 36.8578 21.5592 38.0305C21.5592 39.2032 22.5128 40.1569 23.6855 40.1569C24.8583 40.1569 25.8119 39.2032 25.8119 38.0305C25.8146 36.8605 24.8583 35.9042 23.6855 35.9042Z" fill="#0E2D38"/>
<path d="M20.2398 44.4331C20.2291 44.4331 20.2184 44.4331 20.205 44.4304C20.0608 44.4117 19.9566 44.2809 19.9753 44.1339C20.2104 42.2694 21.8078 40.8643 23.6884 40.8643C25.5664 40.8643 27.1584 42.2694 27.3962 44.1339C27.4149 44.2782 27.3107 44.4117 27.1665 44.4304C27.0222 44.4491 26.8886 44.3476 26.8699 44.2007C26.6669 42.6006 25.2992 41.3958 23.6884 41.3958C22.075 41.3958 20.7046 42.6033 20.5016 44.2007C20.4855 44.3343 20.3707 44.4331 20.2398 44.4331Z" fill="#0E2D38"/>
<path d="M42.2407 32.6229H32.3782C31.7532 32.6229 31.2456 32.1153 31.2456 31.4902V22.0018C31.2456 21.3767 31.7532 20.8691 32.3782 20.8691H42.2407C42.8658 20.8691 43.3733 21.3767 43.3733 22.0018V31.4902C43.3706 32.1153 42.8658 32.6229 42.2407 32.6229Z" fill="#FEEA88"/>
<path d="M42.241 32.8881H32.3785C31.6092 32.8881 30.9814 32.263 30.9814 31.491V22.0026C30.9814 21.2332 31.6065 20.6055 32.3785 20.6055H42.241C43.0103 20.6055 43.6381 21.2306 43.6381 22.0026V31.491C43.6354 32.263 43.0103 32.8881 42.241 32.8881ZM32.3785 21.1344C31.9004 21.1344 31.513 21.5244 31.513 22.0026V31.491C31.513 31.9692 31.903 32.3592 32.3785 32.3592H42.241C42.7191 32.3592 43.1065 31.9692 43.1065 31.491V22.0026C43.1065 21.5244 42.7165 21.1344 42.241 21.1344H32.3785Z" fill="#0E2D38"/>
<path d="M34.3472 30.9679C34.5635 29.2583 36.0247 27.9307 37.7958 27.9307C39.5642 27.9307 41.0228 29.2583 41.2391 30.9679" fill="white"/>
<path d="M37.7004 27.2221C39.0208 27.2221 40.0912 26.1517 40.0912 24.8312C40.0912 23.5108 39.0208 22.4404 37.7004 22.4404C36.38 22.4404 35.3096 23.5108 35.3096 24.8312C35.3096 26.1517 36.38 27.2221 37.7004 27.2221Z" fill="white"/>
<path d="M37.7007 27.4893C36.2368 27.4893 35.0454 26.2979 35.0454 24.834C35.0454 23.3701 36.2368 22.1787 37.7007 22.1787C39.1646 22.1787 40.356 23.3701 40.356 24.834C40.3586 26.2979 39.1672 27.4893 37.7007 27.4893ZM37.7007 22.705C36.528 22.705 35.5743 23.6586 35.5743 24.8313C35.5743 26.004 36.528 26.9577 37.7007 26.9577C38.8734 26.9577 39.827 26.004 39.827 24.8313C39.827 23.6586 38.8734 22.705 37.7007 22.705Z" fill="#0E2D38"/>
<path d="M41.1488 31.2319C41.0179 31.2319 40.9031 31.1331 40.887 30.9995C40.684 29.3994 39.3163 28.1947 37.7055 28.1947C36.0921 28.1947 34.7217 29.4021 34.5187 30.9995C34.5 31.1438 34.3691 31.248 34.2221 31.2293C34.0779 31.2106 33.9737 31.0797 33.9924 30.9328C34.2302 29.0682 35.8249 27.6631 37.7055 27.6631C39.5834 27.6631 41.1755 29.0682 41.4133 30.9328C41.432 31.077 41.3278 31.2106 41.1836 31.2293C41.1702 31.2319 41.1595 31.2319 41.1488 31.2319Z" fill="#0E2D38"/>
<path d="M42.2412 45.8231H32.3787C31.7536 45.8231 31.2461 45.3155 31.2461 44.6904V35.202C31.2461 34.5769 31.7536 34.0693 32.3787 34.0693H42.2412C42.8663 34.0693 43.3738 34.5769 43.3738 35.202V44.6904C43.3711 45.3182 42.8663 45.8231 42.2412 45.8231Z" fill="#FFAEC4"/>
<path d="M42.2415 46.0864H32.379C31.6097 46.0864 30.9819 45.4613 30.9819 44.6893V35.2008C30.9819 34.4315 31.607 33.8037 32.379 33.8037H42.2415C43.0108 33.8037 43.6386 34.4288 43.6386 35.2008V44.6893C43.6359 45.4613 43.0108 46.0864 42.2415 46.0864ZM32.379 34.3353C31.9009 34.3353 31.5135 34.7253 31.5135 35.2035V44.6919C31.5135 45.1701 31.9035 45.5601 32.379 45.5601H42.2415C42.7196 45.5601 43.107 45.1701 43.107 44.6919V35.2035C43.107 34.7253 42.717 34.3353 42.2415 34.3353H32.379Z" fill="#0E2D38"/>
<path d="M34.3477 44.3058C34.564 42.5962 36.0252 41.2686 37.7963 41.2686C39.5647 41.2686 41.0232 42.5962 41.2396 44.3058" fill="white"/>
<path d="M37.7004 40.4252C39.0208 40.4252 40.0912 39.3548 40.0912 38.0344C40.0912 36.714 39.0208 35.6436 37.7004 35.6436C36.38 35.6436 35.3096 36.714 35.3096 38.0344C35.3096 39.3548 36.38 40.4252 37.7004 40.4252Z" fill="white"/>
<path d="M37.6997 40.6885C36.2358 40.6885 35.0444 39.4971 35.0444 38.0332C35.0444 36.5693 36.2358 35.3779 37.6997 35.3779C39.1636 35.3779 40.355 36.5693 40.355 38.0332C40.3577 39.4971 39.1663 40.6885 37.6997 40.6885ZM37.6997 35.9042C36.527 35.9042 35.5734 36.8578 35.5734 38.0305C35.5734 39.2032 36.527 40.1569 37.6997 40.1569C38.8724 40.1569 39.8261 39.2032 39.8261 38.0305C39.8287 36.8605 38.8724 35.9042 37.6997 35.9042Z" fill="#0E2D38"/>
<path d="M41.1488 44.4331C41.0179 44.4331 40.9031 44.3343 40.887 44.2007C40.684 42.6006 39.3163 41.3958 37.7055 41.3958C36.0921 41.3958 34.7217 42.6033 34.5187 44.2007C34.5 44.345 34.3691 44.4491 34.2221 44.4304C34.0779 44.4117 33.9737 44.2809 33.9924 44.1339C34.2302 42.2694 35.8249 40.8643 37.7055 40.8643C39.5834 40.8643 41.1755 42.2694 41.4133 44.1339C41.432 44.2782 41.3278 44.4117 41.1836 44.4304C41.1702 44.4331 41.1595 44.4331 41.1488 44.4331Z" fill="#0E2D38"/>
<path d="M49.2986 21.4706H42.6818L41.2794 22.5285C40.9829 22.5285 41.1244 21.3852 40.8894 21.2409C40.4459 20.9684 40.1494 20.4769 40.1494 19.9159V17.1084C40.1494 16.2509 40.844 15.5537 41.7041 15.5537H49.3013C50.1588 15.5537 50.856 16.2482 50.856 17.1084V19.9186C50.8507 20.7761 50.1561 21.4706 49.2986 21.4706Z" fill="#8FE4DB"/>
<path d="M41.2789 22.7954C40.8782 22.7954 40.8328 22.3199 40.7901 21.9005C40.7741 21.7509 40.75 21.4972 40.7126 21.4357C40.2051 21.1339 39.8818 20.5569 39.8818 19.9184V17.1082C39.8818 16.1065 40.6966 15.2891 41.701 15.2891H49.2982C50.2999 15.2891 51.1173 16.1038 51.1173 17.1082V19.9184C51.1173 20.9202 50.3026 21.7376 49.2982 21.7376H42.7695L41.4392 22.742C41.3911 22.7767 41.335 22.7954 41.2789 22.7954ZM41.701 15.818C40.9904 15.818 40.4108 16.395 40.4108 17.1082V19.9184C40.4108 20.3699 40.6405 20.7813 41.0252 21.0163C41.2469 21.1526 41.2789 21.4731 41.3163 21.8471C41.3243 21.9299 41.335 22.0448 41.3511 22.1436L42.5211 21.2594C42.5665 21.2247 42.6226 21.206 42.6814 21.206H49.2982C50.0087 21.206 50.5884 20.629 50.5884 19.9158V17.1082C50.5884 16.3977 50.0114 15.818 49.2982 15.818H41.701Z" fill="#0E2D38"/>
<path d="M42.7453 17.8196C44.6152 17.8196 46.4824 17.8196 48.3523 17.8196C49.0335 17.8196 49.0335 16.7617 48.3523 16.7617C46.4824 16.7617 44.6152 16.7617 42.7453 16.7617C42.0641 16.7617 42.0641 17.8196 42.7453 17.8196Z" fill="white"/>
<path d="M42.7453 19.6877C44.6152 19.6877 46.4824 19.6877 48.3523 19.6877C49.0335 19.6877 49.0335 18.6299 48.3523 18.6299C46.4824 18.6299 44.6152 18.6299 42.7453 18.6299C42.0641 18.6299 42.0641 19.6877 42.7453 19.6877Z" fill="white"/>
<path d="M9.81935 41.1344H16.4362L17.8386 42.1923C18.1351 42.1923 17.9935 41.049 18.2286 40.9047C18.672 40.6322 18.9686 40.1407 18.9686 39.5798V36.7695C18.9686 35.9121 18.274 35.2148 17.4139 35.2148H9.81935C8.96186 35.2148 8.26465 35.9094 8.26465 36.7695V39.5798C8.26465 40.4399 8.95919 41.1344 9.81935 41.1344Z" fill="#FEEA88"/>
<path d="M17.8384 42.4595C17.7796 42.4595 17.7262 42.4408 17.6781 42.4061L16.3478 41.4016H9.81916C8.81742 41.4016 8 40.5869 8 39.5825V36.7723C8 35.7705 8.81475 34.9531 9.81916 34.9531H17.4163C18.4181 34.9531 19.2355 35.7679 19.2355 36.7723V39.5825C19.2355 40.2183 18.9123 40.7979 18.3673 41.1318C18.3673 41.1612 18.3406 41.4123 18.3273 41.5646C18.2845 41.984 18.2364 42.4595 17.8384 42.4595ZM9.81916 35.482C9.10859 35.482 8.52892 36.0617 8.52892 36.7723V39.5825C8.52892 40.2931 9.10592 40.8727 9.81916 40.8727H16.436C16.4947 40.8727 16.5482 40.8914 16.5963 40.9262L17.7663 41.8077C17.7823 41.7115 17.793 41.5967 17.801 41.5112C17.8384 41.1399 17.8705 40.8166 18.0922 40.6804C18.4768 40.4426 18.7066 40.0339 18.7066 39.5825V36.7723C18.7066 36.0617 18.1296 35.482 17.4163 35.482H9.81916Z" fill="#0E2D38"/>
<path d="M16.3694 36.4238C14.4995 36.4238 12.6323 36.4238 10.7624 36.4238C10.0812 36.4238 10.0812 37.4817 10.7624 37.4817C12.6323 37.4817 14.4995 37.4817 16.3694 37.4817C17.0506 37.4817 17.0506 36.4238 16.3694 36.4238Z" fill="white"/>
<path d="M16.3694 38.2959C14.4995 38.2959 12.6323 38.2959 10.7624 38.2959C10.0812 38.2959 10.0812 39.3537 10.7624 39.3537C12.6323 39.3537 14.4995 39.3537 16.3694 39.3537C17.0506 39.3537 17.0506 38.2959 16.3694 38.2959Z" fill="white"/>
</svg>
