<svg width="71" height="28" viewBox="0 0 71 28" fill="none" xmlns="http://www.w3.org/2000/svg">
<path d="M67.1625 23.4277C67.4394 23.9073 67.709 24.3917 67.9713 24.8806C67.495 24.569 67.1767 24.0359 67.1625 23.4277Z" fill="#00B5D4"/>
<path d="M57.3848 11.0993C58.2169 11.8802 59.0241 12.6874 59.805 13.5195C59.503 14.0775 58.9125 14.4566 58.2334 14.4566C57.2472 14.4566 56.4477 13.6571 56.4477 12.6709C56.4477 11.9918 56.8267 11.4013 57.3848 11.0993Z" fill="#00B5D4"/>
<path d="M46.0237 2.93298C46.5126 3.19528 46.997 3.46495 47.4766 3.74183C46.8684 3.72763 46.3353 3.40929 46.0237 2.93298Z" fill="#00B5D4"/>
<path d="M-6.00984 3.74183C-5.53018 3.46494 -5.04582 3.19528 -4.55692 2.93298C-4.86854 3.40929 -5.40158 3.72763 -6.00984 3.74183Z" fill="#00B5D4"/>
<path d="M-18.3382 13.5195C-17.5573 12.6874 -16.7501 11.8802 -15.918 11.0993C-15.36 11.4013 -14.9809 11.9918 -14.9809 12.6709C-14.9809 13.6571 -15.7804 14.4566 -16.7666 14.4566C-17.4457 14.4566 -18.0362 14.0775 -18.3382 13.5195Z" fill="#00B5D4"/>
<path d="M-26.5045 24.8806C-26.2422 24.3917 -25.9726 23.9073 -25.6957 23.4277C-25.7099 24.0359 -26.0282 24.569 -26.5045 24.8806Z" fill="#00B5D4"/>
<path d="M67.9713 75.4612C67.709 75.9501 67.4394 76.4345 67.1625 76.9141C67.1767 76.3059 67.495 75.7728 67.9713 75.4612Z" fill="#00B5D4"/>
<path d="M59.805 86.8223C59.503 86.2642 58.9125 85.8852 58.2334 85.8852C57.2472 85.8852 56.4477 86.6847 56.4477 87.6709C56.4477 88.35 56.8267 88.9405 57.3848 89.2425C58.2169 88.4616 59.0241 87.6544 59.805 86.8223Z" fill="#00B5D4"/>
<path d="M47.4766 96.6C46.8684 96.6142 46.3353 96.9325 46.0237 97.4088C46.5126 97.1465 46.997 96.8769 47.4766 96.6Z" fill="#00B5D4"/>
<path d="M-4.55692 97.4088C-4.86854 96.9325 -5.40158 96.6142 -6.00984 96.6C-5.53018 96.8769 -5.04582 97.1465 -4.55692 97.4088Z" fill="#00B5D4"/>
<path d="M-15.918 89.2425C-15.36 88.9405 -14.9809 88.35 -14.9809 87.6709C-14.9809 86.6847 -15.7804 85.8852 -16.7666 85.8852C-17.4457 85.8852 -18.0362 86.2642 -18.3382 86.8223C-17.5573 87.6544 -16.7501 88.4616 -15.918 89.2425Z" fill="#00B5D4"/>
<path d="M-25.6957 76.9141C-25.7099 76.3059 -26.0282 75.7728 -26.5045 75.4612C-26.2422 75.9501 -25.9726 76.4345 -25.6957 76.9141Z" fill="#00B5D4"/>
<path d="M6.44769 1.95661C6.44769 2.94284 5.64819 3.74233 4.66197 3.74233C3.67575 3.74233 2.87626 2.94284 2.87626 1.95661C2.87626 0.97039 3.67575 0.170898 4.66197 0.170898C5.64819 0.170898 6.44769 0.97039 6.44769 1.95661Z" fill="#00B5D4"/>
<path d="M17.162 1.95661C17.162 2.94284 16.3625 3.74233 15.3763 3.74233C14.39 3.74233 13.5905 2.94284 13.5905 1.95661C13.5905 0.97039 14.39 0.170898 15.3763 0.170898C16.3625 0.170898 17.162 0.97039 17.162 1.95661Z" fill="#00B5D4"/>
<path d="M27.8763 1.95661C27.8763 2.94284 27.0768 3.74233 26.0905 3.74233C25.1043 3.74233 24.3048 2.94284 24.3048 1.95661C24.3048 0.97039 25.1043 0.170898 26.0905 0.170898C27.0768 0.170898 27.8763 0.97039 27.8763 1.95661Z" fill="#00B5D4"/>
<path d="M38.5905 1.95661C38.5905 2.94284 37.791 3.74233 36.8048 3.74233C35.8186 3.74233 35.0191 2.94284 35.0191 1.95661C35.0191 0.97039 35.8186 0.170898 36.8048 0.170898C37.791 0.170898 38.5905 0.97039 38.5905 1.95661Z" fill="#00B5D4"/>
<path d="M-4.2666 12.6709C-4.2666 13.6571 -5.06609 14.4566 -6.05232 14.4566C-7.03854 14.4566 -7.83803 13.6571 -7.83803 12.6709C-7.83803 11.6847 -7.03854 10.8852 -6.05232 10.8852C-5.06609 10.8852 -4.2666 11.6847 -4.2666 12.6709Z" fill="#00B5D4"/>
<path d="M6.44769 12.6709C6.44769 13.6571 5.64819 14.4566 4.66197 14.4566C3.67575 14.4566 2.87626 13.6571 2.87626 12.6709C2.87626 11.6847 3.67575 10.8852 4.66197 10.8852C5.64819 10.8852 6.44769 11.6847 6.44769 12.6709Z" fill="#00B5D4"/>
<path d="M17.162 12.6709C17.162 13.6571 16.3625 14.4566 15.3763 14.4566C14.39 14.4566 13.5905 13.6571 13.5905 12.6709C13.5905 11.6847 14.39 10.8852 15.3763 10.8852C16.3625 10.8852 17.162 11.6847 17.162 12.6709Z" fill="#00B5D4"/>
<path d="M27.8763 12.6709C27.8763 13.6571 27.0768 14.4566 26.0905 14.4566C25.1043 14.4566 24.3048 13.6571 24.3048 12.6709C24.3048 11.6847 25.1043 10.8852 26.0905 10.8852C27.0768 10.8852 27.8763 11.6847 27.8763 12.6709Z" fill="#00B5D4"/>
<path d="M38.5905 12.6709C38.5905 13.6571 37.791 14.4566 36.8048 14.4566C35.8186 14.4566 35.0191 13.6571 35.0191 12.6709C35.0191 11.6847 35.8186 10.8852 36.8048 10.8852C37.791 10.8852 38.5905 11.6847 38.5905 12.6709Z" fill="#00B5D4"/>
<path d="M49.3048 12.6709C49.3048 13.6571 48.5053 14.4566 47.5191 14.4566C46.5329 14.4566 45.7334 13.6571 45.7334 12.6709C45.7334 11.6847 46.5329 10.8852 47.5191 10.8852C48.5053 10.8852 49.3048 11.6847 49.3048 12.6709Z" fill="#00B5D4"/>
<path d="M-14.9809 23.3852C-14.9809 24.3714 -15.7804 25.1709 -16.7666 25.1709C-17.7528 25.1709 -18.5523 24.3714 -18.5523 23.3852C-18.5523 22.399 -17.7528 21.5995 -16.7666 21.5995C-15.7804 21.5995 -14.9809 22.399 -14.9809 23.3852Z" fill="#00B5D4"/>
<path d="M-4.2666 23.3852C-4.2666 24.3714 -5.06609 25.1709 -6.05232 25.1709C-7.03854 25.1709 -7.83803 24.3714 -7.83803 23.3852C-7.83803 22.399 -7.03854 21.5995 -6.05232 21.5995C-5.06609 21.5995 -4.2666 22.399 -4.2666 23.3852Z" fill="#00B5D4"/>
<path d="M6.44769 23.3852C6.44769 24.3714 5.64819 25.1709 4.66197 25.1709C3.67575 25.1709 2.87626 24.3714 2.87626 23.3852C2.87626 22.399 3.67575 21.5995 4.66197 21.5995C5.64819 21.5995 6.44769 22.399 6.44769 23.3852Z" fill="#00B5D4"/>
<path d="M17.162 23.3852C17.162 24.3714 16.3625 25.1709 15.3763 25.1709C14.39 25.1709 13.5905 24.3714 13.5905 23.3852C13.5905 22.399 14.39 21.5995 15.3763 21.5995C16.3625 21.5995 17.162 22.399 17.162 23.3852Z" fill="#00B5D4"/>
<path d="M27.8763 23.3852C27.8763 24.3714 27.0768 25.1709 26.0905 25.1709C25.1043 25.1709 24.3048 24.3714 24.3048 23.3852C24.3048 22.399 25.1043 21.5995 26.0905 21.5995C27.0768 21.5995 27.8763 22.399 27.8763 23.3852Z" fill="#00B5D4"/>
<path d="M38.5905 23.3852C38.5905 24.3714 37.791 25.1709 36.8048 25.1709C35.8186 25.1709 35.0191 24.3714 35.0191 23.3852C35.0191 22.399 35.8186 21.5995 36.8048 21.5995C37.791 21.5995 38.5905 22.399 38.5905 23.3852Z" fill="#00B5D4"/>
<path d="M49.3048 23.3852C49.3048 24.3714 48.5053 25.1709 47.5191 25.1709C46.5329 25.1709 45.7334 24.3714 45.7334 23.3852C45.7334 22.399 46.5329 21.5995 47.5191 21.5995C48.5053 21.5995 49.3048 22.399 49.3048 23.3852Z" fill="#00B5D4"/>
<path d="M60.0191 23.3852C60.0191 24.3714 59.2196 25.1709 58.2334 25.1709C57.2472 25.1709 56.4477 24.3714 56.4477 23.3852C56.4477 22.399 57.2472 21.5995 58.2334 21.5995C59.2196 21.5995 60.0191 22.399 60.0191 23.3852Z" fill="#00B5D4"/>
<path d="M-25.6952 34.0995C-25.6952 35.0857 -26.4947 35.8852 -27.4809 35.8852C-28.4671 35.8852 -29.2666 35.0857 -29.2666 34.0995C-29.2666 33.1132 -28.4671 32.3138 -27.4809 32.3138C-26.4947 32.3138 -25.6952 33.1132 -25.6952 34.0995Z" fill="#00B5D4"/>
<path d="M-14.9809 34.0995C-14.9809 35.0857 -15.7804 35.8852 -16.7666 35.8852C-17.7528 35.8852 -18.5523 35.0857 -18.5523 34.0995C-18.5523 33.1132 -17.7528 32.3138 -16.7666 32.3138C-15.7804 32.3138 -14.9809 33.1132 -14.9809 34.0995Z" fill="#00B5D4"/>
<path d="M-4.2666 34.0995C-4.2666 35.0857 -5.06609 35.8852 -6.05232 35.8852C-7.03854 35.8852 -7.83803 35.0857 -7.83803 34.0995C-7.83803 33.1132 -7.03854 32.3138 -6.05232 32.3138C-5.06609 32.3138 -4.2666 33.1132 -4.2666 34.0995Z" fill="#00B5D4"/>
<path d="M6.44769 34.0995C6.44769 35.0857 5.64819 35.8852 4.66197 35.8852C3.67575 35.8852 2.87626 35.0857 2.87626 34.0995C2.87626 33.1132 3.67575 32.3138 4.66197 32.3138C5.64819 32.3138 6.44769 33.1132 6.44769 34.0995Z" fill="#00B5D4"/>
<path d="M17.162 34.0995C17.162 35.0857 16.3625 35.8852 15.3763 35.8852C14.39 35.8852 13.5905 35.0857 13.5905 34.0995C13.5905 33.1132 14.39 32.3138 15.3763 32.3138C16.3625 32.3138 17.162 33.1132 17.162 34.0995Z" fill="#00B5D4"/>
<path d="M27.8763 34.0995C27.8763 35.0857 27.0768 35.8852 26.0905 35.8852C25.1043 35.8852 24.3048 35.0857 24.3048 34.0995C24.3048 33.1132 25.1043 32.3138 26.0905 32.3138C27.0768 32.3138 27.8763 33.1132 27.8763 34.0995Z" fill="#00B5D4"/>
<path d="M38.5905 34.0995C38.5905 35.0857 37.791 35.8852 36.8048 35.8852C35.8186 35.8852 35.0191 35.0857 35.0191 34.0995C35.0191 33.1132 35.8186 32.3138 36.8048 32.3138C37.791 32.3138 38.5905 33.1132 38.5905 34.0995Z" fill="#00B5D4"/>
<path d="M49.3048 34.0995C49.3048 35.0857 48.5053 35.8852 47.5191 35.8852C46.5329 35.8852 45.7334 35.0857 45.7334 34.0995C45.7334 33.1132 46.5329 32.3138 47.5191 32.3138C48.5053 32.3138 49.3048 33.1132 49.3048 34.0995Z" fill="#00B5D4"/>
<path d="M60.0191 34.0995C60.0191 35.0857 59.2196 35.8852 58.2334 35.8852C57.2472 35.8852 56.4477 35.0857 56.4477 34.0995C56.4477 33.1132 57.2472 32.3138 58.2334 32.3138C59.2196 32.3138 60.0191 33.1132 60.0191 34.0995Z" fill="#00B5D4"/>
<path d="M70.7334 34.0995C70.7334 35.0857 69.9339 35.8852 68.9477 35.8852C67.9615 35.8852 67.162 35.0857 67.162 34.0995C67.162 33.1132 67.9615 32.3138 68.9477 32.3138C69.9339 32.3138 70.7334 33.1132 70.7334 34.0995Z" fill="#00B5D4"/>
<path d="M-25.6952 44.8138C-25.6952 45.8 -26.4947 46.5995 -27.4809 46.5995C-28.4671 46.5995 -29.2666 45.8 -29.2666 44.8138C-29.2666 43.8275 -28.4671 43.028 -27.4809 43.028C-26.4947 43.028 -25.6952 43.8275 -25.6952 44.8138Z" fill="#00B5D4"/>
<path d="M-14.9809 44.8138C-14.9809 45.8 -15.7804 46.5995 -16.7666 46.5995C-17.7528 46.5995 -18.5523 45.8 -18.5523 44.8138C-18.5523 43.8275 -17.7528 43.028 -16.7666 43.028C-15.7804 43.028 -14.9809 43.8275 -14.9809 44.8138Z" fill="#00B5D4"/>
<path d="M-4.2666 44.8138C-4.2666 45.8 -5.06609 46.5995 -6.05232 46.5995C-7.03854 46.5995 -7.83803 45.8 -7.83803 44.8138C-7.83803 43.8275 -7.03854 43.028 -6.05232 43.028C-5.06609 43.028 -4.2666 43.8275 -4.2666 44.8138Z" fill="#00B5D4"/>
<path d="M6.44769 44.8138C6.44769 45.8 5.64819 46.5995 4.66197 46.5995C3.67575 46.5995 2.87626 45.8 2.87626 44.8138C2.87626 43.8275 3.67575 43.028 4.66197 43.028C5.64819 43.028 6.44769 43.8275 6.44769 44.8138Z" fill="#00B5D4"/>
<path d="M17.162 44.8138C17.162 45.8 16.3625 46.5995 15.3763 46.5995C14.39 46.5995 13.5905 45.8 13.5905 44.8138C13.5905 43.8275 14.39 43.028 15.3763 43.028C16.3625 43.028 17.162 43.8275 17.162 44.8138Z" fill="#00B5D4"/>
<path d="M27.8763 44.8138C27.8763 45.8 27.0768 46.5995 26.0905 46.5995C25.1043 46.5995 24.3048 45.8 24.3048 44.8138C24.3048 43.8275 25.1043 43.028 26.0905 43.028C27.0768 43.028 27.8763 43.8275 27.8763 44.8138Z" fill="#00B5D4"/>
<path d="M38.5905 44.8138C38.5905 45.8 37.791 46.5995 36.8048 46.5995C35.8186 46.5995 35.0191 45.8 35.0191 44.8138C35.0191 43.8275 35.8186 43.028 36.8048 43.028C37.791 43.028 38.5905 43.8275 38.5905 44.8138Z" fill="#00B5D4"/>
<path d="M49.3048 44.8138C49.3048 45.8 48.5053 46.5995 47.5191 46.5995C46.5329 46.5995 45.7334 45.8 45.7334 44.8138C45.7334 43.8275 46.5329 43.028 47.5191 43.028C48.5053 43.028 49.3048 43.8275 49.3048 44.8138Z" fill="#00B5D4"/>
<path d="M60.0191 44.8138C60.0191 45.8 59.2196 46.5995 58.2334 46.5995C57.2472 46.5995 56.4477 45.8 56.4477 44.8138C56.4477 43.8275 57.2472 43.028 58.2334 43.028C59.2196 43.028 60.0191 43.8275 60.0191 44.8138Z" fill="#00B5D4"/>
<path d="M70.7334 44.8138C70.7334 45.8 69.9339 46.5995 68.9477 46.5995C67.9615 46.5995 67.162 45.8 67.162 44.8138C67.162 43.8275 67.9615 43.028 68.9477 43.028C69.9339 43.028 70.7334 43.8275 70.7334 44.8138Z" fill="#00B5D4"/>
<path d="M-25.6952 55.528C-25.6952 56.5143 -26.4947 57.3138 -27.4809 57.3138C-28.4671 57.3138 -29.2666 56.5143 -29.2666 55.528C-29.2666 54.5418 -28.4671 53.7423 -27.4809 53.7423C-26.4947 53.7423 -25.6952 54.5418 -25.6952 55.528Z" fill="#00B5D4"/>
<path d="M-14.9809 55.528C-14.9809 56.5143 -15.7804 57.3138 -16.7666 57.3138C-17.7528 57.3138 -18.5523 56.5143 -18.5523 55.528C-18.5523 54.5418 -17.7528 53.7423 -16.7666 53.7423C-15.7804 53.7423 -14.9809 54.5418 -14.9809 55.528Z" fill="#00B5D4"/>
<path d="M-4.2666 55.528C-4.2666 56.5143 -5.06609 57.3138 -6.05232 57.3138C-7.03854 57.3138 -7.83803 56.5143 -7.83803 55.528C-7.83803 54.5418 -7.03854 53.7423 -6.05232 53.7423C-5.06609 53.7423 -4.2666 54.5418 -4.2666 55.528Z" fill="#00B5D4"/>
<path d="M6.44769 55.528C6.44769 56.5143 5.64819 57.3138 4.66197 57.3138C3.67575 57.3138 2.87626 56.5143 2.87626 55.528C2.87626 54.5418 3.67575 53.7423 4.66197 53.7423C5.64819 53.7423 6.44769 54.5418 6.44769 55.528Z" fill="#00B5D4"/>
<path d="M17.162 55.528C17.162 56.5143 16.3625 57.3138 15.3763 57.3138C14.39 57.3138 13.5905 56.5143 13.5905 55.528C13.5905 54.5418 14.39 53.7423 15.3763 53.7423C16.3625 53.7423 17.162 54.5418 17.162 55.528Z" fill="#00B5D4"/>
<path d="M27.8763 55.528C27.8763 56.5143 27.0768 57.3138 26.0905 57.3138C25.1043 57.3138 24.3048 56.5143 24.3048 55.528C24.3048 54.5418 25.1043 53.7423 26.0905 53.7423C27.0768 53.7423 27.8763 54.5418 27.8763 55.528Z" fill="#00B5D4"/>
<path d="M38.5905 55.528C38.5905 56.5143 37.791 57.3138 36.8048 57.3138C35.8186 57.3138 35.0191 56.5143 35.0191 55.528C35.0191 54.5418 35.8186 53.7423 36.8048 53.7423C37.791 53.7423 38.5905 54.5418 38.5905 55.528Z" fill="#00B5D4"/>
<path d="M49.3048 55.528C49.3048 56.5143 48.5053 57.3138 47.5191 57.3138C46.5329 57.3138 45.7334 56.5143 45.7334 55.528C45.7334 54.5418 46.5329 53.7423 47.5191 53.7423C48.5053 53.7423 49.3048 54.5418 49.3048 55.528Z" fill="#00B5D4"/>
<path d="M60.0191 55.528C60.0191 56.5143 59.2196 57.3138 58.2334 57.3138C57.2472 57.3138 56.4477 56.5143 56.4477 55.528C56.4477 54.5418 57.2472 53.7423 58.2334 53.7423C59.2196 53.7423 60.0191 54.5418 60.0191 55.528Z" fill="#00B5D4"/>
<path d="M70.7334 55.528C70.7334 56.5143 69.9339 57.3138 68.9477 57.3138C67.9615 57.3138 67.162 56.5143 67.162 55.528C67.162 54.5418 67.9615 53.7423 68.9477 53.7423C69.9339 53.7423 70.7334 54.5418 70.7334 55.528Z" fill="#00B5D4"/>
<path d="M-25.6952 66.2423C-25.6952 67.2285 -26.4947 68.028 -27.4809 68.028C-28.4671 68.028 -29.2666 67.2285 -29.2666 66.2423C-29.2666 65.2561 -28.4671 64.4566 -27.4809 64.4566C-26.4947 64.4566 -25.6952 65.2561 -25.6952 66.2423Z" fill="#00B5D4"/>
<path d="M-14.9809 66.2423C-14.9809 67.2285 -15.7804 68.028 -16.7666 68.028C-17.7528 68.028 -18.5523 67.2285 -18.5523 66.2423C-18.5523 65.2561 -17.7528 64.4566 -16.7666 64.4566C-15.7804 64.4566 -14.9809 65.2561 -14.9809 66.2423Z" fill="#00B5D4"/>
<path d="M-4.2666 66.2423C-4.2666 67.2285 -5.06609 68.028 -6.05232 68.028C-7.03854 68.028 -7.83803 67.2285 -7.83803 66.2423C-7.83803 65.2561 -7.03854 64.4566 -6.05232 64.4566C-5.06609 64.4566 -4.2666 65.2561 -4.2666 66.2423Z" fill="#00B5D4"/>
<path d="M6.44769 66.2423C6.44769 67.2285 5.64819 68.028 4.66197 68.028C3.67575 68.028 2.87626 67.2285 2.87626 66.2423C2.87626 65.2561 3.67575 64.4566 4.66197 64.4566C5.64819 64.4566 6.44769 65.2561 6.44769 66.2423Z" fill="#00B5D4"/>
<path d="M17.162 66.2423C17.162 67.2285 16.3625 68.028 15.3763 68.028C14.39 68.028 13.5905 67.2285 13.5905 66.2423C13.5905 65.2561 14.39 64.4566 15.3763 64.4566C16.3625 64.4566 17.162 65.2561 17.162 66.2423Z" fill="#00B5D4"/>
<path d="M27.8763 66.2423C27.8763 67.2285 27.0768 68.028 26.0905 68.028C25.1043 68.028 24.3048 67.2285 24.3048 66.2423C24.3048 65.2561 25.1043 64.4566 26.0905 64.4566C27.0768 64.4566 27.8763 65.2561 27.8763 66.2423Z" fill="#00B5D4"/>
<path d="M38.5905 66.2423C38.5905 67.2285 37.791 68.028 36.8048 68.028C35.8186 68.028 35.0191 67.2285 35.0191 66.2423C35.0191 65.2561 35.8186 64.4566 36.8048 64.4566C37.791 64.4566 38.5905 65.2561 38.5905 66.2423Z" fill="#00B5D4"/>
<path d="M49.3048 66.2423C49.3048 67.2285 48.5053 68.028 47.5191 68.028C46.5329 68.028 45.7334 67.2285 45.7334 66.2423C45.7334 65.2561 46.5329 64.4566 47.5191 64.4566C48.5053 64.4566 49.3048 65.2561 49.3048 66.2423Z" fill="#00B5D4"/>
<path d="M60.0191 66.2423C60.0191 67.2285 59.2196 68.028 58.2334 68.028C57.2472 68.028 56.4477 67.2285 56.4477 66.2423C56.4477 65.2561 57.2472 64.4566 58.2334 64.4566C59.2196 64.4566 60.0191 65.2561 60.0191 66.2423Z" fill="#00B5D4"/>
<path d="M70.7334 66.2423C70.7334 67.2285 69.9339 68.028 68.9477 68.028C67.9615 68.028 67.162 67.2285 67.162 66.2423C67.162 65.2561 67.9615 64.4566 68.9477 64.4566C69.9339 64.4566 70.7334 65.2561 70.7334 66.2423Z" fill="#00B5D4"/>
<path d="M-14.9809 76.9566C-14.9809 77.9428 -15.7804 78.7423 -16.7666 78.7423C-17.7528 78.7423 -18.5523 77.9428 -18.5523 76.9566C-18.5523 75.9704 -17.7528 75.1709 -16.7666 75.1709C-15.7804 75.1709 -14.9809 75.9704 -14.9809 76.9566Z" fill="#00B5D4"/>
<path d="M-4.2666 76.9566C-4.2666 77.9428 -5.06609 78.7423 -6.05232 78.7423C-7.03854 78.7423 -7.83803 77.9428 -7.83803 76.9566C-7.83803 75.9704 -7.03854 75.1709 -6.05232 75.1709C-5.06609 75.1709 -4.2666 75.9704 -4.2666 76.9566Z" fill="#00B5D4"/>
<path d="M6.44769 76.9566C6.44769 77.9428 5.64819 78.7423 4.66197 78.7423C3.67575 78.7423 2.87626 77.9428 2.87626 76.9566C2.87626 75.9704 3.67575 75.1709 4.66197 75.1709C5.64819 75.1709 6.44769 75.9704 6.44769 76.9566Z" fill="#00B5D4"/>
<path d="M17.162 76.9566C17.162 77.9428 16.3625 78.7423 15.3763 78.7423C14.39 78.7423 13.5905 77.9428 13.5905 76.9566C13.5905 75.9704 14.39 75.1709 15.3763 75.1709C16.3625 75.1709 17.162 75.9704 17.162 76.9566Z" fill="#00B5D4"/>
<path d="M27.8763 76.9566C27.8763 77.9428 27.0768 78.7423 26.0905 78.7423C25.1043 78.7423 24.3048 77.9428 24.3048 76.9566C24.3048 75.9704 25.1043 75.1709 26.0905 75.1709C27.0768 75.1709 27.8763 75.9704 27.8763 76.9566Z" fill="#00B5D4"/>
<path d="M38.5905 76.9566C38.5905 77.9428 37.791 78.7423 36.8048 78.7423C35.8186 78.7423 35.0191 77.9428 35.0191 76.9566C35.0191 75.9704 35.8186 75.1709 36.8048 75.1709C37.791 75.1709 38.5905 75.9704 38.5905 76.9566Z" fill="#00B5D4"/>
<path d="M49.3048 76.9566C49.3048 77.9428 48.5053 78.7423 47.5191 78.7423C46.5329 78.7423 45.7334 77.9428 45.7334 76.9566C45.7334 75.9704 46.5329 75.1709 47.5191 75.1709C48.5053 75.1709 49.3048 75.9704 49.3048 76.9566Z" fill="#00B5D4"/>
<path d="M60.0191 76.9566C60.0191 77.9428 59.2196 78.7423 58.2334 78.7423C57.2472 78.7423 56.4477 77.9428 56.4477 76.9566C56.4477 75.9704 57.2472 75.1709 58.2334 75.1709C59.2196 75.1709 60.0191 75.9704 60.0191 76.9566Z" fill="#00B5D4"/>
<path d="M-4.2666 87.6709C-4.2666 88.6571 -5.06609 89.4566 -6.05232 89.4566C-7.03854 89.4566 -7.83803 88.6571 -7.83803 87.6709C-7.83803 86.6847 -7.03854 85.8852 -6.05232 85.8852C-5.06609 85.8852 -4.2666 86.6847 -4.2666 87.6709Z" fill="#00B5D4"/>
<path d="M6.44769 87.6709C6.44769 88.6571 5.64819 89.4566 4.66197 89.4566C3.67575 89.4566 2.87626 88.6571 2.87626 87.6709C2.87626 86.6847 3.67575 85.8852 4.66197 85.8852C5.64819 85.8852 6.44769 86.6847 6.44769 87.6709Z" fill="#00B5D4"/>
<path d="M17.162 87.6709C17.162 88.6571 16.3625 89.4566 15.3763 89.4566C14.39 89.4566 13.5905 88.6571 13.5905 87.6709C13.5905 86.6847 14.39 85.8852 15.3763 85.8852C16.3625 85.8852 17.162 86.6847 17.162 87.6709Z" fill="#00B5D4"/>
<path d="M27.8763 87.6709C27.8763 88.6571 27.0768 89.4566 26.0905 89.4566C25.1043 89.4566 24.3048 88.6571 24.3048 87.6709C24.3048 86.6847 25.1043 85.8852 26.0905 85.8852C27.0768 85.8852 27.8763 86.6847 27.8763 87.6709Z" fill="#00B5D4"/>
<path d="M38.5905 87.6709C38.5905 88.6571 37.791 89.4566 36.8048 89.4566C35.8186 89.4566 35.0191 88.6571 35.0191 87.6709C35.0191 86.6847 35.8186 85.8852 36.8048 85.8852C37.791 85.8852 38.5905 86.6847 38.5905 87.6709Z" fill="#00B5D4"/>
<path d="M49.3048 87.6709C49.3048 88.6571 48.5053 89.4566 47.5191 89.4566C46.5329 89.4566 45.7334 88.6571 45.7334 87.6709C45.7334 86.6847 46.5329 85.8852 47.5191 85.8852C48.5053 85.8852 49.3048 86.6847 49.3048 87.6709Z" fill="#00B5D4"/>
<path d="M6.44769 98.3852C6.44769 99.3714 5.64819 100.171 4.66197 100.171C3.67575 100.171 2.87626 99.3714 2.87626 98.3852C2.87626 97.399 3.67575 96.5995 4.66197 96.5995C5.64819 96.5995 6.44769 97.399 6.44769 98.3852Z" fill="#00B5D4"/>
<path d="M17.162 98.3852C17.162 99.3714 16.3625 100.171 15.3763 100.171C14.39 100.171 13.5905 99.3714 13.5905 98.3852C13.5905 97.399 14.39 96.5995 15.3763 96.5995C16.3625 96.5995 17.162 97.399 17.162 98.3852Z" fill="#00B5D4"/>
<path d="M27.8763 98.3852C27.8763 99.3714 27.0768 100.171 26.0905 100.171C25.1043 100.171 24.3048 99.3714 24.3048 98.3852C24.3048 97.399 25.1043 96.5995 26.0905 96.5995C27.0768 96.5995 27.8763 97.399 27.8763 98.3852Z" fill="#00B5D4"/>
<path d="M38.5905 98.3852C38.5905 99.3714 37.791 100.171 36.8048 100.171C35.8186 100.171 35.0191 99.3714 35.0191 98.3852C35.0191 97.399 35.8186 96.5995 36.8048 96.5995C37.791 96.5995 38.5905 97.399 38.5905 98.3852Z" fill="#00B5D4"/>
</svg>
