<svg width="25" height="25" viewBox="0 0 25 25" fill="none" xmlns="http://www.w3.org/2000/svg">
<path d="M10.6566 14.0021L8.50664 11.8521C8.32331 11.6688 8.08997 11.5771 7.80664 11.5771C7.52331 11.5771 7.28997 11.6688 7.10664 11.8521C6.92331 12.0355 6.83164 12.2688 6.83164 12.5521C6.83164 12.8355 6.92331 13.0688 7.10664 13.2521L9.95664 16.1021C10.1566 16.3021 10.39 16.4021 10.6566 16.4021C10.9233 16.4021 11.1566 16.3021 11.3566 16.1021L17.0066 10.4521C17.19 10.2688 17.2816 10.0355 17.2816 9.75215C17.2816 9.46882 17.19 9.23548 17.0066 9.05215C16.8233 8.86882 16.59 8.77715 16.3066 8.77715C16.0233 8.77715 15.79 8.86882 15.6066 9.05215L10.6566 14.0021ZM12.0566 22.2021C10.6733 22.2021 9.37331 21.9395 8.15664 21.4141C6.93997 20.8888 5.88164 20.1765 4.98164 19.2771C4.08164 18.3771 3.36931 17.3188 2.84464 16.1021C2.31997 14.8855 2.05731 13.5855 2.05664 12.2021C2.05664 10.8188 2.31931 9.51882 2.84464 8.30215C3.36997 7.08548 4.08231 6.02715 4.98164 5.12715C5.88164 4.22715 6.93997 3.51482 8.15664 2.99015C9.37331 2.46548 10.6733 2.20282 12.0566 2.20215C13.44 2.20215 14.74 2.46482 15.9566 2.99015C17.1733 3.51548 18.2316 4.22782 19.1316 5.12715C20.0316 6.02715 20.7443 7.08548 21.2696 8.30215C21.795 9.51882 22.0573 10.8188 22.0566 12.2021C22.0566 13.5855 21.794 14.8855 21.2686 16.1021C20.7433 17.3188 20.031 18.3771 19.1316 19.2771C18.2316 20.1771 17.1733 20.8898 15.9566 21.4151C14.74 21.9405 13.44 22.2028 12.0566 22.2021Z" fill="#4BAC99"/>
</svg>
