<svg width="13" height="13" viewBox="0 0 15 14" fill="none" xmlns="http://www.w3.org/2000/svg">
<path d="M8.83379 13.5167H2.16712C1.80984 13.5291 1.46344 13.3927 1.21065 13.1399C0.957856 12.8871 0.821371 12.5407 0.833787 12.1834V5.51673C0.821371 5.15945 0.957856 4.81305 1.21065 4.56026C1.46344 4.30747 1.80984 4.17098 2.16712 4.1834H4.83379V1.51673C4.82137 1.15945 4.95786 0.813045 5.21065 0.560255C5.46344 0.307465 5.80984 0.17098 6.16712 0.183396H12.8338C13.1911 0.17098 13.5375 0.307465 13.7903 0.560255C14.0431 0.813045 14.1795 1.15945 14.1671 1.51673V8.1834C14.1793 8.54062 14.0428 8.88691 13.79 9.13965C13.5373 9.3924 13.191 9.52894 12.8338 9.51673H10.1671V12.1834C10.1793 12.5406 10.0428 12.8869 9.79004 13.1397C9.5373 13.3924 9.19101 13.5289 8.83379 13.5167ZM2.16712 5.51673V12.1834H8.83379V9.51673H6.16712C5.80989 9.52894 5.46361 9.3924 5.21087 9.13965C4.95812 8.88691 4.82157 8.54062 4.83379 8.1834V5.51673H2.16712ZM6.16712 1.51673V8.1834H12.8338V1.51673H6.16712Z" fill="#8DCABE"/></svg>
