<svg width="16" height="17" viewBox="0 0 16 17" fill="none" xmlns="http://www.w3.org/2000/svg">
<path fill-rule="evenodd" clip-rule="evenodd" d="M0.999106 8.83266C0.999106 8.96527 1.05178 9.09245 1.14555 9.18622C1.23932 9.27998 1.3665 9.33266 1.49911 9.33266H13.2921L10.1451 12.4787C10.0512 12.5725 9.99847 12.6999 9.99847 12.8327C9.99847 12.9654 10.0512 13.0928 10.1451 13.1867C10.239 13.2805 10.3663 13.3333 10.4991 13.3333C10.6319 13.3333 10.7592 13.2805 10.8531 13.1867L14.8531 9.18666C14.8997 9.14022 14.9366 9.08504 14.9618 9.0243C14.987 8.96355 15 8.89843 15 8.83266C15 8.7669 14.987 8.70177 14.9618 8.64103C14.9366 8.58028 14.8997 8.52511 14.8531 8.47866L10.8531 4.47866C10.8066 4.43217 10.7514 4.3953 10.6907 4.37014C10.63 4.34498 10.5649 4.33203 10.4991 4.33203C10.3663 4.33203 10.239 4.38478 10.1451 4.47866C10.0512 4.57255 9.99847 4.69989 9.99847 4.83266C9.99847 4.96544 10.0512 5.09278 10.1451 5.18666L13.2921 8.33266H1.49911C1.3665 8.33266 1.23932 8.38534 1.14555 8.47911C1.05178 8.57288 0.999106 8.70005 0.999106 8.83266Z" fill="#08A081"/>
</svg>
