<svg width="20" height="20" viewBox="0 0 20 20" fill="none" xmlns="http://www.w3.org/2000/svg">
<path d="M8.79503 5.19823L5.97586 1.94407C5.65086 1.56907 5.05503 1.57073 4.67753 1.94907L2.3592 4.27157C1.6692 4.9624 1.4717 5.98823 1.87086 6.81073C4.25555 11.7482 8.23757 15.7358 13.1717 18.1274C13.9934 18.5266 15.0184 18.3291 15.7084 17.6382L18.0484 15.2941C18.4275 14.9149 18.4284 14.3157 18.05 13.9907L14.7834 11.1866C14.4417 10.8932 13.9109 10.9316 13.5684 11.2749L12.4317 12.4132C12.3735 12.4742 12.2969 12.5144 12.2137 12.5277C12.1304 12.5409 12.0451 12.5265 11.9709 12.4866C10.1129 11.4166 8.57169 9.87343 7.5042 8.01407C7.46422 7.93969 7.44974 7.85426 7.46299 7.77086C7.47624 7.68747 7.51647 7.61073 7.57753 7.5524L8.71086 6.41823C9.0542 6.07323 9.0917 5.5399 8.79503 5.1974V5.19823Z" stroke="#2F2A32" stroke-width="1.5" stroke-linecap="round" stroke-linejoin="round"/>
</svg>
