<svg width="12" height="12" viewBox="0 0 12 12" fill="none" xmlns="http://www.w3.org/2000/svg">
<path fill-rule="evenodd" clip-rule="evenodd" d="M6.26503 3.48456C6.23019 3.44964 6.18881 3.42193 6.14325 3.40303C6.09769 3.38412 6.04885 3.37439 5.99953 3.37439C5.9502 3.37439 5.90136 3.38412 5.8558 3.40303C5.81024 3.42193 5.76886 3.44964 5.73403 3.48456L1.23403 7.98456C1.16361 8.05498 1.12405 8.15048 1.12405 8.25006C1.12405 8.34964 1.16361 8.44515 1.23403 8.51556C1.30444 8.58598 1.39994 8.62553 1.49953 8.62553C1.59911 8.62553 1.69461 8.58598 1.76503 8.51556L5.99953 4.28031L10.234 8.51556C10.3044 8.58598 10.3999 8.62553 10.4995 8.62553C10.5991 8.62553 10.6946 8.58598 10.765 8.51556C10.8354 8.44515 10.875 8.34964 10.875 8.25006C10.875 8.15048 10.8354 8.05498 10.765 7.98456L6.26503 3.48456Z" fill="#A0A3BD"/>
</svg>
