<svg width="27" height="26" viewBox="0 0 27 26" fill="none" xmlns="http://www.w3.org/2000/svg">
<rect x="0.675781" y="0.0446777" width="25.6536" height="25.6536" rx="12.8268" fill="black" fill-opacity="0.35"/>
<path fill-rule="evenodd" clip-rule="evenodd" d="M9.84439 8.13244C9.54623 7.83427 9.06281 7.83427 8.76464 8.13244C8.46647 8.4306 8.46647 8.91403 8.76464 9.21219L12.424 12.8716L8.76464 16.5309C8.46647 16.8291 8.46647 17.3125 8.76464 17.6107C9.06281 17.9089 9.54623 17.9089 9.84439 17.6107L13.5038 13.9513L17.1632 17.6107C17.4613 17.9089 17.9447 17.9089 18.2429 17.6107C18.5411 17.3125 18.5411 16.8291 18.2429 16.5309L14.5835 12.8716L18.2429 9.21219C18.5411 8.91403 18.5411 8.4306 18.2429 8.13244C17.9447 7.83427 17.4613 7.83427 17.1632 8.13244L13.5038 11.7918L9.84439 8.13244Z" fill="white"/>
</svg>
