<svg width="24" height="24" viewBox="0 0 24 24" fill="none" xmlns="http://www.w3.org/2000/svg">
<rect width="24" height="24" rx="12" fill="black" fill-opacity="0.8"/>
<path fill-rule="evenodd" clip-rule="evenodd" d="M8.46434 7.28576C8.1389 6.96033 7.61126 6.96033 7.28583 7.28576C6.96039 7.6112 6.96039 8.13884 7.28583 8.46428L10.8216 12L7.28583 15.5358C6.96039 15.8612 6.96039 16.3888 7.28583 16.7143C7.61126 17.0397 8.1389 17.0397 8.46434 16.7143L12.0001 13.1785L15.5358 16.7143C15.8613 17.0397 16.3889 17.0397 16.7143 16.7143C17.0398 16.3888 17.0398 15.8612 16.7143 15.5358L13.1786 12L16.7143 8.46428C17.0398 8.13884 17.0398 7.6112 16.7143 7.28576C16.3889 6.96033 15.8613 6.96033 15.5358 7.28576L12.0001 10.8215L8.46434 7.28576Z" fill="white"/>
</svg>
