<svg width="16" height="17" viewBox="0 0 16 17" fill="none" xmlns="http://www.w3.org/2000/svg">
<path d="M7.33325 12.0979H8.66659V8.0979H7.33325V12.0979ZM7.99992 6.76457C8.18881 6.76457 8.34725 6.70057 8.47525 6.57257C8.60325 6.44457 8.66703 6.28634 8.66659 6.0979C8.66614 5.90946 8.60214 5.75123 8.47459 5.62323C8.34703 5.49523 8.18881 5.43123 7.99992 5.43123C7.81103 5.43123 7.65281 5.49523 7.52525 5.62323C7.3977 5.75123 7.3337 5.90946 7.33325 6.0979C7.33281 6.28634 7.39681 6.44479 7.52525 6.57323C7.6537 6.70168 7.81192 6.76546 7.99992 6.76457ZM7.99992 15.4312C7.0777 15.4312 6.21103 15.2561 5.39992 14.9059C4.58881 14.5557 3.88325 14.0808 3.28325 13.4812C2.68325 12.8817 2.20836 12.1761 1.85859 11.3646C1.50881 10.553 1.3337 9.68634 1.33325 8.76457C1.33281 7.84279 1.50792 6.97612 1.85859 6.16457C2.20925 5.35301 2.68414 4.64746 3.28325 4.0479C3.88236 3.44834 4.58792 2.97346 5.39992 2.62323C6.21192 2.27301 7.07859 2.0979 7.99992 2.0979C8.92125 2.0979 9.78792 2.27301 10.5999 2.62323C11.4119 2.97346 12.1175 3.44834 12.7166 4.0479C13.3157 4.64746 13.7908 5.35301 14.1419 6.16457C14.493 6.97612 14.6679 7.84279 14.6666 8.76457C14.6653 9.68634 14.4901 10.553 14.1413 11.3646C13.7924 12.1761 13.3175 12.8817 12.7166 13.4812C12.1157 14.0808 11.4101 14.5559 10.5999 14.9066C9.7897 15.2572 8.92303 15.4321 7.99992 15.4312Z" fill="#417465"/>
</svg>
