<svg width="16" height="16" viewBox="0 0 16 16" fill="none" xmlns="http://www.w3.org/2000/svg">
<path d="M14.7898 7.89071L8.35391 1.45946C8.30757 1.41303 8.25252 1.37619 8.19193 1.35106C8.13134 1.32593 8.06638 1.31299 8.00078 1.31299C7.93518 1.31299 7.87023 1.32593 7.80963 1.35106C7.74904 1.37619 7.694 1.41303 7.64766 1.45946L1.21172 7.89071C1.02422 8.07821 0.917969 8.3329 0.917969 8.59852C0.917969 9.15008 1.36641 9.59852 1.91797 9.59852H2.59609V14.1876C2.59609 14.4641 2.81953 14.6876 3.09609 14.6876H7.00078V11.1876H8.75078V14.6876H12.9055C13.182 14.6876 13.4055 14.4641 13.4055 14.1876V9.59852H14.0836C14.3492 9.59852 14.6039 9.49383 14.7914 9.30477C15.1805 8.91415 15.1805 8.28133 14.7898 7.89071Z" fill="#6D7588"/>
</svg>
