<svg width="24" height="25" viewBox="0 0 24 25" fill="none" xmlns="http://www.w3.org/2000/svg">
<path d="M11.6994 17.5198C11.9756 17.5198 12.2074 17.4262 12.3946 17.239C12.5818 17.0518 12.675 16.8203 12.6744 16.5447V12.6447C12.6744 12.3684 12.5808 12.1367 12.3936 11.9495C12.2064 11.7623 11.975 11.669 11.6994 11.6697C11.4231 11.6697 11.1914 11.7633 11.0042 11.9505C10.817 12.1377 10.7237 12.3691 10.7244 12.6447V16.5447C10.7244 16.821 10.818 17.0527 11.0052 17.2399C11.1924 17.4271 11.4238 17.5204 11.6994 17.5198ZM11.6994 9.71964C11.9756 9.71964 12.2074 9.62604 12.3946 9.43883C12.5818 9.25163 12.675 9.02023 12.6744 8.74462C12.6744 8.46837 12.5808 8.23664 12.3936 8.04944C12.2064 7.86223 11.975 7.76896 11.6994 7.76961C11.4231 7.76961 11.1914 7.86321 11.0042 8.05041C10.817 8.23761 10.7237 8.46902 10.7244 8.74462C10.7244 9.02088 10.818 9.25261 11.0052 9.43981C11.1924 9.62701 11.4238 9.72029 11.6994 9.71964ZM11.6994 22.3948C10.3506 22.3948 9.08308 22.1387 7.89681 21.6265C6.71054 21.1143 5.67865 20.4198 4.80114 19.5429C3.92362 18.6654 3.22909 17.6335 2.71753 16.4472C2.20597 15.261 1.94987 13.9935 1.94922 12.6447C1.94922 11.2959 2.20532 10.0284 2.71753 8.84212C3.22974 7.65586 3.92427 6.62396 4.80114 5.74645C5.67865 4.86894 6.71054 4.1744 7.89681 3.66284C9.08308 3.15129 10.3506 2.89518 11.6994 2.89453C13.0481 2.89453 14.3157 3.15064 15.5019 3.66284C16.6882 4.17505 17.7201 4.86959 18.5976 5.74645C19.4751 6.62396 20.17 7.65586 20.6822 8.84212C21.1944 10.0284 21.4502 11.2959 21.4495 12.6447C21.4495 13.9935 21.1934 15.261 20.6812 16.4472C20.169 17.6335 19.4745 18.6654 18.5976 19.5429C17.7201 20.4204 16.6882 21.1153 15.5019 21.6275C14.3157 22.1397 13.0481 22.3955 11.6994 22.3948ZM11.6994 20.4448C13.8769 20.4448 15.7213 19.6892 17.2326 18.1779C18.7439 16.6666 19.4995 14.8222 19.4995 12.6447C19.4995 10.4671 18.7439 8.62275 17.2326 7.11147C15.7213 5.6002 13.8769 4.84456 11.6994 4.84456C9.52184 4.84456 7.67743 5.6002 6.16616 7.11147C4.65489 8.62275 3.89925 10.4671 3.89925 12.6447C3.89925 14.8222 4.65489 16.6666 6.16616 18.1779C7.67743 19.6892 9.52184 20.4448 11.6994 20.4448Z" fill="#2D2D2D"/>
</svg>
