<svg width="18" height="19" viewBox="0 0 18 19" fill="none" xmlns="http://www.w3.org/2000/svg">
<path fill-rule="evenodd" clip-rule="evenodd" d="M2.5335 3.8447C2.25 4.2482 2.25 5.4482 2.25 7.84595V9.02645C2.25 13.255 5.42925 15.3077 7.42425 16.1785C7.965 16.4147 8.23575 16.5332 9 16.5332C9.765 16.5332 10.035 16.4147 10.5758 16.1785C12.5708 15.307 15.75 13.2557 15.75 9.02645V7.84595C15.75 5.44745 15.75 4.2482 15.4665 3.8447C15.1838 3.44195 14.0565 3.0557 11.8012 2.28395L11.3715 2.13695C10.1962 1.7342 9.609 1.5332 9 1.5332C8.39175 1.5332 7.80375 1.7342 6.6285 2.13695L6.19875 2.2832C3.9435 3.0557 2.81625 3.44195 2.5335 3.8447ZM11.2943 7.9082C11.3883 7.79626 11.4351 7.65208 11.4247 7.50622C11.4143 7.36037 11.3475 7.2243 11.2384 7.12687C11.1294 7.02944 10.9867 6.9783 10.8406 6.98429C10.6945 6.99028 10.5564 7.05292 10.4557 7.15895L8.19675 9.68945L7.54425 8.95895C7.44453 8.84876 7.30525 8.78251 7.15684 8.77467C7.00843 8.76684 6.86294 8.81805 6.75217 8.91713C6.6414 9.01621 6.57434 9.1551 6.56564 9.30347C6.55695 9.45183 6.60732 9.59761 6.70575 9.70895L7.77675 10.909C7.82952 10.9681 7.89417 11.0154 7.96649 11.0477C8.0388 11.0801 8.11714 11.0969 8.19637 11.0969C8.27561 11.0969 8.35395 11.0801 8.42626 11.0477C8.49858 11.0154 8.56323 10.9681 8.616 10.909L11.295 7.90895L11.2943 7.9082Z" fill="#08A081"/>
</svg>
