<svg width="21" height="20" viewBox="0 0 21 20" fill="none" xmlns="http://www.w3.org/2000/svg">
<path d="M10.5334 0.380859C5.15127 0.380859 0.783203 4.74893 0.783203 10.131C0.783203 15.5131 5.15127 19.8812 10.5334 19.8812C15.9154 19.8812 20.2835 15.5131 20.2835 10.131C20.2835 4.74893 15.9154 0.380859 10.5334 0.380859ZM7.89106 14.3138L4.39076 10.8135C4.30049 10.7233 4.22889 10.6161 4.18003 10.4981C4.13118 10.3802 4.10604 10.2538 4.10604 10.1261C4.10604 9.99848 4.13118 9.87207 4.18003 9.75413C4.22889 9.63618 4.30049 9.52902 4.39076 9.43875C4.48103 9.34848 4.58819 9.27688 4.70613 9.22802C4.82408 9.17917 4.95049 9.15403 5.07815 9.15403C5.2058 9.15403 5.33221 9.17917 5.45016 9.22802C5.5681 9.27688 5.67526 9.34848 5.76553 9.43875L8.58333 12.2468L15.2914 5.53869C15.4737 5.35638 15.721 5.25397 15.9788 5.25397C16.2366 5.25397 16.4839 5.35638 16.6662 5.53869C16.8485 5.721 16.9509 5.96826 16.9509 6.22608C16.9509 6.4839 16.8485 6.73116 16.6662 6.91346L9.26584 14.3138C9.17563 14.4042 9.06849 14.4759 8.95054 14.5249C8.83259 14.5738 8.70615 14.599 8.57845 14.599C8.45075 14.599 8.32431 14.5738 8.20636 14.5249C8.08841 14.4759 7.98127 14.4042 7.89106 14.3138Z" fill="#08A081"/>
</svg>
