<svg width="49" height="66" viewBox="0 0 49 66" fill="none" xmlns="http://www.w3.org/2000/svg">
<path d="M39.1428 15.9162V60.9149C39.1428 63.5071 37.041 65.6089 34.4524 65.6089H5.76661C3.17796 65.6089 1.07617 63.5071 1.07617 60.9149V15.9162C1.07617 14.3503 1.84588 12.9616 3.02693 12.1087C3.79664 11.554 4.74387 11.2258 5.76661 11.2258H34.4524C35.4824 11.2258 36.4336 11.558 37.207 12.12C38.3807 12.9732 39.1428 14.3579 39.1428 15.9162Z" fill="#DA0735"/>
<path d="M39.2335 15.9162C39.2282 26.2032 39.2861 38.8464 39.4007 49.0735L39.5223 60.1259L39.5249 60.8168C39.566 62.5632 38.6502 64.2994 37.1585 65.2234C36.3222 65.7676 35.2922 66.0193 34.3202 65.9988L31.557 65.9849C27.8727 65.9792 24.1888 65.9067 20.5045 65.8689C17.7516 65.8139 12.205 65.7865 9.45209 65.7739L6.6889 65.7636C5.28528 65.8517 3.7876 65.6275 2.67808 64.6812C1.55863 63.7661 0.875702 62.3632 0.851193 60.9158L0.765413 55.3895C0.733618 53.5473 0.706791 51.7052 0.700829 49.8631C0.57663 38.5798 1.02441 27.2975 0.838277 16.0149C0.688575 13.262 3.14541 10.777 5.89933 10.8747C10.4066 10.8429 15.2186 10.8346 19.7149 10.9135L30.7674 11.0638C31.6957 11.1009 34.0072 11.0536 34.9233 11.1271C37.3119 11.3371 39.2848 13.5157 39.2335 15.9162ZM39.0523 15.9162C39.0811 13.6276 37.1906 11.5288 34.8994 11.3705C34.0353 11.3377 31.6815 11.3848 30.7674 11.3877C23.1594 11.5298 13.4275 11.6398 5.89933 11.5768C3.03744 11.4636 1.05157 13.9294 1.30427 16.7055C1.14563 27.7579 1.57387 38.8097 1.45199 49.8628C1.44603 51.7049 1.4192 53.547 1.38741 55.3891L1.30195 60.9152C1.28109 62.2459 1.87824 63.5535 2.90595 64.4037C3.96016 65.3112 5.33397 65.5198 6.6889 65.4536L9.45209 65.4433C12.209 65.4281 17.7493 65.3996 20.5045 65.3483C24.1888 65.3105 27.8727 65.238 31.557 65.2324L34.3202 65.2184C35.1879 65.2287 36.0156 64.9989 36.7326 64.5468C38.0054 63.7675 38.788 62.3079 38.7615 60.8162L38.7642 60.1253L38.8857 49.0728C39.0228 38.865 39.0331 26.1814 39.0523 15.9162Z" fill="black"/>
<path d="M37.2079 12.1203L20.382 24.5313C20.2273 24.6445 20.0197 24.6445 19.869 24.5313L3.02783 12.109C3.79754 11.5542 4.74477 11.226 5.76751 11.226H34.4533C35.4837 11.2257 36.4345 11.5579 37.2079 12.1203Z" fill="#E1395D"/>
<path d="M37.2982 12.12C33.2373 15.1449 28.6085 18.6125 24.6421 21.7549C23.5355 22.6045 21.7683 24.0137 20.6554 24.8232C20.3497 25.0798 19.8791 25.0742 19.5771 24.8132L19.3098 24.6178C18.9776 24.3694 18.0641 23.6855 17.7197 23.4268C16.2803 22.3657 12.9133 19.6638 11.4461 18.5456C8.8588 16.5194 5.14872 13.9916 2.40771 12.1237C3.13966 11.5232 3.98919 11.038 4.94006 10.8956C5.59285 10.7638 6.50597 10.8529 7.16075 10.836C11.4802 10.9297 15.7991 11.1642 20.1192 10.931C22.999 10.8019 25.8784 10.8303 28.7582 10.9469C30.1979 11.0006 31.638 11.0469 33.0777 11.0701C33.6937 11.0973 34.6393 11.0513 35.2534 11.1751C35.9906 11.3387 36.7441 11.5835 37.2982 12.12ZM37.117 12.1207C37.0359 12.1144 37.0266 12.1081 36.9339 12.0468C36.4139 11.7166 35.8233 11.4961 35.2146 11.407C34.6333 11.3026 33.6838 11.3897 33.078 11.3815C28.7589 11.4659 24.4397 11.7451 20.1196 11.5209C15.7994 11.2881 11.4806 11.5222 7.16108 11.616L6.08137 11.6246C5.05035 11.5904 4.0902 11.8243 3.24002 12.4035L3.24333 11.817C5.71805 13.7677 9.10389 16.4998 11.6637 18.2522C14.1143 19.9446 17.7575 22.4773 20.1232 24.2171C20.1292 24.2184 20.1378 24.2147 20.1437 24.2124L20.1838 24.1836L20.4468 23.9912C21.3927 23.2987 23.21 22.0368 24.1913 21.3552C28.3436 18.5118 33.0436 15.0935 37.117 12.1207Z" fill="black"/>
<path d="M33.3967 44.8409C33.3967 51.8889 27.6824 57.6025 20.6343 57.6025C13.5861 57.6025 7.87354 51.8889 7.87354 44.8409C7.87354 37.7935 13.5867 32.0793 20.6343 32.0793C27.6824 32.0799 33.3967 37.7935 33.3967 44.8409Z" fill="white"/>
<path d="M20.7449 34.0383C18.5864 34.0387 16.4765 34.6791 14.6819 35.8786C12.8874 37.0781 11.4888 38.7827 10.6629 40.777C9.83711 42.7712 9.62114 44.9656 10.0423 47.0826C10.4636 49.1996 11.503 51.1442 13.0293 52.6705C14.5556 54.1968 16.5002 55.2363 18.6172 55.6575C20.7342 56.0787 22.9286 55.8627 24.9229 55.0369C26.9172 54.2111 28.6218 52.8125 29.8213 51.0179C31.0207 49.2233 31.6612 47.1134 31.6616 44.9549C31.6616 43.5213 31.3792 42.1018 30.8306 40.7773C30.282 39.4528 29.4779 38.2494 28.4641 37.2357C27.4504 36.222 26.247 35.4179 24.9225 34.8693C23.5981 34.3207 22.1785 34.0383 20.7449 34.0383ZM27.6357 42.3181C27.6339 42.3395 27.6278 42.3603 27.6178 42.3793C27.6078 42.3982 27.5941 42.415 27.5775 42.4285C27.5471 42.4517 27.5099 42.4641 27.4717 42.4638C27.464 42.4638 27.2083 42.4327 27.2083 42.4327C27.1872 42.4308 27.1667 42.4246 27.1481 42.4147C27.1294 42.4047 27.1129 42.3911 27.0996 42.3747C27.0862 42.3583 27.0763 42.3394 27.0703 42.3191C27.0643 42.2988 27.0624 42.2775 27.0648 42.2564C27.0648 42.2564 27.0958 41.896 27.0958 41.712C27.0962 40.5538 26.6613 39.4378 25.8774 38.5853C25.7475 38.4395 25.5763 38.3365 25.3865 38.29C25.1967 38.2435 24.9974 38.2557 24.8147 38.325C24.632 38.3943 24.4747 38.5174 24.3635 38.6781C24.2523 38.8387 24.1926 39.0293 24.1921 39.2247L24.1882 48.1905C24.1872 49.1586 23.9173 50.1073 23.4085 50.931C22.8998 51.7546 22.1723 52.4207 21.3071 52.855C20.6013 53.2112 19.8194 53.3901 19.0289 53.3762H19.0057C18.3246 53.3767 17.65 53.243 17.0206 52.9827C16.3913 52.7224 15.8193 52.3407 15.3375 51.8592C14.8557 51.3778 14.4736 50.8061 14.2128 50.177C13.952 49.5477 13.8178 48.8733 13.8178 48.1922C13.8178 47.9887 13.8531 47.5878 13.8531 47.5878C13.854 47.566 13.8597 47.5446 13.8698 47.5251C13.8798 47.5057 13.894 47.4887 13.9113 47.4753C13.9414 47.4517 13.9788 47.4392 14.0171 47.44C14.021 47.44 14.2805 47.469 14.2805 47.469C14.3225 47.4743 14.3608 47.4956 14.3876 47.5284C14.4143 47.5612 14.4274 47.6031 14.424 47.6453C14.424 47.6471 14.3912 48.0074 14.3912 48.1915C14.391 49.35 14.8267 50.4662 15.6118 51.3181C15.7419 51.4636 15.913 51.5663 16.1027 51.6125C16.2923 51.6588 16.4915 51.6465 16.674 51.5773C16.8565 51.5081 17.0137 51.3851 17.125 51.2247C17.2362 51.0643 17.2962 50.874 17.2971 50.6788V41.7155C17.2983 40.7443 17.57 39.7928 18.0818 38.9675C18.5936 38.1421 19.3251 37.4757 20.1944 37.0429C20.541 36.8625 20.9106 36.7302 21.2929 36.6497C21.6752 36.5665 22.0655 36.5256 22.4567 36.5276C23.0064 36.5253 23.553 36.6097 24.0764 36.7777C24.8985 37.0429 25.6411 37.5098 26.2364 38.1357C27.1647 39.1164 27.6782 40.4177 27.6699 41.768C27.6685 41.9521 27.6357 42.3181 27.6357 42.3181Z" fill="#08A081"/>
<path d="M38.363 24.7269C44.134 24.7269 48.8128 20.0487 48.8128 14.2778C48.8128 8.50742 44.134 3.8292 38.3631 3.8287C32.5925 3.8287 27.9146 8.50746 27.9146 14.2778C27.9146 20.0486 32.5921 24.7269 38.363 24.7269Z" fill="white" stroke="black" stroke-width="0.342593" stroke-miterlimit="10"/>
<path d="M39.0089 19.9287C38.0154 19.9287 37.1647 19.6946 36.4566 19.2264C35.76 18.7468 35.229 18.0616 34.8636 17.1708C34.4981 16.2801 34.3154 15.2009 34.3154 13.9333C34.3154 12.9055 34.4296 11.9977 34.658 11.2097C34.8978 10.4103 35.2404 9.73656 35.6858 9.18841C36.1312 8.64026 36.6736 8.22344 37.3131 7.93795C37.964 7.65245 38.6949 7.50971 39.5057 7.50971C40.0082 7.50971 40.5164 7.58964 41.0302 7.74952C41.5556 7.89798 42.0466 8.12637 42.5034 8.43471C42.6861 8.54891 42.806 8.69736 42.8631 8.88008C42.9202 9.06279 42.9259 9.24551 42.8802 9.42823C42.846 9.59952 42.7661 9.75369 42.6404 9.89073C42.5262 10.0163 42.3778 10.0963 42.1951 10.1305C42.0123 10.1534 41.8125 10.102 41.5955 9.97638C41.2073 9.74798 40.8418 9.5881 40.4992 9.49675C40.1566 9.40539 39.814 9.35971 39.4714 9.35971C38.8091 9.35971 38.2495 9.51388 37.7927 9.82221C37.336 10.1305 36.9876 10.593 36.7478 11.2097C36.5194 11.8264 36.4052 12.5972 36.4052 13.5222V14.8069H36.1997C36.291 14.2245 36.4795 13.7278 36.765 13.3167C37.0619 12.8941 37.4387 12.5744 37.8955 12.3574C38.3523 12.129 38.8605 12.0148 39.4201 12.0148C40.1167 12.0148 40.7333 12.1804 41.2701 12.5116C41.8068 12.8427 42.2293 13.2995 42.5377 13.8819C42.846 14.4643 43.0002 15.1324 43.0002 15.8861C43.0002 16.6627 42.8289 17.3593 42.4863 17.9759C42.1551 18.5812 41.6869 19.0608 41.0816 19.4148C40.4878 19.7574 39.7969 19.9287 39.0089 19.9287ZM38.889 18.1815C39.3002 18.1815 39.6599 18.0901 39.9682 17.9074C40.288 17.7247 40.5335 17.4677 40.7048 17.1366C40.8761 16.794 40.9617 16.4057 40.9617 15.9718C40.9617 15.5264 40.8761 15.1381 40.7048 14.8069C40.5335 14.4758 40.288 14.2188 39.9682 14.0361C39.6599 13.842 39.3002 13.7449 38.889 13.7449C38.4779 13.7449 38.1182 13.842 37.8099 14.0361C37.5015 14.2188 37.256 14.4758 37.0733 14.8069C36.902 15.1381 36.8164 15.5264 36.8164 15.9718C36.8164 16.4057 36.902 16.794 37.0733 17.1366C37.256 17.4677 37.5015 17.7247 37.8099 17.9074C38.1182 18.0901 38.4779 18.1815 38.889 18.1815Z" fill="#08A081"/>
</svg>
