<svg width="67" height="79" viewBox="0 0 67 79" fill="none" xmlns="http://www.w3.org/2000/svg">
<path d="M50.7779 25.132L40.5715 70.7572C39.9835 73.3856 37.3758 75.04 34.7511 74.4528L5.6659 67.9464C3.04121 67.3593 1.38687 64.7515 1.97485 62.1231L12.1813 16.4979C12.5364 14.9102 13.6318 13.6768 15.0228 13.0799C15.929 12.692 16.9639 12.5741 18.0009 12.8061L47.086 19.3124C48.1304 19.5461 49.0195 20.0986 49.6761 20.8439C50.6727 21.9752 51.1314 23.5521 50.7779 25.132Z" fill="#DA0735"/>
<path d="M50.8706 25.1528C48.532 35.5819 45.7231 48.4143 43.5196 58.8097L41.136 70.0436L40.982 70.7447C40.6275 72.5248 39.3052 74.0774 37.5831 74.6759C36.6118 75.038 35.5103 75.0596 34.5294 74.8183L31.7309 74.1774C27.9966 73.3361 24.2778 72.427 20.5508 71.553C17.7721 70.8729 12.1545 69.587 9.36608 68.9498L6.56674 68.3126C5.1236 68.0836 3.65592 67.5166 2.74558 66.3055C1.8181 65.1237 1.44387 63.5464 1.7473 62.0733L2.9138 56.4505C3.29938 54.5755 3.69 52.7017 4.10178 50.8326C6.53508 39.364 9.5481 28.0262 11.9184 16.5443C12.3911 13.7191 15.4457 11.7567 18.2158 12.4804C22.7931 13.4705 27.674 14.5535 32.215 15.6533L43.3872 18.3126C44.3201 18.5608 46.6745 19.0371 47.5866 19.3194C49.9609 20.0741 51.4672 22.7305 50.8706 25.1528ZM50.6869 25.1117C51.2352 22.7978 49.7945 20.241 47.5073 19.5608C46.6386 19.3316 44.2413 18.8454 43.3138 18.6411C35.5677 17.0595 25.6753 14.9636 18.0566 13.1923C15.1805 12.4284 12.6077 14.4781 12.2343 17.3501C9.56658 28.5205 7.49407 39.8232 4.86348 51.0026C4.43961 52.869 3.99459 54.7307 3.54452 56.5913L2.20449 62.1749C1.8815 63.5194 2.19039 64.9806 3.03957 66.0758C3.90262 67.235 5.24823 67.7582 6.63705 67.9983L9.44105 68.6147C12.2398 69.2245 17.8637 70.4523 20.6689 71.0251C24.413 71.8225 28.1647 72.5845 31.9015 73.4145L34.7064 74.0271C35.5839 74.2343 36.4752 74.189 37.3047 73.8933C38.772 73.3918 39.8966 72.0894 40.2081 70.5709L40.3675 69.871L42.9976 58.6922C45.4519 48.3733 48.3392 35.5155 50.6869 25.1117Z" fill="black"/>
<path d="M49.6777 20.8454L29.8025 29.6129C29.62 29.6926 29.4095 29.6455 29.2824 29.4965L15.0243 13.0814C15.9306 12.6935 16.9655 12.5756 18.0024 12.8076L47.0876 19.3139C48.1324 19.5473 49.0212 20.0998 49.6777 20.8454Z" fill="#E1395D"/>
<path d="M49.7693 20.8651C44.9659 23.011 39.4861 25.4771 34.7517 27.7636C33.4371 28.374 31.3255 29.402 30.0136 29.9703C29.6454 30.1612 29.1695 30.0488 28.9225 29.7156L28.6958 29.4569C28.4153 29.1297 27.6443 28.229 27.3537 27.8887C26.135 26.4862 23.334 22.983 22.0999 21.5165C19.9362 18.8752 16.7478 15.4708 14.3923 12.9551C15.2706 12.5123 16.242 12.213 17.2384 12.2843C17.9302 12.2987 18.8358 12.5962 19.5036 12.7276C23.8619 13.8023 28.1877 15.0197 32.6209 15.7631C35.5701 16.2853 38.4831 16.9673 41.3766 17.7387C42.8242 18.1197 44.2737 18.4933 45.7283 18.8434C46.3467 19.0106 47.3159 19.1784 47.9104 19.4433C48.6208 19.7764 49.3292 20.1955 49.7693 20.8651ZM49.5855 20.8247C49.5047 20.7999 49.4967 20.7915 49.4166 20.7083C48.9642 20.2556 48.4155 19.898 47.8185 19.6696C47.2528 19.4319 46.2703 19.3049 45.658 19.1591C41.2595 18.2651 36.8169 17.5685 32.4874 16.3613C28.1599 15.1453 23.7279 14.4032 19.327 13.5185L18.2303 13.2823C17.1926 13.0139 16.1661 13.0332 15.1727 13.4277L15.3091 12.8337C17.3758 15.3729 20.1891 18.911 22.3871 21.2684C24.4879 23.5402 27.6074 26.9345 29.6114 29.2351C29.6172 29.2378 29.6267 29.236 29.6333 29.235L29.6805 29.2149L29.9908 29.0794C31.1069 28.5918 33.2357 27.7246 34.3853 27.256C39.2403 25.3149 44.7811 22.915 49.5855 20.8247Z" fill="black"/>
<path d="M38.3942 53.1562C36.7956 60.3023 29.7058 64.7994 22.5595 63.2008C15.4132 61.6021 10.917 54.5133 12.5156 47.3671C14.1141 40.2216 21.2029 35.7237 28.3486 37.3222C35.4947 38.9214 39.9926 46.0107 38.3942 53.1562Z" fill="white"/>
<path d="M28.0155 39.3325C25.8268 38.8434 23.5423 39.0142 21.4507 39.8233C19.3591 40.6324 17.5544 42.0435 16.2647 43.8783C14.975 45.713 14.2584 47.8889 14.2053 50.131C14.1522 52.373 14.765 54.5805 15.9664 56.4742C17.1677 58.3679 18.9036 59.8629 20.9546 60.7702C23.0056 61.6774 25.2795 61.9561 27.4888 61.5711C29.6982 61.1862 31.7438 60.1547 33.367 58.6072C34.9902 57.0597 36.1181 55.0657 36.6081 52.8772C36.9332 51.4237 36.9689 49.9203 36.7131 48.453C36.4572 46.9856 35.9149 45.583 35.117 44.3253C34.3191 43.0676 33.2813 41.9793 32.0628 41.1226C30.8443 40.266 29.4691 39.6577 28.0155 39.3325ZM33.1242 49.2906C33.1176 49.3119 33.1067 49.3316 33.0923 49.3485C33.0778 49.3655 33.0601 49.3794 33.0402 49.3893C33.0041 49.406 32.9636 49.4101 32.9249 49.4011C32.9171 49.3993 32.6649 49.3099 32.6649 49.3099C32.644 49.3031 32.6246 49.2922 32.6079 49.2779C32.5913 49.2635 32.5776 49.246 32.5678 49.2263C32.558 49.2067 32.5522 49.1852 32.5507 49.1633C32.5493 49.1413 32.5522 49.1193 32.5593 49.0986C32.5593 49.0986 32.6725 48.7402 32.7143 48.5535C32.9774 47.3793 32.7896 46.1492 32.1881 45.107C32.0894 44.9296 31.9392 44.7864 31.7574 44.6962C31.5755 44.606 31.3706 44.5732 31.1697 44.602C30.9687 44.6309 30.7813 44.72 30.6321 44.8577C30.483 44.9953 30.3791 45.1751 30.3343 45.373L28.2968 54.4628C28.0762 55.4441 27.5873 56.3448 26.8847 57.0646C26.182 57.7843 25.2933 58.2946 24.3176 58.5387C23.5212 58.7398 22.6878 58.7439 21.8895 58.5505L21.8659 58.5452C21.1752 58.3912 20.5216 58.1027 19.9425 57.696C19.3634 57.2893 18.8701 56.7725 18.4908 56.1751C18.1115 55.5777 17.8536 54.9114 17.7319 54.2143C17.6102 53.5172 17.6271 52.803 17.7816 52.1124C17.8278 51.9061 17.9545 51.5075 17.9545 51.5075C17.9604 51.4856 17.971 51.4652 17.9856 51.4478C18.0002 51.4303 18.0184 51.4163 18.039 51.4066C18.0749 51.3896 18.1156 51.3854 18.1543 51.3949C18.1582 51.3958 18.4148 51.484 18.4148 51.484C18.4562 51.4989 18.4902 51.5292 18.5099 51.5685C18.5295 51.6079 18.5333 51.6533 18.5203 51.6953C18.5199 51.6971 18.4049 52.0551 18.3632 52.2417C18.1002 53.4163 18.2888 54.6468 18.8915 55.6887C18.9904 55.8657 19.1407 56.0087 19.3225 56.0986C19.5043 56.1885 19.709 56.2212 19.9098 56.1924C20.1106 56.1636 20.2978 56.0746 20.447 55.9372C20.5962 55.7998 20.7002 55.6204 20.7453 55.4227L22.7783 46.3346C22.9999 45.3502 23.4912 44.4471 24.1973 43.7263C24.9034 43.0056 25.7963 42.4958 26.7759 42.2541C27.1682 42.1498 27.5729 42.0995 27.9789 42.1046C28.3853 42.1069 28.7903 42.154 29.1865 42.2448C29.7444 42.3671 30.2795 42.5767 30.772 42.8657C31.5454 43.3211 32.1924 43.9629 32.6541 44.7326C33.3729 45.9374 33.5984 47.3734 33.2837 48.7406C33.2405 48.9269 33.1242 49.2906 33.1242 49.2906Z" fill="#08A081"/>
<path d="M47.8741 34.1426C54.9161 35.7179 61.9024 31.2864 63.4777 24.2446C65.0529 17.2033 60.6205 10.2175 53.5787 8.64158C46.5372 7.06639 39.5519 11.4987 37.9767 18.54C36.4015 25.5818 40.8321 32.5672 47.8741 34.1426Z" fill="white" stroke="black" stroke-width="0.325002" stroke-miterlimit="10"/>
<path d="M42.7025 26.6031C42.4276 26.5416 42.2274 26.4191 42.1019 26.2357C41.9894 26.044 41.9627 25.816 42.0218 25.5517C42.0833 25.2768 42.2034 25.0872 42.3822 24.9829C42.5715 24.8809 42.8036 24.8607 43.0785 24.9222L44.8546 25.3195L46.5964 17.5331L47.5796 17.7531L44.9328 18.643C44.7059 18.7143 44.5049 18.7193 44.3299 18.658C44.1679 18.5884 44.0364 18.4813 43.9356 18.3366C43.8477 18.1837 43.8015 18.018 43.797 17.8394C43.7926 17.6608 43.841 17.494 43.9423 17.339C44.0565 17.1759 44.227 17.0586 44.4539 16.9872L46.9368 16.1606C47.1766 16.081 47.4117 16.0226 47.642 15.9853C47.8748 15.9374 48.081 15.9336 48.2607 15.9738C48.4827 16.0235 48.6536 16.1283 48.7732 16.2883C48.8952 16.4377 48.9254 16.6498 48.8639 16.9247L46.8845 25.7735L48.502 26.1354C48.7769 26.1969 48.9729 26.3129 49.0902 26.4834C49.218 26.6564 49.2512 26.8803 49.1897 27.1551C49.1282 27.43 49.0016 27.6237 48.8099 27.7362C48.6288 27.8511 48.4008 27.8778 48.1259 27.8164L42.7025 26.6031ZM54.6725 29.414C54.3553 29.3431 54.1258 29.2029 53.9839 28.9936C53.8444 28.7736 53.8113 28.4998 53.8846 28.1721L54.1613 26.9351L50.2444 26.0589C49.9166 25.9856 49.6677 25.8578 49.4976 25.6754C49.338 25.4954 49.2914 25.2574 49.3576 24.9613C49.3954 24.7922 49.4791 24.6166 49.6086 24.4347C49.7487 24.2551 49.9717 24.0275 50.2776 23.7518L56.0311 18.4281C56.2287 18.2392 56.4304 18.1067 56.6362 18.0306C56.8419 17.9545 57.0611 17.9425 57.2937 17.9945C57.5685 18.056 57.7769 18.1914 57.9188 18.4008C58.0631 18.5996 58.0962 18.8734 58.0181 19.2223L56.5672 25.7083L57.3443 25.8821C57.6508 25.9507 57.8616 26.0755 57.9765 26.2566C58.1043 26.4296 58.1375 26.6534 58.076 26.9283C58.0145 27.2032 57.8879 27.3969 57.6962 27.5094C57.5175 27.6138 57.2748 27.6316 56.9682 27.563L56.1912 27.3892L55.9145 28.6262C55.8411 28.9539 55.6945 29.1875 55.4746 29.327C55.257 29.456 54.9897 29.485 54.6725 29.414ZM54.5374 25.2542L55.6442 20.3064L56.1041 20.4093L51.1341 25.059L51.2547 24.5199L54.5374 25.2542Z" fill="#08A081"/>
</svg>
