<svg width="36" height="50" viewBox="0 0 36 50" fill="none" xmlns="http://www.w3.org/2000/svg">
<path fill-rule="evenodd" clip-rule="evenodd" d="M9.63744 20H22.3626C27.6658 20 32 24.268 32 29.4806V34.4115C32 38.2636 29.6303 41.6 26.2563 43.0775V49.2L20.0237 43.8921H9.63744C4.33421 43.8921 0 39.6241 0 34.4115V29.4806C0 24.2637 4.33861 20 9.63744 20Z" fill="white"/>
<path d="M29.6675 10.1114L26.6618 36.2083C26.4887 37.7117 25.1293 38.7903 23.6281 38.6174L6.99176 36.7013C5.49048 36.5284 4.41193 35.1691 4.58509 33.6657L7.59076 7.56875C7.69535 6.66061 8.2345 5.90664 8.97642 5.49093C9.45986 5.22061 10.0311 5.09352 10.6243 5.16184L27.2606 7.0779C27.8579 7.1467 28.3874 7.40289 28.7983 7.7805C29.4221 8.3537 29.7716 9.20767 29.6675 10.1114Z" fill="#DA0735"/>
<path d="M29.72 10.1175C29.0298 16.0831 28.2189 23.4194 27.6023 29.3582L26.9345 35.7762L26.8899 36.177C26.7971 37.1926 26.15 38.1383 25.2232 38.5746C24.7018 38.8343 24.0877 38.9115 23.5253 38.8346L21.9237 38.642C19.7874 38.3926 17.6558 38.1045 15.5216 37.8365C13.9287 37.6207 10.7138 37.2343 9.1181 37.0431L7.51627 36.8526C6.69636 36.81 5.84276 36.5799 5.2625 35.957C4.6744 35.3515 4.37204 34.4923 4.4545 33.6512L4.77389 30.4405C4.87849 29.37 4.98598 28.2999 5.10557 27.2312C5.7872 20.6791 6.80049 14.1659 7.44616 7.61012C7.54322 6.00357 9.13404 4.72651 10.7246 4.96712C13.3408 5.24974 16.132 5.56635 18.7344 5.9124L25.1342 6.73784C25.6701 6.82137 27.0138 6.94829 27.5402 7.05212C28.9114 7.33345 29.9101 8.72872 29.72 10.1175ZM29.6149 10.1054C29.7845 8.78004 28.8283 7.43657 27.5101 7.19171C27.0112 7.11498 25.6429 6.98503 25.1126 6.9257C20.6909 6.49993 15.0395 5.91366 10.6777 5.37432C9.02556 5.11747 7.70916 6.41485 7.67029 8.04173C6.84004 14.441 6.3502 20.879 5.54122 27.2811C5.41472 28.3491 5.27612 29.4156 5.13463 30.4818L4.71597 33.681C4.61498 34.4513 4.87396 35.2496 5.41319 35.8113C5.96396 36.408 6.74676 36.6208 7.53698 36.6728L9.14018 36.8515C10.7401 37.0268 13.955 37.3803 15.5564 37.5346C17.6956 37.7588 19.8369 37.9628 21.974 38.2056L23.5774 38.3821C24.08 38.446 24.5753 38.368 25.0214 38.1537C25.8116 37.7867 26.3629 36.9925 26.4472 36.1256L26.4949 35.7251L27.3036 29.3234C28.065 23.4125 28.9181 16.0574 29.6149 10.1054Z" fill="black"/>
<path d="M28.7981 7.78066L18.211 13.8545C18.1137 13.9099 17.9933 13.896 17.9134 13.8203L8.97618 5.49108C9.45962 5.22076 10.0309 5.09369 10.624 5.162L27.2603 7.07806C27.8579 7.14669 28.3872 7.40285 28.7981 7.78066Z" fill="#E1395D"/>
<path d="M28.8509 7.78659C26.2938 9.2696 23.3776 10.9715 20.8674 12.529C20.1689 12.9478 19.0499 13.647 18.3504 14.0421C18.156 14.1705 17.8834 14.1358 17.7257 13.9643L17.5837 13.8331C17.4077 13.6669 16.9236 13.2092 16.7411 13.0362C15.9772 12.3246 14.205 10.5328 13.4288 9.78632C12.0636 8.43837 10.0808 6.72461 8.61594 5.4582C9.08054 5.15886 9.60563 4.9342 10.1666 4.91512C10.554 4.88228 11.0776 4.99494 11.4585 5.02888C13.9573 5.37176 16.4463 5.79623 18.9674 5.94957C20.6461 6.06701 22.3142 6.27586 23.9765 6.53582C24.8079 6.6631 25.6399 6.78618 26.4733 6.8958C26.8288 6.95269 27.3803 6.98916 27.7281 7.10201C28.1447 7.24614 28.5654 7.43841 28.8509 7.78659ZM28.7458 7.77487C28.6991 7.7658 28.6942 7.76153 28.6445 7.71981C28.365 7.49357 28.0372 7.3262 27.6901 7.23387C27.36 7.13454 26.8035 7.12163 26.4527 7.07637C23.9422 6.83685 21.4187 6.71028 18.9282 6.29168C16.4383 5.86808 13.9179 5.71541 11.4066 5.48125L10.7798 5.41412C10.1841 5.32547 9.6117 5.39695 9.07994 5.6761L9.12104 5.33615C10.4259 6.63279 12.2071 8.4434 13.5746 9.63067C14.8827 10.7759 16.8264 12.488 18.0822 13.6551C18.0856 13.6562 18.0909 13.6547 18.0945 13.6537L18.1196 13.6397L18.285 13.5457C18.8798 13.2072 20.018 12.5968 20.6327 12.267C23.2307 10.8954 26.1848 9.22688 28.7458 7.77487Z" fill="black"/>
<path d="M24.4029 26.5025C23.9321 30.5899 20.2364 33.5219 16.1489 33.0511C12.0613 32.5803 9.12995 28.8851 9.60072 24.7977C10.0714 20.7105 13.7665 17.7782 17.8537 18.2489C21.9412 18.7201 24.8736 22.4153 24.4029 26.5025Z" fill="white"/>
<path d="M17.7871 19.3924C16.5353 19.2485 15.2689 19.479 14.148 20.0547C13.0271 20.6305 12.1021 21.5257 11.49 22.6271C10.8778 23.7285 10.606 24.9867 10.7089 26.2426C10.8118 27.4985 11.2847 28.6957 12.0679 29.6828C12.8512 30.6699 13.9095 31.4027 15.1091 31.7884C16.3088 32.174 17.5958 32.1954 18.8075 31.8496C20.0193 31.5039 21.1013 30.8066 21.9168 29.846C22.7323 28.8854 23.2446 27.7045 23.3891 26.4527C23.4848 25.6213 23.4159 24.7792 23.1862 23.9744C22.9565 23.1696 22.5705 22.418 22.0503 21.7624C21.5301 21.1068 20.8859 20.56 20.1544 20.1534C19.4229 19.7468 18.6185 19.4882 17.7871 19.3924ZM21.2304 24.6546C21.2279 24.6669 21.223 24.6785 21.2159 24.6889C21.2089 24.6992 21.1998 24.708 21.1893 24.7147C21.1701 24.7262 21.1477 24.7309 21.1256 24.7281C21.1211 24.7276 20.9749 24.6925 20.9749 24.6925C20.9628 24.69 20.9513 24.685 20.9411 24.678C20.931 24.671 20.9223 24.662 20.9157 24.6516C20.909 24.6412 20.9045 24.6295 20.9024 24.6174C20.9003 24.6052 20.9006 24.5927 20.9034 24.5807C20.9034 24.5807 20.9455 24.3737 20.9578 24.267C21.0353 23.5953 20.8577 22.9191 20.46 22.3723C20.3944 22.279 20.302 22.2079 20.195 22.1682C20.0881 22.1286 19.9716 22.1224 19.8611 22.1503C19.7505 22.1783 19.651 22.2392 19.5758 22.325C19.5006 22.4107 19.4532 22.5173 19.4399 22.6306L18.8388 27.83C18.7735 28.3914 18.5536 28.9236 18.2036 29.3673C17.8535 29.8109 17.3871 30.1486 16.8563 30.3427C16.4232 30.5021 15.9578 30.5537 15.5003 30.4928L15.4868 30.4913C15.0917 30.4461 14.7095 30.3235 14.3619 30.1305C14.0142 29.9375 13.708 29.6779 13.4608 29.3665C13.2135 29.0551 13.0301 28.698 12.9209 28.3157C12.8116 27.9334 12.7789 27.5333 12.8244 27.1383C12.8379 27.0203 12.8852 26.7901 12.8852 26.7901C12.8872 26.7775 12.8919 26.7655 12.899 26.7549C12.9062 26.7443 12.9155 26.7354 12.9264 26.7288C12.9455 26.7171 12.968 26.7124 12.9902 26.7154C12.9924 26.7156 13.141 26.7498 13.141 26.7498C13.165 26.7556 13.1858 26.7705 13.1991 26.7914C13.2124 26.8122 13.2172 26.8373 13.2125 26.8616C13.2124 26.8626 13.1692 27.0694 13.1569 27.1762C13.0795 27.848 13.2576 28.5245 13.656 29.071C13.7217 29.1641 13.8141 29.2351 13.921 29.2745C14.0279 29.314 14.1442 29.3202 14.2547 29.2923C14.3652 29.2643 14.4646 29.2035 14.5398 29.1179C14.615 29.0323 14.6625 28.9259 14.6761 28.8128L15.2748 23.6145C15.3403 23.0514 15.5615 22.5177 15.9134 22.0732C16.2653 21.6288 16.7341 21.2911 17.2672 21.0982C17.4803 21.0167 17.7034 20.9647 17.9305 20.9435C18.1578 20.9208 18.3869 20.9231 18.6136 20.9505C18.9325 20.9858 19.2439 21.0713 19.5362 21.2037C19.9953 21.4124 20.3948 21.7328 20.6982 22.1356C21.1711 22.7663 21.382 23.5553 21.287 24.3378C21.2739 24.4445 21.2304 24.6546 21.2304 24.6546Z" fill="#08A081"/>
<path d="M30.0227 3.04923L30.0227 3.04923C26.6761 2.66379 23.6506 5.06477 23.2652 8.41127C22.8797 11.7581 25.2799 14.7836 28.6268 15.1691C31.9736 15.5546 34.9996 13.154 35.3851 9.80716C35.7705 6.46063 33.3695 3.43498 30.0227 3.04923Z" fill="white" stroke="black" stroke-width="0.2" stroke-miterlimit="10"/>
<path d="M27.6447 12.1303C27.4725 12.1105 27.3421 12.0485 27.2534 11.9443C27.1721 11.8343 27.141 11.6965 27.1601 11.5309C27.1799 11.3587 27.2412 11.2349 27.3438 11.1595C27.453 11.0848 27.5938 11.0574 27.766 11.0773L28.8786 11.2054L29.4404 6.32766L30.0563 6.39859L28.4942 7.11456C28.3599 7.17292 28.2373 7.18899 28.1262 7.16278C28.0225 7.1307 27.9352 7.07366 27.8641 6.99166C27.8004 6.90379 27.7614 6.80535 27.7471 6.69633C27.7328 6.58732 27.7516 6.48211 27.8036 6.38072C27.8629 6.27347 27.9597 6.19067 28.0939 6.13231L29.5598 5.46566C29.7014 5.40144 29.8415 5.35047 29.9801 5.31274C30.1194 5.26839 30.2453 5.2527 30.3579 5.26566C30.497 5.28168 30.6083 5.33477 30.6919 5.42492C30.7762 5.50845 30.8085 5.63631 30.7887 5.80851L30.1502 11.3519L31.1635 11.4686C31.3357 11.4884 31.4632 11.5467 31.546 11.6435C31.6354 11.741 31.6702 11.8759 31.6504 12.0481C31.6306 12.2203 31.5656 12.347 31.4556 12.4283C31.3522 12.5103 31.2144 12.5414 31.0422 12.5216L27.6447 12.1303Z" fill="#08A081"/>
</svg>
