<svg width="58" height="75" viewBox="0 0 58 75" fill="none" xmlns="http://www.w3.org/2000/svg">
<path d="M44.1346 16.6384V68.2715C44.1346 71.246 41.723 73.6577 38.7526 73.6577H5.83754C2.86723 73.6577 0.455566 71.246 0.455566 68.2715V16.6384C0.455566 14.8417 1.33875 13.2482 2.69394 12.2696C3.57713 11.6331 4.66401 11.2565 5.83754 11.2565H38.7526C39.9345 11.2565 41.026 11.6376 41.9133 12.2826C43.2602 13.2615 44.1346 14.8504 44.1346 16.6384Z" fill="#DA0735"/>
<path d="M44.2391 16.6386C44.2331 28.4423 44.2996 42.9496 44.431 54.6845L44.5705 67.3665L44.5736 68.1592C44.6207 70.1631 43.5699 72.1552 41.8582 73.2155C40.8987 73.8399 39.7168 74.1287 38.6014 74.1051L35.4308 74.0892C31.2034 74.0827 26.9763 73.9995 22.7489 73.9562C19.5901 73.8931 13.2257 73.8615 10.0669 73.8471L6.89631 73.8353C5.28575 73.9364 3.56725 73.6791 2.29415 72.5934C1.00965 71.5434 0.226035 69.9336 0.197912 68.2728L0.0994852 61.9317C0.0630024 59.8179 0.0322201 57.7042 0.0253796 55.5905C-0.117131 42.6436 0.396669 29.6979 0.183092 16.7519C0.0113188 13.5931 2.83038 10.7417 5.99032 10.8538C11.1621 10.8173 16.6836 10.8078 21.8429 10.8983L34.5248 11.0708C35.59 11.1134 38.2423 11.059 39.2934 11.1434C42.0342 11.3843 44.298 13.8842 44.2391 16.6386ZM44.0313 16.6386C44.0643 14.0126 41.8951 11.6044 39.2661 11.4227C38.2746 11.3851 35.5737 11.4391 34.5248 11.4425C25.7952 11.6055 14.6284 11.7317 5.99032 11.6595C2.70649 11.5295 0.427832 14.3588 0.717794 17.5442C0.53576 30.2262 1.02714 42.9074 0.887287 55.5901C0.880446 57.7038 0.849664 59.8175 0.813181 61.9313L0.715132 68.2721C0.69119 69.799 1.37638 71.2994 2.55562 72.2749C3.76525 73.3162 5.34161 73.5556 6.89631 73.4796L10.0669 73.4678C13.2303 73.4504 19.5874 73.4177 22.7489 73.3587C26.9763 73.3154 31.2034 73.2322 35.4308 73.2257L38.6014 73.2098C39.5971 73.2216 40.5468 72.9578 41.3695 72.4391C42.83 71.5449 43.728 69.8701 43.6976 68.1584L43.7006 67.3657L43.8401 54.6837C43.9974 42.9709 44.0092 28.4172 44.0313 16.6386Z" fill="black"/>
<path d="M41.9133 12.283L22.6066 26.5239C22.4292 26.6538 22.1909 26.6538 22.018 26.5239L2.69385 12.2701C3.57704 11.6336 4.66392 11.257 5.83745 11.257H38.7526C39.9348 11.2566 41.0259 11.6377 41.9133 12.283Z" fill="#E1395D"/>
<path d="M42.0175 12.2829C37.3579 15.7538 32.0467 19.7327 27.4954 23.3384C26.2257 24.3132 24.1979 25.9302 22.921 26.859C22.5702 27.1535 22.0302 27.147 21.6836 26.8476L21.3769 26.6233C20.9958 26.3383 19.9477 25.5536 19.5524 25.2568C17.9008 24.0391 14.0374 20.9389 12.3539 19.6559C9.38512 17.3309 5.12803 14.4305 1.98291 12.2871C2.82278 11.5981 3.79755 11.0414 4.88862 10.878C5.63765 10.7267 6.6854 10.8289 7.43671 10.8096C12.3931 10.9171 17.3486 11.1862 22.3057 10.9186C25.6101 10.7704 28.9141 10.8031 32.2184 10.9369C33.8704 10.9984 35.5228 11.0516 37.1748 11.0782C37.8816 11.1094 38.9666 11.0566 39.6712 11.1987C40.5171 11.3865 41.3817 11.6673 42.0175 12.2829ZM41.8096 12.2837C41.7165 12.2765 41.7059 12.2693 41.5995 12.199C41.0028 11.8201 40.3252 11.567 39.6267 11.4647C38.9598 11.345 37.8702 11.445 37.1751 11.4355C32.2192 11.5324 27.2632 11.8527 22.3061 11.5955C17.349 11.3283 12.3934 11.597 7.43709 11.7045L6.1982 11.7144C5.01517 11.6753 3.91346 11.9436 2.93792 12.6082L2.94173 11.9352C5.7813 14.1736 9.66635 17.3084 12.6036 19.3192C15.4154 21.2611 19.5958 24.1672 22.3103 26.1635C22.3171 26.165 22.327 26.1609 22.3339 26.1582L22.3798 26.1251L22.6816 25.9043C23.767 25.1097 25.8522 23.6618 26.9782 22.8797C31.7426 19.6171 37.1356 15.6948 41.8096 12.2837Z" fill="black"/>
<path d="M37.5421 49.8278C37.5421 57.9149 30.9853 64.4709 22.898 64.4709C14.8107 64.4709 8.25586 57.9149 8.25586 49.8278C8.25586 41.7414 14.8114 35.1847 22.898 35.1847C30.9853 35.1854 37.5421 41.7414 37.5421 49.8278Z" fill="white"/>
<path d="M23.0242 37.4326C20.5475 37.4331 18.1265 38.1679 16.0673 39.5443C14.0082 40.9206 12.4034 42.8765 11.4558 45.1648C10.5082 47.4531 10.2604 49.971 10.7437 52.4002C11.227 54.8293 12.4197 57.0606 14.171 58.8119C15.9224 60.5632 18.1537 61.756 20.5828 62.2393C23.012 62.7226 25.5298 62.4748 27.8181 61.5272C30.1065 60.5796 32.0624 58.9748 33.4387 56.9156C34.8151 54.8565 35.5499 52.4355 35.5504 49.9588C35.5504 48.3138 35.2264 46.685 34.5968 45.1652C33.9674 43.6455 33.0447 42.2646 31.8815 41.1014C30.7184 39.9383 29.3375 39.0156 27.8178 38.3861C26.298 37.7566 24.6692 37.4326 23.0242 37.4326ZM30.9309 46.9332C30.9289 46.9577 30.9219 46.9816 30.9104 47.0034C30.899 47.0251 30.8832 47.0444 30.8642 47.0599C30.8293 47.0865 30.7866 47.1008 30.7428 47.1003C30.7339 47.1003 30.4405 47.0647 30.4405 47.0647C30.4163 47.0625 30.3928 47.0554 30.3714 47.044C30.35 47.0325 30.3311 47.0169 30.3158 46.9981C30.3004 46.9793 30.289 46.9576 30.2821 46.9343C30.2753 46.911 30.2732 46.8866 30.2758 46.8624C30.2758 46.8624 30.3114 46.4489 30.3114 46.2377C30.3119 44.9088 29.8129 43.6283 28.9134 42.6501C28.7643 42.4827 28.5679 42.3645 28.3501 42.3112C28.1324 42.2578 27.9036 42.2718 27.694 42.3513C27.4844 42.4309 27.3039 42.5721 27.1763 42.7565C27.0488 42.9408 26.9802 43.1595 26.9796 43.3837L26.9752 53.6714C26.974 54.7822 26.6643 55.8708 26.0806 56.8159C25.4968 57.7609 24.662 58.5253 23.6692 59.0236C22.8594 59.4323 21.9622 59.6376 21.0552 59.6216H21.0285C20.247 59.6222 19.473 59.4688 18.7508 59.1702C18.0287 58.8715 17.3724 58.4334 16.8196 57.881C16.2668 57.3286 15.8282 56.6727 15.529 55.9507C15.2298 55.2287 15.0758 54.4549 15.0758 53.6734C15.0758 53.4399 15.1163 52.9798 15.1163 52.9798C15.1173 52.9548 15.1238 52.9302 15.1354 52.9079C15.1469 52.8856 15.1632 52.8661 15.183 52.8507C15.2176 52.8237 15.2605 52.8094 15.3044 52.8103C15.3089 52.8103 15.6067 52.8435 15.6067 52.8435C15.6549 52.8496 15.6989 52.874 15.7296 52.9116C15.7602 52.9493 15.7752 52.9973 15.7714 53.0458C15.7714 53.0478 15.7338 53.4613 15.7338 53.6726C15.7335 55.0018 16.2335 56.2826 17.1342 57.2602C17.2835 57.4271 17.4799 57.5449 17.6975 57.598C17.9151 57.6511 18.1437 57.637 18.3531 57.5575C18.5625 57.4781 18.7429 57.337 18.8706 57.153C18.9982 56.9689 19.067 56.7505 19.068 56.5265V46.2417C19.0694 45.1274 19.3812 44.0356 19.9685 43.0885C20.5557 42.1415 21.3951 41.3768 22.3926 40.8802C22.7903 40.6732 23.2143 40.5215 23.653 40.429C24.0917 40.3336 24.5395 40.2866 24.9884 40.289C25.6191 40.2863 26.2463 40.3832 26.8469 40.5759C27.7902 40.8802 28.6422 41.416 29.3253 42.1342C30.3905 43.2594 30.9797 44.7526 30.9702 46.302C30.9686 46.5132 30.9309 46.9332 30.9309 46.9332Z" fill="#08A081"/>
<path d="M43.2406 28.6276C50.9003 28.6276 57.1105 22.4182 57.1105 14.7586C57.1105 7.09969 50.9003 0.890311 43.2406 0.889655C35.5815 0.889655 29.3726 7.09972 29.3726 14.7586C29.3726 22.4182 35.5809 28.6276 43.2406 28.6276Z" fill="white" stroke="black" stroke-width="0.22069" stroke-miterlimit="10"/>
<path d="M36.6953 19.9561C36.418 19.9561 36.1993 19.8814 36.0393 19.7321C35.89 19.5721 35.8153 19.3587 35.8153 19.0921C35.8153 18.8147 35.89 18.6067 36.0393 18.4681C36.1993 18.3294 36.418 18.2601 36.6953 18.2601H38.4873V10.4041H39.4793L37.1273 11.8281C36.9247 11.9454 36.7327 11.9934 36.5513 11.9721C36.3807 11.9401 36.2313 11.8654 36.1033 11.7481C35.986 11.6201 35.906 11.4707 35.8633 11.3001C35.8207 11.1294 35.8313 10.9587 35.8953 10.7881C35.97 10.6067 36.1087 10.4574 36.3113 10.3401L38.5193 9.01205C38.7327 8.88405 38.946 8.77739 39.1593 8.69205C39.3727 8.59605 39.57 8.54805 39.7513 8.54805C39.9753 8.54805 40.162 8.61205 40.3113 8.74005C40.4607 8.85739 40.5353 9.05472 40.5353 9.33205V18.2601H42.1673C42.4447 18.2601 42.658 18.3294 42.8073 18.4681C42.9673 18.6067 43.0473 18.8147 43.0473 19.0921C43.0473 19.3694 42.9673 19.5827 42.8073 19.7321C42.658 19.8814 42.4447 19.9561 42.1673 19.9561H36.6953ZM44.8176 19.9561C44.4763 19.9561 44.2256 19.8814 44.0656 19.7321C43.9163 19.5721 43.8416 19.3427 43.8416 19.0441C43.8416 18.8627 43.8896 18.6867 43.9856 18.5161C44.0816 18.3454 44.2203 18.1641 44.4016 17.9721L47.6176 14.5481C48.1083 14.0361 48.4603 13.5721 48.6736 13.1561C48.887 12.7294 48.9936 12.3027 48.9936 11.8761C48.9936 11.3427 48.823 10.9374 48.4816 10.6601C48.151 10.3827 47.6656 10.2441 47.0256 10.2441C46.663 10.2441 46.3003 10.2974 45.9376 10.4041C45.575 10.5001 45.207 10.6707 44.8336 10.9161C44.6416 11.0441 44.4603 11.0974 44.2896 11.0761C44.1296 11.0547 43.9856 10.9854 43.8576 10.8681C43.7403 10.7507 43.6603 10.6067 43.6176 10.4361C43.575 10.2654 43.5803 10.0947 43.6336 9.92405C43.6976 9.74272 43.8256 9.58805 44.0176 9.46005C44.4763 9.15072 44.9883 8.91605 45.5536 8.75605C46.1296 8.59605 46.7056 8.51605 47.2816 8.51605C48.0923 8.51605 48.775 8.63872 49.3296 8.88405C49.8843 9.12939 50.3056 9.48672 50.5936 9.95605C50.8816 10.4254 51.0256 10.9961 51.0256 11.6681C51.0256 12.1161 50.951 12.5534 50.8016 12.9801C50.663 13.4067 50.4443 13.8387 50.1456 14.2761C49.8576 14.7134 49.479 15.1774 49.0096 15.6681L46.0016 18.8041V18.2601H50.7056C50.9936 18.2601 51.2123 18.3294 51.3616 18.4681C51.511 18.6067 51.5856 18.8147 51.5856 19.0921C51.5856 19.3694 51.511 19.5827 51.3616 19.7321C51.2123 19.8814 50.9936 19.9561 50.7056 19.9561H44.8176Z" fill="#08A081"/>
</svg>
