<svg width="61" height="73" viewBox="0 0 61 73" fill="none" xmlns="http://www.w3.org/2000/svg">
<path d="M41.6844 15.9835L48.6013 61.286C48.9998 63.8958 47.2069 66.3349 44.6008 66.7328L15.7213 71.1422C13.1151 71.5401 10.6761 69.7472 10.2776 67.1374L3.36064 21.8349C3.11993 20.2584 3.68137 18.742 4.73931 17.7019C5.42894 17.0251 6.33211 16.549 7.36176 16.3918L36.2413 11.9824C37.2782 11.824 38.2869 12.0123 39.1519 12.4592C40.4647 13.1377 41.4448 14.4147 41.6844 15.9835Z" fill="#DA0735"/>
<path d="M41.7757 15.9698C43.3517 26.3271 45.3535 39.0467 47.0409 49.3253L48.8622 60.4337L48.9711 61.1288C49.2809 62.8807 48.6258 64.7693 47.266 65.9289C46.5078 66.6053 45.5095 67.017 44.5277 67.1458L41.7437 67.5565C38.0337 68.1172 34.3137 68.6104 30.5988 69.1388C27.8188 69.5066 22.2306 70.3315 19.4571 70.742L16.6737 71.1564C15.2741 71.4608 13.7319 71.4653 12.4694 70.6832C11.2017 69.934 10.2985 68.6266 10.0514 67.1732L9.11553 61.6227C8.80036 59.773 8.49018 57.9226 8.20102 56.069C6.34157 44.7286 5.05812 33.3013 3.13642 21.9711C2.56254 19.2226 4.65399 16.3431 7.44152 16.0182C11.9744 15.2933 16.8176 14.5453 21.3564 13.9335L32.5066 12.386C33.4469 12.2806 35.7667 11.8776 36.7003 11.8109C39.1373 11.6551 41.4584 13.5451 41.7757 15.9698ZM41.5934 15.9976C41.2706 13.6892 39.0447 11.8668 36.7137 12.0596C35.8387 12.1594 33.4762 12.5686 32.5564 12.7121C24.9189 14.0246 15.1381 15.6312 7.54945 16.7251C4.65082 17.051 3.03057 19.8386 3.71171 22.5947C5.25092 33.7461 7.38088 44.8067 8.9572 55.9532C9.23436 57.8086 9.49052 59.6673 9.74167 61.5268L10.5051 67.1033C10.6886 68.4462 11.4908 69.6708 12.6561 70.3688C13.857 71.1204 15.2721 71.1193 16.626 70.8443L19.4063 70.4092C22.1795 69.9701 27.7528 69.0898 30.5188 68.6146C34.2221 68.0102 37.9197 67.371 41.628 66.799L44.4077 66.3602C45.2829 66.2372 46.0808 65.8785 46.7332 65.3132C47.8948 64.333 48.4584 62.7432 48.2024 61.2455L48.0989 60.5495L46.5223 49.4038C45.0912 39.1059 43.1519 26.3351 41.5934 15.9976Z" fill="black"/>
<path d="M39.1533 12.4595L24.1215 27.5407C23.9832 27.6785 23.7742 27.7105 23.605 27.6196L4.74071 17.7022C5.43034 17.0253 6.33351 16.5493 7.36316 16.3921L36.2427 11.9827C37.2799 11.824 38.2883 12.0122 39.1533 12.4595Z" fill="#E1395D"/>
<path d="M39.2441 12.4453C35.6208 16.1148 31.4937 20.3173 27.9835 24.0907C27.0001 25.116 25.4375 26.8065 24.4416 27.7924C24.1733 28.0978 23.6986 28.1645 23.3544 27.9482L23.0553 27.7925C22.6827 27.5935 21.6579 27.0454 21.2714 26.8379C19.6592 25.9909 15.8541 23.7883 14.2051 22.8881C11.2889 21.2459 7.16518 19.2714 4.11854 17.8121C4.76313 17.0951 5.54381 16.476 6.47921 16.1865C7.11615 15.9534 8.04912 15.9028 8.70573 15.7851C13.0688 15.2155 17.4528 14.7877 21.7663 13.8889C24.6457 13.3162 27.549 12.9023 30.4661 12.577C31.9238 12.4097 33.3807 12.235 34.8337 12.037C35.4581 11.9697 36.4029 11.778 37.0402 11.8083C37.8076 11.8597 38.6037 11.9903 39.2441 12.4453ZM39.0618 12.4738C38.9791 12.4799 38.9688 12.475 38.866 12.4276C38.2918 12.1751 37.6634 12.0438 37.0368 12.0477C36.4356 12.032 35.493 12.2656 34.8819 12.3504C30.5465 13.0994 26.2411 14.0444 21.8573 14.4827C17.4722 14.9124 13.1602 15.812 8.82596 16.5703L7.74028 16.745C6.69705 16.8691 5.76637 17.2521 4.99948 17.9659L4.91265 17.3749C7.70394 18.9585 11.5326 21.1885 14.3791 22.5592C17.1063 23.8864 21.1634 25.8762 23.8126 27.2641C23.8188 27.2645 23.8269 27.2595 23.8326 27.2562L23.8685 27.2211L24.1036 26.9869C24.9495 26.1443 26.5851 24.5946 27.4683 23.7575C31.2115 20.2567 35.4178 16.0928 39.0618 12.4738Z" fill="black"/>
<path d="M40.3462 45.9865C41.4295 53.0821 36.5549 59.7126 29.4592 60.796C22.3634 61.8794 15.734 57.0054 14.6506 49.9098C13.5673 42.8148 18.4407 36.1838 25.5359 35.1005C32.6317 34.0177 39.2629 38.8915 40.3462 45.9865Z" fill="white"/>
<path d="M25.948 37.0558C23.775 37.388 21.7493 38.357 20.127 39.8405C18.5047 41.3239 17.3586 43.255 16.8338 45.3897C16.3089 47.5244 16.4288 49.7668 17.1783 51.8333C17.9277 53.8999 19.2731 55.6979 21.0444 56.9998C22.8156 58.3018 24.9331 59.0494 27.1291 59.148C29.3252 59.2467 31.5012 58.6919 33.382 57.554C35.2628 56.416 36.7639 54.7459 37.6957 52.7549C38.6274 50.7638 38.9478 48.5412 38.6164 46.3681C38.3961 44.9248 37.8936 43.5391 37.1377 42.29C36.3818 41.0409 35.3872 39.9529 34.2109 39.0882C33.0345 38.2235 31.6993 37.5989 30.2816 37.2502C28.8638 36.9015 27.3913 36.8354 25.948 37.0558ZM34.1581 44.3323C34.1596 44.3541 34.1566 44.376 34.1495 44.3966C34.1423 44.4172 34.1311 44.4362 34.1165 44.4524C34.0894 44.4804 34.0539 44.4986 34.0154 44.5041C34.0076 44.5053 33.7454 44.5134 33.7454 44.5134C33.7239 44.5147 33.7023 44.5116 33.682 44.5044C33.6617 44.4973 33.643 44.4861 33.627 44.4716C33.611 44.4572 33.5981 44.4397 33.5889 44.4201C33.5798 44.4006 33.5747 44.3795 33.5738 44.358C33.5738 44.358 33.5496 43.9904 33.5213 43.805C33.3437 42.639 32.7343 41.5823 31.8141 40.8446C31.6609 40.7177 31.4727 40.6403 31.2745 40.6227C31.0763 40.6051 30.8775 40.648 30.7042 40.7458C30.531 40.8437 30.3915 40.9918 30.3043 41.1707C30.217 41.3495 30.1861 41.5506 30.2157 41.7473L31.59 50.7742C31.7377 51.749 31.6118 52.7457 31.2263 53.6531C30.8407 54.5605 30.2106 55.3429 29.4064 55.9131C28.7506 56.3802 27.9909 56.6805 27.193 56.788L27.1695 56.7916C26.4839 56.8968 25.7843 56.8659 25.1106 56.7006C24.437 56.5353 23.8025 56.2389 23.2435 55.8282C22.6844 55.4176 22.2118 54.9009 21.8525 54.3075C21.4933 53.7141 21.2545 53.0558 21.1498 52.3701C21.1185 52.1652 21.0924 51.7561 21.0924 51.7561C21.09 51.734 21.0924 51.7116 21.0996 51.6905C21.1067 51.6694 21.1183 51.6501 21.1337 51.6339C21.1604 51.6056 21.1961 51.5873 21.2348 51.5822C21.2387 51.5816 21.5044 51.5708 21.5044 51.5708C21.5475 51.5697 21.5894 51.5852 21.6214 51.6142C21.6533 51.6431 21.6729 51.6832 21.676 51.7262C21.6763 51.728 21.6987 52.0959 21.727 52.2812C21.9049 53.4476 22.5151 54.5043 23.4364 55.2414C23.5897 55.3678 23.7778 55.4449 23.9758 55.4623C24.1738 55.4797 24.3725 55.4367 24.5456 55.339C24.7187 55.2412 24.8581 55.0933 24.9454 54.9147C25.0328 54.7361 25.0639 54.5352 25.0348 54.3386L23.657 45.3148C23.5089 44.3369 23.6362 43.3372 24.0246 42.4276C24.413 41.518 25.047 40.7346 25.8557 40.1652C26.1769 39.9304 26.5286 39.7404 26.9011 39.6005C27.2732 39.458 27.6598 39.3568 28.054 39.2988C28.607 39.212 29.1703 39.2129 29.7231 39.3015C30.5915 39.4422 31.4108 39.7981 32.1064 40.3368C33.1917 41.1813 33.9088 42.4125 34.1079 43.7732C34.1348 43.9588 34.1581 44.3323 34.1581 44.3323Z" fill="#08A081"/>
<path d="M42.5088 26.6417C49.24 25.6139 53.8641 19.3241 52.8364 12.5931C51.8088 5.86262 45.5183 1.23925 38.7871 2.26641C32.0565 3.29406 27.4335 9.58435 28.4611 16.3148C29.4889 23.0458 35.7777 27.6694 42.5088 26.6417Z" fill="white" stroke="black" stroke-width="0.234483" stroke-miterlimit="10"/>
<path d="M36.6848 19.0673C36.4839 19.098 36.3173 19.0681 36.1849 18.9776C36.059 18.8782 35.9813 18.7319 35.9518 18.5388C35.9211 18.3379 35.9522 18.179 36.0451 18.062C36.1456 17.9439 36.2964 17.8694 36.4972 17.8388L37.7953 17.6406L36.9264 11.95L37.645 11.8403L36.0988 13.1319C35.965 13.2393 35.8312 13.2953 35.6975 13.2999C35.5703 13.2956 35.4539 13.258 35.3482 13.1872C35.2491 13.1074 35.1746 13.0081 35.1248 12.8892C35.075 12.7703 35.0639 12.6455 35.0914 12.5148C35.1254 12.3752 35.2093 12.2517 35.3431 12.1443L36.7957 10.9381C36.936 10.8218 37.0788 10.7209 37.2239 10.6355C37.3678 10.5424 37.5054 10.4858 37.6368 10.4658C37.799 10.441 37.9413 10.4667 38.0636 10.5429C38.1848 10.6114 38.2607 10.7461 38.2914 10.9469L39.2788 17.4141L40.461 17.2336C40.6619 17.2029 40.8241 17.2295 40.9476 17.3135C41.0788 17.3962 41.1598 17.538 41.1904 17.7389C41.2211 17.9398 41.1867 18.1032 41.0874 18.2291C40.9957 18.3537 40.8494 18.4314 40.6485 18.4621L36.6848 19.0673ZM43.9996 18.069C43.5823 18.1328 43.1414 18.1447 42.6767 18.105C42.2121 18.0652 41.7971 17.9626 41.4319 17.7969C41.262 17.7201 41.14 17.6201 41.0658 17.497C40.9917 17.3739 40.9574 17.2527 40.9629 17.1332C40.9749 17.0049 41.0169 16.8917 41.0889 16.7938C41.1687 16.6946 41.273 16.6273 41.402 16.5918C41.5387 16.5551 41.6947 16.5668 41.87 16.6271C42.2127 16.7487 42.5368 16.8257 42.8422 16.8581C43.1464 16.8829 43.453 16.8716 43.7621 16.8244C44.1021 16.7725 44.3809 16.6825 44.5985 16.5544C44.8162 16.4263 44.9688 16.2607 45.0564 16.0575C45.1517 15.8532 45.1793 15.6197 45.1392 15.357C45.0802 14.9707 44.9052 14.7049 44.6142 14.5595C44.3297 14.4053 43.9402 14.3659 43.4457 14.4414L42.704 14.5547C42.4876 14.5877 42.3132 14.559 42.1808 14.4685C42.0561 14.3769 41.979 14.2345 41.9495 14.0413C41.9201 13.8481 41.9511 13.6892 42.0428 13.5645C42.1422 13.4386 42.3 13.3592 42.5164 13.3262L43.119 13.2341C43.4127 13.1893 43.6567 13.1046 43.8512 12.98C44.0444 12.8477 44.1855 12.6839 44.2742 12.4885C44.363 12.2931 44.3879 12.0679 44.349 11.8129C44.2947 11.4575 44.1337 11.2053 43.8658 11.0565C43.6057 10.9064 43.2516 10.8656 42.8034 10.934C42.5176 10.9777 42.2524 11.0538 42.0081 11.1622C41.7703 11.2618 41.5143 11.4234 41.2401 11.6472C41.114 11.7534 40.9841 11.8088 40.8503 11.8134C40.7244 11.8168 40.6124 11.7825 40.5144 11.7105C40.4164 11.6385 40.3432 11.5469 40.2946 11.4357C40.2448 11.3168 40.2336 11.192 40.2611 11.0613C40.2874 10.9229 40.3669 10.7961 40.4995 10.681C40.7987 10.4139 41.141 10.1956 41.5262 10.0261C41.9103 9.84883 42.3149 9.72777 42.7398 9.66288C43.3039 9.57676 43.8003 9.59188 44.2292 9.70825C44.657 9.81689 44.9999 10.0175 45.2581 10.3102C45.5228 10.594 45.69 10.9638 45.7596 11.4196C45.8091 11.7442 45.7927 12.0511 45.7104 12.3404C45.6269 12.6219 45.4872 12.8726 45.2915 13.0922C45.0957 13.3119 44.8453 13.4845 44.5404 13.6101L44.5191 13.4711C45.0896 13.4788 45.5577 13.6446 45.9234 13.9683C46.2879 14.2842 46.512 14.7165 46.5958 15.2651C46.6689 15.7441 46.6128 16.1796 46.4276 16.5716C46.2423 16.9636 45.9442 17.2898 45.5333 17.5502C45.1212 17.8029 44.61 17.9759 43.9996 18.069Z" fill="#08A081"/>
</svg>
