<svg width="46" height="59" viewBox="0 0 46 59" fill="none" xmlns="http://www.w3.org/2000/svg">
<path d="M36.2859 11.9308V53.2114C36.2859 55.5895 34.3577 57.5176 31.983 57.5176H5.66739C3.29263 57.5176 1.3645 55.5895 1.3645 53.2114V11.9308C1.3645 10.4943 2.07061 9.22032 3.15408 8.43795C3.86019 7.92903 4.72915 7.62793 5.66739 7.62793H31.983C32.9279 7.62793 33.8005 7.93268 34.5099 8.44828C35.5867 9.23096 36.2859 10.5013 36.2859 11.9308Z" fill="#DA0735"/>
<path d="M36.3691 11.9311C36.3643 21.3682 36.4174 32.9667 36.5226 42.3488L36.6341 52.488L36.6365 53.1218C36.6742 54.7239 35.8341 56.3166 34.4656 57.1643C33.6984 57.6635 32.7535 57.8944 31.8618 57.8755L29.3269 57.8628C25.9471 57.8576 22.5675 57.7911 19.1877 57.7564C16.6622 57.706 11.5739 57.6808 9.04847 57.6692L6.51359 57.6598C5.22595 57.7406 3.85201 57.5349 2.83417 56.6669C1.80722 55.8274 1.18071 54.5404 1.15823 53.2126L1.07954 48.1429C1.05037 46.4529 1.02576 44.763 1.02029 43.0731C0.906354 32.7221 1.31714 22.372 1.14638 12.0217C1.00905 9.4962 3.26288 7.21655 5.78925 7.30618C9.92412 7.27701 14.3385 7.26942 18.4633 7.34173L28.6026 7.47966C29.4542 7.51369 31.5747 7.47025 32.4151 7.5377C34.6063 7.73033 36.4162 9.72894 36.3691 11.9311ZM36.2029 11.9311C36.2294 9.83163 34.4951 7.90625 32.3932 7.76102C31.6005 7.73094 29.4411 7.77408 28.6026 7.77682C21.6232 7.90716 12.6954 8.00803 5.78925 7.9503C3.16383 7.84639 1.34205 10.1084 1.57388 12.6552C1.42834 22.7944 1.8212 32.933 1.70938 43.0728C1.70392 44.7627 1.67931 46.4526 1.65014 48.1425L1.57175 53.212C1.55261 54.4328 2.10042 55.6323 3.04321 56.4123C4.01031 57.2448 5.27061 57.4362 6.51359 57.3754L9.04847 57.366C11.5776 57.352 16.6601 57.3259 19.1877 57.2788C22.5675 57.2442 25.9471 57.1776 29.3269 57.1725L31.8618 57.1597C32.6578 57.1691 33.4171 56.9583 34.0749 56.5435C35.2425 55.8286 35.9605 54.4896 35.9362 53.1212L35.9386 52.4874L36.0501 42.3482C36.1759 32.9837 36.1853 21.3481 36.2029 11.9311Z" fill="black"/>
<path d="M34.5099 8.44925L19.0743 19.8348C18.9324 19.9387 18.7419 19.9387 18.6037 19.8348L3.15405 8.43892C3.86016 7.93 4.72912 7.62891 5.66736 7.62891H31.9829C32.9282 7.6286 33.8005 7.93334 34.5099 8.44925Z" fill="#E1395D"/>
<path d="M34.5933 8.44905C30.868 11.224 26.6216 14.4051 22.9829 17.2879C21.9678 18.0672 20.3466 19.36 19.3257 20.1026C19.0452 20.338 18.6135 20.3329 18.3364 20.0934L18.0912 19.9142C17.7865 19.6863 16.9485 19.0589 16.6325 18.8216C15.312 17.8481 12.2233 15.3695 10.8773 14.3437C8.50375 12.4849 5.10022 10.166 2.58569 8.45238C3.25716 7.90153 4.0365 7.45642 4.9088 7.32577C5.50766 7.20484 6.34532 7.28658 6.946 7.27108C10.9086 7.35707 14.8706 7.57218 18.8338 7.35829C21.4756 7.23979 24.1171 7.26591 26.759 7.37286C28.0797 7.42208 29.4008 7.46462 30.7215 7.48589C31.2867 7.51081 32.1541 7.46858 32.7174 7.58221C33.3938 7.7323 34.085 7.95684 34.5933 8.44905ZM34.4271 8.44965C34.3527 8.44388 34.3441 8.4381 34.2591 8.3819C33.7821 8.07897 33.2403 7.87662 32.6819 7.79489C32.1486 7.69918 31.2776 7.77909 30.7218 7.77149C26.7596 7.84897 22.7973 8.1051 18.8341 7.89941C14.8709 7.68581 10.9089 7.90063 6.94631 7.98661L5.95581 7.99451C5.00998 7.96322 4.12917 8.17772 3.34923 8.70912L3.35226 8.17104C5.62251 9.96061 8.72859 12.4669 11.0769 14.0745C13.325 15.6271 16.6671 17.9505 18.8374 19.5465C18.8429 19.5478 18.8508 19.5444 18.8563 19.5423L18.893 19.5159L19.1343 19.3393C20.002 18.704 21.6691 17.5464 22.5694 16.9211C26.3786 14.3127 30.6902 11.1769 34.4271 8.44965Z" fill="black"/>
<path d="M31.0146 38.4659C31.0146 44.9316 25.7725 50.1731 19.3067 50.1731C12.8409 50.1731 7.60034 44.9316 7.60034 38.4659C7.60034 32.0009 12.8415 26.7588 19.3067 26.7588C25.7725 26.7593 31.0146 32.0009 31.0146 38.4659Z" fill="white"/>
<path d="M19.4082 28.5562C17.428 28.5565 15.4925 29.144 13.8462 30.2444C12.1999 31.3448 10.9169 32.9085 10.1593 34.7381C9.40167 36.5675 9.20355 38.5806 9.58995 40.5227C9.97635 42.4648 10.9299 44.2487 12.3301 45.6489C13.7303 47.0491 15.5142 48.0026 17.4563 48.3891C19.3984 48.7754 21.4115 48.5773 23.2409 47.8197C25.0705 47.0621 26.6342 45.7791 27.7346 44.1328C28.835 42.4865 29.4225 40.551 29.4228 38.5708C29.4228 37.2556 29.1638 35.9534 28.6605 34.7384C28.1572 33.5233 27.4196 32.4193 26.4896 31.4894C25.5597 30.5594 24.4557 29.8218 23.2406 29.3185C22.0256 28.8152 20.7234 28.5562 19.4082 28.5562ZM25.7296 36.1519C25.728 36.1715 25.7224 36.1906 25.7132 36.208C25.7041 36.2253 25.6915 36.2407 25.6763 36.2531C25.6484 36.2744 25.6143 36.2858 25.5792 36.2855C25.5721 36.2855 25.3375 36.257 25.3375 36.257C25.3182 36.2552 25.2994 36.2496 25.2823 36.2404C25.2652 36.2313 25.2501 36.2188 25.2378 36.2037C25.2255 36.1887 25.2164 36.1713 25.2109 36.1527C25.2054 36.1341 25.2037 36.1146 25.2059 36.0953C25.2059 36.0953 25.2343 35.7647 25.2343 35.5958C25.2347 34.5333 24.8357 33.5096 24.1166 32.7275C23.9974 32.5937 23.8404 32.4992 23.6663 32.4566C23.4922 32.4139 23.3093 32.4251 23.1417 32.4887C22.9741 32.5523 22.8298 32.6652 22.7278 32.8126C22.6258 32.9599 22.571 33.1348 22.5705 33.3141L22.567 41.539C22.5661 42.4271 22.3184 43.2975 21.8518 44.0531C21.385 44.8086 20.7176 45.4197 19.9239 45.8181C19.2765 46.1448 18.5591 46.309 17.834 46.2962H17.8127C17.1878 46.2967 16.5691 46.1741 15.9917 45.9353C15.4143 45.6965 14.8896 45.3463 14.4476 44.9046C14.0056 44.463 13.655 43.9386 13.4158 43.3614C13.1766 42.7841 13.0535 42.1654 13.0535 41.5406C13.0535 41.3539 13.0858 40.9861 13.0858 40.9861C13.0867 40.9661 13.0919 40.9465 13.1011 40.9286C13.1103 40.9108 13.1233 40.8952 13.1392 40.8829C13.1669 40.8613 13.2011 40.8498 13.2363 40.8506C13.2398 40.8506 13.4779 40.8771 13.4779 40.8771C13.5164 40.882 13.5516 40.9015 13.5762 40.9316C13.6007 40.9617 13.6126 41.0001 13.6096 41.0388C13.6096 41.0405 13.5795 41.3711 13.5795 41.54C13.5793 42.6027 13.979 43.6267 14.6992 44.4082C14.8185 44.5417 14.9756 44.6359 15.1495 44.6783C15.3235 44.7208 15.5062 44.7095 15.6737 44.646C15.8411 44.5825 15.9853 44.4697 16.0874 44.3225C16.1894 44.1754 16.2444 44.0008 16.2452 43.8217V35.599C16.2464 34.7081 16.4957 33.8352 16.9652 33.0781C17.4346 32.3209 18.1057 31.7096 18.9032 31.3125C19.2212 31.147 19.5602 31.0257 19.911 30.9518C20.2616 30.8755 20.6197 30.8379 20.9785 30.8398C21.4828 30.8377 21.9843 30.9151 22.4644 31.0692C23.2186 31.3125 23.8998 31.7408 24.4459 32.3151C25.2975 33.2147 25.7687 34.4085 25.761 35.6472C25.7597 35.8161 25.7296 36.1519 25.7296 36.1519Z" fill="#08A081"/>
<path d="M35.5708 20.0143C40.8649 20.0143 45.1571 15.7226 45.1571 10.4286C45.1571 5.13499 40.8649 0.84331 35.5708 0.842857C30.2771 0.842857 25.9857 5.13503 25.9857 10.4286C25.9857 15.7226 30.2766 20.0143 35.5708 20.0143Z" fill="white" stroke="black" stroke-width="0.314286" stroke-miterlimit="10"/>
<path d="M37.5299 15.5725C37.2156 15.5725 36.9694 15.4887 36.7914 15.3211C36.6133 15.143 36.5242 14.8915 36.5242 14.5668V13.3411H32.6428C32.318 13.3411 32.0561 13.273 31.8571 13.1368C31.6685 13.0006 31.5742 12.7858 31.5742 12.4925C31.5742 12.3249 31.6161 12.1415 31.6999 11.9425C31.7942 11.7434 31.9566 11.4815 32.1871 11.1568L36.4928 4.9182C36.6394 4.6982 36.8018 4.53058 36.9799 4.41534C37.158 4.3001 37.3623 4.24248 37.5928 4.24248C37.8652 4.24248 38.0904 4.32629 38.2685 4.49391C38.4466 4.65106 38.5356 4.90248 38.5356 5.2482V11.6753H39.3056C39.6095 11.6753 39.8347 11.7487 39.9814 11.8953C40.1385 12.0315 40.2171 12.2358 40.2171 12.5082C40.2171 12.7806 40.1385 12.9901 39.9814 13.1368C39.8347 13.273 39.6095 13.3411 39.3056 13.3411H38.5356V14.5668C38.5356 14.8915 38.4466 15.143 38.2685 15.3211C38.0904 15.4887 37.8442 15.5725 37.5299 15.5725ZM36.5242 11.6753V6.77249H36.9799L33.2714 12.2096V11.6753H36.5242Z" fill="#08A081"/>
</svg>
