<svg width="53" height="65" viewBox="0 0 53 65" fill="none" xmlns="http://www.w3.org/2000/svg">
<path d="M43.2855 17.6415L36.103 58.2924C35.6892 60.6342 33.455 62.1975 31.1164 61.7843L5.20226 57.2055C2.86373 56.7923 1.30049 54.5581 1.71427 52.2163L8.89683 11.5654C9.14678 10.1508 10.0638 9.01909 11.2668 8.43717C12.0507 8.05887 12.9588 7.91355 13.8828 8.0768L39.7969 12.6555C40.7275 12.82 41.5337 13.2719 42.1426 13.9031C43.0668 14.8612 43.5342 16.2337 43.2855 17.6415Z" fill="#DA0735"/>
<path d="M43.3672 17.6559C41.7204 26.9481 39.7547 38.379 38.2258 47.6362L36.5715 57.6402L36.4636 58.2647C36.2219 59.849 35.1175 61.2712 33.6225 61.8679C32.7801 62.226 31.8094 62.2889 30.9346 62.1152L28.4406 61.6616C25.1132 61.0685 21.7968 60.4149 18.4745 59.7927C15.9964 59.3036 10.9901 58.3935 8.50514 57.9427L6.01056 57.4924C4.7285 57.3479 3.41131 56.9063 2.56003 55.8744C1.6948 54.869 1.30179 53.4926 1.51067 52.1812L2.31529 47.1751C2.5806 45.5059 2.8504 43.8374 3.13905 42.1723C4.82786 31.9594 7.03322 21.8387 8.66597 11.6165C8.97015 9.10565 11.5863 7.25292 14.0585 7.78076C18.1354 8.47148 22.4837 9.23207 26.5331 10.021L36.4936 11.921C37.3264 12.1027 39.422 12.4288 40.2379 12.6415C42.3622 13.2124 43.7968 15.4955 43.3672 17.6559ZM43.2036 17.6269C43.5949 15.5641 42.2221 13.3663 40.1775 12.8576C39.4021 12.69 37.2682 12.3568 36.4419 12.2136C29.5464 11.1276 20.7372 9.67353 13.9464 8.41506C11.3791 7.85593 9.19155 9.76649 8.97672 12.3147C7.06925 22.2739 5.69206 32.3262 3.81769 42.2919C3.51827 43.9551 3.19999 45.615 2.87724 47.2741L1.91799 52.2526C1.68673 53.4514 2.01747 54.728 2.81018 55.66C3.61768 56.6481 4.82545 57.0559 6.06004 57.2123L8.55789 57.6441C11.0509 58.0704 16.0604 58.929 18.5576 59.3224C21.8919 59.8763 25.2315 60.3988 28.5607 60.9818L31.0591 61.4103C31.8414 61.5581 32.6258 61.4826 33.3457 61.1886C34.6199 60.6878 35.5599 59.4941 35.7741 58.1423L35.8867 57.5186L37.7607 47.5534C39.5139 38.3537 41.5477 26.8972 43.2036 17.6269Z" fill="black"/>
<path d="M42.1426 13.9032L24.9614 22.4294C24.8036 22.507 24.616 22.4739 24.4979 22.3475L11.2668 8.43731C12.0507 8.05901 12.9588 7.9137 13.8827 8.07695L39.7969 12.6557C40.7277 12.8199 41.5337 13.2717 42.1426 13.9032Z" fill="#E1395D"/>
<path d="M42.2243 13.9175C38.073 16.0019 33.3379 18.3957 29.2531 20.6013C28.1179 21.1922 26.2964 22.1832 25.1619 22.7368C24.8448 22.9199 24.4205 22.8396 24.1893 22.5557L23.9791 22.3365C23.7186 22.0591 23.0026 21.2954 22.7327 21.0068C21.6018 19.8184 18.9914 16.8401 17.8444 15.5958C15.8305 13.3523 12.8824 10.4766 10.7043 8.35165C11.4614 7.92604 12.3063 7.62331 13.188 7.64643C13.7988 7.63154 14.6095 7.85778 15.2037 7.94703C19.0909 8.72117 22.955 9.62237 26.895 10.1013C29.5171 10.4443 32.1138 10.9296 34.6967 11.4946C35.9888 11.7729 37.2823 12.0446 38.5792 12.2954C39.1314 12.4182 39.9929 12.5276 40.5279 12.7375C41.1678 13.003 41.8094 13.3443 42.2243 13.9175ZM42.0605 13.8892C41.9882 13.8705 41.9809 13.8634 41.9069 13.7932C41.4898 13.4119 40.9916 13.1184 40.4559 12.9407C39.9474 12.7537 39.0757 12.6808 38.5298 12.5767C34.6145 11.9635 30.6681 11.5264 26.8011 10.6342C22.9355 9.73432 18.9966 9.25649 15.0795 8.6517L14.1027 8.48714C13.1768 8.29175 12.2721 8.34973 11.4116 8.73732L11.5082 8.20797C13.4324 10.3653 16.055 13.3738 18.0878 15.3654C20.0315 17.2855 22.9184 20.155 24.7779 22.1043C24.783 22.1064 24.7914 22.1045 24.7972 22.1034L24.838 22.0837L25.1062 21.9519C26.0713 21.4772 27.9144 20.6274 28.9097 20.1683C33.1146 18.2624 37.9062 15.9246 42.0605 13.8892Z" fill="black"/>
<path d="M33.4772 42.8545C32.3522 49.2215 26.278 53.471 19.9109 52.3459C13.5437 51.2209 9.29508 45.1476 10.4201 38.7805C11.5449 32.4141 17.6182 28.1639 23.9848 29.2888C30.3519 30.4143 34.6021 36.488 33.4772 42.8545Z" fill="white"/>
<path d="M23.7716 31.0763C21.8216 30.7321 19.8133 30.9739 18.0007 31.771C16.1881 32.5682 14.6525 33.8848 13.5881 35.5546C12.5238 37.2244 11.9784 39.1723 12.021 41.152C12.0636 43.1317 12.6923 45.0543 13.8275 46.6768C14.9627 48.2992 16.5535 49.5486 18.3987 50.2671C20.2439 50.9855 22.2608 51.1406 24.1942 50.7129C26.1276 50.2852 27.8908 49.2938 29.2608 47.8641C30.6308 46.4344 31.5461 44.6305 31.891 42.6806C32.1199 41.3856 32.0914 40.0581 31.8071 38.774C31.523 37.49 30.9886 36.2744 30.2347 35.1969C29.4807 34.1193 28.5219 33.2008 27.413 32.4938C26.304 31.7868 25.0667 31.3051 23.7716 31.0763ZM28.675 39.656C28.67 39.675 28.6612 39.6929 28.6491 39.7084C28.6371 39.7239 28.622 39.7369 28.6048 39.7465C28.5737 39.7626 28.5381 39.7679 28.5036 39.7614C28.4966 39.7602 28.2706 39.6913 28.2706 39.6913C28.2519 39.6862 28.2344 39.6774 28.2191 39.6654C28.2038 39.6534 28.1911 39.6385 28.1817 39.6215C28.1722 39.6046 28.1662 39.5859 28.1641 39.5666C28.1619 39.5473 28.1636 39.5278 28.1691 39.5092C28.1691 39.5092 28.2547 39.1885 28.284 39.0222C28.4693 37.9761 28.2545 36.8985 27.6824 36.0032C27.5883 35.8507 27.4501 35.7303 27.2861 35.6581C27.1221 35.5858 26.94 35.565 26.764 35.5984C26.5879 35.6319 26.4261 35.718 26.3 35.8454C26.1739 35.9727 26.0895 36.1354 26.0579 36.3118L24.6233 44.4107C24.4678 45.2851 24.0726 46.0991 23.4815 46.762C22.8905 47.4248 22.1269 47.9104 21.276 48.1647C20.5816 48.3738 19.8466 48.4106 19.1348 48.2719L19.1138 48.2682C18.4984 48.1599 17.9104 47.9315 17.3833 47.5959C16.8563 47.2602 16.4006 46.8241 16.0422 46.3123C15.6838 45.8004 15.4298 45.223 15.2946 44.613C15.1595 44.003 15.1459 43.3723 15.2546 42.757C15.2871 42.5732 15.383 42.2166 15.383 42.2166C15.3873 42.197 15.3958 42.1786 15.408 42.1627C15.4202 42.1467 15.4357 42.1336 15.4535 42.1243C15.4845 42.1078 15.5202 42.1025 15.5547 42.1093C15.5582 42.1099 15.788 42.1775 15.788 42.1775C15.8251 42.189 15.8564 42.2143 15.8753 42.2482C15.8942 42.2822 15.8993 42.3221 15.8896 42.3596C15.8893 42.3613 15.8021 42.6816 15.7727 42.8479C15.5876 43.8944 15.8031 44.9723 16.3763 45.8672C16.4706 46.0194 16.6088 46.1395 16.7727 46.2116C16.9367 46.2836 17.1186 46.3043 17.2945 46.2709C17.4704 46.2375 17.6321 46.1515 17.7582 46.0244C17.8843 45.8972 17.9688 45.7348 18.0008 45.5586L19.4315 37.4614C19.5876 36.5843 19.985 35.7681 20.5791 35.1041C21.1731 34.4402 21.9403 33.955 22.7947 33.7027C23.1367 33.5951 23.4916 33.5346 23.8499 33.5228C24.2085 33.5087 24.5676 33.534 24.9207 33.5983C25.4176 33.684 25.898 33.8475 26.344 34.0828C27.0443 34.4536 27.6406 34.9939 28.0785 35.6544C28.7606 36.6884 29.0168 37.946 28.7937 39.1645C28.7631 39.3306 28.675 39.656 28.675 39.656Z" fill="#08A081"/>
<path d="M41.1757 25.4695C46.3852 26.3899 51.355 22.9131 52.2755 17.7037C53.1958 12.4947 49.7184 7.52541 44.509 6.60451C39.2999 5.68412 34.3309 9.16156 33.4105 14.3705C32.4901 19.5799 35.9662 24.549 41.1757 25.4695Z" fill="white" stroke="black" stroke-width="0.3" stroke-miterlimit="10"/>
<path d="M42.0909 20.1373C41.5591 20.0433 41.0199 19.877 40.4731 19.6382C39.9263 19.3994 39.4655 19.1048 39.0908 18.7542C38.9165 18.5914 38.8096 18.4202 38.7703 18.2406C38.7309 18.061 38.7391 17.9 38.7947 17.7575C38.8619 17.6069 38.9593 17.487 39.0867 17.3978C39.224 17.3104 39.3781 17.2716 39.549 17.2815C39.7298 17.2931 39.914 17.3713 40.1016 17.5162C40.4671 17.8042 40.8282 18.0305 41.185 18.1951C41.5436 18.3498 41.9198 18.462 42.3137 18.5316C42.747 18.6081 43.1218 18.6134 43.4381 18.5475C43.7544 18.4815 44.0073 18.3434 44.1967 18.1331C44.3961 17.9246 44.5253 17.653 44.5844 17.3182C44.6714 16.8258 44.5684 16.4319 44.2754 16.1364C43.9939 15.8328 43.538 15.6253 42.9078 15.5139L41.9624 15.3469C41.6867 15.2982 41.4872 15.1918 41.3638 15.0279C41.2503 14.8656 41.2153 14.6614 41.2588 14.4152C41.3023 14.1691 41.4052 13.9892 41.5674 13.8757C41.7395 13.7639 41.9634 13.7324 42.2391 13.7811L43.0072 13.9168C43.3814 13.983 43.7119 13.9804 43.9986 13.9092C44.2871 13.8282 44.5253 13.6875 44.713 13.4871C44.9007 13.2867 45.0233 13.024 45.0807 12.6991C45.1608 12.2461 45.069 11.8744 44.8055 11.5842C44.5518 11.2956 44.1394 11.1009 43.5683 11C43.2039 10.9356 42.8514 10.919 42.5108 10.9502C42.1818 10.9733 41.8052 11.0642 41.3811 11.2228C41.1847 11.2998 41.0046 11.3137 40.8407 11.2644C40.6866 11.2169 40.5649 11.1294 40.4758 11.0019C40.3866 10.8745 40.3353 10.7334 40.322 10.5787C40.3105 10.4142 40.3482 10.2584 40.4351 10.1113C40.5238 9.9543 40.6721 9.83327 40.8801 9.74815C41.3522 9.54724 41.8565 9.42309 42.393 9.3757C42.9311 9.31847 43.471 9.3377 44.0126 9.4334C44.7315 9.56041 45.3269 9.7824 45.799 10.0994C46.2728 10.4065 46.6061 10.7903 46.7989 11.2509C47.0033 11.7034 47.0541 12.2201 46.9515 12.8011C46.8784 13.2147 46.7326 13.5799 46.5142 13.8967C46.2975 14.2037 46.0254 14.4501 45.6981 14.636C45.3708 14.8219 44.9965 14.9284 44.5754 14.9555L44.6067 14.7783C45.2948 15.0217 45.7941 15.4146 46.1045 15.9569C46.4166 16.4893 46.5109 17.1051 46.3874 17.8043C46.2795 18.4148 46.0329 18.9196 45.6476 19.3187C45.2623 19.7177 44.7672 19.9907 44.1624 20.1377C43.5594 20.2749 42.8688 20.2748 42.0909 20.1373Z" fill="#08A081"/>
</svg>
