<svg width="39" height="51" viewBox="0 0 39 51" fill="none" xmlns="http://www.w3.org/2000/svg">
<path d="M30.4748 10.4409V46.0923C30.4748 48.1461 28.8096 49.8113 26.7587 49.8113H4.03156C1.98063 49.8113 0.31543 48.1461 0.31543 46.0923V10.4409C0.31543 9.20028 0.92525 8.10004 1.86097 7.42436C2.47079 6.98484 3.22126 6.72479 4.03156 6.72479H26.7587C27.5747 6.72479 28.3283 6.98798 28.941 7.43328C29.871 8.10922 30.4748 9.20632 30.4748 10.4409Z" fill="#DA0735"/>
<path d="M30.5461 10.4409C30.5419 18.5911 30.5878 28.608 30.6786 36.7107L30.7749 45.4673L30.777 46.0147C30.8095 47.3983 30.084 48.7738 28.9021 49.5059C28.2396 49.937 27.4235 50.1365 26.6533 50.1202L24.4641 50.1092C21.5452 50.1047 18.6265 50.0472 15.7075 50.0173C13.5265 49.9738 9.13203 49.952 6.95095 49.942L4.76174 49.9339C3.64968 50.0037 2.4631 49.826 1.58406 49.0764C0.697142 48.3513 0.156071 47.2398 0.136654 46.0931L0.0686921 41.7147C0.0435016 40.2552 0.0222472 38.7957 0.017524 37.3363C-0.0808765 28.3968 0.27389 19.4581 0.126421 10.5191C0.00781539 8.33804 1.95431 6.36924 4.13617 6.44665C7.70719 6.42146 11.5196 6.4149 15.082 6.47736L23.8386 6.59648C24.5741 6.62587 26.4054 6.58835 27.1312 6.6466C29.0236 6.81296 30.5867 8.53904 30.5461 10.4409ZM30.4025 10.4409C30.4254 8.62773 28.9276 6.9649 27.1123 6.83947C26.4277 6.81349 24.5628 6.85075 23.8386 6.85312C17.811 6.96569 10.1006 7.0528 4.13617 7.00294C1.86877 6.9132 0.295408 8.86678 0.49562 11.0662C0.369929 19.8228 0.709214 28.5789 0.61265 37.336C0.607927 38.7955 0.586673 40.2549 0.561482 41.7144L0.493782 46.0926C0.477251 47.1469 0.950361 48.1829 1.76459 48.8565C2.59981 49.5754 3.68825 49.7408 4.76174 49.6883L6.95095 49.6801C9.13518 49.6681 13.5246 49.6455 15.7075 49.6048C18.6265 49.5749 21.5452 49.5174 24.4641 49.513L26.6533 49.502C27.3408 49.5101 27.9966 49.328 28.5647 48.9698C29.5731 48.3524 30.1931 47.196 30.1721 46.0141L30.1742 45.4668L30.2705 36.7102C30.3792 28.6227 30.3873 18.5738 30.4025 10.4409Z" fill="black"/>
<path d="M28.9404 7.43347L15.6097 17.2664C15.4871 17.3562 15.3226 17.3562 15.2032 17.2664L1.86035 7.42455C2.47017 6.98503 3.22064 6.72499 4.03094 6.72499H26.758C27.5744 6.72473 28.3277 6.98791 28.9404 7.43347Z" fill="#E1395D"/>
<path d="M29.013 7.43329C25.7957 9.8298 22.1284 12.5771 18.9859 15.0668C18.1092 15.7399 16.709 16.8564 15.8274 17.4977C15.5852 17.701 15.2123 17.6966 14.973 17.4898L14.7612 17.335C14.4981 17.1382 13.7744 16.5963 13.5015 16.3914C12.3611 15.5507 9.69349 13.41 8.53105 12.5241C6.48117 10.9188 3.54175 8.91612 1.37012 7.43618C1.95002 6.96044 2.62308 6.57602 3.37644 6.46319C3.89363 6.35875 4.61707 6.42934 5.13584 6.41596C8.55808 6.49022 11.9798 6.676 15.4026 6.49127C17.6841 6.38894 19.9654 6.4115 22.247 6.50386C23.3877 6.54637 24.5286 6.58311 25.6693 6.60148C26.1573 6.62299 26.9065 6.58652 27.393 6.68466C27.9771 6.81429 28.574 7.0082 29.013 7.43329ZM28.8695 7.43381C28.8052 7.42883 28.7979 7.42384 28.7244 7.3753C28.3124 7.11369 27.8446 6.93892 27.3623 6.86834C26.9018 6.78568 26.1495 6.8547 25.6695 6.84814C22.2475 6.91505 18.8256 7.13625 15.4028 6.9586C11.9801 6.77414 8.55834 6.95966 5.1361 7.03392L4.28067 7.04074C3.46382 7.01371 2.70312 7.19897 2.02953 7.6579L2.03216 7.19319C3.99282 8.73874 6.67535 10.9033 8.70345 12.2916C10.645 13.6325 13.5314 15.6391 15.4057 17.0175C15.4104 17.0185 15.4172 17.0157 15.422 17.0138L15.4537 16.991L15.6621 16.8385C16.4115 16.2899 17.8513 15.2901 18.6288 14.7501C21.9185 12.4974 25.6422 9.78913 28.8695 7.43381Z" fill="black"/>
<path d="M25.9207 33.3573C25.9207 38.9413 21.3933 43.468 15.8093 43.468C10.2252 43.468 5.69922 38.9413 5.69922 33.3573C5.69922 27.7738 10.2256 23.2466 15.8093 23.2466C21.3933 23.2471 25.9207 27.7738 25.9207 33.3573Z" fill="white"/>
<path d="M15.8976 24.7987C14.1875 24.799 12.5158 25.3064 11.094 26.2567C9.67225 27.207 8.56416 28.5576 7.90987 30.1376C7.25559 31.7176 7.08448 33.4561 7.41819 35.1334C7.75191 36.8107 8.57545 38.3513 9.7847 39.5606C10.9939 40.7698 12.5346 41.5934 14.2119 41.9271C15.8891 42.2608 17.6277 42.0897 19.2077 41.4354C20.7877 40.7811 22.1383 39.673 23.0886 38.2512C24.0389 36.8294 24.5463 35.1578 24.5466 33.4477C24.5466 32.3119 24.3229 31.1872 23.8882 30.1379C23.4536 29.0885 22.8165 28.135 22.0134 27.3319C21.2102 26.5288 20.2568 25.8917 19.2074 25.457C18.1581 25.0224 17.0334 24.7987 15.8976 24.7987ZM21.357 31.3586C21.3556 31.3755 21.3508 31.392 21.3429 31.407C21.3349 31.4221 21.3241 31.4354 21.3109 31.4461C21.2869 31.4645 21.2574 31.4743 21.2271 31.474C21.221 31.474 21.0184 31.4494 21.0184 31.4494C21.0017 31.4479 20.9855 31.443 20.9707 31.4351C20.9559 31.4272 20.9428 31.4164 20.9323 31.4034C20.9216 31.3904 20.9138 31.3754 20.909 31.3593C20.9043 31.3433 20.9028 31.3264 20.9047 31.3097C20.9047 31.3097 20.9293 31.0242 20.9293 30.8784C20.9296 29.9608 20.585 29.0766 19.964 28.4012C19.861 28.2856 19.7254 28.204 19.575 28.1672C19.4247 28.1304 19.2667 28.14 19.122 28.1949C18.9773 28.2499 18.8526 28.3474 18.7645 28.4747C18.6765 28.6019 18.6291 28.753 18.6287 28.9078L18.6256 36.0111C18.6248 36.7781 18.411 37.5298 18.0079 38.1824C17.6049 38.8349 17.0284 39.3626 16.343 39.7067C15.7838 39.9889 15.1643 40.1307 14.5381 40.1197H14.5196C13.98 40.1201 13.4456 40.0141 12.9469 39.8079C12.4483 39.6017 11.9952 39.2992 11.6135 38.9178C11.2317 38.5364 10.9289 38.0835 10.7224 37.585C10.5157 37.0865 10.4094 36.5521 10.4094 36.0125C10.4094 35.8513 10.4374 35.5336 10.4374 35.5336C10.4381 35.5163 10.4426 35.4994 10.4506 35.484C10.4585 35.4686 10.4697 35.4551 10.4835 35.4445C10.5074 35.4258 10.537 35.4159 10.5673 35.4166C10.5704 35.4166 10.776 35.4395 10.776 35.4395C10.8093 35.4437 10.8396 35.4606 10.8608 35.4866C10.882 35.5126 10.8923 35.5457 10.8897 35.5792C10.8897 35.5806 10.8637 35.8661 10.8637 36.012C10.8636 36.9298 11.2088 37.8141 11.8307 38.4891C11.9338 38.6044 12.0694 38.6857 12.2196 38.7224C12.3699 38.759 12.5277 38.7493 12.6723 38.6944C12.8169 38.6396 12.9415 38.5422 13.0296 38.4151C13.1177 38.288 13.1653 38.1372 13.1659 37.9826V30.8811C13.1669 30.1117 13.3822 29.3579 13.7877 28.704C14.1931 28.0501 14.7727 27.5221 15.4615 27.1791C15.7361 27.0363 16.0289 26.9314 16.3318 26.8676C16.6346 26.8017 16.9438 26.7693 17.2538 26.7709C17.6893 26.7691 18.1224 26.836 18.5371 26.969C19.1884 27.1792 19.7767 27.5491 20.2484 28.045C20.9838 28.8219 21.3907 29.853 21.3841 30.9228C21.383 31.0686 21.357 31.3586 21.357 31.3586Z" fill="#08A081"/>
<path d="M29.8562 17.4214C34.4284 17.4214 38.1353 13.715 38.1353 9.14287C38.1353 4.57113 34.4284 0.864677 29.8562 0.864286C25.2843 0.864286 21.5782 4.57116 21.5782 9.14287C21.5782 13.715 25.284 17.4214 29.8562 17.4214Z" fill="white" stroke="black" stroke-width="0.271429" stroke-miterlimit="10"/>
<path d="M29.2689 13.1126C28.8798 13.1126 28.4772 13.0538 28.061 12.9362C27.6448 12.8095 27.2558 12.6241 26.8939 12.3798C26.7491 12.2893 26.6541 12.1717 26.6089 12.0269C26.5637 11.8822 26.5546 11.7419 26.5817 11.6062C26.6179 11.4614 26.6813 11.3393 26.7717 11.2398C26.8713 11.1312 26.9934 11.0679 27.1382 11.0498C27.2829 11.0226 27.4413 11.0588 27.6132 11.1583C27.9208 11.3393 28.2103 11.466 28.4817 11.5383C28.7532 11.6107 29.0246 11.6469 29.296 11.6469C29.8208 11.6469 30.2641 11.5248 30.626 11.2805C30.9879 11.0362 31.2594 10.6698 31.4403 10.1812C31.6303 9.68358 31.7253 9.07286 31.7253 8.34905V7.33119H31.8882C31.8248 7.78358 31.6756 8.17715 31.4403 8.51191C31.2051 8.84667 30.9065 9.10453 30.5446 9.28548C30.1827 9.45739 29.7801 9.54334 29.3367 9.54334C28.7939 9.54334 28.3053 9.41215 27.871 9.14977C27.4458 8.88739 27.111 8.52548 26.8667 8.06405C26.6225 7.59358 26.5003 7.06429 26.5003 6.47619C26.5003 5.85191 26.6315 5.3 26.8939 4.82048C27.1653 4.34095 27.5408 3.96548 28.0203 3.69405C28.4998 3.41357 29.0472 3.27333 29.6625 3.27333C30.4587 3.27333 31.1327 3.45881 31.6846 3.82976C32.2365 4.20072 32.6572 4.74357 32.9468 5.45834C33.2363 6.16405 33.381 7.01905 33.381 8.02334C33.381 8.83762 33.286 9.56143 33.096 10.1948C32.9151 10.8191 32.6482 11.3483 32.2953 11.7826C31.9425 12.2169 31.5082 12.5472 30.9925 12.7733C30.4858 12.9995 29.9113 13.1126 29.2689 13.1126ZM29.771 8.15905C30.0968 8.15905 30.3818 8.08667 30.626 7.94191C30.8794 7.7881 31.0739 7.58 31.2096 7.31762C31.3453 7.04619 31.4132 6.73858 31.4132 6.39477C31.4132 6.04191 31.3453 5.73429 31.2096 5.47191C31.0739 5.20953 30.8794 5.00595 30.626 4.86119C30.3818 4.71643 30.0968 4.64405 29.771 4.64405C29.4453 4.64405 29.1603 4.71643 28.916 4.86119C28.6717 5.00595 28.4772 5.20953 28.3325 5.47191C28.1967 5.73429 28.1289 6.04191 28.1289 6.39477C28.1289 6.73858 28.1967 7.04619 28.3325 7.31762C28.4772 7.58 28.6717 7.7881 28.916 7.94191C29.1603 8.08667 29.4453 8.15905 29.771 8.15905Z" fill="#08A081"/>
</svg>
