<svg width="29" height="38" viewBox="0 0 29 38" fill="none" xmlns="http://www.w3.org/2000/svg">
<path d="M22.4546 7.95646V34.2259C22.4546 35.7392 21.2276 36.9662 19.7164 36.9662H2.97013C1.45892 36.9662 0.231934 35.7392 0.231934 34.2259V7.95646C0.231934 7.04231 0.681275 6.2316 1.37075 5.73373C1.8201 5.40987 2.37307 5.21826 2.97013 5.21826H19.7164C20.3177 5.21826 20.873 5.41219 21.3245 5.7403C22.0097 6.23837 22.4546 7.04675 22.4546 7.95646Z" fill="#DA0735"/>
<path d="M22.5076 7.95652C22.5045 13.9619 22.5384 21.3428 22.6053 27.3132L22.6762 33.7654L22.6778 34.1687C22.7017 35.1883 22.1671 36.2018 21.2963 36.7412C20.8081 37.0589 20.2068 37.2058 19.6393 37.1939L18.0262 37.1857C15.8754 37.1825 13.7248 37.1401 11.574 37.1181C9.96686 37.086 6.72886 37.0699 5.12175 37.0626L3.50865 37.0566C2.68924 37.108 1.81492 36.9771 1.1672 36.4247C0.513683 35.8905 0.115 35.0715 0.100692 34.2265L0.0506152 31.0003C0.0320538 29.9249 0.0163927 28.8495 0.0129124 27.7741C-0.0595931 21.1871 0.201814 14.6007 0.0931521 8.01414C0.0057587 6.40703 1.44002 4.95634 3.04771 5.01338C5.67898 4.99482 8.48813 4.98998 11.113 5.036L17.5653 5.12378C18.1072 5.14543 19.4566 5.11778 19.9914 5.16071C21.3858 5.28329 22.5376 6.55513 22.5076 7.95652ZM22.4019 7.95652C22.4187 6.62048 21.315 5.39524 19.9775 5.30282C19.473 5.28368 18.0989 5.31114 17.5653 5.31288C13.1238 5.39582 7.44251 5.46001 3.04771 5.42328C1.37698 5.35715 0.217669 6.79663 0.365193 8.41727C0.272579 14.8695 0.522578 21.3213 0.451426 27.7739C0.447946 28.8493 0.432285 29.9247 0.413723 31.0001L0.363839 34.2262C0.351658 35.003 0.700265 35.7664 1.30022 36.2627C1.91565 36.7925 2.71766 36.9143 3.50865 36.8756L5.12175 36.8696C6.73118 36.8607 9.96551 36.8441 11.574 36.8141C13.7248 36.7921 15.8754 36.7497 18.0262 36.7464L19.6393 36.7383C20.1459 36.7443 20.629 36.6101 21.0476 36.3462C21.7907 35.8913 22.2476 35.0392 22.2321 34.1683L22.2336 33.765L22.3046 27.3128C22.3846 21.3536 22.3906 13.9492 22.4019 7.95652Z" fill="black"/>
<path d="M21.3248 5.74054L11.5022 12.9859C11.4119 13.052 11.2906 13.052 11.2027 12.9859L1.37109 5.73397C1.82043 5.41011 2.37341 5.21851 2.97047 5.21851H19.7167C20.3182 5.21831 20.8733 5.41224 21.3248 5.74054Z" fill="#E1395D"/>
<path d="M21.3777 5.74041C19.0071 7.50626 16.3049 9.53062 13.9893 11.3651C13.3433 11.861 12.3116 12.6837 11.662 13.1563C11.4835 13.3061 11.2088 13.3028 11.0324 13.1505L10.8764 13.0364C10.6825 12.8914 10.1492 12.4921 9.94815 12.3411C9.10786 11.7216 7.14228 10.1443 6.28575 9.49156C4.77531 8.30866 2.60943 6.83302 1.00928 5.74254C1.43658 5.392 1.93252 5.10874 2.48762 5.0256C2.86871 4.94865 3.40177 5.00066 3.78402 4.9908C6.30566 5.04552 8.82692 5.18241 11.349 5.04629C13.0301 4.97089 14.7111 4.98751 16.3922 5.05557C17.2327 5.08689 18.0734 5.11396 18.9139 5.1275C19.2735 5.14335 19.8255 5.11648 20.184 5.18879C20.6144 5.2843 21.0543 5.42719 21.3777 5.74041ZM21.272 5.7408C21.2246 5.73712 21.2192 5.73345 21.165 5.69768C20.8615 5.50491 20.5168 5.37614 20.1614 5.32413C19.8221 5.26323 19.2677 5.31408 18.9141 5.30924C16.3926 5.35855 13.8712 5.52154 11.3491 5.39064C8.82712 5.25472 6.30586 5.39142 3.78421 5.44614L3.1539 5.45116C2.552 5.43125 1.99149 5.56775 1.49516 5.90592L1.4971 5.5635C2.94179 6.70232 4.91839 8.29725 6.41278 9.32025C7.84336 10.3083 9.97019 11.7868 11.3513 12.8025C11.3548 12.8032 11.3598 12.8011 11.3633 12.7997L11.3867 12.7829L11.5402 12.6706C12.0924 12.2663 13.1533 11.5296 13.7262 11.1317C16.1502 9.47184 18.894 7.47629 21.272 5.7408Z" fill="black"/>
<path d="M19.1002 24.8422C19.1002 28.9567 15.7643 32.2922 11.6497 32.2922C7.53512 32.2922 4.2002 28.9567 4.2002 24.8422C4.2002 20.7281 7.53545 17.3922 11.6497 17.3922C15.7643 17.3926 19.1002 20.7281 19.1002 24.8422Z" fill="white"/>
<path d="M11.7142 18.5359C10.4541 18.5361 9.2224 18.91 8.17476 19.6102C7.12713 20.3105 6.31064 21.3056 5.82853 22.4698C5.34643 23.634 5.22035 24.9151 5.46624 26.151C5.71214 27.3868 6.31896 28.5221 7.20998 29.4131C8.101 30.3041 9.23623 30.9109 10.4721 31.1568C11.708 31.4027 12.989 31.2766 14.1532 30.7945C15.3175 30.3124 16.3126 29.4959 17.0128 28.4483C17.7131 27.4007 18.0869 26.1689 18.0872 24.9088C18.0872 24.0719 17.9223 23.2432 17.602 22.47C17.2818 21.6968 16.8124 20.9943 16.2206 20.4025C15.6288 19.8107 14.9263 19.3413 14.153 19.021C13.3798 18.7007 12.5511 18.5359 11.7142 18.5359ZM15.7369 23.3695C15.7359 23.382 15.7324 23.3941 15.7265 23.4052C15.7207 23.4163 15.7127 23.4261 15.703 23.434C15.6852 23.4475 15.6635 23.4548 15.6412 23.4546C15.6367 23.4546 15.4874 23.4364 15.4874 23.4364C15.4751 23.4353 15.4632 23.4317 15.4523 23.4259C15.4414 23.4201 15.4318 23.4121 15.424 23.4025C15.4162 23.393 15.4104 23.3819 15.4068 23.3701C15.4034 23.3582 15.4023 23.3458 15.4036 23.3335C15.4036 23.3335 15.4218 23.1231 15.4218 23.0156C15.422 22.3395 15.1681 21.6881 14.7105 21.1904C14.6346 21.1052 14.5347 21.0451 14.4239 21.018C14.3131 20.9908 14.1967 20.9979 14.0901 21.0384C13.9834 21.0789 13.8916 21.1507 13.8267 21.2445C13.7618 21.3383 13.7269 21.4496 13.7266 21.5636L13.7244 26.7977C13.7238 27.3629 13.5662 27.9167 13.2692 28.3976C12.9722 28.8784 12.5475 29.2672 12.0424 29.5208C11.6304 29.7287 11.1739 29.8331 10.7125 29.825H10.6989C10.3013 29.8253 9.90749 29.7473 9.54005 29.5953C9.17264 29.4434 8.83874 29.2205 8.55749 28.9394C8.27622 28.6584 8.05311 28.3247 7.90089 27.9574C7.74865 27.59 7.6703 27.1963 7.6703 26.7987C7.6703 26.6799 7.6909 26.4459 7.6909 26.4459C7.69143 26.4331 7.69474 26.4206 7.70062 26.4093C7.70649 26.3979 7.71475 26.388 7.72486 26.3802C7.74247 26.3664 7.76428 26.3591 7.78662 26.3596C7.78889 26.3596 7.94041 26.3765 7.94041 26.3765C7.96492 26.3796 7.98731 26.392 8.00292 26.4112C8.01851 26.4304 8.02613 26.4548 8.0242 26.4794C8.0242 26.4805 8.00504 26.6908 8.00504 26.7983C8.00494 27.4746 8.2593 28.1262 8.71757 28.6236C8.79352 28.7085 8.89345 28.7685 9.00415 28.7954C9.11485 28.8225 9.23115 28.8153 9.33769 28.7749C9.44424 28.7344 9.53602 28.6627 9.60097 28.569C9.66589 28.4754 9.70092 28.3643 9.70143 28.2503V23.0177C9.70215 22.4508 9.86078 21.8953 10.1596 21.4135C10.4583 20.9317 10.8854 20.5426 11.3929 20.2899C11.5952 20.1846 11.811 20.1074 12.0342 20.0604C12.2573 20.0118 12.4851 19.9879 12.7135 19.9891C13.0344 19.9878 13.3535 20.037 13.6591 20.1351C14.139 20.2899 14.5725 20.5625 14.92 20.9279C15.462 21.5004 15.7618 22.2601 15.7569 23.0484C15.7561 23.1558 15.7369 23.3695 15.7369 23.3695Z" fill="#08A081"/>
<path d="M21.9996 0.9H21.9996C18.6309 0.9 15.9 3.63138 15.9 7C15.9 10.3689 18.6306 13.1 21.9996 13.1C25.3686 13.1 28.1 10.3689 28.1 7C28.1 3.63136 25.3686 0.900288 21.9996 0.9Z" fill="white" stroke="black" stroke-width="0.2" stroke-miterlimit="10"/>
<path d="M20.6766 10.1935C20.5033 10.1935 20.3666 10.1468 20.2666 10.0535C20.1733 9.95348 20.1266 9.82015 20.1266 9.65348C20.1266 9.48015 20.1733 9.35015 20.2666 9.26348C20.3666 9.17681 20.5033 9.13348 20.6766 9.13348H21.7966V4.22348H22.4166L20.9466 5.11348C20.8199 5.18681 20.6999 5.21681 20.5866 5.20348C20.4799 5.18348 20.3866 5.13681 20.3066 5.06348C20.2333 4.98348 20.1833 4.89015 20.1566 4.78348C20.1299 4.67681 20.1366 4.57015 20.1766 4.46348C20.2233 4.35015 20.3099 4.25681 20.4366 4.18348L21.8166 3.35348C21.9499 3.27348 22.0833 3.20681 22.2166 3.15348C22.3499 3.09348 22.4733 3.06348 22.5866 3.06348C22.7266 3.06348 22.8433 3.10348 22.9366 3.18348C23.0299 3.25681 23.0766 3.38015 23.0766 3.55348V9.13348H24.0966C24.2699 9.13348 24.4033 9.17681 24.4966 9.26348C24.5966 9.35015 24.6466 9.48015 24.6466 9.65348C24.6466 9.82681 24.5966 9.96015 24.4966 10.0535C24.4033 10.1468 24.2699 10.1935 24.0966 10.1935H20.6766Z" fill="#08A081"/>
<path d="M22.4546 7.95646V34.2259C22.4546 35.7392 21.2276 36.9662 19.7164 36.9662H2.97013C1.45892 36.9662 0.231934 35.7392 0.231934 34.2259V7.95646C0.231934 7.04231 0.681275 6.2316 1.37075 5.73373C1.8201 5.40987 2.37307 5.21826 2.97013 5.21826H19.7164C20.3177 5.21826 20.873 5.41219 21.3245 5.7403C22.0097 6.23837 22.4546 7.04675 22.4546 7.95646Z" fill="#DA0735"/>
<path d="M22.5076 7.95652C22.5045 13.9619 22.5384 21.3428 22.6053 27.3132L22.6762 33.7654L22.6778 34.1687C22.7017 35.1883 22.1671 36.2018 21.2963 36.7412C20.8081 37.0589 20.2068 37.2058 19.6393 37.1939L18.0262 37.1857C15.8754 37.1825 13.7248 37.1401 11.574 37.1181C9.96686 37.086 6.72886 37.0699 5.12175 37.0626L3.50865 37.0566C2.68924 37.108 1.81492 36.9771 1.1672 36.4247C0.513683 35.8905 0.115 35.0715 0.100692 34.2265L0.0506152 31.0003C0.0320538 29.9249 0.0163927 28.8495 0.0129124 27.7741C-0.0595931 21.1871 0.201814 14.6007 0.0931521 8.01414C0.0057587 6.40703 1.44002 4.95634 3.04771 5.01338C5.67898 4.99482 8.48813 4.98998 11.113 5.036L17.5653 5.12378C18.1072 5.14543 19.4566 5.11778 19.9914 5.16071C21.3858 5.28329 22.5376 6.55513 22.5076 7.95652ZM22.4019 7.95652C22.4187 6.62048 21.315 5.39524 19.9775 5.30282C19.473 5.28368 18.0989 5.31114 17.5653 5.31288C13.1238 5.39582 7.44251 5.46001 3.04771 5.42328C1.37698 5.35715 0.217669 6.79663 0.365193 8.41727C0.272579 14.8695 0.522578 21.3213 0.451426 27.7739C0.447946 28.8493 0.432285 29.9247 0.413723 31.0001L0.363839 34.2262C0.351658 35.003 0.700265 35.7664 1.30022 36.2627C1.91565 36.7925 2.71766 36.9143 3.50865 36.8756L5.12175 36.8696C6.73118 36.8607 9.96551 36.8441 11.574 36.8141C13.7248 36.7921 15.8754 36.7497 18.0262 36.7464L19.6393 36.7383C20.1459 36.7443 20.629 36.6101 21.0476 36.3462C21.7907 35.8913 22.2476 35.0392 22.2321 34.1683L22.2336 33.765L22.3046 27.3128C22.3846 21.3536 22.3906 13.9492 22.4019 7.95652Z" fill="black"/>
<path d="M21.3248 5.74054L11.5022 12.9859C11.4119 13.052 11.2906 13.052 11.2027 12.9859L1.37109 5.73397C1.82043 5.41011 2.37341 5.21851 2.97047 5.21851H19.7167C20.3182 5.21831 20.8733 5.41224 21.3248 5.74054Z" fill="#E1395D"/>
<path d="M21.3777 5.74041C19.0071 7.50626 16.3049 9.53062 13.9893 11.3651C13.3433 11.861 12.3116 12.6837 11.662 13.1563C11.4835 13.3061 11.2088 13.3028 11.0324 13.1505L10.8764 13.0364C10.6825 12.8914 10.1492 12.4921 9.94815 12.3411C9.10786 11.7216 7.14228 10.1443 6.28575 9.49156C4.77531 8.30866 2.60943 6.83302 1.00928 5.74254C1.43658 5.392 1.93252 5.10874 2.48762 5.0256C2.86871 4.94865 3.40177 5.00066 3.78402 4.9908C6.30566 5.04552 8.82692 5.18241 11.349 5.04629C13.0301 4.97089 14.7111 4.98751 16.3922 5.05557C17.2327 5.08689 18.0734 5.11396 18.9139 5.1275C19.2735 5.14335 19.8255 5.11648 20.184 5.18879C20.6144 5.2843 21.0543 5.42719 21.3777 5.74041ZM21.272 5.7408C21.2246 5.73712 21.2192 5.73345 21.165 5.69768C20.8615 5.50491 20.5168 5.37614 20.1614 5.32413C19.8221 5.26323 19.2677 5.31408 18.9141 5.30924C16.3926 5.35855 13.8712 5.52154 11.3491 5.39064C8.82712 5.25472 6.30586 5.39142 3.78421 5.44614L3.1539 5.45116C2.552 5.43125 1.99149 5.56775 1.49516 5.90592L1.4971 5.5635C2.94179 6.70232 4.91839 8.29725 6.41278 9.32025C7.84336 10.3083 9.97019 11.7868 11.3513 12.8025C11.3548 12.8032 11.3598 12.8011 11.3633 12.7997L11.3867 12.7829L11.5402 12.6706C12.0924 12.2663 13.1533 11.5296 13.7262 11.1317C16.1502 9.47184 18.894 7.47629 21.272 5.7408Z" fill="black"/>
<path d="M19.1002 24.8422C19.1002 28.9567 15.7643 32.2922 11.6497 32.2922C7.53512 32.2922 4.2002 28.9567 4.2002 24.8422C4.2002 20.7281 7.53545 17.3922 11.6497 17.3922C15.7643 17.3926 19.1002 20.7281 19.1002 24.8422Z" fill="white"/>
<path d="M11.7142 18.5359C10.4541 18.5361 9.2224 18.91 8.17476 19.6102C7.12713 20.3105 6.31064 21.3056 5.82853 22.4698C5.34643 23.634 5.22035 24.9151 5.46624 26.151C5.71214 27.3868 6.31896 28.5221 7.20998 29.4131C8.101 30.3041 9.23623 30.9109 10.4721 31.1568C11.708 31.4027 12.989 31.2766 14.1532 30.7945C15.3175 30.3124 16.3126 29.4959 17.0128 28.4483C17.7131 27.4007 18.0869 26.1689 18.0872 24.9088C18.0872 24.0719 17.9223 23.2432 17.602 22.47C17.2818 21.6968 16.8124 20.9943 16.2206 20.4025C15.6288 19.8107 14.9263 19.3413 14.153 19.021C13.3798 18.7007 12.5511 18.5359 11.7142 18.5359ZM15.7369 23.3695C15.7359 23.382 15.7324 23.3941 15.7265 23.4052C15.7207 23.4163 15.7127 23.4261 15.703 23.434C15.6852 23.4475 15.6635 23.4548 15.6412 23.4546C15.6367 23.4546 15.4874 23.4364 15.4874 23.4364C15.4751 23.4353 15.4632 23.4317 15.4523 23.4259C15.4414 23.4201 15.4318 23.4121 15.424 23.4025C15.4162 23.393 15.4104 23.3819 15.4068 23.3701C15.4034 23.3582 15.4023 23.3458 15.4036 23.3335C15.4036 23.3335 15.4218 23.1231 15.4218 23.0156C15.422 22.3395 15.1681 21.6881 14.7105 21.1904C14.6346 21.1052 14.5347 21.0451 14.4239 21.018C14.3131 20.9908 14.1967 20.9979 14.0901 21.0384C13.9834 21.0789 13.8916 21.1507 13.8267 21.2445C13.7618 21.3383 13.7269 21.4496 13.7266 21.5636L13.7244 26.7977C13.7238 27.3629 13.5662 27.9167 13.2692 28.3976C12.9722 28.8784 12.5475 29.2672 12.0424 29.5208C11.6304 29.7287 11.1739 29.8331 10.7125 29.825H10.6989C10.3013 29.8253 9.90749 29.7473 9.54005 29.5953C9.17264 29.4434 8.83874 29.2205 8.55749 28.9394C8.27622 28.6584 8.05311 28.3247 7.90089 27.9574C7.74865 27.59 7.6703 27.1963 7.6703 26.7987C7.6703 26.6799 7.6909 26.4459 7.6909 26.4459C7.69143 26.4331 7.69474 26.4206 7.70062 26.4093C7.70649 26.3979 7.71475 26.388 7.72486 26.3802C7.74247 26.3664 7.76428 26.3591 7.78662 26.3596C7.78889 26.3596 7.94041 26.3765 7.94041 26.3765C7.96492 26.3796 7.98731 26.392 8.00292 26.4112C8.01851 26.4304 8.02613 26.4548 8.0242 26.4794C8.0242 26.4805 8.00504 26.6908 8.00504 26.7983C8.00494 27.4746 8.2593 28.1262 8.71757 28.6236C8.79352 28.7085 8.89345 28.7685 9.00415 28.7954C9.11485 28.8225 9.23115 28.8153 9.33769 28.7749C9.44424 28.7344 9.53602 28.6627 9.60097 28.569C9.66589 28.4754 9.70092 28.3643 9.70143 28.2503V23.0177C9.70215 22.4508 9.86078 21.8953 10.1596 21.4135C10.4583 20.9317 10.8854 20.5426 11.3929 20.2899C11.5952 20.1846 11.811 20.1074 12.0342 20.0604C12.2573 20.0118 12.4851 19.9879 12.7135 19.9891C13.0344 19.9878 13.3535 20.037 13.6591 20.1351C14.139 20.2899 14.5725 20.5625 14.92 20.9279C15.462 21.5004 15.7618 22.2601 15.7569 23.0484C15.7561 23.1558 15.7369 23.3695 15.7369 23.3695Z" fill="#08A081"/>
<path d="M21.9996 0.9H21.9996C18.6309 0.9 15.9 3.63138 15.9 7C15.9 10.3689 18.6306 13.1 21.9996 13.1C25.3686 13.1 28.1 10.3689 28.1 7C28.1 3.63136 25.3686 0.900288 21.9996 0.9Z" fill="white" stroke="black" stroke-width="0.2" stroke-miterlimit="10"/>
<path d="M20.4466 10.1935C20.2333 10.1935 20.0766 10.1468 19.9766 10.0535C19.8833 9.95348 19.8366 9.81015 19.8366 9.62348C19.8366 9.51015 19.8666 9.40015 19.9266 9.29348C19.9866 9.18681 20.0733 9.07348 20.1866 8.95348L22.1966 6.81348C22.5033 6.49348 22.7233 6.20348 22.8566 5.94348C22.9899 5.67681 23.0566 5.41015 23.0566 5.14348C23.0566 4.81015 22.9499 4.55681 22.7366 4.38348C22.5299 4.21015 22.2266 4.12348 21.8266 4.12348C21.5999 4.12348 21.3733 4.15681 21.1466 4.22348C20.9199 4.28348 20.6899 4.39015 20.4566 4.54348C20.3366 4.62348 20.2233 4.65681 20.1166 4.64348C20.0166 4.63015 19.9266 4.58681 19.8466 4.51348C19.7733 4.44015 19.7233 4.35015 19.6966 4.24348C19.6699 4.13681 19.6733 4.03015 19.7066 3.92348C19.7466 3.81015 19.8266 3.71348 19.9466 3.63348C20.2333 3.44015 20.5533 3.29348 20.9066 3.19348C21.2666 3.09348 21.6266 3.04348 21.9866 3.04348C22.4933 3.04348 22.9199 3.12015 23.2666 3.27348C23.6133 3.42681 23.8766 3.65015 24.0566 3.94348C24.2366 4.23681 24.3266 4.59348 24.3266 5.01348C24.3266 5.29348 24.2799 5.56681 24.1866 5.83348C24.0999 6.10015 23.9633 6.37015 23.7766 6.64348C23.5966 6.91681 23.3599 7.20681 23.0666 7.51348L21.1866 9.47348V9.13348H24.1266C24.3066 9.13348 24.4433 9.17681 24.5366 9.26348C24.6299 9.35015 24.6766 9.48015 24.6766 9.65348C24.6766 9.82681 24.6299 9.96015 24.5366 10.0535C24.4433 10.1468 24.3066 10.1935 24.1266 10.1935H20.4466Z" fill="#08A081"/>
</svg>
