<svg width="101" height="101" viewBox="0 0 101 101" fill="none" xmlns="http://www.w3.org/2000/svg">
<g clip-path="url(#clip0_9172_53812)">
<path d="M61.651 18.7241C61.0811 25.1313 59.5256 31.3059 56.9848 37.2219H35.8359C40.9963 29.4073 43.4115 21.2272 43.2131 12.1372C43.1533 9.24986 45.2439 6.76275 48.0934 6.29654C48.1563 6.28716 48.216 6.27779 48.2793 6.26802C55.7348 5.04966 62.3152 11.1958 61.651 18.7241Z" fill="url(#paint0_linear_9172_53812)"/>
<path d="M91.6883 35.7295L23.959 35.7266V88.2379H48.1338H79.8471H82.4832C89.3453 88.2379 95.202 83.2773 96.3312 76.5086L100.377 45.9881C101.273 40.6182 97.1322 35.7295 91.6883 35.7295Z" fill="url(#paint1_linear_9172_53812)"/>
<path d="M79.8475 88.2383H82.4836C87.3148 88.2383 91.6449 85.7775 94.1807 81.96L36.6025 35.7271L23.959 35.7266V88.2379H48.134L79.8475 88.2383Z" fill="url(#paint2_linear_9172_53812)"/>
<path d="M34.0127 91.4488H27.7408C26.2271 91.4488 25 90.2217 25 88.708V35.2564C25 33.7428 26.2271 32.5156 27.7408 32.5156H34.0127C35.5264 32.5156 36.7535 33.7428 36.7535 35.2564V88.708C36.7535 90.2219 35.5266 91.4488 34.0127 91.4488Z" fill="url(#paint3_linear_9172_53812)"/>
<path d="M29.8209 32.5156H27.7408C26.2271 32.5156 25 33.7428 25 35.2564V88.7082C25 90.2219 26.2271 91.449 27.7408 91.449H34.0127C35.5264 91.449 36.7535 90.2219 36.7535 88.7082V39.448L29.8209 32.5156Z" fill="url(#paint4_linear_9172_53812)"/>
<path d="M26.943 95.176H3.3582C1.77969 95.176 0.5 93.8963 0.5 92.3178V31.6512C0.5 30.0727 1.77969 28.793 3.3582 28.793H26.943C28.5217 28.793 29.8012 30.0727 29.8012 31.6512V92.3176C29.8012 93.8963 28.5215 95.176 26.943 95.176Z" fill="#00B5D4"/>
<path d="M29.8014 46.3781L20.4613 37.0381C19.1436 35.6031 17.2525 34.7031 15.1508 34.7031C11.1691 34.7031 7.94141 37.9311 7.94141 41.9125C7.94141 44.0143 8.84141 45.9055 10.2764 47.223L29.8016 66.748L29.8014 46.3781Z" fill="url(#paint5_linear_9172_53812)"/>
<path d="M15.1508 49.1219C19.1324 49.1219 22.3602 45.8941 22.3602 41.9125C22.3602 37.9309 19.1324 34.7031 15.1508 34.7031C11.1692 34.7031 7.94141 37.9309 7.94141 41.9125C7.94141 45.8941 11.1692 49.1219 15.1508 49.1219Z" fill="url(#paint6_linear_9172_53812)"/>
<path d="M15.1512 46.8883C17.899 46.8883 20.1266 44.6607 20.1266 41.9129C20.1266 39.1651 17.899 36.9375 15.1512 36.9375C12.4033 36.9375 10.1758 39.1651 10.1758 41.9129C10.1758 44.6607 12.4033 46.8883 15.1512 46.8883Z" fill="url(#paint7_linear_9172_53812)"/>
<path d="M13.26 41.0512C13.8285 41.0512 14.2895 40.5903 14.2895 40.0217C14.2895 39.4531 13.8285 38.9922 13.26 38.9922C12.6914 38.9922 12.2305 39.4531 12.2305 40.0217C12.2305 40.5903 12.6914 41.0512 13.26 41.0512Z" fill="#FFB92D"/>
<path d="M17.0412 41.0512C17.6098 41.0512 18.0707 40.5903 18.0707 40.0217C18.0707 39.4531 17.6098 38.9922 17.0412 38.9922C16.4726 38.9922 16.0117 39.4531 16.0117 40.0217C16.0117 40.5903 16.4726 41.0512 17.0412 41.0512Z" fill="#FFB92D"/>
<path d="M13.26 44.8324C13.8285 44.8324 14.2895 44.3715 14.2895 43.8029C14.2895 43.2344 13.8285 42.7734 13.26 42.7734C12.6914 42.7734 12.2305 43.2344 12.2305 43.8029C12.2305 44.3715 12.6914 44.8324 13.26 44.8324Z" fill="#FFB92D"/>
<path d="M17.0412 44.8324C17.6098 44.8324 18.0707 44.3715 18.0707 43.8029C18.0707 43.2344 17.6098 42.7734 17.0412 42.7734C16.4726 42.7734 16.0117 43.2344 16.0117 43.8029C16.0117 44.3715 16.4726 44.8324 17.0412 44.8324Z" fill="#FFB92D"/>
</g>
<defs>
<linearGradient id="paint0_linear_9172_53812" x1="46.4011" y1="20.8377" x2="54.3696" y2="39.0471" gradientUnits="userSpaceOnUse">
<stop stop-color="#FFE7A5"/>
<stop offset="1" stop-color="#FFBF5C"/>
</linearGradient>
<linearGradient id="paint1_linear_9172_53812" x1="50.981" y1="58.3337" x2="100.086" y2="81.2489" gradientUnits="userSpaceOnUse">
<stop stop-color="#FFE7A5"/>
<stop offset="1" stop-color="#FFBF5C"/>
</linearGradient>
<linearGradient id="paint2_linear_9172_53812" x1="81.1077" y1="61.9834" x2="30.3421" y2="61.9834" gradientUnits="userSpaceOnUse">
<stop stop-color="#FFE7A5" stop-opacity="0"/>
<stop offset="1" stop-color="#FFBF5C"/>
</linearGradient>
<linearGradient id="paint3_linear_9172_53812" x1="26.8541" y1="50.0267" x2="46.2674" y2="107.737" gradientUnits="userSpaceOnUse">
<stop stop-color="#F2F2F2"/>
<stop offset="1" stop-color="#C3C3C3"/>
</linearGradient>
<linearGradient id="paint4_linear_9172_53812" x1="30.2475" y1="62.8455" x2="9.72054" y2="52.9123" gradientUnits="userSpaceOnUse">
<stop stop-color="#C3C3C3" stop-opacity="0"/>
<stop offset="1" stop-color="#777777"/>
</linearGradient>
<linearGradient id="paint5_linear_9172_53812" x1="24.7727" y1="51.536" x2="4.56898" y2="31.3326" gradientUnits="userSpaceOnUse">
<stop stop-color="#00A2F3" stop-opacity="0"/>
<stop offset="1" stop-color="#0075CD"/>
</linearGradient>
<linearGradient id="paint6_linear_9172_53812" x1="15.1505" y1="37.3883" x2="15.1505" y2="47.8136" gradientUnits="userSpaceOnUse">
<stop stop-color="#FFF465"/>
<stop offset="1" stop-color="#FFE600"/>
</linearGradient>
<linearGradient id="paint7_linear_9172_53812" x1="15.1509" y1="45.0376" x2="15.1509" y2="37.8436" gradientUnits="userSpaceOnUse">
<stop stop-color="#FFF465"/>
<stop offset="1" stop-color="#FFE600"/>
</linearGradient>
<clipPath id="clip0_9172_53812">
<rect width="100" height="100" fill="white" transform="translate(0.5 0.644531)"/>
</clipPath>
</defs>
</svg>
