<svg width="101" height="101" viewBox="0 0 101 101" fill="none" xmlns="http://www.w3.org/2000/svg">
<g clip-path="url(#clip0_9172_53827)">
<path d="M88.6404 92.3363H12.3576C8.29199 92.3363 4.99609 89.0404 4.99609 84.9748V21.4553C4.99609 17.3896 8.29199 14.0938 12.3576 14.0938H88.6404C92.7061 14.0938 96.002 17.3896 96.002 21.4553V84.9748C96.002 89.0404 92.7061 92.3363 88.6404 92.3363Z" fill="url(#paint0_linear_9172_53827)"/>
<path d="M86.9412 90.5891H14.0607C10.1764 90.5891 7.02734 87.44 7.02734 83.5557V22.8693C7.02734 18.985 10.1762 15.8359 14.0607 15.8359H86.941C90.8254 15.8359 93.9744 18.9848 93.9744 22.8693V83.5559C93.9746 87.4402 90.8256 90.5891 86.9412 90.5891Z" fill="url(#paint1_linear_9172_53827)"/>
<path d="M91.0703 34.6388L72.7217 2.85832C71.4996 0.741327 68.7924 0.0159363 66.6754 1.2384L8.82422 34.6388H91.0703Z" fill="url(#paint2_linear_9172_53827)"/>
<path d="M4.99609 60.218H96.002V36.1141C96.002 33.0717 93.5358 30.6055 90.4934 30.6055H10.5047C7.46231 30.6055 4.99609 33.0717 4.99609 36.1141V60.218Z" fill="url(#paint3_linear_9172_53827)"/>
<path d="M4.99609 51.1523V84.9746C4.99609 89.0402 8.29199 92.3363 12.3578 92.3363H88.6404C92.7061 92.3363 96.002 89.0404 96.002 84.9748V51.1523C96.002 48.6412 93.9662 46.6055 91.4551 46.6055H9.54297C7.03184 46.6055 4.99609 48.641 4.99609 51.1523Z" fill="url(#paint4_linear_9172_53827)"/>
<path d="M82.2734 33.707V92.3361H88.6416C92.7072 92.3361 96.0031 89.0402 96.0031 84.9746V47.4367L82.2734 33.707Z" fill="url(#paint5_linear_9172_53827)"/>
<path d="M76.0648 100.59L12.1807 93.1707C8.08535 92.6949 4.99609 89.2264 4.99609 85.1035V20.9062C4.99609 22.2859 6.02988 23.4465 7.4 23.6057L77.9385 31.7982C82.0338 32.274 85.123 35.7426 85.123 39.8654V92.5232C85.123 97.3797 80.8889 101.151 76.0648 100.59Z" fill="url(#paint6_linear_9172_53827)"/>
<path d="M76.0649 87.768L12.1807 80.3484C8.08535 79.8727 4.99609 76.4041 4.99609 72.2812V85.1043C4.99609 89.2271 8.08535 92.6959 12.1807 93.1715L76.0649 100.591C80.8889 101.151 85.1233 97.3805 85.1233 92.5238V79.7008C85.1231 84.5574 80.8889 88.3281 76.0649 87.768Z" fill="url(#paint7_linear_9172_53827)"/>
<path d="M10.724 30.9112C10.6705 30.9112 10.6162 30.908 10.5617 30.9022L7.63825 30.5807C6.83083 30.4918 6.24821 29.7657 6.33708 28.9584C6.42595 28.1512 7.1527 27.5692 7.95935 27.6573L10.8828 27.9787C11.6902 28.0676 12.2728 28.7938 12.184 29.601C12.1011 30.3539 11.464 30.9112 10.724 30.9112Z" fill="url(#paint8_linear_9172_53827)"/>
<path d="M70.7959 95.7459C70.7341 95.7459 70.6713 95.7418 70.6084 95.734L64.9265 95.0116C64.1211 94.9092 63.5508 94.1729 63.6533 93.367C63.7558 92.5616 64.492 91.9946 65.2978 92.0938L70.9797 92.8163C71.7851 92.9186 72.3556 93.6549 72.2529 94.4608C72.1582 95.2034 71.5254 95.7459 70.7959 95.7459ZM76.3884 95.018C75.8369 95.018 75.3078 94.7061 75.0572 94.1737C74.7109 93.4391 75.0259 92.5627 75.7607 92.2168C77.2527 91.5137 78.3748 90.3477 78.8394 89.0172C79.1072 88.2508 79.9463 87.8465 80.7127 88.1137C81.4793 88.3815 81.8839 89.2202 81.6162 89.987C80.8824 92.0881 79.2482 93.825 77.0142 94.8774C76.8117 94.9727 76.5986 95.018 76.3884 95.018ZM59.4324 94.301C59.3707 94.301 59.3078 94.2969 59.2449 94.2891L53.5631 93.5667C52.7576 93.4643 52.1871 92.728 52.2898 91.9221C52.3924 91.1166 53.1285 90.5495 53.9343 90.6489L59.6162 91.3713C60.4216 91.4737 60.9922 92.21 60.8894 93.0159C60.7947 93.7583 60.1615 94.301 59.4324 94.301ZM48.0689 92.8559C48.0072 92.8559 47.9445 92.8518 47.8814 92.844L42.1996 92.1215C41.3941 92.0192 40.8236 91.2829 40.9263 90.477C41.0289 89.6715 41.7652 89.1016 42.5709 89.2038L48.2527 89.9262C49.0582 90.0286 49.6287 90.7649 49.5259 91.5708C49.4312 92.3131 48.798 92.8559 48.0689 92.8559ZM36.705 91.4108C36.6433 91.4108 36.5806 91.4067 36.5175 91.3989L30.8355 90.6762C30.0299 90.5737 29.4595 89.8375 29.5623 89.0317C29.6648 88.226 30.4013 87.6588 31.2068 87.7584L36.8888 88.4811C37.6945 88.5836 38.2648 89.3198 38.1621 90.1256C38.0677 90.8684 37.4345 91.4108 36.705 91.4108ZM25.3416 89.9657C25.2799 89.9657 25.2172 89.9616 25.1541 89.9538L19.472 89.2311C18.6664 89.1286 18.0961 88.3924 18.1988 87.5866C18.3013 86.7809 19.0379 86.2135 19.8433 86.3133L25.5254 87.036C26.331 87.1385 26.9013 87.8747 26.7986 88.6805C26.7041 89.4233 26.0711 89.9657 25.3416 89.9657ZM80.5578 85.2831C79.7455 85.2831 79.0873 84.6249 79.0873 83.8125V78.085C79.0873 77.2727 79.7455 76.6145 80.5578 76.6145C81.3701 76.6145 82.0283 77.2727 82.0283 78.085V83.8125C82.0285 84.6249 81.3703 85.2831 80.5578 85.2831ZM80.5578 73.8282C79.7455 73.8282 79.0873 73.17 79.0873 72.3577V66.6301C79.0873 65.8178 79.7455 65.1596 80.5578 65.1596C81.3701 65.1596 82.0283 65.8178 82.0283 66.6301V72.3577C82.0285 73.1698 81.3703 73.8282 80.5578 73.8282ZM80.5578 62.3731C79.7455 62.3731 79.0873 61.7149 79.0873 60.9026V55.175C79.0873 54.3627 79.7455 53.7045 80.5578 53.7045C81.3701 53.7045 82.0283 54.3627 82.0283 55.175V60.9026C82.0285 61.7147 81.3703 62.3731 80.5578 62.3731ZM80.5578 50.918C79.7455 50.918 79.0873 50.2598 79.0873 49.4475V43.72C79.0873 42.9077 79.7455 42.2495 80.5578 42.2495C81.3701 42.2495 82.0283 42.9077 82.0283 43.72V49.4475C82.0285 50.2596 81.3703 50.918 80.5578 50.918ZM78.5011 40.0499C78.1381 40.0499 77.7742 39.9161 77.49 39.6467C76.4 38.6139 74.8873 37.9559 73.23 37.7936L73.1912 37.7895C72.3836 37.7026 71.7994 36.9774 71.8865 36.17C71.9734 35.3624 72.6984 34.778 73.506 34.8653L73.531 34.868C75.8215 35.0924 77.9507 36.0319 79.5131 37.5118C80.1027 38.0704 80.1277 39.0012 79.5691 39.5909C79.2797 39.8958 78.8908 40.0499 78.5011 40.0499ZM67.6568 37.1721C67.6033 37.1721 67.549 37.169 67.4945 37.1631L61.8013 36.5372C60.9941 36.4483 60.4113 35.7221 60.5002 34.9149C60.589 34.1077 61.3158 33.5266 62.1224 33.6137L67.8156 34.2397C68.6228 34.3286 69.2056 35.0547 69.1168 35.862C69.0341 36.6147 68.3968 37.1721 67.6568 37.1721ZM56.2707 35.9202C56.2172 35.9202 56.1629 35.917 56.1084 35.9112L50.415 35.2852C49.6078 35.1963 49.025 34.4702 49.1138 33.6629C49.2025 32.8555 49.9304 32.2739 50.7361 32.3618L56.4295 32.9877C57.2367 33.0766 57.8195 33.8028 57.7306 34.61C57.6478 35.3629 57.0107 35.9202 56.2707 35.9202ZM44.884 34.6684C44.8304 34.6684 44.7761 34.6653 44.7216 34.6594L39.0285 34.0334C38.2213 33.9446 37.6384 33.2184 37.7273 32.4112C37.816 31.604 38.5424 31.0223 39.3496 31.11L45.0427 31.736C45.85 31.8248 46.4328 32.551 46.3439 33.3582C46.2613 34.111 45.6242 34.6684 44.884 34.6684ZM33.4974 33.4166C33.4439 33.4166 33.3896 33.4135 33.3351 33.4077L27.642 32.7817C26.8345 32.6928 26.2519 31.9666 26.3408 31.1594C26.4295 30.3524 27.155 29.7709 27.9631 29.8582L33.6562 30.4842C34.4634 30.5731 35.0463 31.2993 34.9574 32.1065C34.875 32.8592 34.2377 33.4166 33.4974 33.4166ZM22.1109 32.1647C22.0574 32.1647 22.0031 32.1616 21.9486 32.1557L16.2554 31.5297C15.4482 31.4409 14.8654 30.7147 14.9543 29.9075C15.0431 29.1004 15.7689 28.5192 16.5765 28.6063L22.2697 29.2323C23.0771 29.3211 23.6597 30.0473 23.5709 30.8545C23.4882 31.6073 22.8509 32.1647 22.1109 32.1647Z" fill="url(#paint9_linear_9172_53827)"/>
<path d="M13.9647 88.5156C13.903 88.5156 13.8405 88.5117 13.7774 88.5036L10.8596 88.1327C10.054 88.0304 9.48344 87.2941 9.58618 86.4884C9.68852 85.6827 10.4249 85.1128 11.2305 85.215L14.1483 85.5859C14.954 85.6882 15.5245 86.4245 15.4217 87.2302C15.3272 87.973 14.694 88.5156 13.9647 88.5156Z" fill="url(#paint10_linear_9172_53827)"/>
<path d="M67.9929 11.5949L58.5812 16.7164C57.3553 17.3834 55.8207 16.9304 55.1535 15.7045C54.4865 14.4785 54.9394 12.9439 56.1654 12.2767L65.5773 7.15545C66.8033 6.48845 68.3379 6.94138 69.0051 8.16736C69.672 9.39314 69.2191 10.9279 67.9929 11.5949Z" fill="#61DB99"/>
<path d="M85.1236 71.7023L75.7836 62.3623C74.4658 60.9273 72.5748 60.0273 70.4731 60.0273C66.4914 60.0273 63.2637 63.2553 63.2637 67.2367C63.2637 69.3385 64.1637 71.2297 65.5986 72.5473L85.1238 92.0725V71.7023H85.1236Z" fill="url(#paint11_linear_9172_53827)"/>
<path d="M70.4731 74.4461C74.4547 74.4461 77.6824 71.2183 77.6824 67.2367C77.6824 63.2551 74.4547 60.0273 70.4731 60.0273C66.4914 60.0273 63.2637 63.2551 63.2637 67.2367C63.2637 71.2183 66.4914 74.4461 70.4731 74.4461Z" fill="url(#paint12_linear_9172_53827)"/>
<path d="M70.4734 72.2125C73.2213 72.2125 75.4488 69.9849 75.4488 67.2371C75.4488 64.4893 73.2213 62.2617 70.4734 62.2617C67.7256 62.2617 65.498 64.4893 65.498 67.2371C65.498 69.9849 67.7256 72.2125 70.4734 72.2125Z" fill="url(#paint13_linear_9172_53827)"/>
<path d="M68.5822 66.3754C69.1508 66.3754 69.6117 65.9145 69.6117 65.3459C69.6117 64.7773 69.1508 64.3164 68.5822 64.3164C68.0137 64.3164 67.5527 64.7773 67.5527 65.3459C67.5527 65.9145 68.0137 66.3754 68.5822 66.3754Z" fill="url(#paint14_linear_9172_53827)"/>
<path d="M72.3635 66.3754C72.932 66.3754 73.393 65.9145 73.393 65.3459C73.393 64.7773 72.932 64.3164 72.3635 64.3164C71.7949 64.3164 71.334 64.7773 71.334 65.3459C71.334 65.9145 71.7949 66.3754 72.3635 66.3754Z" fill="url(#paint15_linear_9172_53827)"/>
<path d="M68.5822 70.1566C69.1508 70.1566 69.6117 69.6957 69.6117 69.1272C69.6117 68.5586 69.1508 68.0977 68.5822 68.0977C68.0137 68.0977 67.5527 68.5586 67.5527 69.1272C67.5527 69.6957 68.0137 70.1566 68.5822 70.1566Z" fill="url(#paint16_linear_9172_53827)"/>
<path d="M72.3635 70.1566C72.932 70.1566 73.393 69.6957 73.393 69.1272C73.393 68.5586 72.932 68.0977 72.3635 68.0977C71.7949 68.0977 71.334 68.5586 71.334 69.1272C71.334 69.6957 71.7949 70.1566 72.3635 70.1566Z" fill="url(#paint17_linear_9172_53827)"/>
</g>
<defs>
<linearGradient id="paint0_linear_9172_53827" x1="51.9862" y1="9.58385" x2="51.4548" y2="25.1631" gradientUnits="userSpaceOnUse">
<stop stop-color="#FFB92D"/>
<stop offset="1" stop-color="#F59500"/>
</linearGradient>
<linearGradient id="paint1_linear_9172_53827" x1="54.5358" y1="19.9257" x2="53.0887" y2="31.8607" gradientUnits="userSpaceOnUse">
<stop stop-color="#FFB92D"/>
<stop offset="1" stop-color="#F59500"/>
</linearGradient>
<linearGradient id="paint2_linear_9172_53827" x1="49.9461" y1="20.2796" x2="49.9461" y2="29.3716" gradientUnits="userSpaceOnUse">
<stop stop-color="#A7F3CE"/>
<stop offset="1" stop-color="#61DB99"/>
</linearGradient>
<linearGradient id="paint3_linear_9172_53827" x1="50.498" y1="36.0199" x2="50.498" y2="61.5331" gradientUnits="userSpaceOnUse">
<stop stop-color="#FF4C54"/>
<stop offset="1" stop-color="#BE3F45"/>
</linearGradient>
<linearGradient id="paint4_linear_9172_53827" x1="50.498" y1="54.9642" x2="50.498" y2="94.3673" gradientUnits="userSpaceOnUse">
<stop stop-color="#FF4C54"/>
<stop offset="1" stop-color="#BE3F45"/>
</linearGradient>
<linearGradient id="paint5_linear_9172_53827" x1="90.8258" y1="63.0223" x2="84.1867" y2="63.0223" gradientUnits="userSpaceOnUse">
<stop stop-color="#BE3F45" stop-opacity="0"/>
<stop offset="1" stop-color="#BE3F45"/>
</linearGradient>
<linearGradient id="paint6_linear_9172_53827" x1="31.4482" y1="56.207" x2="65.222" y2="71.7863" gradientUnits="userSpaceOnUse">
<stop stop-color="#FFB92D"/>
<stop offset="1" stop-color="#F59500"/>
</linearGradient>
<linearGradient id="paint7_linear_9172_53827" x1="43.9828" y1="90.8957" x2="42.5867" y2="101.566" gradientUnits="userSpaceOnUse">
<stop stop-color="#BE3F45" stop-opacity="0"/>
<stop offset="1" stop-color="#BE3F45"/>
</linearGradient>
<linearGradient id="paint8_linear_9172_53827" x1="9.26023" y1="27.6498" x2="9.26023" y2="95.8856" gradientUnits="userSpaceOnUse">
<stop stop-color="#FFF465"/>
<stop offset="1" stop-color="#FFE600"/>
</linearGradient>
<linearGradient id="paint9_linear_9172_53827" x1="48.4859" y1="27.6537" x2="48.4859" y2="95.7464" gradientUnits="userSpaceOnUse">
<stop stop-color="#FFF465"/>
<stop offset="1" stop-color="#FFE600"/>
</linearGradient>
<linearGradient id="paint10_linear_9172_53827" x1="12.5036" y1="27.6467" x2="12.5036" y2="95.8806" gradientUnits="userSpaceOnUse">
<stop stop-color="#FFF465"/>
<stop offset="1" stop-color="#FFE600"/>
</linearGradient>
<linearGradient id="paint11_linear_9172_53827" x1="80.0939" y1="76.86" x2="59.8904" y2="56.6565" gradientUnits="userSpaceOnUse">
<stop stop-color="#BE3F45" stop-opacity="0"/>
<stop offset="1" stop-color="#BE3F45"/>
</linearGradient>
<linearGradient id="paint12_linear_9172_53827" x1="70.4715" y1="62.7121" x2="70.4715" y2="73.1374" gradientUnits="userSpaceOnUse">
<stop stop-color="#FF4C54"/>
<stop offset="1" stop-color="#BE3F45"/>
</linearGradient>
<linearGradient id="paint13_linear_9172_53827" x1="70.4719" y1="70.3614" x2="70.4719" y2="63.1674" gradientUnits="userSpaceOnUse">
<stop stop-color="#FF4C54"/>
<stop offset="1" stop-color="#BE3F45"/>
</linearGradient>
<linearGradient id="paint14_linear_9172_53827" x1="58.8232" y1="22.2553" x2="60.882" y2="31.3473" gradientUnits="userSpaceOnUse">
<stop stop-color="#A7F3CE"/>
<stop offset="1" stop-color="#61DB99"/>
</linearGradient>
<linearGradient id="paint15_linear_9172_53827" x1="62.6043" y1="22.2558" x2="64.6631" y2="31.3477" gradientUnits="userSpaceOnUse">
<stop stop-color="#A7F3CE"/>
<stop offset="1" stop-color="#61DB99"/>
</linearGradient>
<linearGradient id="paint16_linear_9172_53827" x1="58.0085" y1="22.4387" x2="60.0673" y2="31.5307" gradientUnits="userSpaceOnUse">
<stop stop-color="#A7F3CE"/>
<stop offset="1" stop-color="#61DB99"/>
</linearGradient>
<linearGradient id="paint17_linear_9172_53827" x1="61.7897" y1="22.4392" x2="63.8485" y2="31.5311" gradientUnits="userSpaceOnUse">
<stop stop-color="#A7F3CE"/>
<stop offset="1" stop-color="#61DB99"/>
</linearGradient>
<clipPath id="clip0_9172_53827">
<rect width="100" height="100" fill="white" transform="translate(0.5 0.644531)"/>
</clipPath>
</defs>
</svg>
