<svg width="350" height="355" viewBox="0 0 350 355" fill="none" xmlns="http://www.w3.org/2000/svg">
<path d="M328.574 41.985V146.815C328.574 158.606 319.531 168.278 308.004 169.286C307.355 169.347 306.685 169.374 306.015 169.374H204.677C192.224 169.374 182.125 159.269 182.125 146.815V41.985C182.125 29.5311 192.224 19.4258 204.677 19.4258H306.015C318.468 19.4258 328.574 29.5311 328.574 41.985Z" fill="#FECE63"/>
<path d="M224.428 83.9034V98.8279C224.428 113.103 236.002 124.677 250.276 124.677H253.843C255.894 124.677 257.884 124.44 259.793 123.986C271.198 121.299 279.685 111.052 279.685 98.8279V83.9034C279.685 71.6796 271.198 61.4321 259.793 58.7451C257.877 58.2916 255.894 58.0547 253.843 58.0547H250.276C236.002 58.0547 224.428 69.6287 224.428 83.9034Z" fill="white"/>
<path d="M235.507 89.5332H225.943C221.103 89.5332 217.178 85.6075 217.178 80.768C217.178 75.9286 221.103 71.9961 225.943 71.9961H235.507C240.346 71.9961 244.279 75.9218 244.279 80.768C244.279 85.6142 240.353 89.5399 235.507 89.5399V89.5332Z" fill="white"/>
<path d="M239.06 89.5332H229.496C224.657 89.5332 220.725 85.6075 220.725 80.768C220.725 75.9286 224.65 71.9961 229.496 71.9961H239.06C243.9 71.9961 247.825 75.9218 247.825 80.768C247.825 85.6142 243.9 89.5399 239.06 89.5399V89.5332Z" fill="#06374C"/>
<path d="M209.754 169.375H304.255L298.982 151.649C295.686 140.569 286.366 132.541 275.238 130.721C273.655 130.464 272.044 130.328 270.406 130.328H243.589C241.951 130.328 240.34 130.464 238.757 130.721C227.629 132.541 218.309 140.569 215.013 151.649L209.74 169.375H209.754Z" fill="#445BB8"/>
<path d="M257.004 148.559C264.754 148.559 271.096 142.217 271.096 134.467V111.623C271.096 103.873 264.754 97.5312 257.004 97.5312C249.254 97.5312 242.912 103.873 242.912 111.623V134.467C242.912 142.217 249.254 148.559 257.004 148.559Z" fill="#EB7981"/>
<path d="M271.096 130.328C270.872 130.328 270.635 130.328 270.412 130.328H266.953V134.47C266.953 139.96 262.493 144.42 257.004 144.42C251.515 144.42 247.054 139.96 247.054 134.47V130.328H243.595C243.372 130.328 243.135 130.328 242.912 130.328C241.511 130.362 240.123 130.497 238.77 130.714V134.464C238.77 144.522 246.946 152.698 257.004 152.698C267.062 152.698 275.238 144.522 275.238 134.464V130.714C273.877 130.491 272.497 130.362 271.096 130.328Z" fill="#384E96"/>
<path d="M242.912 111.623V134.467C242.912 142.223 249.254 148.559 257.004 148.559C264.754 148.559 271.096 142.217 271.096 134.467V111.623C271.096 103.867 264.754 97.5312 257.004 97.5312C253.126 97.5312 249.606 99.1151 247.054 101.674C244.503 104.225 242.912 107.752 242.912 111.63V111.623Z" fill="#AD6F75"/>
<path d="M242.913 111.623V130.541C246.236 132.091 249.939 132.957 253.837 132.957H257.404C262.426 132.957 267.124 131.522 271.09 129.038V111.623C271.09 103.867 264.748 97.5312 256.998 97.5312C253.12 97.5312 249.6 99.1151 247.049 101.674C244.497 104.225 242.906 107.752 242.906 111.63L242.913 111.623Z" fill="#905C5F"/>
<path d="M227.986 83.9034V98.8279C227.986 113.103 239.56 124.677 253.835 124.677H257.402C259.453 124.677 261.443 124.44 263.351 123.986C274.756 121.299 283.244 111.052 283.244 98.8279V83.9034C283.244 71.6796 274.756 61.4321 263.351 58.7451C261.436 58.2916 259.453 58.0547 257.402 58.0547H253.835C239.56 58.0547 227.986 69.6287 227.986 83.9034Z" fill="#AD6F75"/>
<path d="M243.459 83.9044V98.8289C243.459 111.053 251.947 121.3 263.351 123.987C274.756 121.3 283.244 111.053 283.244 98.8289V83.9044C283.244 71.6806 274.756 61.4332 263.351 58.7461C251.947 61.4332 243.459 71.6806 243.459 83.9044Z" fill="#905C5F"/>
<path d="M283.392 89.5332H273.829C268.989 89.5332 265.057 85.6075 265.057 80.768C265.057 75.9286 268.982 71.9961 273.829 71.9961H283.392C288.232 71.9961 292.157 75.9218 292.157 80.768C292.157 85.6142 288.232 89.5399 283.392 89.5399V89.5332Z" fill="#06374C"/>
<path d="M242.91 80.77C254.203 80.77 263.358 71.6154 263.358 60.3225C263.358 49.0297 254.203 39.875 242.91 39.875C231.618 39.875 222.463 49.0297 222.463 60.3225C222.463 71.6154 231.618 80.77 242.91 80.77Z" fill="#06374C"/>
<path d="M255.299 52.7384C252.835 50.7959 249.722 49.6385 246.344 49.6385C238.324 49.6385 231.826 56.1362 231.826 64.1568C231.826 66.9387 232.611 69.5378 233.965 71.7443C230.574 69.091 228.395 64.9623 228.395 60.3191C228.395 52.2985 234.892 45.8008 242.913 45.8008C248.152 45.8008 252.747 48.5758 255.299 52.7384Z" fill="#0A4A60"/>
<path d="M236.028 75.0354C235.162 75.1505 234.275 75.2114 233.375 75.2114C222.079 75.2114 212.928 66.0537 212.928 54.7639C212.928 43.4741 222.079 34.3164 233.375 34.3164C234.275 34.3164 235.162 34.3773 236.028 34.4924C225.984 35.7852 218.227 44.3676 218.227 54.7639C218.227 65.1603 225.984 73.7427 236.028 75.0354Z" fill="white"/>
<path d="M239.751 75.0354C238.885 75.1505 237.998 75.2114 237.098 75.2114C225.801 75.2114 216.65 66.0537 216.65 54.7639C216.65 43.4741 225.801 34.3164 237.098 34.3164C237.998 34.3164 238.885 34.3773 239.751 34.4924C229.707 35.7852 221.95 44.3676 221.95 54.7639C221.95 65.1603 229.707 73.7427 239.751 75.0354Z" fill="#06374C"/>
<path d="M284.728 87.59L268.484 90.8594L268.702 91.9409L284.945 88.6716L284.728 87.59Z" fill="white"/>
<path d="M278.056 78.4342C284.548 71.9423 284.548 61.417 278.056 54.9252C271.564 48.4334 261.039 48.4334 254.547 54.9252C248.056 61.417 248.056 71.9423 254.547 78.4342C261.039 84.926 271.564 84.926 278.056 78.4342Z" fill="#06374C"/>
<path d="M275.163 75.2169C275.488 74.1136 275.664 72.9495 275.664 71.7447C275.664 64.9492 270.154 59.4396 263.359 59.4396C259.88 59.4396 256.733 60.8881 254.492 63.2164C255.988 58.0995 260.706 54.3633 266.303 54.3633C273.105 54.3633 278.615 59.8728 278.615 66.6751C278.615 69.9916 277.302 72.9968 275.163 75.2169Z" fill="#0A4A60"/>
<path d="M281.045 103.246C285.011 103.246 288.226 100.031 288.226 96.0646V92.1931C288.226 88.2267 285.011 85.0117 281.045 85.0117C277.078 85.0117 273.863 88.2267 273.863 92.1931V96.0646C273.863 100.031 277.078 103.246 281.045 103.246Z" fill="#905C5F"/>
<path d="M261.457 109.391C260.895 111.272 259.893 112.937 258.587 114.217C258.425 114.372 258.262 114.528 258.093 114.67C256.428 116.098 254.343 116.951 252.083 116.951C249.822 116.951 247.575 116.031 245.876 114.494C245.822 114.447 245.768 114.399 245.713 114.352C244.103 112.829 242.925 110.738 242.444 108.355C242.316 107.733 242.877 107.178 243.514 107.293C243.534 107.293 243.561 107.293 243.581 107.306C247.223 107.99 251.412 108.376 255.853 108.376C257.436 108.376 259 108.328 260.502 108.24C260.665 108.227 260.821 108.254 260.949 108.321C261.349 108.497 261.592 108.944 261.45 109.398L261.457 109.391Z" fill="#664246"/>
<path d="M258.088 114.66C256.423 116.089 254.338 116.941 252.078 116.941C249.817 116.941 247.57 116.021 245.871 114.484C246.365 112.934 248.897 111.75 251.956 111.75C255.015 111.75 257.743 113.022 258.081 114.66H258.088Z" fill="#FF5968"/>
<path d="M260.951 108.309C259.922 109.981 256.497 111.206 252.416 111.206C247.556 111.206 243.61 109.46 243.576 107.301C247.218 107.984 251.407 108.37 255.847 108.37C257.431 108.37 258.995 108.323 260.497 108.235C260.66 108.221 260.815 108.248 260.944 108.316L260.951 108.309Z" fill="white"/>
<path d="M258.588 114.211C256.849 115.91 254.575 116.946 252.084 116.946C249.593 116.946 247.434 115.964 245.715 114.34C247.333 113.92 249.735 113.656 252.416 113.656C254.812 113.656 256.991 113.873 258.582 114.211H258.588Z" fill="white"/>
<path d="M236.903 100.727C231.738 100.727 227.535 96.5241 227.535 91.3597C227.535 86.1954 231.738 81.9922 236.903 81.9922C242.067 81.9922 246.27 86.1954 246.27 91.3597C246.27 96.5241 242.067 100.727 236.903 100.727ZM236.903 83.0954C232.347 83.0954 228.638 86.8046 228.638 91.3597C228.638 95.9149 232.347 99.624 236.903 99.624C241.458 99.624 245.167 95.9149 245.167 91.3597C245.167 86.8046 241.458 83.0954 236.903 83.0954Z" fill="white"/>
<path d="M259.785 100.727C254.621 100.727 250.418 96.5241 250.418 91.3597C250.418 86.1954 254.621 81.9922 259.785 81.9922C264.95 81.9922 269.153 86.1954 269.153 91.3597C269.153 96.5241 264.95 100.727 259.785 100.727ZM259.785 83.0954C255.23 83.0954 251.521 86.8046 251.521 91.3597C251.521 95.9149 255.23 99.624 259.785 99.624C264.341 99.624 268.05 95.9149 268.05 91.3597C268.05 86.8046 264.341 83.0954 259.785 83.0954Z" fill="white"/>
<path d="M235.33 94.9006C234.362 94.9006 233.57 94.1087 233.57 93.1408V92.3692C233.57 91.4013 234.362 90.6094 235.33 90.6094C236.298 90.6094 237.09 91.4013 237.09 92.3692V93.1408C237.09 94.1087 236.298 94.9006 235.33 94.9006Z" fill="#06374C"/>
<path d="M259.189 94.9006C258.222 94.9006 257.43 94.1087 257.43 93.1408V92.3692C257.43 91.4013 258.222 90.6094 259.189 90.6094C260.157 90.6094 260.949 91.4013 260.949 92.3692V93.1408C260.949 94.1087 260.157 94.9006 259.189 94.9006Z" fill="#06374C"/>
<path d="M277.166 90.025C277.829 89.6324 278.594 89.4091 279.427 89.4091C281.87 89.4091 283.846 91.3854 283.846 93.8289V96.2114C283.846 97.3214 283.44 98.3367 282.764 99.115C284.056 98.3367 284.916 96.9288 284.916 95.3112V92.9354C284.916 90.492 282.933 88.5156 280.496 88.5156C279.163 88.5156 277.971 89.1045 277.166 90.0318V90.025Z" fill="#72494D"/>
<path d="M166.449 207.029V311.866C166.449 324.32 156.35 334.418 143.896 334.418H42.5592C40.4001 334.418 38.3019 334.12 36.3255 333.545C26.897 330.838 20 322.16 20 311.866V207.029C20 194.575 30.1053 184.477 42.5592 184.477H143.896C156.35 184.477 166.449 194.575 166.449 207.029Z" fill="#FF5968"/>
<path d="M83.1245 311.601C101.322 311.601 116.073 296.849 116.073 278.652C116.073 260.455 101.322 245.703 83.1245 245.703C64.9274 245.703 50.1758 260.455 50.1758 278.652C50.1758 296.849 64.9274 311.601 83.1245 311.601Z" fill="#06374C"/>
<path d="M67.1226 311.601C85.3197 311.601 100.071 296.849 100.071 278.652C100.071 260.455 85.3197 245.703 67.1226 245.703C48.9255 245.703 34.1738 260.455 34.1738 278.652C34.1738 296.849 48.9255 311.601 67.1226 311.601Z" fill="#0A4A60"/>
<path d="M73.5113 311.601C91.7084 311.601 106.46 296.849 106.46 278.652C106.46 260.455 91.7084 245.703 73.5113 245.703C55.3142 245.703 40.5625 260.455 40.5625 278.652C40.5625 296.849 55.3142 311.601 73.5113 311.601Z" fill="#06374C"/>
<path d="M116.606 308.376C129.996 308.376 140.85 297.521 140.85 284.131C140.85 270.741 129.996 259.887 116.606 259.887C103.216 259.887 92.3613 270.741 92.3613 284.131C92.3613 297.521 103.216 308.376 116.606 308.376Z" fill="white"/>
<path d="M114.467 276.493C127.857 276.493 138.712 265.638 138.712 252.249C138.712 238.859 127.857 228.004 114.467 228.004C101.077 228.004 90.2227 238.859 90.2227 252.249C90.2227 265.638 101.077 276.493 114.467 276.493Z" fill="white"/>
<path d="M112.579 245.017C124.066 245.017 133.378 235.705 133.378 224.217C133.378 212.73 124.066 203.418 112.579 203.418C101.092 203.418 91.7793 212.73 91.7793 224.217C91.7793 235.705 101.092 245.017 112.579 245.017Z" fill="white"/>
<path d="M90.2783 244.518C103.261 244.518 113.785 233.993 113.785 221.011C113.785 208.028 103.261 197.504 90.2783 197.504C77.2958 197.504 66.7715 208.028 66.7715 221.011C66.7715 233.993 77.2958 244.518 90.2783 244.518Z" fill="white"/>
<path d="M113.383 311.399C126.773 311.399 137.628 300.545 137.628 287.155C137.628 273.765 126.773 262.91 113.383 262.91C99.9933 262.91 89.1387 273.765 89.1387 287.155C89.1387 300.545 99.9933 311.399 113.383 311.399Z" fill="#06374C"/>
<path d="M68.3536 279.828C66.8983 280.214 65.3213 280.214 63.7849 279.747C59.2568 278.414 56.6848 273.642 58.0317 269.128C59.3042 264.843 63.636 262.305 67.9271 263.192C64.4346 262.542 60.9354 264.627 59.893 268.119C58.9048 271.442 60.4819 274.915 63.4735 276.417C64.5429 277.967 66.12 279.179 68.0625 279.747C68.1573 279.774 68.2588 279.801 68.3536 279.828Z" fill="#FECE63"/>
<path d="M128.393 272.413C137.861 262.945 137.861 247.594 128.393 238.126C118.925 228.658 103.574 228.658 94.1064 238.126C84.6383 247.594 84.6383 262.945 94.1064 272.413C103.574 281.881 118.925 281.881 128.393 272.413Z" fill="#06374C"/>
<path d="M138.819 334.418H44.3184L49.591 316.692C52.8872 305.612 62.2074 297.584 73.3347 295.764C74.9185 295.506 76.5294 295.371 78.1673 295.371H104.984C106.622 295.371 108.233 295.506 109.817 295.764C120.944 297.584 130.264 305.612 133.56 316.692L138.833 334.418H138.819Z" fill="#445BB8"/>
<path d="M91.5704 313.609C83.8205 313.609 77.4785 307.267 77.4785 299.518V276.674C77.4785 268.924 83.8205 262.582 91.5704 262.582C99.3203 262.582 105.662 268.924 105.662 276.674V299.518C105.662 307.267 99.3203 313.609 91.5704 313.609Z" fill="#EB7981"/>
<path d="M104.977 295.371H101.519V299.513C101.519 305.003 97.0583 309.463 91.5691 309.463C86.0799 309.463 81.6195 305.003 81.6195 299.513V295.371H78.1608C76.5228 295.371 74.9119 295.506 73.3281 295.764V299.513C73.3281 309.571 81.5044 317.748 91.5623 317.748C101.62 317.748 109.796 309.571 109.796 299.513V295.764C108.213 295.506 106.602 295.371 104.964 295.371H104.977Z" fill="#384E96"/>
<path d="M105.662 276.674V299.518C105.662 307.274 99.3203 313.609 91.5704 313.609C83.8205 313.609 77.4785 307.267 77.4785 299.518V276.674C77.4785 268.917 83.8205 262.582 91.5704 262.582C95.4487 262.582 98.9683 264.166 101.527 266.724C104.085 269.283 105.669 272.802 105.669 276.681L105.662 276.674Z" fill="#F49797"/>
<path d="M105.661 276.674V295.592C102.338 297.142 98.6358 298.008 94.7371 298.008H91.1702C86.148 298.008 81.4507 296.573 77.4844 294.089V276.674C77.4844 268.917 83.8264 262.582 91.5763 262.582C95.4546 262.582 98.9742 264.166 101.533 266.724C104.091 269.283 105.675 272.802 105.675 276.681L105.661 276.674Z" fill="#EB7981"/>
<path d="M120.58 248.95V263.875C120.58 278.149 109.006 289.723 94.7311 289.723H91.1642C89.1133 289.723 87.1234 289.487 85.2147 289.033C73.8099 286.346 65.3223 276.099 65.3223 263.875V248.95C65.3223 236.726 73.8099 226.479 85.2147 223.792C87.1302 223.338 89.1133 223.102 91.1642 223.102H94.7311C109.006 223.102 120.58 234.676 120.58 248.95Z" fill="#EB7981"/>
<path d="M105.107 248.955V263.88C105.107 276.104 96.6195 286.351 85.2147 289.038C73.8099 286.351 65.3223 276.104 65.3223 263.88V248.955C65.3223 236.731 73.8099 226.484 85.2147 223.797C96.6195 226.484 105.107 236.731 105.107 248.955Z" fill="#F49797"/>
<path d="M91.2534 240.98C91.2534 251.396 83.4833 260.013 73.4186 261.333C72.5319 261.454 71.6317 261.515 70.7112 261.515C59.3673 261.515 50.1758 252.317 50.1758 240.98C50.1758 229.643 59.3673 220.438 70.7112 220.438C71.6317 220.438 72.5319 220.498 73.4186 220.62C83.4833 221.94 91.2534 230.556 91.2534 240.98Z" fill="#0A4A60"/>
<path d="M91.2527 240.977C91.2527 251.393 83.4826 260.01 73.4179 261.329C63.3532 260.01 55.5898 251.393 55.5898 240.977C55.5898 230.56 63.3532 221.937 73.4179 220.617C83.4826 221.937 91.2527 230.553 91.2527 240.977Z" fill="#06374C"/>
<path d="M67.527 268.289C63.5607 268.289 60.3457 265.074 60.3457 261.108V257.236C60.3457 253.27 63.5607 250.055 67.527 250.055C71.4933 250.055 74.7083 253.27 74.7083 257.236V261.108C74.7083 265.074 71.4933 268.289 67.527 268.289Z" fill="#F49797"/>
<path d="M93.9785 259.635C93.0107 259.635 92.2188 258.843 92.2188 257.875V257.104C92.2188 256.136 93.0107 255.344 93.9785 255.344C94.9464 255.344 95.7383 256.136 95.7383 257.104V257.875C95.7383 258.843 94.9464 259.635 93.9785 259.635Z" fill="#06374C"/>
<path d="M115.008 259.635C114.04 259.635 113.248 258.843 113.248 257.875V257.104C113.248 256.136 114.04 255.344 115.008 255.344C115.976 255.344 116.768 256.136 116.768 257.104V257.875C116.768 258.843 115.976 259.635 115.008 259.635Z" fill="#06374C"/>
<path d="M128.506 235.341C132.985 224.763 128.041 212.557 117.463 208.078C106.885 203.598 94.6793 208.542 90.2001 219.12C85.7209 229.698 90.6649 241.905 101.243 246.384C111.821 250.863 124.027 245.919 128.506 235.341Z" fill="#06374C"/>
<path d="M103.678 240.661C112.858 231.481 112.858 216.597 103.678 207.417C94.498 198.237 79.6143 198.237 70.4343 207.417C61.2543 216.597 61.2543 231.481 70.4343 240.661C79.6143 249.841 94.498 249.841 103.678 240.661Z" fill="#06374C"/>
<path d="M103.678 240.661C112.858 231.481 112.858 216.597 103.678 207.417C94.498 198.237 79.6143 198.237 70.4343 207.417C61.2543 216.597 61.2543 231.481 70.4343 240.661C79.6143 249.841 94.498 249.841 103.678 240.661Z" fill="#06374C"/>
<path d="M70.8592 255.67C70.1959 255.277 69.4311 255.054 68.5986 255.054C66.1552 255.054 64.1788 257.03 64.1788 259.473V261.856C64.1788 262.966 64.5849 263.981 65.2617 264.76C63.969 263.981 63.1094 262.573 63.1094 260.956V258.58C63.1094 256.137 65.0925 254.16 67.5292 254.16C68.8625 254.16 70.0538 254.749 70.8592 255.676V255.67Z" fill="#EB7981"/>
<path d="M107.765 273.074C107.204 274.956 106.202 276.621 104.896 277.9C104.733 278.056 104.571 278.212 104.402 278.354C102.736 279.782 100.652 280.635 98.3911 280.635C96.1305 280.635 93.8833 279.714 92.1845 278.178C92.1303 278.13 92.0762 278.083 92.022 278.036C90.4111 276.513 89.2334 274.421 88.7529 272.039C88.6243 271.416 89.186 270.861 89.8223 270.976C89.8426 270.976 89.8697 270.976 89.89 270.99C93.5314 271.673 97.7211 272.059 102.161 272.059C103.745 272.059 105.308 272.012 106.811 271.924C106.974 271.91 107.129 271.937 107.258 272.005C107.657 272.181 107.901 272.628 107.759 273.081L107.765 273.074Z" fill="#BF6069"/>
<path d="M104.395 278.356C102.73 279.784 100.645 280.637 98.3844 280.637C96.1237 280.637 93.8766 279.716 92.1777 278.18C92.6718 276.63 95.2032 275.445 98.2626 275.445C101.322 275.445 104.05 276.718 104.388 278.356H104.395Z" fill="#FF5968"/>
<path d="M107.259 271.997C106.231 273.669 102.806 274.894 98.7243 274.894C93.8646 274.894 89.9186 273.147 89.8848 270.988C93.5262 271.672 97.7159 272.058 102.156 272.058C103.74 272.058 105.303 272.01 106.806 271.922C106.968 271.909 107.124 271.936 107.253 272.004L107.259 271.997Z" fill="white"/>
<path d="M104.895 277.903C103.156 279.602 100.881 280.637 98.3906 280.637C95.8998 280.637 93.7407 279.656 92.0215 278.031C93.6391 277.612 96.0419 277.348 98.7222 277.348C101.118 277.348 103.298 277.564 104.888 277.903H104.895Z" fill="white"/>
<path d="M308.004 169.286C307.354 169.347 306.684 169.374 306.014 169.374H281.627L274.595 149.678C272.287 143.214 275.651 136.1 282.121 133.792C282.595 133.623 283.069 133.481 283.549 133.379C289.6 131.992 295.868 135.322 298.007 141.319L308.004 169.286Z" fill="#384E96"/>
<path d="M200.149 169.286C200.798 169.347 201.468 169.374 202.138 169.374H226.525L233.558 149.678C235.866 143.214 232.502 136.1 226.031 133.792C225.557 133.623 225.083 133.481 224.603 133.379C218.552 131.992 212.284 135.322 210.145 141.319L200.149 169.286Z" fill="#384E96"/>
<path d="M69.4577 314.728L62.4253 334.417H42.5599C40.4008 334.417 38.3026 334.112 36.3262 333.544L46.0389 306.362C48.1777 300.365 54.4453 297.035 60.4963 298.422C60.9768 298.531 61.4506 298.666 61.9244 298.835C68.3951 301.143 71.759 308.257 69.4509 314.721L69.4577 314.728Z" fill="#384E96"/>
<path d="M116.941 315.02L123.973 334.71H143.839C145.998 334.71 148.096 334.405 150.072 333.837L140.36 306.655C138.221 300.658 131.953 297.328 125.902 298.715C125.422 298.824 124.948 298.959 124.474 299.128C118.003 301.436 114.639 308.55 116.948 315.014L116.941 315.02Z" fill="#384E96"/>
<path d="M122.406 227.237C122.406 233.809 117.553 239.251 111.232 240.158C114.968 237.864 117.459 233.735 117.459 229.031C117.459 221.822 111.617 215.981 104.402 215.981C103.766 215.981 103.137 216.029 102.527 216.117C104.51 214.891 106.852 214.188 109.357 214.188C116.565 214.188 122.406 220.029 122.406 227.237Z" fill="#0A4A60"/>
<path d="M74.1758 212.673C79.8207 207.028 88.6603 206.527 94.867 211.171C89.6891 209.932 84.0036 211.34 79.9628 215.381C73.7765 221.567 73.7765 231.598 79.9628 237.798C80.5111 238.346 81.0932 238.847 81.6888 239.294C78.9341 238.644 76.3214 237.236 74.1691 235.084C67.9827 228.897 67.9827 218.866 74.1691 212.673H74.1758Z" fill="#0A4A60"/>
<path d="M144.004 169.484L42.6599 169.484C30.2045 169.484 20.1074 159.387 20.1074 146.932L20.1074 42.0953C20.1074 29.6399 30.2045 19.5428 42.6599 19.5428L144.004 19.5428C156.459 19.5428 166.556 29.6399 166.556 42.0953L166.556 146.932C166.556 159.387 156.459 169.484 144.004 169.484Z" fill="#417465"/>
<path d="M138.926 169.481H44.4249L49.6975 151.754C52.9938 140.674 62.3139 132.647 73.4412 130.826C75.0251 130.569 76.636 130.434 78.2739 130.434H105.09C106.728 130.434 108.339 130.569 109.923 130.826C121.05 132.647 130.371 140.674 133.667 151.754L138.939 169.481H138.926Z" fill="#FF5968"/>
<path d="M44.427 169.48H62.377L51.4459 151.618C51.0398 150.955 50.7082 150.271 50.4374 149.574C50.1667 150.285 49.923 151.009 49.6996 151.754L44.427 169.48Z" fill="#D35060"/>
<path d="M91.6757 148.672C83.9258 148.672 77.5838 142.33 77.5838 134.58V111.736C77.5838 103.987 83.9258 97.6445 91.6757 97.6445C99.4255 97.6445 105.768 103.987 105.768 111.736V134.58C105.768 142.33 99.4255 148.672 91.6757 148.672Z" fill="#EB7981"/>
<path d="M110.69 89.3884H122.677C128.741 89.3884 133.662 84.4677 133.662 78.4032C133.662 72.3386 128.741 67.418 122.677 67.418H110.69C104.625 67.418 99.7048 72.3386 99.7048 78.4032C99.7048 84.4677 104.625 89.3884 110.69 89.3884Z" fill="white"/>
<path d="M123.752 85.3292V100.254C123.752 114.528 112.178 126.102 97.9033 126.102H94.3363C92.2855 126.102 90.2956 125.865 88.3869 125.412C76.982 122.725 68.4944 112.477 68.4944 100.254V85.3292C68.4944 73.1054 76.982 62.8579 88.3869 60.1708C90.3023 59.7174 92.2855 59.4805 94.3363 59.4805H97.9033C112.178 59.4805 123.752 71.0545 123.752 85.3292Z" fill="white"/>
<path d="M109.916 130.826V134.576C109.916 144.634 101.74 152.81 91.682 152.81C81.6241 152.81 73.4478 144.634 73.4478 134.576V130.826C75.0316 130.569 76.6425 130.434 78.2805 130.434H81.7392V134.576C81.7392 140.065 86.1996 144.526 91.6888 144.526C97.178 144.526 101.638 140.065 101.638 134.576V130.434H105.097C106.735 130.434 108.346 130.569 109.93 130.826H109.916Z" fill="#D35060"/>
<path d="M107.631 88.0681H119.618C125.683 88.0681 130.604 83.1474 130.604 77.0829C130.604 71.0183 125.683 66.0977 119.618 66.0977H107.631C101.567 66.0977 96.6463 71.0183 96.6463 77.0829C96.6463 83.1474 101.567 88.0681 107.631 88.0681Z" fill="#06374C"/>
<path d="M105.768 111.736V134.58C105.768 142.337 99.4255 148.672 91.6757 148.672C83.9258 148.672 77.5838 142.33 77.5838 134.58V111.736C77.5838 103.98 83.9258 97.6445 91.6757 97.6445C95.554 97.6445 99.0736 99.2284 101.625 101.787C104.177 104.339 105.768 107.865 105.768 111.743V111.736Z" fill="#F49797"/>
<path d="M105.767 111.736V130.654C102.443 132.204 98.741 133.071 94.8424 133.071H91.2754C86.2532 133.071 81.5559 131.636 77.5896 129.152V111.736C77.5896 103.98 83.9317 97.6445 91.6815 97.6445C95.5599 97.6445 99.0795 99.2284 101.631 101.787C104.183 104.339 105.773 107.865 105.773 111.743L105.767 111.736Z" fill="#EB7981"/>
<path d="M120.693 84.0128V98.9372C120.693 113.212 109.119 124.786 94.8447 124.786H91.2777C89.2269 124.786 87.237 124.549 85.3283 124.096C73.9234 121.409 65.4358 111.161 65.4358 98.9372V84.0128C65.4358 71.789 73.9234 61.5415 85.3283 58.8544C87.2437 58.401 89.2269 58.1641 91.2777 58.1641H94.8447C109.119 58.1641 120.693 69.7381 120.693 84.0128Z" fill="#EB7981"/>
<path d="M105.221 84.0177V98.9422C105.221 111.166 96.7331 121.413 85.3282 124.101C73.9234 121.413 65.4358 111.166 65.4358 98.9422V84.0177C65.4358 71.7939 73.9234 61.5465 85.3282 58.8594C96.7331 61.5465 105.221 71.7939 105.221 84.0177Z" fill="#F49797"/>
<path d="M97.6398 103.355H103.42C110.029 103.355 115.387 108.713 115.387 115.322V122.429C115.387 129.038 110.029 134.396 103.42 134.396H97.6398C91.0309 134.396 85.6732 129.038 85.6732 122.429V115.322C85.6732 108.713 91.0309 103.355 97.6398 103.355Z" fill="#06374C"/>
<path d="M107.859 110.441C107.859 112.255 107.115 113.907 105.917 115.105C104.719 116.303 103.067 117.047 101.253 117.047C97.6188 117.047 94.6474 114.076 94.6474 110.441H107.859Z" fill="white"/>
<path d="M68.8267 88.0681H80.8137C86.8782 88.0681 91.7988 83.1474 91.7988 77.0829C91.7988 71.0183 86.8782 66.0977 80.8137 66.0977H68.8267C62.7622 66.0977 57.8416 71.0183 57.8416 77.0829C57.8416 83.1474 62.7622 88.0681 68.8267 88.0681Z" fill="#06374C"/>
<path d="M76.1163 72.5789H85.3687C90.0525 72.5789 93.8496 68.7818 93.8496 64.0981C93.8496 59.4143 90.0525 55.6172 85.3687 55.6172H76.1163C71.4325 55.6172 67.6354 59.4143 67.6354 64.0981C67.6354 68.7818 71.4325 72.5789 76.1163 72.5789Z" fill="#06374C"/>
<path d="M70.4349 66.641C70.4349 68.9829 71.3824 71.1015 72.9189 72.6379C73.1422 72.868 73.3859 73.0778 73.6363 73.2741C73.0475 72.1235 72.7158 70.8172 72.7158 69.4364C72.7158 64.7526 76.5129 60.9555 81.1967 60.9555H90.4424C92.4391 60.9555 94.2801 61.6459 95.7285 62.8033C95.3156 61.9979 94.7877 61.2737 94.1582 60.6442C92.6218 59.1077 90.5033 58.1602 88.1614 58.1602H78.909C74.232 58.1602 70.4349 61.9573 70.4349 66.641Z" fill="#0A4A60"/>
<path d="M115 95.7639C115.968 95.7639 116.76 94.972 116.76 94.0041V93.2325C116.76 92.2646 115.968 91.4727 115 91.4727C114.032 91.4727 113.24 92.2646 113.24 93.2325V94.0041C113.24 94.972 114.032 95.7639 115 95.7639Z" fill="#06374C"/>
<path d="M93.2871 95.7639C94.255 95.7639 95.0469 94.972 95.0469 94.0041V93.2325C95.0469 92.2646 94.255 91.4727 93.2871 91.4727C92.3192 91.4727 91.5273 92.2646 91.5273 93.2325V94.0041C91.5273 94.972 92.3192 95.7639 93.2871 95.7639Z" fill="#06374C"/>
<path d="M67.6351 100.59C63.6688 100.59 60.4538 97.3747 60.4538 93.4084V89.5368C60.4538 85.5705 63.6688 82.3555 67.6351 82.3555C71.6014 82.3555 74.8164 85.5705 74.8164 89.5368V93.4084C74.8164 97.3747 71.6014 100.59 67.6351 100.59Z" fill="#F49797"/>
<path d="M71.5137 87.3766C70.8504 86.984 70.0855 86.7606 69.253 86.7606C66.8096 86.7606 64.8332 88.737 64.8332 91.1804V93.5629C64.8332 94.6729 65.2393 95.6882 65.9162 96.4666C64.6234 95.6882 63.7638 94.2804 63.7638 92.6627V90.287C63.7638 87.8436 65.7469 85.8672 68.1836 85.8672C69.517 85.8672 70.7082 86.4561 71.5137 87.3833V87.3766Z" fill="#EB7981"/>
<path d="M103.108 86.1836C92.0165 86.1836 83.0255 77.1925 83.0255 66.1015C83.0255 55.0106 92.0165 46.0195 103.108 46.0195C114.198 46.0195 123.189 55.0106 123.189 66.1015C123.189 77.1925 114.198 86.1836 103.108 86.1836Z" fill="#06374C"/>
<path d="M106.188 42.2457C109.788 41.8464 113.545 42.5435 116.922 44.4928C125.369 49.3526 128.28 60.1415 123.42 68.5953C121.302 72.2774 118.066 74.9035 114.384 76.291C119.785 75.6954 124.841 72.6225 127.759 67.553C132.618 59.1059 129.715 48.3103 121.268 43.4505C116.496 40.7025 110.966 40.4318 106.188 42.2525V42.2457Z" fill="white"/>
<path d="M103.041 42.2457C106.642 41.8464 110.398 42.5435 113.776 44.4928C122.223 49.3526 125.133 60.1415 120.274 68.5953C118.155 72.2774 114.92 74.9035 111.238 76.291C116.639 75.6954 121.695 72.6225 124.612 67.553C129.472 59.1059 126.568 48.3103 118.121 43.4505C113.349 40.7025 107.82 40.4318 103.041 42.2525V42.2457Z" fill="#06374C"/>
<path d="M114.508 68.35C114.508 73.3993 112.099 77.8868 108.369 80.7227C114.366 78.5704 118.65 72.8375 118.65 66.1029C118.65 57.5205 111.692 50.5625 103.11 50.5625C99.5837 50.5625 96.3281 51.7402 93.7223 53.7234C95.3602 53.1345 97.1268 52.8164 98.9678 52.8164C107.55 52.8164 114.508 59.7676 114.508 68.35Z" fill="#0A4A60"/>
<path d="M74.4124 274.003C74.0943 275.093 73.5663 276.06 72.8963 276.886C71.7389 278.341 70.1347 279.37 68.3546 279.824C68.2599 279.797 68.1584 279.77 68.0636 279.743C66.1211 279.174 64.544 277.962 63.4746 276.412C63.8401 276.602 64.2259 276.751 64.632 276.873C66.0466 277.292 67.4815 277.245 68.7946 276.825C70.9334 276.148 72.7135 274.45 73.4107 272.128C74.4462 268.635 72.6526 264.974 69.3631 263.613C73.4445 265.217 75.6916 269.705 74.4124 273.996V274.003Z" fill="white"/>
<path d="M205.104 184.691H306.448C318.903 184.691 329 194.789 329 207.244V312.081C329 324.536 318.903 334.633 306.448 334.633H205.104C192.648 334.633 182.551 324.536 182.551 312.081V207.244C182.551 194.789 192.648 184.691 205.104 184.691Z" fill="#4BAC99"/>
<circle cx="175.782" cy="173.862" r="54.1476" fill="white"/>
<circle cx="175.782" cy="173.862" r="36.5496" fill="#E9FAF5"/>
<path d="M251.742 277.042V275.916C251.764 272.052 252.107 268.973 252.769 266.677C253.453 264.381 254.447 262.526 255.749 261.113C257.052 259.7 258.619 258.42 260.452 257.272C261.821 256.389 263.046 255.472 264.128 254.523C265.209 253.574 266.07 252.525 266.711 251.377C267.351 250.207 267.671 248.904 267.671 247.469C267.671 245.946 267.307 244.61 266.578 243.462C265.85 242.314 264.867 241.431 263.631 240.813C262.417 240.195 261.07 239.886 259.591 239.886C258.156 239.886 256.798 240.206 255.517 240.846C254.237 241.464 253.188 242.392 252.371 243.628C251.555 244.842 251.113 246.355 251.047 248.165H237.536C237.646 243.749 238.706 240.107 240.715 237.237C242.724 234.345 245.384 232.192 248.696 230.779C252.007 229.344 255.661 228.627 259.657 228.627C264.05 228.627 267.936 229.355 271.314 230.812C274.692 232.247 277.341 234.334 279.262 237.071C281.182 239.809 282.143 243.109 282.143 246.973C282.143 249.556 281.712 251.852 280.851 253.861C280.012 255.848 278.831 257.614 277.308 259.159C275.784 260.683 273.985 262.063 271.91 263.299C270.166 264.336 268.731 265.418 267.605 266.544C266.501 267.67 265.673 268.973 265.121 270.452C264.591 271.931 264.315 273.752 264.293 275.916V277.042H251.742ZM258.299 298.236C256.091 298.236 254.204 297.463 252.636 295.918C251.091 294.35 250.329 292.474 250.351 290.288C250.329 288.125 251.091 286.27 252.636 284.725C254.204 283.179 256.091 282.407 258.299 282.407C260.397 282.407 262.24 283.179 263.83 284.725C265.419 286.27 266.225 288.125 266.247 290.288C266.225 291.745 265.839 293.081 265.088 294.295C264.359 295.487 263.399 296.448 262.207 297.176C261.015 297.883 259.712 298.236 258.299 298.236Z" fill="white"/>
<path d="M174.995 146C169.458 146.001 164.045 147.644 159.441 150.721C154.837 153.798 151.249 158.171 149.13 163.287C147.012 168.403 146.458 174.033 147.538 179.464C148.619 184.895 151.285 189.883 155.201 193.799C159.117 197.715 164.105 200.381 169.536 201.462C174.967 202.542 180.597 201.988 185.713 199.87C190.829 197.751 195.202 194.163 198.279 189.559C201.356 184.955 202.999 179.542 203 174.005C203 166.578 200.049 159.455 194.797 154.203C189.545 148.951 182.422 146 174.995 146ZM192.674 167.241C192.669 167.296 192.653 167.349 192.628 167.398C192.602 167.447 192.567 167.49 192.524 167.524C192.448 167.585 192.353 167.618 192.256 167.619C192.236 167.619 191.58 167.539 191.58 167.539C191.526 167.534 191.474 167.518 191.426 167.493C191.378 167.467 191.336 167.432 191.302 167.39C191.267 167.348 191.242 167.3 191.227 167.248C191.211 167.196 191.206 167.141 191.212 167.087C191.212 167.087 191.292 166.163 191.292 165.691C191.293 162.719 190.177 159.856 188.166 157.669C186.625 155.995 183.842 157.028 183.842 159.309L183.832 182.31C183.832 187.274 181.139 191.807 176.442 194.272C174.653 195.217 172.625 195.609 170.598 195.609H170.538C168.791 195.61 167.061 195.267 165.446 194.599C163.832 193.931 162.365 192.951 161.129 191.716C159.893 190.481 158.912 189.015 158.243 187.401C157.574 185.787 157.229 184.057 157.229 182.31C157.229 181.788 157.318 180.759 157.318 180.759C157.321 180.703 157.335 180.648 157.361 180.599C157.387 180.549 157.423 180.505 157.468 180.471C157.544 180.411 157.639 180.38 157.736 180.381C157.746 180.381 158.412 180.456 158.412 180.456C158.52 180.47 158.618 180.524 158.686 180.608C158.755 180.693 158.788 180.8 158.78 180.908C158.78 180.913 158.695 181.838 158.695 182.31C158.694 185.282 159.812 188.145 161.826 190.331C163.362 192.001 166.15 190.967 166.15 188.691V165.691C166.155 160.711 168.858 156.168 173.585 153.708C174.474 153.246 175.422 152.906 176.402 152.699C177.383 152.486 178.385 152.381 179.389 152.386C180.799 152.38 182.201 152.597 183.543 153.027C185.653 153.708 187.558 154.905 189.085 156.511C191.466 159.027 192.784 162.366 192.763 165.83C192.757 166.302 192.674 167.241 192.674 167.241Z" fill="#8DCABE"/>
</svg>
