<svg width="100" height="101" viewBox="0 0 100 101" fill="none" xmlns="http://www.w3.org/2000/svg">
<g clip-path="url(#clip0_9172_53795)">
<path d="M66.8647 88.299C65.6799 87.8906 64.3801 87.9803 63.2625 88.5469L60.5664 89.9143C57.7719 91.3315 54.4692 91.3317 51.6746 89.9145C48.8803 88.4975 45.5777 88.4975 42.7834 89.9145L42.7828 89.9147C39.9885 91.3317 36.6861 91.3317 33.8918 89.9147L33.8908 89.9141C31.0964 88.4973 27.7941 88.4973 24.9998 89.9141L24.9986 89.9147C22.2044 91.3315 18.9023 91.3317 16.1079 89.9149L13.4085 88.5463C12.2911 87.9797 10.9915 87.8903 9.80695 88.2987L9.76652 88.3125C6.16007 89.5557 2.68252 86.1475 3.85264 82.5166L4.50342 80.4973C4.83819 79.4586 4.79522 78.3354 4.38213 77.3254L2.03428 71.5842C1.05889 69.1994 1.05908 66.5273 2.03428 64.1427L3.49991 60.5589C4.4753 58.1742 4.4753 55.5021 3.49991 53.1173L2.03428 49.5333C1.05889 47.1488 1.05889 44.4767 2.03428 42.0919L3.5001 38.5073C4.4753 36.1228 4.4753 33.4507 3.5001 31.0659L2.03428 27.4813C1.05908 25.0968 1.05889 22.4249 2.03408 20.0403L4.38233 14.2975C4.79522 13.2878 4.83819 12.1643 4.50342 11.1258L3.85206 9.10495C2.68252 5.47467 6.16026 2.06665 9.76672 3.30962L9.80558 3.32291C10.9904 3.7313 12.2902 3.64166 13.4077 3.07505L16.1038 1.70767C18.8984 0.290478 22.2011 0.290283 24.9957 1.70747C27.79 3.12447 31.0925 3.12447 33.8869 1.70747L33.8875 1.70728C36.6818 0.290282 39.9842 0.290282 42.7785 1.70728L42.7795 1.70786C45.5738 3.12466 48.8762 3.12466 51.6705 1.70786L51.6717 1.70728C54.4658 0.290478 57.768 0.290283 60.5623 1.70708L63.2235 3.0565C64.3655 3.6356 65.693 3.72681 66.9035 3.30962C70.51 2.06665 73.9877 5.47467 72.8174 9.10553L72.1666 11.1249C71.8319 12.1635 71.8748 13.2868 72.2879 14.2968L74.6358 20.038C75.611 22.4227 75.6108 25.0948 74.6358 27.4794L73.1702 31.0632C72.195 33.448 72.195 36.12 73.1702 38.5048L74.6358 42.0888C75.611 44.4734 75.611 47.1455 74.6358 49.5302L73.17 53.1148C72.195 55.4994 72.195 58.1714 73.17 60.5562L74.6485 64.1711C75.6163 66.5373 75.6241 69.1877 74.6698 71.5598L72.2829 77.4943C71.877 78.5033 71.8395 79.623 72.1766 80.6568L72.7739 82.4883C73.9588 86.1215 70.4782 89.5445 66.8647 88.299Z" fill="url(#paint0_linear_9172_53795)"/>
<path d="M61.5472 82.5308H15.1231C12.492 82.5308 10.3594 80.398 10.3594 77.7671V13.8574C10.3594 11.2264 12.4922 9.09375 15.1231 9.09375H61.5472C64.1782 9.09375 66.3109 11.2266 66.3109 13.8574V77.7671C66.3109 80.398 64.178 82.5308 61.5472 82.5308Z" fill="#00B5D4"/>
<path d="M66.312 44.7213V73.1397C66.312 74.2739 65.9151 75.3153 65.2524 76.1315L30.5547 41.4342C28.2752 39.333 26.8438 36.3233 26.8438 32.9797C26.8438 26.6332 31.9887 21.4883 38.3352 21.4883C41.6787 21.4883 44.6885 22.9199 46.7897 25.1992L66.312 44.7213Z" fill="url(#paint1_linear_9172_53795)"/>
<path d="M66.312 67.5125V73.1377C66.312 74.2719 65.9151 75.3133 65.2524 76.1296C64.38 77.2096 63.0452 77.8993 61.5483 77.8993H40.8604L22.2266 59.2766C23.6785 52.7293 29.0172 47.6477 35.6996 46.5768C36.5586 46.4393 37.4379 46.3672 38.3352 46.3672C42.8938 46.3672 47.0174 48.2158 50.0045 51.201L66.312 67.5125Z" fill="url(#paint2_linear_9172_53795)"/>
<path d="M38.336 44.4688C44.6819 44.4688 49.8262 39.3244 49.8262 32.9785C49.8262 26.6326 44.6819 21.4883 38.336 21.4883C31.9901 21.4883 26.8457 26.6326 26.8457 32.9785C26.8457 39.3244 31.9901 44.4688 38.336 44.4688Z" fill="url(#paint3_linear_9172_53795)"/>
<path d="M54.4442 59.2762C50.3413 63.4348 44.6381 66.01 38.3344 66.01C32.0307 66.01 26.3275 63.4348 22.2246 59.2762C23.8641 51.8887 30.4528 46.3672 38.3344 46.3672C42.8924 46.3672 47.0178 48.216 50.0034 51.2018C52.1819 53.3776 53.7544 56.1621 54.4442 59.2762Z" fill="url(#paint4_linear_9172_53795)"/>
<path d="M95.0921 67.962H54.2051V57.4512C54.2051 46.1787 63.3758 37.0078 74.6485 37.0078C85.921 37.0078 95.0919 46.1785 95.0919 57.4512V67.962H95.0921ZM60.969 61.1983H88.3284V57.451C88.3284 49.908 82.1917 43.7713 74.6487 43.7713C67.1055 43.7713 60.9688 49.908 60.9688 57.451V61.1983H60.969Z" fill="url(#paint5_linear_9172_53795)"/>
<path d="M93.0251 100.645H55.9598C53.7363 100.645 51.9336 98.8427 51.9336 96.6192V66.2606C51.9336 64.0371 53.7361 62.2344 55.9598 62.2344H93.0251C95.2485 62.2344 97.0513 64.0369 97.0513 66.2606V96.6192C97.0511 98.8427 95.2485 100.645 93.0251 100.645Z" fill="url(#paint6_linear_9172_53795)"/>
<path d="M97.0513 75.5781H51.9336V78.5193H97.0513V75.5781Z" fill="#FFE600"/>
<path d="M97.0513 81.5352H51.9336V84.4764H97.0513V81.5352Z" fill="#FFE600"/>
<path d="M97.0513 87.4883H51.9336V90.4295H97.0513V87.4883Z" fill="#FFE600"/>
<path d="M97.0513 93.4453H51.9336V96.3865H97.0513V93.4453Z" fill="#FFE600"/>
<path d="M80.6762 100.645H93.0251C95.2485 100.645 97.0513 98.8427 97.0513 96.6192V66.2606C97.0513 64.0371 95.2487 62.2344 93.0251 62.2344H55.9598C53.7363 62.2344 51.9336 64.0369 51.9336 66.2606V71.9028L80.6762 100.645Z" fill="url(#paint7_linear_9172_53795)"/>
<path d="M95.362 72.3342H53.6195C51.7779 72.3342 50.2852 70.8414 50.2852 68.9998V62.557C50.2852 60.7154 51.7779 59.2227 53.6195 59.2227H95.362C97.2036 59.2227 98.6964 60.7154 98.6964 62.557V68.9998C98.6962 70.8414 97.2034 72.3342 95.362 72.3342Z" fill="url(#paint8_linear_9172_53795)"/>
<path d="M80.1106 81.4518C80.1106 78.3481 77.5945 75.832 74.4908 75.832C71.3871 75.832 68.8711 78.3481 68.8711 81.4518C68.8711 83.5299 70 85.3432 71.6768 86.3155V92.8844C71.6768 94.4385 72.9365 95.6985 74.4908 95.6985C76.0451 95.6985 77.3049 94.4387 77.3049 92.8844V86.3155C78.9819 85.3432 80.1106 83.5299 80.1106 81.4518Z" fill="#3B4041"/>
</g>
<defs>
<linearGradient id="paint0_linear_9172_53795" x1="28.9814" y1="36.4596" x2="92.5723" y2="100.05" gradientUnits="userSpaceOnUse">
<stop stop-color="#F2F2F2"/>
<stop offset="1" stop-color="#C3C3C3"/>
</linearGradient>
<linearGradient id="paint1_linear_9172_53795" x1="62.2515" y1="56.8983" x2="21.8209" y2="16.4677" gradientUnits="userSpaceOnUse">
<stop stop-color="#00A2F3" stop-opacity="0"/>
<stop offset="1" stop-color="#0075CD"/>
</linearGradient>
<linearGradient id="paint2_linear_9172_53795" x1="46.3428" y1="74.0639" x2="38.043" y2="31.3805" gradientUnits="userSpaceOnUse">
<stop stop-color="#00A2F3" stop-opacity="0"/>
<stop offset="1" stop-color="#0075CD"/>
</linearGradient>
<linearGradient id="paint3_linear_9172_53795" x1="38.3352" y1="27.684" x2="38.3352" y2="47.6189" gradientUnits="userSpaceOnUse">
<stop stop-color="white"/>
<stop offset="1" stop-color="#E2EDF2"/>
</linearGradient>
<linearGradient id="paint4_linear_9172_53795" x1="38.3336" y1="51.6631" x2="38.3336" y2="68.702" gradientUnits="userSpaceOnUse">
<stop stop-color="white"/>
<stop offset="1" stop-color="#E2EDF2"/>
</linearGradient>
<linearGradient id="paint5_linear_9172_53795" x1="74.6471" y1="42.9537" x2="74.6471" y2="62.0102" gradientUnits="userSpaceOnUse">
<stop stop-color="#C3C3C3"/>
<stop offset="1" stop-color="#777777"/>
</linearGradient>
<linearGradient id="paint6_linear_9172_53795" x1="73.888" y1="78.9221" x2="78.6349" y2="98.7511" gradientUnits="userSpaceOnUse">
<stop stop-color="#FFF465"/>
<stop offset="1" stop-color="#FFE600"/>
</linearGradient>
<linearGradient id="paint7_linear_9172_53795" x1="78.47" y1="89.9259" x2="72.7466" y2="59.6716" gradientUnits="userSpaceOnUse">
<stop stop-color="#FFE600" stop-opacity="0"/>
<stop offset="1" stop-color="#F59500"/>
</linearGradient>
<linearGradient id="paint8_linear_9172_53795" x1="74.2333" y1="65.8154" x2="0.346479" y2="76.2584" gradientUnits="userSpaceOnUse">
<stop stop-color="#FFF465"/>
<stop offset="1" stop-color="#FFE600"/>
</linearGradient>
<clipPath id="clip0_9172_53795">
<rect width="100" height="100" fill="white" transform="translate(0 0.644531)"/>
</clipPath>
</defs>
</svg>
