<svg width="101" height="101" viewBox="0 0 101 101" fill="none" xmlns="http://www.w3.org/2000/svg">
<g clip-path="url(#clip0_9172_53561)">
<path d="M81.0695 48.1969H16.6031C8.79922 48.1969 2.47266 41.8703 2.47266 34.0664V14.775C2.47266 6.97109 8.79922 0.644531 16.6031 0.644531H81.0695C88.8734 0.644531 95.2 6.97109 95.2 14.775V34.0666C95.2 41.8707 88.8738 48.1969 81.0695 48.1969Z" fill="url(#paint0_linear_9172_53561)"/>
<path d="M78.168 46.0545H19.508C12.4068 46.0545 6.65039 40.2979 6.65039 33.1969V15.6428C6.65039 8.5416 12.407 2.78516 19.508 2.78516H78.168C85.2691 2.78516 91.0256 8.5418 91.0256 15.6428V33.1969C91.0258 40.2979 85.2691 46.0545 78.168 46.0545Z" fill="url(#paint1_linear_9172_53561)"/>
<path d="M81.0703 48.1979C83.8207 48.1979 86.3856 47.4094 88.5568 46.05C87.6604 45.5775 86.6781 45.2377 85.6322 45.0633L83.8277 44.824L66.3482 27.3496C65.4242 26.2547 64.0424 25.5586 62.4973 25.5586C59.7146 25.5586 57.459 27.8143 57.459 30.5969V48.198L81.0703 48.1979Z" fill="url(#paint2_linear_9172_53561)"/>
<path d="M68.416 29.418V37.5221C68.416 37.949 68.6223 38.2891 69.0359 38.542C69.449 38.7957 69.949 38.9221 70.5359 38.9221C71.0959 38.9221 71.5891 38.7957 72.016 38.542C72.4424 38.2889 72.6561 37.9488 72.6561 37.5221V33.6568L68.416 29.418Z" fill="url(#paint3_linear_9172_53561)"/>
<path d="M59.6287 77.9084V57.0938L53.7057 65.2383C52.1649 67.3568 52.358 70.2742 54.1647 72.1713L59.6287 77.9084Z" fill="url(#paint4_linear_9172_53561)"/>
<path d="M26.5133 30.2383C26.132 30.2383 25.8373 30.1401 25.6293 29.9436C25.4329 29.7356 25.3347 29.4409 25.3347 29.0596V19.1969C25.3347 18.8156 25.4329 18.5267 25.6293 18.3303C25.8373 18.1223 26.132 18.0183 26.5133 18.0183H29.876C31.9213 18.0183 33.4987 18.5441 34.608 19.5956C35.7289 20.6472 36.2893 22.1552 36.2893 24.1196C36.2893 25.1018 36.1449 25.9743 35.856 26.7369C35.5787 27.4881 35.1627 28.1236 34.608 28.6436C34.0649 29.1636 33.3947 29.5623 32.5973 29.8396C31.8116 30.1054 30.9044 30.2383 29.876 30.2383H26.5133ZM27.5533 28.4009H29.7373C30.4538 28.4009 31.072 28.3143 31.592 28.1409C32.1236 27.9561 32.5627 27.6903 32.9093 27.3436C33.2676 26.9854 33.5333 26.5405 33.7067 26.0089C33.88 25.4658 33.9667 24.8361 33.9667 24.1196C33.9667 22.6867 33.6142 21.6178 32.9093 20.9129C32.2044 20.2081 31.1471 19.8556 29.7373 19.8556H27.5533V28.4009ZM41.1205 30.4116C40.508 30.4116 39.9591 30.2961 39.4738 30.0649C39 29.8223 38.6245 29.4987 38.3471 29.0943C38.0813 28.6898 37.9485 28.2334 37.9485 27.7249C37.9485 27.1009 38.1102 26.6098 38.4338 26.2516C38.7573 25.8818 39.2831 25.6161 40.0111 25.4543C40.7391 25.2925 41.7156 25.2116 42.9405 25.2116H43.8071V26.4596H42.9578C42.2413 26.4596 41.6693 26.4943 41.2418 26.5636C40.8142 26.6329 40.508 26.7543 40.3231 26.9276C40.1498 27.0894 40.0631 27.3205 40.0631 27.6209C40.0631 28.0023 40.196 28.3143 40.4618 28.5569C40.7276 28.7996 41.0973 28.9209 41.5711 28.9209C41.9525 28.9209 42.2876 28.8343 42.5765 28.6609C42.8769 28.4761 43.1138 28.2276 43.2871 27.9156C43.4605 27.6036 43.5471 27.2454 43.5471 26.8409V24.8476C43.5471 24.2698 43.42 23.8538 43.1658 23.5996C42.9116 23.3454 42.484 23.2183 41.8831 23.2183C41.548 23.2183 41.184 23.2587 40.7911 23.3396C40.4098 23.4205 40.0053 23.5592 39.5778 23.7556C39.3582 23.8596 39.1618 23.8885 38.9885 23.8423C38.8267 23.7961 38.6996 23.7036 38.6071 23.5649C38.5147 23.4147 38.4685 23.2529 38.4685 23.0796C38.4685 22.9063 38.5147 22.7387 38.6071 22.5769C38.6996 22.4036 38.8556 22.2765 39.0751 22.1956C39.6067 21.9761 40.1151 21.8201 40.6005 21.7276C41.0973 21.6352 41.548 21.5889 41.9525 21.5889C42.7845 21.5889 43.4662 21.7161 43.9978 21.9703C44.5409 22.2245 44.9453 22.6116 45.2111 23.1316C45.4769 23.6401 45.6098 24.2987 45.6098 25.1076V29.2676C45.6098 29.6258 45.5231 29.9032 45.3498 30.0996C45.1765 30.2845 44.928 30.3769 44.6045 30.3769C44.2809 30.3769 44.0267 30.2845 43.8418 30.0996C43.6685 29.9032 43.5818 29.6258 43.5818 29.2676V28.4356H43.7205C43.6396 28.8401 43.4778 29.1925 43.2351 29.4929C43.004 29.7818 42.7093 30.0072 42.3511 30.1689C41.9929 30.3307 41.5827 30.4116 41.1205 30.4116ZM49.473 30.3769C49.1263 30.3769 48.8547 30.2845 48.6583 30.0996C48.4734 29.9032 48.381 29.6258 48.381 29.2676V23.3916H47.5836C47.3063 23.3916 47.0925 23.3223 46.9423 23.1836C46.7921 23.0334 46.717 22.8312 46.717 22.5769C46.717 22.3112 46.7921 22.1089 46.9423 21.9703C47.0925 21.8316 47.3063 21.7623 47.5836 21.7623H49.005L48.381 22.3343V21.7449C48.381 20.5547 48.6814 19.6649 49.2823 19.0756C49.8832 18.4747 50.7498 18.1223 51.8823 18.0183L52.4716 17.9663C52.7027 17.9432 52.8876 17.9836 53.0263 18.0876C53.165 18.1801 53.2574 18.3072 53.3036 18.4689C53.3498 18.6192 53.3556 18.7752 53.321 18.9369C53.2863 19.0987 53.2112 19.2432 53.0956 19.3703C52.9916 19.4858 52.853 19.5494 52.6796 19.5609L52.437 19.5783C51.7783 19.6245 51.2987 19.7921 50.9983 20.0809C50.6978 20.3698 50.5476 20.8089 50.5476 21.3983V22.0396L50.2703 21.7623H52.021C52.2983 21.7623 52.5121 21.8316 52.6623 21.9703C52.8125 22.1089 52.8876 22.3112 52.8876 22.5769C52.8876 22.8312 52.8125 23.0334 52.6623 23.1836C52.5121 23.3223 52.2983 23.3916 52.021 23.3916H50.5476V29.2676C50.5476 30.0072 50.1894 30.3769 49.473 30.3769ZM57.5315 30.4116C56.7804 30.4116 56.1506 30.2845 55.6421 30.0303C55.1452 29.7761 54.7755 29.4063 54.5328 28.9209C54.2901 28.4241 54.1688 27.8116 54.1688 27.0836V23.3916H53.2675C52.9901 23.3916 52.7764 23.3223 52.6261 23.1836C52.4759 23.0334 52.4008 22.8312 52.4008 22.5769C52.4008 22.3112 52.4759 22.1089 52.6261 21.9703C52.7764 21.8316 52.9901 21.7623 53.2675 21.7623H54.1688V20.1849C54.1688 19.8267 54.2612 19.5552 54.4461 19.3703C54.6426 19.1854 54.9141 19.0929 55.2608 19.0929C55.6075 19.0929 55.8732 19.1854 56.0581 19.3703C56.243 19.5552 56.3355 19.8267 56.3355 20.1849V21.7623H58.1728C58.4501 21.7623 58.6639 21.8316 58.8141 21.9703C58.9644 22.1089 59.0395 22.3112 59.0395 22.5769C59.0395 22.8312 58.9644 23.0334 58.8141 23.1836C58.6639 23.3223 58.4501 23.3916 58.1728 23.3916H56.3355V26.9623C56.3355 27.5169 56.4568 27.9329 56.6995 28.2103C56.9421 28.4876 57.335 28.6263 57.8781 28.6263C58.0746 28.6263 58.2479 28.6089 58.3981 28.5743C58.5484 28.5396 58.6812 28.5165 58.7968 28.5049C58.9355 28.4934 59.051 28.5396 59.1435 28.6436C59.2359 28.7361 59.2821 28.9325 59.2821 29.2329C59.2821 29.4641 59.2417 29.6721 59.1608 29.8569C59.0915 30.0303 58.9586 30.1516 58.7621 30.2209C58.6119 30.2672 58.4155 30.3076 58.1728 30.3423C57.9301 30.3885 57.7164 30.4116 57.5315 30.4116ZM63.0918 30.4116C62.4794 30.4116 61.9305 30.2961 61.4451 30.0649C60.9714 29.8223 60.5958 29.4987 60.3185 29.0943C60.0527 28.6898 59.9198 28.2334 59.9198 27.7249C59.9198 27.1009 60.0816 26.6098 60.4051 26.2516C60.7287 25.8818 61.2545 25.6161 61.9825 25.4543C62.7105 25.2925 63.6869 25.2116 64.9118 25.2116H65.7785V26.4596H64.9291C64.2127 26.4596 63.6407 26.4943 63.2131 26.5636C62.7856 26.6329 62.4794 26.7543 62.2945 26.9276C62.1211 27.0894 62.0345 27.3205 62.0345 27.6209C62.0345 28.0023 62.1674 28.3143 62.4331 28.5569C62.6989 28.7996 63.0687 28.9209 63.5425 28.9209C63.9238 28.9209 64.2589 28.8343 64.5478 28.6609C64.8483 28.4761 65.0851 28.2276 65.2585 27.9156C65.4318 27.6036 65.5185 27.2454 65.5185 26.8409V24.8476C65.5185 24.2698 65.3914 23.8538 65.1371 23.5996C64.8829 23.3454 64.4554 23.2183 63.8545 23.2183C63.5194 23.2183 63.1554 23.2587 62.7625 23.3396C62.3811 23.4205 61.9767 23.5592 61.5491 23.7556C61.3296 23.8596 61.1331 23.8885 60.9598 23.8423C60.798 23.7961 60.6709 23.7036 60.5785 23.5649C60.486 23.4147 60.4398 23.2529 60.4398 23.0796C60.4398 22.9063 60.486 22.7387 60.5785 22.5769C60.6709 22.4036 60.8269 22.2765 61.0465 22.1956C61.578 21.9761 62.0865 21.8201 62.5718 21.7276C63.0687 21.6352 63.5194 21.5889 63.9238 21.5889C64.7558 21.5889 65.4376 21.7161 65.9691 21.9703C66.5123 22.2245 66.9167 22.6116 67.1825 23.1316C67.4483 23.6401 67.5811 24.2987 67.5811 25.1076V29.2676C67.5811 29.6258 67.4945 29.9032 67.3211 30.0996C67.1478 30.2845 66.8994 30.3769 66.5758 30.3769C66.2523 30.3769 65.998 30.2845 65.8131 30.0996C65.6398 29.9032 65.5531 29.6258 65.5531 29.2676V28.4356H65.6918C65.6109 28.8401 65.4491 29.1925 65.2065 29.4929C64.9754 29.7818 64.6807 30.0072 64.3225 30.1689C63.9643 30.3307 63.554 30.4116 63.0918 30.4116ZM70.8896 30.3769C70.5314 30.3769 70.2541 30.2845 70.0576 30.0996C69.8728 29.9032 69.7803 29.6258 69.7803 29.2676V22.7156C69.7803 22.3574 69.8728 22.0858 70.0576 21.9009C70.2425 21.7161 70.5025 21.6236 70.8376 21.6236C71.1728 21.6236 71.4328 21.7161 71.6176 21.9009C71.8025 22.0858 71.895 22.3574 71.895 22.7156V23.8076H71.7216C71.8834 23.1143 72.2012 22.5885 72.675 22.2303C73.1488 21.8721 73.7785 21.6583 74.5643 21.5889C74.807 21.5658 74.9976 21.6294 75.1363 21.7796C75.2865 21.9183 75.3732 22.1378 75.3963 22.4383C75.4194 22.7272 75.3501 22.9641 75.1883 23.1489C75.0381 23.3223 74.807 23.4263 74.495 23.4609L74.1136 23.4956C73.4088 23.5649 72.8772 23.7845 72.519 24.1543C72.1608 24.5125 71.9816 25.0209 71.9816 25.6796V29.2676C71.9816 29.6258 71.8892 29.9032 71.7043 30.0996C71.5194 30.2845 71.2479 30.3769 70.8896 30.3769Z" fill="white"/>
<path d="M93.735 54.6301C93.735 49.8895 90.308 45.8436 85.6322 45.0637L67.5355 42.6646V30.5969C67.5355 27.8143 65.2799 25.5586 62.4973 25.5586C59.7146 25.5586 57.459 27.8143 57.459 30.5969V50.0668H57.4609L57.459 84.4391H93.735V67.7385V56.4506V54.6301Z" fill="url(#paint5_linear_9172_53561)"/>
<path d="M67.5352 84.4389H83.7232L93.7346 83.2545V67.7383V56.4504V54.6295C93.7346 49.8889 90.3076 45.843 85.6318 45.0631L67.5352 42.6641V84.4389Z" fill="url(#paint6_linear_9172_53561)"/>
<path d="M95.9523 77.491V81.8238C95.9523 82.8695 95.1047 83.7172 94.059 83.7172H57.1336C56.0879 83.7172 55.2402 82.8695 55.2402 81.8238V77.491C55.2402 76.4453 56.0879 75.5977 57.1336 75.5977H94.0592C95.1047 75.5977 95.9523 76.4453 95.9523 77.491Z" fill="url(#paint7_linear_9172_53561)"/>
<path d="M98.5266 82.3768V98.6695C98.5266 99.76 97.6426 100.644 96.5521 100.644H54.6424C53.552 100.644 52.668 99.76 52.668 98.6695V82.3768C52.668 81.2861 53.552 80.4023 54.6424 80.4023H96.552C97.6424 80.4021 98.5266 81.2861 98.5266 82.3768Z" fill="#00B5D4"/>
<path d="M78.8887 100.643H64.8164L58.3662 94.1924C57.3742 93.2824 56.752 91.9746 56.752 90.524C56.752 87.7727 58.9816 85.543 61.733 85.543C63.1859 85.543 64.4914 86.1629 65.4014 87.1549L78.8887 100.643Z" fill="url(#paint8_linear_9172_53561)"/>
<path d="M61.7344 95.5039C64.485 95.5039 66.7148 93.2741 66.7148 90.5234C66.7148 87.7728 64.485 85.543 61.7344 85.543C58.9837 85.543 56.7539 87.7728 56.7539 90.5234C56.7539 93.2741 58.9837 95.5039 61.7344 95.5039Z" fill="url(#paint9_linear_9172_53561)"/>
<path d="M61.734 93.9602C63.6323 93.9602 65.1711 92.4213 65.1711 90.5231C65.1711 88.6248 63.6323 87.0859 61.734 87.0859C59.8357 87.0859 58.2969 88.6248 58.2969 90.5231C58.2969 92.4213 59.8357 93.9602 61.734 93.9602Z" fill="url(#paint10_linear_9172_53561)"/>
<path d="M60.4279 89.9301C60.8207 89.9301 61.1391 89.6117 61.1391 89.2189C61.1391 88.8262 60.8207 88.5078 60.4279 88.5078C60.0352 88.5078 59.7168 88.8262 59.7168 89.2189C59.7168 89.6117 60.0352 89.9301 60.4279 89.9301Z" fill="#FFB92D"/>
<path d="M63.0393 89.9301C63.432 89.9301 63.7504 89.6117 63.7504 89.2189C63.7504 88.8262 63.432 88.5078 63.0393 88.5078C62.6465 88.5078 62.3281 88.8262 62.3281 89.2189C62.3281 89.6117 62.6465 89.9301 63.0393 89.9301Z" fill="#FFB92D"/>
<path d="M60.4279 92.5434C60.8207 92.5434 61.1391 92.225 61.1391 91.8322C61.1391 91.4395 60.8207 91.1211 60.4279 91.1211C60.0352 91.1211 59.7168 91.4395 59.7168 91.8322C59.7168 92.225 60.0352 92.5434 60.4279 92.5434Z" fill="#FFB92D"/>
<path d="M63.0393 92.5434C63.432 92.5434 63.7504 92.225 63.7504 91.8322C63.7504 91.4395 63.432 91.1211 63.0393 91.1211C62.6465 91.1211 62.3281 91.4395 62.3281 91.8322C62.3281 92.225 62.6465 92.5434 63.0393 92.5434Z" fill="#FFB92D"/>
</g>
<defs>
<linearGradient id="paint0_linear_9172_53561" x1="2.47266" y1="24.095" x2="95.2" y2="24.095" gradientUnits="userSpaceOnUse">
<stop stop-color="#336557"/>
<stop offset="1" stop-color="#539487"/>
</linearGradient>
<linearGradient id="paint1_linear_9172_53561" x1="48.838" y1="2.78516" x2="69.0553" y2="29.331" gradientUnits="userSpaceOnUse">
<stop stop-color="#7EBAAE"/>
<stop offset="1" stop-color="#95D3C7"/>
</linearGradient>
<linearGradient id="paint2_linear_9172_53561" x1="76.6278" y1="50.7466" x2="59.1909" y2="33.3097" gradientUnits="userSpaceOnUse">
<stop stop-color="#61DB99" stop-opacity="0"/>
<stop offset="1" stop-color="#009E74"/>
</linearGradient>
<linearGradient id="paint3_linear_9172_53561" x1="81.27" y1="46.5593" x2="52.9627" y2="18.2521" gradientUnits="userSpaceOnUse">
<stop stop-color="#C3C3C3" stop-opacity="0"/>
<stop offset="1" stop-color="#777777"/>
</linearGradient>
<linearGradient id="paint4_linear_9172_53561" x1="57.3107" y1="66.4409" x2="61.6577" y2="78.3936" gradientUnits="userSpaceOnUse">
<stop stop-color="#FFE7A5"/>
<stop offset="1" stop-color="#FFBF5C"/>
</linearGradient>
<linearGradient id="paint5_linear_9172_53561" x1="69.371" y1="51.5624" x2="84.106" y2="92.0831" gradientUnits="userSpaceOnUse">
<stop stop-color="#FFE7A5"/>
<stop offset="1" stop-color="#FFBF5C"/>
</linearGradient>
<linearGradient id="paint6_linear_9172_53561" x1="75.0783" y1="61.9714" x2="59.7845" y2="46.6776" gradientUnits="userSpaceOnUse">
<stop stop-color="#FFE7A5" stop-opacity="0"/>
<stop offset="1" stop-color="#FFBF5C"/>
</linearGradient>
<linearGradient id="paint7_linear_9172_53561" x1="67.3358" y1="82.4361" x2="107.204" y2="69.0247" gradientUnits="userSpaceOnUse">
<stop stop-color="#F2F2F2"/>
<stop offset="1" stop-color="#C3C3C3"/>
</linearGradient>
<linearGradient id="paint8_linear_9172_53561" x1="68.3775" y1="97.1691" x2="54.4209" y2="83.2125" gradientUnits="userSpaceOnUse">
<stop stop-color="#00A2F3" stop-opacity="0"/>
<stop offset="1" stop-color="#0075CD"/>
</linearGradient>
<linearGradient id="paint9_linear_9172_53561" x1="61.733" y1="87.3982" x2="61.733" y2="94.6" gradientUnits="userSpaceOnUse">
<stop stop-color="#FFF465"/>
<stop offset="1" stop-color="#FFE600"/>
</linearGradient>
<linearGradient id="paint10_linear_9172_53561" x1="61.7326" y1="92.682" x2="61.7326" y2="87.7115" gradientUnits="userSpaceOnUse">
<stop stop-color="#FFF465"/>
<stop offset="1" stop-color="#FFE600"/>
</linearGradient>
<clipPath id="clip0_9172_53561">
<rect width="100" height="100" fill="white" transform="translate(0.5 0.644531)"/>
</clipPath>
</defs>
</svg>
