<svg width="101" height="101" viewBox="0 0 101 101" fill="none" xmlns="http://www.w3.org/2000/svg">
<g clip-path="url(#clip0_9172_53681)">
<path d="M85.5539 51.1295C85.5539 55.1563 84.9402 59.0422 83.7977 62.6928C83.674 63.1002 83.5406 63.5029 83.3975 63.9031C82.9463 65.2082 82.4225 66.4793 81.8354 67.7164C81.343 68.7596 80.8043 69.7758 80.2199 70.7631C79.0557 72.7449 77.7215 74.6127 76.232 76.3471C74.6748 78.1639 72.9523 79.8354 71.0895 81.3393C64.4406 86.6928 55.9869 89.8996 46.7838 89.8996C25.3721 89.8996 8.01367 72.5412 8.01367 51.1295C8.01367 29.7178 25.3717 12.3594 46.7836 12.3594C68.1955 12.3594 85.5539 29.7178 85.5539 51.1295Z" fill="url(#paint0_linear_9172_53681)"/>
<path d="M46.784 24.8633C45.2627 24.8633 44.0293 46.8539 44.0293 48.3752C44.0293 49.3445 44.5312 50.1955 45.2883 50.6863L73.6666 79.0646C78.4541 74.4564 82.0586 68.6293 83.983 62.0824C77.6461 55.7916 46.784 24.8633 46.784 24.8633Z" fill="url(#paint1_linear_9172_53681)"/>
<path d="M46.7848 53.3195C47.9948 53.3195 48.9758 52.3386 48.9758 51.1285C48.9758 49.9185 47.9948 48.9375 46.7848 48.9375C45.5747 48.9375 44.5938 49.9185 44.5938 51.1285C44.5938 52.3386 45.5747 53.3195 46.7848 53.3195Z" fill="#FFC801"/>
<path d="M46.7838 20.3359C46.5178 20.3359 46.277 20.4437 46.1025 20.6182C45.9283 20.7924 45.8203 21.0332 45.8203 21.2994V28.3633C45.8203 28.5627 45.8809 28.748 45.9848 28.9018C46.0539 29.0043 46.1424 29.0928 46.2449 29.1619C46.2961 29.1967 46.351 29.2264 46.4086 29.2508C46.5238 29.2994 46.6506 29.3266 46.7834 29.3266C47.0494 29.3266 47.2902 29.2187 47.4646 29.0443C47.6389 28.8699 47.7469 28.6293 47.7469 28.3631V21.2992C47.7471 20.7672 47.3156 20.3359 46.7838 20.3359Z" fill="#8DCABE"/>
<path d="M46.7836 72.9297C46.2516 72.9297 45.8203 73.3611 45.8203 73.893V80.9568C45.8203 81.0486 45.8371 81.1355 45.8611 81.2195C45.976 81.6229 46.3434 81.9201 46.7834 81.9201C46.9164 81.9201 47.0432 81.893 47.1582 81.8443C47.5039 81.698 47.7467 81.3557 47.7467 80.9566V73.8928C47.7469 73.3609 47.3154 72.9297 46.7836 72.9297Z" fill="#8DCABE"/>
<path d="M76.6131 50.1641H69.5492C69.0172 50.1641 68.5859 50.5953 68.5859 51.1273C68.5859 51.6594 69.0172 52.0906 69.5492 52.0906H76.6131C77.1451 52.0906 77.5764 51.6594 77.5764 51.1273C77.5766 50.5953 77.1451 50.1641 76.6131 50.1641Z" fill="#8DCABE"/>
<path d="M24.983 51.1273C24.983 50.9279 24.9225 50.7424 24.8186 50.5887C24.7494 50.4861 24.6609 50.3977 24.5584 50.3285C24.4047 50.2246 24.2193 50.1641 24.0197 50.1641H16.9557C16.6896 50.1641 16.4488 50.2719 16.2744 50.4463C16.1002 50.6207 15.9922 50.8613 15.9922 51.1275C15.9922 51.6596 16.4234 52.0908 16.9555 52.0908H24.0193C24.2854 52.0908 24.5262 51.983 24.7006 51.8086C24.875 51.6342 24.983 51.3936 24.983 51.1273Z" fill="#8DCABE"/>
<path d="M63.5625 35.7136L68.5575 30.7187C68.9336 30.3426 68.9336 29.7326 68.5575 29.3564C68.1813 28.9801 67.5713 28.9802 67.1952 29.3564L62.2002 34.3513C61.8239 34.7277 61.8239 35.3375 62.2002 35.7136C62.5764 36.0898 63.1864 36.0898 63.5625 35.7136Z" fill="#8DCABE"/>
<path d="M31.3668 66.5438C30.9907 66.1677 30.3807 66.1677 30.0045 66.5438L25.0096 71.5388C24.6852 71.8632 24.6422 72.3608 24.8774 72.7333C24.9073 72.7806 24.943 72.8247 24.9819 72.8673C24.9918 72.8782 24.9989 72.8905 25.0096 72.9013C25.1932 73.0849 25.4325 73.1774 25.6731 73.1817C25.6789 73.1819 25.6848 73.1835 25.6907 73.1835C25.9372 73.1835 26.1836 73.0894 26.3719 72.9013L31.3668 67.9064C31.5079 67.7653 31.5961 67.5915 31.6313 67.4093C31.643 67.3485 31.6489 67.287 31.6489 67.2253C31.6491 66.9784 31.5551 66.7317 31.3668 66.5438Z" fill="#8DCABE"/>
<path d="M68.5573 71.5404L63.5624 66.5454C63.4448 66.4279 63.3034 66.3515 63.1545 66.3074C63.0114 66.265 62.8614 66.2536 62.7149 66.279C62.5264 66.312 62.3458 66.3995 62.2002 66.5451C61.8239 66.9214 61.8239 67.5312 62.2002 67.9074L67.1952 72.9023C67.2516 72.9587 67.3143 73.0038 67.3797 73.0433C67.7501 73.2671 68.2377 73.2222 68.5577 72.9023C68.711 72.749 68.7985 72.5562 68.8266 72.3568C68.8674 72.0677 68.7801 71.7634 68.5573 71.5404Z" fill="#8DCABE"/>
<path d="M26.373 29.3564C26.185 29.1684 25.9383 29.0742 25.6918 29.0742C25.6303 29.0742 25.5686 29.0801 25.5078 29.0918C25.3256 29.1271 25.1518 29.215 25.0107 29.3563C24.8227 29.5443 24.7285 29.791 24.7285 30.0375C24.7285 30.099 24.7344 30.1607 24.7461 30.2215C24.7814 30.4037 24.8693 30.5775 25.0105 30.7186L30.0055 35.7135C30.0141 35.7221 30.0242 35.7277 30.0332 35.7359C30.1211 35.8176 30.2189 35.8822 30.3242 35.925C30.44 35.9721 30.5635 35.9955 30.6867 35.9955C30.9332 35.9955 31.1799 35.9014 31.368 35.7133C31.509 35.5723 31.5973 35.3982 31.6324 35.2162C31.6441 35.1555 31.65 35.0939 31.65 35.0322C31.65 34.7857 31.5559 34.5391 31.3678 34.351L26.373 29.3564Z" fill="#8DCABE"/>
<path d="M81.8365 67.7141C81.3441 68.7572 80.8055 69.7734 80.2211 70.7607C79.0568 72.7426 77.7227 74.6104 76.2332 76.3447C74.676 78.1615 72.9535 79.833 71.0906 81.3369L43.8156 54.0963C42.1734 52.4564 42.1734 49.7979 43.8156 48.158C43.8883 48.0854 43.9611 48.0172 44.0387 47.9518C45.6104 46.5838 47.9586 46.5838 49.5305 47.9518C49.6082 48.0172 49.6809 48.0852 49.7535 48.158C49.8262 48.2307 49.899 48.3084 49.9621 48.3861H49.9645C50.0129 48.3885 50.0615 48.391 50.1148 48.3934C50.207 48.4006 50.309 48.4055 50.418 48.4127C50.9904 48.449 51.774 48.5098 52.6836 48.5922C52.9553 48.6164 53.2391 48.6432 53.5326 48.6723C53.7436 48.6939 53.9596 48.7135 54.1803 48.7377C54.3672 48.757 54.5564 48.7766 54.7502 48.7959C54.8908 48.8104 55.034 48.8275 55.1771 48.842C55.4053 48.8662 55.6332 48.893 55.8637 48.9197C56.9602 49.0459 58.0953 49.1889 59.1795 49.3492C59.3275 49.3709 59.4754 49.393 59.6211 49.417C59.6428 49.4193 59.6672 49.4219 59.6889 49.4268C59.8586 49.4535 60.0262 49.4801 60.191 49.5045C60.3559 49.5336 60.5186 49.5604 60.6787 49.5869C60.7853 49.6063 60.8922 49.6234 60.9988 49.6428C61.1613 49.6719 61.3238 49.701 61.484 49.7326C61.5641 49.7471 61.6441 49.7617 61.7217 49.7764C61.8865 49.8104 62.0441 49.8418 62.1996 49.8734C62.248 49.8832 62.2943 49.8928 62.3404 49.9025C62.4035 49.917 62.4666 49.9318 62.5273 49.9438C62.5564 49.9486 62.5855 49.9559 62.6147 49.9631C62.7045 49.9848 62.7941 50.0043 62.8789 50.0236C62.9395 50.0381 62.9977 50.0529 63.0535 50.0648C63.2791 50.123 63.4902 50.1787 63.6891 50.2346C63.7352 50.249 63.7812 50.2637 63.825 50.2758C63.8615 50.2855 63.8953 50.2975 63.9293 50.3074C63.9803 50.3244 64.0287 50.3414 64.0773 50.3561C64.0943 50.3609 64.1113 50.3656 64.1283 50.373C64.2254 50.407 64.3152 50.4385 64.4 50.4725C64.4072 50.4748 64.4145 50.4797 64.4242 50.482C64.4703 50.5014 64.5164 50.5209 64.5602 50.5379C64.6645 50.584 64.7566 50.6277 64.8393 50.6738C64.8758 50.6955 64.907 50.715 64.9387 50.7344C65.0404 50.7998 65.1182 50.8654 65.1691 50.9309C65.1861 50.9478 65.1982 50.9674 65.208 50.9842C65.2104 50.9891 65.2129 50.9914 65.2129 50.9939C65.225 51.0156 65.2346 51.0377 65.2397 51.0617C65.2469 51.0834 65.2492 51.1055 65.2492 51.1271L81.8365 67.7141Z" fill="url(#paint2_linear_9172_53681)"/>
<path d="M49.5379 53.8844C48.0166 53.8844 46.7832 52.651 46.7832 51.1297C46.7832 49.6084 48.0166 48.375 49.5379 48.375C51.0592 48.375 65.2467 49.6084 65.2467 51.1297C65.2469 52.6512 51.0592 53.8844 49.5379 53.8844Z" fill="#FFC801"/>
<path d="M49.5387 48.3752C49.5387 49.8965 48.3053 51.1299 46.784 51.1299C45.2627 51.1299 44.0293 49.8965 44.0293 48.3752C44.0293 46.8539 45.2627 24.8633 46.784 24.8633C48.3053 24.8635 49.5387 46.8539 49.5387 48.3752Z" fill="#FFC801"/>
<path d="M46.784 55.3297C49.1036 55.3297 50.984 53.4493 50.984 51.1297C50.984 48.8101 49.1036 46.9297 46.784 46.9297C44.4644 46.9297 42.584 48.8101 42.584 51.1297C42.584 53.4493 44.4644 55.3297 46.784 55.3297Z" fill="#8DCABE"/>
<path d="M44.8563 84.3652C43.6604 85.9389 43.0625 87.5496 43.0625 89.1971V89.7201C44.2869 89.8367 45.5275 89.8986 46.7828 89.8986C55.9859 89.8986 64.4396 86.6918 71.0885 81.3383C72.9514 79.8344 74.6738 78.1629 76.2311 76.3461C76.8602 75.6135 77.4598 74.8559 78.0322 74.0773L63.266 59.3217C60.9752 57.2789 58.1988 56.2578 54.9371 56.2578C51.8584 56.2578 49.2104 57.1648 46.9934 58.9789C44.7756 60.793 43.6674 63.1295 43.6674 65.9881C43.6674 67.4037 44.0469 68.3525 44.8004 68.8416L53.1666 77.2496L49.2748 80.0824C47.5252 81.3643 46.052 82.7916 44.8563 84.3652Z" fill="url(#paint3_linear_9172_53681)"/>
<path d="M43.0625 94.5229V89.1971C43.0625 87.5494 43.6603 85.9391 44.8562 84.3652C46.0518 82.7916 47.525 81.3641 49.2748 80.0824L54.5523 76.241C56.3117 74.9609 57.8045 73.5523 59.033 72.0156C60.2605 70.4799 60.8746 68.943 60.8746 67.4062C60.8746 65.8705 60.3705 64.526 59.3629 63.3732C58.3545 62.2215 56.8797 61.6451 54.9373 61.6451C53.2881 61.6451 51.9498 62.1004 50.9244 63.0098C49.8977 63.9197 49.385 65.2656 49.385 67.048C49.385 67.6307 49.1006 68.1406 48.5328 68.5771C47.9645 69.0137 47.2221 69.2318 46.3063 69.2318C44.5471 69.2318 43.6676 68.151 43.6676 65.9881C43.6676 63.1295 44.7758 60.7932 46.9936 58.9789C49.2105 57.1648 51.8586 56.2578 54.9373 56.2578C58.1988 56.2578 60.9754 57.2787 63.2662 59.3215C65.5561 61.3643 66.7021 64.0037 66.7021 67.242C66.7021 69.4375 66.0881 71.4949 64.8605 73.4154C63.632 75.3361 62.1478 76.9641 60.4074 78.2988C58.6662 79.6346 56.9252 80.8963 55.185 82.0852C53.4438 83.274 51.9598 84.4723 50.732 85.6793C49.5035 86.8871 48.8904 88.0578 48.8904 89.1916V91.2764H65.0529C65.5658 91.2764 66.0148 91.5238 66.3998 92.0186C66.7848 92.5135 66.9773 93.1098 66.9773 93.8055C66.9773 94.5021 66.7857 95.1162 66.4035 95.6471C66.0213 96.1789 65.5754 96.4445 65.066 96.4445H45.6287C45.0463 96.4445 44.4725 96.2613 43.9092 95.8955C43.3443 95.5295 43.0625 95.0725 43.0625 94.5229Z" fill="#00B5D4"/>
<path d="M67.1973 85.2506C67.1973 84.8486 67.3072 84.4459 67.5273 84.043L80.8313 57.85C81.3811 56.7885 82.2236 56.2578 83.3602 56.2578C83.9826 56.2578 84.6246 56.4773 85.2842 56.9174C85.9437 57.3574 86.2738 57.8887 86.2738 58.5117C86.2738 58.7314 86.1816 59.0252 85.9986 59.3914L74.674 81.9857H82.7553V74.3557C82.7553 73.0652 83.7258 72.4203 85.6689 72.4203C86.4746 72.4203 87.1617 72.5869 87.7305 72.9186C88.2982 73.2502 88.5826 73.7293 88.5826 74.3559V81.9859H91.2764C91.899 81.9859 92.3842 82.2584 92.733 82.8029C93.0809 83.3475 93.2553 83.9824 93.2553 84.7072C93.2553 85.36 93.0533 85.9682 92.6504 86.5299C92.2469 87.0924 91.7889 87.3734 91.2762 87.3734H88.5824V94.508C88.5824 95.099 88.2887 95.569 87.7027 95.9195C87.1158 96.2697 86.4383 96.4445 85.6686 96.4445C84.8621 96.4445 84.1748 96.2701 83.607 95.9195C83.0383 95.569 82.7549 95.099 82.7549 94.508V87.3734H69.2313C68.6443 87.3734 68.1592 87.1836 67.7746 86.8023C67.3898 86.4207 67.1973 85.9035 67.1973 85.2506Z" fill="#00B5D4"/>
<path d="M97.2401 44.4898H92.7957H92.5895C89.3602 22.1023 70.0512 4.84375 46.7838 4.84375C21.2627 4.84375 0.5 25.6063 0.5 51.1272C0.5 61.6578 4.13223 71.9647 10.7275 80.1488C17.2234 88.2098 26.327 93.9213 36.3609 96.2317C36.6356 96.2951 36.91 96.3252 37.1805 96.3252C38.8373 96.3252 40.3354 95.1858 40.7231 93.5023C41.1738 91.544 39.952 89.5912 37.9934 89.1404C29.5418 87.1943 21.8711 82.3797 16.3938 75.583C10.7566 68.5879 7.77715 60.1314 7.77715 51.1275C7.77715 29.6191 25.2754 12.1211 46.7838 12.1211C66.0299 12.1211 82.0627 26.1324 85.2229 44.49H81.3848C78.4861 44.49 77.0346 47.9945 79.0842 50.0439L87.0119 57.9717C88.2824 59.2422 90.3426 59.2422 91.6131 57.9717L99.5408 50.0439C101.59 47.9943 100.138 44.4898 97.2401 44.4898Z" fill="#FFC801"/>
</g>
<defs>
<linearGradient id="paint0_linear_9172_53681" x1="48.4989" y1="52.8468" x2="99.1527" y2="103.501" gradientUnits="userSpaceOnUse">
<stop stop-color="white"/>
<stop offset="1" stop-color="#C3C3C3"/>
</linearGradient>
<linearGradient id="paint1_linear_9172_53681" x1="62.4812" y1="52.2184" x2="20.8789" y2="47.548" gradientUnits="userSpaceOnUse">
<stop stop-color="#C3C3C3" stop-opacity="0"/>
<stop offset="0.267" stop-color="#A4A4A4" stop-opacity="0.267"/>
<stop offset="0.542" stop-color="#8B8B8B" stop-opacity="0.542"/>
<stop offset="0.794" stop-color="#7C7C7C" stop-opacity="0.794"/>
<stop offset="1" stop-color="#777777"/>
</linearGradient>
<linearGradient id="paint2_linear_9172_53681" x1="62.0883" y1="60.1007" x2="45.1514" y2="41.4972" gradientUnits="userSpaceOnUse">
<stop stop-color="#C3C3C3" stop-opacity="0"/>
<stop offset="0.267" stop-color="#A4A4A4" stop-opacity="0.267"/>
<stop offset="0.542" stop-color="#8B8B8B" stop-opacity="0.542"/>
<stop offset="0.794" stop-color="#7C7C7C" stop-opacity="0.794"/>
<stop offset="1" stop-color="#777777"/>
</linearGradient>
<linearGradient id="paint3_linear_9172_53681" x1="60.894" y1="82.247" x2="37.7906" y2="59.1435" gradientUnits="userSpaceOnUse">
<stop stop-color="#C3C3C3" stop-opacity="0"/>
<stop offset="0.267" stop-color="#A4A4A4" stop-opacity="0.267"/>
<stop offset="0.542" stop-color="#8B8B8B" stop-opacity="0.542"/>
<stop offset="0.794" stop-color="#7C7C7C" stop-opacity="0.794"/>
<stop offset="1" stop-color="#777777"/>
</linearGradient>
<clipPath id="clip0_9172_53681">
<rect width="100" height="100" fill="white" transform="translate(0.5 0.644531)"/>
</clipPath>
</defs>
</svg>
